G04 #@! TF.FileFunction,Legend,Bot*
%FSLAX46Y46*%
G04 Gerber Fmt 4.6, Leading zero omitted, Abs format (unit mm)*
G04 Created by KiCad (PCBNEW 4.0.5) date 05/10/17 19:10:08*
%MOMM*%
%LPD*%
G01*
G04 APERTURE LIST*
%ADD10C,0.100000*%
%ADD11C,0.300000*%
%ADD12C,0.200000*%
%ADD13C,0.190500*%
%ADD14C,0.120000*%
%ADD15C,0.150000*%
G04 APERTURE END LIST*
D10*
D11*
X22821428Y36392857D02*
X21678571Y36392857D01*
X22250000Y35821429D02*
X22250000Y36964286D01*
X22071428Y54642857D02*
X20928571Y54642857D01*
X21500000Y54071429D02*
X21500000Y55214286D01*
X10821428Y36392857D02*
X9678571Y36392857D01*
X10250000Y35821429D02*
X10250000Y36964286D01*
X21821428Y18142857D02*
X20678571Y18142857D01*
X21250000Y17571429D02*
X21250000Y18714286D01*
X23714286Y5571429D02*
X23714286Y7071429D01*
X23142858Y7071429D01*
X23000000Y7000000D01*
X22928572Y6928571D01*
X22857143Y6785714D01*
X22857143Y6571429D01*
X22928572Y6428571D01*
X23000000Y6357143D01*
X23142858Y6285714D01*
X23714286Y6285714D01*
X21928572Y7071429D02*
X21642858Y7071429D01*
X21500000Y7000000D01*
X21357143Y6857143D01*
X21285715Y6571429D01*
X21285715Y6071429D01*
X21357143Y5785714D01*
X21500000Y5642857D01*
X21642858Y5571429D01*
X21928572Y5571429D01*
X22071429Y5642857D01*
X22214286Y5785714D01*
X22285715Y6071429D01*
X22285715Y6571429D01*
X22214286Y6857143D01*
X22071429Y7000000D01*
X21928572Y7071429D01*
X20785714Y7071429D02*
X20428571Y5571429D01*
X20142857Y6642857D01*
X19857143Y5571429D01*
X19500000Y7071429D01*
X18928571Y6357143D02*
X18428571Y6357143D01*
X18214285Y5571429D02*
X18928571Y5571429D01*
X18928571Y7071429D01*
X18214285Y7071429D01*
X16714285Y5571429D02*
X17214285Y6285714D01*
X17571428Y5571429D02*
X17571428Y7071429D01*
X17000000Y7071429D01*
X16857142Y7000000D01*
X16785714Y6928571D01*
X16714285Y6785714D01*
X16714285Y6571429D01*
X16785714Y6428571D01*
X16857142Y6357143D01*
X17000000Y6285714D01*
X17571428Y6285714D01*
X60392857Y5464286D02*
X60464286Y5392857D01*
X60678572Y5321429D01*
X60821429Y5321429D01*
X61035714Y5392857D01*
X61178572Y5535714D01*
X61250000Y5678571D01*
X61321429Y5964286D01*
X61321429Y6178571D01*
X61250000Y6464286D01*
X61178572Y6607143D01*
X61035714Y6750000D01*
X60821429Y6821429D01*
X60678572Y6821429D01*
X60464286Y6750000D01*
X60392857Y6678571D01*
X59464286Y6821429D02*
X59178572Y6821429D01*
X59035714Y6750000D01*
X58892857Y6607143D01*
X58821429Y6321429D01*
X58821429Y5821429D01*
X58892857Y5535714D01*
X59035714Y5392857D01*
X59178572Y5321429D01*
X59464286Y5321429D01*
X59607143Y5392857D01*
X59750000Y5535714D01*
X59821429Y5821429D01*
X59821429Y6321429D01*
X59750000Y6607143D01*
X59607143Y6750000D01*
X59464286Y6821429D01*
X58178571Y5321429D02*
X58178571Y6821429D01*
X57678571Y5750000D01*
X57178571Y6821429D01*
X57178571Y5321429D01*
X56535714Y5392857D02*
X56321428Y5321429D01*
X55964285Y5321429D01*
X55821428Y5392857D01*
X55749999Y5464286D01*
X55678571Y5607143D01*
X55678571Y5750000D01*
X55749999Y5892857D01*
X55821428Y5964286D01*
X55964285Y6035714D01*
X56249999Y6107143D01*
X56392857Y6178571D01*
X56464285Y6250000D01*
X56535714Y6392857D01*
X56535714Y6535714D01*
X56464285Y6678571D01*
X56392857Y6750000D01*
X56249999Y6821429D01*
X55892857Y6821429D01*
X55678571Y6750000D01*
D12*
X41750000Y57845484D02*
X42750000Y56845484D01*
X42750000Y56845484D02*
X41750000Y55845484D01*
X42750000Y54845484D02*
X41750000Y53845484D01*
X41750000Y55845484D02*
X42750000Y54845484D01*
X42750000Y52845484D02*
X41750000Y51845484D01*
X41750000Y53845484D02*
X42750000Y52845484D01*
X41750000Y51845484D02*
X42750000Y50845484D01*
X41750000Y49845484D02*
X42750000Y48845484D01*
X42750000Y48845484D02*
X41750000Y47845484D01*
X42750000Y50845484D02*
X41750000Y49845484D01*
X41750000Y45845484D02*
X42750000Y44845484D01*
X42750000Y46845484D02*
X41750000Y45845484D01*
X41750000Y47845484D02*
X42750000Y46845484D01*
X42750000Y44845484D02*
X41750000Y43845484D01*
X41750000Y43845484D02*
X42750000Y42845484D01*
X42750000Y40845484D02*
X41750000Y39845484D01*
X42750000Y42845484D02*
X41750000Y41845484D01*
X41750000Y41845484D02*
X42750000Y40845484D01*
X41750000Y33845484D02*
X42750000Y32845484D01*
X42750000Y28845484D02*
X41750000Y27845484D01*
X42750000Y32845484D02*
X41750000Y31845484D01*
X41750000Y27845484D02*
X42750000Y26845484D01*
X41750000Y31845484D02*
X42750000Y30845484D01*
X41750000Y29845484D02*
X42750000Y28845484D01*
X42750000Y30845484D02*
X41750000Y29845484D01*
X41750000Y35845484D02*
X42750000Y34845484D01*
X42750000Y36845484D02*
X41750000Y35845484D01*
X42750000Y34845484D02*
X41750000Y33845484D01*
X41750000Y39845484D02*
X42750000Y38845484D01*
X41750000Y37845484D02*
X42750000Y36845484D01*
X42750000Y38845484D02*
X41750000Y37845484D01*
X41750000Y69845484D02*
X42750000Y68845484D01*
X41750000Y67845484D02*
X42750000Y66845484D01*
X42750000Y70845484D02*
X41750000Y69845484D01*
X42750000Y68845484D02*
X41750000Y67845484D01*
X42750000Y62845484D02*
X41750000Y61845484D01*
X41750000Y65845484D02*
X42750000Y64845484D01*
X42750000Y64845484D02*
X41750000Y63845484D01*
X42750000Y66845484D02*
X41750000Y65845484D01*
X41750000Y63845484D02*
X42750000Y62845484D01*
X42750000Y60845484D02*
X41750000Y59845484D01*
X41750000Y59845484D02*
X42750000Y58845484D01*
X41750000Y61845484D02*
X42750000Y60845484D01*
X42750000Y58845484D02*
X41750000Y57845484D01*
X42750000Y26845484D02*
X41750000Y25845484D01*
X42750000Y20845484D02*
X41750000Y19845484D01*
X42750000Y18845484D02*
X41750000Y17845484D01*
X41750000Y19845484D02*
X42750000Y18845484D01*
X41750000Y25845484D02*
X42750000Y24845484D01*
X41750000Y23845484D02*
X42750000Y22845484D01*
X42750000Y22845484D02*
X41750000Y21845484D01*
X41750000Y21845484D02*
X42750000Y20845484D01*
X42750000Y24845484D02*
X41750000Y23845484D01*
X42750000Y16845484D02*
X41750000Y15845484D01*
X41750000Y15845484D02*
X42750000Y14845484D01*
X41750000Y17845484D02*
X42750000Y16845484D01*
X42750000Y14845484D02*
X41750000Y13845484D01*
X42750000Y10845484D02*
X41750000Y9845484D01*
X41750000Y9845484D02*
X42750000Y8845484D01*
X41750000Y11845484D02*
X42750000Y10845484D01*
X41750000Y13845484D02*
X42750000Y12845484D01*
X42750000Y12845484D02*
X41750000Y11845484D01*
D13*
X23810000Y4373000D02*
X23447143Y4373000D01*
X23882572Y4155286D02*
X23628572Y4917286D01*
X23374572Y4155286D01*
X22794000Y4663286D02*
X22794000Y4155286D01*
X23120571Y4663286D02*
X23120571Y4264143D01*
X23084286Y4191571D01*
X23011714Y4155286D01*
X22902857Y4155286D01*
X22830286Y4191571D01*
X22794000Y4227857D01*
X22467428Y4191571D02*
X22394857Y4155286D01*
X22249714Y4155286D01*
X22177142Y4191571D01*
X22140857Y4264143D01*
X22140857Y4300429D01*
X22177142Y4373000D01*
X22249714Y4409286D01*
X22358571Y4409286D01*
X22431142Y4445571D01*
X22467428Y4518143D01*
X22467428Y4554429D01*
X22431142Y4627000D01*
X22358571Y4663286D01*
X22249714Y4663286D01*
X22177142Y4627000D01*
X21923143Y4663286D02*
X21632857Y4663286D01*
X21814285Y4917286D02*
X21814285Y4264143D01*
X21778000Y4191571D01*
X21705428Y4155286D01*
X21632857Y4155286D01*
X21378856Y4155286D02*
X21378856Y4663286D01*
X21378856Y4917286D02*
X21415142Y4881000D01*
X21378856Y4844714D01*
X21342571Y4881000D01*
X21378856Y4917286D01*
X21378856Y4844714D01*
X21015999Y4663286D02*
X21015999Y4155286D01*
X21015999Y4590714D02*
X20979714Y4627000D01*
X20907142Y4663286D01*
X20798285Y4663286D01*
X20725714Y4627000D01*
X20689428Y4554429D01*
X20689428Y4155286D01*
X19782285Y4191571D02*
X19673428Y4155286D01*
X19491999Y4155286D01*
X19419428Y4191571D01*
X19383142Y4227857D01*
X19346857Y4300429D01*
X19346857Y4373000D01*
X19383142Y4445571D01*
X19419428Y4481857D01*
X19491999Y4518143D01*
X19637142Y4554429D01*
X19709714Y4590714D01*
X19745999Y4627000D01*
X19782285Y4699571D01*
X19782285Y4772143D01*
X19745999Y4844714D01*
X19709714Y4881000D01*
X19637142Y4917286D01*
X19455714Y4917286D01*
X19346857Y4881000D01*
X19020285Y4155286D02*
X19020285Y4917286D01*
X18693714Y4155286D02*
X18693714Y4554429D01*
X18730000Y4627000D01*
X18802571Y4663286D01*
X18911428Y4663286D01*
X18984000Y4627000D01*
X19020285Y4590714D01*
X18330856Y4155286D02*
X18330856Y4663286D01*
X18330856Y4917286D02*
X18367142Y4881000D01*
X18330856Y4844714D01*
X18294571Y4881000D01*
X18330856Y4917286D01*
X18330856Y4844714D01*
X17967999Y4155286D02*
X17967999Y4663286D01*
X17967999Y4518143D02*
X17931714Y4590714D01*
X17895428Y4627000D01*
X17822857Y4663286D01*
X17750285Y4663286D01*
X17387428Y4155286D02*
X17460000Y4191571D01*
X17496285Y4264143D01*
X17496285Y4917286D01*
X16806857Y4191571D02*
X16879428Y4155286D01*
X17024571Y4155286D01*
X17097142Y4191571D01*
X17133428Y4264143D01*
X17133428Y4554429D01*
X17097142Y4627000D01*
X17024571Y4663286D01*
X16879428Y4663286D01*
X16806857Y4627000D01*
X16770571Y4554429D01*
X16770571Y4481857D01*
X17133428Y4409286D01*
X16516571Y4663286D02*
X16335142Y4155286D01*
X16153714Y4663286D02*
X16335142Y4155286D01*
X16407714Y3973857D01*
X16443999Y3937571D01*
X16516571Y3901286D01*
D14*
X30040000Y33960000D02*
X30040000Y44120000D01*
X31310000Y33960000D02*
X23690000Y33960000D01*
X23690000Y33960000D02*
X23690000Y44120000D01*
X23690000Y44120000D02*
X31310000Y44120000D01*
X31310000Y44120000D02*
X31310000Y33960000D01*
X30040000Y52160000D02*
X30040000Y62320000D01*
X31310000Y52160000D02*
X23690000Y52160000D01*
X23690000Y52160000D02*
X23690000Y62320000D01*
X23690000Y62320000D02*
X31310000Y62320000D01*
X31310000Y62320000D02*
X31310000Y52160000D01*
X30040000Y15760000D02*
X30040000Y25920000D01*
X31310000Y15760000D02*
X23690000Y15760000D01*
X23690000Y15760000D02*
X23690000Y25920000D01*
X23690000Y25920000D02*
X31310000Y25920000D01*
X31310000Y25920000D02*
X31310000Y15760000D01*
D15*
X22702381Y42488095D02*
X21702381Y42488095D01*
X21702381Y42107142D01*
X21750000Y42011904D01*
X21797619Y41964285D01*
X21892857Y41916666D01*
X22035714Y41916666D01*
X22130952Y41964285D01*
X22178571Y42011904D01*
X22226190Y42107142D01*
X22226190Y42488095D01*
X22702381Y41440476D02*
X22702381Y41250000D01*
X22654762Y41154761D01*
X22607143Y41107142D01*
X22464286Y41011904D01*
X22273810Y40964285D01*
X21892857Y40964285D01*
X21797619Y41011904D01*
X21750000Y41059523D01*
X21702381Y41154761D01*
X21702381Y41345238D01*
X21750000Y41440476D01*
X21797619Y41488095D01*
X21892857Y41535714D01*
X22130952Y41535714D01*
X22226190Y41488095D01*
X22273810Y41440476D01*
X22321429Y41345238D01*
X22321429Y41154761D01*
X22273810Y41059523D01*
X22226190Y41011904D01*
X22130952Y40964285D01*
X22872381Y60964286D02*
X21872381Y60964286D01*
X21872381Y60583333D01*
X21920000Y60488095D01*
X21967619Y60440476D01*
X22062857Y60392857D01*
X22205714Y60392857D01*
X22300952Y60440476D01*
X22348571Y60488095D01*
X22396190Y60583333D01*
X22396190Y60964286D01*
X22872381Y59440476D02*
X22872381Y60011905D01*
X22872381Y59726191D02*
X21872381Y59726191D01*
X22015238Y59821429D01*
X22110476Y59916667D01*
X22158095Y60011905D01*
X21872381Y58821429D02*
X21872381Y58726190D01*
X21920000Y58630952D01*
X21967619Y58583333D01*
X22062857Y58535714D01*
X22253333Y58488095D01*
X22491429Y58488095D01*
X22681905Y58535714D01*
X22777143Y58583333D01*
X22824762Y58630952D01*
X22872381Y58726190D01*
X22872381Y58821429D01*
X22824762Y58916667D01*
X22777143Y58964286D01*
X22681905Y59011905D01*
X22491429Y59059524D01*
X22253333Y59059524D01*
X22062857Y59011905D01*
X21967619Y58964286D01*
X21920000Y58916667D01*
X21872381Y58821429D01*
X22702381Y24714286D02*
X21702381Y24714286D01*
X21702381Y24333333D01*
X21750000Y24238095D01*
X21797619Y24190476D01*
X21892857Y24142857D01*
X22035714Y24142857D01*
X22130952Y24190476D01*
X22178571Y24238095D01*
X22226190Y24333333D01*
X22226190Y24714286D01*
X22702381Y23190476D02*
X22702381Y23761905D01*
X22702381Y23476191D02*
X21702381Y23476191D01*
X21845238Y23571429D01*
X21940476Y23666667D01*
X21988095Y23761905D01*
X22702381Y22238095D02*
X22702381Y22809524D01*
X22702381Y22523810D02*
X21702381Y22523810D01*
X21845238Y22619048D01*
X21940476Y22714286D01*
X21988095Y22809524D01*
X53333095Y21297619D02*
X53333095Y22297619D01*
X52952142Y22297619D01*
X52856904Y22250000D01*
X52809285Y22202381D01*
X52761666Y22107143D01*
X52761666Y21964286D01*
X52809285Y21869048D01*
X52856904Y21821429D01*
X52952142Y21773810D01*
X53333095Y21773810D01*
X51809285Y21297619D02*
X52380714Y21297619D01*
X52095000Y21297619D02*
X52095000Y22297619D01*
X52190238Y22154762D01*
X52285476Y22059524D01*
X52380714Y22011905D01*
X53333095Y39547619D02*
X53333095Y40547619D01*
X52952142Y40547619D01*
X52856904Y40500000D01*
X52809285Y40452381D01*
X52761666Y40357143D01*
X52761666Y40214286D01*
X52809285Y40119048D01*
X52856904Y40071429D01*
X52952142Y40023810D01*
X53333095Y40023810D01*
X52380714Y40452381D02*
X52333095Y40500000D01*
X52237857Y40547619D01*
X51999761Y40547619D01*
X51904523Y40500000D01*
X51856904Y40452381D01*
X51809285Y40357143D01*
X51809285Y40261905D01*
X51856904Y40119048D01*
X52428333Y39547619D01*
X51809285Y39547619D01*
X53333095Y57797619D02*
X53333095Y58797619D01*
X52952142Y58797619D01*
X52856904Y58750000D01*
X52809285Y58702381D01*
X52761666Y58607143D01*
X52761666Y58464286D01*
X52809285Y58369048D01*
X52856904Y58321429D01*
X52952142Y58273810D01*
X53333095Y58273810D01*
X52428333Y58797619D02*
X51809285Y58797619D01*
X52142619Y58416667D01*
X51999761Y58416667D01*
X51904523Y58369048D01*
X51856904Y58321429D01*
X51809285Y58226190D01*
X51809285Y57988095D01*
X51856904Y57892857D01*
X51904523Y57845238D01*
X51999761Y57797619D01*
X52285476Y57797619D01*
X52380714Y57845238D01*
X52428333Y57892857D01*
X53238095Y74547619D02*
X53238095Y75547619D01*
X52857142Y75547619D01*
X52761904Y75500000D01*
X52714285Y75452381D01*
X52666666Y75357143D01*
X52666666Y75214286D01*
X52714285Y75119048D01*
X52761904Y75071429D01*
X52857142Y75023810D01*
X53238095Y75023810D01*
X51761904Y75547619D02*
X52238095Y75547619D01*
X52285714Y75071429D01*
X52238095Y75119048D01*
X52142857Y75166667D01*
X51904761Y75166667D01*
X51809523Y75119048D01*
X51761904Y75071429D01*
X51714285Y74976190D01*
X51714285Y74738095D01*
X51761904Y74642857D01*
X51809523Y74595238D01*
X51904761Y74547619D01*
X52142857Y74547619D01*
X52238095Y74595238D01*
X52285714Y74642857D01*
M02*
