M48
;DRILL file {KiCad 4.0.5} date 05/10/17 19:10:11
;FORMAT={2:4/ absolute / inch / suppress leading zeros}
FMAT,2
INCH,TZ
T1C0.013
T2C0.018
T3C0.022
T4C0.024
T5C0.028
T6C0.031
T7C0.036
T8C0.039
T9C0.060
T10C0.079
T11C0.091
T12C0.031
T13C0.035
T14C0.126
%
G90
G05
M72
T1
X20168Y13387
X21063Y20276
X23425Y24606
X23819Y24606
X26969Y10433
X26969Y9055
X26969Y8071
X27222Y10157
X27323Y13583
X27362Y9252
X28150Y8465
X28641Y10448
X29823Y15059
X29921Y10728
T2
X20157Y21535
X20157Y14370
X20157Y7205
X20413Y21791
X20413Y14626
X20413Y7461
X20669Y21535
X20669Y14370
X20669Y7205
X20925Y21791
X20925Y14626
X20925Y7461
X21181Y21535
X21181Y14370
X21181Y7205
T3
X20079Y22157
X20079Y21173
X20079Y14992
X20079Y14008
X20079Y7827
X20079Y6843
X21260Y22157
X21260Y21173
X21260Y14992
X21260Y14008
X21260Y7827
X21260Y6843
T4
X25551Y18504
X25551Y17874
X26299Y18819
X26299Y18189
X26299Y17559
T5
X19360Y21780
X19360Y14614
X19360Y7449
X21978Y21780
X21978Y14614
X21978Y7449
T6
X15354Y26378
X15354Y16535
X15354Y12992
X15354Y5118
T7
X19488Y28346
X20276Y28346
X21063Y28346
X21850Y28346
T8
X25866Y26551
X25866Y25551
X25866Y24752
X25866Y23752
T9
X5709Y16370
X5709Y14370
X10827Y23535
X10827Y21535
X10827Y16370
X10827Y14370
X10827Y9205
X10827Y7205
T10
X25945Y19843
X25945Y16535
T11
X18083Y29413
X23256Y29413
X26917Y27752
X26917Y22350
T12
X19567Y21370
X19567Y14205
X19567Y7039
X21772Y21370
X21772Y14205
X21772Y7039
T13
X28661Y19055
X28661Y17323
T14
X2362Y29134
X2362Y2362
X16634Y29134
X16634Y2362
X29134Y29134
X29134Y2362
T0
M30
