G04 #@! TF.FileFunction,Paste,Top*
%FSLAX46Y46*%
G04 Gerber Fmt 4.6, Leading zero omitted, Abs format (unit mm)*
G04 Created by KiCad (PCBNEW 4.0.4-stable) date 05/10/17 13:02:38*
%MOMM*%
%LPD*%
G01*
G04 APERTURE LIST*
%ADD10C,0.100000*%
%ADD11C,0.150000*%
%ADD12R,1.300000X0.700000*%
%ADD13R,1.200000X1.200000*%
%ADD14R,0.700000X1.300000*%
%ADD15R,1.250000X1.000000*%
%ADD16R,1.000000X1.250000*%
%ADD17R,1.930400X5.334000*%
%ADD18R,0.350000X1.500000*%
%ADD19R,0.500380X2.301240*%
%ADD20R,1.998980X2.499360*%
%ADD21R,0.750000X0.800000*%
G04 APERTURE END LIST*
D10*
D11*
X49000000Y-127680000D02*
X28300000Y-127680000D01*
X57199999Y-123430000D02*
X57200000Y-111680000D01*
X57199999Y-127680000D02*
X57199999Y-123430000D01*
X49000000Y-127680000D02*
X57199999Y-127680000D01*
X28300001Y-111680000D02*
X28300000Y-127680000D01*
X57200000Y-111680000D02*
X28300001Y-111680000D01*
D12*
X100900000Y-105450000D03*
X100900000Y-103550000D03*
D13*
X105600000Y-110643548D03*
X103400000Y-110643548D03*
D14*
X84250000Y-120500000D03*
X86150000Y-120500000D03*
D15*
X86000000Y-118000000D03*
X86000000Y-116000000D03*
D13*
X105600000Y-113200000D03*
X103400000Y-113200000D03*
D12*
X100600000Y-110350000D03*
X100600000Y-108450000D03*
D16*
X98000000Y-133000000D03*
X100000000Y-133000000D03*
D13*
X103400000Y-108143548D03*
X105600000Y-108143548D03*
D15*
X88500000Y-118000000D03*
X88500000Y-116000000D03*
D14*
X95950000Y-132800000D03*
X94050000Y-132800000D03*
D16*
X96500000Y-130500000D03*
X98500000Y-130500000D03*
D13*
X103400000Y-105643548D03*
X105600000Y-105643548D03*
D12*
X85500000Y-123950000D03*
X85500000Y-125850000D03*
D13*
X105600000Y-103143548D03*
X103400000Y-103143548D03*
D17*
X102500000Y-129326000D03*
X102500000Y-119674000D03*
D18*
X91889000Y-127500000D03*
X91889000Y-122100000D03*
X92509000Y-127500000D03*
X92529000Y-122100000D03*
X91249000Y-122100000D03*
X91249000Y-127500000D03*
X90609000Y-127500000D03*
X90609000Y-122100000D03*
X93169000Y-122100000D03*
X93809000Y-122100000D03*
X93169000Y-127500000D03*
X93809000Y-127500000D03*
X89969000Y-127500000D03*
X94449000Y-127500000D03*
X94449000Y-122100000D03*
X89969000Y-122100000D03*
X89329000Y-127500000D03*
X89329000Y-122100000D03*
X95089000Y-122100000D03*
X95089000Y-127500000D03*
X95729000Y-127500000D03*
X95729000Y-122100000D03*
X88689000Y-122100000D03*
X88689000Y-127500000D03*
X88049000Y-127500000D03*
X88049000Y-122100000D03*
X96369000Y-122100000D03*
X96369000Y-127500000D03*
D15*
X83400000Y-118000000D03*
X83400000Y-116000000D03*
X98500000Y-126400000D03*
X98500000Y-128400000D03*
D12*
X98500000Y-116450000D03*
X98500000Y-118350000D03*
D19*
X90899800Y-136550680D03*
X91699900Y-136550680D03*
X92500000Y-136550680D03*
X93300100Y-136550680D03*
X94100200Y-136550680D03*
D20*
X88049920Y-136649740D03*
X88049920Y-142148840D03*
X96950080Y-136649740D03*
X96950080Y-142148840D03*
D14*
X56550000Y-132750000D03*
X58450000Y-132750000D03*
D21*
X86000000Y-131700000D03*
X86000000Y-133200000D03*
D10*
G36*
X86375000Y-133583800D02*
X85625000Y-133033800D01*
X85625000Y-132983800D01*
X86375000Y-132433800D01*
X86375000Y-133583800D01*
X86375000Y-133583800D01*
G37*
G36*
X85625000Y-132433800D02*
X86375000Y-132983800D01*
X86375000Y-133033800D01*
X85625000Y-133583800D01*
X85625000Y-132433800D01*
X85625000Y-132433800D01*
G37*
G36*
X86000040Y-132442000D02*
X85624040Y-132142000D01*
X85624040Y-131742000D01*
X86000040Y-131442000D01*
X86000040Y-132442000D01*
X86000040Y-132442000D01*
G37*
G36*
X85999960Y-131442000D02*
X86375960Y-131742000D01*
X86375960Y-132142000D01*
X85999960Y-132442000D01*
X85999960Y-131442000D01*
X85999960Y-131442000D01*
G37*
M02*
