M48
;DRILL file {KiCad 4.0.4-stable} date 05/10/17 13:02:44
;FORMAT={-:-/ absolute / inch / decimal}
FMAT,2
INCH,TZ
T1C0.010
T2C0.020
T3C0.031
T4C0.039
T5C0.040
T6C0.047
T7C0.051
T8C0.060
T9C0.071
T10C0.079
T11C0.090
T12C0.035
%
G90
G05
M72
T1
X4.2535Y-5.4383
X4.2813Y-5.4361
T2
X1.5919Y-2.4187
X1.6235Y-1.1518
X3.101Y-4.8255
X3.1221Y-4.7876
X3.4094Y-5.1063
X3.4505Y-4.9491
X3.5396Y-4.9647
X3.562Y-4.9066
X3.6187Y-4.8922
X3.6355Y-3.5031
X3.6638Y-4.9313
X3.6685Y-3.4815
X3.7068Y-4.9269
X3.7146Y-4.8661
X3.7205Y-5.1378
X3.7402Y-4.9478
X3.7953Y-5.0827
X3.8565Y-4.5213
X3.8781Y-4.8373
X3.8907Y-4.4271
X3.9724Y-4.2165
X3.9724Y-5.3386
X4.1762Y-1.8233
X4.1762Y-1.8839
X4.1929Y-3.0585
X4.194Y-2.992
T3
X2.6063Y-4.9213
X2.7559Y-4.9213
T4
X1.1693Y-3.8894
X1.1693Y-3.9894
X1.1835Y-1.4165
X1.1909Y-2.6811
X1.1909Y-2.7811
X1.2795Y-1.5575
X1.2795Y-1.6575
X1.2795Y-1.7575
X1.2795Y-2.7992
X1.2795Y-2.8992
X1.2795Y-2.9992
X1.2795Y-4.0354
X1.2795Y-4.1354
X1.2795Y-4.2354
X1.2835Y-1.4165
X1.3795Y-1.5575
X1.3795Y-1.6575
X1.3795Y-1.7575
X1.3795Y-2.7992
X1.3795Y-2.8992
X1.3795Y-2.9992
X1.3795Y-4.0354
X1.3795Y-4.1354
X1.3795Y-4.2354
X2.815Y-5.3004
X2.9134Y-5.3004
X2.9921Y-5.3004
X3.0906Y-5.3004
T5
X1.7566Y-3.4055
X1.7591Y-3.5965
X1.7591Y-3.5965
X1.7613Y-0.9449
X1.7629Y-2.2205
X1.7638Y-1.1358
X1.7638Y-1.1358
X1.7654Y-2.4114
X1.7654Y-2.4114
X1.8566Y-3.408
X1.8591Y-3.5965
X1.8613Y-0.9474
X1.8629Y-2.223
X1.8638Y-1.1358
X1.8654Y-2.4114
X1.9591Y-3.5965
X1.9616Y-3.4055
X1.9638Y-1.1358
X1.9654Y-2.4114
X1.9663Y-0.9449
X1.9679Y-2.2205
X2.0591Y-3.4055
X2.0591Y-3.5965
X2.0638Y-0.9449
X2.0638Y-1.1358
X2.0654Y-2.2205
X2.0654Y-2.4114
X2.1591Y-3.4055
X2.1591Y-3.5965
X2.1638Y-0.9449
X2.1638Y-1.1358
X2.1654Y-2.2205
X2.1654Y-2.4114
X2.2591Y-3.4055
X2.2591Y-3.5965
X2.2638Y-0.9449
X2.2638Y-1.1358
X2.2654Y-2.2205
X2.2654Y-2.4114
X2.3591Y-3.4055
X2.3591Y-3.5965
X2.3638Y-0.9449
X2.3638Y-1.1358
X2.3654Y-2.2205
X2.3654Y-2.4114
X2.4591Y-3.403
X2.4591Y-3.5965
X2.4638Y-0.9424
X2.4638Y-1.1358
X2.4654Y-2.218
X2.4654Y-2.4114
X2.5591Y-3.4055
X2.5591Y-3.5965
X2.5638Y-0.9449
X2.5638Y-1.1358
X2.5654Y-2.2205
X2.5654Y-2.4114
X2.6566Y-3.408
X2.6591Y-3.5965
X2.6613Y-0.9474
X2.6629Y-2.223
X2.6638Y-1.1358
X2.6654Y-2.4114
X2.7591Y-3.4055
X2.7591Y-3.5965
X2.7638Y-0.9449
X2.7638Y-1.1358
X2.7654Y-2.2205
X2.7654Y-2.4114
X2.8591Y-3.4055
X2.8591Y-3.5965
X2.8638Y-0.9449
X2.8638Y-1.1358
X2.8654Y-2.2205
X2.8654Y-2.4114
X2.9591Y-3.4055
X2.9591Y-3.5965
X2.9638Y-0.9449
X2.9638Y-1.1358
X2.9654Y-2.2205
X2.9654Y-2.4114
X3.0591Y-3.4055
X3.0591Y-3.5965
X3.0638Y-0.9449
X3.0638Y-1.1358
X3.0654Y-2.2205
X3.0654Y-2.4114
X3.1591Y-3.4055
X3.1591Y-3.5965
X3.1638Y-0.9449
X3.1638Y-1.1358
X3.1654Y-2.2205
X3.1654Y-2.4114
X3.2591Y-3.4055
X3.2591Y-3.5965
X3.2638Y-0.9449
X3.2638Y-1.1358
X3.2654Y-2.2205
X3.2654Y-2.4114
X3.3591Y-3.4055
X3.3591Y-3.5965
X3.3638Y-0.9449
X3.3638Y-1.1358
X3.3654Y-2.2205
X3.3654Y-2.4114
X3.4591Y-3.5965
X3.4616Y-3.4055
X3.4638Y-1.1358
X3.4654Y-2.4114
X3.4663Y-0.9449
X3.4679Y-2.2205
X3.5591Y-3.4055
X3.5591Y-3.5965
X3.5638Y-0.9449
X3.5638Y-1.1358
X3.5654Y-2.2205
X3.5654Y-2.4114
X3.6591Y-3.408
X3.6591Y-3.5965
X3.6638Y-0.9474
X3.6638Y-1.1358
X3.6654Y-2.223
X3.6654Y-2.4114
X3.7591Y-3.5965
X3.7616Y-3.408
X3.7638Y-1.1358
X3.7654Y-2.4114
X3.7663Y-0.9474
X3.7679Y-2.223
X3.8591Y-3.408
X3.8591Y-3.5965
X3.8638Y-0.9474
X3.8638Y-1.1358
X3.8654Y-2.223
X3.8654Y-2.4114
X3.9591Y-3.408
X3.9591Y-3.5965
X3.9638Y-0.9474
X3.9638Y-1.1358
X3.9654Y-2.223
X3.9654Y-2.4114
X4.0566Y-3.4055
X4.0591Y-3.5965
X4.0613Y-0.9449
X4.0629Y-2.2205
X4.0638Y-1.1358
X4.0654Y-2.4114
X4.1591Y-3.4055
X4.1591Y-3.5965
X4.1638Y-0.9449
X4.1638Y-1.1358
X4.1654Y-2.2205
X4.1654Y-2.4114
T6
X2.6378Y-2.8583
X2.6378Y-4.1181
X2.6433Y-1.6697
X2.9331Y-2.8583
X2.9331Y-4.1181
X2.9386Y-1.6697
T7
X1.9291Y-5.4134
X2.0669Y-5.4134
X2.2047Y-5.4134
X2.3425Y-5.4134
T8
X1.4764Y-5.215
X1.4764Y-5.415
T9
X1.2795Y-0.7689
X1.2795Y-0.9343
X1.2795Y-1.0996
X1.2795Y-1.265
X1.2795Y-2.0157
X1.2795Y-2.1811
X1.2795Y-2.3465
X1.2795Y-2.5118
X1.2795Y-3.248
X1.2795Y-3.4134
X1.2795Y-3.5787
X1.2795Y-3.7441
X1.4961Y-0.7689
X1.4961Y-0.9343
X1.4961Y-1.0996
X1.4961Y-1.265
X1.4961Y-2.0157
X1.4961Y-2.1811
X1.4961Y-2.3465
X1.4961Y-2.5118
X1.4961Y-3.248
X1.4961Y-3.4134
X1.4961Y-3.5787
X1.4961Y-3.7441
T10
X1.437Y-4.5642
X1.9291Y-4.8594
T11
X2.6941Y-5.4071
X3.2114Y-5.4071
T12
X3.5551Y-5.4783
X3.7283Y-5.4783
T0
M30
