G04 #@! TF.FileFunction,Legend,Top*
%FSLAX46Y46*%
G04 Gerber Fmt 4.6, Leading zero omitted, Abs format (unit mm)*
G04 Created by KiCad (PCBNEW 4.0.4-stable) date 05/10/17 13:02:38*
%MOMM*%
%LPD*%
G01*
G04 APERTURE LIST*
%ADD10C,0.100000*%
%ADD11C,0.187500*%
%ADD12C,1.000000*%
%ADD13C,0.300000*%
%ADD14C,0.150000*%
%ADD15C,0.120000*%
%ADD16C,0.050800*%
%ADD17C,0.152400*%
%ADD18C,0.203200*%
%ADD19C,0.010000*%
G04 APERTURE END LIST*
D10*
D11*
X102714285Y-40160714D02*
X102749999Y-40125000D01*
X102821428Y-40089286D01*
X102999999Y-40089286D01*
X103071428Y-40125000D01*
X103107142Y-40160714D01*
X103142857Y-40232143D01*
X103142857Y-40303571D01*
X103107142Y-40410714D01*
X102678571Y-40839286D01*
X103142857Y-40839286D01*
X103607143Y-40089286D02*
X103678571Y-40089286D01*
X103750000Y-40125000D01*
X103785714Y-40160714D01*
X103821428Y-40232143D01*
X103857143Y-40375000D01*
X103857143Y-40553571D01*
X103821428Y-40696429D01*
X103785714Y-40767857D01*
X103750000Y-40803571D01*
X103678571Y-40839286D01*
X103607143Y-40839286D01*
X103535714Y-40803571D01*
X103500000Y-40767857D01*
X103464285Y-40696429D01*
X103428571Y-40553571D01*
X103428571Y-40375000D01*
X103464285Y-40232143D01*
X103500000Y-40160714D01*
X103535714Y-40125000D01*
X103607143Y-40089286D01*
X104571429Y-40839286D02*
X104142857Y-40839286D01*
X104357143Y-40839286D02*
X104357143Y-40089286D01*
X104285714Y-40196429D01*
X104214286Y-40267857D01*
X104142857Y-40303571D01*
X104821429Y-40089286D02*
X105321429Y-40089286D01*
X105000000Y-40839286D01*
D12*
X103500000Y-18000000D02*
X102500000Y-19000000D01*
X103500000Y-18000000D02*
X104500000Y-19000000D01*
X103500000Y-20500000D02*
X103500000Y-18000000D01*
X103500000Y-50000000D02*
X102500000Y-51000000D01*
X103500000Y-50000000D02*
X104500000Y-51000000D01*
X103500000Y-52500000D02*
X103500000Y-50000000D01*
X103500000Y-80500000D02*
X104500000Y-81500000D01*
X103500000Y-83000000D02*
X103500000Y-80500000D01*
D13*
X84207143Y-44688571D02*
X84707143Y-46188571D01*
X85207143Y-44688571D01*
X85707143Y-45402857D02*
X86207143Y-45402857D01*
X86421429Y-46188571D02*
X85707143Y-46188571D01*
X85707143Y-44688571D01*
X86421429Y-44688571D01*
X86992857Y-46117143D02*
X87207143Y-46188571D01*
X87564286Y-46188571D01*
X87707143Y-46117143D01*
X87778572Y-46045714D01*
X87850000Y-45902857D01*
X87850000Y-45760000D01*
X87778572Y-45617143D01*
X87707143Y-45545714D01*
X87564286Y-45474286D01*
X87278572Y-45402857D01*
X87135714Y-45331429D01*
X87064286Y-45260000D01*
X86992857Y-45117143D01*
X86992857Y-44974286D01*
X87064286Y-44831429D01*
X87135714Y-44760000D01*
X87278572Y-44688571D01*
X87635714Y-44688571D01*
X87850000Y-44760000D01*
X89350000Y-46045714D02*
X89278571Y-46117143D01*
X89064285Y-46188571D01*
X88921428Y-46188571D01*
X88707143Y-46117143D01*
X88564285Y-45974286D01*
X88492857Y-45831429D01*
X88421428Y-45545714D01*
X88421428Y-45331429D01*
X88492857Y-45045714D01*
X88564285Y-44902857D01*
X88707143Y-44760000D01*
X88921428Y-44688571D01*
X89064285Y-44688571D01*
X89278571Y-44760000D01*
X89350000Y-44831429D01*
X89992857Y-45617143D02*
X91135714Y-45617143D01*
X92707143Y-46188571D02*
X92207143Y-45474286D01*
X91850000Y-46188571D02*
X91850000Y-44688571D01*
X92421428Y-44688571D01*
X92564286Y-44760000D01*
X92635714Y-44831429D01*
X92707143Y-44974286D01*
X92707143Y-45188571D01*
X92635714Y-45331429D01*
X92564286Y-45402857D01*
X92421428Y-45474286D01*
X91850000Y-45474286D01*
X94992857Y-45402857D02*
X95207143Y-45474286D01*
X95278571Y-45545714D01*
X95350000Y-45688571D01*
X95350000Y-45902857D01*
X95278571Y-46045714D01*
X95207143Y-46117143D01*
X95064285Y-46188571D01*
X94492857Y-46188571D01*
X94492857Y-44688571D01*
X94992857Y-44688571D01*
X95135714Y-44760000D01*
X95207143Y-44831429D01*
X95278571Y-44974286D01*
X95278571Y-45117143D01*
X95207143Y-45260000D01*
X95135714Y-45331429D01*
X94992857Y-45402857D01*
X94492857Y-45402857D01*
X96635714Y-46188571D02*
X96635714Y-45402857D01*
X96564285Y-45260000D01*
X96421428Y-45188571D01*
X96135714Y-45188571D01*
X95992857Y-45260000D01*
X96635714Y-46117143D02*
X96492857Y-46188571D01*
X96135714Y-46188571D01*
X95992857Y-46117143D01*
X95921428Y-45974286D01*
X95921428Y-45831429D01*
X95992857Y-45688571D01*
X96135714Y-45617143D01*
X96492857Y-45617143D01*
X96635714Y-45545714D01*
X97992857Y-46117143D02*
X97850000Y-46188571D01*
X97564286Y-46188571D01*
X97421428Y-46117143D01*
X97350000Y-46045714D01*
X97278571Y-45902857D01*
X97278571Y-45474286D01*
X97350000Y-45331429D01*
X97421428Y-45260000D01*
X97564286Y-45188571D01*
X97850000Y-45188571D01*
X97992857Y-45260000D01*
X98635714Y-46188571D02*
X98635714Y-44688571D01*
X98778571Y-45617143D02*
X99207142Y-46188571D01*
X99207142Y-45188571D02*
X98635714Y-45760000D01*
X99850000Y-45188571D02*
X99850000Y-46688571D01*
X99850000Y-45260000D02*
X99992857Y-45188571D01*
X100278571Y-45188571D01*
X100421428Y-45260000D01*
X100492857Y-45331429D01*
X100564286Y-45474286D01*
X100564286Y-45902857D01*
X100492857Y-46045714D01*
X100421428Y-46117143D01*
X100278571Y-46188571D01*
X99992857Y-46188571D01*
X99850000Y-46117143D01*
X101421429Y-46188571D02*
X101278571Y-46117143D01*
X101207143Y-45974286D01*
X101207143Y-44688571D01*
X102635714Y-46188571D02*
X102635714Y-45402857D01*
X102564285Y-45260000D01*
X102421428Y-45188571D01*
X102135714Y-45188571D01*
X101992857Y-45260000D01*
X102635714Y-46117143D02*
X102492857Y-46188571D01*
X102135714Y-46188571D01*
X101992857Y-46117143D01*
X101921428Y-45974286D01*
X101921428Y-45831429D01*
X101992857Y-45688571D01*
X102135714Y-45617143D01*
X102492857Y-45617143D01*
X102635714Y-45545714D01*
X103350000Y-45188571D02*
X103350000Y-46188571D01*
X103350000Y-45331429D02*
X103421428Y-45260000D01*
X103564286Y-45188571D01*
X103778571Y-45188571D01*
X103921428Y-45260000D01*
X103992857Y-45402857D01*
X103992857Y-46188571D01*
X105278571Y-46117143D02*
X105135714Y-46188571D01*
X104850000Y-46188571D01*
X104707143Y-46117143D01*
X104635714Y-45974286D01*
X104635714Y-45402857D01*
X104707143Y-45260000D01*
X104850000Y-45188571D01*
X105135714Y-45188571D01*
X105278571Y-45260000D01*
X105350000Y-45402857D01*
X105350000Y-45545714D01*
X104635714Y-45688571D01*
D14*
X101775000Y-103900000D02*
X101775000Y-105100000D01*
X100025000Y-105100000D02*
X100025000Y-103900000D01*
D15*
X102700000Y-109943548D02*
X102700000Y-111343548D01*
X102700000Y-111343548D02*
X105500000Y-111343548D01*
X102700000Y-109943548D02*
X105500000Y-109943548D01*
D14*
X85800000Y-121375000D02*
X84600000Y-121375000D01*
X84600000Y-119625000D02*
X85800000Y-119625000D01*
D15*
X85150000Y-116500000D02*
X85150000Y-117500000D01*
X86850000Y-117500000D02*
X86850000Y-116500000D01*
X102700000Y-112500000D02*
X102700000Y-113900000D01*
X102700000Y-113900000D02*
X105500000Y-113900000D01*
X102700000Y-112500000D02*
X105500000Y-112500000D01*
D14*
X101475000Y-108800000D02*
X101475000Y-110000000D01*
X99725000Y-110000000D02*
X99725000Y-108800000D01*
D15*
X99500000Y-132150000D02*
X98500000Y-132150000D01*
X98500000Y-133850000D02*
X99500000Y-133850000D01*
X106300000Y-108843548D02*
X106300000Y-107443548D01*
X106300000Y-107443548D02*
X103500000Y-107443548D01*
X106300000Y-108843548D02*
X103500000Y-108843548D01*
X87650000Y-116500000D02*
X87650000Y-117500000D01*
X89350000Y-117500000D02*
X89350000Y-116500000D01*
D14*
X94400000Y-131925000D02*
X95600000Y-131925000D01*
X95600000Y-133675000D02*
X94400000Y-133675000D01*
D15*
X98000000Y-129650000D02*
X97000000Y-129650000D01*
X97000000Y-131350000D02*
X98000000Y-131350000D01*
X106300000Y-106343548D02*
X106300000Y-104943548D01*
X106300000Y-104943548D02*
X103500000Y-104943548D01*
X106300000Y-106343548D02*
X103500000Y-106343548D01*
D14*
X84625000Y-125500000D02*
X84625000Y-124300000D01*
X86375000Y-124300000D02*
X86375000Y-125500000D01*
D15*
X102700000Y-102443548D02*
X102700000Y-103843548D01*
X102700000Y-103843548D02*
X105500000Y-103843548D01*
X102700000Y-102443548D02*
X105500000Y-102443548D01*
D16*
X100467899Y-127929000D02*
G75*
G03X101357000Y-129609100I2032101J74D01*
G01*
D17*
X101357000Y-130215000D02*
X100341000Y-130215000D01*
D16*
X101357001Y-119390900D02*
G75*
G03X100468000Y-121071000I1142999J-1680053D01*
G01*
D17*
X101357000Y-118785000D02*
X100341000Y-118785000D01*
D16*
X103770000Y-121071000D02*
X103770000Y-127929000D01*
X104532000Y-121071000D02*
X104532000Y-127929000D01*
X101230000Y-127929000D02*
X101230000Y-121071000D01*
D17*
X104913000Y-119039000D02*
X104913000Y-129961000D01*
X104659000Y-118785000D02*
G75*
G02X104913000Y-119039000I0J-254000D01*
G01*
X104659000Y-118785000D02*
X103643000Y-118785000D01*
D16*
X103643000Y-120517400D02*
G75*
G02X103770000Y-121071000I-1143000J-553581D01*
G01*
X101357000Y-120517400D02*
G75*
G03X101230000Y-121071000I1143000J-553581D01*
G01*
X103642899Y-119391000D02*
G75*
G02X104532000Y-121071000I-1142899J-1680121D01*
G01*
X104532001Y-127929000D02*
G75*
G02X103643000Y-129609100I-2032001J-47D01*
G01*
X103770000Y-127929000D02*
G75*
G02X103643000Y-128482600I-1270000J-19D01*
G01*
X101230000Y-127929000D02*
G75*
G03X101357000Y-128482600I1270000J-19D01*
G01*
D17*
X104659000Y-130215000D02*
X103643000Y-130215000D01*
X104913000Y-129961000D02*
G75*
G02X104659000Y-130215000I-254000J0D01*
G01*
D16*
X100468000Y-127929000D02*
X100468000Y-121071000D01*
D17*
X100087000Y-119039000D02*
X100087000Y-129961000D01*
X100341000Y-118785000D02*
G75*
G03X100087000Y-119039000I0J-254000D01*
G01*
X100087000Y-129961000D02*
G75*
G03X100341000Y-130215000I254000J0D01*
G01*
X101865000Y-124754000D02*
X103135000Y-124754000D01*
X103135000Y-124754000D02*
X103135000Y-124246000D01*
X103135000Y-124246000D02*
X101865000Y-124246000D01*
X101865000Y-124246000D02*
X101865000Y-124754000D01*
X101865000Y-125135000D02*
X102500000Y-125135000D01*
X102500000Y-125135000D02*
X103135000Y-125135000D01*
D16*
X102500000Y-125135000D02*
X102500000Y-125516000D01*
D17*
X101865000Y-123865000D02*
X102500000Y-123865000D01*
X102500000Y-123865000D02*
X103135000Y-123865000D01*
D16*
X102500000Y-123865000D02*
X102500000Y-123484000D01*
D18*
X97139000Y-126650000D02*
X87259000Y-126650000D01*
X97159000Y-126650000D02*
X97159000Y-122950000D01*
X97159000Y-122950000D02*
X87259000Y-122950000D01*
X87259000Y-122950000D02*
X87259000Y-126650000D01*
X96769553Y-123700000D02*
G75*
G03X96769553Y-123700000I-360553J0D01*
G01*
D15*
X82550000Y-116500000D02*
X82550000Y-117500000D01*
X84250000Y-117500000D02*
X84250000Y-116500000D01*
X99350000Y-127900000D02*
X99350000Y-126900000D01*
X97650000Y-126900000D02*
X97650000Y-127900000D01*
D14*
X97625000Y-118000000D02*
X97625000Y-116800000D01*
X99375000Y-116800000D02*
X99375000Y-118000000D01*
D15*
X78840000Y-104600000D02*
G75*
G03X78840000Y-104600000I-8090000J0D01*
G01*
X70750000Y-96549000D02*
X70750000Y-112651000D01*
X70790000Y-96550000D02*
X70790000Y-112650000D01*
X70830000Y-96550000D02*
X70830000Y-112650000D01*
X70870000Y-96550000D02*
X70870000Y-112650000D01*
X70910000Y-96551000D02*
X70910000Y-112649000D01*
X70950000Y-96552000D02*
X70950000Y-112648000D01*
X70990000Y-96553000D02*
X70990000Y-112647000D01*
X71030000Y-96554000D02*
X71030000Y-112646000D01*
X71070000Y-96556000D02*
X71070000Y-112644000D01*
X71110000Y-96558000D02*
X71110000Y-112642000D01*
X71150000Y-96559000D02*
X71150000Y-112641000D01*
X71190000Y-96561000D02*
X71190000Y-112639000D01*
X71230000Y-96564000D02*
X71230000Y-112636000D01*
X71270000Y-96566000D02*
X71270000Y-112634000D01*
X71310000Y-96569000D02*
X71310000Y-112631000D01*
X71350000Y-96572000D02*
X71350000Y-112628000D01*
X71390000Y-96575000D02*
X71390000Y-112625000D01*
X71430000Y-96578000D02*
X71430000Y-112622000D01*
X71471000Y-96582000D02*
X71471000Y-112618000D01*
X71511000Y-96585000D02*
X71511000Y-112615000D01*
X71551000Y-96589000D02*
X71551000Y-112611000D01*
X71591000Y-96593000D02*
X71591000Y-112607000D01*
X71631000Y-96598000D02*
X71631000Y-112602000D01*
X71671000Y-96602000D02*
X71671000Y-112598000D01*
X71711000Y-96607000D02*
X71711000Y-112593000D01*
X71751000Y-96612000D02*
X71751000Y-112588000D01*
X71791000Y-96617000D02*
X71791000Y-112583000D01*
X71831000Y-96622000D02*
X71831000Y-112578000D01*
X71871000Y-96627000D02*
X71871000Y-112573000D01*
X71911000Y-96633000D02*
X71911000Y-112567000D01*
X71951000Y-96639000D02*
X71951000Y-112561000D01*
X71991000Y-96645000D02*
X71991000Y-112555000D01*
X72031000Y-96651000D02*
X72031000Y-112549000D01*
X72071000Y-96658000D02*
X72071000Y-112542000D01*
X72111000Y-96665000D02*
X72111000Y-112535000D01*
X72151000Y-96672000D02*
X72151000Y-112528000D01*
X72191000Y-96679000D02*
X72191000Y-112521000D01*
X72231000Y-96686000D02*
X72231000Y-112514000D01*
X72271000Y-96694000D02*
X72271000Y-112506000D01*
X72311000Y-96701000D02*
X72311000Y-112499000D01*
X72351000Y-96709000D02*
X72351000Y-112491000D01*
X72391000Y-96717000D02*
X72391000Y-112483000D01*
X72431000Y-96726000D02*
X72431000Y-112474000D01*
X72471000Y-96734000D02*
X72471000Y-112466000D01*
X72511000Y-96743000D02*
X72511000Y-112457000D01*
X72551000Y-96752000D02*
X72551000Y-112448000D01*
X72591000Y-96762000D02*
X72591000Y-112438000D01*
X72631000Y-96771000D02*
X72631000Y-112429000D01*
X72671000Y-96781000D02*
X72671000Y-112419000D01*
X72711000Y-96791000D02*
X72711000Y-112409000D01*
X72751000Y-96801000D02*
X72751000Y-112399000D01*
X72791000Y-96811000D02*
X72791000Y-112389000D01*
X72831000Y-96821000D02*
X72831000Y-112379000D01*
X72871000Y-96832000D02*
X72871000Y-112368000D01*
X72911000Y-96843000D02*
X72911000Y-112357000D01*
X72951000Y-96854000D02*
X72951000Y-112346000D01*
X72991000Y-96866000D02*
X72991000Y-112334000D01*
X73031000Y-96877000D02*
X73031000Y-112323000D01*
X73071000Y-96889000D02*
X73071000Y-112311000D01*
X73111000Y-96901000D02*
X73111000Y-112299000D01*
X73151000Y-96914000D02*
X73151000Y-103220000D01*
X73151000Y-105980000D02*
X73151000Y-112286000D01*
X73191000Y-96926000D02*
X73191000Y-103220000D01*
X73191000Y-105980000D02*
X73191000Y-112274000D01*
X73231000Y-96939000D02*
X73231000Y-103220000D01*
X73231000Y-105980000D02*
X73231000Y-112261000D01*
X73271000Y-96952000D02*
X73271000Y-103220000D01*
X73271000Y-105980000D02*
X73271000Y-112248000D01*
X73311000Y-96965000D02*
X73311000Y-103220000D01*
X73311000Y-105980000D02*
X73311000Y-112235000D01*
X73351000Y-96979000D02*
X73351000Y-103220000D01*
X73351000Y-105980000D02*
X73351000Y-112221000D01*
X73391000Y-96992000D02*
X73391000Y-103220000D01*
X73391000Y-105980000D02*
X73391000Y-112208000D01*
X73431000Y-97006000D02*
X73431000Y-103220000D01*
X73431000Y-105980000D02*
X73431000Y-112194000D01*
X73471000Y-97020000D02*
X73471000Y-103220000D01*
X73471000Y-105980000D02*
X73471000Y-112180000D01*
X73511000Y-97035000D02*
X73511000Y-103220000D01*
X73511000Y-105980000D02*
X73511000Y-112165000D01*
X73551000Y-97050000D02*
X73551000Y-103220000D01*
X73551000Y-105980000D02*
X73551000Y-112150000D01*
X73591000Y-97064000D02*
X73591000Y-103220000D01*
X73591000Y-105980000D02*
X73591000Y-112136000D01*
X73631000Y-97079000D02*
X73631000Y-103220000D01*
X73631000Y-105980000D02*
X73631000Y-112121000D01*
X73671000Y-97095000D02*
X73671000Y-103220000D01*
X73671000Y-105980000D02*
X73671000Y-112105000D01*
X73711000Y-97110000D02*
X73711000Y-103220000D01*
X73711000Y-105980000D02*
X73711000Y-112090000D01*
X73751000Y-97126000D02*
X73751000Y-103220000D01*
X73751000Y-105980000D02*
X73751000Y-112074000D01*
X73791000Y-97142000D02*
X73791000Y-103220000D01*
X73791000Y-105980000D02*
X73791000Y-112058000D01*
X73831000Y-97159000D02*
X73831000Y-103220000D01*
X73831000Y-105980000D02*
X73831000Y-112041000D01*
X73871000Y-97175000D02*
X73871000Y-103220000D01*
X73871000Y-105980000D02*
X73871000Y-112025000D01*
X73911000Y-97192000D02*
X73911000Y-103220000D01*
X73911000Y-105980000D02*
X73911000Y-112008000D01*
X73951000Y-97209000D02*
X73951000Y-103220000D01*
X73951000Y-105980000D02*
X73951000Y-111991000D01*
X73991000Y-97227000D02*
X73991000Y-103220000D01*
X73991000Y-105980000D02*
X73991000Y-111973000D01*
X74031000Y-97244000D02*
X74031000Y-103220000D01*
X74031000Y-105980000D02*
X74031000Y-111956000D01*
X74071000Y-97262000D02*
X74071000Y-103220000D01*
X74071000Y-105980000D02*
X74071000Y-111938000D01*
X74111000Y-97280000D02*
X74111000Y-103220000D01*
X74111000Y-105980000D02*
X74111000Y-111920000D01*
X74151000Y-97299000D02*
X74151000Y-103220000D01*
X74151000Y-105980000D02*
X74151000Y-111901000D01*
X74191000Y-97317000D02*
X74191000Y-103220000D01*
X74191000Y-105980000D02*
X74191000Y-111883000D01*
X74231000Y-97336000D02*
X74231000Y-103220000D01*
X74231000Y-105980000D02*
X74231000Y-111864000D01*
X74271000Y-97355000D02*
X74271000Y-103220000D01*
X74271000Y-105980000D02*
X74271000Y-111845000D01*
X74311000Y-97375000D02*
X74311000Y-103220000D01*
X74311000Y-105980000D02*
X74311000Y-111825000D01*
X74351000Y-97395000D02*
X74351000Y-103220000D01*
X74351000Y-105980000D02*
X74351000Y-111805000D01*
X74391000Y-97415000D02*
X74391000Y-103220000D01*
X74391000Y-105980000D02*
X74391000Y-111785000D01*
X74431000Y-97435000D02*
X74431000Y-103220000D01*
X74431000Y-105980000D02*
X74431000Y-111765000D01*
X74471000Y-97456000D02*
X74471000Y-103220000D01*
X74471000Y-105980000D02*
X74471000Y-111744000D01*
X74511000Y-97476000D02*
X74511000Y-103220000D01*
X74511000Y-105980000D02*
X74511000Y-111724000D01*
X74551000Y-97498000D02*
X74551000Y-103220000D01*
X74551000Y-105980000D02*
X74551000Y-111702000D01*
X74591000Y-97519000D02*
X74591000Y-103220000D01*
X74591000Y-105980000D02*
X74591000Y-111681000D01*
X74631000Y-97541000D02*
X74631000Y-103220000D01*
X74631000Y-105980000D02*
X74631000Y-111659000D01*
X74671000Y-97563000D02*
X74671000Y-103220000D01*
X74671000Y-105980000D02*
X74671000Y-111637000D01*
X74711000Y-97585000D02*
X74711000Y-103220000D01*
X74711000Y-105980000D02*
X74711000Y-111615000D01*
X74751000Y-97608000D02*
X74751000Y-103220000D01*
X74751000Y-105980000D02*
X74751000Y-111592000D01*
X74791000Y-97630000D02*
X74791000Y-103220000D01*
X74791000Y-105980000D02*
X74791000Y-111570000D01*
X74831000Y-97654000D02*
X74831000Y-103220000D01*
X74831000Y-105980000D02*
X74831000Y-111546000D01*
X74871000Y-97677000D02*
X74871000Y-103220000D01*
X74871000Y-105980000D02*
X74871000Y-111523000D01*
X74911000Y-97701000D02*
X74911000Y-103220000D01*
X74911000Y-105980000D02*
X74911000Y-111499000D01*
X74951000Y-97725000D02*
X74951000Y-103220000D01*
X74951000Y-105980000D02*
X74951000Y-111475000D01*
X74991000Y-97750000D02*
X74991000Y-103220000D01*
X74991000Y-105980000D02*
X74991000Y-111450000D01*
X75031000Y-97774000D02*
X75031000Y-103220000D01*
X75031000Y-105980000D02*
X75031000Y-111426000D01*
X75071000Y-97799000D02*
X75071000Y-103220000D01*
X75071000Y-105980000D02*
X75071000Y-111401000D01*
X75111000Y-97825000D02*
X75111000Y-103220000D01*
X75111000Y-105980000D02*
X75111000Y-111375000D01*
X75151000Y-97851000D02*
X75151000Y-103220000D01*
X75151000Y-105980000D02*
X75151000Y-111349000D01*
X75191000Y-97877000D02*
X75191000Y-103220000D01*
X75191000Y-105980000D02*
X75191000Y-111323000D01*
X75231000Y-97903000D02*
X75231000Y-103220000D01*
X75231000Y-105980000D02*
X75231000Y-111297000D01*
X75271000Y-97930000D02*
X75271000Y-103220000D01*
X75271000Y-105980000D02*
X75271000Y-111270000D01*
X75311000Y-97957000D02*
X75311000Y-103220000D01*
X75311000Y-105980000D02*
X75311000Y-111243000D01*
X75351000Y-97985000D02*
X75351000Y-103220000D01*
X75351000Y-105980000D02*
X75351000Y-111215000D01*
X75391000Y-98012000D02*
X75391000Y-103220000D01*
X75391000Y-105980000D02*
X75391000Y-111188000D01*
X75431000Y-98041000D02*
X75431000Y-103220000D01*
X75431000Y-105980000D02*
X75431000Y-111159000D01*
X75471000Y-98069000D02*
X75471000Y-103220000D01*
X75471000Y-105980000D02*
X75471000Y-111131000D01*
X75511000Y-98098000D02*
X75511000Y-103220000D01*
X75511000Y-105980000D02*
X75511000Y-111102000D01*
X75551000Y-98127000D02*
X75551000Y-103220000D01*
X75551000Y-105980000D02*
X75551000Y-111073000D01*
X75591000Y-98157000D02*
X75591000Y-103220000D01*
X75591000Y-105980000D02*
X75591000Y-111043000D01*
X75631000Y-98187000D02*
X75631000Y-103220000D01*
X75631000Y-105980000D02*
X75631000Y-111013000D01*
X75671000Y-98218000D02*
X75671000Y-103220000D01*
X75671000Y-105980000D02*
X75671000Y-110982000D01*
X75711000Y-98248000D02*
X75711000Y-103220000D01*
X75711000Y-105980000D02*
X75711000Y-110952000D01*
X75751000Y-98280000D02*
X75751000Y-103220000D01*
X75751000Y-105980000D02*
X75751000Y-110920000D01*
X75791000Y-98311000D02*
X75791000Y-103220000D01*
X75791000Y-105980000D02*
X75791000Y-110889000D01*
X75831000Y-98343000D02*
X75831000Y-103220000D01*
X75831000Y-105980000D02*
X75831000Y-110857000D01*
X75871000Y-98376000D02*
X75871000Y-103220000D01*
X75871000Y-105980000D02*
X75871000Y-110824000D01*
X75911000Y-98409000D02*
X75911000Y-110791000D01*
X75951000Y-98442000D02*
X75951000Y-110758000D01*
X75991000Y-98476000D02*
X75991000Y-110724000D01*
X76031000Y-98510000D02*
X76031000Y-110690000D01*
X76071000Y-98545000D02*
X76071000Y-110655000D01*
X76111000Y-98580000D02*
X76111000Y-110620000D01*
X76151000Y-98616000D02*
X76151000Y-110584000D01*
X76191000Y-98652000D02*
X76191000Y-110548000D01*
X76231000Y-98688000D02*
X76231000Y-110512000D01*
X76271000Y-98725000D02*
X76271000Y-110475000D01*
X76311000Y-98763000D02*
X76311000Y-110437000D01*
X76351000Y-98801000D02*
X76351000Y-110399000D01*
X76391000Y-98840000D02*
X76391000Y-110360000D01*
X76431000Y-98879000D02*
X76431000Y-110321000D01*
X76471000Y-98919000D02*
X76471000Y-110281000D01*
X76511000Y-98959000D02*
X76511000Y-110241000D01*
X76551000Y-99000000D02*
X76551000Y-110200000D01*
X76591000Y-99041000D02*
X76591000Y-110159000D01*
X76631000Y-99083000D02*
X76631000Y-110117000D01*
X76671000Y-99126000D02*
X76671000Y-110074000D01*
X76711000Y-99169000D02*
X76711000Y-110031000D01*
X76751000Y-99213000D02*
X76751000Y-109987000D01*
X76791000Y-99257000D02*
X76791000Y-109943000D01*
X76831000Y-99303000D02*
X76831000Y-109897000D01*
X76871000Y-99349000D02*
X76871000Y-109851000D01*
X76911000Y-99395000D02*
X76911000Y-109805000D01*
X76951000Y-99443000D02*
X76951000Y-109757000D01*
X76991000Y-99491000D02*
X76991000Y-109709000D01*
X77031000Y-99540000D02*
X77031000Y-109660000D01*
X77071000Y-99589000D02*
X77071000Y-109611000D01*
X77111000Y-99640000D02*
X77111000Y-109560000D01*
X77151000Y-99691000D02*
X77151000Y-109509000D01*
X77191000Y-99743000D02*
X77191000Y-109457000D01*
X77231000Y-99796000D02*
X77231000Y-109404000D01*
X77271000Y-99850000D02*
X77271000Y-109350000D01*
X77311000Y-99905000D02*
X77311000Y-109295000D01*
X77351000Y-99961000D02*
X77351000Y-109239000D01*
X77391000Y-100018000D02*
X77391000Y-109182000D01*
X77431000Y-100076000D02*
X77431000Y-109124000D01*
X77471000Y-100135000D02*
X77471000Y-109065000D01*
X77511000Y-100195000D02*
X77511000Y-109005000D01*
X77551000Y-100257000D02*
X77551000Y-108943000D01*
X77591000Y-100319000D02*
X77591000Y-108881000D01*
X77631000Y-100383000D02*
X77631000Y-108817000D01*
X77671000Y-100449000D02*
X77671000Y-108751000D01*
X77711000Y-100516000D02*
X77711000Y-108684000D01*
X77751000Y-100584000D02*
X77751000Y-108616000D01*
X77791000Y-100654000D02*
X77791000Y-108546000D01*
X77831000Y-100725000D02*
X77831000Y-108475000D01*
X77871000Y-100798000D02*
X77871000Y-108402000D01*
X77911000Y-100874000D02*
X77911000Y-108326000D01*
X77951000Y-100951000D02*
X77951000Y-108249000D01*
X77991000Y-101030000D02*
X77991000Y-108170000D01*
X78031000Y-101111000D02*
X78031000Y-108089000D01*
X78071000Y-101195000D02*
X78071000Y-108005000D01*
X78111000Y-101281000D02*
X78111000Y-107919000D01*
X78151000Y-101370000D02*
X78151000Y-107830000D01*
X78191000Y-101462000D02*
X78191000Y-107738000D01*
X78231000Y-101558000D02*
X78231000Y-107642000D01*
X78271000Y-101657000D02*
X78271000Y-107543000D01*
X78311000Y-101759000D02*
X78311000Y-107441000D01*
X78351000Y-101867000D02*
X78351000Y-107333000D01*
X78391000Y-101979000D02*
X78391000Y-107221000D01*
X78431000Y-102097000D02*
X78431000Y-107103000D01*
X78471000Y-102221000D02*
X78471000Y-106979000D01*
X78511000Y-102352000D02*
X78511000Y-106848000D01*
X78551000Y-102493000D02*
X78551000Y-106707000D01*
X78591000Y-102644000D02*
X78591000Y-106556000D01*
X78631000Y-102808000D02*
X78631000Y-106392000D01*
X78671000Y-102990000D02*
X78671000Y-106210000D01*
X78711000Y-103195000D02*
X78711000Y-106005000D01*
X78751000Y-103436000D02*
X78751000Y-105764000D01*
X78791000Y-103741000D02*
X78791000Y-105459000D01*
X78831000Y-104237000D02*
X78831000Y-104963000D01*
X63800000Y-104600000D02*
X65600000Y-104600000D01*
X64700000Y-103700000D02*
X64700000Y-105500000D01*
X78980000Y-42410000D02*
G75*
G03X78980000Y-42410000I-8090000J0D01*
G01*
X70890000Y-34359000D02*
X70890000Y-50461000D01*
X70930000Y-34360000D02*
X70930000Y-50460000D01*
X70970000Y-34360000D02*
X70970000Y-50460000D01*
X71010000Y-34360000D02*
X71010000Y-50460000D01*
X71050000Y-34361000D02*
X71050000Y-50459000D01*
X71090000Y-34362000D02*
X71090000Y-50458000D01*
X71130000Y-34363000D02*
X71130000Y-50457000D01*
X71170000Y-34364000D02*
X71170000Y-50456000D01*
X71210000Y-34366000D02*
X71210000Y-50454000D01*
X71250000Y-34368000D02*
X71250000Y-50452000D01*
X71290000Y-34369000D02*
X71290000Y-50451000D01*
X71330000Y-34371000D02*
X71330000Y-50449000D01*
X71370000Y-34374000D02*
X71370000Y-50446000D01*
X71410000Y-34376000D02*
X71410000Y-50444000D01*
X71450000Y-34379000D02*
X71450000Y-50441000D01*
X71490000Y-34382000D02*
X71490000Y-50438000D01*
X71530000Y-34385000D02*
X71530000Y-50435000D01*
X71570000Y-34388000D02*
X71570000Y-50432000D01*
X71611000Y-34392000D02*
X71611000Y-50428000D01*
X71651000Y-34395000D02*
X71651000Y-50425000D01*
X71691000Y-34399000D02*
X71691000Y-50421000D01*
X71731000Y-34403000D02*
X71731000Y-50417000D01*
X71771000Y-34408000D02*
X71771000Y-50412000D01*
X71811000Y-34412000D02*
X71811000Y-50408000D01*
X71851000Y-34417000D02*
X71851000Y-50403000D01*
X71891000Y-34422000D02*
X71891000Y-50398000D01*
X71931000Y-34427000D02*
X71931000Y-50393000D01*
X71971000Y-34432000D02*
X71971000Y-50388000D01*
X72011000Y-34437000D02*
X72011000Y-50383000D01*
X72051000Y-34443000D02*
X72051000Y-50377000D01*
X72091000Y-34449000D02*
X72091000Y-50371000D01*
X72131000Y-34455000D02*
X72131000Y-50365000D01*
X72171000Y-34461000D02*
X72171000Y-50359000D01*
X72211000Y-34468000D02*
X72211000Y-50352000D01*
X72251000Y-34475000D02*
X72251000Y-50345000D01*
X72291000Y-34482000D02*
X72291000Y-50338000D01*
X72331000Y-34489000D02*
X72331000Y-50331000D01*
X72371000Y-34496000D02*
X72371000Y-50324000D01*
X72411000Y-34504000D02*
X72411000Y-50316000D01*
X72451000Y-34511000D02*
X72451000Y-50309000D01*
X72491000Y-34519000D02*
X72491000Y-50301000D01*
X72531000Y-34527000D02*
X72531000Y-50293000D01*
X72571000Y-34536000D02*
X72571000Y-50284000D01*
X72611000Y-34544000D02*
X72611000Y-50276000D01*
X72651000Y-34553000D02*
X72651000Y-50267000D01*
X72691000Y-34562000D02*
X72691000Y-50258000D01*
X72731000Y-34572000D02*
X72731000Y-50248000D01*
X72771000Y-34581000D02*
X72771000Y-50239000D01*
X72811000Y-34591000D02*
X72811000Y-50229000D01*
X72851000Y-34601000D02*
X72851000Y-50219000D01*
X72891000Y-34611000D02*
X72891000Y-50209000D01*
X72931000Y-34621000D02*
X72931000Y-50199000D01*
X72971000Y-34631000D02*
X72971000Y-50189000D01*
X73011000Y-34642000D02*
X73011000Y-50178000D01*
X73051000Y-34653000D02*
X73051000Y-50167000D01*
X73091000Y-34664000D02*
X73091000Y-50156000D01*
X73131000Y-34676000D02*
X73131000Y-50144000D01*
X73171000Y-34687000D02*
X73171000Y-50133000D01*
X73211000Y-34699000D02*
X73211000Y-50121000D01*
X73251000Y-34711000D02*
X73251000Y-50109000D01*
X73291000Y-34724000D02*
X73291000Y-41030000D01*
X73291000Y-43790000D02*
X73291000Y-50096000D01*
X73331000Y-34736000D02*
X73331000Y-41030000D01*
X73331000Y-43790000D02*
X73331000Y-50084000D01*
X73371000Y-34749000D02*
X73371000Y-41030000D01*
X73371000Y-43790000D02*
X73371000Y-50071000D01*
X73411000Y-34762000D02*
X73411000Y-41030000D01*
X73411000Y-43790000D02*
X73411000Y-50058000D01*
X73451000Y-34775000D02*
X73451000Y-41030000D01*
X73451000Y-43790000D02*
X73451000Y-50045000D01*
X73491000Y-34789000D02*
X73491000Y-41030000D01*
X73491000Y-43790000D02*
X73491000Y-50031000D01*
X73531000Y-34802000D02*
X73531000Y-41030000D01*
X73531000Y-43790000D02*
X73531000Y-50018000D01*
X73571000Y-34816000D02*
X73571000Y-41030000D01*
X73571000Y-43790000D02*
X73571000Y-50004000D01*
X73611000Y-34830000D02*
X73611000Y-41030000D01*
X73611000Y-43790000D02*
X73611000Y-49990000D01*
X73651000Y-34845000D02*
X73651000Y-41030000D01*
X73651000Y-43790000D02*
X73651000Y-49975000D01*
X73691000Y-34860000D02*
X73691000Y-41030000D01*
X73691000Y-43790000D02*
X73691000Y-49960000D01*
X73731000Y-34874000D02*
X73731000Y-41030000D01*
X73731000Y-43790000D02*
X73731000Y-49946000D01*
X73771000Y-34889000D02*
X73771000Y-41030000D01*
X73771000Y-43790000D02*
X73771000Y-49931000D01*
X73811000Y-34905000D02*
X73811000Y-41030000D01*
X73811000Y-43790000D02*
X73811000Y-49915000D01*
X73851000Y-34920000D02*
X73851000Y-41030000D01*
X73851000Y-43790000D02*
X73851000Y-49900000D01*
X73891000Y-34936000D02*
X73891000Y-41030000D01*
X73891000Y-43790000D02*
X73891000Y-49884000D01*
X73931000Y-34952000D02*
X73931000Y-41030000D01*
X73931000Y-43790000D02*
X73931000Y-49868000D01*
X73971000Y-34969000D02*
X73971000Y-41030000D01*
X73971000Y-43790000D02*
X73971000Y-49851000D01*
X74011000Y-34985000D02*
X74011000Y-41030000D01*
X74011000Y-43790000D02*
X74011000Y-49835000D01*
X74051000Y-35002000D02*
X74051000Y-41030000D01*
X74051000Y-43790000D02*
X74051000Y-49818000D01*
X74091000Y-35019000D02*
X74091000Y-41030000D01*
X74091000Y-43790000D02*
X74091000Y-49801000D01*
X74131000Y-35037000D02*
X74131000Y-41030000D01*
X74131000Y-43790000D02*
X74131000Y-49783000D01*
X74171000Y-35054000D02*
X74171000Y-41030000D01*
X74171000Y-43790000D02*
X74171000Y-49766000D01*
X74211000Y-35072000D02*
X74211000Y-41030000D01*
X74211000Y-43790000D02*
X74211000Y-49748000D01*
X74251000Y-35090000D02*
X74251000Y-41030000D01*
X74251000Y-43790000D02*
X74251000Y-49730000D01*
X74291000Y-35109000D02*
X74291000Y-41030000D01*
X74291000Y-43790000D02*
X74291000Y-49711000D01*
X74331000Y-35127000D02*
X74331000Y-41030000D01*
X74331000Y-43790000D02*
X74331000Y-49693000D01*
X74371000Y-35146000D02*
X74371000Y-41030000D01*
X74371000Y-43790000D02*
X74371000Y-49674000D01*
X74411000Y-35165000D02*
X74411000Y-41030000D01*
X74411000Y-43790000D02*
X74411000Y-49655000D01*
X74451000Y-35185000D02*
X74451000Y-41030000D01*
X74451000Y-43790000D02*
X74451000Y-49635000D01*
X74491000Y-35205000D02*
X74491000Y-41030000D01*
X74491000Y-43790000D02*
X74491000Y-49615000D01*
X74531000Y-35225000D02*
X74531000Y-41030000D01*
X74531000Y-43790000D02*
X74531000Y-49595000D01*
X74571000Y-35245000D02*
X74571000Y-41030000D01*
X74571000Y-43790000D02*
X74571000Y-49575000D01*
X74611000Y-35266000D02*
X74611000Y-41030000D01*
X74611000Y-43790000D02*
X74611000Y-49554000D01*
X74651000Y-35286000D02*
X74651000Y-41030000D01*
X74651000Y-43790000D02*
X74651000Y-49534000D01*
X74691000Y-35308000D02*
X74691000Y-41030000D01*
X74691000Y-43790000D02*
X74691000Y-49512000D01*
X74731000Y-35329000D02*
X74731000Y-41030000D01*
X74731000Y-43790000D02*
X74731000Y-49491000D01*
X74771000Y-35351000D02*
X74771000Y-41030000D01*
X74771000Y-43790000D02*
X74771000Y-49469000D01*
X74811000Y-35373000D02*
X74811000Y-41030000D01*
X74811000Y-43790000D02*
X74811000Y-49447000D01*
X74851000Y-35395000D02*
X74851000Y-41030000D01*
X74851000Y-43790000D02*
X74851000Y-49425000D01*
X74891000Y-35418000D02*
X74891000Y-41030000D01*
X74891000Y-43790000D02*
X74891000Y-49402000D01*
X74931000Y-35440000D02*
X74931000Y-41030000D01*
X74931000Y-43790000D02*
X74931000Y-49380000D01*
X74971000Y-35464000D02*
X74971000Y-41030000D01*
X74971000Y-43790000D02*
X74971000Y-49356000D01*
X75011000Y-35487000D02*
X75011000Y-41030000D01*
X75011000Y-43790000D02*
X75011000Y-49333000D01*
X75051000Y-35511000D02*
X75051000Y-41030000D01*
X75051000Y-43790000D02*
X75051000Y-49309000D01*
X75091000Y-35535000D02*
X75091000Y-41030000D01*
X75091000Y-43790000D02*
X75091000Y-49285000D01*
X75131000Y-35560000D02*
X75131000Y-41030000D01*
X75131000Y-43790000D02*
X75131000Y-49260000D01*
X75171000Y-35584000D02*
X75171000Y-41030000D01*
X75171000Y-43790000D02*
X75171000Y-49236000D01*
X75211000Y-35609000D02*
X75211000Y-41030000D01*
X75211000Y-43790000D02*
X75211000Y-49211000D01*
X75251000Y-35635000D02*
X75251000Y-41030000D01*
X75251000Y-43790000D02*
X75251000Y-49185000D01*
X75291000Y-35661000D02*
X75291000Y-41030000D01*
X75291000Y-43790000D02*
X75291000Y-49159000D01*
X75331000Y-35687000D02*
X75331000Y-41030000D01*
X75331000Y-43790000D02*
X75331000Y-49133000D01*
X75371000Y-35713000D02*
X75371000Y-41030000D01*
X75371000Y-43790000D02*
X75371000Y-49107000D01*
X75411000Y-35740000D02*
X75411000Y-41030000D01*
X75411000Y-43790000D02*
X75411000Y-49080000D01*
X75451000Y-35767000D02*
X75451000Y-41030000D01*
X75451000Y-43790000D02*
X75451000Y-49053000D01*
X75491000Y-35795000D02*
X75491000Y-41030000D01*
X75491000Y-43790000D02*
X75491000Y-49025000D01*
X75531000Y-35822000D02*
X75531000Y-41030000D01*
X75531000Y-43790000D02*
X75531000Y-48998000D01*
X75571000Y-35851000D02*
X75571000Y-41030000D01*
X75571000Y-43790000D02*
X75571000Y-48969000D01*
X75611000Y-35879000D02*
X75611000Y-41030000D01*
X75611000Y-43790000D02*
X75611000Y-48941000D01*
X75651000Y-35908000D02*
X75651000Y-41030000D01*
X75651000Y-43790000D02*
X75651000Y-48912000D01*
X75691000Y-35937000D02*
X75691000Y-41030000D01*
X75691000Y-43790000D02*
X75691000Y-48883000D01*
X75731000Y-35967000D02*
X75731000Y-41030000D01*
X75731000Y-43790000D02*
X75731000Y-48853000D01*
X75771000Y-35997000D02*
X75771000Y-41030000D01*
X75771000Y-43790000D02*
X75771000Y-48823000D01*
X75811000Y-36028000D02*
X75811000Y-41030000D01*
X75811000Y-43790000D02*
X75811000Y-48792000D01*
X75851000Y-36058000D02*
X75851000Y-41030000D01*
X75851000Y-43790000D02*
X75851000Y-48762000D01*
X75891000Y-36090000D02*
X75891000Y-41030000D01*
X75891000Y-43790000D02*
X75891000Y-48730000D01*
X75931000Y-36121000D02*
X75931000Y-41030000D01*
X75931000Y-43790000D02*
X75931000Y-48699000D01*
X75971000Y-36153000D02*
X75971000Y-41030000D01*
X75971000Y-43790000D02*
X75971000Y-48667000D01*
X76011000Y-36186000D02*
X76011000Y-41030000D01*
X76011000Y-43790000D02*
X76011000Y-48634000D01*
X76051000Y-36219000D02*
X76051000Y-48601000D01*
X76091000Y-36252000D02*
X76091000Y-48568000D01*
X76131000Y-36286000D02*
X76131000Y-48534000D01*
X76171000Y-36320000D02*
X76171000Y-48500000D01*
X76211000Y-36355000D02*
X76211000Y-48465000D01*
X76251000Y-36390000D02*
X76251000Y-48430000D01*
X76291000Y-36426000D02*
X76291000Y-48394000D01*
X76331000Y-36462000D02*
X76331000Y-48358000D01*
X76371000Y-36498000D02*
X76371000Y-48322000D01*
X76411000Y-36535000D02*
X76411000Y-48285000D01*
X76451000Y-36573000D02*
X76451000Y-48247000D01*
X76491000Y-36611000D02*
X76491000Y-48209000D01*
X76531000Y-36650000D02*
X76531000Y-48170000D01*
X76571000Y-36689000D02*
X76571000Y-48131000D01*
X76611000Y-36729000D02*
X76611000Y-48091000D01*
X76651000Y-36769000D02*
X76651000Y-48051000D01*
X76691000Y-36810000D02*
X76691000Y-48010000D01*
X76731000Y-36851000D02*
X76731000Y-47969000D01*
X76771000Y-36893000D02*
X76771000Y-47927000D01*
X76811000Y-36936000D02*
X76811000Y-47884000D01*
X76851000Y-36979000D02*
X76851000Y-47841000D01*
X76891000Y-37023000D02*
X76891000Y-47797000D01*
X76931000Y-37067000D02*
X76931000Y-47753000D01*
X76971000Y-37113000D02*
X76971000Y-47707000D01*
X77011000Y-37159000D02*
X77011000Y-47661000D01*
X77051000Y-37205000D02*
X77051000Y-47615000D01*
X77091000Y-37253000D02*
X77091000Y-47567000D01*
X77131000Y-37301000D02*
X77131000Y-47519000D01*
X77171000Y-37350000D02*
X77171000Y-47470000D01*
X77211000Y-37399000D02*
X77211000Y-47421000D01*
X77251000Y-37450000D02*
X77251000Y-47370000D01*
X77291000Y-37501000D02*
X77291000Y-47319000D01*
X77331000Y-37553000D02*
X77331000Y-47267000D01*
X77371000Y-37606000D02*
X77371000Y-47214000D01*
X77411000Y-37660000D02*
X77411000Y-47160000D01*
X77451000Y-37715000D02*
X77451000Y-47105000D01*
X77491000Y-37771000D02*
X77491000Y-47049000D01*
X77531000Y-37828000D02*
X77531000Y-46992000D01*
X77571000Y-37886000D02*
X77571000Y-46934000D01*
X77611000Y-37945000D02*
X77611000Y-46875000D01*
X77651000Y-38005000D02*
X77651000Y-46815000D01*
X77691000Y-38067000D02*
X77691000Y-46753000D01*
X77731000Y-38129000D02*
X77731000Y-46691000D01*
X77771000Y-38193000D02*
X77771000Y-46627000D01*
X77811000Y-38259000D02*
X77811000Y-46561000D01*
X77851000Y-38326000D02*
X77851000Y-46494000D01*
X77891000Y-38394000D02*
X77891000Y-46426000D01*
X77931000Y-38464000D02*
X77931000Y-46356000D01*
X77971000Y-38535000D02*
X77971000Y-46285000D01*
X78011000Y-38608000D02*
X78011000Y-46212000D01*
X78051000Y-38684000D02*
X78051000Y-46136000D01*
X78091000Y-38761000D02*
X78091000Y-46059000D01*
X78131000Y-38840000D02*
X78131000Y-45980000D01*
X78171000Y-38921000D02*
X78171000Y-45899000D01*
X78211000Y-39005000D02*
X78211000Y-45815000D01*
X78251000Y-39091000D02*
X78251000Y-45729000D01*
X78291000Y-39180000D02*
X78291000Y-45640000D01*
X78331000Y-39272000D02*
X78331000Y-45548000D01*
X78371000Y-39368000D02*
X78371000Y-45452000D01*
X78411000Y-39467000D02*
X78411000Y-45353000D01*
X78451000Y-39569000D02*
X78451000Y-45251000D01*
X78491000Y-39677000D02*
X78491000Y-45143000D01*
X78531000Y-39789000D02*
X78531000Y-45031000D01*
X78571000Y-39907000D02*
X78571000Y-44913000D01*
X78611000Y-40031000D02*
X78611000Y-44789000D01*
X78651000Y-40162000D02*
X78651000Y-44658000D01*
X78691000Y-40303000D02*
X78691000Y-44517000D01*
X78731000Y-40454000D02*
X78731000Y-44366000D01*
X78771000Y-40618000D02*
X78771000Y-44202000D01*
X78811000Y-40800000D02*
X78811000Y-44020000D01*
X78851000Y-41005000D02*
X78851000Y-43815000D01*
X78891000Y-41246000D02*
X78891000Y-43574000D01*
X78931000Y-41551000D02*
X78931000Y-43269000D01*
X78971000Y-42047000D02*
X78971000Y-42773000D01*
X63940000Y-42410000D02*
X65740000Y-42410000D01*
X64840000Y-41510000D02*
X64840000Y-43310000D01*
X78840000Y-72600000D02*
G75*
G03X78840000Y-72600000I-8090000J0D01*
G01*
X70750000Y-64549000D02*
X70750000Y-80651000D01*
X70790000Y-64550000D02*
X70790000Y-80650000D01*
X70830000Y-64550000D02*
X70830000Y-80650000D01*
X70870000Y-64550000D02*
X70870000Y-80650000D01*
X70910000Y-64551000D02*
X70910000Y-80649000D01*
X70950000Y-64552000D02*
X70950000Y-80648000D01*
X70990000Y-64553000D02*
X70990000Y-80647000D01*
X71030000Y-64554000D02*
X71030000Y-80646000D01*
X71070000Y-64556000D02*
X71070000Y-80644000D01*
X71110000Y-64558000D02*
X71110000Y-80642000D01*
X71150000Y-64559000D02*
X71150000Y-80641000D01*
X71190000Y-64561000D02*
X71190000Y-80639000D01*
X71230000Y-64564000D02*
X71230000Y-80636000D01*
X71270000Y-64566000D02*
X71270000Y-80634000D01*
X71310000Y-64569000D02*
X71310000Y-80631000D01*
X71350000Y-64572000D02*
X71350000Y-80628000D01*
X71390000Y-64575000D02*
X71390000Y-80625000D01*
X71430000Y-64578000D02*
X71430000Y-80622000D01*
X71471000Y-64582000D02*
X71471000Y-80618000D01*
X71511000Y-64585000D02*
X71511000Y-80615000D01*
X71551000Y-64589000D02*
X71551000Y-80611000D01*
X71591000Y-64593000D02*
X71591000Y-80607000D01*
X71631000Y-64598000D02*
X71631000Y-80602000D01*
X71671000Y-64602000D02*
X71671000Y-80598000D01*
X71711000Y-64607000D02*
X71711000Y-80593000D01*
X71751000Y-64612000D02*
X71751000Y-80588000D01*
X71791000Y-64617000D02*
X71791000Y-80583000D01*
X71831000Y-64622000D02*
X71831000Y-80578000D01*
X71871000Y-64627000D02*
X71871000Y-80573000D01*
X71911000Y-64633000D02*
X71911000Y-80567000D01*
X71951000Y-64639000D02*
X71951000Y-80561000D01*
X71991000Y-64645000D02*
X71991000Y-80555000D01*
X72031000Y-64651000D02*
X72031000Y-80549000D01*
X72071000Y-64658000D02*
X72071000Y-80542000D01*
X72111000Y-64665000D02*
X72111000Y-80535000D01*
X72151000Y-64672000D02*
X72151000Y-80528000D01*
X72191000Y-64679000D02*
X72191000Y-80521000D01*
X72231000Y-64686000D02*
X72231000Y-80514000D01*
X72271000Y-64694000D02*
X72271000Y-80506000D01*
X72311000Y-64701000D02*
X72311000Y-80499000D01*
X72351000Y-64709000D02*
X72351000Y-80491000D01*
X72391000Y-64717000D02*
X72391000Y-80483000D01*
X72431000Y-64726000D02*
X72431000Y-80474000D01*
X72471000Y-64734000D02*
X72471000Y-80466000D01*
X72511000Y-64743000D02*
X72511000Y-80457000D01*
X72551000Y-64752000D02*
X72551000Y-80448000D01*
X72591000Y-64762000D02*
X72591000Y-80438000D01*
X72631000Y-64771000D02*
X72631000Y-80429000D01*
X72671000Y-64781000D02*
X72671000Y-80419000D01*
X72711000Y-64791000D02*
X72711000Y-80409000D01*
X72751000Y-64801000D02*
X72751000Y-80399000D01*
X72791000Y-64811000D02*
X72791000Y-80389000D01*
X72831000Y-64821000D02*
X72831000Y-80379000D01*
X72871000Y-64832000D02*
X72871000Y-80368000D01*
X72911000Y-64843000D02*
X72911000Y-80357000D01*
X72951000Y-64854000D02*
X72951000Y-80346000D01*
X72991000Y-64866000D02*
X72991000Y-80334000D01*
X73031000Y-64877000D02*
X73031000Y-80323000D01*
X73071000Y-64889000D02*
X73071000Y-80311000D01*
X73111000Y-64901000D02*
X73111000Y-80299000D01*
X73151000Y-64914000D02*
X73151000Y-71220000D01*
X73151000Y-73980000D02*
X73151000Y-80286000D01*
X73191000Y-64926000D02*
X73191000Y-71220000D01*
X73191000Y-73980000D02*
X73191000Y-80274000D01*
X73231000Y-64939000D02*
X73231000Y-71220000D01*
X73231000Y-73980000D02*
X73231000Y-80261000D01*
X73271000Y-64952000D02*
X73271000Y-71220000D01*
X73271000Y-73980000D02*
X73271000Y-80248000D01*
X73311000Y-64965000D02*
X73311000Y-71220000D01*
X73311000Y-73980000D02*
X73311000Y-80235000D01*
X73351000Y-64979000D02*
X73351000Y-71220000D01*
X73351000Y-73980000D02*
X73351000Y-80221000D01*
X73391000Y-64992000D02*
X73391000Y-71220000D01*
X73391000Y-73980000D02*
X73391000Y-80208000D01*
X73431000Y-65006000D02*
X73431000Y-71220000D01*
X73431000Y-73980000D02*
X73431000Y-80194000D01*
X73471000Y-65020000D02*
X73471000Y-71220000D01*
X73471000Y-73980000D02*
X73471000Y-80180000D01*
X73511000Y-65035000D02*
X73511000Y-71220000D01*
X73511000Y-73980000D02*
X73511000Y-80165000D01*
X73551000Y-65050000D02*
X73551000Y-71220000D01*
X73551000Y-73980000D02*
X73551000Y-80150000D01*
X73591000Y-65064000D02*
X73591000Y-71220000D01*
X73591000Y-73980000D02*
X73591000Y-80136000D01*
X73631000Y-65079000D02*
X73631000Y-71220000D01*
X73631000Y-73980000D02*
X73631000Y-80121000D01*
X73671000Y-65095000D02*
X73671000Y-71220000D01*
X73671000Y-73980000D02*
X73671000Y-80105000D01*
X73711000Y-65110000D02*
X73711000Y-71220000D01*
X73711000Y-73980000D02*
X73711000Y-80090000D01*
X73751000Y-65126000D02*
X73751000Y-71220000D01*
X73751000Y-73980000D02*
X73751000Y-80074000D01*
X73791000Y-65142000D02*
X73791000Y-71220000D01*
X73791000Y-73980000D02*
X73791000Y-80058000D01*
X73831000Y-65159000D02*
X73831000Y-71220000D01*
X73831000Y-73980000D02*
X73831000Y-80041000D01*
X73871000Y-65175000D02*
X73871000Y-71220000D01*
X73871000Y-73980000D02*
X73871000Y-80025000D01*
X73911000Y-65192000D02*
X73911000Y-71220000D01*
X73911000Y-73980000D02*
X73911000Y-80008000D01*
X73951000Y-65209000D02*
X73951000Y-71220000D01*
X73951000Y-73980000D02*
X73951000Y-79991000D01*
X73991000Y-65227000D02*
X73991000Y-71220000D01*
X73991000Y-73980000D02*
X73991000Y-79973000D01*
X74031000Y-65244000D02*
X74031000Y-71220000D01*
X74031000Y-73980000D02*
X74031000Y-79956000D01*
X74071000Y-65262000D02*
X74071000Y-71220000D01*
X74071000Y-73980000D02*
X74071000Y-79938000D01*
X74111000Y-65280000D02*
X74111000Y-71220000D01*
X74111000Y-73980000D02*
X74111000Y-79920000D01*
X74151000Y-65299000D02*
X74151000Y-71220000D01*
X74151000Y-73980000D02*
X74151000Y-79901000D01*
X74191000Y-65317000D02*
X74191000Y-71220000D01*
X74191000Y-73980000D02*
X74191000Y-79883000D01*
X74231000Y-65336000D02*
X74231000Y-71220000D01*
X74231000Y-73980000D02*
X74231000Y-79864000D01*
X74271000Y-65355000D02*
X74271000Y-71220000D01*
X74271000Y-73980000D02*
X74271000Y-79845000D01*
X74311000Y-65375000D02*
X74311000Y-71220000D01*
X74311000Y-73980000D02*
X74311000Y-79825000D01*
X74351000Y-65395000D02*
X74351000Y-71220000D01*
X74351000Y-73980000D02*
X74351000Y-79805000D01*
X74391000Y-65415000D02*
X74391000Y-71220000D01*
X74391000Y-73980000D02*
X74391000Y-79785000D01*
X74431000Y-65435000D02*
X74431000Y-71220000D01*
X74431000Y-73980000D02*
X74431000Y-79765000D01*
X74471000Y-65456000D02*
X74471000Y-71220000D01*
X74471000Y-73980000D02*
X74471000Y-79744000D01*
X74511000Y-65476000D02*
X74511000Y-71220000D01*
X74511000Y-73980000D02*
X74511000Y-79724000D01*
X74551000Y-65498000D02*
X74551000Y-71220000D01*
X74551000Y-73980000D02*
X74551000Y-79702000D01*
X74591000Y-65519000D02*
X74591000Y-71220000D01*
X74591000Y-73980000D02*
X74591000Y-79681000D01*
X74631000Y-65541000D02*
X74631000Y-71220000D01*
X74631000Y-73980000D02*
X74631000Y-79659000D01*
X74671000Y-65563000D02*
X74671000Y-71220000D01*
X74671000Y-73980000D02*
X74671000Y-79637000D01*
X74711000Y-65585000D02*
X74711000Y-71220000D01*
X74711000Y-73980000D02*
X74711000Y-79615000D01*
X74751000Y-65608000D02*
X74751000Y-71220000D01*
X74751000Y-73980000D02*
X74751000Y-79592000D01*
X74791000Y-65630000D02*
X74791000Y-71220000D01*
X74791000Y-73980000D02*
X74791000Y-79570000D01*
X74831000Y-65654000D02*
X74831000Y-71220000D01*
X74831000Y-73980000D02*
X74831000Y-79546000D01*
X74871000Y-65677000D02*
X74871000Y-71220000D01*
X74871000Y-73980000D02*
X74871000Y-79523000D01*
X74911000Y-65701000D02*
X74911000Y-71220000D01*
X74911000Y-73980000D02*
X74911000Y-79499000D01*
X74951000Y-65725000D02*
X74951000Y-71220000D01*
X74951000Y-73980000D02*
X74951000Y-79475000D01*
X74991000Y-65750000D02*
X74991000Y-71220000D01*
X74991000Y-73980000D02*
X74991000Y-79450000D01*
X75031000Y-65774000D02*
X75031000Y-71220000D01*
X75031000Y-73980000D02*
X75031000Y-79426000D01*
X75071000Y-65799000D02*
X75071000Y-71220000D01*
X75071000Y-73980000D02*
X75071000Y-79401000D01*
X75111000Y-65825000D02*
X75111000Y-71220000D01*
X75111000Y-73980000D02*
X75111000Y-79375000D01*
X75151000Y-65851000D02*
X75151000Y-71220000D01*
X75151000Y-73980000D02*
X75151000Y-79349000D01*
X75191000Y-65877000D02*
X75191000Y-71220000D01*
X75191000Y-73980000D02*
X75191000Y-79323000D01*
X75231000Y-65903000D02*
X75231000Y-71220000D01*
X75231000Y-73980000D02*
X75231000Y-79297000D01*
X75271000Y-65930000D02*
X75271000Y-71220000D01*
X75271000Y-73980000D02*
X75271000Y-79270000D01*
X75311000Y-65957000D02*
X75311000Y-71220000D01*
X75311000Y-73980000D02*
X75311000Y-79243000D01*
X75351000Y-65985000D02*
X75351000Y-71220000D01*
X75351000Y-73980000D02*
X75351000Y-79215000D01*
X75391000Y-66012000D02*
X75391000Y-71220000D01*
X75391000Y-73980000D02*
X75391000Y-79188000D01*
X75431000Y-66041000D02*
X75431000Y-71220000D01*
X75431000Y-73980000D02*
X75431000Y-79159000D01*
X75471000Y-66069000D02*
X75471000Y-71220000D01*
X75471000Y-73980000D02*
X75471000Y-79131000D01*
X75511000Y-66098000D02*
X75511000Y-71220000D01*
X75511000Y-73980000D02*
X75511000Y-79102000D01*
X75551000Y-66127000D02*
X75551000Y-71220000D01*
X75551000Y-73980000D02*
X75551000Y-79073000D01*
X75591000Y-66157000D02*
X75591000Y-71220000D01*
X75591000Y-73980000D02*
X75591000Y-79043000D01*
X75631000Y-66187000D02*
X75631000Y-71220000D01*
X75631000Y-73980000D02*
X75631000Y-79013000D01*
X75671000Y-66218000D02*
X75671000Y-71220000D01*
X75671000Y-73980000D02*
X75671000Y-78982000D01*
X75711000Y-66248000D02*
X75711000Y-71220000D01*
X75711000Y-73980000D02*
X75711000Y-78952000D01*
X75751000Y-66280000D02*
X75751000Y-71220000D01*
X75751000Y-73980000D02*
X75751000Y-78920000D01*
X75791000Y-66311000D02*
X75791000Y-71220000D01*
X75791000Y-73980000D02*
X75791000Y-78889000D01*
X75831000Y-66343000D02*
X75831000Y-71220000D01*
X75831000Y-73980000D02*
X75831000Y-78857000D01*
X75871000Y-66376000D02*
X75871000Y-71220000D01*
X75871000Y-73980000D02*
X75871000Y-78824000D01*
X75911000Y-66409000D02*
X75911000Y-78791000D01*
X75951000Y-66442000D02*
X75951000Y-78758000D01*
X75991000Y-66476000D02*
X75991000Y-78724000D01*
X76031000Y-66510000D02*
X76031000Y-78690000D01*
X76071000Y-66545000D02*
X76071000Y-78655000D01*
X76111000Y-66580000D02*
X76111000Y-78620000D01*
X76151000Y-66616000D02*
X76151000Y-78584000D01*
X76191000Y-66652000D02*
X76191000Y-78548000D01*
X76231000Y-66688000D02*
X76231000Y-78512000D01*
X76271000Y-66725000D02*
X76271000Y-78475000D01*
X76311000Y-66763000D02*
X76311000Y-78437000D01*
X76351000Y-66801000D02*
X76351000Y-78399000D01*
X76391000Y-66840000D02*
X76391000Y-78360000D01*
X76431000Y-66879000D02*
X76431000Y-78321000D01*
X76471000Y-66919000D02*
X76471000Y-78281000D01*
X76511000Y-66959000D02*
X76511000Y-78241000D01*
X76551000Y-67000000D02*
X76551000Y-78200000D01*
X76591000Y-67041000D02*
X76591000Y-78159000D01*
X76631000Y-67083000D02*
X76631000Y-78117000D01*
X76671000Y-67126000D02*
X76671000Y-78074000D01*
X76711000Y-67169000D02*
X76711000Y-78031000D01*
X76751000Y-67213000D02*
X76751000Y-77987000D01*
X76791000Y-67257000D02*
X76791000Y-77943000D01*
X76831000Y-67303000D02*
X76831000Y-77897000D01*
X76871000Y-67349000D02*
X76871000Y-77851000D01*
X76911000Y-67395000D02*
X76911000Y-77805000D01*
X76951000Y-67443000D02*
X76951000Y-77757000D01*
X76991000Y-67491000D02*
X76991000Y-77709000D01*
X77031000Y-67540000D02*
X77031000Y-77660000D01*
X77071000Y-67589000D02*
X77071000Y-77611000D01*
X77111000Y-67640000D02*
X77111000Y-77560000D01*
X77151000Y-67691000D02*
X77151000Y-77509000D01*
X77191000Y-67743000D02*
X77191000Y-77457000D01*
X77231000Y-67796000D02*
X77231000Y-77404000D01*
X77271000Y-67850000D02*
X77271000Y-77350000D01*
X77311000Y-67905000D02*
X77311000Y-77295000D01*
X77351000Y-67961000D02*
X77351000Y-77239000D01*
X77391000Y-68018000D02*
X77391000Y-77182000D01*
X77431000Y-68076000D02*
X77431000Y-77124000D01*
X77471000Y-68135000D02*
X77471000Y-77065000D01*
X77511000Y-68195000D02*
X77511000Y-77005000D01*
X77551000Y-68257000D02*
X77551000Y-76943000D01*
X77591000Y-68319000D02*
X77591000Y-76881000D01*
X77631000Y-68383000D02*
X77631000Y-76817000D01*
X77671000Y-68449000D02*
X77671000Y-76751000D01*
X77711000Y-68516000D02*
X77711000Y-76684000D01*
X77751000Y-68584000D02*
X77751000Y-76616000D01*
X77791000Y-68654000D02*
X77791000Y-76546000D01*
X77831000Y-68725000D02*
X77831000Y-76475000D01*
X77871000Y-68798000D02*
X77871000Y-76402000D01*
X77911000Y-68874000D02*
X77911000Y-76326000D01*
X77951000Y-68951000D02*
X77951000Y-76249000D01*
X77991000Y-69030000D02*
X77991000Y-76170000D01*
X78031000Y-69111000D02*
X78031000Y-76089000D01*
X78071000Y-69195000D02*
X78071000Y-76005000D01*
X78111000Y-69281000D02*
X78111000Y-75919000D01*
X78151000Y-69370000D02*
X78151000Y-75830000D01*
X78191000Y-69462000D02*
X78191000Y-75738000D01*
X78231000Y-69558000D02*
X78231000Y-75642000D01*
X78271000Y-69657000D02*
X78271000Y-75543000D01*
X78311000Y-69759000D02*
X78311000Y-75441000D01*
X78351000Y-69867000D02*
X78351000Y-75333000D01*
X78391000Y-69979000D02*
X78391000Y-75221000D01*
X78431000Y-70097000D02*
X78431000Y-75103000D01*
X78471000Y-70221000D02*
X78471000Y-74979000D01*
X78511000Y-70352000D02*
X78511000Y-74848000D01*
X78551000Y-70493000D02*
X78551000Y-74707000D01*
X78591000Y-70644000D02*
X78591000Y-74556000D01*
X78631000Y-70808000D02*
X78631000Y-74392000D01*
X78671000Y-70990000D02*
X78671000Y-74210000D01*
X78711000Y-71195000D02*
X78711000Y-74005000D01*
X78751000Y-71436000D02*
X78751000Y-73764000D01*
X78791000Y-71741000D02*
X78791000Y-73459000D01*
X78831000Y-72237000D02*
X78831000Y-72963000D01*
X63800000Y-72600000D02*
X65600000Y-72600000D01*
X64700000Y-71700000D02*
X64700000Y-73500000D01*
D14*
X88649360Y-143599180D02*
X96350640Y-143599180D01*
X88649360Y-144599940D02*
X96350640Y-144599940D01*
X96350640Y-144599940D02*
X96350640Y-135400060D01*
X96350640Y-135400060D02*
X88649360Y-135400060D01*
X88649360Y-135400060D02*
X88649360Y-144599940D01*
X34960000Y-140080000D02*
X34960000Y-129920000D01*
X33690000Y-140080000D02*
X41310000Y-140080000D01*
X41310000Y-140080000D02*
X41310000Y-129920000D01*
X41310000Y-129920000D02*
X33690000Y-129920000D01*
X33690000Y-129920000D02*
X33690000Y-140080000D01*
X58100000Y-133625000D02*
X56900000Y-133625000D01*
X56900000Y-131875000D02*
X58100000Y-131875000D01*
D18*
X68500000Y-147320000D02*
X68500100Y-147320000D01*
X68500100Y-147320000D02*
X68800000Y-147320000D01*
X69100000Y-147620000D02*
X80900000Y-147620000D01*
X81200000Y-147320000D02*
X81500000Y-147320000D01*
X81500000Y-147320000D02*
X81500000Y-138620000D01*
X81500000Y-138620000D02*
X81500000Y-136120000D01*
X81500000Y-136120000D02*
X81500000Y-133720000D01*
X81500000Y-133720000D02*
X68500000Y-133720000D01*
X68500000Y-133720000D02*
X68500000Y-136120000D01*
X68500000Y-136120000D02*
X68500000Y-138620000D01*
X68500000Y-138620000D02*
X68500000Y-147320000D01*
X68500100Y-147320000D02*
G75*
G02X68200100Y-147620000I-300000J0D01*
G01*
X68200000Y-147620000D02*
X68000000Y-147620000D01*
X69100000Y-147620000D02*
G75*
G03X68800000Y-147320000I-300000J0D01*
G01*
X81800000Y-147620000D02*
G75*
G02X81500000Y-147320000I0J300000D01*
G01*
X81199998Y-147319900D02*
G75*
G03X80900000Y-147620000I101J-300099D01*
G01*
X70000000Y-139620000D02*
X71000000Y-145620000D01*
X71000000Y-145620000D02*
X72000000Y-145620000D01*
X72000000Y-145620000D02*
X73000000Y-139620000D01*
X80000000Y-139620000D02*
X79000000Y-145620000D01*
X79000000Y-145620000D02*
X78000000Y-145620000D01*
X78000000Y-145620000D02*
X77000000Y-139620000D01*
X68500000Y-136120000D02*
X67000000Y-136620000D01*
X67000000Y-136620000D02*
X67000000Y-138120000D01*
X67000000Y-138120000D02*
X68500000Y-138620000D01*
X81500000Y-136120000D02*
X83000000Y-136620000D01*
X83000000Y-136620000D02*
X83000000Y-138120000D01*
X83000000Y-138120000D02*
X81500000Y-138620000D01*
X81800000Y-147620000D02*
X82000000Y-147620000D01*
D15*
X72190000Y-125000000D02*
G75*
G03X72190000Y-125000000I-4090000J0D01*
G01*
X68100000Y-120950000D02*
X68100000Y-129050000D01*
X68140000Y-120950000D02*
X68140000Y-129050000D01*
X68180000Y-120950000D02*
X68180000Y-129050000D01*
X68220000Y-120951000D02*
X68220000Y-129049000D01*
X68260000Y-120953000D02*
X68260000Y-129047000D01*
X68300000Y-120954000D02*
X68300000Y-129046000D01*
X68340000Y-120957000D02*
X68340000Y-129043000D01*
X68380000Y-120959000D02*
X68380000Y-129041000D01*
X68420000Y-120962000D02*
X68420000Y-129038000D01*
X68460000Y-120965000D02*
X68460000Y-129035000D01*
X68500000Y-120969000D02*
X68500000Y-129031000D01*
X68540000Y-120973000D02*
X68540000Y-129027000D01*
X68580000Y-120978000D02*
X68580000Y-129022000D01*
X68620000Y-120983000D02*
X68620000Y-129017000D01*
X68660000Y-120988000D02*
X68660000Y-129012000D01*
X68700000Y-120994000D02*
X68700000Y-129006000D01*
X68740000Y-121000000D02*
X68740000Y-129000000D01*
X68780000Y-121006000D02*
X68780000Y-128994000D01*
X68821000Y-121013000D02*
X68821000Y-128987000D01*
X68861000Y-121021000D02*
X68861000Y-128979000D01*
X68901000Y-121029000D02*
X68901000Y-128971000D01*
X68941000Y-121037000D02*
X68941000Y-128963000D01*
X68981000Y-121045000D02*
X68981000Y-128955000D01*
X69021000Y-121054000D02*
X69021000Y-124020000D01*
X69021000Y-125980000D02*
X69021000Y-128946000D01*
X69061000Y-121064000D02*
X69061000Y-124020000D01*
X69061000Y-125980000D02*
X69061000Y-128936000D01*
X69101000Y-121074000D02*
X69101000Y-124020000D01*
X69101000Y-125980000D02*
X69101000Y-128926000D01*
X69141000Y-121084000D02*
X69141000Y-124020000D01*
X69141000Y-125980000D02*
X69141000Y-128916000D01*
X69181000Y-121095000D02*
X69181000Y-124020000D01*
X69181000Y-125980000D02*
X69181000Y-128905000D01*
X69221000Y-121106000D02*
X69221000Y-124020000D01*
X69221000Y-125980000D02*
X69221000Y-128894000D01*
X69261000Y-121117000D02*
X69261000Y-124020000D01*
X69261000Y-125980000D02*
X69261000Y-128883000D01*
X69301000Y-121130000D02*
X69301000Y-124020000D01*
X69301000Y-125980000D02*
X69301000Y-128870000D01*
X69341000Y-121142000D02*
X69341000Y-124020000D01*
X69341000Y-125980000D02*
X69341000Y-128858000D01*
X69381000Y-121155000D02*
X69381000Y-124020000D01*
X69381000Y-125980000D02*
X69381000Y-128845000D01*
X69421000Y-121168000D02*
X69421000Y-124020000D01*
X69421000Y-125980000D02*
X69421000Y-128832000D01*
X69461000Y-121182000D02*
X69461000Y-124020000D01*
X69461000Y-125980000D02*
X69461000Y-128818000D01*
X69501000Y-121197000D02*
X69501000Y-124020000D01*
X69501000Y-125980000D02*
X69501000Y-128803000D01*
X69541000Y-121211000D02*
X69541000Y-124020000D01*
X69541000Y-125980000D02*
X69541000Y-128789000D01*
X69581000Y-121227000D02*
X69581000Y-124020000D01*
X69581000Y-125980000D02*
X69581000Y-128773000D01*
X69621000Y-121242000D02*
X69621000Y-124020000D01*
X69621000Y-125980000D02*
X69621000Y-128758000D01*
X69661000Y-121259000D02*
X69661000Y-124020000D01*
X69661000Y-125980000D02*
X69661000Y-128741000D01*
X69701000Y-121275000D02*
X69701000Y-124020000D01*
X69701000Y-125980000D02*
X69701000Y-128725000D01*
X69741000Y-121293000D02*
X69741000Y-124020000D01*
X69741000Y-125980000D02*
X69741000Y-128707000D01*
X69781000Y-121310000D02*
X69781000Y-124020000D01*
X69781000Y-125980000D02*
X69781000Y-128690000D01*
X69821000Y-121329000D02*
X69821000Y-124020000D01*
X69821000Y-125980000D02*
X69821000Y-128671000D01*
X69861000Y-121348000D02*
X69861000Y-124020000D01*
X69861000Y-125980000D02*
X69861000Y-128652000D01*
X69901000Y-121367000D02*
X69901000Y-124020000D01*
X69901000Y-125980000D02*
X69901000Y-128633000D01*
X69941000Y-121387000D02*
X69941000Y-124020000D01*
X69941000Y-125980000D02*
X69941000Y-128613000D01*
X69981000Y-121407000D02*
X69981000Y-124020000D01*
X69981000Y-125980000D02*
X69981000Y-128593000D01*
X70021000Y-121428000D02*
X70021000Y-124020000D01*
X70021000Y-125980000D02*
X70021000Y-128572000D01*
X70061000Y-121450000D02*
X70061000Y-124020000D01*
X70061000Y-125980000D02*
X70061000Y-128550000D01*
X70101000Y-121472000D02*
X70101000Y-124020000D01*
X70101000Y-125980000D02*
X70101000Y-128528000D01*
X70141000Y-121495000D02*
X70141000Y-124020000D01*
X70141000Y-125980000D02*
X70141000Y-128505000D01*
X70181000Y-121518000D02*
X70181000Y-124020000D01*
X70181000Y-125980000D02*
X70181000Y-128482000D01*
X70221000Y-121542000D02*
X70221000Y-124020000D01*
X70221000Y-125980000D02*
X70221000Y-128458000D01*
X70261000Y-121566000D02*
X70261000Y-124020000D01*
X70261000Y-125980000D02*
X70261000Y-128434000D01*
X70301000Y-121592000D02*
X70301000Y-124020000D01*
X70301000Y-125980000D02*
X70301000Y-128408000D01*
X70341000Y-121617000D02*
X70341000Y-124020000D01*
X70341000Y-125980000D02*
X70341000Y-128383000D01*
X70381000Y-121644000D02*
X70381000Y-124020000D01*
X70381000Y-125980000D02*
X70381000Y-128356000D01*
X70421000Y-121671000D02*
X70421000Y-124020000D01*
X70421000Y-125980000D02*
X70421000Y-128329000D01*
X70461000Y-121699000D02*
X70461000Y-124020000D01*
X70461000Y-125980000D02*
X70461000Y-128301000D01*
X70501000Y-121728000D02*
X70501000Y-124020000D01*
X70501000Y-125980000D02*
X70501000Y-128272000D01*
X70541000Y-121757000D02*
X70541000Y-124020000D01*
X70541000Y-125980000D02*
X70541000Y-128243000D01*
X70581000Y-121787000D02*
X70581000Y-124020000D01*
X70581000Y-125980000D02*
X70581000Y-128213000D01*
X70621000Y-121818000D02*
X70621000Y-124020000D01*
X70621000Y-125980000D02*
X70621000Y-128182000D01*
X70661000Y-121850000D02*
X70661000Y-124020000D01*
X70661000Y-125980000D02*
X70661000Y-128150000D01*
X70701000Y-121882000D02*
X70701000Y-124020000D01*
X70701000Y-125980000D02*
X70701000Y-128118000D01*
X70741000Y-121916000D02*
X70741000Y-124020000D01*
X70741000Y-125980000D02*
X70741000Y-128084000D01*
X70781000Y-121950000D02*
X70781000Y-124020000D01*
X70781000Y-125980000D02*
X70781000Y-128050000D01*
X70821000Y-121985000D02*
X70821000Y-124020000D01*
X70821000Y-125980000D02*
X70821000Y-128015000D01*
X70861000Y-122021000D02*
X70861000Y-124020000D01*
X70861000Y-125980000D02*
X70861000Y-127979000D01*
X70901000Y-122058000D02*
X70901000Y-124020000D01*
X70901000Y-125980000D02*
X70901000Y-127942000D01*
X70941000Y-122096000D02*
X70941000Y-124020000D01*
X70941000Y-125980000D02*
X70941000Y-127904000D01*
X70981000Y-122135000D02*
X70981000Y-127865000D01*
X71021000Y-122176000D02*
X71021000Y-127824000D01*
X71061000Y-122217000D02*
X71061000Y-127783000D01*
X71101000Y-122260000D02*
X71101000Y-127740000D01*
X71141000Y-122303000D02*
X71141000Y-127697000D01*
X71181000Y-122348000D02*
X71181000Y-127652000D01*
X71221000Y-122395000D02*
X71221000Y-127605000D01*
X71261000Y-122443000D02*
X71261000Y-127557000D01*
X71301000Y-122492000D02*
X71301000Y-127508000D01*
X71341000Y-122543000D02*
X71341000Y-127457000D01*
X71381000Y-122596000D02*
X71381000Y-127404000D01*
X71421000Y-122651000D02*
X71421000Y-127349000D01*
X71461000Y-122707000D02*
X71461000Y-127293000D01*
X71501000Y-122766000D02*
X71501000Y-127234000D01*
X71541000Y-122827000D02*
X71541000Y-127173000D01*
X71581000Y-122891000D02*
X71581000Y-127109000D01*
X71621000Y-122957000D02*
X71621000Y-127043000D01*
X71661000Y-123026000D02*
X71661000Y-126974000D01*
X71701000Y-123098000D02*
X71701000Y-126902000D01*
X71741000Y-123174000D02*
X71741000Y-126826000D01*
X71781000Y-123255000D02*
X71781000Y-126745000D01*
X71821000Y-123340000D02*
X71821000Y-126660000D01*
X71861000Y-123430000D02*
X71861000Y-126570000D01*
X71901000Y-123527000D02*
X71901000Y-126473000D01*
X71941000Y-123631000D02*
X71941000Y-126369000D01*
X71981000Y-123746000D02*
X71981000Y-126254000D01*
X72021000Y-123873000D02*
X72021000Y-126127000D01*
X72061000Y-124017000D02*
X72061000Y-125983000D01*
X72101000Y-124186000D02*
X72101000Y-125814000D01*
X72141000Y-124402000D02*
X72141000Y-125598000D01*
X72181000Y-124754000D02*
X72181000Y-125246000D01*
X64000000Y-125000000D02*
X65200000Y-125000000D01*
X64600000Y-124350000D02*
X64600000Y-125650000D01*
X31220000Y-46030000D02*
X31220000Y-43370000D01*
X31220000Y-43370000D02*
X28480000Y-43370000D01*
X28480000Y-43370000D02*
X28480000Y-46030000D01*
X28480000Y-46030000D02*
X31220000Y-46030000D01*
X28480000Y-45080000D02*
X28480000Y-44200000D01*
X28480000Y-44200000D02*
X22480000Y-44200000D01*
X22480000Y-44200000D02*
X22480000Y-45080000D01*
X22480000Y-45080000D02*
X28480000Y-45080000D01*
X31530000Y-45080000D02*
X31220000Y-45080000D01*
X31530000Y-44200000D02*
X31220000Y-44200000D01*
X34070000Y-45080000D02*
X33470000Y-45080000D01*
X34070000Y-44200000D02*
X33470000Y-44200000D01*
X28480000Y-44960000D02*
X22480000Y-44960000D01*
X28480000Y-44840000D02*
X22480000Y-44840000D01*
X28480000Y-44720000D02*
X22480000Y-44720000D01*
X28480000Y-44600000D02*
X22480000Y-44600000D01*
X28480000Y-44480000D02*
X22480000Y-44480000D01*
X28480000Y-44360000D02*
X22480000Y-44360000D01*
X28480000Y-44240000D02*
X22480000Y-44240000D01*
X31220000Y-43370000D02*
X31220000Y-40830000D01*
X31220000Y-40830000D02*
X28480000Y-40830000D01*
X28480000Y-40830000D02*
X28480000Y-43370000D01*
X28480000Y-43370000D02*
X31220000Y-43370000D01*
X28480000Y-42540000D02*
X28480000Y-41660000D01*
X28480000Y-41660000D02*
X22480000Y-41660000D01*
X22480000Y-41660000D02*
X22480000Y-42540000D01*
X22480000Y-42540000D02*
X28480000Y-42540000D01*
X31530000Y-42540000D02*
X31220000Y-42540000D01*
X31530000Y-41660000D02*
X31220000Y-41660000D01*
X34070000Y-42540000D02*
X33470000Y-42540000D01*
X34070000Y-41660000D02*
X33470000Y-41660000D01*
X31220000Y-40830000D02*
X31220000Y-38170000D01*
X31220000Y-38170000D02*
X28480000Y-38170000D01*
X28480000Y-38170000D02*
X28480000Y-40830000D01*
X28480000Y-40830000D02*
X31220000Y-40830000D01*
X28480000Y-40000000D02*
X28480000Y-39120000D01*
X28480000Y-39120000D02*
X22480000Y-39120000D01*
X22480000Y-39120000D02*
X22480000Y-40000000D01*
X22480000Y-40000000D02*
X28480000Y-40000000D01*
X31530000Y-40000000D02*
X31220000Y-40000000D01*
X31530000Y-39120000D02*
X31220000Y-39120000D01*
X34070000Y-40000000D02*
X33470000Y-40000000D01*
X34070000Y-39120000D02*
X33470000Y-39120000D01*
X36310000Y-44640000D02*
X36310000Y-45910000D01*
X36310000Y-45910000D02*
X35040000Y-45910000D01*
X31220000Y-77570000D02*
X31220000Y-74910000D01*
X31220000Y-74910000D02*
X28480000Y-74910000D01*
X28480000Y-74910000D02*
X28480000Y-77570000D01*
X28480000Y-77570000D02*
X31220000Y-77570000D01*
X28480000Y-76620000D02*
X28480000Y-75740000D01*
X28480000Y-75740000D02*
X22480000Y-75740000D01*
X22480000Y-75740000D02*
X22480000Y-76620000D01*
X22480000Y-76620000D02*
X28480000Y-76620000D01*
X31530000Y-76620000D02*
X31220000Y-76620000D01*
X31530000Y-75740000D02*
X31220000Y-75740000D01*
X34070000Y-76620000D02*
X33470000Y-76620000D01*
X34070000Y-75740000D02*
X33470000Y-75740000D01*
X28480000Y-76500000D02*
X22480000Y-76500000D01*
X28480000Y-76380000D02*
X22480000Y-76380000D01*
X28480000Y-76260000D02*
X22480000Y-76260000D01*
X28480000Y-76140000D02*
X22480000Y-76140000D01*
X28480000Y-76020000D02*
X22480000Y-76020000D01*
X28480000Y-75900000D02*
X22480000Y-75900000D01*
X28480000Y-75780000D02*
X22480000Y-75780000D01*
X31220000Y-74910000D02*
X31220000Y-72370000D01*
X31220000Y-72370000D02*
X28480000Y-72370000D01*
X28480000Y-72370000D02*
X28480000Y-74910000D01*
X28480000Y-74910000D02*
X31220000Y-74910000D01*
X28480000Y-74080000D02*
X28480000Y-73200000D01*
X28480000Y-73200000D02*
X22480000Y-73200000D01*
X22480000Y-73200000D02*
X22480000Y-74080000D01*
X22480000Y-74080000D02*
X28480000Y-74080000D01*
X31530000Y-74080000D02*
X31220000Y-74080000D01*
X31530000Y-73200000D02*
X31220000Y-73200000D01*
X34070000Y-74080000D02*
X33470000Y-74080000D01*
X34070000Y-73200000D02*
X33470000Y-73200000D01*
X31220000Y-72370000D02*
X31220000Y-69710000D01*
X31220000Y-69710000D02*
X28480000Y-69710000D01*
X28480000Y-69710000D02*
X28480000Y-72370000D01*
X28480000Y-72370000D02*
X31220000Y-72370000D01*
X28480000Y-71540000D02*
X28480000Y-70660000D01*
X28480000Y-70660000D02*
X22480000Y-70660000D01*
X22480000Y-70660000D02*
X22480000Y-71540000D01*
X22480000Y-71540000D02*
X28480000Y-71540000D01*
X31530000Y-71540000D02*
X31220000Y-71540000D01*
X31530000Y-70660000D02*
X31220000Y-70660000D01*
X34070000Y-71540000D02*
X33470000Y-71540000D01*
X34070000Y-70660000D02*
X33470000Y-70660000D01*
X36310000Y-76180000D02*
X36310000Y-77450000D01*
X36310000Y-77450000D02*
X35040000Y-77450000D01*
X31220000Y-108970000D02*
X31220000Y-106310000D01*
X31220000Y-106310000D02*
X28480000Y-106310000D01*
X28480000Y-106310000D02*
X28480000Y-108970000D01*
X28480000Y-108970000D02*
X31220000Y-108970000D01*
X28480000Y-108020000D02*
X28480000Y-107140000D01*
X28480000Y-107140000D02*
X22480000Y-107140000D01*
X22480000Y-107140000D02*
X22480000Y-108020000D01*
X22480000Y-108020000D02*
X28480000Y-108020000D01*
X31530000Y-108020000D02*
X31220000Y-108020000D01*
X31530000Y-107140000D02*
X31220000Y-107140000D01*
X34070000Y-108020000D02*
X33470000Y-108020000D01*
X34070000Y-107140000D02*
X33470000Y-107140000D01*
X28480000Y-107900000D02*
X22480000Y-107900000D01*
X28480000Y-107780000D02*
X22480000Y-107780000D01*
X28480000Y-107660000D02*
X22480000Y-107660000D01*
X28480000Y-107540000D02*
X22480000Y-107540000D01*
X28480000Y-107420000D02*
X22480000Y-107420000D01*
X28480000Y-107300000D02*
X22480000Y-107300000D01*
X28480000Y-107180000D02*
X22480000Y-107180000D01*
X31220000Y-106310000D02*
X31220000Y-103770000D01*
X31220000Y-103770000D02*
X28480000Y-103770000D01*
X28480000Y-103770000D02*
X28480000Y-106310000D01*
X28480000Y-106310000D02*
X31220000Y-106310000D01*
X28480000Y-105480000D02*
X28480000Y-104600000D01*
X28480000Y-104600000D02*
X22480000Y-104600000D01*
X22480000Y-104600000D02*
X22480000Y-105480000D01*
X22480000Y-105480000D02*
X28480000Y-105480000D01*
X31530000Y-105480000D02*
X31220000Y-105480000D01*
X31530000Y-104600000D02*
X31220000Y-104600000D01*
X34070000Y-105480000D02*
X33470000Y-105480000D01*
X34070000Y-104600000D02*
X33470000Y-104600000D01*
X31220000Y-103770000D02*
X31220000Y-101110000D01*
X31220000Y-101110000D02*
X28480000Y-101110000D01*
X28480000Y-101110000D02*
X28480000Y-103770000D01*
X28480000Y-103770000D02*
X31220000Y-103770000D01*
X28480000Y-102940000D02*
X28480000Y-102060000D01*
X28480000Y-102060000D02*
X22480000Y-102060000D01*
X22480000Y-102060000D02*
X22480000Y-102940000D01*
X22480000Y-102940000D02*
X28480000Y-102940000D01*
X31530000Y-102940000D02*
X31220000Y-102940000D01*
X31530000Y-102060000D02*
X31220000Y-102060000D01*
X34070000Y-102940000D02*
X33470000Y-102940000D01*
X34070000Y-102060000D02*
X33470000Y-102060000D01*
X36310000Y-107580000D02*
X36310000Y-108850000D01*
X36310000Y-108850000D02*
X35040000Y-108850000D01*
D14*
X86600000Y-132100000D02*
X86600000Y-132800000D01*
X85400000Y-132800000D02*
X85400000Y-132100000D01*
X31550000Y-34131000D02*
X31550000Y-34981000D01*
X34300000Y-32431000D02*
X36200000Y-32431000D01*
X34300000Y-31831000D02*
X36200000Y-31831000D01*
X34300000Y-28231000D02*
X36200000Y-28231000D01*
X34300000Y-27631000D02*
X36200000Y-27631000D01*
X34300000Y-24031000D02*
X36200000Y-24031000D01*
X34300000Y-23431000D02*
X36200000Y-23431000D01*
X34300000Y-19831000D02*
X36200000Y-19831000D01*
X34300000Y-19231000D02*
X36200000Y-19231000D01*
X31500000Y-30331000D02*
X31500000Y-29731000D01*
X31500000Y-26131000D02*
X31500000Y-25531000D01*
X31500000Y-21931000D02*
X31500000Y-21331000D01*
X32500000Y-34131000D02*
X32800000Y-34731000D01*
X32800000Y-34731000D02*
X32200000Y-34731000D01*
X32200000Y-34731000D02*
X32500000Y-34131000D01*
X31550000Y-65800000D02*
X31550000Y-66650000D01*
X34300000Y-64100000D02*
X36200000Y-64100000D01*
X34300000Y-63500000D02*
X36200000Y-63500000D01*
X34300000Y-59900000D02*
X36200000Y-59900000D01*
X34300000Y-59300000D02*
X36200000Y-59300000D01*
X34300000Y-55700000D02*
X36200000Y-55700000D01*
X34300000Y-55100000D02*
X36200000Y-55100000D01*
X34300000Y-51500000D02*
X36200000Y-51500000D01*
X34300000Y-50900000D02*
X36200000Y-50900000D01*
X31500000Y-62000000D02*
X31500000Y-61400000D01*
X31500000Y-57800000D02*
X31500000Y-57200000D01*
X31500000Y-53600000D02*
X31500000Y-53000000D01*
X32500000Y-65800000D02*
X32800000Y-66400000D01*
X32800000Y-66400000D02*
X32200000Y-66400000D01*
X32200000Y-66400000D02*
X32500000Y-65800000D01*
X31550000Y-97100000D02*
X31550000Y-97950000D01*
X34300000Y-95400000D02*
X36200000Y-95400000D01*
X34300000Y-94800000D02*
X36200000Y-94800000D01*
X34300000Y-91200000D02*
X36200000Y-91200000D01*
X34300000Y-90600000D02*
X36200000Y-90600000D01*
X34300000Y-87000000D02*
X36200000Y-87000000D01*
X34300000Y-86400000D02*
X36200000Y-86400000D01*
X34300000Y-82800000D02*
X36200000Y-82800000D01*
X34300000Y-82200000D02*
X36200000Y-82200000D01*
X31500000Y-93300000D02*
X31500000Y-92700000D01*
X31500000Y-89100000D02*
X31500000Y-88500000D01*
X31500000Y-84900000D02*
X31500000Y-84300000D01*
X32500000Y-97100000D02*
X32800000Y-97700000D01*
X32800000Y-97700000D02*
X32200000Y-97700000D01*
X32200000Y-97700000D02*
X32500000Y-97100000D01*
D19*
G36*
X93069861Y-34249918D02*
X93219238Y-34254198D01*
X93348197Y-34260541D01*
X93461675Y-34269496D01*
X93564609Y-34281610D01*
X93661934Y-34297430D01*
X93758588Y-34317503D01*
X93826073Y-34333767D01*
X94004338Y-34388100D01*
X94161329Y-34455876D01*
X94297583Y-34537518D01*
X94413634Y-34633452D01*
X94510019Y-34744101D01*
X94587274Y-34869890D01*
X94631861Y-34971419D01*
X94647393Y-35013898D01*
X94660778Y-35054099D01*
X94672176Y-35094224D01*
X94681744Y-35136476D01*
X94689643Y-35183054D01*
X94696031Y-35236161D01*
X94701067Y-35297997D01*
X94704911Y-35370765D01*
X94707722Y-35456665D01*
X94709658Y-35557900D01*
X94710879Y-35676669D01*
X94711544Y-35815176D01*
X94711812Y-35975621D01*
X94711848Y-36078175D01*
X94711900Y-36837000D01*
X93340300Y-36837000D01*
X93340300Y-36128490D01*
X93340299Y-35419981D01*
X93311725Y-35363315D01*
X93271936Y-35312127D01*
X93211739Y-35274129D01*
X93132691Y-35249759D01*
X93036349Y-35239451D01*
X92924271Y-35243644D01*
X92895822Y-35246780D01*
X92816394Y-35259974D01*
X92757349Y-35278632D01*
X92713865Y-35305068D01*
X92681121Y-35341594D01*
X92673550Y-35353397D01*
X92667837Y-35363702D01*
X92663052Y-35375497D01*
X92659111Y-35390986D01*
X92655933Y-35412372D01*
X92653436Y-35441857D01*
X92651539Y-35481644D01*
X92650158Y-35533936D01*
X92649213Y-35600936D01*
X92648622Y-35684846D01*
X92648302Y-35787870D01*
X92648172Y-35912211D01*
X92648150Y-36036900D01*
X92648186Y-36189291D01*
X92648456Y-36318619D01*
X92649199Y-36427217D01*
X92650654Y-36517423D01*
X92653059Y-36591571D01*
X92656655Y-36651997D01*
X92661681Y-36701037D01*
X92668376Y-36741027D01*
X92676980Y-36774302D01*
X92687730Y-36803197D01*
X92700868Y-36830049D01*
X92716632Y-36857193D01*
X92735239Y-36886929D01*
X92757739Y-36921249D01*
X92781924Y-36955081D01*
X92809267Y-36989845D01*
X92841242Y-37026959D01*
X92879321Y-37067845D01*
X92924979Y-37113922D01*
X92979687Y-37166609D01*
X93044920Y-37227328D01*
X93122151Y-37297496D01*
X93212853Y-37378534D01*
X93318498Y-37471863D01*
X93440561Y-37578901D01*
X93575250Y-37696479D01*
X93746895Y-37847852D01*
X93899200Y-37986087D01*
X94033564Y-38112711D01*
X94151385Y-38229250D01*
X94254061Y-38337232D01*
X94342991Y-38438184D01*
X94419573Y-38533633D01*
X94485206Y-38625107D01*
X94541289Y-38714131D01*
X94589219Y-38802233D01*
X94590856Y-38805500D01*
X94625427Y-38878424D01*
X94655337Y-38950705D01*
X94680866Y-39024659D01*
X94702296Y-39102600D01*
X94719907Y-39186842D01*
X94733978Y-39279702D01*
X94744791Y-39383493D01*
X94752626Y-39500531D01*
X94757763Y-39633130D01*
X94760484Y-39783606D01*
X94761067Y-39954273D01*
X94759795Y-40147445D01*
X94759268Y-40195462D01*
X94757253Y-40345539D01*
X94754849Y-40473028D01*
X94751831Y-40580744D01*
X94747976Y-40671500D01*
X94743058Y-40748108D01*
X94736853Y-40813381D01*
X94729138Y-40870132D01*
X94719687Y-40921175D01*
X94708278Y-40969322D01*
X94694684Y-41017385D01*
X94693393Y-41021650D01*
X94682405Y-41059378D01*
X94675343Y-41086724D01*
X94673937Y-41094675D01*
X94686044Y-41097227D01*
X94720222Y-41099520D01*
X94773143Y-41101460D01*
X94841478Y-41102950D01*
X94921900Y-41103895D01*
X95004855Y-41104200D01*
X95105112Y-41104104D01*
X95182752Y-41103690D01*
X95240556Y-41102767D01*
X95281309Y-41101144D01*
X95307791Y-41098630D01*
X95322786Y-41095034D01*
X95329077Y-41090166D01*
X95329444Y-41083834D01*
X95328929Y-41081975D01*
X95305048Y-40995744D01*
X95283101Y-40898118D01*
X95265797Y-40802050D01*
X95257855Y-40742250D01*
X95255703Y-40709237D01*
X95253666Y-40653387D01*
X95251778Y-40577262D01*
X95250075Y-40483426D01*
X95248590Y-40374441D01*
X95247358Y-40252869D01*
X95246414Y-40121274D01*
X95245791Y-39982217D01*
X95245525Y-39838263D01*
X95245520Y-39824675D01*
X95245300Y-39021400D01*
X96679867Y-39021400D01*
X96683308Y-39856425D01*
X96683925Y-40027190D01*
X96684430Y-40174411D01*
X96685066Y-40299940D01*
X96686080Y-40405630D01*
X96687715Y-40493335D01*
X96690216Y-40564907D01*
X96693827Y-40622199D01*
X96698795Y-40667065D01*
X96705362Y-40701356D01*
X96713774Y-40726926D01*
X96724276Y-40745629D01*
X96737112Y-40759316D01*
X96752527Y-40769841D01*
X96770766Y-40779056D01*
X96792072Y-40788816D01*
X96807400Y-40796187D01*
X96840169Y-40811547D01*
X96869606Y-40821624D01*
X96902487Y-40827515D01*
X96945589Y-40830317D01*
X97005688Y-40831129D01*
X97023300Y-40831150D01*
X97114316Y-40828517D01*
X97185420Y-40819634D01*
X97241645Y-40803021D01*
X97288028Y-40777201D01*
X97328935Y-40741381D01*
X97372550Y-40696377D01*
X97372550Y-39357950D01*
X97327034Y-39262700D01*
X97301322Y-39212737D01*
X97271552Y-39163018D01*
X97236263Y-39112045D01*
X97193991Y-39058324D01*
X97143273Y-39000357D01*
X97082646Y-38936648D01*
X97010647Y-38865702D01*
X96925813Y-38786022D01*
X96826681Y-38696112D01*
X96711788Y-38594476D01*
X96579672Y-38479618D01*
X96464221Y-38380314D01*
X96289288Y-38228659D01*
X96134153Y-38090442D01*
X95997745Y-37964620D01*
X95878993Y-37850152D01*
X95776828Y-37745993D01*
X95690179Y-37651102D01*
X95617975Y-37564436D01*
X95592400Y-37531174D01*
X95516521Y-37421769D01*
X95445619Y-37304135D01*
X95383673Y-37185585D01*
X95334659Y-37073434D01*
X95317359Y-37025430D01*
X95304181Y-36984359D01*
X95292886Y-36945138D01*
X95283331Y-36905498D01*
X95275372Y-36863168D01*
X95268868Y-36815878D01*
X95263676Y-36761356D01*
X95259653Y-36697334D01*
X95256656Y-36621539D01*
X95254544Y-36531703D01*
X95253173Y-36425554D01*
X95252401Y-36300823D01*
X95252086Y-36155238D01*
X95252084Y-35986529D01*
X95252084Y-35986100D01*
X95252518Y-35255850D01*
X95286193Y-35132357D01*
X95340450Y-34976598D01*
X95414036Y-34837089D01*
X95507385Y-34713299D01*
X95620929Y-34604701D01*
X95755104Y-34510764D01*
X95829500Y-34469419D01*
X95922713Y-34425242D01*
X96020262Y-34387065D01*
X96126312Y-34353729D01*
X96245026Y-34324075D01*
X96380567Y-34296944D01*
X96537099Y-34271177D01*
X96547050Y-34269679D01*
X96608858Y-34262976D01*
X96691543Y-34257802D01*
X96790630Y-34254128D01*
X96901643Y-34251931D01*
X97020105Y-34251183D01*
X97141542Y-34251858D01*
X97261478Y-34253931D01*
X97375438Y-34257375D01*
X97478946Y-34262164D01*
X97567525Y-34268273D01*
X97636702Y-34275675D01*
X97639250Y-34276033D01*
X97847636Y-34312870D01*
X98033829Y-34361160D01*
X98198514Y-34421321D01*
X98342377Y-34493772D01*
X98466104Y-34578935D01*
X98570380Y-34677227D01*
X98655890Y-34789069D01*
X98723321Y-34914880D01*
X98737149Y-34947849D01*
X98752815Y-34987473D01*
X98766325Y-35023470D01*
X98777852Y-35058003D01*
X98787568Y-35093236D01*
X98795643Y-35131335D01*
X98802250Y-35174463D01*
X98807560Y-35224785D01*
X98811745Y-35284465D01*
X98814977Y-35355667D01*
X98817427Y-35440555D01*
X98819267Y-35541293D01*
X98820669Y-35660047D01*
X98821805Y-35798980D01*
X98822845Y-35960256D01*
X98823286Y-36033724D01*
X98828087Y-36836999D01*
X98141593Y-36836999D01*
X97455100Y-36837000D01*
X97455100Y-36129809D01*
X97455075Y-35977786D01*
X97454951Y-35849043D01*
X97454657Y-35741458D01*
X97454117Y-35652913D01*
X97453259Y-35581285D01*
X97452009Y-35524455D01*
X97450295Y-35480302D01*
X97448043Y-35446706D01*
X97445180Y-35421546D01*
X97441633Y-35402701D01*
X97437328Y-35388052D01*
X97432193Y-35375478D01*
X97428798Y-35368288D01*
X97398698Y-35321906D01*
X97357303Y-35288243D01*
X97300137Y-35264741D01*
X97222723Y-35248840D01*
X97218870Y-35248287D01*
X97101425Y-35239299D01*
X96994602Y-35246394D01*
X96902610Y-35269188D01*
X96877639Y-35279437D01*
X96853199Y-35290367D01*
X96832494Y-35300355D01*
X96815217Y-35311479D01*
X96801058Y-35325814D01*
X96789707Y-35345437D01*
X96780857Y-35372423D01*
X96774197Y-35408849D01*
X96769418Y-35456790D01*
X96766211Y-35518324D01*
X96764267Y-35595525D01*
X96763277Y-35690471D01*
X96762932Y-35805237D01*
X96762922Y-35941899D01*
X96762950Y-36049600D01*
X96762967Y-36195175D01*
X96763080Y-36317618D01*
X96763378Y-36419199D01*
X96763953Y-36502185D01*
X96764894Y-36568845D01*
X96766293Y-36621448D01*
X96768239Y-36662263D01*
X96770823Y-36693557D01*
X96774135Y-36717599D01*
X96778267Y-36736658D01*
X96783308Y-36753003D01*
X96789348Y-36768901D01*
X96791883Y-36775193D01*
X96814006Y-36821500D01*
X96845261Y-36876660D01*
X96879239Y-36929436D01*
X96882394Y-36933943D01*
X96902658Y-36962239D01*
X96922750Y-36989044D01*
X96944046Y-37015645D01*
X96967926Y-37043332D01*
X96995769Y-37073395D01*
X97028953Y-37107123D01*
X97068857Y-37145805D01*
X97116860Y-37190730D01*
X97174340Y-37243188D01*
X97242677Y-37304467D01*
X97323248Y-37375858D01*
X97417432Y-37458650D01*
X97526609Y-37554131D01*
X97652156Y-37663591D01*
X97795453Y-37788319D01*
X97803644Y-37795445D01*
X97878331Y-37861800D01*
X97963803Y-37939992D01*
X98053190Y-38023595D01*
X98139625Y-38106184D01*
X98216238Y-38181333D01*
X98217702Y-38182795D01*
X98358431Y-38329061D01*
X98478201Y-38466502D01*
X98578640Y-38597908D01*
X98661376Y-38726070D01*
X98728040Y-38853779D01*
X98780259Y-38983826D01*
X98819663Y-39119001D01*
X98847880Y-39262096D01*
X98847974Y-39262700D01*
X98853300Y-39299645D01*
X98857748Y-39338106D01*
X98861397Y-39380679D01*
X98864322Y-39429960D01*
X98866600Y-39488544D01*
X98868308Y-39559028D01*
X98869521Y-39644005D01*
X98870316Y-39746073D01*
X98870770Y-39867827D01*
X98870958Y-40011863D01*
X98870971Y-40043750D01*
X98870825Y-40207900D01*
X98870179Y-40349079D01*
X98868869Y-40469711D01*
X98866732Y-40572223D01*
X98863605Y-40659041D01*
X98859325Y-40732589D01*
X98853728Y-40795295D01*
X98846651Y-40849583D01*
X98837931Y-40897880D01*
X98827404Y-40942611D01*
X98814908Y-40986202D01*
X98805578Y-41015300D01*
X98755704Y-41137959D01*
X98686016Y-41262596D01*
X98658183Y-41305117D01*
X98638122Y-41336500D01*
X98626605Y-41357988D01*
X98625450Y-41363537D01*
X98638735Y-41366239D01*
X98673613Y-41371889D01*
X98726519Y-41379950D01*
X98793889Y-41389885D01*
X98872155Y-41401156D01*
X98921950Y-41408209D01*
X99010159Y-41421103D01*
X99117244Y-41437525D01*
X99237084Y-41456492D01*
X99363558Y-41477017D01*
X99490545Y-41498117D01*
X99611925Y-41518806D01*
X99644204Y-41524414D01*
X99746049Y-41542105D01*
X99840300Y-41558312D01*
X99923944Y-41572529D01*
X99993970Y-41584251D01*
X100047364Y-41592973D01*
X100081115Y-41598189D01*
X100091879Y-41599500D01*
X100094261Y-41596482D01*
X100096425Y-41586689D01*
X100098379Y-41569015D01*
X100100135Y-41542350D01*
X100101701Y-41505588D01*
X100103088Y-41457620D01*
X100104306Y-41397339D01*
X100105365Y-41323637D01*
X100106275Y-41235407D01*
X100107045Y-41131540D01*
X100107686Y-41010929D01*
X100108209Y-40872466D01*
X100108622Y-40715043D01*
X100108935Y-40537553D01*
X100109160Y-40338888D01*
X100109305Y-40117939D01*
X100109382Y-39873601D01*
X100109400Y-39656717D01*
X100109399Y-37713935D01*
X100074475Y-37719555D01*
X100049623Y-37722980D01*
X100005079Y-37728571D01*
X99946392Y-37735651D01*
X99879110Y-37743544D01*
X99852429Y-37746617D01*
X99665308Y-37768059D01*
X99659019Y-37807354D01*
X99657203Y-37826488D01*
X99654033Y-37868785D01*
X99649650Y-37932054D01*
X99644195Y-38014103D01*
X99637809Y-38112739D01*
X99630633Y-38225769D01*
X99622809Y-38351003D01*
X99614477Y-38486248D01*
X99605780Y-38629311D01*
X99601289Y-38703900D01*
X99585713Y-38961873D01*
X99571423Y-39195156D01*
X99558372Y-39404423D01*
X99546512Y-39590350D01*
X99535796Y-39753610D01*
X99526176Y-39894880D01*
X99517604Y-40014833D01*
X99510033Y-40114144D01*
X99503416Y-40193489D01*
X99497706Y-40253541D01*
X99492854Y-40294975D01*
X99488813Y-40318467D01*
X99487345Y-40323150D01*
X99480420Y-40333514D01*
X99476646Y-40323182D01*
X99475136Y-40291400D01*
X99474043Y-40259102D01*
X99471669Y-40207288D01*
X99468306Y-40141791D01*
X99464250Y-40068446D01*
X99461701Y-40024700D01*
X99458495Y-39967270D01*
X99454224Y-39885005D01*
X99448912Y-39778448D01*
X99442586Y-39648140D01*
X99435270Y-39494623D01*
X99426990Y-39318439D01*
X99417771Y-39120129D01*
X99407638Y-38900237D01*
X99396618Y-38659302D01*
X99384735Y-38397869D01*
X99372015Y-38116477D01*
X99364683Y-37953667D01*
X99356358Y-37768584D01*
X98872454Y-37688106D01*
X98764623Y-37670007D01*
X98664660Y-37652911D01*
X98575339Y-37637315D01*
X98499432Y-37623718D01*
X98439710Y-37612618D01*
X98398948Y-37604512D01*
X98379917Y-37599900D01*
X98378955Y-37599434D01*
X98388098Y-37595489D01*
X98419883Y-37589091D01*
X98471709Y-37580595D01*
X98540975Y-37570353D01*
X98625077Y-37558720D01*
X98721415Y-37546049D01*
X98827386Y-37532693D01*
X98940388Y-37519005D01*
X99057821Y-37505340D01*
X99136395Y-37496516D01*
X99207313Y-37488393D01*
X99268998Y-37480801D01*
X99317202Y-37474305D01*
X99347680Y-37469471D01*
X99356404Y-37467228D01*
X99358232Y-37453830D01*
X99361348Y-37417522D01*
X99365589Y-37360756D01*
X99370787Y-37285981D01*
X99376779Y-37195647D01*
X99383397Y-37092204D01*
X99390477Y-36978101D01*
X99397853Y-36855788D01*
X99398892Y-36838283D01*
X99407341Y-36696259D01*
X99416313Y-36546574D01*
X99425499Y-36394279D01*
X99434593Y-36244428D01*
X99443287Y-36102074D01*
X99451275Y-35972268D01*
X99458250Y-35860063D01*
X99461458Y-35809025D01*
X99467758Y-35707915D01*
X99473497Y-35613153D01*
X99478477Y-35528197D01*
X99482503Y-35456505D01*
X99485377Y-35401536D01*
X99486903Y-35366747D01*
X99487100Y-35358074D01*
X99487100Y-35313000D01*
X99572069Y-35313000D01*
X99580366Y-35538425D01*
X99584288Y-35641501D01*
X99588996Y-35759365D01*
X99594358Y-35889147D01*
X99600244Y-36027980D01*
X99606523Y-36172996D01*
X99613063Y-36321325D01*
X99619735Y-36470101D01*
X99626407Y-36616454D01*
X99632950Y-36757516D01*
X99639231Y-36890420D01*
X99645120Y-37012296D01*
X99650487Y-37120278D01*
X99655200Y-37211496D01*
X99659129Y-37283082D01*
X99662144Y-37332168D01*
X99662153Y-37332300D01*
X99671250Y-37465650D01*
X99861750Y-37499245D01*
X99930426Y-37511119D01*
X99992051Y-37521334D01*
X100041437Y-37529063D01*
X100073399Y-37533479D01*
X100080825Y-37534170D01*
X100109400Y-37535500D01*
X100109400Y-35313000D01*
X99572069Y-35313000D01*
X99487100Y-35313000D01*
X99017200Y-35313000D01*
X99017200Y-34322400D01*
X102687500Y-34322400D01*
X102687500Y-35312724D01*
X101614350Y-35319350D01*
X101607952Y-41941408D01*
X101655601Y-41953879D01*
X101690431Y-41962859D01*
X101740526Y-41975608D01*
X101796507Y-41989743D01*
X101811200Y-41993433D01*
X102151891Y-42082528D01*
X102510247Y-42183077D01*
X102882022Y-42293683D01*
X103262970Y-42412948D01*
X103648847Y-42539478D01*
X104035406Y-42671874D01*
X104418403Y-42808741D01*
X104793593Y-42948681D01*
X105156730Y-43090297D01*
X105210211Y-43111724D01*
X105420554Y-43197577D01*
X105639766Y-43289433D01*
X105864547Y-43385790D01*
X106091595Y-43485148D01*
X106317612Y-43586007D01*
X106539296Y-43686868D01*
X106753346Y-43786229D01*
X106956463Y-43882591D01*
X107145346Y-43974453D01*
X107316694Y-44060316D01*
X107453294Y-44131279D01*
X107519659Y-44167237D01*
X107571403Y-44196788D01*
X107607021Y-44218905D01*
X107625012Y-44232561D01*
X107623873Y-44236729D01*
X107602101Y-44230382D01*
X107593600Y-44227165D01*
X107259475Y-44099747D01*
X106907445Y-43970115D01*
X106542345Y-43839884D01*
X106169010Y-43710669D01*
X105792276Y-43584085D01*
X105416976Y-43461746D01*
X105047946Y-43345268D01*
X104690021Y-43236264D01*
X104348035Y-43136351D01*
X104215951Y-43099059D01*
X103306390Y-42858197D01*
X102391365Y-42642089D01*
X101471292Y-42450780D01*
X100546583Y-42284314D01*
X99617652Y-42142734D01*
X98684913Y-42026084D01*
X97748780Y-41934408D01*
X96809666Y-41867749D01*
X95867984Y-41826153D01*
X94924149Y-41809661D01*
X93978574Y-41818319D01*
X93031672Y-41852171D01*
X92648150Y-41873043D01*
X91717166Y-41941226D01*
X90788084Y-42034228D01*
X89861974Y-42151865D01*
X88939905Y-42293956D01*
X88022945Y-42460316D01*
X87112165Y-42650763D01*
X86208632Y-42865114D01*
X85313417Y-43103184D01*
X85082035Y-43168980D01*
X84779846Y-43257962D01*
X84464767Y-43354288D01*
X84142108Y-43456203D01*
X83817178Y-43561952D01*
X83495286Y-43669777D01*
X83181741Y-43777924D01*
X82881854Y-43884636D01*
X82600932Y-43988157D01*
X82570700Y-43999545D01*
X82434566Y-44050682D01*
X82309132Y-44097280D01*
X82196102Y-44138735D01*
X82097183Y-44174440D01*
X82014079Y-44203791D01*
X81948495Y-44226183D01*
X81902136Y-44241011D01*
X81876707Y-44247670D01*
X81872200Y-44247426D01*
X81883343Y-44238384D01*
X81915324Y-44219660D01*
X81965966Y-44192319D01*
X82033092Y-44157428D01*
X82114527Y-44116054D01*
X82208095Y-44069265D01*
X82311619Y-44018126D01*
X82422924Y-43963704D01*
X82539833Y-43907066D01*
X82660170Y-43849280D01*
X82781759Y-43791410D01*
X82902424Y-43734526D01*
X83019990Y-43679692D01*
X83132279Y-43627976D01*
X83182520Y-43605092D01*
X83713055Y-43371179D01*
X84253417Y-43146109D01*
X84799984Y-42931162D01*
X85349134Y-42727619D01*
X85897247Y-42536760D01*
X86440700Y-42359866D01*
X86975872Y-42198217D01*
X87499142Y-42053092D01*
X87768175Y-41983873D01*
X87849655Y-41963157D01*
X87922237Y-41944050D01*
X87982507Y-41927505D01*
X88027052Y-41914474D01*
X88052457Y-41905911D01*
X88057100Y-41903257D01*
X88045990Y-41895503D01*
X88016423Y-41882196D01*
X87974046Y-41865800D01*
X87958675Y-41860294D01*
X87861071Y-41822224D01*
X87755121Y-41774557D01*
X87650096Y-41721836D01*
X87555269Y-41668608D01*
X87511000Y-41640880D01*
X87363165Y-41532701D01*
X87237997Y-41416601D01*
X87133238Y-41289555D01*
X87046630Y-41148540D01*
X86975917Y-40990532D01*
X86934981Y-40869250D01*
X86908334Y-40780350D01*
X86904698Y-37551374D01*
X86901062Y-34322399D01*
X87644181Y-34322399D01*
X88387300Y-34322400D01*
X88389285Y-35068525D01*
X88389499Y-35159917D01*
X88389719Y-35274935D01*
X88389945Y-35411808D01*
X88390173Y-35568760D01*
X88390403Y-35744019D01*
X88390632Y-35935812D01*
X88390859Y-36142364D01*
X88391082Y-36361904D01*
X88391299Y-36592657D01*
X88391509Y-36832850D01*
X88391709Y-37080710D01*
X88391898Y-37334464D01*
X88392075Y-37592338D01*
X88392237Y-37852559D01*
X88392383Y-38113354D01*
X88392460Y-38265750D01*
X88392633Y-38513614D01*
X88392905Y-38754803D01*
X88393271Y-38988077D01*
X88393724Y-39212199D01*
X88394258Y-39425931D01*
X88394869Y-39628036D01*
X88395550Y-39817276D01*
X88396295Y-39992412D01*
X88397099Y-40152207D01*
X88397955Y-40295423D01*
X88398858Y-40420822D01*
X88399803Y-40527167D01*
X88400783Y-40613219D01*
X88401793Y-40677742D01*
X88402826Y-40719496D01*
X88403878Y-40737244D01*
X88404012Y-40737716D01*
X88420368Y-40753354D01*
X88453051Y-40773926D01*
X88492912Y-40793995D01*
X88587410Y-40824935D01*
X88687628Y-40837197D01*
X88787569Y-40831199D01*
X88881234Y-40807359D01*
X88962625Y-40766096D01*
X88970294Y-40760713D01*
X89024619Y-40721360D01*
X89022178Y-38883955D01*
X89021878Y-38639239D01*
X89021609Y-38381963D01*
X89021373Y-38115351D01*
X89021170Y-37842627D01*
X89021003Y-37567016D01*
X89020871Y-37291743D01*
X89020777Y-37020031D01*
X89020721Y-36755105D01*
X89020704Y-36500191D01*
X89020728Y-36258512D01*
X89020795Y-36033292D01*
X89020904Y-35827756D01*
X89021018Y-35684475D01*
X89022300Y-34322400D01*
X90521406Y-34322400D01*
X90517345Y-37672025D01*
X90516941Y-38020265D01*
X90516590Y-38344045D01*
X90516269Y-38644304D01*
X90515957Y-38921982D01*
X90515632Y-39178018D01*
X90515271Y-39413353D01*
X90514853Y-39628924D01*
X90514355Y-39825673D01*
X90513756Y-40004539D01*
X90513034Y-40166461D01*
X90512167Y-40312378D01*
X90511133Y-40443231D01*
X90509909Y-40559959D01*
X90508474Y-40663501D01*
X90506806Y-40754798D01*
X90504882Y-40834787D01*
X90502682Y-40904411D01*
X90500182Y-40964607D01*
X90497361Y-41016315D01*
X90494198Y-41060475D01*
X90490669Y-41098026D01*
X90486753Y-41129909D01*
X90482428Y-41157062D01*
X90477672Y-41180426D01*
X90472463Y-41200939D01*
X90466779Y-41219541D01*
X90460598Y-41237172D01*
X90453899Y-41254772D01*
X90446658Y-41273279D01*
X90438854Y-41293635D01*
X90432194Y-41311874D01*
X90415568Y-41361282D01*
X90403871Y-41401190D01*
X90398657Y-41425986D01*
X90399110Y-41431143D01*
X90412928Y-41431141D01*
X90448736Y-41427839D01*
X90503394Y-41421618D01*
X90573760Y-41412861D01*
X90656693Y-41401949D01*
X90749051Y-41389265D01*
X90784102Y-41384324D01*
X90884352Y-41370297D01*
X90981022Y-41357145D01*
X91069964Y-41345402D01*
X91147033Y-41335606D01*
X91208082Y-41328291D01*
X91248966Y-41323994D01*
X91254325Y-41323546D01*
X91298962Y-41319126D01*
X91331653Y-41314035D01*
X91346105Y-41309287D01*
X91346316Y-41308741D01*
X91339756Y-41294129D01*
X91323727Y-41268123D01*
X91320244Y-41262950D01*
X91277639Y-41191869D01*
X91235932Y-41107352D01*
X91200470Y-41020969D01*
X91181273Y-40962226D01*
X91171640Y-40924058D01*
X91163270Y-40881843D01*
X91156081Y-40833657D01*
X91149989Y-40777580D01*
X91144911Y-40711688D01*
X91140765Y-40634058D01*
X91137467Y-40542767D01*
X91134934Y-40435894D01*
X91133084Y-40311516D01*
X91131833Y-40167709D01*
X91131099Y-40002551D01*
X91130798Y-39814121D01*
X91130788Y-39792925D01*
X91130500Y-39021400D01*
X92565600Y-39021400D01*
X92565600Y-39834607D01*
X92565690Y-40004759D01*
X92565985Y-40151246D01*
X92566521Y-40275803D01*
X92567331Y-40380163D01*
X92568451Y-40466062D01*
X92569917Y-40535234D01*
X92571763Y-40589413D01*
X92574024Y-40630334D01*
X92576737Y-40659731D01*
X92579935Y-40679339D01*
X92582923Y-40689275D01*
X92619964Y-40745629D01*
X92677859Y-40789124D01*
X92755196Y-40819129D01*
X92850565Y-40835010D01*
X92913146Y-40837500D01*
X93016305Y-40830466D01*
X93104378Y-40810009D01*
X93175181Y-40777092D01*
X93226524Y-40732681D01*
X93252812Y-40687735D01*
X93255044Y-40669422D01*
X93257117Y-40628289D01*
X93258986Y-40566917D01*
X93260609Y-40487886D01*
X93261943Y-40393778D01*
X93262945Y-40287171D01*
X93263570Y-40170647D01*
X93263776Y-40046786D01*
X93263772Y-40033398D01*
X93263670Y-39891201D01*
X93263462Y-39772027D01*
X93263052Y-39673497D01*
X93262344Y-39593233D01*
X93261240Y-39528859D01*
X93259644Y-39477996D01*
X93257460Y-39438266D01*
X93254592Y-39407291D01*
X93250943Y-39382694D01*
X93246416Y-39362097D01*
X93240915Y-39343123D01*
X93235051Y-39325465D01*
X93214633Y-39272027D01*
X93189404Y-39219046D01*
X93158039Y-39165117D01*
X93119212Y-39108839D01*
X93071598Y-39048807D01*
X93013871Y-38983617D01*
X92944706Y-38911868D01*
X92862776Y-38832155D01*
X92766756Y-38743075D01*
X92655321Y-38643224D01*
X92527145Y-38531200D01*
X92380902Y-38405598D01*
X92305674Y-38341582D01*
X92136614Y-38196248D01*
X91986965Y-38063502D01*
X91855153Y-37941616D01*
X91739608Y-37828863D01*
X91638755Y-37723518D01*
X91551023Y-37623852D01*
X91474840Y-37528140D01*
X91408633Y-37434653D01*
X91350830Y-37341666D01*
X91299859Y-37247452D01*
X91288411Y-37224350D01*
X91252926Y-37149855D01*
X91224184Y-37084238D01*
X91201355Y-37023359D01*
X91183610Y-36963083D01*
X91170121Y-36899271D01*
X91160059Y-36827786D01*
X91152594Y-36744489D01*
X91146899Y-36645245D01*
X91142143Y-36525914D01*
X91140848Y-36487750D01*
X91137877Y-36376667D01*
X91135601Y-36247595D01*
X91134076Y-36107935D01*
X91133359Y-35965088D01*
X91133506Y-35826457D01*
X91134574Y-35699444D01*
X91134734Y-35687650D01*
X91136968Y-35552723D01*
X91139866Y-35439865D01*
X91143933Y-35345742D01*
X91149676Y-35267023D01*
X91157602Y-35200376D01*
X91168218Y-35142470D01*
X91182031Y-35089972D01*
X91199546Y-35039551D01*
X91221271Y-34987874D01*
X91247712Y-34931611D01*
X91250613Y-34925650D01*
X91320464Y-34803666D01*
X91404690Y-34696350D01*
X91505250Y-34602165D01*
X91624101Y-34519575D01*
X91763197Y-34447042D01*
X91924497Y-34383030D01*
X91954459Y-34372820D01*
X92089430Y-34332739D01*
X92230809Y-34300849D01*
X92381814Y-34276796D01*
X92545661Y-34260224D01*
X92725566Y-34250781D01*
X92924746Y-34248110D01*
X93069861Y-34249918D01*
X93069861Y-34249918D01*
G37*
X93069861Y-34249918D02*
X93219238Y-34254198D01*
X93348197Y-34260541D01*
X93461675Y-34269496D01*
X93564609Y-34281610D01*
X93661934Y-34297430D01*
X93758588Y-34317503D01*
X93826073Y-34333767D01*
X94004338Y-34388100D01*
X94161329Y-34455876D01*
X94297583Y-34537518D01*
X94413634Y-34633452D01*
X94510019Y-34744101D01*
X94587274Y-34869890D01*
X94631861Y-34971419D01*
X94647393Y-35013898D01*
X94660778Y-35054099D01*
X94672176Y-35094224D01*
X94681744Y-35136476D01*
X94689643Y-35183054D01*
X94696031Y-35236161D01*
X94701067Y-35297997D01*
X94704911Y-35370765D01*
X94707722Y-35456665D01*
X94709658Y-35557900D01*
X94710879Y-35676669D01*
X94711544Y-35815176D01*
X94711812Y-35975621D01*
X94711848Y-36078175D01*
X94711900Y-36837000D01*
X93340300Y-36837000D01*
X93340300Y-36128490D01*
X93340299Y-35419981D01*
X93311725Y-35363315D01*
X93271936Y-35312127D01*
X93211739Y-35274129D01*
X93132691Y-35249759D01*
X93036349Y-35239451D01*
X92924271Y-35243644D01*
X92895822Y-35246780D01*
X92816394Y-35259974D01*
X92757349Y-35278632D01*
X92713865Y-35305068D01*
X92681121Y-35341594D01*
X92673550Y-35353397D01*
X92667837Y-35363702D01*
X92663052Y-35375497D01*
X92659111Y-35390986D01*
X92655933Y-35412372D01*
X92653436Y-35441857D01*
X92651539Y-35481644D01*
X92650158Y-35533936D01*
X92649213Y-35600936D01*
X92648622Y-35684846D01*
X92648302Y-35787870D01*
X92648172Y-35912211D01*
X92648150Y-36036900D01*
X92648186Y-36189291D01*
X92648456Y-36318619D01*
X92649199Y-36427217D01*
X92650654Y-36517423D01*
X92653059Y-36591571D01*
X92656655Y-36651997D01*
X92661681Y-36701037D01*
X92668376Y-36741027D01*
X92676980Y-36774302D01*
X92687730Y-36803197D01*
X92700868Y-36830049D01*
X92716632Y-36857193D01*
X92735239Y-36886929D01*
X92757739Y-36921249D01*
X92781924Y-36955081D01*
X92809267Y-36989845D01*
X92841242Y-37026959D01*
X92879321Y-37067845D01*
X92924979Y-37113922D01*
X92979687Y-37166609D01*
X93044920Y-37227328D01*
X93122151Y-37297496D01*
X93212853Y-37378534D01*
X93318498Y-37471863D01*
X93440561Y-37578901D01*
X93575250Y-37696479D01*
X93746895Y-37847852D01*
X93899200Y-37986087D01*
X94033564Y-38112711D01*
X94151385Y-38229250D01*
X94254061Y-38337232D01*
X94342991Y-38438184D01*
X94419573Y-38533633D01*
X94485206Y-38625107D01*
X94541289Y-38714131D01*
X94589219Y-38802233D01*
X94590856Y-38805500D01*
X94625427Y-38878424D01*
X94655337Y-38950705D01*
X94680866Y-39024659D01*
X94702296Y-39102600D01*
X94719907Y-39186842D01*
X94733978Y-39279702D01*
X94744791Y-39383493D01*
X94752626Y-39500531D01*
X94757763Y-39633130D01*
X94760484Y-39783606D01*
X94761067Y-39954273D01*
X94759795Y-40147445D01*
X94759268Y-40195462D01*
X94757253Y-40345539D01*
X94754849Y-40473028D01*
X94751831Y-40580744D01*
X94747976Y-40671500D01*
X94743058Y-40748108D01*
X94736853Y-40813381D01*
X94729138Y-40870132D01*
X94719687Y-40921175D01*
X94708278Y-40969322D01*
X94694684Y-41017385D01*
X94693393Y-41021650D01*
X94682405Y-41059378D01*
X94675343Y-41086724D01*
X94673937Y-41094675D01*
X94686044Y-41097227D01*
X94720222Y-41099520D01*
X94773143Y-41101460D01*
X94841478Y-41102950D01*
X94921900Y-41103895D01*
X95004855Y-41104200D01*
X95105112Y-41104104D01*
X95182752Y-41103690D01*
X95240556Y-41102767D01*
X95281309Y-41101144D01*
X95307791Y-41098630D01*
X95322786Y-41095034D01*
X95329077Y-41090166D01*
X95329444Y-41083834D01*
X95328929Y-41081975D01*
X95305048Y-40995744D01*
X95283101Y-40898118D01*
X95265797Y-40802050D01*
X95257855Y-40742250D01*
X95255703Y-40709237D01*
X95253666Y-40653387D01*
X95251778Y-40577262D01*
X95250075Y-40483426D01*
X95248590Y-40374441D01*
X95247358Y-40252869D01*
X95246414Y-40121274D01*
X95245791Y-39982217D01*
X95245525Y-39838263D01*
X95245520Y-39824675D01*
X95245300Y-39021400D01*
X96679867Y-39021400D01*
X96683308Y-39856425D01*
X96683925Y-40027190D01*
X96684430Y-40174411D01*
X96685066Y-40299940D01*
X96686080Y-40405630D01*
X96687715Y-40493335D01*
X96690216Y-40564907D01*
X96693827Y-40622199D01*
X96698795Y-40667065D01*
X96705362Y-40701356D01*
X96713774Y-40726926D01*
X96724276Y-40745629D01*
X96737112Y-40759316D01*
X96752527Y-40769841D01*
X96770766Y-40779056D01*
X96792072Y-40788816D01*
X96807400Y-40796187D01*
X96840169Y-40811547D01*
X96869606Y-40821624D01*
X96902487Y-40827515D01*
X96945589Y-40830317D01*
X97005688Y-40831129D01*
X97023300Y-40831150D01*
X97114316Y-40828517D01*
X97185420Y-40819634D01*
X97241645Y-40803021D01*
X97288028Y-40777201D01*
X97328935Y-40741381D01*
X97372550Y-40696377D01*
X97372550Y-39357950D01*
X97327034Y-39262700D01*
X97301322Y-39212737D01*
X97271552Y-39163018D01*
X97236263Y-39112045D01*
X97193991Y-39058324D01*
X97143273Y-39000357D01*
X97082646Y-38936648D01*
X97010647Y-38865702D01*
X96925813Y-38786022D01*
X96826681Y-38696112D01*
X96711788Y-38594476D01*
X96579672Y-38479618D01*
X96464221Y-38380314D01*
X96289288Y-38228659D01*
X96134153Y-38090442D01*
X95997745Y-37964620D01*
X95878993Y-37850152D01*
X95776828Y-37745993D01*
X95690179Y-37651102D01*
X95617975Y-37564436D01*
X95592400Y-37531174D01*
X95516521Y-37421769D01*
X95445619Y-37304135D01*
X95383673Y-37185585D01*
X95334659Y-37073434D01*
X95317359Y-37025430D01*
X95304181Y-36984359D01*
X95292886Y-36945138D01*
X95283331Y-36905498D01*
X95275372Y-36863168D01*
X95268868Y-36815878D01*
X95263676Y-36761356D01*
X95259653Y-36697334D01*
X95256656Y-36621539D01*
X95254544Y-36531703D01*
X95253173Y-36425554D01*
X95252401Y-36300823D01*
X95252086Y-36155238D01*
X95252084Y-35986529D01*
X95252084Y-35986100D01*
X95252518Y-35255850D01*
X95286193Y-35132357D01*
X95340450Y-34976598D01*
X95414036Y-34837089D01*
X95507385Y-34713299D01*
X95620929Y-34604701D01*
X95755104Y-34510764D01*
X95829500Y-34469419D01*
X95922713Y-34425242D01*
X96020262Y-34387065D01*
X96126312Y-34353729D01*
X96245026Y-34324075D01*
X96380567Y-34296944D01*
X96537099Y-34271177D01*
X96547050Y-34269679D01*
X96608858Y-34262976D01*
X96691543Y-34257802D01*
X96790630Y-34254128D01*
X96901643Y-34251931D01*
X97020105Y-34251183D01*
X97141542Y-34251858D01*
X97261478Y-34253931D01*
X97375438Y-34257375D01*
X97478946Y-34262164D01*
X97567525Y-34268273D01*
X97636702Y-34275675D01*
X97639250Y-34276033D01*
X97847636Y-34312870D01*
X98033829Y-34361160D01*
X98198514Y-34421321D01*
X98342377Y-34493772D01*
X98466104Y-34578935D01*
X98570380Y-34677227D01*
X98655890Y-34789069D01*
X98723321Y-34914880D01*
X98737149Y-34947849D01*
X98752815Y-34987473D01*
X98766325Y-35023470D01*
X98777852Y-35058003D01*
X98787568Y-35093236D01*
X98795643Y-35131335D01*
X98802250Y-35174463D01*
X98807560Y-35224785D01*
X98811745Y-35284465D01*
X98814977Y-35355667D01*
X98817427Y-35440555D01*
X98819267Y-35541293D01*
X98820669Y-35660047D01*
X98821805Y-35798980D01*
X98822845Y-35960256D01*
X98823286Y-36033724D01*
X98828087Y-36836999D01*
X98141593Y-36836999D01*
X97455100Y-36837000D01*
X97455100Y-36129809D01*
X97455075Y-35977786D01*
X97454951Y-35849043D01*
X97454657Y-35741458D01*
X97454117Y-35652913D01*
X97453259Y-35581285D01*
X97452009Y-35524455D01*
X97450295Y-35480302D01*
X97448043Y-35446706D01*
X97445180Y-35421546D01*
X97441633Y-35402701D01*
X97437328Y-35388052D01*
X97432193Y-35375478D01*
X97428798Y-35368288D01*
X97398698Y-35321906D01*
X97357303Y-35288243D01*
X97300137Y-35264741D01*
X97222723Y-35248840D01*
X97218870Y-35248287D01*
X97101425Y-35239299D01*
X96994602Y-35246394D01*
X96902610Y-35269188D01*
X96877639Y-35279437D01*
X96853199Y-35290367D01*
X96832494Y-35300355D01*
X96815217Y-35311479D01*
X96801058Y-35325814D01*
X96789707Y-35345437D01*
X96780857Y-35372423D01*
X96774197Y-35408849D01*
X96769418Y-35456790D01*
X96766211Y-35518324D01*
X96764267Y-35595525D01*
X96763277Y-35690471D01*
X96762932Y-35805237D01*
X96762922Y-35941899D01*
X96762950Y-36049600D01*
X96762967Y-36195175D01*
X96763080Y-36317618D01*
X96763378Y-36419199D01*
X96763953Y-36502185D01*
X96764894Y-36568845D01*
X96766293Y-36621448D01*
X96768239Y-36662263D01*
X96770823Y-36693557D01*
X96774135Y-36717599D01*
X96778267Y-36736658D01*
X96783308Y-36753003D01*
X96789348Y-36768901D01*
X96791883Y-36775193D01*
X96814006Y-36821500D01*
X96845261Y-36876660D01*
X96879239Y-36929436D01*
X96882394Y-36933943D01*
X96902658Y-36962239D01*
X96922750Y-36989044D01*
X96944046Y-37015645D01*
X96967926Y-37043332D01*
X96995769Y-37073395D01*
X97028953Y-37107123D01*
X97068857Y-37145805D01*
X97116860Y-37190730D01*
X97174340Y-37243188D01*
X97242677Y-37304467D01*
X97323248Y-37375858D01*
X97417432Y-37458650D01*
X97526609Y-37554131D01*
X97652156Y-37663591D01*
X97795453Y-37788319D01*
X97803644Y-37795445D01*
X97878331Y-37861800D01*
X97963803Y-37939992D01*
X98053190Y-38023595D01*
X98139625Y-38106184D01*
X98216238Y-38181333D01*
X98217702Y-38182795D01*
X98358431Y-38329061D01*
X98478201Y-38466502D01*
X98578640Y-38597908D01*
X98661376Y-38726070D01*
X98728040Y-38853779D01*
X98780259Y-38983826D01*
X98819663Y-39119001D01*
X98847880Y-39262096D01*
X98847974Y-39262700D01*
X98853300Y-39299645D01*
X98857748Y-39338106D01*
X98861397Y-39380679D01*
X98864322Y-39429960D01*
X98866600Y-39488544D01*
X98868308Y-39559028D01*
X98869521Y-39644005D01*
X98870316Y-39746073D01*
X98870770Y-39867827D01*
X98870958Y-40011863D01*
X98870971Y-40043750D01*
X98870825Y-40207900D01*
X98870179Y-40349079D01*
X98868869Y-40469711D01*
X98866732Y-40572223D01*
X98863605Y-40659041D01*
X98859325Y-40732589D01*
X98853728Y-40795295D01*
X98846651Y-40849583D01*
X98837931Y-40897880D01*
X98827404Y-40942611D01*
X98814908Y-40986202D01*
X98805578Y-41015300D01*
X98755704Y-41137959D01*
X98686016Y-41262596D01*
X98658183Y-41305117D01*
X98638122Y-41336500D01*
X98626605Y-41357988D01*
X98625450Y-41363537D01*
X98638735Y-41366239D01*
X98673613Y-41371889D01*
X98726519Y-41379950D01*
X98793889Y-41389885D01*
X98872155Y-41401156D01*
X98921950Y-41408209D01*
X99010159Y-41421103D01*
X99117244Y-41437525D01*
X99237084Y-41456492D01*
X99363558Y-41477017D01*
X99490545Y-41498117D01*
X99611925Y-41518806D01*
X99644204Y-41524414D01*
X99746049Y-41542105D01*
X99840300Y-41558312D01*
X99923944Y-41572529D01*
X99993970Y-41584251D01*
X100047364Y-41592973D01*
X100081115Y-41598189D01*
X100091879Y-41599500D01*
X100094261Y-41596482D01*
X100096425Y-41586689D01*
X100098379Y-41569015D01*
X100100135Y-41542350D01*
X100101701Y-41505588D01*
X100103088Y-41457620D01*
X100104306Y-41397339D01*
X100105365Y-41323637D01*
X100106275Y-41235407D01*
X100107045Y-41131540D01*
X100107686Y-41010929D01*
X100108209Y-40872466D01*
X100108622Y-40715043D01*
X100108935Y-40537553D01*
X100109160Y-40338888D01*
X100109305Y-40117939D01*
X100109382Y-39873601D01*
X100109400Y-39656717D01*
X100109399Y-37713935D01*
X100074475Y-37719555D01*
X100049623Y-37722980D01*
X100005079Y-37728571D01*
X99946392Y-37735651D01*
X99879110Y-37743544D01*
X99852429Y-37746617D01*
X99665308Y-37768059D01*
X99659019Y-37807354D01*
X99657203Y-37826488D01*
X99654033Y-37868785D01*
X99649650Y-37932054D01*
X99644195Y-38014103D01*
X99637809Y-38112739D01*
X99630633Y-38225769D01*
X99622809Y-38351003D01*
X99614477Y-38486248D01*
X99605780Y-38629311D01*
X99601289Y-38703900D01*
X99585713Y-38961873D01*
X99571423Y-39195156D01*
X99558372Y-39404423D01*
X99546512Y-39590350D01*
X99535796Y-39753610D01*
X99526176Y-39894880D01*
X99517604Y-40014833D01*
X99510033Y-40114144D01*
X99503416Y-40193489D01*
X99497706Y-40253541D01*
X99492854Y-40294975D01*
X99488813Y-40318467D01*
X99487345Y-40323150D01*
X99480420Y-40333514D01*
X99476646Y-40323182D01*
X99475136Y-40291400D01*
X99474043Y-40259102D01*
X99471669Y-40207288D01*
X99468306Y-40141791D01*
X99464250Y-40068446D01*
X99461701Y-40024700D01*
X99458495Y-39967270D01*
X99454224Y-39885005D01*
X99448912Y-39778448D01*
X99442586Y-39648140D01*
X99435270Y-39494623D01*
X99426990Y-39318439D01*
X99417771Y-39120129D01*
X99407638Y-38900237D01*
X99396618Y-38659302D01*
X99384735Y-38397869D01*
X99372015Y-38116477D01*
X99364683Y-37953667D01*
X99356358Y-37768584D01*
X98872454Y-37688106D01*
X98764623Y-37670007D01*
X98664660Y-37652911D01*
X98575339Y-37637315D01*
X98499432Y-37623718D01*
X98439710Y-37612618D01*
X98398948Y-37604512D01*
X98379917Y-37599900D01*
X98378955Y-37599434D01*
X98388098Y-37595489D01*
X98419883Y-37589091D01*
X98471709Y-37580595D01*
X98540975Y-37570353D01*
X98625077Y-37558720D01*
X98721415Y-37546049D01*
X98827386Y-37532693D01*
X98940388Y-37519005D01*
X99057821Y-37505340D01*
X99136395Y-37496516D01*
X99207313Y-37488393D01*
X99268998Y-37480801D01*
X99317202Y-37474305D01*
X99347680Y-37469471D01*
X99356404Y-37467228D01*
X99358232Y-37453830D01*
X99361348Y-37417522D01*
X99365589Y-37360756D01*
X99370787Y-37285981D01*
X99376779Y-37195647D01*
X99383397Y-37092204D01*
X99390477Y-36978101D01*
X99397853Y-36855788D01*
X99398892Y-36838283D01*
X99407341Y-36696259D01*
X99416313Y-36546574D01*
X99425499Y-36394279D01*
X99434593Y-36244428D01*
X99443287Y-36102074D01*
X99451275Y-35972268D01*
X99458250Y-35860063D01*
X99461458Y-35809025D01*
X99467758Y-35707915D01*
X99473497Y-35613153D01*
X99478477Y-35528197D01*
X99482503Y-35456505D01*
X99485377Y-35401536D01*
X99486903Y-35366747D01*
X99487100Y-35358074D01*
X99487100Y-35313000D01*
X99572069Y-35313000D01*
X99580366Y-35538425D01*
X99584288Y-35641501D01*
X99588996Y-35759365D01*
X99594358Y-35889147D01*
X99600244Y-36027980D01*
X99606523Y-36172996D01*
X99613063Y-36321325D01*
X99619735Y-36470101D01*
X99626407Y-36616454D01*
X99632950Y-36757516D01*
X99639231Y-36890420D01*
X99645120Y-37012296D01*
X99650487Y-37120278D01*
X99655200Y-37211496D01*
X99659129Y-37283082D01*
X99662144Y-37332168D01*
X99662153Y-37332300D01*
X99671250Y-37465650D01*
X99861750Y-37499245D01*
X99930426Y-37511119D01*
X99992051Y-37521334D01*
X100041437Y-37529063D01*
X100073399Y-37533479D01*
X100080825Y-37534170D01*
X100109400Y-37535500D01*
X100109400Y-35313000D01*
X99572069Y-35313000D01*
X99487100Y-35313000D01*
X99017200Y-35313000D01*
X99017200Y-34322400D01*
X102687500Y-34322400D01*
X102687500Y-35312724D01*
X101614350Y-35319350D01*
X101607952Y-41941408D01*
X101655601Y-41953879D01*
X101690431Y-41962859D01*
X101740526Y-41975608D01*
X101796507Y-41989743D01*
X101811200Y-41993433D01*
X102151891Y-42082528D01*
X102510247Y-42183077D01*
X102882022Y-42293683D01*
X103262970Y-42412948D01*
X103648847Y-42539478D01*
X104035406Y-42671874D01*
X104418403Y-42808741D01*
X104793593Y-42948681D01*
X105156730Y-43090297D01*
X105210211Y-43111724D01*
X105420554Y-43197577D01*
X105639766Y-43289433D01*
X105864547Y-43385790D01*
X106091595Y-43485148D01*
X106317612Y-43586007D01*
X106539296Y-43686868D01*
X106753346Y-43786229D01*
X106956463Y-43882591D01*
X107145346Y-43974453D01*
X107316694Y-44060316D01*
X107453294Y-44131279D01*
X107519659Y-44167237D01*
X107571403Y-44196788D01*
X107607021Y-44218905D01*
X107625012Y-44232561D01*
X107623873Y-44236729D01*
X107602101Y-44230382D01*
X107593600Y-44227165D01*
X107259475Y-44099747D01*
X106907445Y-43970115D01*
X106542345Y-43839884D01*
X106169010Y-43710669D01*
X105792276Y-43584085D01*
X105416976Y-43461746D01*
X105047946Y-43345268D01*
X104690021Y-43236264D01*
X104348035Y-43136351D01*
X104215951Y-43099059D01*
X103306390Y-42858197D01*
X102391365Y-42642089D01*
X101471292Y-42450780D01*
X100546583Y-42284314D01*
X99617652Y-42142734D01*
X98684913Y-42026084D01*
X97748780Y-41934408D01*
X96809666Y-41867749D01*
X95867984Y-41826153D01*
X94924149Y-41809661D01*
X93978574Y-41818319D01*
X93031672Y-41852171D01*
X92648150Y-41873043D01*
X91717166Y-41941226D01*
X90788084Y-42034228D01*
X89861974Y-42151865D01*
X88939905Y-42293956D01*
X88022945Y-42460316D01*
X87112165Y-42650763D01*
X86208632Y-42865114D01*
X85313417Y-43103184D01*
X85082035Y-43168980D01*
X84779846Y-43257962D01*
X84464767Y-43354288D01*
X84142108Y-43456203D01*
X83817178Y-43561952D01*
X83495286Y-43669777D01*
X83181741Y-43777924D01*
X82881854Y-43884636D01*
X82600932Y-43988157D01*
X82570700Y-43999545D01*
X82434566Y-44050682D01*
X82309132Y-44097280D01*
X82196102Y-44138735D01*
X82097183Y-44174440D01*
X82014079Y-44203791D01*
X81948495Y-44226183D01*
X81902136Y-44241011D01*
X81876707Y-44247670D01*
X81872200Y-44247426D01*
X81883343Y-44238384D01*
X81915324Y-44219660D01*
X81965966Y-44192319D01*
X82033092Y-44157428D01*
X82114527Y-44116054D01*
X82208095Y-44069265D01*
X82311619Y-44018126D01*
X82422924Y-43963704D01*
X82539833Y-43907066D01*
X82660170Y-43849280D01*
X82781759Y-43791410D01*
X82902424Y-43734526D01*
X83019990Y-43679692D01*
X83132279Y-43627976D01*
X83182520Y-43605092D01*
X83713055Y-43371179D01*
X84253417Y-43146109D01*
X84799984Y-42931162D01*
X85349134Y-42727619D01*
X85897247Y-42536760D01*
X86440700Y-42359866D01*
X86975872Y-42198217D01*
X87499142Y-42053092D01*
X87768175Y-41983873D01*
X87849655Y-41963157D01*
X87922237Y-41944050D01*
X87982507Y-41927505D01*
X88027052Y-41914474D01*
X88052457Y-41905911D01*
X88057100Y-41903257D01*
X88045990Y-41895503D01*
X88016423Y-41882196D01*
X87974046Y-41865800D01*
X87958675Y-41860294D01*
X87861071Y-41822224D01*
X87755121Y-41774557D01*
X87650096Y-41721836D01*
X87555269Y-41668608D01*
X87511000Y-41640880D01*
X87363165Y-41532701D01*
X87237997Y-41416601D01*
X87133238Y-41289555D01*
X87046630Y-41148540D01*
X86975917Y-40990532D01*
X86934981Y-40869250D01*
X86908334Y-40780350D01*
X86904698Y-37551374D01*
X86901062Y-34322399D01*
X87644181Y-34322399D01*
X88387300Y-34322400D01*
X88389285Y-35068525D01*
X88389499Y-35159917D01*
X88389719Y-35274935D01*
X88389945Y-35411808D01*
X88390173Y-35568760D01*
X88390403Y-35744019D01*
X88390632Y-35935812D01*
X88390859Y-36142364D01*
X88391082Y-36361904D01*
X88391299Y-36592657D01*
X88391509Y-36832850D01*
X88391709Y-37080710D01*
X88391898Y-37334464D01*
X88392075Y-37592338D01*
X88392237Y-37852559D01*
X88392383Y-38113354D01*
X88392460Y-38265750D01*
X88392633Y-38513614D01*
X88392905Y-38754803D01*
X88393271Y-38988077D01*
X88393724Y-39212199D01*
X88394258Y-39425931D01*
X88394869Y-39628036D01*
X88395550Y-39817276D01*
X88396295Y-39992412D01*
X88397099Y-40152207D01*
X88397955Y-40295423D01*
X88398858Y-40420822D01*
X88399803Y-40527167D01*
X88400783Y-40613219D01*
X88401793Y-40677742D01*
X88402826Y-40719496D01*
X88403878Y-40737244D01*
X88404012Y-40737716D01*
X88420368Y-40753354D01*
X88453051Y-40773926D01*
X88492912Y-40793995D01*
X88587410Y-40824935D01*
X88687628Y-40837197D01*
X88787569Y-40831199D01*
X88881234Y-40807359D01*
X88962625Y-40766096D01*
X88970294Y-40760713D01*
X89024619Y-40721360D01*
X89022178Y-38883955D01*
X89021878Y-38639239D01*
X89021609Y-38381963D01*
X89021373Y-38115351D01*
X89021170Y-37842627D01*
X89021003Y-37567016D01*
X89020871Y-37291743D01*
X89020777Y-37020031D01*
X89020721Y-36755105D01*
X89020704Y-36500191D01*
X89020728Y-36258512D01*
X89020795Y-36033292D01*
X89020904Y-35827756D01*
X89021018Y-35684475D01*
X89022300Y-34322400D01*
X90521406Y-34322400D01*
X90517345Y-37672025D01*
X90516941Y-38020265D01*
X90516590Y-38344045D01*
X90516269Y-38644304D01*
X90515957Y-38921982D01*
X90515632Y-39178018D01*
X90515271Y-39413353D01*
X90514853Y-39628924D01*
X90514355Y-39825673D01*
X90513756Y-40004539D01*
X90513034Y-40166461D01*
X90512167Y-40312378D01*
X90511133Y-40443231D01*
X90509909Y-40559959D01*
X90508474Y-40663501D01*
X90506806Y-40754798D01*
X90504882Y-40834787D01*
X90502682Y-40904411D01*
X90500182Y-40964607D01*
X90497361Y-41016315D01*
X90494198Y-41060475D01*
X90490669Y-41098026D01*
X90486753Y-41129909D01*
X90482428Y-41157062D01*
X90477672Y-41180426D01*
X90472463Y-41200939D01*
X90466779Y-41219541D01*
X90460598Y-41237172D01*
X90453899Y-41254772D01*
X90446658Y-41273279D01*
X90438854Y-41293635D01*
X90432194Y-41311874D01*
X90415568Y-41361282D01*
X90403871Y-41401190D01*
X90398657Y-41425986D01*
X90399110Y-41431143D01*
X90412928Y-41431141D01*
X90448736Y-41427839D01*
X90503394Y-41421618D01*
X90573760Y-41412861D01*
X90656693Y-41401949D01*
X90749051Y-41389265D01*
X90784102Y-41384324D01*
X90884352Y-41370297D01*
X90981022Y-41357145D01*
X91069964Y-41345402D01*
X91147033Y-41335606D01*
X91208082Y-41328291D01*
X91248966Y-41323994D01*
X91254325Y-41323546D01*
X91298962Y-41319126D01*
X91331653Y-41314035D01*
X91346105Y-41309287D01*
X91346316Y-41308741D01*
X91339756Y-41294129D01*
X91323727Y-41268123D01*
X91320244Y-41262950D01*
X91277639Y-41191869D01*
X91235932Y-41107352D01*
X91200470Y-41020969D01*
X91181273Y-40962226D01*
X91171640Y-40924058D01*
X91163270Y-40881843D01*
X91156081Y-40833657D01*
X91149989Y-40777580D01*
X91144911Y-40711688D01*
X91140765Y-40634058D01*
X91137467Y-40542767D01*
X91134934Y-40435894D01*
X91133084Y-40311516D01*
X91131833Y-40167709D01*
X91131099Y-40002551D01*
X91130798Y-39814121D01*
X91130788Y-39792925D01*
X91130500Y-39021400D01*
X92565600Y-39021400D01*
X92565600Y-39834607D01*
X92565690Y-40004759D01*
X92565985Y-40151246D01*
X92566521Y-40275803D01*
X92567331Y-40380163D01*
X92568451Y-40466062D01*
X92569917Y-40535234D01*
X92571763Y-40589413D01*
X92574024Y-40630334D01*
X92576737Y-40659731D01*
X92579935Y-40679339D01*
X92582923Y-40689275D01*
X92619964Y-40745629D01*
X92677859Y-40789124D01*
X92755196Y-40819129D01*
X92850565Y-40835010D01*
X92913146Y-40837500D01*
X93016305Y-40830466D01*
X93104378Y-40810009D01*
X93175181Y-40777092D01*
X93226524Y-40732681D01*
X93252812Y-40687735D01*
X93255044Y-40669422D01*
X93257117Y-40628289D01*
X93258986Y-40566917D01*
X93260609Y-40487886D01*
X93261943Y-40393778D01*
X93262945Y-40287171D01*
X93263570Y-40170647D01*
X93263776Y-40046786D01*
X93263772Y-40033398D01*
X93263670Y-39891201D01*
X93263462Y-39772027D01*
X93263052Y-39673497D01*
X93262344Y-39593233D01*
X93261240Y-39528859D01*
X93259644Y-39477996D01*
X93257460Y-39438266D01*
X93254592Y-39407291D01*
X93250943Y-39382694D01*
X93246416Y-39362097D01*
X93240915Y-39343123D01*
X93235051Y-39325465D01*
X93214633Y-39272027D01*
X93189404Y-39219046D01*
X93158039Y-39165117D01*
X93119212Y-39108839D01*
X93071598Y-39048807D01*
X93013871Y-38983617D01*
X92944706Y-38911868D01*
X92862776Y-38832155D01*
X92766756Y-38743075D01*
X92655321Y-38643224D01*
X92527145Y-38531200D01*
X92380902Y-38405598D01*
X92305674Y-38341582D01*
X92136614Y-38196248D01*
X91986965Y-38063502D01*
X91855153Y-37941616D01*
X91739608Y-37828863D01*
X91638755Y-37723518D01*
X91551023Y-37623852D01*
X91474840Y-37528140D01*
X91408633Y-37434653D01*
X91350830Y-37341666D01*
X91299859Y-37247452D01*
X91288411Y-37224350D01*
X91252926Y-37149855D01*
X91224184Y-37084238D01*
X91201355Y-37023359D01*
X91183610Y-36963083D01*
X91170121Y-36899271D01*
X91160059Y-36827786D01*
X91152594Y-36744489D01*
X91146899Y-36645245D01*
X91142143Y-36525914D01*
X91140848Y-36487750D01*
X91137877Y-36376667D01*
X91135601Y-36247595D01*
X91134076Y-36107935D01*
X91133359Y-35965088D01*
X91133506Y-35826457D01*
X91134574Y-35699444D01*
X91134734Y-35687650D01*
X91136968Y-35552723D01*
X91139866Y-35439865D01*
X91143933Y-35345742D01*
X91149676Y-35267023D01*
X91157602Y-35200376D01*
X91168218Y-35142470D01*
X91182031Y-35089972D01*
X91199546Y-35039551D01*
X91221271Y-34987874D01*
X91247712Y-34931611D01*
X91250613Y-34925650D01*
X91320464Y-34803666D01*
X91404690Y-34696350D01*
X91505250Y-34602165D01*
X91624101Y-34519575D01*
X91763197Y-34447042D01*
X91924497Y-34383030D01*
X91954459Y-34372820D01*
X92089430Y-34332739D01*
X92230809Y-34300849D01*
X92381814Y-34276796D01*
X92545661Y-34260224D01*
X92725566Y-34250781D01*
X92924746Y-34248110D01*
X93069861Y-34249918D01*
G36*
X105427260Y-141604019D02*
X105468724Y-141538358D01*
X105544857Y-141481688D01*
X105653129Y-141437873D01*
X105662413Y-141435230D01*
X105776703Y-141403336D01*
X105856881Y-141379511D01*
X105909611Y-141360460D01*
X105941560Y-141342888D01*
X105959396Y-141323500D01*
X105969783Y-141299001D01*
X105975163Y-141280654D01*
X105982815Y-141247327D01*
X105980494Y-141219276D01*
X105963273Y-141188463D01*
X105926224Y-141146847D01*
X105864419Y-141086393D01*
X105844314Y-141067195D01*
X105744922Y-140964549D01*
X105681256Y-140878582D01*
X105651962Y-140805545D01*
X105655686Y-140741691D01*
X105691074Y-140683272D01*
X105701621Y-140672121D01*
X105746762Y-140639226D01*
X105804364Y-140622907D01*
X105881346Y-140623068D01*
X105984628Y-140639611D01*
X106098496Y-140666541D01*
X106282743Y-140714020D01*
X106334224Y-140665656D01*
X106385706Y-140617291D01*
X106335186Y-140433669D01*
X106311964Y-140340197D01*
X106294372Y-140252128D01*
X106285299Y-140184559D01*
X106284667Y-140169561D01*
X106302411Y-140085290D01*
X106349751Y-140023842D01*
X106417850Y-139990673D01*
X106497870Y-139991234D01*
X106545350Y-140008698D01*
X106580207Y-140033415D01*
X106635569Y-140080316D01*
X106702241Y-140141413D01*
X106739813Y-140177600D01*
X106809275Y-140244480D01*
X106857300Y-140285856D01*
X106891924Y-140306608D01*
X106921182Y-140311620D01*
X106951480Y-140306209D01*
X106982374Y-140293326D01*
X107008288Y-140268669D01*
X107032141Y-140225991D01*
X107056858Y-140159046D01*
X107085361Y-140061586D01*
X107110660Y-139965947D01*
X107145934Y-139880290D01*
X107199223Y-139809970D01*
X107261616Y-139764477D01*
X107311250Y-139752333D01*
X107378051Y-139772456D01*
X107440311Y-139828668D01*
X107492654Y-139914732D01*
X107522954Y-139997912D01*
X107555299Y-140112344D01*
X107579929Y-140192554D01*
X107600079Y-140245213D01*
X107618979Y-140276992D01*
X107639861Y-140294563D01*
X107665957Y-140304598D01*
X107672374Y-140306365D01*
X107704658Y-140311713D01*
X107734882Y-140305077D01*
X107771567Y-140281445D01*
X107823228Y-140235803D01*
X107872078Y-140188839D01*
X107974826Y-140093088D01*
X108056899Y-140028346D01*
X108123898Y-139992429D01*
X108181425Y-139983155D01*
X108235079Y-139998341D01*
X108282062Y-140029036D01*
X108317469Y-140069904D01*
X108335475Y-140126941D01*
X108336212Y-140205980D01*
X108319812Y-140312857D01*
X108291238Y-140434847D01*
X108243536Y-140619943D01*
X108290796Y-140667204D01*
X108338057Y-140714464D01*
X108523153Y-140666762D01*
X108659419Y-140635360D01*
X108762701Y-140620979D01*
X108838835Y-140623751D01*
X108893656Y-140643807D01*
X108928964Y-140675938D01*
X108963241Y-140730525D01*
X108975064Y-140784192D01*
X108962251Y-140842570D01*
X108922619Y-140911290D01*
X108853989Y-140995985D01*
X108770166Y-141085833D01*
X108705887Y-141154299D01*
X108667360Y-141202248D01*
X108649430Y-141238089D01*
X108646938Y-141270228D01*
X108648993Y-141283353D01*
X108658209Y-141315035D01*
X108676016Y-141339554D01*
X108709438Y-141360538D01*
X108765503Y-141381613D01*
X108851236Y-141406407D01*
X108925299Y-141426001D01*
X109022536Y-141454343D01*
X109088542Y-141482106D01*
X109134035Y-141514392D01*
X109152840Y-141534300D01*
X109196830Y-141608817D01*
X109198855Y-141679565D01*
X109158841Y-141748898D01*
X109145512Y-141763078D01*
X109085374Y-141807132D01*
X109010902Y-141841655D01*
X108992053Y-141847340D01*
X108867937Y-141880535D01*
X108778968Y-141907779D01*
X108718897Y-141931993D01*
X108681478Y-141956099D01*
X108660465Y-141983020D01*
X108651791Y-142006520D01*
X108646335Y-142038151D01*
X108651960Y-142067479D01*
X108673548Y-142102540D01*
X108715981Y-142151369D01*
X108780400Y-142218187D01*
X108845853Y-142287147D01*
X108901433Y-142349774D01*
X108939153Y-142396875D01*
X108949302Y-142412650D01*
X108971494Y-142495508D01*
X108956851Y-142571474D01*
X108910827Y-142631711D01*
X108838875Y-142667381D01*
X108788439Y-142673333D01*
X108730759Y-142667643D01*
X108647683Y-142652497D01*
X108554308Y-142630784D01*
X108524331Y-142622814D01*
X108340709Y-142572294D01*
X108292344Y-142623776D01*
X108243980Y-142675257D01*
X108291459Y-142859504D01*
X108321876Y-142990635D01*
X108335994Y-143089576D01*
X108333715Y-143163244D01*
X108314941Y-143218559D01*
X108285879Y-143256379D01*
X108228086Y-143297823D01*
X108165594Y-143307869D01*
X108094656Y-143285162D01*
X108011522Y-143228349D01*
X107912446Y-143136077D01*
X107890805Y-143113686D01*
X107824322Y-143044851D01*
X107778709Y-143002017D01*
X107745927Y-142980254D01*
X107717937Y-142974635D01*
X107686701Y-142980234D01*
X107677346Y-142982837D01*
X107648245Y-142991956D01*
X107626214Y-143004557D01*
X107607959Y-143027308D01*
X107590185Y-143066874D01*
X107569597Y-143129922D01*
X107542899Y-143223118D01*
X107522770Y-143295587D01*
X107480067Y-143406153D01*
X107424222Y-143484768D01*
X107359097Y-143528902D01*
X107288557Y-143536028D01*
X107252123Y-143519650D01*
X107252123Y-142204895D01*
X107349053Y-142204506D01*
X107443552Y-142196442D01*
X107513856Y-142180309D01*
X107577991Y-142151137D01*
X107608990Y-142132834D01*
X107721732Y-142040405D01*
X107808452Y-141922825D01*
X107864476Y-141789304D01*
X107885131Y-141649052D01*
X107882518Y-141593833D01*
X107866654Y-141520260D01*
X107836875Y-141434195D01*
X107813849Y-141383076D01*
X107731283Y-141263021D01*
X107622439Y-141169102D01*
X107495224Y-141105311D01*
X107357546Y-141075637D01*
X107220313Y-141083461D01*
X107064135Y-141133188D01*
X106937391Y-141212498D01*
X106841904Y-141319187D01*
X106779500Y-141451048D01*
X106752001Y-141605874D01*
X106750798Y-141651362D01*
X106764408Y-141793817D01*
X106807340Y-141913129D01*
X106884281Y-142020583D01*
X106919089Y-142056486D01*
X107019400Y-142136705D01*
X107126750Y-142184915D01*
X107252123Y-142204895D01*
X107252123Y-143519650D01*
X107216463Y-143503618D01*
X107211136Y-143499551D01*
X107179722Y-143470475D01*
X107153809Y-143433508D01*
X107129955Y-143380708D01*
X107104714Y-143304132D01*
X107074642Y-143195837D01*
X107067245Y-143167765D01*
X107044127Y-143083253D01*
X107025544Y-143031070D01*
X107006222Y-143002361D01*
X106980887Y-142988275D01*
X106956793Y-142982383D01*
X106924033Y-142979019D01*
X106892975Y-142986740D01*
X106855612Y-143010502D01*
X106803936Y-143055259D01*
X106739062Y-143117111D01*
X106633063Y-143213084D01*
X106546054Y-143275226D01*
X106473701Y-143305037D01*
X106411671Y-143304017D01*
X106355632Y-143273664D01*
X106336621Y-143256379D01*
X106303458Y-143210530D01*
X106287532Y-143152017D01*
X106288816Y-143074010D01*
X106307282Y-142969678D01*
X106334976Y-142860596D01*
X106385285Y-142677739D01*
X106280261Y-142572715D01*
X106097404Y-142623024D01*
X106004071Y-142646198D01*
X105916113Y-142663731D01*
X105848690Y-142672729D01*
X105834062Y-142673333D01*
X105750252Y-142655791D01*
X105689186Y-142609251D01*
X105655816Y-142542841D01*
X105655095Y-142465688D01*
X105684445Y-142397585D01*
X105714855Y-142358847D01*
X105766048Y-142300549D01*
X105828836Y-142233024D01*
X105854130Y-142206781D01*
X105918337Y-142139273D01*
X105957146Y-142092366D01*
X105975722Y-142057367D01*
X105979233Y-142025586D01*
X105975796Y-142002102D01*
X105966692Y-141969040D01*
X105949393Y-141945894D01*
X105915037Y-141927347D01*
X105854763Y-141908083D01*
X105790235Y-141890755D01*
X105674116Y-141859201D01*
X105591417Y-141833215D01*
X105534195Y-141809354D01*
X105494506Y-141784172D01*
X105464409Y-141754225D01*
X105458449Y-141746864D01*
X105422992Y-141674809D01*
X105427260Y-141604019D01*
X105427260Y-141604019D01*
G37*
X105427260Y-141604019D02*
X105468724Y-141538358D01*
X105544857Y-141481688D01*
X105653129Y-141437873D01*
X105662413Y-141435230D01*
X105776703Y-141403336D01*
X105856881Y-141379511D01*
X105909611Y-141360460D01*
X105941560Y-141342888D01*
X105959396Y-141323500D01*
X105969783Y-141299001D01*
X105975163Y-141280654D01*
X105982815Y-141247327D01*
X105980494Y-141219276D01*
X105963273Y-141188463D01*
X105926224Y-141146847D01*
X105864419Y-141086393D01*
X105844314Y-141067195D01*
X105744922Y-140964549D01*
X105681256Y-140878582D01*
X105651962Y-140805545D01*
X105655686Y-140741691D01*
X105691074Y-140683272D01*
X105701621Y-140672121D01*
X105746762Y-140639226D01*
X105804364Y-140622907D01*
X105881346Y-140623068D01*
X105984628Y-140639611D01*
X106098496Y-140666541D01*
X106282743Y-140714020D01*
X106334224Y-140665656D01*
X106385706Y-140617291D01*
X106335186Y-140433669D01*
X106311964Y-140340197D01*
X106294372Y-140252128D01*
X106285299Y-140184559D01*
X106284667Y-140169561D01*
X106302411Y-140085290D01*
X106349751Y-140023842D01*
X106417850Y-139990673D01*
X106497870Y-139991234D01*
X106545350Y-140008698D01*
X106580207Y-140033415D01*
X106635569Y-140080316D01*
X106702241Y-140141413D01*
X106739813Y-140177600D01*
X106809275Y-140244480D01*
X106857300Y-140285856D01*
X106891924Y-140306608D01*
X106921182Y-140311620D01*
X106951480Y-140306209D01*
X106982374Y-140293326D01*
X107008288Y-140268669D01*
X107032141Y-140225991D01*
X107056858Y-140159046D01*
X107085361Y-140061586D01*
X107110660Y-139965947D01*
X107145934Y-139880290D01*
X107199223Y-139809970D01*
X107261616Y-139764477D01*
X107311250Y-139752333D01*
X107378051Y-139772456D01*
X107440311Y-139828668D01*
X107492654Y-139914732D01*
X107522954Y-139997912D01*
X107555299Y-140112344D01*
X107579929Y-140192554D01*
X107600079Y-140245213D01*
X107618979Y-140276992D01*
X107639861Y-140294563D01*
X107665957Y-140304598D01*
X107672374Y-140306365D01*
X107704658Y-140311713D01*
X107734882Y-140305077D01*
X107771567Y-140281445D01*
X107823228Y-140235803D01*
X107872078Y-140188839D01*
X107974826Y-140093088D01*
X108056899Y-140028346D01*
X108123898Y-139992429D01*
X108181425Y-139983155D01*
X108235079Y-139998341D01*
X108282062Y-140029036D01*
X108317469Y-140069904D01*
X108335475Y-140126941D01*
X108336212Y-140205980D01*
X108319812Y-140312857D01*
X108291238Y-140434847D01*
X108243536Y-140619943D01*
X108290796Y-140667204D01*
X108338057Y-140714464D01*
X108523153Y-140666762D01*
X108659419Y-140635360D01*
X108762701Y-140620979D01*
X108838835Y-140623751D01*
X108893656Y-140643807D01*
X108928964Y-140675938D01*
X108963241Y-140730525D01*
X108975064Y-140784192D01*
X108962251Y-140842570D01*
X108922619Y-140911290D01*
X108853989Y-140995985D01*
X108770166Y-141085833D01*
X108705887Y-141154299D01*
X108667360Y-141202248D01*
X108649430Y-141238089D01*
X108646938Y-141270228D01*
X108648993Y-141283353D01*
X108658209Y-141315035D01*
X108676016Y-141339554D01*
X108709438Y-141360538D01*
X108765503Y-141381613D01*
X108851236Y-141406407D01*
X108925299Y-141426001D01*
X109022536Y-141454343D01*
X109088542Y-141482106D01*
X109134035Y-141514392D01*
X109152840Y-141534300D01*
X109196830Y-141608817D01*
X109198855Y-141679565D01*
X109158841Y-141748898D01*
X109145512Y-141763078D01*
X109085374Y-141807132D01*
X109010902Y-141841655D01*
X108992053Y-141847340D01*
X108867937Y-141880535D01*
X108778968Y-141907779D01*
X108718897Y-141931993D01*
X108681478Y-141956099D01*
X108660465Y-141983020D01*
X108651791Y-142006520D01*
X108646335Y-142038151D01*
X108651960Y-142067479D01*
X108673548Y-142102540D01*
X108715981Y-142151369D01*
X108780400Y-142218187D01*
X108845853Y-142287147D01*
X108901433Y-142349774D01*
X108939153Y-142396875D01*
X108949302Y-142412650D01*
X108971494Y-142495508D01*
X108956851Y-142571474D01*
X108910827Y-142631711D01*
X108838875Y-142667381D01*
X108788439Y-142673333D01*
X108730759Y-142667643D01*
X108647683Y-142652497D01*
X108554308Y-142630784D01*
X108524331Y-142622814D01*
X108340709Y-142572294D01*
X108292344Y-142623776D01*
X108243980Y-142675257D01*
X108291459Y-142859504D01*
X108321876Y-142990635D01*
X108335994Y-143089576D01*
X108333715Y-143163244D01*
X108314941Y-143218559D01*
X108285879Y-143256379D01*
X108228086Y-143297823D01*
X108165594Y-143307869D01*
X108094656Y-143285162D01*
X108011522Y-143228349D01*
X107912446Y-143136077D01*
X107890805Y-143113686D01*
X107824322Y-143044851D01*
X107778709Y-143002017D01*
X107745927Y-142980254D01*
X107717937Y-142974635D01*
X107686701Y-142980234D01*
X107677346Y-142982837D01*
X107648245Y-142991956D01*
X107626214Y-143004557D01*
X107607959Y-143027308D01*
X107590185Y-143066874D01*
X107569597Y-143129922D01*
X107542899Y-143223118D01*
X107522770Y-143295587D01*
X107480067Y-143406153D01*
X107424222Y-143484768D01*
X107359097Y-143528902D01*
X107288557Y-143536028D01*
X107252123Y-143519650D01*
X107252123Y-142204895D01*
X107349053Y-142204506D01*
X107443552Y-142196442D01*
X107513856Y-142180309D01*
X107577991Y-142151137D01*
X107608990Y-142132834D01*
X107721732Y-142040405D01*
X107808452Y-141922825D01*
X107864476Y-141789304D01*
X107885131Y-141649052D01*
X107882518Y-141593833D01*
X107866654Y-141520260D01*
X107836875Y-141434195D01*
X107813849Y-141383076D01*
X107731283Y-141263021D01*
X107622439Y-141169102D01*
X107495224Y-141105311D01*
X107357546Y-141075637D01*
X107220313Y-141083461D01*
X107064135Y-141133188D01*
X106937391Y-141212498D01*
X106841904Y-141319187D01*
X106779500Y-141451048D01*
X106752001Y-141605874D01*
X106750798Y-141651362D01*
X106764408Y-141793817D01*
X106807340Y-141913129D01*
X106884281Y-142020583D01*
X106919089Y-142056486D01*
X107019400Y-142136705D01*
X107126750Y-142184915D01*
X107252123Y-142204895D01*
X107252123Y-143519650D01*
X107216463Y-143503618D01*
X107211136Y-143499551D01*
X107179722Y-143470475D01*
X107153809Y-143433508D01*
X107129955Y-143380708D01*
X107104714Y-143304132D01*
X107074642Y-143195837D01*
X107067245Y-143167765D01*
X107044127Y-143083253D01*
X107025544Y-143031070D01*
X107006222Y-143002361D01*
X106980887Y-142988275D01*
X106956793Y-142982383D01*
X106924033Y-142979019D01*
X106892975Y-142986740D01*
X106855612Y-143010502D01*
X106803936Y-143055259D01*
X106739062Y-143117111D01*
X106633063Y-143213084D01*
X106546054Y-143275226D01*
X106473701Y-143305037D01*
X106411671Y-143304017D01*
X106355632Y-143273664D01*
X106336621Y-143256379D01*
X106303458Y-143210530D01*
X106287532Y-143152017D01*
X106288816Y-143074010D01*
X106307282Y-142969678D01*
X106334976Y-142860596D01*
X106385285Y-142677739D01*
X106280261Y-142572715D01*
X106097404Y-142623024D01*
X106004071Y-142646198D01*
X105916113Y-142663731D01*
X105848690Y-142672729D01*
X105834062Y-142673333D01*
X105750252Y-142655791D01*
X105689186Y-142609251D01*
X105655816Y-142542841D01*
X105655095Y-142465688D01*
X105684445Y-142397585D01*
X105714855Y-142358847D01*
X105766048Y-142300549D01*
X105828836Y-142233024D01*
X105854130Y-142206781D01*
X105918337Y-142139273D01*
X105957146Y-142092366D01*
X105975722Y-142057367D01*
X105979233Y-142025586D01*
X105975796Y-142002102D01*
X105966692Y-141969040D01*
X105949393Y-141945894D01*
X105915037Y-141927347D01*
X105854763Y-141908083D01*
X105790235Y-141890755D01*
X105674116Y-141859201D01*
X105591417Y-141833215D01*
X105534195Y-141809354D01*
X105494506Y-141784172D01*
X105464409Y-141754225D01*
X105458449Y-141746864D01*
X105422992Y-141674809D01*
X105427260Y-141604019D01*
G36*
X105622561Y-138178451D02*
X105637363Y-138073289D01*
X105644663Y-138045086D01*
X105705095Y-137904330D01*
X105795729Y-137783304D01*
X105918189Y-137681116D01*
X106074095Y-137596873D01*
X106265071Y-137529681D01*
X106492737Y-137478647D01*
X106733415Y-137445468D01*
X106838516Y-137437451D01*
X106976519Y-137431425D01*
X107138190Y-137427387D01*
X107314293Y-137425334D01*
X107495594Y-137425262D01*
X107672858Y-137427167D01*
X107836849Y-137431046D01*
X107978333Y-137436897D01*
X108088075Y-137444714D01*
X108100543Y-137445982D01*
X108365088Y-137485809D01*
X108592132Y-137544667D01*
X108781591Y-137622515D01*
X108933384Y-137719309D01*
X109047428Y-137835004D01*
X109123640Y-137969558D01*
X109131439Y-137990331D01*
X109158244Y-138099432D01*
X109173381Y-138231766D01*
X109176236Y-138370089D01*
X109166192Y-138497156D01*
X109152053Y-138567000D01*
X109087176Y-138723444D01*
X108986624Y-138860143D01*
X108853643Y-138974005D01*
X108691477Y-139061941D01*
X108595984Y-139096614D01*
X108399134Y-139146644D01*
X108173188Y-139185660D01*
X107925420Y-139213728D01*
X107663105Y-139230916D01*
X107393518Y-139237288D01*
X107336090Y-139236356D01*
X107336090Y-138726118D01*
X107520540Y-138725612D01*
X107699677Y-138723631D01*
X107866699Y-138720178D01*
X108014803Y-138715251D01*
X108137185Y-138708852D01*
X108227043Y-138700983D01*
X108248936Y-138697978D01*
X108406254Y-138667930D01*
X108527052Y-138631946D01*
X108617035Y-138587099D01*
X108681908Y-138530463D01*
X108727378Y-138459111D01*
X108731287Y-138450583D01*
X108755782Y-138361655D01*
X108756981Y-138269892D01*
X108737414Y-138200483D01*
X108690540Y-138130840D01*
X108625342Y-138072214D01*
X108538772Y-138023907D01*
X108427780Y-137985221D01*
X108289316Y-137955461D01*
X108120331Y-137933929D01*
X107917775Y-137919928D01*
X107678600Y-137912760D01*
X107473049Y-137911451D01*
X107171433Y-137914947D01*
X106910347Y-137924591D01*
X106688410Y-137940554D01*
X106504243Y-137963005D01*
X106356467Y-137992114D01*
X106243701Y-138028052D01*
X106164566Y-138070988D01*
X106161845Y-138073033D01*
X106084006Y-138157598D01*
X106041319Y-138261959D01*
X106036204Y-138368636D01*
X106062446Y-138467048D01*
X106118617Y-138547163D01*
X106207479Y-138610947D01*
X106331792Y-138660369D01*
X106494317Y-138697394D01*
X106498788Y-138698160D01*
X106572253Y-138706513D01*
X106681223Y-138713388D01*
X106818894Y-138718785D01*
X106978464Y-138722706D01*
X107153131Y-138725150D01*
X107336090Y-138726118D01*
X107336090Y-139236356D01*
X107123933Y-139232911D01*
X106861625Y-139217851D01*
X106613870Y-139192175D01*
X106387942Y-139155947D01*
X106191116Y-139109235D01*
X106083584Y-139073794D01*
X105965446Y-139012288D01*
X105851881Y-138923160D01*
X105753490Y-138816939D01*
X105680875Y-138704155D01*
X105658593Y-138651666D01*
X105636002Y-138556094D01*
X105622232Y-138435162D01*
X105617635Y-138304178D01*
X105622561Y-138178451D01*
X105622561Y-138178451D01*
G37*
X105622561Y-138178451D02*
X105637363Y-138073289D01*
X105644663Y-138045086D01*
X105705095Y-137904330D01*
X105795729Y-137783304D01*
X105918189Y-137681116D01*
X106074095Y-137596873D01*
X106265071Y-137529681D01*
X106492737Y-137478647D01*
X106733415Y-137445468D01*
X106838516Y-137437451D01*
X106976519Y-137431425D01*
X107138190Y-137427387D01*
X107314293Y-137425334D01*
X107495594Y-137425262D01*
X107672858Y-137427167D01*
X107836849Y-137431046D01*
X107978333Y-137436897D01*
X108088075Y-137444714D01*
X108100543Y-137445982D01*
X108365088Y-137485809D01*
X108592132Y-137544667D01*
X108781591Y-137622515D01*
X108933384Y-137719309D01*
X109047428Y-137835004D01*
X109123640Y-137969558D01*
X109131439Y-137990331D01*
X109158244Y-138099432D01*
X109173381Y-138231766D01*
X109176236Y-138370089D01*
X109166192Y-138497156D01*
X109152053Y-138567000D01*
X109087176Y-138723444D01*
X108986624Y-138860143D01*
X108853643Y-138974005D01*
X108691477Y-139061941D01*
X108595984Y-139096614D01*
X108399134Y-139146644D01*
X108173188Y-139185660D01*
X107925420Y-139213728D01*
X107663105Y-139230916D01*
X107393518Y-139237288D01*
X107336090Y-139236356D01*
X107336090Y-138726118D01*
X107520540Y-138725612D01*
X107699677Y-138723631D01*
X107866699Y-138720178D01*
X108014803Y-138715251D01*
X108137185Y-138708852D01*
X108227043Y-138700983D01*
X108248936Y-138697978D01*
X108406254Y-138667930D01*
X108527052Y-138631946D01*
X108617035Y-138587099D01*
X108681908Y-138530463D01*
X108727378Y-138459111D01*
X108731287Y-138450583D01*
X108755782Y-138361655D01*
X108756981Y-138269892D01*
X108737414Y-138200483D01*
X108690540Y-138130840D01*
X108625342Y-138072214D01*
X108538772Y-138023907D01*
X108427780Y-137985221D01*
X108289316Y-137955461D01*
X108120331Y-137933929D01*
X107917775Y-137919928D01*
X107678600Y-137912760D01*
X107473049Y-137911451D01*
X107171433Y-137914947D01*
X106910347Y-137924591D01*
X106688410Y-137940554D01*
X106504243Y-137963005D01*
X106356467Y-137992114D01*
X106243701Y-138028052D01*
X106164566Y-138070988D01*
X106161845Y-138073033D01*
X106084006Y-138157598D01*
X106041319Y-138261959D01*
X106036204Y-138368636D01*
X106062446Y-138467048D01*
X106118617Y-138547163D01*
X106207479Y-138610947D01*
X106331792Y-138660369D01*
X106494317Y-138697394D01*
X106498788Y-138698160D01*
X106572253Y-138706513D01*
X106681223Y-138713388D01*
X106818894Y-138718785D01*
X106978464Y-138722706D01*
X107153131Y-138725150D01*
X107336090Y-138726118D01*
X107336090Y-139236356D01*
X107123933Y-139232911D01*
X106861625Y-139217851D01*
X106613870Y-139192175D01*
X106387942Y-139155947D01*
X106191116Y-139109235D01*
X106083584Y-139073794D01*
X105965446Y-139012288D01*
X105851881Y-138923160D01*
X105753490Y-138816939D01*
X105680875Y-138704155D01*
X105658593Y-138651666D01*
X105636002Y-138556094D01*
X105622232Y-138435162D01*
X105617635Y-138304178D01*
X105622561Y-138178451D01*
G36*
X105612023Y-136214996D02*
X105613093Y-136199038D01*
X105626239Y-136088677D01*
X105648356Y-135979999D01*
X105676274Y-135885069D01*
X105706826Y-135815951D01*
X105718062Y-135799458D01*
X105749528Y-135785464D01*
X105818238Y-135776771D01*
X105926338Y-135773143D01*
X105959013Y-135773000D01*
X106178509Y-135773000D01*
X106112745Y-135898460D01*
X106053348Y-136045043D01*
X106034749Y-136180387D01*
X106056951Y-136304559D01*
X106119955Y-136417626D01*
X106132152Y-136432716D01*
X106226256Y-136512193D01*
X106347337Y-136560674D01*
X106487883Y-136576868D01*
X106570195Y-136574314D01*
X106643759Y-136563888D01*
X106713947Y-136542399D01*
X106786126Y-136506655D01*
X106865665Y-136453467D01*
X106957935Y-136379642D01*
X107068302Y-136281990D01*
X107202138Y-136157320D01*
X107216233Y-136143988D01*
X107316517Y-136051186D01*
X107416813Y-135962158D01*
X107509029Y-135883820D01*
X107585075Y-135823090D01*
X107626104Y-135793602D01*
X107813944Y-135695056D01*
X108016988Y-135633897D01*
X108229574Y-135610679D01*
X108446037Y-135625956D01*
X108660715Y-135680282D01*
X108687084Y-135689824D01*
X108769841Y-135727711D01*
X108847696Y-135780389D01*
X108933605Y-135856958D01*
X108954749Y-135877790D01*
X109026303Y-135952338D01*
X109074296Y-136012719D01*
X109107382Y-136072235D01*
X109134216Y-136144185D01*
X109139958Y-136162414D01*
X109174137Y-136326569D01*
X109180822Y-136497635D01*
X109160927Y-136649068D01*
X109138868Y-136717064D01*
X109104680Y-136796723D01*
X109085605Y-136834276D01*
X109029606Y-136937166D01*
X108800136Y-136937166D01*
X108707306Y-136936220D01*
X108632489Y-136933657D01*
X108584291Y-136929889D01*
X108570667Y-136926163D01*
X108580987Y-136903185D01*
X108607032Y-136858008D01*
X108621458Y-136834699D01*
X108695404Y-136688665D01*
X108731844Y-136546412D01*
X108730147Y-136412179D01*
X108699506Y-136310293D01*
X108632537Y-136210287D01*
X108538588Y-136137186D01*
X108423731Y-136091443D01*
X108294035Y-136073510D01*
X108155572Y-136083839D01*
X108014413Y-136122883D01*
X107876628Y-136191095D01*
X107801692Y-136243384D01*
X107757195Y-136280849D01*
X107689259Y-136341318D01*
X107604903Y-136418394D01*
X107511144Y-136505678D01*
X107435502Y-136577205D01*
X107283291Y-136717797D01*
X107150964Y-136828479D01*
X107031852Y-136912315D01*
X106919290Y-136972368D01*
X106806608Y-137011700D01*
X106687140Y-137033373D01*
X106554218Y-137040450D01*
X106433098Y-137037632D01*
X106270057Y-137023886D01*
X106137924Y-136996910D01*
X106026272Y-136952603D01*
X105924669Y-136886863D01*
X105826022Y-136798905D01*
X105757440Y-136727426D01*
X105711812Y-136667996D01*
X105679663Y-136605452D01*
X105651517Y-136524633D01*
X105648550Y-136514937D01*
X105621384Y-136410827D01*
X105610150Y-136319243D01*
X105612023Y-136214996D01*
X105612023Y-136214996D01*
G37*
X105612023Y-136214996D02*
X105613093Y-136199038D01*
X105626239Y-136088677D01*
X105648356Y-135979999D01*
X105676274Y-135885069D01*
X105706826Y-135815951D01*
X105718062Y-135799458D01*
X105749528Y-135785464D01*
X105818238Y-135776771D01*
X105926338Y-135773143D01*
X105959013Y-135773000D01*
X106178509Y-135773000D01*
X106112745Y-135898460D01*
X106053348Y-136045043D01*
X106034749Y-136180387D01*
X106056951Y-136304559D01*
X106119955Y-136417626D01*
X106132152Y-136432716D01*
X106226256Y-136512193D01*
X106347337Y-136560674D01*
X106487883Y-136576868D01*
X106570195Y-136574314D01*
X106643759Y-136563888D01*
X106713947Y-136542399D01*
X106786126Y-136506655D01*
X106865665Y-136453467D01*
X106957935Y-136379642D01*
X107068302Y-136281990D01*
X107202138Y-136157320D01*
X107216233Y-136143988D01*
X107316517Y-136051186D01*
X107416813Y-135962158D01*
X107509029Y-135883820D01*
X107585075Y-135823090D01*
X107626104Y-135793602D01*
X107813944Y-135695056D01*
X108016988Y-135633897D01*
X108229574Y-135610679D01*
X108446037Y-135625956D01*
X108660715Y-135680282D01*
X108687084Y-135689824D01*
X108769841Y-135727711D01*
X108847696Y-135780389D01*
X108933605Y-135856958D01*
X108954749Y-135877790D01*
X109026303Y-135952338D01*
X109074296Y-136012719D01*
X109107382Y-136072235D01*
X109134216Y-136144185D01*
X109139958Y-136162414D01*
X109174137Y-136326569D01*
X109180822Y-136497635D01*
X109160927Y-136649068D01*
X109138868Y-136717064D01*
X109104680Y-136796723D01*
X109085605Y-136834276D01*
X109029606Y-136937166D01*
X108800136Y-136937166D01*
X108707306Y-136936220D01*
X108632489Y-136933657D01*
X108584291Y-136929889D01*
X108570667Y-136926163D01*
X108580987Y-136903185D01*
X108607032Y-136858008D01*
X108621458Y-136834699D01*
X108695404Y-136688665D01*
X108731844Y-136546412D01*
X108730147Y-136412179D01*
X108699506Y-136310293D01*
X108632537Y-136210287D01*
X108538588Y-136137186D01*
X108423731Y-136091443D01*
X108294035Y-136073510D01*
X108155572Y-136083839D01*
X108014413Y-136122883D01*
X107876628Y-136191095D01*
X107801692Y-136243384D01*
X107757195Y-136280849D01*
X107689259Y-136341318D01*
X107604903Y-136418394D01*
X107511144Y-136505678D01*
X107435502Y-136577205D01*
X107283291Y-136717797D01*
X107150964Y-136828479D01*
X107031852Y-136912315D01*
X106919290Y-136972368D01*
X106806608Y-137011700D01*
X106687140Y-137033373D01*
X106554218Y-137040450D01*
X106433098Y-137037632D01*
X106270057Y-137023886D01*
X106137924Y-136996910D01*
X106026272Y-136952603D01*
X105924669Y-136886863D01*
X105826022Y-136798905D01*
X105757440Y-136727426D01*
X105711812Y-136667996D01*
X105679663Y-136605452D01*
X105651517Y-136524633D01*
X105648550Y-136514937D01*
X105621384Y-136410827D01*
X105610150Y-136319243D01*
X105612023Y-136214996D01*
G36*
X106786702Y-129680732D02*
X106854981Y-129572478D01*
X106935545Y-129496334D01*
X107031588Y-129423000D01*
X106792667Y-129423000D01*
X106792667Y-128978500D01*
X109142167Y-128978500D01*
X109142167Y-129423000D01*
X108999292Y-129423643D01*
X108925814Y-129425172D01*
X108889605Y-129429703D01*
X108885642Y-129438416D01*
X108898750Y-129447307D01*
X109027692Y-129532002D01*
X109116808Y-129625408D01*
X109168211Y-129730493D01*
X109184035Y-129847724D01*
X109174038Y-129930277D01*
X109150002Y-130013127D01*
X109144371Y-130026250D01*
X109083322Y-130124451D01*
X108997217Y-130206522D01*
X108883673Y-130273203D01*
X108740307Y-130325237D01*
X108564739Y-130363367D01*
X108354584Y-130388333D01*
X108107461Y-130400879D01*
X107935667Y-130402746D01*
X107807372Y-130401142D01*
X107807372Y-129948536D01*
X107944944Y-129948142D01*
X108087558Y-129945605D01*
X108226957Y-129941115D01*
X108354883Y-129934860D01*
X108463075Y-129927033D01*
X108543277Y-129917821D01*
X108579582Y-129910278D01*
X108673873Y-129865444D01*
X108740718Y-129801695D01*
X108776746Y-129726248D01*
X108778591Y-129646316D01*
X108742881Y-129569114D01*
X108740396Y-129565894D01*
X108692874Y-129523087D01*
X108628851Y-129485187D01*
X108615174Y-129479256D01*
X108509163Y-129448513D01*
X108371011Y-129425749D01*
X108210157Y-129410973D01*
X108036037Y-129404196D01*
X107858087Y-129405427D01*
X107685745Y-129414678D01*
X107528447Y-129431957D01*
X107395630Y-129457276D01*
X107327353Y-129477880D01*
X107232850Y-129528702D01*
X107174895Y-129595919D01*
X107155225Y-129675875D01*
X107175577Y-129764913D01*
X107183318Y-129781030D01*
X107237872Y-129843197D01*
X107330690Y-129891777D01*
X107462719Y-129927219D01*
X107507499Y-129934953D01*
X107580391Y-129942131D01*
X107683102Y-129946595D01*
X107807372Y-129948536D01*
X107807372Y-130401142D01*
X107736792Y-130400259D01*
X107571775Y-130392789D01*
X107432322Y-130379254D01*
X107310138Y-130358572D01*
X107196928Y-130329659D01*
X107085257Y-130291758D01*
X106956920Y-130224969D01*
X106858484Y-130136036D01*
X106791098Y-130031053D01*
X106755907Y-129916112D01*
X106754060Y-129797307D01*
X106786702Y-129680732D01*
X106786702Y-129680732D01*
G37*
X106786702Y-129680732D02*
X106854981Y-129572478D01*
X106935545Y-129496334D01*
X107031588Y-129423000D01*
X106792667Y-129423000D01*
X106792667Y-128978500D01*
X109142167Y-128978500D01*
X109142167Y-129423000D01*
X108999292Y-129423643D01*
X108925814Y-129425172D01*
X108889605Y-129429703D01*
X108885642Y-129438416D01*
X108898750Y-129447307D01*
X109027692Y-129532002D01*
X109116808Y-129625408D01*
X109168211Y-129730493D01*
X109184035Y-129847724D01*
X109174038Y-129930277D01*
X109150002Y-130013127D01*
X109144371Y-130026250D01*
X109083322Y-130124451D01*
X108997217Y-130206522D01*
X108883673Y-130273203D01*
X108740307Y-130325237D01*
X108564739Y-130363367D01*
X108354584Y-130388333D01*
X108107461Y-130400879D01*
X107935667Y-130402746D01*
X107807372Y-130401142D01*
X107807372Y-129948536D01*
X107944944Y-129948142D01*
X108087558Y-129945605D01*
X108226957Y-129941115D01*
X108354883Y-129934860D01*
X108463075Y-129927033D01*
X108543277Y-129917821D01*
X108579582Y-129910278D01*
X108673873Y-129865444D01*
X108740718Y-129801695D01*
X108776746Y-129726248D01*
X108778591Y-129646316D01*
X108742881Y-129569114D01*
X108740396Y-129565894D01*
X108692874Y-129523087D01*
X108628851Y-129485187D01*
X108615174Y-129479256D01*
X108509163Y-129448513D01*
X108371011Y-129425749D01*
X108210157Y-129410973D01*
X108036037Y-129404196D01*
X107858087Y-129405427D01*
X107685745Y-129414678D01*
X107528447Y-129431957D01*
X107395630Y-129457276D01*
X107327353Y-129477880D01*
X107232850Y-129528702D01*
X107174895Y-129595919D01*
X107155225Y-129675875D01*
X107175577Y-129764913D01*
X107183318Y-129781030D01*
X107237872Y-129843197D01*
X107330690Y-129891777D01*
X107462719Y-129927219D01*
X107507499Y-129934953D01*
X107580391Y-129942131D01*
X107683102Y-129946595D01*
X107807372Y-129948536D01*
X107807372Y-130401142D01*
X107736792Y-130400259D01*
X107571775Y-130392789D01*
X107432322Y-130379254D01*
X107310138Y-130358572D01*
X107196928Y-130329659D01*
X107085257Y-130291758D01*
X106956920Y-130224969D01*
X106858484Y-130136036D01*
X106791098Y-130031053D01*
X106755907Y-129916112D01*
X106754060Y-129797307D01*
X106786702Y-129680732D01*
G36*
X107004334Y-134757000D02*
X107004334Y-134058500D01*
X105649667Y-134058500D01*
X105649667Y-133592833D01*
X109142167Y-133592833D01*
X109142167Y-134058500D01*
X107406500Y-134058500D01*
X107406500Y-134757000D01*
X109142167Y-134757000D01*
X109142167Y-135222666D01*
X105649667Y-135222666D01*
X105649667Y-134757000D01*
X107004334Y-134757000D01*
X107004334Y-134757000D01*
G37*
X107004334Y-134757000D02*
X107004334Y-134058500D01*
X105649667Y-134058500D01*
X105649667Y-133592833D01*
X109142167Y-133592833D01*
X109142167Y-134058500D01*
X107406500Y-134058500D01*
X107406500Y-134757000D01*
X109142167Y-134757000D01*
X109142167Y-135222666D01*
X105649667Y-135222666D01*
X105649667Y-134757000D01*
X107004334Y-134757000D01*
G36*
X105653919Y-131484407D02*
X105668060Y-131298013D01*
X105694165Y-131144185D01*
X105734311Y-131018403D01*
X105790574Y-130916146D01*
X105865029Y-130832893D01*
X105959752Y-130764126D01*
X106076820Y-130705323D01*
X106117860Y-130688456D01*
X106178763Y-130668101D01*
X106247672Y-130653610D01*
X106334430Y-130643652D01*
X106448876Y-130636895D01*
X106517500Y-130634366D01*
X106693920Y-130632225D01*
X106838609Y-130639296D01*
X106961442Y-130656978D01*
X107072295Y-130686671D01*
X107176510Y-130727729D01*
X107308321Y-130804289D01*
X107412876Y-130904987D01*
X107491994Y-131032976D01*
X107547492Y-131191410D01*
X107581186Y-131383440D01*
X107586588Y-131439125D01*
X107602007Y-131624333D01*
X109142167Y-131624333D01*
X109142167Y-132090000D01*
X107194834Y-132090000D01*
X107194834Y-131624333D01*
X107194834Y-131559623D01*
X107189494Y-131498051D01*
X107176140Y-131422420D01*
X107170546Y-131398457D01*
X107129949Y-131296157D01*
X107064084Y-131218501D01*
X106969837Y-131163835D01*
X106844091Y-131130507D01*
X106683732Y-131116863D01*
X106638969Y-131116333D01*
X106456542Y-131128936D01*
X106308064Y-131166782D01*
X106193459Y-131229929D01*
X106112651Y-131318433D01*
X106065563Y-131432353D01*
X106051952Y-131555541D01*
X106051834Y-131624333D01*
X107194834Y-131624333D01*
X107194834Y-132090000D01*
X105649667Y-132090000D01*
X105649667Y-131707887D01*
X105653919Y-131484407D01*
X105653919Y-131484407D01*
G37*
X105653919Y-131484407D02*
X105668060Y-131298013D01*
X105694165Y-131144185D01*
X105734311Y-131018403D01*
X105790574Y-130916146D01*
X105865029Y-130832893D01*
X105959752Y-130764126D01*
X106076820Y-130705323D01*
X106117860Y-130688456D01*
X106178763Y-130668101D01*
X106247672Y-130653610D01*
X106334430Y-130643652D01*
X106448876Y-130636895D01*
X106517500Y-130634366D01*
X106693920Y-130632225D01*
X106838609Y-130639296D01*
X106961442Y-130656978D01*
X107072295Y-130686671D01*
X107176510Y-130727729D01*
X107308321Y-130804289D01*
X107412876Y-130904987D01*
X107491994Y-131032976D01*
X107547492Y-131191410D01*
X107581186Y-131383440D01*
X107586588Y-131439125D01*
X107602007Y-131624333D01*
X109142167Y-131624333D01*
X109142167Y-132090000D01*
X107194834Y-132090000D01*
X107194834Y-131624333D01*
X107194834Y-131559623D01*
X107189494Y-131498051D01*
X107176140Y-131422420D01*
X107170546Y-131398457D01*
X107129949Y-131296157D01*
X107064084Y-131218501D01*
X106969837Y-131163835D01*
X106844091Y-131130507D01*
X106683732Y-131116863D01*
X106638969Y-131116333D01*
X106456542Y-131128936D01*
X106308064Y-131166782D01*
X106193459Y-131229929D01*
X106112651Y-131318433D01*
X106065563Y-131432353D01*
X106051952Y-131555541D01*
X106051834Y-131624333D01*
X107194834Y-131624333D01*
X107194834Y-132090000D01*
X105649667Y-132090000D01*
X105649667Y-131707887D01*
X105653919Y-131484407D01*
G36*
X106763242Y-127578599D02*
X106800692Y-127565278D01*
X106868549Y-127560776D01*
X106972584Y-127560333D01*
X107194834Y-127560333D01*
X107194952Y-127639708D01*
X107211565Y-127778601D01*
X107259781Y-127892023D01*
X107337839Y-127977536D01*
X107443976Y-128032701D01*
X107487281Y-128044356D01*
X107544587Y-128051585D01*
X107642239Y-128057592D01*
X107778264Y-128062323D01*
X107950691Y-128065725D01*
X108157549Y-128067743D01*
X108370625Y-128068333D01*
X109142167Y-128068333D01*
X109142167Y-128512833D01*
X106792667Y-128512833D01*
X106792667Y-128068333D01*
X107074185Y-128068333D01*
X106988524Y-128006280D01*
X106876384Y-127904521D01*
X106799893Y-127789190D01*
X106773697Y-127719083D01*
X106755709Y-127650740D01*
X106750236Y-127605499D01*
X106763242Y-127578599D01*
X106763242Y-127578599D01*
G37*
X106763242Y-127578599D02*
X106800692Y-127565278D01*
X106868549Y-127560776D01*
X106972584Y-127560333D01*
X107194834Y-127560333D01*
X107194952Y-127639708D01*
X107211565Y-127778601D01*
X107259781Y-127892023D01*
X107337839Y-127977536D01*
X107443976Y-128032701D01*
X107487281Y-128044356D01*
X107544587Y-128051585D01*
X107642239Y-128057592D01*
X107778264Y-128062323D01*
X107950691Y-128065725D01*
X108157549Y-128067743D01*
X108370625Y-128068333D01*
X109142167Y-128068333D01*
X109142167Y-128512833D01*
X106792667Y-128512833D01*
X106792667Y-128068333D01*
X107074185Y-128068333D01*
X106988524Y-128006280D01*
X106876384Y-127904521D01*
X106799893Y-127789190D01*
X106773697Y-127719083D01*
X106755709Y-127650740D01*
X106750236Y-127605499D01*
X106763242Y-127578599D01*
G36*
X106550813Y-126814375D02*
X107811793Y-126808916D01*
X107310176Y-126544333D01*
X107176758Y-126473315D01*
X107056046Y-126407825D01*
X106953018Y-126350665D01*
X106872655Y-126304637D01*
X106819936Y-126272541D01*
X106799857Y-126257223D01*
X106796810Y-126227795D01*
X106795404Y-126165946D01*
X106795746Y-126081557D01*
X106797203Y-126009795D01*
X106803250Y-125784894D01*
X107321166Y-126081259D01*
X107839083Y-126377625D01*
X108019666Y-126283623D01*
X108101030Y-126241363D01*
X108209026Y-126185407D01*
X108332655Y-126121446D01*
X108460915Y-126055172D01*
X108538917Y-126014913D01*
X108659493Y-125952478D01*
X108777541Y-125890935D01*
X108883583Y-125835253D01*
X108968147Y-125790402D01*
X109009875Y-125767900D01*
X109142167Y-125695595D01*
X109142167Y-126207784D01*
X108523282Y-126513642D01*
X107904398Y-126819500D01*
X109142167Y-126819500D01*
X109142167Y-127264000D01*
X105289834Y-127264000D01*
X105289834Y-126819833D01*
X106550813Y-126814375D01*
X106550813Y-126814375D01*
G37*
X106550813Y-126814375D02*
X107811793Y-126808916D01*
X107310176Y-126544333D01*
X107176758Y-126473315D01*
X107056046Y-126407825D01*
X106953018Y-126350665D01*
X106872655Y-126304637D01*
X106819936Y-126272541D01*
X106799857Y-126257223D01*
X106796810Y-126227795D01*
X106795404Y-126165946D01*
X106795746Y-126081557D01*
X106797203Y-126009795D01*
X106803250Y-125784894D01*
X107321166Y-126081259D01*
X107839083Y-126377625D01*
X108019666Y-126283623D01*
X108101030Y-126241363D01*
X108209026Y-126185407D01*
X108332655Y-126121446D01*
X108460915Y-126055172D01*
X108538917Y-126014913D01*
X108659493Y-125952478D01*
X108777541Y-125890935D01*
X108883583Y-125835253D01*
X108968147Y-125790402D01*
X109009875Y-125767900D01*
X109142167Y-125695595D01*
X109142167Y-126207784D01*
X108523282Y-126513642D01*
X107904398Y-126819500D01*
X109142167Y-126819500D01*
X109142167Y-127264000D01*
X105289834Y-127264000D01*
X105289834Y-126819833D01*
X106550813Y-126814375D01*
D15*
X31330000Y-37370000D02*
X33990000Y-37370000D01*
X33990000Y-37370000D02*
X33990000Y-34590000D01*
X33990000Y-34590000D02*
X31330000Y-34590000D01*
X31330000Y-34590000D02*
X31330000Y-37370000D01*
X30060000Y-37370000D02*
X28670000Y-37370000D01*
X28670000Y-37370000D02*
X28670000Y-35980000D01*
X28860000Y-69370000D02*
X28860000Y-72030000D01*
X28860000Y-72030000D02*
X31640000Y-72030000D01*
X31640000Y-72030000D02*
X31640000Y-69370000D01*
X31640000Y-69370000D02*
X28860000Y-69370000D01*
X28860000Y-68100000D02*
X28860000Y-66710000D01*
X28860000Y-66710000D02*
X30250000Y-66710000D01*
X31090000Y-100060000D02*
X31090000Y-97400000D01*
X31090000Y-97400000D02*
X28310000Y-97400000D01*
X28310000Y-97400000D02*
X28310000Y-100060000D01*
X28310000Y-100060000D02*
X31090000Y-100060000D01*
X31090000Y-101330000D02*
X31090000Y-102720000D01*
X31090000Y-102720000D02*
X29700000Y-102720000D01*
D14*
X90355713Y-119653143D02*
X89847713Y-119653143D01*
X89847713Y-120451429D02*
X89847713Y-118927429D01*
X90573427Y-118927429D01*
X91153999Y-119653143D02*
X91661999Y-119653143D01*
X91879713Y-120451429D02*
X91153999Y-120451429D01*
X91153999Y-118927429D01*
X91879713Y-118927429D01*
X93331142Y-120451429D02*
X92460285Y-120451429D01*
X92895713Y-120451429D02*
X92895713Y-118927429D01*
X92750570Y-119145143D01*
X92605428Y-119290286D01*
X92460285Y-119362857D01*
X93984285Y-120306286D02*
X94056857Y-120378857D01*
X93984285Y-120451429D01*
X93911714Y-120378857D01*
X93984285Y-120306286D01*
X93984285Y-120451429D01*
X95508285Y-120451429D02*
X94637428Y-120451429D01*
X95072856Y-120451429D02*
X95072856Y-118927429D01*
X94927713Y-119145143D01*
X94782571Y-119290286D01*
X94637428Y-119362857D01*
X96088857Y-120378857D02*
X96306571Y-120451429D01*
X96669428Y-120451429D01*
X96814571Y-120378857D01*
X96887142Y-120306286D01*
X96959714Y-120161143D01*
X96959714Y-120016000D01*
X96887142Y-119870857D01*
X96814571Y-119798286D01*
X96669428Y-119725714D01*
X96379142Y-119653143D01*
X96234000Y-119580571D01*
X96161428Y-119508000D01*
X96088857Y-119362857D01*
X96088857Y-119217714D01*
X96161428Y-119072571D01*
X96234000Y-119000000D01*
X96379142Y-118927429D01*
X96742000Y-118927429D01*
X96959714Y-119000000D01*
M02*
