G04 #@! TF.FileFunction,Copper,L1,Top,Signal*
%FSLAX46Y46*%
G04 Gerber Fmt 4.6, Leading zero omitted, Abs format (unit mm)*
G04 Created by KiCad (PCBNEW 4.0.4-stable) date 04/12/18 15:39:23*
%MOMM*%
%LPD*%
G01*
G04 APERTURE LIST*
%ADD10C,0.100000*%
%ADD11R,55.000000X6.000000*%
%ADD12C,4.300000*%
%ADD13C,4.500000*%
%ADD14C,3.000000*%
%ADD15C,0.250000*%
%ADD16C,0.750000*%
%ADD17C,5.000000*%
G04 APERTURE END LIST*
D10*
D11*
X39996000Y-3620000D03*
D12*
X30937000Y-3572000D03*
X48801000Y-3620000D03*
X63801000Y-3620000D03*
X56301000Y-3620000D03*
X15937000Y-3572000D03*
X23437000Y-3572000D03*
D13*
X155020000Y-57000000D03*
X155020000Y-5000000D03*
D14*
X150025100Y-35369500D03*
X155525100Y-35369500D03*
X155525100Y-31169500D03*
X150025100Y-31169500D03*
X155525100Y-26969500D03*
X150025100Y-26969500D03*
X155525100Y-22769500D03*
X150025100Y-22769500D03*
D13*
X5000000Y-57000000D03*
D11*
X117434000Y-57836000D03*
D12*
X127239000Y-57915000D03*
X107502000Y-57788000D03*
X93502000Y-57788000D03*
X100502000Y-57788000D03*
X141239000Y-57915000D03*
X134239000Y-57915000D03*
D11*
X117434000Y-34598000D03*
D12*
X127239000Y-34677000D03*
X107502000Y-34550000D03*
X93502000Y-34550000D03*
X100502000Y-34550000D03*
X141239000Y-34677000D03*
X134239000Y-34677000D03*
D11*
X117434000Y-42342000D03*
D12*
X127239000Y-42421000D03*
X107502000Y-42294000D03*
X93502000Y-42294000D03*
X100502000Y-42294000D03*
X141239000Y-42421000D03*
X134239000Y-42421000D03*
D11*
X117434000Y-50092000D03*
D12*
X127239000Y-50171000D03*
X107502000Y-50044000D03*
X93502000Y-50044000D03*
X100502000Y-50044000D03*
X141239000Y-50171000D03*
X134239000Y-50171000D03*
D11*
X117434000Y-26848000D03*
D12*
X127239000Y-26927000D03*
X107502000Y-26800000D03*
X93502000Y-26800000D03*
X100502000Y-26800000D03*
X141239000Y-26927000D03*
X134239000Y-26927000D03*
D11*
X117496000Y-19104000D03*
D12*
X127301000Y-19183000D03*
X107564000Y-19056000D03*
X93564000Y-19056000D03*
X100564000Y-19056000D03*
X141301000Y-19183000D03*
X134301000Y-19183000D03*
D11*
X117496000Y-11354000D03*
D12*
X127301000Y-11433000D03*
X107564000Y-11306000D03*
X93564000Y-11306000D03*
X100564000Y-11306000D03*
X141301000Y-11433000D03*
X134301000Y-11433000D03*
D11*
X117496000Y-3620000D03*
D12*
X127301000Y-3699000D03*
X107564000Y-3572000D03*
X93564000Y-3572000D03*
X100564000Y-3572000D03*
X141301000Y-3699000D03*
X134301000Y-3699000D03*
D11*
X39934000Y-57836000D03*
D12*
X49739000Y-57915000D03*
X30002000Y-57788000D03*
X16002000Y-57788000D03*
X23002000Y-57788000D03*
X63739000Y-57915000D03*
X56739000Y-57915000D03*
D11*
X39934000Y-50092000D03*
D12*
X49739000Y-50171000D03*
X30002000Y-50044000D03*
X16002000Y-50044000D03*
X23002000Y-50044000D03*
X63739000Y-50171000D03*
X56739000Y-50171000D03*
D11*
X39934000Y-42342000D03*
D12*
X49739000Y-42421000D03*
X30002000Y-42294000D03*
X16002000Y-42294000D03*
X23002000Y-42294000D03*
X63739000Y-42421000D03*
X56739000Y-42421000D03*
D11*
X39934000Y-34598000D03*
D12*
X49739000Y-34677000D03*
X30002000Y-34550000D03*
X16002000Y-34550000D03*
X23002000Y-34550000D03*
X63739000Y-34677000D03*
X56739000Y-34677000D03*
D11*
X39934000Y-26848000D03*
D12*
X49739000Y-26927000D03*
X30002000Y-26800000D03*
X16002000Y-26800000D03*
X23002000Y-26800000D03*
X63739000Y-26927000D03*
X56739000Y-26927000D03*
D11*
X39996000Y-19104000D03*
D12*
X49801000Y-19183000D03*
X30064000Y-19056000D03*
X16064000Y-19056000D03*
X23064000Y-19056000D03*
X63801000Y-19183000D03*
X56801000Y-19183000D03*
D11*
X39996000Y-11354000D03*
D12*
X49801000Y-11433000D03*
X30064000Y-11306000D03*
X16064000Y-11306000D03*
X23064000Y-11306000D03*
X63801000Y-11433000D03*
X56801000Y-11433000D03*
D13*
X5000000Y-5000000D03*
D15*
X-63500Y-61595000D02*
X12700Y-61518800D01*
X12700Y-61518800D02*
X12700Y-63500D01*
X12700Y-63500D02*
X160020000Y-63500D01*
X160020000Y-63500D02*
X159969200Y-114300D01*
X159969200Y-114300D02*
X159969200Y-61925200D01*
X159969200Y-61925200D02*
X159905700Y-61988700D01*
X159905700Y-61988700D02*
X25400Y-61988700D01*
D16*
X61885003Y-7563100D02*
X61989898Y-7458205D01*
X61989898Y-7458205D02*
X148138923Y-7458205D01*
X148138923Y-7458205D02*
X155614000Y-14933282D01*
X155614000Y-14933282D02*
X155614000Y-23722000D01*
X61885003Y-23793700D02*
X62762193Y-22916510D01*
X62762193Y-22916510D02*
X145752269Y-22916510D01*
X145752269Y-22916510D02*
X149367304Y-26531545D01*
X149367304Y-26531545D02*
X150471470Y-26531545D01*
X150471470Y-26531545D02*
X150114000Y-26889015D01*
X150114000Y-26889015D02*
X150114000Y-27922000D01*
X61669103Y-39363900D02*
X62547771Y-38485232D01*
X62547771Y-38485232D02*
X147950768Y-38485232D01*
X147950768Y-38485232D02*
X150114000Y-36322000D01*
X155614000Y-32122000D02*
X156566963Y-31169037D01*
X156566963Y-31169037D02*
X157317291Y-31169037D01*
X157317291Y-31169037D02*
X158311039Y-32162785D01*
X158311039Y-32162785D02*
X158311039Y-43785222D01*
X158311039Y-43785222D02*
X148152724Y-53943537D01*
X148152724Y-53943537D02*
X63091466Y-53943537D01*
X63091466Y-53943537D02*
X61999303Y-55035700D01*
X141301000Y-3699000D02*
X146919297Y-3699000D01*
X146919297Y-3699000D02*
X158332570Y-15112273D01*
X158332570Y-15112273D02*
X158332570Y-23970435D01*
X158332570Y-23970435D02*
X155614000Y-26689005D01*
X155614000Y-26689005D02*
X155614000Y-27922000D01*
X139405803Y-31731200D02*
X140345592Y-30791411D01*
X140345592Y-30791411D02*
X148783411Y-30791411D01*
X148783411Y-30791411D02*
X150114000Y-32122000D01*
X151536619Y-46253400D02*
X141423400Y-46253400D01*
X155771460Y-42018559D02*
X151536619Y-46253400D01*
X155771460Y-36166486D02*
X155771460Y-42018559D01*
X150114000Y-17604101D02*
X150114000Y-23722000D01*
X147586840Y-15076941D02*
X150114000Y-17604101D01*
X139405803Y-16275300D02*
X140604162Y-15076941D01*
X140604162Y-15076941D02*
X147586840Y-15076941D01*
D17*
X141423400Y-43437300D02*
X141423400Y-46253400D01*
X141423400Y-46253400D02*
X141423400Y-49217397D01*
X93686400Y-43310300D02*
X93686400Y-47962068D01*
X95009567Y-46638901D02*
X113890782Y-46638901D01*
X113890782Y-46638901D02*
X117618400Y-50366519D01*
X139507403Y-47301400D02*
X117618400Y-47301400D01*
X141321800Y-27867100D02*
X141321800Y-33647197D01*
X93584800Y-27740100D02*
X93584800Y-32391868D01*
X94907967Y-31068701D02*
X113789182Y-31068701D01*
X113789182Y-31068701D02*
X117516800Y-34796319D01*
X139405803Y-31731200D02*
X117516800Y-31731200D01*
X141321800Y-12411200D02*
X141321800Y-18191297D01*
X93584800Y-12284200D02*
X93584800Y-16935968D01*
X94907967Y-15612801D02*
X113789182Y-15612801D01*
X113789182Y-15612801D02*
X117516800Y-19340419D01*
X139405803Y-16275300D02*
X117516800Y-16275300D01*
X63915300Y-51171600D02*
X63915300Y-56951697D01*
X61999303Y-55035700D02*
X40110300Y-55035700D01*
X16178300Y-51044600D02*
X16178300Y-55696368D01*
X17501467Y-54373201D02*
X36382682Y-54373201D01*
X36382682Y-54373201D02*
X40110300Y-58100819D01*
X63585100Y-35499800D02*
X63585100Y-41279897D01*
X61669103Y-39363900D02*
X39780100Y-39363900D01*
X15848100Y-35372800D02*
X15848100Y-40024568D01*
X17171267Y-38701401D02*
X36052482Y-38701401D01*
X36052482Y-38701401D02*
X39780100Y-42429019D01*
X63801000Y-19929600D02*
X63801000Y-25709697D01*
X61885003Y-23793700D02*
X39996000Y-23793700D01*
X16064000Y-19802600D02*
X16064000Y-24454368D01*
X17387167Y-23131201D02*
X36268382Y-23131201D01*
X36268382Y-23131201D02*
X39996000Y-26858819D01*
X63801000Y-3699000D02*
X63801000Y-9479097D01*
X63801000Y-9479097D02*
X61885003Y-7563100D01*
X61885003Y-7563100D02*
X39996000Y-7563100D01*
X39996000Y-7563100D02*
X39996000Y-11354000D01*
X16064000Y-3572000D02*
X16064000Y-8223768D01*
X16064000Y-8223768D02*
X17387167Y-6900601D01*
X17387167Y-6900601D02*
X36268382Y-6900601D01*
X36268382Y-6900601D02*
X39996000Y-10628219D01*
X39996000Y-10628219D02*
X39996000Y-11354000D01*
D15*
X16064000Y-3572000D02*
X39948000Y-3572000D01*
X39948000Y-3572000D02*
X39996000Y-3620000D01*
M02*
