G04 #@! TF.FileFunction,Legend,Bot*
%FSLAX46Y46*%
G04 Gerber Fmt 4.6, Leading zero omitted, Abs format (unit mm)*
G04 Created by KiCad (PCBNEW 4.0.7) date 04/30/18 00:58:58*
%MOMM*%
%LPD*%
G01*
G04 APERTURE LIST*
%ADD10C,0.100000*%
%ADD11C,0.300000*%
%ADD12C,0.150000*%
%ADD13C,3.600000*%
%ADD14R,3.400000X3.400000*%
%ADD15C,3.400000*%
%ADD16C,3.200000*%
%ADD17C,2.990000*%
%ADD18C,2.230000*%
%ADD19C,1.500000*%
%ADD20C,2.800000*%
%ADD21C,1.400000*%
G04 APERTURE END LIST*
D10*
D11*
X167161905Y-132142857D02*
X165638095Y-132142857D01*
X167161905Y-148142857D02*
X165638095Y-148142857D01*
X166400000Y-148904762D02*
X166400000Y-147380952D01*
D12*
X138934800Y-128000600D02*
X138934800Y-129270600D01*
X161794800Y-128000600D02*
X138934800Y-128000600D01*
X161794800Y-158480600D02*
X161794800Y-128000600D01*
X138934800Y-158480600D02*
X161794800Y-158480600D01*
X138934800Y-129270600D02*
X138934800Y-158480600D01*
X148134500Y-125732200D02*
G75*
G02X148474500Y-125372200I350000J10000D01*
G01*
X148464500Y-111572200D02*
G75*
G02X148134500Y-111222200I10000J340000D01*
G01*
X165584500Y-111572200D02*
X165594500Y-125372200D01*
X165594500Y-125372200D02*
X148134500Y-125372200D01*
X148134500Y-125372200D02*
X148134500Y-111572200D01*
X148134500Y-111572200D02*
X165594500Y-111572200D01*
X155897181Y-145042505D02*
X154897181Y-145042505D01*
X154897181Y-145423458D01*
X154944800Y-145518696D01*
X154992419Y-145566315D01*
X155087657Y-145613934D01*
X155230514Y-145613934D01*
X155325752Y-145566315D01*
X155373371Y-145518696D01*
X155420990Y-145423458D01*
X155420990Y-145042505D01*
X155897181Y-146566315D02*
X155897181Y-145994886D01*
X155897181Y-146280600D02*
X154897181Y-146280600D01*
X155040038Y-146185362D01*
X155135276Y-146090124D01*
X155182895Y-145994886D01*
X137593371Y-146542981D02*
X137640990Y-146685838D01*
X137688610Y-146733457D01*
X137783848Y-146781076D01*
X137926705Y-146781076D01*
X138021943Y-146733457D01*
X138069562Y-146685838D01*
X138117181Y-146590600D01*
X138117181Y-146209647D01*
X137117181Y-146209647D01*
X137117181Y-146542981D01*
X137164800Y-146638219D01*
X137212419Y-146685838D01*
X137307657Y-146733457D01*
X137402895Y-146733457D01*
X137498133Y-146685838D01*
X137545752Y-146638219D01*
X137593371Y-146542981D01*
X137593371Y-146209647D01*
X137831467Y-147162028D02*
X137831467Y-147638219D01*
X138117181Y-147066790D02*
X137117181Y-147400123D01*
X138117181Y-147733457D01*
X137117181Y-147923933D02*
X137117181Y-148495362D01*
X138117181Y-148209647D02*
X137117181Y-148209647D01*
X137117181Y-148685838D02*
X137117181Y-149257267D01*
X138117181Y-148971552D02*
X137117181Y-148971552D01*
X138212419Y-149352505D02*
X138212419Y-150114410D01*
X138021943Y-150923934D02*
X138069562Y-150876315D01*
X138117181Y-150733458D01*
X138117181Y-150638220D01*
X138069562Y-150495362D01*
X137974324Y-150400124D01*
X137879086Y-150352505D01*
X137688610Y-150304886D01*
X137545752Y-150304886D01*
X137355276Y-150352505D01*
X137260038Y-150400124D01*
X137164800Y-150495362D01*
X137117181Y-150638220D01*
X137117181Y-150733458D01*
X137164800Y-150876315D01*
X137212419Y-150923934D01*
X137117181Y-151542981D02*
X137117181Y-151733458D01*
X137164800Y-151828696D01*
X137260038Y-151923934D01*
X137450514Y-151971553D01*
X137783848Y-151971553D01*
X137974324Y-151923934D01*
X138069562Y-151828696D01*
X138117181Y-151733458D01*
X138117181Y-151542981D01*
X138069562Y-151447743D01*
X137974324Y-151352505D01*
X137783848Y-151304886D01*
X137450514Y-151304886D01*
X137260038Y-151352505D01*
X137164800Y-151447743D01*
X137117181Y-151542981D01*
X138117181Y-152400124D02*
X137117181Y-152400124D01*
X138117181Y-152971553D01*
X137117181Y-152971553D01*
X154386881Y-123614581D02*
X154386881Y-124424105D01*
X154339262Y-124519343D01*
X154291643Y-124566962D01*
X154196405Y-124614581D01*
X154005928Y-124614581D01*
X153910690Y-124566962D01*
X153863071Y-124519343D01*
X153815452Y-124424105D01*
X153815452Y-123614581D01*
X153386881Y-124566962D02*
X153244024Y-124614581D01*
X153005928Y-124614581D01*
X152910690Y-124566962D01*
X152863071Y-124519343D01*
X152815452Y-124424105D01*
X152815452Y-124328867D01*
X152863071Y-124233629D01*
X152910690Y-124186010D01*
X153005928Y-124138390D01*
X153196405Y-124090771D01*
X153291643Y-124043152D01*
X153339262Y-123995533D01*
X153386881Y-123900295D01*
X153386881Y-123805057D01*
X153339262Y-123709819D01*
X153291643Y-123662200D01*
X153196405Y-123614581D01*
X152958309Y-123614581D01*
X152815452Y-123662200D01*
X152053547Y-124090771D02*
X151910690Y-124138390D01*
X151863071Y-124186010D01*
X151815452Y-124281248D01*
X151815452Y-124424105D01*
X151863071Y-124519343D01*
X151910690Y-124566962D01*
X152005928Y-124614581D01*
X152386881Y-124614581D01*
X152386881Y-123614581D01*
X152053547Y-123614581D01*
X151958309Y-123662200D01*
X151910690Y-123709819D01*
X151863071Y-123805057D01*
X151863071Y-123900295D01*
X151910690Y-123995533D01*
X151958309Y-124043152D01*
X152053547Y-124090771D01*
X152386881Y-124090771D01*
X151482119Y-123614581D02*
X150863071Y-123614581D01*
X151196405Y-123995533D01*
X151053547Y-123995533D01*
X150958309Y-124043152D01*
X150910690Y-124090771D01*
X150863071Y-124186010D01*
X150863071Y-124424105D01*
X150910690Y-124519343D01*
X150958309Y-124566962D01*
X151053547Y-124614581D01*
X151339262Y-124614581D01*
X151434500Y-124566962D01*
X151482119Y-124519343D01*
X150434500Y-124519343D02*
X150386881Y-124566962D01*
X150434500Y-124614581D01*
X150482119Y-124566962D01*
X150434500Y-124519343D01*
X150434500Y-124614581D01*
X149767834Y-123614581D02*
X149672595Y-123614581D01*
X149577357Y-123662200D01*
X149529738Y-123709819D01*
X149482119Y-123805057D01*
X149434500Y-123995533D01*
X149434500Y-124233629D01*
X149482119Y-124424105D01*
X149529738Y-124519343D01*
X149577357Y-124566962D01*
X149672595Y-124614581D01*
X149767834Y-124614581D01*
X149863072Y-124566962D01*
X149910691Y-124519343D01*
X149958310Y-124424105D01*
X150005929Y-124233629D01*
X150005929Y-123995533D01*
X149958310Y-123805057D01*
X149910691Y-123709819D01*
X149863072Y-123662200D01*
X149767834Y-123614581D01*
%LPC*%
D13*
X173300000Y-109400000D03*
X173300000Y-161400000D03*
X53300000Y-161400000D03*
X53300000Y-109400000D03*
D14*
X62649100Y-122834400D03*
D15*
X62649100Y-127914400D03*
X62649100Y-132994400D03*
X62649100Y-138074400D03*
X62649100Y-143154400D03*
X62649100Y-148234400D03*
D16*
X144014800Y-133080600D03*
X144014800Y-136880600D03*
X156514800Y-133080600D03*
X156514800Y-136880600D03*
X144014800Y-148080600D03*
X144014800Y-151880600D03*
X156514800Y-148080600D03*
X156514800Y-151880600D03*
D17*
X81188700Y-149662000D03*
X81188700Y-134372000D03*
D18*
X81188700Y-145852000D03*
X81188700Y-142042000D03*
X81188700Y-138232000D03*
X131988700Y-149662000D03*
D19*
X131988700Y-142042000D03*
D18*
X132008700Y-134422000D03*
D15*
X128888700Y-116432000D03*
X123898700Y-116422000D03*
X118898700Y-116422000D03*
X113888700Y-116432000D03*
X108888700Y-116432000D03*
X103898700Y-116422000D03*
X98898700Y-116422000D03*
X93888700Y-116432000D03*
X88888700Y-116432000D03*
X83888700Y-116432000D03*
D20*
X157574500Y-125042200D03*
X163254500Y-125042200D03*
X163254500Y-111902200D03*
X157584500Y-111902200D03*
D21*
X159574500Y-114972200D03*
X159574500Y-121972200D03*
X159574500Y-119472200D03*
X159574500Y-117472200D03*
X161074500Y-114472200D03*
X161074500Y-116472200D03*
X161074500Y-118462200D03*
X161074500Y-120472200D03*
X161074500Y-122472200D03*
X162774500Y-121972200D03*
X162774500Y-119472200D03*
X162774500Y-117472200D03*
X162774500Y-114972200D03*
X164274500Y-114472200D03*
X164274500Y-116472200D03*
X164274500Y-118472200D03*
X164274500Y-120472200D03*
X164274500Y-122472200D03*
D20*
X146161600Y-125001600D03*
X140481600Y-125001600D03*
X140481600Y-111861600D03*
X146151600Y-111861600D03*
D21*
X144161600Y-114931600D03*
X144161600Y-121931600D03*
X144161600Y-119431600D03*
X144161600Y-117431600D03*
X142661600Y-114431600D03*
X142661600Y-116431600D03*
X142661600Y-118421600D03*
X142661600Y-120431600D03*
X142661600Y-122431600D03*
X140961600Y-121931600D03*
X140961600Y-119431600D03*
X140961600Y-117431600D03*
X140961600Y-114931600D03*
X139461600Y-114431600D03*
X139461600Y-116431600D03*
X139461600Y-118431600D03*
X139461600Y-120431600D03*
X139461600Y-122431600D03*
M02*
