G04 #@! TF.FileFunction,Soldermask,Bot*
%FSLAX46Y46*%
G04 Gerber Fmt 4.6, Leading zero omitted, Abs format (unit mm)*
G04 Created by KiCad (PCBNEW 4.0.7) date 04/30/18 00:58:58*
%MOMM*%
%LPD*%
G01*
G04 APERTURE LIST*
%ADD10C,0.100000*%
%ADD11C,3.600000*%
%ADD12R,3.400000X3.400000*%
%ADD13C,3.400000*%
%ADD14C,3.200000*%
%ADD15C,2.990000*%
%ADD16C,2.230000*%
%ADD17C,1.500000*%
%ADD18C,2.800000*%
%ADD19C,1.400000*%
G04 APERTURE END LIST*
D10*
D11*
X173300000Y-109400000D03*
X173300000Y-161400000D03*
X53300000Y-161400000D03*
X53300000Y-109400000D03*
D12*
X62649100Y-122834400D03*
D13*
X62649100Y-127914400D03*
X62649100Y-132994400D03*
X62649100Y-138074400D03*
X62649100Y-143154400D03*
X62649100Y-148234400D03*
D14*
X144014800Y-133080600D03*
X144014800Y-136880600D03*
X156514800Y-133080600D03*
X156514800Y-136880600D03*
X144014800Y-148080600D03*
X144014800Y-151880600D03*
X156514800Y-148080600D03*
X156514800Y-151880600D03*
D15*
X81188700Y-149662000D03*
X81188700Y-134372000D03*
D16*
X81188700Y-145852000D03*
X81188700Y-142042000D03*
X81188700Y-138232000D03*
X131988700Y-149662000D03*
D17*
X131988700Y-142042000D03*
D16*
X132008700Y-134422000D03*
D13*
X128888700Y-116432000D03*
X123898700Y-116422000D03*
X118898700Y-116422000D03*
X113888700Y-116432000D03*
X108888700Y-116432000D03*
X103898700Y-116422000D03*
X98898700Y-116422000D03*
X93888700Y-116432000D03*
X88888700Y-116432000D03*
X83888700Y-116432000D03*
D18*
X157574500Y-125042200D03*
X163254500Y-125042200D03*
X163254500Y-111902200D03*
X157584500Y-111902200D03*
D19*
X159574500Y-114972200D03*
X159574500Y-121972200D03*
X159574500Y-119472200D03*
X159574500Y-117472200D03*
X161074500Y-114472200D03*
X161074500Y-116472200D03*
X161074500Y-118462200D03*
X161074500Y-120472200D03*
X161074500Y-122472200D03*
X162774500Y-121972200D03*
X162774500Y-119472200D03*
X162774500Y-117472200D03*
X162774500Y-114972200D03*
X164274500Y-114472200D03*
X164274500Y-116472200D03*
X164274500Y-118472200D03*
X164274500Y-120472200D03*
X164274500Y-122472200D03*
D18*
X146161600Y-125001600D03*
X140481600Y-125001600D03*
X140481600Y-111861600D03*
X146151600Y-111861600D03*
D19*
X144161600Y-114931600D03*
X144161600Y-121931600D03*
X144161600Y-119431600D03*
X144161600Y-117431600D03*
X142661600Y-114431600D03*
X142661600Y-116431600D03*
X142661600Y-118421600D03*
X142661600Y-120431600D03*
X142661600Y-122431600D03*
X140961600Y-121931600D03*
X140961600Y-119431600D03*
X140961600Y-117431600D03*
X140961600Y-114931600D03*
X139461600Y-114431600D03*
X139461600Y-116431600D03*
X139461600Y-118431600D03*
X139461600Y-120431600D03*
X139461600Y-122431600D03*
M02*
