G04 #@! TF.FileFunction,Copper,L1,Top,Signal*
%FSLAX46Y46*%
G04 Gerber Fmt 4.6, Leading zero omitted, Abs format (unit mm)*
G04 Created by KiCad (PCBNEW 4.0.4-stable) date 05/10/17 13:17:29*
%MOMM*%
%LPD*%
G01*
G04 APERTURE LIST*
%ADD10C,0.150000*%
%ADD11C,0.508000*%
%ADD12R,1.000000X1.250000*%
%ADD13R,1.300480X0.300000*%
%ADD14R,0.300000X1.300480*%
%ADD15R,1.524000X2.032000*%
%ADD16R,1.250000X1.000000*%
%ADD17R,1.849120X5.499100*%
%ADD18R,1.198880X1.198880*%
%ADD19R,2.100580X1.699260*%
%ADD20R,10.800080X8.150860*%
%ADD21R,0.899160X3.200400*%
%ADD22R,0.700000X1.300000*%
%ADD23R,1.300000X0.700000*%
%ADD24R,1.198880X1.800860*%
%ADD25C,1.500000*%
%ADD26R,2.500000X0.900000*%
%ADD27R,0.750000X0.800000*%
%ADD28R,6.360000X5.500000*%
%ADD29R,1.650000X5.500000*%
%ADD30C,0.800000*%
%ADD31C,0.889000*%
%ADD32C,0.254000*%
%ADD33C,0.406400*%
%ADD34C,0.304800*%
%ADD35C,0.635000*%
%ADD36C,0.508000*%
%ADD37C,0.203200*%
G04 APERTURE END LIST*
D10*
D11*
X96750000Y-133000000D03*
X95500000Y-133000000D03*
X94250000Y-133000000D03*
X93000000Y-133000000D03*
X91750000Y-133000000D03*
X90500000Y-133000000D03*
X90500000Y-134250000D03*
X91750000Y-134250000D03*
X93000000Y-134250000D03*
X94250000Y-134250000D03*
X95500000Y-134250000D03*
X96750000Y-134250000D03*
X96750000Y-135500000D03*
X95500000Y-135500000D03*
X94250000Y-135500000D03*
X93000000Y-135500000D03*
X91750000Y-135500000D03*
X90500000Y-135500000D03*
X109500000Y-121750000D03*
X110500000Y-119250000D03*
X110250000Y-120750000D03*
X110750000Y-122000000D03*
X111750000Y-120750000D03*
X110750000Y-123500000D03*
X113000000Y-119250000D03*
X122250000Y-102000000D03*
X123500000Y-102000000D03*
X124750000Y-102000000D03*
X126000000Y-102000000D03*
X127250000Y-102000000D03*
X128500000Y-102000000D03*
X138300000Y-114400000D03*
X138300000Y-113000000D03*
X138300000Y-111500000D03*
X138300000Y-109900000D03*
X137200000Y-109900000D03*
X136000000Y-109900000D03*
X134200000Y-105700000D03*
X135400000Y-104800000D03*
X136600000Y-104000000D03*
X137900000Y-103200000D03*
X133600000Y-102000000D03*
X135100000Y-102000000D03*
X136500000Y-102000000D03*
X137900000Y-102000000D03*
X66000000Y-114500000D03*
X66000000Y-113000000D03*
X66000000Y-111500000D03*
X66000000Y-110000000D03*
X70000000Y-102250000D03*
X68000000Y-102250000D03*
X66250000Y-102500000D03*
X67500000Y-103500000D03*
X68750000Y-104500000D03*
X70000000Y-105750000D03*
X70000000Y-107750000D03*
X69250000Y-109750000D03*
X67500000Y-110000000D03*
X87000000Y-145250000D03*
X88500000Y-145250000D03*
X90000000Y-145250000D03*
X91500000Y-145250000D03*
X91500000Y-144000000D03*
X90000000Y-144000000D03*
X88500000Y-144000000D03*
X87000000Y-144000000D03*
X92000000Y-141250000D03*
X90500000Y-141500000D03*
X89000000Y-141500000D03*
X88500000Y-143000000D03*
X90000000Y-143000000D03*
X91500000Y-143000000D03*
X92500000Y-142250000D03*
X93750000Y-141250000D03*
X95500000Y-140000000D03*
X94250000Y-140000000D03*
X93000000Y-140000000D03*
X91750000Y-140000000D03*
X90500000Y-140000000D03*
X89250000Y-140000000D03*
X87500000Y-141500000D03*
X87000000Y-143000000D03*
X76000000Y-145250000D03*
X74500000Y-145250000D03*
X73250000Y-145250000D03*
X71750000Y-145250000D03*
X71750000Y-144000000D03*
X73250000Y-144000000D03*
X74500000Y-144000000D03*
X76000000Y-144000000D03*
X71750000Y-141500000D03*
X74000000Y-141500000D03*
X69500000Y-141250000D03*
X70250000Y-142250000D03*
X71000000Y-143000000D03*
X72500000Y-143000000D03*
X73750000Y-143000000D03*
X75000000Y-143000000D03*
X76250000Y-143000000D03*
X76000000Y-141500000D03*
X75000000Y-140250000D03*
X73500000Y-140250000D03*
X72250000Y-140250000D03*
X71000000Y-140250000D03*
X69750000Y-140250000D03*
X68500000Y-140250000D03*
X66750000Y-134250000D03*
X66750000Y-133000000D03*
X68000000Y-133000000D03*
X68000000Y-134250000D03*
X68000000Y-135500000D03*
X69250000Y-135500000D03*
X69250000Y-134250000D03*
X69250000Y-133000000D03*
X70500000Y-133000000D03*
X70500000Y-134250000D03*
X70500000Y-135500000D03*
X71750000Y-135500000D03*
X71750000Y-134250000D03*
X71750000Y-133000000D03*
X73000000Y-133000000D03*
X73000000Y-134250000D03*
X73000000Y-135500000D03*
X74250000Y-135500000D03*
X74250000Y-134250000D03*
X74250000Y-133000000D03*
X79000000Y-145250000D03*
X80500000Y-145250000D03*
X83750000Y-145250000D03*
X82250000Y-145250000D03*
X79000000Y-144000000D03*
X80500000Y-144000000D03*
X82250000Y-144000000D03*
X83750000Y-144000000D03*
X83000000Y-141500000D03*
X80500000Y-141500000D03*
X78000000Y-140000000D03*
X78500000Y-141500000D03*
X79250000Y-143000000D03*
X80500000Y-143000000D03*
X81750000Y-143000000D03*
X83000000Y-143000000D03*
X84250000Y-143000000D03*
X85000000Y-141500000D03*
X85500000Y-140006709D03*
X84290000Y-140006709D03*
X83000000Y-140000000D03*
X81750000Y-140000000D03*
X80500000Y-140000000D03*
X79250000Y-140000000D03*
X79250000Y-135500000D03*
X79250000Y-134250000D03*
X79250000Y-133000000D03*
X80500000Y-133000000D03*
X80500000Y-134250000D03*
X80500000Y-135500000D03*
X81750000Y-135500000D03*
X81750000Y-134250000D03*
X81750000Y-133000000D03*
X83000000Y-133000000D03*
X83000000Y-134250000D03*
X83000000Y-135500000D03*
X84250000Y-133000000D03*
X84250000Y-134250000D03*
X84250000Y-135500000D03*
X85500000Y-135500000D03*
X85500000Y-134250000D03*
X85500000Y-133000000D03*
X96250000Y-112000000D03*
X95500000Y-111250000D03*
X94500000Y-110750000D03*
X80750000Y-108500000D03*
X82250000Y-108500000D03*
X81000000Y-109750000D03*
X79750000Y-109750000D03*
X90000000Y-109750000D03*
X93500000Y-111250000D03*
X94500000Y-112000000D03*
X95500000Y-112750000D03*
X71250000Y-114000000D03*
X71250000Y-115500000D03*
X69500000Y-115500000D03*
X69000000Y-117500000D03*
X71250000Y-117500000D03*
X73750000Y-113250000D03*
X72750000Y-113250000D03*
X72750000Y-114750000D03*
X73750000Y-114750000D03*
X73750000Y-116250000D03*
X72750000Y-116250000D03*
X72750000Y-117500000D03*
X73750000Y-117500000D03*
X74250000Y-120000000D03*
X73000000Y-120000000D03*
X71750000Y-120000000D03*
X70500000Y-120000000D03*
X69250000Y-120000000D03*
X68000000Y-120000000D03*
X91250000Y-117750000D03*
X91250000Y-116250000D03*
X91250000Y-114750000D03*
X91250000Y-113250000D03*
X90250000Y-113250000D03*
X90250000Y-114750000D03*
X90250000Y-116250000D03*
X90250000Y-117750000D03*
X90500000Y-120000000D03*
X91750000Y-120000000D03*
X93000000Y-120000000D03*
X94250000Y-120000000D03*
X95500000Y-120000000D03*
X96500000Y-120000000D03*
X77750000Y-113250000D03*
X77750000Y-114750000D03*
X77750000Y-116250000D03*
X77750000Y-117750000D03*
X77750000Y-119000000D03*
X82000000Y-113250000D03*
X82000000Y-114750000D03*
X82000000Y-116250000D03*
X82000000Y-117750000D03*
X83750000Y-117750000D03*
X84750000Y-117750000D03*
X84750000Y-116250000D03*
X83750000Y-116250000D03*
X83750000Y-114750000D03*
X84750000Y-114750000D03*
X84750000Y-113250000D03*
X83750000Y-113250000D03*
X79250000Y-113250000D03*
X80250000Y-113250000D03*
X80250000Y-114750000D03*
X79250000Y-114750000D03*
X79250000Y-116250000D03*
X80250000Y-116250000D03*
X80250000Y-117750000D03*
X79250000Y-117750000D03*
X81750000Y-119000000D03*
X81750000Y-120000000D03*
X85250000Y-119000000D03*
X84250000Y-119000000D03*
X83000000Y-119000000D03*
X80500000Y-119000000D03*
X79250000Y-119000000D03*
X79250000Y-120000000D03*
X80500000Y-120000000D03*
X83000000Y-120000000D03*
X84250000Y-120000000D03*
X85250000Y-120000000D03*
X100250000Y-118750000D03*
X101000000Y-117750000D03*
X99250000Y-118250000D03*
X98250000Y-117250000D03*
X99750000Y-117000000D03*
X98250000Y-116250000D03*
X98500000Y-115250000D03*
X99750000Y-116000000D03*
X101000000Y-116250000D03*
X102250000Y-116250000D03*
X102500000Y-117750000D03*
X101250000Y-119000000D03*
X99750000Y-120000000D03*
X106500000Y-127500000D03*
X107750000Y-125000000D03*
X106000000Y-141750000D03*
X104250000Y-141750000D03*
X107750000Y-141750000D03*
X108500000Y-140250000D03*
X108500000Y-138500000D03*
X108500000Y-136750000D03*
X108500000Y-135000000D03*
X108500000Y-133250000D03*
X108500000Y-131250000D03*
X108500000Y-129750000D03*
X107500000Y-128750000D03*
X108500000Y-126000000D03*
X108500000Y-124250000D03*
X109250000Y-123500000D03*
X108500000Y-122500000D03*
X107588817Y-123314800D03*
X106750000Y-124250000D03*
X105250000Y-126250000D03*
X105000000Y-127500000D03*
X105000000Y-129750000D03*
X105000000Y-131250000D03*
X105000000Y-133250000D03*
X105000000Y-135000000D03*
X105000000Y-136750000D03*
X104500000Y-139000000D03*
X103500000Y-140500000D03*
X102500000Y-141750000D03*
X105750000Y-145250000D03*
X104500000Y-145250000D03*
X103250000Y-145250000D03*
X102000000Y-145250000D03*
X102000000Y-144000000D03*
X103250000Y-144000000D03*
X104500000Y-144000000D03*
X105750000Y-144000000D03*
X107000000Y-143000000D03*
X105750000Y-143000000D03*
X104500000Y-143000000D03*
X103250000Y-143000000D03*
X102000000Y-143000000D03*
X93750000Y-126250000D03*
X91250000Y-126250000D03*
X84500000Y-126500000D03*
X82000000Y-126500000D03*
X79500000Y-126500000D03*
X72250000Y-126500000D03*
X69750000Y-126500000D03*
X67000000Y-126500000D03*
X75000000Y-126250000D03*
X86250000Y-126500000D03*
X77250000Y-126500000D03*
X88750000Y-126250000D03*
X93750000Y-127750000D03*
X92500000Y-127750000D03*
X91250000Y-127750000D03*
X90000000Y-127750000D03*
X88750000Y-127750000D03*
X87500000Y-127750000D03*
X86000000Y-127750000D03*
X84500000Y-127750000D03*
X83250000Y-127750000D03*
X82000000Y-127750000D03*
X80750000Y-127750000D03*
X79500000Y-127750000D03*
X78000000Y-127750000D03*
X76500000Y-127750000D03*
X75000000Y-127750000D03*
X73500000Y-127750000D03*
X72250000Y-127750000D03*
X71000000Y-127750000D03*
X69750000Y-127750000D03*
X68500000Y-127750000D03*
X67000000Y-128750000D03*
X65500000Y-130750000D03*
X65500000Y-129500000D03*
X65500000Y-128000000D03*
X65500000Y-126500000D03*
X65500000Y-125000000D03*
X67000000Y-125000000D03*
X68500000Y-125000000D03*
X69750000Y-125000000D03*
X71000000Y-125000000D03*
X72250000Y-125000000D03*
X73500000Y-125000000D03*
X75000000Y-125000000D03*
X76500000Y-125000000D03*
X78000000Y-125000000D03*
X79500000Y-125000000D03*
X80750000Y-125000000D03*
X82000000Y-125000000D03*
X83250000Y-125000000D03*
X84500000Y-125000000D03*
X86000000Y-125000000D03*
X87500000Y-125000000D03*
X88750000Y-125000000D03*
X90000000Y-125000000D03*
X91250000Y-125000000D03*
X92500000Y-125000000D03*
X93750000Y-125000000D03*
X95000000Y-125000000D03*
X96250000Y-125000000D03*
X98750000Y-123750000D03*
X98500000Y-124750000D03*
X95500000Y-127750000D03*
X96250000Y-127000000D03*
X97000000Y-126250000D03*
X97750000Y-125500000D03*
X94750000Y-145250000D03*
X96000000Y-145250000D03*
X97250000Y-145250000D03*
X98500000Y-145250000D03*
X98500000Y-144000000D03*
X97250000Y-144000000D03*
X96000000Y-144000000D03*
X94750000Y-144000000D03*
X102250000Y-130000000D03*
X101000000Y-131000000D03*
X102500000Y-128500000D03*
X98750000Y-142000000D03*
X97500000Y-142000000D03*
X96000000Y-143000000D03*
X97250000Y-143000000D03*
X98500000Y-143000000D03*
X99750000Y-143000000D03*
X100500000Y-142000000D03*
X101250000Y-141000000D03*
X102000000Y-139750000D03*
X103000000Y-138500000D03*
X103500000Y-136750000D03*
X103500000Y-135000000D03*
X103500000Y-133250000D03*
X103500000Y-131250000D03*
X103500000Y-129750000D03*
X103500000Y-127500000D03*
X101000000Y-129750000D03*
X99750000Y-131250000D03*
X99750000Y-133250000D03*
X99750000Y-135000000D03*
X99750000Y-136750000D03*
X99750000Y-138500000D03*
X98250000Y-139750000D03*
X97000000Y-141000000D03*
X96000000Y-142000000D03*
X94750000Y-143002000D03*
D12*
X117535200Y-105892600D03*
X115535200Y-105892600D03*
D13*
X131267200Y-128816100D03*
X131267200Y-128315720D03*
X131267200Y-127815340D03*
X131267200Y-127314960D03*
X131267200Y-126814580D03*
X131267200Y-130314700D03*
X131267200Y-129816860D03*
X131267200Y-129316480D03*
D14*
X129265680Y-120815100D03*
X128767840Y-120815100D03*
X128267460Y-120815100D03*
X127767080Y-120815100D03*
X127266700Y-120815100D03*
X126766320Y-120815100D03*
X126265940Y-120815100D03*
X125765560Y-120815100D03*
D13*
X119766080Y-122816620D03*
X119766080Y-123314460D03*
X119766080Y-123814840D03*
X119766080Y-124315220D03*
X119766080Y-124815600D03*
X119766080Y-125315980D03*
X119766080Y-125816360D03*
X119766080Y-126316740D03*
D14*
X121767600Y-132316220D03*
X122265440Y-132316220D03*
X122765820Y-132316220D03*
X123266200Y-132316220D03*
X123766580Y-132316220D03*
X124266960Y-132316220D03*
X124767340Y-132316220D03*
X125267720Y-132316220D03*
D13*
X131267200Y-126316740D03*
X131267200Y-125816360D03*
X131267200Y-125315980D03*
D14*
X125267720Y-120815100D03*
X124767340Y-120815100D03*
X124266960Y-120815100D03*
D13*
X119766080Y-126814580D03*
X119766080Y-127314960D03*
X119766080Y-127815340D03*
D14*
X125765560Y-132316220D03*
X126265940Y-132316220D03*
X126766320Y-132316220D03*
D13*
X131267200Y-124815600D03*
X131267200Y-124315220D03*
X131267200Y-123814840D03*
X131267200Y-123314460D03*
X131267200Y-122816620D03*
D14*
X123766580Y-120815100D03*
X123266200Y-120815100D03*
X122765820Y-120815100D03*
X122265440Y-120815100D03*
X121767600Y-120815100D03*
D13*
X119766080Y-128315720D03*
X119766080Y-128816100D03*
X119766080Y-129316480D03*
X119766080Y-129816860D03*
X119766080Y-130314700D03*
D14*
X127266700Y-132316220D03*
X127767080Y-132316220D03*
X128267460Y-132316220D03*
X128767840Y-132316220D03*
X129265680Y-132316220D03*
D15*
X105740200Y-131343400D03*
X102438200Y-131343400D03*
D12*
X112969800Y-120853200D03*
X114969800Y-120853200D03*
D16*
X132181600Y-139868400D03*
X132181600Y-141868400D03*
X129641600Y-139893800D03*
X129641600Y-141893800D03*
X127101600Y-139868400D03*
X127101600Y-141868400D03*
X124561600Y-139868400D03*
X124561600Y-141868400D03*
D15*
X105740200Y-128320800D03*
X102438200Y-128320800D03*
D16*
X115062000Y-124485400D03*
X115062000Y-122485400D03*
X134239000Y-129073400D03*
X134239000Y-131073400D03*
D12*
X122240800Y-117932200D03*
X124240800Y-117932200D03*
D16*
X115976400Y-133985000D03*
X115976400Y-131985000D03*
X117779800Y-111245900D03*
X117779800Y-113245900D03*
D12*
X121777000Y-111633000D03*
X119777000Y-111633000D03*
X113325400Y-111607600D03*
X115325400Y-111607600D03*
X121453400Y-114427000D03*
X123453400Y-114427000D03*
X124485400Y-107746800D03*
X126485400Y-107746800D03*
X120564400Y-107569000D03*
X122564400Y-107569000D03*
X117160800Y-108458000D03*
X119160800Y-108458000D03*
X135086600Y-122148600D03*
X133086600Y-122148600D03*
X135096000Y-120091200D03*
X133096000Y-120091200D03*
X115338100Y-108648500D03*
X113338100Y-108648500D03*
D17*
X106690160Y-135636000D03*
X101539040Y-135636000D03*
D16*
X134239000Y-127018800D03*
X134239000Y-125018800D03*
D12*
X129939800Y-116128800D03*
X127939800Y-116128800D03*
X124875800Y-110058200D03*
X122875800Y-110058200D03*
D18*
X135364220Y-135394700D03*
X133266180Y-135394700D03*
X135364220Y-133464300D03*
X133266180Y-133464300D03*
X135389620Y-137299700D03*
X133291580Y-137299700D03*
D19*
X113695480Y-133197600D03*
X110236000Y-133197600D03*
D20*
X70440000Y-127000000D03*
D21*
X66630000Y-137601960D03*
X67900000Y-137601960D03*
X69170000Y-137601960D03*
X71710000Y-137601960D03*
X72980000Y-137601960D03*
X74250000Y-137601960D03*
D20*
X81750000Y-127000000D03*
D21*
X77940000Y-137601960D03*
X79210000Y-137601960D03*
X80480000Y-137601960D03*
X83020000Y-137601960D03*
X84290000Y-137601960D03*
X85560000Y-137601960D03*
D20*
X93000000Y-127000000D03*
D21*
X89190000Y-137601960D03*
X90460000Y-137601960D03*
X91730000Y-137601960D03*
X94270000Y-137601960D03*
X95540000Y-137601960D03*
X96810000Y-137601960D03*
D22*
X129921000Y-118135400D03*
X128021000Y-118135400D03*
X116347200Y-118135400D03*
X118247200Y-118135400D03*
X116347200Y-120040400D03*
X118247200Y-120040400D03*
X125460800Y-111760000D03*
X123560800Y-111760000D03*
X136743400Y-137299700D03*
X138643400Y-137299700D03*
D23*
X135280400Y-114924800D03*
X135280400Y-116824800D03*
D22*
X126748500Y-111506000D03*
X128648500Y-111506000D03*
X108968500Y-115900200D03*
X110868500Y-115900200D03*
D23*
X103962200Y-108480900D03*
X103962200Y-106580900D03*
X131800600Y-114909600D03*
X131800600Y-116809600D03*
D22*
X108993900Y-112483900D03*
X110893900Y-112483900D03*
D23*
X105778300Y-108480900D03*
X105778300Y-106580900D03*
D22*
X136743400Y-135394700D03*
X138643400Y-135394700D03*
X136718000Y-133464300D03*
X138618000Y-133464300D03*
X108981200Y-114185700D03*
X110881200Y-114185700D03*
D23*
X107645200Y-108480900D03*
X107645200Y-106580900D03*
X109461300Y-108468200D03*
X109461300Y-106568200D03*
X111188500Y-108480900D03*
X111188500Y-106580900D03*
X116586000Y-140162200D03*
X116586000Y-142062200D03*
X114808000Y-140162200D03*
X114808000Y-142062200D03*
D22*
X117972800Y-139801600D03*
X119872800Y-139801600D03*
D24*
X136011920Y-129814320D03*
X138511280Y-129814320D03*
X138511280Y-126014480D03*
X136011920Y-126014480D03*
D25*
X117144800Y-122910600D03*
X117195600Y-130657600D03*
X117170200Y-128727200D03*
X117144800Y-126796800D03*
X117144800Y-124815600D03*
D22*
X126141400Y-109321600D03*
X128041400Y-109321600D03*
D23*
X133527800Y-114924800D03*
X133527800Y-116824800D03*
D26*
X112522000Y-126214800D03*
X112522000Y-123314800D03*
D27*
X122107960Y-137275000D03*
X122107960Y-135775000D03*
D10*
G36*
X121732960Y-135391200D02*
X122482960Y-135941200D01*
X122482960Y-135991200D01*
X121732960Y-136541200D01*
X121732960Y-135391200D01*
X121732960Y-135391200D01*
G37*
G36*
X122482960Y-136541200D02*
X121732960Y-135991200D01*
X121732960Y-135941200D01*
X122482960Y-135391200D01*
X122482960Y-136541200D01*
X122482960Y-136541200D01*
G37*
G36*
X122107920Y-136533000D02*
X122483920Y-136833000D01*
X122483920Y-137233000D01*
X122107920Y-137533000D01*
X122107920Y-136533000D01*
X122107920Y-136533000D01*
G37*
G36*
X122108000Y-137533000D02*
X121732000Y-137233000D01*
X121732000Y-136833000D01*
X122108000Y-136533000D01*
X122108000Y-137533000D01*
X122108000Y-137533000D01*
G37*
D27*
X131683760Y-137224200D03*
X131683760Y-135724200D03*
D10*
G36*
X131308760Y-135340400D02*
X132058760Y-135890400D01*
X132058760Y-135940400D01*
X131308760Y-136490400D01*
X131308760Y-135340400D01*
X131308760Y-135340400D01*
G37*
G36*
X132058760Y-136490400D02*
X131308760Y-135940400D01*
X131308760Y-135890400D01*
X132058760Y-135340400D01*
X132058760Y-136490400D01*
X132058760Y-136490400D01*
G37*
G36*
X131683720Y-136482200D02*
X132059720Y-136782200D01*
X132059720Y-137182200D01*
X131683720Y-137482200D01*
X131683720Y-136482200D01*
X131683720Y-136482200D01*
G37*
G36*
X131683800Y-137482200D02*
X131307800Y-137182200D01*
X131307800Y-136782200D01*
X131683800Y-136482200D01*
X131683800Y-137482200D01*
X131683800Y-137482200D01*
G37*
D27*
X119694960Y-137275000D03*
X119694960Y-135775000D03*
D10*
G36*
X119319960Y-135391200D02*
X120069960Y-135941200D01*
X120069960Y-135991200D01*
X119319960Y-136541200D01*
X119319960Y-135391200D01*
X119319960Y-135391200D01*
G37*
G36*
X120069960Y-136541200D02*
X119319960Y-135991200D01*
X119319960Y-135941200D01*
X120069960Y-135391200D01*
X120069960Y-136541200D01*
X120069960Y-136541200D01*
G37*
G36*
X119694920Y-136533000D02*
X120070920Y-136833000D01*
X120070920Y-137233000D01*
X119694920Y-137533000D01*
X119694920Y-136533000D01*
X119694920Y-136533000D01*
G37*
G36*
X119695000Y-137533000D02*
X119319000Y-137233000D01*
X119319000Y-136833000D01*
X119695000Y-136533000D01*
X119695000Y-137533000D01*
X119695000Y-137533000D01*
G37*
D27*
X129296160Y-137224200D03*
X129296160Y-135724200D03*
D10*
G36*
X128921160Y-135340400D02*
X129671160Y-135890400D01*
X129671160Y-135940400D01*
X128921160Y-136490400D01*
X128921160Y-135340400D01*
X128921160Y-135340400D01*
G37*
G36*
X129671160Y-136490400D02*
X128921160Y-135940400D01*
X128921160Y-135890400D01*
X129671160Y-135340400D01*
X129671160Y-136490400D01*
X129671160Y-136490400D01*
G37*
G36*
X129296120Y-136482200D02*
X129672120Y-136782200D01*
X129672120Y-137182200D01*
X129296120Y-137482200D01*
X129296120Y-136482200D01*
X129296120Y-136482200D01*
G37*
G36*
X129296200Y-137482200D02*
X128920200Y-137182200D01*
X128920200Y-136782200D01*
X129296200Y-136482200D01*
X129296200Y-137482200D01*
X129296200Y-137482200D01*
G37*
D27*
X120904000Y-137275000D03*
X120904000Y-135775000D03*
D10*
G36*
X120529000Y-135391200D02*
X121279000Y-135941200D01*
X121279000Y-135991200D01*
X120529000Y-136541200D01*
X120529000Y-135391200D01*
X120529000Y-135391200D01*
G37*
G36*
X121279000Y-136541200D02*
X120529000Y-135991200D01*
X120529000Y-135941200D01*
X121279000Y-135391200D01*
X121279000Y-136541200D01*
X121279000Y-136541200D01*
G37*
G36*
X120903960Y-136533000D02*
X121279960Y-136833000D01*
X121279960Y-137233000D01*
X120903960Y-137533000D01*
X120903960Y-136533000D01*
X120903960Y-136533000D01*
G37*
G36*
X120904040Y-137533000D02*
X120528040Y-137233000D01*
X120528040Y-136833000D01*
X120904040Y-136533000D01*
X120904040Y-137533000D01*
X120904040Y-137533000D01*
G37*
D27*
X130489960Y-137224200D03*
X130489960Y-135724200D03*
D10*
G36*
X130114960Y-135340400D02*
X130864960Y-135890400D01*
X130864960Y-135940400D01*
X130114960Y-136490400D01*
X130114960Y-135340400D01*
X130114960Y-135340400D01*
G37*
G36*
X130864960Y-136490400D02*
X130114960Y-135940400D01*
X130114960Y-135890400D01*
X130864960Y-135340400D01*
X130864960Y-136490400D01*
X130864960Y-136490400D01*
G37*
G36*
X130489920Y-136482200D02*
X130865920Y-136782200D01*
X130865920Y-137182200D01*
X130489920Y-137482200D01*
X130489920Y-136482200D01*
X130489920Y-136482200D01*
G37*
G36*
X130490000Y-137482200D02*
X130114000Y-137182200D01*
X130114000Y-136782200D01*
X130490000Y-136482200D01*
X130490000Y-137482200D01*
X130490000Y-137482200D01*
G37*
D27*
X128092200Y-137249600D03*
X128092200Y-135749600D03*
D10*
G36*
X127717200Y-135365800D02*
X128467200Y-135915800D01*
X128467200Y-135965800D01*
X127717200Y-136515800D01*
X127717200Y-135365800D01*
X127717200Y-135365800D01*
G37*
G36*
X128467200Y-136515800D02*
X127717200Y-135965800D01*
X127717200Y-135915800D01*
X128467200Y-135365800D01*
X128467200Y-136515800D01*
X128467200Y-136515800D01*
G37*
G36*
X128092160Y-136507600D02*
X128468160Y-136807600D01*
X128468160Y-137207600D01*
X128092160Y-137507600D01*
X128092160Y-136507600D01*
X128092160Y-136507600D01*
G37*
G36*
X128092240Y-137507600D02*
X127716240Y-137207600D01*
X127716240Y-136807600D01*
X128092240Y-136507600D01*
X128092240Y-137507600D01*
X128092240Y-137507600D01*
G37*
D27*
X126888240Y-137249600D03*
X126888240Y-135749600D03*
D10*
G36*
X126513240Y-135365800D02*
X127263240Y-135915800D01*
X127263240Y-135965800D01*
X126513240Y-136515800D01*
X126513240Y-135365800D01*
X126513240Y-135365800D01*
G37*
G36*
X127263240Y-136515800D02*
X126513240Y-135965800D01*
X126513240Y-135915800D01*
X127263240Y-135365800D01*
X127263240Y-136515800D01*
X127263240Y-136515800D01*
G37*
G36*
X126888200Y-136507600D02*
X127264200Y-136807600D01*
X127264200Y-137207600D01*
X126888200Y-137507600D01*
X126888200Y-136507600D01*
X126888200Y-136507600D01*
G37*
G36*
X126888280Y-137507600D02*
X126512280Y-137207600D01*
X126512280Y-136807600D01*
X126888280Y-136507600D01*
X126888280Y-137507600D01*
X126888280Y-137507600D01*
G37*
D27*
X125679200Y-137249600D03*
X125679200Y-135749600D03*
D10*
G36*
X125304200Y-135365800D02*
X126054200Y-135915800D01*
X126054200Y-135965800D01*
X125304200Y-136515800D01*
X125304200Y-135365800D01*
X125304200Y-135365800D01*
G37*
G36*
X126054200Y-136515800D02*
X125304200Y-135965800D01*
X125304200Y-135915800D01*
X126054200Y-135365800D01*
X126054200Y-136515800D01*
X126054200Y-136515800D01*
G37*
G36*
X125679160Y-136507600D02*
X126055160Y-136807600D01*
X126055160Y-137207600D01*
X125679160Y-137507600D01*
X125679160Y-136507600D01*
X125679160Y-136507600D01*
G37*
G36*
X125679240Y-137507600D02*
X125303240Y-137207600D01*
X125303240Y-136807600D01*
X125679240Y-136507600D01*
X125679240Y-137507600D01*
X125679240Y-137507600D01*
G37*
D27*
X124485400Y-137261600D03*
X124485400Y-135761600D03*
D10*
G36*
X124110400Y-135377800D02*
X124860400Y-135927800D01*
X124860400Y-135977800D01*
X124110400Y-136527800D01*
X124110400Y-135377800D01*
X124110400Y-135377800D01*
G37*
G36*
X124860400Y-136527800D02*
X124110400Y-135977800D01*
X124110400Y-135927800D01*
X124860400Y-135377800D01*
X124860400Y-136527800D01*
X124860400Y-136527800D01*
G37*
G36*
X124485360Y-136519600D02*
X124861360Y-136819600D01*
X124861360Y-137219600D01*
X124485360Y-137519600D01*
X124485360Y-136519600D01*
X124485360Y-136519600D01*
G37*
G36*
X124485440Y-137519600D02*
X124109440Y-137219600D01*
X124109440Y-136819600D01*
X124485440Y-136519600D01*
X124485440Y-137519600D01*
X124485440Y-137519600D01*
G37*
D27*
X123291600Y-137275000D03*
X123291600Y-135775000D03*
D10*
G36*
X122916600Y-135391200D02*
X123666600Y-135941200D01*
X123666600Y-135991200D01*
X122916600Y-136541200D01*
X122916600Y-135391200D01*
X122916600Y-135391200D01*
G37*
G36*
X123666600Y-136541200D02*
X122916600Y-135991200D01*
X122916600Y-135941200D01*
X123666600Y-135391200D01*
X123666600Y-136541200D01*
X123666600Y-136541200D01*
G37*
G36*
X123291560Y-136533000D02*
X123667560Y-136833000D01*
X123667560Y-137233000D01*
X123291560Y-137533000D01*
X123291560Y-136533000D01*
X123291560Y-136533000D01*
G37*
G36*
X123291640Y-137533000D02*
X122915640Y-137233000D01*
X122915640Y-136833000D01*
X123291640Y-136533000D01*
X123291640Y-137533000D01*
X123291640Y-137533000D01*
G37*
D12*
X125441200Y-113969800D03*
X127441200Y-113969800D03*
D28*
X104337500Y-146304000D03*
X96750000Y-146304000D03*
X89150000Y-146304000D03*
X81550000Y-146304000D03*
X73925000Y-146304000D03*
D29*
X109250000Y-146304000D03*
X111800000Y-146304000D03*
X114350000Y-146304000D03*
X116900000Y-146304000D03*
X119450000Y-146304000D03*
X122000000Y-146304000D03*
X124550000Y-146304000D03*
X127100000Y-146304000D03*
X129625000Y-146304000D03*
X132150000Y-146304000D03*
D11*
X118897400Y-142073394D03*
D30*
X110134400Y-134975600D03*
D11*
X115478615Y-138079955D03*
X110921800Y-138658600D03*
X127025400Y-109474000D03*
X118324500Y-125056334D03*
X121250542Y-126224665D03*
X132781051Y-126415800D03*
X126250700Y-115176300D03*
X121414530Y-115544600D03*
X116382800Y-112445800D03*
X122692600Y-112448552D03*
X121361200Y-112674400D03*
X119938800Y-112674400D03*
X114792778Y-112727344D03*
X125442796Y-107138486D03*
X121576202Y-107346935D03*
X118591595Y-107440284D03*
X116205438Y-104037264D03*
X115489658Y-104190811D03*
X111671722Y-104823863D03*
X114075263Y-107595681D03*
X113368335Y-107514902D03*
X103962200Y-116128800D03*
X65582800Y-138201400D03*
X103925697Y-109366441D03*
X66662300Y-118795800D03*
X107050264Y-111489886D03*
X76307600Y-138324822D03*
X105778300Y-109651800D03*
X76530200Y-120230900D03*
X107780073Y-112955263D03*
X87286062Y-138269806D03*
X87477656Y-108130859D03*
X107459056Y-109849905D03*
X124988881Y-112723758D03*
X124273857Y-104720637D03*
X117297188Y-131628166D03*
X122239397Y-130684411D03*
X118740555Y-135578850D03*
X127934892Y-124960867D03*
X112234216Y-134809986D03*
X124256800Y-116128810D03*
X117172076Y-133744609D03*
X138468100Y-138391900D03*
X118396851Y-117023261D03*
X109543782Y-128716004D03*
X100777259Y-122926682D03*
X122527647Y-142518553D03*
X124304193Y-134803829D03*
X126949200Y-127660400D03*
X128447800Y-127660400D03*
X127279400Y-124307600D03*
X123037600Y-124307600D03*
X129743209Y-133680200D03*
X109918500Y-115912900D03*
X115735100Y-117094000D03*
X122901298Y-125558114D03*
X120142010Y-119164450D03*
X121651082Y-104150338D03*
X118884700Y-102577900D03*
X107696000Y-104914700D03*
X88798400Y-111480600D03*
X134518400Y-118541800D03*
X131953000Y-118491000D03*
X123494117Y-104657498D03*
X122440700Y-103873300D03*
X131064000Y-118465600D03*
X120352008Y-104185258D03*
X119183596Y-104306742D03*
X117880438Y-107432011D03*
X117665500Y-103597510D03*
X99604857Y-109469708D03*
X98805789Y-107302366D03*
X122905309Y-119205680D03*
X123469583Y-119710775D03*
X120022466Y-116886264D03*
X120243600Y-122123200D03*
X122402600Y-116154200D03*
X116913650Y-115239800D03*
X118668800Y-122555000D03*
X118321022Y-115489588D03*
X117398800Y-120065800D03*
X118262400Y-123621800D03*
X118620967Y-124413381D03*
X118844945Y-112622147D03*
X114837761Y-116211621D03*
X120289706Y-115221708D03*
X123012200Y-131140200D03*
X125247400Y-116128810D03*
X124917190Y-131208779D03*
X118516609Y-126125834D03*
X117779361Y-115975876D03*
X115341400Y-118338600D03*
X120957993Y-126878979D03*
X119437581Y-116326779D03*
X118383887Y-128067204D03*
X119489433Y-115358496D03*
X123015108Y-140981923D03*
X122555000Y-138150600D03*
X130803174Y-139909047D03*
X127078250Y-138803340D03*
X125346634Y-138947226D03*
X137700000Y-135400000D03*
X126132514Y-119155007D03*
X137700000Y-133500000D03*
X125399810Y-119426636D03*
X128244600Y-133553200D03*
X127939800Y-131089400D03*
X129108200Y-118033800D03*
X99872800Y-122631200D03*
X132689600Y-125501400D03*
X131057520Y-141860018D03*
X125528198Y-107844552D03*
X119760006Y-107385017D03*
X120977612Y-104527448D03*
X117143036Y-107434657D03*
X116255800Y-107619800D03*
X130073400Y-131648200D03*
X127381000Y-133858000D03*
X125806200Y-134772400D03*
X125907800Y-130911600D03*
X121562016Y-133420271D03*
X113323204Y-140680835D03*
X121716484Y-123774155D03*
X122806318Y-122658954D03*
X127695742Y-122687226D03*
X128962499Y-134652099D03*
X118007881Y-138862319D03*
X121440241Y-125412448D03*
X118019013Y-142073394D03*
X122410327Y-140452610D03*
X126548072Y-122217148D03*
X123520200Y-122199400D03*
X123317000Y-134670800D03*
X118948200Y-139319000D03*
X125882490Y-118489192D03*
X121183400Y-134874000D03*
X127254000Y-122123200D03*
X130378200Y-132918200D03*
X127508000Y-108051600D03*
X123219538Y-116128810D03*
X113858815Y-112771966D03*
X125399810Y-117753082D03*
X124635102Y-112044528D03*
D30*
X110286800Y-127863600D03*
D11*
X131902200Y-131064000D03*
X113512600Y-136855200D03*
X120570736Y-141969357D03*
X129819400Y-124899430D03*
X123317000Y-128977671D03*
X127279400Y-128977671D03*
X128701800Y-123545600D03*
D30*
X112090200Y-139623800D03*
X111302800Y-140411200D03*
D11*
X128933432Y-137998189D03*
X131313295Y-142755486D03*
X125730000Y-138226800D03*
X126233295Y-142755486D03*
X124259136Y-138087845D03*
X123698000Y-142773400D03*
X127838200Y-138328400D03*
X128761165Y-142772992D03*
D31*
X110134400Y-134975600D02*
X110134400Y-133299200D01*
X110134400Y-133299200D02*
X110236000Y-133197600D01*
D32*
X106900000Y-124003617D02*
X100189286Y-117292903D01*
X106900000Y-124206000D02*
X106900000Y-124003617D01*
X106900000Y-140200000D02*
X106900000Y-124206000D01*
X106900000Y-124206000D02*
X105740200Y-125365800D01*
X105740200Y-125365800D02*
X105740200Y-128320800D01*
X105740200Y-131343400D02*
X105740200Y-130073400D01*
X105740200Y-130073400D02*
X105740200Y-128320800D01*
X105740200Y-131343400D02*
X105740200Y-134686040D01*
X105740200Y-134686040D02*
X106690160Y-135636000D01*
X126748500Y-111506000D02*
X126748500Y-109750900D01*
X126748500Y-109750900D02*
X127025400Y-109474000D01*
X126141400Y-109321600D02*
X126873000Y-109321600D01*
X126873000Y-109321600D02*
X127025400Y-109474000D01*
X112969800Y-120853200D02*
X112969800Y-120728200D01*
X112969800Y-120728200D02*
X114561600Y-119136400D01*
X114561600Y-119136400D02*
X115743200Y-119136400D01*
X115743200Y-119136400D02*
X116347200Y-119740400D01*
X116347200Y-119740400D02*
X116347200Y-120040400D01*
X112522000Y-122610800D02*
X112969800Y-122163000D01*
X112969800Y-122163000D02*
X112969800Y-120853200D01*
X112522000Y-122610800D02*
X112522000Y-123314800D01*
D31*
X112522000Y-123314800D02*
X107588817Y-123314800D01*
X107588817Y-123314800D02*
X106900000Y-124003617D01*
D32*
X104337500Y-144970000D02*
X104337500Y-142762500D01*
X104337500Y-142762500D02*
X106900000Y-140200000D01*
X118279310Y-125101524D02*
X118324500Y-125056334D01*
X117144800Y-126796800D02*
X117144800Y-126362718D01*
X118279310Y-125228208D02*
X118279310Y-125101524D01*
X117144800Y-126362718D02*
X118025311Y-125482207D01*
X118025311Y-125482207D02*
X118279310Y-125228208D01*
X121609752Y-126224665D02*
X121250542Y-126224665D01*
X121664081Y-126278994D02*
X121609752Y-126224665D01*
X129326994Y-126278994D02*
X121664081Y-126278994D01*
X131267200Y-127314960D02*
X130362960Y-127314960D01*
X130362960Y-127314960D02*
X129326994Y-126278994D01*
X132241101Y-127314960D02*
X132781051Y-126775010D01*
X131267200Y-127314960D02*
X132241101Y-127314960D01*
X132781051Y-126775010D02*
X132781051Y-126415800D01*
X133146800Y-129073400D02*
X134239000Y-129073400D01*
X135396000Y-128041400D02*
X137039350Y-128041400D01*
X137039350Y-128041400D02*
X138511280Y-129513330D01*
X138511280Y-129513330D02*
X138511280Y-129814320D01*
X134239000Y-129073400D02*
X134364000Y-129073400D01*
X134364000Y-129073400D02*
X135396000Y-128041400D01*
X133146800Y-129073400D02*
X132389120Y-128315720D01*
X132389120Y-128315720D02*
X131267200Y-128315720D01*
X122265440Y-120815100D02*
X122265440Y-117956840D01*
X122265440Y-117956840D02*
X122240800Y-117932200D01*
X122265440Y-118236240D02*
X122240800Y-118211600D01*
X118861840Y-129816860D02*
X119766080Y-129816860D01*
X118465600Y-131372588D02*
X118465600Y-130213100D01*
X115976400Y-133985000D02*
X115976400Y-133861788D01*
X115976400Y-133861788D02*
X118465600Y-131372588D01*
X118465600Y-130213100D02*
X118861840Y-129816860D01*
X121414530Y-115544600D02*
X121414530Y-114465870D01*
X121414530Y-114465870D02*
X121453400Y-114427000D01*
X126250700Y-115176300D02*
X126250700Y-114779300D01*
X126250700Y-114779300D02*
X125441200Y-113969800D01*
X117779800Y-113245900D02*
X117654800Y-113245900D01*
X117654800Y-113245900D02*
X116854700Y-112445800D01*
X116854700Y-112445800D02*
X116742010Y-112445800D01*
X116742010Y-112445800D02*
X116382800Y-112445800D01*
X122875800Y-110058200D02*
X122875800Y-112265352D01*
X122875800Y-112265352D02*
X122692600Y-112448552D01*
X121777000Y-111633000D02*
X121777000Y-112450479D01*
X121777000Y-112450479D02*
X121553079Y-112674400D01*
X121553079Y-112674400D02*
X121361200Y-112674400D01*
X119938800Y-112674400D02*
X119938800Y-111794800D01*
X119938800Y-111794800D02*
X119777000Y-111633000D01*
X115325400Y-111379000D02*
X115325400Y-112315047D01*
X115325400Y-112315047D02*
X114944086Y-112696361D01*
X114944086Y-112696361D02*
X114823761Y-112696361D01*
X114823761Y-112696361D02*
X114792778Y-112727344D01*
X125442796Y-107138486D02*
X125877086Y-107138486D01*
X125877086Y-107138486D02*
X126485400Y-107746800D01*
X126485400Y-107746800D02*
X126485400Y-107621800D01*
X121798267Y-107569000D02*
X121576202Y-107346935D01*
X122564400Y-107569000D02*
X121798267Y-107569000D01*
X119160800Y-107579000D02*
X119022084Y-107440284D01*
X119022084Y-107440284D02*
X118950805Y-107440284D01*
X118950805Y-107440284D02*
X118591595Y-107440284D01*
X119160800Y-108458000D02*
X119160800Y-107579000D01*
X117535200Y-105892600D02*
X117535200Y-105767600D01*
X117535200Y-105767600D02*
X116205438Y-104437838D01*
X116205438Y-104437838D02*
X116205438Y-104037264D01*
X115489658Y-104190811D02*
X110931171Y-104190811D01*
X110931171Y-104190811D02*
X109435489Y-105686493D01*
X109435489Y-105686493D02*
X109435489Y-106542389D01*
X109435489Y-106542389D02*
X109461300Y-106568200D01*
X115535200Y-104236353D02*
X115489658Y-104190811D01*
X115535200Y-105892600D02*
X115535200Y-104236353D01*
X111188500Y-106580900D02*
X111188500Y-105307085D01*
X111417723Y-105077862D02*
X111671722Y-104823863D01*
X111188500Y-105307085D02*
X111417723Y-105077862D01*
X115338100Y-108648500D02*
X115338100Y-108523500D01*
X114410281Y-107595681D02*
X114075263Y-107595681D01*
X115338100Y-108523500D02*
X114410281Y-107595681D01*
X113338100Y-107545137D02*
X113368335Y-107514902D01*
X113338100Y-108648500D02*
X113338100Y-107545137D01*
X133442460Y-127815340D02*
X134239000Y-127018800D01*
X131267200Y-127815340D02*
X133442460Y-127815340D01*
X134114000Y-127018800D02*
X134239000Y-127018800D01*
X136011920Y-126014480D02*
X135243320Y-126014480D01*
X135243320Y-126014480D02*
X134239000Y-127018800D01*
D33*
X103962200Y-116128800D02*
X104216199Y-115874801D01*
X104216199Y-115874801D02*
X104305101Y-115874801D01*
X104305101Y-115874801D02*
X104330500Y-115900200D01*
X108968500Y-115900200D02*
X104330500Y-115900200D01*
X66630000Y-137601960D02*
X66182240Y-137601960D01*
X66182240Y-137601960D02*
X65582800Y-138201400D01*
X102827538Y-110464600D02*
X103671698Y-109620440D01*
X99195376Y-110464600D02*
X102827538Y-110464600D01*
X95051578Y-106320802D02*
X99195376Y-110464600D01*
X76495428Y-106320802D02*
X95051578Y-106320802D01*
X103671698Y-109620440D02*
X103925697Y-109366441D01*
X66662300Y-116153930D02*
X76495428Y-106320802D01*
X66662300Y-118795800D02*
X66662300Y-116153930D01*
X103925697Y-109366441D02*
X103925697Y-108517403D01*
X103925697Y-108517403D02*
X103962200Y-108480900D01*
X107112650Y-111427500D02*
X107050264Y-111489886D01*
X108237500Y-111427500D02*
X107112650Y-111427500D01*
X108993900Y-112183900D02*
X108237500Y-111427500D01*
X108993900Y-112483900D02*
X108993900Y-112183900D01*
X76561599Y-138070823D02*
X76307600Y-138324822D01*
X77030462Y-137601960D02*
X76561599Y-138070823D01*
X77940000Y-137601960D02*
X77030462Y-137601960D01*
X98713863Y-111264700D02*
X104165400Y-111264700D01*
X94552031Y-107102868D02*
X98713863Y-111264700D01*
X80298332Y-107102868D02*
X94552031Y-107102868D01*
X104165400Y-111264700D02*
X105778300Y-109651800D01*
X76108837Y-111292363D02*
X80298332Y-107102868D01*
X76530200Y-120230900D02*
X76108837Y-119809537D01*
X76108837Y-119809537D02*
X76108837Y-111292363D01*
X105778300Y-108480900D02*
X105778300Y-109651800D01*
X108224800Y-114185700D02*
X107780073Y-113740973D01*
X107780073Y-113740973D02*
X107780073Y-113314473D01*
X108981200Y-114185700D02*
X108224800Y-114185700D01*
X107780073Y-113314473D02*
X107780073Y-112955263D01*
X89190000Y-137601960D02*
X89190000Y-138015807D01*
X89190000Y-138015807D02*
X87540061Y-138015807D01*
X87540061Y-138015807D02*
X87286062Y-138269806D01*
X107459056Y-109849905D02*
X105396561Y-111912400D01*
X105396561Y-111912400D02*
X98165067Y-111912400D01*
X98165067Y-111912400D02*
X94367020Y-108114353D01*
X94367020Y-108114353D02*
X87494162Y-108114353D01*
X87494162Y-108114353D02*
X87477656Y-108130859D01*
X107459056Y-109849905D02*
X107646284Y-109662677D01*
X107646284Y-109662677D02*
X107646284Y-108481984D01*
X107646284Y-108481984D02*
X107645200Y-108480900D01*
D32*
X125460800Y-111760000D02*
X125460800Y-112664000D01*
X125401042Y-112723758D02*
X125348091Y-112723758D01*
X125348091Y-112723758D02*
X124988881Y-112723758D01*
X125460800Y-112664000D02*
X125401042Y-112723758D01*
X128648500Y-110602000D02*
X128727200Y-110523300D01*
X128648500Y-111506000D02*
X128648500Y-110602000D01*
X124633067Y-104720637D02*
X124273857Y-104720637D01*
X128727200Y-107721400D02*
X125726437Y-104720637D01*
X128727200Y-110523300D02*
X128727200Y-107721400D01*
X125726437Y-104720637D02*
X124633067Y-104720637D01*
X117297188Y-130759188D02*
X117297188Y-131268956D01*
X117195600Y-130657600D02*
X117297188Y-130759188D01*
X117297188Y-131268956D02*
X117297188Y-131628166D01*
X121985398Y-130938410D02*
X122239397Y-130684411D01*
X121985398Y-131189804D02*
X121985398Y-130938410D01*
X121767600Y-132316220D02*
X121767600Y-131407602D01*
X121767600Y-131407602D02*
X121985398Y-131189804D01*
X117170200Y-128727200D02*
X118230860Y-128727200D01*
X118230860Y-128727200D02*
X118820140Y-129316480D01*
X118820140Y-129316480D02*
X118861840Y-129316480D01*
X118861840Y-129316480D02*
X119766080Y-129316480D01*
X128580539Y-124315220D02*
X128188891Y-124706868D01*
X131267200Y-124315220D02*
X128580539Y-124315220D01*
X128188891Y-124706868D02*
X127934892Y-124960867D01*
X123469410Y-116916200D02*
X124002801Y-116382809D01*
X121537438Y-116916200D02*
X123469410Y-116916200D01*
X124002801Y-116382809D02*
X124256800Y-116128810D01*
X117170960Y-133313820D02*
X117172076Y-133744609D01*
X117170960Y-133742451D02*
X117170960Y-133743493D01*
X117170960Y-133743493D02*
X117172076Y-133744609D01*
X119766080Y-130314700D02*
X119766080Y-130718700D01*
X119766080Y-130718700D02*
X117170960Y-133313820D01*
D34*
X138468100Y-138391900D02*
X138623014Y-138236986D01*
X138623014Y-138236986D02*
X138623014Y-137320086D01*
X138623014Y-137320086D02*
X138643400Y-137299700D01*
D35*
X121043702Y-121751342D02*
X120640858Y-121348498D01*
X122783601Y-123999209D02*
X122783601Y-123731844D01*
X121043702Y-121991945D02*
X121043702Y-121751342D01*
X120640858Y-121348498D02*
X118706902Y-121348498D01*
X122783601Y-123731844D02*
X121043702Y-121991945D01*
X117894799Y-122160601D02*
X117144800Y-122910600D01*
X118706902Y-121348498D02*
X117894799Y-122160601D01*
D32*
X118756061Y-117023261D02*
X118396851Y-117023261D01*
X120983173Y-117470465D02*
X119742049Y-117470465D01*
X119742049Y-117470465D02*
X119294845Y-117023261D01*
X119294845Y-117023261D02*
X118756061Y-117023261D01*
X121537438Y-116916200D02*
X120983173Y-117470465D01*
X121537438Y-116916200D02*
X120904000Y-116916200D01*
X120904000Y-116916200D02*
X120904000Y-118719600D01*
X120904000Y-118719600D02*
X121767600Y-119583200D01*
X121767600Y-119583200D02*
X121767600Y-120815100D01*
X133096000Y-120091200D02*
X133096000Y-122139200D01*
X133096000Y-122139200D02*
X133086600Y-122148600D01*
X131267200Y-124315220D02*
X132171440Y-124315220D01*
X132171440Y-124315220D02*
X133086600Y-123400060D01*
X133086600Y-123400060D02*
X133086600Y-123027600D01*
X133086600Y-123027600D02*
X133086600Y-122148600D01*
X127533399Y-124053601D02*
X127279400Y-124307600D01*
X127533399Y-123849381D02*
X127533399Y-124053601D01*
X128295413Y-123087367D02*
X127533399Y-123849381D01*
X128267460Y-120815100D02*
X128267460Y-121625447D01*
X128267460Y-121625447D02*
X128295413Y-121653400D01*
X128295413Y-121653400D02*
X128295413Y-123087367D01*
D36*
X122223447Y-142518553D02*
X122527647Y-142518553D01*
X122000000Y-142742000D02*
X122223447Y-142518553D01*
X122000000Y-144825000D02*
X122000000Y-142742000D01*
D35*
X117144800Y-122910600D02*
X115487200Y-122910600D01*
X115487200Y-122910600D02*
X115062000Y-122485400D01*
D32*
X121767600Y-120815100D02*
X121767600Y-121719340D01*
X121767600Y-121719340D02*
X121793000Y-121744740D01*
X121793000Y-121744740D02*
X121793000Y-123008608D01*
X121793000Y-123008608D02*
X122783601Y-123999209D01*
D35*
X122783601Y-124053601D02*
X122783601Y-123999209D01*
X123037600Y-124307600D02*
X122783601Y-124053601D01*
D32*
X129265680Y-131411980D02*
X129265680Y-132316220D01*
X129265680Y-129976880D02*
X129265680Y-131411980D01*
X126949200Y-127660400D02*
X129265680Y-129976880D01*
X124485400Y-134985036D02*
X124304193Y-134803829D01*
X124485400Y-135952800D02*
X124485400Y-134985036D01*
X128447800Y-128399540D02*
X128447800Y-127660400D01*
X131267200Y-130314700D02*
X130362960Y-130314700D01*
X130362960Y-130314700D02*
X128447800Y-128399540D01*
X129265680Y-132316220D02*
X129265680Y-132816460D01*
X129265680Y-132816460D02*
X129743209Y-133293989D01*
X129743209Y-133293989D02*
X129743209Y-133320990D01*
X129743209Y-133320990D02*
X129743209Y-133680200D01*
X96750000Y-143121000D02*
X96750000Y-144950000D01*
X116347200Y-118135400D02*
X116347200Y-117706100D01*
X116347200Y-117706100D02*
X115735100Y-117094000D01*
X96750000Y-143121000D02*
X100501200Y-139369800D01*
X100501200Y-139369800D02*
X101100000Y-138771000D01*
X101539040Y-135636000D02*
X101539040Y-137460990D01*
X101539040Y-137460990D02*
X100501200Y-138498830D01*
X100501200Y-138498830D02*
X100501200Y-139369800D01*
X102438200Y-128270000D02*
X102438200Y-128016000D01*
X102438200Y-128016000D02*
X101422200Y-127000000D01*
X101422200Y-127000000D02*
X98654040Y-127000000D01*
X98654040Y-127000000D02*
X93000000Y-127000000D01*
X102438200Y-131343400D02*
X102438200Y-128270000D01*
X101539040Y-135636000D02*
X101539040Y-132242560D01*
X101539040Y-132242560D02*
X102438200Y-131343400D01*
X101100000Y-128700000D02*
X99400000Y-127000000D01*
X81750000Y-127000000D02*
X76095960Y-127000000D01*
X76095960Y-127000000D02*
X70440000Y-127000000D01*
X93000000Y-127000000D02*
X81750000Y-127000000D01*
X101100000Y-138771000D02*
X101100000Y-128700000D01*
X99400000Y-127000000D02*
X93000000Y-127000000D01*
X123159544Y-125816360D02*
X123155297Y-125812113D01*
X131267200Y-125816360D02*
X123159544Y-125816360D01*
X123155297Y-125812113D02*
X122901298Y-125558114D01*
X119888011Y-119418449D02*
X120142010Y-119164450D01*
X118247200Y-120040400D02*
X119266060Y-120040400D01*
X119888011Y-118910451D02*
X120142010Y-119164450D01*
X119266060Y-120040400D02*
X119888011Y-119418449D01*
X119112960Y-118135400D02*
X119888011Y-118910451D01*
X118247200Y-118135400D02*
X119112960Y-118135400D01*
X115452400Y-121335800D02*
X117251800Y-121335800D01*
X117251800Y-121335800D02*
X118247200Y-120340400D01*
X118247200Y-120340400D02*
X118247200Y-120040400D01*
X114969800Y-120853200D02*
X115452400Y-121335800D01*
X120078644Y-102577900D02*
X121397083Y-103896339D01*
X118884700Y-102577900D02*
X120078644Y-102577900D01*
X121397083Y-103896339D02*
X121651082Y-104150338D01*
X134518400Y-118541800D02*
X135280400Y-117779800D01*
X135280400Y-117779800D02*
X135280400Y-116824800D01*
X132105400Y-119126000D02*
X133934200Y-119126000D01*
X133934200Y-119126000D02*
X134518400Y-118541800D01*
X131267200Y-122816620D02*
X131199039Y-122748459D01*
X131199039Y-122748459D02*
X131199039Y-121639799D01*
X131199039Y-121639799D02*
X132105400Y-120733438D01*
X132105400Y-120733438D02*
X132105400Y-119126000D01*
X132765800Y-118491000D02*
X133527800Y-117729000D01*
X133527800Y-117729000D02*
X133527800Y-116824800D01*
X131953000Y-118491000D02*
X132765800Y-118491000D01*
X131622800Y-119176800D02*
X131622800Y-118821200D01*
X131622800Y-118821200D02*
X131953000Y-118491000D01*
X131267200Y-123314460D02*
X129966356Y-123314460D01*
X129966356Y-123314460D02*
X129717811Y-123065915D01*
X131622800Y-120499174D02*
X131622800Y-119176800D01*
X129717811Y-123065915D02*
X129717811Y-122404163D01*
X129717811Y-122404163D02*
X131622800Y-120499174D01*
X123494117Y-104657498D02*
X123240118Y-104911497D01*
X119973753Y-109879009D02*
X116485791Y-109879009D01*
X123240118Y-104911497D02*
X123536699Y-105208078D01*
X116485791Y-109879009D02*
X116303888Y-110060912D01*
X123536699Y-105208078D02*
X123536699Y-106316063D01*
X123536699Y-106316063D02*
X123238963Y-106613799D01*
X123238963Y-106613799D02*
X123328561Y-106613799D01*
X111472500Y-115900200D02*
X110868500Y-115900200D01*
X112306100Y-115066600D02*
X111472500Y-115900200D01*
X123328561Y-106613799D02*
X123394601Y-106679839D01*
X123394601Y-106679839D02*
X123394601Y-108458161D01*
X112306100Y-110718600D02*
X112306100Y-115066600D01*
X123394601Y-108458161D02*
X123328561Y-108524201D01*
X121328561Y-108524201D02*
X119973753Y-109879009D01*
X123328561Y-108524201D02*
X121328561Y-108524201D01*
X112963788Y-110060912D02*
X112306100Y-110718600D01*
X116303888Y-110060912D02*
X112963788Y-110060912D01*
X103962200Y-106580900D02*
X103962200Y-105976900D01*
X119899614Y-101624314D02*
X121894601Y-103619301D01*
X103962200Y-105976900D02*
X108313700Y-101625400D01*
X109685300Y-101625400D02*
X109686386Y-101624314D01*
X108313700Y-101625400D02*
X109685300Y-101625400D01*
X109686386Y-101624314D02*
X119899614Y-101624314D01*
X122186701Y-103619301D02*
X122440700Y-103873300D01*
X121894601Y-103619301D02*
X122186701Y-103619301D01*
X131064000Y-118465600D02*
X131064000Y-117546200D01*
X131064000Y-117546200D02*
X131800600Y-116809600D01*
X131038600Y-119100600D02*
X131038600Y-118491000D01*
X131038600Y-118491000D02*
X131064000Y-118465600D01*
X131038600Y-120436782D02*
X131038600Y-119100600D01*
X129260600Y-123367800D02*
X129260600Y-122214782D01*
X129260600Y-122214782D02*
X131038600Y-120436782D01*
X129707640Y-123814840D02*
X129260600Y-123367800D01*
X130305648Y-123814840D02*
X129707640Y-123814840D01*
X131267200Y-123814840D02*
X130305648Y-123814840D01*
X112168701Y-107874637D02*
X112168701Y-109095061D01*
X113195537Y-106847801D02*
X112168701Y-107874637D01*
X112168701Y-109095061D02*
X110893900Y-110369862D01*
X118299361Y-106847801D02*
X113195537Y-106847801D01*
X120352008Y-104185258D02*
X120352008Y-104795154D01*
X120352008Y-104795154D02*
X118299361Y-106847801D01*
X110893900Y-110369862D02*
X110893900Y-111579900D01*
X110893900Y-111579900D02*
X110893900Y-112483900D01*
X105778300Y-106580900D02*
X105778300Y-105594983D01*
X105778300Y-105594983D02*
X109290672Y-102082611D01*
X109290672Y-102082611D02*
X117318675Y-102082611D01*
X117318675Y-102082611D02*
X119183596Y-103947532D01*
X119183596Y-103947532D02*
X119183596Y-104306742D01*
X118110000Y-109228162D02*
X118110000Y-107855219D01*
X111485200Y-114185700D02*
X111696500Y-113974400D01*
X110881200Y-114185700D02*
X111485200Y-114185700D01*
X111696500Y-113974400D02*
X111696500Y-110213855D01*
X112306654Y-109603701D02*
X116102261Y-109603701D01*
X117974785Y-107526358D02*
X117880438Y-107432011D01*
X117974785Y-107720004D02*
X117974785Y-107526358D01*
X117916363Y-109421799D02*
X118110000Y-109228162D01*
X116284163Y-109421799D02*
X117916363Y-109421799D01*
X111696500Y-110213855D02*
X112306654Y-109603701D01*
X118110000Y-107855219D02*
X117974785Y-107720004D01*
X116102261Y-109603701D02*
X116284163Y-109421799D01*
X107645200Y-106580900D02*
X107645200Y-105976900D01*
X107645200Y-105976900D02*
X111069600Y-102552500D01*
X111069600Y-102552500D02*
X111717300Y-102552500D01*
X111717300Y-102552500D02*
X116620490Y-102552500D01*
X116620490Y-102552500D02*
X117665500Y-103597510D01*
D37*
X99604857Y-109469708D02*
X101327765Y-107746800D01*
X101327765Y-107746800D02*
X109293100Y-107746800D01*
X109293100Y-107746800D02*
X109461300Y-107915000D01*
X109461300Y-107915000D02*
X109461300Y-108468200D01*
X99164999Y-107302366D02*
X98805789Y-107302366D01*
X110563166Y-107302366D02*
X99164999Y-107302366D01*
X111188500Y-107927700D02*
X110563166Y-107302366D01*
X111188500Y-108480900D02*
X111188500Y-107927700D01*
D32*
X123159308Y-118951681D02*
X122905309Y-119205680D01*
X123954373Y-118951681D02*
X123159308Y-118951681D01*
X124767340Y-120815100D02*
X124767340Y-119764648D01*
X124767340Y-119764648D02*
X123954373Y-118951681D01*
X124266960Y-120815100D02*
X124266960Y-119910860D01*
X123828793Y-119710775D02*
X123469583Y-119710775D01*
X124266960Y-119910860D02*
X124066875Y-119710775D01*
X124066875Y-119710775D02*
X123828793Y-119710775D01*
X124266960Y-120815100D02*
X124246781Y-120794921D01*
X122402600Y-116154200D02*
X120754530Y-116154200D01*
X120754530Y-116154200D02*
X120276465Y-116632265D01*
X120276465Y-116632265D02*
X120022466Y-116886264D01*
X119766080Y-122816620D02*
X119766080Y-122600720D01*
X119766080Y-122600720D02*
X120243600Y-122123200D01*
X119766080Y-123314460D02*
X118861840Y-123314460D01*
X118861840Y-123314460D02*
X118668800Y-123121420D01*
X118668800Y-123121420D02*
X118668800Y-122555000D01*
X117398800Y-120065800D02*
X117398800Y-117179434D01*
X118575021Y-115743587D02*
X118321022Y-115489588D01*
X118197109Y-116423709D02*
X118575021Y-116045797D01*
X118575021Y-116045797D02*
X118575021Y-115743587D01*
X118154525Y-116423709D02*
X118197109Y-116423709D01*
X117398800Y-117179434D02*
X118154525Y-116423709D01*
X119766080Y-123814840D02*
X118455440Y-123814840D01*
X118455440Y-123814840D02*
X118262400Y-123621800D01*
X119766080Y-124315220D02*
X118719128Y-124315220D01*
X118719128Y-124315220D02*
X118620967Y-124413381D01*
X118844945Y-113900117D02*
X118844945Y-112981357D01*
X118668961Y-114076101D02*
X118844945Y-113900117D01*
X116973281Y-114076101D02*
X118668961Y-114076101D01*
X118844945Y-112981357D02*
X118844945Y-112622147D01*
X114837761Y-116211621D02*
X116973281Y-114076101D01*
X122765820Y-132316220D02*
X122765820Y-131386580D01*
X122765820Y-131386580D02*
X123012200Y-131140200D01*
X123766580Y-132316220D02*
X123766580Y-131411980D01*
X123766580Y-131411980D02*
X123969781Y-131208779D01*
X123969781Y-131208779D02*
X124917190Y-131208779D01*
X118861840Y-126814580D02*
X118516609Y-126469349D01*
X119766080Y-126814580D02*
X118861840Y-126814580D01*
X118516609Y-126469349D02*
X118516609Y-126125834D01*
X115087401Y-116788179D02*
X115899704Y-115975876D01*
X115087401Y-118084601D02*
X115087401Y-116788179D01*
X115899704Y-115975876D02*
X117420151Y-115975876D01*
X117420151Y-115975876D02*
X117779361Y-115975876D01*
X115341400Y-118338600D02*
X115087401Y-118084601D01*
X120670320Y-127314960D02*
X120957993Y-127027287D01*
X119766080Y-127314960D02*
X120670320Y-127314960D01*
X120957993Y-127027287D02*
X120957993Y-126878979D01*
X118635751Y-127815340D02*
X118383887Y-128067204D01*
X119766080Y-127815340D02*
X118635751Y-127815340D01*
X128193800Y-140495562D02*
X127707439Y-140981923D01*
X129641600Y-139893800D02*
X128762600Y-139893800D01*
X127707439Y-140981923D02*
X123374318Y-140981923D01*
X128193800Y-140462600D02*
X128193800Y-140495562D01*
X123374318Y-140981923D02*
X123015108Y-140981923D01*
X128762600Y-139893800D02*
X128193800Y-140462600D01*
X121920000Y-137033000D02*
X121920000Y-137515600D01*
X121920000Y-137515600D02*
X122555000Y-138150600D01*
X130803174Y-139909047D02*
X129656847Y-139909047D01*
X129656847Y-139909047D02*
X129641600Y-139893800D01*
X130970061Y-139057339D02*
X131683760Y-138343640D01*
X131683760Y-138343640D02*
X131683760Y-137224200D01*
X127078250Y-138803340D02*
X127332249Y-139057339D01*
X127332249Y-139057339D02*
X130970061Y-139057339D01*
X127101600Y-138826690D02*
X127078250Y-138803340D01*
X127101600Y-139868400D02*
X127101600Y-138826690D01*
X124561600Y-139868400D02*
X121481093Y-139868400D01*
X121481093Y-139868400D02*
X119694960Y-138082267D01*
X119694960Y-138082267D02*
X119694960Y-137275000D01*
X124561600Y-139868400D02*
X125186385Y-139868400D01*
X125186385Y-139868400D02*
X125440600Y-139614185D01*
X125440600Y-139614185D02*
X125440600Y-139041192D01*
X125440600Y-139041192D02*
X125346634Y-138947226D01*
D34*
X138638100Y-135400000D02*
X138643400Y-135394700D01*
D32*
X126132514Y-119670677D02*
X126132514Y-119514217D01*
X125765560Y-120037631D02*
X126132514Y-119670677D01*
X125765560Y-120815100D02*
X125765560Y-120037631D01*
X126132514Y-119514217D02*
X126132514Y-119155007D01*
D34*
X137700000Y-133500000D02*
X138582300Y-133500000D01*
X138582300Y-133500000D02*
X138618000Y-133464300D01*
D32*
X125267720Y-120815100D02*
X125267720Y-119558726D01*
X125267720Y-119558726D02*
X125399810Y-119426636D01*
X127767080Y-132316220D02*
X127767080Y-133220460D01*
X127767080Y-133220460D02*
X128099820Y-133553200D01*
X128099820Y-133553200D02*
X128244600Y-133553200D01*
X128267460Y-132316220D02*
X128267460Y-131417060D01*
X128267460Y-131417060D02*
X127939800Y-131089400D01*
X129108200Y-118033800D02*
X129819400Y-118033800D01*
X129819400Y-118033800D02*
X129921000Y-118135400D01*
X129916000Y-119054800D02*
X129916000Y-118465600D01*
X129916000Y-118465600D02*
X129916000Y-118033800D01*
X129916000Y-118033800D02*
X129916000Y-116152600D01*
X129916000Y-116152600D02*
X129939800Y-116128800D01*
X129265680Y-119705120D02*
X129916000Y-119054800D01*
X129265680Y-120815100D02*
X129265680Y-119705120D01*
D34*
X136743400Y-135394700D02*
X135364220Y-135394700D01*
X136718000Y-133464300D02*
X135364220Y-133464300D01*
X136743400Y-137299700D02*
X135389620Y-137299700D01*
D37*
X132689600Y-125501400D02*
X132689600Y-125696079D01*
X132222241Y-126163438D02*
X132222241Y-126712979D01*
X132689600Y-125696079D02*
X132222241Y-126163438D01*
X132222241Y-126712979D02*
X132120640Y-126814580D01*
X132120640Y-126814580D02*
X131267200Y-126814580D01*
D32*
X132181600Y-141868400D02*
X131065902Y-141868400D01*
X131065902Y-141868400D02*
X131057520Y-141860018D01*
X67900000Y-137601960D02*
X67900000Y-140130922D01*
X67900000Y-140130922D02*
X68241400Y-140472322D01*
X68241400Y-140472322D02*
X68241400Y-140524408D01*
X68241400Y-140524408D02*
X68991992Y-141275000D01*
X68991992Y-141275000D02*
X70988840Y-141275000D01*
X125430446Y-107746800D02*
X125528198Y-107844552D01*
X124485400Y-107746800D02*
X125430446Y-107746800D01*
D33*
X74250000Y-140950000D02*
X74607100Y-140950000D01*
X74607100Y-140950000D02*
X75806300Y-139750800D01*
D32*
X71710000Y-137601960D02*
X71710000Y-140433833D01*
X71710000Y-140433833D02*
X72551167Y-141275000D01*
X72551167Y-141275000D02*
X73925000Y-141275000D01*
X69170000Y-137601960D02*
X69170000Y-139456160D01*
X69170000Y-139456160D02*
X70988840Y-141275000D01*
X70988840Y-141275000D02*
X73925000Y-141275000D01*
X72980000Y-137601960D02*
X72980000Y-140330000D01*
X72980000Y-140330000D02*
X73925000Y-141275000D01*
X73925000Y-141275000D02*
X74250000Y-140950000D01*
X74250000Y-140950000D02*
X74250000Y-137601960D01*
X73925000Y-145000000D02*
X73925000Y-141275000D01*
D33*
X120564400Y-107569000D02*
X120380417Y-107385017D01*
X120119216Y-107385017D02*
X119760006Y-107385017D01*
X120380417Y-107385017D02*
X120119216Y-107385017D01*
D32*
X120564400Y-107569000D02*
X120564400Y-105299870D01*
X120564400Y-105299870D02*
X120977612Y-104886658D01*
X120977612Y-104886658D02*
X120977612Y-104527448D01*
X85560000Y-139724910D02*
X85420200Y-139864710D01*
X85420200Y-139864710D02*
X82113910Y-143171000D01*
X85560000Y-137601960D02*
X85560000Y-139724910D01*
X82113910Y-143171000D02*
X81550000Y-143171000D01*
X84290000Y-137601960D02*
X84290000Y-140006709D01*
X84290000Y-140006709D02*
X81550000Y-142746709D01*
X81550000Y-142746709D02*
X81550000Y-143171000D01*
X83020000Y-137601960D02*
X83020000Y-140359000D01*
X83020000Y-140359000D02*
X80879000Y-142500000D01*
X80000000Y-142500000D02*
X80500000Y-142500000D01*
X80500000Y-142500000D02*
X80879000Y-142500000D01*
X80480000Y-137601960D02*
X80480000Y-142480000D01*
X80480000Y-142480000D02*
X80500000Y-142500000D01*
X80879000Y-142500000D02*
X81550000Y-143171000D01*
X81550000Y-143171000D02*
X81550000Y-145000000D01*
X79210000Y-141710000D02*
X80000000Y-142500000D01*
X79210000Y-137601960D02*
X79210000Y-141710000D01*
X117160800Y-108458000D02*
X117160800Y-107452421D01*
X117160800Y-107452421D02*
X117143036Y-107434657D01*
D33*
X116255800Y-107619800D02*
X116322600Y-107619800D01*
X116322600Y-107619800D02*
X117160800Y-108458000D01*
D32*
X96810000Y-138752580D02*
X95402400Y-140160180D01*
X95402400Y-140160180D02*
X93992580Y-141570000D01*
X96810000Y-137601960D02*
X96810000Y-138752580D01*
X93992580Y-141570000D02*
X93426160Y-141570000D01*
X95540000Y-137601960D02*
X95540000Y-139456160D01*
X95540000Y-139456160D02*
X93426160Y-141570000D01*
X93426160Y-141570000D02*
X92156160Y-141570000D01*
X94270000Y-137601960D02*
X94270000Y-139456160D01*
X94270000Y-139456160D02*
X92156160Y-141570000D01*
X92156160Y-141570000D02*
X91730000Y-141570000D01*
X91730000Y-141570000D02*
X90630000Y-142670000D01*
X90630000Y-142670000D02*
X89150000Y-142670000D01*
X91730000Y-137601960D02*
X91730000Y-141570000D01*
X90460000Y-141360000D02*
X89150000Y-142670000D01*
X89150000Y-142670000D02*
X89150000Y-144975000D01*
X90460000Y-137601960D02*
X90460000Y-141360000D01*
X124128863Y-134083123D02*
X123291600Y-134083123D01*
X123291600Y-134083123D02*
X122863277Y-134083123D01*
X123266200Y-132316220D02*
X123266200Y-134057723D01*
X123266200Y-134057723D02*
X123291600Y-134083123D01*
X122863277Y-134083123D02*
X122107960Y-134838440D01*
X122107960Y-134838440D02*
X122107960Y-135775000D01*
X126888240Y-135540800D02*
X126888240Y-135940800D01*
X124128863Y-134083123D02*
X125981543Y-134083123D01*
X125981543Y-134083123D02*
X126888240Y-134989820D01*
X126888240Y-134989820D02*
X126888240Y-135540800D01*
X131683760Y-135915400D02*
X131683760Y-133258560D01*
X131683760Y-133258560D02*
X130073400Y-131648200D01*
X127381000Y-133858000D02*
X127127001Y-133604001D01*
X126818628Y-133604001D02*
X126766320Y-133551693D01*
X127127001Y-133604001D02*
X126818628Y-133604001D01*
X125679200Y-135940800D02*
X125679200Y-134899400D01*
X125679200Y-134899400D02*
X125806200Y-134772400D01*
X126766320Y-132316220D02*
X126766320Y-133551693D01*
X120200607Y-135460553D02*
X120200607Y-134781680D01*
X121308017Y-133674270D02*
X121562016Y-133420271D01*
X120200607Y-134781680D02*
X121308017Y-133674270D01*
X119694960Y-135966200D02*
X120200607Y-135460553D01*
X125907800Y-130911600D02*
X126265940Y-131269740D01*
X126265940Y-131269740D02*
X126265940Y-132316220D01*
X128092200Y-135540800D02*
X128092200Y-135940800D01*
X126265940Y-133714540D02*
X128092200Y-135540800D01*
X126265940Y-132316220D02*
X126265940Y-133714540D01*
X121462485Y-124028154D02*
X121716484Y-123774155D01*
X120675039Y-124815600D02*
X121462485Y-124028154D01*
X119766080Y-124815600D02*
X120675039Y-124815600D01*
X122765820Y-120815100D02*
X122765820Y-122618456D01*
X122765820Y-122618456D02*
X122806318Y-122658954D01*
X127838202Y-121842782D02*
X127838202Y-122544766D01*
X127838202Y-122544766D02*
X127695742Y-122687226D01*
X127767080Y-120815100D02*
X127767080Y-121771660D01*
X127767080Y-121771660D02*
X127838202Y-121842782D01*
X129216498Y-134906098D02*
X128962499Y-134652099D01*
X129296160Y-135915400D02*
X129296160Y-134985760D01*
X129296160Y-134985760D02*
X129216498Y-134906098D01*
X117972800Y-138897400D02*
X118007881Y-138862319D01*
X117983000Y-138837438D02*
X118007881Y-138862319D01*
X117983000Y-138709400D02*
X117983000Y-138837438D01*
X117972800Y-139801600D02*
X117972800Y-138897400D01*
X119766080Y-125315980D02*
X121343773Y-125315980D01*
X121343773Y-125315980D02*
X121440241Y-125412448D01*
X118273012Y-141819395D02*
X118019013Y-142073394D01*
X118949411Y-141142996D02*
X118273012Y-141819395D01*
X121719941Y-141142996D02*
X118949411Y-141142996D01*
X122410327Y-140452610D02*
X121719941Y-141142996D01*
X126294073Y-121963149D02*
X126548072Y-122217148D01*
X126265940Y-120815100D02*
X126265940Y-121935016D01*
X126265940Y-121935016D02*
X126294073Y-121963149D01*
X123266200Y-120815100D02*
X123266200Y-121945400D01*
X123266200Y-121945400D02*
X123520200Y-122199400D01*
X123317000Y-134670800D02*
X123317000Y-135749600D01*
X123317000Y-135749600D02*
X123291600Y-135775000D01*
X119872800Y-139801600D02*
X119430800Y-139801600D01*
X119430800Y-139801600D02*
X118948200Y-139319000D01*
X126349355Y-118489192D02*
X126241700Y-118489192D01*
X126766320Y-118906157D02*
X126349355Y-118489192D01*
X126766320Y-120815100D02*
X126766320Y-118906157D01*
X126241700Y-118489192D02*
X125882490Y-118489192D01*
X120904000Y-135966200D02*
X120904000Y-135153400D01*
X120904000Y-135153400D02*
X121183400Y-134874000D01*
X127266700Y-120815100D02*
X127266700Y-122110500D01*
X127266700Y-122110500D02*
X127254000Y-122123200D01*
X130489960Y-135915400D02*
X130489960Y-133029960D01*
X130489960Y-133029960D02*
X130378200Y-132918200D01*
X127508000Y-108051600D02*
X127508000Y-108788200D01*
X127508000Y-108788200D02*
X128041400Y-109321600D01*
D36*
X123453400Y-115894948D02*
X123219538Y-116128810D01*
X123453400Y-114427000D02*
X123453400Y-115894948D01*
D32*
X129034000Y-114909600D02*
X129034000Y-114808600D01*
X129034000Y-114808600D02*
X128195200Y-113969800D01*
X128195200Y-113969800D02*
X127441200Y-113969800D01*
D34*
X133266180Y-133464300D02*
X133266180Y-132046220D01*
X133266180Y-132046220D02*
X134239000Y-131073400D01*
D32*
X127266700Y-130031771D02*
X127266700Y-129995491D01*
X127266700Y-130031771D02*
X127279400Y-130019071D01*
X127279400Y-130019071D02*
X127279400Y-128977671D01*
X113858815Y-112771966D02*
X113858815Y-112141015D01*
X113858815Y-112141015D02*
X113325400Y-111607600D01*
D36*
X120929946Y-141969357D02*
X120570736Y-141969357D01*
X121172096Y-141727207D02*
X120929946Y-141969357D01*
X123428600Y-141868400D02*
X123287407Y-141727207D01*
X124561600Y-141868400D02*
X123428600Y-141868400D01*
X123287407Y-141727207D02*
X121172096Y-141727207D01*
D32*
X116116100Y-110629700D02*
X114178300Y-110629700D01*
X114178300Y-110629700D02*
X113325400Y-111482600D01*
X113325400Y-111482600D02*
X113325400Y-111607600D01*
X116732300Y-111245900D02*
X116116100Y-110629700D01*
X117779800Y-111245900D02*
X116732300Y-111245900D01*
X117779800Y-111245900D02*
X117904800Y-111245900D01*
X124875800Y-109933200D02*
X124875800Y-110058200D01*
X117904800Y-111245900D02*
X118584500Y-110566200D01*
X118584500Y-110566200D02*
X120650000Y-110566200D01*
X120650000Y-110566200D02*
X122199400Y-109016800D01*
X122199400Y-109016800D02*
X123959400Y-109016800D01*
X123959400Y-109016800D02*
X124875800Y-109933200D01*
X127034682Y-117753082D02*
X125399810Y-117753082D01*
X125220692Y-117932200D02*
X125399810Y-117753082D01*
X127417000Y-118135400D02*
X127034682Y-117753082D01*
X125393504Y-117759388D02*
X125399810Y-117753082D01*
X125393504Y-117812896D02*
X125393504Y-117759388D01*
X128021000Y-118135400D02*
X127417000Y-118135400D01*
X124240800Y-117932200D02*
X125220692Y-117932200D01*
X124381103Y-111790529D02*
X124635102Y-112044528D01*
X124350574Y-111760000D02*
X124381103Y-111790529D01*
X123560800Y-111760000D02*
X124350574Y-111760000D01*
D36*
X123560800Y-111760000D02*
X123560800Y-114319600D01*
X123560800Y-114319600D02*
X123453400Y-114427000D01*
X124875800Y-110058200D02*
X124875800Y-110445000D01*
X124875800Y-110445000D02*
X123560800Y-111760000D01*
D32*
X129034000Y-114909600D02*
X130896600Y-114909600D01*
D31*
X112522000Y-128066800D02*
X112522000Y-130837276D01*
X112522000Y-130837276D02*
X113695480Y-132010756D01*
X113695480Y-132010756D02*
X113695480Y-133197600D01*
X112090200Y-139623800D02*
X112490199Y-139223801D01*
X112490199Y-139223801D02*
X112490199Y-136175801D01*
X112490199Y-136175801D02*
X113695480Y-134970520D01*
X113695480Y-134970520D02*
X113695480Y-133197600D01*
D32*
X115976400Y-131985000D02*
X113804450Y-131985000D01*
X113804450Y-131985000D02*
X113695480Y-132093970D01*
X113695480Y-132093970D02*
X113695480Y-133197600D01*
X133527800Y-114924800D02*
X135280400Y-114924800D01*
X131800600Y-114909600D02*
X133512600Y-114909600D01*
X133512600Y-114909600D02*
X133527800Y-114924800D01*
X127939800Y-116128800D02*
X127939800Y-116003800D01*
X127939800Y-116003800D02*
X129034000Y-114909600D01*
X130896600Y-114909600D02*
X131800600Y-114909600D01*
X128021000Y-118135400D02*
X128021000Y-116210000D01*
X128021000Y-116210000D02*
X127939800Y-116128800D01*
D34*
X133266180Y-135394700D02*
X133266180Y-137274300D01*
X133266180Y-137274300D02*
X133291580Y-137299700D01*
X134239000Y-131073400D02*
X131911600Y-131073400D01*
X131911600Y-131073400D02*
X131902200Y-131064000D01*
X133273800Y-135318500D02*
X133273800Y-133471920D01*
X133273800Y-133471920D02*
X133266180Y-133464300D01*
X133291580Y-135336280D02*
X133273800Y-135318500D01*
D31*
X110286800Y-127863600D02*
X112318800Y-127863600D01*
X112318800Y-127863600D02*
X112522000Y-128066800D01*
D32*
X135096000Y-120091200D02*
X135096000Y-122139200D01*
X135096000Y-122139200D02*
X135086600Y-122148600D01*
X134874000Y-123367800D02*
X135086600Y-123155200D01*
X135086600Y-123155200D02*
X135086600Y-122148600D01*
X134112000Y-123367800D02*
X134874000Y-123367800D01*
X132816600Y-124663200D02*
X134112000Y-123367800D01*
X132816600Y-124815600D02*
X132943600Y-124815600D01*
X131267200Y-124815600D02*
X132816600Y-124815600D01*
X132816600Y-124815600D02*
X132816600Y-124663200D01*
X132943600Y-124815600D02*
X133146800Y-125018800D01*
X133146800Y-125018800D02*
X134239000Y-125018800D01*
X138511280Y-126014480D02*
X138511280Y-124860050D01*
X138511280Y-124860050D02*
X137916030Y-124264800D01*
X137916030Y-124264800D02*
X135118000Y-124264800D01*
X135118000Y-124264800D02*
X134364000Y-125018800D01*
X134364000Y-125018800D02*
X134239000Y-125018800D01*
X134035800Y-124815600D02*
X134239000Y-125018800D01*
D31*
X112522000Y-126214800D02*
X114721600Y-126214800D01*
X114721600Y-126214800D02*
X115062000Y-125874400D01*
X115062000Y-125874400D02*
X115062000Y-124485400D01*
X112522000Y-128066800D02*
X112522000Y-126214800D01*
X115062000Y-124485400D02*
X116814600Y-124485400D01*
X116814600Y-124485400D02*
X117144800Y-124815600D01*
D36*
X120247643Y-141969357D02*
X120570736Y-141969357D01*
X119450000Y-142767000D02*
X120247643Y-141969357D01*
X119450000Y-144850000D02*
X119450000Y-142767000D01*
X130741200Y-140919200D02*
X131005800Y-140919200D01*
X131005800Y-140919200D02*
X132056600Y-139868400D01*
X132056600Y-139868400D02*
X132181600Y-139868400D01*
X129766600Y-141893800D02*
X130741200Y-140919200D01*
X127101600Y-141868400D02*
X129616200Y-141868400D01*
X129616200Y-141868400D02*
X129641600Y-141893800D01*
X124561600Y-141868400D02*
X127101600Y-141868400D01*
D32*
X129903230Y-124815600D02*
X129819400Y-124899430D01*
X131267200Y-124815600D02*
X129903230Y-124815600D01*
X127266700Y-132316220D02*
X127266700Y-130031771D01*
X128767840Y-132316220D02*
X128767840Y-130466111D01*
X128767840Y-130466111D02*
X127279400Y-128977671D01*
X128767840Y-123479560D02*
X128701800Y-123545600D01*
X128767840Y-120815100D02*
X128767840Y-123479560D01*
X129766600Y-141893800D02*
X129641600Y-141893800D01*
D31*
X112090200Y-139623800D02*
X111302800Y-140411200D01*
X111800000Y-144925000D02*
X111800000Y-140908400D01*
X111800000Y-140908400D02*
X111302800Y-140411200D01*
X109250000Y-144950000D02*
X109250000Y-142464000D01*
X109250000Y-142464000D02*
X111302800Y-140411200D01*
D33*
X132150000Y-146304000D02*
X132150000Y-143592191D01*
X132150000Y-143592191D02*
X131313295Y-142755486D01*
D32*
X128815789Y-137998189D02*
X128933432Y-137998189D01*
X128092200Y-137274600D02*
X128815789Y-137998189D01*
X129296160Y-137878200D02*
X129176171Y-137998189D01*
X129296160Y-137224200D02*
X129296160Y-137878200D01*
X128092200Y-137249600D02*
X128092200Y-137274600D01*
X129176171Y-137998189D02*
X128933432Y-137998189D01*
D33*
X127100000Y-146304000D02*
X127100000Y-143611856D01*
X127100000Y-143611856D02*
X126243630Y-142755486D01*
X126243630Y-142755486D02*
X126233295Y-142755486D01*
X126233295Y-142755486D02*
X126245486Y-142755486D01*
D32*
X125730000Y-138226800D02*
X125071246Y-138226800D01*
X125071246Y-138226800D02*
X124541179Y-138756867D01*
X124541179Y-138756867D02*
X121833726Y-138756867D01*
X121833726Y-138756867D02*
X120904000Y-137827141D01*
X120904000Y-137827141D02*
X120904000Y-137275000D01*
X125730000Y-138226800D02*
X125730000Y-137300400D01*
X125730000Y-137300400D02*
X125679200Y-137249600D01*
D33*
X124327400Y-142773400D02*
X123698000Y-142773400D01*
X124550000Y-146304000D02*
X124550000Y-142996000D01*
X124550000Y-142996000D02*
X124327400Y-142773400D01*
D32*
X123291600Y-137083800D02*
X123291600Y-137784158D01*
X123291600Y-137784158D02*
X123595287Y-138087845D01*
X123595287Y-138087845D02*
X124259136Y-138087845D01*
X124313155Y-138087845D02*
X124259136Y-138087845D01*
X124485400Y-137915600D02*
X124313155Y-138087845D01*
X124485400Y-137261600D02*
X124485400Y-137915600D01*
X124550000Y-144825000D02*
X124550000Y-142996000D01*
D33*
X114985800Y-142579655D02*
X114985800Y-142240000D01*
X114985800Y-142240000D02*
X114808000Y-142062200D01*
X114350000Y-143215455D02*
X114985800Y-142579655D01*
X114350000Y-146304000D02*
X114350000Y-143215455D01*
D32*
X114350000Y-144925000D02*
X114350000Y-143215455D01*
X114985800Y-142579655D02*
X114985800Y-142062200D01*
X119766080Y-128816100D02*
X120670320Y-128816100D01*
X120670320Y-128816100D02*
X120929400Y-129075180D01*
X120929400Y-129075180D02*
X120929400Y-130935893D01*
X119688722Y-132836971D02*
X116330739Y-136194954D01*
X120929400Y-130935893D02*
X119688722Y-132176571D01*
X119688722Y-132176571D02*
X119688722Y-132836971D01*
X116317200Y-138226800D02*
X114985800Y-139558200D01*
X116330739Y-136194954D02*
X116330739Y-138226800D01*
X114985800Y-139558200D02*
X114985800Y-140162200D01*
X116330739Y-138226800D02*
X116317200Y-138226800D01*
D33*
X116484400Y-142605955D02*
X116484400Y-142163800D01*
X116484400Y-142163800D02*
X116586000Y-142062200D01*
X116900000Y-143021555D02*
X116484400Y-142605955D01*
X116900000Y-146304000D02*
X116900000Y-143021555D01*
D32*
X116900000Y-144875000D02*
X116900000Y-143021555D01*
X116484400Y-142605955D02*
X116484400Y-142062200D01*
X121279920Y-128315720D02*
X120670320Y-128315720D01*
X116484400Y-140162200D02*
X116484400Y-138982136D01*
X120154722Y-132357164D02*
X121513600Y-130998286D01*
X120670320Y-128315720D02*
X119766080Y-128315720D01*
X117094000Y-136078286D02*
X120154722Y-133017564D01*
X121513600Y-130998286D02*
X121513600Y-128549400D01*
X117094000Y-138372536D02*
X117094000Y-136078286D01*
X120154722Y-133017564D02*
X120154722Y-132357164D01*
X116484400Y-138982136D02*
X117094000Y-138372536D01*
X121513600Y-128549400D02*
X121279920Y-128315720D01*
D33*
X129625000Y-143595000D02*
X129583173Y-143595000D01*
X129583173Y-143595000D02*
X128761165Y-142772992D01*
X129625000Y-146304000D02*
X129625000Y-143595000D01*
D32*
X130225801Y-138582399D02*
X130489960Y-138318240D01*
X130489960Y-138318240D02*
X130489960Y-137224200D01*
X128092199Y-138582399D02*
X130225801Y-138582399D01*
X127838200Y-138328400D02*
X128092199Y-138582399D01*
X126888240Y-137249600D02*
X126888240Y-137798193D01*
X126888240Y-137798193D02*
X127418447Y-138328400D01*
X127418447Y-138328400D02*
X127838200Y-138328400D01*
G36*
X75773000Y-137100000D02*
X75775314Y-137124133D01*
X75857525Y-137548890D01*
X75804680Y-137570725D01*
X75554382Y-137820586D01*
X75418754Y-138147213D01*
X75418446Y-138500879D01*
X75553503Y-138827742D01*
X75803364Y-139078040D01*
X76129991Y-139213668D01*
X76179749Y-139213711D01*
X76973000Y-143312177D01*
X76973000Y-143573000D01*
X70758798Y-143573000D01*
X67474720Y-139702479D01*
X67531021Y-139666250D01*
X67676011Y-139454050D01*
X67727020Y-139202160D01*
X67727020Y-136001760D01*
X67682742Y-135766443D01*
X67543670Y-135550319D01*
X67331470Y-135405329D01*
X67079580Y-135354320D01*
X66180420Y-135354320D01*
X65945103Y-135398598D01*
X65728979Y-135537670D01*
X65583989Y-135749870D01*
X65532980Y-136001760D01*
X65532980Y-137065826D01*
X65373162Y-137225644D01*
X65227000Y-137053381D01*
X65227000Y-132427000D01*
X75773000Y-132427000D01*
X75773000Y-137100000D01*
X75773000Y-137100000D01*
G37*
X75773000Y-137100000D02*
X75775314Y-137124133D01*
X75857525Y-137548890D01*
X75804680Y-137570725D01*
X75554382Y-137820586D01*
X75418754Y-138147213D01*
X75418446Y-138500879D01*
X75553503Y-138827742D01*
X75803364Y-139078040D01*
X76129991Y-139213668D01*
X76179749Y-139213711D01*
X76973000Y-143312177D01*
X76973000Y-143573000D01*
X70758798Y-143573000D01*
X67474720Y-139702479D01*
X67531021Y-139666250D01*
X67676011Y-139454050D01*
X67727020Y-139202160D01*
X67727020Y-136001760D01*
X67682742Y-135766443D01*
X67543670Y-135550319D01*
X67331470Y-135405329D01*
X67079580Y-135354320D01*
X66180420Y-135354320D01*
X65945103Y-135398598D01*
X65728979Y-135537670D01*
X65583989Y-135749870D01*
X65532980Y-136001760D01*
X65532980Y-137065826D01*
X65373162Y-137225644D01*
X65227000Y-137053381D01*
X65227000Y-132427000D01*
X75773000Y-132427000D01*
X75773000Y-137100000D01*
G36*
X98273000Y-138141271D02*
X92317749Y-143203234D01*
X92286581Y-143242858D01*
X92276792Y-143269198D01*
X92200842Y-143573000D01*
X86100124Y-143573000D01*
X87614912Y-140354076D01*
X87626938Y-140303967D01*
X87665344Y-139074989D01*
X87788982Y-139023903D01*
X87959175Y-138854007D01*
X88092980Y-138854007D01*
X88092980Y-139202160D01*
X88137258Y-139437477D01*
X88276330Y-139653601D01*
X88488530Y-139798591D01*
X88740420Y-139849600D01*
X89639580Y-139849600D01*
X89874897Y-139805322D01*
X90091021Y-139666250D01*
X90236011Y-139454050D01*
X90287020Y-139202160D01*
X90287020Y-136001760D01*
X90242742Y-135766443D01*
X90103670Y-135550319D01*
X89891470Y-135405329D01*
X89639580Y-135354320D01*
X88740420Y-135354320D01*
X88505103Y-135398598D01*
X88288979Y-135537670D01*
X88143989Y-135749870D01*
X88092980Y-136001760D01*
X88092980Y-137177607D01*
X87724637Y-137177607D01*
X87726938Y-137103967D01*
X87727000Y-137100000D01*
X87727000Y-132427000D01*
X98273000Y-132427000D01*
X98273000Y-138141271D01*
X98273000Y-138141271D01*
G37*
X98273000Y-138141271D02*
X92317749Y-143203234D01*
X92286581Y-143242858D01*
X92276792Y-143269198D01*
X92200842Y-143573000D01*
X86100124Y-143573000D01*
X87614912Y-140354076D01*
X87626938Y-140303967D01*
X87665344Y-139074989D01*
X87788982Y-139023903D01*
X87959175Y-138854007D01*
X88092980Y-138854007D01*
X88092980Y-139202160D01*
X88137258Y-139437477D01*
X88276330Y-139653601D01*
X88488530Y-139798591D01*
X88740420Y-139849600D01*
X89639580Y-139849600D01*
X89874897Y-139805322D01*
X90091021Y-139666250D01*
X90236011Y-139454050D01*
X90287020Y-139202160D01*
X90287020Y-136001760D01*
X90242742Y-135766443D01*
X90103670Y-135550319D01*
X89891470Y-135405329D01*
X89639580Y-135354320D01*
X88740420Y-135354320D01*
X88505103Y-135398598D01*
X88288979Y-135537670D01*
X88143989Y-135749870D01*
X88092980Y-136001760D01*
X88092980Y-137177607D01*
X87724637Y-137177607D01*
X87726938Y-137103967D01*
X87727000Y-137100000D01*
X87727000Y-132427000D01*
X98273000Y-132427000D01*
X98273000Y-138141271D01*
G36*
X99118703Y-123134120D02*
X99368564Y-123384418D01*
X99695191Y-123520046D01*
X100048857Y-123520354D01*
X100094804Y-123501369D01*
X100273023Y-123679900D01*
X100599650Y-123815528D01*
X100953316Y-123815836D01*
X101280179Y-123680779D01*
X101530477Y-123430918D01*
X101571173Y-123332911D01*
X103873000Y-126342993D01*
X103873000Y-137860426D01*
X100987481Y-142040856D01*
X100987376Y-142041009D01*
X99933227Y-143573000D01*
X93627000Y-143573000D01*
X93627000Y-143356863D01*
X99184584Y-138394734D01*
X99214777Y-138354362D01*
X99227000Y-138300000D01*
X99227000Y-131100000D01*
X99216994Y-131050590D01*
X99188553Y-131008965D01*
X99146159Y-130981685D01*
X99100000Y-130973000D01*
X65127000Y-130973000D01*
X65127000Y-123027000D01*
X99074442Y-123027000D01*
X99118703Y-123134120D01*
X99118703Y-123134120D01*
G37*
X99118703Y-123134120D02*
X99368564Y-123384418D01*
X99695191Y-123520046D01*
X100048857Y-123520354D01*
X100094804Y-123501369D01*
X100273023Y-123679900D01*
X100599650Y-123815528D01*
X100953316Y-123815836D01*
X101280179Y-123680779D01*
X101530477Y-123430918D01*
X101571173Y-123332911D01*
X103873000Y-126342993D01*
X103873000Y-137860426D01*
X100987481Y-142040856D01*
X100987376Y-142041009D01*
X99933227Y-143573000D01*
X93627000Y-143573000D01*
X93627000Y-143356863D01*
X99184584Y-138394734D01*
X99214777Y-138354362D01*
X99227000Y-138300000D01*
X99227000Y-131100000D01*
X99216994Y-131050590D01*
X99188553Y-131008965D01*
X99146159Y-130981685D01*
X99100000Y-130973000D01*
X65127000Y-130973000D01*
X65127000Y-123027000D01*
X99074442Y-123027000D01*
X99118703Y-123134120D01*
G36*
X121371382Y-142113382D02*
X121178671Y-142401794D01*
X121135068Y-142621000D01*
X119607172Y-142621000D01*
X119650618Y-142577630D01*
X119786246Y-142251003D01*
X119786547Y-141904996D01*
X121579768Y-141904996D01*
X121371382Y-142113382D01*
X121371382Y-142113382D01*
G37*
X121371382Y-142113382D02*
X121178671Y-142401794D01*
X121135068Y-142621000D01*
X119607172Y-142621000D01*
X119650618Y-142577630D01*
X119786246Y-142251003D01*
X119786547Y-141904996D01*
X121579768Y-141904996D01*
X121371382Y-142113382D01*
G36*
X137264400Y-129344081D02*
X137264400Y-130714750D01*
X137308678Y-130950067D01*
X137447750Y-131166191D01*
X137659950Y-131311181D01*
X137911840Y-131362190D01*
X138713338Y-131362190D01*
X138713315Y-132166860D01*
X138268000Y-132166860D01*
X138032683Y-132211138D01*
X137816559Y-132350210D01*
X137671569Y-132562410D01*
X137668919Y-132575497D01*
X137532090Y-132362859D01*
X137319890Y-132217869D01*
X137068000Y-132166860D01*
X136368000Y-132166860D01*
X136132683Y-132211138D01*
X136084798Y-132241951D01*
X135963660Y-132217420D01*
X134764780Y-132217420D01*
X134529463Y-132261698D01*
X134313339Y-132400770D01*
X134307744Y-132408959D01*
X134225318Y-132326533D01*
X133991929Y-132229860D01*
X133551930Y-132229860D01*
X133393180Y-132388610D01*
X133393180Y-133337300D01*
X133413180Y-133337300D01*
X133413180Y-133591300D01*
X133393180Y-133591300D01*
X133393180Y-135267700D01*
X133413180Y-135267700D01*
X133413180Y-135521700D01*
X133393180Y-135521700D01*
X133393180Y-136470390D01*
X133418580Y-136495790D01*
X133418580Y-137172700D01*
X133438580Y-137172700D01*
X133438580Y-137426700D01*
X133418580Y-137426700D01*
X133418580Y-138375390D01*
X133577330Y-138534140D01*
X134017329Y-138534140D01*
X134250718Y-138437467D01*
X134332931Y-138355255D01*
X134538290Y-138495571D01*
X134790180Y-138546580D01*
X135989060Y-138546580D01*
X136109108Y-138523991D01*
X136141510Y-138546131D01*
X136393400Y-138597140D01*
X137093400Y-138597140D01*
X137328717Y-138552862D01*
X137544841Y-138413790D01*
X137579124Y-138363615D01*
X137578946Y-138567957D01*
X137714003Y-138894820D01*
X137807212Y-138988192D01*
X134675358Y-142590797D01*
X134404007Y-142590797D01*
X134400000Y-142590000D01*
X134244154Y-142621000D01*
X133402546Y-142621000D01*
X133403031Y-142620290D01*
X133454040Y-142368400D01*
X133454040Y-141368400D01*
X133409762Y-141133083D01*
X133270690Y-140916959D01*
X133202594Y-140870431D01*
X133344927Y-140728098D01*
X133441600Y-140494709D01*
X133441600Y-140154150D01*
X133282850Y-139995400D01*
X132308600Y-139995400D01*
X132308600Y-140015400D01*
X132054600Y-140015400D01*
X132054600Y-139995400D01*
X132034600Y-139995400D01*
X132034600Y-139741400D01*
X132054600Y-139741400D01*
X132054600Y-139721400D01*
X132308600Y-139721400D01*
X132308600Y-139741400D01*
X133282850Y-139741400D01*
X133441600Y-139582650D01*
X133441600Y-139242091D01*
X133344927Y-139008702D01*
X133166299Y-138830073D01*
X132932910Y-138733400D01*
X132467350Y-138733400D01*
X132308602Y-138892148D01*
X132308602Y-138753707D01*
X132343028Y-138702185D01*
X132387756Y-138635245D01*
X132419891Y-138473690D01*
X132565831Y-138534140D01*
X133005830Y-138534140D01*
X133164580Y-138375390D01*
X133164580Y-137426700D01*
X133144580Y-137426700D01*
X133144580Y-137172700D01*
X133164580Y-137172700D01*
X133164580Y-136224010D01*
X133139180Y-136198610D01*
X133139180Y-135521700D01*
X133119180Y-135521700D01*
X133119180Y-135267700D01*
X133139180Y-135267700D01*
X133139180Y-133591300D01*
X133119180Y-133591300D01*
X133119180Y-133337300D01*
X133139180Y-133337300D01*
X133139180Y-132388610D01*
X132980430Y-132229860D01*
X132540431Y-132229860D01*
X132307042Y-132326533D01*
X132128413Y-132505161D01*
X132093142Y-132590312D01*
X130953809Y-131450979D01*
X130915867Y-131359150D01*
X132979000Y-131359150D01*
X132979000Y-131699709D01*
X133075673Y-131933098D01*
X133254301Y-132111727D01*
X133487690Y-132208400D01*
X133953250Y-132208400D01*
X134112000Y-132049650D01*
X134112000Y-131200400D01*
X133137750Y-131200400D01*
X132979000Y-131359150D01*
X130915867Y-131359150D01*
X130827497Y-131145280D01*
X130794415Y-131112140D01*
X131917440Y-131112140D01*
X132152757Y-131067862D01*
X132368881Y-130928790D01*
X132513871Y-130716590D01*
X132564880Y-130464700D01*
X132564880Y-130164700D01*
X132545584Y-130062149D01*
X132564880Y-129966860D01*
X132564880Y-129666860D01*
X132545336Y-129562992D01*
X132547597Y-129551828D01*
X132607984Y-129612215D01*
X132852932Y-129775884D01*
X132855195Y-129777396D01*
X133010767Y-129808341D01*
X133010838Y-129808717D01*
X133149910Y-130024841D01*
X133218006Y-130071369D01*
X133075673Y-130213702D01*
X132979000Y-130447091D01*
X132979000Y-130787650D01*
X133137750Y-130946400D01*
X134112000Y-130946400D01*
X134112000Y-130926400D01*
X134366000Y-130926400D01*
X134366000Y-130946400D01*
X134386000Y-130946400D01*
X134386000Y-131200400D01*
X134366000Y-131200400D01*
X134366000Y-132049650D01*
X134524750Y-132208400D01*
X134990310Y-132208400D01*
X135223699Y-132111727D01*
X135402327Y-131933098D01*
X135499000Y-131699709D01*
X135499000Y-131362190D01*
X136611360Y-131362190D01*
X136846677Y-131317912D01*
X137062801Y-131178840D01*
X137207791Y-130966640D01*
X137258800Y-130714750D01*
X137258800Y-129338481D01*
X137264400Y-129344081D01*
X137264400Y-129344081D01*
G37*
X137264400Y-129344081D02*
X137264400Y-130714750D01*
X137308678Y-130950067D01*
X137447750Y-131166191D01*
X137659950Y-131311181D01*
X137911840Y-131362190D01*
X138713338Y-131362190D01*
X138713315Y-132166860D01*
X138268000Y-132166860D01*
X138032683Y-132211138D01*
X137816559Y-132350210D01*
X137671569Y-132562410D01*
X137668919Y-132575497D01*
X137532090Y-132362859D01*
X137319890Y-132217869D01*
X137068000Y-132166860D01*
X136368000Y-132166860D01*
X136132683Y-132211138D01*
X136084798Y-132241951D01*
X135963660Y-132217420D01*
X134764780Y-132217420D01*
X134529463Y-132261698D01*
X134313339Y-132400770D01*
X134307744Y-132408959D01*
X134225318Y-132326533D01*
X133991929Y-132229860D01*
X133551930Y-132229860D01*
X133393180Y-132388610D01*
X133393180Y-133337300D01*
X133413180Y-133337300D01*
X133413180Y-133591300D01*
X133393180Y-133591300D01*
X133393180Y-135267700D01*
X133413180Y-135267700D01*
X133413180Y-135521700D01*
X133393180Y-135521700D01*
X133393180Y-136470390D01*
X133418580Y-136495790D01*
X133418580Y-137172700D01*
X133438580Y-137172700D01*
X133438580Y-137426700D01*
X133418580Y-137426700D01*
X133418580Y-138375390D01*
X133577330Y-138534140D01*
X134017329Y-138534140D01*
X134250718Y-138437467D01*
X134332931Y-138355255D01*
X134538290Y-138495571D01*
X134790180Y-138546580D01*
X135989060Y-138546580D01*
X136109108Y-138523991D01*
X136141510Y-138546131D01*
X136393400Y-138597140D01*
X137093400Y-138597140D01*
X137328717Y-138552862D01*
X137544841Y-138413790D01*
X137579124Y-138363615D01*
X137578946Y-138567957D01*
X137714003Y-138894820D01*
X137807212Y-138988192D01*
X134675358Y-142590797D01*
X134404007Y-142590797D01*
X134400000Y-142590000D01*
X134244154Y-142621000D01*
X133402546Y-142621000D01*
X133403031Y-142620290D01*
X133454040Y-142368400D01*
X133454040Y-141368400D01*
X133409762Y-141133083D01*
X133270690Y-140916959D01*
X133202594Y-140870431D01*
X133344927Y-140728098D01*
X133441600Y-140494709D01*
X133441600Y-140154150D01*
X133282850Y-139995400D01*
X132308600Y-139995400D01*
X132308600Y-140015400D01*
X132054600Y-140015400D01*
X132054600Y-139995400D01*
X132034600Y-139995400D01*
X132034600Y-139741400D01*
X132054600Y-139741400D01*
X132054600Y-139721400D01*
X132308600Y-139721400D01*
X132308600Y-139741400D01*
X133282850Y-139741400D01*
X133441600Y-139582650D01*
X133441600Y-139242091D01*
X133344927Y-139008702D01*
X133166299Y-138830073D01*
X132932910Y-138733400D01*
X132467350Y-138733400D01*
X132308602Y-138892148D01*
X132308602Y-138753707D01*
X132343028Y-138702185D01*
X132387756Y-138635245D01*
X132419891Y-138473690D01*
X132565831Y-138534140D01*
X133005830Y-138534140D01*
X133164580Y-138375390D01*
X133164580Y-137426700D01*
X133144580Y-137426700D01*
X133144580Y-137172700D01*
X133164580Y-137172700D01*
X133164580Y-136224010D01*
X133139180Y-136198610D01*
X133139180Y-135521700D01*
X133119180Y-135521700D01*
X133119180Y-135267700D01*
X133139180Y-135267700D01*
X133139180Y-133591300D01*
X133119180Y-133591300D01*
X133119180Y-133337300D01*
X133139180Y-133337300D01*
X133139180Y-132388610D01*
X132980430Y-132229860D01*
X132540431Y-132229860D01*
X132307042Y-132326533D01*
X132128413Y-132505161D01*
X132093142Y-132590312D01*
X130953809Y-131450979D01*
X130915867Y-131359150D01*
X132979000Y-131359150D01*
X132979000Y-131699709D01*
X133075673Y-131933098D01*
X133254301Y-132111727D01*
X133487690Y-132208400D01*
X133953250Y-132208400D01*
X134112000Y-132049650D01*
X134112000Y-131200400D01*
X133137750Y-131200400D01*
X132979000Y-131359150D01*
X130915867Y-131359150D01*
X130827497Y-131145280D01*
X130794415Y-131112140D01*
X131917440Y-131112140D01*
X132152757Y-131067862D01*
X132368881Y-130928790D01*
X132513871Y-130716590D01*
X132564880Y-130464700D01*
X132564880Y-130164700D01*
X132545584Y-130062149D01*
X132564880Y-129966860D01*
X132564880Y-129666860D01*
X132545336Y-129562992D01*
X132547597Y-129551828D01*
X132607984Y-129612215D01*
X132852932Y-129775884D01*
X132855195Y-129777396D01*
X133010767Y-129808341D01*
X133010838Y-129808717D01*
X133149910Y-130024841D01*
X133218006Y-130071369D01*
X133075673Y-130213702D01*
X132979000Y-130447091D01*
X132979000Y-130787650D01*
X133137750Y-130946400D01*
X134112000Y-130946400D01*
X134112000Y-130926400D01*
X134366000Y-130926400D01*
X134366000Y-130946400D01*
X134386000Y-130946400D01*
X134386000Y-131200400D01*
X134366000Y-131200400D01*
X134366000Y-132049650D01*
X134524750Y-132208400D01*
X134990310Y-132208400D01*
X135223699Y-132111727D01*
X135402327Y-131933098D01*
X135499000Y-131699709D01*
X135499000Y-131362190D01*
X136611360Y-131362190D01*
X136846677Y-131317912D01*
X137062801Y-131178840D01*
X137207791Y-130966640D01*
X137258800Y-130714750D01*
X137258800Y-129338481D01*
X137264400Y-129344081D01*
G36*
X115189000Y-124358400D02*
X115209000Y-124358400D01*
X115209000Y-124612400D01*
X115189000Y-124612400D01*
X115189000Y-125461650D01*
X115347750Y-125620400D01*
X115813310Y-125620400D01*
X115977678Y-125552316D01*
X116173283Y-125607512D01*
X116965195Y-124815600D01*
X116951053Y-124801458D01*
X117130658Y-124621853D01*
X117144800Y-124635995D01*
X117158943Y-124621853D01*
X117338548Y-124801458D01*
X117324405Y-124815600D01*
X117338548Y-124829743D01*
X117158943Y-125009348D01*
X117144800Y-124995205D01*
X116628409Y-125511596D01*
X116361285Y-125621969D01*
X115971339Y-126011236D01*
X115760041Y-126520098D01*
X115759560Y-127071085D01*
X115969969Y-127580315D01*
X116163991Y-127774675D01*
X115996739Y-127941636D01*
X115785441Y-128450498D01*
X115784960Y-129001485D01*
X115995369Y-129510715D01*
X116189391Y-129705075D01*
X116022139Y-129872036D01*
X115810841Y-130380898D01*
X115810360Y-130931885D01*
X115836994Y-130996344D01*
X115690650Y-130850000D01*
X115225090Y-130850000D01*
X114991701Y-130946673D01*
X114813073Y-131125302D01*
X114716400Y-131358691D01*
X114716400Y-131699250D01*
X114730120Y-131712970D01*
X113981230Y-131712970D01*
X113822480Y-131871720D01*
X113822480Y-133070600D01*
X113842480Y-133070600D01*
X113842480Y-133324600D01*
X113822480Y-133324600D01*
X113822480Y-134523480D01*
X113981230Y-134682230D01*
X114741071Y-134682230D01*
X114748238Y-134720317D01*
X114887310Y-134936441D01*
X115099510Y-135081431D01*
X115351400Y-135132440D01*
X116315623Y-135132440D01*
X115791924Y-135656139D01*
X115626743Y-135903349D01*
X115568739Y-136194954D01*
X115568739Y-137191033D01*
X115302558Y-137190801D01*
X114975695Y-137325858D01*
X114725397Y-137575719D01*
X114589769Y-137902346D01*
X114589461Y-138256012D01*
X114724518Y-138582875D01*
X114803937Y-138662433D01*
X114446985Y-139019385D01*
X114349848Y-139164760D01*
X114158000Y-139164760D01*
X113922683Y-139209038D01*
X113706559Y-139348110D01*
X113561569Y-139560310D01*
X113513579Y-139797290D01*
X113500813Y-139791989D01*
X113147147Y-139791681D01*
X112820284Y-139926738D01*
X112569986Y-140176599D01*
X112434358Y-140503226D01*
X112434050Y-140856892D01*
X112569107Y-141183755D01*
X112818968Y-141434053D01*
X113145595Y-141569681D01*
X113499261Y-141569989D01*
X113543020Y-141551908D01*
X113510560Y-141712200D01*
X113510560Y-142412200D01*
X113549848Y-142621000D01*
X109601000Y-142621000D01*
X109601000Y-138834657D01*
X110032646Y-138834657D01*
X110167703Y-139161520D01*
X110417564Y-139411818D01*
X110744191Y-139547446D01*
X111097857Y-139547754D01*
X111424720Y-139412697D01*
X111675018Y-139162836D01*
X111810646Y-138836209D01*
X111810954Y-138482543D01*
X111675897Y-138155680D01*
X111426036Y-137905382D01*
X111099409Y-137769754D01*
X110745743Y-137769446D01*
X110418880Y-137904503D01*
X110168582Y-138154364D01*
X110032954Y-138480991D01*
X110032646Y-138834657D01*
X109601000Y-138834657D01*
X109601000Y-135892551D01*
X109721293Y-135972928D01*
X110134400Y-136055100D01*
X110547507Y-135972928D01*
X110897722Y-135738922D01*
X111131728Y-135388707D01*
X111213900Y-134975600D01*
X111213900Y-134694670D01*
X111286290Y-134694670D01*
X111345325Y-134683562D01*
X111345062Y-134986043D01*
X111480119Y-135312906D01*
X111729980Y-135563204D01*
X112056607Y-135698832D01*
X112410273Y-135699140D01*
X112737136Y-135564083D01*
X112987434Y-135314222D01*
X113123062Y-134987595D01*
X113123328Y-134682230D01*
X113409730Y-134682230D01*
X113568480Y-134523480D01*
X113568480Y-133324600D01*
X112168940Y-133324600D01*
X112010190Y-133483350D01*
X112010190Y-133940652D01*
X111933730Y-133972245D01*
X111933730Y-132347970D01*
X111909964Y-132221660D01*
X112010190Y-132221660D01*
X112010190Y-132911850D01*
X112168940Y-133070600D01*
X113568480Y-133070600D01*
X113568480Y-131871720D01*
X113409730Y-131712970D01*
X112518881Y-131712970D01*
X112285492Y-131809643D01*
X112106863Y-131988271D01*
X112010190Y-132221660D01*
X111909964Y-132221660D01*
X111889452Y-132112653D01*
X111750380Y-131896529D01*
X111538180Y-131751539D01*
X111286290Y-131700530D01*
X109601000Y-131700530D01*
X109601000Y-129605055D01*
X109719839Y-129605158D01*
X110046702Y-129470101D01*
X110297000Y-129220240D01*
X110432628Y-128893613D01*
X110432936Y-128539947D01*
X110297879Y-128213084D01*
X110048018Y-127962786D01*
X109721391Y-127827158D01*
X109601000Y-127827053D01*
X109601000Y-126500550D01*
X110637000Y-126500550D01*
X110637000Y-126791109D01*
X110733673Y-127024498D01*
X110912301Y-127203127D01*
X111145690Y-127299800D01*
X112236250Y-127299800D01*
X112395000Y-127141050D01*
X112395000Y-126341800D01*
X112649000Y-126341800D01*
X112649000Y-127141050D01*
X112807750Y-127299800D01*
X113898310Y-127299800D01*
X114131699Y-127203127D01*
X114310327Y-127024498D01*
X114407000Y-126791109D01*
X114407000Y-126500550D01*
X114248250Y-126341800D01*
X112649000Y-126341800D01*
X112395000Y-126341800D01*
X110795750Y-126341800D01*
X110637000Y-126500550D01*
X109601000Y-126500550D01*
X109601000Y-125638491D01*
X110637000Y-125638491D01*
X110637000Y-125929050D01*
X110795750Y-126087800D01*
X112395000Y-126087800D01*
X112395000Y-125288550D01*
X112236250Y-125129800D01*
X111145690Y-125129800D01*
X110912301Y-125226473D01*
X110733673Y-125405102D01*
X110637000Y-125638491D01*
X109601000Y-125638491D01*
X109601000Y-124587000D01*
X113802000Y-124587000D01*
X113802000Y-124612402D01*
X113960748Y-124612402D01*
X113802000Y-124771150D01*
X113802000Y-125111709D01*
X113809494Y-125129800D01*
X112807750Y-125129800D01*
X112649000Y-125288550D01*
X112649000Y-126087800D01*
X114248250Y-126087800D01*
X114407000Y-125929050D01*
X114407000Y-125638491D01*
X114399506Y-125620400D01*
X114776250Y-125620400D01*
X114935000Y-125461650D01*
X114935000Y-124612400D01*
X114915000Y-124612400D01*
X114915000Y-124358400D01*
X114935000Y-124358400D01*
X114935000Y-124338400D01*
X115189000Y-124338400D01*
X115189000Y-124358400D01*
X115189000Y-124358400D01*
G37*
X115189000Y-124358400D02*
X115209000Y-124358400D01*
X115209000Y-124612400D01*
X115189000Y-124612400D01*
X115189000Y-125461650D01*
X115347750Y-125620400D01*
X115813310Y-125620400D01*
X115977678Y-125552316D01*
X116173283Y-125607512D01*
X116965195Y-124815600D01*
X116951053Y-124801458D01*
X117130658Y-124621853D01*
X117144800Y-124635995D01*
X117158943Y-124621853D01*
X117338548Y-124801458D01*
X117324405Y-124815600D01*
X117338548Y-124829743D01*
X117158943Y-125009348D01*
X117144800Y-124995205D01*
X116628409Y-125511596D01*
X116361285Y-125621969D01*
X115971339Y-126011236D01*
X115760041Y-126520098D01*
X115759560Y-127071085D01*
X115969969Y-127580315D01*
X116163991Y-127774675D01*
X115996739Y-127941636D01*
X115785441Y-128450498D01*
X115784960Y-129001485D01*
X115995369Y-129510715D01*
X116189391Y-129705075D01*
X116022139Y-129872036D01*
X115810841Y-130380898D01*
X115810360Y-130931885D01*
X115836994Y-130996344D01*
X115690650Y-130850000D01*
X115225090Y-130850000D01*
X114991701Y-130946673D01*
X114813073Y-131125302D01*
X114716400Y-131358691D01*
X114716400Y-131699250D01*
X114730120Y-131712970D01*
X113981230Y-131712970D01*
X113822480Y-131871720D01*
X113822480Y-133070600D01*
X113842480Y-133070600D01*
X113842480Y-133324600D01*
X113822480Y-133324600D01*
X113822480Y-134523480D01*
X113981230Y-134682230D01*
X114741071Y-134682230D01*
X114748238Y-134720317D01*
X114887310Y-134936441D01*
X115099510Y-135081431D01*
X115351400Y-135132440D01*
X116315623Y-135132440D01*
X115791924Y-135656139D01*
X115626743Y-135903349D01*
X115568739Y-136194954D01*
X115568739Y-137191033D01*
X115302558Y-137190801D01*
X114975695Y-137325858D01*
X114725397Y-137575719D01*
X114589769Y-137902346D01*
X114589461Y-138256012D01*
X114724518Y-138582875D01*
X114803937Y-138662433D01*
X114446985Y-139019385D01*
X114349848Y-139164760D01*
X114158000Y-139164760D01*
X113922683Y-139209038D01*
X113706559Y-139348110D01*
X113561569Y-139560310D01*
X113513579Y-139797290D01*
X113500813Y-139791989D01*
X113147147Y-139791681D01*
X112820284Y-139926738D01*
X112569986Y-140176599D01*
X112434358Y-140503226D01*
X112434050Y-140856892D01*
X112569107Y-141183755D01*
X112818968Y-141434053D01*
X113145595Y-141569681D01*
X113499261Y-141569989D01*
X113543020Y-141551908D01*
X113510560Y-141712200D01*
X113510560Y-142412200D01*
X113549848Y-142621000D01*
X109601000Y-142621000D01*
X109601000Y-138834657D01*
X110032646Y-138834657D01*
X110167703Y-139161520D01*
X110417564Y-139411818D01*
X110744191Y-139547446D01*
X111097857Y-139547754D01*
X111424720Y-139412697D01*
X111675018Y-139162836D01*
X111810646Y-138836209D01*
X111810954Y-138482543D01*
X111675897Y-138155680D01*
X111426036Y-137905382D01*
X111099409Y-137769754D01*
X110745743Y-137769446D01*
X110418880Y-137904503D01*
X110168582Y-138154364D01*
X110032954Y-138480991D01*
X110032646Y-138834657D01*
X109601000Y-138834657D01*
X109601000Y-135892551D01*
X109721293Y-135972928D01*
X110134400Y-136055100D01*
X110547507Y-135972928D01*
X110897722Y-135738922D01*
X111131728Y-135388707D01*
X111213900Y-134975600D01*
X111213900Y-134694670D01*
X111286290Y-134694670D01*
X111345325Y-134683562D01*
X111345062Y-134986043D01*
X111480119Y-135312906D01*
X111729980Y-135563204D01*
X112056607Y-135698832D01*
X112410273Y-135699140D01*
X112737136Y-135564083D01*
X112987434Y-135314222D01*
X113123062Y-134987595D01*
X113123328Y-134682230D01*
X113409730Y-134682230D01*
X113568480Y-134523480D01*
X113568480Y-133324600D01*
X112168940Y-133324600D01*
X112010190Y-133483350D01*
X112010190Y-133940652D01*
X111933730Y-133972245D01*
X111933730Y-132347970D01*
X111909964Y-132221660D01*
X112010190Y-132221660D01*
X112010190Y-132911850D01*
X112168940Y-133070600D01*
X113568480Y-133070600D01*
X113568480Y-131871720D01*
X113409730Y-131712970D01*
X112518881Y-131712970D01*
X112285492Y-131809643D01*
X112106863Y-131988271D01*
X112010190Y-132221660D01*
X111909964Y-132221660D01*
X111889452Y-132112653D01*
X111750380Y-131896529D01*
X111538180Y-131751539D01*
X111286290Y-131700530D01*
X109601000Y-131700530D01*
X109601000Y-129605055D01*
X109719839Y-129605158D01*
X110046702Y-129470101D01*
X110297000Y-129220240D01*
X110432628Y-128893613D01*
X110432936Y-128539947D01*
X110297879Y-128213084D01*
X110048018Y-127962786D01*
X109721391Y-127827158D01*
X109601000Y-127827053D01*
X109601000Y-126500550D01*
X110637000Y-126500550D01*
X110637000Y-126791109D01*
X110733673Y-127024498D01*
X110912301Y-127203127D01*
X111145690Y-127299800D01*
X112236250Y-127299800D01*
X112395000Y-127141050D01*
X112395000Y-126341800D01*
X112649000Y-126341800D01*
X112649000Y-127141050D01*
X112807750Y-127299800D01*
X113898310Y-127299800D01*
X114131699Y-127203127D01*
X114310327Y-127024498D01*
X114407000Y-126791109D01*
X114407000Y-126500550D01*
X114248250Y-126341800D01*
X112649000Y-126341800D01*
X112395000Y-126341800D01*
X110795750Y-126341800D01*
X110637000Y-126500550D01*
X109601000Y-126500550D01*
X109601000Y-125638491D01*
X110637000Y-125638491D01*
X110637000Y-125929050D01*
X110795750Y-126087800D01*
X112395000Y-126087800D01*
X112395000Y-125288550D01*
X112236250Y-125129800D01*
X111145690Y-125129800D01*
X110912301Y-125226473D01*
X110733673Y-125405102D01*
X110637000Y-125638491D01*
X109601000Y-125638491D01*
X109601000Y-124587000D01*
X113802000Y-124587000D01*
X113802000Y-124612402D01*
X113960748Y-124612402D01*
X113802000Y-124771150D01*
X113802000Y-125111709D01*
X113809494Y-125129800D01*
X112807750Y-125129800D01*
X112649000Y-125288550D01*
X112649000Y-126087800D01*
X114248250Y-126087800D01*
X114407000Y-125929050D01*
X114407000Y-125638491D01*
X114399506Y-125620400D01*
X114776250Y-125620400D01*
X114935000Y-125461650D01*
X114935000Y-124612400D01*
X114915000Y-124612400D01*
X114915000Y-124358400D01*
X114935000Y-124358400D01*
X114935000Y-124338400D01*
X115189000Y-124338400D01*
X115189000Y-124358400D01*
G36*
X128381600Y-141608050D02*
X128540350Y-141766800D01*
X129514600Y-141766800D01*
X129514600Y-141746800D01*
X129768600Y-141746800D01*
X129768600Y-141766800D01*
X129788600Y-141766800D01*
X129788600Y-142020800D01*
X129768600Y-142020800D01*
X129768600Y-142040800D01*
X129514600Y-142040800D01*
X129514600Y-142020800D01*
X129266425Y-142020800D01*
X129265401Y-142019774D01*
X128938774Y-141884146D01*
X128585108Y-141883838D01*
X128258245Y-142018895D01*
X128242281Y-142034831D01*
X128202850Y-141995400D01*
X127228600Y-141995400D01*
X127228600Y-142015400D01*
X126974600Y-142015400D01*
X126974600Y-141995400D01*
X126720991Y-141995400D01*
X126410904Y-141866640D01*
X126057238Y-141866332D01*
X125730375Y-142001389D01*
X125699580Y-142032130D01*
X125662850Y-141995400D01*
X124688600Y-141995400D01*
X124688600Y-142015400D01*
X124672704Y-142015400D01*
X124648166Y-141999004D01*
X124327400Y-141935200D01*
X123997578Y-141935200D01*
X123875609Y-141884554D01*
X123521943Y-141884246D01*
X123259030Y-141992879D01*
X123137394Y-141871030D01*
X123191165Y-141871077D01*
X123498901Y-141743923D01*
X127707439Y-141743923D01*
X127720123Y-141741400D01*
X128202850Y-141741400D01*
X128361600Y-141582650D01*
X128361600Y-141405392D01*
X128381600Y-141385392D01*
X128381600Y-141608050D01*
X128381600Y-141608050D01*
G37*
X128381600Y-141608050D02*
X128540350Y-141766800D01*
X129514600Y-141766800D01*
X129514600Y-141746800D01*
X129768600Y-141746800D01*
X129768600Y-141766800D01*
X129788600Y-141766800D01*
X129788600Y-142020800D01*
X129768600Y-142020800D01*
X129768600Y-142040800D01*
X129514600Y-142040800D01*
X129514600Y-142020800D01*
X129266425Y-142020800D01*
X129265401Y-142019774D01*
X128938774Y-141884146D01*
X128585108Y-141883838D01*
X128258245Y-142018895D01*
X128242281Y-142034831D01*
X128202850Y-141995400D01*
X127228600Y-141995400D01*
X127228600Y-142015400D01*
X126974600Y-142015400D01*
X126974600Y-141995400D01*
X126720991Y-141995400D01*
X126410904Y-141866640D01*
X126057238Y-141866332D01*
X125730375Y-142001389D01*
X125699580Y-142032130D01*
X125662850Y-141995400D01*
X124688600Y-141995400D01*
X124688600Y-142015400D01*
X124672704Y-142015400D01*
X124648166Y-141999004D01*
X124327400Y-141935200D01*
X123997578Y-141935200D01*
X123875609Y-141884554D01*
X123521943Y-141884246D01*
X123259030Y-141992879D01*
X123137394Y-141871030D01*
X123191165Y-141871077D01*
X123498901Y-141743923D01*
X127707439Y-141743923D01*
X127720123Y-141741400D01*
X128202850Y-141741400D01*
X128361600Y-141582650D01*
X128361600Y-141405392D01*
X128381600Y-141385392D01*
X128381600Y-141608050D01*
G36*
X131159510Y-140869336D02*
X131105159Y-140904310D01*
X131059579Y-140971019D01*
X130881463Y-140970864D01*
X130782556Y-141011731D01*
X130663690Y-140892864D01*
X130718041Y-140857890D01*
X130758956Y-140798009D01*
X130979231Y-140798201D01*
X131056464Y-140766289D01*
X131159510Y-140869336D01*
X131159510Y-140869336D01*
G37*
X131159510Y-140869336D02*
X131105159Y-140904310D01*
X131059579Y-140971019D01*
X130881463Y-140970864D01*
X130782556Y-141011731D01*
X130663690Y-140892864D01*
X130718041Y-140857890D01*
X130758956Y-140798009D01*
X130979231Y-140798201D01*
X131056464Y-140766289D01*
X131159510Y-140869336D01*
G36*
X116103400Y-131858000D02*
X116123400Y-131858000D01*
X116123400Y-132112000D01*
X116103400Y-132112000D01*
X116103400Y-132132000D01*
X115849400Y-132132000D01*
X115849400Y-132112000D01*
X115829400Y-132112000D01*
X115829400Y-131858000D01*
X115849400Y-131858000D01*
X115849400Y-131838000D01*
X116103400Y-131838000D01*
X116103400Y-131858000D01*
X116103400Y-131858000D01*
G37*
X116103400Y-131858000D02*
X116123400Y-131858000D01*
X116123400Y-132112000D01*
X116103400Y-132112000D01*
X116103400Y-132132000D01*
X115849400Y-132132000D01*
X115849400Y-132112000D01*
X115829400Y-132112000D01*
X115829400Y-131858000D01*
X115849400Y-131858000D01*
X115849400Y-131838000D01*
X116103400Y-131838000D01*
X116103400Y-131858000D01*
G36*
X126195982Y-127156164D02*
X126060354Y-127482791D01*
X126060046Y-127836457D01*
X126195103Y-128163320D01*
X126444964Y-128413618D01*
X126752480Y-128541311D01*
X128503680Y-130292511D01*
X128503680Y-130395930D01*
X128444036Y-130336182D01*
X128117409Y-130200554D01*
X127763743Y-130200246D01*
X127436880Y-130335303D01*
X127186582Y-130585164D01*
X127050954Y-130911791D01*
X127050837Y-131045780D01*
X127046967Y-131044997D01*
X127032950Y-131030980D01*
X126990390Y-131030980D01*
X126986240Y-131032699D01*
X126980561Y-131031549D01*
X126969936Y-130978135D01*
X126959550Y-130962591D01*
X126804755Y-130730924D01*
X126788209Y-130714378D01*
X126661897Y-130408680D01*
X126412036Y-130158382D01*
X126085409Y-130022754D01*
X125731743Y-130022446D01*
X125404880Y-130157503D01*
X125198874Y-130363149D01*
X125094799Y-130319933D01*
X124741133Y-130319625D01*
X124433397Y-130446779D01*
X123969781Y-130446779D01*
X123678176Y-130504783D01*
X123651695Y-130522477D01*
X123516436Y-130386982D01*
X123189809Y-130251354D01*
X123022301Y-130251208D01*
X122993494Y-130181491D01*
X122743633Y-129931193D01*
X122417006Y-129795565D01*
X122275600Y-129795442D01*
X122275600Y-128549400D01*
X122217596Y-128257795D01*
X122180322Y-128202010D01*
X122052415Y-128010584D01*
X121818735Y-127776905D01*
X121784630Y-127754117D01*
X121571525Y-127611724D01*
X121497127Y-127596925D01*
X121711211Y-127383215D01*
X121846839Y-127056588D01*
X121846853Y-127040994D01*
X126311353Y-127040994D01*
X126195982Y-127156164D01*
X126195982Y-127156164D01*
G37*
X126195982Y-127156164D02*
X126060354Y-127482791D01*
X126060046Y-127836457D01*
X126195103Y-128163320D01*
X126444964Y-128413618D01*
X126752480Y-128541311D01*
X128503680Y-130292511D01*
X128503680Y-130395930D01*
X128444036Y-130336182D01*
X128117409Y-130200554D01*
X127763743Y-130200246D01*
X127436880Y-130335303D01*
X127186582Y-130585164D01*
X127050954Y-130911791D01*
X127050837Y-131045780D01*
X127046967Y-131044997D01*
X127032950Y-131030980D01*
X126990390Y-131030980D01*
X126986240Y-131032699D01*
X126980561Y-131031549D01*
X126969936Y-130978135D01*
X126959550Y-130962591D01*
X126804755Y-130730924D01*
X126788209Y-130714378D01*
X126661897Y-130408680D01*
X126412036Y-130158382D01*
X126085409Y-130022754D01*
X125731743Y-130022446D01*
X125404880Y-130157503D01*
X125198874Y-130363149D01*
X125094799Y-130319933D01*
X124741133Y-130319625D01*
X124433397Y-130446779D01*
X123969781Y-130446779D01*
X123678176Y-130504783D01*
X123651695Y-130522477D01*
X123516436Y-130386982D01*
X123189809Y-130251354D01*
X123022301Y-130251208D01*
X122993494Y-130181491D01*
X122743633Y-129931193D01*
X122417006Y-129795565D01*
X122275600Y-129795442D01*
X122275600Y-128549400D01*
X122217596Y-128257795D01*
X122180322Y-128202010D01*
X122052415Y-128010584D01*
X121818735Y-127776905D01*
X121784630Y-127754117D01*
X121571525Y-127611724D01*
X121497127Y-127596925D01*
X121711211Y-127383215D01*
X121846839Y-127056588D01*
X121846853Y-127040994D01*
X126311353Y-127040994D01*
X126195982Y-127156164D01*
G36*
X132989197Y-101568805D02*
X132799278Y-101575223D01*
X132697674Y-101913980D01*
X132733441Y-102265833D01*
X132799278Y-102424777D01*
X132989200Y-102431195D01*
X133420395Y-102000000D01*
X133406253Y-101985858D01*
X133585858Y-101806253D01*
X133600000Y-101820395D01*
X133614143Y-101806253D01*
X133793748Y-101985858D01*
X133779605Y-102000000D01*
X134210800Y-102431195D01*
X134350000Y-102426491D01*
X134489200Y-102431195D01*
X134920395Y-102000000D01*
X134906253Y-101985858D01*
X135085858Y-101806253D01*
X135100000Y-101820395D01*
X135114143Y-101806253D01*
X135293748Y-101985858D01*
X135279605Y-102000000D01*
X135695669Y-102416064D01*
X135699278Y-102424777D01*
X135704561Y-102424956D01*
X135710800Y-102431195D01*
X135800000Y-102428181D01*
X135889200Y-102431195D01*
X135895439Y-102424956D01*
X135900722Y-102424777D01*
X135902909Y-102417486D01*
X136320395Y-102000000D01*
X136306253Y-101985858D01*
X136485858Y-101806253D01*
X136500000Y-101820395D01*
X136514143Y-101806253D01*
X136693748Y-101985858D01*
X136679605Y-102000000D01*
X137095669Y-102416064D01*
X137099278Y-102424777D01*
X137104561Y-102424956D01*
X137110800Y-102431195D01*
X137200000Y-102428181D01*
X137289200Y-102431195D01*
X137295439Y-102424956D01*
X137300722Y-102424777D01*
X137302909Y-102417486D01*
X137720395Y-102000000D01*
X137706253Y-101985858D01*
X137885858Y-101806253D01*
X137900000Y-101820395D01*
X137914143Y-101806253D01*
X138093748Y-101985858D01*
X138079605Y-102000000D01*
X138510800Y-102431195D01*
X138700722Y-102424777D01*
X138714000Y-102380507D01*
X138714000Y-102807279D01*
X138700722Y-102775223D01*
X138510800Y-102768805D01*
X138079605Y-103200000D01*
X138093748Y-103214143D01*
X137974897Y-103332993D01*
X137900701Y-103380306D01*
X137900000Y-103379605D01*
X137896829Y-103382776D01*
X137883430Y-103391320D01*
X137706253Y-103214143D01*
X137720395Y-103200000D01*
X137289200Y-102768805D01*
X137099278Y-102775223D01*
X136997674Y-103113980D01*
X137005765Y-103193576D01*
X136686020Y-103097674D01*
X136334167Y-103133441D01*
X136175223Y-103199278D01*
X136168805Y-103389200D01*
X136600000Y-103820395D01*
X136614143Y-103806253D01*
X136793748Y-103985858D01*
X136779605Y-104000000D01*
X136793748Y-104014143D01*
X136614143Y-104193748D01*
X136600000Y-104179605D01*
X136585858Y-104193748D01*
X136406253Y-104014143D01*
X136420395Y-104000000D01*
X135989200Y-103568805D01*
X135799278Y-103575223D01*
X135697674Y-103913980D01*
X135702620Y-103962639D01*
X135486020Y-103897674D01*
X135134167Y-103933441D01*
X134975223Y-103999278D01*
X134968805Y-104189200D01*
X135400000Y-104620395D01*
X135414143Y-104606253D01*
X135593748Y-104785858D01*
X135579605Y-104800000D01*
X135593748Y-104814143D01*
X135490897Y-104916993D01*
X135379890Y-104987780D01*
X135206253Y-104814143D01*
X135220395Y-104800000D01*
X134789200Y-104368805D01*
X134599278Y-104375223D01*
X134497674Y-104713980D01*
X134513105Y-104865784D01*
X134286020Y-104797674D01*
X133934167Y-104833441D01*
X133775223Y-104899278D01*
X133768805Y-105089200D01*
X134200000Y-105520395D01*
X134214143Y-105506253D01*
X134393748Y-105685858D01*
X134379605Y-105700000D01*
X134393748Y-105714143D01*
X134214143Y-105893748D01*
X134200000Y-105879605D01*
X133768805Y-106310800D01*
X133775223Y-106500722D01*
X134113980Y-106602326D01*
X134332500Y-106580113D01*
X134332500Y-108521500D01*
X134386546Y-108793205D01*
X134540454Y-109023546D01*
X134770795Y-109177454D01*
X135042500Y-109231500D01*
X135570755Y-109231500D01*
X135568805Y-109289200D01*
X136000000Y-109720395D01*
X136431195Y-109289200D01*
X136429245Y-109231500D01*
X136770755Y-109231500D01*
X136768805Y-109289200D01*
X137200000Y-109720395D01*
X137631195Y-109289200D01*
X137629245Y-109231500D01*
X137870755Y-109231500D01*
X137868805Y-109289200D01*
X138300000Y-109720395D01*
X138314143Y-109706253D01*
X138493748Y-109885858D01*
X138479605Y-109900000D01*
X138493748Y-109914143D01*
X138314143Y-110093748D01*
X138300000Y-110079605D01*
X137868805Y-110510800D01*
X137875199Y-110700000D01*
X137868805Y-110889200D01*
X138300000Y-111320395D01*
X138314143Y-111306253D01*
X138493748Y-111485858D01*
X138479605Y-111500000D01*
X138493748Y-111514143D01*
X138314143Y-111693748D01*
X138300000Y-111679605D01*
X137868805Y-112110800D01*
X137873509Y-112250000D01*
X137868805Y-112389200D01*
X138300000Y-112820395D01*
X138314143Y-112806253D01*
X138493748Y-112985858D01*
X138479605Y-113000000D01*
X138493748Y-113014143D01*
X138314143Y-113193748D01*
X138300000Y-113179605D01*
X137883936Y-113595669D01*
X137875223Y-113599278D01*
X137875044Y-113604561D01*
X137868805Y-113610800D01*
X137871819Y-113700000D01*
X137868805Y-113789200D01*
X137875044Y-113795439D01*
X137875223Y-113800722D01*
X137882514Y-113802909D01*
X138300000Y-114220395D01*
X138314143Y-114206253D01*
X138493748Y-114385858D01*
X138479605Y-114400000D01*
X138493748Y-114414143D01*
X138314143Y-114593748D01*
X138300000Y-114579605D01*
X137868805Y-115010800D01*
X137875223Y-115200722D01*
X138213980Y-115302326D01*
X138565833Y-115266559D01*
X138713806Y-115205266D01*
X138713535Y-124562545D01*
X138638280Y-124637800D01*
X138638280Y-125887480D01*
X138658280Y-125887480D01*
X138658280Y-126141480D01*
X138638280Y-126141480D01*
X138638280Y-127391160D01*
X138713451Y-127466331D01*
X138713428Y-128266450D01*
X138342031Y-128266450D01*
X137578165Y-127502585D01*
X137521855Y-127464960D01*
X137330955Y-127337404D01*
X137119906Y-127295424D01*
X137207791Y-127166800D01*
X137258800Y-126914910D01*
X137258800Y-126300230D01*
X137276840Y-126300230D01*
X137276840Y-127041219D01*
X137373513Y-127274608D01*
X137552141Y-127453237D01*
X137785530Y-127549910D01*
X138225530Y-127549910D01*
X138384280Y-127391160D01*
X138384280Y-126141480D01*
X137435590Y-126141480D01*
X137276840Y-126300230D01*
X137258800Y-126300230D01*
X137258800Y-125114050D01*
X137235034Y-124987741D01*
X137276840Y-124987741D01*
X137276840Y-125728730D01*
X137435590Y-125887480D01*
X138384280Y-125887480D01*
X138384280Y-124637800D01*
X138225530Y-124479050D01*
X137785530Y-124479050D01*
X137552141Y-124575723D01*
X137373513Y-124754352D01*
X137276840Y-124987741D01*
X137235034Y-124987741D01*
X137214522Y-124878733D01*
X137075450Y-124662609D01*
X136863250Y-124517619D01*
X136611360Y-124466610D01*
X135499000Y-124466610D01*
X135499000Y-124392491D01*
X135402327Y-124159102D01*
X135223699Y-123980473D01*
X134990310Y-123883800D01*
X134524750Y-123883800D01*
X134366000Y-124042550D01*
X134366000Y-124891800D01*
X134386000Y-124891800D01*
X134386000Y-125145800D01*
X134366000Y-125145800D01*
X134366000Y-125165800D01*
X134112000Y-125165800D01*
X134112000Y-125145800D01*
X134092000Y-125145800D01*
X134092000Y-124891800D01*
X134112000Y-124891800D01*
X134112000Y-124042550D01*
X133953250Y-123883800D01*
X133662216Y-123883800D01*
X133737848Y-123770608D01*
X133790596Y-123691665D01*
X133848600Y-123400060D01*
X133848600Y-123359592D01*
X134038041Y-123237690D01*
X134084569Y-123169594D01*
X134226902Y-123311927D01*
X134460291Y-123408600D01*
X134800850Y-123408600D01*
X134959600Y-123249850D01*
X134959600Y-122275600D01*
X135213600Y-122275600D01*
X135213600Y-123249850D01*
X135372350Y-123408600D01*
X135712909Y-123408600D01*
X135946298Y-123311927D01*
X136124927Y-123133299D01*
X136221600Y-122899910D01*
X136221600Y-122434350D01*
X136062850Y-122275600D01*
X135213600Y-122275600D01*
X134959600Y-122275600D01*
X134939600Y-122275600D01*
X134939600Y-122021600D01*
X134959600Y-122021600D01*
X134959600Y-121201850D01*
X134969000Y-121192450D01*
X134969000Y-121047350D01*
X135213600Y-121047350D01*
X135213600Y-122021600D01*
X136062850Y-122021600D01*
X136221600Y-121862850D01*
X136221600Y-121397290D01*
X136124927Y-121163901D01*
X136085626Y-121124600D01*
X136134327Y-121075899D01*
X136231000Y-120842510D01*
X136231000Y-120376950D01*
X136072250Y-120218200D01*
X135223000Y-120218200D01*
X135223000Y-121037950D01*
X135213600Y-121047350D01*
X134969000Y-121047350D01*
X134969000Y-120218200D01*
X134949000Y-120218200D01*
X134949000Y-119964200D01*
X134969000Y-119964200D01*
X134969000Y-119944200D01*
X135223000Y-119944200D01*
X135223000Y-119964200D01*
X136072250Y-119964200D01*
X136231000Y-119805450D01*
X136231000Y-119339890D01*
X136134327Y-119106501D01*
X135955698Y-118927873D01*
X135722309Y-118831200D01*
X135381750Y-118831200D01*
X135345968Y-118866982D01*
X135399310Y-118738520D01*
X135819216Y-118318615D01*
X135932915Y-118148452D01*
X135984396Y-118071405D01*
X136037985Y-117801996D01*
X136165717Y-117777962D01*
X136381841Y-117638890D01*
X136526831Y-117426690D01*
X136577840Y-117174800D01*
X136577840Y-116474800D01*
X136533562Y-116239483D01*
X136394490Y-116023359D01*
X136182290Y-115878369D01*
X136148910Y-115871609D01*
X136290099Y-115813127D01*
X136468727Y-115634498D01*
X136565400Y-115401109D01*
X136565400Y-115210550D01*
X136406650Y-115051800D01*
X135407400Y-115051800D01*
X135407400Y-115071800D01*
X135153400Y-115071800D01*
X135153400Y-115051800D01*
X133654800Y-115051800D01*
X133654800Y-115071800D01*
X133400800Y-115071800D01*
X133400800Y-115051800D01*
X132942050Y-115051800D01*
X132926850Y-115036600D01*
X131927600Y-115036600D01*
X131927600Y-115056600D01*
X131673600Y-115056600D01*
X131673600Y-115036600D01*
X131653600Y-115036600D01*
X131653600Y-114782600D01*
X131673600Y-114782600D01*
X131673600Y-114083350D01*
X131927600Y-114083350D01*
X131927600Y-114782600D01*
X132386350Y-114782600D01*
X132401550Y-114797800D01*
X133400800Y-114797800D01*
X133400800Y-114098550D01*
X133654800Y-114098550D01*
X133654800Y-114797800D01*
X135153400Y-114797800D01*
X135153400Y-114098550D01*
X135407400Y-114098550D01*
X135407400Y-114797800D01*
X136406650Y-114797800D01*
X136565400Y-114639050D01*
X136565400Y-114448491D01*
X136509684Y-114313980D01*
X137397674Y-114313980D01*
X137433441Y-114665833D01*
X137499278Y-114824777D01*
X137689200Y-114831195D01*
X138120395Y-114400000D01*
X137689200Y-113968805D01*
X137499278Y-113975223D01*
X137397674Y-114313980D01*
X136509684Y-114313980D01*
X136468727Y-114215102D01*
X136290099Y-114036473D01*
X136056710Y-113939800D01*
X135566150Y-113939800D01*
X135407400Y-114098550D01*
X135153400Y-114098550D01*
X134994650Y-113939800D01*
X134504090Y-113939800D01*
X134404100Y-113981217D01*
X134304110Y-113939800D01*
X133813550Y-113939800D01*
X133654800Y-114098550D01*
X133400800Y-114098550D01*
X133242050Y-113939800D01*
X132751490Y-113939800D01*
X132682548Y-113968357D01*
X132576910Y-113924600D01*
X132086350Y-113924600D01*
X131927600Y-114083350D01*
X131673600Y-114083350D01*
X131514850Y-113924600D01*
X131024290Y-113924600D01*
X130790901Y-114021273D01*
X130612273Y-114199902D01*
X130515600Y-114433291D01*
X130515600Y-114623850D01*
X130674348Y-114782598D01*
X130515600Y-114782598D01*
X130515600Y-114871710D01*
X130439800Y-114856360D01*
X129439800Y-114856360D01*
X129306754Y-114881394D01*
X129720946Y-112913980D01*
X137397674Y-112913980D01*
X137433441Y-113265833D01*
X137499278Y-113424777D01*
X137689200Y-113431195D01*
X138120395Y-113000000D01*
X137689200Y-112568805D01*
X137499278Y-112575223D01*
X137397674Y-112913980D01*
X129720946Y-112913980D01*
X130036735Y-111413980D01*
X137397674Y-111413980D01*
X137433441Y-111765833D01*
X137499278Y-111924777D01*
X137689200Y-111931195D01*
X138120395Y-111500000D01*
X137689200Y-111068805D01*
X137499278Y-111075223D01*
X137397674Y-111413980D01*
X130036735Y-111413980D01*
X130172276Y-110770163D01*
X130174954Y-110747431D01*
X130181349Y-110510800D01*
X135568805Y-110510800D01*
X135575223Y-110700722D01*
X135913980Y-110802326D01*
X136265833Y-110766559D01*
X136424777Y-110700722D01*
X136431195Y-110510800D01*
X136768805Y-110510800D01*
X136775223Y-110700722D01*
X137113980Y-110802326D01*
X137465833Y-110766559D01*
X137624777Y-110700722D01*
X137631195Y-110510800D01*
X137200000Y-110079605D01*
X136768805Y-110510800D01*
X136431195Y-110510800D01*
X136000000Y-110079605D01*
X135568805Y-110510800D01*
X130181349Y-110510800D01*
X130200182Y-109813980D01*
X135097674Y-109813980D01*
X135133441Y-110165833D01*
X135199278Y-110324777D01*
X135389200Y-110331195D01*
X135820395Y-109900000D01*
X136179605Y-109900000D01*
X136320768Y-110041163D01*
X136333441Y-110165833D01*
X136399278Y-110324777D01*
X136589200Y-110331195D01*
X136600000Y-110320395D01*
X136610800Y-110331195D01*
X136800722Y-110324777D01*
X136888595Y-110031800D01*
X137020395Y-109900000D01*
X137379605Y-109900000D01*
X137409452Y-109929847D01*
X137433441Y-110165833D01*
X137499278Y-110324777D01*
X137689200Y-110331195D01*
X137750000Y-110270395D01*
X137810800Y-110331195D01*
X138000722Y-110324777D01*
X138102326Y-109986020D01*
X138096056Y-109924339D01*
X138120395Y-109900000D01*
X138090548Y-109870153D01*
X138066559Y-109634167D01*
X138000722Y-109475223D01*
X137810800Y-109468805D01*
X137750000Y-109529605D01*
X137689200Y-109468805D01*
X137499278Y-109475223D01*
X137397674Y-109813980D01*
X137403944Y-109875661D01*
X137379605Y-109900000D01*
X137020395Y-109900000D01*
X136879232Y-109758837D01*
X136866559Y-109634167D01*
X136800722Y-109475223D01*
X136610800Y-109468805D01*
X136600000Y-109479605D01*
X136589200Y-109468805D01*
X136399278Y-109475223D01*
X136311405Y-109768200D01*
X136179605Y-109900000D01*
X135820395Y-109900000D01*
X135389200Y-109468805D01*
X135199278Y-109475223D01*
X135097674Y-109813980D01*
X130200182Y-109813980D01*
X130313695Y-105613980D01*
X133297674Y-105613980D01*
X133333441Y-105965833D01*
X133399278Y-106124777D01*
X133589200Y-106131195D01*
X134020395Y-105700000D01*
X133589200Y-105268805D01*
X133399278Y-105275223D01*
X133297674Y-105613980D01*
X130313695Y-105613980D01*
X130394862Y-102610800D01*
X133168805Y-102610800D01*
X133175223Y-102800722D01*
X133513980Y-102902326D01*
X133865833Y-102866559D01*
X134024777Y-102800722D01*
X134031195Y-102610800D01*
X134668805Y-102610800D01*
X134675223Y-102800722D01*
X135013980Y-102902326D01*
X135365833Y-102866559D01*
X135524777Y-102800722D01*
X135531195Y-102610800D01*
X136068805Y-102610800D01*
X136075223Y-102800722D01*
X136413980Y-102902326D01*
X136765833Y-102866559D01*
X136924777Y-102800722D01*
X136931195Y-102610800D01*
X136909595Y-102589200D01*
X137468805Y-102589200D01*
X137479605Y-102600000D01*
X137468805Y-102610800D01*
X137475223Y-102800722D01*
X137768200Y-102888595D01*
X137900000Y-103020395D01*
X138041163Y-102879232D01*
X138165833Y-102866559D01*
X138324777Y-102800722D01*
X138331195Y-102610800D01*
X138320395Y-102600000D01*
X138331195Y-102589200D01*
X138324777Y-102399278D01*
X138031800Y-102311405D01*
X137900000Y-102179605D01*
X137758837Y-102320768D01*
X137634167Y-102333441D01*
X137475223Y-102399278D01*
X137468805Y-102589200D01*
X136909595Y-102589200D01*
X136500000Y-102179605D01*
X136068805Y-102610800D01*
X135531195Y-102610800D01*
X135100000Y-102179605D01*
X134668805Y-102610800D01*
X134031195Y-102610800D01*
X133600000Y-102179605D01*
X133168805Y-102610800D01*
X130394862Y-102610800D01*
X130423587Y-101548000D01*
X132968392Y-101548000D01*
X132989197Y-101568805D01*
X132989197Y-101568805D01*
G37*
X132989197Y-101568805D02*
X132799278Y-101575223D01*
X132697674Y-101913980D01*
X132733441Y-102265833D01*
X132799278Y-102424777D01*
X132989200Y-102431195D01*
X133420395Y-102000000D01*
X133406253Y-101985858D01*
X133585858Y-101806253D01*
X133600000Y-101820395D01*
X133614143Y-101806253D01*
X133793748Y-101985858D01*
X133779605Y-102000000D01*
X134210800Y-102431195D01*
X134350000Y-102426491D01*
X134489200Y-102431195D01*
X134920395Y-102000000D01*
X134906253Y-101985858D01*
X135085858Y-101806253D01*
X135100000Y-101820395D01*
X135114143Y-101806253D01*
X135293748Y-101985858D01*
X135279605Y-102000000D01*
X135695669Y-102416064D01*
X135699278Y-102424777D01*
X135704561Y-102424956D01*
X135710800Y-102431195D01*
X135800000Y-102428181D01*
X135889200Y-102431195D01*
X135895439Y-102424956D01*
X135900722Y-102424777D01*
X135902909Y-102417486D01*
X136320395Y-102000000D01*
X136306253Y-101985858D01*
X136485858Y-101806253D01*
X136500000Y-101820395D01*
X136514143Y-101806253D01*
X136693748Y-101985858D01*
X136679605Y-102000000D01*
X137095669Y-102416064D01*
X137099278Y-102424777D01*
X137104561Y-102424956D01*
X137110800Y-102431195D01*
X137200000Y-102428181D01*
X137289200Y-102431195D01*
X137295439Y-102424956D01*
X137300722Y-102424777D01*
X137302909Y-102417486D01*
X137720395Y-102000000D01*
X137706253Y-101985858D01*
X137885858Y-101806253D01*
X137900000Y-101820395D01*
X137914143Y-101806253D01*
X138093748Y-101985858D01*
X138079605Y-102000000D01*
X138510800Y-102431195D01*
X138700722Y-102424777D01*
X138714000Y-102380507D01*
X138714000Y-102807279D01*
X138700722Y-102775223D01*
X138510800Y-102768805D01*
X138079605Y-103200000D01*
X138093748Y-103214143D01*
X137974897Y-103332993D01*
X137900701Y-103380306D01*
X137900000Y-103379605D01*
X137896829Y-103382776D01*
X137883430Y-103391320D01*
X137706253Y-103214143D01*
X137720395Y-103200000D01*
X137289200Y-102768805D01*
X137099278Y-102775223D01*
X136997674Y-103113980D01*
X137005765Y-103193576D01*
X136686020Y-103097674D01*
X136334167Y-103133441D01*
X136175223Y-103199278D01*
X136168805Y-103389200D01*
X136600000Y-103820395D01*
X136614143Y-103806253D01*
X136793748Y-103985858D01*
X136779605Y-104000000D01*
X136793748Y-104014143D01*
X136614143Y-104193748D01*
X136600000Y-104179605D01*
X136585858Y-104193748D01*
X136406253Y-104014143D01*
X136420395Y-104000000D01*
X135989200Y-103568805D01*
X135799278Y-103575223D01*
X135697674Y-103913980D01*
X135702620Y-103962639D01*
X135486020Y-103897674D01*
X135134167Y-103933441D01*
X134975223Y-103999278D01*
X134968805Y-104189200D01*
X135400000Y-104620395D01*
X135414143Y-104606253D01*
X135593748Y-104785858D01*
X135579605Y-104800000D01*
X135593748Y-104814143D01*
X135490897Y-104916993D01*
X135379890Y-104987780D01*
X135206253Y-104814143D01*
X135220395Y-104800000D01*
X134789200Y-104368805D01*
X134599278Y-104375223D01*
X134497674Y-104713980D01*
X134513105Y-104865784D01*
X134286020Y-104797674D01*
X133934167Y-104833441D01*
X133775223Y-104899278D01*
X133768805Y-105089200D01*
X134200000Y-105520395D01*
X134214143Y-105506253D01*
X134393748Y-105685858D01*
X134379605Y-105700000D01*
X134393748Y-105714143D01*
X134214143Y-105893748D01*
X134200000Y-105879605D01*
X133768805Y-106310800D01*
X133775223Y-106500722D01*
X134113980Y-106602326D01*
X134332500Y-106580113D01*
X134332500Y-108521500D01*
X134386546Y-108793205D01*
X134540454Y-109023546D01*
X134770795Y-109177454D01*
X135042500Y-109231500D01*
X135570755Y-109231500D01*
X135568805Y-109289200D01*
X136000000Y-109720395D01*
X136431195Y-109289200D01*
X136429245Y-109231500D01*
X136770755Y-109231500D01*
X136768805Y-109289200D01*
X137200000Y-109720395D01*
X137631195Y-109289200D01*
X137629245Y-109231500D01*
X137870755Y-109231500D01*
X137868805Y-109289200D01*
X138300000Y-109720395D01*
X138314143Y-109706253D01*
X138493748Y-109885858D01*
X138479605Y-109900000D01*
X138493748Y-109914143D01*
X138314143Y-110093748D01*
X138300000Y-110079605D01*
X137868805Y-110510800D01*
X137875199Y-110700000D01*
X137868805Y-110889200D01*
X138300000Y-111320395D01*
X138314143Y-111306253D01*
X138493748Y-111485858D01*
X138479605Y-111500000D01*
X138493748Y-111514143D01*
X138314143Y-111693748D01*
X138300000Y-111679605D01*
X137868805Y-112110800D01*
X137873509Y-112250000D01*
X137868805Y-112389200D01*
X138300000Y-112820395D01*
X138314143Y-112806253D01*
X138493748Y-112985858D01*
X138479605Y-113000000D01*
X138493748Y-113014143D01*
X138314143Y-113193748D01*
X138300000Y-113179605D01*
X137883936Y-113595669D01*
X137875223Y-113599278D01*
X137875044Y-113604561D01*
X137868805Y-113610800D01*
X137871819Y-113700000D01*
X137868805Y-113789200D01*
X137875044Y-113795439D01*
X137875223Y-113800722D01*
X137882514Y-113802909D01*
X138300000Y-114220395D01*
X138314143Y-114206253D01*
X138493748Y-114385858D01*
X138479605Y-114400000D01*
X138493748Y-114414143D01*
X138314143Y-114593748D01*
X138300000Y-114579605D01*
X137868805Y-115010800D01*
X137875223Y-115200722D01*
X138213980Y-115302326D01*
X138565833Y-115266559D01*
X138713806Y-115205266D01*
X138713535Y-124562545D01*
X138638280Y-124637800D01*
X138638280Y-125887480D01*
X138658280Y-125887480D01*
X138658280Y-126141480D01*
X138638280Y-126141480D01*
X138638280Y-127391160D01*
X138713451Y-127466331D01*
X138713428Y-128266450D01*
X138342031Y-128266450D01*
X137578165Y-127502585D01*
X137521855Y-127464960D01*
X137330955Y-127337404D01*
X137119906Y-127295424D01*
X137207791Y-127166800D01*
X137258800Y-126914910D01*
X137258800Y-126300230D01*
X137276840Y-126300230D01*
X137276840Y-127041219D01*
X137373513Y-127274608D01*
X137552141Y-127453237D01*
X137785530Y-127549910D01*
X138225530Y-127549910D01*
X138384280Y-127391160D01*
X138384280Y-126141480D01*
X137435590Y-126141480D01*
X137276840Y-126300230D01*
X137258800Y-126300230D01*
X137258800Y-125114050D01*
X137235034Y-124987741D01*
X137276840Y-124987741D01*
X137276840Y-125728730D01*
X137435590Y-125887480D01*
X138384280Y-125887480D01*
X138384280Y-124637800D01*
X138225530Y-124479050D01*
X137785530Y-124479050D01*
X137552141Y-124575723D01*
X137373513Y-124754352D01*
X137276840Y-124987741D01*
X137235034Y-124987741D01*
X137214522Y-124878733D01*
X137075450Y-124662609D01*
X136863250Y-124517619D01*
X136611360Y-124466610D01*
X135499000Y-124466610D01*
X135499000Y-124392491D01*
X135402327Y-124159102D01*
X135223699Y-123980473D01*
X134990310Y-123883800D01*
X134524750Y-123883800D01*
X134366000Y-124042550D01*
X134366000Y-124891800D01*
X134386000Y-124891800D01*
X134386000Y-125145800D01*
X134366000Y-125145800D01*
X134366000Y-125165800D01*
X134112000Y-125165800D01*
X134112000Y-125145800D01*
X134092000Y-125145800D01*
X134092000Y-124891800D01*
X134112000Y-124891800D01*
X134112000Y-124042550D01*
X133953250Y-123883800D01*
X133662216Y-123883800D01*
X133737848Y-123770608D01*
X133790596Y-123691665D01*
X133848600Y-123400060D01*
X133848600Y-123359592D01*
X134038041Y-123237690D01*
X134084569Y-123169594D01*
X134226902Y-123311927D01*
X134460291Y-123408600D01*
X134800850Y-123408600D01*
X134959600Y-123249850D01*
X134959600Y-122275600D01*
X135213600Y-122275600D01*
X135213600Y-123249850D01*
X135372350Y-123408600D01*
X135712909Y-123408600D01*
X135946298Y-123311927D01*
X136124927Y-123133299D01*
X136221600Y-122899910D01*
X136221600Y-122434350D01*
X136062850Y-122275600D01*
X135213600Y-122275600D01*
X134959600Y-122275600D01*
X134939600Y-122275600D01*
X134939600Y-122021600D01*
X134959600Y-122021600D01*
X134959600Y-121201850D01*
X134969000Y-121192450D01*
X134969000Y-121047350D01*
X135213600Y-121047350D01*
X135213600Y-122021600D01*
X136062850Y-122021600D01*
X136221600Y-121862850D01*
X136221600Y-121397290D01*
X136124927Y-121163901D01*
X136085626Y-121124600D01*
X136134327Y-121075899D01*
X136231000Y-120842510D01*
X136231000Y-120376950D01*
X136072250Y-120218200D01*
X135223000Y-120218200D01*
X135223000Y-121037950D01*
X135213600Y-121047350D01*
X134969000Y-121047350D01*
X134969000Y-120218200D01*
X134949000Y-120218200D01*
X134949000Y-119964200D01*
X134969000Y-119964200D01*
X134969000Y-119944200D01*
X135223000Y-119944200D01*
X135223000Y-119964200D01*
X136072250Y-119964200D01*
X136231000Y-119805450D01*
X136231000Y-119339890D01*
X136134327Y-119106501D01*
X135955698Y-118927873D01*
X135722309Y-118831200D01*
X135381750Y-118831200D01*
X135345968Y-118866982D01*
X135399310Y-118738520D01*
X135819216Y-118318615D01*
X135932915Y-118148452D01*
X135984396Y-118071405D01*
X136037985Y-117801996D01*
X136165717Y-117777962D01*
X136381841Y-117638890D01*
X136526831Y-117426690D01*
X136577840Y-117174800D01*
X136577840Y-116474800D01*
X136533562Y-116239483D01*
X136394490Y-116023359D01*
X136182290Y-115878369D01*
X136148910Y-115871609D01*
X136290099Y-115813127D01*
X136468727Y-115634498D01*
X136565400Y-115401109D01*
X136565400Y-115210550D01*
X136406650Y-115051800D01*
X135407400Y-115051800D01*
X135407400Y-115071800D01*
X135153400Y-115071800D01*
X135153400Y-115051800D01*
X133654800Y-115051800D01*
X133654800Y-115071800D01*
X133400800Y-115071800D01*
X133400800Y-115051800D01*
X132942050Y-115051800D01*
X132926850Y-115036600D01*
X131927600Y-115036600D01*
X131927600Y-115056600D01*
X131673600Y-115056600D01*
X131673600Y-115036600D01*
X131653600Y-115036600D01*
X131653600Y-114782600D01*
X131673600Y-114782600D01*
X131673600Y-114083350D01*
X131927600Y-114083350D01*
X131927600Y-114782600D01*
X132386350Y-114782600D01*
X132401550Y-114797800D01*
X133400800Y-114797800D01*
X133400800Y-114098550D01*
X133654800Y-114098550D01*
X133654800Y-114797800D01*
X135153400Y-114797800D01*
X135153400Y-114098550D01*
X135407400Y-114098550D01*
X135407400Y-114797800D01*
X136406650Y-114797800D01*
X136565400Y-114639050D01*
X136565400Y-114448491D01*
X136509684Y-114313980D01*
X137397674Y-114313980D01*
X137433441Y-114665833D01*
X137499278Y-114824777D01*
X137689200Y-114831195D01*
X138120395Y-114400000D01*
X137689200Y-113968805D01*
X137499278Y-113975223D01*
X137397674Y-114313980D01*
X136509684Y-114313980D01*
X136468727Y-114215102D01*
X136290099Y-114036473D01*
X136056710Y-113939800D01*
X135566150Y-113939800D01*
X135407400Y-114098550D01*
X135153400Y-114098550D01*
X134994650Y-113939800D01*
X134504090Y-113939800D01*
X134404100Y-113981217D01*
X134304110Y-113939800D01*
X133813550Y-113939800D01*
X133654800Y-114098550D01*
X133400800Y-114098550D01*
X133242050Y-113939800D01*
X132751490Y-113939800D01*
X132682548Y-113968357D01*
X132576910Y-113924600D01*
X132086350Y-113924600D01*
X131927600Y-114083350D01*
X131673600Y-114083350D01*
X131514850Y-113924600D01*
X131024290Y-113924600D01*
X130790901Y-114021273D01*
X130612273Y-114199902D01*
X130515600Y-114433291D01*
X130515600Y-114623850D01*
X130674348Y-114782598D01*
X130515600Y-114782598D01*
X130515600Y-114871710D01*
X130439800Y-114856360D01*
X129439800Y-114856360D01*
X129306754Y-114881394D01*
X129720946Y-112913980D01*
X137397674Y-112913980D01*
X137433441Y-113265833D01*
X137499278Y-113424777D01*
X137689200Y-113431195D01*
X138120395Y-113000000D01*
X137689200Y-112568805D01*
X137499278Y-112575223D01*
X137397674Y-112913980D01*
X129720946Y-112913980D01*
X130036735Y-111413980D01*
X137397674Y-111413980D01*
X137433441Y-111765833D01*
X137499278Y-111924777D01*
X137689200Y-111931195D01*
X138120395Y-111500000D01*
X137689200Y-111068805D01*
X137499278Y-111075223D01*
X137397674Y-111413980D01*
X130036735Y-111413980D01*
X130172276Y-110770163D01*
X130174954Y-110747431D01*
X130181349Y-110510800D01*
X135568805Y-110510800D01*
X135575223Y-110700722D01*
X135913980Y-110802326D01*
X136265833Y-110766559D01*
X136424777Y-110700722D01*
X136431195Y-110510800D01*
X136768805Y-110510800D01*
X136775223Y-110700722D01*
X137113980Y-110802326D01*
X137465833Y-110766559D01*
X137624777Y-110700722D01*
X137631195Y-110510800D01*
X137200000Y-110079605D01*
X136768805Y-110510800D01*
X136431195Y-110510800D01*
X136000000Y-110079605D01*
X135568805Y-110510800D01*
X130181349Y-110510800D01*
X130200182Y-109813980D01*
X135097674Y-109813980D01*
X135133441Y-110165833D01*
X135199278Y-110324777D01*
X135389200Y-110331195D01*
X135820395Y-109900000D01*
X136179605Y-109900000D01*
X136320768Y-110041163D01*
X136333441Y-110165833D01*
X136399278Y-110324777D01*
X136589200Y-110331195D01*
X136600000Y-110320395D01*
X136610800Y-110331195D01*
X136800722Y-110324777D01*
X136888595Y-110031800D01*
X137020395Y-109900000D01*
X137379605Y-109900000D01*
X137409452Y-109929847D01*
X137433441Y-110165833D01*
X137499278Y-110324777D01*
X137689200Y-110331195D01*
X137750000Y-110270395D01*
X137810800Y-110331195D01*
X138000722Y-110324777D01*
X138102326Y-109986020D01*
X138096056Y-109924339D01*
X138120395Y-109900000D01*
X138090548Y-109870153D01*
X138066559Y-109634167D01*
X138000722Y-109475223D01*
X137810800Y-109468805D01*
X137750000Y-109529605D01*
X137689200Y-109468805D01*
X137499278Y-109475223D01*
X137397674Y-109813980D01*
X137403944Y-109875661D01*
X137379605Y-109900000D01*
X137020395Y-109900000D01*
X136879232Y-109758837D01*
X136866559Y-109634167D01*
X136800722Y-109475223D01*
X136610800Y-109468805D01*
X136600000Y-109479605D01*
X136589200Y-109468805D01*
X136399278Y-109475223D01*
X136311405Y-109768200D01*
X136179605Y-109900000D01*
X135820395Y-109900000D01*
X135389200Y-109468805D01*
X135199278Y-109475223D01*
X135097674Y-109813980D01*
X130200182Y-109813980D01*
X130313695Y-105613980D01*
X133297674Y-105613980D01*
X133333441Y-105965833D01*
X133399278Y-106124777D01*
X133589200Y-106131195D01*
X134020395Y-105700000D01*
X133589200Y-105268805D01*
X133399278Y-105275223D01*
X133297674Y-105613980D01*
X130313695Y-105613980D01*
X130394862Y-102610800D01*
X133168805Y-102610800D01*
X133175223Y-102800722D01*
X133513980Y-102902326D01*
X133865833Y-102866559D01*
X134024777Y-102800722D01*
X134031195Y-102610800D01*
X134668805Y-102610800D01*
X134675223Y-102800722D01*
X135013980Y-102902326D01*
X135365833Y-102866559D01*
X135524777Y-102800722D01*
X135531195Y-102610800D01*
X136068805Y-102610800D01*
X136075223Y-102800722D01*
X136413980Y-102902326D01*
X136765833Y-102866559D01*
X136924777Y-102800722D01*
X136931195Y-102610800D01*
X136909595Y-102589200D01*
X137468805Y-102589200D01*
X137479605Y-102600000D01*
X137468805Y-102610800D01*
X137475223Y-102800722D01*
X137768200Y-102888595D01*
X137900000Y-103020395D01*
X138041163Y-102879232D01*
X138165833Y-102866559D01*
X138324777Y-102800722D01*
X138331195Y-102610800D01*
X138320395Y-102600000D01*
X138331195Y-102589200D01*
X138324777Y-102399278D01*
X138031800Y-102311405D01*
X137900000Y-102179605D01*
X137758837Y-102320768D01*
X137634167Y-102333441D01*
X137475223Y-102399278D01*
X137468805Y-102589200D01*
X136909595Y-102589200D01*
X136500000Y-102179605D01*
X136068805Y-102610800D01*
X135531195Y-102610800D01*
X135100000Y-102179605D01*
X134668805Y-102610800D01*
X134031195Y-102610800D01*
X133600000Y-102179605D01*
X133168805Y-102610800D01*
X130394862Y-102610800D01*
X130423587Y-101548000D01*
X132968392Y-101548000D01*
X132989197Y-101568805D01*
G36*
X126963550Y-116001800D02*
X127812800Y-116001800D01*
X127812800Y-115981800D01*
X128066800Y-115981800D01*
X128066800Y-116001800D01*
X128086800Y-116001800D01*
X128086800Y-116255800D01*
X128066800Y-116255800D01*
X128066800Y-117230050D01*
X128148000Y-117311250D01*
X128148000Y-118008400D01*
X128168000Y-118008400D01*
X128168000Y-118262400D01*
X128148000Y-118262400D01*
X128148000Y-119261650D01*
X128306750Y-119420400D01*
X128497309Y-119420400D01*
X128579958Y-119386165D01*
X128561684Y-119413515D01*
X128537803Y-119533573D01*
X128534090Y-119529860D01*
X128491530Y-119529860D01*
X128487380Y-119531579D01*
X128417460Y-119517420D01*
X128117460Y-119517420D01*
X128013592Y-119536964D01*
X127917080Y-119517420D01*
X127617080Y-119517420D01*
X127528320Y-119534121D01*
X127528320Y-119413619D01*
X127544691Y-119420400D01*
X127735250Y-119420400D01*
X127894000Y-119261650D01*
X127894000Y-118262400D01*
X127874000Y-118262400D01*
X127874000Y-118008400D01*
X127894000Y-118008400D01*
X127894000Y-117009150D01*
X127812800Y-116927950D01*
X127812800Y-116255800D01*
X126963550Y-116255800D01*
X126804800Y-116414550D01*
X126804800Y-116880110D01*
X126901473Y-117113499D01*
X127068530Y-117280555D01*
X127036000Y-117359090D01*
X127036000Y-117849650D01*
X127194748Y-118008398D01*
X127036000Y-118008398D01*
X127036000Y-118098207D01*
X126888170Y-117950377D01*
X126640960Y-117785196D01*
X126380493Y-117733386D01*
X126060099Y-117600346D01*
X125706433Y-117600038D01*
X125379570Y-117735095D01*
X125309344Y-117805198D01*
X125217052Y-117805198D01*
X125375800Y-117646450D01*
X125375800Y-117180890D01*
X125308272Y-117017864D01*
X125423457Y-117017964D01*
X125750320Y-116882907D01*
X126000618Y-116633046D01*
X126136246Y-116306419D01*
X126136456Y-116065201D01*
X126426757Y-116065454D01*
X126753620Y-115930397D01*
X126822944Y-115861194D01*
X126963550Y-116001800D01*
X126963550Y-116001800D01*
G37*
X126963550Y-116001800D02*
X127812800Y-116001800D01*
X127812800Y-115981800D01*
X128066800Y-115981800D01*
X128066800Y-116001800D01*
X128086800Y-116001800D01*
X128086800Y-116255800D01*
X128066800Y-116255800D01*
X128066800Y-117230050D01*
X128148000Y-117311250D01*
X128148000Y-118008400D01*
X128168000Y-118008400D01*
X128168000Y-118262400D01*
X128148000Y-118262400D01*
X128148000Y-119261650D01*
X128306750Y-119420400D01*
X128497309Y-119420400D01*
X128579958Y-119386165D01*
X128561684Y-119413515D01*
X128537803Y-119533573D01*
X128534090Y-119529860D01*
X128491530Y-119529860D01*
X128487380Y-119531579D01*
X128417460Y-119517420D01*
X128117460Y-119517420D01*
X128013592Y-119536964D01*
X127917080Y-119517420D01*
X127617080Y-119517420D01*
X127528320Y-119534121D01*
X127528320Y-119413619D01*
X127544691Y-119420400D01*
X127735250Y-119420400D01*
X127894000Y-119261650D01*
X127894000Y-118262400D01*
X127874000Y-118262400D01*
X127874000Y-118008400D01*
X127894000Y-118008400D01*
X127894000Y-117009150D01*
X127812800Y-116927950D01*
X127812800Y-116255800D01*
X126963550Y-116255800D01*
X126804800Y-116414550D01*
X126804800Y-116880110D01*
X126901473Y-117113499D01*
X127068530Y-117280555D01*
X127036000Y-117359090D01*
X127036000Y-117849650D01*
X127194748Y-118008398D01*
X127036000Y-118008398D01*
X127036000Y-118098207D01*
X126888170Y-117950377D01*
X126640960Y-117785196D01*
X126380493Y-117733386D01*
X126060099Y-117600346D01*
X125706433Y-117600038D01*
X125379570Y-117735095D01*
X125309344Y-117805198D01*
X125217052Y-117805198D01*
X125375800Y-117646450D01*
X125375800Y-117180890D01*
X125308272Y-117017864D01*
X125423457Y-117017964D01*
X125750320Y-116882907D01*
X126000618Y-116633046D01*
X126136246Y-116306419D01*
X126136456Y-116065201D01*
X126426757Y-116065454D01*
X126753620Y-115930397D01*
X126822944Y-115861194D01*
X126963550Y-116001800D01*
G36*
X124367800Y-117805200D02*
X124387800Y-117805200D01*
X124387800Y-118059200D01*
X124367800Y-118059200D01*
X124367800Y-118079200D01*
X124113800Y-118079200D01*
X124113800Y-118059200D01*
X124093800Y-118059200D01*
X124093800Y-117805200D01*
X124113800Y-117805200D01*
X124113800Y-117785200D01*
X124367800Y-117785200D01*
X124367800Y-117805200D01*
X124367800Y-117805200D01*
G37*
X124367800Y-117805200D02*
X124387800Y-117805200D01*
X124387800Y-118059200D01*
X124367800Y-118059200D01*
X124367800Y-118079200D01*
X124113800Y-118079200D01*
X124113800Y-118059200D01*
X124093800Y-118059200D01*
X124093800Y-117805200D01*
X124113800Y-117805200D01*
X124113800Y-117785200D01*
X124367800Y-117785200D01*
X124367800Y-117805200D01*
G36*
X86588810Y-107953250D02*
X86588502Y-108306916D01*
X86723559Y-108633779D01*
X86973420Y-108884077D01*
X87300047Y-109019705D01*
X87653713Y-109020013D01*
X87816979Y-108952553D01*
X94019826Y-108952553D01*
X97572370Y-112505097D01*
X97844302Y-112686796D01*
X98165067Y-112750600D01*
X105396561Y-112750600D01*
X105717327Y-112686796D01*
X105989258Y-112505097D01*
X106398768Y-112095587D01*
X106546028Y-112243104D01*
X106872655Y-112378732D01*
X107099079Y-112378929D01*
X107026855Y-112451027D01*
X106891227Y-112777654D01*
X106890919Y-113131320D01*
X106941873Y-113254638D01*
X106941873Y-113740973D01*
X107005677Y-114061739D01*
X107187376Y-114333670D01*
X107632103Y-114778397D01*
X107904034Y-114960096D01*
X108011177Y-114981408D01*
X108018072Y-115018050D01*
X108009171Y-115062000D01*
X104432791Y-115062000D01*
X104305101Y-115036601D01*
X104216199Y-115036601D01*
X103895434Y-115100405D01*
X103623502Y-115282104D01*
X103581335Y-115324271D01*
X103459280Y-115374703D01*
X103208982Y-115624564D01*
X103073354Y-115951191D01*
X103073046Y-116304857D01*
X103208103Y-116631720D01*
X103457964Y-116882018D01*
X103784591Y-117017646D01*
X104138257Y-117017954D01*
X104465120Y-116882897D01*
X104609870Y-116738400D01*
X108006472Y-116738400D01*
X108015338Y-116785517D01*
X108154410Y-117001641D01*
X108366610Y-117146631D01*
X108618500Y-117197640D01*
X109318500Y-117197640D01*
X109553817Y-117153362D01*
X109769941Y-117014290D01*
X109914931Y-116802090D01*
X109914970Y-116801898D01*
X109925885Y-116801907D01*
X110054410Y-117001641D01*
X110266610Y-117146631D01*
X110518500Y-117197640D01*
X111218500Y-117197640D01*
X111453817Y-117153362D01*
X111669941Y-117014290D01*
X111814931Y-116802090D01*
X111865940Y-116550200D01*
X111865940Y-116536152D01*
X112011315Y-116439015D01*
X112844915Y-115605416D01*
X113010096Y-115358205D01*
X113021715Y-115299790D01*
X113068100Y-115066600D01*
X113068100Y-113186264D01*
X113104718Y-113274886D01*
X113354579Y-113525184D01*
X113681206Y-113660812D01*
X114034872Y-113661120D01*
X114361735Y-113526063D01*
X114372424Y-113515393D01*
X114615169Y-113616190D01*
X114968835Y-113616498D01*
X115295698Y-113481441D01*
X115545996Y-113231580D01*
X115588246Y-113129831D01*
X115698969Y-113019109D01*
X115878564Y-113199018D01*
X116205191Y-113334646D01*
X116507360Y-113334909D01*
X116507360Y-113488579D01*
X116434465Y-113537286D01*
X114973252Y-114998500D01*
X113919000Y-114998500D01*
X113869590Y-115008506D01*
X113827965Y-115036947D01*
X113800685Y-115079341D01*
X113792000Y-115125500D01*
X113792000Y-121973351D01*
X113789560Y-121985400D01*
X113789560Y-122985400D01*
X113792000Y-122998367D01*
X113792000Y-123888500D01*
X109029500Y-123888500D01*
X108980090Y-123898506D01*
X108938465Y-123926947D01*
X108911185Y-123969341D01*
X108902500Y-124015500D01*
X108902500Y-128100027D01*
X108790564Y-128211768D01*
X108654936Y-128538395D01*
X108654628Y-128892061D01*
X108789685Y-129218924D01*
X108902500Y-129331936D01*
X108902500Y-131775626D01*
X108734269Y-131883880D01*
X108589279Y-132096080D01*
X108538270Y-132347970D01*
X108538270Y-134047230D01*
X108582548Y-134282547D01*
X108721620Y-134498671D01*
X108902500Y-134622261D01*
X108902500Y-141284856D01*
X108486678Y-141700678D01*
X108252672Y-142050893D01*
X108232704Y-142151277D01*
X107469496Y-143113583D01*
X107446632Y-143158513D01*
X107442000Y-143192500D01*
X107442000Y-143448965D01*
X101275812Y-143569871D01*
X101840845Y-142044282D01*
X104562916Y-137992827D01*
X104584500Y-137922000D01*
X104584500Y-126238000D01*
X104574494Y-126188590D01*
X104558288Y-126160729D01*
X101637288Y-122350729D01*
X101599285Y-122317605D01*
X101536500Y-122301000D01*
X101408808Y-122301000D01*
X101281495Y-122173464D01*
X100954868Y-122037836D01*
X100601202Y-122037528D01*
X100555255Y-122056513D01*
X100377036Y-121877982D01*
X100050409Y-121742354D01*
X99696743Y-121742046D01*
X99369880Y-121877103D01*
X99119582Y-122126964D01*
X99047316Y-122301000D01*
X98517914Y-122301000D01*
X98400040Y-122277130D01*
X98017156Y-122277130D01*
X96517686Y-114529867D01*
X96498474Y-114483259D01*
X96454724Y-114443009D01*
X92311724Y-112139009D01*
X92250000Y-112123000D01*
X89413212Y-112123000D01*
X89551618Y-111984836D01*
X89687246Y-111658209D01*
X89687554Y-111304543D01*
X89552497Y-110977680D01*
X89302636Y-110727382D01*
X88976009Y-110591754D01*
X88622343Y-110591446D01*
X88295480Y-110726503D01*
X88045182Y-110976364D01*
X87909554Y-111302991D01*
X87909246Y-111656657D01*
X88044303Y-111983520D01*
X88183539Y-112123000D01*
X86750000Y-112123000D01*
X86700590Y-112133006D01*
X86658965Y-112161447D01*
X86631685Y-112203841D01*
X86623006Y-112251274D01*
X86723558Y-122277130D01*
X76708000Y-122277130D01*
X76708000Y-121119334D01*
X77033120Y-120984997D01*
X77283418Y-120735136D01*
X77419046Y-120408509D01*
X77419354Y-120054843D01*
X77284297Y-119727980D01*
X77034436Y-119477682D01*
X76947037Y-119441391D01*
X76947037Y-111639557D01*
X80645526Y-107941068D01*
X86593868Y-107941068D01*
X86588810Y-107953250D01*
X86588810Y-107953250D01*
G37*
X86588810Y-107953250D02*
X86588502Y-108306916D01*
X86723559Y-108633779D01*
X86973420Y-108884077D01*
X87300047Y-109019705D01*
X87653713Y-109020013D01*
X87816979Y-108952553D01*
X94019826Y-108952553D01*
X97572370Y-112505097D01*
X97844302Y-112686796D01*
X98165067Y-112750600D01*
X105396561Y-112750600D01*
X105717327Y-112686796D01*
X105989258Y-112505097D01*
X106398768Y-112095587D01*
X106546028Y-112243104D01*
X106872655Y-112378732D01*
X107099079Y-112378929D01*
X107026855Y-112451027D01*
X106891227Y-112777654D01*
X106890919Y-113131320D01*
X106941873Y-113254638D01*
X106941873Y-113740973D01*
X107005677Y-114061739D01*
X107187376Y-114333670D01*
X107632103Y-114778397D01*
X107904034Y-114960096D01*
X108011177Y-114981408D01*
X108018072Y-115018050D01*
X108009171Y-115062000D01*
X104432791Y-115062000D01*
X104305101Y-115036601D01*
X104216199Y-115036601D01*
X103895434Y-115100405D01*
X103623502Y-115282104D01*
X103581335Y-115324271D01*
X103459280Y-115374703D01*
X103208982Y-115624564D01*
X103073354Y-115951191D01*
X103073046Y-116304857D01*
X103208103Y-116631720D01*
X103457964Y-116882018D01*
X103784591Y-117017646D01*
X104138257Y-117017954D01*
X104465120Y-116882897D01*
X104609870Y-116738400D01*
X108006472Y-116738400D01*
X108015338Y-116785517D01*
X108154410Y-117001641D01*
X108366610Y-117146631D01*
X108618500Y-117197640D01*
X109318500Y-117197640D01*
X109553817Y-117153362D01*
X109769941Y-117014290D01*
X109914931Y-116802090D01*
X109914970Y-116801898D01*
X109925885Y-116801907D01*
X110054410Y-117001641D01*
X110266610Y-117146631D01*
X110518500Y-117197640D01*
X111218500Y-117197640D01*
X111453817Y-117153362D01*
X111669941Y-117014290D01*
X111814931Y-116802090D01*
X111865940Y-116550200D01*
X111865940Y-116536152D01*
X112011315Y-116439015D01*
X112844915Y-115605416D01*
X113010096Y-115358205D01*
X113021715Y-115299790D01*
X113068100Y-115066600D01*
X113068100Y-113186264D01*
X113104718Y-113274886D01*
X113354579Y-113525184D01*
X113681206Y-113660812D01*
X114034872Y-113661120D01*
X114361735Y-113526063D01*
X114372424Y-113515393D01*
X114615169Y-113616190D01*
X114968835Y-113616498D01*
X115295698Y-113481441D01*
X115545996Y-113231580D01*
X115588246Y-113129831D01*
X115698969Y-113019109D01*
X115878564Y-113199018D01*
X116205191Y-113334646D01*
X116507360Y-113334909D01*
X116507360Y-113488579D01*
X116434465Y-113537286D01*
X114973252Y-114998500D01*
X113919000Y-114998500D01*
X113869590Y-115008506D01*
X113827965Y-115036947D01*
X113800685Y-115079341D01*
X113792000Y-115125500D01*
X113792000Y-121973351D01*
X113789560Y-121985400D01*
X113789560Y-122985400D01*
X113792000Y-122998367D01*
X113792000Y-123888500D01*
X109029500Y-123888500D01*
X108980090Y-123898506D01*
X108938465Y-123926947D01*
X108911185Y-123969341D01*
X108902500Y-124015500D01*
X108902500Y-128100027D01*
X108790564Y-128211768D01*
X108654936Y-128538395D01*
X108654628Y-128892061D01*
X108789685Y-129218924D01*
X108902500Y-129331936D01*
X108902500Y-131775626D01*
X108734269Y-131883880D01*
X108589279Y-132096080D01*
X108538270Y-132347970D01*
X108538270Y-134047230D01*
X108582548Y-134282547D01*
X108721620Y-134498671D01*
X108902500Y-134622261D01*
X108902500Y-141284856D01*
X108486678Y-141700678D01*
X108252672Y-142050893D01*
X108232704Y-142151277D01*
X107469496Y-143113583D01*
X107446632Y-143158513D01*
X107442000Y-143192500D01*
X107442000Y-143448965D01*
X101275812Y-143569871D01*
X101840845Y-142044282D01*
X104562916Y-137992827D01*
X104584500Y-137922000D01*
X104584500Y-126238000D01*
X104574494Y-126188590D01*
X104558288Y-126160729D01*
X101637288Y-122350729D01*
X101599285Y-122317605D01*
X101536500Y-122301000D01*
X101408808Y-122301000D01*
X101281495Y-122173464D01*
X100954868Y-122037836D01*
X100601202Y-122037528D01*
X100555255Y-122056513D01*
X100377036Y-121877982D01*
X100050409Y-121742354D01*
X99696743Y-121742046D01*
X99369880Y-121877103D01*
X99119582Y-122126964D01*
X99047316Y-122301000D01*
X98517914Y-122301000D01*
X98400040Y-122277130D01*
X98017156Y-122277130D01*
X96517686Y-114529867D01*
X96498474Y-114483259D01*
X96454724Y-114443009D01*
X92311724Y-112139009D01*
X92250000Y-112123000D01*
X89413212Y-112123000D01*
X89551618Y-111984836D01*
X89687246Y-111658209D01*
X89687554Y-111304543D01*
X89552497Y-110977680D01*
X89302636Y-110727382D01*
X88976009Y-110591754D01*
X88622343Y-110591446D01*
X88295480Y-110726503D01*
X88045182Y-110976364D01*
X87909554Y-111302991D01*
X87909246Y-111656657D01*
X88044303Y-111983520D01*
X88183539Y-112123000D01*
X86750000Y-112123000D01*
X86700590Y-112133006D01*
X86658965Y-112161447D01*
X86631685Y-112203841D01*
X86623006Y-112251274D01*
X86723558Y-122277130D01*
X76708000Y-122277130D01*
X76708000Y-121119334D01*
X77033120Y-120984997D01*
X77283418Y-120735136D01*
X77419046Y-120408509D01*
X77419354Y-120054843D01*
X77284297Y-119727980D01*
X77034436Y-119477682D01*
X76947037Y-119441391D01*
X76947037Y-111639557D01*
X80645526Y-107941068D01*
X86593868Y-107941068D01*
X86588810Y-107953250D01*
G36*
X103423385Y-105438085D02*
X103326248Y-105583460D01*
X103312200Y-105583460D01*
X103076883Y-105627738D01*
X102860759Y-105766810D01*
X102715769Y-105979010D01*
X102664760Y-106230900D01*
X102664760Y-106565766D01*
X99326614Y-106565766D01*
X99310025Y-106549148D01*
X98983398Y-106413520D01*
X98629732Y-106413212D01*
X98302869Y-106548269D01*
X98052571Y-106798130D01*
X97916943Y-107124757D01*
X97916635Y-107478423D01*
X98051692Y-107805286D01*
X98301553Y-108055584D01*
X98628180Y-108191212D01*
X98981846Y-108191520D01*
X99308709Y-108056463D01*
X99326237Y-108038966D01*
X99993889Y-108038966D01*
X99452281Y-108580574D01*
X99428800Y-108580554D01*
X99101937Y-108715611D01*
X98866654Y-108950484D01*
X95644275Y-105728105D01*
X95372344Y-105546406D01*
X95051578Y-105482602D01*
X76495428Y-105482602D01*
X76174662Y-105546406D01*
X75902731Y-105728105D01*
X68047130Y-113583706D01*
X67544978Y-114012965D01*
X67506216Y-114071828D01*
X67482431Y-114148405D01*
X66069603Y-115561233D01*
X65887904Y-115833164D01*
X65837024Y-116088957D01*
X65824100Y-116153930D01*
X65824100Y-118496222D01*
X65773454Y-118618191D01*
X65773146Y-118971857D01*
X65893651Y-119263501D01*
X65151000Y-121654475D01*
X65151000Y-109104500D01*
X68643500Y-109104500D01*
X68915205Y-109050454D01*
X69145546Y-108896546D01*
X69299454Y-108666205D01*
X69353500Y-108394500D01*
X69353500Y-105918000D01*
X69338392Y-105842050D01*
X69336737Y-105764629D01*
X69311628Y-105707498D01*
X69299454Y-105646295D01*
X69256431Y-105581906D01*
X69225274Y-105511014D01*
X69180218Y-105467844D01*
X69145546Y-105415954D01*
X69081157Y-105372931D01*
X69025243Y-105319358D01*
X65151000Y-102848826D01*
X65151000Y-101548000D01*
X107313469Y-101548000D01*
X103423385Y-105438085D01*
X103423385Y-105438085D01*
G37*
X103423385Y-105438085D02*
X103326248Y-105583460D01*
X103312200Y-105583460D01*
X103076883Y-105627738D01*
X102860759Y-105766810D01*
X102715769Y-105979010D01*
X102664760Y-106230900D01*
X102664760Y-106565766D01*
X99326614Y-106565766D01*
X99310025Y-106549148D01*
X98983398Y-106413520D01*
X98629732Y-106413212D01*
X98302869Y-106548269D01*
X98052571Y-106798130D01*
X97916943Y-107124757D01*
X97916635Y-107478423D01*
X98051692Y-107805286D01*
X98301553Y-108055584D01*
X98628180Y-108191212D01*
X98981846Y-108191520D01*
X99308709Y-108056463D01*
X99326237Y-108038966D01*
X99993889Y-108038966D01*
X99452281Y-108580574D01*
X99428800Y-108580554D01*
X99101937Y-108715611D01*
X98866654Y-108950484D01*
X95644275Y-105728105D01*
X95372344Y-105546406D01*
X95051578Y-105482602D01*
X76495428Y-105482602D01*
X76174662Y-105546406D01*
X75902731Y-105728105D01*
X68047130Y-113583706D01*
X67544978Y-114012965D01*
X67506216Y-114071828D01*
X67482431Y-114148405D01*
X66069603Y-115561233D01*
X65887904Y-115833164D01*
X65837024Y-116088957D01*
X65824100Y-116153930D01*
X65824100Y-118496222D01*
X65773454Y-118618191D01*
X65773146Y-118971857D01*
X65893651Y-119263501D01*
X65151000Y-121654475D01*
X65151000Y-109104500D01*
X68643500Y-109104500D01*
X68915205Y-109050454D01*
X69145546Y-108896546D01*
X69299454Y-108666205D01*
X69353500Y-108394500D01*
X69353500Y-105918000D01*
X69338392Y-105842050D01*
X69336737Y-105764629D01*
X69311628Y-105707498D01*
X69299454Y-105646295D01*
X69256431Y-105581906D01*
X69225274Y-105511014D01*
X69180218Y-105467844D01*
X69145546Y-105415954D01*
X69081157Y-105372931D01*
X69025243Y-105319358D01*
X65151000Y-102848826D01*
X65151000Y-101548000D01*
X107313469Y-101548000D01*
X103423385Y-105438085D01*
G36*
X125985400Y-109019240D02*
X126791957Y-109019240D01*
X126804004Y-109079805D01*
X126956750Y-109308405D01*
X126969185Y-109327015D01*
X127043960Y-109401790D01*
X127043960Y-109971600D01*
X127088238Y-110206917D01*
X127227310Y-110423041D01*
X127439510Y-110568031D01*
X127691400Y-110619040D01*
X127699046Y-110619040D01*
X127651060Y-110856000D01*
X127651060Y-112156000D01*
X127695338Y-112391317D01*
X127834410Y-112607441D01*
X127976462Y-112704501D01*
X127941200Y-112697360D01*
X126941200Y-112697360D01*
X126705883Y-112741638D01*
X126489759Y-112880710D01*
X126442066Y-112950511D01*
X126405290Y-112893359D01*
X126298794Y-112820593D01*
X126407231Y-112661890D01*
X126458240Y-112410000D01*
X126458240Y-111110000D01*
X126413962Y-110874683D01*
X126274890Y-110658559D01*
X126062690Y-110513569D01*
X126023240Y-110505580D01*
X126023240Y-109433200D01*
X125978962Y-109197883D01*
X125845820Y-108990974D01*
X125985400Y-109019240D01*
X125985400Y-109019240D01*
G37*
X125985400Y-109019240D02*
X126791957Y-109019240D01*
X126804004Y-109079805D01*
X126956750Y-109308405D01*
X126969185Y-109327015D01*
X127043960Y-109401790D01*
X127043960Y-109971600D01*
X127088238Y-110206917D01*
X127227310Y-110423041D01*
X127439510Y-110568031D01*
X127691400Y-110619040D01*
X127699046Y-110619040D01*
X127651060Y-110856000D01*
X127651060Y-112156000D01*
X127695338Y-112391317D01*
X127834410Y-112607441D01*
X127976462Y-112704501D01*
X127941200Y-112697360D01*
X126941200Y-112697360D01*
X126705883Y-112741638D01*
X126489759Y-112880710D01*
X126442066Y-112950511D01*
X126405290Y-112893359D01*
X126298794Y-112820593D01*
X126407231Y-112661890D01*
X126458240Y-112410000D01*
X126458240Y-111110000D01*
X126413962Y-110874683D01*
X126274890Y-110658559D01*
X126062690Y-110513569D01*
X126023240Y-110505580D01*
X126023240Y-109433200D01*
X125978962Y-109197883D01*
X125845820Y-108990974D01*
X125985400Y-109019240D01*
G36*
X129604238Y-110634372D02*
X129601662Y-110620683D01*
X129489200Y-110445912D01*
X129489200Y-107721400D01*
X129431196Y-107429795D01*
X129347193Y-107304076D01*
X129266016Y-107182585D01*
X126265252Y-104181822D01*
X126229775Y-104158117D01*
X126018042Y-104016641D01*
X125726437Y-103958637D01*
X124756944Y-103958637D01*
X124451466Y-103831791D01*
X124097800Y-103831483D01*
X123960080Y-103888388D01*
X123671726Y-103768652D01*
X123329792Y-103768354D01*
X123329854Y-103697243D01*
X123194797Y-103370380D01*
X122944936Y-103120082D01*
X122618309Y-102984454D01*
X122581746Y-102984422D01*
X122581333Y-102984146D01*
X122478306Y-102915305D01*
X122216075Y-102863144D01*
X120900930Y-101548000D01*
X129665633Y-101548000D01*
X129604238Y-110634372D01*
X129604238Y-110634372D01*
G37*
X129604238Y-110634372D02*
X129601662Y-110620683D01*
X129489200Y-110445912D01*
X129489200Y-107721400D01*
X129431196Y-107429795D01*
X129347193Y-107304076D01*
X129266016Y-107182585D01*
X126265252Y-104181822D01*
X126229775Y-104158117D01*
X126018042Y-104016641D01*
X125726437Y-103958637D01*
X124756944Y-103958637D01*
X124451466Y-103831791D01*
X124097800Y-103831483D01*
X123960080Y-103888388D01*
X123671726Y-103768652D01*
X123329792Y-103768354D01*
X123329854Y-103697243D01*
X123194797Y-103370380D01*
X122944936Y-103120082D01*
X122618309Y-102984454D01*
X122581746Y-102984422D01*
X122581333Y-102984146D01*
X122478306Y-102915305D01*
X122216075Y-102863144D01*
X120900930Y-101548000D01*
X129665633Y-101548000D01*
X129604238Y-110634372D01*
G36*
X87073241Y-137075996D02*
X86937095Y-137433379D01*
X86905197Y-137465277D01*
X86783142Y-137515709D01*
X86532844Y-137765570D01*
X86397216Y-138092197D01*
X86396908Y-138445863D01*
X86477283Y-138640386D01*
X84681320Y-143354789D01*
X84673528Y-143388426D01*
X84656592Y-143573491D01*
X78394220Y-143573007D01*
X77251238Y-139801164D01*
X77490420Y-139849600D01*
X78389580Y-139849600D01*
X78624897Y-139805322D01*
X78841021Y-139666250D01*
X78986011Y-139454050D01*
X79037020Y-139202160D01*
X79037020Y-136001760D01*
X78992742Y-135766443D01*
X78853670Y-135550319D01*
X78641470Y-135405329D01*
X78389580Y-135354320D01*
X77490420Y-135354320D01*
X77255103Y-135398598D01*
X77038979Y-135537670D01*
X76893989Y-135749870D01*
X76842980Y-136001760D01*
X76842980Y-136801052D01*
X76709697Y-136827564D01*
X76709695Y-136827565D01*
X76709696Y-136827565D01*
X76437765Y-137009263D01*
X76426191Y-137020837D01*
X76378316Y-132377000D01*
X87121684Y-132377000D01*
X87073241Y-137075996D01*
X87073241Y-137075996D01*
G37*
X87073241Y-137075996D02*
X86937095Y-137433379D01*
X86905197Y-137465277D01*
X86783142Y-137515709D01*
X86532844Y-137765570D01*
X86397216Y-138092197D01*
X86396908Y-138445863D01*
X86477283Y-138640386D01*
X84681320Y-143354789D01*
X84673528Y-143388426D01*
X84656592Y-143573491D01*
X78394220Y-143573007D01*
X77251238Y-139801164D01*
X77490420Y-139849600D01*
X78389580Y-139849600D01*
X78624897Y-139805322D01*
X78841021Y-139666250D01*
X78986011Y-139454050D01*
X79037020Y-139202160D01*
X79037020Y-136001760D01*
X78992742Y-135766443D01*
X78853670Y-135550319D01*
X78641470Y-135405329D01*
X78389580Y-135354320D01*
X77490420Y-135354320D01*
X77255103Y-135398598D01*
X77038979Y-135537670D01*
X76893989Y-135749870D01*
X76842980Y-136001760D01*
X76842980Y-136801052D01*
X76709697Y-136827564D01*
X76709695Y-136827565D01*
X76709696Y-136827565D01*
X76437765Y-137009263D01*
X76426191Y-137020837D01*
X76378316Y-132377000D01*
X87121684Y-132377000D01*
X87073241Y-137075996D01*
G36*
X95789249Y-114960338D02*
X97173000Y-120791862D01*
X97173000Y-122277130D01*
X90127000Y-122277130D01*
X90127000Y-120777000D01*
X90116994Y-120727590D01*
X90089803Y-120687197D01*
X87627000Y-118224394D01*
X87627000Y-112804000D01*
X91966650Y-112804000D01*
X95789249Y-114960338D01*
X95789249Y-114960338D01*
G37*
X95789249Y-114960338D02*
X97173000Y-120791862D01*
X97173000Y-122277130D01*
X90127000Y-122277130D01*
X90127000Y-120777000D01*
X90116994Y-120727590D01*
X90089803Y-120687197D01*
X87627000Y-118224394D01*
X87627000Y-112804000D01*
X91966650Y-112804000D01*
X95789249Y-114960338D01*
G36*
X75270637Y-119809537D02*
X75282148Y-119867407D01*
X74695069Y-120728456D01*
X74673000Y-120800000D01*
X74673000Y-122277130D01*
X67627000Y-122277130D01*
X67627000Y-120510912D01*
X68492735Y-115508889D01*
X69002425Y-114999199D01*
X71842993Y-112827000D01*
X75270637Y-112827000D01*
X75270637Y-119809537D01*
X75270637Y-119809537D01*
G37*
X75270637Y-119809537D02*
X75282148Y-119867407D01*
X74695069Y-120728456D01*
X74673000Y-120800000D01*
X74673000Y-122277130D01*
X67627000Y-122277130D01*
X67627000Y-120510912D01*
X68492735Y-115508889D01*
X69002425Y-114999199D01*
X71842993Y-112827000D01*
X75270637Y-112827000D01*
X75270637Y-119809537D01*
M02*
