G04 #@! TF.FileFunction,Paste,Top*
%FSLAX46Y46*%
G04 Gerber Fmt 4.6, Leading zero omitted, Abs format (unit mm)*
G04 Created by KiCad (PCBNEW 4.0.4-stable) date 05/10/17 13:17:29*
%MOMM*%
%LPD*%
G01*
G04 APERTURE LIST*
%ADD10C,0.150000*%
%ADD11R,1.000000X1.250000*%
%ADD12R,1.300480X0.300000*%
%ADD13R,0.300000X1.300480*%
%ADD14R,1.524000X2.032000*%
%ADD15R,1.250000X1.000000*%
%ADD16R,1.849120X5.499100*%
%ADD17R,1.198880X1.198880*%
%ADD18R,2.100580X1.699260*%
%ADD19R,10.800080X8.150860*%
%ADD20R,0.899160X3.200400*%
%ADD21R,0.700000X1.300000*%
%ADD22R,1.300000X0.700000*%
%ADD23R,1.198880X1.800860*%
%ADD24R,2.500000X0.900000*%
%ADD25R,0.750000X0.800000*%
%ADD26R,6.360000X5.500000*%
%ADD27R,1.650000X5.500000*%
G04 APERTURE END LIST*
D10*
D11*
X117535200Y-105892600D03*
X115535200Y-105892600D03*
D12*
X131267200Y-128816100D03*
X131267200Y-128315720D03*
X131267200Y-127815340D03*
X131267200Y-127314960D03*
X131267200Y-126814580D03*
X131267200Y-130314700D03*
X131267200Y-129816860D03*
X131267200Y-129316480D03*
D13*
X129265680Y-120815100D03*
X128767840Y-120815100D03*
X128267460Y-120815100D03*
X127767080Y-120815100D03*
X127266700Y-120815100D03*
X126766320Y-120815100D03*
X126265940Y-120815100D03*
X125765560Y-120815100D03*
D12*
X119766080Y-122816620D03*
X119766080Y-123314460D03*
X119766080Y-123814840D03*
X119766080Y-124315220D03*
X119766080Y-124815600D03*
X119766080Y-125315980D03*
X119766080Y-125816360D03*
X119766080Y-126316740D03*
D13*
X121767600Y-132316220D03*
X122265440Y-132316220D03*
X122765820Y-132316220D03*
X123266200Y-132316220D03*
X123766580Y-132316220D03*
X124266960Y-132316220D03*
X124767340Y-132316220D03*
X125267720Y-132316220D03*
D12*
X131267200Y-126316740D03*
X131267200Y-125816360D03*
X131267200Y-125315980D03*
D13*
X125267720Y-120815100D03*
X124767340Y-120815100D03*
X124266960Y-120815100D03*
D12*
X119766080Y-126814580D03*
X119766080Y-127314960D03*
X119766080Y-127815340D03*
D13*
X125765560Y-132316220D03*
X126265940Y-132316220D03*
X126766320Y-132316220D03*
D12*
X131267200Y-124815600D03*
X131267200Y-124315220D03*
X131267200Y-123814840D03*
X131267200Y-123314460D03*
X131267200Y-122816620D03*
D13*
X123766580Y-120815100D03*
X123266200Y-120815100D03*
X122765820Y-120815100D03*
X122265440Y-120815100D03*
X121767600Y-120815100D03*
D12*
X119766080Y-128315720D03*
X119766080Y-128816100D03*
X119766080Y-129316480D03*
X119766080Y-129816860D03*
X119766080Y-130314700D03*
D13*
X127266700Y-132316220D03*
X127767080Y-132316220D03*
X128267460Y-132316220D03*
X128767840Y-132316220D03*
X129265680Y-132316220D03*
D14*
X105740200Y-131343400D03*
X102438200Y-131343400D03*
D11*
X112969800Y-120853200D03*
X114969800Y-120853200D03*
D15*
X132181600Y-139868400D03*
X132181600Y-141868400D03*
X129641600Y-139893800D03*
X129641600Y-141893800D03*
X127101600Y-139868400D03*
X127101600Y-141868400D03*
X124561600Y-139868400D03*
X124561600Y-141868400D03*
D14*
X105740200Y-128320800D03*
X102438200Y-128320800D03*
D15*
X115062000Y-124485400D03*
X115062000Y-122485400D03*
X134239000Y-129073400D03*
X134239000Y-131073400D03*
D11*
X122240800Y-117932200D03*
X124240800Y-117932200D03*
D15*
X115976400Y-133985000D03*
X115976400Y-131985000D03*
X117779800Y-111245900D03*
X117779800Y-113245900D03*
D11*
X121777000Y-111633000D03*
X119777000Y-111633000D03*
X113325400Y-111607600D03*
X115325400Y-111607600D03*
X121453400Y-114427000D03*
X123453400Y-114427000D03*
X124485400Y-107746800D03*
X126485400Y-107746800D03*
X120564400Y-107569000D03*
X122564400Y-107569000D03*
X117160800Y-108458000D03*
X119160800Y-108458000D03*
X135086600Y-122148600D03*
X133086600Y-122148600D03*
X135096000Y-120091200D03*
X133096000Y-120091200D03*
X115338100Y-108648500D03*
X113338100Y-108648500D03*
D16*
X106690160Y-135636000D03*
X101539040Y-135636000D03*
D15*
X134239000Y-127018800D03*
X134239000Y-125018800D03*
D11*
X129939800Y-116128800D03*
X127939800Y-116128800D03*
X124875800Y-110058200D03*
X122875800Y-110058200D03*
D17*
X135364220Y-135394700D03*
X133266180Y-135394700D03*
X135364220Y-133464300D03*
X133266180Y-133464300D03*
X135389620Y-137299700D03*
X133291580Y-137299700D03*
D18*
X113695480Y-133197600D03*
X110236000Y-133197600D03*
D19*
X70440000Y-127000000D03*
D20*
X66630000Y-137601960D03*
X67900000Y-137601960D03*
X69170000Y-137601960D03*
X71710000Y-137601960D03*
X72980000Y-137601960D03*
X74250000Y-137601960D03*
D19*
X81750000Y-127000000D03*
D20*
X77940000Y-137601960D03*
X79210000Y-137601960D03*
X80480000Y-137601960D03*
X83020000Y-137601960D03*
X84290000Y-137601960D03*
X85560000Y-137601960D03*
D19*
X93000000Y-127000000D03*
D20*
X89190000Y-137601960D03*
X90460000Y-137601960D03*
X91730000Y-137601960D03*
X94270000Y-137601960D03*
X95540000Y-137601960D03*
X96810000Y-137601960D03*
D21*
X129921000Y-118135400D03*
X128021000Y-118135400D03*
X116347200Y-118135400D03*
X118247200Y-118135400D03*
X116347200Y-120040400D03*
X118247200Y-120040400D03*
X125460800Y-111760000D03*
X123560800Y-111760000D03*
X136743400Y-137299700D03*
X138643400Y-137299700D03*
D22*
X135280400Y-114924800D03*
X135280400Y-116824800D03*
D21*
X126748500Y-111506000D03*
X128648500Y-111506000D03*
X108968500Y-115900200D03*
X110868500Y-115900200D03*
D22*
X103962200Y-108480900D03*
X103962200Y-106580900D03*
X131800600Y-114909600D03*
X131800600Y-116809600D03*
D21*
X108993900Y-112483900D03*
X110893900Y-112483900D03*
D22*
X105778300Y-108480900D03*
X105778300Y-106580900D03*
D21*
X136743400Y-135394700D03*
X138643400Y-135394700D03*
X136718000Y-133464300D03*
X138618000Y-133464300D03*
X108981200Y-114185700D03*
X110881200Y-114185700D03*
D22*
X107645200Y-108480900D03*
X107645200Y-106580900D03*
X109461300Y-108468200D03*
X109461300Y-106568200D03*
X111188500Y-108480900D03*
X111188500Y-106580900D03*
X116586000Y-140162200D03*
X116586000Y-142062200D03*
X114808000Y-140162200D03*
X114808000Y-142062200D03*
D21*
X117972800Y-139801600D03*
X119872800Y-139801600D03*
D23*
X136011920Y-129814320D03*
X138511280Y-129814320D03*
X138511280Y-126014480D03*
X136011920Y-126014480D03*
D21*
X126141400Y-109321600D03*
X128041400Y-109321600D03*
D22*
X133527800Y-114924800D03*
X133527800Y-116824800D03*
D24*
X112522000Y-126214800D03*
X112522000Y-123314800D03*
D25*
X122107960Y-137275000D03*
X122107960Y-135775000D03*
D10*
G36*
X121732960Y-135391200D02*
X122482960Y-135941200D01*
X122482960Y-135991200D01*
X121732960Y-136541200D01*
X121732960Y-135391200D01*
X121732960Y-135391200D01*
G37*
G36*
X122482960Y-136541200D02*
X121732960Y-135991200D01*
X121732960Y-135941200D01*
X122482960Y-135391200D01*
X122482960Y-136541200D01*
X122482960Y-136541200D01*
G37*
G36*
X122107920Y-136533000D02*
X122483920Y-136833000D01*
X122483920Y-137233000D01*
X122107920Y-137533000D01*
X122107920Y-136533000D01*
X122107920Y-136533000D01*
G37*
G36*
X122108000Y-137533000D02*
X121732000Y-137233000D01*
X121732000Y-136833000D01*
X122108000Y-136533000D01*
X122108000Y-137533000D01*
X122108000Y-137533000D01*
G37*
D25*
X131683760Y-137224200D03*
X131683760Y-135724200D03*
D10*
G36*
X131308760Y-135340400D02*
X132058760Y-135890400D01*
X132058760Y-135940400D01*
X131308760Y-136490400D01*
X131308760Y-135340400D01*
X131308760Y-135340400D01*
G37*
G36*
X132058760Y-136490400D02*
X131308760Y-135940400D01*
X131308760Y-135890400D01*
X132058760Y-135340400D01*
X132058760Y-136490400D01*
X132058760Y-136490400D01*
G37*
G36*
X131683720Y-136482200D02*
X132059720Y-136782200D01*
X132059720Y-137182200D01*
X131683720Y-137482200D01*
X131683720Y-136482200D01*
X131683720Y-136482200D01*
G37*
G36*
X131683800Y-137482200D02*
X131307800Y-137182200D01*
X131307800Y-136782200D01*
X131683800Y-136482200D01*
X131683800Y-137482200D01*
X131683800Y-137482200D01*
G37*
D25*
X119694960Y-137275000D03*
X119694960Y-135775000D03*
D10*
G36*
X119319960Y-135391200D02*
X120069960Y-135941200D01*
X120069960Y-135991200D01*
X119319960Y-136541200D01*
X119319960Y-135391200D01*
X119319960Y-135391200D01*
G37*
G36*
X120069960Y-136541200D02*
X119319960Y-135991200D01*
X119319960Y-135941200D01*
X120069960Y-135391200D01*
X120069960Y-136541200D01*
X120069960Y-136541200D01*
G37*
G36*
X119694920Y-136533000D02*
X120070920Y-136833000D01*
X120070920Y-137233000D01*
X119694920Y-137533000D01*
X119694920Y-136533000D01*
X119694920Y-136533000D01*
G37*
G36*
X119695000Y-137533000D02*
X119319000Y-137233000D01*
X119319000Y-136833000D01*
X119695000Y-136533000D01*
X119695000Y-137533000D01*
X119695000Y-137533000D01*
G37*
D25*
X129296160Y-137224200D03*
X129296160Y-135724200D03*
D10*
G36*
X128921160Y-135340400D02*
X129671160Y-135890400D01*
X129671160Y-135940400D01*
X128921160Y-136490400D01*
X128921160Y-135340400D01*
X128921160Y-135340400D01*
G37*
G36*
X129671160Y-136490400D02*
X128921160Y-135940400D01*
X128921160Y-135890400D01*
X129671160Y-135340400D01*
X129671160Y-136490400D01*
X129671160Y-136490400D01*
G37*
G36*
X129296120Y-136482200D02*
X129672120Y-136782200D01*
X129672120Y-137182200D01*
X129296120Y-137482200D01*
X129296120Y-136482200D01*
X129296120Y-136482200D01*
G37*
G36*
X129296200Y-137482200D02*
X128920200Y-137182200D01*
X128920200Y-136782200D01*
X129296200Y-136482200D01*
X129296200Y-137482200D01*
X129296200Y-137482200D01*
G37*
D25*
X120904000Y-137275000D03*
X120904000Y-135775000D03*
D10*
G36*
X120529000Y-135391200D02*
X121279000Y-135941200D01*
X121279000Y-135991200D01*
X120529000Y-136541200D01*
X120529000Y-135391200D01*
X120529000Y-135391200D01*
G37*
G36*
X121279000Y-136541200D02*
X120529000Y-135991200D01*
X120529000Y-135941200D01*
X121279000Y-135391200D01*
X121279000Y-136541200D01*
X121279000Y-136541200D01*
G37*
G36*
X120903960Y-136533000D02*
X121279960Y-136833000D01*
X121279960Y-137233000D01*
X120903960Y-137533000D01*
X120903960Y-136533000D01*
X120903960Y-136533000D01*
G37*
G36*
X120904040Y-137533000D02*
X120528040Y-137233000D01*
X120528040Y-136833000D01*
X120904040Y-136533000D01*
X120904040Y-137533000D01*
X120904040Y-137533000D01*
G37*
D25*
X130489960Y-137224200D03*
X130489960Y-135724200D03*
D10*
G36*
X130114960Y-135340400D02*
X130864960Y-135890400D01*
X130864960Y-135940400D01*
X130114960Y-136490400D01*
X130114960Y-135340400D01*
X130114960Y-135340400D01*
G37*
G36*
X130864960Y-136490400D02*
X130114960Y-135940400D01*
X130114960Y-135890400D01*
X130864960Y-135340400D01*
X130864960Y-136490400D01*
X130864960Y-136490400D01*
G37*
G36*
X130489920Y-136482200D02*
X130865920Y-136782200D01*
X130865920Y-137182200D01*
X130489920Y-137482200D01*
X130489920Y-136482200D01*
X130489920Y-136482200D01*
G37*
G36*
X130490000Y-137482200D02*
X130114000Y-137182200D01*
X130114000Y-136782200D01*
X130490000Y-136482200D01*
X130490000Y-137482200D01*
X130490000Y-137482200D01*
G37*
D25*
X128092200Y-137249600D03*
X128092200Y-135749600D03*
D10*
G36*
X127717200Y-135365800D02*
X128467200Y-135915800D01*
X128467200Y-135965800D01*
X127717200Y-136515800D01*
X127717200Y-135365800D01*
X127717200Y-135365800D01*
G37*
G36*
X128467200Y-136515800D02*
X127717200Y-135965800D01*
X127717200Y-135915800D01*
X128467200Y-135365800D01*
X128467200Y-136515800D01*
X128467200Y-136515800D01*
G37*
G36*
X128092160Y-136507600D02*
X128468160Y-136807600D01*
X128468160Y-137207600D01*
X128092160Y-137507600D01*
X128092160Y-136507600D01*
X128092160Y-136507600D01*
G37*
G36*
X128092240Y-137507600D02*
X127716240Y-137207600D01*
X127716240Y-136807600D01*
X128092240Y-136507600D01*
X128092240Y-137507600D01*
X128092240Y-137507600D01*
G37*
D25*
X126888240Y-137249600D03*
X126888240Y-135749600D03*
D10*
G36*
X126513240Y-135365800D02*
X127263240Y-135915800D01*
X127263240Y-135965800D01*
X126513240Y-136515800D01*
X126513240Y-135365800D01*
X126513240Y-135365800D01*
G37*
G36*
X127263240Y-136515800D02*
X126513240Y-135965800D01*
X126513240Y-135915800D01*
X127263240Y-135365800D01*
X127263240Y-136515800D01*
X127263240Y-136515800D01*
G37*
G36*
X126888200Y-136507600D02*
X127264200Y-136807600D01*
X127264200Y-137207600D01*
X126888200Y-137507600D01*
X126888200Y-136507600D01*
X126888200Y-136507600D01*
G37*
G36*
X126888280Y-137507600D02*
X126512280Y-137207600D01*
X126512280Y-136807600D01*
X126888280Y-136507600D01*
X126888280Y-137507600D01*
X126888280Y-137507600D01*
G37*
D25*
X125679200Y-137249600D03*
X125679200Y-135749600D03*
D10*
G36*
X125304200Y-135365800D02*
X126054200Y-135915800D01*
X126054200Y-135965800D01*
X125304200Y-136515800D01*
X125304200Y-135365800D01*
X125304200Y-135365800D01*
G37*
G36*
X126054200Y-136515800D02*
X125304200Y-135965800D01*
X125304200Y-135915800D01*
X126054200Y-135365800D01*
X126054200Y-136515800D01*
X126054200Y-136515800D01*
G37*
G36*
X125679160Y-136507600D02*
X126055160Y-136807600D01*
X126055160Y-137207600D01*
X125679160Y-137507600D01*
X125679160Y-136507600D01*
X125679160Y-136507600D01*
G37*
G36*
X125679240Y-137507600D02*
X125303240Y-137207600D01*
X125303240Y-136807600D01*
X125679240Y-136507600D01*
X125679240Y-137507600D01*
X125679240Y-137507600D01*
G37*
D25*
X124485400Y-137261600D03*
X124485400Y-135761600D03*
D10*
G36*
X124110400Y-135377800D02*
X124860400Y-135927800D01*
X124860400Y-135977800D01*
X124110400Y-136527800D01*
X124110400Y-135377800D01*
X124110400Y-135377800D01*
G37*
G36*
X124860400Y-136527800D02*
X124110400Y-135977800D01*
X124110400Y-135927800D01*
X124860400Y-135377800D01*
X124860400Y-136527800D01*
X124860400Y-136527800D01*
G37*
G36*
X124485360Y-136519600D02*
X124861360Y-136819600D01*
X124861360Y-137219600D01*
X124485360Y-137519600D01*
X124485360Y-136519600D01*
X124485360Y-136519600D01*
G37*
G36*
X124485440Y-137519600D02*
X124109440Y-137219600D01*
X124109440Y-136819600D01*
X124485440Y-136519600D01*
X124485440Y-137519600D01*
X124485440Y-137519600D01*
G37*
D25*
X123291600Y-137275000D03*
X123291600Y-135775000D03*
D10*
G36*
X122916600Y-135391200D02*
X123666600Y-135941200D01*
X123666600Y-135991200D01*
X122916600Y-136541200D01*
X122916600Y-135391200D01*
X122916600Y-135391200D01*
G37*
G36*
X123666600Y-136541200D02*
X122916600Y-135991200D01*
X122916600Y-135941200D01*
X123666600Y-135391200D01*
X123666600Y-136541200D01*
X123666600Y-136541200D01*
G37*
G36*
X123291560Y-136533000D02*
X123667560Y-136833000D01*
X123667560Y-137233000D01*
X123291560Y-137533000D01*
X123291560Y-136533000D01*
X123291560Y-136533000D01*
G37*
G36*
X123291640Y-137533000D02*
X122915640Y-137233000D01*
X122915640Y-136833000D01*
X123291640Y-136533000D01*
X123291640Y-137533000D01*
X123291640Y-137533000D01*
G37*
D11*
X125441200Y-113969800D03*
X127441200Y-113969800D03*
D26*
X104337500Y-146304000D03*
X96750000Y-146304000D03*
X89150000Y-146304000D03*
X81550000Y-146304000D03*
X73925000Y-146304000D03*
D27*
X109250000Y-146304000D03*
X111800000Y-146304000D03*
X114350000Y-146304000D03*
X116900000Y-146304000D03*
X119450000Y-146304000D03*
X122000000Y-146304000D03*
X124550000Y-146304000D03*
X127100000Y-146304000D03*
X129625000Y-146304000D03*
X132150000Y-146304000D03*
M02*
