G04 #@! TF.FileFunction,Legend,Top*
%FSLAX46Y46*%
G04 Gerber Fmt 4.6, Leading zero omitted, Abs format (unit mm)*
G04 Created by KiCad (PCBNEW 4.0.4-stable) date 05/10/17 13:17:29*
%MOMM*%
%LPD*%
G01*
G04 APERTURE LIST*
%ADD10C,0.150000*%
%ADD11C,0.250000*%
%ADD12C,0.750000*%
%ADD13C,0.127000*%
%ADD14C,0.381000*%
%ADD15C,0.200660*%
%ADD16C,0.010000*%
%ADD17C,0.119380*%
%ADD18C,0.190500*%
%ADD19C,0.125000*%
%ADD20R,1.000000X1.250000*%
%ADD21R,1.300480X0.300000*%
%ADD22R,0.300000X1.300480*%
%ADD23R,1.524000X2.032000*%
%ADD24R,1.250000X1.000000*%
%ADD25R,1.849120X5.499100*%
%ADD26R,1.198880X1.198880*%
%ADD27R,2.100580X1.699260*%
%ADD28R,10.800080X8.150860*%
%ADD29R,0.899160X3.200400*%
%ADD30R,0.700000X1.300000*%
%ADD31R,1.300000X0.700000*%
%ADD32R,1.198880X1.800860*%
%ADD33C,1.500000*%
%ADD34R,2.500000X0.900000*%
%ADD35R,0.750000X0.800000*%
%ADD36R,6.360000X5.500000*%
%ADD37R,1.650000X5.500000*%
G04 APERTURE END LIST*
D10*
D11*
X137600000Y-110794762D02*
X137600000Y-109270952D01*
X137980952Y-109651905D02*
X137600000Y-109270952D01*
X137219047Y-109651905D01*
X65659000Y-110886762D02*
X65659000Y-109362952D01*
X66039952Y-109743905D02*
X65659000Y-109362952D01*
X65278047Y-109743905D01*
D10*
X91293590Y-115279786D02*
X91231090Y-115779786D01*
X90972161Y-115279786D02*
X90923054Y-115672643D01*
X90949841Y-115744071D01*
X91016804Y-115779786D01*
X91123947Y-115779786D01*
X91199841Y-115744071D01*
X91240019Y-115708357D01*
X91556983Y-115744071D02*
X91623947Y-115779786D01*
X91766804Y-115779786D01*
X91842697Y-115744071D01*
X91887340Y-115672643D01*
X91891804Y-115636929D01*
X91865018Y-115565500D01*
X91798054Y-115529786D01*
X91690911Y-115529786D01*
X91623947Y-115494071D01*
X91597161Y-115422643D01*
X91601625Y-115386929D01*
X91646268Y-115315500D01*
X91722161Y-115279786D01*
X91829304Y-115279786D01*
X91896268Y-115315500D01*
X92164126Y-115744071D02*
X92231090Y-115779786D01*
X92373947Y-115779786D01*
X92449840Y-115744071D01*
X92494483Y-115672643D01*
X92498947Y-115636929D01*
X92472161Y-115565500D01*
X92405197Y-115529786D01*
X92298054Y-115529786D01*
X92231090Y-115494071D01*
X92204304Y-115422643D01*
X92208768Y-115386929D01*
X92253411Y-115315500D01*
X92329304Y-115279786D01*
X92436447Y-115279786D01*
X92503411Y-115315500D01*
X92757876Y-115279786D02*
X93043590Y-115279786D01*
X92896268Y-115029786D02*
X92815911Y-115672643D01*
X92842698Y-115744071D01*
X92909661Y-115779786D01*
X92981090Y-115779786D01*
X93240018Y-115708357D02*
X93271269Y-115744071D01*
X93231089Y-115779786D01*
X93199840Y-115744071D01*
X93240018Y-115708357D01*
X93231089Y-115779786D01*
X93914126Y-115744071D02*
X93838232Y-115779786D01*
X93695375Y-115779786D01*
X93628412Y-115744071D01*
X93597161Y-115708357D01*
X93570375Y-115636929D01*
X93597161Y-115422643D01*
X93641804Y-115351214D01*
X93681983Y-115315500D01*
X93757875Y-115279786D01*
X93900732Y-115279786D01*
X93967697Y-115315500D01*
X94552518Y-115779786D02*
X94601625Y-115386929D01*
X94574840Y-115315500D01*
X94507875Y-115279786D01*
X94365018Y-115279786D01*
X94289125Y-115315500D01*
X94556983Y-115744071D02*
X94481089Y-115779786D01*
X94302518Y-115779786D01*
X94235554Y-115744071D01*
X94208768Y-115672643D01*
X94217697Y-115601214D01*
X94262339Y-115529786D01*
X94338233Y-115494071D01*
X94516804Y-115494071D01*
X94592697Y-115458357D01*
X90257875Y-116554786D02*
X90373946Y-117054786D01*
X90615018Y-116554786D01*
X91128412Y-117019071D02*
X91052518Y-117054786D01*
X90909661Y-117054786D01*
X90842697Y-117019071D01*
X90815911Y-116947643D01*
X90851625Y-116661929D01*
X90896268Y-116590500D01*
X90972161Y-116554786D01*
X91115018Y-116554786D01*
X91181983Y-116590500D01*
X91208768Y-116661929D01*
X91199840Y-116733357D01*
X90833768Y-116804786D01*
X91802518Y-117054786D02*
X91896268Y-116304786D01*
X91806983Y-117019071D02*
X91731089Y-117054786D01*
X91588232Y-117054786D01*
X91521269Y-117019071D01*
X91490018Y-116983357D01*
X91463232Y-116911929D01*
X91490018Y-116697643D01*
X91534661Y-116626214D01*
X91574840Y-116590500D01*
X91650732Y-116554786D01*
X91793589Y-116554786D01*
X91860554Y-116590500D01*
X92481089Y-117054786D02*
X92574839Y-116304786D01*
X92485554Y-117019071D02*
X92409660Y-117054786D01*
X92266803Y-117054786D01*
X92199840Y-117019071D01*
X92168589Y-116983357D01*
X92141803Y-116911929D01*
X92168589Y-116697643D01*
X92213232Y-116626214D01*
X92253411Y-116590500D01*
X92329303Y-116554786D01*
X92472160Y-116554786D01*
X92539125Y-116590500D01*
X93128411Y-117019071D02*
X93052517Y-117054786D01*
X92909660Y-117054786D01*
X92842696Y-117019071D01*
X92815910Y-116947643D01*
X92851624Y-116661929D01*
X92896267Y-116590500D01*
X92972160Y-116554786D01*
X93115017Y-116554786D01*
X93181982Y-116590500D01*
X93208767Y-116661929D01*
X93199839Y-116733357D01*
X92833767Y-116804786D01*
X93481088Y-117054786D02*
X93543588Y-116554786D01*
X93525731Y-116697643D02*
X93570375Y-116626214D01*
X93610553Y-116590500D01*
X93686446Y-116554786D01*
X93757874Y-116554786D01*
X93954303Y-116983357D02*
X93985554Y-117019071D01*
X93945374Y-117054786D01*
X93914125Y-117019071D01*
X93954303Y-116983357D01*
X93945374Y-117054786D01*
X94271268Y-117019071D02*
X94338232Y-117054786D01*
X94481089Y-117054786D01*
X94556982Y-117019071D01*
X94601625Y-116947643D01*
X94606089Y-116911929D01*
X94579303Y-116840500D01*
X94512339Y-116804786D01*
X94405196Y-116804786D01*
X94338232Y-116769071D01*
X94311446Y-116697643D01*
X94315910Y-116661929D01*
X94360553Y-116590500D01*
X94436446Y-116554786D01*
X94543589Y-116554786D01*
X94610553Y-116590500D01*
X95199840Y-117019071D02*
X95123946Y-117054786D01*
X94981089Y-117054786D01*
X94914125Y-117019071D01*
X94887339Y-116947643D01*
X94923053Y-116661929D01*
X94967696Y-116590500D01*
X95043589Y-116554786D01*
X95186446Y-116554786D01*
X95253411Y-116590500D01*
X95280196Y-116661929D01*
X95271268Y-116733357D01*
X94905196Y-116804786D01*
D11*
X102544786Y-143009881D02*
X102544786Y-142009881D01*
X102925739Y-142009881D01*
X103020977Y-142057500D01*
X103068596Y-142105119D01*
X103116215Y-142200357D01*
X103116215Y-142343214D01*
X103068596Y-142438452D01*
X103020977Y-142486071D01*
X102925739Y-142533690D01*
X102544786Y-142533690D01*
X104068596Y-142057500D02*
X103973358Y-142009881D01*
X103830501Y-142009881D01*
X103687643Y-142057500D01*
X103592405Y-142152738D01*
X103544786Y-142247976D01*
X103497167Y-142438452D01*
X103497167Y-142581310D01*
X103544786Y-142771786D01*
X103592405Y-142867024D01*
X103687643Y-142962262D01*
X103830501Y-143009881D01*
X103925739Y-143009881D01*
X104068596Y-142962262D01*
X104116215Y-142914643D01*
X104116215Y-142581310D01*
X103925739Y-142581310D01*
X104544786Y-143009881D02*
X104544786Y-142009881D01*
X105116215Y-143009881D01*
X105116215Y-142009881D01*
X105592405Y-143009881D02*
X105592405Y-142009881D01*
X105830500Y-142009881D01*
X105973358Y-142057500D01*
X106068596Y-142152738D01*
X106116215Y-142247976D01*
X106163834Y-142438452D01*
X106163834Y-142581310D01*
X106116215Y-142771786D01*
X106068596Y-142867024D01*
X105973358Y-142962262D01*
X105830500Y-143009881D01*
X105592405Y-143009881D01*
X95385143Y-142009881D02*
X95718476Y-143009881D01*
X96051810Y-142009881D01*
X96718477Y-142486071D02*
X96861334Y-142533690D01*
X96908953Y-142581310D01*
X96956572Y-142676548D01*
X96956572Y-142819405D01*
X96908953Y-142914643D01*
X96861334Y-142962262D01*
X96766096Y-143009881D01*
X96385143Y-143009881D01*
X96385143Y-142009881D01*
X96718477Y-142009881D01*
X96813715Y-142057500D01*
X96861334Y-142105119D01*
X96908953Y-142200357D01*
X96908953Y-142295595D01*
X96861334Y-142390833D01*
X96813715Y-142438452D01*
X96718477Y-142486071D01*
X96385143Y-142486071D01*
X97337524Y-142724167D02*
X97813715Y-142724167D01*
X97242286Y-143009881D02*
X97575619Y-142009881D01*
X97908953Y-143009881D01*
X98099429Y-142009881D02*
X98670858Y-142009881D01*
X98385143Y-143009881D02*
X98385143Y-142009881D01*
X89090500Y-142216190D02*
X89090500Y-142692381D01*
X88757167Y-141692381D02*
X89090500Y-142216190D01*
X89423834Y-141692381D01*
X81200667Y-141755881D02*
X81867334Y-142755881D01*
X81867334Y-141755881D02*
X81200667Y-142755881D01*
X73485429Y-141692381D02*
X73723524Y-142692381D01*
X73914001Y-141978095D01*
X74104477Y-142692381D01*
X74342572Y-141692381D01*
X93154714Y-106926119D02*
X93202333Y-106878500D01*
X93297571Y-106830881D01*
X93535667Y-106830881D01*
X93630905Y-106878500D01*
X93678524Y-106926119D01*
X93726143Y-107021357D01*
X93726143Y-107116595D01*
X93678524Y-107259452D01*
X93107095Y-107830881D01*
X93726143Y-107830881D01*
X94345190Y-106830881D02*
X94440429Y-106830881D01*
X94535667Y-106878500D01*
X94583286Y-106926119D01*
X94630905Y-107021357D01*
X94678524Y-107211833D01*
X94678524Y-107449929D01*
X94630905Y-107640405D01*
X94583286Y-107735643D01*
X94535667Y-107783262D01*
X94440429Y-107830881D01*
X94345190Y-107830881D01*
X94249952Y-107783262D01*
X94202333Y-107735643D01*
X94154714Y-107640405D01*
X94107095Y-107449929D01*
X94107095Y-107211833D01*
X94154714Y-107021357D01*
X94202333Y-106926119D01*
X94249952Y-106878500D01*
X94345190Y-106830881D01*
X95630905Y-107830881D02*
X95059476Y-107830881D01*
X95345190Y-107830881D02*
X95345190Y-106830881D01*
X95249952Y-106973738D01*
X95154714Y-107068976D01*
X95059476Y-107116595D01*
X95964238Y-106830881D02*
X96630905Y-106830881D01*
X96202333Y-107830881D01*
D12*
X79954499Y-102878143D02*
X80579499Y-105878143D01*
X81954499Y-102878143D01*
X82775929Y-104306714D02*
X83775929Y-104306714D01*
X84008071Y-105878143D02*
X82579500Y-105878143D01*
X82954500Y-102878143D01*
X84383071Y-102878143D01*
X85168786Y-105735286D02*
X85579500Y-105878143D01*
X86293786Y-105878143D01*
X86597357Y-105735286D01*
X86758071Y-105592429D01*
X86936643Y-105306714D01*
X86972357Y-105021000D01*
X86865214Y-104735286D01*
X86740214Y-104592429D01*
X86472358Y-104449571D01*
X85918786Y-104306714D01*
X85650929Y-104163857D01*
X85525929Y-104021000D01*
X85418786Y-103735286D01*
X85454501Y-103449571D01*
X85633072Y-103163857D01*
X85793786Y-103021000D01*
X86097357Y-102878143D01*
X86811643Y-102878143D01*
X87222357Y-103021000D01*
X89900928Y-105592429D02*
X89740214Y-105735286D01*
X89293786Y-105878143D01*
X89008072Y-105878143D01*
X88597357Y-105735286D01*
X88347358Y-105449571D01*
X88240215Y-105163857D01*
X88168786Y-104592429D01*
X88222358Y-104163857D01*
X88436643Y-103592429D01*
X88615215Y-103306714D01*
X88936643Y-103021000D01*
X89383072Y-102878143D01*
X89668786Y-102878143D01*
X90079500Y-103021000D01*
X90204500Y-103163857D01*
X91293786Y-104735286D02*
X93579500Y-104735286D01*
X96579500Y-105878143D02*
X95758072Y-104449571D01*
X94865215Y-105878143D02*
X95240215Y-102878143D01*
X96383072Y-102878143D01*
X96650929Y-103021000D01*
X96775929Y-103163857D01*
X96883072Y-103449571D01*
X96829500Y-103878143D01*
X96650929Y-104163857D01*
X96490215Y-104306714D01*
X96186644Y-104449571D01*
X95043787Y-104449571D01*
D10*
X70842238Y-102021143D02*
X70794619Y-102164000D01*
X70794619Y-102402096D01*
X70842238Y-102497334D01*
X70889857Y-102544953D01*
X70985095Y-102592572D01*
X71080333Y-102592572D01*
X71175571Y-102544953D01*
X71223190Y-102497334D01*
X71270810Y-102402096D01*
X71318429Y-102211619D01*
X71366048Y-102116381D01*
X71413667Y-102068762D01*
X71508905Y-102021143D01*
X71604143Y-102021143D01*
X71699381Y-102068762D01*
X71747000Y-102116381D01*
X71794619Y-102211619D01*
X71794619Y-102449715D01*
X71747000Y-102592572D01*
X71794619Y-102925905D02*
X70794619Y-103164000D01*
X71508905Y-103354477D01*
X70794619Y-103544953D01*
X71794619Y-103783048D01*
X70794619Y-104164000D02*
X71794619Y-104164000D01*
X71794619Y-104402095D01*
X71747000Y-104544953D01*
X71651762Y-104640191D01*
X71556524Y-104687810D01*
X71366048Y-104735429D01*
X71223190Y-104735429D01*
X71032714Y-104687810D01*
X70937476Y-104640191D01*
X70842238Y-104544953D01*
X70794619Y-104402095D01*
X70794619Y-104164000D01*
X70794619Y-105925905D02*
X71794619Y-105925905D01*
X71794619Y-106306858D01*
X71747000Y-106402096D01*
X71699381Y-106449715D01*
X71604143Y-106497334D01*
X71461286Y-106497334D01*
X71366048Y-106449715D01*
X71318429Y-106402096D01*
X71270810Y-106306858D01*
X71270810Y-105925905D01*
X71080333Y-106878286D02*
X71080333Y-107354477D01*
X70794619Y-106783048D02*
X71794619Y-107116381D01*
X70794619Y-107449715D01*
X70794619Y-107783048D02*
X71794619Y-107783048D01*
X71794619Y-108021143D01*
X71747000Y-108164001D01*
X71651762Y-108259239D01*
X71556524Y-108306858D01*
X71366048Y-108354477D01*
X71223190Y-108354477D01*
X71032714Y-108306858D01*
X70937476Y-108259239D01*
X70842238Y-108164001D01*
X70794619Y-108021143D01*
X70794619Y-107783048D01*
X70842238Y-108735429D02*
X70794619Y-108878286D01*
X70794619Y-109116382D01*
X70842238Y-109211620D01*
X70889857Y-109259239D01*
X70985095Y-109306858D01*
X71080333Y-109306858D01*
X71175571Y-109259239D01*
X71223190Y-109211620D01*
X71270810Y-109116382D01*
X71318429Y-108925905D01*
X71366048Y-108830667D01*
X71413667Y-108783048D01*
X71508905Y-108735429D01*
X71604143Y-108735429D01*
X71699381Y-108783048D01*
X71747000Y-108830667D01*
X71794619Y-108925905D01*
X71794619Y-109164001D01*
X71747000Y-109306858D01*
X72326500Y-101536500D02*
X72326500Y-109791500D01*
X76771500Y-101536500D02*
X72326500Y-101536500D01*
X76771500Y-109791500D02*
X76771500Y-101536500D01*
X72326500Y-109791500D02*
X76771500Y-109791500D01*
X112712500Y-122174000D02*
X113855500Y-122428000D01*
X115824000Y-113347500D02*
X116586000Y-112839500D01*
X121285000Y-110045500D02*
X122174000Y-110299500D01*
X118999000Y-110045500D02*
X119824500Y-110617000D01*
X121348500Y-113093500D02*
X122872500Y-112649000D01*
X119189500Y-105473500D02*
X118808500Y-106870500D01*
X116035200Y-106742600D02*
X117035200Y-106742600D01*
X117035200Y-105042600D02*
X116035200Y-105042600D01*
D13*
X130520440Y-122069860D02*
X130520440Y-131061460D01*
X130012440Y-121561860D02*
X121020840Y-121561860D01*
X120512840Y-131061460D02*
X120512840Y-122069860D01*
X130012440Y-131569460D02*
X121020840Y-131569460D01*
X129885440Y-130553460D02*
G75*
G03X129885440Y-130553460I-381000J0D01*
G01*
X130520440Y-131061460D02*
X130012440Y-131569460D01*
X130012440Y-121561860D02*
X130520440Y-122069860D01*
X120512840Y-122069860D02*
X121020840Y-121561860D01*
X121020840Y-131569460D02*
X120512840Y-131061460D01*
X106629200Y-132486400D02*
X106629200Y-130200400D01*
X106629200Y-130200400D02*
X104978200Y-130200400D01*
X103200200Y-132486400D02*
X101549200Y-132486400D01*
X101549200Y-132486400D02*
X101549200Y-130200400D01*
X101549200Y-130200400D02*
X103200200Y-130200400D01*
X104978200Y-132486400D02*
X106629200Y-132486400D01*
D10*
X114469800Y-120003200D02*
X113469800Y-120003200D01*
X113469800Y-121703200D02*
X114469800Y-121703200D01*
X133031600Y-141368400D02*
X133031600Y-140368400D01*
X131331600Y-140368400D02*
X131331600Y-141368400D01*
X130491600Y-141393800D02*
X130491600Y-140393800D01*
X128791600Y-140393800D02*
X128791600Y-141393800D01*
X127951600Y-141368400D02*
X127951600Y-140368400D01*
X126251600Y-140368400D02*
X126251600Y-141368400D01*
X125411600Y-141368400D02*
X125411600Y-140368400D01*
X123711600Y-140368400D02*
X123711600Y-141368400D01*
D13*
X106629200Y-129463800D02*
X106629200Y-127177800D01*
X106629200Y-127177800D02*
X104978200Y-127177800D01*
X103200200Y-129463800D02*
X101549200Y-129463800D01*
X101549200Y-129463800D02*
X101549200Y-127177800D01*
X101549200Y-127177800D02*
X103200200Y-127177800D01*
X104978200Y-129463800D02*
X106629200Y-129463800D01*
D10*
X114212000Y-122985400D02*
X114212000Y-123985400D01*
X115912000Y-123985400D02*
X115912000Y-122985400D01*
X135089000Y-130573400D02*
X135089000Y-129573400D01*
X133389000Y-129573400D02*
X133389000Y-130573400D01*
X123740800Y-117082200D02*
X122740800Y-117082200D01*
X122740800Y-118782200D02*
X123740800Y-118782200D01*
X115126400Y-132485000D02*
X115126400Y-133485000D01*
X116826400Y-133485000D02*
X116826400Y-132485000D01*
X118629800Y-112745900D02*
X118629800Y-111745900D01*
X116929800Y-111745900D02*
X116929800Y-112745900D01*
X120277000Y-112483000D02*
X121277000Y-112483000D01*
X121277000Y-110783000D02*
X120277000Y-110783000D01*
X114825400Y-110757600D02*
X113825400Y-110757600D01*
X113825400Y-112457600D02*
X114825400Y-112457600D01*
X122953400Y-113577000D02*
X121953400Y-113577000D01*
X121953400Y-115277000D02*
X122953400Y-115277000D01*
X125985400Y-106896800D02*
X124985400Y-106896800D01*
X124985400Y-108596800D02*
X125985400Y-108596800D01*
X122064400Y-106719000D02*
X121064400Y-106719000D01*
X121064400Y-108419000D02*
X122064400Y-108419000D01*
X118660800Y-107608000D02*
X117660800Y-107608000D01*
X117660800Y-109308000D02*
X118660800Y-109308000D01*
X133586600Y-122998600D02*
X134586600Y-122998600D01*
X134586600Y-121298600D02*
X133586600Y-121298600D01*
X133596000Y-120941200D02*
X134596000Y-120941200D01*
X134596000Y-119241200D02*
X133596000Y-119241200D01*
X113838100Y-109498500D02*
X114838100Y-109498500D01*
X114838100Y-107798500D02*
X113838100Y-107798500D01*
D13*
X106273600Y-133096000D02*
X106273600Y-138176000D01*
X101955600Y-133096000D02*
X101955600Y-138176000D01*
X101320600Y-133096000D02*
X106908600Y-133096000D01*
X106908600Y-133096000D02*
X106908600Y-138176000D01*
X106908600Y-138176000D02*
X101320600Y-138176000D01*
X101320600Y-138176000D02*
X101320600Y-133096000D01*
D10*
X133389000Y-125518800D02*
X133389000Y-126518800D01*
X135089000Y-126518800D02*
X135089000Y-125518800D01*
X128439800Y-116978800D02*
X129439800Y-116978800D01*
X129439800Y-115278800D02*
X128439800Y-115278800D01*
X123375800Y-110908200D02*
X124375800Y-110908200D01*
X124375800Y-109208200D02*
X123375800Y-109208200D01*
X132715200Y-136144700D02*
X135415200Y-136144700D01*
X132715200Y-134644700D02*
X135415200Y-134644700D01*
X134215200Y-135544700D02*
X134215200Y-135294700D01*
X134215200Y-135294700D02*
X134065200Y-135444700D01*
X133965200Y-135044700D02*
X133965200Y-135744700D01*
X134315200Y-135394700D02*
X134665200Y-135394700D01*
X133965200Y-135394700D02*
X134315200Y-135044700D01*
X134315200Y-135044700D02*
X134315200Y-135744700D01*
X134315200Y-135744700D02*
X133965200Y-135394700D01*
X132715200Y-134214300D02*
X135415200Y-134214300D01*
X132715200Y-132714300D02*
X135415200Y-132714300D01*
X134215200Y-133614300D02*
X134215200Y-133364300D01*
X134215200Y-133364300D02*
X134065200Y-133514300D01*
X133965200Y-133114300D02*
X133965200Y-133814300D01*
X134315200Y-133464300D02*
X134665200Y-133464300D01*
X133965200Y-133464300D02*
X134315200Y-133114300D01*
X134315200Y-133114300D02*
X134315200Y-133814300D01*
X134315200Y-133814300D02*
X133965200Y-133464300D01*
X132740600Y-138049700D02*
X135440600Y-138049700D01*
X132740600Y-136549700D02*
X135440600Y-136549700D01*
X134240600Y-137449700D02*
X134240600Y-137199700D01*
X134240600Y-137199700D02*
X134090600Y-137349700D01*
X133990600Y-136949700D02*
X133990600Y-137649700D01*
X134340600Y-137299700D02*
X134690600Y-137299700D01*
X133990600Y-137299700D02*
X134340600Y-136949700D01*
X134340600Y-136949700D02*
X134340600Y-137649700D01*
X134340600Y-137649700D02*
X133990600Y-137299700D01*
D13*
X114066320Y-134597140D02*
X114066320Y-131798060D01*
X113964720Y-131798060D02*
X113964720Y-134597140D01*
X113865660Y-134597140D02*
X113865660Y-131798060D01*
X113766600Y-131798060D02*
X113766600Y-134597140D01*
X113665000Y-131798060D02*
X113665000Y-134597140D01*
X114165380Y-131798060D02*
X109766100Y-131798060D01*
X109766100Y-131798060D02*
X109766100Y-134597140D01*
X109766100Y-134597140D02*
X114165380Y-134597140D01*
X114165380Y-134597140D02*
X114165380Y-131798060D01*
D14*
X75639380Y-132199380D02*
X65240620Y-132199380D01*
X65240620Y-132199380D02*
X65240620Y-124401580D01*
X65240620Y-124401580D02*
X67640920Y-123101100D01*
X67640920Y-123101100D02*
X73239080Y-123101100D01*
X73239080Y-123101100D02*
X75639380Y-124401580D01*
X75639380Y-124401580D02*
X75639380Y-132199380D01*
X86949380Y-132199380D02*
X76550620Y-132199380D01*
X76550620Y-132199380D02*
X76550620Y-124401580D01*
X76550620Y-124401580D02*
X78950920Y-123101100D01*
X78950920Y-123101100D02*
X84549080Y-123101100D01*
X84549080Y-123101100D02*
X86949380Y-124401580D01*
X86949380Y-124401580D02*
X86949380Y-132199380D01*
X98199380Y-132199380D02*
X87800620Y-132199380D01*
X87800620Y-132199380D02*
X87800620Y-124401580D01*
X87800620Y-124401580D02*
X90200920Y-123101100D01*
X90200920Y-123101100D02*
X95799080Y-123101100D01*
X95799080Y-123101100D02*
X98199380Y-124401580D01*
X98199380Y-124401580D02*
X98199380Y-132199380D01*
D10*
X128371000Y-117260400D02*
X129571000Y-117260400D01*
X129571000Y-119010400D02*
X128371000Y-119010400D01*
X117897200Y-119010400D02*
X116697200Y-119010400D01*
X116697200Y-117260400D02*
X117897200Y-117260400D01*
X117897200Y-120915400D02*
X116697200Y-120915400D01*
X116697200Y-119165400D02*
X117897200Y-119165400D01*
X123910800Y-110885000D02*
X125110800Y-110885000D01*
X125110800Y-112635000D02*
X123910800Y-112635000D01*
X138293400Y-138174700D02*
X137093400Y-138174700D01*
X137093400Y-136424700D02*
X138293400Y-136424700D01*
X134405400Y-116474800D02*
X134405400Y-115274800D01*
X136155400Y-115274800D02*
X136155400Y-116474800D01*
X128298500Y-112381000D02*
X127098500Y-112381000D01*
X127098500Y-110631000D02*
X128298500Y-110631000D01*
X110518500Y-116775200D02*
X109318500Y-116775200D01*
X109318500Y-115025200D02*
X110518500Y-115025200D01*
X104837200Y-106930900D02*
X104837200Y-108130900D01*
X103087200Y-108130900D02*
X103087200Y-106930900D01*
X130925600Y-116459600D02*
X130925600Y-115259600D01*
X132675600Y-115259600D02*
X132675600Y-116459600D01*
X110543900Y-113358900D02*
X109343900Y-113358900D01*
X109343900Y-111608900D02*
X110543900Y-111608900D01*
X106653300Y-106930900D02*
X106653300Y-108130900D01*
X104903300Y-108130900D02*
X104903300Y-106930900D01*
X138293400Y-136269700D02*
X137093400Y-136269700D01*
X137093400Y-134519700D02*
X138293400Y-134519700D01*
X138268000Y-134339300D02*
X137068000Y-134339300D01*
X137068000Y-132589300D02*
X138268000Y-132589300D01*
X110531200Y-115060700D02*
X109331200Y-115060700D01*
X109331200Y-113310700D02*
X110531200Y-113310700D01*
X108520200Y-106930900D02*
X108520200Y-108130900D01*
X106770200Y-108130900D02*
X106770200Y-106930900D01*
X110336300Y-106918200D02*
X110336300Y-108118200D01*
X108586300Y-108118200D02*
X108586300Y-106918200D01*
X112063500Y-106930900D02*
X112063500Y-108130900D01*
X110313500Y-108130900D02*
X110313500Y-106930900D01*
X115711000Y-141712200D02*
X115711000Y-140512200D01*
X117461000Y-140512200D02*
X117461000Y-141712200D01*
X113933000Y-141712200D02*
X113933000Y-140512200D01*
X115683000Y-140512200D02*
X115683000Y-141712200D01*
X119522800Y-140676600D02*
X118322800Y-140676600D01*
X118322800Y-138926600D02*
X119522800Y-138926600D01*
D15*
X135661400Y-130413760D02*
X135661400Y-125415040D01*
X135661400Y-125415040D02*
X138861800Y-125415040D01*
X138861800Y-125415040D02*
X138861800Y-130413760D01*
X138861800Y-130413760D02*
X135661400Y-130413760D01*
D10*
X127691400Y-110196600D02*
X126491400Y-110196600D01*
X126491400Y-108446600D02*
X127691400Y-108446600D01*
X132652800Y-116474800D02*
X132652800Y-115274800D01*
X134402800Y-115274800D02*
X134402800Y-116474800D01*
X113997000Y-123764800D02*
X113997000Y-125764800D01*
X111047000Y-125764800D02*
X111047000Y-123764800D01*
X121507960Y-136875000D02*
X121507960Y-136175000D01*
X122707960Y-136175000D02*
X122707960Y-136875000D01*
X131083760Y-136824200D02*
X131083760Y-136124200D01*
X132283760Y-136124200D02*
X132283760Y-136824200D01*
X119094960Y-136875000D02*
X119094960Y-136175000D01*
X120294960Y-136175000D02*
X120294960Y-136875000D01*
X128696160Y-136824200D02*
X128696160Y-136124200D01*
X129896160Y-136124200D02*
X129896160Y-136824200D01*
X120304000Y-136875000D02*
X120304000Y-136175000D01*
X121504000Y-136175000D02*
X121504000Y-136875000D01*
X129889960Y-136824200D02*
X129889960Y-136124200D01*
X131089960Y-136124200D02*
X131089960Y-136824200D01*
X127492200Y-136849600D02*
X127492200Y-136149600D01*
X128692200Y-136149600D02*
X128692200Y-136849600D01*
X126288240Y-136849600D02*
X126288240Y-136149600D01*
X127488240Y-136149600D02*
X127488240Y-136849600D01*
X125079200Y-136849600D02*
X125079200Y-136149600D01*
X126279200Y-136149600D02*
X126279200Y-136849600D01*
X123885400Y-136861600D02*
X123885400Y-136161600D01*
X125085400Y-136161600D02*
X125085400Y-136861600D01*
X122691600Y-136875000D02*
X122691600Y-136175000D01*
X123891600Y-136175000D02*
X123891600Y-136875000D01*
X126941200Y-113119800D02*
X125941200Y-113119800D01*
X125941200Y-114819800D02*
X126941200Y-114819800D01*
D16*
G36*
X80234861Y-111458918D02*
X80384238Y-111463198D01*
X80513197Y-111469541D01*
X80626675Y-111478496D01*
X80729609Y-111490610D01*
X80826934Y-111506430D01*
X80923588Y-111526503D01*
X80991073Y-111542767D01*
X81169338Y-111597100D01*
X81326329Y-111664876D01*
X81462583Y-111746518D01*
X81578634Y-111842452D01*
X81675019Y-111953101D01*
X81752274Y-112078890D01*
X81796861Y-112180419D01*
X81812393Y-112222898D01*
X81825778Y-112263099D01*
X81837176Y-112303224D01*
X81846744Y-112345476D01*
X81854643Y-112392054D01*
X81861031Y-112445161D01*
X81866067Y-112506997D01*
X81869911Y-112579765D01*
X81872722Y-112665665D01*
X81874658Y-112766900D01*
X81875879Y-112885669D01*
X81876544Y-113024176D01*
X81876812Y-113184621D01*
X81876848Y-113287175D01*
X81876900Y-114046000D01*
X80505300Y-114046000D01*
X80505300Y-113337490D01*
X80505299Y-112628981D01*
X80476725Y-112572315D01*
X80436936Y-112521127D01*
X80376739Y-112483129D01*
X80297691Y-112458759D01*
X80201349Y-112448451D01*
X80089271Y-112452644D01*
X80060822Y-112455780D01*
X79981394Y-112468974D01*
X79922349Y-112487632D01*
X79878865Y-112514068D01*
X79846121Y-112550594D01*
X79838550Y-112562397D01*
X79832837Y-112572702D01*
X79828052Y-112584497D01*
X79824111Y-112599986D01*
X79820933Y-112621372D01*
X79818436Y-112650857D01*
X79816539Y-112690644D01*
X79815158Y-112742936D01*
X79814213Y-112809936D01*
X79813622Y-112893846D01*
X79813302Y-112996870D01*
X79813172Y-113121211D01*
X79813150Y-113245900D01*
X79813186Y-113398291D01*
X79813456Y-113527619D01*
X79814199Y-113636217D01*
X79815654Y-113726423D01*
X79818059Y-113800571D01*
X79821655Y-113860997D01*
X79826681Y-113910037D01*
X79833376Y-113950027D01*
X79841980Y-113983302D01*
X79852730Y-114012197D01*
X79865868Y-114039049D01*
X79881632Y-114066193D01*
X79900239Y-114095929D01*
X79922739Y-114130249D01*
X79946924Y-114164081D01*
X79974267Y-114198845D01*
X80006242Y-114235959D01*
X80044321Y-114276845D01*
X80089979Y-114322922D01*
X80144687Y-114375609D01*
X80209920Y-114436328D01*
X80287151Y-114506496D01*
X80377853Y-114587534D01*
X80483498Y-114680863D01*
X80605561Y-114787901D01*
X80740250Y-114905479D01*
X80911895Y-115056852D01*
X81064200Y-115195087D01*
X81198564Y-115321711D01*
X81316385Y-115438250D01*
X81419061Y-115546232D01*
X81507991Y-115647184D01*
X81584573Y-115742633D01*
X81650206Y-115834107D01*
X81706289Y-115923131D01*
X81754219Y-116011233D01*
X81755856Y-116014500D01*
X81790427Y-116087424D01*
X81820337Y-116159705D01*
X81845866Y-116233659D01*
X81867296Y-116311600D01*
X81884907Y-116395842D01*
X81898978Y-116488702D01*
X81909791Y-116592493D01*
X81917626Y-116709531D01*
X81922763Y-116842130D01*
X81925484Y-116992606D01*
X81926067Y-117163273D01*
X81924795Y-117356445D01*
X81924268Y-117404462D01*
X81922253Y-117554539D01*
X81919849Y-117682028D01*
X81916831Y-117789744D01*
X81912976Y-117880500D01*
X81908058Y-117957108D01*
X81901853Y-118022381D01*
X81894138Y-118079132D01*
X81884687Y-118130175D01*
X81873278Y-118178322D01*
X81859684Y-118226385D01*
X81858393Y-118230650D01*
X81847405Y-118268378D01*
X81840343Y-118295724D01*
X81838937Y-118303675D01*
X81851044Y-118306227D01*
X81885222Y-118308520D01*
X81938143Y-118310460D01*
X82006478Y-118311950D01*
X82086900Y-118312895D01*
X82169855Y-118313200D01*
X82270112Y-118313104D01*
X82347752Y-118312690D01*
X82405556Y-118311767D01*
X82446309Y-118310144D01*
X82472791Y-118307630D01*
X82487786Y-118304034D01*
X82494077Y-118299166D01*
X82494444Y-118292834D01*
X82493929Y-118290975D01*
X82470048Y-118204744D01*
X82448101Y-118107118D01*
X82430797Y-118011050D01*
X82422855Y-117951250D01*
X82420703Y-117918237D01*
X82418666Y-117862387D01*
X82416778Y-117786262D01*
X82415075Y-117692426D01*
X82413590Y-117583441D01*
X82412358Y-117461869D01*
X82411414Y-117330274D01*
X82410791Y-117191217D01*
X82410525Y-117047263D01*
X82410520Y-117033675D01*
X82410300Y-116230400D01*
X83844867Y-116230400D01*
X83848308Y-117065425D01*
X83848925Y-117236190D01*
X83849430Y-117383411D01*
X83850066Y-117508940D01*
X83851080Y-117614630D01*
X83852715Y-117702335D01*
X83855216Y-117773907D01*
X83858827Y-117831199D01*
X83863795Y-117876065D01*
X83870362Y-117910356D01*
X83878774Y-117935926D01*
X83889276Y-117954629D01*
X83902112Y-117968316D01*
X83917527Y-117978841D01*
X83935766Y-117988056D01*
X83957072Y-117997816D01*
X83972400Y-118005187D01*
X84005169Y-118020547D01*
X84034606Y-118030624D01*
X84067487Y-118036515D01*
X84110589Y-118039317D01*
X84170688Y-118040129D01*
X84188300Y-118040150D01*
X84279316Y-118037517D01*
X84350420Y-118028634D01*
X84406645Y-118012021D01*
X84453028Y-117986201D01*
X84493935Y-117950381D01*
X84537550Y-117905377D01*
X84537550Y-116566950D01*
X84492034Y-116471700D01*
X84466322Y-116421737D01*
X84436552Y-116372018D01*
X84401263Y-116321045D01*
X84358991Y-116267324D01*
X84308273Y-116209357D01*
X84247646Y-116145648D01*
X84175647Y-116074702D01*
X84090813Y-115995022D01*
X83991681Y-115905112D01*
X83876788Y-115803476D01*
X83744672Y-115688618D01*
X83629221Y-115589314D01*
X83454288Y-115437659D01*
X83299153Y-115299442D01*
X83162745Y-115173620D01*
X83043993Y-115059152D01*
X82941828Y-114954993D01*
X82855179Y-114860102D01*
X82782975Y-114773436D01*
X82757400Y-114740174D01*
X82681521Y-114630769D01*
X82610619Y-114513135D01*
X82548673Y-114394585D01*
X82499659Y-114282434D01*
X82482359Y-114234430D01*
X82469181Y-114193359D01*
X82457886Y-114154138D01*
X82448331Y-114114498D01*
X82440372Y-114072168D01*
X82433868Y-114024878D01*
X82428676Y-113970356D01*
X82424653Y-113906334D01*
X82421656Y-113830539D01*
X82419544Y-113740703D01*
X82418173Y-113634554D01*
X82417401Y-113509823D01*
X82417086Y-113364238D01*
X82417084Y-113195529D01*
X82417084Y-113195100D01*
X82417518Y-112464850D01*
X82451193Y-112341357D01*
X82505450Y-112185598D01*
X82579036Y-112046089D01*
X82672385Y-111922299D01*
X82785929Y-111813701D01*
X82920104Y-111719764D01*
X82994500Y-111678419D01*
X83087713Y-111634242D01*
X83185262Y-111596065D01*
X83291312Y-111562729D01*
X83410026Y-111533075D01*
X83545567Y-111505944D01*
X83702099Y-111480177D01*
X83712050Y-111478679D01*
X83773858Y-111471976D01*
X83856543Y-111466802D01*
X83955630Y-111463128D01*
X84066643Y-111460931D01*
X84185105Y-111460183D01*
X84306542Y-111460858D01*
X84426478Y-111462931D01*
X84540438Y-111466375D01*
X84643946Y-111471164D01*
X84732525Y-111477273D01*
X84801702Y-111484675D01*
X84804250Y-111485033D01*
X85012636Y-111521870D01*
X85198829Y-111570160D01*
X85363514Y-111630321D01*
X85507377Y-111702772D01*
X85631104Y-111787935D01*
X85735380Y-111886227D01*
X85820890Y-111998069D01*
X85888321Y-112123880D01*
X85902149Y-112156849D01*
X85917815Y-112196473D01*
X85931325Y-112232470D01*
X85942852Y-112267003D01*
X85952568Y-112302236D01*
X85960643Y-112340335D01*
X85967250Y-112383463D01*
X85972560Y-112433785D01*
X85976745Y-112493465D01*
X85979977Y-112564667D01*
X85982427Y-112649555D01*
X85984267Y-112750293D01*
X85985669Y-112869047D01*
X85986805Y-113007980D01*
X85987845Y-113169256D01*
X85988286Y-113242724D01*
X85993087Y-114045999D01*
X85306593Y-114045999D01*
X84620100Y-114046000D01*
X84620100Y-113338809D01*
X84620075Y-113186786D01*
X84619951Y-113058043D01*
X84619657Y-112950458D01*
X84619117Y-112861913D01*
X84618259Y-112790285D01*
X84617009Y-112733455D01*
X84615295Y-112689302D01*
X84613043Y-112655706D01*
X84610180Y-112630546D01*
X84606633Y-112611701D01*
X84602328Y-112597052D01*
X84597193Y-112584478D01*
X84593798Y-112577288D01*
X84563698Y-112530906D01*
X84522303Y-112497243D01*
X84465137Y-112473741D01*
X84387723Y-112457840D01*
X84383870Y-112457287D01*
X84266425Y-112448299D01*
X84159602Y-112455394D01*
X84067610Y-112478188D01*
X84042639Y-112488437D01*
X84018199Y-112499367D01*
X83997494Y-112509355D01*
X83980217Y-112520479D01*
X83966058Y-112534814D01*
X83954707Y-112554437D01*
X83945857Y-112581423D01*
X83939197Y-112617849D01*
X83934418Y-112665790D01*
X83931211Y-112727324D01*
X83929267Y-112804525D01*
X83928277Y-112899471D01*
X83927932Y-113014237D01*
X83927922Y-113150899D01*
X83927950Y-113258600D01*
X83927967Y-113404175D01*
X83928080Y-113526618D01*
X83928378Y-113628199D01*
X83928953Y-113711185D01*
X83929894Y-113777845D01*
X83931293Y-113830448D01*
X83933239Y-113871263D01*
X83935823Y-113902557D01*
X83939135Y-113926599D01*
X83943267Y-113945658D01*
X83948308Y-113962003D01*
X83954348Y-113977901D01*
X83956883Y-113984193D01*
X83979006Y-114030500D01*
X84010261Y-114085660D01*
X84044239Y-114138436D01*
X84047394Y-114142943D01*
X84067658Y-114171239D01*
X84087750Y-114198044D01*
X84109046Y-114224645D01*
X84132926Y-114252332D01*
X84160769Y-114282395D01*
X84193953Y-114316123D01*
X84233857Y-114354805D01*
X84281860Y-114399730D01*
X84339340Y-114452188D01*
X84407677Y-114513467D01*
X84488248Y-114584858D01*
X84582432Y-114667650D01*
X84691609Y-114763131D01*
X84817156Y-114872591D01*
X84960453Y-114997319D01*
X84968644Y-115004445D01*
X85043331Y-115070800D01*
X85128803Y-115148992D01*
X85218190Y-115232595D01*
X85304625Y-115315184D01*
X85381238Y-115390333D01*
X85382702Y-115391795D01*
X85523431Y-115538061D01*
X85643201Y-115675502D01*
X85743640Y-115806908D01*
X85826376Y-115935070D01*
X85893040Y-116062779D01*
X85945259Y-116192826D01*
X85984663Y-116328001D01*
X86012880Y-116471096D01*
X86012974Y-116471700D01*
X86018300Y-116508645D01*
X86022748Y-116547106D01*
X86026397Y-116589679D01*
X86029322Y-116638960D01*
X86031600Y-116697544D01*
X86033308Y-116768028D01*
X86034521Y-116853005D01*
X86035316Y-116955073D01*
X86035770Y-117076827D01*
X86035958Y-117220863D01*
X86035971Y-117252750D01*
X86035825Y-117416900D01*
X86035179Y-117558079D01*
X86033869Y-117678711D01*
X86031732Y-117781223D01*
X86028605Y-117868041D01*
X86024325Y-117941589D01*
X86018728Y-118004295D01*
X86011651Y-118058583D01*
X86002931Y-118106880D01*
X85992404Y-118151611D01*
X85979908Y-118195202D01*
X85970578Y-118224300D01*
X85920704Y-118346959D01*
X85851016Y-118471596D01*
X85823183Y-118514117D01*
X85803122Y-118545500D01*
X85791605Y-118566988D01*
X85790450Y-118572537D01*
X85803735Y-118575239D01*
X85838613Y-118580889D01*
X85891519Y-118588950D01*
X85958889Y-118598885D01*
X86037155Y-118610156D01*
X86086950Y-118617209D01*
X86175159Y-118630103D01*
X86282244Y-118646525D01*
X86402084Y-118665492D01*
X86528558Y-118686017D01*
X86655545Y-118707117D01*
X86776925Y-118727806D01*
X86809204Y-118733414D01*
X86911049Y-118751105D01*
X87005300Y-118767312D01*
X87088944Y-118781529D01*
X87158970Y-118793251D01*
X87212364Y-118801973D01*
X87246115Y-118807189D01*
X87256879Y-118808500D01*
X87259261Y-118805482D01*
X87261425Y-118795689D01*
X87263379Y-118778015D01*
X87265135Y-118751350D01*
X87266701Y-118714588D01*
X87268088Y-118666620D01*
X87269306Y-118606339D01*
X87270365Y-118532637D01*
X87271275Y-118444407D01*
X87272045Y-118340540D01*
X87272686Y-118219929D01*
X87273209Y-118081466D01*
X87273622Y-117924043D01*
X87273935Y-117746553D01*
X87274160Y-117547888D01*
X87274305Y-117326939D01*
X87274382Y-117082601D01*
X87274400Y-116865717D01*
X87274399Y-114922935D01*
X87239475Y-114928555D01*
X87214623Y-114931980D01*
X87170079Y-114937571D01*
X87111392Y-114944651D01*
X87044110Y-114952544D01*
X87017429Y-114955617D01*
X86830308Y-114977059D01*
X86824019Y-115016354D01*
X86822203Y-115035488D01*
X86819033Y-115077785D01*
X86814650Y-115141054D01*
X86809195Y-115223103D01*
X86802809Y-115321739D01*
X86795633Y-115434769D01*
X86787809Y-115560003D01*
X86779477Y-115695248D01*
X86770780Y-115838311D01*
X86766289Y-115912900D01*
X86750713Y-116170873D01*
X86736423Y-116404156D01*
X86723372Y-116613423D01*
X86711512Y-116799350D01*
X86700796Y-116962610D01*
X86691176Y-117103880D01*
X86682604Y-117223833D01*
X86675033Y-117323144D01*
X86668416Y-117402489D01*
X86662706Y-117462541D01*
X86657854Y-117503975D01*
X86653813Y-117527467D01*
X86652345Y-117532150D01*
X86645420Y-117542514D01*
X86641646Y-117532182D01*
X86640136Y-117500400D01*
X86639043Y-117468102D01*
X86636669Y-117416288D01*
X86633306Y-117350791D01*
X86629250Y-117277446D01*
X86626701Y-117233700D01*
X86623495Y-117176270D01*
X86619224Y-117094005D01*
X86613912Y-116987448D01*
X86607586Y-116857140D01*
X86600270Y-116703623D01*
X86591990Y-116527439D01*
X86582771Y-116329129D01*
X86572638Y-116109237D01*
X86561618Y-115868302D01*
X86549735Y-115606869D01*
X86537015Y-115325477D01*
X86529683Y-115162667D01*
X86521358Y-114977584D01*
X86037454Y-114897106D01*
X85929623Y-114879007D01*
X85829660Y-114861911D01*
X85740339Y-114846315D01*
X85664432Y-114832718D01*
X85604710Y-114821618D01*
X85563948Y-114813512D01*
X85544917Y-114808900D01*
X85543955Y-114808434D01*
X85553098Y-114804489D01*
X85584883Y-114798091D01*
X85636709Y-114789595D01*
X85705975Y-114779353D01*
X85790077Y-114767720D01*
X85886415Y-114755049D01*
X85992386Y-114741693D01*
X86105388Y-114728005D01*
X86222821Y-114714340D01*
X86301395Y-114705516D01*
X86372313Y-114697393D01*
X86433998Y-114689801D01*
X86482202Y-114683305D01*
X86512680Y-114678471D01*
X86521404Y-114676228D01*
X86523232Y-114662830D01*
X86526348Y-114626522D01*
X86530589Y-114569756D01*
X86535787Y-114494981D01*
X86541779Y-114404647D01*
X86548397Y-114301204D01*
X86555477Y-114187101D01*
X86562853Y-114064788D01*
X86563892Y-114047283D01*
X86572341Y-113905259D01*
X86581313Y-113755574D01*
X86590499Y-113603279D01*
X86599593Y-113453428D01*
X86608287Y-113311074D01*
X86616275Y-113181268D01*
X86623250Y-113069063D01*
X86626458Y-113018025D01*
X86632758Y-112916915D01*
X86638497Y-112822153D01*
X86643477Y-112737197D01*
X86647503Y-112665505D01*
X86650377Y-112610536D01*
X86651903Y-112575747D01*
X86652100Y-112567074D01*
X86652100Y-112522000D01*
X86737069Y-112522000D01*
X86745366Y-112747425D01*
X86749288Y-112850501D01*
X86753996Y-112968365D01*
X86759358Y-113098147D01*
X86765244Y-113236980D01*
X86771523Y-113381996D01*
X86778063Y-113530325D01*
X86784735Y-113679101D01*
X86791407Y-113825454D01*
X86797950Y-113966516D01*
X86804231Y-114099420D01*
X86810120Y-114221296D01*
X86815487Y-114329278D01*
X86820200Y-114420496D01*
X86824129Y-114492082D01*
X86827144Y-114541168D01*
X86827153Y-114541300D01*
X86836250Y-114674650D01*
X87026750Y-114708245D01*
X87095426Y-114720119D01*
X87157051Y-114730334D01*
X87206437Y-114738063D01*
X87238399Y-114742479D01*
X87245825Y-114743170D01*
X87274400Y-114744500D01*
X87274400Y-112522000D01*
X86737069Y-112522000D01*
X86652100Y-112522000D01*
X86182200Y-112522000D01*
X86182200Y-111531400D01*
X89852500Y-111531400D01*
X89852500Y-112521724D01*
X88779350Y-112528350D01*
X88772952Y-119150408D01*
X88820601Y-119162879D01*
X88855431Y-119171859D01*
X88905526Y-119184608D01*
X88961507Y-119198743D01*
X88976200Y-119202433D01*
X89316891Y-119291528D01*
X89675247Y-119392077D01*
X90047022Y-119502683D01*
X90427970Y-119621948D01*
X90813847Y-119748478D01*
X91200406Y-119880874D01*
X91583403Y-120017741D01*
X91958593Y-120157681D01*
X92321730Y-120299297D01*
X92375211Y-120320724D01*
X92585554Y-120406577D01*
X92804766Y-120498433D01*
X93029547Y-120594790D01*
X93256595Y-120694148D01*
X93482612Y-120795007D01*
X93704296Y-120895868D01*
X93918346Y-120995229D01*
X94121463Y-121091591D01*
X94310346Y-121183453D01*
X94481694Y-121269316D01*
X94618294Y-121340279D01*
X94684659Y-121376237D01*
X94736403Y-121405788D01*
X94772021Y-121427905D01*
X94790012Y-121441561D01*
X94788873Y-121445729D01*
X94767101Y-121439382D01*
X94758600Y-121436165D01*
X94424475Y-121308747D01*
X94072445Y-121179115D01*
X93707345Y-121048884D01*
X93334010Y-120919669D01*
X92957276Y-120793085D01*
X92581976Y-120670746D01*
X92212946Y-120554268D01*
X91855021Y-120445264D01*
X91513035Y-120345351D01*
X91380951Y-120308059D01*
X90471390Y-120067197D01*
X89556365Y-119851089D01*
X88636292Y-119659780D01*
X87711583Y-119493314D01*
X86782652Y-119351734D01*
X85849913Y-119235084D01*
X84913780Y-119143408D01*
X83974666Y-119076749D01*
X83032984Y-119035153D01*
X82089149Y-119018661D01*
X81143574Y-119027319D01*
X80196672Y-119061171D01*
X79813150Y-119082043D01*
X78882166Y-119150226D01*
X77953084Y-119243228D01*
X77026974Y-119360865D01*
X76104905Y-119502956D01*
X75187945Y-119669316D01*
X74277165Y-119859763D01*
X73373632Y-120074114D01*
X72478417Y-120312184D01*
X72247035Y-120377980D01*
X71944846Y-120466962D01*
X71629767Y-120563288D01*
X71307108Y-120665203D01*
X70982178Y-120770952D01*
X70660286Y-120878777D01*
X70346741Y-120986924D01*
X70046854Y-121093636D01*
X69765932Y-121197157D01*
X69735700Y-121208545D01*
X69599566Y-121259682D01*
X69474132Y-121306280D01*
X69361102Y-121347735D01*
X69262183Y-121383440D01*
X69179079Y-121412791D01*
X69113495Y-121435183D01*
X69067136Y-121450011D01*
X69041707Y-121456670D01*
X69037200Y-121456426D01*
X69048343Y-121447384D01*
X69080324Y-121428660D01*
X69130966Y-121401319D01*
X69198092Y-121366428D01*
X69279527Y-121325054D01*
X69373095Y-121278265D01*
X69476619Y-121227126D01*
X69587924Y-121172704D01*
X69704833Y-121116066D01*
X69825170Y-121058280D01*
X69946759Y-121000410D01*
X70067424Y-120943526D01*
X70184990Y-120888692D01*
X70297279Y-120836976D01*
X70347520Y-120814092D01*
X70878055Y-120580179D01*
X71418417Y-120355109D01*
X71964984Y-120140162D01*
X72514134Y-119936619D01*
X73062247Y-119745760D01*
X73605700Y-119568866D01*
X74140872Y-119407217D01*
X74664142Y-119262092D01*
X74933175Y-119192873D01*
X75014655Y-119172157D01*
X75087237Y-119153050D01*
X75147507Y-119136505D01*
X75192052Y-119123474D01*
X75217457Y-119114911D01*
X75222100Y-119112257D01*
X75210990Y-119104503D01*
X75181423Y-119091196D01*
X75139046Y-119074800D01*
X75123675Y-119069294D01*
X75026071Y-119031224D01*
X74920121Y-118983557D01*
X74815096Y-118930836D01*
X74720269Y-118877608D01*
X74676000Y-118849880D01*
X74528165Y-118741701D01*
X74402997Y-118625601D01*
X74298238Y-118498555D01*
X74211630Y-118357540D01*
X74140917Y-118199532D01*
X74099981Y-118078250D01*
X74073334Y-117989350D01*
X74069698Y-114760374D01*
X74066062Y-111531399D01*
X74809181Y-111531399D01*
X75552300Y-111531400D01*
X75554285Y-112277525D01*
X75554499Y-112368917D01*
X75554719Y-112483935D01*
X75554945Y-112620808D01*
X75555173Y-112777760D01*
X75555403Y-112953019D01*
X75555632Y-113144812D01*
X75555859Y-113351364D01*
X75556082Y-113570904D01*
X75556299Y-113801657D01*
X75556509Y-114041850D01*
X75556709Y-114289710D01*
X75556898Y-114543464D01*
X75557075Y-114801338D01*
X75557237Y-115061559D01*
X75557383Y-115322354D01*
X75557460Y-115474750D01*
X75557633Y-115722614D01*
X75557905Y-115963803D01*
X75558271Y-116197077D01*
X75558724Y-116421199D01*
X75559258Y-116634931D01*
X75559869Y-116837036D01*
X75560550Y-117026276D01*
X75561295Y-117201412D01*
X75562099Y-117361207D01*
X75562955Y-117504423D01*
X75563858Y-117629822D01*
X75564803Y-117736167D01*
X75565783Y-117822219D01*
X75566793Y-117886742D01*
X75567826Y-117928496D01*
X75568878Y-117946244D01*
X75569012Y-117946716D01*
X75585368Y-117962354D01*
X75618051Y-117982926D01*
X75657912Y-118002995D01*
X75752410Y-118033935D01*
X75852628Y-118046197D01*
X75952569Y-118040199D01*
X76046234Y-118016359D01*
X76127625Y-117975096D01*
X76135294Y-117969713D01*
X76189619Y-117930360D01*
X76187178Y-116092955D01*
X76186878Y-115848239D01*
X76186609Y-115590963D01*
X76186373Y-115324351D01*
X76186170Y-115051627D01*
X76186003Y-114776016D01*
X76185871Y-114500743D01*
X76185777Y-114229031D01*
X76185721Y-113964105D01*
X76185704Y-113709191D01*
X76185728Y-113467512D01*
X76185795Y-113242292D01*
X76185904Y-113036756D01*
X76186018Y-112893475D01*
X76187300Y-111531400D01*
X77686406Y-111531400D01*
X77682345Y-114881025D01*
X77681941Y-115229265D01*
X77681590Y-115553045D01*
X77681269Y-115853304D01*
X77680957Y-116130982D01*
X77680632Y-116387018D01*
X77680271Y-116622353D01*
X77679853Y-116837924D01*
X77679355Y-117034673D01*
X77678756Y-117213539D01*
X77678034Y-117375461D01*
X77677167Y-117521378D01*
X77676133Y-117652231D01*
X77674909Y-117768959D01*
X77673474Y-117872501D01*
X77671806Y-117963798D01*
X77669882Y-118043787D01*
X77667682Y-118113411D01*
X77665182Y-118173607D01*
X77662361Y-118225315D01*
X77659198Y-118269475D01*
X77655669Y-118307026D01*
X77651753Y-118338909D01*
X77647428Y-118366062D01*
X77642672Y-118389426D01*
X77637463Y-118409939D01*
X77631779Y-118428541D01*
X77625598Y-118446172D01*
X77618899Y-118463772D01*
X77611658Y-118482279D01*
X77603854Y-118502635D01*
X77597194Y-118520874D01*
X77580568Y-118570282D01*
X77568871Y-118610190D01*
X77563657Y-118634986D01*
X77564110Y-118640143D01*
X77577928Y-118640141D01*
X77613736Y-118636839D01*
X77668394Y-118630618D01*
X77738760Y-118621861D01*
X77821693Y-118610949D01*
X77914051Y-118598265D01*
X77949102Y-118593324D01*
X78049352Y-118579297D01*
X78146022Y-118566145D01*
X78234964Y-118554402D01*
X78312033Y-118544606D01*
X78373082Y-118537291D01*
X78413966Y-118532994D01*
X78419325Y-118532546D01*
X78463962Y-118528126D01*
X78496653Y-118523035D01*
X78511105Y-118518287D01*
X78511316Y-118517741D01*
X78504756Y-118503129D01*
X78488727Y-118477123D01*
X78485244Y-118471950D01*
X78442639Y-118400869D01*
X78400932Y-118316352D01*
X78365470Y-118229969D01*
X78346273Y-118171226D01*
X78336640Y-118133058D01*
X78328270Y-118090843D01*
X78321081Y-118042657D01*
X78314989Y-117986580D01*
X78309911Y-117920688D01*
X78305765Y-117843058D01*
X78302467Y-117751767D01*
X78299934Y-117644894D01*
X78298084Y-117520516D01*
X78296833Y-117376709D01*
X78296099Y-117211551D01*
X78295798Y-117023121D01*
X78295788Y-117001925D01*
X78295500Y-116230400D01*
X79730600Y-116230400D01*
X79730600Y-117043607D01*
X79730690Y-117213759D01*
X79730985Y-117360246D01*
X79731521Y-117484803D01*
X79732331Y-117589163D01*
X79733451Y-117675062D01*
X79734917Y-117744234D01*
X79736763Y-117798413D01*
X79739024Y-117839334D01*
X79741737Y-117868731D01*
X79744935Y-117888339D01*
X79747923Y-117898275D01*
X79784964Y-117954629D01*
X79842859Y-117998124D01*
X79920196Y-118028129D01*
X80015565Y-118044010D01*
X80078146Y-118046500D01*
X80181305Y-118039466D01*
X80269378Y-118019009D01*
X80340181Y-117986092D01*
X80391524Y-117941681D01*
X80417812Y-117896735D01*
X80420044Y-117878422D01*
X80422117Y-117837289D01*
X80423986Y-117775917D01*
X80425609Y-117696886D01*
X80426943Y-117602778D01*
X80427945Y-117496171D01*
X80428570Y-117379647D01*
X80428776Y-117255786D01*
X80428772Y-117242398D01*
X80428670Y-117100201D01*
X80428462Y-116981027D01*
X80428052Y-116882497D01*
X80427344Y-116802233D01*
X80426240Y-116737859D01*
X80424644Y-116686996D01*
X80422460Y-116647266D01*
X80419592Y-116616291D01*
X80415943Y-116591694D01*
X80411416Y-116571097D01*
X80405915Y-116552123D01*
X80400051Y-116534465D01*
X80379633Y-116481027D01*
X80354404Y-116428046D01*
X80323039Y-116374117D01*
X80284212Y-116317839D01*
X80236598Y-116257807D01*
X80178871Y-116192617D01*
X80109706Y-116120868D01*
X80027776Y-116041155D01*
X79931756Y-115952075D01*
X79820321Y-115852224D01*
X79692145Y-115740200D01*
X79545902Y-115614598D01*
X79470674Y-115550582D01*
X79301614Y-115405248D01*
X79151965Y-115272502D01*
X79020153Y-115150616D01*
X78904608Y-115037863D01*
X78803755Y-114932518D01*
X78716023Y-114832852D01*
X78639840Y-114737140D01*
X78573633Y-114643653D01*
X78515830Y-114550666D01*
X78464859Y-114456452D01*
X78453411Y-114433350D01*
X78417926Y-114358855D01*
X78389184Y-114293238D01*
X78366355Y-114232359D01*
X78348610Y-114172083D01*
X78335121Y-114108271D01*
X78325059Y-114036786D01*
X78317594Y-113953489D01*
X78311899Y-113854245D01*
X78307143Y-113734914D01*
X78305848Y-113696750D01*
X78302877Y-113585667D01*
X78300601Y-113456595D01*
X78299076Y-113316935D01*
X78298359Y-113174088D01*
X78298506Y-113035457D01*
X78299574Y-112908444D01*
X78299734Y-112896650D01*
X78301968Y-112761723D01*
X78304866Y-112648865D01*
X78308933Y-112554742D01*
X78314676Y-112476023D01*
X78322602Y-112409376D01*
X78333218Y-112351470D01*
X78347031Y-112298972D01*
X78364546Y-112248551D01*
X78386271Y-112196874D01*
X78412712Y-112140611D01*
X78415613Y-112134650D01*
X78485464Y-112012666D01*
X78569690Y-111905350D01*
X78670250Y-111811165D01*
X78789101Y-111728575D01*
X78928197Y-111656042D01*
X79089497Y-111592030D01*
X79119459Y-111581820D01*
X79254430Y-111541739D01*
X79395809Y-111509849D01*
X79546814Y-111485796D01*
X79710661Y-111469224D01*
X79890566Y-111459781D01*
X80089746Y-111457110D01*
X80234861Y-111458918D01*
X80234861Y-111458918D01*
G37*
X80234861Y-111458918D02*
X80384238Y-111463198D01*
X80513197Y-111469541D01*
X80626675Y-111478496D01*
X80729609Y-111490610D01*
X80826934Y-111506430D01*
X80923588Y-111526503D01*
X80991073Y-111542767D01*
X81169338Y-111597100D01*
X81326329Y-111664876D01*
X81462583Y-111746518D01*
X81578634Y-111842452D01*
X81675019Y-111953101D01*
X81752274Y-112078890D01*
X81796861Y-112180419D01*
X81812393Y-112222898D01*
X81825778Y-112263099D01*
X81837176Y-112303224D01*
X81846744Y-112345476D01*
X81854643Y-112392054D01*
X81861031Y-112445161D01*
X81866067Y-112506997D01*
X81869911Y-112579765D01*
X81872722Y-112665665D01*
X81874658Y-112766900D01*
X81875879Y-112885669D01*
X81876544Y-113024176D01*
X81876812Y-113184621D01*
X81876848Y-113287175D01*
X81876900Y-114046000D01*
X80505300Y-114046000D01*
X80505300Y-113337490D01*
X80505299Y-112628981D01*
X80476725Y-112572315D01*
X80436936Y-112521127D01*
X80376739Y-112483129D01*
X80297691Y-112458759D01*
X80201349Y-112448451D01*
X80089271Y-112452644D01*
X80060822Y-112455780D01*
X79981394Y-112468974D01*
X79922349Y-112487632D01*
X79878865Y-112514068D01*
X79846121Y-112550594D01*
X79838550Y-112562397D01*
X79832837Y-112572702D01*
X79828052Y-112584497D01*
X79824111Y-112599986D01*
X79820933Y-112621372D01*
X79818436Y-112650857D01*
X79816539Y-112690644D01*
X79815158Y-112742936D01*
X79814213Y-112809936D01*
X79813622Y-112893846D01*
X79813302Y-112996870D01*
X79813172Y-113121211D01*
X79813150Y-113245900D01*
X79813186Y-113398291D01*
X79813456Y-113527619D01*
X79814199Y-113636217D01*
X79815654Y-113726423D01*
X79818059Y-113800571D01*
X79821655Y-113860997D01*
X79826681Y-113910037D01*
X79833376Y-113950027D01*
X79841980Y-113983302D01*
X79852730Y-114012197D01*
X79865868Y-114039049D01*
X79881632Y-114066193D01*
X79900239Y-114095929D01*
X79922739Y-114130249D01*
X79946924Y-114164081D01*
X79974267Y-114198845D01*
X80006242Y-114235959D01*
X80044321Y-114276845D01*
X80089979Y-114322922D01*
X80144687Y-114375609D01*
X80209920Y-114436328D01*
X80287151Y-114506496D01*
X80377853Y-114587534D01*
X80483498Y-114680863D01*
X80605561Y-114787901D01*
X80740250Y-114905479D01*
X80911895Y-115056852D01*
X81064200Y-115195087D01*
X81198564Y-115321711D01*
X81316385Y-115438250D01*
X81419061Y-115546232D01*
X81507991Y-115647184D01*
X81584573Y-115742633D01*
X81650206Y-115834107D01*
X81706289Y-115923131D01*
X81754219Y-116011233D01*
X81755856Y-116014500D01*
X81790427Y-116087424D01*
X81820337Y-116159705D01*
X81845866Y-116233659D01*
X81867296Y-116311600D01*
X81884907Y-116395842D01*
X81898978Y-116488702D01*
X81909791Y-116592493D01*
X81917626Y-116709531D01*
X81922763Y-116842130D01*
X81925484Y-116992606D01*
X81926067Y-117163273D01*
X81924795Y-117356445D01*
X81924268Y-117404462D01*
X81922253Y-117554539D01*
X81919849Y-117682028D01*
X81916831Y-117789744D01*
X81912976Y-117880500D01*
X81908058Y-117957108D01*
X81901853Y-118022381D01*
X81894138Y-118079132D01*
X81884687Y-118130175D01*
X81873278Y-118178322D01*
X81859684Y-118226385D01*
X81858393Y-118230650D01*
X81847405Y-118268378D01*
X81840343Y-118295724D01*
X81838937Y-118303675D01*
X81851044Y-118306227D01*
X81885222Y-118308520D01*
X81938143Y-118310460D01*
X82006478Y-118311950D01*
X82086900Y-118312895D01*
X82169855Y-118313200D01*
X82270112Y-118313104D01*
X82347752Y-118312690D01*
X82405556Y-118311767D01*
X82446309Y-118310144D01*
X82472791Y-118307630D01*
X82487786Y-118304034D01*
X82494077Y-118299166D01*
X82494444Y-118292834D01*
X82493929Y-118290975D01*
X82470048Y-118204744D01*
X82448101Y-118107118D01*
X82430797Y-118011050D01*
X82422855Y-117951250D01*
X82420703Y-117918237D01*
X82418666Y-117862387D01*
X82416778Y-117786262D01*
X82415075Y-117692426D01*
X82413590Y-117583441D01*
X82412358Y-117461869D01*
X82411414Y-117330274D01*
X82410791Y-117191217D01*
X82410525Y-117047263D01*
X82410520Y-117033675D01*
X82410300Y-116230400D01*
X83844867Y-116230400D01*
X83848308Y-117065425D01*
X83848925Y-117236190D01*
X83849430Y-117383411D01*
X83850066Y-117508940D01*
X83851080Y-117614630D01*
X83852715Y-117702335D01*
X83855216Y-117773907D01*
X83858827Y-117831199D01*
X83863795Y-117876065D01*
X83870362Y-117910356D01*
X83878774Y-117935926D01*
X83889276Y-117954629D01*
X83902112Y-117968316D01*
X83917527Y-117978841D01*
X83935766Y-117988056D01*
X83957072Y-117997816D01*
X83972400Y-118005187D01*
X84005169Y-118020547D01*
X84034606Y-118030624D01*
X84067487Y-118036515D01*
X84110589Y-118039317D01*
X84170688Y-118040129D01*
X84188300Y-118040150D01*
X84279316Y-118037517D01*
X84350420Y-118028634D01*
X84406645Y-118012021D01*
X84453028Y-117986201D01*
X84493935Y-117950381D01*
X84537550Y-117905377D01*
X84537550Y-116566950D01*
X84492034Y-116471700D01*
X84466322Y-116421737D01*
X84436552Y-116372018D01*
X84401263Y-116321045D01*
X84358991Y-116267324D01*
X84308273Y-116209357D01*
X84247646Y-116145648D01*
X84175647Y-116074702D01*
X84090813Y-115995022D01*
X83991681Y-115905112D01*
X83876788Y-115803476D01*
X83744672Y-115688618D01*
X83629221Y-115589314D01*
X83454288Y-115437659D01*
X83299153Y-115299442D01*
X83162745Y-115173620D01*
X83043993Y-115059152D01*
X82941828Y-114954993D01*
X82855179Y-114860102D01*
X82782975Y-114773436D01*
X82757400Y-114740174D01*
X82681521Y-114630769D01*
X82610619Y-114513135D01*
X82548673Y-114394585D01*
X82499659Y-114282434D01*
X82482359Y-114234430D01*
X82469181Y-114193359D01*
X82457886Y-114154138D01*
X82448331Y-114114498D01*
X82440372Y-114072168D01*
X82433868Y-114024878D01*
X82428676Y-113970356D01*
X82424653Y-113906334D01*
X82421656Y-113830539D01*
X82419544Y-113740703D01*
X82418173Y-113634554D01*
X82417401Y-113509823D01*
X82417086Y-113364238D01*
X82417084Y-113195529D01*
X82417084Y-113195100D01*
X82417518Y-112464850D01*
X82451193Y-112341357D01*
X82505450Y-112185598D01*
X82579036Y-112046089D01*
X82672385Y-111922299D01*
X82785929Y-111813701D01*
X82920104Y-111719764D01*
X82994500Y-111678419D01*
X83087713Y-111634242D01*
X83185262Y-111596065D01*
X83291312Y-111562729D01*
X83410026Y-111533075D01*
X83545567Y-111505944D01*
X83702099Y-111480177D01*
X83712050Y-111478679D01*
X83773858Y-111471976D01*
X83856543Y-111466802D01*
X83955630Y-111463128D01*
X84066643Y-111460931D01*
X84185105Y-111460183D01*
X84306542Y-111460858D01*
X84426478Y-111462931D01*
X84540438Y-111466375D01*
X84643946Y-111471164D01*
X84732525Y-111477273D01*
X84801702Y-111484675D01*
X84804250Y-111485033D01*
X85012636Y-111521870D01*
X85198829Y-111570160D01*
X85363514Y-111630321D01*
X85507377Y-111702772D01*
X85631104Y-111787935D01*
X85735380Y-111886227D01*
X85820890Y-111998069D01*
X85888321Y-112123880D01*
X85902149Y-112156849D01*
X85917815Y-112196473D01*
X85931325Y-112232470D01*
X85942852Y-112267003D01*
X85952568Y-112302236D01*
X85960643Y-112340335D01*
X85967250Y-112383463D01*
X85972560Y-112433785D01*
X85976745Y-112493465D01*
X85979977Y-112564667D01*
X85982427Y-112649555D01*
X85984267Y-112750293D01*
X85985669Y-112869047D01*
X85986805Y-113007980D01*
X85987845Y-113169256D01*
X85988286Y-113242724D01*
X85993087Y-114045999D01*
X85306593Y-114045999D01*
X84620100Y-114046000D01*
X84620100Y-113338809D01*
X84620075Y-113186786D01*
X84619951Y-113058043D01*
X84619657Y-112950458D01*
X84619117Y-112861913D01*
X84618259Y-112790285D01*
X84617009Y-112733455D01*
X84615295Y-112689302D01*
X84613043Y-112655706D01*
X84610180Y-112630546D01*
X84606633Y-112611701D01*
X84602328Y-112597052D01*
X84597193Y-112584478D01*
X84593798Y-112577288D01*
X84563698Y-112530906D01*
X84522303Y-112497243D01*
X84465137Y-112473741D01*
X84387723Y-112457840D01*
X84383870Y-112457287D01*
X84266425Y-112448299D01*
X84159602Y-112455394D01*
X84067610Y-112478188D01*
X84042639Y-112488437D01*
X84018199Y-112499367D01*
X83997494Y-112509355D01*
X83980217Y-112520479D01*
X83966058Y-112534814D01*
X83954707Y-112554437D01*
X83945857Y-112581423D01*
X83939197Y-112617849D01*
X83934418Y-112665790D01*
X83931211Y-112727324D01*
X83929267Y-112804525D01*
X83928277Y-112899471D01*
X83927932Y-113014237D01*
X83927922Y-113150899D01*
X83927950Y-113258600D01*
X83927967Y-113404175D01*
X83928080Y-113526618D01*
X83928378Y-113628199D01*
X83928953Y-113711185D01*
X83929894Y-113777845D01*
X83931293Y-113830448D01*
X83933239Y-113871263D01*
X83935823Y-113902557D01*
X83939135Y-113926599D01*
X83943267Y-113945658D01*
X83948308Y-113962003D01*
X83954348Y-113977901D01*
X83956883Y-113984193D01*
X83979006Y-114030500D01*
X84010261Y-114085660D01*
X84044239Y-114138436D01*
X84047394Y-114142943D01*
X84067658Y-114171239D01*
X84087750Y-114198044D01*
X84109046Y-114224645D01*
X84132926Y-114252332D01*
X84160769Y-114282395D01*
X84193953Y-114316123D01*
X84233857Y-114354805D01*
X84281860Y-114399730D01*
X84339340Y-114452188D01*
X84407677Y-114513467D01*
X84488248Y-114584858D01*
X84582432Y-114667650D01*
X84691609Y-114763131D01*
X84817156Y-114872591D01*
X84960453Y-114997319D01*
X84968644Y-115004445D01*
X85043331Y-115070800D01*
X85128803Y-115148992D01*
X85218190Y-115232595D01*
X85304625Y-115315184D01*
X85381238Y-115390333D01*
X85382702Y-115391795D01*
X85523431Y-115538061D01*
X85643201Y-115675502D01*
X85743640Y-115806908D01*
X85826376Y-115935070D01*
X85893040Y-116062779D01*
X85945259Y-116192826D01*
X85984663Y-116328001D01*
X86012880Y-116471096D01*
X86012974Y-116471700D01*
X86018300Y-116508645D01*
X86022748Y-116547106D01*
X86026397Y-116589679D01*
X86029322Y-116638960D01*
X86031600Y-116697544D01*
X86033308Y-116768028D01*
X86034521Y-116853005D01*
X86035316Y-116955073D01*
X86035770Y-117076827D01*
X86035958Y-117220863D01*
X86035971Y-117252750D01*
X86035825Y-117416900D01*
X86035179Y-117558079D01*
X86033869Y-117678711D01*
X86031732Y-117781223D01*
X86028605Y-117868041D01*
X86024325Y-117941589D01*
X86018728Y-118004295D01*
X86011651Y-118058583D01*
X86002931Y-118106880D01*
X85992404Y-118151611D01*
X85979908Y-118195202D01*
X85970578Y-118224300D01*
X85920704Y-118346959D01*
X85851016Y-118471596D01*
X85823183Y-118514117D01*
X85803122Y-118545500D01*
X85791605Y-118566988D01*
X85790450Y-118572537D01*
X85803735Y-118575239D01*
X85838613Y-118580889D01*
X85891519Y-118588950D01*
X85958889Y-118598885D01*
X86037155Y-118610156D01*
X86086950Y-118617209D01*
X86175159Y-118630103D01*
X86282244Y-118646525D01*
X86402084Y-118665492D01*
X86528558Y-118686017D01*
X86655545Y-118707117D01*
X86776925Y-118727806D01*
X86809204Y-118733414D01*
X86911049Y-118751105D01*
X87005300Y-118767312D01*
X87088944Y-118781529D01*
X87158970Y-118793251D01*
X87212364Y-118801973D01*
X87246115Y-118807189D01*
X87256879Y-118808500D01*
X87259261Y-118805482D01*
X87261425Y-118795689D01*
X87263379Y-118778015D01*
X87265135Y-118751350D01*
X87266701Y-118714588D01*
X87268088Y-118666620D01*
X87269306Y-118606339D01*
X87270365Y-118532637D01*
X87271275Y-118444407D01*
X87272045Y-118340540D01*
X87272686Y-118219929D01*
X87273209Y-118081466D01*
X87273622Y-117924043D01*
X87273935Y-117746553D01*
X87274160Y-117547888D01*
X87274305Y-117326939D01*
X87274382Y-117082601D01*
X87274400Y-116865717D01*
X87274399Y-114922935D01*
X87239475Y-114928555D01*
X87214623Y-114931980D01*
X87170079Y-114937571D01*
X87111392Y-114944651D01*
X87044110Y-114952544D01*
X87017429Y-114955617D01*
X86830308Y-114977059D01*
X86824019Y-115016354D01*
X86822203Y-115035488D01*
X86819033Y-115077785D01*
X86814650Y-115141054D01*
X86809195Y-115223103D01*
X86802809Y-115321739D01*
X86795633Y-115434769D01*
X86787809Y-115560003D01*
X86779477Y-115695248D01*
X86770780Y-115838311D01*
X86766289Y-115912900D01*
X86750713Y-116170873D01*
X86736423Y-116404156D01*
X86723372Y-116613423D01*
X86711512Y-116799350D01*
X86700796Y-116962610D01*
X86691176Y-117103880D01*
X86682604Y-117223833D01*
X86675033Y-117323144D01*
X86668416Y-117402489D01*
X86662706Y-117462541D01*
X86657854Y-117503975D01*
X86653813Y-117527467D01*
X86652345Y-117532150D01*
X86645420Y-117542514D01*
X86641646Y-117532182D01*
X86640136Y-117500400D01*
X86639043Y-117468102D01*
X86636669Y-117416288D01*
X86633306Y-117350791D01*
X86629250Y-117277446D01*
X86626701Y-117233700D01*
X86623495Y-117176270D01*
X86619224Y-117094005D01*
X86613912Y-116987448D01*
X86607586Y-116857140D01*
X86600270Y-116703623D01*
X86591990Y-116527439D01*
X86582771Y-116329129D01*
X86572638Y-116109237D01*
X86561618Y-115868302D01*
X86549735Y-115606869D01*
X86537015Y-115325477D01*
X86529683Y-115162667D01*
X86521358Y-114977584D01*
X86037454Y-114897106D01*
X85929623Y-114879007D01*
X85829660Y-114861911D01*
X85740339Y-114846315D01*
X85664432Y-114832718D01*
X85604710Y-114821618D01*
X85563948Y-114813512D01*
X85544917Y-114808900D01*
X85543955Y-114808434D01*
X85553098Y-114804489D01*
X85584883Y-114798091D01*
X85636709Y-114789595D01*
X85705975Y-114779353D01*
X85790077Y-114767720D01*
X85886415Y-114755049D01*
X85992386Y-114741693D01*
X86105388Y-114728005D01*
X86222821Y-114714340D01*
X86301395Y-114705516D01*
X86372313Y-114697393D01*
X86433998Y-114689801D01*
X86482202Y-114683305D01*
X86512680Y-114678471D01*
X86521404Y-114676228D01*
X86523232Y-114662830D01*
X86526348Y-114626522D01*
X86530589Y-114569756D01*
X86535787Y-114494981D01*
X86541779Y-114404647D01*
X86548397Y-114301204D01*
X86555477Y-114187101D01*
X86562853Y-114064788D01*
X86563892Y-114047283D01*
X86572341Y-113905259D01*
X86581313Y-113755574D01*
X86590499Y-113603279D01*
X86599593Y-113453428D01*
X86608287Y-113311074D01*
X86616275Y-113181268D01*
X86623250Y-113069063D01*
X86626458Y-113018025D01*
X86632758Y-112916915D01*
X86638497Y-112822153D01*
X86643477Y-112737197D01*
X86647503Y-112665505D01*
X86650377Y-112610536D01*
X86651903Y-112575747D01*
X86652100Y-112567074D01*
X86652100Y-112522000D01*
X86737069Y-112522000D01*
X86745366Y-112747425D01*
X86749288Y-112850501D01*
X86753996Y-112968365D01*
X86759358Y-113098147D01*
X86765244Y-113236980D01*
X86771523Y-113381996D01*
X86778063Y-113530325D01*
X86784735Y-113679101D01*
X86791407Y-113825454D01*
X86797950Y-113966516D01*
X86804231Y-114099420D01*
X86810120Y-114221296D01*
X86815487Y-114329278D01*
X86820200Y-114420496D01*
X86824129Y-114492082D01*
X86827144Y-114541168D01*
X86827153Y-114541300D01*
X86836250Y-114674650D01*
X87026750Y-114708245D01*
X87095426Y-114720119D01*
X87157051Y-114730334D01*
X87206437Y-114738063D01*
X87238399Y-114742479D01*
X87245825Y-114743170D01*
X87274400Y-114744500D01*
X87274400Y-112522000D01*
X86737069Y-112522000D01*
X86652100Y-112522000D01*
X86182200Y-112522000D01*
X86182200Y-111531400D01*
X89852500Y-111531400D01*
X89852500Y-112521724D01*
X88779350Y-112528350D01*
X88772952Y-119150408D01*
X88820601Y-119162879D01*
X88855431Y-119171859D01*
X88905526Y-119184608D01*
X88961507Y-119198743D01*
X88976200Y-119202433D01*
X89316891Y-119291528D01*
X89675247Y-119392077D01*
X90047022Y-119502683D01*
X90427970Y-119621948D01*
X90813847Y-119748478D01*
X91200406Y-119880874D01*
X91583403Y-120017741D01*
X91958593Y-120157681D01*
X92321730Y-120299297D01*
X92375211Y-120320724D01*
X92585554Y-120406577D01*
X92804766Y-120498433D01*
X93029547Y-120594790D01*
X93256595Y-120694148D01*
X93482612Y-120795007D01*
X93704296Y-120895868D01*
X93918346Y-120995229D01*
X94121463Y-121091591D01*
X94310346Y-121183453D01*
X94481694Y-121269316D01*
X94618294Y-121340279D01*
X94684659Y-121376237D01*
X94736403Y-121405788D01*
X94772021Y-121427905D01*
X94790012Y-121441561D01*
X94788873Y-121445729D01*
X94767101Y-121439382D01*
X94758600Y-121436165D01*
X94424475Y-121308747D01*
X94072445Y-121179115D01*
X93707345Y-121048884D01*
X93334010Y-120919669D01*
X92957276Y-120793085D01*
X92581976Y-120670746D01*
X92212946Y-120554268D01*
X91855021Y-120445264D01*
X91513035Y-120345351D01*
X91380951Y-120308059D01*
X90471390Y-120067197D01*
X89556365Y-119851089D01*
X88636292Y-119659780D01*
X87711583Y-119493314D01*
X86782652Y-119351734D01*
X85849913Y-119235084D01*
X84913780Y-119143408D01*
X83974666Y-119076749D01*
X83032984Y-119035153D01*
X82089149Y-119018661D01*
X81143574Y-119027319D01*
X80196672Y-119061171D01*
X79813150Y-119082043D01*
X78882166Y-119150226D01*
X77953084Y-119243228D01*
X77026974Y-119360865D01*
X76104905Y-119502956D01*
X75187945Y-119669316D01*
X74277165Y-119859763D01*
X73373632Y-120074114D01*
X72478417Y-120312184D01*
X72247035Y-120377980D01*
X71944846Y-120466962D01*
X71629767Y-120563288D01*
X71307108Y-120665203D01*
X70982178Y-120770952D01*
X70660286Y-120878777D01*
X70346741Y-120986924D01*
X70046854Y-121093636D01*
X69765932Y-121197157D01*
X69735700Y-121208545D01*
X69599566Y-121259682D01*
X69474132Y-121306280D01*
X69361102Y-121347735D01*
X69262183Y-121383440D01*
X69179079Y-121412791D01*
X69113495Y-121435183D01*
X69067136Y-121450011D01*
X69041707Y-121456670D01*
X69037200Y-121456426D01*
X69048343Y-121447384D01*
X69080324Y-121428660D01*
X69130966Y-121401319D01*
X69198092Y-121366428D01*
X69279527Y-121325054D01*
X69373095Y-121278265D01*
X69476619Y-121227126D01*
X69587924Y-121172704D01*
X69704833Y-121116066D01*
X69825170Y-121058280D01*
X69946759Y-121000410D01*
X70067424Y-120943526D01*
X70184990Y-120888692D01*
X70297279Y-120836976D01*
X70347520Y-120814092D01*
X70878055Y-120580179D01*
X71418417Y-120355109D01*
X71964984Y-120140162D01*
X72514134Y-119936619D01*
X73062247Y-119745760D01*
X73605700Y-119568866D01*
X74140872Y-119407217D01*
X74664142Y-119262092D01*
X74933175Y-119192873D01*
X75014655Y-119172157D01*
X75087237Y-119153050D01*
X75147507Y-119136505D01*
X75192052Y-119123474D01*
X75217457Y-119114911D01*
X75222100Y-119112257D01*
X75210990Y-119104503D01*
X75181423Y-119091196D01*
X75139046Y-119074800D01*
X75123675Y-119069294D01*
X75026071Y-119031224D01*
X74920121Y-118983557D01*
X74815096Y-118930836D01*
X74720269Y-118877608D01*
X74676000Y-118849880D01*
X74528165Y-118741701D01*
X74402997Y-118625601D01*
X74298238Y-118498555D01*
X74211630Y-118357540D01*
X74140917Y-118199532D01*
X74099981Y-118078250D01*
X74073334Y-117989350D01*
X74069698Y-114760374D01*
X74066062Y-111531399D01*
X74809181Y-111531399D01*
X75552300Y-111531400D01*
X75554285Y-112277525D01*
X75554499Y-112368917D01*
X75554719Y-112483935D01*
X75554945Y-112620808D01*
X75555173Y-112777760D01*
X75555403Y-112953019D01*
X75555632Y-113144812D01*
X75555859Y-113351364D01*
X75556082Y-113570904D01*
X75556299Y-113801657D01*
X75556509Y-114041850D01*
X75556709Y-114289710D01*
X75556898Y-114543464D01*
X75557075Y-114801338D01*
X75557237Y-115061559D01*
X75557383Y-115322354D01*
X75557460Y-115474750D01*
X75557633Y-115722614D01*
X75557905Y-115963803D01*
X75558271Y-116197077D01*
X75558724Y-116421199D01*
X75559258Y-116634931D01*
X75559869Y-116837036D01*
X75560550Y-117026276D01*
X75561295Y-117201412D01*
X75562099Y-117361207D01*
X75562955Y-117504423D01*
X75563858Y-117629822D01*
X75564803Y-117736167D01*
X75565783Y-117822219D01*
X75566793Y-117886742D01*
X75567826Y-117928496D01*
X75568878Y-117946244D01*
X75569012Y-117946716D01*
X75585368Y-117962354D01*
X75618051Y-117982926D01*
X75657912Y-118002995D01*
X75752410Y-118033935D01*
X75852628Y-118046197D01*
X75952569Y-118040199D01*
X76046234Y-118016359D01*
X76127625Y-117975096D01*
X76135294Y-117969713D01*
X76189619Y-117930360D01*
X76187178Y-116092955D01*
X76186878Y-115848239D01*
X76186609Y-115590963D01*
X76186373Y-115324351D01*
X76186170Y-115051627D01*
X76186003Y-114776016D01*
X76185871Y-114500743D01*
X76185777Y-114229031D01*
X76185721Y-113964105D01*
X76185704Y-113709191D01*
X76185728Y-113467512D01*
X76185795Y-113242292D01*
X76185904Y-113036756D01*
X76186018Y-112893475D01*
X76187300Y-111531400D01*
X77686406Y-111531400D01*
X77682345Y-114881025D01*
X77681941Y-115229265D01*
X77681590Y-115553045D01*
X77681269Y-115853304D01*
X77680957Y-116130982D01*
X77680632Y-116387018D01*
X77680271Y-116622353D01*
X77679853Y-116837924D01*
X77679355Y-117034673D01*
X77678756Y-117213539D01*
X77678034Y-117375461D01*
X77677167Y-117521378D01*
X77676133Y-117652231D01*
X77674909Y-117768959D01*
X77673474Y-117872501D01*
X77671806Y-117963798D01*
X77669882Y-118043787D01*
X77667682Y-118113411D01*
X77665182Y-118173607D01*
X77662361Y-118225315D01*
X77659198Y-118269475D01*
X77655669Y-118307026D01*
X77651753Y-118338909D01*
X77647428Y-118366062D01*
X77642672Y-118389426D01*
X77637463Y-118409939D01*
X77631779Y-118428541D01*
X77625598Y-118446172D01*
X77618899Y-118463772D01*
X77611658Y-118482279D01*
X77603854Y-118502635D01*
X77597194Y-118520874D01*
X77580568Y-118570282D01*
X77568871Y-118610190D01*
X77563657Y-118634986D01*
X77564110Y-118640143D01*
X77577928Y-118640141D01*
X77613736Y-118636839D01*
X77668394Y-118630618D01*
X77738760Y-118621861D01*
X77821693Y-118610949D01*
X77914051Y-118598265D01*
X77949102Y-118593324D01*
X78049352Y-118579297D01*
X78146022Y-118566145D01*
X78234964Y-118554402D01*
X78312033Y-118544606D01*
X78373082Y-118537291D01*
X78413966Y-118532994D01*
X78419325Y-118532546D01*
X78463962Y-118528126D01*
X78496653Y-118523035D01*
X78511105Y-118518287D01*
X78511316Y-118517741D01*
X78504756Y-118503129D01*
X78488727Y-118477123D01*
X78485244Y-118471950D01*
X78442639Y-118400869D01*
X78400932Y-118316352D01*
X78365470Y-118229969D01*
X78346273Y-118171226D01*
X78336640Y-118133058D01*
X78328270Y-118090843D01*
X78321081Y-118042657D01*
X78314989Y-117986580D01*
X78309911Y-117920688D01*
X78305765Y-117843058D01*
X78302467Y-117751767D01*
X78299934Y-117644894D01*
X78298084Y-117520516D01*
X78296833Y-117376709D01*
X78296099Y-117211551D01*
X78295798Y-117023121D01*
X78295788Y-117001925D01*
X78295500Y-116230400D01*
X79730600Y-116230400D01*
X79730600Y-117043607D01*
X79730690Y-117213759D01*
X79730985Y-117360246D01*
X79731521Y-117484803D01*
X79732331Y-117589163D01*
X79733451Y-117675062D01*
X79734917Y-117744234D01*
X79736763Y-117798413D01*
X79739024Y-117839334D01*
X79741737Y-117868731D01*
X79744935Y-117888339D01*
X79747923Y-117898275D01*
X79784964Y-117954629D01*
X79842859Y-117998124D01*
X79920196Y-118028129D01*
X80015565Y-118044010D01*
X80078146Y-118046500D01*
X80181305Y-118039466D01*
X80269378Y-118019009D01*
X80340181Y-117986092D01*
X80391524Y-117941681D01*
X80417812Y-117896735D01*
X80420044Y-117878422D01*
X80422117Y-117837289D01*
X80423986Y-117775917D01*
X80425609Y-117696886D01*
X80426943Y-117602778D01*
X80427945Y-117496171D01*
X80428570Y-117379647D01*
X80428776Y-117255786D01*
X80428772Y-117242398D01*
X80428670Y-117100201D01*
X80428462Y-116981027D01*
X80428052Y-116882497D01*
X80427344Y-116802233D01*
X80426240Y-116737859D01*
X80424644Y-116686996D01*
X80422460Y-116647266D01*
X80419592Y-116616291D01*
X80415943Y-116591694D01*
X80411416Y-116571097D01*
X80405915Y-116552123D01*
X80400051Y-116534465D01*
X80379633Y-116481027D01*
X80354404Y-116428046D01*
X80323039Y-116374117D01*
X80284212Y-116317839D01*
X80236598Y-116257807D01*
X80178871Y-116192617D01*
X80109706Y-116120868D01*
X80027776Y-116041155D01*
X79931756Y-115952075D01*
X79820321Y-115852224D01*
X79692145Y-115740200D01*
X79545902Y-115614598D01*
X79470674Y-115550582D01*
X79301614Y-115405248D01*
X79151965Y-115272502D01*
X79020153Y-115150616D01*
X78904608Y-115037863D01*
X78803755Y-114932518D01*
X78716023Y-114832852D01*
X78639840Y-114737140D01*
X78573633Y-114643653D01*
X78515830Y-114550666D01*
X78464859Y-114456452D01*
X78453411Y-114433350D01*
X78417926Y-114358855D01*
X78389184Y-114293238D01*
X78366355Y-114232359D01*
X78348610Y-114172083D01*
X78335121Y-114108271D01*
X78325059Y-114036786D01*
X78317594Y-113953489D01*
X78311899Y-113854245D01*
X78307143Y-113734914D01*
X78305848Y-113696750D01*
X78302877Y-113585667D01*
X78300601Y-113456595D01*
X78299076Y-113316935D01*
X78298359Y-113174088D01*
X78298506Y-113035457D01*
X78299574Y-112908444D01*
X78299734Y-112896650D01*
X78301968Y-112761723D01*
X78304866Y-112648865D01*
X78308933Y-112554742D01*
X78314676Y-112476023D01*
X78322602Y-112409376D01*
X78333218Y-112351470D01*
X78347031Y-112298972D01*
X78364546Y-112248551D01*
X78386271Y-112196874D01*
X78412712Y-112140611D01*
X78415613Y-112134650D01*
X78485464Y-112012666D01*
X78569690Y-111905350D01*
X78670250Y-111811165D01*
X78789101Y-111728575D01*
X78928197Y-111656042D01*
X79089497Y-111592030D01*
X79119459Y-111581820D01*
X79254430Y-111541739D01*
X79395809Y-111509849D01*
X79546814Y-111485796D01*
X79710661Y-111469224D01*
X79890566Y-111459781D01*
X80089746Y-111457110D01*
X80234861Y-111458918D01*
D10*
X114643357Y-104661857D02*
X114607643Y-104697571D01*
X114500500Y-104733286D01*
X114429071Y-104733286D01*
X114321928Y-104697571D01*
X114250500Y-104626143D01*
X114214785Y-104554714D01*
X114179071Y-104411857D01*
X114179071Y-104304714D01*
X114214785Y-104161857D01*
X114250500Y-104090429D01*
X114321928Y-104019000D01*
X114429071Y-103983286D01*
X114500500Y-103983286D01*
X114607643Y-104019000D01*
X114643357Y-104054714D01*
X114893357Y-103983286D02*
X115357643Y-103983286D01*
X115107643Y-104269000D01*
X115214785Y-104269000D01*
X115286214Y-104304714D01*
X115321928Y-104340429D01*
X115357643Y-104411857D01*
X115357643Y-104590429D01*
X115321928Y-104661857D01*
X115286214Y-104697571D01*
X115214785Y-104733286D01*
X115000500Y-104733286D01*
X114929071Y-104697571D01*
X114893357Y-104661857D01*
X116000500Y-104233286D02*
X116000500Y-104733286D01*
X115821929Y-103947571D02*
X115643357Y-104483286D01*
X116107643Y-104483286D01*
D13*
X100012500Y-131590143D02*
X99976214Y-131626429D01*
X99867357Y-131662714D01*
X99794786Y-131662714D01*
X99685929Y-131626429D01*
X99613357Y-131553857D01*
X99577072Y-131481286D01*
X99540786Y-131336143D01*
X99540786Y-131227286D01*
X99577072Y-131082143D01*
X99613357Y-131009571D01*
X99685929Y-130937000D01*
X99794786Y-130900714D01*
X99867357Y-130900714D01*
X99976214Y-130937000D01*
X100012500Y-130973286D01*
X100738214Y-131662714D02*
X100302786Y-131662714D01*
X100520500Y-131662714D02*
X100520500Y-130900714D01*
X100447929Y-131009571D01*
X100375357Y-131082143D01*
X100302786Y-131118429D01*
D10*
X110767834Y-120308643D02*
X110720215Y-120356262D01*
X110577358Y-120403881D01*
X110482120Y-120403881D01*
X110339262Y-120356262D01*
X110244024Y-120261024D01*
X110196405Y-120165786D01*
X110148786Y-119975310D01*
X110148786Y-119832452D01*
X110196405Y-119641976D01*
X110244024Y-119546738D01*
X110339262Y-119451500D01*
X110482120Y-119403881D01*
X110577358Y-119403881D01*
X110720215Y-119451500D01*
X110767834Y-119499119D01*
X111148786Y-119499119D02*
X111196405Y-119451500D01*
X111291643Y-119403881D01*
X111529739Y-119403881D01*
X111624977Y-119451500D01*
X111672596Y-119499119D01*
X111720215Y-119594357D01*
X111720215Y-119689595D01*
X111672596Y-119832452D01*
X111101167Y-120403881D01*
X111720215Y-120403881D01*
X131510500Y-138697857D02*
X131474786Y-138733571D01*
X131367643Y-138769286D01*
X131296214Y-138769286D01*
X131189071Y-138733571D01*
X131117643Y-138662143D01*
X131081928Y-138590714D01*
X131046214Y-138447857D01*
X131046214Y-138340714D01*
X131081928Y-138197857D01*
X131117643Y-138126429D01*
X131189071Y-138055000D01*
X131296214Y-138019286D01*
X131367643Y-138019286D01*
X131474786Y-138055000D01*
X131510500Y-138090714D01*
X132153357Y-138269286D02*
X132153357Y-138769286D01*
X131974786Y-137983571D02*
X131796214Y-138519286D01*
X132260500Y-138519286D01*
X129351500Y-138697857D02*
X129315786Y-138733571D01*
X129208643Y-138769286D01*
X129137214Y-138769286D01*
X129030071Y-138733571D01*
X128958643Y-138662143D01*
X128922928Y-138590714D01*
X128887214Y-138447857D01*
X128887214Y-138340714D01*
X128922928Y-138197857D01*
X128958643Y-138126429D01*
X129030071Y-138055000D01*
X129137214Y-138019286D01*
X129208643Y-138019286D01*
X129315786Y-138055000D01*
X129351500Y-138090714D01*
X130030071Y-138019286D02*
X129672928Y-138019286D01*
X129637214Y-138376429D01*
X129672928Y-138340714D01*
X129744357Y-138305000D01*
X129922928Y-138305000D01*
X129994357Y-138340714D01*
X130030071Y-138376429D01*
X130065786Y-138447857D01*
X130065786Y-138626429D01*
X130030071Y-138697857D01*
X129994357Y-138733571D01*
X129922928Y-138769286D01*
X129744357Y-138769286D01*
X129672928Y-138733571D01*
X129637214Y-138697857D01*
X127002000Y-138697857D02*
X126966286Y-138733571D01*
X126859143Y-138769286D01*
X126787714Y-138769286D01*
X126680571Y-138733571D01*
X126609143Y-138662143D01*
X126573428Y-138590714D01*
X126537714Y-138447857D01*
X126537714Y-138340714D01*
X126573428Y-138197857D01*
X126609143Y-138126429D01*
X126680571Y-138055000D01*
X126787714Y-138019286D01*
X126859143Y-138019286D01*
X126966286Y-138055000D01*
X127002000Y-138090714D01*
X127644857Y-138019286D02*
X127502000Y-138019286D01*
X127430571Y-138055000D01*
X127394857Y-138090714D01*
X127323428Y-138197857D01*
X127287714Y-138340714D01*
X127287714Y-138626429D01*
X127323428Y-138697857D01*
X127359143Y-138733571D01*
X127430571Y-138769286D01*
X127573428Y-138769286D01*
X127644857Y-138733571D01*
X127680571Y-138697857D01*
X127716286Y-138626429D01*
X127716286Y-138447857D01*
X127680571Y-138376429D01*
X127644857Y-138340714D01*
X127573428Y-138305000D01*
X127430571Y-138305000D01*
X127359143Y-138340714D01*
X127323428Y-138376429D01*
X127287714Y-138447857D01*
X124462000Y-138824857D02*
X124426286Y-138860571D01*
X124319143Y-138896286D01*
X124247714Y-138896286D01*
X124140571Y-138860571D01*
X124069143Y-138789143D01*
X124033428Y-138717714D01*
X123997714Y-138574857D01*
X123997714Y-138467714D01*
X124033428Y-138324857D01*
X124069143Y-138253429D01*
X124140571Y-138182000D01*
X124247714Y-138146286D01*
X124319143Y-138146286D01*
X124426286Y-138182000D01*
X124462000Y-138217714D01*
X124712000Y-138146286D02*
X125212000Y-138146286D01*
X124890571Y-138896286D01*
D13*
X99885500Y-128542143D02*
X99849214Y-128578429D01*
X99740357Y-128614714D01*
X99667786Y-128614714D01*
X99558929Y-128578429D01*
X99486357Y-128505857D01*
X99450072Y-128433286D01*
X99413786Y-128288143D01*
X99413786Y-128179286D01*
X99450072Y-128034143D01*
X99486357Y-127961571D01*
X99558929Y-127889000D01*
X99667786Y-127852714D01*
X99740357Y-127852714D01*
X99849214Y-127889000D01*
X99885500Y-127925286D01*
X100248357Y-128614714D02*
X100393500Y-128614714D01*
X100466072Y-128578429D01*
X100502357Y-128542143D01*
X100574929Y-128433286D01*
X100611214Y-128288143D01*
X100611214Y-127997857D01*
X100574929Y-127925286D01*
X100538643Y-127889000D01*
X100466072Y-127852714D01*
X100320929Y-127852714D01*
X100248357Y-127889000D01*
X100212072Y-127925286D01*
X100175786Y-127997857D01*
X100175786Y-128179286D01*
X100212072Y-128251857D01*
X100248357Y-128288143D01*
X100320929Y-128324429D01*
X100466072Y-128324429D01*
X100538643Y-128288143D01*
X100574929Y-128251857D01*
X100611214Y-128179286D01*
D10*
X110291643Y-122150143D02*
X110244024Y-122197762D01*
X110101167Y-122245381D01*
X110005929Y-122245381D01*
X109863071Y-122197762D01*
X109767833Y-122102524D01*
X109720214Y-122007286D01*
X109672595Y-121816810D01*
X109672595Y-121673952D01*
X109720214Y-121483476D01*
X109767833Y-121388238D01*
X109863071Y-121293000D01*
X110005929Y-121245381D01*
X110101167Y-121245381D01*
X110244024Y-121293000D01*
X110291643Y-121340619D01*
X111244024Y-122245381D02*
X110672595Y-122245381D01*
X110958309Y-122245381D02*
X110958309Y-121245381D01*
X110863071Y-121388238D01*
X110767833Y-121483476D01*
X110672595Y-121531095D01*
X112101167Y-121578714D02*
X112101167Y-122245381D01*
X111863071Y-121197762D02*
X111624976Y-121912048D01*
X112244024Y-121912048D01*
X133046357Y-130530143D02*
X133082071Y-130565857D01*
X133117786Y-130673000D01*
X133117786Y-130744429D01*
X133082071Y-130851572D01*
X133010643Y-130923000D01*
X132939214Y-130958715D01*
X132796357Y-130994429D01*
X132689214Y-130994429D01*
X132546357Y-130958715D01*
X132474929Y-130923000D01*
X132403500Y-130851572D01*
X132367786Y-130744429D01*
X132367786Y-130673000D01*
X132403500Y-130565857D01*
X132439214Y-130530143D01*
X133117786Y-129815857D02*
X133117786Y-130244429D01*
X133117786Y-130030143D02*
X132367786Y-130030143D01*
X132474929Y-130101572D01*
X132546357Y-130173000D01*
X132582071Y-130244429D01*
X132367786Y-129137286D02*
X132367786Y-129494429D01*
X132724929Y-129530143D01*
X132689214Y-129494429D01*
X132653500Y-129423000D01*
X132653500Y-129244429D01*
X132689214Y-129173000D01*
X132724929Y-129137286D01*
X132796357Y-129101571D01*
X132974929Y-129101571D01*
X133046357Y-129137286D01*
X133082071Y-129173000D01*
X133117786Y-129244429D01*
X133117786Y-129423000D01*
X133082071Y-129494429D01*
X133046357Y-129530143D01*
X122293143Y-116562143D02*
X122245524Y-116609762D01*
X122102667Y-116657381D01*
X122007429Y-116657381D01*
X121864571Y-116609762D01*
X121769333Y-116514524D01*
X121721714Y-116419286D01*
X121674095Y-116228810D01*
X121674095Y-116085952D01*
X121721714Y-115895476D01*
X121769333Y-115800238D01*
X121864571Y-115705000D01*
X122007429Y-115657381D01*
X122102667Y-115657381D01*
X122245524Y-115705000D01*
X122293143Y-115752619D01*
X123245524Y-116657381D02*
X122674095Y-116657381D01*
X122959809Y-116657381D02*
X122959809Y-115657381D01*
X122864571Y-115800238D01*
X122769333Y-115895476D01*
X122674095Y-115943095D01*
X124102667Y-115657381D02*
X123912190Y-115657381D01*
X123816952Y-115705000D01*
X123769333Y-115752619D01*
X123674095Y-115895476D01*
X123626476Y-116085952D01*
X123626476Y-116466905D01*
X123674095Y-116562143D01*
X123721714Y-116609762D01*
X123816952Y-116657381D01*
X124007429Y-116657381D01*
X124102667Y-116609762D01*
X124150286Y-116562143D01*
X124197905Y-116466905D01*
X124197905Y-116228810D01*
X124150286Y-116133571D01*
X124102667Y-116085952D01*
X124007429Y-116038333D01*
X123816952Y-116038333D01*
X123721714Y-116085952D01*
X123674095Y-116133571D01*
X123626476Y-116228810D01*
X118276643Y-134564357D02*
X118324262Y-134611976D01*
X118371881Y-134754833D01*
X118371881Y-134850071D01*
X118324262Y-134992929D01*
X118229024Y-135088167D01*
X118133786Y-135135786D01*
X117943310Y-135183405D01*
X117800452Y-135183405D01*
X117609976Y-135135786D01*
X117514738Y-135088167D01*
X117419500Y-134992929D01*
X117371881Y-134850071D01*
X117371881Y-134754833D01*
X117419500Y-134611976D01*
X117467119Y-134564357D01*
X118371881Y-133611976D02*
X118371881Y-134183405D01*
X118371881Y-133897691D02*
X117371881Y-133897691D01*
X117514738Y-133992929D01*
X117609976Y-134088167D01*
X117657595Y-134183405D01*
X117371881Y-133278643D02*
X117371881Y-132611976D01*
X118371881Y-133040548D01*
X115087857Y-114440857D02*
X115052143Y-114476571D01*
X114945000Y-114512286D01*
X114873571Y-114512286D01*
X114766428Y-114476571D01*
X114695000Y-114405143D01*
X114659285Y-114333714D01*
X114623571Y-114190857D01*
X114623571Y-114083714D01*
X114659285Y-113940857D01*
X114695000Y-113869429D01*
X114766428Y-113798000D01*
X114873571Y-113762286D01*
X114945000Y-113762286D01*
X115052143Y-113798000D01*
X115087857Y-113833714D01*
X115373571Y-113833714D02*
X115409285Y-113798000D01*
X115480714Y-113762286D01*
X115659285Y-113762286D01*
X115730714Y-113798000D01*
X115766428Y-113833714D01*
X115802143Y-113905143D01*
X115802143Y-113976571D01*
X115766428Y-114083714D01*
X115337857Y-114512286D01*
X115802143Y-114512286D01*
X116266429Y-113762286D02*
X116337857Y-113762286D01*
X116409286Y-113798000D01*
X116445000Y-113833714D01*
X116480714Y-113905143D01*
X116516429Y-114048000D01*
X116516429Y-114226571D01*
X116480714Y-114369429D01*
X116445000Y-114440857D01*
X116409286Y-114476571D01*
X116337857Y-114512286D01*
X116266429Y-114512286D01*
X116195000Y-114476571D01*
X116159286Y-114440857D01*
X116123571Y-114369429D01*
X116087857Y-114226571D01*
X116087857Y-114048000D01*
X116123571Y-113905143D01*
X116159286Y-113833714D01*
X116195000Y-113798000D01*
X116266429Y-113762286D01*
X117310357Y-110376857D02*
X117274643Y-110412571D01*
X117167500Y-110448286D01*
X117096071Y-110448286D01*
X116988928Y-110412571D01*
X116917500Y-110341143D01*
X116881785Y-110269714D01*
X116846071Y-110126857D01*
X116846071Y-110019714D01*
X116881785Y-109876857D01*
X116917500Y-109805429D01*
X116988928Y-109734000D01*
X117096071Y-109698286D01*
X117167500Y-109698286D01*
X117274643Y-109734000D01*
X117310357Y-109769714D01*
X117596071Y-109769714D02*
X117631785Y-109734000D01*
X117703214Y-109698286D01*
X117881785Y-109698286D01*
X117953214Y-109734000D01*
X117988928Y-109769714D01*
X118024643Y-109841143D01*
X118024643Y-109912571D01*
X117988928Y-110019714D01*
X117560357Y-110448286D01*
X118024643Y-110448286D01*
X118310357Y-109769714D02*
X118346071Y-109734000D01*
X118417500Y-109698286D01*
X118596071Y-109698286D01*
X118667500Y-109734000D01*
X118703214Y-109769714D01*
X118738929Y-109841143D01*
X118738929Y-109912571D01*
X118703214Y-110019714D01*
X118274643Y-110448286D01*
X118738929Y-110448286D01*
X112611357Y-113615357D02*
X112575643Y-113651071D01*
X112468500Y-113686786D01*
X112397071Y-113686786D01*
X112289928Y-113651071D01*
X112218500Y-113579643D01*
X112182785Y-113508214D01*
X112147071Y-113365357D01*
X112147071Y-113258214D01*
X112182785Y-113115357D01*
X112218500Y-113043929D01*
X112289928Y-112972500D01*
X112397071Y-112936786D01*
X112468500Y-112936786D01*
X112575643Y-112972500D01*
X112611357Y-113008214D01*
X112897071Y-113008214D02*
X112932785Y-112972500D01*
X113004214Y-112936786D01*
X113182785Y-112936786D01*
X113254214Y-112972500D01*
X113289928Y-113008214D01*
X113325643Y-113079643D01*
X113325643Y-113151071D01*
X113289928Y-113258214D01*
X112861357Y-113686786D01*
X113325643Y-113686786D01*
X113575643Y-112936786D02*
X114039929Y-112936786D01*
X113789929Y-113222500D01*
X113897071Y-113222500D01*
X113968500Y-113258214D01*
X114004214Y-113293929D01*
X114039929Y-113365357D01*
X114039929Y-113543929D01*
X114004214Y-113615357D01*
X113968500Y-113651071D01*
X113897071Y-113686786D01*
X113682786Y-113686786D01*
X113611357Y-113651071D01*
X113575643Y-113615357D01*
X119088357Y-114758357D02*
X119052643Y-114794071D01*
X118945500Y-114829786D01*
X118874071Y-114829786D01*
X118766928Y-114794071D01*
X118695500Y-114722643D01*
X118659785Y-114651214D01*
X118624071Y-114508357D01*
X118624071Y-114401214D01*
X118659785Y-114258357D01*
X118695500Y-114186929D01*
X118766928Y-114115500D01*
X118874071Y-114079786D01*
X118945500Y-114079786D01*
X119052643Y-114115500D01*
X119088357Y-114151214D01*
X119374071Y-114151214D02*
X119409785Y-114115500D01*
X119481214Y-114079786D01*
X119659785Y-114079786D01*
X119731214Y-114115500D01*
X119766928Y-114151214D01*
X119802643Y-114222643D01*
X119802643Y-114294071D01*
X119766928Y-114401214D01*
X119338357Y-114829786D01*
X119802643Y-114829786D01*
X120445500Y-114079786D02*
X120302643Y-114079786D01*
X120231214Y-114115500D01*
X120195500Y-114151214D01*
X120124071Y-114258357D01*
X120088357Y-114401214D01*
X120088357Y-114686929D01*
X120124071Y-114758357D01*
X120159786Y-114794071D01*
X120231214Y-114829786D01*
X120374071Y-114829786D01*
X120445500Y-114794071D01*
X120481214Y-114758357D01*
X120516929Y-114686929D01*
X120516929Y-114508357D01*
X120481214Y-114436929D01*
X120445500Y-114401214D01*
X120374071Y-114365500D01*
X120231214Y-114365500D01*
X120159786Y-114401214D01*
X120124071Y-114436929D01*
X120088357Y-114508357D01*
X125003257Y-106249357D02*
X124967543Y-106285071D01*
X124860400Y-106320786D01*
X124788971Y-106320786D01*
X124681828Y-106285071D01*
X124610400Y-106213643D01*
X124574685Y-106142214D01*
X124538971Y-105999357D01*
X124538971Y-105892214D01*
X124574685Y-105749357D01*
X124610400Y-105677929D01*
X124681828Y-105606500D01*
X124788971Y-105570786D01*
X124860400Y-105570786D01*
X124967543Y-105606500D01*
X125003257Y-105642214D01*
X125288971Y-105642214D02*
X125324685Y-105606500D01*
X125396114Y-105570786D01*
X125574685Y-105570786D01*
X125646114Y-105606500D01*
X125681828Y-105642214D01*
X125717543Y-105713643D01*
X125717543Y-105785071D01*
X125681828Y-105892214D01*
X125253257Y-106320786D01*
X125717543Y-106320786D01*
X126146114Y-105892214D02*
X126074686Y-105856500D01*
X126038971Y-105820786D01*
X126003257Y-105749357D01*
X126003257Y-105713643D01*
X126038971Y-105642214D01*
X126074686Y-105606500D01*
X126146114Y-105570786D01*
X126288971Y-105570786D01*
X126360400Y-105606500D01*
X126396114Y-105642214D01*
X126431829Y-105713643D01*
X126431829Y-105749357D01*
X126396114Y-105820786D01*
X126360400Y-105856500D01*
X126288971Y-105892214D01*
X126146114Y-105892214D01*
X126074686Y-105927929D01*
X126038971Y-105963643D01*
X126003257Y-106035071D01*
X126003257Y-106177929D01*
X126038971Y-106249357D01*
X126074686Y-106285071D01*
X126146114Y-106320786D01*
X126288971Y-106320786D01*
X126360400Y-106285071D01*
X126396114Y-106249357D01*
X126431829Y-106177929D01*
X126431829Y-106035071D01*
X126396114Y-105963643D01*
X126360400Y-105927929D01*
X126288971Y-105892214D01*
X121082257Y-106185857D02*
X121046543Y-106221571D01*
X120939400Y-106257286D01*
X120867971Y-106257286D01*
X120760828Y-106221571D01*
X120689400Y-106150143D01*
X120653685Y-106078714D01*
X120617971Y-105935857D01*
X120617971Y-105828714D01*
X120653685Y-105685857D01*
X120689400Y-105614429D01*
X120760828Y-105543000D01*
X120867971Y-105507286D01*
X120939400Y-105507286D01*
X121046543Y-105543000D01*
X121082257Y-105578714D01*
X121367971Y-105578714D02*
X121403685Y-105543000D01*
X121475114Y-105507286D01*
X121653685Y-105507286D01*
X121725114Y-105543000D01*
X121760828Y-105578714D01*
X121796543Y-105650143D01*
X121796543Y-105721571D01*
X121760828Y-105828714D01*
X121332257Y-106257286D01*
X121796543Y-106257286D01*
X122153686Y-106257286D02*
X122296543Y-106257286D01*
X122367971Y-106221571D01*
X122403686Y-106185857D01*
X122475114Y-106078714D01*
X122510829Y-105935857D01*
X122510829Y-105650143D01*
X122475114Y-105578714D01*
X122439400Y-105543000D01*
X122367971Y-105507286D01*
X122225114Y-105507286D01*
X122153686Y-105543000D01*
X122117971Y-105578714D01*
X122082257Y-105650143D01*
X122082257Y-105828714D01*
X122117971Y-105900143D01*
X122153686Y-105935857D01*
X122225114Y-105971571D01*
X122367971Y-105971571D01*
X122439400Y-105935857D01*
X122475114Y-105900143D01*
X122510829Y-105828714D01*
X119024857Y-104915857D02*
X118989143Y-104951571D01*
X118882000Y-104987286D01*
X118810571Y-104987286D01*
X118703428Y-104951571D01*
X118632000Y-104880143D01*
X118596285Y-104808714D01*
X118560571Y-104665857D01*
X118560571Y-104558714D01*
X118596285Y-104415857D01*
X118632000Y-104344429D01*
X118703428Y-104273000D01*
X118810571Y-104237286D01*
X118882000Y-104237286D01*
X118989143Y-104273000D01*
X119024857Y-104308714D01*
X119274857Y-104237286D02*
X119739143Y-104237286D01*
X119489143Y-104523000D01*
X119596285Y-104523000D01*
X119667714Y-104558714D01*
X119703428Y-104594429D01*
X119739143Y-104665857D01*
X119739143Y-104844429D01*
X119703428Y-104915857D01*
X119667714Y-104951571D01*
X119596285Y-104987286D01*
X119382000Y-104987286D01*
X119310571Y-104951571D01*
X119274857Y-104915857D01*
X120203429Y-104237286D02*
X120274857Y-104237286D01*
X120346286Y-104273000D01*
X120382000Y-104308714D01*
X120417714Y-104380143D01*
X120453429Y-104523000D01*
X120453429Y-104701571D01*
X120417714Y-104844429D01*
X120382000Y-104915857D01*
X120346286Y-104951571D01*
X120274857Y-104987286D01*
X120203429Y-104987286D01*
X120132000Y-104951571D01*
X120096286Y-104915857D01*
X120060571Y-104844429D01*
X120024857Y-104701571D01*
X120024857Y-104523000D01*
X120060571Y-104380143D01*
X120096286Y-104308714D01*
X120132000Y-104273000D01*
X120203429Y-104237286D01*
X136834643Y-122594643D02*
X136787024Y-122642262D01*
X136644167Y-122689881D01*
X136548929Y-122689881D01*
X136406071Y-122642262D01*
X136310833Y-122547024D01*
X136263214Y-122451786D01*
X136215595Y-122261310D01*
X136215595Y-122118452D01*
X136263214Y-121927976D01*
X136310833Y-121832738D01*
X136406071Y-121737500D01*
X136548929Y-121689881D01*
X136644167Y-121689881D01*
X136787024Y-121737500D01*
X136834643Y-121785119D01*
X137167976Y-121689881D02*
X137787024Y-121689881D01*
X137453690Y-122070833D01*
X137596548Y-122070833D01*
X137691786Y-122118452D01*
X137739405Y-122166071D01*
X137787024Y-122261310D01*
X137787024Y-122499405D01*
X137739405Y-122594643D01*
X137691786Y-122642262D01*
X137596548Y-122689881D01*
X137310833Y-122689881D01*
X137215595Y-122642262D01*
X137167976Y-122594643D01*
X138739405Y-122689881D02*
X138167976Y-122689881D01*
X138453690Y-122689881D02*
X138453690Y-121689881D01*
X138358452Y-121832738D01*
X138263214Y-121927976D01*
X138167976Y-121975595D01*
X136834643Y-120435643D02*
X136787024Y-120483262D01*
X136644167Y-120530881D01*
X136548929Y-120530881D01*
X136406071Y-120483262D01*
X136310833Y-120388024D01*
X136263214Y-120292786D01*
X136215595Y-120102310D01*
X136215595Y-119959452D01*
X136263214Y-119768976D01*
X136310833Y-119673738D01*
X136406071Y-119578500D01*
X136548929Y-119530881D01*
X136644167Y-119530881D01*
X136787024Y-119578500D01*
X136834643Y-119626119D01*
X137167976Y-119530881D02*
X137787024Y-119530881D01*
X137453690Y-119911833D01*
X137596548Y-119911833D01*
X137691786Y-119959452D01*
X137739405Y-120007071D01*
X137787024Y-120102310D01*
X137787024Y-120340405D01*
X137739405Y-120435643D01*
X137691786Y-120483262D01*
X137596548Y-120530881D01*
X137310833Y-120530881D01*
X137215595Y-120483262D01*
X137167976Y-120435643D01*
X138691786Y-119530881D02*
X138215595Y-119530881D01*
X138167976Y-120007071D01*
X138215595Y-119959452D01*
X138310833Y-119911833D01*
X138548929Y-119911833D01*
X138644167Y-119959452D01*
X138691786Y-120007071D01*
X138739405Y-120102310D01*
X138739405Y-120340405D01*
X138691786Y-120435643D01*
X138644167Y-120483262D01*
X138548929Y-120530881D01*
X138310833Y-120530881D01*
X138215595Y-120483262D01*
X138167976Y-120435643D01*
X113055857Y-107328857D02*
X113020143Y-107364571D01*
X112913000Y-107400286D01*
X112841571Y-107400286D01*
X112734428Y-107364571D01*
X112663000Y-107293143D01*
X112627285Y-107221714D01*
X112591571Y-107078857D01*
X112591571Y-106971714D01*
X112627285Y-106828857D01*
X112663000Y-106757429D01*
X112734428Y-106686000D01*
X112841571Y-106650286D01*
X112913000Y-106650286D01*
X113020143Y-106686000D01*
X113055857Y-106721714D01*
X113305857Y-106650286D02*
X113770143Y-106650286D01*
X113520143Y-106936000D01*
X113627285Y-106936000D01*
X113698714Y-106971714D01*
X113734428Y-107007429D01*
X113770143Y-107078857D01*
X113770143Y-107257429D01*
X113734428Y-107328857D01*
X113698714Y-107364571D01*
X113627285Y-107400286D01*
X113413000Y-107400286D01*
X113341571Y-107364571D01*
X113305857Y-107328857D01*
X114413000Y-106650286D02*
X114270143Y-106650286D01*
X114198714Y-106686000D01*
X114163000Y-106721714D01*
X114091571Y-106828857D01*
X114055857Y-106971714D01*
X114055857Y-107257429D01*
X114091571Y-107328857D01*
X114127286Y-107364571D01*
X114198714Y-107400286D01*
X114341571Y-107400286D01*
X114413000Y-107364571D01*
X114448714Y-107328857D01*
X114484429Y-107257429D01*
X114484429Y-107078857D01*
X114448714Y-107007429D01*
X114413000Y-106971714D01*
X114341571Y-106936000D01*
X114198714Y-106936000D01*
X114127286Y-106971714D01*
X114091571Y-107007429D01*
X114055857Y-107078857D01*
D17*
X103657857Y-135903857D02*
X103622143Y-135939571D01*
X103515000Y-135975286D01*
X103443571Y-135975286D01*
X103336428Y-135939571D01*
X103265000Y-135868143D01*
X103229285Y-135796714D01*
X103193571Y-135653857D01*
X103193571Y-135546714D01*
X103229285Y-135403857D01*
X103265000Y-135332429D01*
X103336428Y-135261000D01*
X103443571Y-135225286D01*
X103515000Y-135225286D01*
X103622143Y-135261000D01*
X103657857Y-135296714D01*
X103907857Y-135225286D02*
X104372143Y-135225286D01*
X104122143Y-135511000D01*
X104229285Y-135511000D01*
X104300714Y-135546714D01*
X104336428Y-135582429D01*
X104372143Y-135653857D01*
X104372143Y-135832429D01*
X104336428Y-135903857D01*
X104300714Y-135939571D01*
X104229285Y-135975286D01*
X104015000Y-135975286D01*
X103943571Y-135939571D01*
X103907857Y-135903857D01*
X104622143Y-135225286D02*
X105122143Y-135225286D01*
X104800714Y-135975286D01*
D10*
X132982857Y-126529643D02*
X133018571Y-126565357D01*
X133054286Y-126672500D01*
X133054286Y-126743929D01*
X133018571Y-126851072D01*
X132947143Y-126922500D01*
X132875714Y-126958215D01*
X132732857Y-126993929D01*
X132625714Y-126993929D01*
X132482857Y-126958215D01*
X132411429Y-126922500D01*
X132340000Y-126851072D01*
X132304286Y-126743929D01*
X132304286Y-126672500D01*
X132340000Y-126565357D01*
X132375714Y-126529643D01*
X132304286Y-126279643D02*
X132304286Y-125815357D01*
X132590000Y-126065357D01*
X132590000Y-125958215D01*
X132625714Y-125886786D01*
X132661429Y-125851072D01*
X132732857Y-125815357D01*
X132911429Y-125815357D01*
X132982857Y-125851072D01*
X133018571Y-125886786D01*
X133054286Y-125958215D01*
X133054286Y-126172500D01*
X133018571Y-126243929D01*
X132982857Y-126279643D01*
X132625714Y-125386786D02*
X132590000Y-125458214D01*
X132554286Y-125493929D01*
X132482857Y-125529643D01*
X132447143Y-125529643D01*
X132375714Y-125493929D01*
X132340000Y-125458214D01*
X132304286Y-125386786D01*
X132304286Y-125243929D01*
X132340000Y-125172500D01*
X132375714Y-125136786D01*
X132447143Y-125101071D01*
X132482857Y-125101071D01*
X132554286Y-125136786D01*
X132590000Y-125172500D01*
X132625714Y-125243929D01*
X132625714Y-125386786D01*
X132661429Y-125458214D01*
X132697143Y-125493929D01*
X132768571Y-125529643D01*
X132911429Y-125529643D01*
X132982857Y-125493929D01*
X133018571Y-125458214D01*
X133054286Y-125386786D01*
X133054286Y-125243929D01*
X133018571Y-125172500D01*
X132982857Y-125136786D01*
X132911429Y-125101071D01*
X132768571Y-125101071D01*
X132697143Y-125136786D01*
X132661429Y-125172500D01*
X132625714Y-125243929D01*
X125404643Y-116562143D02*
X125357024Y-116609762D01*
X125214167Y-116657381D01*
X125118929Y-116657381D01*
X124976071Y-116609762D01*
X124880833Y-116514524D01*
X124833214Y-116419286D01*
X124785595Y-116228810D01*
X124785595Y-116085952D01*
X124833214Y-115895476D01*
X124880833Y-115800238D01*
X124976071Y-115705000D01*
X125118929Y-115657381D01*
X125214167Y-115657381D01*
X125357024Y-115705000D01*
X125404643Y-115752619D01*
X126261786Y-115990714D02*
X126261786Y-116657381D01*
X126023690Y-115609762D02*
X125785595Y-116324048D01*
X126404643Y-116324048D01*
X127309405Y-116657381D02*
X126737976Y-116657381D01*
X127023690Y-116657381D02*
X127023690Y-115657381D01*
X126928452Y-115800238D01*
X126833214Y-115895476D01*
X126737976Y-115943095D01*
X120294857Y-109678357D02*
X120259143Y-109714071D01*
X120152000Y-109749786D01*
X120080571Y-109749786D01*
X119973428Y-109714071D01*
X119902000Y-109642643D01*
X119866285Y-109571214D01*
X119830571Y-109428357D01*
X119830571Y-109321214D01*
X119866285Y-109178357D01*
X119902000Y-109106929D01*
X119973428Y-109035500D01*
X120080571Y-108999786D01*
X120152000Y-108999786D01*
X120259143Y-109035500D01*
X120294857Y-109071214D01*
X120973428Y-108999786D02*
X120616285Y-108999786D01*
X120580571Y-109356929D01*
X120616285Y-109321214D01*
X120687714Y-109285500D01*
X120866285Y-109285500D01*
X120937714Y-109321214D01*
X120973428Y-109356929D01*
X121009143Y-109428357D01*
X121009143Y-109606929D01*
X120973428Y-109678357D01*
X120937714Y-109714071D01*
X120866285Y-109749786D01*
X120687714Y-109749786D01*
X120616285Y-109714071D01*
X120580571Y-109678357D01*
X121294857Y-109071214D02*
X121330571Y-109035500D01*
X121402000Y-108999786D01*
X121580571Y-108999786D01*
X121652000Y-109035500D01*
X121687714Y-109071214D01*
X121723429Y-109142643D01*
X121723429Y-109214071D01*
X121687714Y-109321214D01*
X121259143Y-109749786D01*
X121723429Y-109749786D01*
X111212405Y-131135381D02*
X111212405Y-130135381D01*
X111450500Y-130135381D01*
X111593358Y-130183000D01*
X111688596Y-130278238D01*
X111736215Y-130373476D01*
X111783834Y-130563952D01*
X111783834Y-130706810D01*
X111736215Y-130897286D01*
X111688596Y-130992524D01*
X111593358Y-131087762D01*
X111450500Y-131135381D01*
X111212405Y-131135381D01*
X112688596Y-130135381D02*
X112212405Y-130135381D01*
X112164786Y-130611571D01*
X112212405Y-130563952D01*
X112307643Y-130516333D01*
X112545739Y-130516333D01*
X112640977Y-130563952D01*
X112688596Y-130611571D01*
X112736215Y-130706810D01*
X112736215Y-130944905D01*
X112688596Y-131040143D01*
X112640977Y-131087762D01*
X112545739Y-131135381D01*
X112307643Y-131135381D01*
X112212405Y-131087762D01*
X112164786Y-131040143D01*
X126134834Y-118562381D02*
X125801500Y-118086190D01*
X125563405Y-118562381D02*
X125563405Y-117562381D01*
X125944358Y-117562381D01*
X126039596Y-117610000D01*
X126087215Y-117657619D01*
X126134834Y-117752857D01*
X126134834Y-117895714D01*
X126087215Y-117990952D01*
X126039596Y-118038571D01*
X125944358Y-118086190D01*
X125563405Y-118086190D01*
X126515786Y-117657619D02*
X126563405Y-117610000D01*
X126658643Y-117562381D01*
X126896739Y-117562381D01*
X126991977Y-117610000D01*
X127039596Y-117657619D01*
X127087215Y-117752857D01*
X127087215Y-117848095D01*
X127039596Y-117990952D01*
X126468167Y-118562381D01*
X127087215Y-118562381D01*
X119721334Y-118625881D02*
X119388000Y-118149690D01*
X119149905Y-118625881D02*
X119149905Y-117625881D01*
X119530858Y-117625881D01*
X119626096Y-117673500D01*
X119673715Y-117721119D01*
X119721334Y-117816357D01*
X119721334Y-117959214D01*
X119673715Y-118054452D01*
X119626096Y-118102071D01*
X119530858Y-118149690D01*
X119149905Y-118149690D01*
X120054667Y-117625881D02*
X120673715Y-117625881D01*
X120340381Y-118006833D01*
X120483239Y-118006833D01*
X120578477Y-118054452D01*
X120626096Y-118102071D01*
X120673715Y-118197310D01*
X120673715Y-118435405D01*
X120626096Y-118530643D01*
X120578477Y-118578262D01*
X120483239Y-118625881D01*
X120197524Y-118625881D01*
X120102286Y-118578262D01*
X120054667Y-118530643D01*
X119784834Y-120530881D02*
X119451500Y-120054690D01*
X119213405Y-120530881D02*
X119213405Y-119530881D01*
X119594358Y-119530881D01*
X119689596Y-119578500D01*
X119737215Y-119626119D01*
X119784834Y-119721357D01*
X119784834Y-119864214D01*
X119737215Y-119959452D01*
X119689596Y-120007071D01*
X119594358Y-120054690D01*
X119213405Y-120054690D01*
X120641977Y-119864214D02*
X120641977Y-120530881D01*
X120403881Y-119483262D02*
X120165786Y-120197548D01*
X120784834Y-120197548D01*
X119469357Y-113623286D02*
X119219357Y-113266143D01*
X119040785Y-113623286D02*
X119040785Y-112873286D01*
X119326500Y-112873286D01*
X119397928Y-112909000D01*
X119433643Y-112944714D01*
X119469357Y-113016143D01*
X119469357Y-113123286D01*
X119433643Y-113194714D01*
X119397928Y-113230429D01*
X119326500Y-113266143D01*
X119040785Y-113266143D01*
X119755071Y-112944714D02*
X119790785Y-112909000D01*
X119862214Y-112873286D01*
X120040785Y-112873286D01*
X120112214Y-112909000D01*
X120147928Y-112944714D01*
X120183643Y-113016143D01*
X120183643Y-113087571D01*
X120147928Y-113194714D01*
X119719357Y-113623286D01*
X120183643Y-113623286D01*
X120647929Y-112873286D02*
X120719357Y-112873286D01*
X120790786Y-112909000D01*
X120826500Y-112944714D01*
X120862214Y-113016143D01*
X120897929Y-113159000D01*
X120897929Y-113337571D01*
X120862214Y-113480429D01*
X120826500Y-113551857D01*
X120790786Y-113587571D01*
X120719357Y-113623286D01*
X120647929Y-113623286D01*
X120576500Y-113587571D01*
X120540786Y-113551857D01*
X120505071Y-113480429D01*
X120469357Y-113337571D01*
X120469357Y-113159000D01*
X120505071Y-113016143D01*
X120540786Y-112944714D01*
X120576500Y-112909000D01*
X120647929Y-112873286D01*
X136469381Y-113291857D02*
X135993190Y-113625191D01*
X136469381Y-113863286D02*
X135469381Y-113863286D01*
X135469381Y-113482333D01*
X135517000Y-113387095D01*
X135564619Y-113339476D01*
X135659857Y-113291857D01*
X135802714Y-113291857D01*
X135897952Y-113339476D01*
X135945571Y-113387095D01*
X135993190Y-113482333D01*
X135993190Y-113863286D01*
X135564619Y-112910905D02*
X135517000Y-112863286D01*
X135469381Y-112768048D01*
X135469381Y-112529952D01*
X135517000Y-112434714D01*
X135564619Y-112387095D01*
X135659857Y-112339476D01*
X135755095Y-112339476D01*
X135897952Y-112387095D01*
X136469381Y-112958524D01*
X136469381Y-112339476D01*
X135802714Y-111482333D02*
X136469381Y-111482333D01*
X135421762Y-111720429D02*
X136136048Y-111958524D01*
X136136048Y-111339476D01*
X129883357Y-111146786D02*
X129633357Y-110789643D01*
X129454785Y-111146786D02*
X129454785Y-110396786D01*
X129740500Y-110396786D01*
X129811928Y-110432500D01*
X129847643Y-110468214D01*
X129883357Y-110539643D01*
X129883357Y-110646786D01*
X129847643Y-110718214D01*
X129811928Y-110753929D01*
X129740500Y-110789643D01*
X129454785Y-110789643D01*
X130169071Y-110468214D02*
X130204785Y-110432500D01*
X130276214Y-110396786D01*
X130454785Y-110396786D01*
X130526214Y-110432500D01*
X130561928Y-110468214D01*
X130597643Y-110539643D01*
X130597643Y-110611071D01*
X130561928Y-110718214D01*
X130133357Y-111146786D01*
X130597643Y-111146786D01*
X131276214Y-110396786D02*
X130919071Y-110396786D01*
X130883357Y-110753929D01*
X130919071Y-110718214D01*
X130990500Y-110682500D01*
X131169071Y-110682500D01*
X131240500Y-110718214D01*
X131276214Y-110753929D01*
X131311929Y-110825357D01*
X131311929Y-111003929D01*
X131276214Y-111075357D01*
X131240500Y-111111071D01*
X131169071Y-111146786D01*
X130990500Y-111146786D01*
X130919071Y-111111071D01*
X130883357Y-111075357D01*
X106275643Y-116352581D02*
X105942309Y-115876390D01*
X105704214Y-116352581D02*
X105704214Y-115352581D01*
X106085167Y-115352581D01*
X106180405Y-115400200D01*
X106228024Y-115447819D01*
X106275643Y-115543057D01*
X106275643Y-115685914D01*
X106228024Y-115781152D01*
X106180405Y-115828771D01*
X106085167Y-115876390D01*
X105704214Y-115876390D01*
X106656595Y-115447819D02*
X106704214Y-115400200D01*
X106799452Y-115352581D01*
X107037548Y-115352581D01*
X107132786Y-115400200D01*
X107180405Y-115447819D01*
X107228024Y-115543057D01*
X107228024Y-115638295D01*
X107180405Y-115781152D01*
X106608976Y-116352581D01*
X107228024Y-116352581D01*
X107799452Y-115781152D02*
X107704214Y-115733533D01*
X107656595Y-115685914D01*
X107608976Y-115590676D01*
X107608976Y-115543057D01*
X107656595Y-115447819D01*
X107704214Y-115400200D01*
X107799452Y-115352581D01*
X107989929Y-115352581D01*
X108085167Y-115400200D01*
X108132786Y-115447819D01*
X108180405Y-115543057D01*
X108180405Y-115590676D01*
X108132786Y-115685914D01*
X108085167Y-115733533D01*
X107989929Y-115781152D01*
X107799452Y-115781152D01*
X107704214Y-115828771D01*
X107656595Y-115876390D01*
X107608976Y-115971629D01*
X107608976Y-116162105D01*
X107656595Y-116257343D01*
X107704214Y-116304962D01*
X107799452Y-116352581D01*
X107989929Y-116352581D01*
X108085167Y-116304962D01*
X108132786Y-116257343D01*
X108180405Y-116162105D01*
X108180405Y-115971629D01*
X108132786Y-115876390D01*
X108085167Y-115828771D01*
X107989929Y-115781152D01*
X104401881Y-104846357D02*
X103925690Y-105179691D01*
X104401881Y-105417786D02*
X103401881Y-105417786D01*
X103401881Y-105036833D01*
X103449500Y-104941595D01*
X103497119Y-104893976D01*
X103592357Y-104846357D01*
X103735214Y-104846357D01*
X103830452Y-104893976D01*
X103878071Y-104941595D01*
X103925690Y-105036833D01*
X103925690Y-105417786D01*
X103497119Y-104465405D02*
X103449500Y-104417786D01*
X103401881Y-104322548D01*
X103401881Y-104084452D01*
X103449500Y-103989214D01*
X103497119Y-103941595D01*
X103592357Y-103893976D01*
X103687595Y-103893976D01*
X103830452Y-103941595D01*
X104401881Y-104513024D01*
X104401881Y-103893976D01*
X104401881Y-103417786D02*
X104401881Y-103227310D01*
X104354262Y-103132071D01*
X104306643Y-103084452D01*
X104163786Y-102989214D01*
X103973310Y-102941595D01*
X103592357Y-102941595D01*
X103497119Y-102989214D01*
X103449500Y-103036833D01*
X103401881Y-103132071D01*
X103401881Y-103322548D01*
X103449500Y-103417786D01*
X103497119Y-103465405D01*
X103592357Y-103513024D01*
X103830452Y-103513024D01*
X103925690Y-103465405D01*
X103973310Y-103417786D01*
X104020929Y-103322548D01*
X104020929Y-103132071D01*
X103973310Y-103036833D01*
X103925690Y-102989214D01*
X103830452Y-102941595D01*
X132786381Y-113228357D02*
X132310190Y-113561691D01*
X132786381Y-113799786D02*
X131786381Y-113799786D01*
X131786381Y-113418833D01*
X131834000Y-113323595D01*
X131881619Y-113275976D01*
X131976857Y-113228357D01*
X132119714Y-113228357D01*
X132214952Y-113275976D01*
X132262571Y-113323595D01*
X132310190Y-113418833D01*
X132310190Y-113799786D01*
X131786381Y-112895024D02*
X131786381Y-112275976D01*
X132167333Y-112609310D01*
X132167333Y-112466452D01*
X132214952Y-112371214D01*
X132262571Y-112323595D01*
X132357810Y-112275976D01*
X132595905Y-112275976D01*
X132691143Y-112323595D01*
X132738762Y-112371214D01*
X132786381Y-112466452D01*
X132786381Y-112752167D01*
X132738762Y-112847405D01*
X132691143Y-112895024D01*
X131786381Y-111942643D02*
X131786381Y-111323595D01*
X132167333Y-111656929D01*
X132167333Y-111514071D01*
X132214952Y-111418833D01*
X132262571Y-111371214D01*
X132357810Y-111323595D01*
X132595905Y-111323595D01*
X132691143Y-111371214D01*
X132738762Y-111418833D01*
X132786381Y-111514071D01*
X132786381Y-111799786D01*
X132738762Y-111895024D01*
X132691143Y-111942643D01*
X106291143Y-112974381D02*
X105957809Y-112498190D01*
X105719714Y-112974381D02*
X105719714Y-111974381D01*
X106100667Y-111974381D01*
X106195905Y-112022000D01*
X106243524Y-112069619D01*
X106291143Y-112164857D01*
X106291143Y-112307714D01*
X106243524Y-112402952D01*
X106195905Y-112450571D01*
X106100667Y-112498190D01*
X105719714Y-112498190D01*
X106624476Y-111974381D02*
X107243524Y-111974381D01*
X106910190Y-112355333D01*
X107053048Y-112355333D01*
X107148286Y-112402952D01*
X107195905Y-112450571D01*
X107243524Y-112545810D01*
X107243524Y-112783905D01*
X107195905Y-112879143D01*
X107148286Y-112926762D01*
X107053048Y-112974381D01*
X106767333Y-112974381D01*
X106672095Y-112926762D01*
X106624476Y-112879143D01*
X108100667Y-112307714D02*
X108100667Y-112974381D01*
X107862571Y-111926762D02*
X107624476Y-112641048D01*
X108243524Y-112641048D01*
X106179881Y-104782857D02*
X105703690Y-105116191D01*
X106179881Y-105354286D02*
X105179881Y-105354286D01*
X105179881Y-104973333D01*
X105227500Y-104878095D01*
X105275119Y-104830476D01*
X105370357Y-104782857D01*
X105513214Y-104782857D01*
X105608452Y-104830476D01*
X105656071Y-104878095D01*
X105703690Y-104973333D01*
X105703690Y-105354286D01*
X105179881Y-104449524D02*
X105179881Y-103830476D01*
X105560833Y-104163810D01*
X105560833Y-104020952D01*
X105608452Y-103925714D01*
X105656071Y-103878095D01*
X105751310Y-103830476D01*
X105989405Y-103830476D01*
X106084643Y-103878095D01*
X106132262Y-103925714D01*
X106179881Y-104020952D01*
X106179881Y-104306667D01*
X106132262Y-104401905D01*
X106084643Y-104449524D01*
X105179881Y-102925714D02*
X105179881Y-103401905D01*
X105656071Y-103449524D01*
X105608452Y-103401905D01*
X105560833Y-103306667D01*
X105560833Y-103068571D01*
X105608452Y-102973333D01*
X105656071Y-102925714D01*
X105751310Y-102878095D01*
X105989405Y-102878095D01*
X106084643Y-102925714D01*
X106132262Y-102973333D01*
X106179881Y-103068571D01*
X106179881Y-103306667D01*
X106132262Y-103401905D01*
X106084643Y-103449524D01*
X106418143Y-114752381D02*
X106084809Y-114276190D01*
X105846714Y-114752381D02*
X105846714Y-113752381D01*
X106227667Y-113752381D01*
X106322905Y-113800000D01*
X106370524Y-113847619D01*
X106418143Y-113942857D01*
X106418143Y-114085714D01*
X106370524Y-114180952D01*
X106322905Y-114228571D01*
X106227667Y-114276190D01*
X105846714Y-114276190D01*
X107275286Y-114085714D02*
X107275286Y-114752381D01*
X107037190Y-113704762D02*
X106799095Y-114419048D01*
X107418143Y-114419048D01*
X107751476Y-113847619D02*
X107799095Y-113800000D01*
X107894333Y-113752381D01*
X108132429Y-113752381D01*
X108227667Y-113800000D01*
X108275286Y-113847619D01*
X108322905Y-113942857D01*
X108322905Y-114038095D01*
X108275286Y-114180952D01*
X107703857Y-114752381D01*
X108322905Y-114752381D01*
X108148381Y-104846357D02*
X107672190Y-105179691D01*
X108148381Y-105417786D02*
X107148381Y-105417786D01*
X107148381Y-105036833D01*
X107196000Y-104941595D01*
X107243619Y-104893976D01*
X107338857Y-104846357D01*
X107481714Y-104846357D01*
X107576952Y-104893976D01*
X107624571Y-104941595D01*
X107672190Y-105036833D01*
X107672190Y-105417786D01*
X107481714Y-103989214D02*
X108148381Y-103989214D01*
X107100762Y-104227310D02*
X107815048Y-104465405D01*
X107815048Y-103846357D01*
X107148381Y-103560643D02*
X107148381Y-102941595D01*
X107529333Y-103274929D01*
X107529333Y-103132071D01*
X107576952Y-103036833D01*
X107624571Y-102989214D01*
X107719810Y-102941595D01*
X107957905Y-102941595D01*
X108053143Y-102989214D01*
X108100762Y-103036833D01*
X108148381Y-103132071D01*
X108148381Y-103417786D01*
X108100762Y-103513024D01*
X108053143Y-103560643D01*
X109989881Y-104782857D02*
X109513690Y-105116191D01*
X109989881Y-105354286D02*
X108989881Y-105354286D01*
X108989881Y-104973333D01*
X109037500Y-104878095D01*
X109085119Y-104830476D01*
X109180357Y-104782857D01*
X109323214Y-104782857D01*
X109418452Y-104830476D01*
X109466071Y-104878095D01*
X109513690Y-104973333D01*
X109513690Y-105354286D01*
X109323214Y-103925714D02*
X109989881Y-103925714D01*
X108942262Y-104163810D02*
X109656548Y-104401905D01*
X109656548Y-103782857D01*
X109989881Y-103354286D02*
X109989881Y-103163810D01*
X109942262Y-103068571D01*
X109894643Y-103020952D01*
X109751786Y-102925714D01*
X109561310Y-102878095D01*
X109180357Y-102878095D01*
X109085119Y-102925714D01*
X109037500Y-102973333D01*
X108989881Y-103068571D01*
X108989881Y-103259048D01*
X109037500Y-103354286D01*
X109085119Y-103401905D01*
X109180357Y-103449524D01*
X109418452Y-103449524D01*
X109513690Y-103401905D01*
X109561310Y-103354286D01*
X109608929Y-103259048D01*
X109608929Y-103068571D01*
X109561310Y-102973333D01*
X109513690Y-102925714D01*
X109418452Y-102878095D01*
X111640881Y-104846357D02*
X111164690Y-105179691D01*
X111640881Y-105417786D02*
X110640881Y-105417786D01*
X110640881Y-105036833D01*
X110688500Y-104941595D01*
X110736119Y-104893976D01*
X110831357Y-104846357D01*
X110974214Y-104846357D01*
X111069452Y-104893976D01*
X111117071Y-104941595D01*
X111164690Y-105036833D01*
X111164690Y-105417786D01*
X110640881Y-103941595D02*
X110640881Y-104417786D01*
X111117071Y-104465405D01*
X111069452Y-104417786D01*
X111021833Y-104322548D01*
X111021833Y-104084452D01*
X111069452Y-103989214D01*
X111117071Y-103941595D01*
X111212310Y-103893976D01*
X111450405Y-103893976D01*
X111545643Y-103941595D01*
X111593262Y-103989214D01*
X111640881Y-104084452D01*
X111640881Y-104322548D01*
X111593262Y-104417786D01*
X111545643Y-104465405D01*
X110640881Y-103274929D02*
X110640881Y-103179690D01*
X110688500Y-103084452D01*
X110736119Y-103036833D01*
X110831357Y-102989214D01*
X111021833Y-102941595D01*
X111259929Y-102941595D01*
X111450405Y-102989214D01*
X111545643Y-103036833D01*
X111593262Y-103084452D01*
X111640881Y-103179690D01*
X111640881Y-103274929D01*
X111593262Y-103370167D01*
X111545643Y-103417786D01*
X111450405Y-103465405D01*
X111259929Y-103513024D01*
X111021833Y-103513024D01*
X110831357Y-103465405D01*
X110736119Y-103417786D01*
X110688500Y-103370167D01*
X110640881Y-103274929D01*
X118324453Y-142311381D02*
X117991119Y-141835190D01*
X117753024Y-142311381D02*
X117753024Y-141311381D01*
X118133977Y-141311381D01*
X118229215Y-141359000D01*
X118276834Y-141406619D01*
X118324453Y-141501857D01*
X118324453Y-141644714D01*
X118276834Y-141739952D01*
X118229215Y-141787571D01*
X118133977Y-141835190D01*
X117753024Y-141835190D01*
X119276834Y-142311381D02*
X118705405Y-142311381D01*
X118991119Y-142311381D02*
X118991119Y-141311381D01*
X118895881Y-141454238D01*
X118800643Y-141549476D01*
X118705405Y-141597095D01*
X119895881Y-141311381D02*
X119991120Y-141311381D01*
X120086358Y-141359000D01*
X120133977Y-141406619D01*
X120181596Y-141501857D01*
X120229215Y-141692333D01*
X120229215Y-141930429D01*
X120181596Y-142120905D01*
X120133977Y-142216143D01*
X120086358Y-142263762D01*
X119991120Y-142311381D01*
X119895881Y-142311381D01*
X119800643Y-142263762D01*
X119753024Y-142216143D01*
X119705405Y-142120905D01*
X119657786Y-141930429D01*
X119657786Y-141692333D01*
X119705405Y-141501857D01*
X119753024Y-141406619D01*
X119800643Y-141359000D01*
X119895881Y-141311381D01*
X120562548Y-141311381D02*
X121181596Y-141311381D01*
X120848262Y-141692333D01*
X120991120Y-141692333D01*
X121086358Y-141739952D01*
X121133977Y-141787571D01*
X121181596Y-141882810D01*
X121181596Y-142120905D01*
X121133977Y-142216143D01*
X121086358Y-142263762D01*
X120991120Y-142311381D01*
X120705405Y-142311381D01*
X120610167Y-142263762D01*
X120562548Y-142216143D01*
X110831453Y-142438381D02*
X110498119Y-141962190D01*
X110260024Y-142438381D02*
X110260024Y-141438381D01*
X110640977Y-141438381D01*
X110736215Y-141486000D01*
X110783834Y-141533619D01*
X110831453Y-141628857D01*
X110831453Y-141771714D01*
X110783834Y-141866952D01*
X110736215Y-141914571D01*
X110640977Y-141962190D01*
X110260024Y-141962190D01*
X111783834Y-142438381D02*
X111212405Y-142438381D01*
X111498119Y-142438381D02*
X111498119Y-141438381D01*
X111402881Y-141581238D01*
X111307643Y-141676476D01*
X111212405Y-141724095D01*
X112402881Y-141438381D02*
X112498120Y-141438381D01*
X112593358Y-141486000D01*
X112640977Y-141533619D01*
X112688596Y-141628857D01*
X112736215Y-141819333D01*
X112736215Y-142057429D01*
X112688596Y-142247905D01*
X112640977Y-142343143D01*
X112593358Y-142390762D01*
X112498120Y-142438381D01*
X112402881Y-142438381D01*
X112307643Y-142390762D01*
X112260024Y-142343143D01*
X112212405Y-142247905D01*
X112164786Y-142057429D01*
X112164786Y-141819333D01*
X112212405Y-141628857D01*
X112260024Y-141533619D01*
X112307643Y-141486000D01*
X112402881Y-141438381D01*
X113593358Y-141771714D02*
X113593358Y-142438381D01*
X113355262Y-141390762D02*
X113117167Y-142105048D01*
X113736215Y-142105048D01*
X114514453Y-139136381D02*
X114181119Y-138660190D01*
X113943024Y-139136381D02*
X113943024Y-138136381D01*
X114323977Y-138136381D01*
X114419215Y-138184000D01*
X114466834Y-138231619D01*
X114514453Y-138326857D01*
X114514453Y-138469714D01*
X114466834Y-138564952D01*
X114419215Y-138612571D01*
X114323977Y-138660190D01*
X113943024Y-138660190D01*
X115371596Y-138469714D02*
X115371596Y-139136381D01*
X115133500Y-138088762D02*
X114895405Y-138803048D01*
X115514453Y-138803048D01*
X116085881Y-138136381D02*
X116181120Y-138136381D01*
X116276358Y-138184000D01*
X116323977Y-138231619D01*
X116371596Y-138326857D01*
X116419215Y-138517333D01*
X116419215Y-138755429D01*
X116371596Y-138945905D01*
X116323977Y-139041143D01*
X116276358Y-139088762D01*
X116181120Y-139136381D01*
X116085881Y-139136381D01*
X115990643Y-139088762D01*
X115943024Y-139041143D01*
X115895405Y-138945905D01*
X115847786Y-138755429D01*
X115847786Y-138517333D01*
X115895405Y-138326857D01*
X115943024Y-138231619D01*
X115990643Y-138184000D01*
X116085881Y-138136381D01*
X117371596Y-139136381D02*
X116800167Y-139136381D01*
X117085881Y-139136381D02*
X117085881Y-138136381D01*
X116990643Y-138279238D01*
X116895405Y-138374476D01*
X116800167Y-138422095D01*
D18*
X136606643Y-123661714D02*
X137114643Y-124423714D01*
X137114643Y-123661714D02*
X136606643Y-124423714D01*
X137368643Y-123734286D02*
X137404929Y-123698000D01*
X137477500Y-123661714D01*
X137658929Y-123661714D01*
X137731500Y-123698000D01*
X137767786Y-123734286D01*
X137804071Y-123806857D01*
X137804071Y-123879429D01*
X137767786Y-123988286D01*
X137332357Y-124423714D01*
X137804071Y-124423714D01*
D10*
X73215667Y-102004881D02*
X73549000Y-103004881D01*
X73882334Y-102004881D01*
X74787096Y-102909643D02*
X74739477Y-102957262D01*
X74596620Y-103004881D01*
X74501382Y-103004881D01*
X74358524Y-102957262D01*
X74263286Y-102862024D01*
X74215667Y-102766786D01*
X74168048Y-102576310D01*
X74168048Y-102433452D01*
X74215667Y-102242976D01*
X74263286Y-102147738D01*
X74358524Y-102052500D01*
X74501382Y-102004881D01*
X74596620Y-102004881D01*
X74739477Y-102052500D01*
X74787096Y-102100119D01*
X75787096Y-102909643D02*
X75739477Y-102957262D01*
X75596620Y-103004881D01*
X75501382Y-103004881D01*
X75358524Y-102957262D01*
X75263286Y-102862024D01*
X75215667Y-102766786D01*
X75168048Y-102576310D01*
X75168048Y-102433452D01*
X75215667Y-102242976D01*
X75263286Y-102147738D01*
X75358524Y-102052500D01*
X75501382Y-102004881D01*
X75596620Y-102004881D01*
X75739477Y-102052500D01*
X75787096Y-102100119D01*
X72755357Y-109116762D02*
X72898214Y-109164381D01*
X73136310Y-109164381D01*
X73231548Y-109116762D01*
X73279167Y-109069143D01*
X73326786Y-108973905D01*
X73326786Y-108878667D01*
X73279167Y-108783429D01*
X73231548Y-108735810D01*
X73136310Y-108688190D01*
X72945833Y-108640571D01*
X72850595Y-108592952D01*
X72802976Y-108545333D01*
X72755357Y-108450095D01*
X72755357Y-108354857D01*
X72802976Y-108259619D01*
X72850595Y-108212000D01*
X72945833Y-108164381D01*
X73183929Y-108164381D01*
X73326786Y-108212000D01*
X73660119Y-108164381D02*
X73898214Y-109164381D01*
X74088691Y-108450095D01*
X74279167Y-109164381D01*
X74517262Y-108164381D01*
X75469643Y-109069143D02*
X75422024Y-109116762D01*
X75279167Y-109164381D01*
X75183929Y-109164381D01*
X75041071Y-109116762D01*
X74945833Y-109021524D01*
X74898214Y-108926286D01*
X74850595Y-108735810D01*
X74850595Y-108592952D01*
X74898214Y-108402476D01*
X74945833Y-108307238D01*
X75041071Y-108212000D01*
X75183929Y-108164381D01*
X75279167Y-108164381D01*
X75422024Y-108212000D01*
X75469643Y-108259619D01*
X75898214Y-109164381D02*
X75898214Y-108164381D01*
X76469643Y-109164381D02*
X76041071Y-108592952D01*
X76469643Y-108164381D02*
X75898214Y-108735810D01*
X73128357Y-107465762D02*
X73271214Y-107513381D01*
X73509310Y-107513381D01*
X73604548Y-107465762D01*
X73652167Y-107418143D01*
X73699786Y-107322905D01*
X73699786Y-107227667D01*
X73652167Y-107132429D01*
X73604548Y-107084810D01*
X73509310Y-107037190D01*
X73318833Y-106989571D01*
X73223595Y-106941952D01*
X73175976Y-106894333D01*
X73128357Y-106799095D01*
X73128357Y-106703857D01*
X73175976Y-106608619D01*
X73223595Y-106561000D01*
X73318833Y-106513381D01*
X73556929Y-106513381D01*
X73699786Y-106561000D01*
X74033119Y-106513381D02*
X74271214Y-107513381D01*
X74461691Y-106799095D01*
X74652167Y-107513381D01*
X74890262Y-106513381D01*
X75271214Y-107513381D02*
X75271214Y-106513381D01*
X75509309Y-106513381D01*
X75652167Y-106561000D01*
X75747405Y-106656238D01*
X75795024Y-106751476D01*
X75842643Y-106941952D01*
X75842643Y-107084810D01*
X75795024Y-107275286D01*
X75747405Y-107370524D01*
X75652167Y-107465762D01*
X75509309Y-107513381D01*
X75271214Y-107513381D01*
X72842643Y-105925881D02*
X72842643Y-104925881D01*
X73414072Y-105925881D01*
X73414072Y-104925881D01*
X74461691Y-105925881D02*
X74128357Y-105449690D01*
X73890262Y-105925881D02*
X73890262Y-104925881D01*
X74271215Y-104925881D01*
X74366453Y-104973500D01*
X74414072Y-105021119D01*
X74461691Y-105116357D01*
X74461691Y-105259214D01*
X74414072Y-105354452D01*
X74366453Y-105402071D01*
X74271215Y-105449690D01*
X73890262Y-105449690D01*
X74842643Y-105878262D02*
X74985500Y-105925881D01*
X75223596Y-105925881D01*
X75318834Y-105878262D01*
X75366453Y-105830643D01*
X75414072Y-105735405D01*
X75414072Y-105640167D01*
X75366453Y-105544929D01*
X75318834Y-105497310D01*
X75223596Y-105449690D01*
X75033119Y-105402071D01*
X74937881Y-105354452D01*
X74890262Y-105306833D01*
X74842643Y-105211595D01*
X74842643Y-105116357D01*
X74890262Y-105021119D01*
X74937881Y-104973500D01*
X75033119Y-104925881D01*
X75271215Y-104925881D01*
X75414072Y-104973500D01*
X75699786Y-104925881D02*
X76271215Y-104925881D01*
X75985500Y-105925881D02*
X75985500Y-104925881D01*
X73287096Y-103449500D02*
X73191858Y-103401881D01*
X73049001Y-103401881D01*
X72906143Y-103449500D01*
X72810905Y-103544738D01*
X72763286Y-103639976D01*
X72715667Y-103830452D01*
X72715667Y-103973310D01*
X72763286Y-104163786D01*
X72810905Y-104259024D01*
X72906143Y-104354262D01*
X73049001Y-104401881D01*
X73144239Y-104401881D01*
X73287096Y-104354262D01*
X73334715Y-104306643D01*
X73334715Y-103973310D01*
X73144239Y-103973310D01*
X73763286Y-104401881D02*
X73763286Y-103401881D01*
X74334715Y-104401881D01*
X74334715Y-103401881D01*
X74810905Y-104401881D02*
X74810905Y-103401881D01*
X75049000Y-103401881D01*
X75191858Y-103449500D01*
X75287096Y-103544738D01*
X75334715Y-103639976D01*
X75382334Y-103830452D01*
X75382334Y-103973310D01*
X75334715Y-104163786D01*
X75287096Y-104259024D01*
X75191858Y-104354262D01*
X75049000Y-104401881D01*
X74810905Y-104401881D01*
X75810905Y-104401881D02*
X75810905Y-103401881D01*
X76049000Y-103401881D01*
X76191858Y-103449500D01*
X76287096Y-103544738D01*
X76334715Y-103639976D01*
X76382334Y-103830452D01*
X76382334Y-103973310D01*
X76334715Y-104163786D01*
X76287096Y-104259024D01*
X76191858Y-104354262D01*
X76049000Y-104401881D01*
X75810905Y-104401881D01*
X129415000Y-109178286D02*
X129165000Y-108821143D01*
X128986428Y-109178286D02*
X128986428Y-108428286D01*
X129272143Y-108428286D01*
X129343571Y-108464000D01*
X129379286Y-108499714D01*
X129415000Y-108571143D01*
X129415000Y-108678286D01*
X129379286Y-108749714D01*
X129343571Y-108785429D01*
X129272143Y-108821143D01*
X128986428Y-108821143D01*
X130093571Y-108428286D02*
X129736428Y-108428286D01*
X129700714Y-108785429D01*
X129736428Y-108749714D01*
X129807857Y-108714000D01*
X129986428Y-108714000D01*
X130057857Y-108749714D01*
X130093571Y-108785429D01*
X130129286Y-108856857D01*
X130129286Y-109035429D01*
X130093571Y-109106857D01*
X130057857Y-109142571D01*
X129986428Y-109178286D01*
X129807857Y-109178286D01*
X129736428Y-109142571D01*
X129700714Y-109106857D01*
X134627881Y-113291857D02*
X134151690Y-113625191D01*
X134627881Y-113863286D02*
X133627881Y-113863286D01*
X133627881Y-113482333D01*
X133675500Y-113387095D01*
X133723119Y-113339476D01*
X133818357Y-113291857D01*
X133961214Y-113291857D01*
X134056452Y-113339476D01*
X134104071Y-113387095D01*
X134151690Y-113482333D01*
X134151690Y-113863286D01*
X133723119Y-112910905D02*
X133675500Y-112863286D01*
X133627881Y-112768048D01*
X133627881Y-112529952D01*
X133675500Y-112434714D01*
X133723119Y-112387095D01*
X133818357Y-112339476D01*
X133913595Y-112339476D01*
X134056452Y-112387095D01*
X134627881Y-112958524D01*
X134627881Y-112339476D01*
X133627881Y-112006143D02*
X133627881Y-111339476D01*
X134627881Y-111768048D01*
X110274381Y-124931466D02*
X109798190Y-125264800D01*
X110274381Y-125502895D02*
X109274381Y-125502895D01*
X109274381Y-125121942D01*
X109322000Y-125026704D01*
X109369619Y-124979085D01*
X109464857Y-124931466D01*
X109607714Y-124931466D01*
X109702952Y-124979085D01*
X109750571Y-125026704D01*
X109798190Y-125121942D01*
X109798190Y-125502895D01*
X109274381Y-124074323D02*
X109274381Y-124264800D01*
X109322000Y-124360038D01*
X109369619Y-124407657D01*
X109512476Y-124502895D01*
X109702952Y-124550514D01*
X110083905Y-124550514D01*
X110179143Y-124502895D01*
X110226762Y-124455276D01*
X110274381Y-124360038D01*
X110274381Y-124169561D01*
X110226762Y-124074323D01*
X110179143Y-124026704D01*
X110083905Y-123979085D01*
X109845810Y-123979085D01*
X109750571Y-124026704D01*
X109702952Y-124074323D01*
X109655333Y-124169561D01*
X109655333Y-124360038D01*
X109702952Y-124455276D01*
X109750571Y-124502895D01*
X109845810Y-124550514D01*
X122324786Y-135086286D02*
X121896214Y-135086286D01*
X122110500Y-135086286D02*
X122110500Y-134336286D01*
X122039071Y-134443429D01*
X121967643Y-134514857D01*
X121896214Y-134550571D01*
D19*
X131484714Y-134407714D02*
X131520428Y-134372000D01*
X131591857Y-134336286D01*
X131770428Y-134336286D01*
X131841857Y-134372000D01*
X131877571Y-134407714D01*
X131913286Y-134479143D01*
X131913286Y-134550571D01*
X131877571Y-134657714D01*
X131449000Y-135086286D01*
X131913286Y-135086286D01*
D10*
X119447500Y-134336286D02*
X119911786Y-134336286D01*
X119661786Y-134622000D01*
X119768928Y-134622000D01*
X119840357Y-134657714D01*
X119876071Y-134693429D01*
X119911786Y-134764857D01*
X119911786Y-134943429D01*
X119876071Y-135014857D01*
X119840357Y-135050571D01*
X119768928Y-135086286D01*
X119554643Y-135086286D01*
X119483214Y-135050571D01*
X119447500Y-135014857D01*
X129428857Y-134586286D02*
X129428857Y-135086286D01*
X129250286Y-134300571D02*
X129071714Y-134836286D01*
X129536000Y-134836286D01*
X120654000Y-134336286D02*
X121154000Y-134336286D01*
X120832571Y-135086286D01*
D19*
X130421071Y-134657714D02*
X130349643Y-134622000D01*
X130313928Y-134586286D01*
X130278214Y-134514857D01*
X130278214Y-134479143D01*
X130313928Y-134407714D01*
X130349643Y-134372000D01*
X130421071Y-134336286D01*
X130563928Y-134336286D01*
X130635357Y-134372000D01*
X130671071Y-134407714D01*
X130706786Y-134479143D01*
X130706786Y-134514857D01*
X130671071Y-134586286D01*
X130635357Y-134622000D01*
X130563928Y-134657714D01*
X130421071Y-134657714D01*
X130349643Y-134693429D01*
X130313928Y-134729143D01*
X130278214Y-134800571D01*
X130278214Y-134943429D01*
X130313928Y-135014857D01*
X130349643Y-135050571D01*
X130421071Y-135086286D01*
X130563928Y-135086286D01*
X130635357Y-135050571D01*
X130671071Y-135014857D01*
X130706786Y-134943429D01*
X130706786Y-134800571D01*
X130671071Y-134729143D01*
X130635357Y-134693429D01*
X130563928Y-134657714D01*
X127984262Y-135086286D02*
X127698548Y-135086286D01*
X127841405Y-135086286D02*
X127841405Y-134336286D01*
X127793786Y-134443429D01*
X127746167Y-134514857D01*
X127698548Y-134550571D01*
X128293786Y-134336286D02*
X128341405Y-134336286D01*
X128389024Y-134372000D01*
X128412833Y-134407714D01*
X128436643Y-134479143D01*
X128460452Y-134622000D01*
X128460452Y-134800571D01*
X128436643Y-134943429D01*
X128412833Y-135014857D01*
X128389024Y-135050571D01*
X128341405Y-135086286D01*
X128293786Y-135086286D01*
X128246167Y-135050571D01*
X128222357Y-135014857D01*
X128198548Y-134943429D01*
X128174738Y-134800571D01*
X128174738Y-134622000D01*
X128198548Y-134479143D01*
X128222357Y-134407714D01*
X128246167Y-134372000D01*
X128293786Y-134336286D01*
X126777762Y-135086286D02*
X126492048Y-135086286D01*
X126634905Y-135086286D02*
X126634905Y-134336286D01*
X126587286Y-134443429D01*
X126539667Y-134514857D01*
X126492048Y-134550571D01*
X127253952Y-135086286D02*
X126968238Y-135086286D01*
X127111095Y-135086286D02*
X127111095Y-134336286D01*
X127063476Y-134443429D01*
X127015857Y-134514857D01*
X126968238Y-134550571D01*
X125571262Y-135086286D02*
X125285548Y-135086286D01*
X125428405Y-135086286D02*
X125428405Y-134336286D01*
X125380786Y-134443429D01*
X125333167Y-134514857D01*
X125285548Y-134550571D01*
X125761738Y-134407714D02*
X125785548Y-134372000D01*
X125833167Y-134336286D01*
X125952214Y-134336286D01*
X125999833Y-134372000D01*
X126023643Y-134407714D01*
X126047452Y-134479143D01*
X126047452Y-134550571D01*
X126023643Y-134657714D01*
X125737929Y-135086286D01*
X126047452Y-135086286D01*
X124364762Y-135086286D02*
X124079048Y-135086286D01*
X124221905Y-135086286D02*
X124221905Y-134336286D01*
X124174286Y-134443429D01*
X124126667Y-134514857D01*
X124079048Y-134550571D01*
X124531429Y-134336286D02*
X124840952Y-134336286D01*
X124674286Y-134622000D01*
X124745714Y-134622000D01*
X124793333Y-134657714D01*
X124817143Y-134693429D01*
X124840952Y-134764857D01*
X124840952Y-134943429D01*
X124817143Y-135014857D01*
X124793333Y-135050571D01*
X124745714Y-135086286D01*
X124602857Y-135086286D01*
X124555238Y-135050571D01*
X124531429Y-135014857D01*
D10*
X123110643Y-135086286D02*
X123253500Y-135086286D01*
X123324928Y-135050571D01*
X123360643Y-135014857D01*
X123432071Y-134907714D01*
X123467786Y-134764857D01*
X123467786Y-134479143D01*
X123432071Y-134407714D01*
X123396357Y-134372000D01*
X123324928Y-134336286D01*
X123182071Y-134336286D01*
X123110643Y-134372000D01*
X123074928Y-134407714D01*
X123039214Y-134479143D01*
X123039214Y-134657714D01*
X123074928Y-134729143D01*
X123110643Y-134764857D01*
X123182071Y-134800571D01*
X123324928Y-134800571D01*
X123396357Y-134764857D01*
X123432071Y-134729143D01*
X123467786Y-134657714D01*
X128930857Y-114186857D02*
X128895143Y-114222571D01*
X128788000Y-114258286D01*
X128716571Y-114258286D01*
X128609428Y-114222571D01*
X128538000Y-114151143D01*
X128502285Y-114079714D01*
X128466571Y-113936857D01*
X128466571Y-113829714D01*
X128502285Y-113686857D01*
X128538000Y-113615429D01*
X128609428Y-113544000D01*
X128716571Y-113508286D01*
X128788000Y-113508286D01*
X128895143Y-113544000D01*
X128930857Y-113579714D01*
X129645143Y-114258286D02*
X129216571Y-114258286D01*
X129430857Y-114258286D02*
X129430857Y-113508286D01*
X129359428Y-113615429D01*
X129288000Y-113686857D01*
X129216571Y-113722571D01*
X130073714Y-113829714D02*
X130002286Y-113794000D01*
X129966571Y-113758286D01*
X129930857Y-113686857D01*
X129930857Y-113651143D01*
X129966571Y-113579714D01*
X130002286Y-113544000D01*
X130073714Y-113508286D01*
X130216571Y-113508286D01*
X130288000Y-113544000D01*
X130323714Y-113579714D01*
X130359429Y-113651143D01*
X130359429Y-113686857D01*
X130323714Y-113758286D01*
X130288000Y-113794000D01*
X130216571Y-113829714D01*
X130073714Y-113829714D01*
X130002286Y-113865429D01*
X129966571Y-113901143D01*
X129930857Y-113972571D01*
X129930857Y-114115429D01*
X129966571Y-114186857D01*
X130002286Y-114222571D01*
X130073714Y-114258286D01*
X130216571Y-114258286D01*
X130288000Y-114222571D01*
X130323714Y-114186857D01*
X130359429Y-114115429D01*
X130359429Y-113972571D01*
X130323714Y-113901143D01*
X130288000Y-113865429D01*
X130216571Y-113829714D01*
X98170714Y-137006381D02*
X98170714Y-136006381D01*
X98551667Y-136006381D01*
X98646905Y-136054000D01*
X98694524Y-136101619D01*
X98742143Y-136196857D01*
X98742143Y-136339714D01*
X98694524Y-136434952D01*
X98646905Y-136482571D01*
X98551667Y-136530190D01*
X98170714Y-136530190D01*
X99694524Y-137006381D02*
X99123095Y-137006381D01*
X99408809Y-137006381D02*
X99408809Y-136006381D01*
X99313571Y-136149238D01*
X99218333Y-136244476D01*
X99123095Y-136292095D01*
X100313571Y-136006381D02*
X100408810Y-136006381D01*
X100504048Y-136054000D01*
X100551667Y-136101619D01*
X100599286Y-136196857D01*
X100646905Y-136387333D01*
X100646905Y-136625429D01*
X100599286Y-136815905D01*
X100551667Y-136911143D01*
X100504048Y-136958762D01*
X100408810Y-137006381D01*
X100313571Y-137006381D01*
X100218333Y-136958762D01*
X100170714Y-136911143D01*
X100123095Y-136815905D01*
X100075476Y-136625429D01*
X100075476Y-136387333D01*
X100123095Y-136196857D01*
X100170714Y-136101619D01*
X100218333Y-136054000D01*
X100313571Y-136006381D01*
%LPC*%
D20*
X117535200Y-105892600D03*
X115535200Y-105892600D03*
D21*
X131267200Y-128816100D03*
X131267200Y-128315720D03*
X131267200Y-127815340D03*
X131267200Y-127314960D03*
X131267200Y-126814580D03*
X131267200Y-130314700D03*
X131267200Y-129816860D03*
X131267200Y-129316480D03*
D22*
X129265680Y-120815100D03*
X128767840Y-120815100D03*
X128267460Y-120815100D03*
X127767080Y-120815100D03*
X127266700Y-120815100D03*
X126766320Y-120815100D03*
X126265940Y-120815100D03*
X125765560Y-120815100D03*
D21*
X119766080Y-122816620D03*
X119766080Y-123314460D03*
X119766080Y-123814840D03*
X119766080Y-124315220D03*
X119766080Y-124815600D03*
X119766080Y-125315980D03*
X119766080Y-125816360D03*
X119766080Y-126316740D03*
D22*
X121767600Y-132316220D03*
X122265440Y-132316220D03*
X122765820Y-132316220D03*
X123266200Y-132316220D03*
X123766580Y-132316220D03*
X124266960Y-132316220D03*
X124767340Y-132316220D03*
X125267720Y-132316220D03*
D21*
X131267200Y-126316740D03*
X131267200Y-125816360D03*
X131267200Y-125315980D03*
D22*
X125267720Y-120815100D03*
X124767340Y-120815100D03*
X124266960Y-120815100D03*
D21*
X119766080Y-126814580D03*
X119766080Y-127314960D03*
X119766080Y-127815340D03*
D22*
X125765560Y-132316220D03*
X126265940Y-132316220D03*
X126766320Y-132316220D03*
D21*
X131267200Y-124815600D03*
X131267200Y-124315220D03*
X131267200Y-123814840D03*
X131267200Y-123314460D03*
X131267200Y-122816620D03*
D22*
X123766580Y-120815100D03*
X123266200Y-120815100D03*
X122765820Y-120815100D03*
X122265440Y-120815100D03*
X121767600Y-120815100D03*
D21*
X119766080Y-128315720D03*
X119766080Y-128816100D03*
X119766080Y-129316480D03*
X119766080Y-129816860D03*
X119766080Y-130314700D03*
D22*
X127266700Y-132316220D03*
X127767080Y-132316220D03*
X128267460Y-132316220D03*
X128767840Y-132316220D03*
X129265680Y-132316220D03*
D23*
X105740200Y-131343400D03*
X102438200Y-131343400D03*
D20*
X112969800Y-120853200D03*
X114969800Y-120853200D03*
D24*
X132181600Y-139868400D03*
X132181600Y-141868400D03*
X129641600Y-139893800D03*
X129641600Y-141893800D03*
X127101600Y-139868400D03*
X127101600Y-141868400D03*
X124561600Y-139868400D03*
X124561600Y-141868400D03*
D23*
X105740200Y-128320800D03*
X102438200Y-128320800D03*
D24*
X115062000Y-124485400D03*
X115062000Y-122485400D03*
X134239000Y-129073400D03*
X134239000Y-131073400D03*
D20*
X122240800Y-117932200D03*
X124240800Y-117932200D03*
D24*
X115976400Y-133985000D03*
X115976400Y-131985000D03*
X117779800Y-111245900D03*
X117779800Y-113245900D03*
D20*
X121777000Y-111633000D03*
X119777000Y-111633000D03*
X113325400Y-111607600D03*
X115325400Y-111607600D03*
X121453400Y-114427000D03*
X123453400Y-114427000D03*
X124485400Y-107746800D03*
X126485400Y-107746800D03*
X120564400Y-107569000D03*
X122564400Y-107569000D03*
X117160800Y-108458000D03*
X119160800Y-108458000D03*
X135086600Y-122148600D03*
X133086600Y-122148600D03*
X135096000Y-120091200D03*
X133096000Y-120091200D03*
X115338100Y-108648500D03*
X113338100Y-108648500D03*
D25*
X106690160Y-135636000D03*
X101539040Y-135636000D03*
D24*
X134239000Y-127018800D03*
X134239000Y-125018800D03*
D20*
X129939800Y-116128800D03*
X127939800Y-116128800D03*
X124875800Y-110058200D03*
X122875800Y-110058200D03*
D26*
X135364220Y-135394700D03*
X133266180Y-135394700D03*
X135364220Y-133464300D03*
X133266180Y-133464300D03*
X135389620Y-137299700D03*
X133291580Y-137299700D03*
D27*
X113695480Y-133197600D03*
X110236000Y-133197600D03*
D28*
X70440000Y-127000000D03*
D29*
X66630000Y-137601960D03*
X67900000Y-137601960D03*
X69170000Y-137601960D03*
X71710000Y-137601960D03*
X72980000Y-137601960D03*
X74250000Y-137601960D03*
D28*
X81750000Y-127000000D03*
D29*
X77940000Y-137601960D03*
X79210000Y-137601960D03*
X80480000Y-137601960D03*
X83020000Y-137601960D03*
X84290000Y-137601960D03*
X85560000Y-137601960D03*
D28*
X93000000Y-127000000D03*
D29*
X89190000Y-137601960D03*
X90460000Y-137601960D03*
X91730000Y-137601960D03*
X94270000Y-137601960D03*
X95540000Y-137601960D03*
X96810000Y-137601960D03*
D30*
X129921000Y-118135400D03*
X128021000Y-118135400D03*
X116347200Y-118135400D03*
X118247200Y-118135400D03*
X116347200Y-120040400D03*
X118247200Y-120040400D03*
X125460800Y-111760000D03*
X123560800Y-111760000D03*
X136743400Y-137299700D03*
X138643400Y-137299700D03*
D31*
X135280400Y-114924800D03*
X135280400Y-116824800D03*
D30*
X126748500Y-111506000D03*
X128648500Y-111506000D03*
X108968500Y-115900200D03*
X110868500Y-115900200D03*
D31*
X103962200Y-108480900D03*
X103962200Y-106580900D03*
X131800600Y-114909600D03*
X131800600Y-116809600D03*
D30*
X108993900Y-112483900D03*
X110893900Y-112483900D03*
D31*
X105778300Y-108480900D03*
X105778300Y-106580900D03*
D30*
X136743400Y-135394700D03*
X138643400Y-135394700D03*
X136718000Y-133464300D03*
X138618000Y-133464300D03*
X108981200Y-114185700D03*
X110881200Y-114185700D03*
D31*
X107645200Y-108480900D03*
X107645200Y-106580900D03*
X109461300Y-108468200D03*
X109461300Y-106568200D03*
X111188500Y-108480900D03*
X111188500Y-106580900D03*
X116586000Y-140162200D03*
X116586000Y-142062200D03*
X114808000Y-140162200D03*
X114808000Y-142062200D03*
D30*
X117972800Y-139801600D03*
X119872800Y-139801600D03*
D32*
X136011920Y-129814320D03*
X138511280Y-129814320D03*
X138511280Y-126014480D03*
X136011920Y-126014480D03*
D33*
X117144800Y-122910600D03*
X117195600Y-130657600D03*
X117170200Y-128727200D03*
X117144800Y-126796800D03*
X117144800Y-124815600D03*
D30*
X126141400Y-109321600D03*
X128041400Y-109321600D03*
D31*
X133527800Y-114924800D03*
X133527800Y-116824800D03*
D34*
X112522000Y-126214800D03*
X112522000Y-123314800D03*
D35*
X122107960Y-137275000D03*
X122107960Y-135775000D03*
D10*
G36*
X121732960Y-135391200D02*
X122482960Y-135941200D01*
X122482960Y-135991200D01*
X121732960Y-136541200D01*
X121732960Y-135391200D01*
X121732960Y-135391200D01*
G37*
G36*
X122482960Y-136541200D02*
X121732960Y-135991200D01*
X121732960Y-135941200D01*
X122482960Y-135391200D01*
X122482960Y-136541200D01*
X122482960Y-136541200D01*
G37*
G36*
X122107920Y-136533000D02*
X122483920Y-136833000D01*
X122483920Y-137233000D01*
X122107920Y-137533000D01*
X122107920Y-136533000D01*
X122107920Y-136533000D01*
G37*
G36*
X122108000Y-137533000D02*
X121732000Y-137233000D01*
X121732000Y-136833000D01*
X122108000Y-136533000D01*
X122108000Y-137533000D01*
X122108000Y-137533000D01*
G37*
D35*
X131683760Y-137224200D03*
X131683760Y-135724200D03*
D10*
G36*
X131308760Y-135340400D02*
X132058760Y-135890400D01*
X132058760Y-135940400D01*
X131308760Y-136490400D01*
X131308760Y-135340400D01*
X131308760Y-135340400D01*
G37*
G36*
X132058760Y-136490400D02*
X131308760Y-135940400D01*
X131308760Y-135890400D01*
X132058760Y-135340400D01*
X132058760Y-136490400D01*
X132058760Y-136490400D01*
G37*
G36*
X131683720Y-136482200D02*
X132059720Y-136782200D01*
X132059720Y-137182200D01*
X131683720Y-137482200D01*
X131683720Y-136482200D01*
X131683720Y-136482200D01*
G37*
G36*
X131683800Y-137482200D02*
X131307800Y-137182200D01*
X131307800Y-136782200D01*
X131683800Y-136482200D01*
X131683800Y-137482200D01*
X131683800Y-137482200D01*
G37*
D35*
X119694960Y-137275000D03*
X119694960Y-135775000D03*
D10*
G36*
X119319960Y-135391200D02*
X120069960Y-135941200D01*
X120069960Y-135991200D01*
X119319960Y-136541200D01*
X119319960Y-135391200D01*
X119319960Y-135391200D01*
G37*
G36*
X120069960Y-136541200D02*
X119319960Y-135991200D01*
X119319960Y-135941200D01*
X120069960Y-135391200D01*
X120069960Y-136541200D01*
X120069960Y-136541200D01*
G37*
G36*
X119694920Y-136533000D02*
X120070920Y-136833000D01*
X120070920Y-137233000D01*
X119694920Y-137533000D01*
X119694920Y-136533000D01*
X119694920Y-136533000D01*
G37*
G36*
X119695000Y-137533000D02*
X119319000Y-137233000D01*
X119319000Y-136833000D01*
X119695000Y-136533000D01*
X119695000Y-137533000D01*
X119695000Y-137533000D01*
G37*
D35*
X129296160Y-137224200D03*
X129296160Y-135724200D03*
D10*
G36*
X128921160Y-135340400D02*
X129671160Y-135890400D01*
X129671160Y-135940400D01*
X128921160Y-136490400D01*
X128921160Y-135340400D01*
X128921160Y-135340400D01*
G37*
G36*
X129671160Y-136490400D02*
X128921160Y-135940400D01*
X128921160Y-135890400D01*
X129671160Y-135340400D01*
X129671160Y-136490400D01*
X129671160Y-136490400D01*
G37*
G36*
X129296120Y-136482200D02*
X129672120Y-136782200D01*
X129672120Y-137182200D01*
X129296120Y-137482200D01*
X129296120Y-136482200D01*
X129296120Y-136482200D01*
G37*
G36*
X129296200Y-137482200D02*
X128920200Y-137182200D01*
X128920200Y-136782200D01*
X129296200Y-136482200D01*
X129296200Y-137482200D01*
X129296200Y-137482200D01*
G37*
D35*
X120904000Y-137275000D03*
X120904000Y-135775000D03*
D10*
G36*
X120529000Y-135391200D02*
X121279000Y-135941200D01*
X121279000Y-135991200D01*
X120529000Y-136541200D01*
X120529000Y-135391200D01*
X120529000Y-135391200D01*
G37*
G36*
X121279000Y-136541200D02*
X120529000Y-135991200D01*
X120529000Y-135941200D01*
X121279000Y-135391200D01*
X121279000Y-136541200D01*
X121279000Y-136541200D01*
G37*
G36*
X120903960Y-136533000D02*
X121279960Y-136833000D01*
X121279960Y-137233000D01*
X120903960Y-137533000D01*
X120903960Y-136533000D01*
X120903960Y-136533000D01*
G37*
G36*
X120904040Y-137533000D02*
X120528040Y-137233000D01*
X120528040Y-136833000D01*
X120904040Y-136533000D01*
X120904040Y-137533000D01*
X120904040Y-137533000D01*
G37*
D35*
X130489960Y-137224200D03*
X130489960Y-135724200D03*
D10*
G36*
X130114960Y-135340400D02*
X130864960Y-135890400D01*
X130864960Y-135940400D01*
X130114960Y-136490400D01*
X130114960Y-135340400D01*
X130114960Y-135340400D01*
G37*
G36*
X130864960Y-136490400D02*
X130114960Y-135940400D01*
X130114960Y-135890400D01*
X130864960Y-135340400D01*
X130864960Y-136490400D01*
X130864960Y-136490400D01*
G37*
G36*
X130489920Y-136482200D02*
X130865920Y-136782200D01*
X130865920Y-137182200D01*
X130489920Y-137482200D01*
X130489920Y-136482200D01*
X130489920Y-136482200D01*
G37*
G36*
X130490000Y-137482200D02*
X130114000Y-137182200D01*
X130114000Y-136782200D01*
X130490000Y-136482200D01*
X130490000Y-137482200D01*
X130490000Y-137482200D01*
G37*
D35*
X128092200Y-137249600D03*
X128092200Y-135749600D03*
D10*
G36*
X127717200Y-135365800D02*
X128467200Y-135915800D01*
X128467200Y-135965800D01*
X127717200Y-136515800D01*
X127717200Y-135365800D01*
X127717200Y-135365800D01*
G37*
G36*
X128467200Y-136515800D02*
X127717200Y-135965800D01*
X127717200Y-135915800D01*
X128467200Y-135365800D01*
X128467200Y-136515800D01*
X128467200Y-136515800D01*
G37*
G36*
X128092160Y-136507600D02*
X128468160Y-136807600D01*
X128468160Y-137207600D01*
X128092160Y-137507600D01*
X128092160Y-136507600D01*
X128092160Y-136507600D01*
G37*
G36*
X128092240Y-137507600D02*
X127716240Y-137207600D01*
X127716240Y-136807600D01*
X128092240Y-136507600D01*
X128092240Y-137507600D01*
X128092240Y-137507600D01*
G37*
D35*
X126888240Y-137249600D03*
X126888240Y-135749600D03*
D10*
G36*
X126513240Y-135365800D02*
X127263240Y-135915800D01*
X127263240Y-135965800D01*
X126513240Y-136515800D01*
X126513240Y-135365800D01*
X126513240Y-135365800D01*
G37*
G36*
X127263240Y-136515800D02*
X126513240Y-135965800D01*
X126513240Y-135915800D01*
X127263240Y-135365800D01*
X127263240Y-136515800D01*
X127263240Y-136515800D01*
G37*
G36*
X126888200Y-136507600D02*
X127264200Y-136807600D01*
X127264200Y-137207600D01*
X126888200Y-137507600D01*
X126888200Y-136507600D01*
X126888200Y-136507600D01*
G37*
G36*
X126888280Y-137507600D02*
X126512280Y-137207600D01*
X126512280Y-136807600D01*
X126888280Y-136507600D01*
X126888280Y-137507600D01*
X126888280Y-137507600D01*
G37*
D35*
X125679200Y-137249600D03*
X125679200Y-135749600D03*
D10*
G36*
X125304200Y-135365800D02*
X126054200Y-135915800D01*
X126054200Y-135965800D01*
X125304200Y-136515800D01*
X125304200Y-135365800D01*
X125304200Y-135365800D01*
G37*
G36*
X126054200Y-136515800D02*
X125304200Y-135965800D01*
X125304200Y-135915800D01*
X126054200Y-135365800D01*
X126054200Y-136515800D01*
X126054200Y-136515800D01*
G37*
G36*
X125679160Y-136507600D02*
X126055160Y-136807600D01*
X126055160Y-137207600D01*
X125679160Y-137507600D01*
X125679160Y-136507600D01*
X125679160Y-136507600D01*
G37*
G36*
X125679240Y-137507600D02*
X125303240Y-137207600D01*
X125303240Y-136807600D01*
X125679240Y-136507600D01*
X125679240Y-137507600D01*
X125679240Y-137507600D01*
G37*
D35*
X124485400Y-137261600D03*
X124485400Y-135761600D03*
D10*
G36*
X124110400Y-135377800D02*
X124860400Y-135927800D01*
X124860400Y-135977800D01*
X124110400Y-136527800D01*
X124110400Y-135377800D01*
X124110400Y-135377800D01*
G37*
G36*
X124860400Y-136527800D02*
X124110400Y-135977800D01*
X124110400Y-135927800D01*
X124860400Y-135377800D01*
X124860400Y-136527800D01*
X124860400Y-136527800D01*
G37*
G36*
X124485360Y-136519600D02*
X124861360Y-136819600D01*
X124861360Y-137219600D01*
X124485360Y-137519600D01*
X124485360Y-136519600D01*
X124485360Y-136519600D01*
G37*
G36*
X124485440Y-137519600D02*
X124109440Y-137219600D01*
X124109440Y-136819600D01*
X124485440Y-136519600D01*
X124485440Y-137519600D01*
X124485440Y-137519600D01*
G37*
D35*
X123291600Y-137275000D03*
X123291600Y-135775000D03*
D10*
G36*
X122916600Y-135391200D02*
X123666600Y-135941200D01*
X123666600Y-135991200D01*
X122916600Y-136541200D01*
X122916600Y-135391200D01*
X122916600Y-135391200D01*
G37*
G36*
X123666600Y-136541200D02*
X122916600Y-135991200D01*
X122916600Y-135941200D01*
X123666600Y-135391200D01*
X123666600Y-136541200D01*
X123666600Y-136541200D01*
G37*
G36*
X123291560Y-136533000D02*
X123667560Y-136833000D01*
X123667560Y-137233000D01*
X123291560Y-137533000D01*
X123291560Y-136533000D01*
X123291560Y-136533000D01*
G37*
G36*
X123291640Y-137533000D02*
X122915640Y-137233000D01*
X122915640Y-136833000D01*
X123291640Y-136533000D01*
X123291640Y-137533000D01*
X123291640Y-137533000D01*
G37*
D20*
X125441200Y-113969800D03*
X127441200Y-113969800D03*
D36*
X104337500Y-146304000D03*
X96750000Y-146304000D03*
X89150000Y-146304000D03*
X81550000Y-146304000D03*
X73925000Y-146304000D03*
D37*
X109250000Y-146304000D03*
X111800000Y-146304000D03*
X114350000Y-146304000D03*
X116900000Y-146304000D03*
X119450000Y-146304000D03*
X122000000Y-146304000D03*
X124550000Y-146304000D03*
X127100000Y-146304000D03*
X129625000Y-146304000D03*
X132150000Y-146304000D03*
M02*
