M48
;DRILL file {KiCad 4.0.4-stable} date 05/10/17 13:17:53
;FORMAT={-:-/ absolute / inch / decimal}
FMAT,2
INCH,TZ
T1C0.010
T2C0.020
%
G90
G05
M72
T1
X2.5787Y-4.9213
X2.5787Y-4.9803
X2.5787Y-5.0394
X2.5787Y-5.0984
X2.5787Y-5.1476
X2.582Y-5.441
X2.5984Y-4.3307
X2.5984Y-4.3898
X2.5984Y-4.4488
X2.5984Y-4.5079
X2.6083Y-4.0354
X2.6245Y-4.677
X2.628Y-5.2362
X2.628Y-5.2854
X2.6378Y-4.9213
X2.6378Y-4.9803
X2.6378Y-5.0689
X2.6575Y-4.0748
X2.6575Y-4.3307
X2.6772Y-4.0256
X2.6772Y-4.7244
X2.6772Y-5.2362
X2.6772Y-5.2854
X2.6772Y-5.3346
X2.6969Y-4.9213
X2.6969Y-5.0295
X2.6969Y-5.5217
X2.7067Y-4.1142
X2.7165Y-4.626
X2.7264Y-4.3209
X2.7264Y-4.7244
X2.7264Y-5.2362
X2.7264Y-5.2854
X2.7264Y-5.3346
X2.7362Y-4.5472
X2.7362Y-5.561
X2.7461Y-4.9213
X2.7461Y-4.9803
X2.7461Y-5.0295
X2.7461Y-5.5217
X2.7559Y-4.0256
X2.7559Y-4.1634
X2.7559Y-4.2421
X2.7657Y-5.6004
X2.7756Y-4.7244
X2.7756Y-5.2362
X2.7756Y-5.2854
X2.7756Y-5.3346
X2.7953Y-4.9213
X2.7953Y-5.0295
X2.7953Y-5.5217
X2.7953Y-5.6299
X2.8051Y-4.4882
X2.8051Y-4.5472
X2.8051Y-4.626
X2.8248Y-4.7244
X2.8248Y-5.2362
X2.8248Y-5.2854
X2.8248Y-5.3346
X2.8248Y-5.5709
X2.8248Y-5.6693
X2.8248Y-5.7185
X2.8445Y-4.9213
X2.8445Y-4.9803
X2.8445Y-5.0295
X2.8445Y-5.5217
X2.8543Y-5.6299
X2.8642Y-4.4587
X2.8642Y-4.5177
X2.8642Y-4.5768
X2.8642Y-4.626
X2.874Y-4.7244
X2.874Y-5.2362
X2.874Y-5.2854
X2.874Y-5.3346
X2.8839Y-5.6693
X2.8839Y-5.7185
X2.8937Y-4.9213
X2.8937Y-5.0295
X2.8937Y-5.5217
X2.9035Y-4.4587
X2.9035Y-4.5177
X2.9035Y-4.5768
X2.9035Y-4.626
X2.9035Y-5.6299
X2.9134Y-5.5709
X2.9232Y-4.7244
X2.9232Y-5.2362
X2.9232Y-5.2854
X2.9232Y-5.3346
X2.9331Y-5.6693
X2.9331Y-5.7185
X2.9528Y-4.9213
X2.9528Y-4.9705
X2.9528Y-5.0295
X2.9528Y-5.5217
X2.9528Y-5.6299
X2.9921Y-5.5709
X2.9921Y-5.6693
X2.9921Y-5.7185
X3.002Y-5.6299
X3.0042Y-5.4459
X3.0118Y-4.9213
X3.0118Y-5.0295
X3.013Y-4.7335
X3.0413Y-4.9803
X3.061Y-4.4587
X3.061Y-4.5177
X3.061Y-4.5768
X3.061Y-4.6358
X3.061Y-4.685
X3.0709Y-4.9213
X3.0709Y-5.0295
X3.0709Y-5.5118
X3.0906Y-5.5709
X3.1102Y-5.6693
X3.1102Y-5.7185
X3.1201Y-4.4587
X3.1201Y-4.5177
X3.1201Y-4.5768
X3.1201Y-4.6358
X3.1201Y-4.685
X3.1201Y-4.7244
X3.1201Y-5.2362
X3.1201Y-5.2854
X3.1201Y-5.3346
X3.1201Y-5.5118
X3.1201Y-5.6299
X3.1299Y-4.9213
X3.1299Y-4.9803
X3.1299Y-5.0295
X3.1398Y-4.3209
X3.1594Y-4.4587
X3.1594Y-4.5177
X3.1594Y-4.5768
X3.1594Y-4.6358
X3.1693Y-4.685
X3.1693Y-4.7244
X3.1693Y-5.2362
X3.1693Y-5.2854
X3.1693Y-5.3346
X3.1693Y-5.5118
X3.1693Y-5.5709
X3.1693Y-5.6299
X3.1693Y-5.6693
X3.1693Y-5.7185
X3.1791Y-4.2717
X3.1791Y-4.9213
X3.1791Y-5.0295
X3.189Y-4.3209
X3.2185Y-4.685
X3.2185Y-4.7244
X3.2185Y-5.2362
X3.2185Y-5.2854
X3.2185Y-5.3346
X3.2185Y-5.5118
X3.2185Y-5.6299
X3.2283Y-4.4587
X3.2283Y-4.5177
X3.2283Y-4.5768
X3.2283Y-4.6358
X3.2283Y-4.9213
X3.2283Y-4.9803
X3.2283Y-5.0295
X3.2382Y-4.2717
X3.2382Y-5.6693
X3.2382Y-5.7185
X3.2677Y-4.685
X3.2677Y-4.7244
X3.2677Y-5.2362
X3.2677Y-5.2854
X3.2677Y-5.3346
X3.2677Y-5.5118
X3.2677Y-5.5709
X3.2677Y-5.6299
X3.2776Y-4.9213
X3.2776Y-5.0295
X3.2972Y-4.4587
X3.2972Y-4.5177
X3.2972Y-4.5768
X3.2972Y-4.6358
X3.2972Y-5.6693
X3.2972Y-5.7185
X3.3169Y-4.685
X3.3169Y-4.7244
X3.3169Y-5.2362
X3.3169Y-5.2854
X3.3169Y-5.3346
X3.3169Y-5.6299
X3.3185Y-5.5121
X3.3268Y-4.9213
X3.3268Y-4.9803
X3.3268Y-5.0295
X3.3366Y-4.4587
X3.3366Y-4.5177
X3.3366Y-4.5768
X3.3366Y-4.6358
X3.3465Y-5.5709
X3.3563Y-4.685
X3.3563Y-4.7244
X3.3661Y-5.2362
X3.3661Y-5.2854
X3.3661Y-5.3346
X3.3661Y-5.5121
X3.3858Y-4.9213
X3.3858Y-5.0295
X3.3957Y-4.9803
X3.4252Y-5.6299
X3.4252Y-5.6693
X3.4252Y-5.7185
X3.4365Y-5.4437
X3.444Y-4.2571
X3.4449Y-4.9213
X3.4449Y-5.0295
X3.4449Y-5.5709
X3.4843Y-5.6299
X3.4843Y-5.6693
X3.4843Y-5.7185
X3.4941Y-4.9213
X3.4941Y-4.9705
X3.4941Y-5.0295
X3.496Y-4.389
X3.5039Y-5.5709
X3.5138Y-5.5118
X3.5433Y-4.3209
X3.5433Y-4.9213
X3.5433Y-5.0295
X3.5433Y-5.6299
X3.5433Y-5.6693
X3.5433Y-5.7185
X3.5531Y-4.4587
X3.5531Y-4.5177
X3.5531Y-4.5768
X3.5531Y-4.6358
X3.563Y-4.7244
X3.563Y-5.2362
X3.563Y-5.2854
X3.563Y-5.3346
X3.563Y-5.5118
X3.563Y-5.5709
X3.5925Y-4.4587
X3.5925Y-4.5177
X3.5925Y-4.5768
X3.5925Y-4.6358
X3.5925Y-4.9213
X3.5925Y-4.9705
X3.5925Y-5.0295
X3.6024Y-5.6299
X3.6024Y-5.6693
X3.6024Y-5.7185
X3.6122Y-4.7244
X3.6122Y-5.2362
X3.6122Y-5.2854
X3.6122Y-5.3346
X3.6122Y-5.5118
X3.622Y-5.561
X3.6417Y-4.9213
X3.6417Y-5.0295
X3.6417Y-5.6004
X3.6614Y-4.7244
X3.6614Y-5.2362
X3.6614Y-5.2854
X3.6614Y-5.3346
X3.6614Y-5.5118
X3.6811Y-4.3799
X3.6909Y-4.9213
X3.6909Y-4.9705
X3.6909Y-5.0295
X3.6909Y-5.561
X3.7106Y-4.7244
X3.7106Y-5.2362
X3.7106Y-5.2854
X3.7106Y-5.3346
X3.7106Y-5.5118
X3.7205Y-4.3602
X3.7205Y-4.4094
X3.7303Y-5.63
X3.7303Y-5.6693
X3.7303Y-5.7185
X3.7402Y-4.9213
X3.7598Y-4.3799
X3.7598Y-4.439
X3.7598Y-4.7244
X3.7598Y-5.0295
X3.7598Y-5.2362
X3.7598Y-5.2854
X3.7598Y-5.3346
X3.7598Y-5.5118
X3.7795Y-5.5906
X3.7795Y-5.6299
X3.7795Y-5.6693
X3.7795Y-5.7185
X3.7894Y-4.4094
X3.7894Y-4.9213
X3.7894Y-5.
X3.7992Y-4.7244
X3.8091Y-5.2362
X3.8091Y-5.2854
X3.8091Y-5.3346
X3.8189Y-4.9705
X3.8189Y-5.5512
X3.8287Y-5.6299
X3.8287Y-5.6693
X3.8287Y-5.7185
X3.8386Y-5.5906
X3.8484Y-4.9409
X3.8681Y-4.5768
X3.8681Y-4.6161
X3.8681Y-5.502
X3.878Y-4.5374
X3.878Y-4.9114
X3.878Y-5.6299
X3.878Y-5.6693
X3.878Y-5.7185
X3.8878Y-4.872
X3.8878Y-5.5906
X3.89Y-4.2245
X3.9075Y-4.6555
X3.9215Y-4.3098
X3.9272Y-4.5669
X3.9272Y-4.6063
X3.9272Y-4.7244
X3.9272Y-5.1673
X3.9272Y-5.2461
X3.9272Y-5.315
X3.9272Y-5.3839
X3.9272Y-5.4528
X3.9272Y-5.6299
X3.932Y-4.828
X3.9469Y-4.6752
X3.9567Y-5.5906
X3.9676Y-4.8396
X3.9764Y-4.5768
X3.9764Y-4.6358
X3.9764Y-5.1083
X3.9764Y-5.1575
X3.9862Y-4.685
X3.9862Y-5.5512
X4.0157Y-5.502
X4.0157Y-5.6299
X4.0157Y-5.6693
X4.0157Y-5.7185
X4.0256Y-4.5768
X4.0256Y-5.1181
X4.0354Y-4.6358
X4.0354Y-5.0591
X4.0354Y-5.5807
X4.0551Y-5.4528
X4.065Y-5.6299
X4.065Y-5.6693
X4.065Y-5.7185
X4.0748Y-5.0197
X4.0748Y-5.1083
X4.0748Y-5.1673
X4.0748Y-5.2461
X4.0748Y-5.315
X4.0748Y-5.3839
X4.0748Y-5.5315
X4.0916Y-4.3058
X4.093Y-4.572
X4.1043Y-5.5807
X4.1142Y-5.4724
X4.1142Y-5.6299
X4.1142Y-5.6693
X4.1142Y-5.7185
X4.1339Y-5.0197
X4.1339Y-5.1083
X4.1339Y-5.1673
X4.1339Y-5.2461
X4.1339Y-5.315
X4.1339Y-5.3839
X4.1437Y-4.9705
X4.1634Y-5.6299
X4.1634Y-5.6693
X4.1634Y-5.7185
X4.1645Y-4.317
X4.1732Y-5.5807
X4.1929Y-5.0197
X4.2028Y-4.8917
X4.2126Y-5.6299
X4.2146Y-4.3894
X4.2307Y-4.3248
X4.2323Y-5.0689
X4.2358Y-4.8549
X4.24Y-4.1305
X4.2421Y-4.9213
X4.2421Y-5.5807
X4.2433Y-4.4471
X4.2717Y-4.8228
X4.2717Y-4.8917
X4.2717Y-4.9606
X4.2717Y-5.1083
X4.2717Y-5.1673
X4.2717Y-5.2461
X4.2717Y-5.315
X4.2717Y-5.3839
X4.2717Y-5.4528
X4.2717Y-5.5217
X4.3012Y-4.8622
X4.311Y-4.7933
X4.3127Y-5.0676
X4.3275Y-4.5635
X4.3406Y-4.7539
X4.3504Y-4.6949
X4.3602Y-4.8031
X4.3602Y-4.8622
X4.367Y-5.459
X4.3965Y-4.1269
X4.3996Y-4.7539
X4.4187Y-5.3075
X4.4488Y-4.6949
X4.4615Y-5.5386
X4.4633Y-4.2329
X4.469Y-5.388
X4.4826Y-4.4398
X4.4912Y-4.2361
X4.5194Y-4.4381
X4.5212Y-4.5753
X4.541Y-4.659
X4.5464Y-5.4362
X4.5468Y-4.102
X4.5565Y-4.61
X4.575Y-4.096
X4.577Y-4.237
X4.582Y-4.427
X4.6029Y-4.537
X4.6119Y-4.2297
X4.6131Y-5.2655
X4.618Y-5.1822
X4.622Y-4.727
X4.6325Y-4.0786
X4.637Y-4.566
X4.641Y-4.2296
X4.646Y-5.467
X4.6464Y-5.5934
X4.656Y-4.867
X4.6583Y-4.5468
X4.6584Y-4.9235
X4.6608Y-5.042
X4.6613Y-4.6072
X4.666Y-4.9656
X4.669Y-4.2299
X4.6701Y-4.8982
X4.672Y-4.825
X4.6748Y-5.3377
X4.6789Y-4.4339
X4.6805Y-4.0385
X4.681Y-5.5934
X4.683Y-5.485
X4.6923Y-4.1066
X4.7023Y-4.5798
X4.7043Y-4.5417
X4.715Y-4.2278
X4.722Y-4.436
X4.7253Y-4.6018
X4.73Y-4.6915
X4.734Y-4.808
X4.7358Y-4.5363
X4.7383Y-4.1018
X4.7469Y-5.5893
X4.7621Y-4.9952
X4.7629Y-4.1153
X4.771Y-5.31
X4.7736Y-4.9695
X4.778Y-4.436
X4.7801Y-4.549
X4.7811Y-4.9375
X4.7859Y-5.2528
X4.7865Y-4.2263
X4.7894Y-4.1004
X4.792Y-4.873
X4.8126Y-5.1451
X4.813Y-4.0157
X4.819Y-4.573
X4.8193Y-5.5296
X4.8205Y-4.0895
X4.8239Y-5.611
X4.825Y-5.439
X4.8304Y-4.4271
X4.8349Y-4.8291
X4.8386Y-4.9432
X4.8388Y-4.6931
X4.843Y-5.163
X4.8431Y-5.5505
X4.844Y-4.894
X4.8512Y-4.572
X4.855Y-5.0779
X4.855Y-5.302
X4.861Y-4.713
X4.862Y-4.1204
X4.8622Y-4.0157
X4.863Y-4.811
X4.87Y-5.621
X4.892Y-4.572
X4.8921Y-5.4365
X4.8927Y-4.1229
X4.8939Y-5.3072
X4.9069Y-4.4112
X4.9114Y-4.0157
X4.918Y-5.1657
X4.9208Y-4.4379
X4.931Y-4.572
X4.9349Y-5.4704
X4.937Y-4.6359
X4.937Y-4.7018
X4.9387Y-4.2181
X4.9421Y-4.2458
X4.95Y-5.442
X4.953Y-5.306
X4.956Y-4.6649
X4.957Y-5.154
X4.9606Y-4.0157
X4.9658Y-4.6911
X4.9698Y-5.6203
X4.9705Y-4.5345
X4.9822Y-4.8117
X4.998Y-5.026
X5.001Y-4.31
X5.0031Y-5.4647
X5.0098Y-4.0157
X5.01Y-4.808
X5.011Y-4.894
X5.011Y-5.0779
X5.015Y-5.27
X5.02Y-4.254
X5.0274Y-4.8302
X5.033Y-5.446
X5.0368Y-4.9197
X5.037Y-5.161
X5.049Y-5.258
X5.057Y-5.026
X5.0591Y-4.0157
X5.067Y-4.864
X5.0693Y-5.621
X5.0761Y-5.433
X5.0773Y-5.3013
X5.083Y-4.647
X5.108Y-5.263
X5.111Y-4.9173
X5.121Y-5.183
X5.133Y-5.233
X5.1497Y-5.5082
X5.1597Y-5.585
X5.16Y-4.664
X5.1698Y-5.6203
X5.193Y-5.16
X5.195Y-4.665
X5.224Y-4.941
X5.2276Y-4.977
X5.2598Y-4.0157
X5.2835Y-4.1614
X5.296Y-4.667
X5.3189Y-4.0157
X5.3307Y-4.126
X5.3543Y-4.3268
X5.374Y-4.0157
X5.378Y-4.0945
X5.4016Y-4.3268
X5.4213Y-5.2559
X5.4213Y-5.3307
X5.4291Y-4.0157
X5.4291Y-4.063
X5.4449Y-4.3268
X5.4449Y-4.3898
X5.4449Y-4.4488
X5.4449Y-4.5039
X5.4515Y-5.4485
T2
X4.336Y-5.314
X4.342Y-5.034
X4.382Y-5.528
X4.413Y-5.497
T0
M30
