G04 #@! TF.FileFunction,Copper,L2,Bot,Signal*
%FSLAX46Y46*%
G04 Gerber Fmt 4.6, Leading zero omitted, Abs format (unit mm)*
G04 Created by KiCad (PCBNEW 4.0.6) date Tue Sep  5 19:33:10 2017*
%MOMM*%
%LPD*%
G01*
G04 APERTURE LIST*
%ADD10C,0.150000*%
%ADD11R,6.070000X6.070000*%
%ADD12R,8.000000X8.000000*%
%ADD13O,1.597660X0.899160*%
%ADD14R,1.000000X1.000000*%
%ADD15O,1.000000X1.000000*%
%ADD16R,1.700000X1.700000*%
%ADD17O,1.700000X1.700000*%
%ADD18C,0.600000*%
%ADD19C,0.250000*%
%ADD20C,0.200000*%
%ADD21C,0.254000*%
G04 APERTURE END LIST*
D10*
D11*
X170400000Y-88200000D03*
X145740000Y-88200000D03*
D12*
X158070000Y-88200000D03*
D13*
X141400460Y-85102680D03*
X141400460Y-91701600D03*
D14*
X168060000Y-96100000D03*
D15*
X168060000Y-94830000D03*
X169330000Y-96100000D03*
X169330000Y-94830000D03*
X170600000Y-96100000D03*
X170600000Y-94830000D03*
X171870000Y-96100000D03*
X171870000Y-94830000D03*
X173140000Y-96100000D03*
X173140000Y-94830000D03*
D16*
X177600000Y-93540000D03*
D17*
X177600000Y-91000000D03*
X177600000Y-88460000D03*
X177600000Y-85920000D03*
X177600000Y-83380000D03*
X177600000Y-80840000D03*
D18*
X147798559Y-92513690D03*
X147338795Y-87863721D03*
X170400000Y-88200000D03*
X155935020Y-80071177D03*
X158500000Y-81600000D03*
X161590902Y-84635916D03*
X158600000Y-79525000D03*
X149300000Y-92400000D03*
X155200000Y-97100000D03*
X170200000Y-92400000D03*
X149000000Y-79700000D03*
X142600000Y-82100000D03*
X145300000Y-84000000D03*
X146000000Y-92600000D03*
X142100000Y-95700000D03*
X165100000Y-81000000D03*
X152380711Y-95974280D03*
X164500000Y-93100000D03*
X151126658Y-79414038D03*
X149600000Y-81600000D03*
X151244894Y-87655106D03*
D19*
X145740000Y-88200000D02*
X145740000Y-89723558D01*
X145740000Y-89723558D02*
X147498560Y-91482118D01*
X147498560Y-91482118D02*
X147498560Y-92213691D01*
X147498560Y-92213691D02*
X147798559Y-92513690D01*
X147038796Y-88163720D02*
X147338795Y-87863721D01*
X147002516Y-88200000D02*
X147038796Y-88163720D01*
X145740000Y-88200000D02*
X147002516Y-88200000D01*
D20*
X156235019Y-80371176D02*
X155935020Y-80071177D01*
X157463843Y-81600000D02*
X156235019Y-80371176D01*
X158500000Y-81600000D02*
X157463843Y-81600000D01*
D19*
X161625720Y-95974280D02*
X152804975Y-95974280D01*
X164500000Y-93100000D02*
X161625720Y-95974280D01*
X152804975Y-95974280D02*
X152380711Y-95974280D01*
X151126658Y-79838302D02*
X151126658Y-79414038D01*
X151126658Y-83126658D02*
X151126658Y-79838302D01*
X151300000Y-83300000D02*
X151126658Y-83126658D01*
X151300000Y-87175736D02*
X151300000Y-83300000D01*
X151300000Y-83300000D02*
X149600000Y-81600000D01*
X151244894Y-87655106D02*
X151244894Y-87230842D01*
X151244894Y-87230842D02*
X151300000Y-87175736D01*
D21*
G36*
X150191820Y-79227239D02*
X150191496Y-79599205D01*
X150333541Y-79942981D01*
X150366658Y-79976156D01*
X150366658Y-81044552D01*
X150130327Y-80807808D01*
X149786799Y-80665162D01*
X149414833Y-80664838D01*
X149071057Y-80806883D01*
X148807808Y-81069673D01*
X148665162Y-81413201D01*
X148664838Y-81785167D01*
X148806883Y-82128943D01*
X149069673Y-82392192D01*
X149413201Y-82534838D01*
X149460077Y-82534879D01*
X150540000Y-83614802D01*
X150540000Y-86953808D01*
X150519195Y-87058402D01*
X150452702Y-87124779D01*
X150310056Y-87468307D01*
X150309732Y-87840273D01*
X150451777Y-88184049D01*
X150714567Y-88447298D01*
X151058095Y-88589944D01*
X151430061Y-88590268D01*
X151773837Y-88448223D01*
X152037086Y-88185433D01*
X152179732Y-87841905D01*
X152180056Y-87469939D01*
X152059511Y-87178196D01*
X152060000Y-87175736D01*
X152060000Y-84200000D01*
X153422560Y-84200000D01*
X153422560Y-92200000D01*
X153466838Y-92435317D01*
X153605910Y-92651441D01*
X153818110Y-92796431D01*
X154070000Y-92847440D01*
X162070000Y-92847440D01*
X162305317Y-92803162D01*
X162521441Y-92664090D01*
X162666431Y-92451890D01*
X162717440Y-92200000D01*
X162717440Y-85165000D01*
X166717560Y-85165000D01*
X166717560Y-91235000D01*
X166761838Y-91470317D01*
X166900910Y-91686441D01*
X167113110Y-91831431D01*
X167365000Y-91882440D01*
X173435000Y-91882440D01*
X173670317Y-91838162D01*
X173886441Y-91699090D01*
X174031431Y-91486890D01*
X174082440Y-91235000D01*
X174082440Y-85165000D01*
X174038162Y-84929683D01*
X173899090Y-84713559D01*
X173686890Y-84568569D01*
X173435000Y-84517560D01*
X167365000Y-84517560D01*
X167129683Y-84561838D01*
X166913559Y-84700910D01*
X166768569Y-84913110D01*
X166717560Y-85165000D01*
X162717440Y-85165000D01*
X162717440Y-84200000D01*
X162673162Y-83964683D01*
X162534090Y-83748559D01*
X162321890Y-83603569D01*
X162070000Y-83552560D01*
X154070000Y-83552560D01*
X153834683Y-83596838D01*
X153618559Y-83735910D01*
X153473569Y-83948110D01*
X153422560Y-84200000D01*
X152060000Y-84200000D01*
X152060000Y-83300000D01*
X152002148Y-83009161D01*
X151886658Y-82836318D01*
X151886658Y-80256344D01*
X154999858Y-80256344D01*
X155141903Y-80600120D01*
X155404693Y-80863369D01*
X155748221Y-81006015D01*
X155830484Y-81006087D01*
X156944120Y-82119724D01*
X157182571Y-82279051D01*
X157463843Y-82335000D01*
X157912581Y-82335000D01*
X157969673Y-82392192D01*
X158313201Y-82534838D01*
X158685167Y-82535162D01*
X159028943Y-82393117D01*
X159292192Y-82130327D01*
X159434838Y-81786799D01*
X159435162Y-81414833D01*
X159293117Y-81071057D01*
X159030327Y-80807808D01*
X158686799Y-80665162D01*
X158314833Y-80664838D01*
X157971057Y-80806883D01*
X157912838Y-80865000D01*
X157768290Y-80865000D01*
X157386400Y-80483110D01*
X176158524Y-80483110D01*
X176279845Y-80713000D01*
X177473000Y-80713000D01*
X177473000Y-79519181D01*
X177243108Y-79398514D01*
X176718642Y-79644817D01*
X176328355Y-80073076D01*
X176158524Y-80483110D01*
X157386400Y-80483110D01*
X156870112Y-79966823D01*
X156870182Y-79886010D01*
X156728137Y-79542234D01*
X156465347Y-79278985D01*
X156121819Y-79136339D01*
X155749853Y-79136015D01*
X155406077Y-79278060D01*
X155142828Y-79540850D01*
X155000182Y-79884378D01*
X154999858Y-80256344D01*
X151886658Y-80256344D01*
X151886658Y-79976501D01*
X151918850Y-79944365D01*
X152061496Y-79600837D01*
X152061820Y-79228871D01*
X152012704Y-79110000D01*
X178990000Y-79110000D01*
X178990000Y-80358828D01*
X178871645Y-80073076D01*
X178481358Y-79644817D01*
X177956892Y-79398514D01*
X177727000Y-79519181D01*
X177727000Y-80713000D01*
X177747000Y-80713000D01*
X177747000Y-80967000D01*
X177727000Y-80967000D01*
X177727000Y-80987000D01*
X177473000Y-80987000D01*
X177473000Y-80967000D01*
X176279845Y-80967000D01*
X176158524Y-81196890D01*
X176328355Y-81606924D01*
X176718642Y-82035183D01*
X176861553Y-82102298D01*
X176520853Y-82329946D01*
X176198946Y-82811715D01*
X176085907Y-83380000D01*
X176198946Y-83948285D01*
X176520853Y-84430054D01*
X176850026Y-84650000D01*
X176520853Y-84869946D01*
X176198946Y-85351715D01*
X176085907Y-85920000D01*
X176198946Y-86488285D01*
X176520853Y-86970054D01*
X176850026Y-87190000D01*
X176520853Y-87409946D01*
X176198946Y-87891715D01*
X176085907Y-88460000D01*
X176198946Y-89028285D01*
X176520853Y-89510054D01*
X176850026Y-89730000D01*
X176520853Y-89949946D01*
X176198946Y-90431715D01*
X176085907Y-91000000D01*
X176198946Y-91568285D01*
X176520853Y-92050054D01*
X176562452Y-92077850D01*
X176514683Y-92086838D01*
X176298559Y-92225910D01*
X176153569Y-92438110D01*
X176102560Y-92690000D01*
X176102560Y-94390000D01*
X176146838Y-94625317D01*
X176285910Y-94841441D01*
X176498110Y-94986431D01*
X176750000Y-95037440D01*
X178450000Y-95037440D01*
X178685317Y-94993162D01*
X178901441Y-94854090D01*
X178990000Y-94724480D01*
X178990000Y-97690000D01*
X140410000Y-97690000D01*
X140410000Y-96159447D01*
X151445549Y-96159447D01*
X151587594Y-96503223D01*
X151850384Y-96766472D01*
X152193912Y-96909118D01*
X152565878Y-96909442D01*
X152909654Y-96767397D01*
X152942829Y-96734280D01*
X161625720Y-96734280D01*
X161916559Y-96676428D01*
X162163121Y-96511681D01*
X163074802Y-95600000D01*
X166912560Y-95600000D01*
X166912560Y-96600000D01*
X166956838Y-96835317D01*
X167095910Y-97051441D01*
X167308110Y-97196431D01*
X167560000Y-97247440D01*
X168560000Y-97247440D01*
X168795317Y-97203162D01*
X168895032Y-97138997D01*
X169028126Y-97194119D01*
X169203000Y-97067954D01*
X169203000Y-96621925D01*
X169207440Y-96600000D01*
X169207440Y-96227000D01*
X169457000Y-96227000D01*
X169457000Y-97067954D01*
X169631874Y-97194119D01*
X169890209Y-97087127D01*
X169965000Y-97022511D01*
X170039791Y-97087127D01*
X170298126Y-97194119D01*
X170473000Y-97067954D01*
X170473000Y-96227000D01*
X169457000Y-96227000D01*
X169207440Y-96227000D01*
X169207440Y-95962857D01*
X169330000Y-95987236D01*
X169457000Y-95961974D01*
X169457000Y-95973000D01*
X170473000Y-95973000D01*
X170473000Y-95961974D01*
X170600000Y-95987236D01*
X170727000Y-95961974D01*
X170727000Y-95973000D01*
X170747000Y-95973000D01*
X170747000Y-96017436D01*
X170735000Y-96077764D01*
X170735000Y-96122236D01*
X170747000Y-96182564D01*
X170747000Y-96227000D01*
X170727000Y-96227000D01*
X170727000Y-97067954D01*
X170901874Y-97194119D01*
X171160209Y-97087127D01*
X171225696Y-97030549D01*
X171435654Y-97170839D01*
X171870000Y-97257236D01*
X172304346Y-97170839D01*
X172505000Y-97036766D01*
X172705654Y-97170839D01*
X173140000Y-97257236D01*
X173574346Y-97170839D01*
X173942566Y-96924802D01*
X174188603Y-96556582D01*
X174275000Y-96122236D01*
X174275000Y-96077764D01*
X174188603Y-95643418D01*
X174069388Y-95465000D01*
X174188603Y-95286582D01*
X174275000Y-94852236D01*
X174275000Y-94807764D01*
X174188603Y-94373418D01*
X173942566Y-94005198D01*
X173574346Y-93759161D01*
X173140000Y-93672764D01*
X172705654Y-93759161D01*
X172505000Y-93893234D01*
X172304346Y-93759161D01*
X171870000Y-93672764D01*
X171435654Y-93759161D01*
X171235000Y-93893234D01*
X171034346Y-93759161D01*
X170600000Y-93672764D01*
X170165654Y-93759161D01*
X169965000Y-93893234D01*
X169764346Y-93759161D01*
X169330000Y-93672764D01*
X168895654Y-93759161D01*
X168695000Y-93893234D01*
X168494346Y-93759161D01*
X168060000Y-93672764D01*
X167625654Y-93759161D01*
X167257434Y-94005198D01*
X167011397Y-94373418D01*
X166925000Y-94807764D01*
X166925000Y-94852236D01*
X167010092Y-95280021D01*
X166963569Y-95348110D01*
X166912560Y-95600000D01*
X163074802Y-95600000D01*
X164639680Y-94035122D01*
X164685167Y-94035162D01*
X165028943Y-93893117D01*
X165292192Y-93630327D01*
X165434838Y-93286799D01*
X165435162Y-92914833D01*
X165293117Y-92571057D01*
X165030327Y-92307808D01*
X164686799Y-92165162D01*
X164314833Y-92164838D01*
X163971057Y-92306883D01*
X163707808Y-92569673D01*
X163565162Y-92913201D01*
X163565121Y-92960077D01*
X161310918Y-95214280D01*
X152943174Y-95214280D01*
X152911038Y-95182088D01*
X152567510Y-95039442D01*
X152195544Y-95039118D01*
X151851768Y-95181163D01*
X151588519Y-95443953D01*
X151445873Y-95787481D01*
X151445549Y-96159447D01*
X140410000Y-96159447D01*
X140410000Y-92571276D01*
X140608069Y-92703621D01*
X141023120Y-92786180D01*
X141777800Y-92786180D01*
X142192851Y-92703621D01*
X142544714Y-92468514D01*
X142779821Y-92116651D01*
X142826409Y-91882440D01*
X146738560Y-91882440D01*
X146738560Y-92213691D01*
X146796412Y-92504530D01*
X146863479Y-92604903D01*
X146863397Y-92698857D01*
X147005442Y-93042633D01*
X147268232Y-93305882D01*
X147611760Y-93448528D01*
X147983726Y-93448852D01*
X148327502Y-93306807D01*
X148590751Y-93044017D01*
X148733397Y-92700489D01*
X148733721Y-92328523D01*
X148591676Y-91984747D01*
X148489547Y-91882440D01*
X148775000Y-91882440D01*
X149010317Y-91838162D01*
X149226441Y-91699090D01*
X149371431Y-91486890D01*
X149422440Y-91235000D01*
X149422440Y-85165000D01*
X149378162Y-84929683D01*
X149239090Y-84713559D01*
X149026890Y-84568569D01*
X148775000Y-84517560D01*
X142705000Y-84517560D01*
X142670520Y-84524048D01*
X142544714Y-84335766D01*
X142192851Y-84100659D01*
X141777800Y-84018100D01*
X141023120Y-84018100D01*
X140608069Y-84100659D01*
X140410000Y-84233004D01*
X140410000Y-79110000D01*
X150240502Y-79110000D01*
X150191820Y-79227239D01*
X150191820Y-79227239D01*
G37*
X150191820Y-79227239D02*
X150191496Y-79599205D01*
X150333541Y-79942981D01*
X150366658Y-79976156D01*
X150366658Y-81044552D01*
X150130327Y-80807808D01*
X149786799Y-80665162D01*
X149414833Y-80664838D01*
X149071057Y-80806883D01*
X148807808Y-81069673D01*
X148665162Y-81413201D01*
X148664838Y-81785167D01*
X148806883Y-82128943D01*
X149069673Y-82392192D01*
X149413201Y-82534838D01*
X149460077Y-82534879D01*
X150540000Y-83614802D01*
X150540000Y-86953808D01*
X150519195Y-87058402D01*
X150452702Y-87124779D01*
X150310056Y-87468307D01*
X150309732Y-87840273D01*
X150451777Y-88184049D01*
X150714567Y-88447298D01*
X151058095Y-88589944D01*
X151430061Y-88590268D01*
X151773837Y-88448223D01*
X152037086Y-88185433D01*
X152179732Y-87841905D01*
X152180056Y-87469939D01*
X152059511Y-87178196D01*
X152060000Y-87175736D01*
X152060000Y-84200000D01*
X153422560Y-84200000D01*
X153422560Y-92200000D01*
X153466838Y-92435317D01*
X153605910Y-92651441D01*
X153818110Y-92796431D01*
X154070000Y-92847440D01*
X162070000Y-92847440D01*
X162305317Y-92803162D01*
X162521441Y-92664090D01*
X162666431Y-92451890D01*
X162717440Y-92200000D01*
X162717440Y-85165000D01*
X166717560Y-85165000D01*
X166717560Y-91235000D01*
X166761838Y-91470317D01*
X166900910Y-91686441D01*
X167113110Y-91831431D01*
X167365000Y-91882440D01*
X173435000Y-91882440D01*
X173670317Y-91838162D01*
X173886441Y-91699090D01*
X174031431Y-91486890D01*
X174082440Y-91235000D01*
X174082440Y-85165000D01*
X174038162Y-84929683D01*
X173899090Y-84713559D01*
X173686890Y-84568569D01*
X173435000Y-84517560D01*
X167365000Y-84517560D01*
X167129683Y-84561838D01*
X166913559Y-84700910D01*
X166768569Y-84913110D01*
X166717560Y-85165000D01*
X162717440Y-85165000D01*
X162717440Y-84200000D01*
X162673162Y-83964683D01*
X162534090Y-83748559D01*
X162321890Y-83603569D01*
X162070000Y-83552560D01*
X154070000Y-83552560D01*
X153834683Y-83596838D01*
X153618559Y-83735910D01*
X153473569Y-83948110D01*
X153422560Y-84200000D01*
X152060000Y-84200000D01*
X152060000Y-83300000D01*
X152002148Y-83009161D01*
X151886658Y-82836318D01*
X151886658Y-80256344D01*
X154999858Y-80256344D01*
X155141903Y-80600120D01*
X155404693Y-80863369D01*
X155748221Y-81006015D01*
X155830484Y-81006087D01*
X156944120Y-82119724D01*
X157182571Y-82279051D01*
X157463843Y-82335000D01*
X157912581Y-82335000D01*
X157969673Y-82392192D01*
X158313201Y-82534838D01*
X158685167Y-82535162D01*
X159028943Y-82393117D01*
X159292192Y-82130327D01*
X159434838Y-81786799D01*
X159435162Y-81414833D01*
X159293117Y-81071057D01*
X159030327Y-80807808D01*
X158686799Y-80665162D01*
X158314833Y-80664838D01*
X157971057Y-80806883D01*
X157912838Y-80865000D01*
X157768290Y-80865000D01*
X157386400Y-80483110D01*
X176158524Y-80483110D01*
X176279845Y-80713000D01*
X177473000Y-80713000D01*
X177473000Y-79519181D01*
X177243108Y-79398514D01*
X176718642Y-79644817D01*
X176328355Y-80073076D01*
X176158524Y-80483110D01*
X157386400Y-80483110D01*
X156870112Y-79966823D01*
X156870182Y-79886010D01*
X156728137Y-79542234D01*
X156465347Y-79278985D01*
X156121819Y-79136339D01*
X155749853Y-79136015D01*
X155406077Y-79278060D01*
X155142828Y-79540850D01*
X155000182Y-79884378D01*
X154999858Y-80256344D01*
X151886658Y-80256344D01*
X151886658Y-79976501D01*
X151918850Y-79944365D01*
X152061496Y-79600837D01*
X152061820Y-79228871D01*
X152012704Y-79110000D01*
X178990000Y-79110000D01*
X178990000Y-80358828D01*
X178871645Y-80073076D01*
X178481358Y-79644817D01*
X177956892Y-79398514D01*
X177727000Y-79519181D01*
X177727000Y-80713000D01*
X177747000Y-80713000D01*
X177747000Y-80967000D01*
X177727000Y-80967000D01*
X177727000Y-80987000D01*
X177473000Y-80987000D01*
X177473000Y-80967000D01*
X176279845Y-80967000D01*
X176158524Y-81196890D01*
X176328355Y-81606924D01*
X176718642Y-82035183D01*
X176861553Y-82102298D01*
X176520853Y-82329946D01*
X176198946Y-82811715D01*
X176085907Y-83380000D01*
X176198946Y-83948285D01*
X176520853Y-84430054D01*
X176850026Y-84650000D01*
X176520853Y-84869946D01*
X176198946Y-85351715D01*
X176085907Y-85920000D01*
X176198946Y-86488285D01*
X176520853Y-86970054D01*
X176850026Y-87190000D01*
X176520853Y-87409946D01*
X176198946Y-87891715D01*
X176085907Y-88460000D01*
X176198946Y-89028285D01*
X176520853Y-89510054D01*
X176850026Y-89730000D01*
X176520853Y-89949946D01*
X176198946Y-90431715D01*
X176085907Y-91000000D01*
X176198946Y-91568285D01*
X176520853Y-92050054D01*
X176562452Y-92077850D01*
X176514683Y-92086838D01*
X176298559Y-92225910D01*
X176153569Y-92438110D01*
X176102560Y-92690000D01*
X176102560Y-94390000D01*
X176146838Y-94625317D01*
X176285910Y-94841441D01*
X176498110Y-94986431D01*
X176750000Y-95037440D01*
X178450000Y-95037440D01*
X178685317Y-94993162D01*
X178901441Y-94854090D01*
X178990000Y-94724480D01*
X178990000Y-97690000D01*
X140410000Y-97690000D01*
X140410000Y-96159447D01*
X151445549Y-96159447D01*
X151587594Y-96503223D01*
X151850384Y-96766472D01*
X152193912Y-96909118D01*
X152565878Y-96909442D01*
X152909654Y-96767397D01*
X152942829Y-96734280D01*
X161625720Y-96734280D01*
X161916559Y-96676428D01*
X162163121Y-96511681D01*
X163074802Y-95600000D01*
X166912560Y-95600000D01*
X166912560Y-96600000D01*
X166956838Y-96835317D01*
X167095910Y-97051441D01*
X167308110Y-97196431D01*
X167560000Y-97247440D01*
X168560000Y-97247440D01*
X168795317Y-97203162D01*
X168895032Y-97138997D01*
X169028126Y-97194119D01*
X169203000Y-97067954D01*
X169203000Y-96621925D01*
X169207440Y-96600000D01*
X169207440Y-96227000D01*
X169457000Y-96227000D01*
X169457000Y-97067954D01*
X169631874Y-97194119D01*
X169890209Y-97087127D01*
X169965000Y-97022511D01*
X170039791Y-97087127D01*
X170298126Y-97194119D01*
X170473000Y-97067954D01*
X170473000Y-96227000D01*
X169457000Y-96227000D01*
X169207440Y-96227000D01*
X169207440Y-95962857D01*
X169330000Y-95987236D01*
X169457000Y-95961974D01*
X169457000Y-95973000D01*
X170473000Y-95973000D01*
X170473000Y-95961974D01*
X170600000Y-95987236D01*
X170727000Y-95961974D01*
X170727000Y-95973000D01*
X170747000Y-95973000D01*
X170747000Y-96017436D01*
X170735000Y-96077764D01*
X170735000Y-96122236D01*
X170747000Y-96182564D01*
X170747000Y-96227000D01*
X170727000Y-96227000D01*
X170727000Y-97067954D01*
X170901874Y-97194119D01*
X171160209Y-97087127D01*
X171225696Y-97030549D01*
X171435654Y-97170839D01*
X171870000Y-97257236D01*
X172304346Y-97170839D01*
X172505000Y-97036766D01*
X172705654Y-97170839D01*
X173140000Y-97257236D01*
X173574346Y-97170839D01*
X173942566Y-96924802D01*
X174188603Y-96556582D01*
X174275000Y-96122236D01*
X174275000Y-96077764D01*
X174188603Y-95643418D01*
X174069388Y-95465000D01*
X174188603Y-95286582D01*
X174275000Y-94852236D01*
X174275000Y-94807764D01*
X174188603Y-94373418D01*
X173942566Y-94005198D01*
X173574346Y-93759161D01*
X173140000Y-93672764D01*
X172705654Y-93759161D01*
X172505000Y-93893234D01*
X172304346Y-93759161D01*
X171870000Y-93672764D01*
X171435654Y-93759161D01*
X171235000Y-93893234D01*
X171034346Y-93759161D01*
X170600000Y-93672764D01*
X170165654Y-93759161D01*
X169965000Y-93893234D01*
X169764346Y-93759161D01*
X169330000Y-93672764D01*
X168895654Y-93759161D01*
X168695000Y-93893234D01*
X168494346Y-93759161D01*
X168060000Y-93672764D01*
X167625654Y-93759161D01*
X167257434Y-94005198D01*
X167011397Y-94373418D01*
X166925000Y-94807764D01*
X166925000Y-94852236D01*
X167010092Y-95280021D01*
X166963569Y-95348110D01*
X166912560Y-95600000D01*
X163074802Y-95600000D01*
X164639680Y-94035122D01*
X164685167Y-94035162D01*
X165028943Y-93893117D01*
X165292192Y-93630327D01*
X165434838Y-93286799D01*
X165435162Y-92914833D01*
X165293117Y-92571057D01*
X165030327Y-92307808D01*
X164686799Y-92165162D01*
X164314833Y-92164838D01*
X163971057Y-92306883D01*
X163707808Y-92569673D01*
X163565162Y-92913201D01*
X163565121Y-92960077D01*
X161310918Y-95214280D01*
X152943174Y-95214280D01*
X152911038Y-95182088D01*
X152567510Y-95039442D01*
X152195544Y-95039118D01*
X151851768Y-95181163D01*
X151588519Y-95443953D01*
X151445873Y-95787481D01*
X151445549Y-96159447D01*
X140410000Y-96159447D01*
X140410000Y-92571276D01*
X140608069Y-92703621D01*
X141023120Y-92786180D01*
X141777800Y-92786180D01*
X142192851Y-92703621D01*
X142544714Y-92468514D01*
X142779821Y-92116651D01*
X142826409Y-91882440D01*
X146738560Y-91882440D01*
X146738560Y-92213691D01*
X146796412Y-92504530D01*
X146863479Y-92604903D01*
X146863397Y-92698857D01*
X147005442Y-93042633D01*
X147268232Y-93305882D01*
X147611760Y-93448528D01*
X147983726Y-93448852D01*
X148327502Y-93306807D01*
X148590751Y-93044017D01*
X148733397Y-92700489D01*
X148733721Y-92328523D01*
X148591676Y-91984747D01*
X148489547Y-91882440D01*
X148775000Y-91882440D01*
X149010317Y-91838162D01*
X149226441Y-91699090D01*
X149371431Y-91486890D01*
X149422440Y-91235000D01*
X149422440Y-85165000D01*
X149378162Y-84929683D01*
X149239090Y-84713559D01*
X149026890Y-84568569D01*
X148775000Y-84517560D01*
X142705000Y-84517560D01*
X142670520Y-84524048D01*
X142544714Y-84335766D01*
X142192851Y-84100659D01*
X141777800Y-84018100D01*
X141023120Y-84018100D01*
X140608069Y-84100659D01*
X140410000Y-84233004D01*
X140410000Y-79110000D01*
X150240502Y-79110000D01*
X150191820Y-79227239D01*
M02*
