G04 #@! TF.FileFunction,Paste,Top*
%FSLAX46Y46*%
G04 Gerber Fmt 4.6, Leading zero omitted, Abs format (unit mm)*
G04 Created by KiCad (PCBNEW 4.0.6) date Tue Sep  5 19:33:10 2017*
%MOMM*%
%LPD*%
G01*
G04 APERTURE LIST*
%ADD10C,0.150000*%
%ADD11R,0.750000X0.800000*%
%ADD12R,0.800000X0.750000*%
%ADD13R,1.348740X0.398780*%
%ADD14O,1.597660X0.899160*%
%ADD15R,1.399540X1.597660*%
%ADD16R,1.899920X1.899920*%
%ADD17R,0.500000X0.900000*%
%ADD18R,0.900000X0.500000*%
%ADD19R,0.460000X0.650000*%
%ADD20R,1.049020X0.647700*%
%ADD21R,1.300000X0.250000*%
%ADD22R,0.250000X1.300000*%
%ADD23R,0.250000X0.675000*%
%ADD24R,0.675000X0.250000*%
%ADD25R,0.800000X0.350000*%
%ADD26R,1.500000X0.800000*%
G04 APERTURE END LIST*
D10*
D11*
X165400000Y-88350000D03*
X165400000Y-86850000D03*
D12*
X157500000Y-95100000D03*
X159000000Y-95100000D03*
X158200000Y-97000000D03*
X156700000Y-97000000D03*
D11*
X150800000Y-91350000D03*
X150800000Y-92850000D03*
X159700000Y-81550000D03*
X159700000Y-80050000D03*
X157200000Y-81500000D03*
X157200000Y-80000000D03*
X143800000Y-80250000D03*
X143800000Y-81750000D03*
X147000000Y-85750000D03*
X147000000Y-84250000D03*
D13*
X144070000Y-87104200D03*
X144070000Y-87754440D03*
X144070000Y-88402140D03*
X144070000Y-89049840D03*
X144070000Y-89700080D03*
D14*
X141400460Y-85102680D03*
X141400460Y-91701600D03*
D15*
X144070000Y-85204280D03*
X144070000Y-91600000D03*
D16*
X141395380Y-87203260D03*
X141395380Y-89601020D03*
D11*
X171500000Y-90200000D03*
X171500000Y-91700000D03*
D12*
X169000000Y-91700000D03*
X167500000Y-91700000D03*
X169050000Y-90000000D03*
X167550000Y-90000000D03*
D17*
X174750000Y-91600000D03*
X173250000Y-91600000D03*
D18*
X163700000Y-96450000D03*
X163700000Y-94950000D03*
D19*
X166900000Y-81200000D03*
X165900000Y-81200000D03*
X166400000Y-82250000D03*
D17*
X143150000Y-95700000D03*
X144650000Y-95700000D03*
X148600000Y-88300000D03*
X150100000Y-88300000D03*
X148600000Y-86400000D03*
X150100000Y-86400000D03*
D18*
X149700000Y-84550000D03*
X149700000Y-83050000D03*
D20*
X146927360Y-94951160D03*
X151072640Y-94951160D03*
X146927360Y-97100000D03*
X151072640Y-97100000D03*
D21*
X162300000Y-90981108D03*
X162300000Y-90481108D03*
X162300000Y-89981108D03*
X162300000Y-89481108D03*
X162300000Y-88981108D03*
X162300000Y-88481108D03*
X162300000Y-87981108D03*
X162300000Y-87481108D03*
X162300000Y-86981108D03*
X162300000Y-86481108D03*
X162300000Y-85981108D03*
X162300000Y-85481108D03*
D22*
X160700000Y-83881108D03*
X160200000Y-83881108D03*
X159700000Y-83881108D03*
X159200000Y-83881108D03*
X158700000Y-83881108D03*
X158200000Y-83881108D03*
X157700000Y-83881108D03*
X157200000Y-83881108D03*
X156700000Y-83881108D03*
X156200000Y-83881108D03*
X155700000Y-83881108D03*
X155200000Y-83881108D03*
D21*
X153600000Y-85481108D03*
X153600000Y-85981108D03*
X153600000Y-86481108D03*
X153600000Y-86981108D03*
X153600000Y-87481108D03*
X153600000Y-87981108D03*
X153600000Y-88481108D03*
X153600000Y-88981108D03*
X153600000Y-89481108D03*
X153600000Y-89981108D03*
X153600000Y-90481108D03*
X153600000Y-90981108D03*
D22*
X155200000Y-92581108D03*
X155700000Y-92581108D03*
X156200000Y-92581108D03*
X156700000Y-92581108D03*
X157200000Y-92581108D03*
X157700000Y-92581108D03*
X158200000Y-92581108D03*
X158700000Y-92581108D03*
X159200000Y-92581108D03*
X159700000Y-92581108D03*
X160200000Y-92581108D03*
X160700000Y-92581108D03*
D23*
X148000000Y-79875000D03*
X147500000Y-79875000D03*
X147000000Y-79875000D03*
X146500000Y-79875000D03*
D24*
X146237500Y-80637500D03*
X146237500Y-81137500D03*
X146237500Y-81637500D03*
D23*
X146500000Y-82400000D03*
X147000000Y-82400000D03*
X147500000Y-82400000D03*
X148000000Y-82400000D03*
D24*
X148262500Y-81637500D03*
X148262500Y-81137500D03*
X148262500Y-80637500D03*
D25*
X152700000Y-80950000D03*
X154600000Y-80950000D03*
X152700000Y-80300000D03*
X154600000Y-80300000D03*
X154600000Y-81600000D03*
X152700000Y-81600000D03*
X152700000Y-79650000D03*
X154600000Y-79650000D03*
D26*
X165300000Y-91550000D03*
X165300000Y-90050000D03*
M02*
