G04 #@! TF.FileFunction,Soldermask,Top*
%FSLAX46Y46*%
G04 Gerber Fmt 4.6, Leading zero omitted, Abs format (unit mm)*
G04 Created by KiCad (PCBNEW 4.0.6) date Tue Sep  5 19:33:10 2017*
%MOMM*%
%LPD*%
G01*
G04 APERTURE LIST*
%ADD10C,0.150000*%
%ADD11R,1.150000X1.200000*%
%ADD12R,1.200000X1.150000*%
%ADD13R,1.602740X0.652780*%
%ADD14O,1.997660X1.299160*%
%ADD15R,1.799540X1.997660*%
%ADD16R,2.299920X2.299920*%
%ADD17R,0.900000X1.300000*%
%ADD18R,1.300000X0.900000*%
%ADD19R,1.400000X1.400000*%
%ADD20O,1.400000X1.400000*%
%ADD21R,0.860000X1.050000*%
%ADD22R,1.303020X0.901700*%
%ADD23R,1.700000X0.650000*%
%ADD24R,0.650000X1.700000*%
%ADD25R,0.650000X1.075000*%
%ADD26R,1.075000X0.650000*%
%ADD27R,1.200000X0.750000*%
%ADD28R,1.900000X1.200000*%
%ADD29R,2.100000X2.100000*%
%ADD30O,2.100000X2.100000*%
G04 APERTURE END LIST*
D10*
D11*
X165400000Y-88350000D03*
X165400000Y-86850000D03*
D12*
X157500000Y-95100000D03*
X159000000Y-95100000D03*
X158200000Y-97000000D03*
X156700000Y-97000000D03*
D11*
X150800000Y-91350000D03*
X150800000Y-92850000D03*
X159700000Y-81550000D03*
X159700000Y-80050000D03*
X157200000Y-81500000D03*
X157200000Y-80000000D03*
X143800000Y-80250000D03*
X143800000Y-81750000D03*
X147000000Y-85750000D03*
X147000000Y-84250000D03*
D13*
X144070000Y-87104200D03*
X144070000Y-87754440D03*
X144070000Y-88402140D03*
X144070000Y-89049840D03*
X144070000Y-89700080D03*
D14*
X141400460Y-85102680D03*
X141400460Y-91701600D03*
D15*
X144070000Y-85204280D03*
X144070000Y-91600000D03*
D16*
X141395380Y-87203260D03*
X141395380Y-89601020D03*
D11*
X171500000Y-90200000D03*
X171500000Y-91700000D03*
D12*
X169000000Y-91700000D03*
X167500000Y-91700000D03*
X169050000Y-90000000D03*
X167550000Y-90000000D03*
D17*
X174750000Y-91600000D03*
X173250000Y-91600000D03*
D18*
X163700000Y-96450000D03*
X163700000Y-94950000D03*
D19*
X168060000Y-96100000D03*
D20*
X168060000Y-94830000D03*
X169330000Y-96100000D03*
X169330000Y-94830000D03*
X170600000Y-96100000D03*
X170600000Y-94830000D03*
X171870000Y-96100000D03*
X171870000Y-94830000D03*
X173140000Y-96100000D03*
X173140000Y-94830000D03*
D21*
X166900000Y-81200000D03*
X165900000Y-81200000D03*
X166400000Y-82250000D03*
D17*
X143150000Y-95700000D03*
X144650000Y-95700000D03*
X148600000Y-88300000D03*
X150100000Y-88300000D03*
X148600000Y-86400000D03*
X150100000Y-86400000D03*
D18*
X149700000Y-84550000D03*
X149700000Y-83050000D03*
D22*
X146927360Y-94951160D03*
X151072640Y-94951160D03*
X146927360Y-97100000D03*
X151072640Y-97100000D03*
D23*
X162300000Y-90981108D03*
X162300000Y-90481108D03*
X162300000Y-89981108D03*
X162300000Y-89481108D03*
X162300000Y-88981108D03*
X162300000Y-88481108D03*
X162300000Y-87981108D03*
X162300000Y-87481108D03*
X162300000Y-86981108D03*
X162300000Y-86481108D03*
X162300000Y-85981108D03*
X162300000Y-85481108D03*
D24*
X160700000Y-83881108D03*
X160200000Y-83881108D03*
X159700000Y-83881108D03*
X159200000Y-83881108D03*
X158700000Y-83881108D03*
X158200000Y-83881108D03*
X157700000Y-83881108D03*
X157200000Y-83881108D03*
X156700000Y-83881108D03*
X156200000Y-83881108D03*
X155700000Y-83881108D03*
X155200000Y-83881108D03*
D23*
X153600000Y-85481108D03*
X153600000Y-85981108D03*
X153600000Y-86481108D03*
X153600000Y-86981108D03*
X153600000Y-87481108D03*
X153600000Y-87981108D03*
X153600000Y-88481108D03*
X153600000Y-88981108D03*
X153600000Y-89481108D03*
X153600000Y-89981108D03*
X153600000Y-90481108D03*
X153600000Y-90981108D03*
D24*
X155200000Y-92581108D03*
X155700000Y-92581108D03*
X156200000Y-92581108D03*
X156700000Y-92581108D03*
X157200000Y-92581108D03*
X157700000Y-92581108D03*
X158200000Y-92581108D03*
X158700000Y-92581108D03*
X159200000Y-92581108D03*
X159700000Y-92581108D03*
X160200000Y-92581108D03*
X160700000Y-92581108D03*
D25*
X148000000Y-79875000D03*
X147500000Y-79875000D03*
X147000000Y-79875000D03*
X146500000Y-79875000D03*
D26*
X146237500Y-80637500D03*
X146237500Y-81137500D03*
X146237500Y-81637500D03*
D25*
X146500000Y-82400000D03*
X147000000Y-82400000D03*
X147500000Y-82400000D03*
X148000000Y-82400000D03*
D26*
X148262500Y-81637500D03*
X148262500Y-81137500D03*
X148262500Y-80637500D03*
D27*
X152700000Y-80950000D03*
X154600000Y-80950000D03*
X152700000Y-80300000D03*
X154600000Y-80300000D03*
X154600000Y-81600000D03*
X152700000Y-81600000D03*
X152700000Y-79650000D03*
X154600000Y-79650000D03*
D28*
X165300000Y-91550000D03*
X165300000Y-90050000D03*
D29*
X177600000Y-93540000D03*
D30*
X177600000Y-91000000D03*
X177600000Y-88460000D03*
X177600000Y-85920000D03*
X177600000Y-83380000D03*
X177600000Y-80840000D03*
M02*
