G04 #@! TF.FileFunction,Legend,Top*
%FSLAX46Y46*%
G04 Gerber Fmt 4.6, Leading zero omitted, Abs format (unit mm)*
G04 Created by KiCad (PCBNEW 4.0.4-stable) date 02/10/18 20:54:23*
%MOMM*%
%LPD*%
G01*
G04 APERTURE LIST*
%ADD10C,0.100000*%
%ADD11C,0.300000*%
%ADD12C,0.120000*%
%ADD13C,0.150000*%
%ADD14C,0.010000*%
G04 APERTURE END LIST*
D10*
D11*
X232302857Y-64265714D02*
X232374286Y-64051428D01*
X232445714Y-63980000D01*
X232588571Y-63908571D01*
X232802857Y-63908571D01*
X232945714Y-63980000D01*
X233017143Y-64051428D01*
X233088571Y-64194286D01*
X233088571Y-64765714D01*
X231588571Y-64765714D01*
X231588571Y-64265714D01*
X231660000Y-64122857D01*
X231731429Y-64051428D01*
X231874286Y-63980000D01*
X232017143Y-63980000D01*
X232160000Y-64051428D01*
X232231429Y-64122857D01*
X232302857Y-64265714D01*
X232302857Y-64765714D01*
X232660000Y-63337143D02*
X232660000Y-62622857D01*
X233088571Y-63480000D02*
X231588571Y-62980000D01*
X233088571Y-62480000D01*
X231588571Y-62194286D02*
X231588571Y-61337143D01*
X233088571Y-61765714D02*
X231588571Y-61765714D01*
X232517143Y-60837143D02*
X232517143Y-59694286D01*
X232302857Y-98555714D02*
X232374286Y-98341428D01*
X232445714Y-98270000D01*
X232588571Y-98198571D01*
X232802857Y-98198571D01*
X232945714Y-98270000D01*
X233017143Y-98341428D01*
X233088571Y-98484286D01*
X233088571Y-99055714D01*
X231588571Y-99055714D01*
X231588571Y-98555714D01*
X231660000Y-98412857D01*
X231731429Y-98341428D01*
X231874286Y-98270000D01*
X232017143Y-98270000D01*
X232160000Y-98341428D01*
X232231429Y-98412857D01*
X232302857Y-98555714D01*
X232302857Y-99055714D01*
X232660000Y-97627143D02*
X232660000Y-96912857D01*
X233088571Y-97770000D02*
X231588571Y-97270000D01*
X233088571Y-96770000D01*
X231588571Y-96484286D02*
X231588571Y-95627143D01*
X233088571Y-96055714D02*
X231588571Y-96055714D01*
X232517143Y-95127143D02*
X232517143Y-93984286D01*
X232302857Y-132845714D02*
X232374286Y-132631428D01*
X232445714Y-132560000D01*
X232588571Y-132488571D01*
X232802857Y-132488571D01*
X232945714Y-132560000D01*
X233017143Y-132631428D01*
X233088571Y-132774286D01*
X233088571Y-133345714D01*
X231588571Y-133345714D01*
X231588571Y-132845714D01*
X231660000Y-132702857D01*
X231731429Y-132631428D01*
X231874286Y-132560000D01*
X232017143Y-132560000D01*
X232160000Y-132631428D01*
X232231429Y-132702857D01*
X232302857Y-132845714D01*
X232302857Y-133345714D01*
X232660000Y-131917143D02*
X232660000Y-131202857D01*
X233088571Y-132060000D02*
X231588571Y-131560000D01*
X233088571Y-131060000D01*
X231588571Y-130774286D02*
X231588571Y-129917143D01*
X233088571Y-130345714D02*
X231588571Y-130345714D01*
X232517143Y-129417143D02*
X232517143Y-128274286D01*
X232302857Y-118875714D02*
X232374286Y-118661428D01*
X232445714Y-118590000D01*
X232588571Y-118518571D01*
X232802857Y-118518571D01*
X232945714Y-118590000D01*
X233017143Y-118661428D01*
X233088571Y-118804286D01*
X233088571Y-119375714D01*
X231588571Y-119375714D01*
X231588571Y-118875714D01*
X231660000Y-118732857D01*
X231731429Y-118661428D01*
X231874286Y-118590000D01*
X232017143Y-118590000D01*
X232160000Y-118661428D01*
X232231429Y-118732857D01*
X232302857Y-118875714D01*
X232302857Y-119375714D01*
X232660000Y-117947143D02*
X232660000Y-117232857D01*
X233088571Y-118090000D02*
X231588571Y-117590000D01*
X233088571Y-117090000D01*
X231588571Y-116804286D02*
X231588571Y-115947143D01*
X233088571Y-116375714D02*
X231588571Y-116375714D01*
X232517143Y-115447143D02*
X232517143Y-114304286D01*
X233088571Y-114875715D02*
X231945714Y-114875715D01*
X232302857Y-83315714D02*
X232374286Y-83101428D01*
X232445714Y-83030000D01*
X232588571Y-82958571D01*
X232802857Y-82958571D01*
X232945714Y-83030000D01*
X233017143Y-83101428D01*
X233088571Y-83244286D01*
X233088571Y-83815714D01*
X231588571Y-83815714D01*
X231588571Y-83315714D01*
X231660000Y-83172857D01*
X231731429Y-83101428D01*
X231874286Y-83030000D01*
X232017143Y-83030000D01*
X232160000Y-83101428D01*
X232231429Y-83172857D01*
X232302857Y-83315714D01*
X232302857Y-83815714D01*
X232660000Y-82387143D02*
X232660000Y-81672857D01*
X233088571Y-82530000D02*
X231588571Y-82030000D01*
X233088571Y-81530000D01*
X231588571Y-81244286D02*
X231588571Y-80387143D01*
X233088571Y-80815714D02*
X231588571Y-80815714D01*
X232517143Y-79887143D02*
X232517143Y-78744286D01*
X233088571Y-79315715D02*
X231945714Y-79315715D01*
X232302857Y-49025714D02*
X232374286Y-48811428D01*
X232445714Y-48740000D01*
X232588571Y-48668571D01*
X232802857Y-48668571D01*
X232945714Y-48740000D01*
X233017143Y-48811428D01*
X233088571Y-48954286D01*
X233088571Y-49525714D01*
X231588571Y-49525714D01*
X231588571Y-49025714D01*
X231660000Y-48882857D01*
X231731429Y-48811428D01*
X231874286Y-48740000D01*
X232017143Y-48740000D01*
X232160000Y-48811428D01*
X232231429Y-48882857D01*
X232302857Y-49025714D01*
X232302857Y-49525714D01*
X232660000Y-48097143D02*
X232660000Y-47382857D01*
X233088571Y-48240000D02*
X231588571Y-47740000D01*
X233088571Y-47240000D01*
X231588571Y-46954286D02*
X231588571Y-46097143D01*
X233088571Y-46525714D02*
X231588571Y-46525714D01*
X232517143Y-45597143D02*
X232517143Y-44454286D01*
X233088571Y-45025715D02*
X231945714Y-45025715D01*
X213078572Y-123868571D02*
X213078572Y-122368571D01*
X213578572Y-123440000D01*
X214078572Y-122368571D01*
X214078572Y-123868571D01*
X215007144Y-123868571D02*
X214864286Y-123797143D01*
X214792858Y-123725714D01*
X214721429Y-123582857D01*
X214721429Y-123154286D01*
X214792858Y-123011429D01*
X214864286Y-122940000D01*
X215007144Y-122868571D01*
X215221429Y-122868571D01*
X215364286Y-122940000D01*
X215435715Y-123011429D01*
X215507144Y-123154286D01*
X215507144Y-123582857D01*
X215435715Y-123725714D01*
X215364286Y-123797143D01*
X215221429Y-123868571D01*
X215007144Y-123868571D01*
X216364287Y-123868571D02*
X216221429Y-123797143D01*
X216150001Y-123654286D01*
X216150001Y-122368571D01*
X217507143Y-123797143D02*
X217364286Y-123868571D01*
X217078572Y-123868571D01*
X216935715Y-123797143D01*
X216864286Y-123654286D01*
X216864286Y-123082857D01*
X216935715Y-122940000D01*
X217078572Y-122868571D01*
X217364286Y-122868571D01*
X217507143Y-122940000D01*
X217578572Y-123082857D01*
X217578572Y-123225714D01*
X216864286Y-123368571D01*
X218078572Y-123868571D02*
X218864286Y-122868571D01*
X218078572Y-122868571D02*
X218864286Y-123868571D01*
X213728572Y-89578571D02*
X213728572Y-88078571D01*
X214228572Y-89150000D01*
X214728572Y-88078571D01*
X214728572Y-89578571D01*
X215657144Y-89578571D02*
X215514286Y-89507143D01*
X215442858Y-89435714D01*
X215371429Y-89292857D01*
X215371429Y-88864286D01*
X215442858Y-88721429D01*
X215514286Y-88650000D01*
X215657144Y-88578571D01*
X215871429Y-88578571D01*
X216014286Y-88650000D01*
X216085715Y-88721429D01*
X216157144Y-88864286D01*
X216157144Y-89292857D01*
X216085715Y-89435714D01*
X216014286Y-89507143D01*
X215871429Y-89578571D01*
X215657144Y-89578571D01*
X217014287Y-89578571D02*
X216871429Y-89507143D01*
X216800001Y-89364286D01*
X216800001Y-88078571D01*
X218157143Y-89507143D02*
X218014286Y-89578571D01*
X217728572Y-89578571D01*
X217585715Y-89507143D01*
X217514286Y-89364286D01*
X217514286Y-88792857D01*
X217585715Y-88650000D01*
X217728572Y-88578571D01*
X218014286Y-88578571D01*
X218157143Y-88650000D01*
X218228572Y-88792857D01*
X218228572Y-88935714D01*
X217514286Y-89078571D01*
X218728572Y-89578571D02*
X219514286Y-88578571D01*
X218728572Y-88578571D02*
X219514286Y-89578571D01*
X213728572Y-56228571D02*
X213728572Y-54728571D01*
X214228572Y-55800000D01*
X214728572Y-54728571D01*
X214728572Y-56228571D01*
X215657144Y-56228571D02*
X215514286Y-56157143D01*
X215442858Y-56085714D01*
X215371429Y-55942857D01*
X215371429Y-55514286D01*
X215442858Y-55371429D01*
X215514286Y-55300000D01*
X215657144Y-55228571D01*
X215871429Y-55228571D01*
X216014286Y-55300000D01*
X216085715Y-55371429D01*
X216157144Y-55514286D01*
X216157144Y-55942857D01*
X216085715Y-56085714D01*
X216014286Y-56157143D01*
X215871429Y-56228571D01*
X215657144Y-56228571D01*
X217014287Y-56228571D02*
X216871429Y-56157143D01*
X216800001Y-56014286D01*
X216800001Y-54728571D01*
X218157143Y-56157143D02*
X218014286Y-56228571D01*
X217728572Y-56228571D01*
X217585715Y-56157143D01*
X217514286Y-56014286D01*
X217514286Y-55442857D01*
X217585715Y-55300000D01*
X217728572Y-55228571D01*
X218014286Y-55228571D01*
X218157143Y-55300000D01*
X218228572Y-55442857D01*
X218228572Y-55585714D01*
X217514286Y-55728571D01*
X218728572Y-56228571D02*
X219514286Y-55228571D01*
X218728572Y-55228571D02*
X219514286Y-56228571D01*
X168318571Y-107221428D02*
X166818571Y-107221428D01*
X168247143Y-106578571D02*
X168318571Y-106435714D01*
X168318571Y-106149999D01*
X168247143Y-106007142D01*
X168104286Y-105935714D01*
X168032857Y-105935714D01*
X167890000Y-106007142D01*
X167818571Y-106149999D01*
X167818571Y-106364285D01*
X167747143Y-106507142D01*
X167604286Y-106578571D01*
X167532857Y-106578571D01*
X167390000Y-106507142D01*
X167318571Y-106364285D01*
X167318571Y-106149999D01*
X167390000Y-106007142D01*
X168318571Y-104649999D02*
X167532857Y-104649999D01*
X167390000Y-104721428D01*
X167318571Y-104864285D01*
X167318571Y-105149999D01*
X167390000Y-105292856D01*
X168247143Y-104649999D02*
X168318571Y-104792856D01*
X168318571Y-105149999D01*
X168247143Y-105292856D01*
X168104286Y-105364285D01*
X167961429Y-105364285D01*
X167818571Y-105292856D01*
X167747143Y-105149999D01*
X167747143Y-104792856D01*
X167675714Y-104649999D01*
X168318571Y-103292856D02*
X167532857Y-103292856D01*
X167390000Y-103364285D01*
X167318571Y-103507142D01*
X167318571Y-103792856D01*
X167390000Y-103935713D01*
X168247143Y-103292856D02*
X168318571Y-103435713D01*
X168318571Y-103792856D01*
X168247143Y-103935713D01*
X168104286Y-104007142D01*
X167961429Y-104007142D01*
X167818571Y-103935713D01*
X167747143Y-103792856D01*
X167747143Y-103435713D01*
X167675714Y-103292856D01*
X168247143Y-101935713D02*
X168318571Y-102078570D01*
X168318571Y-102364284D01*
X168247143Y-102507142D01*
X168175714Y-102578570D01*
X168032857Y-102649999D01*
X167604286Y-102649999D01*
X167461429Y-102578570D01*
X167390000Y-102507142D01*
X167318571Y-102364284D01*
X167318571Y-102078570D01*
X167390000Y-101935713D01*
X168318571Y-100149999D02*
X166818571Y-100149999D01*
X166818571Y-99578571D01*
X166890000Y-99435713D01*
X166961429Y-99364285D01*
X167104286Y-99292856D01*
X167318571Y-99292856D01*
X167461429Y-99364285D01*
X167532857Y-99435713D01*
X167604286Y-99578571D01*
X167604286Y-100149999D01*
X168318571Y-98435713D02*
X168247143Y-98578571D01*
X168175714Y-98649999D01*
X168032857Y-98721428D01*
X167604286Y-98721428D01*
X167461429Y-98649999D01*
X167390000Y-98578571D01*
X167318571Y-98435713D01*
X167318571Y-98221428D01*
X167390000Y-98078571D01*
X167461429Y-98007142D01*
X167604286Y-97935713D01*
X168032857Y-97935713D01*
X168175714Y-98007142D01*
X168247143Y-98078571D01*
X168318571Y-98221428D01*
X168318571Y-98435713D01*
X168318571Y-97292856D02*
X167318571Y-97292856D01*
X166818571Y-97292856D02*
X166890000Y-97364285D01*
X166961429Y-97292856D01*
X166890000Y-97221428D01*
X166818571Y-97292856D01*
X166961429Y-97292856D01*
X168318571Y-96578570D02*
X167318571Y-96578570D01*
X167604286Y-96578570D02*
X167461429Y-96507142D01*
X167390000Y-96435713D01*
X167318571Y-96292856D01*
X167318571Y-96149999D01*
X168318571Y-95649999D02*
X167318571Y-95649999D01*
X166818571Y-95649999D02*
X166890000Y-95721428D01*
X166961429Y-95649999D01*
X166890000Y-95578571D01*
X166818571Y-95649999D01*
X166961429Y-95649999D01*
X168247143Y-94364285D02*
X168318571Y-94507142D01*
X168318571Y-94792856D01*
X168247143Y-94935713D01*
X168104286Y-95007142D01*
X167532857Y-95007142D01*
X167390000Y-94935713D01*
X167318571Y-94792856D01*
X167318571Y-94507142D01*
X167390000Y-94364285D01*
X167532857Y-94292856D01*
X167675714Y-94292856D01*
X167818571Y-95007142D01*
X168318571Y-93649999D02*
X167318571Y-93649999D01*
X167604286Y-93649999D02*
X167461429Y-93578571D01*
X167390000Y-93507142D01*
X167318571Y-93364285D01*
X167318571Y-93221428D01*
X168318571Y-90935714D02*
X167532857Y-90935714D01*
X167390000Y-91007143D01*
X167318571Y-91150000D01*
X167318571Y-91435714D01*
X167390000Y-91578571D01*
X168247143Y-90935714D02*
X168318571Y-91078571D01*
X168318571Y-91435714D01*
X168247143Y-91578571D01*
X168104286Y-91650000D01*
X167961429Y-91650000D01*
X167818571Y-91578571D01*
X167747143Y-91435714D01*
X167747143Y-91078571D01*
X167675714Y-90935714D01*
X167318571Y-90221428D02*
X168318571Y-90221428D01*
X167461429Y-90221428D02*
X167390000Y-90150000D01*
X167318571Y-90007142D01*
X167318571Y-89792857D01*
X167390000Y-89650000D01*
X167532857Y-89578571D01*
X168318571Y-89578571D01*
X168318571Y-88221428D02*
X166818571Y-88221428D01*
X168247143Y-88221428D02*
X168318571Y-88364285D01*
X168318571Y-88649999D01*
X168247143Y-88792857D01*
X168175714Y-88864285D01*
X168032857Y-88935714D01*
X167604286Y-88935714D01*
X167461429Y-88864285D01*
X167390000Y-88792857D01*
X167318571Y-88649999D01*
X167318571Y-88364285D01*
X167390000Y-88221428D01*
X168175714Y-85507142D02*
X168247143Y-85578571D01*
X168318571Y-85792857D01*
X168318571Y-85935714D01*
X168247143Y-86149999D01*
X168104286Y-86292857D01*
X167961429Y-86364285D01*
X167675714Y-86435714D01*
X167461429Y-86435714D01*
X167175714Y-86364285D01*
X167032857Y-86292857D01*
X166890000Y-86149999D01*
X166818571Y-85935714D01*
X166818571Y-85792857D01*
X166890000Y-85578571D01*
X166961429Y-85507142D01*
X168318571Y-84649999D02*
X168247143Y-84792857D01*
X168175714Y-84864285D01*
X168032857Y-84935714D01*
X167604286Y-84935714D01*
X167461429Y-84864285D01*
X167390000Y-84792857D01*
X167318571Y-84649999D01*
X167318571Y-84435714D01*
X167390000Y-84292857D01*
X167461429Y-84221428D01*
X167604286Y-84149999D01*
X168032857Y-84149999D01*
X168175714Y-84221428D01*
X168247143Y-84292857D01*
X168318571Y-84435714D01*
X168318571Y-84649999D01*
X168318571Y-82864285D02*
X166818571Y-82864285D01*
X168247143Y-82864285D02*
X168318571Y-83007142D01*
X168318571Y-83292856D01*
X168247143Y-83435714D01*
X168175714Y-83507142D01*
X168032857Y-83578571D01*
X167604286Y-83578571D01*
X167461429Y-83507142D01*
X167390000Y-83435714D01*
X167318571Y-83292856D01*
X167318571Y-83007142D01*
X167390000Y-82864285D01*
X167318571Y-82292856D02*
X168318571Y-81935713D01*
X167318571Y-81578571D02*
X168318571Y-81935713D01*
X168675714Y-82078571D01*
X168747143Y-82149999D01*
X168818571Y-82292856D01*
X167532857Y-79364285D02*
X167604286Y-79149999D01*
X167675714Y-79078571D01*
X167818571Y-79007142D01*
X168032857Y-79007142D01*
X168175714Y-79078571D01*
X168247143Y-79149999D01*
X168318571Y-79292857D01*
X168318571Y-79864285D01*
X166818571Y-79864285D01*
X166818571Y-79364285D01*
X166890000Y-79221428D01*
X166961429Y-79149999D01*
X167104286Y-79078571D01*
X167247143Y-79078571D01*
X167390000Y-79149999D01*
X167461429Y-79221428D01*
X167532857Y-79364285D01*
X167532857Y-79864285D01*
X168247143Y-77792857D02*
X168318571Y-77935714D01*
X168318571Y-78221428D01*
X168247143Y-78364285D01*
X168104286Y-78435714D01*
X167532857Y-78435714D01*
X167390000Y-78364285D01*
X167318571Y-78221428D01*
X167318571Y-77935714D01*
X167390000Y-77792857D01*
X167532857Y-77721428D01*
X167675714Y-77721428D01*
X167818571Y-78435714D01*
X168318571Y-77078571D02*
X167318571Y-77078571D01*
X167604286Y-77078571D02*
X167461429Y-77007143D01*
X167390000Y-76935714D01*
X167318571Y-76792857D01*
X167318571Y-76650000D01*
X167318571Y-75507143D02*
X168532857Y-75507143D01*
X168675714Y-75578572D01*
X168747143Y-75650000D01*
X168818571Y-75792857D01*
X168818571Y-76007143D01*
X168747143Y-76150000D01*
X168247143Y-75507143D02*
X168318571Y-75650000D01*
X168318571Y-75935714D01*
X168247143Y-76078572D01*
X168175714Y-76150000D01*
X168032857Y-76221429D01*
X167604286Y-76221429D01*
X167461429Y-76150000D01*
X167390000Y-76078572D01*
X167318571Y-75935714D01*
X167318571Y-75650000D01*
X167390000Y-75507143D01*
X167318571Y-74150000D02*
X168532857Y-74150000D01*
X168675714Y-74221429D01*
X168747143Y-74292857D01*
X168818571Y-74435714D01*
X168818571Y-74650000D01*
X168747143Y-74792857D01*
X168247143Y-74150000D02*
X168318571Y-74292857D01*
X168318571Y-74578571D01*
X168247143Y-74721429D01*
X168175714Y-74792857D01*
X168032857Y-74864286D01*
X167604286Y-74864286D01*
X167461429Y-74792857D01*
X167390000Y-74721429D01*
X167318571Y-74578571D01*
X167318571Y-74292857D01*
X167390000Y-74150000D01*
X168318571Y-73435714D02*
X167318571Y-73435714D01*
X167604286Y-73435714D02*
X167461429Y-73364286D01*
X167390000Y-73292857D01*
X167318571Y-73150000D01*
X167318571Y-73007143D01*
X168247143Y-71935715D02*
X168318571Y-72078572D01*
X168318571Y-72364286D01*
X168247143Y-72507143D01*
X168104286Y-72578572D01*
X167532857Y-72578572D01*
X167390000Y-72507143D01*
X167318571Y-72364286D01*
X167318571Y-72078572D01*
X167390000Y-71935715D01*
X167532857Y-71864286D01*
X167675714Y-71864286D01*
X167818571Y-72578572D01*
X167318571Y-71221429D02*
X168318571Y-71221429D01*
X167461429Y-71221429D02*
X167390000Y-71150001D01*
X167318571Y-71007143D01*
X167318571Y-70792858D01*
X167390000Y-70650001D01*
X167532857Y-70578572D01*
X168318571Y-70578572D01*
D12*
X50546000Y-40640000D02*
G75*
G03X50546000Y-40640000I-2286000J0D01*
G01*
X50546000Y-137160000D02*
G75*
G03X50546000Y-137160000I-2286000J0D01*
G01*
D13*
X130877500Y-58041500D02*
X138077500Y-58041500D01*
X138077500Y-58041500D02*
X138077500Y-44941500D01*
X138077500Y-44941500D02*
X130877500Y-44941500D01*
X120577500Y-57461500D02*
X120577500Y-45521500D01*
X121157500Y-58041500D02*
G75*
G03X120577500Y-57461500I-580000J0D01*
G01*
X120577500Y-58041500D02*
X120577500Y-58731500D01*
X120577500Y-58041500D02*
X130877500Y-58041500D01*
X120577500Y-45521500D02*
G75*
G03X121157500Y-44941500I0J580000D01*
G01*
X120577500Y-44941500D02*
X120577500Y-44251500D01*
X130877500Y-44941500D02*
X120577500Y-44941500D01*
X76351500Y-73951500D02*
X83551500Y-73951500D01*
X83551500Y-73951500D02*
X83551500Y-60851500D01*
X83551500Y-60851500D02*
X76351500Y-60851500D01*
X66051500Y-73371500D02*
X66051500Y-61431500D01*
X66631500Y-73951500D02*
G75*
G03X66051500Y-73371500I-580000J0D01*
G01*
X66051500Y-73951500D02*
X66051500Y-74641500D01*
X66051500Y-73951500D02*
X76351500Y-73951500D01*
X66051500Y-61431500D02*
G75*
G03X66631500Y-60851500I0J580000D01*
G01*
X66051500Y-60851500D02*
X66051500Y-60161500D01*
X76351500Y-60851500D02*
X66051500Y-60851500D01*
X226631500Y-38292500D02*
X206331500Y-38292500D01*
X206331500Y-38292500D02*
X206331500Y-70292500D01*
X226631500Y-70292500D02*
X206331500Y-70292500D01*
X226631500Y-38292500D02*
X226631500Y-70292500D01*
X226631500Y-73217500D02*
X206331500Y-73217500D01*
X206331500Y-73217500D02*
X206331500Y-105217500D01*
X226631500Y-105217500D02*
X206331500Y-105217500D01*
X226631500Y-73217500D02*
X226631500Y-105217500D01*
X226631500Y-108142500D02*
X206331500Y-108142500D01*
X206331500Y-108142500D02*
X206331500Y-140142500D01*
X226631500Y-140142500D02*
X206331500Y-140142500D01*
X226631500Y-108142500D02*
X226631500Y-140142500D01*
X77150000Y-137090000D02*
X77150000Y-137940000D01*
X79900000Y-135390000D02*
X81800000Y-135390000D01*
X79900000Y-134790000D02*
X81800000Y-134790000D01*
X79900000Y-131190000D02*
X81800000Y-131190000D01*
X79900000Y-130590000D02*
X81800000Y-130590000D01*
X79900000Y-126990000D02*
X81800000Y-126990000D01*
X79900000Y-126390000D02*
X81800000Y-126390000D01*
X79900000Y-122790000D02*
X81800000Y-122790000D01*
X79900000Y-122190000D02*
X81800000Y-122190000D01*
X77100000Y-133290000D02*
X77100000Y-132690000D01*
X77100000Y-129090000D02*
X77100000Y-128490000D01*
X77100000Y-124890000D02*
X77100000Y-124290000D01*
X78100000Y-137090000D02*
X78400000Y-137690000D01*
X78400000Y-137690000D02*
X77800000Y-137690000D01*
X77800000Y-137690000D02*
X78100000Y-137090000D01*
X77200000Y-105290000D02*
X77200000Y-106140000D01*
X79950000Y-103590000D02*
X81850000Y-103590000D01*
X79950000Y-102990000D02*
X81850000Y-102990000D01*
X79950000Y-99390000D02*
X81850000Y-99390000D01*
X79950000Y-98790000D02*
X81850000Y-98790000D01*
X79950000Y-95190000D02*
X81850000Y-95190000D01*
X79950000Y-94590000D02*
X81850000Y-94590000D01*
X79950000Y-90990000D02*
X81850000Y-90990000D01*
X79950000Y-90390000D02*
X81850000Y-90390000D01*
X77150000Y-101490000D02*
X77150000Y-100890000D01*
X77150000Y-97290000D02*
X77150000Y-96690000D01*
X77150000Y-93090000D02*
X77150000Y-92490000D01*
X78150000Y-105290000D02*
X78450000Y-105890000D01*
X78450000Y-105890000D02*
X77850000Y-105890000D01*
X77850000Y-105890000D02*
X78150000Y-105290000D01*
X132700000Y-88730000D02*
X132700000Y-89580000D01*
X135450000Y-87030000D02*
X137350000Y-87030000D01*
X135450000Y-86430000D02*
X137350000Y-86430000D01*
X135450000Y-82830000D02*
X137350000Y-82830000D01*
X135450000Y-82230000D02*
X137350000Y-82230000D01*
X135450000Y-78630000D02*
X137350000Y-78630000D01*
X135450000Y-78030000D02*
X137350000Y-78030000D01*
X135450000Y-74430000D02*
X137350000Y-74430000D01*
X135450000Y-73830000D02*
X137350000Y-73830000D01*
X132650000Y-84930000D02*
X132650000Y-84330000D01*
X132650000Y-80730000D02*
X132650000Y-80130000D01*
X132650000Y-76530000D02*
X132650000Y-75930000D01*
X133650000Y-88730000D02*
X133950000Y-89330000D01*
X133950000Y-89330000D02*
X133350000Y-89330000D01*
X133350000Y-89330000D02*
X133650000Y-88730000D01*
X132700000Y-120630000D02*
X132700000Y-121480000D01*
X135450000Y-118930000D02*
X137350000Y-118930000D01*
X135450000Y-118330000D02*
X137350000Y-118330000D01*
X135450000Y-114730000D02*
X137350000Y-114730000D01*
X135450000Y-114130000D02*
X137350000Y-114130000D01*
X135450000Y-110530000D02*
X137350000Y-110530000D01*
X135450000Y-109930000D02*
X137350000Y-109930000D01*
X135450000Y-106330000D02*
X137350000Y-106330000D01*
X135450000Y-105730000D02*
X137350000Y-105730000D01*
X132650000Y-116830000D02*
X132650000Y-116230000D01*
X132650000Y-112630000D02*
X132650000Y-112030000D01*
X132650000Y-108430000D02*
X132650000Y-107830000D01*
X133650000Y-120630000D02*
X133950000Y-121230000D01*
X133950000Y-121230000D02*
X133350000Y-121230000D01*
X133350000Y-121230000D02*
X133650000Y-120630000D01*
D14*
G36*
X155019918Y-90580139D02*
X155024198Y-90430762D01*
X155030541Y-90301803D01*
X155039496Y-90188325D01*
X155051610Y-90085391D01*
X155067430Y-89988066D01*
X155087503Y-89891412D01*
X155103767Y-89823927D01*
X155158100Y-89645662D01*
X155225876Y-89488671D01*
X155307518Y-89352417D01*
X155403452Y-89236366D01*
X155514101Y-89139981D01*
X155639890Y-89062726D01*
X155741419Y-89018139D01*
X155783898Y-89002607D01*
X155824099Y-88989222D01*
X155864224Y-88977824D01*
X155906476Y-88968256D01*
X155953054Y-88960357D01*
X156006161Y-88953969D01*
X156067997Y-88948933D01*
X156140765Y-88945089D01*
X156226665Y-88942278D01*
X156327900Y-88940342D01*
X156446669Y-88939121D01*
X156585176Y-88938456D01*
X156745621Y-88938188D01*
X156848175Y-88938152D01*
X157607000Y-88938100D01*
X157607000Y-90309700D01*
X156898490Y-90309700D01*
X156189981Y-90309701D01*
X156133315Y-90338275D01*
X156082127Y-90378064D01*
X156044129Y-90438261D01*
X156019759Y-90517309D01*
X156009451Y-90613651D01*
X156013644Y-90725729D01*
X156016780Y-90754178D01*
X156029974Y-90833606D01*
X156048632Y-90892651D01*
X156075068Y-90936135D01*
X156111594Y-90968879D01*
X156123397Y-90976450D01*
X156133702Y-90982163D01*
X156145497Y-90986948D01*
X156160986Y-90990889D01*
X156182372Y-90994067D01*
X156211857Y-90996564D01*
X156251644Y-90998461D01*
X156303936Y-90999842D01*
X156370936Y-91000787D01*
X156454846Y-91001378D01*
X156557870Y-91001698D01*
X156682211Y-91001828D01*
X156806900Y-91001850D01*
X156959291Y-91001814D01*
X157088619Y-91001544D01*
X157197217Y-91000801D01*
X157287423Y-90999346D01*
X157361571Y-90996941D01*
X157421997Y-90993345D01*
X157471037Y-90988319D01*
X157511027Y-90981624D01*
X157544302Y-90973020D01*
X157573197Y-90962270D01*
X157600049Y-90949132D01*
X157627193Y-90933368D01*
X157656929Y-90914761D01*
X157691249Y-90892261D01*
X157725081Y-90868076D01*
X157759845Y-90840733D01*
X157796959Y-90808758D01*
X157837845Y-90770679D01*
X157883922Y-90725021D01*
X157936609Y-90670313D01*
X157997328Y-90605080D01*
X158067496Y-90527849D01*
X158148534Y-90437147D01*
X158241863Y-90331502D01*
X158348901Y-90209439D01*
X158466479Y-90074750D01*
X158617852Y-89903105D01*
X158756087Y-89750800D01*
X158882711Y-89616436D01*
X158999250Y-89498615D01*
X159107232Y-89395939D01*
X159208184Y-89307009D01*
X159303633Y-89230427D01*
X159395107Y-89164794D01*
X159484131Y-89108711D01*
X159572233Y-89060781D01*
X159575500Y-89059144D01*
X159648424Y-89024573D01*
X159720705Y-88994663D01*
X159794659Y-88969134D01*
X159872600Y-88947704D01*
X159956842Y-88930093D01*
X160049702Y-88916022D01*
X160153493Y-88905209D01*
X160270531Y-88897374D01*
X160403130Y-88892237D01*
X160553606Y-88889516D01*
X160724273Y-88888933D01*
X160917445Y-88890205D01*
X160965462Y-88890732D01*
X161115539Y-88892747D01*
X161243028Y-88895151D01*
X161350744Y-88898169D01*
X161441500Y-88902024D01*
X161518108Y-88906942D01*
X161583381Y-88913147D01*
X161640132Y-88920862D01*
X161691175Y-88930313D01*
X161739322Y-88941722D01*
X161787385Y-88955316D01*
X161791650Y-88956607D01*
X161829378Y-88967595D01*
X161856724Y-88974657D01*
X161864675Y-88976063D01*
X161867227Y-88963956D01*
X161869520Y-88929778D01*
X161871460Y-88876857D01*
X161872950Y-88808522D01*
X161873895Y-88728100D01*
X161874200Y-88645145D01*
X161874104Y-88544888D01*
X161873690Y-88467248D01*
X161872767Y-88409444D01*
X161871144Y-88368691D01*
X161868630Y-88342209D01*
X161865034Y-88327214D01*
X161860166Y-88320923D01*
X161853834Y-88320556D01*
X161851975Y-88321071D01*
X161765744Y-88344952D01*
X161668118Y-88366899D01*
X161572050Y-88384203D01*
X161512250Y-88392145D01*
X161479237Y-88394297D01*
X161423387Y-88396334D01*
X161347262Y-88398222D01*
X161253426Y-88399925D01*
X161144441Y-88401410D01*
X161022869Y-88402642D01*
X160891274Y-88403586D01*
X160752217Y-88404209D01*
X160608263Y-88404475D01*
X160594675Y-88404480D01*
X159791400Y-88404700D01*
X159791400Y-86970133D01*
X160626425Y-86966692D01*
X160797190Y-86966075D01*
X160944411Y-86965570D01*
X161069940Y-86964934D01*
X161175630Y-86963920D01*
X161263335Y-86962285D01*
X161334907Y-86959784D01*
X161392199Y-86956173D01*
X161437065Y-86951205D01*
X161471356Y-86944638D01*
X161496926Y-86936226D01*
X161515629Y-86925724D01*
X161529316Y-86912888D01*
X161539841Y-86897473D01*
X161549056Y-86879234D01*
X161558816Y-86857928D01*
X161566187Y-86842600D01*
X161581547Y-86809831D01*
X161591624Y-86780394D01*
X161597515Y-86747513D01*
X161600317Y-86704411D01*
X161601129Y-86644312D01*
X161601150Y-86626700D01*
X161598517Y-86535684D01*
X161589634Y-86464580D01*
X161573021Y-86408355D01*
X161547201Y-86361972D01*
X161511381Y-86321065D01*
X161466377Y-86277450D01*
X160127950Y-86277450D01*
X160032700Y-86322966D01*
X159982737Y-86348678D01*
X159933018Y-86378448D01*
X159882045Y-86413737D01*
X159828324Y-86456009D01*
X159770357Y-86506727D01*
X159706648Y-86567354D01*
X159635702Y-86639353D01*
X159556022Y-86724187D01*
X159466112Y-86823319D01*
X159364476Y-86938212D01*
X159249618Y-87070328D01*
X159150314Y-87185779D01*
X158998659Y-87360712D01*
X158860442Y-87515847D01*
X158734620Y-87652255D01*
X158620152Y-87771007D01*
X158515993Y-87873172D01*
X158421102Y-87959821D01*
X158334436Y-88032025D01*
X158301174Y-88057600D01*
X158191769Y-88133479D01*
X158074135Y-88204381D01*
X157955585Y-88266327D01*
X157843434Y-88315341D01*
X157795430Y-88332641D01*
X157754359Y-88345819D01*
X157715138Y-88357114D01*
X157675498Y-88366669D01*
X157633168Y-88374628D01*
X157585878Y-88381132D01*
X157531356Y-88386324D01*
X157467334Y-88390347D01*
X157391539Y-88393344D01*
X157301703Y-88395456D01*
X157195554Y-88396827D01*
X157070823Y-88397599D01*
X156925238Y-88397914D01*
X156756529Y-88397916D01*
X156756100Y-88397916D01*
X156025850Y-88397482D01*
X155902357Y-88363807D01*
X155746598Y-88309550D01*
X155607089Y-88235964D01*
X155483299Y-88142615D01*
X155374701Y-88029071D01*
X155280764Y-87894896D01*
X155239419Y-87820500D01*
X155195242Y-87727287D01*
X155157065Y-87629738D01*
X155123729Y-87523688D01*
X155094075Y-87404974D01*
X155066944Y-87269433D01*
X155041177Y-87112901D01*
X155039679Y-87102950D01*
X155032976Y-87041142D01*
X155027802Y-86958457D01*
X155024128Y-86859370D01*
X155021931Y-86748357D01*
X155021183Y-86629895D01*
X155021858Y-86508458D01*
X155023931Y-86388522D01*
X155027375Y-86274562D01*
X155032164Y-86171054D01*
X155038273Y-86082475D01*
X155045675Y-86013298D01*
X155046033Y-86010750D01*
X155082870Y-85802364D01*
X155131160Y-85616171D01*
X155191321Y-85451486D01*
X155263772Y-85307623D01*
X155348935Y-85183896D01*
X155447227Y-85079620D01*
X155559069Y-84994110D01*
X155684880Y-84926679D01*
X155717849Y-84912851D01*
X155757473Y-84897185D01*
X155793470Y-84883675D01*
X155828003Y-84872148D01*
X155863236Y-84862432D01*
X155901335Y-84854357D01*
X155944463Y-84847750D01*
X155994785Y-84842440D01*
X156054465Y-84838255D01*
X156125667Y-84835023D01*
X156210555Y-84832573D01*
X156311293Y-84830733D01*
X156430047Y-84829331D01*
X156568980Y-84828195D01*
X156730256Y-84827155D01*
X156803724Y-84826714D01*
X157606999Y-84821913D01*
X157606999Y-85508407D01*
X157607000Y-86194900D01*
X156899809Y-86194900D01*
X156747786Y-86194925D01*
X156619043Y-86195049D01*
X156511458Y-86195343D01*
X156422913Y-86195883D01*
X156351285Y-86196741D01*
X156294455Y-86197991D01*
X156250302Y-86199705D01*
X156216706Y-86201957D01*
X156191546Y-86204820D01*
X156172701Y-86208367D01*
X156158052Y-86212672D01*
X156145478Y-86217807D01*
X156138288Y-86221202D01*
X156091906Y-86251302D01*
X156058243Y-86292697D01*
X156034741Y-86349863D01*
X156018840Y-86427277D01*
X156018287Y-86431130D01*
X156009299Y-86548575D01*
X156016394Y-86655398D01*
X156039188Y-86747390D01*
X156049437Y-86772361D01*
X156060367Y-86796801D01*
X156070355Y-86817506D01*
X156081479Y-86834783D01*
X156095814Y-86848942D01*
X156115437Y-86860293D01*
X156142423Y-86869143D01*
X156178849Y-86875803D01*
X156226790Y-86880582D01*
X156288324Y-86883789D01*
X156365525Y-86885733D01*
X156460471Y-86886723D01*
X156575237Y-86887068D01*
X156711899Y-86887078D01*
X156819600Y-86887050D01*
X156965175Y-86887033D01*
X157087618Y-86886920D01*
X157189199Y-86886622D01*
X157272185Y-86886047D01*
X157338845Y-86885106D01*
X157391448Y-86883707D01*
X157432263Y-86881761D01*
X157463557Y-86879177D01*
X157487599Y-86875865D01*
X157506658Y-86871733D01*
X157523003Y-86866692D01*
X157538901Y-86860652D01*
X157545193Y-86858117D01*
X157591500Y-86835994D01*
X157646660Y-86804739D01*
X157699436Y-86770761D01*
X157703943Y-86767606D01*
X157732239Y-86747342D01*
X157759044Y-86727250D01*
X157785645Y-86705954D01*
X157813332Y-86682074D01*
X157843395Y-86654231D01*
X157877123Y-86621047D01*
X157915805Y-86581143D01*
X157960730Y-86533140D01*
X158013188Y-86475660D01*
X158074467Y-86407323D01*
X158145858Y-86326752D01*
X158228650Y-86232568D01*
X158324131Y-86123391D01*
X158433591Y-85997844D01*
X158558319Y-85854547D01*
X158565445Y-85846356D01*
X158631800Y-85771669D01*
X158709992Y-85686197D01*
X158793595Y-85596810D01*
X158876184Y-85510375D01*
X158951333Y-85433762D01*
X158952795Y-85432298D01*
X159099061Y-85291569D01*
X159236502Y-85171799D01*
X159367908Y-85071360D01*
X159496070Y-84988624D01*
X159623779Y-84921960D01*
X159753826Y-84869741D01*
X159889001Y-84830337D01*
X160032096Y-84802120D01*
X160032700Y-84802026D01*
X160069645Y-84796700D01*
X160108106Y-84792252D01*
X160150679Y-84788603D01*
X160199960Y-84785678D01*
X160258544Y-84783400D01*
X160329028Y-84781692D01*
X160414005Y-84780479D01*
X160516073Y-84779684D01*
X160637827Y-84779230D01*
X160781863Y-84779042D01*
X160813750Y-84779029D01*
X160977900Y-84779175D01*
X161119079Y-84779821D01*
X161239711Y-84781131D01*
X161342223Y-84783268D01*
X161429041Y-84786395D01*
X161502589Y-84790675D01*
X161565295Y-84796272D01*
X161619583Y-84803349D01*
X161667880Y-84812069D01*
X161712611Y-84822596D01*
X161756202Y-84835092D01*
X161785300Y-84844422D01*
X161907959Y-84894296D01*
X162032596Y-84963984D01*
X162075117Y-84991817D01*
X162106500Y-85011878D01*
X162127988Y-85023395D01*
X162133537Y-85024550D01*
X162136239Y-85011265D01*
X162141889Y-84976387D01*
X162149950Y-84923481D01*
X162159885Y-84856111D01*
X162171156Y-84777845D01*
X162178209Y-84728050D01*
X162191103Y-84639841D01*
X162207525Y-84532756D01*
X162226492Y-84412916D01*
X162247017Y-84286442D01*
X162268117Y-84159455D01*
X162288806Y-84038075D01*
X162294414Y-84005796D01*
X162312105Y-83903951D01*
X162328312Y-83809700D01*
X162342529Y-83726056D01*
X162354251Y-83656030D01*
X162362973Y-83602636D01*
X162368189Y-83568885D01*
X162369500Y-83558121D01*
X162366482Y-83555739D01*
X162356689Y-83553575D01*
X162339015Y-83551621D01*
X162312350Y-83549865D01*
X162275588Y-83548299D01*
X162227620Y-83546912D01*
X162167339Y-83545694D01*
X162093637Y-83544635D01*
X162005407Y-83543725D01*
X161901540Y-83542955D01*
X161780929Y-83542314D01*
X161642466Y-83541791D01*
X161485043Y-83541378D01*
X161307553Y-83541065D01*
X161108888Y-83540840D01*
X160887939Y-83540695D01*
X160643601Y-83540618D01*
X160426717Y-83540600D01*
X158483935Y-83540601D01*
X158489555Y-83575525D01*
X158492980Y-83600377D01*
X158498571Y-83644921D01*
X158505651Y-83703608D01*
X158513544Y-83770890D01*
X158516617Y-83797571D01*
X158538059Y-83984692D01*
X158577354Y-83990981D01*
X158596488Y-83992797D01*
X158638785Y-83995967D01*
X158702054Y-84000350D01*
X158784103Y-84005805D01*
X158882739Y-84012191D01*
X158995769Y-84019367D01*
X159121003Y-84027191D01*
X159256248Y-84035523D01*
X159399311Y-84044220D01*
X159473900Y-84048711D01*
X159731873Y-84064287D01*
X159965156Y-84078577D01*
X160174423Y-84091628D01*
X160360350Y-84103488D01*
X160523610Y-84114204D01*
X160664880Y-84123824D01*
X160784833Y-84132396D01*
X160884144Y-84139967D01*
X160963489Y-84146584D01*
X161023541Y-84152294D01*
X161064975Y-84157146D01*
X161088467Y-84161187D01*
X161093150Y-84162655D01*
X161103514Y-84169580D01*
X161093182Y-84173354D01*
X161061400Y-84174864D01*
X161029102Y-84175957D01*
X160977288Y-84178331D01*
X160911791Y-84181694D01*
X160838446Y-84185750D01*
X160794700Y-84188299D01*
X160737270Y-84191505D01*
X160655005Y-84195776D01*
X160548448Y-84201088D01*
X160418140Y-84207414D01*
X160264623Y-84214730D01*
X160088439Y-84223010D01*
X159890129Y-84232229D01*
X159670237Y-84242362D01*
X159429302Y-84253382D01*
X159167869Y-84265265D01*
X158886477Y-84277985D01*
X158723667Y-84285317D01*
X158538584Y-84293642D01*
X158458106Y-84777546D01*
X158440007Y-84885377D01*
X158422911Y-84985340D01*
X158407315Y-85074661D01*
X158393718Y-85150568D01*
X158382618Y-85210290D01*
X158374512Y-85251052D01*
X158369900Y-85270083D01*
X158369434Y-85271045D01*
X158365489Y-85261902D01*
X158359091Y-85230117D01*
X158350595Y-85178291D01*
X158340353Y-85109025D01*
X158328720Y-85024923D01*
X158316049Y-84928585D01*
X158302693Y-84822614D01*
X158289005Y-84709612D01*
X158275340Y-84592179D01*
X158266516Y-84513605D01*
X158258393Y-84442687D01*
X158250801Y-84381002D01*
X158244305Y-84332798D01*
X158239471Y-84302320D01*
X158237228Y-84293596D01*
X158223830Y-84291768D01*
X158187522Y-84288652D01*
X158130756Y-84284411D01*
X158055981Y-84279213D01*
X157965647Y-84273221D01*
X157862204Y-84266603D01*
X157748101Y-84259523D01*
X157625788Y-84252147D01*
X157608283Y-84251108D01*
X157466259Y-84242659D01*
X157316574Y-84233687D01*
X157164279Y-84224501D01*
X157014428Y-84215407D01*
X156872074Y-84206713D01*
X156742268Y-84198725D01*
X156630063Y-84191750D01*
X156579025Y-84188542D01*
X156477915Y-84182242D01*
X156383153Y-84176503D01*
X156298197Y-84171523D01*
X156226505Y-84167497D01*
X156171536Y-84164623D01*
X156136747Y-84163097D01*
X156128074Y-84162900D01*
X156083000Y-84162900D01*
X156083000Y-84077931D01*
X156308425Y-84069634D01*
X156411501Y-84065712D01*
X156529365Y-84061004D01*
X156659147Y-84055642D01*
X156797980Y-84049756D01*
X156942996Y-84043477D01*
X157091325Y-84036937D01*
X157240101Y-84030265D01*
X157386454Y-84023593D01*
X157527516Y-84017050D01*
X157660420Y-84010769D01*
X157782296Y-84004880D01*
X157890278Y-83999513D01*
X157981496Y-83994800D01*
X158053082Y-83990871D01*
X158102168Y-83987856D01*
X158102300Y-83987847D01*
X158235650Y-83978750D01*
X158269245Y-83788250D01*
X158281119Y-83719574D01*
X158291334Y-83657949D01*
X158299063Y-83608563D01*
X158303479Y-83576601D01*
X158304170Y-83569175D01*
X158305500Y-83540600D01*
X156083000Y-83540600D01*
X156083000Y-84077931D01*
X156083000Y-84162900D01*
X156083000Y-84632800D01*
X155092400Y-84632800D01*
X155092400Y-80962500D01*
X156082724Y-80962500D01*
X156089350Y-82035650D01*
X162711408Y-82042048D01*
X162723879Y-81994399D01*
X162732859Y-81959569D01*
X162745608Y-81909474D01*
X162759743Y-81853493D01*
X162763433Y-81838800D01*
X162852528Y-81498109D01*
X162953077Y-81139753D01*
X163063683Y-80767978D01*
X163182948Y-80387030D01*
X163309478Y-80001153D01*
X163441874Y-79614594D01*
X163578741Y-79231597D01*
X163718681Y-78856407D01*
X163860297Y-78493270D01*
X163881724Y-78439789D01*
X163967577Y-78229446D01*
X164059433Y-78010234D01*
X164155790Y-77785453D01*
X164255148Y-77558405D01*
X164356007Y-77332388D01*
X164456868Y-77110704D01*
X164556229Y-76896654D01*
X164652591Y-76693537D01*
X164744453Y-76504654D01*
X164830316Y-76333306D01*
X164901279Y-76196706D01*
X164937237Y-76130341D01*
X164966788Y-76078597D01*
X164988905Y-76042979D01*
X165002561Y-76024988D01*
X165006729Y-76026127D01*
X165000382Y-76047899D01*
X164997165Y-76056400D01*
X164869747Y-76390525D01*
X164740115Y-76742555D01*
X164609884Y-77107655D01*
X164480669Y-77480990D01*
X164354085Y-77857724D01*
X164231746Y-78233024D01*
X164115268Y-78602054D01*
X164006264Y-78959979D01*
X163906351Y-79301965D01*
X163869059Y-79434049D01*
X163628197Y-80343610D01*
X163412089Y-81258635D01*
X163220780Y-82178708D01*
X163054314Y-83103417D01*
X162912734Y-84032348D01*
X162796084Y-84965087D01*
X162704408Y-85901220D01*
X162637749Y-86840334D01*
X162596153Y-87782016D01*
X162579661Y-88725851D01*
X162588319Y-89671426D01*
X162622171Y-90618328D01*
X162643043Y-91001850D01*
X162711226Y-91932834D01*
X162804228Y-92861916D01*
X162921865Y-93788026D01*
X163063956Y-94710095D01*
X163230316Y-95627055D01*
X163420763Y-96537835D01*
X163635114Y-97441368D01*
X163873184Y-98336583D01*
X163938980Y-98567965D01*
X164027962Y-98870154D01*
X164124288Y-99185233D01*
X164226203Y-99507892D01*
X164331952Y-99832822D01*
X164439777Y-100154714D01*
X164547924Y-100468259D01*
X164654636Y-100768146D01*
X164758157Y-101049068D01*
X164769545Y-101079300D01*
X164820682Y-101215434D01*
X164867280Y-101340868D01*
X164908735Y-101453898D01*
X164944440Y-101552817D01*
X164973791Y-101635921D01*
X164996183Y-101701505D01*
X165011011Y-101747864D01*
X165017670Y-101773293D01*
X165017426Y-101777800D01*
X165008384Y-101766657D01*
X164989660Y-101734676D01*
X164962319Y-101684034D01*
X164927428Y-101616908D01*
X164886054Y-101535473D01*
X164839265Y-101441905D01*
X164788126Y-101338381D01*
X164733704Y-101227076D01*
X164677066Y-101110167D01*
X164619280Y-100989830D01*
X164561410Y-100868241D01*
X164504526Y-100747576D01*
X164449692Y-100630010D01*
X164397976Y-100517721D01*
X164375092Y-100467480D01*
X164141179Y-99936945D01*
X163916109Y-99396583D01*
X163701162Y-98850016D01*
X163497619Y-98300866D01*
X163306760Y-97752753D01*
X163129866Y-97209300D01*
X162968217Y-96674128D01*
X162823092Y-96150858D01*
X162753873Y-95881825D01*
X162733157Y-95800345D01*
X162714050Y-95727763D01*
X162697505Y-95667493D01*
X162684474Y-95622948D01*
X162675911Y-95597543D01*
X162673257Y-95592900D01*
X162665503Y-95604010D01*
X162652196Y-95633577D01*
X162635800Y-95675954D01*
X162630294Y-95691325D01*
X162592224Y-95788929D01*
X162544557Y-95894879D01*
X162491836Y-95999904D01*
X162438608Y-96094731D01*
X162410880Y-96139000D01*
X162302701Y-96286835D01*
X162186601Y-96412003D01*
X162059555Y-96516762D01*
X161918540Y-96603370D01*
X161760532Y-96674083D01*
X161639250Y-96715019D01*
X161550350Y-96741666D01*
X158321374Y-96745302D01*
X155092399Y-96748938D01*
X155092399Y-96005819D01*
X155092400Y-95262700D01*
X155838525Y-95260715D01*
X155929917Y-95260501D01*
X156044935Y-95260281D01*
X156181808Y-95260055D01*
X156338760Y-95259827D01*
X156514019Y-95259597D01*
X156705812Y-95259368D01*
X156912364Y-95259141D01*
X157131904Y-95258918D01*
X157362657Y-95258701D01*
X157602850Y-95258491D01*
X157850710Y-95258291D01*
X158104464Y-95258102D01*
X158362338Y-95257925D01*
X158622559Y-95257763D01*
X158883354Y-95257617D01*
X159035750Y-95257540D01*
X159283614Y-95257367D01*
X159524803Y-95257095D01*
X159758077Y-95256729D01*
X159982199Y-95256276D01*
X160195931Y-95255742D01*
X160398036Y-95255131D01*
X160587276Y-95254450D01*
X160762412Y-95253705D01*
X160922207Y-95252901D01*
X161065423Y-95252045D01*
X161190822Y-95251142D01*
X161297167Y-95250197D01*
X161383219Y-95249217D01*
X161447742Y-95248207D01*
X161489496Y-95247174D01*
X161507244Y-95246122D01*
X161507716Y-95245988D01*
X161523354Y-95229632D01*
X161543926Y-95196949D01*
X161563995Y-95157088D01*
X161594935Y-95062590D01*
X161607197Y-94962372D01*
X161601199Y-94862431D01*
X161577359Y-94768766D01*
X161536096Y-94687375D01*
X161530713Y-94679706D01*
X161491360Y-94625381D01*
X159653955Y-94627822D01*
X159409239Y-94628122D01*
X159151963Y-94628391D01*
X158885351Y-94628627D01*
X158612627Y-94628830D01*
X158337016Y-94628997D01*
X158061743Y-94629129D01*
X157790031Y-94629223D01*
X157525105Y-94629279D01*
X157270191Y-94629296D01*
X157028512Y-94629272D01*
X156803292Y-94629205D01*
X156597756Y-94629096D01*
X156454475Y-94628982D01*
X155092400Y-94627700D01*
X155092400Y-93128594D01*
X158442025Y-93132655D01*
X158790265Y-93133059D01*
X159114045Y-93133410D01*
X159414304Y-93133731D01*
X159691982Y-93134043D01*
X159948018Y-93134368D01*
X160183353Y-93134729D01*
X160398924Y-93135147D01*
X160595673Y-93135645D01*
X160774539Y-93136244D01*
X160936461Y-93136966D01*
X161082378Y-93137833D01*
X161213231Y-93138867D01*
X161329959Y-93140091D01*
X161433501Y-93141526D01*
X161524798Y-93143194D01*
X161604787Y-93145118D01*
X161674411Y-93147318D01*
X161734607Y-93149818D01*
X161786315Y-93152639D01*
X161830475Y-93155802D01*
X161868026Y-93159331D01*
X161899909Y-93163247D01*
X161927062Y-93167572D01*
X161950426Y-93172328D01*
X161970939Y-93177537D01*
X161989541Y-93183221D01*
X162007172Y-93189402D01*
X162024772Y-93196101D01*
X162043279Y-93203342D01*
X162063635Y-93211146D01*
X162081874Y-93217806D01*
X162131282Y-93234432D01*
X162171190Y-93246129D01*
X162195986Y-93251343D01*
X162201143Y-93250890D01*
X162201141Y-93237072D01*
X162197839Y-93201264D01*
X162191618Y-93146606D01*
X162182861Y-93076240D01*
X162171949Y-92993307D01*
X162159265Y-92900949D01*
X162154324Y-92865898D01*
X162140297Y-92765648D01*
X162127145Y-92668978D01*
X162115402Y-92580036D01*
X162105606Y-92502967D01*
X162098291Y-92441918D01*
X162093994Y-92401034D01*
X162093546Y-92395675D01*
X162089126Y-92351038D01*
X162084035Y-92318347D01*
X162079287Y-92303895D01*
X162078741Y-92303684D01*
X162064129Y-92310244D01*
X162038123Y-92326273D01*
X162032950Y-92329756D01*
X161961869Y-92372361D01*
X161877352Y-92414068D01*
X161790969Y-92449530D01*
X161732226Y-92468727D01*
X161694058Y-92478360D01*
X161651843Y-92486730D01*
X161603657Y-92493919D01*
X161547580Y-92500011D01*
X161481688Y-92505089D01*
X161404058Y-92509235D01*
X161312767Y-92512533D01*
X161205894Y-92515066D01*
X161081516Y-92516916D01*
X160937709Y-92518167D01*
X160772551Y-92518901D01*
X160584121Y-92519202D01*
X160562925Y-92519212D01*
X159791400Y-92519500D01*
X159791400Y-91084400D01*
X160604607Y-91084400D01*
X160774759Y-91084310D01*
X160921246Y-91084015D01*
X161045803Y-91083479D01*
X161150163Y-91082669D01*
X161236062Y-91081549D01*
X161305234Y-91080083D01*
X161359413Y-91078237D01*
X161400334Y-91075976D01*
X161429731Y-91073263D01*
X161449339Y-91070065D01*
X161459275Y-91067077D01*
X161515629Y-91030036D01*
X161559124Y-90972141D01*
X161589129Y-90894804D01*
X161605010Y-90799435D01*
X161607500Y-90736854D01*
X161600466Y-90633695D01*
X161580009Y-90545622D01*
X161547092Y-90474819D01*
X161502681Y-90423476D01*
X161457735Y-90397188D01*
X161439422Y-90394956D01*
X161398289Y-90392883D01*
X161336917Y-90391014D01*
X161257886Y-90389391D01*
X161163778Y-90388057D01*
X161057171Y-90387055D01*
X160940647Y-90386430D01*
X160816786Y-90386224D01*
X160803398Y-90386228D01*
X160661201Y-90386330D01*
X160542027Y-90386538D01*
X160443497Y-90386948D01*
X160363233Y-90387656D01*
X160298859Y-90388760D01*
X160247996Y-90390356D01*
X160208266Y-90392540D01*
X160177291Y-90395408D01*
X160152694Y-90399057D01*
X160132097Y-90403584D01*
X160113123Y-90409085D01*
X160095465Y-90414949D01*
X160042027Y-90435367D01*
X159989046Y-90460596D01*
X159935117Y-90491961D01*
X159878839Y-90530788D01*
X159818807Y-90578402D01*
X159753617Y-90636129D01*
X159681868Y-90705294D01*
X159602155Y-90787224D01*
X159513075Y-90883244D01*
X159413224Y-90994679D01*
X159301200Y-91122855D01*
X159175598Y-91269098D01*
X159111582Y-91344326D01*
X158966248Y-91513386D01*
X158833502Y-91663035D01*
X158711616Y-91794847D01*
X158598863Y-91910392D01*
X158493518Y-92011245D01*
X158393852Y-92098977D01*
X158298140Y-92175160D01*
X158204653Y-92241367D01*
X158111666Y-92299170D01*
X158017452Y-92350141D01*
X157994350Y-92361589D01*
X157919855Y-92397074D01*
X157854238Y-92425816D01*
X157793359Y-92448645D01*
X157733083Y-92466390D01*
X157669271Y-92479879D01*
X157597786Y-92489941D01*
X157514489Y-92497406D01*
X157415245Y-92503101D01*
X157295914Y-92507857D01*
X157257750Y-92509152D01*
X157146667Y-92512123D01*
X157017595Y-92514399D01*
X156877935Y-92515924D01*
X156735088Y-92516641D01*
X156596457Y-92516494D01*
X156469444Y-92515426D01*
X156457650Y-92515266D01*
X156322723Y-92513032D01*
X156209865Y-92510134D01*
X156115742Y-92506067D01*
X156037023Y-92500324D01*
X155970376Y-92492398D01*
X155912470Y-92481782D01*
X155859972Y-92467969D01*
X155809551Y-92450454D01*
X155757874Y-92428729D01*
X155701611Y-92402288D01*
X155695650Y-92399387D01*
X155573666Y-92329536D01*
X155466350Y-92245310D01*
X155372165Y-92144750D01*
X155289575Y-92025899D01*
X155217042Y-91886803D01*
X155153030Y-91725503D01*
X155142820Y-91695541D01*
X155102739Y-91560570D01*
X155070849Y-91419191D01*
X155046796Y-91268186D01*
X155030224Y-91104339D01*
X155020781Y-90924434D01*
X155018110Y-90725254D01*
X155019918Y-90580139D01*
X155019918Y-90580139D01*
G37*
X155019918Y-90580139D02*
X155024198Y-90430762D01*
X155030541Y-90301803D01*
X155039496Y-90188325D01*
X155051610Y-90085391D01*
X155067430Y-89988066D01*
X155087503Y-89891412D01*
X155103767Y-89823927D01*
X155158100Y-89645662D01*
X155225876Y-89488671D01*
X155307518Y-89352417D01*
X155403452Y-89236366D01*
X155514101Y-89139981D01*
X155639890Y-89062726D01*
X155741419Y-89018139D01*
X155783898Y-89002607D01*
X155824099Y-88989222D01*
X155864224Y-88977824D01*
X155906476Y-88968256D01*
X155953054Y-88960357D01*
X156006161Y-88953969D01*
X156067997Y-88948933D01*
X156140765Y-88945089D01*
X156226665Y-88942278D01*
X156327900Y-88940342D01*
X156446669Y-88939121D01*
X156585176Y-88938456D01*
X156745621Y-88938188D01*
X156848175Y-88938152D01*
X157607000Y-88938100D01*
X157607000Y-90309700D01*
X156898490Y-90309700D01*
X156189981Y-90309701D01*
X156133315Y-90338275D01*
X156082127Y-90378064D01*
X156044129Y-90438261D01*
X156019759Y-90517309D01*
X156009451Y-90613651D01*
X156013644Y-90725729D01*
X156016780Y-90754178D01*
X156029974Y-90833606D01*
X156048632Y-90892651D01*
X156075068Y-90936135D01*
X156111594Y-90968879D01*
X156123397Y-90976450D01*
X156133702Y-90982163D01*
X156145497Y-90986948D01*
X156160986Y-90990889D01*
X156182372Y-90994067D01*
X156211857Y-90996564D01*
X156251644Y-90998461D01*
X156303936Y-90999842D01*
X156370936Y-91000787D01*
X156454846Y-91001378D01*
X156557870Y-91001698D01*
X156682211Y-91001828D01*
X156806900Y-91001850D01*
X156959291Y-91001814D01*
X157088619Y-91001544D01*
X157197217Y-91000801D01*
X157287423Y-90999346D01*
X157361571Y-90996941D01*
X157421997Y-90993345D01*
X157471037Y-90988319D01*
X157511027Y-90981624D01*
X157544302Y-90973020D01*
X157573197Y-90962270D01*
X157600049Y-90949132D01*
X157627193Y-90933368D01*
X157656929Y-90914761D01*
X157691249Y-90892261D01*
X157725081Y-90868076D01*
X157759845Y-90840733D01*
X157796959Y-90808758D01*
X157837845Y-90770679D01*
X157883922Y-90725021D01*
X157936609Y-90670313D01*
X157997328Y-90605080D01*
X158067496Y-90527849D01*
X158148534Y-90437147D01*
X158241863Y-90331502D01*
X158348901Y-90209439D01*
X158466479Y-90074750D01*
X158617852Y-89903105D01*
X158756087Y-89750800D01*
X158882711Y-89616436D01*
X158999250Y-89498615D01*
X159107232Y-89395939D01*
X159208184Y-89307009D01*
X159303633Y-89230427D01*
X159395107Y-89164794D01*
X159484131Y-89108711D01*
X159572233Y-89060781D01*
X159575500Y-89059144D01*
X159648424Y-89024573D01*
X159720705Y-88994663D01*
X159794659Y-88969134D01*
X159872600Y-88947704D01*
X159956842Y-88930093D01*
X160049702Y-88916022D01*
X160153493Y-88905209D01*
X160270531Y-88897374D01*
X160403130Y-88892237D01*
X160553606Y-88889516D01*
X160724273Y-88888933D01*
X160917445Y-88890205D01*
X160965462Y-88890732D01*
X161115539Y-88892747D01*
X161243028Y-88895151D01*
X161350744Y-88898169D01*
X161441500Y-88902024D01*
X161518108Y-88906942D01*
X161583381Y-88913147D01*
X161640132Y-88920862D01*
X161691175Y-88930313D01*
X161739322Y-88941722D01*
X161787385Y-88955316D01*
X161791650Y-88956607D01*
X161829378Y-88967595D01*
X161856724Y-88974657D01*
X161864675Y-88976063D01*
X161867227Y-88963956D01*
X161869520Y-88929778D01*
X161871460Y-88876857D01*
X161872950Y-88808522D01*
X161873895Y-88728100D01*
X161874200Y-88645145D01*
X161874104Y-88544888D01*
X161873690Y-88467248D01*
X161872767Y-88409444D01*
X161871144Y-88368691D01*
X161868630Y-88342209D01*
X161865034Y-88327214D01*
X161860166Y-88320923D01*
X161853834Y-88320556D01*
X161851975Y-88321071D01*
X161765744Y-88344952D01*
X161668118Y-88366899D01*
X161572050Y-88384203D01*
X161512250Y-88392145D01*
X161479237Y-88394297D01*
X161423387Y-88396334D01*
X161347262Y-88398222D01*
X161253426Y-88399925D01*
X161144441Y-88401410D01*
X161022869Y-88402642D01*
X160891274Y-88403586D01*
X160752217Y-88404209D01*
X160608263Y-88404475D01*
X160594675Y-88404480D01*
X159791400Y-88404700D01*
X159791400Y-86970133D01*
X160626425Y-86966692D01*
X160797190Y-86966075D01*
X160944411Y-86965570D01*
X161069940Y-86964934D01*
X161175630Y-86963920D01*
X161263335Y-86962285D01*
X161334907Y-86959784D01*
X161392199Y-86956173D01*
X161437065Y-86951205D01*
X161471356Y-86944638D01*
X161496926Y-86936226D01*
X161515629Y-86925724D01*
X161529316Y-86912888D01*
X161539841Y-86897473D01*
X161549056Y-86879234D01*
X161558816Y-86857928D01*
X161566187Y-86842600D01*
X161581547Y-86809831D01*
X161591624Y-86780394D01*
X161597515Y-86747513D01*
X161600317Y-86704411D01*
X161601129Y-86644312D01*
X161601150Y-86626700D01*
X161598517Y-86535684D01*
X161589634Y-86464580D01*
X161573021Y-86408355D01*
X161547201Y-86361972D01*
X161511381Y-86321065D01*
X161466377Y-86277450D01*
X160127950Y-86277450D01*
X160032700Y-86322966D01*
X159982737Y-86348678D01*
X159933018Y-86378448D01*
X159882045Y-86413737D01*
X159828324Y-86456009D01*
X159770357Y-86506727D01*
X159706648Y-86567354D01*
X159635702Y-86639353D01*
X159556022Y-86724187D01*
X159466112Y-86823319D01*
X159364476Y-86938212D01*
X159249618Y-87070328D01*
X159150314Y-87185779D01*
X158998659Y-87360712D01*
X158860442Y-87515847D01*
X158734620Y-87652255D01*
X158620152Y-87771007D01*
X158515993Y-87873172D01*
X158421102Y-87959821D01*
X158334436Y-88032025D01*
X158301174Y-88057600D01*
X158191769Y-88133479D01*
X158074135Y-88204381D01*
X157955585Y-88266327D01*
X157843434Y-88315341D01*
X157795430Y-88332641D01*
X157754359Y-88345819D01*
X157715138Y-88357114D01*
X157675498Y-88366669D01*
X157633168Y-88374628D01*
X157585878Y-88381132D01*
X157531356Y-88386324D01*
X157467334Y-88390347D01*
X157391539Y-88393344D01*
X157301703Y-88395456D01*
X157195554Y-88396827D01*
X157070823Y-88397599D01*
X156925238Y-88397914D01*
X156756529Y-88397916D01*
X156756100Y-88397916D01*
X156025850Y-88397482D01*
X155902357Y-88363807D01*
X155746598Y-88309550D01*
X155607089Y-88235964D01*
X155483299Y-88142615D01*
X155374701Y-88029071D01*
X155280764Y-87894896D01*
X155239419Y-87820500D01*
X155195242Y-87727287D01*
X155157065Y-87629738D01*
X155123729Y-87523688D01*
X155094075Y-87404974D01*
X155066944Y-87269433D01*
X155041177Y-87112901D01*
X155039679Y-87102950D01*
X155032976Y-87041142D01*
X155027802Y-86958457D01*
X155024128Y-86859370D01*
X155021931Y-86748357D01*
X155021183Y-86629895D01*
X155021858Y-86508458D01*
X155023931Y-86388522D01*
X155027375Y-86274562D01*
X155032164Y-86171054D01*
X155038273Y-86082475D01*
X155045675Y-86013298D01*
X155046033Y-86010750D01*
X155082870Y-85802364D01*
X155131160Y-85616171D01*
X155191321Y-85451486D01*
X155263772Y-85307623D01*
X155348935Y-85183896D01*
X155447227Y-85079620D01*
X155559069Y-84994110D01*
X155684880Y-84926679D01*
X155717849Y-84912851D01*
X155757473Y-84897185D01*
X155793470Y-84883675D01*
X155828003Y-84872148D01*
X155863236Y-84862432D01*
X155901335Y-84854357D01*
X155944463Y-84847750D01*
X155994785Y-84842440D01*
X156054465Y-84838255D01*
X156125667Y-84835023D01*
X156210555Y-84832573D01*
X156311293Y-84830733D01*
X156430047Y-84829331D01*
X156568980Y-84828195D01*
X156730256Y-84827155D01*
X156803724Y-84826714D01*
X157606999Y-84821913D01*
X157606999Y-85508407D01*
X157607000Y-86194900D01*
X156899809Y-86194900D01*
X156747786Y-86194925D01*
X156619043Y-86195049D01*
X156511458Y-86195343D01*
X156422913Y-86195883D01*
X156351285Y-86196741D01*
X156294455Y-86197991D01*
X156250302Y-86199705D01*
X156216706Y-86201957D01*
X156191546Y-86204820D01*
X156172701Y-86208367D01*
X156158052Y-86212672D01*
X156145478Y-86217807D01*
X156138288Y-86221202D01*
X156091906Y-86251302D01*
X156058243Y-86292697D01*
X156034741Y-86349863D01*
X156018840Y-86427277D01*
X156018287Y-86431130D01*
X156009299Y-86548575D01*
X156016394Y-86655398D01*
X156039188Y-86747390D01*
X156049437Y-86772361D01*
X156060367Y-86796801D01*
X156070355Y-86817506D01*
X156081479Y-86834783D01*
X156095814Y-86848942D01*
X156115437Y-86860293D01*
X156142423Y-86869143D01*
X156178849Y-86875803D01*
X156226790Y-86880582D01*
X156288324Y-86883789D01*
X156365525Y-86885733D01*
X156460471Y-86886723D01*
X156575237Y-86887068D01*
X156711899Y-86887078D01*
X156819600Y-86887050D01*
X156965175Y-86887033D01*
X157087618Y-86886920D01*
X157189199Y-86886622D01*
X157272185Y-86886047D01*
X157338845Y-86885106D01*
X157391448Y-86883707D01*
X157432263Y-86881761D01*
X157463557Y-86879177D01*
X157487599Y-86875865D01*
X157506658Y-86871733D01*
X157523003Y-86866692D01*
X157538901Y-86860652D01*
X157545193Y-86858117D01*
X157591500Y-86835994D01*
X157646660Y-86804739D01*
X157699436Y-86770761D01*
X157703943Y-86767606D01*
X157732239Y-86747342D01*
X157759044Y-86727250D01*
X157785645Y-86705954D01*
X157813332Y-86682074D01*
X157843395Y-86654231D01*
X157877123Y-86621047D01*
X157915805Y-86581143D01*
X157960730Y-86533140D01*
X158013188Y-86475660D01*
X158074467Y-86407323D01*
X158145858Y-86326752D01*
X158228650Y-86232568D01*
X158324131Y-86123391D01*
X158433591Y-85997844D01*
X158558319Y-85854547D01*
X158565445Y-85846356D01*
X158631800Y-85771669D01*
X158709992Y-85686197D01*
X158793595Y-85596810D01*
X158876184Y-85510375D01*
X158951333Y-85433762D01*
X158952795Y-85432298D01*
X159099061Y-85291569D01*
X159236502Y-85171799D01*
X159367908Y-85071360D01*
X159496070Y-84988624D01*
X159623779Y-84921960D01*
X159753826Y-84869741D01*
X159889001Y-84830337D01*
X160032096Y-84802120D01*
X160032700Y-84802026D01*
X160069645Y-84796700D01*
X160108106Y-84792252D01*
X160150679Y-84788603D01*
X160199960Y-84785678D01*
X160258544Y-84783400D01*
X160329028Y-84781692D01*
X160414005Y-84780479D01*
X160516073Y-84779684D01*
X160637827Y-84779230D01*
X160781863Y-84779042D01*
X160813750Y-84779029D01*
X160977900Y-84779175D01*
X161119079Y-84779821D01*
X161239711Y-84781131D01*
X161342223Y-84783268D01*
X161429041Y-84786395D01*
X161502589Y-84790675D01*
X161565295Y-84796272D01*
X161619583Y-84803349D01*
X161667880Y-84812069D01*
X161712611Y-84822596D01*
X161756202Y-84835092D01*
X161785300Y-84844422D01*
X161907959Y-84894296D01*
X162032596Y-84963984D01*
X162075117Y-84991817D01*
X162106500Y-85011878D01*
X162127988Y-85023395D01*
X162133537Y-85024550D01*
X162136239Y-85011265D01*
X162141889Y-84976387D01*
X162149950Y-84923481D01*
X162159885Y-84856111D01*
X162171156Y-84777845D01*
X162178209Y-84728050D01*
X162191103Y-84639841D01*
X162207525Y-84532756D01*
X162226492Y-84412916D01*
X162247017Y-84286442D01*
X162268117Y-84159455D01*
X162288806Y-84038075D01*
X162294414Y-84005796D01*
X162312105Y-83903951D01*
X162328312Y-83809700D01*
X162342529Y-83726056D01*
X162354251Y-83656030D01*
X162362973Y-83602636D01*
X162368189Y-83568885D01*
X162369500Y-83558121D01*
X162366482Y-83555739D01*
X162356689Y-83553575D01*
X162339015Y-83551621D01*
X162312350Y-83549865D01*
X162275588Y-83548299D01*
X162227620Y-83546912D01*
X162167339Y-83545694D01*
X162093637Y-83544635D01*
X162005407Y-83543725D01*
X161901540Y-83542955D01*
X161780929Y-83542314D01*
X161642466Y-83541791D01*
X161485043Y-83541378D01*
X161307553Y-83541065D01*
X161108888Y-83540840D01*
X160887939Y-83540695D01*
X160643601Y-83540618D01*
X160426717Y-83540600D01*
X158483935Y-83540601D01*
X158489555Y-83575525D01*
X158492980Y-83600377D01*
X158498571Y-83644921D01*
X158505651Y-83703608D01*
X158513544Y-83770890D01*
X158516617Y-83797571D01*
X158538059Y-83984692D01*
X158577354Y-83990981D01*
X158596488Y-83992797D01*
X158638785Y-83995967D01*
X158702054Y-84000350D01*
X158784103Y-84005805D01*
X158882739Y-84012191D01*
X158995769Y-84019367D01*
X159121003Y-84027191D01*
X159256248Y-84035523D01*
X159399311Y-84044220D01*
X159473900Y-84048711D01*
X159731873Y-84064287D01*
X159965156Y-84078577D01*
X160174423Y-84091628D01*
X160360350Y-84103488D01*
X160523610Y-84114204D01*
X160664880Y-84123824D01*
X160784833Y-84132396D01*
X160884144Y-84139967D01*
X160963489Y-84146584D01*
X161023541Y-84152294D01*
X161064975Y-84157146D01*
X161088467Y-84161187D01*
X161093150Y-84162655D01*
X161103514Y-84169580D01*
X161093182Y-84173354D01*
X161061400Y-84174864D01*
X161029102Y-84175957D01*
X160977288Y-84178331D01*
X160911791Y-84181694D01*
X160838446Y-84185750D01*
X160794700Y-84188299D01*
X160737270Y-84191505D01*
X160655005Y-84195776D01*
X160548448Y-84201088D01*
X160418140Y-84207414D01*
X160264623Y-84214730D01*
X160088439Y-84223010D01*
X159890129Y-84232229D01*
X159670237Y-84242362D01*
X159429302Y-84253382D01*
X159167869Y-84265265D01*
X158886477Y-84277985D01*
X158723667Y-84285317D01*
X158538584Y-84293642D01*
X158458106Y-84777546D01*
X158440007Y-84885377D01*
X158422911Y-84985340D01*
X158407315Y-85074661D01*
X158393718Y-85150568D01*
X158382618Y-85210290D01*
X158374512Y-85251052D01*
X158369900Y-85270083D01*
X158369434Y-85271045D01*
X158365489Y-85261902D01*
X158359091Y-85230117D01*
X158350595Y-85178291D01*
X158340353Y-85109025D01*
X158328720Y-85024923D01*
X158316049Y-84928585D01*
X158302693Y-84822614D01*
X158289005Y-84709612D01*
X158275340Y-84592179D01*
X158266516Y-84513605D01*
X158258393Y-84442687D01*
X158250801Y-84381002D01*
X158244305Y-84332798D01*
X158239471Y-84302320D01*
X158237228Y-84293596D01*
X158223830Y-84291768D01*
X158187522Y-84288652D01*
X158130756Y-84284411D01*
X158055981Y-84279213D01*
X157965647Y-84273221D01*
X157862204Y-84266603D01*
X157748101Y-84259523D01*
X157625788Y-84252147D01*
X157608283Y-84251108D01*
X157466259Y-84242659D01*
X157316574Y-84233687D01*
X157164279Y-84224501D01*
X157014428Y-84215407D01*
X156872074Y-84206713D01*
X156742268Y-84198725D01*
X156630063Y-84191750D01*
X156579025Y-84188542D01*
X156477915Y-84182242D01*
X156383153Y-84176503D01*
X156298197Y-84171523D01*
X156226505Y-84167497D01*
X156171536Y-84164623D01*
X156136747Y-84163097D01*
X156128074Y-84162900D01*
X156083000Y-84162900D01*
X156083000Y-84077931D01*
X156308425Y-84069634D01*
X156411501Y-84065712D01*
X156529365Y-84061004D01*
X156659147Y-84055642D01*
X156797980Y-84049756D01*
X156942996Y-84043477D01*
X157091325Y-84036937D01*
X157240101Y-84030265D01*
X157386454Y-84023593D01*
X157527516Y-84017050D01*
X157660420Y-84010769D01*
X157782296Y-84004880D01*
X157890278Y-83999513D01*
X157981496Y-83994800D01*
X158053082Y-83990871D01*
X158102168Y-83987856D01*
X158102300Y-83987847D01*
X158235650Y-83978750D01*
X158269245Y-83788250D01*
X158281119Y-83719574D01*
X158291334Y-83657949D01*
X158299063Y-83608563D01*
X158303479Y-83576601D01*
X158304170Y-83569175D01*
X158305500Y-83540600D01*
X156083000Y-83540600D01*
X156083000Y-84077931D01*
X156083000Y-84162900D01*
X156083000Y-84632800D01*
X155092400Y-84632800D01*
X155092400Y-80962500D01*
X156082724Y-80962500D01*
X156089350Y-82035650D01*
X162711408Y-82042048D01*
X162723879Y-81994399D01*
X162732859Y-81959569D01*
X162745608Y-81909474D01*
X162759743Y-81853493D01*
X162763433Y-81838800D01*
X162852528Y-81498109D01*
X162953077Y-81139753D01*
X163063683Y-80767978D01*
X163182948Y-80387030D01*
X163309478Y-80001153D01*
X163441874Y-79614594D01*
X163578741Y-79231597D01*
X163718681Y-78856407D01*
X163860297Y-78493270D01*
X163881724Y-78439789D01*
X163967577Y-78229446D01*
X164059433Y-78010234D01*
X164155790Y-77785453D01*
X164255148Y-77558405D01*
X164356007Y-77332388D01*
X164456868Y-77110704D01*
X164556229Y-76896654D01*
X164652591Y-76693537D01*
X164744453Y-76504654D01*
X164830316Y-76333306D01*
X164901279Y-76196706D01*
X164937237Y-76130341D01*
X164966788Y-76078597D01*
X164988905Y-76042979D01*
X165002561Y-76024988D01*
X165006729Y-76026127D01*
X165000382Y-76047899D01*
X164997165Y-76056400D01*
X164869747Y-76390525D01*
X164740115Y-76742555D01*
X164609884Y-77107655D01*
X164480669Y-77480990D01*
X164354085Y-77857724D01*
X164231746Y-78233024D01*
X164115268Y-78602054D01*
X164006264Y-78959979D01*
X163906351Y-79301965D01*
X163869059Y-79434049D01*
X163628197Y-80343610D01*
X163412089Y-81258635D01*
X163220780Y-82178708D01*
X163054314Y-83103417D01*
X162912734Y-84032348D01*
X162796084Y-84965087D01*
X162704408Y-85901220D01*
X162637749Y-86840334D01*
X162596153Y-87782016D01*
X162579661Y-88725851D01*
X162588319Y-89671426D01*
X162622171Y-90618328D01*
X162643043Y-91001850D01*
X162711226Y-91932834D01*
X162804228Y-92861916D01*
X162921865Y-93788026D01*
X163063956Y-94710095D01*
X163230316Y-95627055D01*
X163420763Y-96537835D01*
X163635114Y-97441368D01*
X163873184Y-98336583D01*
X163938980Y-98567965D01*
X164027962Y-98870154D01*
X164124288Y-99185233D01*
X164226203Y-99507892D01*
X164331952Y-99832822D01*
X164439777Y-100154714D01*
X164547924Y-100468259D01*
X164654636Y-100768146D01*
X164758157Y-101049068D01*
X164769545Y-101079300D01*
X164820682Y-101215434D01*
X164867280Y-101340868D01*
X164908735Y-101453898D01*
X164944440Y-101552817D01*
X164973791Y-101635921D01*
X164996183Y-101701505D01*
X165011011Y-101747864D01*
X165017670Y-101773293D01*
X165017426Y-101777800D01*
X165008384Y-101766657D01*
X164989660Y-101734676D01*
X164962319Y-101684034D01*
X164927428Y-101616908D01*
X164886054Y-101535473D01*
X164839265Y-101441905D01*
X164788126Y-101338381D01*
X164733704Y-101227076D01*
X164677066Y-101110167D01*
X164619280Y-100989830D01*
X164561410Y-100868241D01*
X164504526Y-100747576D01*
X164449692Y-100630010D01*
X164397976Y-100517721D01*
X164375092Y-100467480D01*
X164141179Y-99936945D01*
X163916109Y-99396583D01*
X163701162Y-98850016D01*
X163497619Y-98300866D01*
X163306760Y-97752753D01*
X163129866Y-97209300D01*
X162968217Y-96674128D01*
X162823092Y-96150858D01*
X162753873Y-95881825D01*
X162733157Y-95800345D01*
X162714050Y-95727763D01*
X162697505Y-95667493D01*
X162684474Y-95622948D01*
X162675911Y-95597543D01*
X162673257Y-95592900D01*
X162665503Y-95604010D01*
X162652196Y-95633577D01*
X162635800Y-95675954D01*
X162630294Y-95691325D01*
X162592224Y-95788929D01*
X162544557Y-95894879D01*
X162491836Y-95999904D01*
X162438608Y-96094731D01*
X162410880Y-96139000D01*
X162302701Y-96286835D01*
X162186601Y-96412003D01*
X162059555Y-96516762D01*
X161918540Y-96603370D01*
X161760532Y-96674083D01*
X161639250Y-96715019D01*
X161550350Y-96741666D01*
X158321374Y-96745302D01*
X155092399Y-96748938D01*
X155092399Y-96005819D01*
X155092400Y-95262700D01*
X155838525Y-95260715D01*
X155929917Y-95260501D01*
X156044935Y-95260281D01*
X156181808Y-95260055D01*
X156338760Y-95259827D01*
X156514019Y-95259597D01*
X156705812Y-95259368D01*
X156912364Y-95259141D01*
X157131904Y-95258918D01*
X157362657Y-95258701D01*
X157602850Y-95258491D01*
X157850710Y-95258291D01*
X158104464Y-95258102D01*
X158362338Y-95257925D01*
X158622559Y-95257763D01*
X158883354Y-95257617D01*
X159035750Y-95257540D01*
X159283614Y-95257367D01*
X159524803Y-95257095D01*
X159758077Y-95256729D01*
X159982199Y-95256276D01*
X160195931Y-95255742D01*
X160398036Y-95255131D01*
X160587276Y-95254450D01*
X160762412Y-95253705D01*
X160922207Y-95252901D01*
X161065423Y-95252045D01*
X161190822Y-95251142D01*
X161297167Y-95250197D01*
X161383219Y-95249217D01*
X161447742Y-95248207D01*
X161489496Y-95247174D01*
X161507244Y-95246122D01*
X161507716Y-95245988D01*
X161523354Y-95229632D01*
X161543926Y-95196949D01*
X161563995Y-95157088D01*
X161594935Y-95062590D01*
X161607197Y-94962372D01*
X161601199Y-94862431D01*
X161577359Y-94768766D01*
X161536096Y-94687375D01*
X161530713Y-94679706D01*
X161491360Y-94625381D01*
X159653955Y-94627822D01*
X159409239Y-94628122D01*
X159151963Y-94628391D01*
X158885351Y-94628627D01*
X158612627Y-94628830D01*
X158337016Y-94628997D01*
X158061743Y-94629129D01*
X157790031Y-94629223D01*
X157525105Y-94629279D01*
X157270191Y-94629296D01*
X157028512Y-94629272D01*
X156803292Y-94629205D01*
X156597756Y-94629096D01*
X156454475Y-94628982D01*
X155092400Y-94627700D01*
X155092400Y-93128594D01*
X158442025Y-93132655D01*
X158790265Y-93133059D01*
X159114045Y-93133410D01*
X159414304Y-93133731D01*
X159691982Y-93134043D01*
X159948018Y-93134368D01*
X160183353Y-93134729D01*
X160398924Y-93135147D01*
X160595673Y-93135645D01*
X160774539Y-93136244D01*
X160936461Y-93136966D01*
X161082378Y-93137833D01*
X161213231Y-93138867D01*
X161329959Y-93140091D01*
X161433501Y-93141526D01*
X161524798Y-93143194D01*
X161604787Y-93145118D01*
X161674411Y-93147318D01*
X161734607Y-93149818D01*
X161786315Y-93152639D01*
X161830475Y-93155802D01*
X161868026Y-93159331D01*
X161899909Y-93163247D01*
X161927062Y-93167572D01*
X161950426Y-93172328D01*
X161970939Y-93177537D01*
X161989541Y-93183221D01*
X162007172Y-93189402D01*
X162024772Y-93196101D01*
X162043279Y-93203342D01*
X162063635Y-93211146D01*
X162081874Y-93217806D01*
X162131282Y-93234432D01*
X162171190Y-93246129D01*
X162195986Y-93251343D01*
X162201143Y-93250890D01*
X162201141Y-93237072D01*
X162197839Y-93201264D01*
X162191618Y-93146606D01*
X162182861Y-93076240D01*
X162171949Y-92993307D01*
X162159265Y-92900949D01*
X162154324Y-92865898D01*
X162140297Y-92765648D01*
X162127145Y-92668978D01*
X162115402Y-92580036D01*
X162105606Y-92502967D01*
X162098291Y-92441918D01*
X162093994Y-92401034D01*
X162093546Y-92395675D01*
X162089126Y-92351038D01*
X162084035Y-92318347D01*
X162079287Y-92303895D01*
X162078741Y-92303684D01*
X162064129Y-92310244D01*
X162038123Y-92326273D01*
X162032950Y-92329756D01*
X161961869Y-92372361D01*
X161877352Y-92414068D01*
X161790969Y-92449530D01*
X161732226Y-92468727D01*
X161694058Y-92478360D01*
X161651843Y-92486730D01*
X161603657Y-92493919D01*
X161547580Y-92500011D01*
X161481688Y-92505089D01*
X161404058Y-92509235D01*
X161312767Y-92512533D01*
X161205894Y-92515066D01*
X161081516Y-92516916D01*
X160937709Y-92518167D01*
X160772551Y-92518901D01*
X160584121Y-92519202D01*
X160562925Y-92519212D01*
X159791400Y-92519500D01*
X159791400Y-91084400D01*
X160604607Y-91084400D01*
X160774759Y-91084310D01*
X160921246Y-91084015D01*
X161045803Y-91083479D01*
X161150163Y-91082669D01*
X161236062Y-91081549D01*
X161305234Y-91080083D01*
X161359413Y-91078237D01*
X161400334Y-91075976D01*
X161429731Y-91073263D01*
X161449339Y-91070065D01*
X161459275Y-91067077D01*
X161515629Y-91030036D01*
X161559124Y-90972141D01*
X161589129Y-90894804D01*
X161605010Y-90799435D01*
X161607500Y-90736854D01*
X161600466Y-90633695D01*
X161580009Y-90545622D01*
X161547092Y-90474819D01*
X161502681Y-90423476D01*
X161457735Y-90397188D01*
X161439422Y-90394956D01*
X161398289Y-90392883D01*
X161336917Y-90391014D01*
X161257886Y-90389391D01*
X161163778Y-90388057D01*
X161057171Y-90387055D01*
X160940647Y-90386430D01*
X160816786Y-90386224D01*
X160803398Y-90386228D01*
X160661201Y-90386330D01*
X160542027Y-90386538D01*
X160443497Y-90386948D01*
X160363233Y-90387656D01*
X160298859Y-90388760D01*
X160247996Y-90390356D01*
X160208266Y-90392540D01*
X160177291Y-90395408D01*
X160152694Y-90399057D01*
X160132097Y-90403584D01*
X160113123Y-90409085D01*
X160095465Y-90414949D01*
X160042027Y-90435367D01*
X159989046Y-90460596D01*
X159935117Y-90491961D01*
X159878839Y-90530788D01*
X159818807Y-90578402D01*
X159753617Y-90636129D01*
X159681868Y-90705294D01*
X159602155Y-90787224D01*
X159513075Y-90883244D01*
X159413224Y-90994679D01*
X159301200Y-91122855D01*
X159175598Y-91269098D01*
X159111582Y-91344326D01*
X158966248Y-91513386D01*
X158833502Y-91663035D01*
X158711616Y-91794847D01*
X158598863Y-91910392D01*
X158493518Y-92011245D01*
X158393852Y-92098977D01*
X158298140Y-92175160D01*
X158204653Y-92241367D01*
X158111666Y-92299170D01*
X158017452Y-92350141D01*
X157994350Y-92361589D01*
X157919855Y-92397074D01*
X157854238Y-92425816D01*
X157793359Y-92448645D01*
X157733083Y-92466390D01*
X157669271Y-92479879D01*
X157597786Y-92489941D01*
X157514489Y-92497406D01*
X157415245Y-92503101D01*
X157295914Y-92507857D01*
X157257750Y-92509152D01*
X157146667Y-92512123D01*
X157017595Y-92514399D01*
X156877935Y-92515924D01*
X156735088Y-92516641D01*
X156596457Y-92516494D01*
X156469444Y-92515426D01*
X156457650Y-92515266D01*
X156322723Y-92513032D01*
X156209865Y-92510134D01*
X156115742Y-92506067D01*
X156037023Y-92500324D01*
X155970376Y-92492398D01*
X155912470Y-92481782D01*
X155859972Y-92467969D01*
X155809551Y-92450454D01*
X155757874Y-92428729D01*
X155701611Y-92402288D01*
X155695650Y-92399387D01*
X155573666Y-92329536D01*
X155466350Y-92245310D01*
X155372165Y-92144750D01*
X155289575Y-92025899D01*
X155217042Y-91886803D01*
X155153030Y-91725503D01*
X155142820Y-91695541D01*
X155102739Y-91560570D01*
X155070849Y-91419191D01*
X155046796Y-91268186D01*
X155030224Y-91104339D01*
X155020781Y-90924434D01*
X155018110Y-90725254D01*
X155019918Y-90580139D01*
D12*
X233426000Y-40640000D02*
G75*
G03X233426000Y-40640000I-2286000J0D01*
G01*
X233426000Y-137160000D02*
G75*
G03X233426000Y-137160000I-2286000J0D01*
G01*
D13*
X142406667Y-61141430D02*
X142406667Y-60665239D01*
X142692381Y-61236668D02*
X141692381Y-60903335D01*
X142692381Y-60570001D01*
X142644762Y-60284287D02*
X142692381Y-60189049D01*
X142692381Y-59998573D01*
X142644762Y-59903334D01*
X142549524Y-59855715D01*
X142501905Y-59855715D01*
X142406667Y-59903334D01*
X142359048Y-59998573D01*
X142359048Y-60141430D01*
X142311429Y-60236668D01*
X142216190Y-60284287D01*
X142168571Y-60284287D01*
X142073333Y-60236668D01*
X142025714Y-60141430D01*
X142025714Y-59998573D01*
X142073333Y-59903334D01*
X142644762Y-59474763D02*
X142692381Y-59379525D01*
X142692381Y-59189049D01*
X142644762Y-59093810D01*
X142549524Y-59046191D01*
X142501905Y-59046191D01*
X142406667Y-59093810D01*
X142359048Y-59189049D01*
X142359048Y-59331906D01*
X142311429Y-59427144D01*
X142216190Y-59474763D01*
X142168571Y-59474763D01*
X142073333Y-59427144D01*
X142025714Y-59331906D01*
X142025714Y-59189049D01*
X142073333Y-59093810D01*
X142692381Y-58617620D02*
X142025714Y-58617620D01*
X142120952Y-58617620D02*
X142073333Y-58570001D01*
X142025714Y-58474763D01*
X142025714Y-58331905D01*
X142073333Y-58236667D01*
X142168571Y-58189048D01*
X142692381Y-58189048D01*
X142168571Y-58189048D02*
X142073333Y-58141429D01*
X142025714Y-58046191D01*
X142025714Y-57903334D01*
X142073333Y-57808096D01*
X142168571Y-57760477D01*
X142692381Y-57760477D01*
X142692381Y-56855715D02*
X142168571Y-56855715D01*
X142073333Y-56903334D01*
X142025714Y-56998572D01*
X142025714Y-57189049D01*
X142073333Y-57284287D01*
X142644762Y-56855715D02*
X142692381Y-56950953D01*
X142692381Y-57189049D01*
X142644762Y-57284287D01*
X142549524Y-57331906D01*
X142454286Y-57331906D01*
X142359048Y-57284287D01*
X142311429Y-57189049D01*
X142311429Y-56950953D01*
X142263810Y-56855715D01*
X142025714Y-56379525D02*
X142692381Y-56379525D01*
X142120952Y-56379525D02*
X142073333Y-56331906D01*
X142025714Y-56236668D01*
X142025714Y-56093810D01*
X142073333Y-55998572D01*
X142168571Y-55950953D01*
X142692381Y-55950953D01*
X142025714Y-55474763D02*
X142692381Y-55474763D01*
X142120952Y-55474763D02*
X142073333Y-55427144D01*
X142025714Y-55331906D01*
X142025714Y-55189048D01*
X142073333Y-55093810D01*
X142168571Y-55046191D01*
X142692381Y-55046191D01*
X142644762Y-53855715D02*
X142692381Y-53712858D01*
X142692381Y-53474762D01*
X142644762Y-53379524D01*
X142597143Y-53331905D01*
X142501905Y-53284286D01*
X142406667Y-53284286D01*
X142311429Y-53331905D01*
X142263810Y-53379524D01*
X142216190Y-53474762D01*
X142168571Y-53665239D01*
X142120952Y-53760477D01*
X142073333Y-53808096D01*
X141978095Y-53855715D01*
X141882857Y-53855715D01*
X141787619Y-53808096D01*
X141740000Y-53760477D01*
X141692381Y-53665239D01*
X141692381Y-53427143D01*
X141740000Y-53284286D01*
X142025714Y-52998572D02*
X142025714Y-52617620D01*
X141692381Y-52855715D02*
X142549524Y-52855715D01*
X142644762Y-52808096D01*
X142692381Y-52712858D01*
X142692381Y-52617620D01*
X142692381Y-51855714D02*
X142168571Y-51855714D01*
X142073333Y-51903333D01*
X142025714Y-51998571D01*
X142025714Y-52189048D01*
X142073333Y-52284286D01*
X142644762Y-51855714D02*
X142692381Y-51950952D01*
X142692381Y-52189048D01*
X142644762Y-52284286D01*
X142549524Y-52331905D01*
X142454286Y-52331905D01*
X142359048Y-52284286D01*
X142311429Y-52189048D01*
X142311429Y-51950952D01*
X142263810Y-51855714D01*
X142644762Y-50950952D02*
X142692381Y-51046190D01*
X142692381Y-51236667D01*
X142644762Y-51331905D01*
X142597143Y-51379524D01*
X142501905Y-51427143D01*
X142216190Y-51427143D01*
X142120952Y-51379524D01*
X142073333Y-51331905D01*
X142025714Y-51236667D01*
X142025714Y-51046190D01*
X142073333Y-50950952D01*
X142692381Y-50522381D02*
X141692381Y-50522381D01*
X142311429Y-50427143D02*
X142692381Y-50141428D01*
X142025714Y-50141428D02*
X142406667Y-50522381D01*
X142644762Y-49331904D02*
X142692381Y-49427142D01*
X142692381Y-49617619D01*
X142644762Y-49712857D01*
X142549524Y-49760476D01*
X142168571Y-49760476D01*
X142073333Y-49712857D01*
X142025714Y-49617619D01*
X142025714Y-49427142D01*
X142073333Y-49331904D01*
X142168571Y-49284285D01*
X142263810Y-49284285D01*
X142359048Y-49760476D01*
X142692381Y-48427142D02*
X141692381Y-48427142D01*
X142644762Y-48427142D02*
X142692381Y-48522380D01*
X142692381Y-48712857D01*
X142644762Y-48808095D01*
X142597143Y-48855714D01*
X142501905Y-48903333D01*
X142216190Y-48903333D01*
X142120952Y-48855714D01*
X142073333Y-48808095D01*
X142025714Y-48712857D01*
X142025714Y-48522380D01*
X142073333Y-48427142D01*
X141692381Y-47189047D02*
X142501905Y-47189047D01*
X142597143Y-47141428D01*
X142644762Y-47093809D01*
X142692381Y-46998571D01*
X142692381Y-46808094D01*
X142644762Y-46712856D01*
X142597143Y-46665237D01*
X142501905Y-46617618D01*
X141692381Y-46617618D01*
X142644762Y-46189047D02*
X142692381Y-46046190D01*
X142692381Y-45808094D01*
X142644762Y-45712856D01*
X142597143Y-45665237D01*
X142501905Y-45617618D01*
X142406667Y-45617618D01*
X142311429Y-45665237D01*
X142263810Y-45712856D01*
X142216190Y-45808094D01*
X142168571Y-45998571D01*
X142120952Y-46093809D01*
X142073333Y-46141428D01*
X141978095Y-46189047D01*
X141882857Y-46189047D01*
X141787619Y-46141428D01*
X141740000Y-46093809D01*
X141692381Y-45998571D01*
X141692381Y-45760475D01*
X141740000Y-45617618D01*
X142168571Y-44855713D02*
X142216190Y-44712856D01*
X142263810Y-44665237D01*
X142359048Y-44617618D01*
X142501905Y-44617618D01*
X142597143Y-44665237D01*
X142644762Y-44712856D01*
X142692381Y-44808094D01*
X142692381Y-45189047D01*
X141692381Y-45189047D01*
X141692381Y-44855713D01*
X141740000Y-44760475D01*
X141787619Y-44712856D01*
X141882857Y-44665237D01*
X141978095Y-44665237D01*
X142073333Y-44712856D01*
X142120952Y-44760475D01*
X142168571Y-44855713D01*
X142168571Y-45189047D01*
X142406667Y-43474761D02*
X142406667Y-42998570D01*
X142692381Y-43569999D02*
X141692381Y-43236666D01*
X142692381Y-42903332D01*
X87796667Y-76381430D02*
X87796667Y-75905239D01*
X88082381Y-76476668D02*
X87082381Y-76143335D01*
X88082381Y-75810001D01*
X88034762Y-75524287D02*
X88082381Y-75429049D01*
X88082381Y-75238573D01*
X88034762Y-75143334D01*
X87939524Y-75095715D01*
X87891905Y-75095715D01*
X87796667Y-75143334D01*
X87749048Y-75238573D01*
X87749048Y-75381430D01*
X87701429Y-75476668D01*
X87606190Y-75524287D01*
X87558571Y-75524287D01*
X87463333Y-75476668D01*
X87415714Y-75381430D01*
X87415714Y-75238573D01*
X87463333Y-75143334D01*
X88034762Y-74714763D02*
X88082381Y-74619525D01*
X88082381Y-74429049D01*
X88034762Y-74333810D01*
X87939524Y-74286191D01*
X87891905Y-74286191D01*
X87796667Y-74333810D01*
X87749048Y-74429049D01*
X87749048Y-74571906D01*
X87701429Y-74667144D01*
X87606190Y-74714763D01*
X87558571Y-74714763D01*
X87463333Y-74667144D01*
X87415714Y-74571906D01*
X87415714Y-74429049D01*
X87463333Y-74333810D01*
X88082381Y-73857620D02*
X87415714Y-73857620D01*
X87510952Y-73857620D02*
X87463333Y-73810001D01*
X87415714Y-73714763D01*
X87415714Y-73571905D01*
X87463333Y-73476667D01*
X87558571Y-73429048D01*
X88082381Y-73429048D01*
X87558571Y-73429048D02*
X87463333Y-73381429D01*
X87415714Y-73286191D01*
X87415714Y-73143334D01*
X87463333Y-73048096D01*
X87558571Y-73000477D01*
X88082381Y-73000477D01*
X88082381Y-72095715D02*
X87558571Y-72095715D01*
X87463333Y-72143334D01*
X87415714Y-72238572D01*
X87415714Y-72429049D01*
X87463333Y-72524287D01*
X88034762Y-72095715D02*
X88082381Y-72190953D01*
X88082381Y-72429049D01*
X88034762Y-72524287D01*
X87939524Y-72571906D01*
X87844286Y-72571906D01*
X87749048Y-72524287D01*
X87701429Y-72429049D01*
X87701429Y-72190953D01*
X87653810Y-72095715D01*
X87415714Y-71619525D02*
X88082381Y-71619525D01*
X87510952Y-71619525D02*
X87463333Y-71571906D01*
X87415714Y-71476668D01*
X87415714Y-71333810D01*
X87463333Y-71238572D01*
X87558571Y-71190953D01*
X88082381Y-71190953D01*
X87415714Y-70714763D02*
X88082381Y-70714763D01*
X87510952Y-70714763D02*
X87463333Y-70667144D01*
X87415714Y-70571906D01*
X87415714Y-70429048D01*
X87463333Y-70333810D01*
X87558571Y-70286191D01*
X88082381Y-70286191D01*
X88034762Y-69095715D02*
X88082381Y-68952858D01*
X88082381Y-68714762D01*
X88034762Y-68619524D01*
X87987143Y-68571905D01*
X87891905Y-68524286D01*
X87796667Y-68524286D01*
X87701429Y-68571905D01*
X87653810Y-68619524D01*
X87606190Y-68714762D01*
X87558571Y-68905239D01*
X87510952Y-69000477D01*
X87463333Y-69048096D01*
X87368095Y-69095715D01*
X87272857Y-69095715D01*
X87177619Y-69048096D01*
X87130000Y-69000477D01*
X87082381Y-68905239D01*
X87082381Y-68667143D01*
X87130000Y-68524286D01*
X87415714Y-68238572D02*
X87415714Y-67857620D01*
X87082381Y-68095715D02*
X87939524Y-68095715D01*
X88034762Y-68048096D01*
X88082381Y-67952858D01*
X88082381Y-67857620D01*
X88082381Y-67095714D02*
X87558571Y-67095714D01*
X87463333Y-67143333D01*
X87415714Y-67238571D01*
X87415714Y-67429048D01*
X87463333Y-67524286D01*
X88034762Y-67095714D02*
X88082381Y-67190952D01*
X88082381Y-67429048D01*
X88034762Y-67524286D01*
X87939524Y-67571905D01*
X87844286Y-67571905D01*
X87749048Y-67524286D01*
X87701429Y-67429048D01*
X87701429Y-67190952D01*
X87653810Y-67095714D01*
X88034762Y-66190952D02*
X88082381Y-66286190D01*
X88082381Y-66476667D01*
X88034762Y-66571905D01*
X87987143Y-66619524D01*
X87891905Y-66667143D01*
X87606190Y-66667143D01*
X87510952Y-66619524D01*
X87463333Y-66571905D01*
X87415714Y-66476667D01*
X87415714Y-66286190D01*
X87463333Y-66190952D01*
X88082381Y-65762381D02*
X87082381Y-65762381D01*
X87701429Y-65667143D02*
X88082381Y-65381428D01*
X87415714Y-65381428D02*
X87796667Y-65762381D01*
X88034762Y-64571904D02*
X88082381Y-64667142D01*
X88082381Y-64857619D01*
X88034762Y-64952857D01*
X87939524Y-65000476D01*
X87558571Y-65000476D01*
X87463333Y-64952857D01*
X87415714Y-64857619D01*
X87415714Y-64667142D01*
X87463333Y-64571904D01*
X87558571Y-64524285D01*
X87653810Y-64524285D01*
X87749048Y-65000476D01*
X88082381Y-63667142D02*
X87082381Y-63667142D01*
X88034762Y-63667142D02*
X88082381Y-63762380D01*
X88082381Y-63952857D01*
X88034762Y-64048095D01*
X87987143Y-64095714D01*
X87891905Y-64143333D01*
X87606190Y-64143333D01*
X87510952Y-64095714D01*
X87463333Y-64048095D01*
X87415714Y-63952857D01*
X87415714Y-63762380D01*
X87463333Y-63667142D01*
X87082381Y-62429047D02*
X87891905Y-62429047D01*
X87987143Y-62381428D01*
X88034762Y-62333809D01*
X88082381Y-62238571D01*
X88082381Y-62048094D01*
X88034762Y-61952856D01*
X87987143Y-61905237D01*
X87891905Y-61857618D01*
X87082381Y-61857618D01*
X88034762Y-61429047D02*
X88082381Y-61286190D01*
X88082381Y-61048094D01*
X88034762Y-60952856D01*
X87987143Y-60905237D01*
X87891905Y-60857618D01*
X87796667Y-60857618D01*
X87701429Y-60905237D01*
X87653810Y-60952856D01*
X87606190Y-61048094D01*
X87558571Y-61238571D01*
X87510952Y-61333809D01*
X87463333Y-61381428D01*
X87368095Y-61429047D01*
X87272857Y-61429047D01*
X87177619Y-61381428D01*
X87130000Y-61333809D01*
X87082381Y-61238571D01*
X87082381Y-61000475D01*
X87130000Y-60857618D01*
X87558571Y-60095713D02*
X87606190Y-59952856D01*
X87653810Y-59905237D01*
X87749048Y-59857618D01*
X87891905Y-59857618D01*
X87987143Y-59905237D01*
X88034762Y-59952856D01*
X88082381Y-60048094D01*
X88082381Y-60429047D01*
X87082381Y-60429047D01*
X87082381Y-60095713D01*
X87130000Y-60000475D01*
X87177619Y-59952856D01*
X87272857Y-59905237D01*
X87368095Y-59905237D01*
X87463333Y-59952856D01*
X87510952Y-60000475D01*
X87558571Y-60095713D01*
X87558571Y-60429047D01*
X87796667Y-58714761D02*
X87796667Y-58238570D01*
X88082381Y-58809999D02*
X87082381Y-58476666D01*
X88082381Y-58143332D01*
X86480952Y-136290001D02*
X86433333Y-136385239D01*
X86385714Y-136432858D01*
X86290476Y-136480477D01*
X86242857Y-136480477D01*
X86147619Y-136432858D01*
X86100000Y-136385239D01*
X86052381Y-136290001D01*
X86052381Y-136099524D01*
X86100000Y-136004286D01*
X86147619Y-135956667D01*
X86242857Y-135909048D01*
X86290476Y-135909048D01*
X86385714Y-135956667D01*
X86433333Y-136004286D01*
X86480952Y-136099524D01*
X86480952Y-136290001D01*
X86528571Y-136385239D01*
X86576190Y-136432858D01*
X86671429Y-136480477D01*
X86861905Y-136480477D01*
X86957143Y-136432858D01*
X87004762Y-136385239D01*
X87052381Y-136290001D01*
X87052381Y-136099524D01*
X87004762Y-136004286D01*
X86957143Y-135956667D01*
X86861905Y-135909048D01*
X86671429Y-135909048D01*
X86576190Y-135956667D01*
X86528571Y-136004286D01*
X86480952Y-136099524D01*
X86385714Y-135480477D02*
X87385714Y-135480477D01*
X86433333Y-135480477D02*
X86385714Y-135385239D01*
X86385714Y-135194762D01*
X86433333Y-135099524D01*
X86480952Y-135051905D01*
X86576190Y-135004286D01*
X86861905Y-135004286D01*
X86957143Y-135051905D01*
X87004762Y-135099524D01*
X87052381Y-135194762D01*
X87052381Y-135385239D01*
X87004762Y-135480477D01*
X87052381Y-134575715D02*
X86385714Y-134575715D01*
X86052381Y-134575715D02*
X86100000Y-134623334D01*
X86147619Y-134575715D01*
X86100000Y-134528096D01*
X86052381Y-134575715D01*
X86147619Y-134575715D01*
X86385714Y-134099525D02*
X87052381Y-134099525D01*
X86480952Y-134099525D02*
X86433333Y-134051906D01*
X86385714Y-133956668D01*
X86385714Y-133813810D01*
X86433333Y-133718572D01*
X86528571Y-133670953D01*
X87052381Y-133670953D01*
X87052381Y-132432858D02*
X86052381Y-132432858D01*
X86766667Y-132099524D01*
X86052381Y-131766191D01*
X87052381Y-131766191D01*
X87052381Y-131147144D02*
X87004762Y-131242382D01*
X86957143Y-131290001D01*
X86861905Y-131337620D01*
X86576190Y-131337620D01*
X86480952Y-131290001D01*
X86433333Y-131242382D01*
X86385714Y-131147144D01*
X86385714Y-131004286D01*
X86433333Y-130909048D01*
X86480952Y-130861429D01*
X86576190Y-130813810D01*
X86861905Y-130813810D01*
X86957143Y-130861429D01*
X87004762Y-130909048D01*
X87052381Y-131004286D01*
X87052381Y-131147144D01*
X87052381Y-130242382D02*
X87004762Y-130337620D01*
X86909524Y-130385239D01*
X86052381Y-130385239D01*
X87004762Y-129480476D02*
X87052381Y-129575714D01*
X87052381Y-129766191D01*
X87004762Y-129861429D01*
X86909524Y-129909048D01*
X86528571Y-129909048D01*
X86433333Y-129861429D01*
X86385714Y-129766191D01*
X86385714Y-129575714D01*
X86433333Y-129480476D01*
X86528571Y-129432857D01*
X86623810Y-129432857D01*
X86719048Y-129909048D01*
X87052381Y-129099524D02*
X86385714Y-128575714D01*
X86385714Y-129099524D02*
X87052381Y-128575714D01*
X87052381Y-127432857D02*
X86052381Y-127432857D01*
X86766667Y-127099523D01*
X86052381Y-126766190D01*
X87052381Y-126766190D01*
X87052381Y-126290000D02*
X86385714Y-126290000D01*
X86052381Y-126290000D02*
X86100000Y-126337619D01*
X86147619Y-126290000D01*
X86100000Y-126242381D01*
X86052381Y-126290000D01*
X86147619Y-126290000D01*
X86385714Y-125813810D02*
X87052381Y-125813810D01*
X86480952Y-125813810D02*
X86433333Y-125766191D01*
X86385714Y-125670953D01*
X86385714Y-125528095D01*
X86433333Y-125432857D01*
X86528571Y-125385238D01*
X87052381Y-125385238D01*
X87052381Y-124909048D02*
X86385714Y-124909048D01*
X86052381Y-124909048D02*
X86100000Y-124956667D01*
X86147619Y-124909048D01*
X86100000Y-124861429D01*
X86052381Y-124909048D01*
X86147619Y-124909048D01*
X86385714Y-124575715D02*
X86385714Y-124194763D01*
X87052381Y-124432858D02*
X86195238Y-124432858D01*
X86100000Y-124385239D01*
X86052381Y-124290001D01*
X86052381Y-124194763D01*
X87052381Y-123861429D02*
X86385714Y-123861429D01*
X86052381Y-123861429D02*
X86100000Y-123909048D01*
X86147619Y-123861429D01*
X86100000Y-123813810D01*
X86052381Y-123861429D01*
X86147619Y-123861429D01*
X86385714Y-123528096D02*
X86385714Y-123147144D01*
X86052381Y-123385239D02*
X86909524Y-123385239D01*
X87004762Y-123337620D01*
X87052381Y-123242382D01*
X87052381Y-123147144D01*
X86052381Y-121766190D02*
X86766667Y-121766190D01*
X86909524Y-121813810D01*
X87004762Y-121909048D01*
X87052381Y-122051905D01*
X87052381Y-122147143D01*
X87052381Y-121290000D02*
X86385714Y-121290000D01*
X86576190Y-121290000D02*
X86480952Y-121242381D01*
X86433333Y-121194762D01*
X86385714Y-121099524D01*
X86385714Y-121004285D01*
X86530952Y-104490001D02*
X86483333Y-104585239D01*
X86435714Y-104632858D01*
X86340476Y-104680477D01*
X86292857Y-104680477D01*
X86197619Y-104632858D01*
X86150000Y-104585239D01*
X86102381Y-104490001D01*
X86102381Y-104299524D01*
X86150000Y-104204286D01*
X86197619Y-104156667D01*
X86292857Y-104109048D01*
X86340476Y-104109048D01*
X86435714Y-104156667D01*
X86483333Y-104204286D01*
X86530952Y-104299524D01*
X86530952Y-104490001D01*
X86578571Y-104585239D01*
X86626190Y-104632858D01*
X86721429Y-104680477D01*
X86911905Y-104680477D01*
X87007143Y-104632858D01*
X87054762Y-104585239D01*
X87102381Y-104490001D01*
X87102381Y-104299524D01*
X87054762Y-104204286D01*
X87007143Y-104156667D01*
X86911905Y-104109048D01*
X86721429Y-104109048D01*
X86626190Y-104156667D01*
X86578571Y-104204286D01*
X86530952Y-104299524D01*
X86435714Y-103680477D02*
X87435714Y-103680477D01*
X86483333Y-103680477D02*
X86435714Y-103585239D01*
X86435714Y-103394762D01*
X86483333Y-103299524D01*
X86530952Y-103251905D01*
X86626190Y-103204286D01*
X86911905Y-103204286D01*
X87007143Y-103251905D01*
X87054762Y-103299524D01*
X87102381Y-103394762D01*
X87102381Y-103585239D01*
X87054762Y-103680477D01*
X87102381Y-102775715D02*
X86435714Y-102775715D01*
X86102381Y-102775715D02*
X86150000Y-102823334D01*
X86197619Y-102775715D01*
X86150000Y-102728096D01*
X86102381Y-102775715D01*
X86197619Y-102775715D01*
X86435714Y-102299525D02*
X87102381Y-102299525D01*
X86530952Y-102299525D02*
X86483333Y-102251906D01*
X86435714Y-102156668D01*
X86435714Y-102013810D01*
X86483333Y-101918572D01*
X86578571Y-101870953D01*
X87102381Y-101870953D01*
X87102381Y-100632858D02*
X86102381Y-100632858D01*
X86816667Y-100299524D01*
X86102381Y-99966191D01*
X87102381Y-99966191D01*
X87102381Y-99347144D02*
X87054762Y-99442382D01*
X87007143Y-99490001D01*
X86911905Y-99537620D01*
X86626190Y-99537620D01*
X86530952Y-99490001D01*
X86483333Y-99442382D01*
X86435714Y-99347144D01*
X86435714Y-99204286D01*
X86483333Y-99109048D01*
X86530952Y-99061429D01*
X86626190Y-99013810D01*
X86911905Y-99013810D01*
X87007143Y-99061429D01*
X87054762Y-99109048D01*
X87102381Y-99204286D01*
X87102381Y-99347144D01*
X87102381Y-98442382D02*
X87054762Y-98537620D01*
X86959524Y-98585239D01*
X86102381Y-98585239D01*
X87054762Y-97680476D02*
X87102381Y-97775714D01*
X87102381Y-97966191D01*
X87054762Y-98061429D01*
X86959524Y-98109048D01*
X86578571Y-98109048D01*
X86483333Y-98061429D01*
X86435714Y-97966191D01*
X86435714Y-97775714D01*
X86483333Y-97680476D01*
X86578571Y-97632857D01*
X86673810Y-97632857D01*
X86769048Y-98109048D01*
X87102381Y-97299524D02*
X86435714Y-96775714D01*
X86435714Y-97299524D02*
X87102381Y-96775714D01*
X87102381Y-95632857D02*
X86102381Y-95632857D01*
X86816667Y-95299523D01*
X86102381Y-94966190D01*
X87102381Y-94966190D01*
X87102381Y-94490000D02*
X86435714Y-94490000D01*
X86102381Y-94490000D02*
X86150000Y-94537619D01*
X86197619Y-94490000D01*
X86150000Y-94442381D01*
X86102381Y-94490000D01*
X86197619Y-94490000D01*
X86435714Y-94013810D02*
X87102381Y-94013810D01*
X86530952Y-94013810D02*
X86483333Y-93966191D01*
X86435714Y-93870953D01*
X86435714Y-93728095D01*
X86483333Y-93632857D01*
X86578571Y-93585238D01*
X87102381Y-93585238D01*
X87102381Y-93109048D02*
X86435714Y-93109048D01*
X86102381Y-93109048D02*
X86150000Y-93156667D01*
X86197619Y-93109048D01*
X86150000Y-93061429D01*
X86102381Y-93109048D01*
X86197619Y-93109048D01*
X86435714Y-92775715D02*
X86435714Y-92394763D01*
X87102381Y-92632858D02*
X86245238Y-92632858D01*
X86150000Y-92585239D01*
X86102381Y-92490001D01*
X86102381Y-92394763D01*
X87102381Y-92061429D02*
X86435714Y-92061429D01*
X86102381Y-92061429D02*
X86150000Y-92109048D01*
X86197619Y-92061429D01*
X86150000Y-92013810D01*
X86102381Y-92061429D01*
X86197619Y-92061429D01*
X86435714Y-91728096D02*
X86435714Y-91347144D01*
X86102381Y-91585239D02*
X86959524Y-91585239D01*
X87054762Y-91537620D01*
X87102381Y-91442382D01*
X87102381Y-91347144D01*
X86102381Y-89966190D02*
X86816667Y-89966190D01*
X86959524Y-90013810D01*
X87054762Y-90109048D01*
X87102381Y-90251905D01*
X87102381Y-90347143D01*
X87102381Y-89490000D02*
X86435714Y-89490000D01*
X86626190Y-89490000D02*
X86530952Y-89442381D01*
X86483333Y-89394762D01*
X86435714Y-89299524D01*
X86435714Y-89204285D01*
X142030952Y-87930001D02*
X141983333Y-88025239D01*
X141935714Y-88072858D01*
X141840476Y-88120477D01*
X141792857Y-88120477D01*
X141697619Y-88072858D01*
X141650000Y-88025239D01*
X141602381Y-87930001D01*
X141602381Y-87739524D01*
X141650000Y-87644286D01*
X141697619Y-87596667D01*
X141792857Y-87549048D01*
X141840476Y-87549048D01*
X141935714Y-87596667D01*
X141983333Y-87644286D01*
X142030952Y-87739524D01*
X142030952Y-87930001D01*
X142078571Y-88025239D01*
X142126190Y-88072858D01*
X142221429Y-88120477D01*
X142411905Y-88120477D01*
X142507143Y-88072858D01*
X142554762Y-88025239D01*
X142602381Y-87930001D01*
X142602381Y-87739524D01*
X142554762Y-87644286D01*
X142507143Y-87596667D01*
X142411905Y-87549048D01*
X142221429Y-87549048D01*
X142126190Y-87596667D01*
X142078571Y-87644286D01*
X142030952Y-87739524D01*
X141935714Y-87120477D02*
X142935714Y-87120477D01*
X141983333Y-87120477D02*
X141935714Y-87025239D01*
X141935714Y-86834762D01*
X141983333Y-86739524D01*
X142030952Y-86691905D01*
X142126190Y-86644286D01*
X142411905Y-86644286D01*
X142507143Y-86691905D01*
X142554762Y-86739524D01*
X142602381Y-86834762D01*
X142602381Y-87025239D01*
X142554762Y-87120477D01*
X142602381Y-86215715D02*
X141935714Y-86215715D01*
X141602381Y-86215715D02*
X141650000Y-86263334D01*
X141697619Y-86215715D01*
X141650000Y-86168096D01*
X141602381Y-86215715D01*
X141697619Y-86215715D01*
X141935714Y-85739525D02*
X142602381Y-85739525D01*
X142030952Y-85739525D02*
X141983333Y-85691906D01*
X141935714Y-85596668D01*
X141935714Y-85453810D01*
X141983333Y-85358572D01*
X142078571Y-85310953D01*
X142602381Y-85310953D01*
X142602381Y-84072858D02*
X141602381Y-84072858D01*
X142316667Y-83739524D01*
X141602381Y-83406191D01*
X142602381Y-83406191D01*
X142602381Y-82787144D02*
X142554762Y-82882382D01*
X142507143Y-82930001D01*
X142411905Y-82977620D01*
X142126190Y-82977620D01*
X142030952Y-82930001D01*
X141983333Y-82882382D01*
X141935714Y-82787144D01*
X141935714Y-82644286D01*
X141983333Y-82549048D01*
X142030952Y-82501429D01*
X142126190Y-82453810D01*
X142411905Y-82453810D01*
X142507143Y-82501429D01*
X142554762Y-82549048D01*
X142602381Y-82644286D01*
X142602381Y-82787144D01*
X142602381Y-81882382D02*
X142554762Y-81977620D01*
X142459524Y-82025239D01*
X141602381Y-82025239D01*
X142554762Y-81120476D02*
X142602381Y-81215714D01*
X142602381Y-81406191D01*
X142554762Y-81501429D01*
X142459524Y-81549048D01*
X142078571Y-81549048D01*
X141983333Y-81501429D01*
X141935714Y-81406191D01*
X141935714Y-81215714D01*
X141983333Y-81120476D01*
X142078571Y-81072857D01*
X142173810Y-81072857D01*
X142269048Y-81549048D01*
X142602381Y-80739524D02*
X141935714Y-80215714D01*
X141935714Y-80739524D02*
X142602381Y-80215714D01*
X142602381Y-79072857D02*
X141602381Y-79072857D01*
X142316667Y-78739523D01*
X141602381Y-78406190D01*
X142602381Y-78406190D01*
X142602381Y-77930000D02*
X141935714Y-77930000D01*
X141602381Y-77930000D02*
X141650000Y-77977619D01*
X141697619Y-77930000D01*
X141650000Y-77882381D01*
X141602381Y-77930000D01*
X141697619Y-77930000D01*
X141935714Y-77453810D02*
X142602381Y-77453810D01*
X142030952Y-77453810D02*
X141983333Y-77406191D01*
X141935714Y-77310953D01*
X141935714Y-77168095D01*
X141983333Y-77072857D01*
X142078571Y-77025238D01*
X142602381Y-77025238D01*
X142602381Y-76549048D02*
X141935714Y-76549048D01*
X141602381Y-76549048D02*
X141650000Y-76596667D01*
X141697619Y-76549048D01*
X141650000Y-76501429D01*
X141602381Y-76549048D01*
X141697619Y-76549048D01*
X141935714Y-76215715D02*
X141935714Y-75834763D01*
X142602381Y-76072858D02*
X141745238Y-76072858D01*
X141650000Y-76025239D01*
X141602381Y-75930001D01*
X141602381Y-75834763D01*
X142602381Y-75501429D02*
X141935714Y-75501429D01*
X141602381Y-75501429D02*
X141650000Y-75549048D01*
X141697619Y-75501429D01*
X141650000Y-75453810D01*
X141602381Y-75501429D01*
X141697619Y-75501429D01*
X141935714Y-75168096D02*
X141935714Y-74787144D01*
X141602381Y-75025239D02*
X142459524Y-75025239D01*
X142554762Y-74977620D01*
X142602381Y-74882382D01*
X142602381Y-74787144D01*
X141602381Y-73406190D02*
X142316667Y-73406190D01*
X142459524Y-73453810D01*
X142554762Y-73549048D01*
X142602381Y-73691905D01*
X142602381Y-73787143D01*
X142602381Y-72930000D02*
X141935714Y-72930000D01*
X142126190Y-72930000D02*
X142030952Y-72882381D01*
X141983333Y-72834762D01*
X141935714Y-72739524D01*
X141935714Y-72644285D01*
X142030952Y-119830001D02*
X141983333Y-119925239D01*
X141935714Y-119972858D01*
X141840476Y-120020477D01*
X141792857Y-120020477D01*
X141697619Y-119972858D01*
X141650000Y-119925239D01*
X141602381Y-119830001D01*
X141602381Y-119639524D01*
X141650000Y-119544286D01*
X141697619Y-119496667D01*
X141792857Y-119449048D01*
X141840476Y-119449048D01*
X141935714Y-119496667D01*
X141983333Y-119544286D01*
X142030952Y-119639524D01*
X142030952Y-119830001D01*
X142078571Y-119925239D01*
X142126190Y-119972858D01*
X142221429Y-120020477D01*
X142411905Y-120020477D01*
X142507143Y-119972858D01*
X142554762Y-119925239D01*
X142602381Y-119830001D01*
X142602381Y-119639524D01*
X142554762Y-119544286D01*
X142507143Y-119496667D01*
X142411905Y-119449048D01*
X142221429Y-119449048D01*
X142126190Y-119496667D01*
X142078571Y-119544286D01*
X142030952Y-119639524D01*
X141935714Y-119020477D02*
X142935714Y-119020477D01*
X141983333Y-119020477D02*
X141935714Y-118925239D01*
X141935714Y-118734762D01*
X141983333Y-118639524D01*
X142030952Y-118591905D01*
X142126190Y-118544286D01*
X142411905Y-118544286D01*
X142507143Y-118591905D01*
X142554762Y-118639524D01*
X142602381Y-118734762D01*
X142602381Y-118925239D01*
X142554762Y-119020477D01*
X142602381Y-118115715D02*
X141935714Y-118115715D01*
X141602381Y-118115715D02*
X141650000Y-118163334D01*
X141697619Y-118115715D01*
X141650000Y-118068096D01*
X141602381Y-118115715D01*
X141697619Y-118115715D01*
X141935714Y-117639525D02*
X142602381Y-117639525D01*
X142030952Y-117639525D02*
X141983333Y-117591906D01*
X141935714Y-117496668D01*
X141935714Y-117353810D01*
X141983333Y-117258572D01*
X142078571Y-117210953D01*
X142602381Y-117210953D01*
X142602381Y-115972858D02*
X141602381Y-115972858D01*
X142316667Y-115639524D01*
X141602381Y-115306191D01*
X142602381Y-115306191D01*
X142602381Y-114687144D02*
X142554762Y-114782382D01*
X142507143Y-114830001D01*
X142411905Y-114877620D01*
X142126190Y-114877620D01*
X142030952Y-114830001D01*
X141983333Y-114782382D01*
X141935714Y-114687144D01*
X141935714Y-114544286D01*
X141983333Y-114449048D01*
X142030952Y-114401429D01*
X142126190Y-114353810D01*
X142411905Y-114353810D01*
X142507143Y-114401429D01*
X142554762Y-114449048D01*
X142602381Y-114544286D01*
X142602381Y-114687144D01*
X142602381Y-113782382D02*
X142554762Y-113877620D01*
X142459524Y-113925239D01*
X141602381Y-113925239D01*
X142554762Y-113020476D02*
X142602381Y-113115714D01*
X142602381Y-113306191D01*
X142554762Y-113401429D01*
X142459524Y-113449048D01*
X142078571Y-113449048D01*
X141983333Y-113401429D01*
X141935714Y-113306191D01*
X141935714Y-113115714D01*
X141983333Y-113020476D01*
X142078571Y-112972857D01*
X142173810Y-112972857D01*
X142269048Y-113449048D01*
X142602381Y-112639524D02*
X141935714Y-112115714D01*
X141935714Y-112639524D02*
X142602381Y-112115714D01*
X142602381Y-110972857D02*
X141602381Y-110972857D01*
X142316667Y-110639523D01*
X141602381Y-110306190D01*
X142602381Y-110306190D01*
X142602381Y-109830000D02*
X141935714Y-109830000D01*
X141602381Y-109830000D02*
X141650000Y-109877619D01*
X141697619Y-109830000D01*
X141650000Y-109782381D01*
X141602381Y-109830000D01*
X141697619Y-109830000D01*
X141935714Y-109353810D02*
X142602381Y-109353810D01*
X142030952Y-109353810D02*
X141983333Y-109306191D01*
X141935714Y-109210953D01*
X141935714Y-109068095D01*
X141983333Y-108972857D01*
X142078571Y-108925238D01*
X142602381Y-108925238D01*
X142602381Y-108449048D02*
X141935714Y-108449048D01*
X141602381Y-108449048D02*
X141650000Y-108496667D01*
X141697619Y-108449048D01*
X141650000Y-108401429D01*
X141602381Y-108449048D01*
X141697619Y-108449048D01*
X141935714Y-108115715D02*
X141935714Y-107734763D01*
X142602381Y-107972858D02*
X141745238Y-107972858D01*
X141650000Y-107925239D01*
X141602381Y-107830001D01*
X141602381Y-107734763D01*
X142602381Y-107401429D02*
X141935714Y-107401429D01*
X141602381Y-107401429D02*
X141650000Y-107449048D01*
X141697619Y-107401429D01*
X141650000Y-107353810D01*
X141602381Y-107401429D01*
X141697619Y-107401429D01*
X141935714Y-107068096D02*
X141935714Y-106687144D01*
X141602381Y-106925239D02*
X142459524Y-106925239D01*
X142554762Y-106877620D01*
X142602381Y-106782382D01*
X142602381Y-106687144D01*
X141602381Y-105306190D02*
X142316667Y-105306190D01*
X142459524Y-105353810D01*
X142554762Y-105449048D01*
X142602381Y-105591905D01*
X142602381Y-105687143D01*
X142602381Y-104830000D02*
X141935714Y-104830000D01*
X142126190Y-104830000D02*
X142030952Y-104782381D01*
X141983333Y-104734762D01*
X141935714Y-104639524D01*
X141935714Y-104544285D01*
M02*
