G04 #@! TF.FileFunction,Soldermask,Top*
%FSLAX46Y46*%
G04 Gerber Fmt 4.6, Leading zero omitted, Abs format (unit mm)*
G04 Created by KiCad (PCBNEW 4.0.7) date 03/15/18 11:54:39*
%MOMM*%
%LPD*%
G01*
G04 APERTURE LIST*
%ADD10C,0.100000*%
%ADD11C,4.464000*%
%ADD12C,2.800000*%
%ADD13C,1.400000*%
%ADD14R,3.400000X3.400000*%
%ADD15C,3.400000*%
G04 APERTURE END LIST*
D10*
D11*
X73000000Y-96000000D03*
X73000000Y-109800000D03*
X220800000Y-109800000D03*
X220800000Y-96000000D03*
D12*
X202387200Y-110985300D03*
X202387200Y-105305300D03*
X215527200Y-105305300D03*
X215527200Y-110975300D03*
D13*
X212457200Y-108985300D03*
X205457200Y-108985300D03*
X207957200Y-108985300D03*
X209957200Y-108985300D03*
X212957200Y-107485300D03*
X210957200Y-107485300D03*
X208967200Y-107485300D03*
X206957200Y-107485300D03*
X204957200Y-107485300D03*
X205457200Y-105785300D03*
X207957200Y-105785300D03*
X209957200Y-105785300D03*
X212457200Y-105785300D03*
X212957200Y-104285300D03*
X210957200Y-104285300D03*
X208957200Y-104285300D03*
X206957200Y-104285300D03*
X204957200Y-104285300D03*
D12*
X202387200Y-94792800D03*
X202387200Y-100472800D03*
X215527200Y-100472800D03*
X215527200Y-94802800D03*
D13*
X212457200Y-96792800D03*
X205457200Y-96792800D03*
X207957200Y-96792800D03*
X209957200Y-96792800D03*
X212957200Y-98292800D03*
X210957200Y-98292800D03*
X208967200Y-98292800D03*
X206957200Y-98292800D03*
X204957200Y-98292800D03*
X205457200Y-99992800D03*
X207957200Y-99992800D03*
X209957200Y-99992800D03*
X212457200Y-99992800D03*
X212957200Y-101492800D03*
X210957200Y-101492800D03*
X208957200Y-101492800D03*
X206957200Y-101492800D03*
X204957200Y-101492800D03*
D12*
X185020700Y-110976800D03*
X185020700Y-105296800D03*
X198160700Y-105296800D03*
X198160700Y-110966800D03*
D13*
X195090700Y-108976800D03*
X188090700Y-108976800D03*
X190590700Y-108976800D03*
X192590700Y-108976800D03*
X195590700Y-107476800D03*
X193590700Y-107476800D03*
X191600700Y-107476800D03*
X189590700Y-107476800D03*
X187590700Y-107476800D03*
X188090700Y-105776800D03*
X190590700Y-105776800D03*
X192590700Y-105776800D03*
X195090700Y-105776800D03*
X195590700Y-104276800D03*
X193590700Y-104276800D03*
X191590700Y-104276800D03*
X189590700Y-104276800D03*
X187590700Y-104276800D03*
D12*
X185020700Y-94737800D03*
X185020700Y-100417800D03*
X198160700Y-100417800D03*
X198160700Y-94747800D03*
D13*
X195090700Y-96737800D03*
X188090700Y-96737800D03*
X190590700Y-96737800D03*
X192590700Y-96737800D03*
X195590700Y-98237800D03*
X193590700Y-98237800D03*
X191600700Y-98237800D03*
X189590700Y-98237800D03*
X187590700Y-98237800D03*
X188090700Y-99937800D03*
X190590700Y-99937800D03*
X192590700Y-99937800D03*
X195090700Y-99937800D03*
X195590700Y-101437800D03*
X193590700Y-101437800D03*
X191590700Y-101437800D03*
X189590700Y-101437800D03*
X187590700Y-101437800D03*
D14*
X93827600Y-110286800D03*
D15*
X89627600Y-110286800D03*
X85427600Y-110286800D03*
X81227600Y-110286800D03*
X93827600Y-104786800D03*
X89627600Y-104786800D03*
X85427600Y-104786800D03*
X81227600Y-104786800D03*
D14*
X93827600Y-95250000D03*
D15*
X89627600Y-95250000D03*
X85427600Y-95250000D03*
X81227600Y-95250000D03*
X93827600Y-100750000D03*
X89627600Y-100750000D03*
X85427600Y-100750000D03*
X81227600Y-100750000D03*
D14*
X114808000Y-110286800D03*
D15*
X110608000Y-110286800D03*
X106408000Y-110286800D03*
X102208000Y-110286800D03*
X114808000Y-104786800D03*
X110608000Y-104786800D03*
X106408000Y-104786800D03*
X102208000Y-104786800D03*
D14*
X114858800Y-95250000D03*
D15*
X110658800Y-95250000D03*
X106458800Y-95250000D03*
X102258800Y-95250000D03*
X114858800Y-100750000D03*
X110658800Y-100750000D03*
X106458800Y-100750000D03*
X102258800Y-100750000D03*
D14*
X135839200Y-110286800D03*
D15*
X131639200Y-110286800D03*
X127439200Y-110286800D03*
X123239200Y-110286800D03*
X135839200Y-104786800D03*
X131639200Y-104786800D03*
X127439200Y-104786800D03*
X123239200Y-104786800D03*
D14*
X135839200Y-95250000D03*
D15*
X131639200Y-95250000D03*
X127439200Y-95250000D03*
X123239200Y-95250000D03*
X135839200Y-100750000D03*
X131639200Y-100750000D03*
X127439200Y-100750000D03*
X123239200Y-100750000D03*
D14*
X156870400Y-110286800D03*
D15*
X152670400Y-110286800D03*
X148470400Y-110286800D03*
X144270400Y-110286800D03*
X156870400Y-104786800D03*
X152670400Y-104786800D03*
X148470400Y-104786800D03*
X144270400Y-104786800D03*
D14*
X156870400Y-95250000D03*
D15*
X152670400Y-95250000D03*
X148470400Y-95250000D03*
X144270400Y-95250000D03*
X156870400Y-100750000D03*
X152670400Y-100750000D03*
X148470400Y-100750000D03*
X144270400Y-100750000D03*
D14*
X177901600Y-110286800D03*
D15*
X173701600Y-110286800D03*
X169501600Y-110286800D03*
X165301600Y-110286800D03*
X177901600Y-104786800D03*
X173701600Y-104786800D03*
X169501600Y-104786800D03*
X165301600Y-104786800D03*
D14*
X177901600Y-95250000D03*
D15*
X173701600Y-95250000D03*
X169501600Y-95250000D03*
X165301600Y-95250000D03*
X177901600Y-100750000D03*
X173701600Y-100750000D03*
X169501600Y-100750000D03*
X165301600Y-100750000D03*
M02*
