G04 #@! TF.FileFunction,Copper,L2,Bot,Signal*
%FSLAX46Y46*%
G04 Gerber Fmt 4.6, Leading zero omitted, Abs format (unit mm)*
G04 Created by KiCad (PCBNEW 4.0.4-stable) date 02/10/18 20:54:23*
%MOMM*%
%LPD*%
G01*
G04 APERTURE LIST*
%ADD10C,0.100000*%
%ADD11C,4.064000*%
%ADD12C,2.800000*%
%ADD13C,1.508000*%
%ADD14C,2.600000*%
%ADD15R,3.000000X3.000000*%
%ADD16C,3.000000*%
%ADD17C,0.250000*%
%ADD18C,0.254000*%
G04 APERTURE END LIST*
D10*
D11*
X48260000Y-40640000D03*
X48260000Y-137160000D03*
D12*
X195072000Y-64770000D03*
X195072000Y-60970000D03*
X182572000Y-64770000D03*
X182572000Y-60970000D03*
X195072000Y-49770000D03*
X195072000Y-45970000D03*
X182572000Y-49770000D03*
X182572000Y-45970000D03*
X195072000Y-98742500D03*
X195072000Y-94942500D03*
X182572000Y-98742500D03*
X182572000Y-94942500D03*
X195072000Y-83742500D03*
X195072000Y-79942500D03*
X182572000Y-83742500D03*
X182572000Y-79942500D03*
X195072000Y-132715000D03*
X195072000Y-128915000D03*
X182572000Y-132715000D03*
X182572000Y-128915000D03*
X195072000Y-117715000D03*
X195072000Y-113915000D03*
X182572000Y-117715000D03*
X182572000Y-113915000D03*
D13*
X133587500Y-55011500D03*
X133587500Y-52511500D03*
X133587500Y-48011500D03*
X133587500Y-50511500D03*
X136207500Y-50511500D03*
X136207500Y-48011500D03*
X136207500Y-52511500D03*
X136207500Y-55011500D03*
D14*
X130877500Y-44941500D03*
X130877500Y-58081500D03*
X136557500Y-58081500D03*
X136557500Y-44941500D03*
D13*
X114743500Y-55011500D03*
X114743500Y-52511500D03*
X114743500Y-48011500D03*
X114743500Y-50511500D03*
X112123500Y-50511500D03*
X112123500Y-48011500D03*
X112123500Y-52511500D03*
X112123500Y-55011500D03*
D14*
X117453500Y-44941500D03*
X117453500Y-58081500D03*
X111773500Y-58081500D03*
X111773500Y-44941500D03*
D13*
X79061500Y-70921500D03*
X79061500Y-68421500D03*
X79061500Y-63921500D03*
X79061500Y-66421500D03*
X81681500Y-66421500D03*
X81681500Y-63921500D03*
X81681500Y-68421500D03*
X81681500Y-70921500D03*
D14*
X76351500Y-60851500D03*
X76351500Y-73991500D03*
X82031500Y-73991500D03*
X82031500Y-60851500D03*
D13*
X60140000Y-70920000D03*
X60140000Y-68420000D03*
X60140000Y-63920000D03*
X60140000Y-66420000D03*
X57520000Y-66420000D03*
X57520000Y-63920000D03*
X57520000Y-68420000D03*
X57520000Y-70920000D03*
D14*
X62850000Y-60850000D03*
X62850000Y-73990000D03*
X57170000Y-73990000D03*
X57170000Y-60850000D03*
D12*
X220191500Y-63942500D03*
X220191500Y-59942500D03*
X208511500Y-63942500D03*
X208511500Y-59942500D03*
X208511500Y-48942500D03*
X208511500Y-44942500D03*
X220191500Y-48942500D03*
X220191500Y-44942500D03*
X220191500Y-98867500D03*
X220191500Y-94867500D03*
X208511500Y-98867500D03*
X208511500Y-94867500D03*
X208511500Y-83867500D03*
X208511500Y-79867500D03*
X220191500Y-83867500D03*
X220191500Y-79867500D03*
X220191500Y-133792500D03*
X220191500Y-129792500D03*
X208511500Y-133792500D03*
X208511500Y-129792500D03*
X208511500Y-118792500D03*
X208511500Y-114792500D03*
X220191500Y-118792500D03*
X220191500Y-114792500D03*
D15*
X60900000Y-103290000D03*
D16*
X60900000Y-99090000D03*
X60900000Y-94890000D03*
X60900000Y-90690000D03*
X55400000Y-103290000D03*
X55400000Y-99090000D03*
X55400000Y-94890000D03*
X55400000Y-90690000D03*
D15*
X116250000Y-86730000D03*
D16*
X116250000Y-82530000D03*
X116250000Y-78330000D03*
X116250000Y-74130000D03*
X110750000Y-86730000D03*
X110750000Y-82530000D03*
X110750000Y-78330000D03*
X110750000Y-74130000D03*
D15*
X78100000Y-135090000D03*
D16*
X78100000Y-130890000D03*
X78100000Y-126690000D03*
X78100000Y-122490000D03*
X83600000Y-135090000D03*
X83600000Y-130890000D03*
X83600000Y-126690000D03*
X83600000Y-122490000D03*
D15*
X78150000Y-103290000D03*
D16*
X78150000Y-99090000D03*
X78150000Y-94890000D03*
X78150000Y-90690000D03*
X83650000Y-103290000D03*
X83650000Y-99090000D03*
X83650000Y-94890000D03*
X83650000Y-90690000D03*
D15*
X133650000Y-86730000D03*
D16*
X133650000Y-82530000D03*
X133650000Y-78330000D03*
X133650000Y-74130000D03*
X139150000Y-86730000D03*
X139150000Y-82530000D03*
X139150000Y-78330000D03*
X139150000Y-74130000D03*
D15*
X61150000Y-135140000D03*
D16*
X61150000Y-130940000D03*
X61150000Y-126740000D03*
X61150000Y-122540000D03*
X55650000Y-135140000D03*
X55650000Y-130940000D03*
X55650000Y-126740000D03*
X55650000Y-122540000D03*
D15*
X116250000Y-118630000D03*
D16*
X116250000Y-114430000D03*
X116250000Y-110230000D03*
X116250000Y-106030000D03*
X110750000Y-118630000D03*
X110750000Y-114430000D03*
X110750000Y-110230000D03*
X110750000Y-106030000D03*
D15*
X133650000Y-118630000D03*
D16*
X133650000Y-114430000D03*
X133650000Y-110230000D03*
X133650000Y-106030000D03*
X139150000Y-118630000D03*
X139150000Y-114430000D03*
X139150000Y-110230000D03*
X139150000Y-106030000D03*
D11*
X231140000Y-40640000D03*
X231140000Y-137160000D03*
D17*
X109998500Y-42602000D02*
X138269000Y-42602000D01*
X112123500Y-48011500D02*
X109820000Y-48011500D01*
X138447500Y-48011500D02*
X136207500Y-48011500D01*
X139285000Y-47174000D02*
X138447500Y-48011500D01*
X139285000Y-43618000D02*
X139285000Y-47174000D01*
X138269000Y-42602000D02*
X139285000Y-43618000D01*
X108538000Y-44062500D02*
X109998500Y-42602000D01*
X108538000Y-46729500D02*
X108538000Y-44062500D01*
X109820000Y-48011500D02*
X108538000Y-46729500D01*
X138650000Y-41395500D02*
X109300000Y-41395500D01*
X139186000Y-50511500D02*
X136207500Y-50511500D01*
X112123500Y-50511500D02*
X109145000Y-50511500D01*
X138650000Y-41395500D02*
X140745500Y-43491000D01*
X109145000Y-50511500D02*
X107077500Y-48444000D01*
X107077500Y-48444000D02*
X107077500Y-43618000D01*
X107077500Y-43618000D02*
X109300000Y-41395500D01*
X140745500Y-43491000D02*
X140745500Y-48952000D01*
X140745500Y-48952000D02*
X139186000Y-50511500D01*
X112123500Y-52511500D02*
X109169500Y-52511500D01*
X140654306Y-54004306D02*
X139161500Y-52511500D01*
X109169500Y-52511500D02*
X106887000Y-54794000D01*
X106887000Y-54794000D02*
X106887000Y-60064500D01*
X106887000Y-60064500D02*
X108919000Y-62096500D01*
X108919000Y-62096500D02*
X138798646Y-62096500D01*
X138798646Y-62096500D02*
X140654306Y-60240840D01*
X140654306Y-60240840D02*
X140654306Y-54004306D01*
X139161500Y-52511500D02*
X136207500Y-52511500D01*
X138495536Y-55006286D02*
X138490322Y-55011500D01*
X139401317Y-55912067D02*
X138495536Y-55006286D01*
X139401317Y-59630683D02*
X139401317Y-55912067D01*
X138650000Y-60382000D02*
X139401317Y-59630683D01*
X109617500Y-60382000D02*
X138650000Y-60382000D01*
X108411000Y-59175500D02*
X109617500Y-60382000D01*
X109717500Y-55011500D02*
X108411000Y-56318000D01*
X138490322Y-55011500D02*
X136207500Y-55011500D01*
X108411000Y-56318000D02*
X108411000Y-59175500D01*
X112123500Y-55011500D02*
X109717500Y-55011500D01*
X57547500Y-63871500D02*
X55244000Y-63871500D01*
X55244000Y-63871500D02*
X53962000Y-62589500D01*
X53962000Y-62589500D02*
X53962000Y-60080974D01*
X53962000Y-60080974D02*
X55580974Y-58462000D01*
X55580974Y-58462000D02*
X83446999Y-58462000D01*
X83446999Y-58462000D02*
X84759000Y-59774001D01*
X84759000Y-59774001D02*
X84759000Y-63084000D01*
X84759000Y-63084000D02*
X83921500Y-63921500D01*
X83921500Y-63921500D02*
X81681500Y-63921500D01*
X57547500Y-66371500D02*
X54569000Y-66371500D01*
X86219500Y-64862000D02*
X84660000Y-66421500D01*
X86219500Y-59401000D02*
X86219500Y-64862000D01*
X84124000Y-57305500D02*
X86219500Y-59401000D01*
X54774000Y-57305500D02*
X84124000Y-57305500D01*
X54769974Y-57301474D02*
X54774000Y-57305500D01*
X52501500Y-59569948D02*
X54769974Y-57301474D01*
X52501500Y-64304000D02*
X52501500Y-59569948D01*
X54569000Y-66371500D02*
X52501500Y-64304000D01*
X84660000Y-66421500D02*
X81681500Y-66421500D01*
X57547500Y-68371500D02*
X54596993Y-68371500D01*
X54596993Y-68371500D02*
X52521266Y-70447227D01*
X52521266Y-70447227D02*
X52521266Y-75834617D01*
X52521266Y-75834617D02*
X54142727Y-77456078D01*
X86220368Y-70006368D02*
X84635500Y-68421500D01*
X54142727Y-77456078D02*
X84034772Y-77456078D01*
X84034772Y-77456078D02*
X84027839Y-77449145D01*
X84027839Y-77449145D02*
X86220368Y-75256616D01*
X86220368Y-75256616D02*
X86220368Y-70006368D01*
X84635500Y-68421500D02*
X81681500Y-68421500D01*
X81681500Y-70921500D02*
X84013930Y-70921500D01*
X84013930Y-70921500D02*
X84794348Y-71701918D01*
X84794348Y-71701918D02*
X84794348Y-75089128D01*
X84794348Y-75089128D02*
X83591476Y-76292000D01*
X83591476Y-76292000D02*
X55653169Y-76292000D01*
X55235099Y-70871500D02*
X57547500Y-70871500D01*
X55653169Y-76292000D02*
X54004403Y-74643234D01*
X54004403Y-74643234D02*
X54004403Y-72102196D01*
X54004403Y-72102196D02*
X55235099Y-70871500D01*
X114743500Y-52511500D02*
X115809817Y-52511500D01*
X115809817Y-52511500D02*
X133587500Y-52511500D01*
X114743500Y-48011500D02*
X133587500Y-48011500D01*
X133587500Y-50511500D02*
X114743500Y-50511500D01*
X79061500Y-68421500D02*
X60141500Y-68421500D01*
X60141500Y-68421500D02*
X60140000Y-68420000D01*
X79061500Y-63921500D02*
X60141500Y-63921500D01*
X60141500Y-63921500D02*
X60140000Y-63920000D01*
X60140000Y-66420000D02*
X79060000Y-66420000D01*
X79060000Y-66420000D02*
X79061500Y-66421500D01*
X133587500Y-55011500D02*
X114743500Y-55011500D01*
X60140000Y-70920000D02*
X79060000Y-70920000D01*
X79060000Y-70920000D02*
X79061500Y-70921500D01*
X78150000Y-103290000D02*
X60900000Y-103290000D01*
X60900000Y-99090000D02*
X63021320Y-99090000D01*
X63021320Y-99090000D02*
X78150000Y-99090000D01*
X78150000Y-94890000D02*
X60900000Y-94890000D01*
X60900000Y-90690000D02*
X63021320Y-90690000D01*
X63021320Y-90690000D02*
X78150000Y-90690000D01*
X55400000Y-103290000D02*
X59121261Y-107011261D01*
X59121261Y-107011261D02*
X79928739Y-107011261D01*
X79928739Y-107011261D02*
X82150001Y-104789999D01*
X82150001Y-104789999D02*
X83650000Y-103290000D01*
X55400000Y-99090000D02*
X53000000Y-101490000D01*
X85940775Y-104949225D02*
X85940775Y-101380775D01*
X53000000Y-101490000D02*
X53000000Y-104540000D01*
X53000000Y-104540000D02*
X56250000Y-107790000D01*
X56250000Y-107790000D02*
X83100000Y-107790000D01*
X83100000Y-107790000D02*
X85940775Y-104949225D01*
X85940775Y-101380775D02*
X85149999Y-100589999D01*
X85149999Y-100589999D02*
X83650000Y-99090000D01*
X55400000Y-94890000D02*
X52850000Y-92340000D01*
X52850000Y-92340000D02*
X52850000Y-89290000D01*
X52850000Y-89290000D02*
X56419379Y-85720621D01*
X56419379Y-85720621D02*
X82680621Y-85720621D01*
X82680621Y-85720621D02*
X86055794Y-89095794D01*
X86055794Y-89095794D02*
X86055794Y-92484206D01*
X86055794Y-92484206D02*
X85149999Y-93390001D01*
X85149999Y-93390001D02*
X83650000Y-94890000D01*
X55400000Y-90690000D02*
X59416091Y-86673909D01*
X59416091Y-86673909D02*
X79633909Y-86673909D01*
X82150001Y-89190001D02*
X83650000Y-90690000D01*
X79633909Y-86673909D02*
X82150001Y-89190001D01*
X116250000Y-86730000D02*
X133650000Y-86730000D01*
X133650000Y-82530000D02*
X116250000Y-82530000D01*
X116250000Y-78330000D02*
X133650000Y-78330000D01*
X116250000Y-74130000D02*
X133650000Y-74130000D01*
X110750000Y-86730000D02*
X114313255Y-90293255D01*
X114313255Y-90293255D02*
X135586745Y-90293255D01*
X135586745Y-90293255D02*
X139150000Y-86730000D01*
X110750000Y-82530000D02*
X108400000Y-84880000D01*
X110666349Y-91096349D02*
X139418189Y-91096349D01*
X108400000Y-84880000D02*
X108400000Y-88830000D01*
X108400000Y-88830000D02*
X110666349Y-91096349D01*
X139418189Y-91096349D02*
X141496899Y-89017639D01*
X141496899Y-89017639D02*
X141496899Y-84876899D01*
X141496899Y-84876899D02*
X140649999Y-84029999D01*
X140649999Y-84029999D02*
X139150000Y-82530000D01*
X110750000Y-78330000D02*
X110149579Y-78330000D01*
X110149579Y-78330000D02*
X108409769Y-76590190D01*
X141453190Y-76026810D02*
X139150000Y-78330000D01*
X139139306Y-69446759D02*
X141453190Y-71760643D01*
X110816618Y-69446759D02*
X139139306Y-69446759D01*
X108409769Y-71853608D02*
X110816618Y-69446759D01*
X141453190Y-71760643D02*
X141453190Y-76026810D01*
X108409769Y-76590190D02*
X108409769Y-71853608D01*
X110750000Y-74130000D02*
X114245406Y-70634594D01*
X114245406Y-70634594D02*
X135654594Y-70634594D01*
X135654594Y-70634594D02*
X139150000Y-74130000D01*
X78100000Y-135090000D02*
X60850000Y-135090000D01*
X60850000Y-130890000D02*
X78100000Y-130890000D01*
X78100000Y-126690000D02*
X60850000Y-126690000D01*
X60850000Y-122490000D02*
X78100000Y-122490000D01*
X55650000Y-135140000D02*
X59626460Y-139116460D01*
X59626460Y-139116460D02*
X79573540Y-139116460D01*
X79573540Y-139116460D02*
X82100001Y-136589999D01*
X82100001Y-136589999D02*
X83600000Y-135090000D01*
X55650000Y-130940000D02*
X53300000Y-133290000D01*
X85998285Y-133288285D02*
X85099999Y-132389999D01*
X53300000Y-133290000D02*
X53300000Y-136590000D01*
X53300000Y-136590000D02*
X56551454Y-139841454D01*
X56551454Y-139841454D02*
X82898546Y-139841454D01*
X82898546Y-139841454D02*
X85998285Y-136741715D01*
X85998285Y-136741715D02*
X85998285Y-133288285D01*
X85099999Y-132389999D02*
X83600000Y-130890000D01*
X55650000Y-126740000D02*
X53150000Y-124240000D01*
X53150000Y-124240000D02*
X53150000Y-121040000D01*
X85099999Y-125190001D02*
X83600000Y-126690000D01*
X53150000Y-121040000D02*
X56050000Y-118140000D01*
X56050000Y-118140000D02*
X83250000Y-118140000D01*
X83250000Y-118140000D02*
X86113304Y-121003304D01*
X86113304Y-121003304D02*
X86113304Y-124176696D01*
X86113304Y-124176696D02*
X85099999Y-125190001D01*
X55350000Y-122490000D02*
X58992821Y-118847179D01*
X58992821Y-118847179D02*
X79957179Y-118847179D01*
X79957179Y-118847179D02*
X82100001Y-120990001D01*
X82100001Y-120990001D02*
X83600000Y-122490000D01*
X133650000Y-118630000D02*
X116250000Y-118630000D01*
X116250000Y-114430000D02*
X133650000Y-114430000D01*
X133650000Y-110230000D02*
X116250000Y-110230000D01*
X116250000Y-106030000D02*
X133650000Y-106030000D01*
X110750000Y-118630000D02*
X114506307Y-122386307D01*
X114506307Y-122386307D02*
X135393693Y-122386307D01*
X135393693Y-122386307D02*
X137650001Y-120129999D01*
X137650001Y-120129999D02*
X139150000Y-118630000D01*
X110750000Y-114430000D02*
X108400000Y-116780000D01*
X108400000Y-116780000D02*
X108400000Y-119930000D01*
X141478105Y-116758105D02*
X140649999Y-115929999D01*
X108400000Y-119930000D02*
X111515475Y-123045475D01*
X111515475Y-123045475D02*
X138634525Y-123045475D01*
X138634525Y-123045475D02*
X141478105Y-120201895D01*
X141478105Y-120201895D02*
X141478105Y-116758105D01*
X140649999Y-115929999D02*
X139150000Y-114430000D01*
X110750000Y-110230000D02*
X108354437Y-107834437D01*
X108354437Y-107834437D02*
X108354437Y-103875563D01*
X138453062Y-101483062D02*
X141445471Y-104475471D01*
X141445471Y-107934529D02*
X140649999Y-108730001D01*
X108354437Y-103875563D02*
X110746938Y-101483062D01*
X110746938Y-101483062D02*
X138453062Y-101483062D01*
X141445471Y-104475471D02*
X141445471Y-107934529D01*
X140649999Y-108730001D02*
X139150000Y-110230000D01*
X110750000Y-106030000D02*
X114425270Y-102354730D01*
X114425270Y-102354730D02*
X135474730Y-102354730D01*
X135474730Y-102354730D02*
X139150000Y-106030000D01*
D18*
G36*
X226250500Y-68326000D02*
X176466500Y-68326000D01*
X176466500Y-57531000D01*
X226250500Y-57531000D01*
X226250500Y-68326000D01*
X226250500Y-68326000D01*
G37*
X226250500Y-68326000D02*
X176466500Y-68326000D01*
X176466500Y-57531000D01*
X226250500Y-57531000D01*
X226250500Y-68326000D01*
G36*
X226250500Y-87249000D02*
X176466500Y-87249000D01*
X176466500Y-75501500D01*
X226250500Y-75501500D01*
X226250500Y-87249000D01*
X226250500Y-87249000D01*
G37*
X226250500Y-87249000D02*
X176466500Y-87249000D01*
X176466500Y-75501500D01*
X226250500Y-75501500D01*
X226250500Y-87249000D01*
G36*
X226250500Y-102298500D02*
X176466500Y-102298500D01*
X176466500Y-91503500D01*
X226250500Y-91503500D01*
X226250500Y-102298500D01*
X226250500Y-102298500D01*
G37*
X226250500Y-102298500D02*
X176466500Y-102298500D01*
X176466500Y-91503500D01*
X226250500Y-91503500D01*
X226250500Y-102298500D01*
G36*
X226250500Y-121221500D02*
X176466500Y-121221500D01*
X176466500Y-109474000D01*
X226250500Y-109474000D01*
X226250500Y-121221500D01*
X226250500Y-121221500D01*
G37*
X226250500Y-121221500D02*
X176466500Y-121221500D01*
X176466500Y-109474000D01*
X226250500Y-109474000D01*
X226250500Y-121221500D01*
G36*
X226250500Y-136271000D02*
X176466500Y-136271000D01*
X176466500Y-125476000D01*
X226250500Y-125476000D01*
X226250500Y-136271000D01*
X226250500Y-136271000D01*
G37*
X226250500Y-136271000D02*
X176466500Y-136271000D01*
X176466500Y-125476000D01*
X226250500Y-125476000D01*
X226250500Y-136271000D01*
G36*
X226250500Y-53276500D02*
X176466500Y-53276500D01*
X176466500Y-41529000D01*
X226250500Y-41529000D01*
X226250500Y-53276500D01*
X226250500Y-53276500D01*
G37*
X226250500Y-53276500D02*
X176466500Y-53276500D01*
X176466500Y-41529000D01*
X226250500Y-41529000D01*
X226250500Y-53276500D01*
M02*
