G04 #@! TF.FileFunction,Copper,L1,Top,Signal*
%FSLAX46Y46*%
G04 Gerber Fmt 4.6, Leading zero omitted, Abs format (unit mm)*
G04 Created by KiCad (PCBNEW 4.0.4-stable) date 02/10/18 20:54:23*
%MOMM*%
%LPD*%
G01*
G04 APERTURE LIST*
%ADD10C,0.100000*%
%ADD11C,4.064000*%
%ADD12C,2.800000*%
%ADD13C,1.508000*%
%ADD14C,2.600000*%
%ADD15R,3.000000X3.000000*%
%ADD16C,3.000000*%
G04 APERTURE END LIST*
D10*
D11*
X48260000Y-40640000D03*
X48260000Y-137160000D03*
D12*
X195072000Y-64770000D03*
X195072000Y-60970000D03*
X182572000Y-64770000D03*
X182572000Y-60970000D03*
X195072000Y-49770000D03*
X195072000Y-45970000D03*
X182572000Y-49770000D03*
X182572000Y-45970000D03*
X195072000Y-98742500D03*
X195072000Y-94942500D03*
X182572000Y-98742500D03*
X182572000Y-94942500D03*
X195072000Y-83742500D03*
X195072000Y-79942500D03*
X182572000Y-83742500D03*
X182572000Y-79942500D03*
X195072000Y-132715000D03*
X195072000Y-128915000D03*
X182572000Y-132715000D03*
X182572000Y-128915000D03*
X195072000Y-117715000D03*
X195072000Y-113915000D03*
X182572000Y-117715000D03*
X182572000Y-113915000D03*
D13*
X133587500Y-55011500D03*
X133587500Y-52511500D03*
X133587500Y-48011500D03*
X133587500Y-50511500D03*
X136207500Y-50511500D03*
X136207500Y-48011500D03*
X136207500Y-52511500D03*
X136207500Y-55011500D03*
D14*
X130877500Y-44941500D03*
X130877500Y-58081500D03*
X136557500Y-58081500D03*
X136557500Y-44941500D03*
D13*
X114743500Y-55011500D03*
X114743500Y-52511500D03*
X114743500Y-48011500D03*
X114743500Y-50511500D03*
X112123500Y-50511500D03*
X112123500Y-48011500D03*
X112123500Y-52511500D03*
X112123500Y-55011500D03*
D14*
X117453500Y-44941500D03*
X117453500Y-58081500D03*
X111773500Y-58081500D03*
X111773500Y-44941500D03*
D13*
X79061500Y-70921500D03*
X79061500Y-68421500D03*
X79061500Y-63921500D03*
X79061500Y-66421500D03*
X81681500Y-66421500D03*
X81681500Y-63921500D03*
X81681500Y-68421500D03*
X81681500Y-70921500D03*
D14*
X76351500Y-60851500D03*
X76351500Y-73991500D03*
X82031500Y-73991500D03*
X82031500Y-60851500D03*
D13*
X60140000Y-70920000D03*
X60140000Y-68420000D03*
X60140000Y-63920000D03*
X60140000Y-66420000D03*
X57520000Y-66420000D03*
X57520000Y-63920000D03*
X57520000Y-68420000D03*
X57520000Y-70920000D03*
D14*
X62850000Y-60850000D03*
X62850000Y-73990000D03*
X57170000Y-73990000D03*
X57170000Y-60850000D03*
D12*
X220191500Y-63942500D03*
X220191500Y-59942500D03*
X208511500Y-63942500D03*
X208511500Y-59942500D03*
X208511500Y-48942500D03*
X208511500Y-44942500D03*
X220191500Y-48942500D03*
X220191500Y-44942500D03*
X220191500Y-98867500D03*
X220191500Y-94867500D03*
X208511500Y-98867500D03*
X208511500Y-94867500D03*
X208511500Y-83867500D03*
X208511500Y-79867500D03*
X220191500Y-83867500D03*
X220191500Y-79867500D03*
X220191500Y-133792500D03*
X220191500Y-129792500D03*
X208511500Y-133792500D03*
X208511500Y-129792500D03*
X208511500Y-118792500D03*
X208511500Y-114792500D03*
X220191500Y-118792500D03*
X220191500Y-114792500D03*
D15*
X60900000Y-103290000D03*
D16*
X60900000Y-99090000D03*
X60900000Y-94890000D03*
X60900000Y-90690000D03*
X55400000Y-103290000D03*
X55400000Y-99090000D03*
X55400000Y-94890000D03*
X55400000Y-90690000D03*
D15*
X116250000Y-86730000D03*
D16*
X116250000Y-82530000D03*
X116250000Y-78330000D03*
X116250000Y-74130000D03*
X110750000Y-86730000D03*
X110750000Y-82530000D03*
X110750000Y-78330000D03*
X110750000Y-74130000D03*
D15*
X78100000Y-135090000D03*
D16*
X78100000Y-130890000D03*
X78100000Y-126690000D03*
X78100000Y-122490000D03*
X83600000Y-135090000D03*
X83600000Y-130890000D03*
X83600000Y-126690000D03*
X83600000Y-122490000D03*
D15*
X78150000Y-103290000D03*
D16*
X78150000Y-99090000D03*
X78150000Y-94890000D03*
X78150000Y-90690000D03*
X83650000Y-103290000D03*
X83650000Y-99090000D03*
X83650000Y-94890000D03*
X83650000Y-90690000D03*
D15*
X133650000Y-86730000D03*
D16*
X133650000Y-82530000D03*
X133650000Y-78330000D03*
X133650000Y-74130000D03*
X139150000Y-86730000D03*
X139150000Y-82530000D03*
X139150000Y-78330000D03*
X139150000Y-74130000D03*
D15*
X61150000Y-135140000D03*
D16*
X61150000Y-130940000D03*
X61150000Y-126740000D03*
X61150000Y-122540000D03*
X55650000Y-135140000D03*
X55650000Y-130940000D03*
X55650000Y-126740000D03*
X55650000Y-122540000D03*
D15*
X116250000Y-118630000D03*
D16*
X116250000Y-114430000D03*
X116250000Y-110230000D03*
X116250000Y-106030000D03*
X110750000Y-118630000D03*
X110750000Y-114430000D03*
X110750000Y-110230000D03*
X110750000Y-106030000D03*
D15*
X133650000Y-118630000D03*
D16*
X133650000Y-114430000D03*
X133650000Y-110230000D03*
X133650000Y-106030000D03*
X139150000Y-118630000D03*
X139150000Y-114430000D03*
X139150000Y-110230000D03*
X139150000Y-106030000D03*
D11*
X231140000Y-40640000D03*
X231140000Y-137160000D03*
M02*
