M48
;DRILL file {KiCad 4.0.4-stable} date 02/10/18 20:54:30
;FORMAT={2:4/ absolute / inch / suppress trailing zeros}
FMAT,2
INCH,LZ
T1C0.039
T2C0.063
T3C0.071
T4C0.091
T5C0.120
T6C0.126
%
G90
G05
M72
T1
X022646Y-025165
X022646Y-02615
X022646Y-026937
X022646Y-027921
X023677Y-025165
X023677Y-02615
X023677Y-026937
X023677Y-027921
X031127Y-025166
X031127Y-02615
X031127Y-026938
X031127Y-027922
X032158Y-025166
X032158Y-02615
X032158Y-026938
X032158Y-027922
X044143Y-018902
X044143Y-019886
X044143Y-020674
X044143Y-021658
X045175Y-018902
X045175Y-019886
X045175Y-020674
X045175Y-021658
X052594Y-018902
X052594Y-019886
X052594Y-020674
X052594Y-021658
X053625Y-018902
X053625Y-019886
X053625Y-020674
X053625Y-021658
T2
X071879Y-018098
X071879Y-019594
X071879Y-024004
X071879Y-0255
X071879Y-031473
X071879Y-032969
X071879Y-037379
X071879Y-038875
X071879Y-044848
X071879Y-046344
X071879Y-050754
X071879Y-05225
X0768Y-018098
X0768Y-019594
X0768Y-024004
X0768Y-0255
X0768Y-031473
X0768Y-032969
X0768Y-037379
X0768Y-038875
X0768Y-044848
X0768Y-046344
X0768Y-050754
X0768Y-05225
X082091Y-017694
X082091Y-019269
X082091Y-023599
X082091Y-025174
X082091Y-031444
X082091Y-033019
X082091Y-037349
X082091Y-038924
X082091Y-045194
X082091Y-046769
X082091Y-051099
X082091Y-052674
X08669Y-017694
X08669Y-019269
X08669Y-023599
X08669Y-025174
X08669Y-031444
X08669Y-033019
X08669Y-037349
X08669Y-038924
X08669Y-045194
X08669Y-046769
X08669Y-051099
X08669Y-052674
T3
X021811Y-035705
X021811Y-037358
X021811Y-039012
X021811Y-040665
X021909Y-048244
X021909Y-049898
X021909Y-051551
X021909Y-053205
X023976Y-035705
X023976Y-037358
X023976Y-039012
X023976Y-040665
X024075Y-048244
X024075Y-049898
X024075Y-051551
X024075Y-053205
X030748Y-048224
X030748Y-049878
X030748Y-051531
X030748Y-053185
X030768Y-035705
X030768Y-037358
X030768Y-039012
X030768Y-040665
X032913Y-048224
X032913Y-049878
X032913Y-051531
X032913Y-053185
X032933Y-035705
X032933Y-037358
X032933Y-039012
X032933Y-040665
X043602Y-029185
X043602Y-030839
X043602Y-032492
X043602Y-034146
X043602Y-041744
X043602Y-043398
X043602Y-045051
X043602Y-046705
X045768Y-029185
X045768Y-030839
X045768Y-032492
X045768Y-034146
X045768Y-041744
X045768Y-043398
X045768Y-045051
X045768Y-046705
X052618Y-029185
X052618Y-030839
X052618Y-032492
X052618Y-034146
X052618Y-041744
X052618Y-043398
X052618Y-045051
X052618Y-046705
X054783Y-029185
X054783Y-030839
X054783Y-032492
X054783Y-034146
X054783Y-041744
X054783Y-043398
X054783Y-045051
X054783Y-046705
T4
X022508Y-023957
X022508Y-02913
X024744Y-023957
X024744Y-02913
X03006Y-023957
X03006Y-029131
X032296Y-023957
X032296Y-029131
X044005Y-017694
X044005Y-022867
X046242Y-017694
X046242Y-022867
X051527Y-017694
X051527Y-022867
X053763Y-017694
X053763Y-022867
T5
X019Y-016
X019Y-054
X091Y-054
T6
X091Y-016
T0
M30
