G04 #@! TF.FileFunction,Legend,Top*
%FSLAX46Y46*%
G04 Gerber Fmt 4.6, Leading zero omitted, Abs format (unit mm)*
G04 Created by KiCad (PCBNEW 4.0.7) date 04/09/18 21:47:58*
%MOMM*%
%LPD*%
G01*
G04 APERTURE LIST*
%ADD10C,0.100000*%
%ADD11C,0.250000*%
%ADD12C,0.125000*%
%ADD13C,0.120000*%
%ADD14C,0.150000*%
%ADD15C,3.600000*%
%ADD16C,2.800000*%
%ADD17C,1.400000*%
%ADD18R,3.400000X3.400000*%
%ADD19C,3.400000*%
G04 APERTURE END LIST*
D10*
D11*
X68380952Y-102352381D02*
X68380952Y-103161905D01*
X68428571Y-103257143D01*
X68476190Y-103304762D01*
X68571428Y-103352381D01*
X68761905Y-103352381D01*
X68857143Y-103304762D01*
X68904762Y-103257143D01*
X68952381Y-103161905D01*
X68952381Y-102352381D01*
X69380952Y-103304762D02*
X69523809Y-103352381D01*
X69761905Y-103352381D01*
X69857143Y-103304762D01*
X69904762Y-103257143D01*
X69952381Y-103161905D01*
X69952381Y-103066667D01*
X69904762Y-102971429D01*
X69857143Y-102923810D01*
X69761905Y-102876190D01*
X69571428Y-102828571D01*
X69476190Y-102780952D01*
X69428571Y-102733333D01*
X69380952Y-102638095D01*
X69380952Y-102542857D01*
X69428571Y-102447619D01*
X69476190Y-102400000D01*
X69571428Y-102352381D01*
X69809524Y-102352381D01*
X69952381Y-102400000D01*
X70333333Y-103304762D02*
X70476190Y-103352381D01*
X70714286Y-103352381D01*
X70809524Y-103304762D01*
X70857143Y-103257143D01*
X70904762Y-103161905D01*
X70904762Y-103066667D01*
X70857143Y-102971429D01*
X70809524Y-102923810D01*
X70714286Y-102876190D01*
X70523809Y-102828571D01*
X70428571Y-102780952D01*
X70380952Y-102733333D01*
X70333333Y-102638095D01*
X70333333Y-102542857D01*
X70380952Y-102447619D01*
X70428571Y-102400000D01*
X70523809Y-102352381D01*
X70761905Y-102352381D01*
X70904762Y-102400000D01*
X71190476Y-102352381D02*
X71761905Y-102352381D01*
X71476190Y-103352381D02*
X71476190Y-102352381D01*
D12*
X73626190Y-109107141D02*
X73126190Y-109107141D01*
X73602381Y-108892856D02*
X73626190Y-108845237D01*
X73626190Y-108749999D01*
X73602381Y-108702380D01*
X73554762Y-108678570D01*
X73530952Y-108678570D01*
X73483333Y-108702380D01*
X73459524Y-108749999D01*
X73459524Y-108821427D01*
X73435714Y-108869046D01*
X73388095Y-108892856D01*
X73364286Y-108892856D01*
X73316667Y-108869046D01*
X73292857Y-108821427D01*
X73292857Y-108749999D01*
X73316667Y-108702380D01*
X73626190Y-108249999D02*
X73364286Y-108249999D01*
X73316667Y-108273808D01*
X73292857Y-108321427D01*
X73292857Y-108416665D01*
X73316667Y-108464284D01*
X73602381Y-108249999D02*
X73626190Y-108297618D01*
X73626190Y-108416665D01*
X73602381Y-108464284D01*
X73554762Y-108488094D01*
X73507143Y-108488094D01*
X73459524Y-108464284D01*
X73435714Y-108416665D01*
X73435714Y-108297618D01*
X73411905Y-108249999D01*
X73626190Y-107797618D02*
X73364286Y-107797618D01*
X73316667Y-107821427D01*
X73292857Y-107869046D01*
X73292857Y-107964284D01*
X73316667Y-108011903D01*
X73602381Y-107797618D02*
X73626190Y-107845237D01*
X73626190Y-107964284D01*
X73602381Y-108011903D01*
X73554762Y-108035713D01*
X73507143Y-108035713D01*
X73459524Y-108011903D01*
X73435714Y-107964284D01*
X73435714Y-107845237D01*
X73411905Y-107797618D01*
X73602381Y-107345237D02*
X73626190Y-107392856D01*
X73626190Y-107488094D01*
X73602381Y-107535713D01*
X73578571Y-107559522D01*
X73530952Y-107583332D01*
X73388095Y-107583332D01*
X73340476Y-107559522D01*
X73316667Y-107535713D01*
X73292857Y-107488094D01*
X73292857Y-107392856D01*
X73316667Y-107345237D01*
X73626190Y-106749999D02*
X73126190Y-106749999D01*
X73126190Y-106559523D01*
X73150000Y-106511904D01*
X73173810Y-106488095D01*
X73221429Y-106464285D01*
X73292857Y-106464285D01*
X73340476Y-106488095D01*
X73364286Y-106511904D01*
X73388095Y-106559523D01*
X73388095Y-106749999D01*
X73626190Y-106178571D02*
X73602381Y-106226190D01*
X73578571Y-106249999D01*
X73530952Y-106273809D01*
X73388095Y-106273809D01*
X73340476Y-106249999D01*
X73316667Y-106226190D01*
X73292857Y-106178571D01*
X73292857Y-106107142D01*
X73316667Y-106059523D01*
X73340476Y-106035714D01*
X73388095Y-106011904D01*
X73530952Y-106011904D01*
X73578571Y-106035714D01*
X73602381Y-106059523D01*
X73626190Y-106107142D01*
X73626190Y-106178571D01*
X73626190Y-105797618D02*
X73292857Y-105797618D01*
X73126190Y-105797618D02*
X73150000Y-105821428D01*
X73173810Y-105797618D01*
X73150000Y-105773809D01*
X73126190Y-105797618D01*
X73173810Y-105797618D01*
X73626190Y-105559523D02*
X73292857Y-105559523D01*
X73388095Y-105559523D02*
X73340476Y-105535714D01*
X73316667Y-105511904D01*
X73292857Y-105464285D01*
X73292857Y-105416666D01*
X73626190Y-105249999D02*
X73292857Y-105249999D01*
X73126190Y-105249999D02*
X73150000Y-105273809D01*
X73173810Y-105249999D01*
X73150000Y-105226190D01*
X73126190Y-105249999D01*
X73173810Y-105249999D01*
X73602381Y-104821428D02*
X73626190Y-104869047D01*
X73626190Y-104964285D01*
X73602381Y-105011904D01*
X73554762Y-105035714D01*
X73364286Y-105035714D01*
X73316667Y-105011904D01*
X73292857Y-104964285D01*
X73292857Y-104869047D01*
X73316667Y-104821428D01*
X73364286Y-104797619D01*
X73411905Y-104797619D01*
X73459524Y-105035714D01*
X73626190Y-104583333D02*
X73292857Y-104583333D01*
X73388095Y-104583333D02*
X73340476Y-104559524D01*
X73316667Y-104535714D01*
X73292857Y-104488095D01*
X73292857Y-104440476D01*
X73626190Y-103678572D02*
X73364286Y-103678572D01*
X73316667Y-103702381D01*
X73292857Y-103750000D01*
X73292857Y-103845238D01*
X73316667Y-103892857D01*
X73602381Y-103678572D02*
X73626190Y-103726191D01*
X73626190Y-103845238D01*
X73602381Y-103892857D01*
X73554762Y-103916667D01*
X73507143Y-103916667D01*
X73459524Y-103892857D01*
X73435714Y-103845238D01*
X73435714Y-103726191D01*
X73411905Y-103678572D01*
X73292857Y-103440476D02*
X73626190Y-103440476D01*
X73340476Y-103440476D02*
X73316667Y-103416667D01*
X73292857Y-103369048D01*
X73292857Y-103297619D01*
X73316667Y-103250000D01*
X73364286Y-103226191D01*
X73626190Y-103226191D01*
X73626190Y-102773810D02*
X73126190Y-102773810D01*
X73602381Y-102773810D02*
X73626190Y-102821429D01*
X73626190Y-102916667D01*
X73602381Y-102964286D01*
X73578571Y-102988095D01*
X73530952Y-103011905D01*
X73388095Y-103011905D01*
X73340476Y-102988095D01*
X73316667Y-102964286D01*
X73292857Y-102916667D01*
X73292857Y-102821429D01*
X73316667Y-102773810D01*
X73578571Y-101869048D02*
X73602381Y-101892858D01*
X73626190Y-101964286D01*
X73626190Y-102011905D01*
X73602381Y-102083334D01*
X73554762Y-102130953D01*
X73507143Y-102154762D01*
X73411905Y-102178572D01*
X73340476Y-102178572D01*
X73245238Y-102154762D01*
X73197619Y-102130953D01*
X73150000Y-102083334D01*
X73126190Y-102011905D01*
X73126190Y-101964286D01*
X73150000Y-101892858D01*
X73173810Y-101869048D01*
X73626190Y-101583334D02*
X73602381Y-101630953D01*
X73578571Y-101654762D01*
X73530952Y-101678572D01*
X73388095Y-101678572D01*
X73340476Y-101654762D01*
X73316667Y-101630953D01*
X73292857Y-101583334D01*
X73292857Y-101511905D01*
X73316667Y-101464286D01*
X73340476Y-101440477D01*
X73388095Y-101416667D01*
X73530952Y-101416667D01*
X73578571Y-101440477D01*
X73602381Y-101464286D01*
X73626190Y-101511905D01*
X73626190Y-101583334D01*
X73626190Y-100988096D02*
X73126190Y-100988096D01*
X73602381Y-100988096D02*
X73626190Y-101035715D01*
X73626190Y-101130953D01*
X73602381Y-101178572D01*
X73578571Y-101202381D01*
X73530952Y-101226191D01*
X73388095Y-101226191D01*
X73340476Y-101202381D01*
X73316667Y-101178572D01*
X73292857Y-101130953D01*
X73292857Y-101035715D01*
X73316667Y-100988096D01*
X73292857Y-100797619D02*
X73626190Y-100678572D01*
X73292857Y-100559524D02*
X73626190Y-100678572D01*
X73745238Y-100726191D01*
X73769048Y-100750000D01*
X73792857Y-100797619D01*
X73364286Y-99821430D02*
X73388095Y-99750001D01*
X73411905Y-99726192D01*
X73459524Y-99702382D01*
X73530952Y-99702382D01*
X73578571Y-99726192D01*
X73602381Y-99750001D01*
X73626190Y-99797620D01*
X73626190Y-99988096D01*
X73126190Y-99988096D01*
X73126190Y-99821430D01*
X73150000Y-99773811D01*
X73173810Y-99750001D01*
X73221429Y-99726192D01*
X73269048Y-99726192D01*
X73316667Y-99750001D01*
X73340476Y-99773811D01*
X73364286Y-99821430D01*
X73364286Y-99988096D01*
X73602381Y-99297620D02*
X73626190Y-99345239D01*
X73626190Y-99440477D01*
X73602381Y-99488096D01*
X73554762Y-99511906D01*
X73364286Y-99511906D01*
X73316667Y-99488096D01*
X73292857Y-99440477D01*
X73292857Y-99345239D01*
X73316667Y-99297620D01*
X73364286Y-99273811D01*
X73411905Y-99273811D01*
X73459524Y-99511906D01*
X73626190Y-99059525D02*
X73292857Y-99059525D01*
X73388095Y-99059525D02*
X73340476Y-99035716D01*
X73316667Y-99011906D01*
X73292857Y-98964287D01*
X73292857Y-98916668D01*
X73292857Y-98535716D02*
X73697619Y-98535716D01*
X73745238Y-98559525D01*
X73769048Y-98583335D01*
X73792857Y-98630954D01*
X73792857Y-98702382D01*
X73769048Y-98750001D01*
X73602381Y-98535716D02*
X73626190Y-98583335D01*
X73626190Y-98678573D01*
X73602381Y-98726192D01*
X73578571Y-98750001D01*
X73530952Y-98773811D01*
X73388095Y-98773811D01*
X73340476Y-98750001D01*
X73316667Y-98726192D01*
X73292857Y-98678573D01*
X73292857Y-98583335D01*
X73316667Y-98535716D01*
X73292857Y-98083335D02*
X73697619Y-98083335D01*
X73745238Y-98107144D01*
X73769048Y-98130954D01*
X73792857Y-98178573D01*
X73792857Y-98250001D01*
X73769048Y-98297620D01*
X73602381Y-98083335D02*
X73626190Y-98130954D01*
X73626190Y-98226192D01*
X73602381Y-98273811D01*
X73578571Y-98297620D01*
X73530952Y-98321430D01*
X73388095Y-98321430D01*
X73340476Y-98297620D01*
X73316667Y-98273811D01*
X73292857Y-98226192D01*
X73292857Y-98130954D01*
X73316667Y-98083335D01*
X73626190Y-97845239D02*
X73292857Y-97845239D01*
X73388095Y-97845239D02*
X73340476Y-97821430D01*
X73316667Y-97797620D01*
X73292857Y-97750001D01*
X73292857Y-97702382D01*
X73602381Y-97345239D02*
X73626190Y-97392858D01*
X73626190Y-97488096D01*
X73602381Y-97535715D01*
X73554762Y-97559525D01*
X73364286Y-97559525D01*
X73316667Y-97535715D01*
X73292857Y-97488096D01*
X73292857Y-97392858D01*
X73316667Y-97345239D01*
X73364286Y-97321430D01*
X73411905Y-97321430D01*
X73459524Y-97559525D01*
X73292857Y-97107144D02*
X73626190Y-97107144D01*
X73340476Y-97107144D02*
X73316667Y-97083335D01*
X73292857Y-97035716D01*
X73292857Y-96964287D01*
X73316667Y-96916668D01*
X73364286Y-96892859D01*
X73626190Y-96892859D01*
D13*
X227486000Y-90200000D02*
G75*
G03X227486000Y-90200000I-2286000J0D01*
G01*
X72286000Y-90200000D02*
G75*
G03X72286000Y-90200000I-2286000J0D01*
G01*
X72286000Y-115300000D02*
G75*
G03X72286000Y-115300000I-2286000J0D01*
G01*
X227486000Y-115300000D02*
G75*
G03X227486000Y-115300000I-2286000J0D01*
G01*
D14*
X201697200Y-120425300D02*
G75*
G03X202057200Y-120085300I10000J350000D01*
G01*
X215857200Y-120095300D02*
G75*
G03X216207200Y-120425300I340000J10000D01*
G01*
X215857200Y-102975300D02*
X202057200Y-102965300D01*
X202057200Y-102965300D02*
X202057200Y-120425300D01*
X202057200Y-120425300D02*
X215857200Y-120425300D01*
X215857200Y-120425300D02*
X215857200Y-102965300D01*
X184330700Y-120416800D02*
G75*
G03X184690700Y-120076800I10000J350000D01*
G01*
X198490700Y-120086800D02*
G75*
G03X198840700Y-120416800I340000J10000D01*
G01*
X198490700Y-102966800D02*
X184690700Y-102956800D01*
X184690700Y-102956800D02*
X184690700Y-120416800D01*
X184690700Y-120416800D02*
X198490700Y-120416800D01*
X198490700Y-120416800D02*
X198490700Y-102956800D01*
X95827600Y-111236800D02*
X96677600Y-111236800D01*
X94127600Y-108486800D02*
X94127600Y-106586800D01*
X93527600Y-108486800D02*
X93527600Y-106586800D01*
X89927600Y-108486800D02*
X89927600Y-106586800D01*
X89327600Y-108486800D02*
X89327600Y-106586800D01*
X85727600Y-108486800D02*
X85727600Y-106586800D01*
X85127600Y-108486800D02*
X85127600Y-106586800D01*
X81527600Y-108486800D02*
X81527600Y-106586800D01*
X80927600Y-108486800D02*
X80927600Y-106586800D01*
X92027600Y-111286800D02*
X91427600Y-111286800D01*
X87827600Y-111286800D02*
X87227600Y-111286800D01*
X83627600Y-111286800D02*
X83027600Y-111286800D01*
X95827600Y-110286800D02*
X96427600Y-109986800D01*
X96427600Y-109986800D02*
X96427600Y-110586800D01*
X96427600Y-110586800D02*
X95827600Y-110286800D01*
X116808000Y-111236800D02*
X117658000Y-111236800D01*
X115108000Y-108486800D02*
X115108000Y-106586800D01*
X114508000Y-108486800D02*
X114508000Y-106586800D01*
X110908000Y-108486800D02*
X110908000Y-106586800D01*
X110308000Y-108486800D02*
X110308000Y-106586800D01*
X106708000Y-108486800D02*
X106708000Y-106586800D01*
X106108000Y-108486800D02*
X106108000Y-106586800D01*
X102508000Y-108486800D02*
X102508000Y-106586800D01*
X101908000Y-108486800D02*
X101908000Y-106586800D01*
X113008000Y-111286800D02*
X112408000Y-111286800D01*
X108808000Y-111286800D02*
X108208000Y-111286800D01*
X104608000Y-111286800D02*
X104008000Y-111286800D01*
X116808000Y-110286800D02*
X117408000Y-109986800D01*
X117408000Y-109986800D02*
X117408000Y-110586800D01*
X117408000Y-110586800D02*
X116808000Y-110286800D01*
X137839200Y-111236800D02*
X138689200Y-111236800D01*
X136139200Y-108486800D02*
X136139200Y-106586800D01*
X135539200Y-108486800D02*
X135539200Y-106586800D01*
X131939200Y-108486800D02*
X131939200Y-106586800D01*
X131339200Y-108486800D02*
X131339200Y-106586800D01*
X127739200Y-108486800D02*
X127739200Y-106586800D01*
X127139200Y-108486800D02*
X127139200Y-106586800D01*
X123539200Y-108486800D02*
X123539200Y-106586800D01*
X122939200Y-108486800D02*
X122939200Y-106586800D01*
X134039200Y-111286800D02*
X133439200Y-111286800D01*
X129839200Y-111286800D02*
X129239200Y-111286800D01*
X125639200Y-111286800D02*
X125039200Y-111286800D01*
X137839200Y-110286800D02*
X138439200Y-109986800D01*
X138439200Y-109986800D02*
X138439200Y-110586800D01*
X138439200Y-110586800D02*
X137839200Y-110286800D01*
X158870400Y-111236800D02*
X159720400Y-111236800D01*
X157170400Y-108486800D02*
X157170400Y-106586800D01*
X156570400Y-108486800D02*
X156570400Y-106586800D01*
X152970400Y-108486800D02*
X152970400Y-106586800D01*
X152370400Y-108486800D02*
X152370400Y-106586800D01*
X148770400Y-108486800D02*
X148770400Y-106586800D01*
X148170400Y-108486800D02*
X148170400Y-106586800D01*
X144570400Y-108486800D02*
X144570400Y-106586800D01*
X143970400Y-108486800D02*
X143970400Y-106586800D01*
X155070400Y-111286800D02*
X154470400Y-111286800D01*
X150870400Y-111286800D02*
X150270400Y-111286800D01*
X146670400Y-111286800D02*
X146070400Y-111286800D01*
X158870400Y-110286800D02*
X159470400Y-109986800D01*
X159470400Y-109986800D02*
X159470400Y-110586800D01*
X159470400Y-110586800D02*
X158870400Y-110286800D01*
X179901600Y-111236800D02*
X180751600Y-111236800D01*
X178201600Y-108486800D02*
X178201600Y-106586800D01*
X177601600Y-108486800D02*
X177601600Y-106586800D01*
X174001600Y-108486800D02*
X174001600Y-106586800D01*
X173401600Y-108486800D02*
X173401600Y-106586800D01*
X169801600Y-108486800D02*
X169801600Y-106586800D01*
X169201600Y-108486800D02*
X169201600Y-106586800D01*
X165601600Y-108486800D02*
X165601600Y-106586800D01*
X165001600Y-108486800D02*
X165001600Y-106586800D01*
X176101600Y-111286800D02*
X175501600Y-111286800D01*
X171901600Y-111286800D02*
X171301600Y-111286800D01*
X167701600Y-111286800D02*
X167101600Y-111286800D01*
X179901600Y-110286800D02*
X180501600Y-109986800D01*
X180501600Y-109986800D02*
X180501600Y-110586800D01*
X180501600Y-110586800D02*
X179901600Y-110286800D01*
X204775334Y-111478267D02*
X204775334Y-112044933D01*
X204808667Y-112111600D01*
X204842000Y-112144933D01*
X204908667Y-112178267D01*
X205042000Y-112178267D01*
X205108667Y-112144933D01*
X205142000Y-112111600D01*
X205175334Y-112044933D01*
X205175334Y-111478267D01*
X205475333Y-112144933D02*
X205575333Y-112178267D01*
X205742000Y-112178267D01*
X205808667Y-112144933D01*
X205842000Y-112111600D01*
X205875333Y-112044933D01*
X205875333Y-111978267D01*
X205842000Y-111911600D01*
X205808667Y-111878267D01*
X205742000Y-111844933D01*
X205608667Y-111811600D01*
X205542000Y-111778267D01*
X205508667Y-111744933D01*
X205475333Y-111678267D01*
X205475333Y-111611600D01*
X205508667Y-111544933D01*
X205542000Y-111511600D01*
X205608667Y-111478267D01*
X205775333Y-111478267D01*
X205875333Y-111511600D01*
X206408667Y-111811600D02*
X206508667Y-111844933D01*
X206542000Y-111878267D01*
X206575334Y-111944933D01*
X206575334Y-112044933D01*
X206542000Y-112111600D01*
X206508667Y-112144933D01*
X206442000Y-112178267D01*
X206175334Y-112178267D01*
X206175334Y-111478267D01*
X206408667Y-111478267D01*
X206475334Y-111511600D01*
X206508667Y-111544933D01*
X206542000Y-111611600D01*
X206542000Y-111678267D01*
X206508667Y-111744933D01*
X206475334Y-111778267D01*
X206408667Y-111811600D01*
X206175334Y-111811600D01*
X206808667Y-111478267D02*
X207242000Y-111478267D01*
X207008667Y-111744933D01*
X207108667Y-111744933D01*
X207175334Y-111778267D01*
X207208667Y-111811600D01*
X207242000Y-111878267D01*
X207242000Y-112044933D01*
X207208667Y-112111600D01*
X207175334Y-112144933D01*
X207108667Y-112178267D01*
X206908667Y-112178267D01*
X206842000Y-112144933D01*
X206808667Y-112111600D01*
X207542001Y-111911600D02*
X208075334Y-111911600D01*
X208375334Y-111978267D02*
X208708668Y-111978267D01*
X208308668Y-112178267D02*
X208542001Y-111478267D01*
X208775334Y-112178267D01*
X209508667Y-112144933D02*
X209608667Y-112178267D01*
X209775334Y-112178267D01*
X209842001Y-112144933D01*
X209875334Y-112111600D01*
X209908667Y-112044933D01*
X209908667Y-111978267D01*
X209875334Y-111911600D01*
X209842001Y-111878267D01*
X209775334Y-111844933D01*
X209642001Y-111811600D01*
X209575334Y-111778267D01*
X209542001Y-111744933D01*
X209508667Y-111678267D01*
X209508667Y-111611600D01*
X209542001Y-111544933D01*
X209575334Y-111511600D01*
X209642001Y-111478267D01*
X209808667Y-111478267D01*
X209908667Y-111511600D01*
X210108668Y-111711600D02*
X210375334Y-111711600D01*
X210208668Y-111478267D02*
X210208668Y-112078267D01*
X210242001Y-112144933D01*
X210308668Y-112178267D01*
X210375334Y-112178267D01*
X210908668Y-112178267D02*
X210908668Y-111811600D01*
X210875334Y-111744933D01*
X210808668Y-111711600D01*
X210675334Y-111711600D01*
X210608668Y-111744933D01*
X210908668Y-112144933D02*
X210842001Y-112178267D01*
X210675334Y-112178267D01*
X210608668Y-112144933D01*
X210575334Y-112078267D01*
X210575334Y-112011600D01*
X210608668Y-111944933D01*
X210675334Y-111911600D01*
X210842001Y-111911600D01*
X210908668Y-111878267D01*
X211542001Y-112144933D02*
X211475334Y-112178267D01*
X211342001Y-112178267D01*
X211275334Y-112144933D01*
X211242001Y-112111600D01*
X211208667Y-112044933D01*
X211208667Y-111844933D01*
X211242001Y-111778267D01*
X211275334Y-111744933D01*
X211342001Y-111711600D01*
X211475334Y-111711600D01*
X211542001Y-111744933D01*
X211842001Y-112178267D02*
X211842001Y-111478267D01*
X211908667Y-111911600D02*
X212108667Y-112178267D01*
X212108667Y-111711600D02*
X211842001Y-111978267D01*
X212675334Y-112144933D02*
X212608668Y-112178267D01*
X212475334Y-112178267D01*
X212408668Y-112144933D01*
X212375334Y-112078267D01*
X212375334Y-111811600D01*
X212408668Y-111744933D01*
X212475334Y-111711600D01*
X212608668Y-111711600D01*
X212675334Y-111744933D01*
X212708668Y-111811600D01*
X212708668Y-111878267D01*
X212375334Y-111944933D01*
X213308668Y-112178267D02*
X213308668Y-111478267D01*
X213308668Y-112144933D02*
X213242001Y-112178267D01*
X213108668Y-112178267D01*
X213042001Y-112144933D01*
X213008668Y-112111600D01*
X212975334Y-112044933D01*
X212975334Y-111844933D01*
X213008668Y-111778267D01*
X213042001Y-111744933D01*
X213108668Y-111711600D01*
X213242001Y-111711600D01*
X213308668Y-111744933D01*
X186588934Y-111732267D02*
X186588934Y-112298933D01*
X186622267Y-112365600D01*
X186655600Y-112398933D01*
X186722267Y-112432267D01*
X186855600Y-112432267D01*
X186922267Y-112398933D01*
X186955600Y-112365600D01*
X186988934Y-112298933D01*
X186988934Y-111732267D01*
X187288933Y-112398933D02*
X187388933Y-112432267D01*
X187555600Y-112432267D01*
X187622267Y-112398933D01*
X187655600Y-112365600D01*
X187688933Y-112298933D01*
X187688933Y-112232267D01*
X187655600Y-112165600D01*
X187622267Y-112132267D01*
X187555600Y-112098933D01*
X187422267Y-112065600D01*
X187355600Y-112032267D01*
X187322267Y-111998933D01*
X187288933Y-111932267D01*
X187288933Y-111865600D01*
X187322267Y-111798933D01*
X187355600Y-111765600D01*
X187422267Y-111732267D01*
X187588933Y-111732267D01*
X187688933Y-111765600D01*
X188222267Y-112065600D02*
X188322267Y-112098933D01*
X188355600Y-112132267D01*
X188388934Y-112198933D01*
X188388934Y-112298933D01*
X188355600Y-112365600D01*
X188322267Y-112398933D01*
X188255600Y-112432267D01*
X187988934Y-112432267D01*
X187988934Y-111732267D01*
X188222267Y-111732267D01*
X188288934Y-111765600D01*
X188322267Y-111798933D01*
X188355600Y-111865600D01*
X188355600Y-111932267D01*
X188322267Y-111998933D01*
X188288934Y-112032267D01*
X188222267Y-112065600D01*
X187988934Y-112065600D01*
X188622267Y-111732267D02*
X189055600Y-111732267D01*
X188822267Y-111998933D01*
X188922267Y-111998933D01*
X188988934Y-112032267D01*
X189022267Y-112065600D01*
X189055600Y-112132267D01*
X189055600Y-112298933D01*
X189022267Y-112365600D01*
X188988934Y-112398933D01*
X188922267Y-112432267D01*
X188722267Y-112432267D01*
X188655600Y-112398933D01*
X188622267Y-112365600D01*
X189355601Y-112165600D02*
X189888934Y-112165600D01*
X190188934Y-112232267D02*
X190522268Y-112232267D01*
X190122268Y-112432267D02*
X190355601Y-111732267D01*
X190588934Y-112432267D01*
X191322267Y-112398933D02*
X191422267Y-112432267D01*
X191588934Y-112432267D01*
X191655601Y-112398933D01*
X191688934Y-112365600D01*
X191722267Y-112298933D01*
X191722267Y-112232267D01*
X191688934Y-112165600D01*
X191655601Y-112132267D01*
X191588934Y-112098933D01*
X191455601Y-112065600D01*
X191388934Y-112032267D01*
X191355601Y-111998933D01*
X191322267Y-111932267D01*
X191322267Y-111865600D01*
X191355601Y-111798933D01*
X191388934Y-111765600D01*
X191455601Y-111732267D01*
X191622267Y-111732267D01*
X191722267Y-111765600D01*
X191922268Y-111965600D02*
X192188934Y-111965600D01*
X192022268Y-111732267D02*
X192022268Y-112332267D01*
X192055601Y-112398933D01*
X192122268Y-112432267D01*
X192188934Y-112432267D01*
X192722268Y-112432267D02*
X192722268Y-112065600D01*
X192688934Y-111998933D01*
X192622268Y-111965600D01*
X192488934Y-111965600D01*
X192422268Y-111998933D01*
X192722268Y-112398933D02*
X192655601Y-112432267D01*
X192488934Y-112432267D01*
X192422268Y-112398933D01*
X192388934Y-112332267D01*
X192388934Y-112265600D01*
X192422268Y-112198933D01*
X192488934Y-112165600D01*
X192655601Y-112165600D01*
X192722268Y-112132267D01*
X193355601Y-112398933D02*
X193288934Y-112432267D01*
X193155601Y-112432267D01*
X193088934Y-112398933D01*
X193055601Y-112365600D01*
X193022267Y-112298933D01*
X193022267Y-112098933D01*
X193055601Y-112032267D01*
X193088934Y-111998933D01*
X193155601Y-111965600D01*
X193288934Y-111965600D01*
X193355601Y-111998933D01*
X193655601Y-112432267D02*
X193655601Y-111732267D01*
X193722267Y-112165600D02*
X193922267Y-112432267D01*
X193922267Y-111965600D02*
X193655601Y-112232267D01*
X194488934Y-112398933D02*
X194422268Y-112432267D01*
X194288934Y-112432267D01*
X194222268Y-112398933D01*
X194188934Y-112332267D01*
X194188934Y-112065600D01*
X194222268Y-111998933D01*
X194288934Y-111965600D01*
X194422268Y-111965600D01*
X194488934Y-111998933D01*
X194522268Y-112065600D01*
X194522268Y-112132267D01*
X194188934Y-112198933D01*
X195122268Y-112432267D02*
X195122268Y-111732267D01*
X195122268Y-112398933D02*
X195055601Y-112432267D01*
X194922268Y-112432267D01*
X194855601Y-112398933D01*
X194822268Y-112365600D01*
X194788934Y-112298933D01*
X194788934Y-112098933D01*
X194822268Y-112032267D01*
X194855601Y-111998933D01*
X194922268Y-111965600D01*
X195055601Y-111965600D01*
X195122268Y-111998933D01*
X81542857Y-113338095D02*
X81580952Y-113300000D01*
X81657143Y-113261905D01*
X81847619Y-113261905D01*
X81923809Y-113300000D01*
X81961905Y-113338095D01*
X82000000Y-113414286D01*
X82000000Y-113490476D01*
X81961905Y-113604762D01*
X81504762Y-114061905D01*
X82000000Y-114061905D01*
X82266667Y-114061905D02*
X82685714Y-113528571D01*
X82266667Y-113528571D02*
X82685714Y-114061905D01*
X83333333Y-113528571D02*
X83333333Y-114061905D01*
X83142857Y-113223810D02*
X82952381Y-113795238D01*
X83447619Y-113795238D01*
X84361905Y-114061905D02*
X84361905Y-113261905D01*
X84628572Y-113833333D01*
X84895239Y-113261905D01*
X84895239Y-114061905D01*
X85390477Y-114061905D02*
X85314286Y-114023810D01*
X85276191Y-113985714D01*
X85238096Y-113909524D01*
X85238096Y-113680952D01*
X85276191Y-113604762D01*
X85314286Y-113566667D01*
X85390477Y-113528571D01*
X85504763Y-113528571D01*
X85580953Y-113566667D01*
X85619048Y-113604762D01*
X85657144Y-113680952D01*
X85657144Y-113909524D01*
X85619048Y-113985714D01*
X85580953Y-114023810D01*
X85504763Y-114061905D01*
X85390477Y-114061905D01*
X86114287Y-114061905D02*
X86038096Y-114023810D01*
X86000001Y-113947619D01*
X86000001Y-113261905D01*
X86723811Y-114023810D02*
X86647621Y-114061905D01*
X86495240Y-114061905D01*
X86419049Y-114023810D01*
X86380954Y-113947619D01*
X86380954Y-113642857D01*
X86419049Y-113566667D01*
X86495240Y-113528571D01*
X86647621Y-113528571D01*
X86723811Y-113566667D01*
X86761906Y-113642857D01*
X86761906Y-113719048D01*
X86380954Y-113795238D01*
X87028573Y-114061905D02*
X87447620Y-113528571D01*
X87028573Y-113528571D02*
X87447620Y-114061905D01*
X88361906Y-114061905D02*
X88361906Y-113261905D01*
X88628573Y-113833333D01*
X88895240Y-113261905D01*
X88895240Y-114061905D01*
X89276192Y-114061905D02*
X89276192Y-113528571D01*
X89276192Y-113261905D02*
X89238097Y-113300000D01*
X89276192Y-113338095D01*
X89314287Y-113300000D01*
X89276192Y-113261905D01*
X89276192Y-113338095D01*
X89657144Y-113528571D02*
X89657144Y-114061905D01*
X89657144Y-113604762D02*
X89695239Y-113566667D01*
X89771430Y-113528571D01*
X89885716Y-113528571D01*
X89961906Y-113566667D01*
X90000001Y-113642857D01*
X90000001Y-114061905D01*
X90380954Y-114061905D02*
X90380954Y-113528571D01*
X90380954Y-113261905D02*
X90342859Y-113300000D01*
X90380954Y-113338095D01*
X90419049Y-113300000D01*
X90380954Y-113261905D01*
X90380954Y-113338095D01*
X91028573Y-113642857D02*
X90761906Y-113642857D01*
X90761906Y-114061905D02*
X90761906Y-113261905D01*
X91142859Y-113261905D01*
X91447620Y-114061905D02*
X91447620Y-113528571D01*
X91447620Y-113261905D02*
X91409525Y-113300000D01*
X91447620Y-113338095D01*
X91485715Y-113300000D01*
X91447620Y-113261905D01*
X91447620Y-113338095D01*
X91714286Y-113528571D02*
X92019048Y-113528571D01*
X91828572Y-113261905D02*
X91828572Y-113947619D01*
X91866667Y-114023810D01*
X91942858Y-114061905D01*
X92019048Y-114061905D01*
X93123811Y-113261905D02*
X93123811Y-113833333D01*
X93085715Y-113947619D01*
X93009525Y-114023810D01*
X92895239Y-114061905D01*
X92819049Y-114061905D01*
X93504763Y-114061905D02*
X93504763Y-113528571D01*
X93504763Y-113680952D02*
X93542858Y-113604762D01*
X93580954Y-113566667D01*
X93657144Y-113528571D01*
X93733335Y-113528571D01*
X102442857Y-113338095D02*
X102480952Y-113300000D01*
X102557143Y-113261905D01*
X102747619Y-113261905D01*
X102823809Y-113300000D01*
X102861905Y-113338095D01*
X102900000Y-113414286D01*
X102900000Y-113490476D01*
X102861905Y-113604762D01*
X102404762Y-114061905D01*
X102900000Y-114061905D01*
X103166667Y-114061905D02*
X103585714Y-113528571D01*
X103166667Y-113528571D02*
X103585714Y-114061905D01*
X104233333Y-113528571D02*
X104233333Y-114061905D01*
X104042857Y-113223810D02*
X103852381Y-113795238D01*
X104347619Y-113795238D01*
X105261905Y-114061905D02*
X105261905Y-113261905D01*
X105528572Y-113833333D01*
X105795239Y-113261905D01*
X105795239Y-114061905D01*
X106290477Y-114061905D02*
X106214286Y-114023810D01*
X106176191Y-113985714D01*
X106138096Y-113909524D01*
X106138096Y-113680952D01*
X106176191Y-113604762D01*
X106214286Y-113566667D01*
X106290477Y-113528571D01*
X106404763Y-113528571D01*
X106480953Y-113566667D01*
X106519048Y-113604762D01*
X106557144Y-113680952D01*
X106557144Y-113909524D01*
X106519048Y-113985714D01*
X106480953Y-114023810D01*
X106404763Y-114061905D01*
X106290477Y-114061905D01*
X107014287Y-114061905D02*
X106938096Y-114023810D01*
X106900001Y-113947619D01*
X106900001Y-113261905D01*
X107623811Y-114023810D02*
X107547621Y-114061905D01*
X107395240Y-114061905D01*
X107319049Y-114023810D01*
X107280954Y-113947619D01*
X107280954Y-113642857D01*
X107319049Y-113566667D01*
X107395240Y-113528571D01*
X107547621Y-113528571D01*
X107623811Y-113566667D01*
X107661906Y-113642857D01*
X107661906Y-113719048D01*
X107280954Y-113795238D01*
X107928573Y-114061905D02*
X108347620Y-113528571D01*
X107928573Y-113528571D02*
X108347620Y-114061905D01*
X109261906Y-114061905D02*
X109261906Y-113261905D01*
X109528573Y-113833333D01*
X109795240Y-113261905D01*
X109795240Y-114061905D01*
X110176192Y-114061905D02*
X110176192Y-113528571D01*
X110176192Y-113261905D02*
X110138097Y-113300000D01*
X110176192Y-113338095D01*
X110214287Y-113300000D01*
X110176192Y-113261905D01*
X110176192Y-113338095D01*
X110557144Y-113528571D02*
X110557144Y-114061905D01*
X110557144Y-113604762D02*
X110595239Y-113566667D01*
X110671430Y-113528571D01*
X110785716Y-113528571D01*
X110861906Y-113566667D01*
X110900001Y-113642857D01*
X110900001Y-114061905D01*
X111280954Y-114061905D02*
X111280954Y-113528571D01*
X111280954Y-113261905D02*
X111242859Y-113300000D01*
X111280954Y-113338095D01*
X111319049Y-113300000D01*
X111280954Y-113261905D01*
X111280954Y-113338095D01*
X111928573Y-113642857D02*
X111661906Y-113642857D01*
X111661906Y-114061905D02*
X111661906Y-113261905D01*
X112042859Y-113261905D01*
X112347620Y-114061905D02*
X112347620Y-113528571D01*
X112347620Y-113261905D02*
X112309525Y-113300000D01*
X112347620Y-113338095D01*
X112385715Y-113300000D01*
X112347620Y-113261905D01*
X112347620Y-113338095D01*
X112614286Y-113528571D02*
X112919048Y-113528571D01*
X112728572Y-113261905D02*
X112728572Y-113947619D01*
X112766667Y-114023810D01*
X112842858Y-114061905D01*
X112919048Y-114061905D01*
X114023811Y-113261905D02*
X114023811Y-113833333D01*
X113985715Y-113947619D01*
X113909525Y-114023810D01*
X113795239Y-114061905D01*
X113719049Y-114061905D01*
X114404763Y-114061905D02*
X114404763Y-113528571D01*
X114404763Y-113680952D02*
X114442858Y-113604762D01*
X114480954Y-113566667D01*
X114557144Y-113528571D01*
X114633335Y-113528571D01*
X123342857Y-113238095D02*
X123380952Y-113200000D01*
X123457143Y-113161905D01*
X123647619Y-113161905D01*
X123723809Y-113200000D01*
X123761905Y-113238095D01*
X123800000Y-113314286D01*
X123800000Y-113390476D01*
X123761905Y-113504762D01*
X123304762Y-113961905D01*
X123800000Y-113961905D01*
X124066667Y-113961905D02*
X124485714Y-113428571D01*
X124066667Y-113428571D02*
X124485714Y-113961905D01*
X125133333Y-113428571D02*
X125133333Y-113961905D01*
X124942857Y-113123810D02*
X124752381Y-113695238D01*
X125247619Y-113695238D01*
X126161905Y-113961905D02*
X126161905Y-113161905D01*
X126428572Y-113733333D01*
X126695239Y-113161905D01*
X126695239Y-113961905D01*
X127190477Y-113961905D02*
X127114286Y-113923810D01*
X127076191Y-113885714D01*
X127038096Y-113809524D01*
X127038096Y-113580952D01*
X127076191Y-113504762D01*
X127114286Y-113466667D01*
X127190477Y-113428571D01*
X127304763Y-113428571D01*
X127380953Y-113466667D01*
X127419048Y-113504762D01*
X127457144Y-113580952D01*
X127457144Y-113809524D01*
X127419048Y-113885714D01*
X127380953Y-113923810D01*
X127304763Y-113961905D01*
X127190477Y-113961905D01*
X127914287Y-113961905D02*
X127838096Y-113923810D01*
X127800001Y-113847619D01*
X127800001Y-113161905D01*
X128523811Y-113923810D02*
X128447621Y-113961905D01*
X128295240Y-113961905D01*
X128219049Y-113923810D01*
X128180954Y-113847619D01*
X128180954Y-113542857D01*
X128219049Y-113466667D01*
X128295240Y-113428571D01*
X128447621Y-113428571D01*
X128523811Y-113466667D01*
X128561906Y-113542857D01*
X128561906Y-113619048D01*
X128180954Y-113695238D01*
X128828573Y-113961905D02*
X129247620Y-113428571D01*
X128828573Y-113428571D02*
X129247620Y-113961905D01*
X130161906Y-113961905D02*
X130161906Y-113161905D01*
X130428573Y-113733333D01*
X130695240Y-113161905D01*
X130695240Y-113961905D01*
X131076192Y-113961905D02*
X131076192Y-113428571D01*
X131076192Y-113161905D02*
X131038097Y-113200000D01*
X131076192Y-113238095D01*
X131114287Y-113200000D01*
X131076192Y-113161905D01*
X131076192Y-113238095D01*
X131457144Y-113428571D02*
X131457144Y-113961905D01*
X131457144Y-113504762D02*
X131495239Y-113466667D01*
X131571430Y-113428571D01*
X131685716Y-113428571D01*
X131761906Y-113466667D01*
X131800001Y-113542857D01*
X131800001Y-113961905D01*
X132180954Y-113961905D02*
X132180954Y-113428571D01*
X132180954Y-113161905D02*
X132142859Y-113200000D01*
X132180954Y-113238095D01*
X132219049Y-113200000D01*
X132180954Y-113161905D01*
X132180954Y-113238095D01*
X132828573Y-113542857D02*
X132561906Y-113542857D01*
X132561906Y-113961905D02*
X132561906Y-113161905D01*
X132942859Y-113161905D01*
X133247620Y-113961905D02*
X133247620Y-113428571D01*
X133247620Y-113161905D02*
X133209525Y-113200000D01*
X133247620Y-113238095D01*
X133285715Y-113200000D01*
X133247620Y-113161905D01*
X133247620Y-113238095D01*
X133514286Y-113428571D02*
X133819048Y-113428571D01*
X133628572Y-113161905D02*
X133628572Y-113847619D01*
X133666667Y-113923810D01*
X133742858Y-113961905D01*
X133819048Y-113961905D01*
X134923811Y-113161905D02*
X134923811Y-113733333D01*
X134885715Y-113847619D01*
X134809525Y-113923810D01*
X134695239Y-113961905D01*
X134619049Y-113961905D01*
X135304763Y-113961905D02*
X135304763Y-113428571D01*
X135304763Y-113580952D02*
X135342858Y-113504762D01*
X135380954Y-113466667D01*
X135457144Y-113428571D01*
X135533335Y-113428571D01*
X144342857Y-113238095D02*
X144380952Y-113200000D01*
X144457143Y-113161905D01*
X144647619Y-113161905D01*
X144723809Y-113200000D01*
X144761905Y-113238095D01*
X144800000Y-113314286D01*
X144800000Y-113390476D01*
X144761905Y-113504762D01*
X144304762Y-113961905D01*
X144800000Y-113961905D01*
X145066667Y-113961905D02*
X145485714Y-113428571D01*
X145066667Y-113428571D02*
X145485714Y-113961905D01*
X146133333Y-113428571D02*
X146133333Y-113961905D01*
X145942857Y-113123810D02*
X145752381Y-113695238D01*
X146247619Y-113695238D01*
X147161905Y-113961905D02*
X147161905Y-113161905D01*
X147428572Y-113733333D01*
X147695239Y-113161905D01*
X147695239Y-113961905D01*
X148190477Y-113961905D02*
X148114286Y-113923810D01*
X148076191Y-113885714D01*
X148038096Y-113809524D01*
X148038096Y-113580952D01*
X148076191Y-113504762D01*
X148114286Y-113466667D01*
X148190477Y-113428571D01*
X148304763Y-113428571D01*
X148380953Y-113466667D01*
X148419048Y-113504762D01*
X148457144Y-113580952D01*
X148457144Y-113809524D01*
X148419048Y-113885714D01*
X148380953Y-113923810D01*
X148304763Y-113961905D01*
X148190477Y-113961905D01*
X148914287Y-113961905D02*
X148838096Y-113923810D01*
X148800001Y-113847619D01*
X148800001Y-113161905D01*
X149523811Y-113923810D02*
X149447621Y-113961905D01*
X149295240Y-113961905D01*
X149219049Y-113923810D01*
X149180954Y-113847619D01*
X149180954Y-113542857D01*
X149219049Y-113466667D01*
X149295240Y-113428571D01*
X149447621Y-113428571D01*
X149523811Y-113466667D01*
X149561906Y-113542857D01*
X149561906Y-113619048D01*
X149180954Y-113695238D01*
X149828573Y-113961905D02*
X150247620Y-113428571D01*
X149828573Y-113428571D02*
X150247620Y-113961905D01*
X151161906Y-113961905D02*
X151161906Y-113161905D01*
X151428573Y-113733333D01*
X151695240Y-113161905D01*
X151695240Y-113961905D01*
X152076192Y-113961905D02*
X152076192Y-113428571D01*
X152076192Y-113161905D02*
X152038097Y-113200000D01*
X152076192Y-113238095D01*
X152114287Y-113200000D01*
X152076192Y-113161905D01*
X152076192Y-113238095D01*
X152457144Y-113428571D02*
X152457144Y-113961905D01*
X152457144Y-113504762D02*
X152495239Y-113466667D01*
X152571430Y-113428571D01*
X152685716Y-113428571D01*
X152761906Y-113466667D01*
X152800001Y-113542857D01*
X152800001Y-113961905D01*
X153180954Y-113961905D02*
X153180954Y-113428571D01*
X153180954Y-113161905D02*
X153142859Y-113200000D01*
X153180954Y-113238095D01*
X153219049Y-113200000D01*
X153180954Y-113161905D01*
X153180954Y-113238095D01*
X153828573Y-113542857D02*
X153561906Y-113542857D01*
X153561906Y-113961905D02*
X153561906Y-113161905D01*
X153942859Y-113161905D01*
X154247620Y-113961905D02*
X154247620Y-113428571D01*
X154247620Y-113161905D02*
X154209525Y-113200000D01*
X154247620Y-113238095D01*
X154285715Y-113200000D01*
X154247620Y-113161905D01*
X154247620Y-113238095D01*
X154514286Y-113428571D02*
X154819048Y-113428571D01*
X154628572Y-113161905D02*
X154628572Y-113847619D01*
X154666667Y-113923810D01*
X154742858Y-113961905D01*
X154819048Y-113961905D01*
X155923811Y-113161905D02*
X155923811Y-113733333D01*
X155885715Y-113847619D01*
X155809525Y-113923810D01*
X155695239Y-113961905D01*
X155619049Y-113961905D01*
X156304763Y-113961905D02*
X156304763Y-113428571D01*
X156304763Y-113580952D02*
X156342858Y-113504762D01*
X156380954Y-113466667D01*
X156457144Y-113428571D01*
X156533335Y-113428571D01*
X165642857Y-113238095D02*
X165680952Y-113200000D01*
X165757143Y-113161905D01*
X165947619Y-113161905D01*
X166023809Y-113200000D01*
X166061905Y-113238095D01*
X166100000Y-113314286D01*
X166100000Y-113390476D01*
X166061905Y-113504762D01*
X165604762Y-113961905D01*
X166100000Y-113961905D01*
X166366667Y-113961905D02*
X166785714Y-113428571D01*
X166366667Y-113428571D02*
X166785714Y-113961905D01*
X167433333Y-113428571D02*
X167433333Y-113961905D01*
X167242857Y-113123810D02*
X167052381Y-113695238D01*
X167547619Y-113695238D01*
X168461905Y-113961905D02*
X168461905Y-113161905D01*
X168728572Y-113733333D01*
X168995239Y-113161905D01*
X168995239Y-113961905D01*
X169490477Y-113961905D02*
X169414286Y-113923810D01*
X169376191Y-113885714D01*
X169338096Y-113809524D01*
X169338096Y-113580952D01*
X169376191Y-113504762D01*
X169414286Y-113466667D01*
X169490477Y-113428571D01*
X169604763Y-113428571D01*
X169680953Y-113466667D01*
X169719048Y-113504762D01*
X169757144Y-113580952D01*
X169757144Y-113809524D01*
X169719048Y-113885714D01*
X169680953Y-113923810D01*
X169604763Y-113961905D01*
X169490477Y-113961905D01*
X170214287Y-113961905D02*
X170138096Y-113923810D01*
X170100001Y-113847619D01*
X170100001Y-113161905D01*
X170823811Y-113923810D02*
X170747621Y-113961905D01*
X170595240Y-113961905D01*
X170519049Y-113923810D01*
X170480954Y-113847619D01*
X170480954Y-113542857D01*
X170519049Y-113466667D01*
X170595240Y-113428571D01*
X170747621Y-113428571D01*
X170823811Y-113466667D01*
X170861906Y-113542857D01*
X170861906Y-113619048D01*
X170480954Y-113695238D01*
X171128573Y-113961905D02*
X171547620Y-113428571D01*
X171128573Y-113428571D02*
X171547620Y-113961905D01*
X172461906Y-113961905D02*
X172461906Y-113161905D01*
X172728573Y-113733333D01*
X172995240Y-113161905D01*
X172995240Y-113961905D01*
X173376192Y-113961905D02*
X173376192Y-113428571D01*
X173376192Y-113161905D02*
X173338097Y-113200000D01*
X173376192Y-113238095D01*
X173414287Y-113200000D01*
X173376192Y-113161905D01*
X173376192Y-113238095D01*
X173757144Y-113428571D02*
X173757144Y-113961905D01*
X173757144Y-113504762D02*
X173795239Y-113466667D01*
X173871430Y-113428571D01*
X173985716Y-113428571D01*
X174061906Y-113466667D01*
X174100001Y-113542857D01*
X174100001Y-113961905D01*
X174480954Y-113961905D02*
X174480954Y-113428571D01*
X174480954Y-113161905D02*
X174442859Y-113200000D01*
X174480954Y-113238095D01*
X174519049Y-113200000D01*
X174480954Y-113161905D01*
X174480954Y-113238095D01*
X175128573Y-113542857D02*
X174861906Y-113542857D01*
X174861906Y-113961905D02*
X174861906Y-113161905D01*
X175242859Y-113161905D01*
X175547620Y-113961905D02*
X175547620Y-113428571D01*
X175547620Y-113161905D02*
X175509525Y-113200000D01*
X175547620Y-113238095D01*
X175585715Y-113200000D01*
X175547620Y-113161905D01*
X175547620Y-113238095D01*
X175814286Y-113428571D02*
X176119048Y-113428571D01*
X175928572Y-113161905D02*
X175928572Y-113847619D01*
X175966667Y-113923810D01*
X176042858Y-113961905D01*
X176119048Y-113961905D01*
X177223811Y-113161905D02*
X177223811Y-113733333D01*
X177185715Y-113847619D01*
X177109525Y-113923810D01*
X176995239Y-113961905D01*
X176919049Y-113961905D01*
X177604763Y-113961905D02*
X177604763Y-113428571D01*
X177604763Y-113580952D02*
X177642858Y-113504762D01*
X177680954Y-113466667D01*
X177757144Y-113428571D01*
X177833335Y-113428571D01*
%LPC*%
D15*
X225200000Y-90200000D03*
X70000000Y-90200000D03*
X70000000Y-115300000D03*
X225200000Y-115300000D03*
D16*
X202387200Y-110985300D03*
X202387200Y-105305300D03*
X215527200Y-105305300D03*
X215527200Y-110975300D03*
D17*
X212457200Y-108985300D03*
X205457200Y-108985300D03*
X207957200Y-108985300D03*
X209957200Y-108985300D03*
X212957200Y-107485300D03*
X210957200Y-107485300D03*
X208967200Y-107485300D03*
X206957200Y-107485300D03*
X204957200Y-107485300D03*
X205457200Y-105785300D03*
X207957200Y-105785300D03*
X209957200Y-105785300D03*
X212457200Y-105785300D03*
X212957200Y-104285300D03*
X210957200Y-104285300D03*
X208957200Y-104285300D03*
X206957200Y-104285300D03*
X204957200Y-104285300D03*
D16*
X202387200Y-94792800D03*
X202387200Y-100472800D03*
X215527200Y-100472800D03*
X215527200Y-94802800D03*
D17*
X212457200Y-96792800D03*
X205457200Y-96792800D03*
X207957200Y-96792800D03*
X209957200Y-96792800D03*
X212957200Y-98292800D03*
X210957200Y-98292800D03*
X208967200Y-98292800D03*
X206957200Y-98292800D03*
X204957200Y-98292800D03*
X205457200Y-99992800D03*
X207957200Y-99992800D03*
X209957200Y-99992800D03*
X212457200Y-99992800D03*
X212957200Y-101492800D03*
X210957200Y-101492800D03*
X208957200Y-101492800D03*
X206957200Y-101492800D03*
X204957200Y-101492800D03*
D16*
X185020700Y-110976800D03*
X185020700Y-105296800D03*
X198160700Y-105296800D03*
X198160700Y-110966800D03*
D17*
X195090700Y-108976800D03*
X188090700Y-108976800D03*
X190590700Y-108976800D03*
X192590700Y-108976800D03*
X195590700Y-107476800D03*
X193590700Y-107476800D03*
X191600700Y-107476800D03*
X189590700Y-107476800D03*
X187590700Y-107476800D03*
X188090700Y-105776800D03*
X190590700Y-105776800D03*
X192590700Y-105776800D03*
X195090700Y-105776800D03*
X195590700Y-104276800D03*
X193590700Y-104276800D03*
X191590700Y-104276800D03*
X189590700Y-104276800D03*
X187590700Y-104276800D03*
D16*
X185020700Y-94737800D03*
X185020700Y-100417800D03*
X198160700Y-100417800D03*
X198160700Y-94747800D03*
D17*
X195090700Y-96737800D03*
X188090700Y-96737800D03*
X190590700Y-96737800D03*
X192590700Y-96737800D03*
X195590700Y-98237800D03*
X193590700Y-98237800D03*
X191600700Y-98237800D03*
X189590700Y-98237800D03*
X187590700Y-98237800D03*
X188090700Y-99937800D03*
X190590700Y-99937800D03*
X192590700Y-99937800D03*
X195090700Y-99937800D03*
X195590700Y-101437800D03*
X193590700Y-101437800D03*
X191590700Y-101437800D03*
X189590700Y-101437800D03*
X187590700Y-101437800D03*
D18*
X93827600Y-110286800D03*
D19*
X89627600Y-110286800D03*
X85427600Y-110286800D03*
X81227600Y-110286800D03*
X93827600Y-104786800D03*
X89627600Y-104786800D03*
X85427600Y-104786800D03*
X81227600Y-104786800D03*
D18*
X93827600Y-95250000D03*
D19*
X89627600Y-95250000D03*
X85427600Y-95250000D03*
X81227600Y-95250000D03*
X93827600Y-100750000D03*
X89627600Y-100750000D03*
X85427600Y-100750000D03*
X81227600Y-100750000D03*
D18*
X114808000Y-110286800D03*
D19*
X110608000Y-110286800D03*
X106408000Y-110286800D03*
X102208000Y-110286800D03*
X114808000Y-104786800D03*
X110608000Y-104786800D03*
X106408000Y-104786800D03*
X102208000Y-104786800D03*
D18*
X114858800Y-95250000D03*
D19*
X110658800Y-95250000D03*
X106458800Y-95250000D03*
X102258800Y-95250000D03*
X114858800Y-100750000D03*
X110658800Y-100750000D03*
X106458800Y-100750000D03*
X102258800Y-100750000D03*
D18*
X135839200Y-110286800D03*
D19*
X131639200Y-110286800D03*
X127439200Y-110286800D03*
X123239200Y-110286800D03*
X135839200Y-104786800D03*
X131639200Y-104786800D03*
X127439200Y-104786800D03*
X123239200Y-104786800D03*
D18*
X135839200Y-95250000D03*
D19*
X131639200Y-95250000D03*
X127439200Y-95250000D03*
X123239200Y-95250000D03*
X135839200Y-100750000D03*
X131639200Y-100750000D03*
X127439200Y-100750000D03*
X123239200Y-100750000D03*
D18*
X156870400Y-110286800D03*
D19*
X152670400Y-110286800D03*
X148470400Y-110286800D03*
X144270400Y-110286800D03*
X156870400Y-104786800D03*
X152670400Y-104786800D03*
X148470400Y-104786800D03*
X144270400Y-104786800D03*
D18*
X156870400Y-95250000D03*
D19*
X152670400Y-95250000D03*
X148470400Y-95250000D03*
X144270400Y-95250000D03*
X156870400Y-100750000D03*
X152670400Y-100750000D03*
X148470400Y-100750000D03*
X144270400Y-100750000D03*
D18*
X177901600Y-110286800D03*
D19*
X173701600Y-110286800D03*
X169501600Y-110286800D03*
X165301600Y-110286800D03*
X177901600Y-104786800D03*
X173701600Y-104786800D03*
X169501600Y-104786800D03*
X165301600Y-104786800D03*
D18*
X177901600Y-95250000D03*
D19*
X173701600Y-95250000D03*
X169501600Y-95250000D03*
X165301600Y-95250000D03*
X177901600Y-100750000D03*
X173701600Y-100750000D03*
X169501600Y-100750000D03*
X165301600Y-100750000D03*
M02*
