M48
;DRILL file {KiCad 4.0.4-stable} date 05/10/17 14:13:53
;FORMAT={2:4/ absolute / inch / suppress leading zeros}
FMAT,2
INCH,TZ
T1C0.013
T2C0.018
T3C0.022
T4C0.024
T5C0.028
T6C0.031
T7C0.036
T8C0.039
T9C0.060
T10C0.079
T11C0.091
T12C0.031
T13C0.035
T14C0.126
%
G90
G05
M72
T1
X38869Y-36810
X39764Y-29921
X42126Y-25591
X42520Y-25591
X45669Y-39764
X45669Y-41142
X45669Y-42126
X45923Y-40039
X46024Y-36614
X46063Y-40945
X46850Y-41732
X47342Y-39749
X48524Y-35138
X48622Y-39469
T2
X38858Y-28661
X38858Y-35827
X38858Y-42992
X39114Y-28406
X39114Y-35571
X39114Y-42736
X39370Y-28661
X39370Y-35827
X39370Y-42992
X39626Y-28406
X39626Y-35571
X39626Y-42736
X39882Y-28661
X39882Y-35827
X39882Y-42992
T3
X38780Y-28039
X38780Y-29024
X38780Y-35205
X38780Y-36189
X38780Y-42370
X38780Y-43354
X39961Y-28039
X39961Y-29024
X39961Y-35205
X39961Y-36189
X39961Y-42370
X39961Y-43354
T4
X44252Y-31693
X44252Y-32323
X45000Y-31378
X45000Y-32008
X45000Y-32638
T5
X38061Y-28417
X38061Y-35583
X38061Y-42748
X40679Y-28417
X40679Y-35583
X40679Y-42748
T6
X34055Y-23819
X34055Y-33661
X34055Y-37205
X34055Y-45079
T7
X38189Y-21850
X38976Y-21850
X39764Y-21850
X40551Y-21850
T8
X44567Y-23646
X44567Y-24646
X44567Y-25445
X44567Y-26445
T9
X24409Y-33827
X24409Y-35827
X29528Y-26661
X29528Y-28661
X29528Y-33827
X29528Y-35827
X29528Y-40992
X29528Y-42992
T10
X44646Y-30354
X44646Y-33661
T11
X36783Y-20783
X41957Y-20783
X45618Y-22445
X45618Y-27846
T12
X38268Y-28827
X38268Y-35992
X38268Y-43157
X40472Y-28827
X40472Y-35992
X40472Y-43157
T13
X47362Y-31142
X47362Y-32874
T14
X21063Y-21063
X21063Y-47835
X47835Y-21063
X47835Y-47835
T0
M30
