G04 #@! TF.FileFunction,Copper,L2,Bot,Signal*
%FSLAX46Y46*%
G04 Gerber Fmt 4.6, Leading zero omitted, Abs format (unit mm)*
G04 Created by KiCad (PCBNEW 4.0.4-stable) date 05/10/17 14:11:39*
%MOMM*%
%LPD*%
G01*
G04 APERTURE LIST*
%ADD10C,0.100000*%
%ADD11R,3.000000X3.000000*%
%ADD12C,3.000000*%
%ADD13C,0.750000*%
%ADD14C,0.850000*%
%ADD15C,1.000000*%
%ADD16C,1.500000*%
%ADD17C,2.700000*%
%ADD18C,1.600000*%
%ADD19O,1.600000X1.600000*%
%ADD20C,0.685800*%
%ADD21C,0.254000*%
%ADD22C,2.540000*%
%ADD23C,0.508000*%
%ADD24C,0.152400*%
G04 APERTURE END LIST*
D10*
D11*
X62000000Y-85920000D03*
D12*
X62000000Y-91000000D03*
D11*
X75000000Y-85920000D03*
D12*
X75000000Y-91000000D03*
D11*
X75000000Y-67720000D03*
D12*
X75000000Y-72800000D03*
D11*
X75000000Y-104120000D03*
D12*
X75000000Y-109200000D03*
D13*
X100000000Y-109200000D03*
X99350000Y-108550000D03*
X98700000Y-109200000D03*
X100650000Y-108550000D03*
X101300000Y-109200000D03*
D14*
X98500000Y-107620000D03*
X101500000Y-107620000D03*
X101500000Y-110120000D03*
X98500000Y-110120000D03*
D15*
X96675000Y-108580000D03*
X103325000Y-108580000D03*
D13*
X100000000Y-91000000D03*
X99350000Y-90350000D03*
X98700000Y-91000000D03*
X100650000Y-90350000D03*
X101300000Y-91000000D03*
D14*
X98500000Y-89420000D03*
X101500000Y-89420000D03*
X101500000Y-91920000D03*
X98500000Y-91920000D03*
D15*
X96675000Y-90380000D03*
X103325000Y-90380000D03*
D13*
X100000000Y-72800000D03*
X99350000Y-72150000D03*
X98700000Y-72800000D03*
X100650000Y-72150000D03*
X101300000Y-72800000D03*
D14*
X98500000Y-71220000D03*
X101500000Y-71220000D03*
X101500000Y-73720000D03*
X98500000Y-73720000D03*
D15*
X96675000Y-72180000D03*
X103325000Y-72180000D03*
D16*
X99000000Y-55500000D03*
X101000000Y-55500000D03*
X103000000Y-55500000D03*
X97000000Y-55500000D03*
D12*
X93430000Y-52790000D03*
X106570000Y-52790000D03*
D15*
X114300000Y-81300000D03*
X114300000Y-79700000D03*
X114300000Y-82900000D03*
X112400000Y-82100000D03*
X112400000Y-80500000D03*
D17*
X113400000Y-77100000D03*
X113400000Y-85500000D03*
D16*
X113200000Y-60060000D03*
X113200000Y-62600000D03*
X113200000Y-64630000D03*
X113200000Y-67170000D03*
D12*
X115870000Y-57010000D03*
X115870000Y-70730000D03*
D18*
X86500000Y-85500000D03*
D19*
X86500000Y-60500000D03*
D18*
X86500000Y-94500000D03*
D19*
X86500000Y-114500000D03*
D20*
X123500000Y-100250000D03*
X116644398Y-101700000D03*
X119000000Y-106000000D03*
X117000000Y-104000000D03*
X120249310Y-100961227D03*
X116000000Y-101000000D03*
X116000000Y-107000000D03*
X116000000Y-104500000D03*
X123250000Y-89250000D03*
X116900000Y-93000000D03*
X101000000Y-76000000D03*
X98726362Y-93497814D03*
X108000000Y-65000000D03*
X107000000Y-65000000D03*
D21*
X121550000Y-101700000D02*
X123000000Y-100250000D01*
X123000000Y-100250000D02*
X123500000Y-100250000D01*
X116644398Y-101700000D02*
X121550000Y-101700000D01*
D22*
X86500000Y-101500000D02*
X86500000Y-94500000D01*
X78800000Y-109200000D02*
X86500000Y-101500000D01*
X75000000Y-109200000D02*
X78800000Y-109200000D01*
X86500000Y-84300000D02*
X75000000Y-72800000D01*
X86500000Y-85500000D02*
X86500000Y-84300000D01*
X75000000Y-91000000D02*
X82999364Y-91000000D01*
X82999364Y-91000000D02*
X86500000Y-87499364D01*
X86500000Y-87499364D02*
X86500000Y-85500000D01*
X75000000Y-91000000D02*
X83000000Y-91000000D01*
X83000000Y-91000000D02*
X86500000Y-94500000D01*
X62000000Y-91000000D02*
X75000000Y-91000000D01*
D21*
X101500000Y-71220000D02*
X101500000Y-72600000D01*
X101500000Y-72600000D02*
X101300000Y-72800000D01*
X101300000Y-72800000D02*
X101300000Y-73520000D01*
X101300000Y-73520000D02*
X101500000Y-73720000D01*
X101500000Y-89420000D02*
X101500000Y-90800000D01*
X101500000Y-90800000D02*
X101300000Y-91000000D01*
X101500000Y-91920000D02*
X101500000Y-91200000D01*
X101500000Y-91200000D02*
X101300000Y-91000000D01*
X101300000Y-109200000D02*
X101500000Y-109000000D01*
X101500000Y-109000000D02*
X101500000Y-107620000D01*
X101300000Y-109200000D02*
X101300000Y-109920000D01*
X101300000Y-109920000D02*
X101500000Y-110120000D01*
D23*
X119000000Y-106000000D02*
X117000000Y-104000000D01*
D21*
X119906411Y-100618328D02*
X120249310Y-100961227D01*
X119690621Y-100402538D02*
X119906411Y-100618328D01*
X116597462Y-100402538D02*
X119690621Y-100402538D01*
X116000000Y-101000000D02*
X116597462Y-100402538D01*
X116000000Y-104500000D02*
X116000000Y-107000000D01*
X116900000Y-91600000D02*
X119250000Y-89250000D01*
X119250000Y-89250000D02*
X123250000Y-89250000D01*
X116900000Y-93000000D02*
X116900000Y-91600000D01*
D24*
X99350000Y-72150000D02*
X99350000Y-74350000D01*
X99350000Y-74350000D02*
X101000000Y-76000000D01*
X100000000Y-91000000D02*
X100000000Y-92224176D01*
X100000000Y-92224176D02*
X98726362Y-93497814D01*
D21*
X98728548Y-93500000D02*
X98726362Y-93497814D01*
X113200000Y-64630000D02*
X112489607Y-63919607D01*
X112489607Y-63919607D02*
X109080393Y-63919607D01*
X109080393Y-63919607D02*
X108000000Y-65000000D01*
X113200000Y-62600000D02*
X112457187Y-63342813D01*
X112457187Y-63342813D02*
X108657187Y-63342813D01*
X108657187Y-63342813D02*
X107000000Y-65000000D01*
G36*
X92255418Y-50957261D02*
X92095635Y-51276030D01*
X93430000Y-52610395D01*
X94764365Y-51276030D01*
X94604582Y-50957261D01*
X93973819Y-50710000D01*
X105992359Y-50710000D01*
X105395418Y-50957261D01*
X105235635Y-51276030D01*
X106570000Y-52610395D01*
X107904365Y-51276030D01*
X107744582Y-50957261D01*
X107113819Y-50710000D01*
X124290000Y-50710000D01*
X124290000Y-99657212D01*
X124054659Y-99421460D01*
X123695370Y-99272270D01*
X123306337Y-99271931D01*
X122946788Y-99420493D01*
X122849093Y-99518017D01*
X122708395Y-99546004D01*
X122609377Y-99612166D01*
X122461185Y-99711184D01*
X121234370Y-100938000D01*
X121227230Y-100938000D01*
X121227379Y-100767564D01*
X121078817Y-100408015D01*
X120803969Y-100132687D01*
X120444680Y-99983497D01*
X120349127Y-99983414D01*
X120229436Y-99863723D01*
X120218370Y-99856329D01*
X119982226Y-99698542D01*
X119690621Y-99640538D01*
X116597462Y-99640538D01*
X116305857Y-99698542D01*
X116069713Y-99856329D01*
X116058647Y-99863723D01*
X115900357Y-100022013D01*
X115806337Y-100021931D01*
X115446788Y-100170493D01*
X115171460Y-100445341D01*
X115022270Y-100804630D01*
X115021931Y-101193663D01*
X115170493Y-101553212D01*
X115445341Y-101828540D01*
X115679616Y-101925819D01*
X115814891Y-102253212D01*
X116089739Y-102528540D01*
X116449028Y-102677730D01*
X116838061Y-102678069D01*
X117197610Y-102529507D01*
X117265235Y-102462000D01*
X121550000Y-102462000D01*
X121841605Y-102403996D01*
X122088815Y-102238815D01*
X123159969Y-101167662D01*
X123304630Y-101227730D01*
X123693663Y-101228069D01*
X124053212Y-101079507D01*
X124290000Y-100843132D01*
X124290000Y-124290000D01*
X90127000Y-124290000D01*
X90127000Y-121942619D01*
X119264613Y-121942619D01*
X119604155Y-122764372D01*
X120232321Y-123393636D01*
X121053481Y-123734611D01*
X121942619Y-123735387D01*
X122764372Y-123395845D01*
X123393636Y-122767679D01*
X123734611Y-121946519D01*
X123735387Y-121057381D01*
X123395845Y-120235628D01*
X122767679Y-119606364D01*
X121946519Y-119265389D01*
X121057381Y-119264613D01*
X120235628Y-119604155D01*
X119606364Y-120232321D01*
X119265389Y-121053481D01*
X119264613Y-121942619D01*
X90127000Y-121942619D01*
X90127000Y-110855553D01*
X97944052Y-110855553D01*
X97971887Y-111062950D01*
X98372939Y-111193272D01*
X98793334Y-111160199D01*
X99028113Y-111062950D01*
X99055948Y-110855553D01*
X100944052Y-110855553D01*
X100971887Y-111062950D01*
X101372939Y-111193272D01*
X101793334Y-111160199D01*
X102028113Y-111062950D01*
X102055948Y-110855553D01*
X101500000Y-110299605D01*
X100944052Y-110855553D01*
X99055948Y-110855553D01*
X98500000Y-110299605D01*
X97944052Y-110855553D01*
X90127000Y-110855553D01*
X90127000Y-108434972D01*
X95526888Y-108434972D01*
X95558783Y-108885375D01*
X95669783Y-109153352D01*
X95884896Y-109190499D01*
X96495395Y-108580000D01*
X95884896Y-107969501D01*
X95669783Y-108006648D01*
X95526888Y-108434972D01*
X90127000Y-108434972D01*
X90127000Y-107789896D01*
X96064501Y-107789896D01*
X96675000Y-108400395D01*
X96689143Y-108386253D01*
X96868748Y-108565858D01*
X96854605Y-108580000D01*
X96868748Y-108594143D01*
X96795714Y-108667176D01*
X96614485Y-108742058D01*
X96323081Y-109032954D01*
X96267289Y-109167316D01*
X96064501Y-109370104D01*
X96101648Y-109585217D01*
X96165012Y-109606356D01*
X96164821Y-109824971D01*
X96322058Y-110205515D01*
X96612954Y-110496919D01*
X96993223Y-110654820D01*
X97404971Y-110655179D01*
X97537325Y-110600492D01*
X97557050Y-110648113D01*
X97764447Y-110675948D01*
X98309099Y-110131296D01*
X98498217Y-110209824D01*
X98769666Y-110210061D01*
X99235553Y-110675948D01*
X99442950Y-110648113D01*
X99573272Y-110247061D01*
X99562647Y-110112007D01*
X99798217Y-110209824D01*
X100200020Y-110210175D01*
X100436143Y-110112611D01*
X100459801Y-110413334D01*
X100557050Y-110648113D01*
X100764447Y-110675948D01*
X101220025Y-110220370D01*
X101585301Y-110189477D01*
X101701112Y-110141507D01*
X102235553Y-110675948D01*
X102442950Y-110648113D01*
X102458895Y-110599043D01*
X102593223Y-110654820D01*
X103004971Y-110655179D01*
X103385515Y-110497942D01*
X103676919Y-110207046D01*
X103834820Y-109826777D01*
X103835008Y-109611455D01*
X103898352Y-109585217D01*
X103935499Y-109370104D01*
X103732908Y-109167513D01*
X103677942Y-109034485D01*
X103387046Y-108743081D01*
X103204314Y-108667204D01*
X103131253Y-108594143D01*
X103145395Y-108580000D01*
X103504605Y-108580000D01*
X104115104Y-109190499D01*
X104330217Y-109153352D01*
X104473112Y-108725028D01*
X104441217Y-108274625D01*
X104330217Y-108006648D01*
X104115104Y-107969501D01*
X103504605Y-108580000D01*
X103145395Y-108580000D01*
X103131253Y-108565858D01*
X103310858Y-108386253D01*
X103325000Y-108400395D01*
X103935499Y-107789896D01*
X103898352Y-107574783D01*
X103470028Y-107431888D01*
X103019625Y-107463783D01*
X102751648Y-107574783D01*
X102714501Y-107789893D01*
X102598274Y-107673666D01*
X102569743Y-107702197D01*
X102540199Y-107326666D01*
X102442950Y-107091887D01*
X102235553Y-107064052D01*
X101679605Y-107620000D01*
X101693748Y-107634143D01*
X101514143Y-107813748D01*
X101500000Y-107799605D01*
X101485858Y-107813748D01*
X101306253Y-107634143D01*
X101320395Y-107620000D01*
X100764447Y-107064052D01*
X100557050Y-107091887D01*
X100426728Y-107492939D01*
X100431032Y-107547654D01*
X100078628Y-107693264D01*
X100000112Y-107771644D01*
X99922866Y-107694263D01*
X99557172Y-107542414D01*
X99540199Y-107326666D01*
X99442950Y-107091887D01*
X99235553Y-107064052D01*
X98679605Y-107620000D01*
X98693748Y-107634143D01*
X98514143Y-107813748D01*
X98500000Y-107799605D01*
X98485858Y-107813748D01*
X98306253Y-107634143D01*
X98320395Y-107620000D01*
X97764447Y-107064052D01*
X97557050Y-107091887D01*
X97426728Y-107492939D01*
X97444295Y-107716235D01*
X97401726Y-107673666D01*
X97285499Y-107789893D01*
X97248352Y-107574783D01*
X96820028Y-107431888D01*
X96369625Y-107463783D01*
X96101648Y-107574783D01*
X96064501Y-107789896D01*
X90127000Y-107789896D01*
X90127000Y-106884447D01*
X97944052Y-106884447D01*
X98500000Y-107440395D01*
X99055948Y-106884447D01*
X100944052Y-106884447D01*
X101500000Y-107440395D01*
X102055948Y-106884447D01*
X102028113Y-106677050D01*
X101627061Y-106546728D01*
X101206666Y-106579801D01*
X100971887Y-106677050D01*
X100944052Y-106884447D01*
X99055948Y-106884447D01*
X99028113Y-106677050D01*
X98627061Y-106546728D01*
X98206666Y-106579801D01*
X97971887Y-106677050D01*
X97944052Y-106884447D01*
X90127000Y-106884447D01*
X90127000Y-104693663D01*
X115021931Y-104693663D01*
X115170493Y-105053212D01*
X115238000Y-105120837D01*
X115238000Y-106378917D01*
X115171460Y-106445341D01*
X115022270Y-106804630D01*
X115021931Y-107193663D01*
X115170493Y-107553212D01*
X115445341Y-107828540D01*
X115804630Y-107977730D01*
X116193663Y-107978069D01*
X116553212Y-107829507D01*
X116828540Y-107554659D01*
X116977730Y-107195370D01*
X116978069Y-106806337D01*
X116829507Y-106446788D01*
X116762000Y-106379163D01*
X116762000Y-105121083D01*
X116812968Y-105070204D01*
X118082137Y-106339373D01*
X118170493Y-106553212D01*
X118445341Y-106828540D01*
X118804630Y-106977730D01*
X119193663Y-106978069D01*
X119553212Y-106829507D01*
X119828540Y-106554659D01*
X119977730Y-106195370D01*
X119978069Y-105806337D01*
X119829507Y-105446788D01*
X119554659Y-105171460D01*
X119339250Y-105082014D01*
X117917863Y-103660627D01*
X117829507Y-103446788D01*
X117554659Y-103171460D01*
X117195370Y-103022270D01*
X116806337Y-103021931D01*
X116446788Y-103170493D01*
X116171460Y-103445341D01*
X116139536Y-103522221D01*
X115806337Y-103521931D01*
X115446788Y-103670493D01*
X115171460Y-103945341D01*
X115022270Y-104304630D01*
X115021931Y-104693663D01*
X90127000Y-104693663D01*
X90127000Y-90234972D01*
X95526888Y-90234972D01*
X95558783Y-90685375D01*
X95669783Y-90953352D01*
X95884896Y-90990499D01*
X96495395Y-90380000D01*
X95884896Y-89769501D01*
X95669783Y-89806648D01*
X95526888Y-90234972D01*
X90127000Y-90234972D01*
X90127000Y-89589896D01*
X96064501Y-89589896D01*
X96675000Y-90200395D01*
X96689143Y-90186253D01*
X96868748Y-90365858D01*
X96854605Y-90380000D01*
X96868748Y-90394143D01*
X96795714Y-90467176D01*
X96614485Y-90542058D01*
X96323081Y-90832954D01*
X96267289Y-90967316D01*
X96064501Y-91170104D01*
X96101648Y-91385217D01*
X96165012Y-91406356D01*
X96164821Y-91624971D01*
X96322058Y-92005515D01*
X96612954Y-92296919D01*
X96993223Y-92454820D01*
X97404971Y-92455179D01*
X97537325Y-92400492D01*
X97557050Y-92448113D01*
X97764447Y-92475948D01*
X98309099Y-91931296D01*
X98498217Y-92009824D01*
X98617961Y-92009929D01*
X98514143Y-92113748D01*
X98500000Y-92099605D01*
X97944052Y-92655553D01*
X97971887Y-92862950D01*
X97976625Y-92864490D01*
X97897822Y-92943155D01*
X97748632Y-93302444D01*
X97748293Y-93691477D01*
X97896855Y-94051026D01*
X98171703Y-94326354D01*
X98530992Y-94475544D01*
X98920025Y-94475883D01*
X99279574Y-94327321D01*
X99554902Y-94052473D01*
X99704092Y-93693184D01*
X99704238Y-93525726D01*
X100036301Y-93193663D01*
X115921931Y-93193663D01*
X116070493Y-93553212D01*
X116345341Y-93828540D01*
X116704630Y-93977730D01*
X117093663Y-93978069D01*
X117453212Y-93829507D01*
X117728540Y-93554659D01*
X117877730Y-93195370D01*
X117878069Y-92806337D01*
X117729507Y-92446788D01*
X117662000Y-92379163D01*
X117662000Y-91915630D01*
X119565630Y-90012000D01*
X122628917Y-90012000D01*
X122695341Y-90078540D01*
X123054630Y-90227730D01*
X123443663Y-90228069D01*
X123803212Y-90079507D01*
X124078540Y-89804659D01*
X124227730Y-89445370D01*
X124228069Y-89056337D01*
X124079507Y-88696788D01*
X123804659Y-88421460D01*
X123445370Y-88272270D01*
X123056337Y-88271931D01*
X122696788Y-88420493D01*
X122629163Y-88488000D01*
X119250000Y-88488000D01*
X118958395Y-88546004D01*
X118751201Y-88684447D01*
X118711185Y-88711185D01*
X116361185Y-91061185D01*
X116196004Y-91308395D01*
X116138000Y-91600000D01*
X116138000Y-92378917D01*
X116071460Y-92445341D01*
X115922270Y-92804630D01*
X115921931Y-93193663D01*
X100036301Y-93193663D01*
X100502894Y-92727070D01*
X100550680Y-92655553D01*
X100944052Y-92655553D01*
X100971887Y-92862950D01*
X101372939Y-92993272D01*
X101793334Y-92960199D01*
X102028113Y-92862950D01*
X102055948Y-92655553D01*
X101500000Y-92099605D01*
X100944052Y-92655553D01*
X100550680Y-92655553D01*
X100657063Y-92496341D01*
X100663806Y-92462441D01*
X100764447Y-92475948D01*
X101220025Y-92020370D01*
X101585301Y-91989477D01*
X101701112Y-91941507D01*
X102235553Y-92475948D01*
X102442950Y-92448113D01*
X102458895Y-92399043D01*
X102593223Y-92454820D01*
X103004971Y-92455179D01*
X103385515Y-92297942D01*
X103676919Y-92007046D01*
X103834820Y-91626777D01*
X103835008Y-91411455D01*
X103898352Y-91385217D01*
X103935499Y-91170104D01*
X103732908Y-90967513D01*
X103677942Y-90834485D01*
X103387046Y-90543081D01*
X103204314Y-90467204D01*
X103131253Y-90394143D01*
X103145395Y-90380000D01*
X103504605Y-90380000D01*
X104115104Y-90990499D01*
X104330217Y-90953352D01*
X104473112Y-90525028D01*
X104441217Y-90074625D01*
X104330217Y-89806648D01*
X104115104Y-89769501D01*
X103504605Y-90380000D01*
X103145395Y-90380000D01*
X103131253Y-90365858D01*
X103310858Y-90186253D01*
X103325000Y-90200395D01*
X103935499Y-89589896D01*
X103898352Y-89374783D01*
X103470028Y-89231888D01*
X103019625Y-89263783D01*
X102751648Y-89374783D01*
X102714501Y-89589893D01*
X102598274Y-89473666D01*
X102569743Y-89502197D01*
X102540199Y-89126666D01*
X102442950Y-88891887D01*
X102235553Y-88864052D01*
X101679605Y-89420000D01*
X101693748Y-89434143D01*
X101514143Y-89613748D01*
X101500000Y-89599605D01*
X101485858Y-89613748D01*
X101306253Y-89434143D01*
X101320395Y-89420000D01*
X100764447Y-88864052D01*
X100557050Y-88891887D01*
X100426728Y-89292939D01*
X100431032Y-89347654D01*
X100078628Y-89493264D01*
X100000112Y-89571644D01*
X99922866Y-89494263D01*
X99557172Y-89342414D01*
X99540199Y-89126666D01*
X99442950Y-88891887D01*
X99235553Y-88864052D01*
X98679605Y-89420000D01*
X98693748Y-89434143D01*
X98514143Y-89613748D01*
X98500000Y-89599605D01*
X98485858Y-89613748D01*
X98306253Y-89434143D01*
X98320395Y-89420000D01*
X97764447Y-88864052D01*
X97557050Y-88891887D01*
X97426728Y-89292939D01*
X97444295Y-89516235D01*
X97401726Y-89473666D01*
X97285499Y-89589893D01*
X97248352Y-89374783D01*
X96820028Y-89231888D01*
X96369625Y-89263783D01*
X96101648Y-89374783D01*
X96064501Y-89589896D01*
X90127000Y-89589896D01*
X90127000Y-88684447D01*
X97944052Y-88684447D01*
X98500000Y-89240395D01*
X99055948Y-88684447D01*
X100944052Y-88684447D01*
X101500000Y-89240395D01*
X102055948Y-88684447D01*
X102028113Y-88477050D01*
X101627061Y-88346728D01*
X101206666Y-88379801D01*
X100971887Y-88477050D01*
X100944052Y-88684447D01*
X99055948Y-88684447D01*
X99028113Y-88477050D01*
X98627061Y-88346728D01*
X98206666Y-88379801D01*
X97971887Y-88477050D01*
X97944052Y-88684447D01*
X90127000Y-88684447D01*
X90127000Y-86905593D01*
X112174012Y-86905593D01*
X112315478Y-87208782D01*
X113051955Y-87493737D01*
X113841418Y-87475164D01*
X114484522Y-87208782D01*
X114625988Y-86905593D01*
X113400000Y-85679605D01*
X112174012Y-86905593D01*
X90127000Y-86905593D01*
X90127000Y-85151955D01*
X111406263Y-85151955D01*
X111424836Y-85941418D01*
X111691218Y-86584522D01*
X111994407Y-86725988D01*
X113220395Y-85500000D01*
X113579605Y-85500000D01*
X114805593Y-86725988D01*
X115108782Y-86584522D01*
X115393737Y-85848045D01*
X115375164Y-85058582D01*
X115108782Y-84415478D01*
X114805593Y-84274012D01*
X113579605Y-85500000D01*
X113220395Y-85500000D01*
X111994407Y-84274012D01*
X111691218Y-84415478D01*
X111406263Y-85151955D01*
X90127000Y-85151955D01*
X90127000Y-80724775D01*
X111264803Y-80724775D01*
X111437233Y-81142086D01*
X111594867Y-81299996D01*
X111438355Y-81456235D01*
X111265197Y-81873244D01*
X111264803Y-82324775D01*
X111437233Y-82742086D01*
X111756235Y-83061645D01*
X112173244Y-83234803D01*
X112624775Y-83235197D01*
X113042086Y-83062767D01*
X113164964Y-82940103D01*
X113164803Y-83124775D01*
X113326529Y-83516180D01*
X112958582Y-83524836D01*
X112315478Y-83791218D01*
X112174012Y-84094407D01*
X113400000Y-85320395D01*
X114625988Y-84094407D01*
X114586467Y-84009706D01*
X114942086Y-83862767D01*
X115090238Y-83714873D01*
X119214812Y-83714873D01*
X119379646Y-84113800D01*
X119684595Y-84419282D01*
X120083233Y-84584811D01*
X120514873Y-84585188D01*
X120913800Y-84420354D01*
X121219282Y-84115405D01*
X121384811Y-83716767D01*
X121385188Y-83285127D01*
X121220354Y-82886200D01*
X120915405Y-82580718D01*
X120516767Y-82415189D01*
X120085127Y-82414812D01*
X119686200Y-82579646D01*
X119380718Y-82884595D01*
X119215189Y-83283233D01*
X119214812Y-83714873D01*
X115090238Y-83714873D01*
X115261645Y-83543765D01*
X115434803Y-83126756D01*
X115435197Y-82675225D01*
X115262767Y-82257914D01*
X115105133Y-82100004D01*
X115261645Y-81943765D01*
X115434803Y-81526756D01*
X115435197Y-81075225D01*
X115262767Y-80657914D01*
X115119082Y-80513978D01*
X115206334Y-80426726D01*
X115090107Y-80310499D01*
X115305217Y-80273352D01*
X115448112Y-79845028D01*
X115416217Y-79394625D01*
X115383183Y-79314873D01*
X119214812Y-79314873D01*
X119379646Y-79713800D01*
X119684595Y-80019282D01*
X120083233Y-80184811D01*
X120514873Y-80185188D01*
X120913800Y-80020354D01*
X121219282Y-79715405D01*
X121384811Y-79316767D01*
X121385188Y-78885127D01*
X121220354Y-78486200D01*
X120915405Y-78180718D01*
X120516767Y-78015189D01*
X120085127Y-78014812D01*
X119686200Y-78179646D01*
X119380718Y-78484595D01*
X119215189Y-78883233D01*
X119214812Y-79314873D01*
X115383183Y-79314873D01*
X115305217Y-79126648D01*
X115090104Y-79089501D01*
X114479605Y-79700000D01*
X114493748Y-79714143D01*
X114314143Y-79893748D01*
X114300000Y-79879605D01*
X114285858Y-79893748D01*
X114106253Y-79714143D01*
X114120395Y-79700000D01*
X114106253Y-79685858D01*
X114285858Y-79506253D01*
X114300000Y-79520395D01*
X114910499Y-78909896D01*
X114873352Y-78694783D01*
X114582922Y-78597891D01*
X114625988Y-78505593D01*
X113400000Y-77279605D01*
X112174012Y-78505593D01*
X112315478Y-78808782D01*
X113051955Y-79093737D01*
X113503506Y-79083114D01*
X113509893Y-79089501D01*
X113294783Y-79126648D01*
X113151888Y-79554972D01*
X113158877Y-79653668D01*
X113043765Y-79538355D01*
X112626756Y-79365197D01*
X112175225Y-79364803D01*
X111757914Y-79537233D01*
X111438355Y-79856235D01*
X111265197Y-80273244D01*
X111264803Y-80724775D01*
X90127000Y-80724775D01*
X90127000Y-72034972D01*
X95526888Y-72034972D01*
X95558783Y-72485375D01*
X95669783Y-72753352D01*
X95884896Y-72790499D01*
X96495395Y-72180000D01*
X95884896Y-71569501D01*
X95669783Y-71606648D01*
X95526888Y-72034972D01*
X90127000Y-72034972D01*
X90127000Y-71389896D01*
X96064501Y-71389896D01*
X96675000Y-72000395D01*
X96689143Y-71986253D01*
X96868748Y-72165858D01*
X96854605Y-72180000D01*
X96868748Y-72194143D01*
X96795714Y-72267176D01*
X96614485Y-72342058D01*
X96323081Y-72632954D01*
X96267289Y-72767316D01*
X96064501Y-72970104D01*
X96101648Y-73185217D01*
X96165012Y-73206356D01*
X96164821Y-73424971D01*
X96322058Y-73805515D01*
X96612954Y-74096919D01*
X96993223Y-74254820D01*
X97404971Y-74255179D01*
X97537325Y-74200492D01*
X97557050Y-74248113D01*
X97764447Y-74275948D01*
X98309099Y-73731296D01*
X98498217Y-73809824D01*
X98617961Y-73809929D01*
X98514143Y-73913748D01*
X98500000Y-73899605D01*
X97944052Y-74455553D01*
X97971887Y-74662950D01*
X98372939Y-74793272D01*
X98785577Y-74760809D01*
X98847106Y-74852894D01*
X100022075Y-76027864D01*
X100021931Y-76193663D01*
X100170493Y-76553212D01*
X100445341Y-76828540D01*
X100804630Y-76977730D01*
X101193663Y-76978069D01*
X101553212Y-76829507D01*
X101630899Y-76751955D01*
X111406263Y-76751955D01*
X111424836Y-77541418D01*
X111691218Y-78184522D01*
X111994407Y-78325988D01*
X113220395Y-77100000D01*
X113579605Y-77100000D01*
X114805593Y-78325988D01*
X115108782Y-78184522D01*
X115393737Y-77448045D01*
X115375164Y-76658582D01*
X115108782Y-76015478D01*
X114805593Y-75874012D01*
X113579605Y-77100000D01*
X113220395Y-77100000D01*
X111994407Y-75874012D01*
X111691218Y-76015478D01*
X111406263Y-76751955D01*
X101630899Y-76751955D01*
X101828540Y-76554659D01*
X101977730Y-76195370D01*
X101978069Y-75806337D01*
X101931821Y-75694407D01*
X112174012Y-75694407D01*
X113400000Y-76920395D01*
X114625988Y-75694407D01*
X114484522Y-75391218D01*
X113748045Y-75106263D01*
X112958582Y-75124836D01*
X112315478Y-75391218D01*
X112174012Y-75694407D01*
X101931821Y-75694407D01*
X101829507Y-75446788D01*
X101554659Y-75171460D01*
X101195370Y-75022270D01*
X101027913Y-75022124D01*
X100461342Y-74455553D01*
X100944052Y-74455553D01*
X100971887Y-74662950D01*
X101372939Y-74793272D01*
X101793334Y-74760199D01*
X102028113Y-74662950D01*
X102055948Y-74455553D01*
X101500000Y-73899605D01*
X100944052Y-74455553D01*
X100461342Y-74455553D01*
X100061200Y-74055412D01*
X100061200Y-73810054D01*
X100200020Y-73810175D01*
X100436143Y-73712611D01*
X100459801Y-74013334D01*
X100557050Y-74248113D01*
X100764447Y-74275948D01*
X101220025Y-73820370D01*
X101585301Y-73789477D01*
X101701112Y-73741507D01*
X102235553Y-74275948D01*
X102442950Y-74248113D01*
X102458895Y-74199043D01*
X102593223Y-74254820D01*
X103004971Y-74255179D01*
X103385515Y-74097942D01*
X103676919Y-73807046D01*
X103834820Y-73426777D01*
X103835008Y-73211455D01*
X103898352Y-73185217D01*
X103935499Y-72970104D01*
X103732908Y-72767513D01*
X103677942Y-72634485D01*
X103387046Y-72343081D01*
X103204314Y-72267204D01*
X103131253Y-72194143D01*
X103145395Y-72180000D01*
X103504605Y-72180000D01*
X104115104Y-72790499D01*
X104330217Y-72753352D01*
X104473112Y-72325028D01*
X104467372Y-72243970D01*
X114535635Y-72243970D01*
X114695418Y-72562739D01*
X115486187Y-72872723D01*
X116335387Y-72856497D01*
X117044582Y-72562739D01*
X117204365Y-72243970D01*
X115870000Y-70909605D01*
X114535635Y-72243970D01*
X104467372Y-72243970D01*
X104441217Y-71874625D01*
X104330217Y-71606648D01*
X104115104Y-71569501D01*
X103504605Y-72180000D01*
X103145395Y-72180000D01*
X103131253Y-72165858D01*
X103310858Y-71986253D01*
X103325000Y-72000395D01*
X103935499Y-71389896D01*
X103898352Y-71174783D01*
X103470028Y-71031888D01*
X103019625Y-71063783D01*
X102751648Y-71174783D01*
X102714501Y-71389893D01*
X102598274Y-71273666D01*
X102569743Y-71302197D01*
X102540199Y-70926666D01*
X102442950Y-70691887D01*
X102235553Y-70664052D01*
X101679605Y-71220000D01*
X101693748Y-71234143D01*
X101514143Y-71413748D01*
X101500000Y-71399605D01*
X101485858Y-71413748D01*
X101306253Y-71234143D01*
X101320395Y-71220000D01*
X100764447Y-70664052D01*
X100557050Y-70691887D01*
X100426728Y-71092939D01*
X100431032Y-71147654D01*
X100078628Y-71293264D01*
X100000112Y-71371644D01*
X99922866Y-71294263D01*
X99557172Y-71142414D01*
X99540199Y-70926666D01*
X99442950Y-70691887D01*
X99235553Y-70664052D01*
X98679605Y-71220000D01*
X98693748Y-71234143D01*
X98514143Y-71413748D01*
X98500000Y-71399605D01*
X98485858Y-71413748D01*
X98306253Y-71234143D01*
X98320395Y-71220000D01*
X97764447Y-70664052D01*
X97557050Y-70691887D01*
X97426728Y-71092939D01*
X97444295Y-71316235D01*
X97401726Y-71273666D01*
X97285499Y-71389893D01*
X97248352Y-71174783D01*
X96820028Y-71031888D01*
X96369625Y-71063783D01*
X96101648Y-71174783D01*
X96064501Y-71389896D01*
X90127000Y-71389896D01*
X90127000Y-70484447D01*
X97944052Y-70484447D01*
X98500000Y-71040395D01*
X99055948Y-70484447D01*
X100944052Y-70484447D01*
X101500000Y-71040395D01*
X102055948Y-70484447D01*
X102037392Y-70346187D01*
X113727277Y-70346187D01*
X113743503Y-71195387D01*
X114037261Y-71904582D01*
X114356030Y-72064365D01*
X115690395Y-70730000D01*
X116049605Y-70730000D01*
X117383970Y-72064365D01*
X117702739Y-71904582D01*
X118012723Y-71113813D01*
X117996497Y-70264613D01*
X117702739Y-69555418D01*
X117383970Y-69395635D01*
X116049605Y-70730000D01*
X115690395Y-70730000D01*
X114356030Y-69395635D01*
X114037261Y-69555418D01*
X113727277Y-70346187D01*
X102037392Y-70346187D01*
X102028113Y-70277050D01*
X101627061Y-70146728D01*
X101206666Y-70179801D01*
X100971887Y-70277050D01*
X100944052Y-70484447D01*
X99055948Y-70484447D01*
X99028113Y-70277050D01*
X98627061Y-70146728D01*
X98206666Y-70179801D01*
X97971887Y-70277050D01*
X97944052Y-70484447D01*
X90127000Y-70484447D01*
X90127000Y-69216030D01*
X114535635Y-69216030D01*
X115870000Y-70550395D01*
X117204365Y-69216030D01*
X117044582Y-68897261D01*
X116253813Y-68587277D01*
X115404613Y-68603503D01*
X114695418Y-68897261D01*
X114535635Y-69216030D01*
X90127000Y-69216030D01*
X90127000Y-65193663D01*
X106021931Y-65193663D01*
X106170493Y-65553212D01*
X106445341Y-65828540D01*
X106804630Y-65977730D01*
X107193663Y-65978069D01*
X107500311Y-65851365D01*
X107804630Y-65977730D01*
X108193663Y-65978069D01*
X108553212Y-65829507D01*
X108828540Y-65554659D01*
X108977730Y-65195370D01*
X108977813Y-65099817D01*
X109396024Y-64681607D01*
X111814954Y-64681607D01*
X111814760Y-64904285D01*
X112025169Y-65413515D01*
X112414436Y-65803461D01*
X112646870Y-65899976D01*
X112416485Y-65995169D01*
X112026539Y-66384436D01*
X111815241Y-66893298D01*
X111814760Y-67444285D01*
X112025169Y-67953515D01*
X112414436Y-68343461D01*
X112923298Y-68554759D01*
X113474285Y-68555240D01*
X113983515Y-68344831D01*
X114373461Y-67955564D01*
X114584759Y-67446702D01*
X114585240Y-66895715D01*
X114374831Y-66386485D01*
X113985564Y-65996539D01*
X113753130Y-65900024D01*
X113983515Y-65804831D01*
X114373461Y-65415564D01*
X114584759Y-64906702D01*
X114585240Y-64355715D01*
X114374831Y-63846485D01*
X114143687Y-63614938D01*
X114373461Y-63385564D01*
X114584759Y-62876702D01*
X114585240Y-62325715D01*
X114374831Y-61816485D01*
X113985564Y-61426539D01*
X113769021Y-61336623D01*
X113923923Y-61272460D01*
X113991912Y-61031517D01*
X113200000Y-60239605D01*
X112408088Y-61031517D01*
X112476077Y-61272460D01*
X112642621Y-61331732D01*
X112416485Y-61425169D01*
X112026539Y-61814436D01*
X111815241Y-62323298D01*
X111815016Y-62580813D01*
X108657187Y-62580813D01*
X108365582Y-62638817D01*
X108118371Y-62803998D01*
X106900357Y-64022013D01*
X106806337Y-64021931D01*
X106446788Y-64170493D01*
X106171460Y-64445341D01*
X106022270Y-64804630D01*
X106021931Y-65193663D01*
X90127000Y-65193663D01*
X90127000Y-59855171D01*
X111802799Y-59855171D01*
X111830770Y-60405448D01*
X111987540Y-60783923D01*
X112228483Y-60851912D01*
X113020395Y-60060000D01*
X113379605Y-60060000D01*
X114171517Y-60851912D01*
X114412460Y-60783923D01*
X114597201Y-60264829D01*
X114569230Y-59714552D01*
X114412460Y-59336077D01*
X114171517Y-59268088D01*
X113379605Y-60060000D01*
X113020395Y-60060000D01*
X112228483Y-59268088D01*
X111987540Y-59336077D01*
X111802799Y-59855171D01*
X90127000Y-59855171D01*
X90127000Y-59088483D01*
X112408088Y-59088483D01*
X113200000Y-59880395D01*
X113991912Y-59088483D01*
X113923923Y-58847540D01*
X113404829Y-58662799D01*
X112854552Y-58690770D01*
X112476077Y-58847540D01*
X112408088Y-59088483D01*
X90127000Y-59088483D01*
X90127000Y-58523970D01*
X114535635Y-58523970D01*
X114695418Y-58842739D01*
X115486187Y-59152723D01*
X116335387Y-59136497D01*
X117044582Y-58842739D01*
X117204365Y-58523970D01*
X115870000Y-57189605D01*
X114535635Y-58523970D01*
X90127000Y-58523970D01*
X90127000Y-55774285D01*
X95614760Y-55774285D01*
X95825169Y-56283515D01*
X96214436Y-56673461D01*
X96723298Y-56884759D01*
X97274285Y-56885240D01*
X97783515Y-56674831D01*
X98000036Y-56458687D01*
X98214436Y-56673461D01*
X98723298Y-56884759D01*
X99274285Y-56885240D01*
X99783515Y-56674831D01*
X100000036Y-56458687D01*
X100214436Y-56673461D01*
X100723298Y-56884759D01*
X101274285Y-56885240D01*
X101783515Y-56674831D01*
X101987183Y-56471517D01*
X102208088Y-56471517D01*
X102276077Y-56712460D01*
X102795171Y-56897201D01*
X103345448Y-56869230D01*
X103723923Y-56712460D01*
X103748267Y-56626187D01*
X113727277Y-56626187D01*
X113743503Y-57475387D01*
X114037261Y-58184582D01*
X114356030Y-58344365D01*
X115690395Y-57010000D01*
X116049605Y-57010000D01*
X117383970Y-58344365D01*
X117702739Y-58184582D01*
X118012723Y-57393813D01*
X117996497Y-56544613D01*
X117702739Y-55835418D01*
X117383970Y-55675635D01*
X116049605Y-57010000D01*
X115690395Y-57010000D01*
X114356030Y-55675635D01*
X114037261Y-55835418D01*
X113727277Y-56626187D01*
X103748267Y-56626187D01*
X103791912Y-56471517D01*
X103000000Y-55679605D01*
X102208088Y-56471517D01*
X101987183Y-56471517D01*
X102173461Y-56285564D01*
X102271901Y-56048494D01*
X102820395Y-55500000D01*
X103179605Y-55500000D01*
X103971517Y-56291912D01*
X104212460Y-56223923D01*
X104397201Y-55704829D01*
X104386588Y-55496030D01*
X114535635Y-55496030D01*
X115870000Y-56830395D01*
X117204365Y-55496030D01*
X117044582Y-55177261D01*
X116253813Y-54867277D01*
X115404613Y-54883503D01*
X114695418Y-55177261D01*
X114535635Y-55496030D01*
X104386588Y-55496030D01*
X104369230Y-55154552D01*
X104212460Y-54776077D01*
X103971517Y-54708088D01*
X103179605Y-55500000D01*
X102820395Y-55500000D01*
X102271967Y-54951572D01*
X102174831Y-54716485D01*
X101987157Y-54528483D01*
X102208088Y-54528483D01*
X103000000Y-55320395D01*
X103791912Y-54528483D01*
X103728560Y-54303970D01*
X105235635Y-54303970D01*
X105395418Y-54622739D01*
X106186187Y-54932723D01*
X107035387Y-54916497D01*
X107744582Y-54622739D01*
X107904365Y-54303970D01*
X106570000Y-52969605D01*
X105235635Y-54303970D01*
X103728560Y-54303970D01*
X103723923Y-54287540D01*
X103204829Y-54102799D01*
X102654552Y-54130770D01*
X102276077Y-54287540D01*
X102208088Y-54528483D01*
X101987157Y-54528483D01*
X101785564Y-54326539D01*
X101276702Y-54115241D01*
X100725715Y-54114760D01*
X100216485Y-54325169D01*
X99999964Y-54541313D01*
X99785564Y-54326539D01*
X99276702Y-54115241D01*
X98725715Y-54114760D01*
X98216485Y-54325169D01*
X97999964Y-54541313D01*
X97785564Y-54326539D01*
X97276702Y-54115241D01*
X96725715Y-54114760D01*
X96216485Y-54325169D01*
X95826539Y-54714436D01*
X95615241Y-55223298D01*
X95614760Y-55774285D01*
X90127000Y-55774285D01*
X90127000Y-54303970D01*
X92095635Y-54303970D01*
X92255418Y-54622739D01*
X93046187Y-54932723D01*
X93895387Y-54916497D01*
X94604582Y-54622739D01*
X94764365Y-54303970D01*
X93430000Y-52969605D01*
X92095635Y-54303970D01*
X90127000Y-54303970D01*
X90127000Y-52406187D01*
X91287277Y-52406187D01*
X91303503Y-53255387D01*
X91597261Y-53964582D01*
X91916030Y-54124365D01*
X93250395Y-52790000D01*
X93609605Y-52790000D01*
X94943970Y-54124365D01*
X95262739Y-53964582D01*
X95572723Y-53173813D01*
X95558056Y-52406187D01*
X104427277Y-52406187D01*
X104443503Y-53255387D01*
X104737261Y-53964582D01*
X105056030Y-54124365D01*
X106390395Y-52790000D01*
X106749605Y-52790000D01*
X108083970Y-54124365D01*
X108402739Y-53964582D01*
X108411348Y-53942619D01*
X119264613Y-53942619D01*
X119604155Y-54764372D01*
X120232321Y-55393636D01*
X121053481Y-55734611D01*
X121942619Y-55735387D01*
X122764372Y-55395845D01*
X123393636Y-54767679D01*
X123734611Y-53946519D01*
X123735387Y-53057381D01*
X123395845Y-52235628D01*
X122767679Y-51606364D01*
X121946519Y-51265389D01*
X121057381Y-51264613D01*
X120235628Y-51604155D01*
X119606364Y-52232321D01*
X119265389Y-53053481D01*
X119264613Y-53942619D01*
X108411348Y-53942619D01*
X108712723Y-53173813D01*
X108696497Y-52324613D01*
X108402739Y-51615418D01*
X108083970Y-51455635D01*
X106749605Y-52790000D01*
X106390395Y-52790000D01*
X105056030Y-51455635D01*
X104737261Y-51615418D01*
X104427277Y-52406187D01*
X95558056Y-52406187D01*
X95556497Y-52324613D01*
X95262739Y-51615418D01*
X94943970Y-51455635D01*
X93609605Y-52790000D01*
X93250395Y-52790000D01*
X91916030Y-51455635D01*
X91597261Y-51615418D01*
X91287277Y-52406187D01*
X90127000Y-52406187D01*
X90127000Y-50710000D01*
X92852359Y-50710000D01*
X92255418Y-50957261D01*
X92255418Y-50957261D01*
G37*
X92255418Y-50957261D02*
X92095635Y-51276030D01*
X93430000Y-52610395D01*
X94764365Y-51276030D01*
X94604582Y-50957261D01*
X93973819Y-50710000D01*
X105992359Y-50710000D01*
X105395418Y-50957261D01*
X105235635Y-51276030D01*
X106570000Y-52610395D01*
X107904365Y-51276030D01*
X107744582Y-50957261D01*
X107113819Y-50710000D01*
X124290000Y-50710000D01*
X124290000Y-99657212D01*
X124054659Y-99421460D01*
X123695370Y-99272270D01*
X123306337Y-99271931D01*
X122946788Y-99420493D01*
X122849093Y-99518017D01*
X122708395Y-99546004D01*
X122609377Y-99612166D01*
X122461185Y-99711184D01*
X121234370Y-100938000D01*
X121227230Y-100938000D01*
X121227379Y-100767564D01*
X121078817Y-100408015D01*
X120803969Y-100132687D01*
X120444680Y-99983497D01*
X120349127Y-99983414D01*
X120229436Y-99863723D01*
X120218370Y-99856329D01*
X119982226Y-99698542D01*
X119690621Y-99640538D01*
X116597462Y-99640538D01*
X116305857Y-99698542D01*
X116069713Y-99856329D01*
X116058647Y-99863723D01*
X115900357Y-100022013D01*
X115806337Y-100021931D01*
X115446788Y-100170493D01*
X115171460Y-100445341D01*
X115022270Y-100804630D01*
X115021931Y-101193663D01*
X115170493Y-101553212D01*
X115445341Y-101828540D01*
X115679616Y-101925819D01*
X115814891Y-102253212D01*
X116089739Y-102528540D01*
X116449028Y-102677730D01*
X116838061Y-102678069D01*
X117197610Y-102529507D01*
X117265235Y-102462000D01*
X121550000Y-102462000D01*
X121841605Y-102403996D01*
X122088815Y-102238815D01*
X123159969Y-101167662D01*
X123304630Y-101227730D01*
X123693663Y-101228069D01*
X124053212Y-101079507D01*
X124290000Y-100843132D01*
X124290000Y-124290000D01*
X90127000Y-124290000D01*
X90127000Y-121942619D01*
X119264613Y-121942619D01*
X119604155Y-122764372D01*
X120232321Y-123393636D01*
X121053481Y-123734611D01*
X121942619Y-123735387D01*
X122764372Y-123395845D01*
X123393636Y-122767679D01*
X123734611Y-121946519D01*
X123735387Y-121057381D01*
X123395845Y-120235628D01*
X122767679Y-119606364D01*
X121946519Y-119265389D01*
X121057381Y-119264613D01*
X120235628Y-119604155D01*
X119606364Y-120232321D01*
X119265389Y-121053481D01*
X119264613Y-121942619D01*
X90127000Y-121942619D01*
X90127000Y-110855553D01*
X97944052Y-110855553D01*
X97971887Y-111062950D01*
X98372939Y-111193272D01*
X98793334Y-111160199D01*
X99028113Y-111062950D01*
X99055948Y-110855553D01*
X100944052Y-110855553D01*
X100971887Y-111062950D01*
X101372939Y-111193272D01*
X101793334Y-111160199D01*
X102028113Y-111062950D01*
X102055948Y-110855553D01*
X101500000Y-110299605D01*
X100944052Y-110855553D01*
X99055948Y-110855553D01*
X98500000Y-110299605D01*
X97944052Y-110855553D01*
X90127000Y-110855553D01*
X90127000Y-108434972D01*
X95526888Y-108434972D01*
X95558783Y-108885375D01*
X95669783Y-109153352D01*
X95884896Y-109190499D01*
X96495395Y-108580000D01*
X95884896Y-107969501D01*
X95669783Y-108006648D01*
X95526888Y-108434972D01*
X90127000Y-108434972D01*
X90127000Y-107789896D01*
X96064501Y-107789896D01*
X96675000Y-108400395D01*
X96689143Y-108386253D01*
X96868748Y-108565858D01*
X96854605Y-108580000D01*
X96868748Y-108594143D01*
X96795714Y-108667176D01*
X96614485Y-108742058D01*
X96323081Y-109032954D01*
X96267289Y-109167316D01*
X96064501Y-109370104D01*
X96101648Y-109585217D01*
X96165012Y-109606356D01*
X96164821Y-109824971D01*
X96322058Y-110205515D01*
X96612954Y-110496919D01*
X96993223Y-110654820D01*
X97404971Y-110655179D01*
X97537325Y-110600492D01*
X97557050Y-110648113D01*
X97764447Y-110675948D01*
X98309099Y-110131296D01*
X98498217Y-110209824D01*
X98769666Y-110210061D01*
X99235553Y-110675948D01*
X99442950Y-110648113D01*
X99573272Y-110247061D01*
X99562647Y-110112007D01*
X99798217Y-110209824D01*
X100200020Y-110210175D01*
X100436143Y-110112611D01*
X100459801Y-110413334D01*
X100557050Y-110648113D01*
X100764447Y-110675948D01*
X101220025Y-110220370D01*
X101585301Y-110189477D01*
X101701112Y-110141507D01*
X102235553Y-110675948D01*
X102442950Y-110648113D01*
X102458895Y-110599043D01*
X102593223Y-110654820D01*
X103004971Y-110655179D01*
X103385515Y-110497942D01*
X103676919Y-110207046D01*
X103834820Y-109826777D01*
X103835008Y-109611455D01*
X103898352Y-109585217D01*
X103935499Y-109370104D01*
X103732908Y-109167513D01*
X103677942Y-109034485D01*
X103387046Y-108743081D01*
X103204314Y-108667204D01*
X103131253Y-108594143D01*
X103145395Y-108580000D01*
X103504605Y-108580000D01*
X104115104Y-109190499D01*
X104330217Y-109153352D01*
X104473112Y-108725028D01*
X104441217Y-108274625D01*
X104330217Y-108006648D01*
X104115104Y-107969501D01*
X103504605Y-108580000D01*
X103145395Y-108580000D01*
X103131253Y-108565858D01*
X103310858Y-108386253D01*
X103325000Y-108400395D01*
X103935499Y-107789896D01*
X103898352Y-107574783D01*
X103470028Y-107431888D01*
X103019625Y-107463783D01*
X102751648Y-107574783D01*
X102714501Y-107789893D01*
X102598274Y-107673666D01*
X102569743Y-107702197D01*
X102540199Y-107326666D01*
X102442950Y-107091887D01*
X102235553Y-107064052D01*
X101679605Y-107620000D01*
X101693748Y-107634143D01*
X101514143Y-107813748D01*
X101500000Y-107799605D01*
X101485858Y-107813748D01*
X101306253Y-107634143D01*
X101320395Y-107620000D01*
X100764447Y-107064052D01*
X100557050Y-107091887D01*
X100426728Y-107492939D01*
X100431032Y-107547654D01*
X100078628Y-107693264D01*
X100000112Y-107771644D01*
X99922866Y-107694263D01*
X99557172Y-107542414D01*
X99540199Y-107326666D01*
X99442950Y-107091887D01*
X99235553Y-107064052D01*
X98679605Y-107620000D01*
X98693748Y-107634143D01*
X98514143Y-107813748D01*
X98500000Y-107799605D01*
X98485858Y-107813748D01*
X98306253Y-107634143D01*
X98320395Y-107620000D01*
X97764447Y-107064052D01*
X97557050Y-107091887D01*
X97426728Y-107492939D01*
X97444295Y-107716235D01*
X97401726Y-107673666D01*
X97285499Y-107789893D01*
X97248352Y-107574783D01*
X96820028Y-107431888D01*
X96369625Y-107463783D01*
X96101648Y-107574783D01*
X96064501Y-107789896D01*
X90127000Y-107789896D01*
X90127000Y-106884447D01*
X97944052Y-106884447D01*
X98500000Y-107440395D01*
X99055948Y-106884447D01*
X100944052Y-106884447D01*
X101500000Y-107440395D01*
X102055948Y-106884447D01*
X102028113Y-106677050D01*
X101627061Y-106546728D01*
X101206666Y-106579801D01*
X100971887Y-106677050D01*
X100944052Y-106884447D01*
X99055948Y-106884447D01*
X99028113Y-106677050D01*
X98627061Y-106546728D01*
X98206666Y-106579801D01*
X97971887Y-106677050D01*
X97944052Y-106884447D01*
X90127000Y-106884447D01*
X90127000Y-104693663D01*
X115021931Y-104693663D01*
X115170493Y-105053212D01*
X115238000Y-105120837D01*
X115238000Y-106378917D01*
X115171460Y-106445341D01*
X115022270Y-106804630D01*
X115021931Y-107193663D01*
X115170493Y-107553212D01*
X115445341Y-107828540D01*
X115804630Y-107977730D01*
X116193663Y-107978069D01*
X116553212Y-107829507D01*
X116828540Y-107554659D01*
X116977730Y-107195370D01*
X116978069Y-106806337D01*
X116829507Y-106446788D01*
X116762000Y-106379163D01*
X116762000Y-105121083D01*
X116812968Y-105070204D01*
X118082137Y-106339373D01*
X118170493Y-106553212D01*
X118445341Y-106828540D01*
X118804630Y-106977730D01*
X119193663Y-106978069D01*
X119553212Y-106829507D01*
X119828540Y-106554659D01*
X119977730Y-106195370D01*
X119978069Y-105806337D01*
X119829507Y-105446788D01*
X119554659Y-105171460D01*
X119339250Y-105082014D01*
X117917863Y-103660627D01*
X117829507Y-103446788D01*
X117554659Y-103171460D01*
X117195370Y-103022270D01*
X116806337Y-103021931D01*
X116446788Y-103170493D01*
X116171460Y-103445341D01*
X116139536Y-103522221D01*
X115806337Y-103521931D01*
X115446788Y-103670493D01*
X115171460Y-103945341D01*
X115022270Y-104304630D01*
X115021931Y-104693663D01*
X90127000Y-104693663D01*
X90127000Y-90234972D01*
X95526888Y-90234972D01*
X95558783Y-90685375D01*
X95669783Y-90953352D01*
X95884896Y-90990499D01*
X96495395Y-90380000D01*
X95884896Y-89769501D01*
X95669783Y-89806648D01*
X95526888Y-90234972D01*
X90127000Y-90234972D01*
X90127000Y-89589896D01*
X96064501Y-89589896D01*
X96675000Y-90200395D01*
X96689143Y-90186253D01*
X96868748Y-90365858D01*
X96854605Y-90380000D01*
X96868748Y-90394143D01*
X96795714Y-90467176D01*
X96614485Y-90542058D01*
X96323081Y-90832954D01*
X96267289Y-90967316D01*
X96064501Y-91170104D01*
X96101648Y-91385217D01*
X96165012Y-91406356D01*
X96164821Y-91624971D01*
X96322058Y-92005515D01*
X96612954Y-92296919D01*
X96993223Y-92454820D01*
X97404971Y-92455179D01*
X97537325Y-92400492D01*
X97557050Y-92448113D01*
X97764447Y-92475948D01*
X98309099Y-91931296D01*
X98498217Y-92009824D01*
X98617961Y-92009929D01*
X98514143Y-92113748D01*
X98500000Y-92099605D01*
X97944052Y-92655553D01*
X97971887Y-92862950D01*
X97976625Y-92864490D01*
X97897822Y-92943155D01*
X97748632Y-93302444D01*
X97748293Y-93691477D01*
X97896855Y-94051026D01*
X98171703Y-94326354D01*
X98530992Y-94475544D01*
X98920025Y-94475883D01*
X99279574Y-94327321D01*
X99554902Y-94052473D01*
X99704092Y-93693184D01*
X99704238Y-93525726D01*
X100036301Y-93193663D01*
X115921931Y-93193663D01*
X116070493Y-93553212D01*
X116345341Y-93828540D01*
X116704630Y-93977730D01*
X117093663Y-93978069D01*
X117453212Y-93829507D01*
X117728540Y-93554659D01*
X117877730Y-93195370D01*
X117878069Y-92806337D01*
X117729507Y-92446788D01*
X117662000Y-92379163D01*
X117662000Y-91915630D01*
X119565630Y-90012000D01*
X122628917Y-90012000D01*
X122695341Y-90078540D01*
X123054630Y-90227730D01*
X123443663Y-90228069D01*
X123803212Y-90079507D01*
X124078540Y-89804659D01*
X124227730Y-89445370D01*
X124228069Y-89056337D01*
X124079507Y-88696788D01*
X123804659Y-88421460D01*
X123445370Y-88272270D01*
X123056337Y-88271931D01*
X122696788Y-88420493D01*
X122629163Y-88488000D01*
X119250000Y-88488000D01*
X118958395Y-88546004D01*
X118751201Y-88684447D01*
X118711185Y-88711185D01*
X116361185Y-91061185D01*
X116196004Y-91308395D01*
X116138000Y-91600000D01*
X116138000Y-92378917D01*
X116071460Y-92445341D01*
X115922270Y-92804630D01*
X115921931Y-93193663D01*
X100036301Y-93193663D01*
X100502894Y-92727070D01*
X100550680Y-92655553D01*
X100944052Y-92655553D01*
X100971887Y-92862950D01*
X101372939Y-92993272D01*
X101793334Y-92960199D01*
X102028113Y-92862950D01*
X102055948Y-92655553D01*
X101500000Y-92099605D01*
X100944052Y-92655553D01*
X100550680Y-92655553D01*
X100657063Y-92496341D01*
X100663806Y-92462441D01*
X100764447Y-92475948D01*
X101220025Y-92020370D01*
X101585301Y-91989477D01*
X101701112Y-91941507D01*
X102235553Y-92475948D01*
X102442950Y-92448113D01*
X102458895Y-92399043D01*
X102593223Y-92454820D01*
X103004971Y-92455179D01*
X103385515Y-92297942D01*
X103676919Y-92007046D01*
X103834820Y-91626777D01*
X103835008Y-91411455D01*
X103898352Y-91385217D01*
X103935499Y-91170104D01*
X103732908Y-90967513D01*
X103677942Y-90834485D01*
X103387046Y-90543081D01*
X103204314Y-90467204D01*
X103131253Y-90394143D01*
X103145395Y-90380000D01*
X103504605Y-90380000D01*
X104115104Y-90990499D01*
X104330217Y-90953352D01*
X104473112Y-90525028D01*
X104441217Y-90074625D01*
X104330217Y-89806648D01*
X104115104Y-89769501D01*
X103504605Y-90380000D01*
X103145395Y-90380000D01*
X103131253Y-90365858D01*
X103310858Y-90186253D01*
X103325000Y-90200395D01*
X103935499Y-89589896D01*
X103898352Y-89374783D01*
X103470028Y-89231888D01*
X103019625Y-89263783D01*
X102751648Y-89374783D01*
X102714501Y-89589893D01*
X102598274Y-89473666D01*
X102569743Y-89502197D01*
X102540199Y-89126666D01*
X102442950Y-88891887D01*
X102235553Y-88864052D01*
X101679605Y-89420000D01*
X101693748Y-89434143D01*
X101514143Y-89613748D01*
X101500000Y-89599605D01*
X101485858Y-89613748D01*
X101306253Y-89434143D01*
X101320395Y-89420000D01*
X100764447Y-88864052D01*
X100557050Y-88891887D01*
X100426728Y-89292939D01*
X100431032Y-89347654D01*
X100078628Y-89493264D01*
X100000112Y-89571644D01*
X99922866Y-89494263D01*
X99557172Y-89342414D01*
X99540199Y-89126666D01*
X99442950Y-88891887D01*
X99235553Y-88864052D01*
X98679605Y-89420000D01*
X98693748Y-89434143D01*
X98514143Y-89613748D01*
X98500000Y-89599605D01*
X98485858Y-89613748D01*
X98306253Y-89434143D01*
X98320395Y-89420000D01*
X97764447Y-88864052D01*
X97557050Y-88891887D01*
X97426728Y-89292939D01*
X97444295Y-89516235D01*
X97401726Y-89473666D01*
X97285499Y-89589893D01*
X97248352Y-89374783D01*
X96820028Y-89231888D01*
X96369625Y-89263783D01*
X96101648Y-89374783D01*
X96064501Y-89589896D01*
X90127000Y-89589896D01*
X90127000Y-88684447D01*
X97944052Y-88684447D01*
X98500000Y-89240395D01*
X99055948Y-88684447D01*
X100944052Y-88684447D01*
X101500000Y-89240395D01*
X102055948Y-88684447D01*
X102028113Y-88477050D01*
X101627061Y-88346728D01*
X101206666Y-88379801D01*
X100971887Y-88477050D01*
X100944052Y-88684447D01*
X99055948Y-88684447D01*
X99028113Y-88477050D01*
X98627061Y-88346728D01*
X98206666Y-88379801D01*
X97971887Y-88477050D01*
X97944052Y-88684447D01*
X90127000Y-88684447D01*
X90127000Y-86905593D01*
X112174012Y-86905593D01*
X112315478Y-87208782D01*
X113051955Y-87493737D01*
X113841418Y-87475164D01*
X114484522Y-87208782D01*
X114625988Y-86905593D01*
X113400000Y-85679605D01*
X112174012Y-86905593D01*
X90127000Y-86905593D01*
X90127000Y-85151955D01*
X111406263Y-85151955D01*
X111424836Y-85941418D01*
X111691218Y-86584522D01*
X111994407Y-86725988D01*
X113220395Y-85500000D01*
X113579605Y-85500000D01*
X114805593Y-86725988D01*
X115108782Y-86584522D01*
X115393737Y-85848045D01*
X115375164Y-85058582D01*
X115108782Y-84415478D01*
X114805593Y-84274012D01*
X113579605Y-85500000D01*
X113220395Y-85500000D01*
X111994407Y-84274012D01*
X111691218Y-84415478D01*
X111406263Y-85151955D01*
X90127000Y-85151955D01*
X90127000Y-80724775D01*
X111264803Y-80724775D01*
X111437233Y-81142086D01*
X111594867Y-81299996D01*
X111438355Y-81456235D01*
X111265197Y-81873244D01*
X111264803Y-82324775D01*
X111437233Y-82742086D01*
X111756235Y-83061645D01*
X112173244Y-83234803D01*
X112624775Y-83235197D01*
X113042086Y-83062767D01*
X113164964Y-82940103D01*
X113164803Y-83124775D01*
X113326529Y-83516180D01*
X112958582Y-83524836D01*
X112315478Y-83791218D01*
X112174012Y-84094407D01*
X113400000Y-85320395D01*
X114625988Y-84094407D01*
X114586467Y-84009706D01*
X114942086Y-83862767D01*
X115090238Y-83714873D01*
X119214812Y-83714873D01*
X119379646Y-84113800D01*
X119684595Y-84419282D01*
X120083233Y-84584811D01*
X120514873Y-84585188D01*
X120913800Y-84420354D01*
X121219282Y-84115405D01*
X121384811Y-83716767D01*
X121385188Y-83285127D01*
X121220354Y-82886200D01*
X120915405Y-82580718D01*
X120516767Y-82415189D01*
X120085127Y-82414812D01*
X119686200Y-82579646D01*
X119380718Y-82884595D01*
X119215189Y-83283233D01*
X119214812Y-83714873D01*
X115090238Y-83714873D01*
X115261645Y-83543765D01*
X115434803Y-83126756D01*
X115435197Y-82675225D01*
X115262767Y-82257914D01*
X115105133Y-82100004D01*
X115261645Y-81943765D01*
X115434803Y-81526756D01*
X115435197Y-81075225D01*
X115262767Y-80657914D01*
X115119082Y-80513978D01*
X115206334Y-80426726D01*
X115090107Y-80310499D01*
X115305217Y-80273352D01*
X115448112Y-79845028D01*
X115416217Y-79394625D01*
X115383183Y-79314873D01*
X119214812Y-79314873D01*
X119379646Y-79713800D01*
X119684595Y-80019282D01*
X120083233Y-80184811D01*
X120514873Y-80185188D01*
X120913800Y-80020354D01*
X121219282Y-79715405D01*
X121384811Y-79316767D01*
X121385188Y-78885127D01*
X121220354Y-78486200D01*
X120915405Y-78180718D01*
X120516767Y-78015189D01*
X120085127Y-78014812D01*
X119686200Y-78179646D01*
X119380718Y-78484595D01*
X119215189Y-78883233D01*
X119214812Y-79314873D01*
X115383183Y-79314873D01*
X115305217Y-79126648D01*
X115090104Y-79089501D01*
X114479605Y-79700000D01*
X114493748Y-79714143D01*
X114314143Y-79893748D01*
X114300000Y-79879605D01*
X114285858Y-79893748D01*
X114106253Y-79714143D01*
X114120395Y-79700000D01*
X114106253Y-79685858D01*
X114285858Y-79506253D01*
X114300000Y-79520395D01*
X114910499Y-78909896D01*
X114873352Y-78694783D01*
X114582922Y-78597891D01*
X114625988Y-78505593D01*
X113400000Y-77279605D01*
X112174012Y-78505593D01*
X112315478Y-78808782D01*
X113051955Y-79093737D01*
X113503506Y-79083114D01*
X113509893Y-79089501D01*
X113294783Y-79126648D01*
X113151888Y-79554972D01*
X113158877Y-79653668D01*
X113043765Y-79538355D01*
X112626756Y-79365197D01*
X112175225Y-79364803D01*
X111757914Y-79537233D01*
X111438355Y-79856235D01*
X111265197Y-80273244D01*
X111264803Y-80724775D01*
X90127000Y-80724775D01*
X90127000Y-72034972D01*
X95526888Y-72034972D01*
X95558783Y-72485375D01*
X95669783Y-72753352D01*
X95884896Y-72790499D01*
X96495395Y-72180000D01*
X95884896Y-71569501D01*
X95669783Y-71606648D01*
X95526888Y-72034972D01*
X90127000Y-72034972D01*
X90127000Y-71389896D01*
X96064501Y-71389896D01*
X96675000Y-72000395D01*
X96689143Y-71986253D01*
X96868748Y-72165858D01*
X96854605Y-72180000D01*
X96868748Y-72194143D01*
X96795714Y-72267176D01*
X96614485Y-72342058D01*
X96323081Y-72632954D01*
X96267289Y-72767316D01*
X96064501Y-72970104D01*
X96101648Y-73185217D01*
X96165012Y-73206356D01*
X96164821Y-73424971D01*
X96322058Y-73805515D01*
X96612954Y-74096919D01*
X96993223Y-74254820D01*
X97404971Y-74255179D01*
X97537325Y-74200492D01*
X97557050Y-74248113D01*
X97764447Y-74275948D01*
X98309099Y-73731296D01*
X98498217Y-73809824D01*
X98617961Y-73809929D01*
X98514143Y-73913748D01*
X98500000Y-73899605D01*
X97944052Y-74455553D01*
X97971887Y-74662950D01*
X98372939Y-74793272D01*
X98785577Y-74760809D01*
X98847106Y-74852894D01*
X100022075Y-76027864D01*
X100021931Y-76193663D01*
X100170493Y-76553212D01*
X100445341Y-76828540D01*
X100804630Y-76977730D01*
X101193663Y-76978069D01*
X101553212Y-76829507D01*
X101630899Y-76751955D01*
X111406263Y-76751955D01*
X111424836Y-77541418D01*
X111691218Y-78184522D01*
X111994407Y-78325988D01*
X113220395Y-77100000D01*
X113579605Y-77100000D01*
X114805593Y-78325988D01*
X115108782Y-78184522D01*
X115393737Y-77448045D01*
X115375164Y-76658582D01*
X115108782Y-76015478D01*
X114805593Y-75874012D01*
X113579605Y-77100000D01*
X113220395Y-77100000D01*
X111994407Y-75874012D01*
X111691218Y-76015478D01*
X111406263Y-76751955D01*
X101630899Y-76751955D01*
X101828540Y-76554659D01*
X101977730Y-76195370D01*
X101978069Y-75806337D01*
X101931821Y-75694407D01*
X112174012Y-75694407D01*
X113400000Y-76920395D01*
X114625988Y-75694407D01*
X114484522Y-75391218D01*
X113748045Y-75106263D01*
X112958582Y-75124836D01*
X112315478Y-75391218D01*
X112174012Y-75694407D01*
X101931821Y-75694407D01*
X101829507Y-75446788D01*
X101554659Y-75171460D01*
X101195370Y-75022270D01*
X101027913Y-75022124D01*
X100461342Y-74455553D01*
X100944052Y-74455553D01*
X100971887Y-74662950D01*
X101372939Y-74793272D01*
X101793334Y-74760199D01*
X102028113Y-74662950D01*
X102055948Y-74455553D01*
X101500000Y-73899605D01*
X100944052Y-74455553D01*
X100461342Y-74455553D01*
X100061200Y-74055412D01*
X100061200Y-73810054D01*
X100200020Y-73810175D01*
X100436143Y-73712611D01*
X100459801Y-74013334D01*
X100557050Y-74248113D01*
X100764447Y-74275948D01*
X101220025Y-73820370D01*
X101585301Y-73789477D01*
X101701112Y-73741507D01*
X102235553Y-74275948D01*
X102442950Y-74248113D01*
X102458895Y-74199043D01*
X102593223Y-74254820D01*
X103004971Y-74255179D01*
X103385515Y-74097942D01*
X103676919Y-73807046D01*
X103834820Y-73426777D01*
X103835008Y-73211455D01*
X103898352Y-73185217D01*
X103935499Y-72970104D01*
X103732908Y-72767513D01*
X103677942Y-72634485D01*
X103387046Y-72343081D01*
X103204314Y-72267204D01*
X103131253Y-72194143D01*
X103145395Y-72180000D01*
X103504605Y-72180000D01*
X104115104Y-72790499D01*
X104330217Y-72753352D01*
X104473112Y-72325028D01*
X104467372Y-72243970D01*
X114535635Y-72243970D01*
X114695418Y-72562739D01*
X115486187Y-72872723D01*
X116335387Y-72856497D01*
X117044582Y-72562739D01*
X117204365Y-72243970D01*
X115870000Y-70909605D01*
X114535635Y-72243970D01*
X104467372Y-72243970D01*
X104441217Y-71874625D01*
X104330217Y-71606648D01*
X104115104Y-71569501D01*
X103504605Y-72180000D01*
X103145395Y-72180000D01*
X103131253Y-72165858D01*
X103310858Y-71986253D01*
X103325000Y-72000395D01*
X103935499Y-71389896D01*
X103898352Y-71174783D01*
X103470028Y-71031888D01*
X103019625Y-71063783D01*
X102751648Y-71174783D01*
X102714501Y-71389893D01*
X102598274Y-71273666D01*
X102569743Y-71302197D01*
X102540199Y-70926666D01*
X102442950Y-70691887D01*
X102235553Y-70664052D01*
X101679605Y-71220000D01*
X101693748Y-71234143D01*
X101514143Y-71413748D01*
X101500000Y-71399605D01*
X101485858Y-71413748D01*
X101306253Y-71234143D01*
X101320395Y-71220000D01*
X100764447Y-70664052D01*
X100557050Y-70691887D01*
X100426728Y-71092939D01*
X100431032Y-71147654D01*
X100078628Y-71293264D01*
X100000112Y-71371644D01*
X99922866Y-71294263D01*
X99557172Y-71142414D01*
X99540199Y-70926666D01*
X99442950Y-70691887D01*
X99235553Y-70664052D01*
X98679605Y-71220000D01*
X98693748Y-71234143D01*
X98514143Y-71413748D01*
X98500000Y-71399605D01*
X98485858Y-71413748D01*
X98306253Y-71234143D01*
X98320395Y-71220000D01*
X97764447Y-70664052D01*
X97557050Y-70691887D01*
X97426728Y-71092939D01*
X97444295Y-71316235D01*
X97401726Y-71273666D01*
X97285499Y-71389893D01*
X97248352Y-71174783D01*
X96820028Y-71031888D01*
X96369625Y-71063783D01*
X96101648Y-71174783D01*
X96064501Y-71389896D01*
X90127000Y-71389896D01*
X90127000Y-70484447D01*
X97944052Y-70484447D01*
X98500000Y-71040395D01*
X99055948Y-70484447D01*
X100944052Y-70484447D01*
X101500000Y-71040395D01*
X102055948Y-70484447D01*
X102037392Y-70346187D01*
X113727277Y-70346187D01*
X113743503Y-71195387D01*
X114037261Y-71904582D01*
X114356030Y-72064365D01*
X115690395Y-70730000D01*
X116049605Y-70730000D01*
X117383970Y-72064365D01*
X117702739Y-71904582D01*
X118012723Y-71113813D01*
X117996497Y-70264613D01*
X117702739Y-69555418D01*
X117383970Y-69395635D01*
X116049605Y-70730000D01*
X115690395Y-70730000D01*
X114356030Y-69395635D01*
X114037261Y-69555418D01*
X113727277Y-70346187D01*
X102037392Y-70346187D01*
X102028113Y-70277050D01*
X101627061Y-70146728D01*
X101206666Y-70179801D01*
X100971887Y-70277050D01*
X100944052Y-70484447D01*
X99055948Y-70484447D01*
X99028113Y-70277050D01*
X98627061Y-70146728D01*
X98206666Y-70179801D01*
X97971887Y-70277050D01*
X97944052Y-70484447D01*
X90127000Y-70484447D01*
X90127000Y-69216030D01*
X114535635Y-69216030D01*
X115870000Y-70550395D01*
X117204365Y-69216030D01*
X117044582Y-68897261D01*
X116253813Y-68587277D01*
X115404613Y-68603503D01*
X114695418Y-68897261D01*
X114535635Y-69216030D01*
X90127000Y-69216030D01*
X90127000Y-65193663D01*
X106021931Y-65193663D01*
X106170493Y-65553212D01*
X106445341Y-65828540D01*
X106804630Y-65977730D01*
X107193663Y-65978069D01*
X107500311Y-65851365D01*
X107804630Y-65977730D01*
X108193663Y-65978069D01*
X108553212Y-65829507D01*
X108828540Y-65554659D01*
X108977730Y-65195370D01*
X108977813Y-65099817D01*
X109396024Y-64681607D01*
X111814954Y-64681607D01*
X111814760Y-64904285D01*
X112025169Y-65413515D01*
X112414436Y-65803461D01*
X112646870Y-65899976D01*
X112416485Y-65995169D01*
X112026539Y-66384436D01*
X111815241Y-66893298D01*
X111814760Y-67444285D01*
X112025169Y-67953515D01*
X112414436Y-68343461D01*
X112923298Y-68554759D01*
X113474285Y-68555240D01*
X113983515Y-68344831D01*
X114373461Y-67955564D01*
X114584759Y-67446702D01*
X114585240Y-66895715D01*
X114374831Y-66386485D01*
X113985564Y-65996539D01*
X113753130Y-65900024D01*
X113983515Y-65804831D01*
X114373461Y-65415564D01*
X114584759Y-64906702D01*
X114585240Y-64355715D01*
X114374831Y-63846485D01*
X114143687Y-63614938D01*
X114373461Y-63385564D01*
X114584759Y-62876702D01*
X114585240Y-62325715D01*
X114374831Y-61816485D01*
X113985564Y-61426539D01*
X113769021Y-61336623D01*
X113923923Y-61272460D01*
X113991912Y-61031517D01*
X113200000Y-60239605D01*
X112408088Y-61031517D01*
X112476077Y-61272460D01*
X112642621Y-61331732D01*
X112416485Y-61425169D01*
X112026539Y-61814436D01*
X111815241Y-62323298D01*
X111815016Y-62580813D01*
X108657187Y-62580813D01*
X108365582Y-62638817D01*
X108118371Y-62803998D01*
X106900357Y-64022013D01*
X106806337Y-64021931D01*
X106446788Y-64170493D01*
X106171460Y-64445341D01*
X106022270Y-64804630D01*
X106021931Y-65193663D01*
X90127000Y-65193663D01*
X90127000Y-59855171D01*
X111802799Y-59855171D01*
X111830770Y-60405448D01*
X111987540Y-60783923D01*
X112228483Y-60851912D01*
X113020395Y-60060000D01*
X113379605Y-60060000D01*
X114171517Y-60851912D01*
X114412460Y-60783923D01*
X114597201Y-60264829D01*
X114569230Y-59714552D01*
X114412460Y-59336077D01*
X114171517Y-59268088D01*
X113379605Y-60060000D01*
X113020395Y-60060000D01*
X112228483Y-59268088D01*
X111987540Y-59336077D01*
X111802799Y-59855171D01*
X90127000Y-59855171D01*
X90127000Y-59088483D01*
X112408088Y-59088483D01*
X113200000Y-59880395D01*
X113991912Y-59088483D01*
X113923923Y-58847540D01*
X113404829Y-58662799D01*
X112854552Y-58690770D01*
X112476077Y-58847540D01*
X112408088Y-59088483D01*
X90127000Y-59088483D01*
X90127000Y-58523970D01*
X114535635Y-58523970D01*
X114695418Y-58842739D01*
X115486187Y-59152723D01*
X116335387Y-59136497D01*
X117044582Y-58842739D01*
X117204365Y-58523970D01*
X115870000Y-57189605D01*
X114535635Y-58523970D01*
X90127000Y-58523970D01*
X90127000Y-55774285D01*
X95614760Y-55774285D01*
X95825169Y-56283515D01*
X96214436Y-56673461D01*
X96723298Y-56884759D01*
X97274285Y-56885240D01*
X97783515Y-56674831D01*
X98000036Y-56458687D01*
X98214436Y-56673461D01*
X98723298Y-56884759D01*
X99274285Y-56885240D01*
X99783515Y-56674831D01*
X100000036Y-56458687D01*
X100214436Y-56673461D01*
X100723298Y-56884759D01*
X101274285Y-56885240D01*
X101783515Y-56674831D01*
X101987183Y-56471517D01*
X102208088Y-56471517D01*
X102276077Y-56712460D01*
X102795171Y-56897201D01*
X103345448Y-56869230D01*
X103723923Y-56712460D01*
X103748267Y-56626187D01*
X113727277Y-56626187D01*
X113743503Y-57475387D01*
X114037261Y-58184582D01*
X114356030Y-58344365D01*
X115690395Y-57010000D01*
X116049605Y-57010000D01*
X117383970Y-58344365D01*
X117702739Y-58184582D01*
X118012723Y-57393813D01*
X117996497Y-56544613D01*
X117702739Y-55835418D01*
X117383970Y-55675635D01*
X116049605Y-57010000D01*
X115690395Y-57010000D01*
X114356030Y-55675635D01*
X114037261Y-55835418D01*
X113727277Y-56626187D01*
X103748267Y-56626187D01*
X103791912Y-56471517D01*
X103000000Y-55679605D01*
X102208088Y-56471517D01*
X101987183Y-56471517D01*
X102173461Y-56285564D01*
X102271901Y-56048494D01*
X102820395Y-55500000D01*
X103179605Y-55500000D01*
X103971517Y-56291912D01*
X104212460Y-56223923D01*
X104397201Y-55704829D01*
X104386588Y-55496030D01*
X114535635Y-55496030D01*
X115870000Y-56830395D01*
X117204365Y-55496030D01*
X117044582Y-55177261D01*
X116253813Y-54867277D01*
X115404613Y-54883503D01*
X114695418Y-55177261D01*
X114535635Y-55496030D01*
X104386588Y-55496030D01*
X104369230Y-55154552D01*
X104212460Y-54776077D01*
X103971517Y-54708088D01*
X103179605Y-55500000D01*
X102820395Y-55500000D01*
X102271967Y-54951572D01*
X102174831Y-54716485D01*
X101987157Y-54528483D01*
X102208088Y-54528483D01*
X103000000Y-55320395D01*
X103791912Y-54528483D01*
X103728560Y-54303970D01*
X105235635Y-54303970D01*
X105395418Y-54622739D01*
X106186187Y-54932723D01*
X107035387Y-54916497D01*
X107744582Y-54622739D01*
X107904365Y-54303970D01*
X106570000Y-52969605D01*
X105235635Y-54303970D01*
X103728560Y-54303970D01*
X103723923Y-54287540D01*
X103204829Y-54102799D01*
X102654552Y-54130770D01*
X102276077Y-54287540D01*
X102208088Y-54528483D01*
X101987157Y-54528483D01*
X101785564Y-54326539D01*
X101276702Y-54115241D01*
X100725715Y-54114760D01*
X100216485Y-54325169D01*
X99999964Y-54541313D01*
X99785564Y-54326539D01*
X99276702Y-54115241D01*
X98725715Y-54114760D01*
X98216485Y-54325169D01*
X97999964Y-54541313D01*
X97785564Y-54326539D01*
X97276702Y-54115241D01*
X96725715Y-54114760D01*
X96216485Y-54325169D01*
X95826539Y-54714436D01*
X95615241Y-55223298D01*
X95614760Y-55774285D01*
X90127000Y-55774285D01*
X90127000Y-54303970D01*
X92095635Y-54303970D01*
X92255418Y-54622739D01*
X93046187Y-54932723D01*
X93895387Y-54916497D01*
X94604582Y-54622739D01*
X94764365Y-54303970D01*
X93430000Y-52969605D01*
X92095635Y-54303970D01*
X90127000Y-54303970D01*
X90127000Y-52406187D01*
X91287277Y-52406187D01*
X91303503Y-53255387D01*
X91597261Y-53964582D01*
X91916030Y-54124365D01*
X93250395Y-52790000D01*
X93609605Y-52790000D01*
X94943970Y-54124365D01*
X95262739Y-53964582D01*
X95572723Y-53173813D01*
X95558056Y-52406187D01*
X104427277Y-52406187D01*
X104443503Y-53255387D01*
X104737261Y-53964582D01*
X105056030Y-54124365D01*
X106390395Y-52790000D01*
X106749605Y-52790000D01*
X108083970Y-54124365D01*
X108402739Y-53964582D01*
X108411348Y-53942619D01*
X119264613Y-53942619D01*
X119604155Y-54764372D01*
X120232321Y-55393636D01*
X121053481Y-55734611D01*
X121942619Y-55735387D01*
X122764372Y-55395845D01*
X123393636Y-54767679D01*
X123734611Y-53946519D01*
X123735387Y-53057381D01*
X123395845Y-52235628D01*
X122767679Y-51606364D01*
X121946519Y-51265389D01*
X121057381Y-51264613D01*
X120235628Y-51604155D01*
X119606364Y-52232321D01*
X119265389Y-53053481D01*
X119264613Y-53942619D01*
X108411348Y-53942619D01*
X108712723Y-53173813D01*
X108696497Y-52324613D01*
X108402739Y-51615418D01*
X108083970Y-51455635D01*
X106749605Y-52790000D01*
X106390395Y-52790000D01*
X105056030Y-51455635D01*
X104737261Y-51615418D01*
X104427277Y-52406187D01*
X95558056Y-52406187D01*
X95556497Y-52324613D01*
X95262739Y-51615418D01*
X94943970Y-51455635D01*
X93609605Y-52790000D01*
X93250395Y-52790000D01*
X91916030Y-51455635D01*
X91597261Y-51615418D01*
X91287277Y-52406187D01*
X90127000Y-52406187D01*
X90127000Y-50710000D01*
X92852359Y-50710000D01*
X92255418Y-50957261D01*
G36*
X89373000Y-124290000D02*
X50710000Y-124290000D01*
X50710000Y-121942619D01*
X51264613Y-121942619D01*
X51604155Y-122764372D01*
X52232321Y-123393636D01*
X53053481Y-123734611D01*
X53942619Y-123735387D01*
X54764372Y-123395845D01*
X55393636Y-122767679D01*
X55734611Y-121946519D01*
X55735387Y-121057381D01*
X55395845Y-120235628D01*
X54767679Y-119606364D01*
X53946519Y-119265389D01*
X53057381Y-119264613D01*
X52235628Y-119604155D01*
X51606364Y-120232321D01*
X51265389Y-121053481D01*
X51264613Y-121942619D01*
X50710000Y-121942619D01*
X50710000Y-114849041D01*
X85108086Y-114849041D01*
X85347611Y-115355134D01*
X85762577Y-115731041D01*
X86150961Y-115891904D01*
X86373000Y-115769915D01*
X86373000Y-114627000D01*
X86627000Y-114627000D01*
X86627000Y-115769915D01*
X86849039Y-115891904D01*
X87237423Y-115731041D01*
X87652389Y-115355134D01*
X87891914Y-114849041D01*
X87770629Y-114627000D01*
X86627000Y-114627000D01*
X86373000Y-114627000D01*
X85229371Y-114627000D01*
X85108086Y-114849041D01*
X50710000Y-114849041D01*
X50710000Y-114150959D01*
X85108086Y-114150959D01*
X85229371Y-114373000D01*
X86373000Y-114373000D01*
X86373000Y-113230085D01*
X86627000Y-113230085D01*
X86627000Y-114373000D01*
X87770629Y-114373000D01*
X87891914Y-114150959D01*
X87652389Y-113644866D01*
X87237423Y-113268959D01*
X86849039Y-113108096D01*
X86627000Y-113230085D01*
X86373000Y-113230085D01*
X86150961Y-113108096D01*
X85762577Y-113268959D01*
X85347611Y-113644866D01*
X85108086Y-114150959D01*
X50710000Y-114150959D01*
X50710000Y-104405750D01*
X72865000Y-104405750D01*
X72865000Y-105746309D01*
X72961673Y-105979698D01*
X73140301Y-106158327D01*
X73373690Y-106255000D01*
X74714250Y-106255000D01*
X74873000Y-106096250D01*
X74873000Y-104247000D01*
X75127000Y-104247000D01*
X75127000Y-106096250D01*
X75285750Y-106255000D01*
X76626310Y-106255000D01*
X76859699Y-106158327D01*
X77038327Y-105979698D01*
X77135000Y-105746309D01*
X77135000Y-104405750D01*
X76976250Y-104247000D01*
X75127000Y-104247000D01*
X74873000Y-104247000D01*
X73023750Y-104247000D01*
X72865000Y-104405750D01*
X50710000Y-104405750D01*
X50710000Y-102493691D01*
X72865000Y-102493691D01*
X72865000Y-103834250D01*
X73023750Y-103993000D01*
X74873000Y-103993000D01*
X74873000Y-102143750D01*
X75127000Y-102143750D01*
X75127000Y-103993000D01*
X76976250Y-103993000D01*
X77135000Y-103834250D01*
X77135000Y-102493691D01*
X77038327Y-102260302D01*
X76859699Y-102081673D01*
X76626310Y-101985000D01*
X75285750Y-101985000D01*
X75127000Y-102143750D01*
X74873000Y-102143750D01*
X74714250Y-101985000D01*
X73373690Y-101985000D01*
X73140301Y-102081673D01*
X72961673Y-102260302D01*
X72865000Y-102493691D01*
X50710000Y-102493691D01*
X50710000Y-91422815D01*
X59864630Y-91422815D01*
X60188980Y-92207800D01*
X60789041Y-92808909D01*
X61573459Y-93134628D01*
X62422815Y-93135370D01*
X62980352Y-92905000D01*
X74020454Y-92905000D01*
X74573459Y-93134628D01*
X75422815Y-93135370D01*
X75980352Y-92905000D01*
X82210924Y-92905000D01*
X84595000Y-95289077D01*
X84595000Y-100710923D01*
X78010924Y-107295000D01*
X75979546Y-107295000D01*
X75426541Y-107065372D01*
X74577185Y-107064630D01*
X73792200Y-107388980D01*
X73191091Y-107989041D01*
X72865372Y-108773459D01*
X72864630Y-109622815D01*
X73188980Y-110407800D01*
X73789041Y-111008909D01*
X74573459Y-111334628D01*
X75422815Y-111335370D01*
X75980352Y-111105000D01*
X78800000Y-111105000D01*
X79529012Y-110959991D01*
X80147038Y-110547038D01*
X87847038Y-102847039D01*
X88259991Y-102229013D01*
X88308528Y-101985000D01*
X88405000Y-101500000D01*
X88405000Y-94500000D01*
X88259991Y-93770988D01*
X88259991Y-93770987D01*
X87847038Y-93152961D01*
X85693758Y-90999682D01*
X87847038Y-88846402D01*
X88259991Y-88228376D01*
X88405000Y-87499364D01*
X88405000Y-84300000D01*
X88259991Y-83570988D01*
X87847038Y-82952962D01*
X77039684Y-72145608D01*
X76811020Y-71592200D01*
X76210959Y-70991091D01*
X75426541Y-70665372D01*
X74577185Y-70664630D01*
X73792200Y-70988980D01*
X73191091Y-71589041D01*
X72865372Y-72373459D01*
X72864630Y-73222815D01*
X73188980Y-74007800D01*
X73789041Y-74608909D01*
X74346176Y-74840252D01*
X84595000Y-85089076D01*
X84595000Y-86710288D01*
X82210288Y-89095000D01*
X75979546Y-89095000D01*
X75426541Y-88865372D01*
X74577185Y-88864630D01*
X74019648Y-89095000D01*
X62979546Y-89095000D01*
X62426541Y-88865372D01*
X61577185Y-88864630D01*
X60792200Y-89188980D01*
X60191091Y-89789041D01*
X59865372Y-90573459D01*
X59864630Y-91422815D01*
X50710000Y-91422815D01*
X50710000Y-86205750D01*
X59865000Y-86205750D01*
X59865000Y-87546309D01*
X59961673Y-87779698D01*
X60140301Y-87958327D01*
X60373690Y-88055000D01*
X61714250Y-88055000D01*
X61873000Y-87896250D01*
X61873000Y-86047000D01*
X62127000Y-86047000D01*
X62127000Y-87896250D01*
X62285750Y-88055000D01*
X63626310Y-88055000D01*
X63859699Y-87958327D01*
X64038327Y-87779698D01*
X64135000Y-87546309D01*
X64135000Y-86205750D01*
X72865000Y-86205750D01*
X72865000Y-87546309D01*
X72961673Y-87779698D01*
X73140301Y-87958327D01*
X73373690Y-88055000D01*
X74714250Y-88055000D01*
X74873000Y-87896250D01*
X74873000Y-86047000D01*
X75127000Y-86047000D01*
X75127000Y-87896250D01*
X75285750Y-88055000D01*
X76626310Y-88055000D01*
X76859699Y-87958327D01*
X77038327Y-87779698D01*
X77135000Y-87546309D01*
X77135000Y-86205750D01*
X76976250Y-86047000D01*
X75127000Y-86047000D01*
X74873000Y-86047000D01*
X73023750Y-86047000D01*
X72865000Y-86205750D01*
X64135000Y-86205750D01*
X63976250Y-86047000D01*
X62127000Y-86047000D01*
X61873000Y-86047000D01*
X60023750Y-86047000D01*
X59865000Y-86205750D01*
X50710000Y-86205750D01*
X50710000Y-84293691D01*
X59865000Y-84293691D01*
X59865000Y-85634250D01*
X60023750Y-85793000D01*
X61873000Y-85793000D01*
X61873000Y-83943750D01*
X62127000Y-83943750D01*
X62127000Y-85793000D01*
X63976250Y-85793000D01*
X64135000Y-85634250D01*
X64135000Y-84293691D01*
X72865000Y-84293691D01*
X72865000Y-85634250D01*
X73023750Y-85793000D01*
X74873000Y-85793000D01*
X74873000Y-83943750D01*
X75127000Y-83943750D01*
X75127000Y-85793000D01*
X76976250Y-85793000D01*
X77135000Y-85634250D01*
X77135000Y-84293691D01*
X77038327Y-84060302D01*
X76859699Y-83881673D01*
X76626310Y-83785000D01*
X75285750Y-83785000D01*
X75127000Y-83943750D01*
X74873000Y-83943750D01*
X74714250Y-83785000D01*
X73373690Y-83785000D01*
X73140301Y-83881673D01*
X72961673Y-84060302D01*
X72865000Y-84293691D01*
X64135000Y-84293691D01*
X64038327Y-84060302D01*
X63859699Y-83881673D01*
X63626310Y-83785000D01*
X62285750Y-83785000D01*
X62127000Y-83943750D01*
X61873000Y-83943750D01*
X61714250Y-83785000D01*
X60373690Y-83785000D01*
X60140301Y-83881673D01*
X59961673Y-84060302D01*
X59865000Y-84293691D01*
X50710000Y-84293691D01*
X50710000Y-68005750D01*
X72865000Y-68005750D01*
X72865000Y-69346309D01*
X72961673Y-69579698D01*
X73140301Y-69758327D01*
X73373690Y-69855000D01*
X74714250Y-69855000D01*
X74873000Y-69696250D01*
X74873000Y-67847000D01*
X75127000Y-67847000D01*
X75127000Y-69696250D01*
X75285750Y-69855000D01*
X76626310Y-69855000D01*
X76859699Y-69758327D01*
X77038327Y-69579698D01*
X77135000Y-69346309D01*
X77135000Y-68005750D01*
X76976250Y-67847000D01*
X75127000Y-67847000D01*
X74873000Y-67847000D01*
X73023750Y-67847000D01*
X72865000Y-68005750D01*
X50710000Y-68005750D01*
X50710000Y-66093691D01*
X72865000Y-66093691D01*
X72865000Y-67434250D01*
X73023750Y-67593000D01*
X74873000Y-67593000D01*
X74873000Y-65743750D01*
X75127000Y-65743750D01*
X75127000Y-67593000D01*
X76976250Y-67593000D01*
X77135000Y-67434250D01*
X77135000Y-66093691D01*
X77038327Y-65860302D01*
X76859699Y-65681673D01*
X76626310Y-65585000D01*
X75285750Y-65585000D01*
X75127000Y-65743750D01*
X74873000Y-65743750D01*
X74714250Y-65585000D01*
X73373690Y-65585000D01*
X73140301Y-65681673D01*
X72961673Y-65860302D01*
X72865000Y-66093691D01*
X50710000Y-66093691D01*
X50710000Y-60849041D01*
X85108086Y-60849041D01*
X85347611Y-61355134D01*
X85762577Y-61731041D01*
X86150961Y-61891904D01*
X86373000Y-61769915D01*
X86373000Y-60627000D01*
X86627000Y-60627000D01*
X86627000Y-61769915D01*
X86849039Y-61891904D01*
X87237423Y-61731041D01*
X87652389Y-61355134D01*
X87891914Y-60849041D01*
X87770629Y-60627000D01*
X86627000Y-60627000D01*
X86373000Y-60627000D01*
X85229371Y-60627000D01*
X85108086Y-60849041D01*
X50710000Y-60849041D01*
X50710000Y-60150959D01*
X85108086Y-60150959D01*
X85229371Y-60373000D01*
X86373000Y-60373000D01*
X86373000Y-59230085D01*
X86627000Y-59230085D01*
X86627000Y-60373000D01*
X87770629Y-60373000D01*
X87891914Y-60150959D01*
X87652389Y-59644866D01*
X87237423Y-59268959D01*
X86849039Y-59108096D01*
X86627000Y-59230085D01*
X86373000Y-59230085D01*
X86150961Y-59108096D01*
X85762577Y-59268959D01*
X85347611Y-59644866D01*
X85108086Y-60150959D01*
X50710000Y-60150959D01*
X50710000Y-53942619D01*
X51264613Y-53942619D01*
X51604155Y-54764372D01*
X52232321Y-55393636D01*
X53053481Y-55734611D01*
X53942619Y-55735387D01*
X54764372Y-55395845D01*
X55393636Y-54767679D01*
X55734611Y-53946519D01*
X55735387Y-53057381D01*
X55395845Y-52235628D01*
X54767679Y-51606364D01*
X53946519Y-51265389D01*
X53057381Y-51264613D01*
X52235628Y-51604155D01*
X51606364Y-52232321D01*
X51265389Y-53053481D01*
X51264613Y-53942619D01*
X50710000Y-53942619D01*
X50710000Y-50710000D01*
X89373000Y-50710000D01*
X89373000Y-124290000D01*
X89373000Y-124290000D01*
G37*
X89373000Y-124290000D02*
X50710000Y-124290000D01*
X50710000Y-121942619D01*
X51264613Y-121942619D01*
X51604155Y-122764372D01*
X52232321Y-123393636D01*
X53053481Y-123734611D01*
X53942619Y-123735387D01*
X54764372Y-123395845D01*
X55393636Y-122767679D01*
X55734611Y-121946519D01*
X55735387Y-121057381D01*
X55395845Y-120235628D01*
X54767679Y-119606364D01*
X53946519Y-119265389D01*
X53057381Y-119264613D01*
X52235628Y-119604155D01*
X51606364Y-120232321D01*
X51265389Y-121053481D01*
X51264613Y-121942619D01*
X50710000Y-121942619D01*
X50710000Y-114849041D01*
X85108086Y-114849041D01*
X85347611Y-115355134D01*
X85762577Y-115731041D01*
X86150961Y-115891904D01*
X86373000Y-115769915D01*
X86373000Y-114627000D01*
X86627000Y-114627000D01*
X86627000Y-115769915D01*
X86849039Y-115891904D01*
X87237423Y-115731041D01*
X87652389Y-115355134D01*
X87891914Y-114849041D01*
X87770629Y-114627000D01*
X86627000Y-114627000D01*
X86373000Y-114627000D01*
X85229371Y-114627000D01*
X85108086Y-114849041D01*
X50710000Y-114849041D01*
X50710000Y-114150959D01*
X85108086Y-114150959D01*
X85229371Y-114373000D01*
X86373000Y-114373000D01*
X86373000Y-113230085D01*
X86627000Y-113230085D01*
X86627000Y-114373000D01*
X87770629Y-114373000D01*
X87891914Y-114150959D01*
X87652389Y-113644866D01*
X87237423Y-113268959D01*
X86849039Y-113108096D01*
X86627000Y-113230085D01*
X86373000Y-113230085D01*
X86150961Y-113108096D01*
X85762577Y-113268959D01*
X85347611Y-113644866D01*
X85108086Y-114150959D01*
X50710000Y-114150959D01*
X50710000Y-104405750D01*
X72865000Y-104405750D01*
X72865000Y-105746309D01*
X72961673Y-105979698D01*
X73140301Y-106158327D01*
X73373690Y-106255000D01*
X74714250Y-106255000D01*
X74873000Y-106096250D01*
X74873000Y-104247000D01*
X75127000Y-104247000D01*
X75127000Y-106096250D01*
X75285750Y-106255000D01*
X76626310Y-106255000D01*
X76859699Y-106158327D01*
X77038327Y-105979698D01*
X77135000Y-105746309D01*
X77135000Y-104405750D01*
X76976250Y-104247000D01*
X75127000Y-104247000D01*
X74873000Y-104247000D01*
X73023750Y-104247000D01*
X72865000Y-104405750D01*
X50710000Y-104405750D01*
X50710000Y-102493691D01*
X72865000Y-102493691D01*
X72865000Y-103834250D01*
X73023750Y-103993000D01*
X74873000Y-103993000D01*
X74873000Y-102143750D01*
X75127000Y-102143750D01*
X75127000Y-103993000D01*
X76976250Y-103993000D01*
X77135000Y-103834250D01*
X77135000Y-102493691D01*
X77038327Y-102260302D01*
X76859699Y-102081673D01*
X76626310Y-101985000D01*
X75285750Y-101985000D01*
X75127000Y-102143750D01*
X74873000Y-102143750D01*
X74714250Y-101985000D01*
X73373690Y-101985000D01*
X73140301Y-102081673D01*
X72961673Y-102260302D01*
X72865000Y-102493691D01*
X50710000Y-102493691D01*
X50710000Y-91422815D01*
X59864630Y-91422815D01*
X60188980Y-92207800D01*
X60789041Y-92808909D01*
X61573459Y-93134628D01*
X62422815Y-93135370D01*
X62980352Y-92905000D01*
X74020454Y-92905000D01*
X74573459Y-93134628D01*
X75422815Y-93135370D01*
X75980352Y-92905000D01*
X82210924Y-92905000D01*
X84595000Y-95289077D01*
X84595000Y-100710923D01*
X78010924Y-107295000D01*
X75979546Y-107295000D01*
X75426541Y-107065372D01*
X74577185Y-107064630D01*
X73792200Y-107388980D01*
X73191091Y-107989041D01*
X72865372Y-108773459D01*
X72864630Y-109622815D01*
X73188980Y-110407800D01*
X73789041Y-111008909D01*
X74573459Y-111334628D01*
X75422815Y-111335370D01*
X75980352Y-111105000D01*
X78800000Y-111105000D01*
X79529012Y-110959991D01*
X80147038Y-110547038D01*
X87847038Y-102847039D01*
X88259991Y-102229013D01*
X88308528Y-101985000D01*
X88405000Y-101500000D01*
X88405000Y-94500000D01*
X88259991Y-93770988D01*
X88259991Y-93770987D01*
X87847038Y-93152961D01*
X85693758Y-90999682D01*
X87847038Y-88846402D01*
X88259991Y-88228376D01*
X88405000Y-87499364D01*
X88405000Y-84300000D01*
X88259991Y-83570988D01*
X87847038Y-82952962D01*
X77039684Y-72145608D01*
X76811020Y-71592200D01*
X76210959Y-70991091D01*
X75426541Y-70665372D01*
X74577185Y-70664630D01*
X73792200Y-70988980D01*
X73191091Y-71589041D01*
X72865372Y-72373459D01*
X72864630Y-73222815D01*
X73188980Y-74007800D01*
X73789041Y-74608909D01*
X74346176Y-74840252D01*
X84595000Y-85089076D01*
X84595000Y-86710288D01*
X82210288Y-89095000D01*
X75979546Y-89095000D01*
X75426541Y-88865372D01*
X74577185Y-88864630D01*
X74019648Y-89095000D01*
X62979546Y-89095000D01*
X62426541Y-88865372D01*
X61577185Y-88864630D01*
X60792200Y-89188980D01*
X60191091Y-89789041D01*
X59865372Y-90573459D01*
X59864630Y-91422815D01*
X50710000Y-91422815D01*
X50710000Y-86205750D01*
X59865000Y-86205750D01*
X59865000Y-87546309D01*
X59961673Y-87779698D01*
X60140301Y-87958327D01*
X60373690Y-88055000D01*
X61714250Y-88055000D01*
X61873000Y-87896250D01*
X61873000Y-86047000D01*
X62127000Y-86047000D01*
X62127000Y-87896250D01*
X62285750Y-88055000D01*
X63626310Y-88055000D01*
X63859699Y-87958327D01*
X64038327Y-87779698D01*
X64135000Y-87546309D01*
X64135000Y-86205750D01*
X72865000Y-86205750D01*
X72865000Y-87546309D01*
X72961673Y-87779698D01*
X73140301Y-87958327D01*
X73373690Y-88055000D01*
X74714250Y-88055000D01*
X74873000Y-87896250D01*
X74873000Y-86047000D01*
X75127000Y-86047000D01*
X75127000Y-87896250D01*
X75285750Y-88055000D01*
X76626310Y-88055000D01*
X76859699Y-87958327D01*
X77038327Y-87779698D01*
X77135000Y-87546309D01*
X77135000Y-86205750D01*
X76976250Y-86047000D01*
X75127000Y-86047000D01*
X74873000Y-86047000D01*
X73023750Y-86047000D01*
X72865000Y-86205750D01*
X64135000Y-86205750D01*
X63976250Y-86047000D01*
X62127000Y-86047000D01*
X61873000Y-86047000D01*
X60023750Y-86047000D01*
X59865000Y-86205750D01*
X50710000Y-86205750D01*
X50710000Y-84293691D01*
X59865000Y-84293691D01*
X59865000Y-85634250D01*
X60023750Y-85793000D01*
X61873000Y-85793000D01*
X61873000Y-83943750D01*
X62127000Y-83943750D01*
X62127000Y-85793000D01*
X63976250Y-85793000D01*
X64135000Y-85634250D01*
X64135000Y-84293691D01*
X72865000Y-84293691D01*
X72865000Y-85634250D01*
X73023750Y-85793000D01*
X74873000Y-85793000D01*
X74873000Y-83943750D01*
X75127000Y-83943750D01*
X75127000Y-85793000D01*
X76976250Y-85793000D01*
X77135000Y-85634250D01*
X77135000Y-84293691D01*
X77038327Y-84060302D01*
X76859699Y-83881673D01*
X76626310Y-83785000D01*
X75285750Y-83785000D01*
X75127000Y-83943750D01*
X74873000Y-83943750D01*
X74714250Y-83785000D01*
X73373690Y-83785000D01*
X73140301Y-83881673D01*
X72961673Y-84060302D01*
X72865000Y-84293691D01*
X64135000Y-84293691D01*
X64038327Y-84060302D01*
X63859699Y-83881673D01*
X63626310Y-83785000D01*
X62285750Y-83785000D01*
X62127000Y-83943750D01*
X61873000Y-83943750D01*
X61714250Y-83785000D01*
X60373690Y-83785000D01*
X60140301Y-83881673D01*
X59961673Y-84060302D01*
X59865000Y-84293691D01*
X50710000Y-84293691D01*
X50710000Y-68005750D01*
X72865000Y-68005750D01*
X72865000Y-69346309D01*
X72961673Y-69579698D01*
X73140301Y-69758327D01*
X73373690Y-69855000D01*
X74714250Y-69855000D01*
X74873000Y-69696250D01*
X74873000Y-67847000D01*
X75127000Y-67847000D01*
X75127000Y-69696250D01*
X75285750Y-69855000D01*
X76626310Y-69855000D01*
X76859699Y-69758327D01*
X77038327Y-69579698D01*
X77135000Y-69346309D01*
X77135000Y-68005750D01*
X76976250Y-67847000D01*
X75127000Y-67847000D01*
X74873000Y-67847000D01*
X73023750Y-67847000D01*
X72865000Y-68005750D01*
X50710000Y-68005750D01*
X50710000Y-66093691D01*
X72865000Y-66093691D01*
X72865000Y-67434250D01*
X73023750Y-67593000D01*
X74873000Y-67593000D01*
X74873000Y-65743750D01*
X75127000Y-65743750D01*
X75127000Y-67593000D01*
X76976250Y-67593000D01*
X77135000Y-67434250D01*
X77135000Y-66093691D01*
X77038327Y-65860302D01*
X76859699Y-65681673D01*
X76626310Y-65585000D01*
X75285750Y-65585000D01*
X75127000Y-65743750D01*
X74873000Y-65743750D01*
X74714250Y-65585000D01*
X73373690Y-65585000D01*
X73140301Y-65681673D01*
X72961673Y-65860302D01*
X72865000Y-66093691D01*
X50710000Y-66093691D01*
X50710000Y-60849041D01*
X85108086Y-60849041D01*
X85347611Y-61355134D01*
X85762577Y-61731041D01*
X86150961Y-61891904D01*
X86373000Y-61769915D01*
X86373000Y-60627000D01*
X86627000Y-60627000D01*
X86627000Y-61769915D01*
X86849039Y-61891904D01*
X87237423Y-61731041D01*
X87652389Y-61355134D01*
X87891914Y-60849041D01*
X87770629Y-60627000D01*
X86627000Y-60627000D01*
X86373000Y-60627000D01*
X85229371Y-60627000D01*
X85108086Y-60849041D01*
X50710000Y-60849041D01*
X50710000Y-60150959D01*
X85108086Y-60150959D01*
X85229371Y-60373000D01*
X86373000Y-60373000D01*
X86373000Y-59230085D01*
X86627000Y-59230085D01*
X86627000Y-60373000D01*
X87770629Y-60373000D01*
X87891914Y-60150959D01*
X87652389Y-59644866D01*
X87237423Y-59268959D01*
X86849039Y-59108096D01*
X86627000Y-59230085D01*
X86373000Y-59230085D01*
X86150961Y-59108096D01*
X85762577Y-59268959D01*
X85347611Y-59644866D01*
X85108086Y-60150959D01*
X50710000Y-60150959D01*
X50710000Y-53942619D01*
X51264613Y-53942619D01*
X51604155Y-54764372D01*
X52232321Y-55393636D01*
X53053481Y-55734611D01*
X53942619Y-55735387D01*
X54764372Y-55395845D01*
X55393636Y-54767679D01*
X55734611Y-53946519D01*
X55735387Y-53057381D01*
X55395845Y-52235628D01*
X54767679Y-51606364D01*
X53946519Y-51265389D01*
X53057381Y-51264613D01*
X52235628Y-51604155D01*
X51606364Y-52232321D01*
X51265389Y-53053481D01*
X51264613Y-53942619D01*
X50710000Y-53942619D01*
X50710000Y-50710000D01*
X89373000Y-50710000D01*
X89373000Y-124290000D01*
M02*
