G04 #@! TF.FileFunction,Copper,L1,Top,Signal*
%FSLAX46Y46*%
G04 Gerber Fmt 4.6, Leading zero omitted, Abs format (unit mm)*
G04 Created by KiCad (PCBNEW 4.0.4-stable) date 05/10/17 14:11:39*
%MOMM*%
%LPD*%
G01*
G04 APERTURE LIST*
%ADD10C,0.100000*%
%ADD11R,1.200000X1.200000*%
%ADD12R,1.250000X1.000000*%
%ADD13R,1.000000X1.250000*%
%ADD14R,1.500000X0.350000*%
%ADD15R,3.000000X3.000000*%
%ADD16C,3.000000*%
%ADD17R,1.300000X0.700000*%
%ADD18R,0.700000X1.300000*%
%ADD19C,0.750000*%
%ADD20C,0.850000*%
%ADD21C,1.000000*%
%ADD22C,1.500000*%
%ADD23C,2.700000*%
%ADD24R,2.300000X0.500000*%
%ADD25R,2.500000X2.000000*%
%ADD26C,1.600000*%
%ADD27O,1.600000X1.600000*%
%ADD28R,1.050000X1.100000*%
%ADD29C,0.685800*%
%ADD30C,0.254000*%
%ADD31C,2.540000*%
%ADD32C,0.508000*%
%ADD33C,0.381000*%
%ADD34C,0.152400*%
G04 APERTURE END LIST*
D10*
D11*
X123600000Y-99000000D03*
X121400000Y-99000000D03*
D12*
X106500000Y-108000000D03*
X106500000Y-110000000D03*
D13*
X119000000Y-112000000D03*
X117000000Y-112000000D03*
X121000000Y-112000000D03*
X123000000Y-112000000D03*
X112500000Y-92500000D03*
X110500000Y-92500000D03*
D12*
X112500000Y-108000000D03*
X112500000Y-110000000D03*
X110500000Y-108000000D03*
X110500000Y-110000000D03*
D14*
X114200000Y-102320000D03*
X108800000Y-102320000D03*
X114200000Y-101700000D03*
X108800000Y-101680000D03*
X108800000Y-102960000D03*
X114200000Y-102960000D03*
X114200000Y-103600000D03*
X108800000Y-103600000D03*
X108800000Y-101040000D03*
X108800000Y-100400000D03*
X114200000Y-101040000D03*
X114200000Y-100400000D03*
X114200000Y-104240000D03*
X114200000Y-99760000D03*
X108800000Y-99760000D03*
X108800000Y-104240000D03*
X114200000Y-104880000D03*
X108800000Y-104880000D03*
X108800000Y-99120000D03*
X114200000Y-99120000D03*
X114200000Y-98480000D03*
X108800000Y-98480000D03*
X108800000Y-105520000D03*
X114200000Y-105520000D03*
X114200000Y-106160000D03*
X108800000Y-106160000D03*
X108800000Y-97840000D03*
X114200000Y-97840000D03*
D15*
X62000000Y-85920000D03*
D16*
X62000000Y-91000000D03*
D15*
X75000000Y-85920000D03*
D16*
X75000000Y-91000000D03*
D15*
X75000000Y-67720000D03*
D16*
X75000000Y-72800000D03*
D15*
X75000000Y-104120000D03*
D16*
X75000000Y-109200000D03*
D11*
X121400000Y-97000000D03*
X123600000Y-97000000D03*
X123600000Y-95000000D03*
X121400000Y-95000000D03*
X121400000Y-93000000D03*
X123600000Y-93000000D03*
X123600000Y-91000000D03*
X121400000Y-91000000D03*
D17*
X116000000Y-108050000D03*
X116000000Y-109950000D03*
X118500000Y-110000000D03*
X118500000Y-108100000D03*
D18*
X121550000Y-105000000D03*
X123450000Y-105000000D03*
X115000000Y-93000000D03*
X116900000Y-93000000D03*
X121550000Y-102000000D03*
X123450000Y-102000000D03*
D17*
X108500000Y-109950000D03*
X108500000Y-108050000D03*
D19*
X100000000Y-109200000D03*
X99350000Y-108550000D03*
X98700000Y-109200000D03*
X100650000Y-108550000D03*
X101300000Y-109200000D03*
D20*
X98500000Y-107620000D03*
X101500000Y-107620000D03*
X101500000Y-110120000D03*
X98500000Y-110120000D03*
D21*
X96675000Y-108580000D03*
X103325000Y-108580000D03*
D19*
X100000000Y-91000000D03*
X99350000Y-90350000D03*
X98700000Y-91000000D03*
X100650000Y-90350000D03*
X101300000Y-91000000D03*
D20*
X98500000Y-89420000D03*
X101500000Y-89420000D03*
X101500000Y-91920000D03*
X98500000Y-91920000D03*
D21*
X96675000Y-90380000D03*
X103325000Y-90380000D03*
D19*
X100000000Y-72800000D03*
X99350000Y-72150000D03*
X98700000Y-72800000D03*
X100650000Y-72150000D03*
X101300000Y-72800000D03*
D20*
X98500000Y-71220000D03*
X101500000Y-71220000D03*
X101500000Y-73720000D03*
X98500000Y-73720000D03*
D21*
X96675000Y-72180000D03*
X103325000Y-72180000D03*
D22*
X99000000Y-55500000D03*
X101000000Y-55500000D03*
X103000000Y-55500000D03*
X97000000Y-55500000D03*
D16*
X93430000Y-52790000D03*
X106570000Y-52790000D03*
D21*
X114300000Y-81300000D03*
X114300000Y-79700000D03*
X114300000Y-82900000D03*
X112400000Y-82100000D03*
X112400000Y-80500000D03*
D23*
X113400000Y-77100000D03*
X113400000Y-85500000D03*
D22*
X113200000Y-60060000D03*
X113200000Y-62600000D03*
X113200000Y-64630000D03*
X113200000Y-67170000D03*
D16*
X115870000Y-57010000D03*
X115870000Y-70730000D03*
D24*
X117700000Y-82900000D03*
X117700000Y-82100000D03*
X117700000Y-81300000D03*
X117700000Y-80500000D03*
X117700000Y-79700000D03*
D25*
X117800000Y-85750000D03*
X123300000Y-85750000D03*
X117800000Y-76850000D03*
X123300000Y-76850000D03*
D26*
X86500000Y-85500000D03*
D27*
X86500000Y-60500000D03*
D26*
X86500000Y-94500000D03*
D27*
X86500000Y-114500000D03*
D28*
X112425000Y-95000000D03*
X110575000Y-95000000D03*
D29*
X123500000Y-100250000D03*
X116644398Y-101700000D03*
X119000000Y-106000000D03*
X117000000Y-104000000D03*
X120249310Y-100961227D03*
X116000000Y-101000000D03*
X116000000Y-107000000D03*
X116000000Y-104500000D03*
X123250000Y-89250000D03*
X116900000Y-93000000D03*
X101000000Y-76000000D03*
X98726362Y-93497814D03*
X108000000Y-65000000D03*
X107000000Y-65000000D03*
D30*
X123600000Y-99000000D02*
X123600000Y-100150000D01*
X123600000Y-100150000D02*
X123500000Y-100250000D01*
X121400000Y-97000000D02*
X121600000Y-97000000D01*
X121600000Y-97000000D02*
X123600000Y-99000000D01*
X121400000Y-95000000D02*
X121400000Y-97000000D01*
X114200000Y-101700000D02*
X116644398Y-101700000D01*
X121400000Y-95000000D02*
X121600000Y-95000000D01*
X121400000Y-93000000D02*
X121400000Y-95000000D01*
X121400000Y-91000000D02*
X121400000Y-93000000D01*
X121400000Y-100400000D02*
X121550000Y-100550000D01*
X121550000Y-100550000D02*
X121550000Y-102000000D01*
X121400000Y-99000000D02*
X121400000Y-100400000D01*
D31*
X86500000Y-94500000D02*
X86500000Y-101500000D01*
X86500000Y-101500000D02*
X78800000Y-109200000D01*
X78800000Y-109200000D02*
X75000000Y-109200000D01*
X75000000Y-91000000D02*
X62000000Y-91000000D01*
X86500000Y-85500000D02*
X86500000Y-84300000D01*
X86500000Y-84300000D02*
X75000000Y-72800000D01*
X86500000Y-85500000D02*
X86500000Y-87500000D01*
X86500000Y-87500000D02*
X83000000Y-91000000D01*
X75000000Y-91000000D02*
X83000000Y-91000000D01*
X83000000Y-91000000D02*
X86500000Y-94500000D01*
X75000000Y-67720000D02*
X71920581Y-67720000D01*
X71920581Y-67720000D02*
X70000000Y-69640581D01*
X70000000Y-76880000D02*
X75000000Y-81880000D01*
X70000000Y-69640581D02*
X70000000Y-76880000D01*
X75000000Y-81880000D02*
X75000000Y-85920000D01*
X62000000Y-85920000D02*
X75000000Y-85920000D01*
X75000000Y-67720000D02*
X79280000Y-67720000D01*
X79280000Y-67720000D02*
X86500000Y-60500000D01*
D30*
X111000000Y-99500000D02*
X112660000Y-97840000D01*
X112660000Y-97840000D02*
X114200000Y-97840000D01*
X111000000Y-103684000D02*
X111000000Y-99500000D01*
X108800000Y-104880000D02*
X109804000Y-104880000D01*
X109804000Y-104880000D02*
X111000000Y-103684000D01*
X114200000Y-97840000D02*
X114200000Y-94193575D01*
X114200000Y-94193575D02*
X112506425Y-92500000D01*
X112506425Y-92500000D02*
X112500000Y-92500000D01*
X107620000Y-104880000D02*
X106500000Y-106000000D01*
X106500000Y-106000000D02*
X106500000Y-108000000D01*
X107620000Y-104880000D02*
X108800000Y-104880000D01*
X108800000Y-97840000D02*
X108800000Y-97411000D01*
X108800000Y-97411000D02*
X109000000Y-97211000D01*
X109000000Y-97211000D02*
X109000000Y-93246000D01*
X109000000Y-93246000D02*
X109746000Y-92500000D01*
X109746000Y-92500000D02*
X110500000Y-92500000D01*
X122500000Y-103250000D02*
X122500000Y-110621000D01*
X123000000Y-111121000D02*
X123000000Y-112000000D01*
X122500000Y-110621000D02*
X123000000Y-111121000D01*
X123450000Y-102000000D02*
X123450000Y-102300000D01*
X123450000Y-102300000D02*
X122500000Y-103250000D01*
D32*
X117700000Y-79700000D02*
X114300000Y-79700000D01*
X94000000Y-60000000D02*
X94000000Y-68000000D01*
X94000000Y-68000000D02*
X94000000Y-86000000D01*
X98700000Y-72800000D02*
X94000000Y-68100000D01*
X94000000Y-68100000D02*
X94000000Y-68000000D01*
X94000000Y-86000000D02*
X94000000Y-104500000D01*
X98700000Y-91000000D02*
X94000000Y-86300000D01*
X94000000Y-86300000D02*
X94000000Y-86000000D01*
X94000000Y-104500000D02*
X98700000Y-109200000D01*
X97000000Y-57000000D02*
X94000000Y-60000000D01*
X97000000Y-55500000D02*
X97000000Y-57000000D01*
X117670000Y-67170000D02*
X116000000Y-67170000D01*
X116000000Y-67170000D02*
X113200000Y-67170000D01*
X112500000Y-57000000D02*
X116000000Y-60500000D01*
X116000000Y-60500000D02*
X116000000Y-67170000D01*
X107000000Y-57000000D02*
X112500000Y-57000000D01*
X102500000Y-52500000D02*
X107000000Y-57000000D01*
X98500000Y-52500000D02*
X102500000Y-52500000D01*
X97000000Y-54000000D02*
X98500000Y-52500000D01*
X97000000Y-55500000D02*
X97000000Y-54000000D01*
X117700000Y-82900000D02*
X119358000Y-82900000D01*
X119358000Y-82900000D02*
X121500000Y-80758000D01*
X121500000Y-80758000D02*
X121500000Y-71000000D01*
X121500000Y-71000000D02*
X117670000Y-67170000D01*
X114300000Y-82900000D02*
X113334084Y-82900000D01*
X113500000Y-89000000D02*
X118000000Y-89000000D01*
X113334084Y-82900000D02*
X112779246Y-83454838D01*
X112779246Y-83454838D02*
X110545162Y-83454838D01*
X110545162Y-83454838D02*
X110000000Y-84000000D01*
X110000000Y-84000000D02*
X110000000Y-85500000D01*
X110000000Y-85500000D02*
X113500000Y-89000000D01*
X118000000Y-89000000D02*
X119500000Y-90500000D01*
X119500000Y-90500000D02*
X119500000Y-106500000D01*
X119500000Y-106500000D02*
X119000000Y-106000000D01*
X120000000Y-111754000D02*
X119754000Y-112000000D01*
X119754000Y-112000000D02*
X119000000Y-112000000D01*
X120000000Y-111754000D02*
X120246000Y-112000000D01*
X120246000Y-112000000D02*
X121000000Y-112000000D01*
X120000000Y-110000000D02*
X120000000Y-111754000D01*
X120000000Y-110000000D02*
X118500000Y-110000000D01*
X120000000Y-107000000D02*
X120000000Y-110000000D01*
X119500000Y-106500000D02*
X120000000Y-107000000D01*
D33*
X114200000Y-102960000D02*
X115960000Y-102960000D01*
X115960000Y-102960000D02*
X117000000Y-104000000D01*
D32*
X117700000Y-82900000D02*
X114300000Y-82900000D01*
D33*
X112500000Y-108000000D02*
X110500000Y-108000000D01*
X110500000Y-106216000D02*
X110500000Y-106089000D01*
X110500000Y-106089000D02*
X109931000Y-105520000D01*
X109931000Y-105520000D02*
X108800000Y-105520000D01*
X110500000Y-106216000D02*
X110500000Y-108000000D01*
X112500000Y-99689000D02*
X112500000Y-103000000D01*
X112500000Y-103000000D02*
X112500000Y-104000000D01*
X114200000Y-102320000D02*
X113069000Y-102320000D01*
X113069000Y-102320000D02*
X112500000Y-102889000D01*
X112500000Y-102889000D02*
X112500000Y-103000000D01*
X114200000Y-103600000D02*
X113069000Y-103600000D01*
X112500000Y-104000000D02*
X112500000Y-105576000D01*
X113069000Y-103600000D02*
X112669000Y-104000000D01*
X112669000Y-104000000D02*
X112500000Y-104000000D01*
X114200000Y-104880000D02*
X113069000Y-104880000D01*
X113069000Y-104880000D02*
X112500000Y-105449000D01*
X112500000Y-105449000D02*
X112500000Y-105576000D01*
X112500000Y-105576000D02*
X112500000Y-108000000D01*
X114200000Y-99120000D02*
X113069000Y-99120000D01*
X113069000Y-99120000D02*
X112500000Y-99689000D01*
D30*
X110500000Y-106216000D02*
X110500000Y-107246000D01*
X110500000Y-107246000D02*
X110500000Y-108000000D01*
X120249310Y-101446160D02*
X120249310Y-100961227D01*
X120249310Y-102795310D02*
X120249310Y-101446160D01*
X121550000Y-104096000D02*
X120249310Y-102795310D01*
X121550000Y-105000000D02*
X121550000Y-104096000D01*
X114200000Y-101040000D02*
X115960000Y-101040000D01*
X115960000Y-101040000D02*
X116000000Y-101000000D01*
X115204000Y-100400000D02*
X114200000Y-100400000D01*
X117000000Y-98604000D02*
X115204000Y-100400000D01*
X117000000Y-96000000D02*
X117000000Y-98604000D01*
X115000000Y-94000000D02*
X117000000Y-96000000D01*
X115000000Y-93000000D02*
X115000000Y-94000000D01*
X116000000Y-108050000D02*
X118450000Y-108050000D01*
X118450000Y-108050000D02*
X118500000Y-108100000D01*
X116000000Y-107000000D02*
X116000000Y-108050000D01*
X114200000Y-104240000D02*
X115740000Y-104240000D01*
X115740000Y-104240000D02*
X116000000Y-104500000D01*
X112425000Y-95000000D02*
X112425000Y-96499000D01*
X112425000Y-96499000D02*
X109804000Y-99120000D01*
X109804000Y-99120000D02*
X108800000Y-99120000D01*
X108800000Y-98480000D02*
X109804000Y-98480000D01*
X109804000Y-98480000D02*
X110575000Y-97709000D01*
X110575000Y-97709000D02*
X110575000Y-95000000D01*
X108800000Y-106160000D02*
X108800000Y-107750000D01*
X108800000Y-107750000D02*
X108500000Y-108050000D01*
X123600000Y-97000000D02*
X124454000Y-97000000D01*
X124454000Y-97000000D02*
X124479401Y-97025401D01*
X124479401Y-97025401D02*
X124479401Y-103066599D01*
X124479401Y-103066599D02*
X123450000Y-104096000D01*
X123450000Y-104096000D02*
X123450000Y-105000000D01*
X123600000Y-95000000D02*
X123600000Y-97000000D01*
X123600000Y-91000000D02*
X123600000Y-93000000D01*
X123600000Y-91000000D02*
X123600000Y-89600000D01*
X123600000Y-89600000D02*
X123250000Y-89250000D01*
X108800000Y-101040000D02*
X106842275Y-101040000D01*
X104911625Y-99109350D02*
X104911625Y-82068912D01*
X106842275Y-101040000D02*
X104911625Y-99109350D01*
X104911625Y-82068912D02*
X101000000Y-78157287D01*
X101000000Y-78157287D02*
X101000000Y-76000000D01*
X98726362Y-93982747D02*
X98726362Y-93497814D01*
X104623461Y-102960000D02*
X98726362Y-97062901D01*
X108800000Y-102960000D02*
X104623461Y-102960000D01*
X98726362Y-97062901D02*
X98726362Y-93982747D01*
X108800000Y-101680000D02*
X106605250Y-101680000D01*
X106605250Y-101680000D02*
X104312198Y-99386948D01*
X104312198Y-99386948D02*
X104312198Y-82386948D01*
X104312198Y-82386948D02*
X100000000Y-78074750D01*
X100000000Y-78074750D02*
X100000000Y-73330330D01*
X100000000Y-73330330D02*
X100000000Y-72800000D01*
X108000000Y-65000000D02*
X106651593Y-66348407D01*
X106651593Y-66348407D02*
X106651593Y-98923873D01*
X106651593Y-98923873D02*
X107487720Y-99760000D01*
X107487720Y-99760000D02*
X108800000Y-99760000D01*
X113200000Y-64630000D02*
X112507642Y-63937642D01*
X112507642Y-63937642D02*
X104209142Y-63937642D01*
X104209142Y-63937642D02*
X99652256Y-59380756D01*
X99652256Y-59380756D02*
X99652256Y-56152256D01*
X99652256Y-56152256D02*
X99000000Y-55500000D01*
X108800000Y-102320000D02*
X104820000Y-102320000D01*
X99350000Y-96850000D02*
X104820000Y-102320000D01*
X99350000Y-92350000D02*
X99350000Y-96850000D01*
D34*
X99350000Y-90350000D02*
X99350000Y-92350000D01*
D30*
X108800000Y-104240000D02*
X100760000Y-104240000D01*
X100000000Y-105000000D02*
X100760000Y-104240000D01*
X100000000Y-107500000D02*
X100000000Y-105000000D01*
D34*
X100000000Y-109200000D02*
X100000000Y-107500000D01*
D30*
X100400000Y-103600000D02*
X108800000Y-103600000D01*
X100400000Y-103600000D02*
X99350000Y-104650000D01*
X99350000Y-104650000D02*
X99350000Y-108550000D01*
X101000000Y-55500000D02*
X100156738Y-56343262D01*
X100156738Y-56343262D02*
X100156738Y-59156738D01*
X100156738Y-59156738D02*
X104327226Y-63327226D01*
X104327226Y-63327226D02*
X112472774Y-63327226D01*
X112472774Y-63327226D02*
X113200000Y-62600000D01*
X107000000Y-65000000D02*
X106002695Y-65997305D01*
X106002695Y-65997305D02*
X106002695Y-99219182D01*
X106002695Y-99219182D02*
X107183513Y-100400000D01*
X107183513Y-100400000D02*
X108800000Y-100400000D01*
X114200000Y-105520000D02*
X117019463Y-105520000D01*
X117019463Y-105520000D02*
X117988761Y-104550702D01*
X117988761Y-104550702D02*
X117988761Y-90988761D01*
X108222079Y-82777921D02*
X109700000Y-81300000D01*
X117988761Y-90988761D02*
X117500000Y-90500000D01*
X117500000Y-90500000D02*
X112500000Y-90500000D01*
X112500000Y-90500000D02*
X108222079Y-86222079D01*
X109700000Y-81300000D02*
X111500000Y-81300000D01*
X108222079Y-86222079D02*
X108222079Y-82777921D01*
D34*
X114300000Y-81300000D02*
X111500000Y-81300000D01*
X117700000Y-81300000D02*
X114300000Y-81300000D01*
D30*
X114200000Y-106160000D02*
X117144640Y-106160000D01*
X117144640Y-106160000D02*
X118431914Y-104872726D01*
X118431914Y-104872726D02*
X118431914Y-90857164D01*
X118431914Y-90857164D02*
X117574750Y-90000000D01*
X117574750Y-90000000D02*
X112574750Y-90000000D01*
X112574750Y-90000000D02*
X108701875Y-86127125D01*
X109900000Y-82100000D02*
X112400000Y-82100000D01*
X108701875Y-86127125D02*
X108701875Y-83298125D01*
X108701875Y-83298125D02*
X109900000Y-82100000D01*
D34*
X112400000Y-82100000D02*
X110100000Y-82100000D01*
X117700000Y-82100000D02*
X112400000Y-82100000D01*
D30*
G36*
X92255418Y-50957261D02*
X92095635Y-51276030D01*
X93430000Y-52610395D01*
X94764365Y-51276030D01*
X94604582Y-50957261D01*
X93973819Y-50710000D01*
X105992359Y-50710000D01*
X105395418Y-50957261D01*
X105235635Y-51276030D01*
X106570000Y-52610395D01*
X107904365Y-51276030D01*
X107744582Y-50957261D01*
X107113819Y-50710000D01*
X124290000Y-50710000D01*
X124290000Y-75215000D01*
X123585750Y-75215000D01*
X123427000Y-75373750D01*
X123427000Y-76723000D01*
X123447000Y-76723000D01*
X123447000Y-76977000D01*
X123427000Y-76977000D01*
X123427000Y-78326250D01*
X123585750Y-78485000D01*
X124290000Y-78485000D01*
X124290000Y-84115000D01*
X123585750Y-84115000D01*
X123427000Y-84273750D01*
X123427000Y-85623000D01*
X123447000Y-85623000D01*
X123447000Y-85877000D01*
X123427000Y-85877000D01*
X123427000Y-87226250D01*
X123585750Y-87385000D01*
X124290000Y-87385000D01*
X124290000Y-89287449D01*
X124237834Y-89209377D01*
X124227949Y-89194582D01*
X124228069Y-89056337D01*
X124079507Y-88696788D01*
X123804659Y-88421460D01*
X123445370Y-88272270D01*
X123056337Y-88271931D01*
X122696788Y-88420493D01*
X122421460Y-88695341D01*
X122272270Y-89054630D01*
X122271931Y-89443663D01*
X122420493Y-89803212D01*
X122551238Y-89934186D01*
X122548559Y-89935910D01*
X122500866Y-90005711D01*
X122464090Y-89948559D01*
X122251890Y-89803569D01*
X122000000Y-89752560D01*
X120800000Y-89752560D01*
X120564683Y-89796838D01*
X120348559Y-89935910D01*
X120259159Y-90066751D01*
X120128618Y-89871382D01*
X118628618Y-88371382D01*
X118591721Y-88346728D01*
X118340206Y-88178671D01*
X118000000Y-88111000D01*
X113868236Y-88111000D01*
X113246398Y-87489162D01*
X113841418Y-87475164D01*
X114484522Y-87208782D01*
X114625988Y-86905593D01*
X113400000Y-85679605D01*
X113385858Y-85693748D01*
X113206253Y-85514143D01*
X113220395Y-85500000D01*
X113579605Y-85500000D01*
X114805593Y-86725988D01*
X115108782Y-86584522D01*
X115321110Y-86035750D01*
X115915000Y-86035750D01*
X115915000Y-86876310D01*
X116011673Y-87109699D01*
X116190302Y-87288327D01*
X116423691Y-87385000D01*
X117514250Y-87385000D01*
X117673000Y-87226250D01*
X117673000Y-85877000D01*
X117927000Y-85877000D01*
X117927000Y-87226250D01*
X118085750Y-87385000D01*
X119176309Y-87385000D01*
X119409698Y-87288327D01*
X119588327Y-87109699D01*
X119685000Y-86876310D01*
X119685000Y-86035750D01*
X121415000Y-86035750D01*
X121415000Y-86876310D01*
X121511673Y-87109699D01*
X121690302Y-87288327D01*
X121923691Y-87385000D01*
X123014250Y-87385000D01*
X123173000Y-87226250D01*
X123173000Y-85877000D01*
X121573750Y-85877000D01*
X121415000Y-86035750D01*
X119685000Y-86035750D01*
X119526250Y-85877000D01*
X117927000Y-85877000D01*
X117673000Y-85877000D01*
X116073750Y-85877000D01*
X115915000Y-86035750D01*
X115321110Y-86035750D01*
X115393737Y-85848045D01*
X115375164Y-85058582D01*
X115195027Y-84623690D01*
X115915000Y-84623690D01*
X115915000Y-85464250D01*
X116073750Y-85623000D01*
X117673000Y-85623000D01*
X117673000Y-84273750D01*
X117927000Y-84273750D01*
X117927000Y-85623000D01*
X119526250Y-85623000D01*
X119685000Y-85464250D01*
X119685000Y-84623690D01*
X121415000Y-84623690D01*
X121415000Y-85464250D01*
X121573750Y-85623000D01*
X123173000Y-85623000D01*
X123173000Y-84273750D01*
X123014250Y-84115000D01*
X121923691Y-84115000D01*
X121690302Y-84211673D01*
X121511673Y-84390301D01*
X121415000Y-84623690D01*
X119685000Y-84623690D01*
X119588327Y-84390301D01*
X119409698Y-84211673D01*
X119176309Y-84115000D01*
X118085750Y-84115000D01*
X117927000Y-84273750D01*
X117673000Y-84273750D01*
X117514250Y-84115000D01*
X116423691Y-84115000D01*
X116190302Y-84211673D01*
X116011673Y-84390301D01*
X115915000Y-84623690D01*
X115195027Y-84623690D01*
X115108782Y-84415478D01*
X114805593Y-84274012D01*
X113579605Y-85500000D01*
X113220395Y-85500000D01*
X113206253Y-85485858D01*
X113385858Y-85306253D01*
X113400000Y-85320395D01*
X114625988Y-84094407D01*
X114586467Y-84009706D01*
X114942086Y-83862767D01*
X115015982Y-83789000D01*
X116508322Y-83789000D01*
X116550000Y-83797440D01*
X118850000Y-83797440D01*
X118894855Y-83789000D01*
X119245441Y-83789000D01*
X119379646Y-84113800D01*
X119684595Y-84419282D01*
X120083233Y-84584811D01*
X120514873Y-84585188D01*
X120913800Y-84420354D01*
X121219282Y-84115405D01*
X121384811Y-83716767D01*
X121385188Y-83285127D01*
X121220354Y-82886200D01*
X120924953Y-82590283D01*
X122128618Y-81386618D01*
X122321329Y-81098206D01*
X122389000Y-80758000D01*
X122389000Y-78485000D01*
X123014250Y-78485000D01*
X123173000Y-78326250D01*
X123173000Y-76977000D01*
X123153000Y-76977000D01*
X123153000Y-76723000D01*
X123173000Y-76723000D01*
X123173000Y-75373750D01*
X123014250Y-75215000D01*
X122389000Y-75215000D01*
X122389000Y-71000000D01*
X122321329Y-70659794D01*
X122128618Y-70371382D01*
X118298618Y-66541382D01*
X118290743Y-66536120D01*
X118010206Y-66348671D01*
X117670000Y-66281000D01*
X116889000Y-66281000D01*
X116889000Y-60500000D01*
X116821329Y-60159794D01*
X116628618Y-59871382D01*
X115902014Y-59144778D01*
X116335387Y-59136497D01*
X117044582Y-58842739D01*
X117204365Y-58523970D01*
X115870000Y-57189605D01*
X115855858Y-57203748D01*
X115676253Y-57024143D01*
X115690395Y-57010000D01*
X116049605Y-57010000D01*
X117383970Y-58344365D01*
X117702739Y-58184582D01*
X118012723Y-57393813D01*
X117996497Y-56544613D01*
X117702739Y-55835418D01*
X117383970Y-55675635D01*
X116049605Y-57010000D01*
X115690395Y-57010000D01*
X114356030Y-55675635D01*
X114037261Y-55835418D01*
X113727277Y-56626187D01*
X113733975Y-56976739D01*
X113128618Y-56371382D01*
X112840206Y-56178671D01*
X112500000Y-56111000D01*
X107368236Y-56111000D01*
X106753266Y-55496030D01*
X114535635Y-55496030D01*
X115870000Y-56830395D01*
X117204365Y-55496030D01*
X117044582Y-55177261D01*
X116253813Y-54867277D01*
X115404613Y-54883503D01*
X114695418Y-55177261D01*
X114535635Y-55496030D01*
X106753266Y-55496030D01*
X106189888Y-54932652D01*
X107035387Y-54916497D01*
X107744582Y-54622739D01*
X107904365Y-54303970D01*
X106570000Y-52969605D01*
X106555858Y-52983748D01*
X106376253Y-52804143D01*
X106390395Y-52790000D01*
X106749605Y-52790000D01*
X108083970Y-54124365D01*
X108402739Y-53964582D01*
X108411348Y-53942619D01*
X119264613Y-53942619D01*
X119604155Y-54764372D01*
X120232321Y-55393636D01*
X121053481Y-55734611D01*
X121942619Y-55735387D01*
X122764372Y-55395845D01*
X123393636Y-54767679D01*
X123734611Y-53946519D01*
X123735387Y-53057381D01*
X123395845Y-52235628D01*
X122767679Y-51606364D01*
X121946519Y-51265389D01*
X121057381Y-51264613D01*
X120235628Y-51604155D01*
X119606364Y-52232321D01*
X119265389Y-53053481D01*
X119264613Y-53942619D01*
X108411348Y-53942619D01*
X108712723Y-53173813D01*
X108696497Y-52324613D01*
X108402739Y-51615418D01*
X108083970Y-51455635D01*
X106749605Y-52790000D01*
X106390395Y-52790000D01*
X105056030Y-51455635D01*
X104737261Y-51615418D01*
X104427277Y-52406187D01*
X104442157Y-53184921D01*
X103128618Y-51871382D01*
X102840206Y-51678671D01*
X102500000Y-51611000D01*
X98500000Y-51611000D01*
X98159794Y-51678671D01*
X97871382Y-51871382D01*
X96371382Y-53371382D01*
X96178671Y-53659794D01*
X96111000Y-54000000D01*
X96111000Y-54430470D01*
X95826539Y-54714436D01*
X95615241Y-55223298D01*
X95614760Y-55774285D01*
X95825169Y-56283515D01*
X96111000Y-56569845D01*
X96111000Y-56631764D01*
X93371382Y-59371382D01*
X93178671Y-59659794D01*
X93111000Y-60000000D01*
X93111000Y-104500000D01*
X93178671Y-104840206D01*
X93311378Y-105038816D01*
X93371382Y-105128618D01*
X96852827Y-108610063D01*
X96795715Y-108667175D01*
X96614485Y-108742058D01*
X96323081Y-109032954D01*
X96267289Y-109167316D01*
X96064501Y-109370104D01*
X96101648Y-109585217D01*
X96165012Y-109606356D01*
X96164821Y-109824971D01*
X96322058Y-110205515D01*
X96612954Y-110496919D01*
X96993223Y-110654820D01*
X97404971Y-110655179D01*
X97537325Y-110600492D01*
X97557050Y-110648113D01*
X97764447Y-110675948D01*
X98309099Y-110131296D01*
X98498217Y-110209824D01*
X98769666Y-110210061D01*
X99235553Y-110675948D01*
X99442950Y-110648113D01*
X99573272Y-110247061D01*
X99562647Y-110112007D01*
X99798217Y-110209824D01*
X100200020Y-110210175D01*
X100436143Y-110112611D01*
X100459801Y-110413334D01*
X100557050Y-110648113D01*
X100764447Y-110675948D01*
X101220025Y-110220370D01*
X101585301Y-110189477D01*
X101701112Y-110141507D01*
X102235553Y-110675948D01*
X102442950Y-110648113D01*
X102458895Y-110599043D01*
X102593223Y-110654820D01*
X103004971Y-110655179D01*
X103385515Y-110497942D01*
X103598077Y-110285750D01*
X105240000Y-110285750D01*
X105240000Y-110626309D01*
X105336673Y-110859698D01*
X105515301Y-111038327D01*
X105748690Y-111135000D01*
X106214250Y-111135000D01*
X106373000Y-110976250D01*
X106373000Y-110127000D01*
X106627000Y-110127000D01*
X106627000Y-110976250D01*
X106785750Y-111135000D01*
X107251310Y-111135000D01*
X107484699Y-111038327D01*
X107627761Y-110895265D01*
X107723690Y-110935000D01*
X108214250Y-110935000D01*
X108373000Y-110776250D01*
X108373000Y-110077000D01*
X108627000Y-110077000D01*
X108627000Y-110776250D01*
X108785750Y-110935000D01*
X109276310Y-110935000D01*
X109372239Y-110895265D01*
X109515301Y-111038327D01*
X109748690Y-111135000D01*
X110214250Y-111135000D01*
X110373000Y-110976250D01*
X110373000Y-110127000D01*
X110627000Y-110127000D01*
X110627000Y-110976250D01*
X110785750Y-111135000D01*
X111251310Y-111135000D01*
X111484699Y-111038327D01*
X111500000Y-111023026D01*
X111515301Y-111038327D01*
X111748690Y-111135000D01*
X112214250Y-111135000D01*
X112373000Y-110976250D01*
X112373000Y-110127000D01*
X112627000Y-110127000D01*
X112627000Y-110976250D01*
X112785750Y-111135000D01*
X113251310Y-111135000D01*
X113484699Y-111038327D01*
X113663327Y-110859698D01*
X113760000Y-110626309D01*
X113760000Y-110285750D01*
X113710000Y-110235750D01*
X114715000Y-110235750D01*
X114715000Y-110426309D01*
X114811673Y-110659698D01*
X114990301Y-110838327D01*
X115223690Y-110935000D01*
X115714250Y-110935000D01*
X115873000Y-110776250D01*
X115873000Y-110077000D01*
X114873750Y-110077000D01*
X114715000Y-110235750D01*
X113710000Y-110235750D01*
X113601250Y-110127000D01*
X112627000Y-110127000D01*
X112373000Y-110127000D01*
X110627000Y-110127000D01*
X110373000Y-110127000D01*
X109676250Y-110127000D01*
X109626250Y-110077000D01*
X108627000Y-110077000D01*
X108373000Y-110077000D01*
X107373750Y-110077000D01*
X107323750Y-110127000D01*
X106627000Y-110127000D01*
X106373000Y-110127000D01*
X105398750Y-110127000D01*
X105240000Y-110285750D01*
X103598077Y-110285750D01*
X103676919Y-110207046D01*
X103834820Y-109826777D01*
X103835008Y-109611455D01*
X103898352Y-109585217D01*
X103935499Y-109370104D01*
X103732908Y-109167513D01*
X103677942Y-109034485D01*
X103387046Y-108743081D01*
X103204314Y-108667204D01*
X103131253Y-108594143D01*
X103145395Y-108580000D01*
X103504605Y-108580000D01*
X104115104Y-109190499D01*
X104330217Y-109153352D01*
X104473112Y-108725028D01*
X104441217Y-108274625D01*
X104330217Y-108006648D01*
X104115104Y-107969501D01*
X103504605Y-108580000D01*
X103145395Y-108580000D01*
X103131253Y-108565858D01*
X103310858Y-108386253D01*
X103325000Y-108400395D01*
X103935499Y-107789896D01*
X103898352Y-107574783D01*
X103470028Y-107431888D01*
X103019625Y-107463783D01*
X102751648Y-107574783D01*
X102714501Y-107789893D01*
X102598274Y-107673666D01*
X102569743Y-107702197D01*
X102540199Y-107326666D01*
X102442950Y-107091887D01*
X102235553Y-107064052D01*
X101679605Y-107620000D01*
X101693748Y-107634143D01*
X101514143Y-107813748D01*
X101500000Y-107799605D01*
X101485858Y-107813748D01*
X101306253Y-107634143D01*
X101320395Y-107620000D01*
X101306253Y-107605858D01*
X101485858Y-107426253D01*
X101500000Y-107440395D01*
X102055948Y-106884447D01*
X102028113Y-106677050D01*
X101627061Y-106546728D01*
X101206666Y-106579801D01*
X100971887Y-106677050D01*
X100944052Y-106884444D01*
X100827346Y-106767738D01*
X100762000Y-106833084D01*
X100762000Y-105315630D01*
X101075631Y-105002000D01*
X106420370Y-105002000D01*
X105961185Y-105461185D01*
X105796004Y-105708395D01*
X105738000Y-106000000D01*
X105738000Y-106878338D01*
X105639683Y-106896838D01*
X105423559Y-107035910D01*
X105278569Y-107248110D01*
X105227560Y-107500000D01*
X105227560Y-108500000D01*
X105271838Y-108735317D01*
X105410910Y-108951441D01*
X105479006Y-108997969D01*
X105336673Y-109140302D01*
X105240000Y-109373691D01*
X105240000Y-109714250D01*
X105398750Y-109873000D01*
X106373000Y-109873000D01*
X106373000Y-109853000D01*
X106627000Y-109853000D01*
X106627000Y-109873000D01*
X107601250Y-109873000D01*
X107651250Y-109823000D01*
X108373000Y-109823000D01*
X108373000Y-109803000D01*
X108627000Y-109803000D01*
X108627000Y-109823000D01*
X109348750Y-109823000D01*
X109398750Y-109873000D01*
X110373000Y-109873000D01*
X110373000Y-109853000D01*
X110627000Y-109853000D01*
X110627000Y-109873000D01*
X112373000Y-109873000D01*
X112373000Y-109853000D01*
X112627000Y-109853000D01*
X112627000Y-109873000D01*
X113601250Y-109873000D01*
X113760000Y-109714250D01*
X113760000Y-109373691D01*
X113663327Y-109140302D01*
X113522090Y-108999064D01*
X113576441Y-108964090D01*
X113721431Y-108751890D01*
X113772440Y-108500000D01*
X113772440Y-107500000D01*
X113728162Y-107264683D01*
X113589090Y-107048559D01*
X113492322Y-106982440D01*
X114950000Y-106982440D01*
X115022127Y-106968868D01*
X115021963Y-107156501D01*
X114898559Y-107235910D01*
X114753569Y-107448110D01*
X114702560Y-107700000D01*
X114702560Y-108400000D01*
X114746838Y-108635317D01*
X114885910Y-108851441D01*
X115098110Y-108996431D01*
X115131490Y-109003191D01*
X114990301Y-109061673D01*
X114811673Y-109240302D01*
X114715000Y-109473691D01*
X114715000Y-109664250D01*
X114873750Y-109823000D01*
X115873000Y-109823000D01*
X115873000Y-109803000D01*
X116127000Y-109803000D01*
X116127000Y-109823000D01*
X116147000Y-109823000D01*
X116147000Y-110077000D01*
X116127000Y-110077000D01*
X116127000Y-110776250D01*
X116173622Y-110822872D01*
X116140302Y-110836673D01*
X115961673Y-111015301D01*
X115865000Y-111248690D01*
X115865000Y-111714250D01*
X116023750Y-111873000D01*
X116873000Y-111873000D01*
X116873000Y-111853000D01*
X117127000Y-111853000D01*
X117127000Y-111873000D01*
X117147000Y-111873000D01*
X117147000Y-112127000D01*
X117127000Y-112127000D01*
X117127000Y-113101250D01*
X117285750Y-113260000D01*
X117626309Y-113260000D01*
X117859698Y-113163327D01*
X118000936Y-113022090D01*
X118035910Y-113076441D01*
X118248110Y-113221431D01*
X118500000Y-113272440D01*
X119500000Y-113272440D01*
X119735317Y-113228162D01*
X119951441Y-113089090D01*
X119999134Y-113019289D01*
X120035910Y-113076441D01*
X120248110Y-113221431D01*
X120500000Y-113272440D01*
X121500000Y-113272440D01*
X121735317Y-113228162D01*
X121951441Y-113089090D01*
X121997969Y-113020994D01*
X122140302Y-113163327D01*
X122373691Y-113260000D01*
X122714250Y-113260000D01*
X122873000Y-113101250D01*
X122873000Y-112127000D01*
X123127000Y-112127000D01*
X123127000Y-113101250D01*
X123285750Y-113260000D01*
X123626309Y-113260000D01*
X123859698Y-113163327D01*
X124038327Y-112984699D01*
X124135000Y-112751310D01*
X124135000Y-112285750D01*
X123976250Y-112127000D01*
X123127000Y-112127000D01*
X122873000Y-112127000D01*
X122853000Y-112127000D01*
X122853000Y-111873000D01*
X122873000Y-111873000D01*
X122873000Y-110898750D01*
X123127000Y-110898750D01*
X123127000Y-111873000D01*
X123976250Y-111873000D01*
X124135000Y-111714250D01*
X124135000Y-111248690D01*
X124038327Y-111015301D01*
X123859698Y-110836673D01*
X123626309Y-110740000D01*
X123285750Y-110740000D01*
X123127000Y-110898750D01*
X122873000Y-110898750D01*
X122714250Y-110740000D01*
X122373691Y-110740000D01*
X122140302Y-110836673D01*
X121999064Y-110977910D01*
X121964090Y-110923559D01*
X121751890Y-110778569D01*
X121500000Y-110727560D01*
X120889000Y-110727560D01*
X120889000Y-107000000D01*
X120821329Y-106659794D01*
X120628618Y-106371382D01*
X120389000Y-106131764D01*
X120389000Y-104012631D01*
X120581830Y-104205461D01*
X120552560Y-104350000D01*
X120552560Y-105650000D01*
X120596838Y-105885317D01*
X120735910Y-106101441D01*
X120948110Y-106246431D01*
X121200000Y-106297440D01*
X121900000Y-106297440D01*
X122135317Y-106253162D01*
X122351441Y-106114090D01*
X122496431Y-105901890D01*
X122499081Y-105888803D01*
X122635910Y-106101441D01*
X122848110Y-106246431D01*
X123100000Y-106297440D01*
X123800000Y-106297440D01*
X124035317Y-106253162D01*
X124251441Y-106114090D01*
X124290000Y-106057657D01*
X124290000Y-124290000D01*
X90127000Y-124290000D01*
X90127000Y-121942619D01*
X119264613Y-121942619D01*
X119604155Y-122764372D01*
X120232321Y-123393636D01*
X121053481Y-123734611D01*
X121942619Y-123735387D01*
X122764372Y-123395845D01*
X123393636Y-122767679D01*
X123734611Y-121946519D01*
X123735387Y-121057381D01*
X123395845Y-120235628D01*
X122767679Y-119606364D01*
X121946519Y-119265389D01*
X121057381Y-119264613D01*
X120235628Y-119604155D01*
X119606364Y-120232321D01*
X119265389Y-121053481D01*
X119264613Y-121942619D01*
X90127000Y-121942619D01*
X90127000Y-112285750D01*
X115865000Y-112285750D01*
X115865000Y-112751310D01*
X115961673Y-112984699D01*
X116140302Y-113163327D01*
X116373691Y-113260000D01*
X116714250Y-113260000D01*
X116873000Y-113101250D01*
X116873000Y-112127000D01*
X116023750Y-112127000D01*
X115865000Y-112285750D01*
X90127000Y-112285750D01*
X90127000Y-110855553D01*
X97944052Y-110855553D01*
X97971887Y-111062950D01*
X98372939Y-111193272D01*
X98793334Y-111160199D01*
X99028113Y-111062950D01*
X99055948Y-110855553D01*
X100944052Y-110855553D01*
X100971887Y-111062950D01*
X101372939Y-111193272D01*
X101793334Y-111160199D01*
X102028113Y-111062950D01*
X102055948Y-110855553D01*
X101500000Y-110299605D01*
X100944052Y-110855553D01*
X99055948Y-110855553D01*
X98500000Y-110299605D01*
X97944052Y-110855553D01*
X90127000Y-110855553D01*
X90127000Y-108434972D01*
X95526888Y-108434972D01*
X95558783Y-108885375D01*
X95669783Y-109153352D01*
X95884896Y-109190499D01*
X96495395Y-108580000D01*
X95884896Y-107969501D01*
X95669783Y-108006648D01*
X95526888Y-108434972D01*
X90127000Y-108434972D01*
X90127000Y-54303970D01*
X92095635Y-54303970D01*
X92255418Y-54622739D01*
X93046187Y-54932723D01*
X93895387Y-54916497D01*
X94604582Y-54622739D01*
X94764365Y-54303970D01*
X93430000Y-52969605D01*
X92095635Y-54303970D01*
X90127000Y-54303970D01*
X90127000Y-52406187D01*
X91287277Y-52406187D01*
X91303503Y-53255387D01*
X91597261Y-53964582D01*
X91916030Y-54124365D01*
X93250395Y-52790000D01*
X93609605Y-52790000D01*
X94943970Y-54124365D01*
X95262739Y-53964582D01*
X95572723Y-53173813D01*
X95556497Y-52324613D01*
X95262739Y-51615418D01*
X94943970Y-51455635D01*
X93609605Y-52790000D01*
X93250395Y-52790000D01*
X91916030Y-51455635D01*
X91597261Y-51615418D01*
X91287277Y-52406187D01*
X90127000Y-52406187D01*
X90127000Y-50710000D01*
X92852359Y-50710000D01*
X92255418Y-50957261D01*
X92255418Y-50957261D01*
G37*
X92255418Y-50957261D02*
X92095635Y-51276030D01*
X93430000Y-52610395D01*
X94764365Y-51276030D01*
X94604582Y-50957261D01*
X93973819Y-50710000D01*
X105992359Y-50710000D01*
X105395418Y-50957261D01*
X105235635Y-51276030D01*
X106570000Y-52610395D01*
X107904365Y-51276030D01*
X107744582Y-50957261D01*
X107113819Y-50710000D01*
X124290000Y-50710000D01*
X124290000Y-75215000D01*
X123585750Y-75215000D01*
X123427000Y-75373750D01*
X123427000Y-76723000D01*
X123447000Y-76723000D01*
X123447000Y-76977000D01*
X123427000Y-76977000D01*
X123427000Y-78326250D01*
X123585750Y-78485000D01*
X124290000Y-78485000D01*
X124290000Y-84115000D01*
X123585750Y-84115000D01*
X123427000Y-84273750D01*
X123427000Y-85623000D01*
X123447000Y-85623000D01*
X123447000Y-85877000D01*
X123427000Y-85877000D01*
X123427000Y-87226250D01*
X123585750Y-87385000D01*
X124290000Y-87385000D01*
X124290000Y-89287449D01*
X124237834Y-89209377D01*
X124227949Y-89194582D01*
X124228069Y-89056337D01*
X124079507Y-88696788D01*
X123804659Y-88421460D01*
X123445370Y-88272270D01*
X123056337Y-88271931D01*
X122696788Y-88420493D01*
X122421460Y-88695341D01*
X122272270Y-89054630D01*
X122271931Y-89443663D01*
X122420493Y-89803212D01*
X122551238Y-89934186D01*
X122548559Y-89935910D01*
X122500866Y-90005711D01*
X122464090Y-89948559D01*
X122251890Y-89803569D01*
X122000000Y-89752560D01*
X120800000Y-89752560D01*
X120564683Y-89796838D01*
X120348559Y-89935910D01*
X120259159Y-90066751D01*
X120128618Y-89871382D01*
X118628618Y-88371382D01*
X118591721Y-88346728D01*
X118340206Y-88178671D01*
X118000000Y-88111000D01*
X113868236Y-88111000D01*
X113246398Y-87489162D01*
X113841418Y-87475164D01*
X114484522Y-87208782D01*
X114625988Y-86905593D01*
X113400000Y-85679605D01*
X113385858Y-85693748D01*
X113206253Y-85514143D01*
X113220395Y-85500000D01*
X113579605Y-85500000D01*
X114805593Y-86725988D01*
X115108782Y-86584522D01*
X115321110Y-86035750D01*
X115915000Y-86035750D01*
X115915000Y-86876310D01*
X116011673Y-87109699D01*
X116190302Y-87288327D01*
X116423691Y-87385000D01*
X117514250Y-87385000D01*
X117673000Y-87226250D01*
X117673000Y-85877000D01*
X117927000Y-85877000D01*
X117927000Y-87226250D01*
X118085750Y-87385000D01*
X119176309Y-87385000D01*
X119409698Y-87288327D01*
X119588327Y-87109699D01*
X119685000Y-86876310D01*
X119685000Y-86035750D01*
X121415000Y-86035750D01*
X121415000Y-86876310D01*
X121511673Y-87109699D01*
X121690302Y-87288327D01*
X121923691Y-87385000D01*
X123014250Y-87385000D01*
X123173000Y-87226250D01*
X123173000Y-85877000D01*
X121573750Y-85877000D01*
X121415000Y-86035750D01*
X119685000Y-86035750D01*
X119526250Y-85877000D01*
X117927000Y-85877000D01*
X117673000Y-85877000D01*
X116073750Y-85877000D01*
X115915000Y-86035750D01*
X115321110Y-86035750D01*
X115393737Y-85848045D01*
X115375164Y-85058582D01*
X115195027Y-84623690D01*
X115915000Y-84623690D01*
X115915000Y-85464250D01*
X116073750Y-85623000D01*
X117673000Y-85623000D01*
X117673000Y-84273750D01*
X117927000Y-84273750D01*
X117927000Y-85623000D01*
X119526250Y-85623000D01*
X119685000Y-85464250D01*
X119685000Y-84623690D01*
X121415000Y-84623690D01*
X121415000Y-85464250D01*
X121573750Y-85623000D01*
X123173000Y-85623000D01*
X123173000Y-84273750D01*
X123014250Y-84115000D01*
X121923691Y-84115000D01*
X121690302Y-84211673D01*
X121511673Y-84390301D01*
X121415000Y-84623690D01*
X119685000Y-84623690D01*
X119588327Y-84390301D01*
X119409698Y-84211673D01*
X119176309Y-84115000D01*
X118085750Y-84115000D01*
X117927000Y-84273750D01*
X117673000Y-84273750D01*
X117514250Y-84115000D01*
X116423691Y-84115000D01*
X116190302Y-84211673D01*
X116011673Y-84390301D01*
X115915000Y-84623690D01*
X115195027Y-84623690D01*
X115108782Y-84415478D01*
X114805593Y-84274012D01*
X113579605Y-85500000D01*
X113220395Y-85500000D01*
X113206253Y-85485858D01*
X113385858Y-85306253D01*
X113400000Y-85320395D01*
X114625988Y-84094407D01*
X114586467Y-84009706D01*
X114942086Y-83862767D01*
X115015982Y-83789000D01*
X116508322Y-83789000D01*
X116550000Y-83797440D01*
X118850000Y-83797440D01*
X118894855Y-83789000D01*
X119245441Y-83789000D01*
X119379646Y-84113800D01*
X119684595Y-84419282D01*
X120083233Y-84584811D01*
X120514873Y-84585188D01*
X120913800Y-84420354D01*
X121219282Y-84115405D01*
X121384811Y-83716767D01*
X121385188Y-83285127D01*
X121220354Y-82886200D01*
X120924953Y-82590283D01*
X122128618Y-81386618D01*
X122321329Y-81098206D01*
X122389000Y-80758000D01*
X122389000Y-78485000D01*
X123014250Y-78485000D01*
X123173000Y-78326250D01*
X123173000Y-76977000D01*
X123153000Y-76977000D01*
X123153000Y-76723000D01*
X123173000Y-76723000D01*
X123173000Y-75373750D01*
X123014250Y-75215000D01*
X122389000Y-75215000D01*
X122389000Y-71000000D01*
X122321329Y-70659794D01*
X122128618Y-70371382D01*
X118298618Y-66541382D01*
X118290743Y-66536120D01*
X118010206Y-66348671D01*
X117670000Y-66281000D01*
X116889000Y-66281000D01*
X116889000Y-60500000D01*
X116821329Y-60159794D01*
X116628618Y-59871382D01*
X115902014Y-59144778D01*
X116335387Y-59136497D01*
X117044582Y-58842739D01*
X117204365Y-58523970D01*
X115870000Y-57189605D01*
X115855858Y-57203748D01*
X115676253Y-57024143D01*
X115690395Y-57010000D01*
X116049605Y-57010000D01*
X117383970Y-58344365D01*
X117702739Y-58184582D01*
X118012723Y-57393813D01*
X117996497Y-56544613D01*
X117702739Y-55835418D01*
X117383970Y-55675635D01*
X116049605Y-57010000D01*
X115690395Y-57010000D01*
X114356030Y-55675635D01*
X114037261Y-55835418D01*
X113727277Y-56626187D01*
X113733975Y-56976739D01*
X113128618Y-56371382D01*
X112840206Y-56178671D01*
X112500000Y-56111000D01*
X107368236Y-56111000D01*
X106753266Y-55496030D01*
X114535635Y-55496030D01*
X115870000Y-56830395D01*
X117204365Y-55496030D01*
X117044582Y-55177261D01*
X116253813Y-54867277D01*
X115404613Y-54883503D01*
X114695418Y-55177261D01*
X114535635Y-55496030D01*
X106753266Y-55496030D01*
X106189888Y-54932652D01*
X107035387Y-54916497D01*
X107744582Y-54622739D01*
X107904365Y-54303970D01*
X106570000Y-52969605D01*
X106555858Y-52983748D01*
X106376253Y-52804143D01*
X106390395Y-52790000D01*
X106749605Y-52790000D01*
X108083970Y-54124365D01*
X108402739Y-53964582D01*
X108411348Y-53942619D01*
X119264613Y-53942619D01*
X119604155Y-54764372D01*
X120232321Y-55393636D01*
X121053481Y-55734611D01*
X121942619Y-55735387D01*
X122764372Y-55395845D01*
X123393636Y-54767679D01*
X123734611Y-53946519D01*
X123735387Y-53057381D01*
X123395845Y-52235628D01*
X122767679Y-51606364D01*
X121946519Y-51265389D01*
X121057381Y-51264613D01*
X120235628Y-51604155D01*
X119606364Y-52232321D01*
X119265389Y-53053481D01*
X119264613Y-53942619D01*
X108411348Y-53942619D01*
X108712723Y-53173813D01*
X108696497Y-52324613D01*
X108402739Y-51615418D01*
X108083970Y-51455635D01*
X106749605Y-52790000D01*
X106390395Y-52790000D01*
X105056030Y-51455635D01*
X104737261Y-51615418D01*
X104427277Y-52406187D01*
X104442157Y-53184921D01*
X103128618Y-51871382D01*
X102840206Y-51678671D01*
X102500000Y-51611000D01*
X98500000Y-51611000D01*
X98159794Y-51678671D01*
X97871382Y-51871382D01*
X96371382Y-53371382D01*
X96178671Y-53659794D01*
X96111000Y-54000000D01*
X96111000Y-54430470D01*
X95826539Y-54714436D01*
X95615241Y-55223298D01*
X95614760Y-55774285D01*
X95825169Y-56283515D01*
X96111000Y-56569845D01*
X96111000Y-56631764D01*
X93371382Y-59371382D01*
X93178671Y-59659794D01*
X93111000Y-60000000D01*
X93111000Y-104500000D01*
X93178671Y-104840206D01*
X93311378Y-105038816D01*
X93371382Y-105128618D01*
X96852827Y-108610063D01*
X96795715Y-108667175D01*
X96614485Y-108742058D01*
X96323081Y-109032954D01*
X96267289Y-109167316D01*
X96064501Y-109370104D01*
X96101648Y-109585217D01*
X96165012Y-109606356D01*
X96164821Y-109824971D01*
X96322058Y-110205515D01*
X96612954Y-110496919D01*
X96993223Y-110654820D01*
X97404971Y-110655179D01*
X97537325Y-110600492D01*
X97557050Y-110648113D01*
X97764447Y-110675948D01*
X98309099Y-110131296D01*
X98498217Y-110209824D01*
X98769666Y-110210061D01*
X99235553Y-110675948D01*
X99442950Y-110648113D01*
X99573272Y-110247061D01*
X99562647Y-110112007D01*
X99798217Y-110209824D01*
X100200020Y-110210175D01*
X100436143Y-110112611D01*
X100459801Y-110413334D01*
X100557050Y-110648113D01*
X100764447Y-110675948D01*
X101220025Y-110220370D01*
X101585301Y-110189477D01*
X101701112Y-110141507D01*
X102235553Y-110675948D01*
X102442950Y-110648113D01*
X102458895Y-110599043D01*
X102593223Y-110654820D01*
X103004971Y-110655179D01*
X103385515Y-110497942D01*
X103598077Y-110285750D01*
X105240000Y-110285750D01*
X105240000Y-110626309D01*
X105336673Y-110859698D01*
X105515301Y-111038327D01*
X105748690Y-111135000D01*
X106214250Y-111135000D01*
X106373000Y-110976250D01*
X106373000Y-110127000D01*
X106627000Y-110127000D01*
X106627000Y-110976250D01*
X106785750Y-111135000D01*
X107251310Y-111135000D01*
X107484699Y-111038327D01*
X107627761Y-110895265D01*
X107723690Y-110935000D01*
X108214250Y-110935000D01*
X108373000Y-110776250D01*
X108373000Y-110077000D01*
X108627000Y-110077000D01*
X108627000Y-110776250D01*
X108785750Y-110935000D01*
X109276310Y-110935000D01*
X109372239Y-110895265D01*
X109515301Y-111038327D01*
X109748690Y-111135000D01*
X110214250Y-111135000D01*
X110373000Y-110976250D01*
X110373000Y-110127000D01*
X110627000Y-110127000D01*
X110627000Y-110976250D01*
X110785750Y-111135000D01*
X111251310Y-111135000D01*
X111484699Y-111038327D01*
X111500000Y-111023026D01*
X111515301Y-111038327D01*
X111748690Y-111135000D01*
X112214250Y-111135000D01*
X112373000Y-110976250D01*
X112373000Y-110127000D01*
X112627000Y-110127000D01*
X112627000Y-110976250D01*
X112785750Y-111135000D01*
X113251310Y-111135000D01*
X113484699Y-111038327D01*
X113663327Y-110859698D01*
X113760000Y-110626309D01*
X113760000Y-110285750D01*
X113710000Y-110235750D01*
X114715000Y-110235750D01*
X114715000Y-110426309D01*
X114811673Y-110659698D01*
X114990301Y-110838327D01*
X115223690Y-110935000D01*
X115714250Y-110935000D01*
X115873000Y-110776250D01*
X115873000Y-110077000D01*
X114873750Y-110077000D01*
X114715000Y-110235750D01*
X113710000Y-110235750D01*
X113601250Y-110127000D01*
X112627000Y-110127000D01*
X112373000Y-110127000D01*
X110627000Y-110127000D01*
X110373000Y-110127000D01*
X109676250Y-110127000D01*
X109626250Y-110077000D01*
X108627000Y-110077000D01*
X108373000Y-110077000D01*
X107373750Y-110077000D01*
X107323750Y-110127000D01*
X106627000Y-110127000D01*
X106373000Y-110127000D01*
X105398750Y-110127000D01*
X105240000Y-110285750D01*
X103598077Y-110285750D01*
X103676919Y-110207046D01*
X103834820Y-109826777D01*
X103835008Y-109611455D01*
X103898352Y-109585217D01*
X103935499Y-109370104D01*
X103732908Y-109167513D01*
X103677942Y-109034485D01*
X103387046Y-108743081D01*
X103204314Y-108667204D01*
X103131253Y-108594143D01*
X103145395Y-108580000D01*
X103504605Y-108580000D01*
X104115104Y-109190499D01*
X104330217Y-109153352D01*
X104473112Y-108725028D01*
X104441217Y-108274625D01*
X104330217Y-108006648D01*
X104115104Y-107969501D01*
X103504605Y-108580000D01*
X103145395Y-108580000D01*
X103131253Y-108565858D01*
X103310858Y-108386253D01*
X103325000Y-108400395D01*
X103935499Y-107789896D01*
X103898352Y-107574783D01*
X103470028Y-107431888D01*
X103019625Y-107463783D01*
X102751648Y-107574783D01*
X102714501Y-107789893D01*
X102598274Y-107673666D01*
X102569743Y-107702197D01*
X102540199Y-107326666D01*
X102442950Y-107091887D01*
X102235553Y-107064052D01*
X101679605Y-107620000D01*
X101693748Y-107634143D01*
X101514143Y-107813748D01*
X101500000Y-107799605D01*
X101485858Y-107813748D01*
X101306253Y-107634143D01*
X101320395Y-107620000D01*
X101306253Y-107605858D01*
X101485858Y-107426253D01*
X101500000Y-107440395D01*
X102055948Y-106884447D01*
X102028113Y-106677050D01*
X101627061Y-106546728D01*
X101206666Y-106579801D01*
X100971887Y-106677050D01*
X100944052Y-106884444D01*
X100827346Y-106767738D01*
X100762000Y-106833084D01*
X100762000Y-105315630D01*
X101075631Y-105002000D01*
X106420370Y-105002000D01*
X105961185Y-105461185D01*
X105796004Y-105708395D01*
X105738000Y-106000000D01*
X105738000Y-106878338D01*
X105639683Y-106896838D01*
X105423559Y-107035910D01*
X105278569Y-107248110D01*
X105227560Y-107500000D01*
X105227560Y-108500000D01*
X105271838Y-108735317D01*
X105410910Y-108951441D01*
X105479006Y-108997969D01*
X105336673Y-109140302D01*
X105240000Y-109373691D01*
X105240000Y-109714250D01*
X105398750Y-109873000D01*
X106373000Y-109873000D01*
X106373000Y-109853000D01*
X106627000Y-109853000D01*
X106627000Y-109873000D01*
X107601250Y-109873000D01*
X107651250Y-109823000D01*
X108373000Y-109823000D01*
X108373000Y-109803000D01*
X108627000Y-109803000D01*
X108627000Y-109823000D01*
X109348750Y-109823000D01*
X109398750Y-109873000D01*
X110373000Y-109873000D01*
X110373000Y-109853000D01*
X110627000Y-109853000D01*
X110627000Y-109873000D01*
X112373000Y-109873000D01*
X112373000Y-109853000D01*
X112627000Y-109853000D01*
X112627000Y-109873000D01*
X113601250Y-109873000D01*
X113760000Y-109714250D01*
X113760000Y-109373691D01*
X113663327Y-109140302D01*
X113522090Y-108999064D01*
X113576441Y-108964090D01*
X113721431Y-108751890D01*
X113772440Y-108500000D01*
X113772440Y-107500000D01*
X113728162Y-107264683D01*
X113589090Y-107048559D01*
X113492322Y-106982440D01*
X114950000Y-106982440D01*
X115022127Y-106968868D01*
X115021963Y-107156501D01*
X114898559Y-107235910D01*
X114753569Y-107448110D01*
X114702560Y-107700000D01*
X114702560Y-108400000D01*
X114746838Y-108635317D01*
X114885910Y-108851441D01*
X115098110Y-108996431D01*
X115131490Y-109003191D01*
X114990301Y-109061673D01*
X114811673Y-109240302D01*
X114715000Y-109473691D01*
X114715000Y-109664250D01*
X114873750Y-109823000D01*
X115873000Y-109823000D01*
X115873000Y-109803000D01*
X116127000Y-109803000D01*
X116127000Y-109823000D01*
X116147000Y-109823000D01*
X116147000Y-110077000D01*
X116127000Y-110077000D01*
X116127000Y-110776250D01*
X116173622Y-110822872D01*
X116140302Y-110836673D01*
X115961673Y-111015301D01*
X115865000Y-111248690D01*
X115865000Y-111714250D01*
X116023750Y-111873000D01*
X116873000Y-111873000D01*
X116873000Y-111853000D01*
X117127000Y-111853000D01*
X117127000Y-111873000D01*
X117147000Y-111873000D01*
X117147000Y-112127000D01*
X117127000Y-112127000D01*
X117127000Y-113101250D01*
X117285750Y-113260000D01*
X117626309Y-113260000D01*
X117859698Y-113163327D01*
X118000936Y-113022090D01*
X118035910Y-113076441D01*
X118248110Y-113221431D01*
X118500000Y-113272440D01*
X119500000Y-113272440D01*
X119735317Y-113228162D01*
X119951441Y-113089090D01*
X119999134Y-113019289D01*
X120035910Y-113076441D01*
X120248110Y-113221431D01*
X120500000Y-113272440D01*
X121500000Y-113272440D01*
X121735317Y-113228162D01*
X121951441Y-113089090D01*
X121997969Y-113020994D01*
X122140302Y-113163327D01*
X122373691Y-113260000D01*
X122714250Y-113260000D01*
X122873000Y-113101250D01*
X122873000Y-112127000D01*
X123127000Y-112127000D01*
X123127000Y-113101250D01*
X123285750Y-113260000D01*
X123626309Y-113260000D01*
X123859698Y-113163327D01*
X124038327Y-112984699D01*
X124135000Y-112751310D01*
X124135000Y-112285750D01*
X123976250Y-112127000D01*
X123127000Y-112127000D01*
X122873000Y-112127000D01*
X122853000Y-112127000D01*
X122853000Y-111873000D01*
X122873000Y-111873000D01*
X122873000Y-110898750D01*
X123127000Y-110898750D01*
X123127000Y-111873000D01*
X123976250Y-111873000D01*
X124135000Y-111714250D01*
X124135000Y-111248690D01*
X124038327Y-111015301D01*
X123859698Y-110836673D01*
X123626309Y-110740000D01*
X123285750Y-110740000D01*
X123127000Y-110898750D01*
X122873000Y-110898750D01*
X122714250Y-110740000D01*
X122373691Y-110740000D01*
X122140302Y-110836673D01*
X121999064Y-110977910D01*
X121964090Y-110923559D01*
X121751890Y-110778569D01*
X121500000Y-110727560D01*
X120889000Y-110727560D01*
X120889000Y-107000000D01*
X120821329Y-106659794D01*
X120628618Y-106371382D01*
X120389000Y-106131764D01*
X120389000Y-104012631D01*
X120581830Y-104205461D01*
X120552560Y-104350000D01*
X120552560Y-105650000D01*
X120596838Y-105885317D01*
X120735910Y-106101441D01*
X120948110Y-106246431D01*
X121200000Y-106297440D01*
X121900000Y-106297440D01*
X122135317Y-106253162D01*
X122351441Y-106114090D01*
X122496431Y-105901890D01*
X122499081Y-105888803D01*
X122635910Y-106101441D01*
X122848110Y-106246431D01*
X123100000Y-106297440D01*
X123800000Y-106297440D01*
X124035317Y-106253162D01*
X124251441Y-106114090D01*
X124290000Y-106057657D01*
X124290000Y-124290000D01*
X90127000Y-124290000D01*
X90127000Y-121942619D01*
X119264613Y-121942619D01*
X119604155Y-122764372D01*
X120232321Y-123393636D01*
X121053481Y-123734611D01*
X121942619Y-123735387D01*
X122764372Y-123395845D01*
X123393636Y-122767679D01*
X123734611Y-121946519D01*
X123735387Y-121057381D01*
X123395845Y-120235628D01*
X122767679Y-119606364D01*
X121946519Y-119265389D01*
X121057381Y-119264613D01*
X120235628Y-119604155D01*
X119606364Y-120232321D01*
X119265389Y-121053481D01*
X119264613Y-121942619D01*
X90127000Y-121942619D01*
X90127000Y-112285750D01*
X115865000Y-112285750D01*
X115865000Y-112751310D01*
X115961673Y-112984699D01*
X116140302Y-113163327D01*
X116373691Y-113260000D01*
X116714250Y-113260000D01*
X116873000Y-113101250D01*
X116873000Y-112127000D01*
X116023750Y-112127000D01*
X115865000Y-112285750D01*
X90127000Y-112285750D01*
X90127000Y-110855553D01*
X97944052Y-110855553D01*
X97971887Y-111062950D01*
X98372939Y-111193272D01*
X98793334Y-111160199D01*
X99028113Y-111062950D01*
X99055948Y-110855553D01*
X100944052Y-110855553D01*
X100971887Y-111062950D01*
X101372939Y-111193272D01*
X101793334Y-111160199D01*
X102028113Y-111062950D01*
X102055948Y-110855553D01*
X101500000Y-110299605D01*
X100944052Y-110855553D01*
X99055948Y-110855553D01*
X98500000Y-110299605D01*
X97944052Y-110855553D01*
X90127000Y-110855553D01*
X90127000Y-108434972D01*
X95526888Y-108434972D01*
X95558783Y-108885375D01*
X95669783Y-109153352D01*
X95884896Y-109190499D01*
X96495395Y-108580000D01*
X95884896Y-107969501D01*
X95669783Y-108006648D01*
X95526888Y-108434972D01*
X90127000Y-108434972D01*
X90127000Y-54303970D01*
X92095635Y-54303970D01*
X92255418Y-54622739D01*
X93046187Y-54932723D01*
X93895387Y-54916497D01*
X94604582Y-54622739D01*
X94764365Y-54303970D01*
X93430000Y-52969605D01*
X92095635Y-54303970D01*
X90127000Y-54303970D01*
X90127000Y-52406187D01*
X91287277Y-52406187D01*
X91303503Y-53255387D01*
X91597261Y-53964582D01*
X91916030Y-54124365D01*
X93250395Y-52790000D01*
X93609605Y-52790000D01*
X94943970Y-54124365D01*
X95262739Y-53964582D01*
X95572723Y-53173813D01*
X95556497Y-52324613D01*
X95262739Y-51615418D01*
X94943970Y-51455635D01*
X93609605Y-52790000D01*
X93250395Y-52790000D01*
X91916030Y-51455635D01*
X91597261Y-51615418D01*
X91287277Y-52406187D01*
X90127000Y-52406187D01*
X90127000Y-50710000D01*
X92852359Y-50710000D01*
X92255418Y-50957261D01*
G36*
X96852827Y-90410063D02*
X96795715Y-90467175D01*
X96614485Y-90542058D01*
X96323081Y-90832954D01*
X96267289Y-90967316D01*
X96064501Y-91170104D01*
X96101648Y-91385217D01*
X96165012Y-91406356D01*
X96164821Y-91624971D01*
X96322058Y-92005515D01*
X96612954Y-92296919D01*
X96993223Y-92454820D01*
X97404971Y-92455179D01*
X97537325Y-92400492D01*
X97557050Y-92448113D01*
X97764447Y-92475948D01*
X98309099Y-91931296D01*
X98498217Y-92009824D01*
X98617961Y-92009929D01*
X98514143Y-92113748D01*
X98500000Y-92099605D01*
X97944052Y-92655553D01*
X97971887Y-92862950D01*
X97976625Y-92864490D01*
X97897822Y-92943155D01*
X97748632Y-93302444D01*
X97748293Y-93691477D01*
X97896855Y-94051026D01*
X97964362Y-94118651D01*
X97964362Y-97062901D01*
X98022366Y-97354506D01*
X98162490Y-97564216D01*
X98187547Y-97601716D01*
X103423830Y-102838000D01*
X100400000Y-102838000D01*
X100108395Y-102896004D01*
X99861184Y-103061185D01*
X98811185Y-104111185D01*
X98646004Y-104358395D01*
X98588000Y-104650000D01*
X98588000Y-106549801D01*
X98206666Y-106579801D01*
X97971887Y-106677050D01*
X97944052Y-106884447D01*
X98500000Y-107440395D01*
X98514143Y-107426253D01*
X98588000Y-107500110D01*
X98588000Y-107739890D01*
X98542563Y-107785327D01*
X94889000Y-104131764D01*
X94889000Y-90234972D01*
X95526888Y-90234972D01*
X95558783Y-90685375D01*
X95669783Y-90953352D01*
X95884896Y-90990499D01*
X96495395Y-90380000D01*
X95884896Y-89769501D01*
X95669783Y-89806648D01*
X95526888Y-90234972D01*
X94889000Y-90234972D01*
X94889000Y-88446236D01*
X96852827Y-90410063D01*
X96852827Y-90410063D01*
G37*
X96852827Y-90410063D02*
X96795715Y-90467175D01*
X96614485Y-90542058D01*
X96323081Y-90832954D01*
X96267289Y-90967316D01*
X96064501Y-91170104D01*
X96101648Y-91385217D01*
X96165012Y-91406356D01*
X96164821Y-91624971D01*
X96322058Y-92005515D01*
X96612954Y-92296919D01*
X96993223Y-92454820D01*
X97404971Y-92455179D01*
X97537325Y-92400492D01*
X97557050Y-92448113D01*
X97764447Y-92475948D01*
X98309099Y-91931296D01*
X98498217Y-92009824D01*
X98617961Y-92009929D01*
X98514143Y-92113748D01*
X98500000Y-92099605D01*
X97944052Y-92655553D01*
X97971887Y-92862950D01*
X97976625Y-92864490D01*
X97897822Y-92943155D01*
X97748632Y-93302444D01*
X97748293Y-93691477D01*
X97896855Y-94051026D01*
X97964362Y-94118651D01*
X97964362Y-97062901D01*
X98022366Y-97354506D01*
X98162490Y-97564216D01*
X98187547Y-97601716D01*
X103423830Y-102838000D01*
X100400000Y-102838000D01*
X100108395Y-102896004D01*
X99861184Y-103061185D01*
X98811185Y-104111185D01*
X98646004Y-104358395D01*
X98588000Y-104650000D01*
X98588000Y-106549801D01*
X98206666Y-106579801D01*
X97971887Y-106677050D01*
X97944052Y-106884447D01*
X98500000Y-107440395D01*
X98514143Y-107426253D01*
X98588000Y-107500110D01*
X98588000Y-107739890D01*
X98542563Y-107785327D01*
X94889000Y-104131764D01*
X94889000Y-90234972D01*
X95526888Y-90234972D01*
X95558783Y-90685375D01*
X95669783Y-90953352D01*
X95884896Y-90990499D01*
X96495395Y-90380000D01*
X95884896Y-89769501D01*
X95669783Y-89806648D01*
X95526888Y-90234972D01*
X94889000Y-90234972D01*
X94889000Y-88446236D01*
X96852827Y-90410063D01*
G36*
X122561673Y-103009699D02*
X122740302Y-103188327D01*
X122973691Y-103285000D01*
X123164250Y-103285000D01*
X123322998Y-103126252D01*
X123322998Y-103145372D01*
X122911185Y-103557185D01*
X122746004Y-103804395D01*
X122741713Y-103825967D01*
X122648559Y-103885910D01*
X122503569Y-104098110D01*
X122500919Y-104111197D01*
X122364090Y-103898559D01*
X122258356Y-103826314D01*
X122253996Y-103804395D01*
X122234355Y-103775000D01*
X122088815Y-103557184D01*
X121829071Y-103297440D01*
X121900000Y-103297440D01*
X122135317Y-103253162D01*
X122351441Y-103114090D01*
X122496431Y-102901890D01*
X122503191Y-102868510D01*
X122561673Y-103009699D01*
X122561673Y-103009699D01*
G37*
X122561673Y-103009699D02*
X122740302Y-103188327D01*
X122973691Y-103285000D01*
X123164250Y-103285000D01*
X123322998Y-103126252D01*
X123322998Y-103145372D01*
X122911185Y-103557185D01*
X122746004Y-103804395D01*
X122741713Y-103825967D01*
X122648559Y-103885910D01*
X122503569Y-104098110D01*
X122500919Y-104111197D01*
X122364090Y-103898559D01*
X122258356Y-103826314D01*
X122253996Y-103804395D01*
X122234355Y-103775000D01*
X122088815Y-103557184D01*
X121829071Y-103297440D01*
X121900000Y-103297440D01*
X122135317Y-103253162D01*
X122351441Y-103114090D01*
X122496431Y-102901890D01*
X122503191Y-102868510D01*
X122561673Y-103009699D01*
G36*
X123577000Y-101873000D02*
X123597000Y-101873000D01*
X123597000Y-102127000D01*
X123577000Y-102127000D01*
X123577000Y-102147000D01*
X123323000Y-102147000D01*
X123323000Y-102127000D01*
X123303000Y-102127000D01*
X123303000Y-101873000D01*
X123323000Y-101873000D01*
X123323000Y-101853000D01*
X123577000Y-101853000D01*
X123577000Y-101873000D01*
X123577000Y-101873000D01*
G37*
X123577000Y-101873000D02*
X123597000Y-101873000D01*
X123597000Y-102127000D01*
X123577000Y-102127000D01*
X123577000Y-102147000D01*
X123323000Y-102147000D01*
X123323000Y-102127000D01*
X123303000Y-102127000D01*
X123303000Y-101873000D01*
X123323000Y-101873000D01*
X123323000Y-101853000D01*
X123577000Y-101853000D01*
X123577000Y-101873000D01*
G36*
X111814760Y-64904285D02*
X112025169Y-65413515D01*
X112414436Y-65803461D01*
X112646870Y-65899976D01*
X112416485Y-65995169D01*
X112026539Y-66384436D01*
X111815241Y-66893298D01*
X111814760Y-67444285D01*
X112025169Y-67953515D01*
X112414436Y-68343461D01*
X112923298Y-68554759D01*
X113474285Y-68555240D01*
X113983515Y-68344831D01*
X114269845Y-68059000D01*
X117301764Y-68059000D01*
X120611000Y-71368236D01*
X120611000Y-78054318D01*
X120516767Y-78015189D01*
X120085127Y-78014812D01*
X119686200Y-78179646D01*
X119380718Y-78484595D01*
X119215189Y-78883233D01*
X119215159Y-78917134D01*
X119209698Y-78911673D01*
X118976309Y-78815000D01*
X117985750Y-78815000D01*
X117827000Y-78973750D01*
X117827000Y-79575000D01*
X117847000Y-79575000D01*
X117847000Y-79602560D01*
X116550000Y-79602560D01*
X116314683Y-79646838D01*
X116098559Y-79785910D01*
X116067751Y-79830999D01*
X115915000Y-79983750D01*
X115915000Y-80076310D01*
X115930268Y-80113171D01*
X115902560Y-80250000D01*
X115902560Y-80588800D01*
X115193773Y-80588800D01*
X115119082Y-80513978D01*
X115206334Y-80426726D01*
X115090107Y-80310499D01*
X115305217Y-80273352D01*
X115448112Y-79845028D01*
X115416217Y-79394625D01*
X115386835Y-79323690D01*
X115915000Y-79323690D01*
X115915000Y-79416250D01*
X116073750Y-79575000D01*
X117573000Y-79575000D01*
X117573000Y-78973750D01*
X117414250Y-78815000D01*
X116423691Y-78815000D01*
X116190302Y-78911673D01*
X116011673Y-79090301D01*
X115915000Y-79323690D01*
X115386835Y-79323690D01*
X115305217Y-79126648D01*
X115090104Y-79089501D01*
X114479605Y-79700000D01*
X114493748Y-79714143D01*
X114314143Y-79893748D01*
X114300000Y-79879605D01*
X114285858Y-79893748D01*
X114106253Y-79714143D01*
X114120395Y-79700000D01*
X114106253Y-79685858D01*
X114285858Y-79506253D01*
X114300000Y-79520395D01*
X114910499Y-78909896D01*
X114873352Y-78694783D01*
X114582922Y-78597891D01*
X114625988Y-78505593D01*
X113400000Y-77279605D01*
X112174012Y-78505593D01*
X112315478Y-78808782D01*
X113051955Y-79093737D01*
X113503506Y-79083114D01*
X113509893Y-79089501D01*
X113294783Y-79126648D01*
X113151888Y-79554972D01*
X113158877Y-79653668D01*
X113043765Y-79538355D01*
X112626756Y-79365197D01*
X112175225Y-79364803D01*
X111757914Y-79537233D01*
X111438355Y-79856235D01*
X111265197Y-80273244D01*
X111264966Y-80538000D01*
X109700000Y-80538000D01*
X109408395Y-80596004D01*
X109165952Y-80758000D01*
X109161185Y-80761185D01*
X107683264Y-82239106D01*
X107518083Y-82486316D01*
X107460079Y-82777921D01*
X107460079Y-86222079D01*
X107518083Y-86513684D01*
X107683264Y-86760894D01*
X111961185Y-91038815D01*
X112208395Y-91203996D01*
X112326859Y-91227560D01*
X112000000Y-91227560D01*
X111764683Y-91271838D01*
X111548559Y-91410910D01*
X111502031Y-91479006D01*
X111359698Y-91336673D01*
X111126309Y-91240000D01*
X110785750Y-91240000D01*
X110627000Y-91398750D01*
X110627000Y-92373000D01*
X110647000Y-92373000D01*
X110647000Y-92627000D01*
X110627000Y-92627000D01*
X110627000Y-93601250D01*
X110785750Y-93760000D01*
X111126309Y-93760000D01*
X111359698Y-93663327D01*
X111500936Y-93522090D01*
X111535910Y-93576441D01*
X111748110Y-93721431D01*
X112000000Y-93772440D01*
X112701235Y-93772440D01*
X112731355Y-93802560D01*
X111900000Y-93802560D01*
X111664683Y-93846838D01*
X111498523Y-93953759D01*
X111351890Y-93853569D01*
X111100000Y-93802560D01*
X110050000Y-93802560D01*
X109814683Y-93846838D01*
X109598559Y-93985910D01*
X109453569Y-94198110D01*
X109402560Y-94450000D01*
X109402560Y-95550000D01*
X109446838Y-95785317D01*
X109585910Y-96001441D01*
X109798110Y-96146431D01*
X109813000Y-96149446D01*
X109813000Y-97086619D01*
X109676310Y-97030000D01*
X109085750Y-97030000D01*
X108927000Y-97188750D01*
X108927000Y-97657560D01*
X108673000Y-97657560D01*
X108673000Y-97188750D01*
X108514250Y-97030000D01*
X107923690Y-97030000D01*
X107690301Y-97126673D01*
X107511673Y-97305302D01*
X107415000Y-97538691D01*
X107415000Y-97593750D01*
X107573750Y-97752500D01*
X107735952Y-97752500D01*
X107598559Y-97840910D01*
X107465281Y-98035969D01*
X107415000Y-98086250D01*
X107415000Y-98141309D01*
X107428909Y-98174887D01*
X107413593Y-98250517D01*
X107413593Y-92785750D01*
X109365000Y-92785750D01*
X109365000Y-93251310D01*
X109461673Y-93484699D01*
X109640302Y-93663327D01*
X109873691Y-93760000D01*
X110214250Y-93760000D01*
X110373000Y-93601250D01*
X110373000Y-92627000D01*
X109523750Y-92627000D01*
X109365000Y-92785750D01*
X107413593Y-92785750D01*
X107413593Y-91748690D01*
X109365000Y-91748690D01*
X109365000Y-92214250D01*
X109523750Y-92373000D01*
X110373000Y-92373000D01*
X110373000Y-91398750D01*
X110214250Y-91240000D01*
X109873691Y-91240000D01*
X109640302Y-91336673D01*
X109461673Y-91515301D01*
X109365000Y-91748690D01*
X107413593Y-91748690D01*
X107413593Y-76751955D01*
X111406263Y-76751955D01*
X111424836Y-77541418D01*
X111691218Y-78184522D01*
X111994407Y-78325988D01*
X113220395Y-77100000D01*
X113579605Y-77100000D01*
X114805593Y-78325988D01*
X115108782Y-78184522D01*
X115393737Y-77448045D01*
X115386390Y-77135750D01*
X115915000Y-77135750D01*
X115915000Y-77976310D01*
X116011673Y-78209699D01*
X116190302Y-78388327D01*
X116423691Y-78485000D01*
X117514250Y-78485000D01*
X117673000Y-78326250D01*
X117673000Y-76977000D01*
X117927000Y-76977000D01*
X117927000Y-78326250D01*
X118085750Y-78485000D01*
X119176309Y-78485000D01*
X119409698Y-78388327D01*
X119588327Y-78209699D01*
X119685000Y-77976310D01*
X119685000Y-77135750D01*
X119526250Y-76977000D01*
X117927000Y-76977000D01*
X117673000Y-76977000D01*
X116073750Y-76977000D01*
X115915000Y-77135750D01*
X115386390Y-77135750D01*
X115375164Y-76658582D01*
X115108782Y-76015478D01*
X114805593Y-75874012D01*
X113579605Y-77100000D01*
X113220395Y-77100000D01*
X111994407Y-75874012D01*
X111691218Y-76015478D01*
X111406263Y-76751955D01*
X107413593Y-76751955D01*
X107413593Y-75694407D01*
X112174012Y-75694407D01*
X113400000Y-76920395D01*
X114596705Y-75723690D01*
X115915000Y-75723690D01*
X115915000Y-76564250D01*
X116073750Y-76723000D01*
X117673000Y-76723000D01*
X117673000Y-75373750D01*
X117927000Y-75373750D01*
X117927000Y-76723000D01*
X119526250Y-76723000D01*
X119685000Y-76564250D01*
X119685000Y-75723690D01*
X119588327Y-75490301D01*
X119409698Y-75311673D01*
X119176309Y-75215000D01*
X118085750Y-75215000D01*
X117927000Y-75373750D01*
X117673000Y-75373750D01*
X117514250Y-75215000D01*
X116423691Y-75215000D01*
X116190302Y-75311673D01*
X116011673Y-75490301D01*
X115915000Y-75723690D01*
X114596705Y-75723690D01*
X114625988Y-75694407D01*
X114484522Y-75391218D01*
X113748045Y-75106263D01*
X112958582Y-75124836D01*
X112315478Y-75391218D01*
X112174012Y-75694407D01*
X107413593Y-75694407D01*
X107413593Y-72243970D01*
X114535635Y-72243970D01*
X114695418Y-72562739D01*
X115486187Y-72872723D01*
X116335387Y-72856497D01*
X117044582Y-72562739D01*
X117204365Y-72243970D01*
X115870000Y-70909605D01*
X114535635Y-72243970D01*
X107413593Y-72243970D01*
X107413593Y-70346187D01*
X113727277Y-70346187D01*
X113743503Y-71195387D01*
X114037261Y-71904582D01*
X114356030Y-72064365D01*
X115690395Y-70730000D01*
X116049605Y-70730000D01*
X117383970Y-72064365D01*
X117702739Y-71904582D01*
X118012723Y-71113813D01*
X117996497Y-70264613D01*
X117702739Y-69555418D01*
X117383970Y-69395635D01*
X116049605Y-70730000D01*
X115690395Y-70730000D01*
X114356030Y-69395635D01*
X114037261Y-69555418D01*
X113727277Y-70346187D01*
X107413593Y-70346187D01*
X107413593Y-69216030D01*
X114535635Y-69216030D01*
X115870000Y-70550395D01*
X117204365Y-69216030D01*
X117044582Y-68897261D01*
X116253813Y-68587277D01*
X115404613Y-68603503D01*
X114695418Y-68897261D01*
X114535635Y-69216030D01*
X107413593Y-69216030D01*
X107413593Y-66664037D01*
X108099644Y-65977987D01*
X108193663Y-65978069D01*
X108553212Y-65829507D01*
X108828540Y-65554659D01*
X108977730Y-65195370D01*
X108978069Y-64806337D01*
X108933984Y-64699642D01*
X111814939Y-64699642D01*
X111814760Y-64904285D01*
X111814760Y-64904285D01*
G37*
X111814760Y-64904285D02*
X112025169Y-65413515D01*
X112414436Y-65803461D01*
X112646870Y-65899976D01*
X112416485Y-65995169D01*
X112026539Y-66384436D01*
X111815241Y-66893298D01*
X111814760Y-67444285D01*
X112025169Y-67953515D01*
X112414436Y-68343461D01*
X112923298Y-68554759D01*
X113474285Y-68555240D01*
X113983515Y-68344831D01*
X114269845Y-68059000D01*
X117301764Y-68059000D01*
X120611000Y-71368236D01*
X120611000Y-78054318D01*
X120516767Y-78015189D01*
X120085127Y-78014812D01*
X119686200Y-78179646D01*
X119380718Y-78484595D01*
X119215189Y-78883233D01*
X119215159Y-78917134D01*
X119209698Y-78911673D01*
X118976309Y-78815000D01*
X117985750Y-78815000D01*
X117827000Y-78973750D01*
X117827000Y-79575000D01*
X117847000Y-79575000D01*
X117847000Y-79602560D01*
X116550000Y-79602560D01*
X116314683Y-79646838D01*
X116098559Y-79785910D01*
X116067751Y-79830999D01*
X115915000Y-79983750D01*
X115915000Y-80076310D01*
X115930268Y-80113171D01*
X115902560Y-80250000D01*
X115902560Y-80588800D01*
X115193773Y-80588800D01*
X115119082Y-80513978D01*
X115206334Y-80426726D01*
X115090107Y-80310499D01*
X115305217Y-80273352D01*
X115448112Y-79845028D01*
X115416217Y-79394625D01*
X115386835Y-79323690D01*
X115915000Y-79323690D01*
X115915000Y-79416250D01*
X116073750Y-79575000D01*
X117573000Y-79575000D01*
X117573000Y-78973750D01*
X117414250Y-78815000D01*
X116423691Y-78815000D01*
X116190302Y-78911673D01*
X116011673Y-79090301D01*
X115915000Y-79323690D01*
X115386835Y-79323690D01*
X115305217Y-79126648D01*
X115090104Y-79089501D01*
X114479605Y-79700000D01*
X114493748Y-79714143D01*
X114314143Y-79893748D01*
X114300000Y-79879605D01*
X114285858Y-79893748D01*
X114106253Y-79714143D01*
X114120395Y-79700000D01*
X114106253Y-79685858D01*
X114285858Y-79506253D01*
X114300000Y-79520395D01*
X114910499Y-78909896D01*
X114873352Y-78694783D01*
X114582922Y-78597891D01*
X114625988Y-78505593D01*
X113400000Y-77279605D01*
X112174012Y-78505593D01*
X112315478Y-78808782D01*
X113051955Y-79093737D01*
X113503506Y-79083114D01*
X113509893Y-79089501D01*
X113294783Y-79126648D01*
X113151888Y-79554972D01*
X113158877Y-79653668D01*
X113043765Y-79538355D01*
X112626756Y-79365197D01*
X112175225Y-79364803D01*
X111757914Y-79537233D01*
X111438355Y-79856235D01*
X111265197Y-80273244D01*
X111264966Y-80538000D01*
X109700000Y-80538000D01*
X109408395Y-80596004D01*
X109165952Y-80758000D01*
X109161185Y-80761185D01*
X107683264Y-82239106D01*
X107518083Y-82486316D01*
X107460079Y-82777921D01*
X107460079Y-86222079D01*
X107518083Y-86513684D01*
X107683264Y-86760894D01*
X111961185Y-91038815D01*
X112208395Y-91203996D01*
X112326859Y-91227560D01*
X112000000Y-91227560D01*
X111764683Y-91271838D01*
X111548559Y-91410910D01*
X111502031Y-91479006D01*
X111359698Y-91336673D01*
X111126309Y-91240000D01*
X110785750Y-91240000D01*
X110627000Y-91398750D01*
X110627000Y-92373000D01*
X110647000Y-92373000D01*
X110647000Y-92627000D01*
X110627000Y-92627000D01*
X110627000Y-93601250D01*
X110785750Y-93760000D01*
X111126309Y-93760000D01*
X111359698Y-93663327D01*
X111500936Y-93522090D01*
X111535910Y-93576441D01*
X111748110Y-93721431D01*
X112000000Y-93772440D01*
X112701235Y-93772440D01*
X112731355Y-93802560D01*
X111900000Y-93802560D01*
X111664683Y-93846838D01*
X111498523Y-93953759D01*
X111351890Y-93853569D01*
X111100000Y-93802560D01*
X110050000Y-93802560D01*
X109814683Y-93846838D01*
X109598559Y-93985910D01*
X109453569Y-94198110D01*
X109402560Y-94450000D01*
X109402560Y-95550000D01*
X109446838Y-95785317D01*
X109585910Y-96001441D01*
X109798110Y-96146431D01*
X109813000Y-96149446D01*
X109813000Y-97086619D01*
X109676310Y-97030000D01*
X109085750Y-97030000D01*
X108927000Y-97188750D01*
X108927000Y-97657560D01*
X108673000Y-97657560D01*
X108673000Y-97188750D01*
X108514250Y-97030000D01*
X107923690Y-97030000D01*
X107690301Y-97126673D01*
X107511673Y-97305302D01*
X107415000Y-97538691D01*
X107415000Y-97593750D01*
X107573750Y-97752500D01*
X107735952Y-97752500D01*
X107598559Y-97840910D01*
X107465281Y-98035969D01*
X107415000Y-98086250D01*
X107415000Y-98141309D01*
X107428909Y-98174887D01*
X107413593Y-98250517D01*
X107413593Y-92785750D01*
X109365000Y-92785750D01*
X109365000Y-93251310D01*
X109461673Y-93484699D01*
X109640302Y-93663327D01*
X109873691Y-93760000D01*
X110214250Y-93760000D01*
X110373000Y-93601250D01*
X110373000Y-92627000D01*
X109523750Y-92627000D01*
X109365000Y-92785750D01*
X107413593Y-92785750D01*
X107413593Y-91748690D01*
X109365000Y-91748690D01*
X109365000Y-92214250D01*
X109523750Y-92373000D01*
X110373000Y-92373000D01*
X110373000Y-91398750D01*
X110214250Y-91240000D01*
X109873691Y-91240000D01*
X109640302Y-91336673D01*
X109461673Y-91515301D01*
X109365000Y-91748690D01*
X107413593Y-91748690D01*
X107413593Y-76751955D01*
X111406263Y-76751955D01*
X111424836Y-77541418D01*
X111691218Y-78184522D01*
X111994407Y-78325988D01*
X113220395Y-77100000D01*
X113579605Y-77100000D01*
X114805593Y-78325988D01*
X115108782Y-78184522D01*
X115393737Y-77448045D01*
X115386390Y-77135750D01*
X115915000Y-77135750D01*
X115915000Y-77976310D01*
X116011673Y-78209699D01*
X116190302Y-78388327D01*
X116423691Y-78485000D01*
X117514250Y-78485000D01*
X117673000Y-78326250D01*
X117673000Y-76977000D01*
X117927000Y-76977000D01*
X117927000Y-78326250D01*
X118085750Y-78485000D01*
X119176309Y-78485000D01*
X119409698Y-78388327D01*
X119588327Y-78209699D01*
X119685000Y-77976310D01*
X119685000Y-77135750D01*
X119526250Y-76977000D01*
X117927000Y-76977000D01*
X117673000Y-76977000D01*
X116073750Y-76977000D01*
X115915000Y-77135750D01*
X115386390Y-77135750D01*
X115375164Y-76658582D01*
X115108782Y-76015478D01*
X114805593Y-75874012D01*
X113579605Y-77100000D01*
X113220395Y-77100000D01*
X111994407Y-75874012D01*
X111691218Y-76015478D01*
X111406263Y-76751955D01*
X107413593Y-76751955D01*
X107413593Y-75694407D01*
X112174012Y-75694407D01*
X113400000Y-76920395D01*
X114596705Y-75723690D01*
X115915000Y-75723690D01*
X115915000Y-76564250D01*
X116073750Y-76723000D01*
X117673000Y-76723000D01*
X117673000Y-75373750D01*
X117927000Y-75373750D01*
X117927000Y-76723000D01*
X119526250Y-76723000D01*
X119685000Y-76564250D01*
X119685000Y-75723690D01*
X119588327Y-75490301D01*
X119409698Y-75311673D01*
X119176309Y-75215000D01*
X118085750Y-75215000D01*
X117927000Y-75373750D01*
X117673000Y-75373750D01*
X117514250Y-75215000D01*
X116423691Y-75215000D01*
X116190302Y-75311673D01*
X116011673Y-75490301D01*
X115915000Y-75723690D01*
X114596705Y-75723690D01*
X114625988Y-75694407D01*
X114484522Y-75391218D01*
X113748045Y-75106263D01*
X112958582Y-75124836D01*
X112315478Y-75391218D01*
X112174012Y-75694407D01*
X107413593Y-75694407D01*
X107413593Y-72243970D01*
X114535635Y-72243970D01*
X114695418Y-72562739D01*
X115486187Y-72872723D01*
X116335387Y-72856497D01*
X117044582Y-72562739D01*
X117204365Y-72243970D01*
X115870000Y-70909605D01*
X114535635Y-72243970D01*
X107413593Y-72243970D01*
X107413593Y-70346187D01*
X113727277Y-70346187D01*
X113743503Y-71195387D01*
X114037261Y-71904582D01*
X114356030Y-72064365D01*
X115690395Y-70730000D01*
X116049605Y-70730000D01*
X117383970Y-72064365D01*
X117702739Y-71904582D01*
X118012723Y-71113813D01*
X117996497Y-70264613D01*
X117702739Y-69555418D01*
X117383970Y-69395635D01*
X116049605Y-70730000D01*
X115690395Y-70730000D01*
X114356030Y-69395635D01*
X114037261Y-69555418D01*
X113727277Y-70346187D01*
X107413593Y-70346187D01*
X107413593Y-69216030D01*
X114535635Y-69216030D01*
X115870000Y-70550395D01*
X117204365Y-69216030D01*
X117044582Y-68897261D01*
X116253813Y-68587277D01*
X115404613Y-68603503D01*
X114695418Y-68897261D01*
X114535635Y-69216030D01*
X107413593Y-69216030D01*
X107413593Y-66664037D01*
X108099644Y-65977987D01*
X108193663Y-65978069D01*
X108553212Y-65829507D01*
X108828540Y-65554659D01*
X108977730Y-65195370D01*
X108978069Y-64806337D01*
X108933984Y-64699642D01*
X111814939Y-64699642D01*
X111814760Y-64904285D01*
G36*
X103518748Y-90365858D02*
X103504605Y-90380000D01*
X103518748Y-90394143D01*
X103374866Y-90538024D01*
X103204314Y-90467204D01*
X103131253Y-90394143D01*
X103145395Y-90380000D01*
X103131253Y-90365858D01*
X103310858Y-90186253D01*
X103325000Y-90200395D01*
X103339143Y-90186253D01*
X103518748Y-90365858D01*
X103518748Y-90365858D01*
G37*
X103518748Y-90365858D02*
X103504605Y-90380000D01*
X103518748Y-90394143D01*
X103374866Y-90538024D01*
X103204314Y-90467204D01*
X103131253Y-90394143D01*
X103145395Y-90380000D01*
X103131253Y-90365858D01*
X103310858Y-90186253D01*
X103325000Y-90200395D01*
X103339143Y-90186253D01*
X103518748Y-90365858D01*
G36*
X96852827Y-72210063D02*
X96795715Y-72267175D01*
X96614485Y-72342058D01*
X96323081Y-72632954D01*
X96267289Y-72767316D01*
X96064501Y-72970104D01*
X96101648Y-73185217D01*
X96165012Y-73206356D01*
X96164821Y-73424971D01*
X96322058Y-73805515D01*
X96612954Y-74096919D01*
X96993223Y-74254820D01*
X97404971Y-74255179D01*
X97537325Y-74200492D01*
X97557050Y-74248113D01*
X97764447Y-74275948D01*
X98309099Y-73731296D01*
X98498217Y-73809824D01*
X98617961Y-73809929D01*
X98514143Y-73913748D01*
X98500000Y-73899605D01*
X97944052Y-74455553D01*
X97971887Y-74662950D01*
X98372939Y-74793272D01*
X98793334Y-74760199D01*
X99028113Y-74662950D01*
X99055948Y-74455556D01*
X99172654Y-74572262D01*
X99238000Y-74506916D01*
X99238000Y-78074750D01*
X99296004Y-78366355D01*
X99376082Y-78486200D01*
X99461185Y-78613565D01*
X103550198Y-82702578D01*
X103550198Y-89258634D01*
X103470028Y-89231888D01*
X103019625Y-89263783D01*
X102751648Y-89374783D01*
X102714501Y-89589893D01*
X102598274Y-89473666D01*
X102569743Y-89502197D01*
X102540199Y-89126666D01*
X102442950Y-88891887D01*
X102235553Y-88864052D01*
X101679605Y-89420000D01*
X101693748Y-89434143D01*
X101514143Y-89613748D01*
X101500000Y-89599605D01*
X101485858Y-89613748D01*
X101306253Y-89434143D01*
X101320395Y-89420000D01*
X100764447Y-88864052D01*
X100557050Y-88891887D01*
X100426728Y-89292939D01*
X100431032Y-89347654D01*
X100078628Y-89493264D01*
X100000112Y-89571644D01*
X99922866Y-89494263D01*
X99557172Y-89342414D01*
X99540199Y-89126666D01*
X99442950Y-88891887D01*
X99235553Y-88864052D01*
X98679605Y-89420000D01*
X98693748Y-89434143D01*
X98542563Y-89585327D01*
X97641683Y-88684447D01*
X97944052Y-88684447D01*
X98500000Y-89240395D01*
X99055948Y-88684447D01*
X100944052Y-88684447D01*
X101500000Y-89240395D01*
X102055948Y-88684447D01*
X102028113Y-88477050D01*
X101627061Y-88346728D01*
X101206666Y-88379801D01*
X100971887Y-88477050D01*
X100944052Y-88684447D01*
X99055948Y-88684447D01*
X99028113Y-88477050D01*
X98627061Y-88346728D01*
X98206666Y-88379801D01*
X97971887Y-88477050D01*
X97944052Y-88684447D01*
X97641683Y-88684447D01*
X94889000Y-85931764D01*
X94889000Y-72034972D01*
X95526888Y-72034972D01*
X95558783Y-72485375D01*
X95669783Y-72753352D01*
X95884896Y-72790499D01*
X96495395Y-72180000D01*
X95884896Y-71569501D01*
X95669783Y-71606648D01*
X95526888Y-72034972D01*
X94889000Y-72034972D01*
X94889000Y-70246236D01*
X96852827Y-72210063D01*
X96852827Y-72210063D01*
G37*
X96852827Y-72210063D02*
X96795715Y-72267175D01*
X96614485Y-72342058D01*
X96323081Y-72632954D01*
X96267289Y-72767316D01*
X96064501Y-72970104D01*
X96101648Y-73185217D01*
X96165012Y-73206356D01*
X96164821Y-73424971D01*
X96322058Y-73805515D01*
X96612954Y-74096919D01*
X96993223Y-74254820D01*
X97404971Y-74255179D01*
X97537325Y-74200492D01*
X97557050Y-74248113D01*
X97764447Y-74275948D01*
X98309099Y-73731296D01*
X98498217Y-73809824D01*
X98617961Y-73809929D01*
X98514143Y-73913748D01*
X98500000Y-73899605D01*
X97944052Y-74455553D01*
X97971887Y-74662950D01*
X98372939Y-74793272D01*
X98793334Y-74760199D01*
X99028113Y-74662950D01*
X99055948Y-74455556D01*
X99172654Y-74572262D01*
X99238000Y-74506916D01*
X99238000Y-78074750D01*
X99296004Y-78366355D01*
X99376082Y-78486200D01*
X99461185Y-78613565D01*
X103550198Y-82702578D01*
X103550198Y-89258634D01*
X103470028Y-89231888D01*
X103019625Y-89263783D01*
X102751648Y-89374783D01*
X102714501Y-89589893D01*
X102598274Y-89473666D01*
X102569743Y-89502197D01*
X102540199Y-89126666D01*
X102442950Y-88891887D01*
X102235553Y-88864052D01*
X101679605Y-89420000D01*
X101693748Y-89434143D01*
X101514143Y-89613748D01*
X101500000Y-89599605D01*
X101485858Y-89613748D01*
X101306253Y-89434143D01*
X101320395Y-89420000D01*
X100764447Y-88864052D01*
X100557050Y-88891887D01*
X100426728Y-89292939D01*
X100431032Y-89347654D01*
X100078628Y-89493264D01*
X100000112Y-89571644D01*
X99922866Y-89494263D01*
X99557172Y-89342414D01*
X99540199Y-89126666D01*
X99442950Y-88891887D01*
X99235553Y-88864052D01*
X98679605Y-89420000D01*
X98693748Y-89434143D01*
X98542563Y-89585327D01*
X97641683Y-88684447D01*
X97944052Y-88684447D01*
X98500000Y-89240395D01*
X99055948Y-88684447D01*
X100944052Y-88684447D01*
X101500000Y-89240395D01*
X102055948Y-88684447D01*
X102028113Y-88477050D01*
X101627061Y-88346728D01*
X101206666Y-88379801D01*
X100971887Y-88477050D01*
X100944052Y-88684447D01*
X99055948Y-88684447D01*
X99028113Y-88477050D01*
X98627061Y-88346728D01*
X98206666Y-88379801D01*
X97971887Y-88477050D01*
X97944052Y-88684447D01*
X97641683Y-88684447D01*
X94889000Y-85931764D01*
X94889000Y-72034972D01*
X95526888Y-72034972D01*
X95558783Y-72485375D01*
X95669783Y-72753352D01*
X95884896Y-72790499D01*
X96495395Y-72180000D01*
X95884896Y-71569501D01*
X95669783Y-71606648D01*
X95526888Y-72034972D01*
X94889000Y-72034972D01*
X94889000Y-70246236D01*
X96852827Y-72210063D01*
G36*
X98214436Y-56673461D02*
X98723298Y-56884759D01*
X98890256Y-56884905D01*
X98890256Y-59380756D01*
X98948260Y-59672361D01*
X99070410Y-59855171D01*
X99113441Y-59919571D01*
X103670327Y-64476457D01*
X103917537Y-64641638D01*
X104209142Y-64699642D01*
X106065865Y-64699642D01*
X106022270Y-64804630D01*
X106022187Y-64900183D01*
X105463880Y-65458490D01*
X105298699Y-65705700D01*
X105240695Y-65997305D01*
X105240695Y-81320352D01*
X101762000Y-77841657D01*
X101762000Y-76621083D01*
X101828540Y-76554659D01*
X101977730Y-76195370D01*
X101978069Y-75806337D01*
X101829507Y-75446788D01*
X101554659Y-75171460D01*
X101195370Y-75022270D01*
X100806337Y-75021931D01*
X100762000Y-75040251D01*
X100762000Y-74506916D01*
X100827346Y-74572262D01*
X100944052Y-74455556D01*
X100971887Y-74662950D01*
X101372939Y-74793272D01*
X101793334Y-74760199D01*
X102028113Y-74662950D01*
X102055948Y-74455553D01*
X101500000Y-73899605D01*
X101485858Y-73913748D01*
X101379032Y-73806922D01*
X101585301Y-73789477D01*
X101701112Y-73741507D01*
X102235553Y-74275948D01*
X102442950Y-74248113D01*
X102458895Y-74199043D01*
X102593223Y-74254820D01*
X103004971Y-74255179D01*
X103385515Y-74097942D01*
X103676919Y-73807046D01*
X103834820Y-73426777D01*
X103835008Y-73211455D01*
X103898352Y-73185217D01*
X103935499Y-72970104D01*
X103732908Y-72767513D01*
X103677942Y-72634485D01*
X103387046Y-72343081D01*
X103204314Y-72267204D01*
X103131253Y-72194143D01*
X103145395Y-72180000D01*
X103504605Y-72180000D01*
X104115104Y-72790499D01*
X104330217Y-72753352D01*
X104473112Y-72325028D01*
X104441217Y-71874625D01*
X104330217Y-71606648D01*
X104115104Y-71569501D01*
X103504605Y-72180000D01*
X103145395Y-72180000D01*
X103131253Y-72165858D01*
X103310858Y-71986253D01*
X103325000Y-72000395D01*
X103935499Y-71389896D01*
X103898352Y-71174783D01*
X103470028Y-71031888D01*
X103019625Y-71063783D01*
X102751648Y-71174783D01*
X102714501Y-71389893D01*
X102598274Y-71273666D01*
X102569743Y-71302197D01*
X102540199Y-70926666D01*
X102442950Y-70691887D01*
X102235553Y-70664052D01*
X101679605Y-71220000D01*
X101693748Y-71234143D01*
X101514143Y-71413748D01*
X101500000Y-71399605D01*
X101485858Y-71413748D01*
X101306253Y-71234143D01*
X101320395Y-71220000D01*
X100764447Y-70664052D01*
X100557050Y-70691887D01*
X100426728Y-71092939D01*
X100431032Y-71147654D01*
X100078628Y-71293264D01*
X100000112Y-71371644D01*
X99922866Y-71294263D01*
X99557172Y-71142414D01*
X99540199Y-70926666D01*
X99442950Y-70691887D01*
X99235553Y-70664052D01*
X98679605Y-71220000D01*
X98693748Y-71234143D01*
X98542563Y-71385327D01*
X97641683Y-70484447D01*
X97944052Y-70484447D01*
X98500000Y-71040395D01*
X99055948Y-70484447D01*
X100944052Y-70484447D01*
X101500000Y-71040395D01*
X102055948Y-70484447D01*
X102028113Y-70277050D01*
X101627061Y-70146728D01*
X101206666Y-70179801D01*
X100971887Y-70277050D01*
X100944052Y-70484447D01*
X99055948Y-70484447D01*
X99028113Y-70277050D01*
X98627061Y-70146728D01*
X98206666Y-70179801D01*
X97971887Y-70277050D01*
X97944052Y-70484447D01*
X97641683Y-70484447D01*
X94889000Y-67731764D01*
X94889000Y-60368236D01*
X97628618Y-57628618D01*
X97821329Y-57340206D01*
X97889000Y-57000000D01*
X97889000Y-56569530D01*
X98000036Y-56458687D01*
X98214436Y-56673461D01*
X98214436Y-56673461D01*
G37*
X98214436Y-56673461D02*
X98723298Y-56884759D01*
X98890256Y-56884905D01*
X98890256Y-59380756D01*
X98948260Y-59672361D01*
X99070410Y-59855171D01*
X99113441Y-59919571D01*
X103670327Y-64476457D01*
X103917537Y-64641638D01*
X104209142Y-64699642D01*
X106065865Y-64699642D01*
X106022270Y-64804630D01*
X106022187Y-64900183D01*
X105463880Y-65458490D01*
X105298699Y-65705700D01*
X105240695Y-65997305D01*
X105240695Y-81320352D01*
X101762000Y-77841657D01*
X101762000Y-76621083D01*
X101828540Y-76554659D01*
X101977730Y-76195370D01*
X101978069Y-75806337D01*
X101829507Y-75446788D01*
X101554659Y-75171460D01*
X101195370Y-75022270D01*
X100806337Y-75021931D01*
X100762000Y-75040251D01*
X100762000Y-74506916D01*
X100827346Y-74572262D01*
X100944052Y-74455556D01*
X100971887Y-74662950D01*
X101372939Y-74793272D01*
X101793334Y-74760199D01*
X102028113Y-74662950D01*
X102055948Y-74455553D01*
X101500000Y-73899605D01*
X101485858Y-73913748D01*
X101379032Y-73806922D01*
X101585301Y-73789477D01*
X101701112Y-73741507D01*
X102235553Y-74275948D01*
X102442950Y-74248113D01*
X102458895Y-74199043D01*
X102593223Y-74254820D01*
X103004971Y-74255179D01*
X103385515Y-74097942D01*
X103676919Y-73807046D01*
X103834820Y-73426777D01*
X103835008Y-73211455D01*
X103898352Y-73185217D01*
X103935499Y-72970104D01*
X103732908Y-72767513D01*
X103677942Y-72634485D01*
X103387046Y-72343081D01*
X103204314Y-72267204D01*
X103131253Y-72194143D01*
X103145395Y-72180000D01*
X103504605Y-72180000D01*
X104115104Y-72790499D01*
X104330217Y-72753352D01*
X104473112Y-72325028D01*
X104441217Y-71874625D01*
X104330217Y-71606648D01*
X104115104Y-71569501D01*
X103504605Y-72180000D01*
X103145395Y-72180000D01*
X103131253Y-72165858D01*
X103310858Y-71986253D01*
X103325000Y-72000395D01*
X103935499Y-71389896D01*
X103898352Y-71174783D01*
X103470028Y-71031888D01*
X103019625Y-71063783D01*
X102751648Y-71174783D01*
X102714501Y-71389893D01*
X102598274Y-71273666D01*
X102569743Y-71302197D01*
X102540199Y-70926666D01*
X102442950Y-70691887D01*
X102235553Y-70664052D01*
X101679605Y-71220000D01*
X101693748Y-71234143D01*
X101514143Y-71413748D01*
X101500000Y-71399605D01*
X101485858Y-71413748D01*
X101306253Y-71234143D01*
X101320395Y-71220000D01*
X100764447Y-70664052D01*
X100557050Y-70691887D01*
X100426728Y-71092939D01*
X100431032Y-71147654D01*
X100078628Y-71293264D01*
X100000112Y-71371644D01*
X99922866Y-71294263D01*
X99557172Y-71142414D01*
X99540199Y-70926666D01*
X99442950Y-70691887D01*
X99235553Y-70664052D01*
X98679605Y-71220000D01*
X98693748Y-71234143D01*
X98542563Y-71385327D01*
X97641683Y-70484447D01*
X97944052Y-70484447D01*
X98500000Y-71040395D01*
X99055948Y-70484447D01*
X100944052Y-70484447D01*
X101500000Y-71040395D01*
X102055948Y-70484447D01*
X102028113Y-70277050D01*
X101627061Y-70146728D01*
X101206666Y-70179801D01*
X100971887Y-70277050D01*
X100944052Y-70484447D01*
X99055948Y-70484447D01*
X99028113Y-70277050D01*
X98627061Y-70146728D01*
X98206666Y-70179801D01*
X97971887Y-70277050D01*
X97944052Y-70484447D01*
X97641683Y-70484447D01*
X94889000Y-67731764D01*
X94889000Y-60368236D01*
X97628618Y-57628618D01*
X97821329Y-57340206D01*
X97889000Y-57000000D01*
X97889000Y-56569530D01*
X98000036Y-56458687D01*
X98214436Y-56673461D01*
G36*
X102862941Y-54120177D02*
X102654552Y-54130770D01*
X102276077Y-54287540D01*
X102208088Y-54528483D01*
X103000000Y-55320395D01*
X103014143Y-55306253D01*
X103193748Y-55485858D01*
X103179605Y-55500000D01*
X103971517Y-56291912D01*
X104212460Y-56223923D01*
X104397201Y-55704829D01*
X104394502Y-55651738D01*
X106371382Y-57628618D01*
X106659794Y-57821329D01*
X107000000Y-57889000D01*
X112131764Y-57889000D01*
X112929713Y-58686949D01*
X112854552Y-58690770D01*
X112476077Y-58847540D01*
X112408088Y-59088483D01*
X113200000Y-59880395D01*
X113214143Y-59866253D01*
X113393748Y-60045858D01*
X113379605Y-60060000D01*
X114171517Y-60851912D01*
X114412460Y-60783923D01*
X114573681Y-60330917D01*
X115111000Y-60868236D01*
X115111000Y-66281000D01*
X114269530Y-66281000D01*
X113985564Y-65996539D01*
X113753130Y-65900024D01*
X113983515Y-65804831D01*
X114373461Y-65415564D01*
X114584759Y-64906702D01*
X114585240Y-64355715D01*
X114374831Y-63846485D01*
X114143687Y-63614938D01*
X114373461Y-63385564D01*
X114584759Y-62876702D01*
X114585240Y-62325715D01*
X114374831Y-61816485D01*
X113985564Y-61426539D01*
X113769021Y-61336623D01*
X113923923Y-61272460D01*
X113991912Y-61031517D01*
X113200000Y-60239605D01*
X112408088Y-61031517D01*
X112476077Y-61272460D01*
X112642621Y-61331732D01*
X112416485Y-61425169D01*
X112026539Y-61814436D01*
X111815241Y-62323298D01*
X111815030Y-62565226D01*
X104642857Y-62565226D01*
X101932802Y-59855171D01*
X111802799Y-59855171D01*
X111830770Y-60405448D01*
X111987540Y-60783923D01*
X112228483Y-60851912D01*
X113020395Y-60060000D01*
X112228483Y-59268088D01*
X111987540Y-59336077D01*
X111802799Y-59855171D01*
X101932802Y-59855171D01*
X100918738Y-58841108D01*
X100918738Y-56884930D01*
X101274285Y-56885240D01*
X101783515Y-56674831D01*
X101987183Y-56471517D01*
X102208088Y-56471517D01*
X102276077Y-56712460D01*
X102795171Y-56897201D01*
X103345448Y-56869230D01*
X103723923Y-56712460D01*
X103791912Y-56471517D01*
X103000000Y-55679605D01*
X102208088Y-56471517D01*
X101987183Y-56471517D01*
X102173461Y-56285564D01*
X102271901Y-56048494D01*
X102820395Y-55500000D01*
X102271967Y-54951572D01*
X102174831Y-54716485D01*
X101785564Y-54326539D01*
X101276702Y-54115241D01*
X100725715Y-54114760D01*
X100216485Y-54325169D01*
X99999964Y-54541313D01*
X99785564Y-54326539D01*
X99276702Y-54115241D01*
X98725715Y-54114760D01*
X98216485Y-54325169D01*
X97999964Y-54541313D01*
X97889000Y-54430155D01*
X97889000Y-54368236D01*
X98868236Y-53389000D01*
X102131764Y-53389000D01*
X102862941Y-54120177D01*
X102862941Y-54120177D01*
G37*
X102862941Y-54120177D02*
X102654552Y-54130770D01*
X102276077Y-54287540D01*
X102208088Y-54528483D01*
X103000000Y-55320395D01*
X103014143Y-55306253D01*
X103193748Y-55485858D01*
X103179605Y-55500000D01*
X103971517Y-56291912D01*
X104212460Y-56223923D01*
X104397201Y-55704829D01*
X104394502Y-55651738D01*
X106371382Y-57628618D01*
X106659794Y-57821329D01*
X107000000Y-57889000D01*
X112131764Y-57889000D01*
X112929713Y-58686949D01*
X112854552Y-58690770D01*
X112476077Y-58847540D01*
X112408088Y-59088483D01*
X113200000Y-59880395D01*
X113214143Y-59866253D01*
X113393748Y-60045858D01*
X113379605Y-60060000D01*
X114171517Y-60851912D01*
X114412460Y-60783923D01*
X114573681Y-60330917D01*
X115111000Y-60868236D01*
X115111000Y-66281000D01*
X114269530Y-66281000D01*
X113985564Y-65996539D01*
X113753130Y-65900024D01*
X113983515Y-65804831D01*
X114373461Y-65415564D01*
X114584759Y-64906702D01*
X114585240Y-64355715D01*
X114374831Y-63846485D01*
X114143687Y-63614938D01*
X114373461Y-63385564D01*
X114584759Y-62876702D01*
X114585240Y-62325715D01*
X114374831Y-61816485D01*
X113985564Y-61426539D01*
X113769021Y-61336623D01*
X113923923Y-61272460D01*
X113991912Y-61031517D01*
X113200000Y-60239605D01*
X112408088Y-61031517D01*
X112476077Y-61272460D01*
X112642621Y-61331732D01*
X112416485Y-61425169D01*
X112026539Y-61814436D01*
X111815241Y-62323298D01*
X111815030Y-62565226D01*
X104642857Y-62565226D01*
X101932802Y-59855171D01*
X111802799Y-59855171D01*
X111830770Y-60405448D01*
X111987540Y-60783923D01*
X112228483Y-60851912D01*
X113020395Y-60060000D01*
X112228483Y-59268088D01*
X111987540Y-59336077D01*
X111802799Y-59855171D01*
X101932802Y-59855171D01*
X100918738Y-58841108D01*
X100918738Y-56884930D01*
X101274285Y-56885240D01*
X101783515Y-56674831D01*
X101987183Y-56471517D01*
X102208088Y-56471517D01*
X102276077Y-56712460D01*
X102795171Y-56897201D01*
X103345448Y-56869230D01*
X103723923Y-56712460D01*
X103791912Y-56471517D01*
X103000000Y-55679605D01*
X102208088Y-56471517D01*
X101987183Y-56471517D01*
X102173461Y-56285564D01*
X102271901Y-56048494D01*
X102820395Y-55500000D01*
X102271967Y-54951572D01*
X102174831Y-54716485D01*
X101785564Y-54326539D01*
X101276702Y-54115241D01*
X100725715Y-54114760D01*
X100216485Y-54325169D01*
X99999964Y-54541313D01*
X99785564Y-54326539D01*
X99276702Y-54115241D01*
X98725715Y-54114760D01*
X98216485Y-54325169D01*
X97999964Y-54541313D01*
X97889000Y-54430155D01*
X97889000Y-54368236D01*
X98868236Y-53389000D01*
X102131764Y-53389000D01*
X102862941Y-54120177D01*
G36*
X89373000Y-124290000D02*
X50710000Y-124290000D01*
X50710000Y-121942619D01*
X51264613Y-121942619D01*
X51604155Y-122764372D01*
X52232321Y-123393636D01*
X53053481Y-123734611D01*
X53942619Y-123735387D01*
X54764372Y-123395845D01*
X55393636Y-122767679D01*
X55734611Y-121946519D01*
X55735387Y-121057381D01*
X55395845Y-120235628D01*
X54767679Y-119606364D01*
X53946519Y-119265389D01*
X53057381Y-119264613D01*
X52235628Y-119604155D01*
X51606364Y-120232321D01*
X51265389Y-121053481D01*
X51264613Y-121942619D01*
X50710000Y-121942619D01*
X50710000Y-114849041D01*
X85108086Y-114849041D01*
X85347611Y-115355134D01*
X85762577Y-115731041D01*
X86150961Y-115891904D01*
X86373000Y-115769915D01*
X86373000Y-114627000D01*
X86627000Y-114627000D01*
X86627000Y-115769915D01*
X86849039Y-115891904D01*
X87237423Y-115731041D01*
X87652389Y-115355134D01*
X87891914Y-114849041D01*
X87770629Y-114627000D01*
X86627000Y-114627000D01*
X86373000Y-114627000D01*
X85229371Y-114627000D01*
X85108086Y-114849041D01*
X50710000Y-114849041D01*
X50710000Y-114150959D01*
X85108086Y-114150959D01*
X85229371Y-114373000D01*
X86373000Y-114373000D01*
X86373000Y-113230085D01*
X86627000Y-113230085D01*
X86627000Y-114373000D01*
X87770629Y-114373000D01*
X87891914Y-114150959D01*
X87652389Y-113644866D01*
X87237423Y-113268959D01*
X86849039Y-113108096D01*
X86627000Y-113230085D01*
X86373000Y-113230085D01*
X86150961Y-113108096D01*
X85762577Y-113268959D01*
X85347611Y-113644866D01*
X85108086Y-114150959D01*
X50710000Y-114150959D01*
X50710000Y-104405750D01*
X72865000Y-104405750D01*
X72865000Y-105746309D01*
X72961673Y-105979698D01*
X73140301Y-106158327D01*
X73373690Y-106255000D01*
X74714250Y-106255000D01*
X74873000Y-106096250D01*
X74873000Y-104247000D01*
X75127000Y-104247000D01*
X75127000Y-106096250D01*
X75285750Y-106255000D01*
X76626310Y-106255000D01*
X76859699Y-106158327D01*
X77038327Y-105979698D01*
X77135000Y-105746309D01*
X77135000Y-104405750D01*
X76976250Y-104247000D01*
X75127000Y-104247000D01*
X74873000Y-104247000D01*
X73023750Y-104247000D01*
X72865000Y-104405750D01*
X50710000Y-104405750D01*
X50710000Y-102493691D01*
X72865000Y-102493691D01*
X72865000Y-103834250D01*
X73023750Y-103993000D01*
X74873000Y-103993000D01*
X74873000Y-102143750D01*
X75127000Y-102143750D01*
X75127000Y-103993000D01*
X76976250Y-103993000D01*
X77135000Y-103834250D01*
X77135000Y-102493691D01*
X77038327Y-102260302D01*
X76859699Y-102081673D01*
X76626310Y-101985000D01*
X75285750Y-101985000D01*
X75127000Y-102143750D01*
X74873000Y-102143750D01*
X74714250Y-101985000D01*
X73373690Y-101985000D01*
X73140301Y-102081673D01*
X72961673Y-102260302D01*
X72865000Y-102493691D01*
X50710000Y-102493691D01*
X50710000Y-91422815D01*
X59864630Y-91422815D01*
X60188980Y-92207800D01*
X60789041Y-92808909D01*
X61573459Y-93134628D01*
X62422815Y-93135370D01*
X62980352Y-92905000D01*
X74020454Y-92905000D01*
X74573459Y-93134628D01*
X75422815Y-93135370D01*
X75980352Y-92905000D01*
X82210924Y-92905000D01*
X84595000Y-95289077D01*
X84595000Y-100710923D01*
X78010924Y-107295000D01*
X75979546Y-107295000D01*
X75426541Y-107065372D01*
X74577185Y-107064630D01*
X73792200Y-107388980D01*
X73191091Y-107989041D01*
X72865372Y-108773459D01*
X72864630Y-109622815D01*
X73188980Y-110407800D01*
X73789041Y-111008909D01*
X74573459Y-111334628D01*
X75422815Y-111335370D01*
X75980352Y-111105000D01*
X78800000Y-111105000D01*
X79529012Y-110959991D01*
X80147038Y-110547038D01*
X87847038Y-102847039D01*
X88259991Y-102229013D01*
X88308528Y-101985000D01*
X88405000Y-101500000D01*
X88405000Y-94500000D01*
X88259991Y-93770988D01*
X88259991Y-93770987D01*
X87847038Y-93152961D01*
X85694076Y-91000000D01*
X87847038Y-88847039D01*
X88259991Y-88229013D01*
X88326181Y-87896250D01*
X88405000Y-87500000D01*
X88405000Y-84300000D01*
X88259991Y-83570988D01*
X87847038Y-82952962D01*
X77039684Y-72145608D01*
X76811020Y-71592200D01*
X76210959Y-70991091D01*
X75426541Y-70665372D01*
X74577185Y-70664630D01*
X73792200Y-70988980D01*
X73191091Y-71589041D01*
X72865372Y-72373459D01*
X72864630Y-73222815D01*
X73188980Y-74007800D01*
X73789041Y-74608909D01*
X74346176Y-74840252D01*
X84595000Y-85089076D01*
X84595000Y-86710923D01*
X82210924Y-89095000D01*
X75979546Y-89095000D01*
X75426541Y-88865372D01*
X74577185Y-88864630D01*
X74019648Y-89095000D01*
X62979546Y-89095000D01*
X62426541Y-88865372D01*
X61577185Y-88864630D01*
X60792200Y-89188980D01*
X60191091Y-89789041D01*
X59865372Y-90573459D01*
X59864630Y-91422815D01*
X50710000Y-91422815D01*
X50710000Y-86205750D01*
X59865000Y-86205750D01*
X59865000Y-87546309D01*
X59961673Y-87779698D01*
X60140301Y-87958327D01*
X60373690Y-88055000D01*
X61714250Y-88055000D01*
X61873000Y-87896250D01*
X61873000Y-86047000D01*
X62127000Y-86047000D01*
X62127000Y-87896250D01*
X62285750Y-88055000D01*
X63626310Y-88055000D01*
X63859699Y-87958327D01*
X64038327Y-87779698D01*
X64135000Y-87546309D01*
X64135000Y-86205750D01*
X72865000Y-86205750D01*
X72865000Y-87546309D01*
X72961673Y-87779698D01*
X73140301Y-87958327D01*
X73373690Y-88055000D01*
X74714250Y-88055000D01*
X74873000Y-87896250D01*
X74873000Y-86047000D01*
X75127000Y-86047000D01*
X75127000Y-87896250D01*
X75285750Y-88055000D01*
X76626310Y-88055000D01*
X76859699Y-87958327D01*
X77038327Y-87779698D01*
X77135000Y-87546309D01*
X77135000Y-86205750D01*
X76976250Y-86047000D01*
X75127000Y-86047000D01*
X74873000Y-86047000D01*
X73023750Y-86047000D01*
X72865000Y-86205750D01*
X64135000Y-86205750D01*
X63976250Y-86047000D01*
X62127000Y-86047000D01*
X61873000Y-86047000D01*
X60023750Y-86047000D01*
X59865000Y-86205750D01*
X50710000Y-86205750D01*
X50710000Y-84293691D01*
X59865000Y-84293691D01*
X59865000Y-85634250D01*
X60023750Y-85793000D01*
X61873000Y-85793000D01*
X61873000Y-83943750D01*
X62127000Y-83943750D01*
X62127000Y-85793000D01*
X63976250Y-85793000D01*
X64135000Y-85634250D01*
X64135000Y-84293691D01*
X72865000Y-84293691D01*
X72865000Y-85634250D01*
X73023750Y-85793000D01*
X74873000Y-85793000D01*
X74873000Y-83943750D01*
X75127000Y-83943750D01*
X75127000Y-85793000D01*
X76976250Y-85793000D01*
X77135000Y-85634250D01*
X77135000Y-84293691D01*
X77038327Y-84060302D01*
X76859699Y-83881673D01*
X76626310Y-83785000D01*
X75285750Y-83785000D01*
X75127000Y-83943750D01*
X74873000Y-83943750D01*
X74714250Y-83785000D01*
X73373690Y-83785000D01*
X73140301Y-83881673D01*
X72961673Y-84060302D01*
X72865000Y-84293691D01*
X64135000Y-84293691D01*
X64038327Y-84060302D01*
X63859699Y-83881673D01*
X63626310Y-83785000D01*
X62285750Y-83785000D01*
X62127000Y-83943750D01*
X61873000Y-83943750D01*
X61714250Y-83785000D01*
X60373690Y-83785000D01*
X60140301Y-83881673D01*
X59961673Y-84060302D01*
X59865000Y-84293691D01*
X50710000Y-84293691D01*
X50710000Y-68005750D01*
X72865000Y-68005750D01*
X72865000Y-69346309D01*
X72961673Y-69579698D01*
X73140301Y-69758327D01*
X73373690Y-69855000D01*
X74714250Y-69855000D01*
X74873000Y-69696250D01*
X74873000Y-67847000D01*
X75127000Y-67847000D01*
X75127000Y-69696250D01*
X75285750Y-69855000D01*
X76626310Y-69855000D01*
X76859699Y-69758327D01*
X77038327Y-69579698D01*
X77135000Y-69346309D01*
X77135000Y-68005750D01*
X76976250Y-67847000D01*
X75127000Y-67847000D01*
X74873000Y-67847000D01*
X73023750Y-67847000D01*
X72865000Y-68005750D01*
X50710000Y-68005750D01*
X50710000Y-66093691D01*
X72865000Y-66093691D01*
X72865000Y-67434250D01*
X73023750Y-67593000D01*
X74873000Y-67593000D01*
X74873000Y-65743750D01*
X75127000Y-65743750D01*
X75127000Y-67593000D01*
X76976250Y-67593000D01*
X77135000Y-67434250D01*
X77135000Y-66093691D01*
X77038327Y-65860302D01*
X76859699Y-65681673D01*
X76626310Y-65585000D01*
X75285750Y-65585000D01*
X75127000Y-65743750D01*
X74873000Y-65743750D01*
X74714250Y-65585000D01*
X73373690Y-65585000D01*
X73140301Y-65681673D01*
X72961673Y-65860302D01*
X72865000Y-66093691D01*
X50710000Y-66093691D01*
X50710000Y-60849041D01*
X85108086Y-60849041D01*
X85347611Y-61355134D01*
X85762577Y-61731041D01*
X86150961Y-61891904D01*
X86373000Y-61769915D01*
X86373000Y-60627000D01*
X86627000Y-60627000D01*
X86627000Y-61769915D01*
X86849039Y-61891904D01*
X87237423Y-61731041D01*
X87652389Y-61355134D01*
X87891914Y-60849041D01*
X87770629Y-60627000D01*
X86627000Y-60627000D01*
X86373000Y-60627000D01*
X85229371Y-60627000D01*
X85108086Y-60849041D01*
X50710000Y-60849041D01*
X50710000Y-60150959D01*
X85108086Y-60150959D01*
X85229371Y-60373000D01*
X86373000Y-60373000D01*
X86373000Y-59230085D01*
X86627000Y-59230085D01*
X86627000Y-60373000D01*
X87770629Y-60373000D01*
X87891914Y-60150959D01*
X87652389Y-59644866D01*
X87237423Y-59268959D01*
X86849039Y-59108096D01*
X86627000Y-59230085D01*
X86373000Y-59230085D01*
X86150961Y-59108096D01*
X85762577Y-59268959D01*
X85347611Y-59644866D01*
X85108086Y-60150959D01*
X50710000Y-60150959D01*
X50710000Y-53942619D01*
X51264613Y-53942619D01*
X51604155Y-54764372D01*
X52232321Y-55393636D01*
X53053481Y-55734611D01*
X53942619Y-55735387D01*
X54764372Y-55395845D01*
X55393636Y-54767679D01*
X55734611Y-53946519D01*
X55735387Y-53057381D01*
X55395845Y-52235628D01*
X54767679Y-51606364D01*
X53946519Y-51265389D01*
X53057381Y-51264613D01*
X52235628Y-51604155D01*
X51606364Y-52232321D01*
X51265389Y-53053481D01*
X51264613Y-53942619D01*
X50710000Y-53942619D01*
X50710000Y-50710000D01*
X89373000Y-50710000D01*
X89373000Y-124290000D01*
X89373000Y-124290000D01*
G37*
X89373000Y-124290000D02*
X50710000Y-124290000D01*
X50710000Y-121942619D01*
X51264613Y-121942619D01*
X51604155Y-122764372D01*
X52232321Y-123393636D01*
X53053481Y-123734611D01*
X53942619Y-123735387D01*
X54764372Y-123395845D01*
X55393636Y-122767679D01*
X55734611Y-121946519D01*
X55735387Y-121057381D01*
X55395845Y-120235628D01*
X54767679Y-119606364D01*
X53946519Y-119265389D01*
X53057381Y-119264613D01*
X52235628Y-119604155D01*
X51606364Y-120232321D01*
X51265389Y-121053481D01*
X51264613Y-121942619D01*
X50710000Y-121942619D01*
X50710000Y-114849041D01*
X85108086Y-114849041D01*
X85347611Y-115355134D01*
X85762577Y-115731041D01*
X86150961Y-115891904D01*
X86373000Y-115769915D01*
X86373000Y-114627000D01*
X86627000Y-114627000D01*
X86627000Y-115769915D01*
X86849039Y-115891904D01*
X87237423Y-115731041D01*
X87652389Y-115355134D01*
X87891914Y-114849041D01*
X87770629Y-114627000D01*
X86627000Y-114627000D01*
X86373000Y-114627000D01*
X85229371Y-114627000D01*
X85108086Y-114849041D01*
X50710000Y-114849041D01*
X50710000Y-114150959D01*
X85108086Y-114150959D01*
X85229371Y-114373000D01*
X86373000Y-114373000D01*
X86373000Y-113230085D01*
X86627000Y-113230085D01*
X86627000Y-114373000D01*
X87770629Y-114373000D01*
X87891914Y-114150959D01*
X87652389Y-113644866D01*
X87237423Y-113268959D01*
X86849039Y-113108096D01*
X86627000Y-113230085D01*
X86373000Y-113230085D01*
X86150961Y-113108096D01*
X85762577Y-113268959D01*
X85347611Y-113644866D01*
X85108086Y-114150959D01*
X50710000Y-114150959D01*
X50710000Y-104405750D01*
X72865000Y-104405750D01*
X72865000Y-105746309D01*
X72961673Y-105979698D01*
X73140301Y-106158327D01*
X73373690Y-106255000D01*
X74714250Y-106255000D01*
X74873000Y-106096250D01*
X74873000Y-104247000D01*
X75127000Y-104247000D01*
X75127000Y-106096250D01*
X75285750Y-106255000D01*
X76626310Y-106255000D01*
X76859699Y-106158327D01*
X77038327Y-105979698D01*
X77135000Y-105746309D01*
X77135000Y-104405750D01*
X76976250Y-104247000D01*
X75127000Y-104247000D01*
X74873000Y-104247000D01*
X73023750Y-104247000D01*
X72865000Y-104405750D01*
X50710000Y-104405750D01*
X50710000Y-102493691D01*
X72865000Y-102493691D01*
X72865000Y-103834250D01*
X73023750Y-103993000D01*
X74873000Y-103993000D01*
X74873000Y-102143750D01*
X75127000Y-102143750D01*
X75127000Y-103993000D01*
X76976250Y-103993000D01*
X77135000Y-103834250D01*
X77135000Y-102493691D01*
X77038327Y-102260302D01*
X76859699Y-102081673D01*
X76626310Y-101985000D01*
X75285750Y-101985000D01*
X75127000Y-102143750D01*
X74873000Y-102143750D01*
X74714250Y-101985000D01*
X73373690Y-101985000D01*
X73140301Y-102081673D01*
X72961673Y-102260302D01*
X72865000Y-102493691D01*
X50710000Y-102493691D01*
X50710000Y-91422815D01*
X59864630Y-91422815D01*
X60188980Y-92207800D01*
X60789041Y-92808909D01*
X61573459Y-93134628D01*
X62422815Y-93135370D01*
X62980352Y-92905000D01*
X74020454Y-92905000D01*
X74573459Y-93134628D01*
X75422815Y-93135370D01*
X75980352Y-92905000D01*
X82210924Y-92905000D01*
X84595000Y-95289077D01*
X84595000Y-100710923D01*
X78010924Y-107295000D01*
X75979546Y-107295000D01*
X75426541Y-107065372D01*
X74577185Y-107064630D01*
X73792200Y-107388980D01*
X73191091Y-107989041D01*
X72865372Y-108773459D01*
X72864630Y-109622815D01*
X73188980Y-110407800D01*
X73789041Y-111008909D01*
X74573459Y-111334628D01*
X75422815Y-111335370D01*
X75980352Y-111105000D01*
X78800000Y-111105000D01*
X79529012Y-110959991D01*
X80147038Y-110547038D01*
X87847038Y-102847039D01*
X88259991Y-102229013D01*
X88308528Y-101985000D01*
X88405000Y-101500000D01*
X88405000Y-94500000D01*
X88259991Y-93770988D01*
X88259991Y-93770987D01*
X87847038Y-93152961D01*
X85694076Y-91000000D01*
X87847038Y-88847039D01*
X88259991Y-88229013D01*
X88326181Y-87896250D01*
X88405000Y-87500000D01*
X88405000Y-84300000D01*
X88259991Y-83570988D01*
X87847038Y-82952962D01*
X77039684Y-72145608D01*
X76811020Y-71592200D01*
X76210959Y-70991091D01*
X75426541Y-70665372D01*
X74577185Y-70664630D01*
X73792200Y-70988980D01*
X73191091Y-71589041D01*
X72865372Y-72373459D01*
X72864630Y-73222815D01*
X73188980Y-74007800D01*
X73789041Y-74608909D01*
X74346176Y-74840252D01*
X84595000Y-85089076D01*
X84595000Y-86710923D01*
X82210924Y-89095000D01*
X75979546Y-89095000D01*
X75426541Y-88865372D01*
X74577185Y-88864630D01*
X74019648Y-89095000D01*
X62979546Y-89095000D01*
X62426541Y-88865372D01*
X61577185Y-88864630D01*
X60792200Y-89188980D01*
X60191091Y-89789041D01*
X59865372Y-90573459D01*
X59864630Y-91422815D01*
X50710000Y-91422815D01*
X50710000Y-86205750D01*
X59865000Y-86205750D01*
X59865000Y-87546309D01*
X59961673Y-87779698D01*
X60140301Y-87958327D01*
X60373690Y-88055000D01*
X61714250Y-88055000D01*
X61873000Y-87896250D01*
X61873000Y-86047000D01*
X62127000Y-86047000D01*
X62127000Y-87896250D01*
X62285750Y-88055000D01*
X63626310Y-88055000D01*
X63859699Y-87958327D01*
X64038327Y-87779698D01*
X64135000Y-87546309D01*
X64135000Y-86205750D01*
X72865000Y-86205750D01*
X72865000Y-87546309D01*
X72961673Y-87779698D01*
X73140301Y-87958327D01*
X73373690Y-88055000D01*
X74714250Y-88055000D01*
X74873000Y-87896250D01*
X74873000Y-86047000D01*
X75127000Y-86047000D01*
X75127000Y-87896250D01*
X75285750Y-88055000D01*
X76626310Y-88055000D01*
X76859699Y-87958327D01*
X77038327Y-87779698D01*
X77135000Y-87546309D01*
X77135000Y-86205750D01*
X76976250Y-86047000D01*
X75127000Y-86047000D01*
X74873000Y-86047000D01*
X73023750Y-86047000D01*
X72865000Y-86205750D01*
X64135000Y-86205750D01*
X63976250Y-86047000D01*
X62127000Y-86047000D01*
X61873000Y-86047000D01*
X60023750Y-86047000D01*
X59865000Y-86205750D01*
X50710000Y-86205750D01*
X50710000Y-84293691D01*
X59865000Y-84293691D01*
X59865000Y-85634250D01*
X60023750Y-85793000D01*
X61873000Y-85793000D01*
X61873000Y-83943750D01*
X62127000Y-83943750D01*
X62127000Y-85793000D01*
X63976250Y-85793000D01*
X64135000Y-85634250D01*
X64135000Y-84293691D01*
X72865000Y-84293691D01*
X72865000Y-85634250D01*
X73023750Y-85793000D01*
X74873000Y-85793000D01*
X74873000Y-83943750D01*
X75127000Y-83943750D01*
X75127000Y-85793000D01*
X76976250Y-85793000D01*
X77135000Y-85634250D01*
X77135000Y-84293691D01*
X77038327Y-84060302D01*
X76859699Y-83881673D01*
X76626310Y-83785000D01*
X75285750Y-83785000D01*
X75127000Y-83943750D01*
X74873000Y-83943750D01*
X74714250Y-83785000D01*
X73373690Y-83785000D01*
X73140301Y-83881673D01*
X72961673Y-84060302D01*
X72865000Y-84293691D01*
X64135000Y-84293691D01*
X64038327Y-84060302D01*
X63859699Y-83881673D01*
X63626310Y-83785000D01*
X62285750Y-83785000D01*
X62127000Y-83943750D01*
X61873000Y-83943750D01*
X61714250Y-83785000D01*
X60373690Y-83785000D01*
X60140301Y-83881673D01*
X59961673Y-84060302D01*
X59865000Y-84293691D01*
X50710000Y-84293691D01*
X50710000Y-68005750D01*
X72865000Y-68005750D01*
X72865000Y-69346309D01*
X72961673Y-69579698D01*
X73140301Y-69758327D01*
X73373690Y-69855000D01*
X74714250Y-69855000D01*
X74873000Y-69696250D01*
X74873000Y-67847000D01*
X75127000Y-67847000D01*
X75127000Y-69696250D01*
X75285750Y-69855000D01*
X76626310Y-69855000D01*
X76859699Y-69758327D01*
X77038327Y-69579698D01*
X77135000Y-69346309D01*
X77135000Y-68005750D01*
X76976250Y-67847000D01*
X75127000Y-67847000D01*
X74873000Y-67847000D01*
X73023750Y-67847000D01*
X72865000Y-68005750D01*
X50710000Y-68005750D01*
X50710000Y-66093691D01*
X72865000Y-66093691D01*
X72865000Y-67434250D01*
X73023750Y-67593000D01*
X74873000Y-67593000D01*
X74873000Y-65743750D01*
X75127000Y-65743750D01*
X75127000Y-67593000D01*
X76976250Y-67593000D01*
X77135000Y-67434250D01*
X77135000Y-66093691D01*
X77038327Y-65860302D01*
X76859699Y-65681673D01*
X76626310Y-65585000D01*
X75285750Y-65585000D01*
X75127000Y-65743750D01*
X74873000Y-65743750D01*
X74714250Y-65585000D01*
X73373690Y-65585000D01*
X73140301Y-65681673D01*
X72961673Y-65860302D01*
X72865000Y-66093691D01*
X50710000Y-66093691D01*
X50710000Y-60849041D01*
X85108086Y-60849041D01*
X85347611Y-61355134D01*
X85762577Y-61731041D01*
X86150961Y-61891904D01*
X86373000Y-61769915D01*
X86373000Y-60627000D01*
X86627000Y-60627000D01*
X86627000Y-61769915D01*
X86849039Y-61891904D01*
X87237423Y-61731041D01*
X87652389Y-61355134D01*
X87891914Y-60849041D01*
X87770629Y-60627000D01*
X86627000Y-60627000D01*
X86373000Y-60627000D01*
X85229371Y-60627000D01*
X85108086Y-60849041D01*
X50710000Y-60849041D01*
X50710000Y-60150959D01*
X85108086Y-60150959D01*
X85229371Y-60373000D01*
X86373000Y-60373000D01*
X86373000Y-59230085D01*
X86627000Y-59230085D01*
X86627000Y-60373000D01*
X87770629Y-60373000D01*
X87891914Y-60150959D01*
X87652389Y-59644866D01*
X87237423Y-59268959D01*
X86849039Y-59108096D01*
X86627000Y-59230085D01*
X86373000Y-59230085D01*
X86150961Y-59108096D01*
X85762577Y-59268959D01*
X85347611Y-59644866D01*
X85108086Y-60150959D01*
X50710000Y-60150959D01*
X50710000Y-53942619D01*
X51264613Y-53942619D01*
X51604155Y-54764372D01*
X52232321Y-55393636D01*
X53053481Y-55734611D01*
X53942619Y-55735387D01*
X54764372Y-55395845D01*
X55393636Y-54767679D01*
X55734611Y-53946519D01*
X55735387Y-53057381D01*
X55395845Y-52235628D01*
X54767679Y-51606364D01*
X53946519Y-51265389D01*
X53057381Y-51264613D01*
X52235628Y-51604155D01*
X51606364Y-52232321D01*
X51265389Y-53053481D01*
X51264613Y-53942619D01*
X50710000Y-53942619D01*
X50710000Y-50710000D01*
X89373000Y-50710000D01*
X89373000Y-124290000D01*
M02*
