M48
;DRILL file {KiCad 4.0.7} date 04/23/18 17:21:25
;FORMAT={3:3/ absolute / metric / suppress trailing zeros}
FMAT,2
METRIC,LZ
T1C0.700
T2C1.000
T3C1.400
T4C2.300
T5C3.200
%
G90
G05
M71
T1
X18793Y-05875
X18793Y-08069
X18795Y-06726
X18795Y-07218
X18843Y-05725
X18843Y-08219
X18845Y-06576
X18845Y-07368
X18993Y-05875
X18993Y-08069
X18995Y-06726
X18995Y-07218
X19093Y-05725
X19093Y-08219
X19095Y-06576
X19095Y-07368
X19194Y-05875
X19194Y-08069
X19195Y-06726
X19195Y-07218
X19293Y-05725
X19293Y-08219
X19295Y-06576
X19295Y-07368
X19393Y-05875
X19393Y-08069
X19395Y-06726
X19395Y-07218
X19543Y-05725
X19543Y-08219
X19545Y-06576
X19545Y-07368
X19593Y-05875
X19593Y-08069
X19595Y-06726
X19595Y-07218
X20607Y-05875
X20607Y-08069
X20609Y-06726
X20609Y-07218
X20657Y-05725
X20657Y-08219
X20659Y-06576
X20659Y-07368
X20807Y-05875
X20807Y-08069
X20809Y-06726
X20809Y-07218
X20907Y-05725
X20907Y-08219
X20909Y-06576
X20909Y-07368
X21008Y-05875
X21008Y-08069
X21009Y-06726
X21009Y-07218
X21107Y-05725
X21107Y-08219
X21109Y-06576
X21109Y-07368
X21207Y-05875
X21207Y-08069
X21209Y-06726
X21209Y-07218
X21357Y-05725
X21357Y-08219
X21359Y-06576
X21359Y-07368
X21407Y-05875
X21407Y-08069
X21409Y-06726
X21409Y-07218
T2
X125668Y-07539
X125668Y-07793
X125723Y-08225
X125723Y-08479
X128208Y-07539
X128208Y-07793
X128263Y-08225
X128263Y-08479
X130748Y-07539
X130748Y-07793
X130803Y-08225
X130803Y-08479
X133288Y-07539
X133288Y-07793
X133343Y-08225
X133343Y-08479
X135828Y-07539
X135828Y-07793
X135883Y-08225
X135883Y-08479
X138368Y-07539
X138368Y-07793
X138423Y-08225
X138423Y-08479
X140908Y-07539
X140908Y-07793
X140963Y-08225
X140963Y-08479
X143448Y-07539
X143448Y-07793
X143503Y-08225
X143503Y-08479
X156107Y-075392
X156107Y-077932
X156107Y-082182
X156107Y-084722
X158647Y-075392
X158647Y-077932
X158647Y-082182
X158647Y-084722
X161187Y-075392
X161187Y-077932
X161187Y-082182
X161187Y-084722
X163727Y-075392
X163727Y-077932
X163727Y-082182
X163727Y-084722
X166267Y-075392
X166267Y-077932
X166267Y-082182
X166267Y-084722
X168807Y-075392
X168807Y-077932
X168807Y-082182
X168807Y-084722
X171347Y-075392
X171347Y-077932
X171347Y-082182
X171347Y-084722
X173887Y-075392
X173887Y-077932
X173887Y-082182
X173887Y-084722
T3
X122188Y-053802
X122188Y-059288
X122188Y-063988
X122188Y-069474
X126404Y-053802
X126404Y-059288
X126404Y-063988
X126404Y-069474
X130621Y-053802
X130621Y-059288
X130621Y-063988
X130621Y-069474
X134837Y-053802
X134837Y-059288
X134837Y-063988
X134837Y-069474
X143458Y-053642
X143458Y-059128
X143458Y-063988
X143458Y-069474
X147674Y-053642
X147674Y-059128
X147674Y-063988
X147674Y-069474
X151891Y-053642
X151891Y-059128
X151891Y-063988
X151891Y-069474
X156107Y-053642
X156107Y-059128
X156107Y-063988
X156107Y-069474
X164787Y-053656
X164787Y-059143
X164787Y-063843
X164787Y-069329
X169003Y-053656
X169003Y-059143
X169003Y-063843
X169003Y-069329
X17322Y-053656
X17322Y-059143
X17322Y-063843
X17322Y-069329
X177436Y-053656
X177436Y-059143
X177436Y-063843
X177436Y-069329
T4
X18536Y-05823
X18536Y-06503
X18536Y-07441
X18536Y-08121
X1985Y-05828
X1985Y-06508
X1985Y-07436
X1985Y-08116
X2035Y-05823
X2035Y-06503
X2035Y-07441
X2035Y-08121
X21664Y-05828
X21664Y-06508
X21664Y-07436
X21664Y-08116
T5
X11085Y-04975
X11085Y-08975
X22761Y-04975
X22761Y-08975
T0
M30
