G04 #@! TF.FileFunction,Legend,Bot*
%FSLAX46Y46*%
G04 Gerber Fmt 4.6, Leading zero omitted, Abs format (unit mm)*
G04 Created by KiCad (PCBNEW 4.0.7) date 04/23/18 17:21:14*
%MOMM*%
%LPD*%
G01*
G04 APERTURE LIST*
%ADD10C,0.100000*%
%ADD11C,0.150000*%
%ADD12C,0.120000*%
%ADD13C,3.600000*%
%ADD14C,3.000000*%
%ADD15R,3.000000X3.000000*%
%ADD16R,2.100000X2.100000*%
%ADD17O,2.100000X2.100000*%
%ADD18C,2.800000*%
%ADD19C,1.400000*%
G04 APERTURE END LIST*
D10*
D11*
X179468224Y-54037312D02*
X178960224Y-53656312D01*
X179468224Y-53275312D02*
X179468224Y-54037312D01*
X178960224Y-53656312D02*
X179468224Y-53275312D01*
X136869260Y-54182508D02*
X136361260Y-53801508D01*
X136869260Y-53420508D02*
X136869260Y-54182508D01*
X136361260Y-53801508D02*
X136869260Y-53420508D01*
X158139260Y-54022508D02*
X157631260Y-53641508D01*
X158139260Y-53260508D02*
X158139260Y-54022508D01*
X157631260Y-53641508D02*
X158139260Y-53260508D01*
D12*
X124338376Y-79259708D02*
X124338376Y-74059708D01*
X142178376Y-79259708D02*
X124338376Y-79259708D01*
X144778376Y-74059708D02*
X124338376Y-74059708D01*
X142178376Y-79259708D02*
X142178376Y-76659708D01*
X142178376Y-76659708D02*
X144778376Y-76659708D01*
X144778376Y-76659708D02*
X144778376Y-74059708D01*
X143448376Y-79259708D02*
X144778376Y-79259708D01*
X144778376Y-79259708D02*
X144778376Y-77929708D01*
X154776956Y-79261658D02*
X154776956Y-74061658D01*
X172616956Y-79261658D02*
X154776956Y-79261658D01*
X175216956Y-74061658D02*
X154776956Y-74061658D01*
X172616956Y-79261658D02*
X172616956Y-76661658D01*
X172616956Y-76661658D02*
X175216956Y-76661658D01*
X175216956Y-76661658D02*
X175216956Y-74061658D01*
X173886956Y-79261658D02*
X175216956Y-79261658D01*
X175216956Y-79261658D02*
X175216956Y-77931658D01*
D11*
X203500000Y-53700000D02*
X216640000Y-53700000D01*
X203500000Y-69570000D02*
X203500000Y-53700000D01*
X216640000Y-69570000D02*
X203500000Y-69570000D01*
X216640000Y-53700000D02*
X216640000Y-69570000D01*
X185360000Y-53700000D02*
X198500000Y-53700000D01*
X185360000Y-69570000D02*
X185360000Y-53700000D01*
X198500000Y-69570000D02*
X185360000Y-69570000D01*
X198500000Y-53700000D02*
X198500000Y-69570000D01*
%LPC*%
D13*
X227610000Y-89750000D03*
X227610000Y-49750000D03*
X110850000Y-89750000D03*
D14*
X173219824Y-69329112D03*
D15*
X177436224Y-69329112D03*
D14*
X169003424Y-69329112D03*
D15*
X164787024Y-69329112D03*
X169003424Y-63842712D03*
X173219824Y-63842712D03*
D14*
X164787024Y-63842712D03*
X177436224Y-63842712D03*
X173219824Y-53656312D03*
D15*
X177436224Y-53656312D03*
D14*
X169003424Y-53656312D03*
D15*
X164787024Y-53656312D03*
X169003424Y-59142712D03*
X173219824Y-59142712D03*
D14*
X164787024Y-59142712D03*
X177436224Y-59142712D03*
X130620860Y-69474308D03*
D15*
X134837260Y-69474308D03*
D14*
X126404460Y-69474308D03*
D15*
X122188060Y-69474308D03*
X126404460Y-63987908D03*
X130620860Y-63987908D03*
D14*
X122188060Y-63987908D03*
X134837260Y-63987908D03*
X130620860Y-53801508D03*
D15*
X134837260Y-53801508D03*
D14*
X126404460Y-53801508D03*
D15*
X122188060Y-53801508D03*
X126404460Y-59287908D03*
X130620860Y-59287908D03*
D14*
X122188060Y-59287908D03*
X134837260Y-59287908D03*
X151890860Y-69474308D03*
D15*
X156107260Y-69474308D03*
D14*
X147674460Y-69474308D03*
D15*
X143458060Y-69474308D03*
X147674460Y-63987908D03*
X151890860Y-63987908D03*
D14*
X143458060Y-63987908D03*
X156107260Y-63987908D03*
X151890860Y-53641508D03*
D15*
X156107260Y-53641508D03*
D14*
X147674460Y-53641508D03*
D15*
X143458060Y-53641508D03*
X147674460Y-59127908D03*
X151890860Y-59127908D03*
D14*
X143458060Y-59127908D03*
X156107260Y-59127908D03*
D16*
X143448376Y-77929708D03*
D17*
X143448376Y-75389708D03*
X140908376Y-77929708D03*
X140908376Y-75389708D03*
X138368376Y-77929708D03*
X138368376Y-75389708D03*
X135828376Y-77929708D03*
X135828376Y-75389708D03*
X133288376Y-77929708D03*
X133288376Y-75389708D03*
X130748376Y-77929708D03*
X130748376Y-75389708D03*
X128208376Y-77929708D03*
X128208376Y-75389708D03*
X125668376Y-77929708D03*
X125668376Y-75389708D03*
D16*
X143503375Y-82249708D03*
D17*
X143503375Y-84789708D03*
X140963375Y-82249708D03*
X140963375Y-84789708D03*
X138423375Y-82249708D03*
X138423375Y-84789708D03*
X135883375Y-82249708D03*
X135883375Y-84789708D03*
X133343375Y-82249708D03*
X133343375Y-84789708D03*
X130803375Y-82249708D03*
X130803375Y-84789708D03*
X128263375Y-82249708D03*
X128263375Y-84789708D03*
X125723375Y-82249708D03*
X125723375Y-84789708D03*
D16*
X173886956Y-77931658D03*
D17*
X173886956Y-75391658D03*
X171346956Y-77931658D03*
X171346956Y-75391658D03*
X168806956Y-77931658D03*
X168806956Y-75391658D03*
X166266956Y-77931658D03*
X166266956Y-75391658D03*
X163726956Y-77931658D03*
X163726956Y-75391658D03*
X161186956Y-77931658D03*
X161186956Y-75391658D03*
X158646956Y-77931658D03*
X158646956Y-75391658D03*
X156106956Y-77931658D03*
X156106956Y-75391658D03*
D16*
X173886956Y-82181658D03*
D17*
X173886956Y-84721658D03*
X171346956Y-82181658D03*
X171346956Y-84721658D03*
X168806956Y-82181658D03*
X168806956Y-84721658D03*
X166266956Y-82181658D03*
X166266956Y-84721658D03*
X163726956Y-82181658D03*
X163726956Y-84721658D03*
X161186956Y-82181658D03*
X161186956Y-84721658D03*
X158646956Y-82181658D03*
X158646956Y-84721658D03*
X156106956Y-82181658D03*
X156106956Y-84721658D03*
D13*
X110850000Y-49750000D03*
D18*
X203500000Y-81210000D03*
X203500000Y-74410000D03*
X216640000Y-74360000D03*
X216640000Y-81160000D03*
D19*
X213570000Y-82190000D03*
X206570000Y-82190000D03*
X209070000Y-82190000D03*
X211070000Y-82190000D03*
X214070000Y-80690000D03*
X212070000Y-80690000D03*
X210080000Y-80690000D03*
X208070000Y-80690000D03*
X206070000Y-80690000D03*
X206590000Y-73680000D03*
X209090000Y-73680000D03*
X211090000Y-73680000D03*
X213590000Y-73680000D03*
X214090000Y-72180000D03*
X212090000Y-72180000D03*
X210090000Y-72180000D03*
X208090000Y-72180000D03*
X206090000Y-72180000D03*
D18*
X185360000Y-81210000D03*
X185360000Y-74410000D03*
X198500000Y-74360000D03*
X198500000Y-81160000D03*
D19*
X195430000Y-82190000D03*
X188430000Y-82190000D03*
X190930000Y-82190000D03*
X192930000Y-82190000D03*
X195930000Y-80690000D03*
X193930000Y-80690000D03*
X191940000Y-80690000D03*
X189930000Y-80690000D03*
X187930000Y-80690000D03*
X188450000Y-73680000D03*
X190950000Y-73680000D03*
X192950000Y-73680000D03*
X195450000Y-73680000D03*
X195950000Y-72180000D03*
X193950000Y-72180000D03*
X191950000Y-72180000D03*
X189950000Y-72180000D03*
X187950000Y-72180000D03*
D18*
X203500000Y-58230000D03*
X203500000Y-65030000D03*
X216640000Y-65080000D03*
X216640000Y-58280000D03*
D19*
X213570000Y-57250000D03*
X206570000Y-57250000D03*
X209070000Y-57250000D03*
X211070000Y-57250000D03*
X214070000Y-58750000D03*
X212070000Y-58750000D03*
X210080000Y-58750000D03*
X208070000Y-58750000D03*
X206070000Y-58750000D03*
X206590000Y-65760000D03*
X209090000Y-65760000D03*
X211090000Y-65760000D03*
X213590000Y-65760000D03*
X214090000Y-67260000D03*
X212090000Y-67260000D03*
X210090000Y-67260000D03*
X208090000Y-67260000D03*
X206090000Y-67260000D03*
D18*
X185360000Y-58230000D03*
X185360000Y-65030000D03*
X198500000Y-65080000D03*
X198500000Y-58280000D03*
D19*
X195430000Y-57250000D03*
X188430000Y-57250000D03*
X190930000Y-57250000D03*
X192930000Y-57250000D03*
X195930000Y-58750000D03*
X193930000Y-58750000D03*
X191940000Y-58750000D03*
X189930000Y-58750000D03*
X187930000Y-58750000D03*
X188450000Y-65760000D03*
X190950000Y-65760000D03*
X192950000Y-65760000D03*
X195450000Y-65760000D03*
X195950000Y-67260000D03*
X193950000Y-67260000D03*
X191950000Y-67260000D03*
X189950000Y-67260000D03*
X187950000Y-67260000D03*
M02*
