G04 #@! TF.FileFunction,Legend,Top*
%FSLAX46Y46*%
G04 Gerber Fmt 4.6, Leading zero omitted, Abs format (unit mm)*
G04 Created by KiCad (PCBNEW 4.0.7) date 03/14/18 18:41:00*
%MOMM*%
%LPD*%
G01*
G04 APERTURE LIST*
%ADD10C,0.100000*%
%ADD11C,0.150000*%
G04 APERTURE END LIST*
D10*
D11*
X149299200Y-143560800D02*
X149299200Y-123260800D01*
X149299200Y-123260800D02*
X117299200Y-123260800D01*
X117299200Y-143560800D02*
X117299200Y-123260800D01*
X149299200Y-143560800D02*
X117299200Y-143560800D01*
X182827200Y-143560800D02*
X182827200Y-123260800D01*
X182827200Y-123260800D02*
X150827200Y-123260800D01*
X150827200Y-143560800D02*
X150827200Y-123260800D01*
X182827200Y-143560800D02*
X150827200Y-143560800D01*
X132537295Y-130922781D02*
X132537295Y-131732305D01*
X132584914Y-131827543D01*
X132632533Y-131875162D01*
X132727771Y-131922781D01*
X132918248Y-131922781D01*
X133013486Y-131875162D01*
X133061105Y-131827543D01*
X133108724Y-131732305D01*
X133108724Y-130922781D01*
X134108724Y-131922781D02*
X133537295Y-131922781D01*
X133823009Y-131922781D02*
X133823009Y-130922781D01*
X133727771Y-131065638D01*
X133632533Y-131160876D01*
X133537295Y-131208495D01*
X166624095Y-132853181D02*
X166624095Y-133662705D01*
X166671714Y-133757943D01*
X166719333Y-133805562D01*
X166814571Y-133853181D01*
X167005048Y-133853181D01*
X167100286Y-133805562D01*
X167147905Y-133757943D01*
X167195524Y-133662705D01*
X167195524Y-132853181D01*
X167576476Y-132853181D02*
X168195524Y-132853181D01*
X167862190Y-133234133D01*
X168005048Y-133234133D01*
X168100286Y-133281752D01*
X168147905Y-133329371D01*
X168195524Y-133424610D01*
X168195524Y-133662705D01*
X168147905Y-133757943D01*
X168100286Y-133805562D01*
X168005048Y-133853181D01*
X167719333Y-133853181D01*
X167624095Y-133805562D01*
X167576476Y-133757943D01*
M02*
