G04 #@! TF.FileFunction,Copper,L2,Bot,Signal*
%FSLAX46Y46*%
G04 Gerber Fmt 4.6, Leading zero omitted, Abs format (unit mm)*
G04 Created by KiCad (PCBNEW 4.0.7) date 03/14/18 18:41:00*
%MOMM*%
%LPD*%
G01*
G04 APERTURE LIST*
%ADD10C,0.100000*%
%ADD11C,4.064000*%
%ADD12C,2.800000*%
%ADD13C,0.254000*%
G04 APERTURE END LIST*
D10*
D11*
X185623200Y-141833600D03*
X114198400Y-141833600D03*
X114198400Y-102311200D03*
D12*
X123649200Y-137120800D03*
X127649200Y-137120800D03*
X123649200Y-125440800D03*
X127649200Y-125440800D03*
X138649200Y-125440800D03*
X142649200Y-125440800D03*
X138649200Y-137120800D03*
X142649200Y-137120800D03*
X123494800Y-117957600D03*
X127294800Y-117957600D03*
X123494800Y-105457600D03*
X127294800Y-105457600D03*
X138494800Y-117957600D03*
X142294800Y-117957600D03*
X138494800Y-105457600D03*
X142294800Y-105457600D03*
X157177200Y-137120800D03*
X161177200Y-137120800D03*
X157177200Y-125440800D03*
X161177200Y-125440800D03*
X172177200Y-125440800D03*
X176177200Y-125440800D03*
X172177200Y-137120800D03*
X176177200Y-137120800D03*
X157022800Y-117957600D03*
X160822800Y-117957600D03*
X157022800Y-105457600D03*
X160822800Y-105457600D03*
X172022800Y-117957600D03*
X175822800Y-117957600D03*
X172022800Y-105457600D03*
X175822800Y-105457600D03*
D11*
X185623200Y-102311200D03*
D13*
G36*
X130581400Y-139776200D02*
X120827800Y-139776200D01*
X120827800Y-138562524D01*
X122387082Y-138562524D01*
X122534655Y-138870906D01*
X123289231Y-139164205D01*
X124098609Y-139146414D01*
X124763745Y-138870906D01*
X124911318Y-138562524D01*
X126387082Y-138562524D01*
X126534655Y-138870906D01*
X127289231Y-139164205D01*
X128098609Y-139146414D01*
X128763745Y-138870906D01*
X128911318Y-138562524D01*
X127649200Y-137300405D01*
X126387082Y-138562524D01*
X124911318Y-138562524D01*
X123649200Y-137300405D01*
X122387082Y-138562524D01*
X120827800Y-138562524D01*
X120827800Y-136760831D01*
X121605795Y-136760831D01*
X121623586Y-137570209D01*
X121899094Y-138235345D01*
X122207476Y-138382918D01*
X123469595Y-137120800D01*
X123828805Y-137120800D01*
X125090924Y-138382918D01*
X125399306Y-138235345D01*
X125641257Y-137612872D01*
X125899094Y-138235345D01*
X126207476Y-138382918D01*
X127469595Y-137120800D01*
X127828805Y-137120800D01*
X129090924Y-138382918D01*
X129399306Y-138235345D01*
X129692605Y-137480769D01*
X129674814Y-136671391D01*
X129399306Y-136006255D01*
X129090924Y-135858682D01*
X127828805Y-137120800D01*
X127469595Y-137120800D01*
X126207476Y-135858682D01*
X125899094Y-136006255D01*
X125657143Y-136628728D01*
X125399306Y-136006255D01*
X125090924Y-135858682D01*
X123828805Y-137120800D01*
X123469595Y-137120800D01*
X122207476Y-135858682D01*
X121899094Y-136006255D01*
X121605795Y-136760831D01*
X120827800Y-136760831D01*
X120827800Y-135679076D01*
X122387082Y-135679076D01*
X123649200Y-136941195D01*
X124911318Y-135679076D01*
X126387082Y-135679076D01*
X127649200Y-136941195D01*
X128911318Y-135679076D01*
X128763745Y-135370694D01*
X128009169Y-135077395D01*
X127199791Y-135095186D01*
X126534655Y-135370694D01*
X126387082Y-135679076D01*
X124911318Y-135679076D01*
X124763745Y-135370694D01*
X124009169Y-135077395D01*
X123199791Y-135095186D01*
X122534655Y-135370694D01*
X122387082Y-135679076D01*
X120827800Y-135679076D01*
X120827800Y-126882524D01*
X122387082Y-126882524D01*
X122534655Y-127190906D01*
X123289231Y-127484205D01*
X124098609Y-127466414D01*
X124763745Y-127190906D01*
X124911318Y-126882524D01*
X126387082Y-126882524D01*
X126534655Y-127190906D01*
X127289231Y-127484205D01*
X128098609Y-127466414D01*
X128763745Y-127190906D01*
X128911318Y-126882524D01*
X127649200Y-125620405D01*
X126387082Y-126882524D01*
X124911318Y-126882524D01*
X123649200Y-125620405D01*
X122387082Y-126882524D01*
X120827800Y-126882524D01*
X120827800Y-125080831D01*
X121605795Y-125080831D01*
X121623586Y-125890209D01*
X121899094Y-126555345D01*
X122207476Y-126702918D01*
X123469595Y-125440800D01*
X123828805Y-125440800D01*
X125090924Y-126702918D01*
X125399306Y-126555345D01*
X125641257Y-125932872D01*
X125899094Y-126555345D01*
X126207476Y-126702918D01*
X127469595Y-125440800D01*
X127828805Y-125440800D01*
X129090924Y-126702918D01*
X129399306Y-126555345D01*
X129692605Y-125800769D01*
X129674814Y-124991391D01*
X129399306Y-124326255D01*
X129090924Y-124178682D01*
X127828805Y-125440800D01*
X127469595Y-125440800D01*
X126207476Y-124178682D01*
X125899094Y-124326255D01*
X125657143Y-124948728D01*
X125399306Y-124326255D01*
X125090924Y-124178682D01*
X123828805Y-125440800D01*
X123469595Y-125440800D01*
X122207476Y-124178682D01*
X121899094Y-124326255D01*
X121605795Y-125080831D01*
X120827800Y-125080831D01*
X120827800Y-123999076D01*
X122387082Y-123999076D01*
X123649200Y-125261195D01*
X124911318Y-123999076D01*
X126387082Y-123999076D01*
X127649200Y-125261195D01*
X128911318Y-123999076D01*
X128763745Y-123690694D01*
X128009169Y-123397395D01*
X127199791Y-123415186D01*
X126534655Y-123690694D01*
X126387082Y-123999076D01*
X124911318Y-123999076D01*
X124763745Y-123690694D01*
X124009169Y-123397395D01*
X123199791Y-123415186D01*
X122534655Y-123690694D01*
X122387082Y-123999076D01*
X120827800Y-123999076D01*
X120827800Y-119399324D01*
X122232682Y-119399324D01*
X122380255Y-119707706D01*
X123134831Y-120001005D01*
X123944209Y-119983214D01*
X124609345Y-119707706D01*
X124756918Y-119399324D01*
X126032682Y-119399324D01*
X126180255Y-119707706D01*
X126934831Y-120001005D01*
X127744209Y-119983214D01*
X128409345Y-119707706D01*
X128556918Y-119399324D01*
X127294800Y-118137205D01*
X126032682Y-119399324D01*
X124756918Y-119399324D01*
X123494800Y-118137205D01*
X122232682Y-119399324D01*
X120827800Y-119399324D01*
X120827800Y-117597631D01*
X121451395Y-117597631D01*
X121469186Y-118407009D01*
X121744694Y-119072145D01*
X122053076Y-119219718D01*
X123315195Y-117957600D01*
X123674405Y-117957600D01*
X124936524Y-119219718D01*
X125244906Y-119072145D01*
X125390036Y-118698767D01*
X125544694Y-119072145D01*
X125853076Y-119219718D01*
X127115195Y-117957600D01*
X127474405Y-117957600D01*
X128736524Y-119219718D01*
X129044906Y-119072145D01*
X129338205Y-118317569D01*
X129320414Y-117508191D01*
X129044906Y-116843055D01*
X128736524Y-116695482D01*
X127474405Y-117957600D01*
X127115195Y-117957600D01*
X125853076Y-116695482D01*
X125544694Y-116843055D01*
X125399564Y-117216433D01*
X125244906Y-116843055D01*
X124936524Y-116695482D01*
X123674405Y-117957600D01*
X123315195Y-117957600D01*
X122053076Y-116695482D01*
X121744694Y-116843055D01*
X121451395Y-117597631D01*
X120827800Y-117597631D01*
X120827800Y-116515876D01*
X122232682Y-116515876D01*
X123494800Y-117777995D01*
X124756918Y-116515876D01*
X126032682Y-116515876D01*
X127294800Y-117777995D01*
X128556918Y-116515876D01*
X128409345Y-116207494D01*
X127654769Y-115914195D01*
X126845391Y-115931986D01*
X126180255Y-116207494D01*
X126032682Y-116515876D01*
X124756918Y-116515876D01*
X124609345Y-116207494D01*
X123854769Y-115914195D01*
X123045391Y-115931986D01*
X122380255Y-116207494D01*
X122232682Y-116515876D01*
X120827800Y-116515876D01*
X120827800Y-106899324D01*
X122232682Y-106899324D01*
X122380255Y-107207706D01*
X123134831Y-107501005D01*
X123944209Y-107483214D01*
X124609345Y-107207706D01*
X124756918Y-106899324D01*
X126032682Y-106899324D01*
X126180255Y-107207706D01*
X126934831Y-107501005D01*
X127744209Y-107483214D01*
X128409345Y-107207706D01*
X128556918Y-106899324D01*
X127294800Y-105637205D01*
X126032682Y-106899324D01*
X124756918Y-106899324D01*
X123494800Y-105637205D01*
X122232682Y-106899324D01*
X120827800Y-106899324D01*
X120827800Y-105097631D01*
X121451395Y-105097631D01*
X121469186Y-105907009D01*
X121744694Y-106572145D01*
X122053076Y-106719718D01*
X123315195Y-105457600D01*
X123674405Y-105457600D01*
X124936524Y-106719718D01*
X125244906Y-106572145D01*
X125390036Y-106198767D01*
X125544694Y-106572145D01*
X125853076Y-106719718D01*
X127115195Y-105457600D01*
X127474405Y-105457600D01*
X128736524Y-106719718D01*
X129044906Y-106572145D01*
X129338205Y-105817569D01*
X129320414Y-105008191D01*
X129044906Y-104343055D01*
X128736524Y-104195482D01*
X127474405Y-105457600D01*
X127115195Y-105457600D01*
X125853076Y-104195482D01*
X125544694Y-104343055D01*
X125399564Y-104716433D01*
X125244906Y-104343055D01*
X124936524Y-104195482D01*
X123674405Y-105457600D01*
X123315195Y-105457600D01*
X122053076Y-104195482D01*
X121744694Y-104343055D01*
X121451395Y-105097631D01*
X120827800Y-105097631D01*
X120827800Y-104015876D01*
X122232682Y-104015876D01*
X123494800Y-105277995D01*
X124756918Y-104015876D01*
X126032682Y-104015876D01*
X127294800Y-105277995D01*
X128556918Y-104015876D01*
X128409345Y-103707494D01*
X127654769Y-103414195D01*
X126845391Y-103431986D01*
X126180255Y-103707494D01*
X126032682Y-104015876D01*
X124756918Y-104015876D01*
X124609345Y-103707494D01*
X123854769Y-103414195D01*
X123045391Y-103431986D01*
X122380255Y-103707494D01*
X122232682Y-104015876D01*
X120827800Y-104015876D01*
X120827800Y-102997000D01*
X130581400Y-102997000D01*
X130581400Y-139776200D01*
X130581400Y-139776200D01*
G37*
X130581400Y-139776200D02*
X120827800Y-139776200D01*
X120827800Y-138562524D01*
X122387082Y-138562524D01*
X122534655Y-138870906D01*
X123289231Y-139164205D01*
X124098609Y-139146414D01*
X124763745Y-138870906D01*
X124911318Y-138562524D01*
X126387082Y-138562524D01*
X126534655Y-138870906D01*
X127289231Y-139164205D01*
X128098609Y-139146414D01*
X128763745Y-138870906D01*
X128911318Y-138562524D01*
X127649200Y-137300405D01*
X126387082Y-138562524D01*
X124911318Y-138562524D01*
X123649200Y-137300405D01*
X122387082Y-138562524D01*
X120827800Y-138562524D01*
X120827800Y-136760831D01*
X121605795Y-136760831D01*
X121623586Y-137570209D01*
X121899094Y-138235345D01*
X122207476Y-138382918D01*
X123469595Y-137120800D01*
X123828805Y-137120800D01*
X125090924Y-138382918D01*
X125399306Y-138235345D01*
X125641257Y-137612872D01*
X125899094Y-138235345D01*
X126207476Y-138382918D01*
X127469595Y-137120800D01*
X127828805Y-137120800D01*
X129090924Y-138382918D01*
X129399306Y-138235345D01*
X129692605Y-137480769D01*
X129674814Y-136671391D01*
X129399306Y-136006255D01*
X129090924Y-135858682D01*
X127828805Y-137120800D01*
X127469595Y-137120800D01*
X126207476Y-135858682D01*
X125899094Y-136006255D01*
X125657143Y-136628728D01*
X125399306Y-136006255D01*
X125090924Y-135858682D01*
X123828805Y-137120800D01*
X123469595Y-137120800D01*
X122207476Y-135858682D01*
X121899094Y-136006255D01*
X121605795Y-136760831D01*
X120827800Y-136760831D01*
X120827800Y-135679076D01*
X122387082Y-135679076D01*
X123649200Y-136941195D01*
X124911318Y-135679076D01*
X126387082Y-135679076D01*
X127649200Y-136941195D01*
X128911318Y-135679076D01*
X128763745Y-135370694D01*
X128009169Y-135077395D01*
X127199791Y-135095186D01*
X126534655Y-135370694D01*
X126387082Y-135679076D01*
X124911318Y-135679076D01*
X124763745Y-135370694D01*
X124009169Y-135077395D01*
X123199791Y-135095186D01*
X122534655Y-135370694D01*
X122387082Y-135679076D01*
X120827800Y-135679076D01*
X120827800Y-126882524D01*
X122387082Y-126882524D01*
X122534655Y-127190906D01*
X123289231Y-127484205D01*
X124098609Y-127466414D01*
X124763745Y-127190906D01*
X124911318Y-126882524D01*
X126387082Y-126882524D01*
X126534655Y-127190906D01*
X127289231Y-127484205D01*
X128098609Y-127466414D01*
X128763745Y-127190906D01*
X128911318Y-126882524D01*
X127649200Y-125620405D01*
X126387082Y-126882524D01*
X124911318Y-126882524D01*
X123649200Y-125620405D01*
X122387082Y-126882524D01*
X120827800Y-126882524D01*
X120827800Y-125080831D01*
X121605795Y-125080831D01*
X121623586Y-125890209D01*
X121899094Y-126555345D01*
X122207476Y-126702918D01*
X123469595Y-125440800D01*
X123828805Y-125440800D01*
X125090924Y-126702918D01*
X125399306Y-126555345D01*
X125641257Y-125932872D01*
X125899094Y-126555345D01*
X126207476Y-126702918D01*
X127469595Y-125440800D01*
X127828805Y-125440800D01*
X129090924Y-126702918D01*
X129399306Y-126555345D01*
X129692605Y-125800769D01*
X129674814Y-124991391D01*
X129399306Y-124326255D01*
X129090924Y-124178682D01*
X127828805Y-125440800D01*
X127469595Y-125440800D01*
X126207476Y-124178682D01*
X125899094Y-124326255D01*
X125657143Y-124948728D01*
X125399306Y-124326255D01*
X125090924Y-124178682D01*
X123828805Y-125440800D01*
X123469595Y-125440800D01*
X122207476Y-124178682D01*
X121899094Y-124326255D01*
X121605795Y-125080831D01*
X120827800Y-125080831D01*
X120827800Y-123999076D01*
X122387082Y-123999076D01*
X123649200Y-125261195D01*
X124911318Y-123999076D01*
X126387082Y-123999076D01*
X127649200Y-125261195D01*
X128911318Y-123999076D01*
X128763745Y-123690694D01*
X128009169Y-123397395D01*
X127199791Y-123415186D01*
X126534655Y-123690694D01*
X126387082Y-123999076D01*
X124911318Y-123999076D01*
X124763745Y-123690694D01*
X124009169Y-123397395D01*
X123199791Y-123415186D01*
X122534655Y-123690694D01*
X122387082Y-123999076D01*
X120827800Y-123999076D01*
X120827800Y-119399324D01*
X122232682Y-119399324D01*
X122380255Y-119707706D01*
X123134831Y-120001005D01*
X123944209Y-119983214D01*
X124609345Y-119707706D01*
X124756918Y-119399324D01*
X126032682Y-119399324D01*
X126180255Y-119707706D01*
X126934831Y-120001005D01*
X127744209Y-119983214D01*
X128409345Y-119707706D01*
X128556918Y-119399324D01*
X127294800Y-118137205D01*
X126032682Y-119399324D01*
X124756918Y-119399324D01*
X123494800Y-118137205D01*
X122232682Y-119399324D01*
X120827800Y-119399324D01*
X120827800Y-117597631D01*
X121451395Y-117597631D01*
X121469186Y-118407009D01*
X121744694Y-119072145D01*
X122053076Y-119219718D01*
X123315195Y-117957600D01*
X123674405Y-117957600D01*
X124936524Y-119219718D01*
X125244906Y-119072145D01*
X125390036Y-118698767D01*
X125544694Y-119072145D01*
X125853076Y-119219718D01*
X127115195Y-117957600D01*
X127474405Y-117957600D01*
X128736524Y-119219718D01*
X129044906Y-119072145D01*
X129338205Y-118317569D01*
X129320414Y-117508191D01*
X129044906Y-116843055D01*
X128736524Y-116695482D01*
X127474405Y-117957600D01*
X127115195Y-117957600D01*
X125853076Y-116695482D01*
X125544694Y-116843055D01*
X125399564Y-117216433D01*
X125244906Y-116843055D01*
X124936524Y-116695482D01*
X123674405Y-117957600D01*
X123315195Y-117957600D01*
X122053076Y-116695482D01*
X121744694Y-116843055D01*
X121451395Y-117597631D01*
X120827800Y-117597631D01*
X120827800Y-116515876D01*
X122232682Y-116515876D01*
X123494800Y-117777995D01*
X124756918Y-116515876D01*
X126032682Y-116515876D01*
X127294800Y-117777995D01*
X128556918Y-116515876D01*
X128409345Y-116207494D01*
X127654769Y-115914195D01*
X126845391Y-115931986D01*
X126180255Y-116207494D01*
X126032682Y-116515876D01*
X124756918Y-116515876D01*
X124609345Y-116207494D01*
X123854769Y-115914195D01*
X123045391Y-115931986D01*
X122380255Y-116207494D01*
X122232682Y-116515876D01*
X120827800Y-116515876D01*
X120827800Y-106899324D01*
X122232682Y-106899324D01*
X122380255Y-107207706D01*
X123134831Y-107501005D01*
X123944209Y-107483214D01*
X124609345Y-107207706D01*
X124756918Y-106899324D01*
X126032682Y-106899324D01*
X126180255Y-107207706D01*
X126934831Y-107501005D01*
X127744209Y-107483214D01*
X128409345Y-107207706D01*
X128556918Y-106899324D01*
X127294800Y-105637205D01*
X126032682Y-106899324D01*
X124756918Y-106899324D01*
X123494800Y-105637205D01*
X122232682Y-106899324D01*
X120827800Y-106899324D01*
X120827800Y-105097631D01*
X121451395Y-105097631D01*
X121469186Y-105907009D01*
X121744694Y-106572145D01*
X122053076Y-106719718D01*
X123315195Y-105457600D01*
X123674405Y-105457600D01*
X124936524Y-106719718D01*
X125244906Y-106572145D01*
X125390036Y-106198767D01*
X125544694Y-106572145D01*
X125853076Y-106719718D01*
X127115195Y-105457600D01*
X127474405Y-105457600D01*
X128736524Y-106719718D01*
X129044906Y-106572145D01*
X129338205Y-105817569D01*
X129320414Y-105008191D01*
X129044906Y-104343055D01*
X128736524Y-104195482D01*
X127474405Y-105457600D01*
X127115195Y-105457600D01*
X125853076Y-104195482D01*
X125544694Y-104343055D01*
X125399564Y-104716433D01*
X125244906Y-104343055D01*
X124936524Y-104195482D01*
X123674405Y-105457600D01*
X123315195Y-105457600D01*
X122053076Y-104195482D01*
X121744694Y-104343055D01*
X121451395Y-105097631D01*
X120827800Y-105097631D01*
X120827800Y-104015876D01*
X122232682Y-104015876D01*
X123494800Y-105277995D01*
X124756918Y-104015876D01*
X126032682Y-104015876D01*
X127294800Y-105277995D01*
X128556918Y-104015876D01*
X128409345Y-103707494D01*
X127654769Y-103414195D01*
X126845391Y-103431986D01*
X126180255Y-103707494D01*
X126032682Y-104015876D01*
X124756918Y-104015876D01*
X124609345Y-103707494D01*
X123854769Y-103414195D01*
X123045391Y-103431986D01*
X122380255Y-103707494D01*
X122232682Y-104015876D01*
X120827800Y-104015876D01*
X120827800Y-102997000D01*
X130581400Y-102997000D01*
X130581400Y-139776200D01*
G36*
X145313400Y-139725400D02*
X135559800Y-139725400D01*
X135559800Y-138562524D01*
X137387082Y-138562524D01*
X137534655Y-138870906D01*
X138289231Y-139164205D01*
X139098609Y-139146414D01*
X139763745Y-138870906D01*
X139911318Y-138562524D01*
X141387082Y-138562524D01*
X141534655Y-138870906D01*
X142289231Y-139164205D01*
X143098609Y-139146414D01*
X143763745Y-138870906D01*
X143911318Y-138562524D01*
X142649200Y-137300405D01*
X141387082Y-138562524D01*
X139911318Y-138562524D01*
X138649200Y-137300405D01*
X137387082Y-138562524D01*
X135559800Y-138562524D01*
X135559800Y-136760831D01*
X136605795Y-136760831D01*
X136623586Y-137570209D01*
X136899094Y-138235345D01*
X137207476Y-138382918D01*
X138469595Y-137120800D01*
X138828805Y-137120800D01*
X140090924Y-138382918D01*
X140399306Y-138235345D01*
X140641257Y-137612872D01*
X140899094Y-138235345D01*
X141207476Y-138382918D01*
X142469595Y-137120800D01*
X142828805Y-137120800D01*
X144090924Y-138382918D01*
X144399306Y-138235345D01*
X144692605Y-137480769D01*
X144674814Y-136671391D01*
X144399306Y-136006255D01*
X144090924Y-135858682D01*
X142828805Y-137120800D01*
X142469595Y-137120800D01*
X141207476Y-135858682D01*
X140899094Y-136006255D01*
X140657143Y-136628728D01*
X140399306Y-136006255D01*
X140090924Y-135858682D01*
X138828805Y-137120800D01*
X138469595Y-137120800D01*
X137207476Y-135858682D01*
X136899094Y-136006255D01*
X136605795Y-136760831D01*
X135559800Y-136760831D01*
X135559800Y-135679076D01*
X137387082Y-135679076D01*
X138649200Y-136941195D01*
X139911318Y-135679076D01*
X141387082Y-135679076D01*
X142649200Y-136941195D01*
X143911318Y-135679076D01*
X143763745Y-135370694D01*
X143009169Y-135077395D01*
X142199791Y-135095186D01*
X141534655Y-135370694D01*
X141387082Y-135679076D01*
X139911318Y-135679076D01*
X139763745Y-135370694D01*
X139009169Y-135077395D01*
X138199791Y-135095186D01*
X137534655Y-135370694D01*
X137387082Y-135679076D01*
X135559800Y-135679076D01*
X135559800Y-126882524D01*
X137387082Y-126882524D01*
X137534655Y-127190906D01*
X138289231Y-127484205D01*
X139098609Y-127466414D01*
X139763745Y-127190906D01*
X139911318Y-126882524D01*
X141387082Y-126882524D01*
X141534655Y-127190906D01*
X142289231Y-127484205D01*
X143098609Y-127466414D01*
X143763745Y-127190906D01*
X143911318Y-126882524D01*
X142649200Y-125620405D01*
X141387082Y-126882524D01*
X139911318Y-126882524D01*
X138649200Y-125620405D01*
X137387082Y-126882524D01*
X135559800Y-126882524D01*
X135559800Y-125080831D01*
X136605795Y-125080831D01*
X136623586Y-125890209D01*
X136899094Y-126555345D01*
X137207476Y-126702918D01*
X138469595Y-125440800D01*
X138828805Y-125440800D01*
X140090924Y-126702918D01*
X140399306Y-126555345D01*
X140641257Y-125932872D01*
X140899094Y-126555345D01*
X141207476Y-126702918D01*
X142469595Y-125440800D01*
X142828805Y-125440800D01*
X144090924Y-126702918D01*
X144399306Y-126555345D01*
X144692605Y-125800769D01*
X144674814Y-124991391D01*
X144399306Y-124326255D01*
X144090924Y-124178682D01*
X142828805Y-125440800D01*
X142469595Y-125440800D01*
X141207476Y-124178682D01*
X140899094Y-124326255D01*
X140657143Y-124948728D01*
X140399306Y-124326255D01*
X140090924Y-124178682D01*
X138828805Y-125440800D01*
X138469595Y-125440800D01*
X137207476Y-124178682D01*
X136899094Y-124326255D01*
X136605795Y-125080831D01*
X135559800Y-125080831D01*
X135559800Y-123999076D01*
X137387082Y-123999076D01*
X138649200Y-125261195D01*
X139911318Y-123999076D01*
X141387082Y-123999076D01*
X142649200Y-125261195D01*
X143911318Y-123999076D01*
X143763745Y-123690694D01*
X143009169Y-123397395D01*
X142199791Y-123415186D01*
X141534655Y-123690694D01*
X141387082Y-123999076D01*
X139911318Y-123999076D01*
X139763745Y-123690694D01*
X139009169Y-123397395D01*
X138199791Y-123415186D01*
X137534655Y-123690694D01*
X137387082Y-123999076D01*
X135559800Y-123999076D01*
X135559800Y-119399324D01*
X137232682Y-119399324D01*
X137380255Y-119707706D01*
X138134831Y-120001005D01*
X138944209Y-119983214D01*
X139609345Y-119707706D01*
X139756918Y-119399324D01*
X141032682Y-119399324D01*
X141180255Y-119707706D01*
X141934831Y-120001005D01*
X142744209Y-119983214D01*
X143409345Y-119707706D01*
X143556918Y-119399324D01*
X142294800Y-118137205D01*
X141032682Y-119399324D01*
X139756918Y-119399324D01*
X138494800Y-118137205D01*
X137232682Y-119399324D01*
X135559800Y-119399324D01*
X135559800Y-117597631D01*
X136451395Y-117597631D01*
X136469186Y-118407009D01*
X136744694Y-119072145D01*
X137053076Y-119219718D01*
X138315195Y-117957600D01*
X138674405Y-117957600D01*
X139936524Y-119219718D01*
X140244906Y-119072145D01*
X140390036Y-118698767D01*
X140544694Y-119072145D01*
X140853076Y-119219718D01*
X142115195Y-117957600D01*
X142474405Y-117957600D01*
X143736524Y-119219718D01*
X144044906Y-119072145D01*
X144338205Y-118317569D01*
X144320414Y-117508191D01*
X144044906Y-116843055D01*
X143736524Y-116695482D01*
X142474405Y-117957600D01*
X142115195Y-117957600D01*
X140853076Y-116695482D01*
X140544694Y-116843055D01*
X140399564Y-117216433D01*
X140244906Y-116843055D01*
X139936524Y-116695482D01*
X138674405Y-117957600D01*
X138315195Y-117957600D01*
X137053076Y-116695482D01*
X136744694Y-116843055D01*
X136451395Y-117597631D01*
X135559800Y-117597631D01*
X135559800Y-116515876D01*
X137232682Y-116515876D01*
X138494800Y-117777995D01*
X139756918Y-116515876D01*
X141032682Y-116515876D01*
X142294800Y-117777995D01*
X143556918Y-116515876D01*
X143409345Y-116207494D01*
X142654769Y-115914195D01*
X141845391Y-115931986D01*
X141180255Y-116207494D01*
X141032682Y-116515876D01*
X139756918Y-116515876D01*
X139609345Y-116207494D01*
X138854769Y-115914195D01*
X138045391Y-115931986D01*
X137380255Y-116207494D01*
X137232682Y-116515876D01*
X135559800Y-116515876D01*
X135559800Y-106899324D01*
X137232682Y-106899324D01*
X137380255Y-107207706D01*
X138134831Y-107501005D01*
X138944209Y-107483214D01*
X139609345Y-107207706D01*
X139756918Y-106899324D01*
X141032682Y-106899324D01*
X141180255Y-107207706D01*
X141934831Y-107501005D01*
X142744209Y-107483214D01*
X143409345Y-107207706D01*
X143556918Y-106899324D01*
X142294800Y-105637205D01*
X141032682Y-106899324D01*
X139756918Y-106899324D01*
X138494800Y-105637205D01*
X137232682Y-106899324D01*
X135559800Y-106899324D01*
X135559800Y-105097631D01*
X136451395Y-105097631D01*
X136469186Y-105907009D01*
X136744694Y-106572145D01*
X137053076Y-106719718D01*
X138315195Y-105457600D01*
X138674405Y-105457600D01*
X139936524Y-106719718D01*
X140244906Y-106572145D01*
X140390036Y-106198767D01*
X140544694Y-106572145D01*
X140853076Y-106719718D01*
X142115195Y-105457600D01*
X142474405Y-105457600D01*
X143736524Y-106719718D01*
X144044906Y-106572145D01*
X144338205Y-105817569D01*
X144320414Y-105008191D01*
X144044906Y-104343055D01*
X143736524Y-104195482D01*
X142474405Y-105457600D01*
X142115195Y-105457600D01*
X140853076Y-104195482D01*
X140544694Y-104343055D01*
X140399564Y-104716433D01*
X140244906Y-104343055D01*
X139936524Y-104195482D01*
X138674405Y-105457600D01*
X138315195Y-105457600D01*
X137053076Y-104195482D01*
X136744694Y-104343055D01*
X136451395Y-105097631D01*
X135559800Y-105097631D01*
X135559800Y-104015876D01*
X137232682Y-104015876D01*
X138494800Y-105277995D01*
X139756918Y-104015876D01*
X141032682Y-104015876D01*
X142294800Y-105277995D01*
X143556918Y-104015876D01*
X143409345Y-103707494D01*
X142654769Y-103414195D01*
X141845391Y-103431986D01*
X141180255Y-103707494D01*
X141032682Y-104015876D01*
X139756918Y-104015876D01*
X139609345Y-103707494D01*
X138854769Y-103414195D01*
X138045391Y-103431986D01*
X137380255Y-103707494D01*
X137232682Y-104015876D01*
X135559800Y-104015876D01*
X135559800Y-102946200D01*
X145313400Y-102946200D01*
X145313400Y-139725400D01*
X145313400Y-139725400D01*
G37*
X145313400Y-139725400D02*
X135559800Y-139725400D01*
X135559800Y-138562524D01*
X137387082Y-138562524D01*
X137534655Y-138870906D01*
X138289231Y-139164205D01*
X139098609Y-139146414D01*
X139763745Y-138870906D01*
X139911318Y-138562524D01*
X141387082Y-138562524D01*
X141534655Y-138870906D01*
X142289231Y-139164205D01*
X143098609Y-139146414D01*
X143763745Y-138870906D01*
X143911318Y-138562524D01*
X142649200Y-137300405D01*
X141387082Y-138562524D01*
X139911318Y-138562524D01*
X138649200Y-137300405D01*
X137387082Y-138562524D01*
X135559800Y-138562524D01*
X135559800Y-136760831D01*
X136605795Y-136760831D01*
X136623586Y-137570209D01*
X136899094Y-138235345D01*
X137207476Y-138382918D01*
X138469595Y-137120800D01*
X138828805Y-137120800D01*
X140090924Y-138382918D01*
X140399306Y-138235345D01*
X140641257Y-137612872D01*
X140899094Y-138235345D01*
X141207476Y-138382918D01*
X142469595Y-137120800D01*
X142828805Y-137120800D01*
X144090924Y-138382918D01*
X144399306Y-138235345D01*
X144692605Y-137480769D01*
X144674814Y-136671391D01*
X144399306Y-136006255D01*
X144090924Y-135858682D01*
X142828805Y-137120800D01*
X142469595Y-137120800D01*
X141207476Y-135858682D01*
X140899094Y-136006255D01*
X140657143Y-136628728D01*
X140399306Y-136006255D01*
X140090924Y-135858682D01*
X138828805Y-137120800D01*
X138469595Y-137120800D01*
X137207476Y-135858682D01*
X136899094Y-136006255D01*
X136605795Y-136760831D01*
X135559800Y-136760831D01*
X135559800Y-135679076D01*
X137387082Y-135679076D01*
X138649200Y-136941195D01*
X139911318Y-135679076D01*
X141387082Y-135679076D01*
X142649200Y-136941195D01*
X143911318Y-135679076D01*
X143763745Y-135370694D01*
X143009169Y-135077395D01*
X142199791Y-135095186D01*
X141534655Y-135370694D01*
X141387082Y-135679076D01*
X139911318Y-135679076D01*
X139763745Y-135370694D01*
X139009169Y-135077395D01*
X138199791Y-135095186D01*
X137534655Y-135370694D01*
X137387082Y-135679076D01*
X135559800Y-135679076D01*
X135559800Y-126882524D01*
X137387082Y-126882524D01*
X137534655Y-127190906D01*
X138289231Y-127484205D01*
X139098609Y-127466414D01*
X139763745Y-127190906D01*
X139911318Y-126882524D01*
X141387082Y-126882524D01*
X141534655Y-127190906D01*
X142289231Y-127484205D01*
X143098609Y-127466414D01*
X143763745Y-127190906D01*
X143911318Y-126882524D01*
X142649200Y-125620405D01*
X141387082Y-126882524D01*
X139911318Y-126882524D01*
X138649200Y-125620405D01*
X137387082Y-126882524D01*
X135559800Y-126882524D01*
X135559800Y-125080831D01*
X136605795Y-125080831D01*
X136623586Y-125890209D01*
X136899094Y-126555345D01*
X137207476Y-126702918D01*
X138469595Y-125440800D01*
X138828805Y-125440800D01*
X140090924Y-126702918D01*
X140399306Y-126555345D01*
X140641257Y-125932872D01*
X140899094Y-126555345D01*
X141207476Y-126702918D01*
X142469595Y-125440800D01*
X142828805Y-125440800D01*
X144090924Y-126702918D01*
X144399306Y-126555345D01*
X144692605Y-125800769D01*
X144674814Y-124991391D01*
X144399306Y-124326255D01*
X144090924Y-124178682D01*
X142828805Y-125440800D01*
X142469595Y-125440800D01*
X141207476Y-124178682D01*
X140899094Y-124326255D01*
X140657143Y-124948728D01*
X140399306Y-124326255D01*
X140090924Y-124178682D01*
X138828805Y-125440800D01*
X138469595Y-125440800D01*
X137207476Y-124178682D01*
X136899094Y-124326255D01*
X136605795Y-125080831D01*
X135559800Y-125080831D01*
X135559800Y-123999076D01*
X137387082Y-123999076D01*
X138649200Y-125261195D01*
X139911318Y-123999076D01*
X141387082Y-123999076D01*
X142649200Y-125261195D01*
X143911318Y-123999076D01*
X143763745Y-123690694D01*
X143009169Y-123397395D01*
X142199791Y-123415186D01*
X141534655Y-123690694D01*
X141387082Y-123999076D01*
X139911318Y-123999076D01*
X139763745Y-123690694D01*
X139009169Y-123397395D01*
X138199791Y-123415186D01*
X137534655Y-123690694D01*
X137387082Y-123999076D01*
X135559800Y-123999076D01*
X135559800Y-119399324D01*
X137232682Y-119399324D01*
X137380255Y-119707706D01*
X138134831Y-120001005D01*
X138944209Y-119983214D01*
X139609345Y-119707706D01*
X139756918Y-119399324D01*
X141032682Y-119399324D01*
X141180255Y-119707706D01*
X141934831Y-120001005D01*
X142744209Y-119983214D01*
X143409345Y-119707706D01*
X143556918Y-119399324D01*
X142294800Y-118137205D01*
X141032682Y-119399324D01*
X139756918Y-119399324D01*
X138494800Y-118137205D01*
X137232682Y-119399324D01*
X135559800Y-119399324D01*
X135559800Y-117597631D01*
X136451395Y-117597631D01*
X136469186Y-118407009D01*
X136744694Y-119072145D01*
X137053076Y-119219718D01*
X138315195Y-117957600D01*
X138674405Y-117957600D01*
X139936524Y-119219718D01*
X140244906Y-119072145D01*
X140390036Y-118698767D01*
X140544694Y-119072145D01*
X140853076Y-119219718D01*
X142115195Y-117957600D01*
X142474405Y-117957600D01*
X143736524Y-119219718D01*
X144044906Y-119072145D01*
X144338205Y-118317569D01*
X144320414Y-117508191D01*
X144044906Y-116843055D01*
X143736524Y-116695482D01*
X142474405Y-117957600D01*
X142115195Y-117957600D01*
X140853076Y-116695482D01*
X140544694Y-116843055D01*
X140399564Y-117216433D01*
X140244906Y-116843055D01*
X139936524Y-116695482D01*
X138674405Y-117957600D01*
X138315195Y-117957600D01*
X137053076Y-116695482D01*
X136744694Y-116843055D01*
X136451395Y-117597631D01*
X135559800Y-117597631D01*
X135559800Y-116515876D01*
X137232682Y-116515876D01*
X138494800Y-117777995D01*
X139756918Y-116515876D01*
X141032682Y-116515876D01*
X142294800Y-117777995D01*
X143556918Y-116515876D01*
X143409345Y-116207494D01*
X142654769Y-115914195D01*
X141845391Y-115931986D01*
X141180255Y-116207494D01*
X141032682Y-116515876D01*
X139756918Y-116515876D01*
X139609345Y-116207494D01*
X138854769Y-115914195D01*
X138045391Y-115931986D01*
X137380255Y-116207494D01*
X137232682Y-116515876D01*
X135559800Y-116515876D01*
X135559800Y-106899324D01*
X137232682Y-106899324D01*
X137380255Y-107207706D01*
X138134831Y-107501005D01*
X138944209Y-107483214D01*
X139609345Y-107207706D01*
X139756918Y-106899324D01*
X141032682Y-106899324D01*
X141180255Y-107207706D01*
X141934831Y-107501005D01*
X142744209Y-107483214D01*
X143409345Y-107207706D01*
X143556918Y-106899324D01*
X142294800Y-105637205D01*
X141032682Y-106899324D01*
X139756918Y-106899324D01*
X138494800Y-105637205D01*
X137232682Y-106899324D01*
X135559800Y-106899324D01*
X135559800Y-105097631D01*
X136451395Y-105097631D01*
X136469186Y-105907009D01*
X136744694Y-106572145D01*
X137053076Y-106719718D01*
X138315195Y-105457600D01*
X138674405Y-105457600D01*
X139936524Y-106719718D01*
X140244906Y-106572145D01*
X140390036Y-106198767D01*
X140544694Y-106572145D01*
X140853076Y-106719718D01*
X142115195Y-105457600D01*
X142474405Y-105457600D01*
X143736524Y-106719718D01*
X144044906Y-106572145D01*
X144338205Y-105817569D01*
X144320414Y-105008191D01*
X144044906Y-104343055D01*
X143736524Y-104195482D01*
X142474405Y-105457600D01*
X142115195Y-105457600D01*
X140853076Y-104195482D01*
X140544694Y-104343055D01*
X140399564Y-104716433D01*
X140244906Y-104343055D01*
X139936524Y-104195482D01*
X138674405Y-105457600D01*
X138315195Y-105457600D01*
X137053076Y-104195482D01*
X136744694Y-104343055D01*
X136451395Y-105097631D01*
X135559800Y-105097631D01*
X135559800Y-104015876D01*
X137232682Y-104015876D01*
X138494800Y-105277995D01*
X139756918Y-104015876D01*
X141032682Y-104015876D01*
X142294800Y-105277995D01*
X143556918Y-104015876D01*
X143409345Y-103707494D01*
X142654769Y-103414195D01*
X141845391Y-103431986D01*
X141180255Y-103707494D01*
X141032682Y-104015876D01*
X139756918Y-104015876D01*
X139609345Y-103707494D01*
X138854769Y-103414195D01*
X138045391Y-103431986D01*
X137380255Y-103707494D01*
X137232682Y-104015876D01*
X135559800Y-104015876D01*
X135559800Y-102946200D01*
X145313400Y-102946200D01*
X145313400Y-139725400D01*
G36*
X164109400Y-139776200D02*
X154355800Y-139776200D01*
X154355800Y-138562524D01*
X155915082Y-138562524D01*
X156062655Y-138870906D01*
X156817231Y-139164205D01*
X157626609Y-139146414D01*
X158291745Y-138870906D01*
X158439318Y-138562524D01*
X159915082Y-138562524D01*
X160062655Y-138870906D01*
X160817231Y-139164205D01*
X161626609Y-139146414D01*
X162291745Y-138870906D01*
X162439318Y-138562524D01*
X161177200Y-137300405D01*
X159915082Y-138562524D01*
X158439318Y-138562524D01*
X157177200Y-137300405D01*
X155915082Y-138562524D01*
X154355800Y-138562524D01*
X154355800Y-136760831D01*
X155133795Y-136760831D01*
X155151586Y-137570209D01*
X155427094Y-138235345D01*
X155735476Y-138382918D01*
X156997595Y-137120800D01*
X157356805Y-137120800D01*
X158618924Y-138382918D01*
X158927306Y-138235345D01*
X159169257Y-137612872D01*
X159427094Y-138235345D01*
X159735476Y-138382918D01*
X160997595Y-137120800D01*
X161356805Y-137120800D01*
X162618924Y-138382918D01*
X162927306Y-138235345D01*
X163220605Y-137480769D01*
X163202814Y-136671391D01*
X162927306Y-136006255D01*
X162618924Y-135858682D01*
X161356805Y-137120800D01*
X160997595Y-137120800D01*
X159735476Y-135858682D01*
X159427094Y-136006255D01*
X159185143Y-136628728D01*
X158927306Y-136006255D01*
X158618924Y-135858682D01*
X157356805Y-137120800D01*
X156997595Y-137120800D01*
X155735476Y-135858682D01*
X155427094Y-136006255D01*
X155133795Y-136760831D01*
X154355800Y-136760831D01*
X154355800Y-135679076D01*
X155915082Y-135679076D01*
X157177200Y-136941195D01*
X158439318Y-135679076D01*
X159915082Y-135679076D01*
X161177200Y-136941195D01*
X162439318Y-135679076D01*
X162291745Y-135370694D01*
X161537169Y-135077395D01*
X160727791Y-135095186D01*
X160062655Y-135370694D01*
X159915082Y-135679076D01*
X158439318Y-135679076D01*
X158291745Y-135370694D01*
X157537169Y-135077395D01*
X156727791Y-135095186D01*
X156062655Y-135370694D01*
X155915082Y-135679076D01*
X154355800Y-135679076D01*
X154355800Y-126882524D01*
X155915082Y-126882524D01*
X156062655Y-127190906D01*
X156817231Y-127484205D01*
X157626609Y-127466414D01*
X158291745Y-127190906D01*
X158439318Y-126882524D01*
X159915082Y-126882524D01*
X160062655Y-127190906D01*
X160817231Y-127484205D01*
X161626609Y-127466414D01*
X162291745Y-127190906D01*
X162439318Y-126882524D01*
X161177200Y-125620405D01*
X159915082Y-126882524D01*
X158439318Y-126882524D01*
X157177200Y-125620405D01*
X155915082Y-126882524D01*
X154355800Y-126882524D01*
X154355800Y-125080831D01*
X155133795Y-125080831D01*
X155151586Y-125890209D01*
X155427094Y-126555345D01*
X155735476Y-126702918D01*
X156997595Y-125440800D01*
X157356805Y-125440800D01*
X158618924Y-126702918D01*
X158927306Y-126555345D01*
X159169257Y-125932872D01*
X159427094Y-126555345D01*
X159735476Y-126702918D01*
X160997595Y-125440800D01*
X161356805Y-125440800D01*
X162618924Y-126702918D01*
X162927306Y-126555345D01*
X163220605Y-125800769D01*
X163202814Y-124991391D01*
X162927306Y-124326255D01*
X162618924Y-124178682D01*
X161356805Y-125440800D01*
X160997595Y-125440800D01*
X159735476Y-124178682D01*
X159427094Y-124326255D01*
X159185143Y-124948728D01*
X158927306Y-124326255D01*
X158618924Y-124178682D01*
X157356805Y-125440800D01*
X156997595Y-125440800D01*
X155735476Y-124178682D01*
X155427094Y-124326255D01*
X155133795Y-125080831D01*
X154355800Y-125080831D01*
X154355800Y-123999076D01*
X155915082Y-123999076D01*
X157177200Y-125261195D01*
X158439318Y-123999076D01*
X159915082Y-123999076D01*
X161177200Y-125261195D01*
X162439318Y-123999076D01*
X162291745Y-123690694D01*
X161537169Y-123397395D01*
X160727791Y-123415186D01*
X160062655Y-123690694D01*
X159915082Y-123999076D01*
X158439318Y-123999076D01*
X158291745Y-123690694D01*
X157537169Y-123397395D01*
X156727791Y-123415186D01*
X156062655Y-123690694D01*
X155915082Y-123999076D01*
X154355800Y-123999076D01*
X154355800Y-119399324D01*
X155760682Y-119399324D01*
X155908255Y-119707706D01*
X156662831Y-120001005D01*
X157472209Y-119983214D01*
X158137345Y-119707706D01*
X158284918Y-119399324D01*
X159560682Y-119399324D01*
X159708255Y-119707706D01*
X160462831Y-120001005D01*
X161272209Y-119983214D01*
X161937345Y-119707706D01*
X162084918Y-119399324D01*
X160822800Y-118137205D01*
X159560682Y-119399324D01*
X158284918Y-119399324D01*
X157022800Y-118137205D01*
X155760682Y-119399324D01*
X154355800Y-119399324D01*
X154355800Y-117597631D01*
X154979395Y-117597631D01*
X154997186Y-118407009D01*
X155272694Y-119072145D01*
X155581076Y-119219718D01*
X156843195Y-117957600D01*
X157202405Y-117957600D01*
X158464524Y-119219718D01*
X158772906Y-119072145D01*
X158918036Y-118698767D01*
X159072694Y-119072145D01*
X159381076Y-119219718D01*
X160643195Y-117957600D01*
X161002405Y-117957600D01*
X162264524Y-119219718D01*
X162572906Y-119072145D01*
X162866205Y-118317569D01*
X162848414Y-117508191D01*
X162572906Y-116843055D01*
X162264524Y-116695482D01*
X161002405Y-117957600D01*
X160643195Y-117957600D01*
X159381076Y-116695482D01*
X159072694Y-116843055D01*
X158927564Y-117216433D01*
X158772906Y-116843055D01*
X158464524Y-116695482D01*
X157202405Y-117957600D01*
X156843195Y-117957600D01*
X155581076Y-116695482D01*
X155272694Y-116843055D01*
X154979395Y-117597631D01*
X154355800Y-117597631D01*
X154355800Y-116515876D01*
X155760682Y-116515876D01*
X157022800Y-117777995D01*
X158284918Y-116515876D01*
X159560682Y-116515876D01*
X160822800Y-117777995D01*
X162084918Y-116515876D01*
X161937345Y-116207494D01*
X161182769Y-115914195D01*
X160373391Y-115931986D01*
X159708255Y-116207494D01*
X159560682Y-116515876D01*
X158284918Y-116515876D01*
X158137345Y-116207494D01*
X157382769Y-115914195D01*
X156573391Y-115931986D01*
X155908255Y-116207494D01*
X155760682Y-116515876D01*
X154355800Y-116515876D01*
X154355800Y-106899324D01*
X155760682Y-106899324D01*
X155908255Y-107207706D01*
X156662831Y-107501005D01*
X157472209Y-107483214D01*
X158137345Y-107207706D01*
X158284918Y-106899324D01*
X159560682Y-106899324D01*
X159708255Y-107207706D01*
X160462831Y-107501005D01*
X161272209Y-107483214D01*
X161937345Y-107207706D01*
X162084918Y-106899324D01*
X160822800Y-105637205D01*
X159560682Y-106899324D01*
X158284918Y-106899324D01*
X157022800Y-105637205D01*
X155760682Y-106899324D01*
X154355800Y-106899324D01*
X154355800Y-105097631D01*
X154979395Y-105097631D01*
X154997186Y-105907009D01*
X155272694Y-106572145D01*
X155581076Y-106719718D01*
X156843195Y-105457600D01*
X157202405Y-105457600D01*
X158464524Y-106719718D01*
X158772906Y-106572145D01*
X158918036Y-106198767D01*
X159072694Y-106572145D01*
X159381076Y-106719718D01*
X160643195Y-105457600D01*
X161002405Y-105457600D01*
X162264524Y-106719718D01*
X162572906Y-106572145D01*
X162866205Y-105817569D01*
X162848414Y-105008191D01*
X162572906Y-104343055D01*
X162264524Y-104195482D01*
X161002405Y-105457600D01*
X160643195Y-105457600D01*
X159381076Y-104195482D01*
X159072694Y-104343055D01*
X158927564Y-104716433D01*
X158772906Y-104343055D01*
X158464524Y-104195482D01*
X157202405Y-105457600D01*
X156843195Y-105457600D01*
X155581076Y-104195482D01*
X155272694Y-104343055D01*
X154979395Y-105097631D01*
X154355800Y-105097631D01*
X154355800Y-104015876D01*
X155760682Y-104015876D01*
X157022800Y-105277995D01*
X158284918Y-104015876D01*
X159560682Y-104015876D01*
X160822800Y-105277995D01*
X162084918Y-104015876D01*
X161937345Y-103707494D01*
X161182769Y-103414195D01*
X160373391Y-103431986D01*
X159708255Y-103707494D01*
X159560682Y-104015876D01*
X158284918Y-104015876D01*
X158137345Y-103707494D01*
X157382769Y-103414195D01*
X156573391Y-103431986D01*
X155908255Y-103707494D01*
X155760682Y-104015876D01*
X154355800Y-104015876D01*
X154355800Y-102997000D01*
X164109400Y-102997000D01*
X164109400Y-139776200D01*
X164109400Y-139776200D01*
G37*
X164109400Y-139776200D02*
X154355800Y-139776200D01*
X154355800Y-138562524D01*
X155915082Y-138562524D01*
X156062655Y-138870906D01*
X156817231Y-139164205D01*
X157626609Y-139146414D01*
X158291745Y-138870906D01*
X158439318Y-138562524D01*
X159915082Y-138562524D01*
X160062655Y-138870906D01*
X160817231Y-139164205D01*
X161626609Y-139146414D01*
X162291745Y-138870906D01*
X162439318Y-138562524D01*
X161177200Y-137300405D01*
X159915082Y-138562524D01*
X158439318Y-138562524D01*
X157177200Y-137300405D01*
X155915082Y-138562524D01*
X154355800Y-138562524D01*
X154355800Y-136760831D01*
X155133795Y-136760831D01*
X155151586Y-137570209D01*
X155427094Y-138235345D01*
X155735476Y-138382918D01*
X156997595Y-137120800D01*
X157356805Y-137120800D01*
X158618924Y-138382918D01*
X158927306Y-138235345D01*
X159169257Y-137612872D01*
X159427094Y-138235345D01*
X159735476Y-138382918D01*
X160997595Y-137120800D01*
X161356805Y-137120800D01*
X162618924Y-138382918D01*
X162927306Y-138235345D01*
X163220605Y-137480769D01*
X163202814Y-136671391D01*
X162927306Y-136006255D01*
X162618924Y-135858682D01*
X161356805Y-137120800D01*
X160997595Y-137120800D01*
X159735476Y-135858682D01*
X159427094Y-136006255D01*
X159185143Y-136628728D01*
X158927306Y-136006255D01*
X158618924Y-135858682D01*
X157356805Y-137120800D01*
X156997595Y-137120800D01*
X155735476Y-135858682D01*
X155427094Y-136006255D01*
X155133795Y-136760831D01*
X154355800Y-136760831D01*
X154355800Y-135679076D01*
X155915082Y-135679076D01*
X157177200Y-136941195D01*
X158439318Y-135679076D01*
X159915082Y-135679076D01*
X161177200Y-136941195D01*
X162439318Y-135679076D01*
X162291745Y-135370694D01*
X161537169Y-135077395D01*
X160727791Y-135095186D01*
X160062655Y-135370694D01*
X159915082Y-135679076D01*
X158439318Y-135679076D01*
X158291745Y-135370694D01*
X157537169Y-135077395D01*
X156727791Y-135095186D01*
X156062655Y-135370694D01*
X155915082Y-135679076D01*
X154355800Y-135679076D01*
X154355800Y-126882524D01*
X155915082Y-126882524D01*
X156062655Y-127190906D01*
X156817231Y-127484205D01*
X157626609Y-127466414D01*
X158291745Y-127190906D01*
X158439318Y-126882524D01*
X159915082Y-126882524D01*
X160062655Y-127190906D01*
X160817231Y-127484205D01*
X161626609Y-127466414D01*
X162291745Y-127190906D01*
X162439318Y-126882524D01*
X161177200Y-125620405D01*
X159915082Y-126882524D01*
X158439318Y-126882524D01*
X157177200Y-125620405D01*
X155915082Y-126882524D01*
X154355800Y-126882524D01*
X154355800Y-125080831D01*
X155133795Y-125080831D01*
X155151586Y-125890209D01*
X155427094Y-126555345D01*
X155735476Y-126702918D01*
X156997595Y-125440800D01*
X157356805Y-125440800D01*
X158618924Y-126702918D01*
X158927306Y-126555345D01*
X159169257Y-125932872D01*
X159427094Y-126555345D01*
X159735476Y-126702918D01*
X160997595Y-125440800D01*
X161356805Y-125440800D01*
X162618924Y-126702918D01*
X162927306Y-126555345D01*
X163220605Y-125800769D01*
X163202814Y-124991391D01*
X162927306Y-124326255D01*
X162618924Y-124178682D01*
X161356805Y-125440800D01*
X160997595Y-125440800D01*
X159735476Y-124178682D01*
X159427094Y-124326255D01*
X159185143Y-124948728D01*
X158927306Y-124326255D01*
X158618924Y-124178682D01*
X157356805Y-125440800D01*
X156997595Y-125440800D01*
X155735476Y-124178682D01*
X155427094Y-124326255D01*
X155133795Y-125080831D01*
X154355800Y-125080831D01*
X154355800Y-123999076D01*
X155915082Y-123999076D01*
X157177200Y-125261195D01*
X158439318Y-123999076D01*
X159915082Y-123999076D01*
X161177200Y-125261195D01*
X162439318Y-123999076D01*
X162291745Y-123690694D01*
X161537169Y-123397395D01*
X160727791Y-123415186D01*
X160062655Y-123690694D01*
X159915082Y-123999076D01*
X158439318Y-123999076D01*
X158291745Y-123690694D01*
X157537169Y-123397395D01*
X156727791Y-123415186D01*
X156062655Y-123690694D01*
X155915082Y-123999076D01*
X154355800Y-123999076D01*
X154355800Y-119399324D01*
X155760682Y-119399324D01*
X155908255Y-119707706D01*
X156662831Y-120001005D01*
X157472209Y-119983214D01*
X158137345Y-119707706D01*
X158284918Y-119399324D01*
X159560682Y-119399324D01*
X159708255Y-119707706D01*
X160462831Y-120001005D01*
X161272209Y-119983214D01*
X161937345Y-119707706D01*
X162084918Y-119399324D01*
X160822800Y-118137205D01*
X159560682Y-119399324D01*
X158284918Y-119399324D01*
X157022800Y-118137205D01*
X155760682Y-119399324D01*
X154355800Y-119399324D01*
X154355800Y-117597631D01*
X154979395Y-117597631D01*
X154997186Y-118407009D01*
X155272694Y-119072145D01*
X155581076Y-119219718D01*
X156843195Y-117957600D01*
X157202405Y-117957600D01*
X158464524Y-119219718D01*
X158772906Y-119072145D01*
X158918036Y-118698767D01*
X159072694Y-119072145D01*
X159381076Y-119219718D01*
X160643195Y-117957600D01*
X161002405Y-117957600D01*
X162264524Y-119219718D01*
X162572906Y-119072145D01*
X162866205Y-118317569D01*
X162848414Y-117508191D01*
X162572906Y-116843055D01*
X162264524Y-116695482D01*
X161002405Y-117957600D01*
X160643195Y-117957600D01*
X159381076Y-116695482D01*
X159072694Y-116843055D01*
X158927564Y-117216433D01*
X158772906Y-116843055D01*
X158464524Y-116695482D01*
X157202405Y-117957600D01*
X156843195Y-117957600D01*
X155581076Y-116695482D01*
X155272694Y-116843055D01*
X154979395Y-117597631D01*
X154355800Y-117597631D01*
X154355800Y-116515876D01*
X155760682Y-116515876D01*
X157022800Y-117777995D01*
X158284918Y-116515876D01*
X159560682Y-116515876D01*
X160822800Y-117777995D01*
X162084918Y-116515876D01*
X161937345Y-116207494D01*
X161182769Y-115914195D01*
X160373391Y-115931986D01*
X159708255Y-116207494D01*
X159560682Y-116515876D01*
X158284918Y-116515876D01*
X158137345Y-116207494D01*
X157382769Y-115914195D01*
X156573391Y-115931986D01*
X155908255Y-116207494D01*
X155760682Y-116515876D01*
X154355800Y-116515876D01*
X154355800Y-106899324D01*
X155760682Y-106899324D01*
X155908255Y-107207706D01*
X156662831Y-107501005D01*
X157472209Y-107483214D01*
X158137345Y-107207706D01*
X158284918Y-106899324D01*
X159560682Y-106899324D01*
X159708255Y-107207706D01*
X160462831Y-107501005D01*
X161272209Y-107483214D01*
X161937345Y-107207706D01*
X162084918Y-106899324D01*
X160822800Y-105637205D01*
X159560682Y-106899324D01*
X158284918Y-106899324D01*
X157022800Y-105637205D01*
X155760682Y-106899324D01*
X154355800Y-106899324D01*
X154355800Y-105097631D01*
X154979395Y-105097631D01*
X154997186Y-105907009D01*
X155272694Y-106572145D01*
X155581076Y-106719718D01*
X156843195Y-105457600D01*
X157202405Y-105457600D01*
X158464524Y-106719718D01*
X158772906Y-106572145D01*
X158918036Y-106198767D01*
X159072694Y-106572145D01*
X159381076Y-106719718D01*
X160643195Y-105457600D01*
X161002405Y-105457600D01*
X162264524Y-106719718D01*
X162572906Y-106572145D01*
X162866205Y-105817569D01*
X162848414Y-105008191D01*
X162572906Y-104343055D01*
X162264524Y-104195482D01*
X161002405Y-105457600D01*
X160643195Y-105457600D01*
X159381076Y-104195482D01*
X159072694Y-104343055D01*
X158927564Y-104716433D01*
X158772906Y-104343055D01*
X158464524Y-104195482D01*
X157202405Y-105457600D01*
X156843195Y-105457600D01*
X155581076Y-104195482D01*
X155272694Y-104343055D01*
X154979395Y-105097631D01*
X154355800Y-105097631D01*
X154355800Y-104015876D01*
X155760682Y-104015876D01*
X157022800Y-105277995D01*
X158284918Y-104015876D01*
X159560682Y-104015876D01*
X160822800Y-105277995D01*
X162084918Y-104015876D01*
X161937345Y-103707494D01*
X161182769Y-103414195D01*
X160373391Y-103431986D01*
X159708255Y-103707494D01*
X159560682Y-104015876D01*
X158284918Y-104015876D01*
X158137345Y-103707494D01*
X157382769Y-103414195D01*
X156573391Y-103431986D01*
X155908255Y-103707494D01*
X155760682Y-104015876D01*
X154355800Y-104015876D01*
X154355800Y-102997000D01*
X164109400Y-102997000D01*
X164109400Y-139776200D01*
G36*
X178841400Y-139725400D02*
X169087800Y-139725400D01*
X169087800Y-138562524D01*
X170915082Y-138562524D01*
X171062655Y-138870906D01*
X171817231Y-139164205D01*
X172626609Y-139146414D01*
X173291745Y-138870906D01*
X173439318Y-138562524D01*
X174915082Y-138562524D01*
X175062655Y-138870906D01*
X175817231Y-139164205D01*
X176626609Y-139146414D01*
X177291745Y-138870906D01*
X177439318Y-138562524D01*
X176177200Y-137300405D01*
X174915082Y-138562524D01*
X173439318Y-138562524D01*
X172177200Y-137300405D01*
X170915082Y-138562524D01*
X169087800Y-138562524D01*
X169087800Y-136760831D01*
X170133795Y-136760831D01*
X170151586Y-137570209D01*
X170427094Y-138235345D01*
X170735476Y-138382918D01*
X171997595Y-137120800D01*
X172356805Y-137120800D01*
X173618924Y-138382918D01*
X173927306Y-138235345D01*
X174169257Y-137612872D01*
X174427094Y-138235345D01*
X174735476Y-138382918D01*
X175997595Y-137120800D01*
X176356805Y-137120800D01*
X177618924Y-138382918D01*
X177927306Y-138235345D01*
X178220605Y-137480769D01*
X178202814Y-136671391D01*
X177927306Y-136006255D01*
X177618924Y-135858682D01*
X176356805Y-137120800D01*
X175997595Y-137120800D01*
X174735476Y-135858682D01*
X174427094Y-136006255D01*
X174185143Y-136628728D01*
X173927306Y-136006255D01*
X173618924Y-135858682D01*
X172356805Y-137120800D01*
X171997595Y-137120800D01*
X170735476Y-135858682D01*
X170427094Y-136006255D01*
X170133795Y-136760831D01*
X169087800Y-136760831D01*
X169087800Y-135679076D01*
X170915082Y-135679076D01*
X172177200Y-136941195D01*
X173439318Y-135679076D01*
X174915082Y-135679076D01*
X176177200Y-136941195D01*
X177439318Y-135679076D01*
X177291745Y-135370694D01*
X176537169Y-135077395D01*
X175727791Y-135095186D01*
X175062655Y-135370694D01*
X174915082Y-135679076D01*
X173439318Y-135679076D01*
X173291745Y-135370694D01*
X172537169Y-135077395D01*
X171727791Y-135095186D01*
X171062655Y-135370694D01*
X170915082Y-135679076D01*
X169087800Y-135679076D01*
X169087800Y-126882524D01*
X170915082Y-126882524D01*
X171062655Y-127190906D01*
X171817231Y-127484205D01*
X172626609Y-127466414D01*
X173291745Y-127190906D01*
X173439318Y-126882524D01*
X174915082Y-126882524D01*
X175062655Y-127190906D01*
X175817231Y-127484205D01*
X176626609Y-127466414D01*
X177291745Y-127190906D01*
X177439318Y-126882524D01*
X176177200Y-125620405D01*
X174915082Y-126882524D01*
X173439318Y-126882524D01*
X172177200Y-125620405D01*
X170915082Y-126882524D01*
X169087800Y-126882524D01*
X169087800Y-125080831D01*
X170133795Y-125080831D01*
X170151586Y-125890209D01*
X170427094Y-126555345D01*
X170735476Y-126702918D01*
X171997595Y-125440800D01*
X172356805Y-125440800D01*
X173618924Y-126702918D01*
X173927306Y-126555345D01*
X174169257Y-125932872D01*
X174427094Y-126555345D01*
X174735476Y-126702918D01*
X175997595Y-125440800D01*
X176356805Y-125440800D01*
X177618924Y-126702918D01*
X177927306Y-126555345D01*
X178220605Y-125800769D01*
X178202814Y-124991391D01*
X177927306Y-124326255D01*
X177618924Y-124178682D01*
X176356805Y-125440800D01*
X175997595Y-125440800D01*
X174735476Y-124178682D01*
X174427094Y-124326255D01*
X174185143Y-124948728D01*
X173927306Y-124326255D01*
X173618924Y-124178682D01*
X172356805Y-125440800D01*
X171997595Y-125440800D01*
X170735476Y-124178682D01*
X170427094Y-124326255D01*
X170133795Y-125080831D01*
X169087800Y-125080831D01*
X169087800Y-123999076D01*
X170915082Y-123999076D01*
X172177200Y-125261195D01*
X173439318Y-123999076D01*
X174915082Y-123999076D01*
X176177200Y-125261195D01*
X177439318Y-123999076D01*
X177291745Y-123690694D01*
X176537169Y-123397395D01*
X175727791Y-123415186D01*
X175062655Y-123690694D01*
X174915082Y-123999076D01*
X173439318Y-123999076D01*
X173291745Y-123690694D01*
X172537169Y-123397395D01*
X171727791Y-123415186D01*
X171062655Y-123690694D01*
X170915082Y-123999076D01*
X169087800Y-123999076D01*
X169087800Y-119399324D01*
X170760682Y-119399324D01*
X170908255Y-119707706D01*
X171662831Y-120001005D01*
X172472209Y-119983214D01*
X173137345Y-119707706D01*
X173284918Y-119399324D01*
X174560682Y-119399324D01*
X174708255Y-119707706D01*
X175462831Y-120001005D01*
X176272209Y-119983214D01*
X176937345Y-119707706D01*
X177084918Y-119399324D01*
X175822800Y-118137205D01*
X174560682Y-119399324D01*
X173284918Y-119399324D01*
X172022800Y-118137205D01*
X170760682Y-119399324D01*
X169087800Y-119399324D01*
X169087800Y-117597631D01*
X169979395Y-117597631D01*
X169997186Y-118407009D01*
X170272694Y-119072145D01*
X170581076Y-119219718D01*
X171843195Y-117957600D01*
X172202405Y-117957600D01*
X173464524Y-119219718D01*
X173772906Y-119072145D01*
X173918036Y-118698767D01*
X174072694Y-119072145D01*
X174381076Y-119219718D01*
X175643195Y-117957600D01*
X176002405Y-117957600D01*
X177264524Y-119219718D01*
X177572906Y-119072145D01*
X177866205Y-118317569D01*
X177848414Y-117508191D01*
X177572906Y-116843055D01*
X177264524Y-116695482D01*
X176002405Y-117957600D01*
X175643195Y-117957600D01*
X174381076Y-116695482D01*
X174072694Y-116843055D01*
X173927564Y-117216433D01*
X173772906Y-116843055D01*
X173464524Y-116695482D01*
X172202405Y-117957600D01*
X171843195Y-117957600D01*
X170581076Y-116695482D01*
X170272694Y-116843055D01*
X169979395Y-117597631D01*
X169087800Y-117597631D01*
X169087800Y-116515876D01*
X170760682Y-116515876D01*
X172022800Y-117777995D01*
X173284918Y-116515876D01*
X174560682Y-116515876D01*
X175822800Y-117777995D01*
X177084918Y-116515876D01*
X176937345Y-116207494D01*
X176182769Y-115914195D01*
X175373391Y-115931986D01*
X174708255Y-116207494D01*
X174560682Y-116515876D01*
X173284918Y-116515876D01*
X173137345Y-116207494D01*
X172382769Y-115914195D01*
X171573391Y-115931986D01*
X170908255Y-116207494D01*
X170760682Y-116515876D01*
X169087800Y-116515876D01*
X169087800Y-106899324D01*
X170760682Y-106899324D01*
X170908255Y-107207706D01*
X171662831Y-107501005D01*
X172472209Y-107483214D01*
X173137345Y-107207706D01*
X173284918Y-106899324D01*
X174560682Y-106899324D01*
X174708255Y-107207706D01*
X175462831Y-107501005D01*
X176272209Y-107483214D01*
X176937345Y-107207706D01*
X177084918Y-106899324D01*
X175822800Y-105637205D01*
X174560682Y-106899324D01*
X173284918Y-106899324D01*
X172022800Y-105637205D01*
X170760682Y-106899324D01*
X169087800Y-106899324D01*
X169087800Y-105097631D01*
X169979395Y-105097631D01*
X169997186Y-105907009D01*
X170272694Y-106572145D01*
X170581076Y-106719718D01*
X171843195Y-105457600D01*
X172202405Y-105457600D01*
X173464524Y-106719718D01*
X173772906Y-106572145D01*
X173918036Y-106198767D01*
X174072694Y-106572145D01*
X174381076Y-106719718D01*
X175643195Y-105457600D01*
X176002405Y-105457600D01*
X177264524Y-106719718D01*
X177572906Y-106572145D01*
X177866205Y-105817569D01*
X177848414Y-105008191D01*
X177572906Y-104343055D01*
X177264524Y-104195482D01*
X176002405Y-105457600D01*
X175643195Y-105457600D01*
X174381076Y-104195482D01*
X174072694Y-104343055D01*
X173927564Y-104716433D01*
X173772906Y-104343055D01*
X173464524Y-104195482D01*
X172202405Y-105457600D01*
X171843195Y-105457600D01*
X170581076Y-104195482D01*
X170272694Y-104343055D01*
X169979395Y-105097631D01*
X169087800Y-105097631D01*
X169087800Y-104015876D01*
X170760682Y-104015876D01*
X172022800Y-105277995D01*
X173284918Y-104015876D01*
X174560682Y-104015876D01*
X175822800Y-105277995D01*
X177084918Y-104015876D01*
X176937345Y-103707494D01*
X176182769Y-103414195D01*
X175373391Y-103431986D01*
X174708255Y-103707494D01*
X174560682Y-104015876D01*
X173284918Y-104015876D01*
X173137345Y-103707494D01*
X172382769Y-103414195D01*
X171573391Y-103431986D01*
X170908255Y-103707494D01*
X170760682Y-104015876D01*
X169087800Y-104015876D01*
X169087800Y-102946200D01*
X178841400Y-102946200D01*
X178841400Y-139725400D01*
X178841400Y-139725400D01*
G37*
X178841400Y-139725400D02*
X169087800Y-139725400D01*
X169087800Y-138562524D01*
X170915082Y-138562524D01*
X171062655Y-138870906D01*
X171817231Y-139164205D01*
X172626609Y-139146414D01*
X173291745Y-138870906D01*
X173439318Y-138562524D01*
X174915082Y-138562524D01*
X175062655Y-138870906D01*
X175817231Y-139164205D01*
X176626609Y-139146414D01*
X177291745Y-138870906D01*
X177439318Y-138562524D01*
X176177200Y-137300405D01*
X174915082Y-138562524D01*
X173439318Y-138562524D01*
X172177200Y-137300405D01*
X170915082Y-138562524D01*
X169087800Y-138562524D01*
X169087800Y-136760831D01*
X170133795Y-136760831D01*
X170151586Y-137570209D01*
X170427094Y-138235345D01*
X170735476Y-138382918D01*
X171997595Y-137120800D01*
X172356805Y-137120800D01*
X173618924Y-138382918D01*
X173927306Y-138235345D01*
X174169257Y-137612872D01*
X174427094Y-138235345D01*
X174735476Y-138382918D01*
X175997595Y-137120800D01*
X176356805Y-137120800D01*
X177618924Y-138382918D01*
X177927306Y-138235345D01*
X178220605Y-137480769D01*
X178202814Y-136671391D01*
X177927306Y-136006255D01*
X177618924Y-135858682D01*
X176356805Y-137120800D01*
X175997595Y-137120800D01*
X174735476Y-135858682D01*
X174427094Y-136006255D01*
X174185143Y-136628728D01*
X173927306Y-136006255D01*
X173618924Y-135858682D01*
X172356805Y-137120800D01*
X171997595Y-137120800D01*
X170735476Y-135858682D01*
X170427094Y-136006255D01*
X170133795Y-136760831D01*
X169087800Y-136760831D01*
X169087800Y-135679076D01*
X170915082Y-135679076D01*
X172177200Y-136941195D01*
X173439318Y-135679076D01*
X174915082Y-135679076D01*
X176177200Y-136941195D01*
X177439318Y-135679076D01*
X177291745Y-135370694D01*
X176537169Y-135077395D01*
X175727791Y-135095186D01*
X175062655Y-135370694D01*
X174915082Y-135679076D01*
X173439318Y-135679076D01*
X173291745Y-135370694D01*
X172537169Y-135077395D01*
X171727791Y-135095186D01*
X171062655Y-135370694D01*
X170915082Y-135679076D01*
X169087800Y-135679076D01*
X169087800Y-126882524D01*
X170915082Y-126882524D01*
X171062655Y-127190906D01*
X171817231Y-127484205D01*
X172626609Y-127466414D01*
X173291745Y-127190906D01*
X173439318Y-126882524D01*
X174915082Y-126882524D01*
X175062655Y-127190906D01*
X175817231Y-127484205D01*
X176626609Y-127466414D01*
X177291745Y-127190906D01*
X177439318Y-126882524D01*
X176177200Y-125620405D01*
X174915082Y-126882524D01*
X173439318Y-126882524D01*
X172177200Y-125620405D01*
X170915082Y-126882524D01*
X169087800Y-126882524D01*
X169087800Y-125080831D01*
X170133795Y-125080831D01*
X170151586Y-125890209D01*
X170427094Y-126555345D01*
X170735476Y-126702918D01*
X171997595Y-125440800D01*
X172356805Y-125440800D01*
X173618924Y-126702918D01*
X173927306Y-126555345D01*
X174169257Y-125932872D01*
X174427094Y-126555345D01*
X174735476Y-126702918D01*
X175997595Y-125440800D01*
X176356805Y-125440800D01*
X177618924Y-126702918D01*
X177927306Y-126555345D01*
X178220605Y-125800769D01*
X178202814Y-124991391D01*
X177927306Y-124326255D01*
X177618924Y-124178682D01*
X176356805Y-125440800D01*
X175997595Y-125440800D01*
X174735476Y-124178682D01*
X174427094Y-124326255D01*
X174185143Y-124948728D01*
X173927306Y-124326255D01*
X173618924Y-124178682D01*
X172356805Y-125440800D01*
X171997595Y-125440800D01*
X170735476Y-124178682D01*
X170427094Y-124326255D01*
X170133795Y-125080831D01*
X169087800Y-125080831D01*
X169087800Y-123999076D01*
X170915082Y-123999076D01*
X172177200Y-125261195D01*
X173439318Y-123999076D01*
X174915082Y-123999076D01*
X176177200Y-125261195D01*
X177439318Y-123999076D01*
X177291745Y-123690694D01*
X176537169Y-123397395D01*
X175727791Y-123415186D01*
X175062655Y-123690694D01*
X174915082Y-123999076D01*
X173439318Y-123999076D01*
X173291745Y-123690694D01*
X172537169Y-123397395D01*
X171727791Y-123415186D01*
X171062655Y-123690694D01*
X170915082Y-123999076D01*
X169087800Y-123999076D01*
X169087800Y-119399324D01*
X170760682Y-119399324D01*
X170908255Y-119707706D01*
X171662831Y-120001005D01*
X172472209Y-119983214D01*
X173137345Y-119707706D01*
X173284918Y-119399324D01*
X174560682Y-119399324D01*
X174708255Y-119707706D01*
X175462831Y-120001005D01*
X176272209Y-119983214D01*
X176937345Y-119707706D01*
X177084918Y-119399324D01*
X175822800Y-118137205D01*
X174560682Y-119399324D01*
X173284918Y-119399324D01*
X172022800Y-118137205D01*
X170760682Y-119399324D01*
X169087800Y-119399324D01*
X169087800Y-117597631D01*
X169979395Y-117597631D01*
X169997186Y-118407009D01*
X170272694Y-119072145D01*
X170581076Y-119219718D01*
X171843195Y-117957600D01*
X172202405Y-117957600D01*
X173464524Y-119219718D01*
X173772906Y-119072145D01*
X173918036Y-118698767D01*
X174072694Y-119072145D01*
X174381076Y-119219718D01*
X175643195Y-117957600D01*
X176002405Y-117957600D01*
X177264524Y-119219718D01*
X177572906Y-119072145D01*
X177866205Y-118317569D01*
X177848414Y-117508191D01*
X177572906Y-116843055D01*
X177264524Y-116695482D01*
X176002405Y-117957600D01*
X175643195Y-117957600D01*
X174381076Y-116695482D01*
X174072694Y-116843055D01*
X173927564Y-117216433D01*
X173772906Y-116843055D01*
X173464524Y-116695482D01*
X172202405Y-117957600D01*
X171843195Y-117957600D01*
X170581076Y-116695482D01*
X170272694Y-116843055D01*
X169979395Y-117597631D01*
X169087800Y-117597631D01*
X169087800Y-116515876D01*
X170760682Y-116515876D01*
X172022800Y-117777995D01*
X173284918Y-116515876D01*
X174560682Y-116515876D01*
X175822800Y-117777995D01*
X177084918Y-116515876D01*
X176937345Y-116207494D01*
X176182769Y-115914195D01*
X175373391Y-115931986D01*
X174708255Y-116207494D01*
X174560682Y-116515876D01*
X173284918Y-116515876D01*
X173137345Y-116207494D01*
X172382769Y-115914195D01*
X171573391Y-115931986D01*
X170908255Y-116207494D01*
X170760682Y-116515876D01*
X169087800Y-116515876D01*
X169087800Y-106899324D01*
X170760682Y-106899324D01*
X170908255Y-107207706D01*
X171662831Y-107501005D01*
X172472209Y-107483214D01*
X173137345Y-107207706D01*
X173284918Y-106899324D01*
X174560682Y-106899324D01*
X174708255Y-107207706D01*
X175462831Y-107501005D01*
X176272209Y-107483214D01*
X176937345Y-107207706D01*
X177084918Y-106899324D01*
X175822800Y-105637205D01*
X174560682Y-106899324D01*
X173284918Y-106899324D01*
X172022800Y-105637205D01*
X170760682Y-106899324D01*
X169087800Y-106899324D01*
X169087800Y-105097631D01*
X169979395Y-105097631D01*
X169997186Y-105907009D01*
X170272694Y-106572145D01*
X170581076Y-106719718D01*
X171843195Y-105457600D01*
X172202405Y-105457600D01*
X173464524Y-106719718D01*
X173772906Y-106572145D01*
X173918036Y-106198767D01*
X174072694Y-106572145D01*
X174381076Y-106719718D01*
X175643195Y-105457600D01*
X176002405Y-105457600D01*
X177264524Y-106719718D01*
X177572906Y-106572145D01*
X177866205Y-105817569D01*
X177848414Y-105008191D01*
X177572906Y-104343055D01*
X177264524Y-104195482D01*
X176002405Y-105457600D01*
X175643195Y-105457600D01*
X174381076Y-104195482D01*
X174072694Y-104343055D01*
X173927564Y-104716433D01*
X173772906Y-104343055D01*
X173464524Y-104195482D01*
X172202405Y-105457600D01*
X171843195Y-105457600D01*
X170581076Y-104195482D01*
X170272694Y-104343055D01*
X169979395Y-105097631D01*
X169087800Y-105097631D01*
X169087800Y-104015876D01*
X170760682Y-104015876D01*
X172022800Y-105277995D01*
X173284918Y-104015876D01*
X174560682Y-104015876D01*
X175822800Y-105277995D01*
X177084918Y-104015876D01*
X176937345Y-103707494D01*
X176182769Y-103414195D01*
X175373391Y-103431986D01*
X174708255Y-103707494D01*
X174560682Y-104015876D01*
X173284918Y-104015876D01*
X173137345Y-103707494D01*
X172382769Y-103414195D01*
X171573391Y-103431986D01*
X170908255Y-103707494D01*
X170760682Y-104015876D01*
X169087800Y-104015876D01*
X169087800Y-102946200D01*
X178841400Y-102946200D01*
X178841400Y-139725400D01*
M02*
