<?xml version="1.0" standalone="no"?>
 <!DOCTYPE svg PUBLIC "-//W3C//DTD SVG 1.1//EN" 
 "http://www.w3.org/Graphics/SVG/1.1/DTD/svg11.dtd"> 
<svg xmlns="http://www.w3.org/2000/svg" version="1.1" 
    width="29.7002cm" height="21.0007cm" viewBox="0 0 116930 82680 ">
<title>SVG Picture created as BLDC_4-B.SilkS.svg date 2017/01/13 01:35:34 </title>
  <desc>Picture generated by PCBNEW </desc>
<g style="fill:#000000; fill-opacity:1;stroke:#000000; stroke-opacity:1;
stroke-linecap:round; stroke-linejoin:round; "
 transform="translate(0 0) scale(1 1)">
</g>
<g style="fill:#000000; fill-opacity:0.0; 
stroke:#000000; stroke-width:-0.000393701; stroke-opacity:1; 
stroke-linecap:round; stroke-linejoin:round;">
</g>
<g style="fill:#000000; fill-opacity:0.0; 
stroke:#000000; stroke-width:39.3701; stroke-opacity:1; 
stroke-linecap:round; stroke-linejoin:round;">
</g>
<g style="fill:#000000; fill-opacity:0.0; 
stroke:#000000; stroke-width:59.0551; stroke-opacity:1; 
stroke-linecap:round; stroke-linejoin:round;">
<rect x="69685.9" y="65357.2" width="42519.7" height="12598.4" rx="0" />
</g>
<g style="fill:#000000; fill-opacity:0.0; 
stroke:#000000; stroke-width:39.3701; stroke-opacity:1; 
stroke-linecap:round; stroke-linejoin:round;">
</g>
<g style="fill:#000000; fill-opacity:0.0; 
stroke:#000000; stroke-width:59.0551; stroke-opacity:1; 
stroke-linecap:round; stroke-linejoin:round;">
<rect x="3937.01" y="3937.01" width="109056" height="74806" rx="0" />
</g>
<g style="fill:#000000; fill-opacity:0.0; 
stroke:#000000; stroke-width:39.3701; stroke-opacity:1; 
stroke-linecap:round; stroke-linejoin:round;">
</g>
<g style="fill:#000000; fill-opacity:0.0; 
stroke:#000000; stroke-width:59.0551; stroke-opacity:1; 
stroke-linecap:round; stroke-linejoin:round;">
<rect x="4724.41" y="4724.41" width="107481" height="73231.2" rx="0" />
</g>
<g style="fill:#000000; fill-opacity:0.0; 
stroke:#000000; stroke-width:39.3701; stroke-opacity:1; 
stroke-linecap:round; stroke-linejoin:round;">
</g>
<g style="fill:#000000; fill-opacity:0.0; 
stroke:#000000; stroke-width:59.0551; stroke-opacity:1; 
stroke-linecap:round; stroke-linejoin:round;">
<path d="M23622 4724
L23622 3937
" />
</g>
<g style="fill:#000000; fill-opacity:0.0; 
stroke:#000000; stroke-width:39.3701; stroke-opacity:1; 
stroke-linecap:round; stroke-linejoin:round;">
</g>
<g style="fill:#000000; fill-opacity:0.0; 
stroke:#000000; stroke-width:59.0551; stroke-opacity:1; 
stroke-linecap:round; stroke-linejoin:round;">
<path d="M43307 4724
L43307 3937
" />
</g>
<g style="fill:#000000; fill-opacity:0.0; 
stroke:#000000; stroke-width:39.3701; stroke-opacity:1; 
stroke-linecap:round; stroke-linejoin:round;">
</g>
<g style="fill:#000000; fill-opacity:0.0; 
stroke:#000000; stroke-width:59.0551; stroke-opacity:1; 
stroke-linecap:round; stroke-linejoin:round;">
<path d="M62992 4724
L62992 3937
" />
</g>
<g style="fill:#000000; fill-opacity:0.0; 
stroke:#000000; stroke-width:39.3701; stroke-opacity:1; 
stroke-linecap:round; stroke-linejoin:round;">
</g>
<g style="fill:#000000; fill-opacity:0.0; 
stroke:#000000; stroke-width:59.0551; stroke-opacity:1; 
stroke-linecap:round; stroke-linejoin:round;">
<path d="M82677 4724
L82677 3937
" />
</g>
<g style="fill:#000000; fill-opacity:0.0; 
stroke:#000000; stroke-width:39.3701; stroke-opacity:1; 
stroke-linecap:round; stroke-linejoin:round;">
</g>
<g style="fill:#000000; fill-opacity:0.0; 
stroke:#000000; stroke-width:59.0551; stroke-opacity:1; 
stroke-linecap:round; stroke-linejoin:round;">
<path d="M102362 4724
L102362 3937
" />
</g>
<g style="fill:#000000; fill-opacity:0.0; 
stroke:#000000; stroke-width:39.3701; stroke-opacity:1; 
stroke-linecap:round; stroke-linejoin:round;">
</g>
<g style="fill:#000000; fill-opacity:0.0; 
stroke:#000000; stroke-width:59.0551; stroke-opacity:1; 
stroke-linecap:round; stroke-linejoin:round;">
<path d="M14169 4562
L13877 4562
" />
<path d="M14023 4562
L14023 4050
L13974 4123
L13925 4172
L13877 4196
" />
</g>
<g style="fill:#000000; fill-opacity:0.0; 
stroke:#000000; stroke-width:39.3701; stroke-opacity:1; 
stroke-linecap:round; stroke-linejoin:round;">
</g>
<g style="fill:#000000; fill-opacity:0.0; 
stroke:#000000; stroke-width:59.0551; stroke-opacity:1; 
stroke-linecap:round; stroke-linejoin:round;">
<path d="M33562 4099
L33586 4074
L33635 4050
L33757 4050
L33805 4074
L33830 4099
L33854 4147
L33854 4196
L33830 4269
L33537 4562
L33854 4562
" />
</g>
<g style="fill:#000000; fill-opacity:0.0; 
stroke:#000000; stroke-width:39.3701; stroke-opacity:1; 
stroke-linecap:round; stroke-linejoin:round;">
</g>
<g style="fill:#000000; fill-opacity:0.0; 
stroke:#000000; stroke-width:59.0551; stroke-opacity:1; 
stroke-linecap:round; stroke-linejoin:round;">
<path d="M53222 4050
L53539 4050
L53368 4245
L53442 4245
L53490 4269
L53515 4294
L53539 4342
L53539 4464
L53515 4513
L53490 4537
L53442 4562
L53295 4562
L53247 4537
L53222 4513
" />
</g>
<g style="fill:#000000; fill-opacity:0.0; 
stroke:#000000; stroke-width:39.3701; stroke-opacity:1; 
stroke-linecap:round; stroke-linejoin:round;">
</g>
<g style="fill:#000000; fill-opacity:0.0; 
stroke:#000000; stroke-width:59.0551; stroke-opacity:1; 
stroke-linecap:round; stroke-linejoin:round;">
<path d="M73175 4221
L73175 4562
" />
<path d="M73053 4026
L72932 4391
L73248 4391
" />
</g>
<g style="fill:#000000; fill-opacity:0.0; 
stroke:#000000; stroke-width:39.3701; stroke-opacity:1; 
stroke-linecap:round; stroke-linejoin:round;">
</g>
<g style="fill:#000000; fill-opacity:0.0; 
stroke:#000000; stroke-width:59.0551; stroke-opacity:1; 
stroke-linecap:round; stroke-linejoin:round;">
<path d="M92885 4050
L92641 4050
L92617 4294
L92641 4269
L92690 4245
L92812 4245
L92860 4269
L92885 4294
L92909 4342
L92909 4464
L92885 4513
L92860 4537
L92812 4562
L92690 4562
L92641 4537
L92617 4513
" />
</g>
<g style="fill:#000000; fill-opacity:0.0; 
stroke:#000000; stroke-width:39.3701; stroke-opacity:1; 
stroke-linecap:round; stroke-linejoin:round;">
</g>
<g style="fill:#000000; fill-opacity:0.0; 
stroke:#000000; stroke-width:59.0551; stroke-opacity:1; 
stroke-linecap:round; stroke-linejoin:round;">
<path d="M112545 4050
L112448 4050
L112399 4074
L112375 4099
L112326 4172
L112302 4269
L112302 4464
L112326 4513
L112350 4537
L112399 4562
L112497 4562
L112545 4537
L112570 4513
L112594 4464
L112594 4342
L112570 4294
L112545 4269
L112497 4245
L112399 4245
L112350 4269
L112326 4294
L112302 4342
" />
</g>
<g style="fill:#000000; fill-opacity:0.0; 
stroke:#000000; stroke-width:39.3701; stroke-opacity:1; 
stroke-linecap:round; stroke-linejoin:round;">
</g>
<g style="fill:#000000; fill-opacity:0.0; 
stroke:#000000; stroke-width:59.0551; stroke-opacity:1; 
stroke-linecap:round; stroke-linejoin:round;">
<path d="M23622 77955
L23622 78742
" />
</g>
<g style="fill:#000000; fill-opacity:0.0; 
stroke:#000000; stroke-width:39.3701; stroke-opacity:1; 
stroke-linecap:round; stroke-linejoin:round;">
</g>
<g style="fill:#000000; fill-opacity:0.0; 
stroke:#000000; stroke-width:59.0551; stroke-opacity:1; 
stroke-linecap:round; stroke-linejoin:round;">
<path d="M43307 77955
L43307 78742
" />
</g>
<g style="fill:#000000; fill-opacity:0.0; 
stroke:#000000; stroke-width:39.3701; stroke-opacity:1; 
stroke-linecap:round; stroke-linejoin:round;">
</g>
<g style="fill:#000000; fill-opacity:0.0; 
stroke:#000000; stroke-width:59.0551; stroke-opacity:1; 
stroke-linecap:round; stroke-linejoin:round;">
<path d="M62992 77955
L62992 78742
" />
</g>
<g style="fill:#000000; fill-opacity:0.0; 
stroke:#000000; stroke-width:39.3701; stroke-opacity:1; 
stroke-linecap:round; stroke-linejoin:round;">
</g>
<g style="fill:#000000; fill-opacity:0.0; 
stroke:#000000; stroke-width:59.0551; stroke-opacity:1; 
stroke-linecap:round; stroke-linejoin:round;">
<path d="M82677 77955
L82677 78742
" />
</g>
<g style="fill:#000000; fill-opacity:0.0; 
stroke:#000000; stroke-width:39.3701; stroke-opacity:1; 
stroke-linecap:round; stroke-linejoin:round;">
</g>
<g style="fill:#000000; fill-opacity:0.0; 
stroke:#000000; stroke-width:59.0551; stroke-opacity:1; 
stroke-linecap:round; stroke-linejoin:round;">
<path d="M102362 77955
L102362 78742
" />
</g>
<g style="fill:#000000; fill-opacity:0.0; 
stroke:#000000; stroke-width:39.3701; stroke-opacity:1; 
stroke-linecap:round; stroke-linejoin:round;">
</g>
<g style="fill:#000000; fill-opacity:0.0; 
stroke:#000000; stroke-width:59.0551; stroke-opacity:1; 
stroke-linecap:round; stroke-linejoin:round;">
<path d="M14169 78580
L13877 78580
" />
<path d="M14023 78580
L14023 78069
L13974 78142
L13925 78190
L13877 78215
" />
</g>
<g style="fill:#000000; fill-opacity:0.0; 
stroke:#000000; stroke-width:39.3701; stroke-opacity:1; 
stroke-linecap:round; stroke-linejoin:round;">
</g>
<g style="fill:#000000; fill-opacity:0.0; 
stroke:#000000; stroke-width:59.0551; stroke-opacity:1; 
stroke-linecap:round; stroke-linejoin:round;">
<path d="M33562 78117
L33586 78093
L33635 78069
L33757 78069
L33805 78093
L33830 78117
L33854 78166
L33854 78215
L33830 78288
L33537 78580
L33854 78580
" />
</g>
<g style="fill:#000000; fill-opacity:0.0; 
stroke:#000000; stroke-width:39.3701; stroke-opacity:1; 
stroke-linecap:round; stroke-linejoin:round;">
</g>
<g style="fill:#000000; fill-opacity:0.0; 
stroke:#000000; stroke-width:59.0551; stroke-opacity:1; 
stroke-linecap:round; stroke-linejoin:round;">
<path d="M53222 78069
L53539 78069
L53368 78263
L53442 78263
L53490 78288
L53515 78312
L53539 78361
L53539 78483
L53515 78532
L53490 78556
L53442 78580
L53295 78580
L53247 78556
L53222 78532
" />
</g>
<g style="fill:#000000; fill-opacity:0.0; 
stroke:#000000; stroke-width:39.3701; stroke-opacity:1; 
stroke-linecap:round; stroke-linejoin:round;">
</g>
<g style="fill:#000000; fill-opacity:0.0; 
stroke:#000000; stroke-width:59.0551; stroke-opacity:1; 
stroke-linecap:round; stroke-linejoin:round;">
<path d="M73175 78239
L73175 78580
" />
<path d="M73053 78044
L72932 78410
L73248 78410
" />
</g>
<g style="fill:#000000; fill-opacity:0.0; 
stroke:#000000; stroke-width:39.3701; stroke-opacity:1; 
stroke-linecap:round; stroke-linejoin:round;">
</g>
<g style="fill:#000000; fill-opacity:0.0; 
stroke:#000000; stroke-width:59.0551; stroke-opacity:1; 
stroke-linecap:round; stroke-linejoin:round;">
<path d="M92885 78069
L92641 78069
L92617 78312
L92641 78288
L92690 78263
L92812 78263
L92860 78288
L92885 78312
L92909 78361
L92909 78483
L92885 78532
L92860 78556
L92812 78580
L92690 78580
L92641 78556
L92617 78532
" />
</g>
<g style="fill:#000000; fill-opacity:0.0; 
stroke:#000000; stroke-width:39.3701; stroke-opacity:1; 
stroke-linecap:round; stroke-linejoin:round;">
</g>
<g style="fill:#000000; fill-opacity:0.0; 
stroke:#000000; stroke-width:59.0551; stroke-opacity:1; 
stroke-linecap:round; stroke-linejoin:round;">
<path d="M112545 78069
L112448 78069
L112399 78093
L112375 78117
L112326 78190
L112302 78288
L112302 78483
L112326 78532
L112350 78556
L112399 78580
L112497 78580
L112545 78556
L112570 78532
L112594 78483
L112594 78361
L112570 78312
L112545 78288
L112497 78263
L112399 78263
L112350 78288
L112326 78312
L112302 78361
" />
</g>
<g style="fill:#000000; fill-opacity:0.0; 
stroke:#000000; stroke-width:39.3701; stroke-opacity:1; 
stroke-linecap:round; stroke-linejoin:round;">
</g>
<g style="fill:#000000; fill-opacity:0.0; 
stroke:#000000; stroke-width:59.0551; stroke-opacity:1; 
stroke-linecap:round; stroke-linejoin:round;">
<path d="M3937 23622
L4724 23622
" />
</g>
<g style="fill:#000000; fill-opacity:0.0; 
stroke:#000000; stroke-width:39.3701; stroke-opacity:1; 
stroke-linecap:round; stroke-linejoin:round;">
</g>
<g style="fill:#000000; fill-opacity:0.0; 
stroke:#000000; stroke-width:59.0551; stroke-opacity:1; 
stroke-linecap:round; stroke-linejoin:round;">
<path d="M3937 43307
L4724 43307
" />
</g>
<g style="fill:#000000; fill-opacity:0.0; 
stroke:#000000; stroke-width:39.3701; stroke-opacity:1; 
stroke-linecap:round; stroke-linejoin:round;">
</g>
<g style="fill:#000000; fill-opacity:0.0; 
stroke:#000000; stroke-width:59.0551; stroke-opacity:1; 
stroke-linecap:round; stroke-linejoin:round;">
<path d="M3937 62992
L4724 62992
" />
</g>
<g style="fill:#000000; fill-opacity:0.0; 
stroke:#000000; stroke-width:39.3701; stroke-opacity:1; 
stroke-linecap:round; stroke-linejoin:round;">
</g>
<g style="fill:#000000; fill-opacity:0.0; 
stroke:#000000; stroke-width:59.0551; stroke-opacity:1; 
stroke-linecap:round; stroke-linejoin:round;">
<path d="M4208 13864
L4452 13864
" />
<path d="M4160 14011
L4330 13499
L4501 14011
" />
</g>
<g style="fill:#000000; fill-opacity:0.0; 
stroke:#000000; stroke-width:39.3701; stroke-opacity:1; 
stroke-linecap:round; stroke-linejoin:round;">
</g>
<g style="fill:#000000; fill-opacity:0.0; 
stroke:#000000; stroke-width:59.0551; stroke-opacity:1; 
stroke-linecap:round; stroke-linejoin:round;">
<path d="M4367 33428
L4440 33452
L4464 33476
L4489 33525
L4489 33598
L4464 33647
L4440 33671
L4391 33696
L4196 33696
L4196 33184
L4367 33184
L4416 33208
L4440 33233
L4464 33281
L4464 33330
L4440 33379
L4416 33403
L4367 33428
L4196 33428
" />
</g>
<g style="fill:#000000; fill-opacity:0.0; 
stroke:#000000; stroke-width:39.3701; stroke-opacity:1; 
stroke-linecap:round; stroke-linejoin:round;">
</g>
<g style="fill:#000000; fill-opacity:0.0; 
stroke:#000000; stroke-width:59.0551; stroke-opacity:1; 
stroke-linecap:round; stroke-linejoin:round;">
<path d="M4489 53332
L4464 53356
L4391 53381
L4342 53381
L4269 53356
L4221 53308
L4196 53259
L4172 53161
L4172 53088
L4196 52991
L4221 52942
L4269 52893
L4342 52869
L4391 52869
L4464 52893
L4489 52918
" />
</g>
<g style="fill:#000000; fill-opacity:0.0; 
stroke:#000000; stroke-width:39.3701; stroke-opacity:1; 
stroke-linecap:round; stroke-linejoin:round;">
</g>
<g style="fill:#000000; fill-opacity:0.0; 
stroke:#000000; stroke-width:59.0551; stroke-opacity:1; 
stroke-linecap:round; stroke-linejoin:round;">
<path d="M4196 73066
L4196 72554
L4318 72554
L4391 72578
L4440 72627
L4464 72676
L4489 72773
L4489 72846
L4464 72944
L4440 72993
L4391 73041
L4318 73066
L4196 73066
" />
</g>
<g style="fill:#000000; fill-opacity:0.0; 
stroke:#000000; stroke-width:39.3701; stroke-opacity:1; 
stroke-linecap:round; stroke-linejoin:round;">
</g>
<g style="fill:#000000; fill-opacity:0.0; 
stroke:#000000; stroke-width:59.0551; stroke-opacity:1; 
stroke-linecap:round; stroke-linejoin:round;">
<path d="M112992 23622
L112205 23622
" />
</g>
<g style="fill:#000000; fill-opacity:0.0; 
stroke:#000000; stroke-width:39.3701; stroke-opacity:1; 
stroke-linecap:round; stroke-linejoin:round;">
</g>
<g style="fill:#000000; fill-opacity:0.0; 
stroke:#000000; stroke-width:59.0551; stroke-opacity:1; 
stroke-linecap:round; stroke-linejoin:round;">
<path d="M112992 43307
L112205 43307
" />
</g>
<g style="fill:#000000; fill-opacity:0.0; 
stroke:#000000; stroke-width:39.3701; stroke-opacity:1; 
stroke-linecap:round; stroke-linejoin:round;">
</g>
<g style="fill:#000000; fill-opacity:0.0; 
stroke:#000000; stroke-width:59.0551; stroke-opacity:1; 
stroke-linecap:round; stroke-linejoin:round;">
<path d="M112992 62992
L112205 62992
" />
</g>
<g style="fill:#000000; fill-opacity:0.0; 
stroke:#000000; stroke-width:39.3701; stroke-opacity:1; 
stroke-linecap:round; stroke-linejoin:round;">
</g>
<g style="fill:#000000; fill-opacity:0.0; 
stroke:#000000; stroke-width:59.0551; stroke-opacity:1; 
stroke-linecap:round; stroke-linejoin:round;">
<path d="M112477 13864
L112721 13864
" />
<path d="M112428 14011
L112599 13499
L112769 14011
" />
</g>
<g style="fill:#000000; fill-opacity:0.0; 
stroke:#000000; stroke-width:39.3701; stroke-opacity:1; 
stroke-linecap:round; stroke-linejoin:round;">
</g>
<g style="fill:#000000; fill-opacity:0.0; 
stroke:#000000; stroke-width:59.0551; stroke-opacity:1; 
stroke-linecap:round; stroke-linejoin:round;">
<path d="M112635 33428
L112708 33452
L112733 33476
L112757 33525
L112757 33598
L112733 33647
L112708 33671
L112660 33696
L112465 33696
L112465 33184
L112635 33184
L112684 33208
L112708 33233
L112733 33281
L112733 33330
L112708 33379
L112684 33403
L112635 33428
L112465 33428
" />
</g>
<g style="fill:#000000; fill-opacity:0.0; 
stroke:#000000; stroke-width:39.3701; stroke-opacity:1; 
stroke-linecap:round; stroke-linejoin:round;">
</g>
<g style="fill:#000000; fill-opacity:0.0; 
stroke:#000000; stroke-width:59.0551; stroke-opacity:1; 
stroke-linecap:round; stroke-linejoin:round;">
<path d="M112757 53332
L112733 53356
L112660 53381
L112611 53381
L112538 53356
L112489 53308
L112465 53259
L112440 53161
L112440 53088
L112465 52991
L112489 52942
L112538 52893
L112611 52869
L112660 52869
L112733 52893
L112757 52918
" />
</g>
<g style="fill:#000000; fill-opacity:0.0; 
stroke:#000000; stroke-width:39.3701; stroke-opacity:1; 
stroke-linecap:round; stroke-linejoin:round;">
</g>
<g style="fill:#000000; fill-opacity:0.0; 
stroke:#000000; stroke-width:59.0551; stroke-opacity:1; 
stroke-linecap:round; stroke-linejoin:round;">
<path d="M112465 73066
L112465 72554
L112587 72554
L112660 72578
L112708 72627
L112733 72676
L112757 72773
L112757 72846
L112733 72944
L112708 72993
L112660 73041
L112587 73066
L112465 73066
" />
</g>
<g style="fill:#000000; fill-opacity:0.0; 
stroke:#000000; stroke-width:39.3701; stroke-opacity:1; 
stroke-linecap:round; stroke-linejoin:round;">
</g>
<g style="fill:#000000; fill-opacity:0.0; 
stroke:#000000; stroke-width:59.0551; stroke-opacity:1; 
stroke-linecap:round; stroke-linejoin:round;">
<path d="M78881 76293
L78881 75703
L79022 75703
L79106 75731
L79162 75787
L79190 75843
L79219 75956
L79219 76040
L79190 76153
L79162 76209
L79106 76265
L79022 76293
L78881 76293
" />
<path d="M79725 76293
L79725 75984
L79697 75928
L79640 75899
L79528 75899
L79472 75928
" />
<path d="M79725 76265
L79669 76293
L79528 76293
L79472 76265
L79444 76209
L79444 76153
L79472 76096
L79528 76068
L79669 76068
L79725 76040
" />
<path d="M79922 75899
L80147 75899
" />
<path d="M80006 75703
L80006 76209
L80034 76265
L80090 76293
L80147 76293
" />
<path d="M80568 76265
L80512 76293
L80400 76293
L80343 76265
L80315 76209
L80315 75984
L80343 75928
L80400 75899
L80512 75899
L80568 75928
L80597 75984
L80597 76040
L80315 76096
" />
<path d="M80850 76237
L80878 76265
L80850 76293
L80822 76265
L80850 76237
L80850 76293
" />
<path d="M80850 75928
L80878 75956
L80850 75984
L80822 75956
L80850 75928
L80850 75984
" />
<path d="M81525 75703
L81890 75703
L81693 75928
L81778 75928
L81834 75956
L81862 75984
L81890 76040
L81890 76181
L81862 76237
L81834 76265
L81778 76293
L81609 76293
L81553 76265
L81525 76237
" />
<path d="M82256 75703
L82312 75703
L82368 75731
L82396 75759
L82424 75815
L82453 75928
L82453 76068
L82424 76181
L82396 76237
L82368 76265
L82312 76293
L82256 76293
L82199 76265
L82171 76237
L82143 76181
L82115 76068
L82115 75928
L82143 75815
L82171 75759
L82199 75731
L82256 75703
" />
<path d="M83127 76124
L83409 76124
" />
<path d="M83071 76293
L83268 75703
L83465 76293
" />
<path d="M83915 75899
L83915 76293
" />
<path d="M83662 75899
L83662 76209
L83690 76265
L83746 76293
L83831 76293
L83887 76265
L83915 76237
" />
<path d="M84449 75899
L84449 76377
L84421 76434
L84393 76462
L84337 76490
L84252 76490
L84196 76462
" />
<path d="M84449 76265
L84393 76293
L84280 76293
L84224 76265
L84196 76237
L84168 76181
L84168 76012
L84196 75956
L84224 75928
L84280 75899
L84393 75899
L84449 75928
" />
<path d="M85152 75759
L85180 75731
L85237 75703
L85377 75703
L85433 75731
L85462 75759
L85490 75815
L85490 75871
L85462 75956
L85124 76293
L85490 76293
" />
<path d="M85855 75703
L85912 75703
L85968 75731
L85996 75759
L86024 75815
L86052 75928
L86052 76068
L86024 76181
L85996 76237
L85968 76265
L85912 76293
L85855 76293
L85799 76265
L85771 76237
L85743 76181
L85715 76068
L85715 75928
L85743 75815
L85771 75759
L85799 75731
L85855 75703
" />
<path d="M86615 76293
L86277 76293
" />
<path d="M86446 76293
L86446 75703
L86390 75787
L86333 75843
L86277 75871
" />
<path d="M87121 75899
L87121 76293
" />
<path d="M86980 75674
L86840 76096
L87205 76096
" />
</g>
<g style="fill:#000000; fill-opacity:0.0; 
stroke:#000000; stroke-width:39.3701; stroke-opacity:1; 
stroke-linecap:round; stroke-linejoin:round;">
</g>
<g style="fill:#000000; fill-opacity:0.0; 
stroke:#000000; stroke-width:59.0551; stroke-opacity:1; 
stroke-linecap:round; stroke-linejoin:round;">
<path d="M69685 76577
L112205 76577
" />
</g>
<g style="fill:#000000; fill-opacity:0.0; 
stroke:#000000; stroke-width:39.3701; stroke-opacity:1; 
stroke-linecap:round; stroke-linejoin:round;">
</g>
<g style="fill:#000000; fill-opacity:0.0; 
stroke:#000000; stroke-width:59.0551; stroke-opacity:1; 
stroke-linecap:round; stroke-linejoin:round;">
<path d="M70220 77395
L70220 76805
" />
<path d="M70557 77395
L70304 77058
" />
<path d="M70557 76805
L70220 77142
" />
<path d="M70810 77395
L70810 77002
" />
<path d="M70810 76805
L70782 76833
L70810 76861
L70838 76833
L70810 76805
L70810 76861
" />
<path d="M71429 77339
L71401 77367
L71316 77395
L71260 77395
L71176 77367
L71120 77311
L71091 77255
L71063 77142
L71063 77058
L71091 76946
L71120 76889
L71176 76833
L71260 76805
L71316 76805
L71401 76833
L71429 76861
" />
<path d="M71935 77395
L71935 77086
L71907 77030
L71851 77002
L71738 77002
L71682 77030
" />
<path d="M71935 77367
L71879 77395
L71738 77395
L71682 77367
L71654 77311
L71654 77255
L71682 77199
L71738 77171
L71879 77171
L71935 77142
" />
<path d="M72469 77395
L72469 76805
" />
<path d="M72469 77367
L72413 77395
L72301 77395
L72244 77367
L72216 77339
L72188 77283
L72188 77114
L72216 77058
L72244 77030
L72301 77002
L72413 77002
L72469 77030
" />
<path d="M73201 77086
L73397 77086
" />
<path d="M73482 77395
L73201 77395
L73201 76805
L73482 76805
" />
<path d="M73735 77339
L73763 77367
L73735 77395
L73707 77367
L73735 77339
L73735 77395
" />
<path d="M74016 77395
L74016 76805
L74157 76805
L74241 76833
L74297 76889
L74325 76946
L74354 77058
L74354 77142
L74325 77255
L74297 77311
L74241 77367
L74157 77395
L74016 77395
" />
<path d="M74607 77339
L74635 77367
L74607 77395
L74579 77367
L74607 77339
L74607 77395
" />
<path d="M74860 77227
L75141 77227
" />
<path d="M74804 77395
L75000 76805
L75197 77395
" />
<path d="M75394 77339
L75422 77367
L75394 77395
L75366 77367
L75394 77339
L75394 77395
" />
<path d="M76575 77395
L76575 76805
" />
<path d="M76631 77171
L76800 77395
" />
<path d="M76800 77002
L76575 77227
" />
<path d="M77053 77395
L77053 77002
" />
<path d="M77053 76805
L77025 76833
L77053 76861
L77081 76833
L77053 76805
L77053 76861
" />
<path d="M77588 77367
L77531 77395
L77419 77395
L77363 77367
L77334 77339
L77306 77283
L77306 77114
L77334 77058
L77363 77030
L77419 77002
L77531 77002
L77588 77030
" />
<path d="M78094 77395
L78094 77086
L78066 77030
L78009 77002
L77897 77002
L77841 77030
" />
<path d="M78094 77367
L78037 77395
L77897 77395
L77841 77367
L77813 77311
L77813 77255
L77841 77199
L77897 77171
L78037 77171
L78094 77142
" />
<path d="M78628 77395
L78628 76805
" />
<path d="M78628 77367
L78572 77395
L78459 77395
L78403 77367
L78375 77339
L78347 77283
L78347 77114
L78375 77058
L78403 77030
L78459 77002
L78572 77002
L78628 77030
" />
<path d="M79612 77002
L79612 77395
" />
<path d="M79472 76777
L79331 77199
L79697 77199
" />
<path d="M79922 77339
L79950 77367
L79922 77395
L79894 77367
L79922 77339
L79922 77395
" />
<path d="M80315 76805
L80372 76805
L80428 76833
L80456 76861
L80484 76917
L80512 77030
L80512 77171
L80484 77283
L80456 77339
L80428 77367
L80372 77395
L80315 77395
L80259 77367
L80231 77339
L80203 77283
L80175 77171
L80175 77030
L80203 76917
L80231 76861
L80259 76833
L80315 76805
" />
<path d="M80765 77339
L80793 77367
L80765 77395
L80737 77367
L80765 77339
L80765 77395
" />
<path d="M81300 77002
L81300 77395
" />
<path d="M81159 76777
L81018 77199
L81384 77199
" />
<path d="M81609 77171
L82059 77171
" />
<path d="M82312 77367
L82368 77395
L82481 77395
L82537 77367
L82565 77311
L82565 77283
L82537 77227
L82481 77199
L82396 77199
L82340 77171
L82312 77114
L82312 77086
L82340 77030
L82396 77002
L82481 77002
L82537 77030
" />
<path d="M82734 77002
L82959 77002
" />
<path d="M82818 76805
L82818 77311
L82846 77367
L82903 77395
L82959 77395
" />
<path d="M83409 77395
L83409 77086
L83381 77030
L83324 77002
L83212 77002
L83156 77030
" />
<path d="M83409 77367
L83352 77395
L83212 77395
L83156 77367
L83127 77311
L83127 77255
L83156 77199
L83212 77171
L83352 77171
L83409 77142
" />
<path d="M83690 77395
L83690 76805
" />
<path d="M83690 77030
L83746 77002
L83859 77002
L83915 77030
L83943 77058
L83971 77114
L83971 77283
L83943 77339
L83915 77367
L83859 77395
L83746 77395
L83690 77367
" />
<path d="M84309 77395
L84252 77367
L84224 77311
L84224 76805
" />
<path d="M84759 77367
L84702 77395
L84590 77395
L84534 77367
L84505 77311
L84505 77086
L84534 77030
L84590 77002
L84702 77002
L84759 77030
L84787 77086
L84787 77142
L84505 77199
" />
</g>
<g style="fill:#000000; fill-opacity:0.0; 
stroke:#000000; stroke-width:39.3701; stroke-opacity:1; 
stroke-linecap:round; stroke-linejoin:round;">
</g>
<g style="fill:#000000; fill-opacity:0.0; 
stroke:#000000; stroke-width:59.0551; stroke-opacity:1; 
stroke-linecap:round; stroke-linejoin:round;">
<path d="M69685 75396
L112205 75396
" />
</g>
<g style="fill:#000000; fill-opacity:0.0; 
stroke:#000000; stroke-width:39.3701; stroke-opacity:1; 
stroke-linecap:round; stroke-linejoin:round;">
</g>
<g style="fill:#000000; fill-opacity:0.0; 
stroke:#000000; stroke-width:118.11; stroke-opacity:1; 
stroke-linecap:round; stroke-linejoin:round;">
<path d="M104022 76293
L103825 76012
" />
<path d="M103684 76293
L103684 75703
L103909 75703
L103965 75731
L103994 75759
L104022 75815
L104022 75899
L103994 75956
L103965 75984
L103909 76012
L103684 76012
" />
<path d="M104500 76265
L104444 76293
L104331 76293
L104275 76265
L104247 76209
L104247 75984
L104275 75928
L104331 75899
L104444 75899
L104500 75928
L104528 75984
L104528 76040
L104247 76096
" />
<path d="M104725 75899
L104865 76293
L105006 75899
" />
<path d="M105231 76237
L105259 76265
L105231 76293
L105203 76265
L105231 76237
L105231 76293
" />
<path d="M105231 75928
L105259 75956
L105231 75984
L105203 75956
L105231 75928
L105231 75984
" />
<path d="M105934 76124
L106215 76124
" />
<path d="M105878 76293
L106075 75703
L106271 76293
" />
</g>
<g style="fill:#000000; fill-opacity:0.0; 
stroke:#000000; stroke-width:39.3701; stroke-opacity:1; 
stroke-linecap:round; stroke-linejoin:round;">
</g>
<g style="fill:#000000; fill-opacity:0.0; 
stroke:#000000; stroke-width:59.0551; stroke-opacity:1; 
stroke-linecap:round; stroke-linejoin:round;">
<path d="M70192 76265
L70276 76293
L70417 76293
L70473 76265
L70501 76237
L70529 76181
L70529 76124
L70501 76068
L70473 76040
L70417 76012
L70304 75984
L70248 75956
L70220 75928
L70192 75871
L70192 75815
L70220 75759
L70248 75731
L70304 75703
L70445 75703
L70529 75731
" />
<path d="M70782 76293
L70782 75899
" />
<path d="M70782 75703
L70754 75731
L70782 75759
L70810 75731
L70782 75703
L70782 75759
" />
<path d="M71007 75899
L71316 75899
L71007 76293
L71316 76293
" />
<path d="M71766 76265
L71710 76293
L71598 76293
L71541 76265
L71513 76209
L71513 75984
L71541 75928
L71598 75899
L71710 75899
L71766 75928
L71795 75984
L71795 76040
L71513 76096
" />
<path d="M72048 76237
L72076 76265
L72048 76293
L72019 76265
L72048 76237
L72048 76293
" />
<path d="M72048 75928
L72076 75956
L72048 75984
L72019 75956
L72048 75928
L72048 75984
" />
<path d="M72751 76124
L73032 76124
" />
<path d="M72694 76293
L72891 75703
L73088 76293
" />
<path d="M73538 75899
L73538 76293
" />
<path d="M73397 75674
L73257 76096
L73622 76096
" />
</g>
<g style="fill:#000000; fill-opacity:0.0; 
stroke:#000000; stroke-width:39.3701; stroke-opacity:1; 
stroke-linecap:round; stroke-linejoin:round;">
</g>
<g style="fill:#000000; fill-opacity:0.0; 
stroke:#000000; stroke-width:59.0551; stroke-opacity:1; 
stroke-linecap:round; stroke-linejoin:round;">
<path d="M103684 77395
L103684 76805
" />
<path d="M104219 77395
L104219 76805
" />
<path d="M104219 77367
L104162 77395
L104050 77395
L103994 77367
L103965 77339
L103937 77283
L103937 77114
L103965 77058
L103994 77030
L104050 77002
L104162 77002
L104219 77030
" />
<path d="M104500 77339
L104528 77367
L104500 77395
L104472 77367
L104500 77339
L104500 77395
" />
<path d="M104500 77030
L104528 77058
L104500 77086
L104472 77058
L104500 77030
L104500 77086
" />
<path d="M105540 77395
L105203 77395
" />
<path d="M105372 77395
L105372 76805
L105315 76889
L105259 76946
L105203 76974
" />
<path d="M106215 76777
L105709 77536
" />
<path d="M106721 77395
L106384 77395
" />
<path d="M106553 77395
L106553 76805
L106496 76889
L106440 76946
L106384 76974
" />
</g>
<g style="fill:#000000; fill-opacity:0.0; 
stroke:#000000; stroke-width:39.3701; stroke-opacity:1; 
stroke-linecap:round; stroke-linejoin:round;">
</g>
<g style="fill:#000000; fill-opacity:0.0; 
stroke:#000000; stroke-width:59.0551; stroke-opacity:1; 
stroke-linecap:round; stroke-linejoin:round;">
<path d="M69685 73821
L112205 73821
" />
</g>
<g style="fill:#000000; fill-opacity:0.0; 
stroke:#000000; stroke-width:39.3701; stroke-opacity:1; 
stroke-linecap:round; stroke-linejoin:round;">
</g>
<g style="fill:#000000; fill-opacity:0.0; 
stroke:#000000; stroke-width:157.48; stroke-opacity:1; 
stroke-linecap:round; stroke-linejoin:round;">
<path d="M70257 74099
L70707 74099
" />
<path d="M70384 74886
L70482 74099
" />
<path d="M70871 74886
L70937 74361
" />
<path d="M70970 74099
L70927 74136
L70960 74174
L71002 74136
L70970 74099
L70960 74174
" />
<path d="M71199 74361
L71499 74361
" />
<path d="M71345 74099
L71260 74774
L71288 74849
L71359 74886
L71434 74886
" />
<path d="M71809 74886
L71738 74849
L71710 74774
L71795 74099
" />
<path d="M72413 74849
L72334 74886
L72184 74886
L72113 74849
L72085 74774
L72123 74474
L72169 74399
L72249 74361
L72399 74361
L72469 74399
L72498 74474
L72488 74549
L72104 74624
" />
<path d="M72793 74811
L72826 74849
L72783 74886
L72751 74849
L72793 74811
L72783 74886
" />
<path d="M72844 74399
L72877 74436
L72835 74474
L72802 74436
L72844 74399
L72835 74474
" />
<path d="M74072 74474
L74180 74511
L74213 74549
L74241 74624
L74227 74736
L74180 74811
L74138 74849
L74058 74886
L73758 74886
L73857 74099
L74119 74099
L74190 74136
L74222 74174
L74250 74249
L74241 74324
L74194 74399
L74152 74436
L74072 74474
L73810 74474
" />
<path d="M74921 74886
L74546 74886
L74644 74099
" />
<path d="M75183 74886
L75282 74099
L75469 74099
L75577 74136
L75642 74211
L75671 74286
L75689 74436
L75675 74549
L75619 74699
L75572 74774
L75488 74849
L75371 74886
L75183 74886
" />
<path d="M76430 74811
L76388 74849
L76271 74886
L76196 74886
L76088 74849
L76022 74774
L75994 74699
L75975 74549
L75989 74436
L76046 74286
L76092 74211
L76177 74136
L76294 74099
L76369 74099
L76477 74136
L76510 74174
" />
<path d="M77358 74886
L77456 74099
L77644 74099
L77752 74136
L77817 74211
L77845 74286
L77864 74436
L77850 74549
L77794 74699
L77747 74774
L77663 74849
L77545 74886
L77358 74886
" />
<path d="M78145 74886
L78211 74361
" />
<path d="M78192 74511
L78239 74436
L78281 74399
L78361 74361
L78436 74361
" />
<path d="M78633 74886
L78698 74361
" />
<path d="M78731 74099
L78689 74136
L78722 74174
L78764 74136
L78731 74099
L78722 74174
" />
<path d="M78998 74361
L79120 74886
L79373 74361
" />
<path d="M79912 74849
L79833 74886
L79683 74886
L79612 74849
L79584 74774
L79622 74474
L79669 74399
L79748 74361
L79898 74361
L79968 74399
L79997 74474
L79987 74549
L79603 74624
" />
<path d="M80283 74886
L80348 74361
" />
<path d="M80329 74511
L80376 74436
L80418 74399
L80498 74361
L80573 74361
" />
<path d="M81773 74361
L81707 74886
" />
<path d="M81623 74061
L81365 74624
L81853 74624
" />
<path d="M82129 74811
L82162 74849
L82120 74886
L82087 74849
L82129 74811
L82120 74886
" />
<path d="M82931 74099
L82781 74099
L82701 74136
L82659 74174
L82570 74286
L82513 74436
L82476 74736
L82504 74811
L82537 74849
L82607 74886
L82757 74886
L82837 74849
L82879 74811
L82926 74736
L82949 74549
L82921 74474
L82888 74436
L82818 74399
L82668 74399
L82588 74436
L82546 74474
L82499 74549
" />
</g>
<g style="fill:#000000; fill-opacity:0.0; 
stroke:#000000; stroke-width:39.3701; stroke-opacity:1; 
stroke-linecap:round; stroke-linejoin:round;">
</g>
<g style="fill:#000000; fill-opacity:0.0; 
stroke:#000000; stroke-width:59.0551; stroke-opacity:1; 
stroke-linecap:round; stroke-linejoin:round;">
<path d="M70417 73070
L70220 73070
" />
<path d="M70220 73380
L70220 72789
L70501 72789
" />
<path d="M70726 73380
L70726 72986
" />
<path d="M70726 72789
L70698 72817
L70726 72845
L70754 72817
L70726 72789
L70726 72845
" />
<path d="M71091 73380
L71035 73352
L71007 73295
L71007 72789
" />
<path d="M71541 73352
L71485 73380
L71373 73380
L71316 73352
L71288 73295
L71288 73070
L71316 73014
L71373 72986
L71485 72986
L71541 73014
L71570 73070
L71570 73127
L71288 73183
" />
<path d="M71823 73323
L71851 73352
L71823 73380
L71795 73352
L71823 73323
L71823 73380
" />
<path d="M71823 73014
L71851 73042
L71823 73070
L71795 73042
L71823 73014
L71823 73070
" />
<path d="M72751 73070
L72835 73099
L72863 73127
L72891 73183
L72891 73267
L72863 73323
L72835 73352
L72779 73380
L72554 73380
L72554 72789
L72751 72789
L72807 72817
L72835 72845
L72863 72902
L72863 72958
L72835 73014
L72807 73042
L72751 73070
L72554 73070
" />
<path d="M73426 73380
L73144 73380
L73144 72789
" />
<path d="M73622 73380
L73622 72789
L73763 72789
L73847 72817
L73904 72874
L73932 72930
L73960 73042
L73960 73127
L73932 73239
L73904 73295
L73847 73352
L73763 73380
L73622 73380
" />
<path d="M74550 73323
L74522 73352
L74438 73380
L74382 73380
L74297 73352
L74241 73295
L74213 73239
L74185 73127
L74185 73042
L74213 72930
L74241 72874
L74297 72817
L74382 72789
L74438 72789
L74522 72817
L74550 72845
" />
<path d="M74663 73436
L75113 73436
" />
<path d="M75507 72986
L75507 73380
" />
<path d="M75366 72761
L75225 73183
L75591 73183
" />
<path d="M75816 73323
L75844 73352
L75816 73380
L75788 73352
L75816 73323
L75816 73380
" />
<path d="M76097 73380
L76097 72789
" />
<path d="M76153 73155
L76322 73380
" />
<path d="M76322 72986
L76097 73211
" />
<path d="M76575 73380
L76575 72986
" />
<path d="M76575 72789
L76547 72817
L76575 72845
L76603 72817
L76575 72789
L76575 72845
" />
<path d="M77109 73352
L77053 73380
L76941 73380
L76885 73352
L76856 73323
L76828 73267
L76828 73099
L76856 73042
L76885 73014
L76941 72986
L77053 72986
L77109 73014
" />
<path d="M77616 73380
L77616 73070
L77588 73014
L77531 72986
L77419 72986
L77363 73014
" />
<path d="M77616 73352
L77559 73380
L77419 73380
L77363 73352
L77334 73295
L77334 73239
L77363 73183
L77419 73155
L77559 73155
L77616 73127
" />
<path d="M78150 73380
L78150 72789
" />
<path d="M78150 73352
L78094 73380
L77981 73380
L77925 73352
L77897 73323
L77869 73267
L77869 73099
L77897 73042
L77925 73014
L77981 72986
L78094 72986
L78150 73014
" />
<path d="M78291 73436
L78741 73436
" />
<path d="M78881 72986
L78881 73577
" />
<path d="M78881 73014
L78937 72986
L79050 72986
L79106 73014
L79134 73042
L79162 73099
L79162 73267
L79134 73323
L79106 73352
L79050 73380
L78937 73380
L78881 73352
" />
<path d="M79669 73352
L79612 73380
L79500 73380
L79444 73352
L79415 73323
L79387 73267
L79387 73099
L79415 73042
L79444 73014
L79500 72986
L79612 72986
L79669 73014
" />
<path d="M79922 73380
L79922 72789
" />
<path d="M79922 73014
L79978 72986
L80090 72986
L80147 73014
L80175 73042
L80203 73099
L80203 73267
L80175 73323
L80147 73352
L80090 73380
L79978 73380
L79922 73352
" />
</g>
<g style="fill:#000000; fill-opacity:0.0; 
stroke:#000000; stroke-width:39.3701; stroke-opacity:1; 
stroke-linecap:round; stroke-linejoin:round;">
</g>
<g style="fill:#000000; fill-opacity:0.0; 
stroke:#000000; stroke-width:59.0551; stroke-opacity:1; 
stroke-linecap:round; stroke-linejoin:round;">
<path d="M69685 71459
L112205 71459
" />
</g>
<g style="fill:#000000; fill-opacity:0.0; 
stroke:#000000; stroke-width:39.3701; stroke-opacity:1; 
stroke-linecap:round; stroke-linejoin:round;">
</g>
<g style="fill:#000000; fill-opacity:0.0; 
stroke:#000000; stroke-width:59.0551; stroke-opacity:1; 
stroke-linecap:round; stroke-linejoin:round;">
<path d="M70192 72289
L70276 72317
L70417 72317
L70473 72289
L70501 72260
L70529 72204
L70529 72148
L70501 72092
L70473 72064
L70417 72036
L70304 72007
L70248 71979
L70220 71951
L70192 71895
L70192 71839
L70220 71782
L70248 71754
L70304 71726
L70445 71726
L70529 71754
" />
<path d="M70782 72317
L70782 71726
" />
<path d="M71035 72317
L71035 72007
L71007 71951
L70951 71923
L70867 71923
L70810 71951
L70782 71979
" />
<path d="M71541 72289
L71485 72317
L71373 72317
L71316 72289
L71288 72232
L71288 72007
L71316 71951
L71373 71923
L71485 71923
L71541 71951
L71570 72007
L71570 72064
L71288 72120
" />
<path d="M72048 72289
L71991 72317
L71879 72317
L71823 72289
L71795 72232
L71795 72007
L71823 71951
L71879 71923
L71991 71923
L72048 71951
L72076 72007
L72076 72064
L71795 72120
" />
<path d="M72244 71923
L72469 71923
" />
<path d="M72329 71726
L72329 72232
L72357 72289
L72413 72317
L72469 72317
" />
<path d="M72666 72260
L72694 72289
L72666 72317
L72638 72289
L72666 72260
L72666 72317
" />
<path d="M72666 71951
L72694 71979
L72666 72007
L72638 71979
L72666 71951
L72666 72007
" />
</g>
<g style="fill:#000000; fill-opacity:0.0; 
stroke:#000000; stroke-width:39.3701; stroke-opacity:1; 
stroke-linecap:round; stroke-linejoin:round;">
</g>
<g style="fill:#000000; fill-opacity:0.0; 
stroke:#000000; stroke-width:118.11; stroke-opacity:1; 
stroke-linecap:round; stroke-linejoin:round;">
<path d="M70417 70826
L70501 70854
L70529 70883
L70557 70939
L70557 71023
L70529 71079
L70501 71108
L70445 71136
L70220 71136
L70220 70545
L70417 70545
L70473 70573
L70501 70601
L70529 70658
L70529 70714
L70501 70770
L70473 70798
L70417 70826
L70220 70826
" />
<path d="M71035 71108
L70979 71136
L70867 71136
L70810 71108
L70782 71051
L70782 70826
L70810 70770
L70867 70742
L70979 70742
L71035 70770
L71063 70826
L71063 70883
L70782 70939
" />
<path d="M71316 70742
L71316 71136
" />
<path d="M71316 70798
L71345 70770
L71401 70742
L71485 70742
L71541 70770
L71570 70826
L71570 71136
" />
<path d="M71851 70742
L71851 71248
L71823 71304
L71766 71332
L71738 71332
" />
<path d="M71851 70545
L71823 70573
L71851 70601
L71879 70573
L71851 70545
L71851 70601
" />
<path d="M72385 71136
L72385 70826
L72357 70770
L72301 70742
L72188 70742
L72132 70770
" />
<path d="M72385 71108
L72329 71136
L72188 71136
L72132 71108
L72104 71051
L72104 70995
L72132 70939
L72188 70911
L72329 70911
L72385 70883
" />
<path d="M72666 71136
L72666 70742
" />
<path d="M72666 70798
L72694 70770
L72751 70742
L72835 70742
L72891 70770
L72919 70826
L72919 71136
" />
<path d="M72919 70826
L72947 70770
L73004 70742
L73088 70742
L73144 70770
L73172 70826
L73172 71136
" />
<path d="M73454 71136
L73454 70742
" />
<path d="M73454 70545
L73426 70573
L73454 70601
L73482 70573
L73454 70545
L73454 70601
" />
<path d="M73735 70742
L73735 71136
" />
<path d="M73735 70798
L73763 70770
L73819 70742
L73904 70742
L73960 70770
L73988 70826
L73988 71136
" />
<path d="M74635 70545
L74832 71136
L75028 70545
" />
<path d="M75450 71108
L75394 71136
L75282 71136
L75225 71108
L75197 71051
L75197 70826
L75225 70770
L75282 70742
L75394 70742
L75450 70770
L75478 70826
L75478 70883
L75197 70939
" />
<path d="M75985 71136
L75985 70545
" />
<path d="M75985 71108
L75928 71136
L75816 71136
L75760 71108
L75732 71079
L75703 71023
L75703 70854
L75732 70798
L75760 70770
L75816 70742
L75928 70742
L75985 70770
" />
<path d="M76519 71136
L76519 70545
" />
<path d="M76519 71108
L76463 71136
L76350 71136
L76294 71108
L76266 71079
L76238 71023
L76238 70854
L76266 70798
L76294 70770
L76350 70742
L76463 70742
L76519 70770
" />
<path d="M77025 71108
L76969 71136
L76856 71136
L76800 71108
L76772 71051
L76772 70826
L76800 70770
L76856 70742
L76969 70742
L77025 70770
L77053 70826
L77053 70883
L76772 70939
" />
<path d="M77306 71136
L77306 70742
" />
<path d="M77306 70854
L77334 70798
L77363 70770
L77419 70742
L77475 70742
" />
</g>
<g style="fill:#000000; fill-opacity:0.0; 
stroke:#000000; stroke-width:39.3701; stroke-opacity:1; 
stroke-linecap:round; stroke-linejoin:round;">
</g>
<g style="fill:#000000; fill-opacity:0.0; 
stroke:#000000; stroke-width:59.0551; stroke-opacity:1; 
stroke-linecap:round; stroke-linejoin:round;">
<path d="M77559 75396
L77559 76577
" />
</g>
<g style="fill:#000000; fill-opacity:0.0; 
stroke:#000000; stroke-width:39.3701; stroke-opacity:1; 
stroke-linecap:round; stroke-linejoin:round;">
</g>
<g style="fill:#000000; fill-opacity:0.0; 
stroke:#000000; stroke-width:59.0551; stroke-opacity:1; 
stroke-linecap:round; stroke-linejoin:round;">
<path d="M102756 75396
L102756 77955
" />
</g>
<g style="fill:#840084; fill-opacity:0.0; 
stroke:#840084; stroke-width:59.0551; stroke-opacity:1; 
stroke-linecap:round; stroke-linejoin:round;">
</g>
<g style="fill:#840084; fill-opacity:0.0; 
stroke:#840084; stroke-width:98.4252; stroke-opacity:1; 
stroke-linecap:round; stroke-linejoin:round;">
<path d="M55000 43856
L55000 43256
" />
<path d="M55149 43406
L55000 43256
L54850 43406
" />
<path d="M25850 43656
L25850 43056
" />
<path d="M25999 43206
L25850 43056
L25700 43206
" />
</g>
<g style="fill:#C2C200; fill-opacity:0.0; 
stroke:#C2C200; stroke-width:98.4252; stroke-opacity:1; 
stroke-linecap:round; stroke-linejoin:round;">
</g>
<g style="fill:#C2C200; fill-opacity:0.0; 
stroke:#C2C200; stroke-width:59.0551; stroke-opacity:1; 
stroke-linecap:round; stroke-linejoin:round;">
<path d="M53875 42725
L55600 42725
" />
<path d="M53875 41750
L53875 42725
" />
<path d="M55600 40650
L53875 41750
" />
<path d="M55600 55025
L54275 55025
" />
<path d="M53075 56400
L52500 56400
" />
<path d="M27600 56700
L27025 56700
" />
<path d="M54275 55025
L53075 56400
" />
</g>
<g style="fill:#840084; fill-opacity:0.0; 
stroke:#840084; stroke-width:59.0551; stroke-opacity:1; 
stroke-linecap:round; stroke-linejoin:round;">
</g>
<g style="fill:#840084; fill-opacity:0.0; 
stroke:#840084; stroke-width:78.7402; stroke-opacity:1; 
stroke-linecap:round; stroke-linejoin:round;">
<path d="M39471 40324
L39268 40324
" />
<path d="M39370 40718
L39370 40324
" />
<path d="M38610 40718
L38610 40324
" />
<path d="M38610 40512
L38408 40512
" />
<path d="M38408 40718
L38408 40324
" />
<path d="M38273 40324
L38053 40324
L38172 40474
L38121 40474
L38087 40493
L38070 40512
L38053 40549
L38053 40643
L38070 40680
L38087 40699
L38121 40718
L38222 40718
L38256 40699
L38273 40680
" />
<path d="M37632 40718
L37632 40324
" />
<path d="M37632 40512
L37429 40512
" />
<path d="M37429 40718
L37429 40324
" />
<path d="M37277 40362
L37260 40343
L37227 40324
L37142 40324
L37109 40343
L37092 40362
L37075 40399
L37075 40437
L37092 40493
L37294 40718
L37075 40718
" />
<path d="M36653 40718
L36653 40324
" />
<path d="M36653 40512
L36451 40512
" />
<path d="M36451 40718
L36451 40324
" />
<path d="M36096 40718
L36299 40718
" />
<path d="M36197 40718
L36197 40324
L36231 40380
L36265 40418
L36299 40437
" />
<path d="M35725 40324
L35607 40718
L35489 40324
" />
<path d="M35371 40718
L35371 40324
" />
<path d="M35371 40512
L35168 40512
" />
<path d="M35168 40718
L35168 40324
" />
<path d="M35016 40605
L34848 40605
" />
<path d="M35050 40718
L34932 40324
L34814 40718
" />
<path d="M34527 40718
L34696 40718
L34696 40324
" />
<path d="M34240 40718
L34409 40718
L34409 40324
" />
<path d="M33650 40680
L33667 40699
L33717 40718
L33751 40718
L33801 40699
L33835 40662
L33852 40624
L33869 40549
L33869 40493
L33852 40418
L33835 40380
L33801 40343
L33751 40324
L33717 40324
L33667 40343
L33650 40362
" />
<path d="M33515 40605
L33346 40605
" />
<path d="M33548 40718
L33430 40324
L33312 40718
" />
<path d="M33194 40718
L33194 40324
L32992 40718
L32992 40324
" />
<path d="M32654 40718
L32823 40718
L32823 40324
" />
<path d="M31794 40680
L31810 40699
L31861 40718
L31895 40718
L31945 40699
L31979 40662
L31996 40624
L32013 40549
L32013 40493
L31996 40418
L31979 40380
L31945 40343
L31895 40324
L31861 40324
L31810 40343
L31794 40362
" />
<path d="M31659 40605
L31490 40605
" />
<path d="M31692 40718
L31574 40324
L31456 40718
" />
<path d="M31338 40718
L31338 40324
L31136 40718
L31136 40324
" />
<path d="M30967 40718
L30967 40324
" />
<path d="M30967 40512
L30764 40512
" />
<path d="M30764 40718
L30764 40324
" />
<path d="M30157 40324
L30326 40324
L30343 40512
L30326 40493
L30292 40474
L30208 40474
L30174 40493
L30157 40512
L30140 40549
L30140 40643
L30157 40680
L30174 40699
L30208 40718
L30292 40718
L30326 40699
L30343 40680
" />
<path d="M30039 40324
L29921 40718
L29803 40324
" />
<path d="M28706 40324
L28875 40324
L28891 40512
L28875 40493
L28841 40474
L28757 40474
L28723 40493
L28706 40512
L28689 40549
L28689 40643
L28706 40680
L28723 40699
L28757 40718
L28841 40718
L28875 40699
L28891 40680
" />
<path d="M28588 40324
L28470 40718
L28352 40324
" />
<path d="M39488 41350
L39505 41369
L39555 41387
L39589 41387
L39640 41369
L39673 41331
L39690 41294
L39707 41219
L39707 41162
L39690 41087
L39673 41050
L39640 41012
L39589 40994
L39555 40994
L39505 41012
L39488 41031
" />
<path d="M39353 41369
L39302 41387
L39218 41387
L39184 41369
L39167 41350
L39150 41312
L39150 41275
L39167 41237
L39184 41219
L39218 41200
L39285 41181
L39319 41162
L39336 41144
L39353 41106
L39353 41069
L39336 41031
L39319 41012
L39285 40994
L39201 40994
L39150 41012
" />
<path d="M38745 41369
L38695 41387
L38610 41387
L38577 41369
L38560 41350
L38543 41312
L38543 41275
L38560 41237
L38577 41219
L38610 41200
L38678 41181
L38712 41162
L38728 41144
L38745 41106
L38745 41069
L38728 41031
L38712 41012
L38678 40994
L38593 40994
L38543 41012
" />
<path d="M38188 41350
L38205 41369
L38256 41387
L38290 41387
L38340 41369
L38374 41331
L38391 41294
L38408 41219
L38408 41162
L38391 41087
L38374 41050
L38340 41012
L38290 40994
L38256 40994
L38205 41012
L38188 41031
" />
<path d="M38037 41387
L38037 40994
" />
<path d="M37834 41387
L37986 41162
" />
<path d="M37834 40994
L38037 41219
" />
<path d="M37412 41387
L37412 40994
L37294 41275
L37176 40994
L37176 41387
" />
<path d="M37007 41387
L37007 40994
" />
<path d="M36569 41387
L36569 40994
L36451 41275
L36332 40994
L36332 41387
" />
<path d="M36096 40994
L36029 40994
L35995 41012
L35961 41050
L35944 41125
L35944 41256
L35961 41331
L35995 41369
L36029 41387
L36096 41387
L36130 41369
L36164 41331
L36181 41256
L36181 41125
L36164 41050
L36130 41012
L36096 40994
" />
<path d="M35573 40994
L35455 41387
L35337 40994
" />
<path d="M35236 41369
L35185 41387
L35101 41387
L35067 41369
L35050 41350
L35033 41312
L35033 41275
L35050 41237
L35067 41219
L35101 41200
L35168 41181
L35202 41162
L35219 41144
L35236 41106
L35236 41069
L35219 41031
L35202 41012
L35168 40994
L35084 40994
L35033 41012
" />
<path d="M34881 41387
L34881 40994
L34746 40994
L34713 41012
L34696 41031
L34679 41069
L34679 41125
L34696 41162
L34713 41181
L34746 41200
L34881 41200
" />
<path d="M34527 41387
L34527 40994
" />
<path d="M33818 40994
L33818 41312
L33801 41350
L33785 41369
L33751 41387
L33683 41387
L33650 41369
L33633 41350
L33616 41312
L33616 40994
" />
<path d="M33464 41369
L33413 41387
L33329 41387
L33295 41369
L33278 41350
L33262 41312
L33262 41275
L33278 41237
L33295 41219
L33329 41200
L33397 41181
L33430 41162
L33447 41144
L33464 41106
L33464 41069
L33447 41031
L33430 41012
L33397 40994
L33312 40994
L33262 41012
" />
<path d="M32992 41181
L32941 41200
L32924 41219
L32907 41256
L32907 41312
L32924 41350
L32941 41369
L32975 41387
L33110 41387
L33110 40994
L32992 40994
L32958 41012
L32941 41031
L32924 41069
L32924 41106
L32941 41144
L32958 41162
L32992 41181
L33110 41181
" />
<path d="M32755 41237
L32485 41237
" />
<path d="M32047 40994
L32047 41312
L32030 41350
L32013 41369
L31979 41387
L31912 41387
L31878 41369
L31861 41350
L31844 41312
L31844 40994
" />
<path d="M31692 41369
L31642 41387
L31557 41387
L31524 41369
L31507 41350
L31490 41312
L31490 41275
L31507 41237
L31524 41219
L31557 41200
L31625 41181
L31659 41162
L31676 41144
L31692 41106
L31692 41069
L31676 41031
L31659 41012
L31625 40994
L31541 40994
L31490 41012
" />
<path d="M31220 41181
L31169 41200
L31152 41219
L31136 41256
L31136 41312
L31152 41350
L31169 41369
L31203 41387
L31338 41387
L31338 40994
L31220 40994
L31186 41012
L31169 41031
L31152 41069
L31152 41106
L31169 41144
L31186 41162
L31220 41181
L31338 41181
" />
<path d="M30984 41237
L30714 41237
" />
<path d="M30849 41387
L30849 41087
" />
<path d="M30089 41012
L30123 40994
L30174 40994
L30224 41012
L30258 41050
L30275 41087
L30292 41162
L30292 41219
L30275 41294
L30258 41331
L30224 41369
L30174 41387
L30140 41387
L30089 41369
L30073 41350
L30073 41219
L30140 41219
" />
<path d="M29921 41387
L29921 40994
L29718 41387
L29718 40994
" />
<path d="M29550 41387
L29550 40994
L29465 40994
L29415 41012
L29381 41050
L29364 41087
L29347 41162
L29347 41219
L29364 41294
L29381 41331
L29415 41369
L29465 41387
L29550 41387
" />
<path d="M28740 41012
L28773 40994
L28824 40994
L28875 41012
L28908 41050
L28925 41087
L28942 41162
L28942 41219
L28925 41294
L28908 41331
L28875 41369
L28824 41387
L28790 41387
L28740 41369
L28723 41350
L28723 41219
L28790 41219
" />
<path d="M28571 41387
L28571 40994
L28368 41387
L28368 40994
" />
<path d="M28200 41387
L28200 40994
L28115 40994
L28065 41012
L28031 41050
L28014 41087
L27997 41162
L27997 41219
L28014 41294
L28031 41331
L28065 41369
L28115 41387
L28200 41387
" />
<path d="M27525 40994
L27525 41087
" />
<path d="M27609 41050
L27525 41087
L27440 41050
" />
<path d="M27575 41162
L27525 41087
L27474 41162
" />
<path d="M27255 40994
L27255 41087
" />
<path d="M27339 41050
L27255 41087
L27170 41050
" />
<path d="M27305 41162
L27255 41087
L27204 41162
" />
</g>
<g style="fill:#840084; fill-opacity:0.0; 
stroke:#840084; stroke-width:98.4252; stroke-opacity:1; 
stroke-linecap:round; stroke-linejoin:round;">
<path d="M41803 56278
L41803 55884
L41653 55884
L41615 55903
L41596 55921
L41578 55959
L41578 56015
L41596 56053
L41615 56071
L41653 56090
L41803 56090
" />
<path d="M41203 55903
L41240 55884
L41296 55884
L41353 55903
L41390 55940
L41409 55978
L41428 56053
L41428 56109
L41409 56184
L41390 56221
L41353 56259
L41296 56278
L41259 56278
L41203 56259
L41184 56240
L41184 56109
L41259 56109
" />
<path d="M41015 56278
L41015 55884
L40790 56278
L40790 55884
" />
<path d="M40603 56278
L40603 55884
L40509 55884
L40453 55903
L40415 55940
L40396 55978
L40378 56053
L40378 56109
L40396 56184
L40415 56221
L40453 56259
L40509 56278
L40603 56278
" />
<path d="M38846 55909
L38715 56303
L38584 55909
" />
<path d="M38321 56096
L38265 56115
L38246 56134
L38228 56171
L38228 56228
L38246 56265
L38265 56284
L38303 56303
L38453 56303
L38453 55909
L38321 55909
L38284 55928
L38265 55946
L38246 55984
L38246 56021
L38265 56059
L38284 56078
L38321 56096
L38453 56096
" />
<path d="M38078 56190
L37890 56190
" />
<path d="M38115 56303
L37984 55909
L37853 56303
" />
<path d="M37778 55909
L37553 55909
" />
<path d="M37665 56303
L37665 55909
" />
<path d="M35075 55990
L35075 56178
" />
<path d="M35206 55784
L35075 55990
L34943 55784
" />
<path d="M32231 55809
L31968 56203
" />
<path d="M31968 55809
L32231 56203
" />
<path d="M29268 55784
L29174 56178
L29099 55896
L29025 56178
L28931 55784
" />
</g>
<g style="fill:#840084; fill-opacity:0.0; 
stroke:#840084; stroke-width:59.0551; stroke-opacity:1; 
stroke-linecap:round; stroke-linejoin:round;">
<path d="M47000 49925
L47075 50425
" />
<path d="M46075 49175
L45925 49625
" />
</g>
<g style="fill:#C2C200; fill-opacity:0.0; 
stroke:#C2C200; stroke-width:59.0551; stroke-opacity:1; 
stroke-linecap:round; stroke-linejoin:round;">
<path d="M55600 39700
L55600 40650
" />
<path d="M25300 42675
L25300 54725
" />
<path d="M27025 42675
L25300 42675
" />
<path d="M27025 41700
L27025 42675
" />
<path d="M25300 40600
L27025 41700
" />
<path d="M27025 56700
L25300 54725
" />
<path d="M52500 56400
L52500 58875
" />
<path d="M55600 42725
L55600 55025
" />
<path d="M25300 39700
L55600 39700
" />
<path d="M25300 40600
L25300 39700
" />
<path d="M27600 58875
L27600 56700
" />
<path d="M52500 58875
L27600 58875
" />
</g>
<g style="fill:#840000; fill-opacity:0.0; 
stroke:#840000; stroke-width:59.0551; stroke-opacity:1; 
stroke-linecap:round; stroke-linejoin:round;">
<path d="M43303 40746
L43115 40615
" />
<path d="M43303 40521
L42909 40521
L42909 40671
L42928 40709
L42946 40728
L42984 40746
L43040 40746
L43078 40728
L43096 40709
L43115 40671
L43115 40521
" />
<path d="M43040 41084
L43303 41084
" />
<path d="M42890 40990
L43171 40896
L43171 41140
" />
<path d="M43078 41346
L43059 41309
L43040 41290
L43003 41271
L42984 41271
L42946 41290
L42928 41309
L42909 41346
L42909 41421
L42928 41459
L42946 41478
L42984 41496
L43003 41496
L43040 41478
L43059 41459
L43078 41421
L43078 41346
L43096 41309
L43115 41290
L43153 41271
L43228 41271
L43265 41290
L43284 41309
L43303 41346
L43303 41421
L43284 41459
L43265 41478
L43228 41496
L43153 41496
L43115 41478
L43096 41459
L43078 41421
" />
<path d="M43953 40746
L43765 40615
" />
<path d="M43953 40521
L43559 40521
L43559 40671
L43578 40709
L43596 40728
L43634 40746
L43690 40746
L43728 40728
L43746 40709
L43765 40671
L43765 40521
" />
<path d="M43559 41103
L43559 40915
L43746 40896
L43728 40915
L43709 40953
L43709 41046
L43728 41084
L43746 41103
L43784 41121
L43878 41121
L43915 41103
L43934 41084
L43953 41046
L43953 40953
L43934 40915
L43915 40896
" />
<path d="M43953 41496
L43953 41271
" />
<path d="M43953 41384
L43559 41384
L43615 41346
L43653 41309
L43671 41271
" />
</g>
<g style="fill:#840084; fill-opacity:0.0; 
stroke:#840084; stroke-width:59.0551; stroke-opacity:1; 
stroke-linecap:round; stroke-linejoin:round;">
</g>
<g style="fill:#840084; fill-opacity:0.0; 
stroke:#840084; stroke-width:50; stroke-opacity:1; 
stroke-linecap:round; stroke-linejoin:round;">
<path d="M39450 50632
L39464 50646
L39507 50660
L39535 50660
L39578 50646
L39607 50617
L39621 50589
L39635 50532
L39635 50489
L39621 50432
L39607 50403
L39578 50375
L39535 50360
L39507 50360
L39464 50375
L39450 50389
" />
<path d="M39278 50489
L39307 50475
L39321 50460
L39335 50432
L39335 50417
L39321 50389
L39307 50375
L39278 50360
L39221 50360
L39192 50375
L39178 50389
L39164 50417
L39164 50432
L39178 50460
L39192 50475
L39221 50489
L39278 50489
L39307 50503
L39321 50517
L39335 50546
L39335 50603
L39321 50632
L39307 50646
L39278 50660
L39221 50660
L39192 50646
L39178 50632
L39164 50603
L39164 50546
L39178 50517
L39192 50503
L39221 50489
" />
</g>
<g style="fill:#840000; fill-opacity:0.0; 
stroke:#840000; stroke-width:50; stroke-opacity:1; 
stroke-linecap:round; stroke-linejoin:round;">
</g>
<g style="fill:#840000; fill-opacity:0.0; 
stroke:#840000; stroke-width:59.0551; stroke-opacity:1; 
stroke-linecap:round; stroke-linejoin:round;">
<path d="M49603 47790
L49621 47809
L49678 47828
L49715 47828
L49771 47809
L49809 47771
L49828 47734
L49846 47659
L49846 47603
L49828 47528
L49809 47490
L49771 47453
L49715 47434
L49678 47434
L49621 47453
L49603 47471
" />
<path d="M49228 47828
L49453 47828
" />
<path d="M49340 47828
L49340 47434
L49378 47490
L49415 47528
L49453 47546
" />
<path d="M48984 47434
L48946 47434
L48909 47453
L48890 47471
L48871 47509
L48853 47584
L48853 47678
L48871 47753
L48890 47790
L48909 47809
L48946 47828
L48984 47828
L49021 47809
L49040 47790
L49059 47753
L49078 47678
L49078 47584
L49059 47509
L49040 47471
L49021 47453
L48984 47434
" />
<path d="M49803 51690
L49821 51709
L49878 51728
L49915 51728
L49971 51709
L50009 51671
L50028 51634
L50046 51559
L50046 51503
L50028 51428
L50009 51390
L49971 51353
L49915 51334
L49878 51334
L49821 51353
L49803 51371
" />
<path d="M49428 51728
L49653 51728
" />
<path d="M49540 51728
L49540 51334
L49578 51390
L49615 51428
L49653 51446
" />
<path d="M49053 51728
L49278 51728
" />
<path d="M49165 51728
L49165 51334
L49203 51390
L49240 51428
L49278 51446
" />
<path d="M51103 49065
L51121 49084
L51178 49103
L51215 49103
L51271 49084
L51309 49046
L51328 49009
L51346 48934
L51346 48878
L51328 48803
L51309 48765
L51271 48728
L51215 48709
L51178 48709
L51121 48728
L51103 48746
" />
<path d="M50728 49103
L50953 49103
" />
<path d="M50840 49103
L50840 48709
L50878 48765
L50915 48803
L50953 48821
" />
<path d="M50578 48746
L50559 48728
L50521 48709
L50428 48709
L50390 48728
L50371 48746
L50353 48784
L50353 48821
L50371 48878
L50596 49103
L50353 49103
" />
<path d="M48553 51690
L48571 51709
L48628 51728
L48665 51728
L48721 51709
L48759 51671
L48778 51634
L48796 51559
L48796 51503
L48778 51428
L48759 51390
L48721 51353
L48665 51334
L48628 51334
L48571 51353
L48553 51371
" />
<path d="M48178 51728
L48403 51728
" />
<path d="M48290 51728
L48290 51334
L48328 51390
L48365 51428
L48403 51446
" />
<path d="M48046 51334
L47803 51334
L47934 51484
L47878 51484
L47840 51503
L47821 51521
L47803 51559
L47803 51653
L47821 51690
L47840 51709
L47878 51728
L47990 51728
L48028 51709
L48046 51690
" />
<path d="M46378 48965
L46396 48984
L46453 49003
L46490 49003
L46546 48984
L46584 48946
L46603 48909
L46621 48834
L46621 48778
L46603 48703
L46584 48665
L46546 48628
L46490 48609
L46453 48609
L46396 48628
L46378 48646
" />
<path d="M46228 48646
L46209 48628
L46171 48609
L46078 48609
L46040 48628
L46021 48646
L46003 48684
L46003 48721
L46021 48778
L46246 49003
L46003 49003
" />
<path d="M45665 48740
L45665 49003
" />
<path d="M45759 48590
L45853 48871
L45609 48871
" />
</g>
<g style="fill:#840084; fill-opacity:0.0; 
stroke:#840084; stroke-width:59.0551; stroke-opacity:1; 
stroke-linecap:round; stroke-linejoin:round;">
<path d="M44503 48490
L44521 48509
L44578 48528
L44615 48528
L44671 48509
L44709 48471
L44728 48434
L44746 48359
L44746 48303
L44728 48228
L44709 48190
L44671 48153
L44615 48134
L44578 48134
L44521 48153
L44503 48171
" />
<path d="M44353 48171
L44334 48153
L44296 48134
L44203 48134
L44165 48153
L44146 48171
L44128 48209
L44128 48246
L44146 48303
L44371 48528
L44128 48528
" />
<path d="M43771 48134
L43959 48134
L43978 48321
L43959 48303
L43921 48284
L43828 48284
L43790 48303
L43771 48321
L43753 48359
L43753 48453
L43771 48490
L43790 48509
L43828 48528
L43921 48528
L43959 48509
L43978 48490
" />
</g>
<g style="fill:#840000; fill-opacity:0.0; 
stroke:#840000; stroke-width:59.0551; stroke-opacity:1; 
stroke-linecap:round; stroke-linejoin:round;">
<path d="M53103 48390
L53121 48409
L53178 48428
L53215 48428
L53271 48409
L53309 48371
L53328 48334
L53346 48259
L53346 48203
L53328 48128
L53309 48090
L53271 48053
L53215 48034
L53178 48034
L53121 48053
L53103 48071
" />
<path d="M52971 48034
L52728 48034
L52859 48184
L52803 48184
L52765 48203
L52746 48221
L52728 48259
L52728 48353
L52746 48390
L52765 48409
L52803 48428
L52915 48428
L52953 48409
L52971 48390
" />
<path d="M52578 48071
L52559 48053
L52521 48034
L52428 48034
L52390 48053
L52371 48071
L52353 48109
L52353 48146
L52371 48203
L52596 48428
L52353 48428
" />
</g>
<g style="fill:#840084; fill-opacity:0.0; 
stroke:#840084; stroke-width:59.0551; stroke-opacity:1; 
stroke-linecap:round; stroke-linejoin:round;">
</g>
<g style="fill:#840084; fill-opacity:0.0; 
stroke:#840084; stroke-width:49.2126; stroke-opacity:1; 
stroke-linecap:round; stroke-linejoin:round;">
<path d="M39589 51805
L39603 51819
L39646 51833
L39674 51833
L39716 51819
L39744 51791
L39758 51763
L39772 51707
L39772 51664
L39758 51608
L39744 51580
L39716 51552
L39674 51538
L39646 51538
L39603 51552
L39589 51566
" />
<path d="M39336 51636
L39336 51833
" />
<path d="M39407 51524
L39477 51735
L39294 51735
" />
<path d="M39125 51538
L39097 51538
L39069 51552
L39055 51566
L39041 51594
L39027 51650
L39027 51721
L39041 51777
L39055 51805
L39069 51819
L39097 51833
L39125 51833
L39153 51819
L39167 51805
L39182 51777
L39196 51721
L39196 51650
L39182 51594
L39167 51566
L39153 51552
L39125 51538
" />
</g>
<g style="fill:#840084; fill-opacity:0.0; 
stroke:#840084; stroke-width:59.0551; stroke-opacity:1; 
stroke-linecap:round; stroke-linejoin:round;">
<path d="M43790 43771
L43809 43753
L43828 43696
L43828 43659
L43809 43603
L43771 43565
L43734 43546
L43659 43528
L43603 43528
L43528 43546
L43490 43565
L43453 43603
L43434 43659
L43434 43696
L43453 43753
L43471 43771
" />
<path d="M43565 44109
L43828 44109
" />
<path d="M43415 44015
L43696 43921
L43696 44165
" />
<path d="M43434 44278
L43434 44521
L43584 44390
L43584 44446
L43603 44484
L43621 44503
L43659 44521
L43753 44521
L43790 44503
L43809 44484
L43828 44446
L43828 44334
L43809 44296
L43790 44278
" />
<path d="M42865 43796
L42884 43778
L42903 43721
L42903 43684
L42884 43628
L42846 43590
L42809 43571
L42734 43553
L42678 43553
L42603 43571
L42565 43590
L42528 43628
L42509 43684
L42509 43721
L42528 43778
L42546 43796
" />
<path d="M42640 44134
L42903 44134
" />
<path d="M42490 44040
L42771 43946
L42771 44190
" />
<path d="M42640 44509
L42903 44509
" />
<path d="M42490 44415
L42771 44321
L42771 44565
" />
<path d="M41890 43796
L41909 43778
L41928 43721
L41928 43684
L41909 43628
L41871 43590
L41834 43571
L41759 43553
L41703 43553
L41628 43571
L41590 43590
L41553 43628
L41534 43684
L41534 43721
L41553 43778
L41571 43796
" />
<path d="M41665 44134
L41928 44134
" />
<path d="M41515 44040
L41796 43946
L41796 44190
" />
<path d="M41928 44359
L41928 44434
L41909 44471
L41890 44490
L41834 44528
L41759 44546
L41609 44546
L41571 44528
L41553 44509
L41534 44471
L41534 44396
L41553 44359
L41571 44340
L41609 44321
L41703 44321
L41740 44340
L41759 44359
L41778 44396
L41778 44471
L41759 44509
L41740 44528
L41703 44546
" />
</g>
<g style="fill:#840084; fill-opacity:0.0; 
stroke:#840084; stroke-width:47; stroke-opacity:1; 
stroke-linecap:round; stroke-linejoin:round;">
<path d="M41179 53505
L41193 53519
L41236 53533
L41264 53533
L41306 53519
L41334 53491
L41348 53463
L41362 53407
L41362 53364
L41348 53308
L41334 53280
L41306 53252
L41264 53238
L41236 53238
L41193 53252
L41179 53266
" />
<path d="M40912 53238
L41053 53238
L41067 53378
L41053 53364
L41025 53350
L40954 53350
L40926 53364
L40912 53378
L40898 53407
L40898 53477
L40912 53505
L40926 53519
L40954 53533
L41025 53533
L41053 53519
L41067 53505
" />
<path d="M40617 53533
L40786 53533
" />
<path d="M40701 53533
L40701 53238
L40729 53280
L40757 53308
L40786 53322
" />
</g>
<g style="fill:#840000; fill-opacity:0.0; 
stroke:#840000; stroke-width:47; stroke-opacity:1; 
stroke-linecap:round; stroke-linejoin:round;">
</g>
<g style="fill:#840000; fill-opacity:0.0; 
stroke:#840000; stroke-width:59.0551; stroke-opacity:1; 
stroke-linecap:round; stroke-linejoin:round;">
<path d="M47515 49665
L47534 49684
L47590 49703
L47628 49703
L47684 49684
L47721 49646
L47740 49609
L47759 49534
L47759 49478
L47740 49403
L47721 49365
L47684 49328
L47628 49309
L47590 49309
L47534 49328
L47515 49346
" />
<path d="M47178 49440
L47178 49703
" />
<path d="M47271 49290
L47365 49571
L47121 49571
" />
<path d="M46896 49309
L46859 49309
L46821 49328
L46803 49346
L46784 49384
L46765 49459
L46765 49553
L46784 49628
L46803 49665
L46821 49684
L46859 49703
L46896 49703
L46934 49684
L46953 49665
L46971 49628
L46990 49553
L46990 49459
L46971 49384
L46953 49346
L46934 49328
L46896 49309
" />
<path d="M46390 49703
L46615 49703
" />
<path d="M46503 49703
L46503 49309
L46540 49365
L46578 49403
L46615 49421
" />
<path d="M39590 47578
L39721 47390
" />
<path d="M39815 47578
L39815 47184
L39665 47184
L39628 47203
L39609 47221
L39590 47259
L39590 47315
L39609 47353
L39628 47371
L39665 47390
L39815 47390
" />
<path d="M39215 47578
L39440 47578
" />
<path d="M39328 47578
L39328 47184
L39365 47240
L39403 47278
L39440 47296
" />
<path d="M52665 54703
L52796 54515
" />
<path d="M52890 54703
L52890 54309
L52740 54309
L52703 54328
L52684 54346
L52665 54384
L52665 54440
L52684 54478
L52703 54496
L52740 54515
L52890 54515
" />
<path d="M52534 54309
L52271 54309
L52440 54703
" />
<path d="M48490 54728
L48621 54540
" />
<path d="M48715 54728
L48715 54334
L48565 54334
L48528 54353
L48509 54371
L48490 54409
L48490 54465
L48509 54503
L48528 54521
L48565 54540
L48715 54540
" />
<path d="M48265 54503
L48303 54484
L48321 54465
L48340 54428
L48340 54409
L48321 54371
L48303 54353
L48265 54334
L48190 54334
L48153 54353
L48134 54371
L48115 54409
L48115 54428
L48134 54465
L48153 54484
L48190 54503
L48265 54503
L48303 54521
L48321 54540
L48340 54578
L48340 54653
L48321 54690
L48303 54709
L48265 54728
L48190 54728
L48153 54709
L48134 54690
L48115 54653
L48115 54578
L48134 54540
L48153 54521
L48190 54503
" />
<path d="M49340 54703
L49471 54515
" />
<path d="M49565 54703
L49565 54309
L49415 54309
L49378 54328
L49359 54346
L49340 54384
L49340 54440
L49359 54478
L49378 54496
L49415 54515
L49565 54515
" />
<path d="M49153 54703
L49078 54703
L49040 54684
L49021 54665
L48984 54609
L48965 54534
L48965 54384
L48984 54346
L49003 54328
L49040 54309
L49115 54309
L49153 54328
L49171 54346
L49190 54384
L49190 54478
L49171 54515
L49153 54534
L49115 54553
L49040 54553
L49003 54534
L48984 54515
L48965 54478
" />
<path d="M50578 54703
L50709 54515
" />
<path d="M50803 54703
L50803 54309
L50653 54309
L50615 54328
L50596 54346
L50578 54384
L50578 54440
L50596 54478
L50615 54496
L50653 54515
L50803 54515
" />
<path d="M50203 54703
L50428 54703
" />
<path d="M50315 54703
L50315 54309
L50353 54365
L50390 54403
L50428 54421
" />
<path d="M49959 54309
L49921 54309
L49884 54328
L49865 54346
L49846 54384
L49828 54459
L49828 54553
L49846 54628
L49865 54665
L49884 54684
L49921 54703
L49959 54703
L49996 54684
L50015 54665
L50034 54628
L50053 54553
L50053 54459
L50034 54384
L50015 54346
L49996 54328
L49959 54309
" />
<path d="M50578 54028
L50709 53840
" />
<path d="M50803 54028
L50803 53634
L50653 53634
L50615 53653
L50596 53671
L50578 53709
L50578 53765
L50596 53803
L50615 53821
L50653 53840
L50803 53840
" />
<path d="M50203 54028
L50428 54028
" />
<path d="M50315 54028
L50315 53634
L50353 53690
L50390 53728
L50428 53746
" />
<path d="M49828 54028
L50053 54028
" />
<path d="M49940 54028
L49940 53634
L49978 53690
L50015 53728
L50053 53746
" />
<path d="M50578 53478
L50709 53290
" />
<path d="M50803 53478
L50803 53084
L50653 53084
L50615 53103
L50596 53121
L50578 53159
L50578 53215
L50596 53253
L50615 53271
L50653 53290
L50803 53290
" />
<path d="M50203 53478
L50428 53478
" />
<path d="M50315 53478
L50315 53084
L50353 53140
L50390 53178
L50428 53196
" />
<path d="M50053 53121
L50034 53103
L49996 53084
L49903 53084
L49865 53103
L49846 53121
L49828 53159
L49828 53196
L49846 53253
L50071 53478
L49828 53478
" />
<path d="M50578 52928
L50709 52740
" />
<path d="M50803 52928
L50803 52534
L50653 52534
L50615 52553
L50596 52571
L50578 52609
L50578 52665
L50596 52703
L50615 52721
L50653 52740
L50803 52740
" />
<path d="M50203 52928
L50428 52928
" />
<path d="M50315 52928
L50315 52534
L50353 52590
L50390 52628
L50428 52646
" />
<path d="M50071 52534
L49828 52534
L49959 52684
L49903 52684
L49865 52703
L49846 52721
L49828 52759
L49828 52853
L49846 52890
L49865 52909
L49903 52928
L50015 52928
L50053 52909
L50071 52890
" />
<path d="M53228 47078
L53359 46890
" />
<path d="M53453 47078
L53453 46684
L53303 46684
L53265 46703
L53246 46721
L53228 46759
L53228 46815
L53246 46853
L53265 46871
L53303 46890
L53453 46890
" />
<path d="M53078 46721
L53059 46703
L53021 46684
L52928 46684
L52890 46703
L52871 46721
L52853 46759
L52853 46796
L52871 46853
L53096 47078
L52853 47078
" />
<path d="M52721 46684
L52478 46684
L52609 46834
L52553 46834
L52515 46853
L52496 46871
L52478 46909
L52478 47003
L52496 47040
L52515 47059
L52553 47078
L52665 47078
L52703 47059
L52721 47040
" />
<path d="M52528 45253
L52659 45065
" />
<path d="M52753 45253
L52753 44859
L52603 44859
L52565 44878
L52546 44896
L52528 44934
L52528 44990
L52546 45028
L52565 45046
L52603 45065
L52753 45065
" />
<path d="M52378 44896
L52359 44878
L52321 44859
L52228 44859
L52190 44878
L52171 44896
L52153 44934
L52153 44971
L52171 45028
L52396 45253
L52153 45253
" />
<path d="M51815 44859
L51890 44859
L51928 44878
L51946 44896
L51984 44953
L52003 45028
L52003 45178
L51984 45215
L51965 45234
L51928 45253
L51853 45253
L51815 45234
L51796 45215
L51778 45178
L51778 45084
L51796 45046
L51815 45028
L51853 45009
L51928 45009
L51965 45028
L51984 45046
L52003 45084
" />
<path d="M41108 40746
L40920 40615
" />
<path d="M41108 40521
L40714 40521
L40714 40671
L40733 40709
L40751 40728
L40789 40746
L40845 40746
L40883 40728
L40901 40709
L40920 40671
L40920 40521
" />
<path d="M40714 40878
L40714 41121
L40864 40990
L40864 41046
L40883 41084
L40901 41103
L40939 41121
L41033 41121
L41070 41103
L41089 41084
L41108 41046
L41108 40934
L41089 40896
L41070 40878
" />
<path d="M40714 41365
L40714 41403
L40733 41440
L40751 41459
L40789 41478
L40864 41496
L40958 41496
L41033 41478
L41070 41459
L41089 41440
L41108 41403
L41108 41365
L41089 41328
L41070 41309
L41033 41290
L40958 41271
L40864 41271
L40789 41290
L40751 41309
L40733 41328
L40714 41365
" />
<path d="M51853 47078
L51984 46890
" />
<path d="M52078 47078
L52078 46684
L51928 46684
L51890 46703
L51871 46721
L51853 46759
L51853 46815
L51871 46853
L51890 46871
L51928 46890
L52078 46890
" />
<path d="M51721 46684
L51478 46684
L51609 46834
L51553 46834
L51515 46853
L51496 46871
L51478 46909
L51478 47003
L51496 47040
L51515 47059
L51553 47078
L51665 47078
L51703 47059
L51721 47040
" />
<path d="M51328 46721
L51309 46703
L51271 46684
L51178 46684
L51140 46703
L51121 46721
L51103 46759
L51103 46796
L51121 46853
L51346 47078
L51103 47078
" />
<path d="M41823 40746
L41635 40615
" />
<path d="M41823 40521
L41429 40521
L41429 40671
L41448 40709
L41466 40728
L41504 40746
L41560 40746
L41598 40728
L41616 40709
L41635 40671
L41635 40521
" />
<path d="M41429 40878
L41429 41121
L41579 40990
L41579 41046
L41598 41084
L41616 41103
L41654 41121
L41748 41121
L41785 41103
L41804 41084
L41823 41046
L41823 40934
L41804 40896
L41785 40878
" />
<path d="M41429 41459
L41429 41384
L41448 41346
L41466 41328
L41523 41290
L41598 41271
L41748 41271
L41785 41290
L41804 41309
L41823 41346
L41823 41421
L41804 41459
L41785 41478
L41748 41496
L41654 41496
L41616 41478
L41598 41459
L41579 41421
L41579 41346
L41598 41309
L41616 41290
L41654 41271
" />
<path d="M42558 40746
L42370 40615
" />
<path d="M42558 40521
L42164 40521
L42164 40671
L42183 40709
L42201 40728
L42239 40746
L42295 40746
L42333 40728
L42351 40709
L42370 40671
L42370 40521
" />
<path d="M42295 41084
L42558 41084
" />
<path d="M42145 40990
L42426 40896
L42426 41140
" />
<path d="M42164 41459
L42164 41384
L42183 41346
L42201 41328
L42258 41290
L42333 41271
L42483 41271
L42520 41290
L42539 41309
L42558 41346
L42558 41421
L42539 41459
L42520 41478
L42483 41496
L42389 41496
L42351 41478
L42333 41459
L42314 41421
L42314 41346
L42333 41309
L42351 41290
L42389 41271
" />
</g>
<g style="fill:#840084; fill-opacity:0.0; 
stroke:#840084; stroke-width:59.0551; stroke-opacity:1; 
stroke-linecap:round; stroke-linejoin:round;">
</g>
<g style="fill:#840084; fill-opacity:0.0; 
stroke:#840084; stroke-width:78.7402; stroke-opacity:1; 
stroke-linecap:round; stroke-linejoin:round;">
<path d="M27466 45372
L27630 45138
" />
<path d="M27747 45372
L27747 44880
L27560 44880
L27513 44903
L27489 44927
L27466 44974
L27466 45044
L27489 45091
L27513 45114
L27560 45138
L27747 45138
" />
<path d="M27021 44880
L27255 44880
L27278 45114
L27255 45091
L27208 45067
L27091 45067
L27044 45091
L27021 45114
L26997 45161
L26997 45278
L27021 45325
L27044 45349
L27091 45372
L27208 45372
L27255 45349
L27278 45325
" />
<path d="M26833 44880
L26528 44880
L26693 45067
L26622 45067
L26575 45091
L26552 45114
L26528 45161
L26528 45278
L26552 45325
L26575 45349
L26622 45372
L26763 45372
L26810 45349
L26833 45325
" />
<path d="M37716 45347
L37880 45113
" />
<path d="M37997 45347
L37997 44855
L37810 44855
L37763 44878
L37739 44902
L37716 44949
L37716 45019
L37739 45066
L37763 45089
L37810 45113
L37997 45113
" />
<path d="M37271 44855
L37505 44855
L37528 45089
L37505 45066
L37458 45042
L37341 45042
L37294 45066
L37271 45089
L37247 45136
L37247 45253
L37271 45300
L37294 45324
L37341 45347
L37458 45347
L37505 45324
L37528 45300
" />
<path d="M36825 45019
L36825 45347
" />
<path d="M36943 44832
L37060 45183
L36755 45183
" />
</g>
<g style="fill:#840000; fill-opacity:0.0; 
stroke:#840000; stroke-width:78.7402; stroke-opacity:1; 
stroke-linecap:round; stroke-linejoin:round;">
</g>
<g style="fill:#840000; fill-opacity:0.0; 
stroke:#840000; stroke-width:59.0551; stroke-opacity:1; 
stroke-linecap:round; stroke-linejoin:round;">
<path d="M44954 54838
L45095 54838
L45109 54978
L45095 54964
L45067 54950
L44996 54950
L44968 54964
L44954 54978
L44940 55007
L44940 55077
L44954 55105
L44968 55119
L44996 55133
L45067 55133
L45095 55119
L45109 55105
" />
<path d="M45968 54838
L46025 54838
L46053 54852
L46067 54866
L46095 54908
L46109 54964
L46109 55077
L46095 55105
L46081 55119
L46053 55133
L45996 55133
L45968 55119
L45954 55105
L45940 55077
L45940 55007
L45954 54978
L45968 54964
L45996 54950
L46053 54950
L46081 54964
L46095 54978
L46109 55007
" />
</g>
<g style="fill:#840084; fill-opacity:0.0; 
stroke:#840084; stroke-width:59.0551; stroke-opacity:1; 
stroke-linecap:round; stroke-linejoin:round;">
<path d="M42750 42093
L42750 42566
" />
<path d="M43439 42566
L43439 42093
" />
<path d="M43430 42093
L43430 42566
" />
<path d="M44119 42566
L44119 42093
" />
</g>
<g style="fill:#840084; fill-opacity:0.0; 
stroke:#840084; stroke-width:50; stroke-opacity:1; 
stroke-linecap:round; stroke-linejoin:round;">
<path d="M50472 44461
L44567 44461
" />
<path d="M44567 42099
L50472 42099
" />
<path d="M44567 42099
L44567 44461
" />
<path d="M50472 44461
L50472 42099
" />
<circle cx="50269" cy="44208" r="160.078" /> 
<path d="M41970 50070
L41970 50970
" />
<path d="M41970 50970
L41320 50970
" />
<path d="M40620 50070
L39970 50070
" />
<path d="M39970 50070
L39970 50970
" />
<path d="M39970 50970
L40620 50970
" />
<path d="M41320 50070
L41970 50070
" />
</g>
<g style="fill:#840084; fill-opacity:0.0; 
stroke:#840084; stroke-width:59.0551; stroke-opacity:1; 
stroke-linecap:round; stroke-linejoin:round;">
<path d="M49005 48826
L49005 48433
" />
<path d="M49674 48433
L49674 48826
" />
<path d="M49414 50313
L49414 50706
" />
<path d="M48745 50706
L48745 50313
" />
<path d="M50643 49265
L51036 49265
" />
<path d="M51036 49934
L50643 49934
" />
<path d="M48424 50303
L48424 50696
" />
<path d="M47755 50696
L47755 50303
" />
<path d="M45545 50626
L45545 50233
" />
<path d="M46214 50233
L46214 50626
" />
</g>
<g style="fill:#840084; fill-opacity:0.0; 
stroke:#840084; stroke-width:50; stroke-opacity:1; 
stroke-linecap:round; stroke-linejoin:round;">
<path d="M44735 49980
L44735 48880
" />
<path d="M44960 49980
L43560 49980
" />
<path d="M43560 49980
L43560 48880
" />
<path d="M43560 48880
L44960 48880
" />
<path d="M44960 48880
L44960 49980
" />
</g>
<g style="fill:#840084; fill-opacity:0.0; 
stroke:#840084; stroke-width:59.0551; stroke-opacity:1; 
stroke-linecap:round; stroke-linejoin:round;">
<path d="M52515 49416
L52515 49023
" />
<path d="M53184 49023
L53184 49416
" />
</g>
<g style="fill:#840084; fill-opacity:0.0; 
stroke:#840084; stroke-width:50; stroke-opacity:1; 
stroke-linecap:round; stroke-linejoin:round;">
<path d="M41970 51260
L41970 52160
" />
<path d="M41970 52160
L41320 52160
" />
<path d="M40620 51260
L39970 51260
" />
<path d="M39970 51260
L39970 52160
" />
<path d="M39970 52160
L40620 52160
" />
<path d="M41320 51260
L41970 51260
" />
<path d="M43205 44755
L44105 44755
" />
<path d="M44105 44755
L44105 45405
" />
<path d="M43205 46105
L43205 46755
" />
<path d="M43205 46755
L44105 46755
" />
<path d="M44105 46755
L44105 46105
" />
<path d="M43205 45405
L43205 44755
" />
<path d="M42255 44755
L43155 44755
" />
<path d="M43155 44755
L43155 45405
" />
<path d="M42255 46105
L42255 46755
" />
<path d="M42255 46755
L43155 46755
" />
<path d="M43155 46755
L43155 46105
" />
<path d="M42255 45405
L42255 44755
" />
<path d="M41275 44755
L42175 44755
" />
<path d="M42175 44755
L42175 45405
" />
<path d="M41275 46105
L41275 46755
" />
<path d="M41275 46755
L42175 46755
" />
<path d="M42175 46755
L42175 46105
" />
<path d="M41275 45405
L41275 44755
" />
<path d="M41840 54390
L41840 52390
" />
<path d="M40140 54390
L40140 52390
" />
<path d="M39890 54390
L42090 54390
" />
<path d="M42090 54390
L42090 52390
" />
<path d="M42090 52390
L39890 52390
" />
<path d="M39890 52390
L39890 54390
" />
</g>
<g style="fill:#840084; fill-opacity:0.0; 
stroke:#840084; stroke-width:59.0551; stroke-opacity:1; 
stroke-linecap:round; stroke-linejoin:round;">
<path d="M47424 50979
L47424 51373
" />
<path d="M46755 51373
L46755 50979
" />
</g>
<g style="fill:#840084; fill-opacity:0.0; 
stroke:#840084; stroke-width:150; stroke-opacity:1; 
stroke-linecap:round; stroke-linejoin:round;">
<path d="M29802 50315
L25708 50315
" />
<path d="M25708 50315
L25708 53385
" />
<path d="M25708 53385
L26653 53897
" />
<path d="M26653 53897
L28857 53897
" />
<path d="M28857 53897
L29802 53385
" />
<path d="M29802 53385
L29802 50315
" />
<path d="M34232 50315
L30138 50315
" />
<path d="M30138 50315
L30138 53385
" />
<path d="M30138 53385
L31083 53897
" />
<path d="M31083 53897
L33287 53897
" />
<path d="M33287 53897
L34232 53385
" />
<path d="M34232 53385
L34232 50315
" />
<path d="M38661 50315
L34567 50315
" />
<path d="M34567 50315
L34567 53385
" />
<path d="M34567 53385
L35512 53897
" />
<path d="M35512 53897
L37716 53897
" />
<path d="M37716 53897
L38661 53385
" />
<path d="M38661 53385
L38661 50315
" />
</g>
<g style="fill:#840084; fill-opacity:0.0; 
stroke:#840084; stroke-width:59.0551; stroke-opacity:1; 
stroke-linecap:round; stroke-linejoin:round;">
<path d="M39175 48083
L39175 48556
" />
<path d="M39864 48556
L39864 48083
" />
<path d="M51685 55233
L51685 55706
" />
<path d="M52374 55706
L52374 55233
" />
<path d="M48695 55229
L48695 55702
" />
<path d="M49384 55702
L49384 55229
" />
<path d="M49695 55223
L49695 55696
" />
<path d="M50384 55696
L50384 55223
" />
<path d="M50695 55229
L50695 55702
" />
<path d="M51384 55702
L51384 55229
" />
<path d="M51726 54105
L51253 54105
" />
<path d="M51253 54794
L51726 54794
" />
<path d="M51736 53455
L51263 53455
" />
<path d="M51263 54144
L51736 54144
" />
<path d="M51746 52755
L51273 52755
" />
<path d="M51273 53444
L51746 53444
" />
<path d="M53314 46226
L53314 45753
" />
<path d="M52625 45753
L52625 46226
" />
<path d="M52624 46226
L52624 45753
" />
<path d="M51935 45753
L51935 46226
" />
<path d="M41274 42571
L41274 42098
" />
<path d="M40585 42098
L40585 42571
" />
<path d="M51934 46216
L51934 45743
" />
<path d="M51245 45743
L51245 46216
" />
<path d="M41989 42571
L41989 42098
" />
<path d="M41300 42098
L41300 42571
" />
<path d="M42724 42571
L42724 42098
" />
<path d="M42035 42098
L42035 42571
" />
</g>
<g style="fill:#840084; fill-opacity:0.0; 
stroke:#840084; stroke-width:150; stroke-opacity:1; 
stroke-linecap:round; stroke-linejoin:round;">
<path d="M31468 43741
L31468 46341
" />
<path d="M31468 46341
L28768 46341
" />
<path d="M28768 46341
L28768 43741
" />
<path d="M28768 43741
L31468 43741
" />
<path d="M35798 43741
L35798 46341
" />
<path d="M35798 46341
L33098 46341
" />
<path d="M33098 46341
L33098 43741
" />
<path d="M33098 43741
L35798 43741
" />
</g>
<g style="fill:#840084; fill-opacity:0.0; 
stroke:#840084; stroke-width:80; stroke-opacity:1; 
stroke-linecap:round; stroke-linejoin:round;">
<path d="M45590 53160
L45590 54360
" />
<path d="M45590 54360
L42790 54360
" />
<path d="M42790 54360
L42790 53160
" />
<path d="M45590 51960
L45590 51660
" />
<path d="M45590 51660
L44990 50760
" />
<path d="M44990 50760
L43390 50760
" />
<path d="M43390 50760
L42790 51660
" />
<path d="M42790 51660
L42790 51960
" />
</g>
<g style="fill:#840084; fill-opacity:0.0; 
stroke:#840084; stroke-width:50; stroke-opacity:1; 
stroke-linecap:round; stroke-linejoin:round;">
<path d="M45630 52570
L45630 52520
" />
<path d="M45630 52520
L47730 52520
" />
<path d="M47730 54020
L45630 54020
" />
<path d="M45630 54020
L45630 52570
" />
<path d="M45630 53470
L45830 53470
" />
<path d="M45830 53470
L45830 53070
" />
<path d="M45830 53070
L45630 53070
" />
<path d="M47730 54020
L47730 52520
" />
</g>
<g style="fill:#840084; fill-opacity:0.0; 
stroke:#840084; stroke-width:59.0551; stroke-opacity:1; 
stroke-linecap:round; stroke-linejoin:round;">
<path d="M44783 55598
L44783 55873
" />
<path d="M45256 55873
L45256 55598
" />
<path d="M45785 55578
L45785 55853
" />
<path d="M46258 55853
L46258 55578
" />
</g> 
</svg>
