G04 #@! TF.FileFunction,Legend,Bot*
%FSLAX46Y46*%
G04 Gerber Fmt 4.6, Leading zero omitted, Abs format (unit mm)*
G04 Created by KiCad (PCBNEW 4.0.4-stable) date 06/13/17 21:08:50*
%MOMM*%
%LPD*%
G01*
G04 APERTURE LIST*
%ADD10C,0.100000*%
%ADD11C,0.250000*%
%ADD12C,0.010000*%
G04 APERTURE END LIST*
D10*
D11*
X194133334Y-111877381D02*
X194466668Y-111401190D01*
X194704763Y-111877381D02*
X194704763Y-110877381D01*
X194323810Y-110877381D01*
X194228572Y-110925000D01*
X194180953Y-110972619D01*
X194133334Y-111067857D01*
X194133334Y-111210714D01*
X194180953Y-111305952D01*
X194228572Y-111353571D01*
X194323810Y-111401190D01*
X194704763Y-111401190D01*
X193561906Y-111877381D02*
X193657144Y-111829762D01*
X193704763Y-111782143D01*
X193752382Y-111686905D01*
X193752382Y-111401190D01*
X193704763Y-111305952D01*
X193657144Y-111258333D01*
X193561906Y-111210714D01*
X193419048Y-111210714D01*
X193323810Y-111258333D01*
X193276191Y-111305952D01*
X193228572Y-111401190D01*
X193228572Y-111686905D01*
X193276191Y-111782143D01*
X193323810Y-111829762D01*
X193419048Y-111877381D01*
X193561906Y-111877381D01*
X192895239Y-111210714D02*
X192657144Y-111877381D01*
X192419048Y-111210714D01*
X191657143Y-111829762D02*
X191752381Y-111877381D01*
X191942858Y-111877381D01*
X192038096Y-111829762D01*
X192085715Y-111734524D01*
X192085715Y-111353571D01*
X192038096Y-111258333D01*
X191942858Y-111210714D01*
X191752381Y-111210714D01*
X191657143Y-111258333D01*
X191609524Y-111353571D01*
X191609524Y-111448810D01*
X192085715Y-111544048D01*
X191180953Y-111877381D02*
X191180953Y-111210714D01*
X191180953Y-111401190D02*
X191133334Y-111305952D01*
X191085715Y-111258333D01*
X190990477Y-111210714D01*
X190895238Y-111210714D01*
X189800000Y-111877381D02*
X189800000Y-110877381D01*
X189323810Y-111877381D02*
X189323810Y-110877381D01*
X188990476Y-111591667D01*
X188657143Y-110877381D01*
X188657143Y-111877381D01*
X188180953Y-110877381D02*
X188180953Y-111686905D01*
X188133334Y-111782143D01*
X188085715Y-111829762D01*
X187990477Y-111877381D01*
X187800000Y-111877381D01*
X187704762Y-111829762D01*
X187657143Y-111782143D01*
X187609524Y-111686905D01*
X187609524Y-110877381D01*
X186371429Y-111877381D02*
X186371429Y-110877381D01*
X185800000Y-111877381D01*
X185800000Y-110877381D01*
X184895238Y-111877381D02*
X184895238Y-111353571D01*
X184942857Y-111258333D01*
X185038095Y-111210714D01*
X185228572Y-111210714D01*
X185323810Y-111258333D01*
X184895238Y-111829762D02*
X184990476Y-111877381D01*
X185228572Y-111877381D01*
X185323810Y-111829762D01*
X185371429Y-111734524D01*
X185371429Y-111639286D01*
X185323810Y-111544048D01*
X185228572Y-111496429D01*
X184990476Y-111496429D01*
X184895238Y-111448810D01*
X184514286Y-111210714D02*
X184276191Y-111877381D01*
X184038095Y-111210714D01*
X183657143Y-111877381D02*
X183657143Y-111210714D01*
X183657143Y-110877381D02*
X183704762Y-110925000D01*
X183657143Y-110972619D01*
X183609524Y-110925000D01*
X183657143Y-110877381D01*
X183657143Y-110972619D01*
X182752381Y-111210714D02*
X182752381Y-112020238D01*
X182800000Y-112115476D01*
X182847619Y-112163095D01*
X182942858Y-112210714D01*
X183085715Y-112210714D01*
X183180953Y-112163095D01*
X182752381Y-111829762D02*
X182847619Y-111877381D01*
X183038096Y-111877381D01*
X183133334Y-111829762D01*
X183180953Y-111782143D01*
X183228572Y-111686905D01*
X183228572Y-111401190D01*
X183180953Y-111305952D01*
X183133334Y-111258333D01*
X183038096Y-111210714D01*
X182847619Y-111210714D01*
X182752381Y-111258333D01*
X181847619Y-111877381D02*
X181847619Y-111353571D01*
X181895238Y-111258333D01*
X181990476Y-111210714D01*
X182180953Y-111210714D01*
X182276191Y-111258333D01*
X181847619Y-111829762D02*
X181942857Y-111877381D01*
X182180953Y-111877381D01*
X182276191Y-111829762D01*
X182323810Y-111734524D01*
X182323810Y-111639286D01*
X182276191Y-111544048D01*
X182180953Y-111496429D01*
X181942857Y-111496429D01*
X181847619Y-111448810D01*
X181514286Y-111210714D02*
X181133334Y-111210714D01*
X181371429Y-110877381D02*
X181371429Y-111734524D01*
X181323810Y-111829762D01*
X181228572Y-111877381D01*
X181133334Y-111877381D01*
X180800000Y-111877381D02*
X180800000Y-111210714D01*
X180800000Y-110877381D02*
X180847619Y-110925000D01*
X180800000Y-110972619D01*
X180752381Y-110925000D01*
X180800000Y-110877381D01*
X180800000Y-110972619D01*
X180180953Y-111877381D02*
X180276191Y-111829762D01*
X180323810Y-111782143D01*
X180371429Y-111686905D01*
X180371429Y-111401190D01*
X180323810Y-111305952D01*
X180276191Y-111258333D01*
X180180953Y-111210714D01*
X180038095Y-111210714D01*
X179942857Y-111258333D01*
X179895238Y-111305952D01*
X179847619Y-111401190D01*
X179847619Y-111686905D01*
X179895238Y-111782143D01*
X179942857Y-111829762D01*
X180038095Y-111877381D01*
X180180953Y-111877381D01*
X179419048Y-111210714D02*
X179419048Y-111877381D01*
X179419048Y-111305952D02*
X179371429Y-111258333D01*
X179276191Y-111210714D01*
X179133333Y-111210714D01*
X179038095Y-111258333D01*
X178990476Y-111353571D01*
X178990476Y-111877381D01*
X177419047Y-111353571D02*
X177276190Y-111401190D01*
X177228571Y-111448810D01*
X177180952Y-111544048D01*
X177180952Y-111686905D01*
X177228571Y-111782143D01*
X177276190Y-111829762D01*
X177371428Y-111877381D01*
X177752381Y-111877381D01*
X177752381Y-110877381D01*
X177419047Y-110877381D01*
X177323809Y-110925000D01*
X177276190Y-110972619D01*
X177228571Y-111067857D01*
X177228571Y-111163095D01*
X177276190Y-111258333D01*
X177323809Y-111305952D01*
X177419047Y-111353571D01*
X177752381Y-111353571D01*
X176609524Y-111877381D02*
X176704762Y-111829762D01*
X176752381Y-111782143D01*
X176800000Y-111686905D01*
X176800000Y-111401190D01*
X176752381Y-111305952D01*
X176704762Y-111258333D01*
X176609524Y-111210714D01*
X176466666Y-111210714D01*
X176371428Y-111258333D01*
X176323809Y-111305952D01*
X176276190Y-111401190D01*
X176276190Y-111686905D01*
X176323809Y-111782143D01*
X176371428Y-111829762D01*
X176466666Y-111877381D01*
X176609524Y-111877381D01*
X175419047Y-111877381D02*
X175419047Y-111353571D01*
X175466666Y-111258333D01*
X175561904Y-111210714D01*
X175752381Y-111210714D01*
X175847619Y-111258333D01*
X175419047Y-111829762D02*
X175514285Y-111877381D01*
X175752381Y-111877381D01*
X175847619Y-111829762D01*
X175895238Y-111734524D01*
X175895238Y-111639286D01*
X175847619Y-111544048D01*
X175752381Y-111496429D01*
X175514285Y-111496429D01*
X175419047Y-111448810D01*
X174942857Y-111877381D02*
X174942857Y-111210714D01*
X174942857Y-111401190D02*
X174895238Y-111305952D01*
X174847619Y-111258333D01*
X174752381Y-111210714D01*
X174657142Y-111210714D01*
X173895237Y-111877381D02*
X173895237Y-110877381D01*
X173895237Y-111829762D02*
X173990475Y-111877381D01*
X174180952Y-111877381D01*
X174276190Y-111829762D01*
X174323809Y-111782143D01*
X174371428Y-111686905D01*
X174371428Y-111401190D01*
X174323809Y-111305952D01*
X174276190Y-111258333D01*
X174180952Y-111210714D01*
X173990475Y-111210714D01*
X173895237Y-111258333D01*
X188776192Y-112627381D02*
X188204763Y-112627381D01*
X188490478Y-113627381D02*
X188490478Y-112627381D01*
X187966668Y-112960714D02*
X187728573Y-113627381D01*
X187490477Y-112960714D02*
X187728573Y-113627381D01*
X187823811Y-113865476D01*
X187871430Y-113913095D01*
X187966668Y-113960714D01*
X187109525Y-113627381D02*
X187109525Y-112960714D01*
X187109525Y-113151190D02*
X187061906Y-113055952D01*
X187014287Y-113008333D01*
X186919049Y-112960714D01*
X186823810Y-112960714D01*
X186109524Y-113579762D02*
X186204762Y-113627381D01*
X186395239Y-113627381D01*
X186490477Y-113579762D01*
X186538096Y-113484524D01*
X186538096Y-113103571D01*
X186490477Y-113008333D01*
X186395239Y-112960714D01*
X186204762Y-112960714D01*
X186109524Y-113008333D01*
X186061905Y-113103571D01*
X186061905Y-113198810D01*
X186538096Y-113294048D01*
X185490477Y-113627381D02*
X185585715Y-113579762D01*
X185633334Y-113484524D01*
X185633334Y-112627381D01*
X184347619Y-113627381D02*
X184347619Y-112627381D01*
X183776190Y-113627381D02*
X184204762Y-113055952D01*
X183776190Y-112627381D02*
X184347619Y-113198810D01*
X183204762Y-113627381D02*
X183300000Y-113579762D01*
X183347619Y-113532143D01*
X183395238Y-113436905D01*
X183395238Y-113151190D01*
X183347619Y-113055952D01*
X183300000Y-113008333D01*
X183204762Y-112960714D01*
X183061904Y-112960714D01*
X182966666Y-113008333D01*
X182919047Y-113055952D01*
X182871428Y-113151190D01*
X182871428Y-113436905D01*
X182919047Y-113532143D01*
X182966666Y-113579762D01*
X183061904Y-113627381D01*
X183204762Y-113627381D01*
X182490476Y-113579762D02*
X182395238Y-113627381D01*
X182204762Y-113627381D01*
X182109523Y-113579762D01*
X182061904Y-113484524D01*
X182061904Y-113436905D01*
X182109523Y-113341667D01*
X182204762Y-113294048D01*
X182347619Y-113294048D01*
X182442857Y-113246429D01*
X182490476Y-113151190D01*
X182490476Y-113103571D01*
X182442857Y-113008333D01*
X182347619Y-112960714D01*
X182204762Y-112960714D01*
X182109523Y-113008333D01*
X181776190Y-112960714D02*
X181395238Y-112960714D01*
X181633333Y-112627381D02*
X181633333Y-113484524D01*
X181585714Y-113579762D01*
X181490476Y-113627381D01*
X181395238Y-113627381D01*
X181157142Y-112960714D02*
X180919047Y-113627381D01*
X180680951Y-112960714D02*
X180919047Y-113627381D01*
X181014285Y-113865476D01*
X181061904Y-113913095D01*
X181157142Y-113960714D01*
X180299999Y-113627381D02*
X180299999Y-112627381D01*
X180204761Y-113246429D02*
X179919046Y-113627381D01*
X179919046Y-112960714D02*
X180299999Y-113341667D01*
D12*
G36*
X186180139Y-100999918D02*
X186030762Y-101004198D01*
X185901803Y-101010541D01*
X185788325Y-101019496D01*
X185685391Y-101031610D01*
X185588066Y-101047430D01*
X185491412Y-101067503D01*
X185423927Y-101083767D01*
X185245662Y-101138100D01*
X185088671Y-101205876D01*
X184952417Y-101287518D01*
X184836366Y-101383452D01*
X184739981Y-101494101D01*
X184662726Y-101619890D01*
X184618139Y-101721419D01*
X184602607Y-101763898D01*
X184589222Y-101804099D01*
X184577824Y-101844224D01*
X184568256Y-101886476D01*
X184560357Y-101933054D01*
X184553969Y-101986161D01*
X184548933Y-102047997D01*
X184545089Y-102120765D01*
X184542278Y-102206665D01*
X184540342Y-102307900D01*
X184539121Y-102426669D01*
X184538456Y-102565176D01*
X184538188Y-102725621D01*
X184538152Y-102828175D01*
X184538100Y-103587000D01*
X185909700Y-103587000D01*
X185909700Y-102878490D01*
X185909701Y-102169981D01*
X185938275Y-102113315D01*
X185978064Y-102062127D01*
X186038261Y-102024129D01*
X186117309Y-101999759D01*
X186213651Y-101989451D01*
X186325729Y-101993644D01*
X186354178Y-101996780D01*
X186433606Y-102009974D01*
X186492651Y-102028632D01*
X186536135Y-102055068D01*
X186568879Y-102091594D01*
X186576450Y-102103397D01*
X186582163Y-102113702D01*
X186586948Y-102125497D01*
X186590889Y-102140986D01*
X186594067Y-102162372D01*
X186596564Y-102191857D01*
X186598461Y-102231644D01*
X186599842Y-102283936D01*
X186600787Y-102350936D01*
X186601378Y-102434846D01*
X186601698Y-102537870D01*
X186601828Y-102662211D01*
X186601850Y-102786900D01*
X186601814Y-102939291D01*
X186601544Y-103068619D01*
X186600801Y-103177217D01*
X186599346Y-103267423D01*
X186596941Y-103341571D01*
X186593345Y-103401997D01*
X186588319Y-103451037D01*
X186581624Y-103491027D01*
X186573020Y-103524302D01*
X186562270Y-103553197D01*
X186549132Y-103580049D01*
X186533368Y-103607193D01*
X186514761Y-103636929D01*
X186492261Y-103671249D01*
X186468076Y-103705081D01*
X186440733Y-103739845D01*
X186408758Y-103776959D01*
X186370679Y-103817845D01*
X186325021Y-103863922D01*
X186270313Y-103916609D01*
X186205080Y-103977328D01*
X186127849Y-104047496D01*
X186037147Y-104128534D01*
X185931502Y-104221863D01*
X185809439Y-104328901D01*
X185674750Y-104446479D01*
X185503105Y-104597852D01*
X185350800Y-104736087D01*
X185216436Y-104862711D01*
X185098615Y-104979250D01*
X184995939Y-105087232D01*
X184907009Y-105188184D01*
X184830427Y-105283633D01*
X184764794Y-105375107D01*
X184708711Y-105464131D01*
X184660781Y-105552233D01*
X184659144Y-105555500D01*
X184624573Y-105628424D01*
X184594663Y-105700705D01*
X184569134Y-105774659D01*
X184547704Y-105852600D01*
X184530093Y-105936842D01*
X184516022Y-106029702D01*
X184505209Y-106133493D01*
X184497374Y-106250531D01*
X184492237Y-106383130D01*
X184489516Y-106533606D01*
X184488933Y-106704273D01*
X184490205Y-106897445D01*
X184490732Y-106945462D01*
X184492747Y-107095539D01*
X184495151Y-107223028D01*
X184498169Y-107330744D01*
X184502024Y-107421500D01*
X184506942Y-107498108D01*
X184513147Y-107563381D01*
X184520862Y-107620132D01*
X184530313Y-107671175D01*
X184541722Y-107719322D01*
X184555316Y-107767385D01*
X184556607Y-107771650D01*
X184567595Y-107809378D01*
X184574657Y-107836724D01*
X184576063Y-107844675D01*
X184563956Y-107847227D01*
X184529778Y-107849520D01*
X184476857Y-107851460D01*
X184408522Y-107852950D01*
X184328100Y-107853895D01*
X184245145Y-107854200D01*
X184144888Y-107854104D01*
X184067248Y-107853690D01*
X184009444Y-107852767D01*
X183968691Y-107851144D01*
X183942209Y-107848630D01*
X183927214Y-107845034D01*
X183920923Y-107840166D01*
X183920556Y-107833834D01*
X183921071Y-107831975D01*
X183944952Y-107745744D01*
X183966899Y-107648118D01*
X183984203Y-107552050D01*
X183992145Y-107492250D01*
X183994297Y-107459237D01*
X183996334Y-107403387D01*
X183998222Y-107327262D01*
X183999925Y-107233426D01*
X184001410Y-107124441D01*
X184002642Y-107002869D01*
X184003586Y-106871274D01*
X184004209Y-106732217D01*
X184004475Y-106588263D01*
X184004480Y-106574675D01*
X184004700Y-105771400D01*
X182570133Y-105771400D01*
X182566692Y-106606425D01*
X182566075Y-106777190D01*
X182565570Y-106924411D01*
X182564934Y-107049940D01*
X182563920Y-107155630D01*
X182562285Y-107243335D01*
X182559784Y-107314907D01*
X182556173Y-107372199D01*
X182551205Y-107417065D01*
X182544638Y-107451356D01*
X182536226Y-107476926D01*
X182525724Y-107495629D01*
X182512888Y-107509316D01*
X182497473Y-107519841D01*
X182479234Y-107529056D01*
X182457928Y-107538816D01*
X182442600Y-107546187D01*
X182409831Y-107561547D01*
X182380394Y-107571624D01*
X182347513Y-107577515D01*
X182304411Y-107580317D01*
X182244312Y-107581129D01*
X182226700Y-107581150D01*
X182135684Y-107578517D01*
X182064580Y-107569634D01*
X182008355Y-107553021D01*
X181961972Y-107527201D01*
X181921065Y-107491381D01*
X181877450Y-107446377D01*
X181877450Y-106107950D01*
X181922966Y-106012700D01*
X181948678Y-105962737D01*
X181978448Y-105913018D01*
X182013737Y-105862045D01*
X182056009Y-105808324D01*
X182106727Y-105750357D01*
X182167354Y-105686648D01*
X182239353Y-105615702D01*
X182324187Y-105536022D01*
X182423319Y-105446112D01*
X182538212Y-105344476D01*
X182670328Y-105229618D01*
X182785779Y-105130314D01*
X182960712Y-104978659D01*
X183115847Y-104840442D01*
X183252255Y-104714620D01*
X183371007Y-104600152D01*
X183473172Y-104495993D01*
X183559821Y-104401102D01*
X183632025Y-104314436D01*
X183657600Y-104281174D01*
X183733479Y-104171769D01*
X183804381Y-104054135D01*
X183866327Y-103935585D01*
X183915341Y-103823434D01*
X183932641Y-103775430D01*
X183945819Y-103734359D01*
X183957114Y-103695138D01*
X183966669Y-103655498D01*
X183974628Y-103613168D01*
X183981132Y-103565878D01*
X183986324Y-103511356D01*
X183990347Y-103447334D01*
X183993344Y-103371539D01*
X183995456Y-103281703D01*
X183996827Y-103175554D01*
X183997599Y-103050823D01*
X183997914Y-102905238D01*
X183997916Y-102736529D01*
X183997916Y-102736100D01*
X183997482Y-102005850D01*
X183963807Y-101882357D01*
X183909550Y-101726598D01*
X183835964Y-101587089D01*
X183742615Y-101463299D01*
X183629071Y-101354701D01*
X183494896Y-101260764D01*
X183420500Y-101219419D01*
X183327287Y-101175242D01*
X183229738Y-101137065D01*
X183123688Y-101103729D01*
X183004974Y-101074075D01*
X182869433Y-101046944D01*
X182712901Y-101021177D01*
X182702950Y-101019679D01*
X182641142Y-101012976D01*
X182558457Y-101007802D01*
X182459370Y-101004128D01*
X182348357Y-101001931D01*
X182229895Y-101001183D01*
X182108458Y-101001858D01*
X181988522Y-101003931D01*
X181874562Y-101007375D01*
X181771054Y-101012164D01*
X181682475Y-101018273D01*
X181613298Y-101025675D01*
X181610750Y-101026033D01*
X181402364Y-101062870D01*
X181216171Y-101111160D01*
X181051486Y-101171321D01*
X180907623Y-101243772D01*
X180783896Y-101328935D01*
X180679620Y-101427227D01*
X180594110Y-101539069D01*
X180526679Y-101664880D01*
X180512851Y-101697849D01*
X180497185Y-101737473D01*
X180483675Y-101773470D01*
X180472148Y-101808003D01*
X180462432Y-101843236D01*
X180454357Y-101881335D01*
X180447750Y-101924463D01*
X180442440Y-101974785D01*
X180438255Y-102034465D01*
X180435023Y-102105667D01*
X180432573Y-102190555D01*
X180430733Y-102291293D01*
X180429331Y-102410047D01*
X180428195Y-102548980D01*
X180427155Y-102710256D01*
X180426714Y-102783724D01*
X180421913Y-103586999D01*
X181108407Y-103586999D01*
X181794900Y-103587000D01*
X181794900Y-102879809D01*
X181794925Y-102727786D01*
X181795049Y-102599043D01*
X181795343Y-102491458D01*
X181795883Y-102402913D01*
X181796741Y-102331285D01*
X181797991Y-102274455D01*
X181799705Y-102230302D01*
X181801957Y-102196706D01*
X181804820Y-102171546D01*
X181808367Y-102152701D01*
X181812672Y-102138052D01*
X181817807Y-102125478D01*
X181821202Y-102118288D01*
X181851302Y-102071906D01*
X181892697Y-102038243D01*
X181949863Y-102014741D01*
X182027277Y-101998840D01*
X182031130Y-101998287D01*
X182148575Y-101989299D01*
X182255398Y-101996394D01*
X182347390Y-102019188D01*
X182372361Y-102029437D01*
X182396801Y-102040367D01*
X182417506Y-102050355D01*
X182434783Y-102061479D01*
X182448942Y-102075814D01*
X182460293Y-102095437D01*
X182469143Y-102122423D01*
X182475803Y-102158849D01*
X182480582Y-102206790D01*
X182483789Y-102268324D01*
X182485733Y-102345525D01*
X182486723Y-102440471D01*
X182487068Y-102555237D01*
X182487078Y-102691899D01*
X182487050Y-102799600D01*
X182487033Y-102945175D01*
X182486920Y-103067618D01*
X182486622Y-103169199D01*
X182486047Y-103252185D01*
X182485106Y-103318845D01*
X182483707Y-103371448D01*
X182481761Y-103412263D01*
X182479177Y-103443557D01*
X182475865Y-103467599D01*
X182471733Y-103486658D01*
X182466692Y-103503003D01*
X182460652Y-103518901D01*
X182458117Y-103525193D01*
X182435994Y-103571500D01*
X182404739Y-103626660D01*
X182370761Y-103679436D01*
X182367606Y-103683943D01*
X182347342Y-103712239D01*
X182327250Y-103739044D01*
X182305954Y-103765645D01*
X182282074Y-103793332D01*
X182254231Y-103823395D01*
X182221047Y-103857123D01*
X182181143Y-103895805D01*
X182133140Y-103940730D01*
X182075660Y-103993188D01*
X182007323Y-104054467D01*
X181926752Y-104125858D01*
X181832568Y-104208650D01*
X181723391Y-104304131D01*
X181597844Y-104413591D01*
X181454547Y-104538319D01*
X181446356Y-104545445D01*
X181371669Y-104611800D01*
X181286197Y-104689992D01*
X181196810Y-104773595D01*
X181110375Y-104856184D01*
X181033762Y-104931333D01*
X181032298Y-104932795D01*
X180891569Y-105079061D01*
X180771799Y-105216502D01*
X180671360Y-105347908D01*
X180588624Y-105476070D01*
X180521960Y-105603779D01*
X180469741Y-105733826D01*
X180430337Y-105869001D01*
X180402120Y-106012096D01*
X180402026Y-106012700D01*
X180396700Y-106049645D01*
X180392252Y-106088106D01*
X180388603Y-106130679D01*
X180385678Y-106179960D01*
X180383400Y-106238544D01*
X180381692Y-106309028D01*
X180380479Y-106394005D01*
X180379684Y-106496073D01*
X180379230Y-106617827D01*
X180379042Y-106761863D01*
X180379029Y-106793750D01*
X180379175Y-106957900D01*
X180379821Y-107099079D01*
X180381131Y-107219711D01*
X180383268Y-107322223D01*
X180386395Y-107409041D01*
X180390675Y-107482589D01*
X180396272Y-107545295D01*
X180403349Y-107599583D01*
X180412069Y-107647880D01*
X180422596Y-107692611D01*
X180435092Y-107736202D01*
X180444422Y-107765300D01*
X180494296Y-107887959D01*
X180563984Y-108012596D01*
X180591817Y-108055117D01*
X180611878Y-108086500D01*
X180623395Y-108107988D01*
X180624550Y-108113537D01*
X180611265Y-108116239D01*
X180576387Y-108121889D01*
X180523481Y-108129950D01*
X180456111Y-108139885D01*
X180377845Y-108151156D01*
X180328050Y-108158209D01*
X180239841Y-108171103D01*
X180132756Y-108187525D01*
X180012916Y-108206492D01*
X179886442Y-108227017D01*
X179759455Y-108248117D01*
X179638075Y-108268806D01*
X179605796Y-108274414D01*
X179503951Y-108292105D01*
X179409700Y-108308312D01*
X179326056Y-108322529D01*
X179256030Y-108334251D01*
X179202636Y-108342973D01*
X179168885Y-108348189D01*
X179158121Y-108349500D01*
X179155739Y-108346482D01*
X179153575Y-108336689D01*
X179151621Y-108319015D01*
X179149865Y-108292350D01*
X179148299Y-108255588D01*
X179146912Y-108207620D01*
X179145694Y-108147339D01*
X179144635Y-108073637D01*
X179143725Y-107985407D01*
X179142955Y-107881540D01*
X179142314Y-107760929D01*
X179141791Y-107622466D01*
X179141378Y-107465043D01*
X179141065Y-107287553D01*
X179140840Y-107088888D01*
X179140695Y-106867939D01*
X179140618Y-106623601D01*
X179140600Y-106406717D01*
X179140601Y-104463935D01*
X179175525Y-104469555D01*
X179200377Y-104472980D01*
X179244921Y-104478571D01*
X179303608Y-104485651D01*
X179370890Y-104493544D01*
X179397571Y-104496617D01*
X179584692Y-104518059D01*
X179590981Y-104557354D01*
X179592797Y-104576488D01*
X179595967Y-104618785D01*
X179600350Y-104682054D01*
X179605805Y-104764103D01*
X179612191Y-104862739D01*
X179619367Y-104975769D01*
X179627191Y-105101003D01*
X179635523Y-105236248D01*
X179644220Y-105379311D01*
X179648711Y-105453900D01*
X179664287Y-105711873D01*
X179678577Y-105945156D01*
X179691628Y-106154423D01*
X179703488Y-106340350D01*
X179714204Y-106503610D01*
X179723824Y-106644880D01*
X179732396Y-106764833D01*
X179739967Y-106864144D01*
X179746584Y-106943489D01*
X179752294Y-107003541D01*
X179757146Y-107044975D01*
X179761187Y-107068467D01*
X179762655Y-107073150D01*
X179769580Y-107083514D01*
X179773354Y-107073182D01*
X179774864Y-107041400D01*
X179775957Y-107009102D01*
X179778331Y-106957288D01*
X179781694Y-106891791D01*
X179785750Y-106818446D01*
X179788299Y-106774700D01*
X179791505Y-106717270D01*
X179795776Y-106635005D01*
X179801088Y-106528448D01*
X179807414Y-106398140D01*
X179814730Y-106244623D01*
X179823010Y-106068439D01*
X179832229Y-105870129D01*
X179842362Y-105650237D01*
X179853382Y-105409302D01*
X179865265Y-105147869D01*
X179877985Y-104866477D01*
X179885317Y-104703667D01*
X179893642Y-104518584D01*
X180377546Y-104438106D01*
X180485377Y-104420007D01*
X180585340Y-104402911D01*
X180674661Y-104387315D01*
X180750568Y-104373718D01*
X180810290Y-104362618D01*
X180851052Y-104354512D01*
X180870083Y-104349900D01*
X180871045Y-104349434D01*
X180861902Y-104345489D01*
X180830117Y-104339091D01*
X180778291Y-104330595D01*
X180709025Y-104320353D01*
X180624923Y-104308720D01*
X180528585Y-104296049D01*
X180422614Y-104282693D01*
X180309612Y-104269005D01*
X180192179Y-104255340D01*
X180113605Y-104246516D01*
X180042687Y-104238393D01*
X179981002Y-104230801D01*
X179932798Y-104224305D01*
X179902320Y-104219471D01*
X179893596Y-104217228D01*
X179891768Y-104203830D01*
X179888652Y-104167522D01*
X179884411Y-104110756D01*
X179879213Y-104035981D01*
X179873221Y-103945647D01*
X179866603Y-103842204D01*
X179859523Y-103728101D01*
X179852147Y-103605788D01*
X179851108Y-103588283D01*
X179842659Y-103446259D01*
X179833687Y-103296574D01*
X179824501Y-103144279D01*
X179815407Y-102994428D01*
X179806713Y-102852074D01*
X179798725Y-102722268D01*
X179791750Y-102610063D01*
X179788542Y-102559025D01*
X179782242Y-102457915D01*
X179776503Y-102363153D01*
X179771523Y-102278197D01*
X179767497Y-102206505D01*
X179764623Y-102151536D01*
X179763097Y-102116747D01*
X179762900Y-102108074D01*
X179762900Y-102063000D01*
X179677931Y-102063000D01*
X179669634Y-102288425D01*
X179665712Y-102391501D01*
X179661004Y-102509365D01*
X179655642Y-102639147D01*
X179649756Y-102777980D01*
X179643477Y-102922996D01*
X179636937Y-103071325D01*
X179630265Y-103220101D01*
X179623593Y-103366454D01*
X179617050Y-103507516D01*
X179610769Y-103640420D01*
X179604880Y-103762296D01*
X179599513Y-103870278D01*
X179594800Y-103961496D01*
X179590871Y-104033082D01*
X179587856Y-104082168D01*
X179587847Y-104082300D01*
X179578750Y-104215650D01*
X179388250Y-104249245D01*
X179319574Y-104261119D01*
X179257949Y-104271334D01*
X179208563Y-104279063D01*
X179176601Y-104283479D01*
X179169175Y-104284170D01*
X179140600Y-104285500D01*
X179140600Y-102063000D01*
X179677931Y-102063000D01*
X179762900Y-102063000D01*
X180232800Y-102063000D01*
X180232800Y-101072400D01*
X176562500Y-101072400D01*
X176562500Y-102062724D01*
X177635650Y-102069350D01*
X177642048Y-108691408D01*
X177594399Y-108703879D01*
X177559569Y-108712859D01*
X177509474Y-108725608D01*
X177453493Y-108739743D01*
X177438800Y-108743433D01*
X177098109Y-108832528D01*
X176739753Y-108933077D01*
X176367978Y-109043683D01*
X175987030Y-109162948D01*
X175601153Y-109289478D01*
X175214594Y-109421874D01*
X174831597Y-109558741D01*
X174456407Y-109698681D01*
X174093270Y-109840297D01*
X174039789Y-109861724D01*
X173829446Y-109947577D01*
X173610234Y-110039433D01*
X173385453Y-110135790D01*
X173158405Y-110235148D01*
X172932388Y-110336007D01*
X172710704Y-110436868D01*
X172496654Y-110536229D01*
X172293537Y-110632591D01*
X172104654Y-110724453D01*
X171933306Y-110810316D01*
X171796706Y-110881279D01*
X171730341Y-110917237D01*
X171678597Y-110946788D01*
X171642979Y-110968905D01*
X171624988Y-110982561D01*
X171626127Y-110986729D01*
X171647899Y-110980382D01*
X171656400Y-110977165D01*
X171990525Y-110849747D01*
X172342555Y-110720115D01*
X172707655Y-110589884D01*
X173080990Y-110460669D01*
X173457724Y-110334085D01*
X173833024Y-110211746D01*
X174202054Y-110095268D01*
X174559979Y-109986264D01*
X174901965Y-109886351D01*
X175034049Y-109849059D01*
X175943610Y-109608197D01*
X176858635Y-109392089D01*
X177778708Y-109200780D01*
X178703417Y-109034314D01*
X179632348Y-108892734D01*
X180565087Y-108776084D01*
X181501220Y-108684408D01*
X182440334Y-108617749D01*
X183382016Y-108576153D01*
X184325851Y-108559661D01*
X185271426Y-108568319D01*
X186218328Y-108602171D01*
X186601850Y-108623043D01*
X187532834Y-108691226D01*
X188461916Y-108784228D01*
X189388026Y-108901865D01*
X190310095Y-109043956D01*
X191227055Y-109210316D01*
X192137835Y-109400763D01*
X193041368Y-109615114D01*
X193936583Y-109853184D01*
X194167965Y-109918980D01*
X194470154Y-110007962D01*
X194785233Y-110104288D01*
X195107892Y-110206203D01*
X195432822Y-110311952D01*
X195754714Y-110419777D01*
X196068259Y-110527924D01*
X196368146Y-110634636D01*
X196649068Y-110738157D01*
X196679300Y-110749545D01*
X196815434Y-110800682D01*
X196940868Y-110847280D01*
X197053898Y-110888735D01*
X197152817Y-110924440D01*
X197235921Y-110953791D01*
X197301505Y-110976183D01*
X197347864Y-110991011D01*
X197373293Y-110997670D01*
X197377800Y-110997426D01*
X197366657Y-110988384D01*
X197334676Y-110969660D01*
X197284034Y-110942319D01*
X197216908Y-110907428D01*
X197135473Y-110866054D01*
X197041905Y-110819265D01*
X196938381Y-110768126D01*
X196827076Y-110713704D01*
X196710167Y-110657066D01*
X196589830Y-110599280D01*
X196468241Y-110541410D01*
X196347576Y-110484526D01*
X196230010Y-110429692D01*
X196117721Y-110377976D01*
X196067480Y-110355092D01*
X195536945Y-110121179D01*
X194996583Y-109896109D01*
X194450016Y-109681162D01*
X193900866Y-109477619D01*
X193352753Y-109286760D01*
X192809300Y-109109866D01*
X192274128Y-108948217D01*
X191750858Y-108803092D01*
X191481825Y-108733873D01*
X191400345Y-108713157D01*
X191327763Y-108694050D01*
X191267493Y-108677505D01*
X191222948Y-108664474D01*
X191197543Y-108655911D01*
X191192900Y-108653257D01*
X191204010Y-108645503D01*
X191233577Y-108632196D01*
X191275954Y-108615800D01*
X191291325Y-108610294D01*
X191388929Y-108572224D01*
X191494879Y-108524557D01*
X191599904Y-108471836D01*
X191694731Y-108418608D01*
X191739000Y-108390880D01*
X191886835Y-108282701D01*
X192012003Y-108166601D01*
X192116762Y-108039555D01*
X192203370Y-107898540D01*
X192274083Y-107740532D01*
X192315019Y-107619250D01*
X192341666Y-107530350D01*
X192345302Y-104301374D01*
X192348938Y-101072399D01*
X191605819Y-101072399D01*
X190862700Y-101072400D01*
X190860715Y-101818525D01*
X190860501Y-101909917D01*
X190860281Y-102024935D01*
X190860055Y-102161808D01*
X190859827Y-102318760D01*
X190859597Y-102494019D01*
X190859368Y-102685812D01*
X190859141Y-102892364D01*
X190858918Y-103111904D01*
X190858701Y-103342657D01*
X190858491Y-103582850D01*
X190858291Y-103830710D01*
X190858102Y-104084464D01*
X190857925Y-104342338D01*
X190857763Y-104602559D01*
X190857617Y-104863354D01*
X190857540Y-105015750D01*
X190857367Y-105263614D01*
X190857095Y-105504803D01*
X190856729Y-105738077D01*
X190856276Y-105962199D01*
X190855742Y-106175931D01*
X190855131Y-106378036D01*
X190854450Y-106567276D01*
X190853705Y-106742412D01*
X190852901Y-106902207D01*
X190852045Y-107045423D01*
X190851142Y-107170822D01*
X190850197Y-107277167D01*
X190849217Y-107363219D01*
X190848207Y-107427742D01*
X190847174Y-107469496D01*
X190846122Y-107487244D01*
X190845988Y-107487716D01*
X190829632Y-107503354D01*
X190796949Y-107523926D01*
X190757088Y-107543995D01*
X190662590Y-107574935D01*
X190562372Y-107587197D01*
X190462431Y-107581199D01*
X190368766Y-107557359D01*
X190287375Y-107516096D01*
X190279706Y-107510713D01*
X190225381Y-107471360D01*
X190227822Y-105633955D01*
X190228122Y-105389239D01*
X190228391Y-105131963D01*
X190228627Y-104865351D01*
X190228830Y-104592627D01*
X190228997Y-104317016D01*
X190229129Y-104041743D01*
X190229223Y-103770031D01*
X190229279Y-103505105D01*
X190229296Y-103250191D01*
X190229272Y-103008512D01*
X190229205Y-102783292D01*
X190229096Y-102577756D01*
X190228982Y-102434475D01*
X190227700Y-101072400D01*
X188728594Y-101072400D01*
X188732655Y-104422025D01*
X188733059Y-104770265D01*
X188733410Y-105094045D01*
X188733731Y-105394304D01*
X188734043Y-105671982D01*
X188734368Y-105928018D01*
X188734729Y-106163353D01*
X188735147Y-106378924D01*
X188735645Y-106575673D01*
X188736244Y-106754539D01*
X188736966Y-106916461D01*
X188737833Y-107062378D01*
X188738867Y-107193231D01*
X188740091Y-107309959D01*
X188741526Y-107413501D01*
X188743194Y-107504798D01*
X188745118Y-107584787D01*
X188747318Y-107654411D01*
X188749818Y-107714607D01*
X188752639Y-107766315D01*
X188755802Y-107810475D01*
X188759331Y-107848026D01*
X188763247Y-107879909D01*
X188767572Y-107907062D01*
X188772328Y-107930426D01*
X188777537Y-107950939D01*
X188783221Y-107969541D01*
X188789402Y-107987172D01*
X188796101Y-108004772D01*
X188803342Y-108023279D01*
X188811146Y-108043635D01*
X188817806Y-108061874D01*
X188834432Y-108111282D01*
X188846129Y-108151190D01*
X188851343Y-108175986D01*
X188850890Y-108181143D01*
X188837072Y-108181141D01*
X188801264Y-108177839D01*
X188746606Y-108171618D01*
X188676240Y-108162861D01*
X188593307Y-108151949D01*
X188500949Y-108139265D01*
X188465898Y-108134324D01*
X188365648Y-108120297D01*
X188268978Y-108107145D01*
X188180036Y-108095402D01*
X188102967Y-108085606D01*
X188041918Y-108078291D01*
X188001034Y-108073994D01*
X187995675Y-108073546D01*
X187951038Y-108069126D01*
X187918347Y-108064035D01*
X187903895Y-108059287D01*
X187903684Y-108058741D01*
X187910244Y-108044129D01*
X187926273Y-108018123D01*
X187929756Y-108012950D01*
X187972361Y-107941869D01*
X188014068Y-107857352D01*
X188049530Y-107770969D01*
X188068727Y-107712226D01*
X188078360Y-107674058D01*
X188086730Y-107631843D01*
X188093919Y-107583657D01*
X188100011Y-107527580D01*
X188105089Y-107461688D01*
X188109235Y-107384058D01*
X188112533Y-107292767D01*
X188115066Y-107185894D01*
X188116916Y-107061516D01*
X188118167Y-106917709D01*
X188118901Y-106752551D01*
X188119202Y-106564121D01*
X188119212Y-106542925D01*
X188119500Y-105771400D01*
X186684400Y-105771400D01*
X186684400Y-106584607D01*
X186684310Y-106754759D01*
X186684015Y-106901246D01*
X186683479Y-107025803D01*
X186682669Y-107130163D01*
X186681549Y-107216062D01*
X186680083Y-107285234D01*
X186678237Y-107339413D01*
X186675976Y-107380334D01*
X186673263Y-107409731D01*
X186670065Y-107429339D01*
X186667077Y-107439275D01*
X186630036Y-107495629D01*
X186572141Y-107539124D01*
X186494804Y-107569129D01*
X186399435Y-107585010D01*
X186336854Y-107587500D01*
X186233695Y-107580466D01*
X186145622Y-107560009D01*
X186074819Y-107527092D01*
X186023476Y-107482681D01*
X185997188Y-107437735D01*
X185994956Y-107419422D01*
X185992883Y-107378289D01*
X185991014Y-107316917D01*
X185989391Y-107237886D01*
X185988057Y-107143778D01*
X185987055Y-107037171D01*
X185986430Y-106920647D01*
X185986224Y-106796786D01*
X185986228Y-106783398D01*
X185986330Y-106641201D01*
X185986538Y-106522027D01*
X185986948Y-106423497D01*
X185987656Y-106343233D01*
X185988760Y-106278859D01*
X185990356Y-106227996D01*
X185992540Y-106188266D01*
X185995408Y-106157291D01*
X185999057Y-106132694D01*
X186003584Y-106112097D01*
X186009085Y-106093123D01*
X186014949Y-106075465D01*
X186035367Y-106022027D01*
X186060596Y-105969046D01*
X186091961Y-105915117D01*
X186130788Y-105858839D01*
X186178402Y-105798807D01*
X186236129Y-105733617D01*
X186305294Y-105661868D01*
X186387224Y-105582155D01*
X186483244Y-105493075D01*
X186594679Y-105393224D01*
X186722855Y-105281200D01*
X186869098Y-105155598D01*
X186944326Y-105091582D01*
X187113386Y-104946248D01*
X187263035Y-104813502D01*
X187394847Y-104691616D01*
X187510392Y-104578863D01*
X187611245Y-104473518D01*
X187698977Y-104373852D01*
X187775160Y-104278140D01*
X187841367Y-104184653D01*
X187899170Y-104091666D01*
X187950141Y-103997452D01*
X187961589Y-103974350D01*
X187997074Y-103899855D01*
X188025816Y-103834238D01*
X188048645Y-103773359D01*
X188066390Y-103713083D01*
X188079879Y-103649271D01*
X188089941Y-103577786D01*
X188097406Y-103494489D01*
X188103101Y-103395245D01*
X188107857Y-103275914D01*
X188109152Y-103237750D01*
X188112123Y-103126667D01*
X188114399Y-102997595D01*
X188115924Y-102857935D01*
X188116641Y-102715088D01*
X188116494Y-102576457D01*
X188115426Y-102449444D01*
X188115266Y-102437650D01*
X188113032Y-102302723D01*
X188110134Y-102189865D01*
X188106067Y-102095742D01*
X188100324Y-102017023D01*
X188092398Y-101950376D01*
X188081782Y-101892470D01*
X188067969Y-101839972D01*
X188050454Y-101789551D01*
X188028729Y-101737874D01*
X188002288Y-101681611D01*
X187999387Y-101675650D01*
X187929536Y-101553666D01*
X187845310Y-101446350D01*
X187744750Y-101352165D01*
X187625899Y-101269575D01*
X187486803Y-101197042D01*
X187325503Y-101133030D01*
X187295541Y-101122820D01*
X187160570Y-101082739D01*
X187019191Y-101050849D01*
X186868186Y-101026796D01*
X186704339Y-101010224D01*
X186524434Y-101000781D01*
X186325254Y-100998110D01*
X186180139Y-100999918D01*
X186180139Y-100999918D01*
G37*
X186180139Y-100999918D02*
X186030762Y-101004198D01*
X185901803Y-101010541D01*
X185788325Y-101019496D01*
X185685391Y-101031610D01*
X185588066Y-101047430D01*
X185491412Y-101067503D01*
X185423927Y-101083767D01*
X185245662Y-101138100D01*
X185088671Y-101205876D01*
X184952417Y-101287518D01*
X184836366Y-101383452D01*
X184739981Y-101494101D01*
X184662726Y-101619890D01*
X184618139Y-101721419D01*
X184602607Y-101763898D01*
X184589222Y-101804099D01*
X184577824Y-101844224D01*
X184568256Y-101886476D01*
X184560357Y-101933054D01*
X184553969Y-101986161D01*
X184548933Y-102047997D01*
X184545089Y-102120765D01*
X184542278Y-102206665D01*
X184540342Y-102307900D01*
X184539121Y-102426669D01*
X184538456Y-102565176D01*
X184538188Y-102725621D01*
X184538152Y-102828175D01*
X184538100Y-103587000D01*
X185909700Y-103587000D01*
X185909700Y-102878490D01*
X185909701Y-102169981D01*
X185938275Y-102113315D01*
X185978064Y-102062127D01*
X186038261Y-102024129D01*
X186117309Y-101999759D01*
X186213651Y-101989451D01*
X186325729Y-101993644D01*
X186354178Y-101996780D01*
X186433606Y-102009974D01*
X186492651Y-102028632D01*
X186536135Y-102055068D01*
X186568879Y-102091594D01*
X186576450Y-102103397D01*
X186582163Y-102113702D01*
X186586948Y-102125497D01*
X186590889Y-102140986D01*
X186594067Y-102162372D01*
X186596564Y-102191857D01*
X186598461Y-102231644D01*
X186599842Y-102283936D01*
X186600787Y-102350936D01*
X186601378Y-102434846D01*
X186601698Y-102537870D01*
X186601828Y-102662211D01*
X186601850Y-102786900D01*
X186601814Y-102939291D01*
X186601544Y-103068619D01*
X186600801Y-103177217D01*
X186599346Y-103267423D01*
X186596941Y-103341571D01*
X186593345Y-103401997D01*
X186588319Y-103451037D01*
X186581624Y-103491027D01*
X186573020Y-103524302D01*
X186562270Y-103553197D01*
X186549132Y-103580049D01*
X186533368Y-103607193D01*
X186514761Y-103636929D01*
X186492261Y-103671249D01*
X186468076Y-103705081D01*
X186440733Y-103739845D01*
X186408758Y-103776959D01*
X186370679Y-103817845D01*
X186325021Y-103863922D01*
X186270313Y-103916609D01*
X186205080Y-103977328D01*
X186127849Y-104047496D01*
X186037147Y-104128534D01*
X185931502Y-104221863D01*
X185809439Y-104328901D01*
X185674750Y-104446479D01*
X185503105Y-104597852D01*
X185350800Y-104736087D01*
X185216436Y-104862711D01*
X185098615Y-104979250D01*
X184995939Y-105087232D01*
X184907009Y-105188184D01*
X184830427Y-105283633D01*
X184764794Y-105375107D01*
X184708711Y-105464131D01*
X184660781Y-105552233D01*
X184659144Y-105555500D01*
X184624573Y-105628424D01*
X184594663Y-105700705D01*
X184569134Y-105774659D01*
X184547704Y-105852600D01*
X184530093Y-105936842D01*
X184516022Y-106029702D01*
X184505209Y-106133493D01*
X184497374Y-106250531D01*
X184492237Y-106383130D01*
X184489516Y-106533606D01*
X184488933Y-106704273D01*
X184490205Y-106897445D01*
X184490732Y-106945462D01*
X184492747Y-107095539D01*
X184495151Y-107223028D01*
X184498169Y-107330744D01*
X184502024Y-107421500D01*
X184506942Y-107498108D01*
X184513147Y-107563381D01*
X184520862Y-107620132D01*
X184530313Y-107671175D01*
X184541722Y-107719322D01*
X184555316Y-107767385D01*
X184556607Y-107771650D01*
X184567595Y-107809378D01*
X184574657Y-107836724D01*
X184576063Y-107844675D01*
X184563956Y-107847227D01*
X184529778Y-107849520D01*
X184476857Y-107851460D01*
X184408522Y-107852950D01*
X184328100Y-107853895D01*
X184245145Y-107854200D01*
X184144888Y-107854104D01*
X184067248Y-107853690D01*
X184009444Y-107852767D01*
X183968691Y-107851144D01*
X183942209Y-107848630D01*
X183927214Y-107845034D01*
X183920923Y-107840166D01*
X183920556Y-107833834D01*
X183921071Y-107831975D01*
X183944952Y-107745744D01*
X183966899Y-107648118D01*
X183984203Y-107552050D01*
X183992145Y-107492250D01*
X183994297Y-107459237D01*
X183996334Y-107403387D01*
X183998222Y-107327262D01*
X183999925Y-107233426D01*
X184001410Y-107124441D01*
X184002642Y-107002869D01*
X184003586Y-106871274D01*
X184004209Y-106732217D01*
X184004475Y-106588263D01*
X184004480Y-106574675D01*
X184004700Y-105771400D01*
X182570133Y-105771400D01*
X182566692Y-106606425D01*
X182566075Y-106777190D01*
X182565570Y-106924411D01*
X182564934Y-107049940D01*
X182563920Y-107155630D01*
X182562285Y-107243335D01*
X182559784Y-107314907D01*
X182556173Y-107372199D01*
X182551205Y-107417065D01*
X182544638Y-107451356D01*
X182536226Y-107476926D01*
X182525724Y-107495629D01*
X182512888Y-107509316D01*
X182497473Y-107519841D01*
X182479234Y-107529056D01*
X182457928Y-107538816D01*
X182442600Y-107546187D01*
X182409831Y-107561547D01*
X182380394Y-107571624D01*
X182347513Y-107577515D01*
X182304411Y-107580317D01*
X182244312Y-107581129D01*
X182226700Y-107581150D01*
X182135684Y-107578517D01*
X182064580Y-107569634D01*
X182008355Y-107553021D01*
X181961972Y-107527201D01*
X181921065Y-107491381D01*
X181877450Y-107446377D01*
X181877450Y-106107950D01*
X181922966Y-106012700D01*
X181948678Y-105962737D01*
X181978448Y-105913018D01*
X182013737Y-105862045D01*
X182056009Y-105808324D01*
X182106727Y-105750357D01*
X182167354Y-105686648D01*
X182239353Y-105615702D01*
X182324187Y-105536022D01*
X182423319Y-105446112D01*
X182538212Y-105344476D01*
X182670328Y-105229618D01*
X182785779Y-105130314D01*
X182960712Y-104978659D01*
X183115847Y-104840442D01*
X183252255Y-104714620D01*
X183371007Y-104600152D01*
X183473172Y-104495993D01*
X183559821Y-104401102D01*
X183632025Y-104314436D01*
X183657600Y-104281174D01*
X183733479Y-104171769D01*
X183804381Y-104054135D01*
X183866327Y-103935585D01*
X183915341Y-103823434D01*
X183932641Y-103775430D01*
X183945819Y-103734359D01*
X183957114Y-103695138D01*
X183966669Y-103655498D01*
X183974628Y-103613168D01*
X183981132Y-103565878D01*
X183986324Y-103511356D01*
X183990347Y-103447334D01*
X183993344Y-103371539D01*
X183995456Y-103281703D01*
X183996827Y-103175554D01*
X183997599Y-103050823D01*
X183997914Y-102905238D01*
X183997916Y-102736529D01*
X183997916Y-102736100D01*
X183997482Y-102005850D01*
X183963807Y-101882357D01*
X183909550Y-101726598D01*
X183835964Y-101587089D01*
X183742615Y-101463299D01*
X183629071Y-101354701D01*
X183494896Y-101260764D01*
X183420500Y-101219419D01*
X183327287Y-101175242D01*
X183229738Y-101137065D01*
X183123688Y-101103729D01*
X183004974Y-101074075D01*
X182869433Y-101046944D01*
X182712901Y-101021177D01*
X182702950Y-101019679D01*
X182641142Y-101012976D01*
X182558457Y-101007802D01*
X182459370Y-101004128D01*
X182348357Y-101001931D01*
X182229895Y-101001183D01*
X182108458Y-101001858D01*
X181988522Y-101003931D01*
X181874562Y-101007375D01*
X181771054Y-101012164D01*
X181682475Y-101018273D01*
X181613298Y-101025675D01*
X181610750Y-101026033D01*
X181402364Y-101062870D01*
X181216171Y-101111160D01*
X181051486Y-101171321D01*
X180907623Y-101243772D01*
X180783896Y-101328935D01*
X180679620Y-101427227D01*
X180594110Y-101539069D01*
X180526679Y-101664880D01*
X180512851Y-101697849D01*
X180497185Y-101737473D01*
X180483675Y-101773470D01*
X180472148Y-101808003D01*
X180462432Y-101843236D01*
X180454357Y-101881335D01*
X180447750Y-101924463D01*
X180442440Y-101974785D01*
X180438255Y-102034465D01*
X180435023Y-102105667D01*
X180432573Y-102190555D01*
X180430733Y-102291293D01*
X180429331Y-102410047D01*
X180428195Y-102548980D01*
X180427155Y-102710256D01*
X180426714Y-102783724D01*
X180421913Y-103586999D01*
X181108407Y-103586999D01*
X181794900Y-103587000D01*
X181794900Y-102879809D01*
X181794925Y-102727786D01*
X181795049Y-102599043D01*
X181795343Y-102491458D01*
X181795883Y-102402913D01*
X181796741Y-102331285D01*
X181797991Y-102274455D01*
X181799705Y-102230302D01*
X181801957Y-102196706D01*
X181804820Y-102171546D01*
X181808367Y-102152701D01*
X181812672Y-102138052D01*
X181817807Y-102125478D01*
X181821202Y-102118288D01*
X181851302Y-102071906D01*
X181892697Y-102038243D01*
X181949863Y-102014741D01*
X182027277Y-101998840D01*
X182031130Y-101998287D01*
X182148575Y-101989299D01*
X182255398Y-101996394D01*
X182347390Y-102019188D01*
X182372361Y-102029437D01*
X182396801Y-102040367D01*
X182417506Y-102050355D01*
X182434783Y-102061479D01*
X182448942Y-102075814D01*
X182460293Y-102095437D01*
X182469143Y-102122423D01*
X182475803Y-102158849D01*
X182480582Y-102206790D01*
X182483789Y-102268324D01*
X182485733Y-102345525D01*
X182486723Y-102440471D01*
X182487068Y-102555237D01*
X182487078Y-102691899D01*
X182487050Y-102799600D01*
X182487033Y-102945175D01*
X182486920Y-103067618D01*
X182486622Y-103169199D01*
X182486047Y-103252185D01*
X182485106Y-103318845D01*
X182483707Y-103371448D01*
X182481761Y-103412263D01*
X182479177Y-103443557D01*
X182475865Y-103467599D01*
X182471733Y-103486658D01*
X182466692Y-103503003D01*
X182460652Y-103518901D01*
X182458117Y-103525193D01*
X182435994Y-103571500D01*
X182404739Y-103626660D01*
X182370761Y-103679436D01*
X182367606Y-103683943D01*
X182347342Y-103712239D01*
X182327250Y-103739044D01*
X182305954Y-103765645D01*
X182282074Y-103793332D01*
X182254231Y-103823395D01*
X182221047Y-103857123D01*
X182181143Y-103895805D01*
X182133140Y-103940730D01*
X182075660Y-103993188D01*
X182007323Y-104054467D01*
X181926752Y-104125858D01*
X181832568Y-104208650D01*
X181723391Y-104304131D01*
X181597844Y-104413591D01*
X181454547Y-104538319D01*
X181446356Y-104545445D01*
X181371669Y-104611800D01*
X181286197Y-104689992D01*
X181196810Y-104773595D01*
X181110375Y-104856184D01*
X181033762Y-104931333D01*
X181032298Y-104932795D01*
X180891569Y-105079061D01*
X180771799Y-105216502D01*
X180671360Y-105347908D01*
X180588624Y-105476070D01*
X180521960Y-105603779D01*
X180469741Y-105733826D01*
X180430337Y-105869001D01*
X180402120Y-106012096D01*
X180402026Y-106012700D01*
X180396700Y-106049645D01*
X180392252Y-106088106D01*
X180388603Y-106130679D01*
X180385678Y-106179960D01*
X180383400Y-106238544D01*
X180381692Y-106309028D01*
X180380479Y-106394005D01*
X180379684Y-106496073D01*
X180379230Y-106617827D01*
X180379042Y-106761863D01*
X180379029Y-106793750D01*
X180379175Y-106957900D01*
X180379821Y-107099079D01*
X180381131Y-107219711D01*
X180383268Y-107322223D01*
X180386395Y-107409041D01*
X180390675Y-107482589D01*
X180396272Y-107545295D01*
X180403349Y-107599583D01*
X180412069Y-107647880D01*
X180422596Y-107692611D01*
X180435092Y-107736202D01*
X180444422Y-107765300D01*
X180494296Y-107887959D01*
X180563984Y-108012596D01*
X180591817Y-108055117D01*
X180611878Y-108086500D01*
X180623395Y-108107988D01*
X180624550Y-108113537D01*
X180611265Y-108116239D01*
X180576387Y-108121889D01*
X180523481Y-108129950D01*
X180456111Y-108139885D01*
X180377845Y-108151156D01*
X180328050Y-108158209D01*
X180239841Y-108171103D01*
X180132756Y-108187525D01*
X180012916Y-108206492D01*
X179886442Y-108227017D01*
X179759455Y-108248117D01*
X179638075Y-108268806D01*
X179605796Y-108274414D01*
X179503951Y-108292105D01*
X179409700Y-108308312D01*
X179326056Y-108322529D01*
X179256030Y-108334251D01*
X179202636Y-108342973D01*
X179168885Y-108348189D01*
X179158121Y-108349500D01*
X179155739Y-108346482D01*
X179153575Y-108336689D01*
X179151621Y-108319015D01*
X179149865Y-108292350D01*
X179148299Y-108255588D01*
X179146912Y-108207620D01*
X179145694Y-108147339D01*
X179144635Y-108073637D01*
X179143725Y-107985407D01*
X179142955Y-107881540D01*
X179142314Y-107760929D01*
X179141791Y-107622466D01*
X179141378Y-107465043D01*
X179141065Y-107287553D01*
X179140840Y-107088888D01*
X179140695Y-106867939D01*
X179140618Y-106623601D01*
X179140600Y-106406717D01*
X179140601Y-104463935D01*
X179175525Y-104469555D01*
X179200377Y-104472980D01*
X179244921Y-104478571D01*
X179303608Y-104485651D01*
X179370890Y-104493544D01*
X179397571Y-104496617D01*
X179584692Y-104518059D01*
X179590981Y-104557354D01*
X179592797Y-104576488D01*
X179595967Y-104618785D01*
X179600350Y-104682054D01*
X179605805Y-104764103D01*
X179612191Y-104862739D01*
X179619367Y-104975769D01*
X179627191Y-105101003D01*
X179635523Y-105236248D01*
X179644220Y-105379311D01*
X179648711Y-105453900D01*
X179664287Y-105711873D01*
X179678577Y-105945156D01*
X179691628Y-106154423D01*
X179703488Y-106340350D01*
X179714204Y-106503610D01*
X179723824Y-106644880D01*
X179732396Y-106764833D01*
X179739967Y-106864144D01*
X179746584Y-106943489D01*
X179752294Y-107003541D01*
X179757146Y-107044975D01*
X179761187Y-107068467D01*
X179762655Y-107073150D01*
X179769580Y-107083514D01*
X179773354Y-107073182D01*
X179774864Y-107041400D01*
X179775957Y-107009102D01*
X179778331Y-106957288D01*
X179781694Y-106891791D01*
X179785750Y-106818446D01*
X179788299Y-106774700D01*
X179791505Y-106717270D01*
X179795776Y-106635005D01*
X179801088Y-106528448D01*
X179807414Y-106398140D01*
X179814730Y-106244623D01*
X179823010Y-106068439D01*
X179832229Y-105870129D01*
X179842362Y-105650237D01*
X179853382Y-105409302D01*
X179865265Y-105147869D01*
X179877985Y-104866477D01*
X179885317Y-104703667D01*
X179893642Y-104518584D01*
X180377546Y-104438106D01*
X180485377Y-104420007D01*
X180585340Y-104402911D01*
X180674661Y-104387315D01*
X180750568Y-104373718D01*
X180810290Y-104362618D01*
X180851052Y-104354512D01*
X180870083Y-104349900D01*
X180871045Y-104349434D01*
X180861902Y-104345489D01*
X180830117Y-104339091D01*
X180778291Y-104330595D01*
X180709025Y-104320353D01*
X180624923Y-104308720D01*
X180528585Y-104296049D01*
X180422614Y-104282693D01*
X180309612Y-104269005D01*
X180192179Y-104255340D01*
X180113605Y-104246516D01*
X180042687Y-104238393D01*
X179981002Y-104230801D01*
X179932798Y-104224305D01*
X179902320Y-104219471D01*
X179893596Y-104217228D01*
X179891768Y-104203830D01*
X179888652Y-104167522D01*
X179884411Y-104110756D01*
X179879213Y-104035981D01*
X179873221Y-103945647D01*
X179866603Y-103842204D01*
X179859523Y-103728101D01*
X179852147Y-103605788D01*
X179851108Y-103588283D01*
X179842659Y-103446259D01*
X179833687Y-103296574D01*
X179824501Y-103144279D01*
X179815407Y-102994428D01*
X179806713Y-102852074D01*
X179798725Y-102722268D01*
X179791750Y-102610063D01*
X179788542Y-102559025D01*
X179782242Y-102457915D01*
X179776503Y-102363153D01*
X179771523Y-102278197D01*
X179767497Y-102206505D01*
X179764623Y-102151536D01*
X179763097Y-102116747D01*
X179762900Y-102108074D01*
X179762900Y-102063000D01*
X179677931Y-102063000D01*
X179669634Y-102288425D01*
X179665712Y-102391501D01*
X179661004Y-102509365D01*
X179655642Y-102639147D01*
X179649756Y-102777980D01*
X179643477Y-102922996D01*
X179636937Y-103071325D01*
X179630265Y-103220101D01*
X179623593Y-103366454D01*
X179617050Y-103507516D01*
X179610769Y-103640420D01*
X179604880Y-103762296D01*
X179599513Y-103870278D01*
X179594800Y-103961496D01*
X179590871Y-104033082D01*
X179587856Y-104082168D01*
X179587847Y-104082300D01*
X179578750Y-104215650D01*
X179388250Y-104249245D01*
X179319574Y-104261119D01*
X179257949Y-104271334D01*
X179208563Y-104279063D01*
X179176601Y-104283479D01*
X179169175Y-104284170D01*
X179140600Y-104285500D01*
X179140600Y-102063000D01*
X179677931Y-102063000D01*
X179762900Y-102063000D01*
X180232800Y-102063000D01*
X180232800Y-101072400D01*
X176562500Y-101072400D01*
X176562500Y-102062724D01*
X177635650Y-102069350D01*
X177642048Y-108691408D01*
X177594399Y-108703879D01*
X177559569Y-108712859D01*
X177509474Y-108725608D01*
X177453493Y-108739743D01*
X177438800Y-108743433D01*
X177098109Y-108832528D01*
X176739753Y-108933077D01*
X176367978Y-109043683D01*
X175987030Y-109162948D01*
X175601153Y-109289478D01*
X175214594Y-109421874D01*
X174831597Y-109558741D01*
X174456407Y-109698681D01*
X174093270Y-109840297D01*
X174039789Y-109861724D01*
X173829446Y-109947577D01*
X173610234Y-110039433D01*
X173385453Y-110135790D01*
X173158405Y-110235148D01*
X172932388Y-110336007D01*
X172710704Y-110436868D01*
X172496654Y-110536229D01*
X172293537Y-110632591D01*
X172104654Y-110724453D01*
X171933306Y-110810316D01*
X171796706Y-110881279D01*
X171730341Y-110917237D01*
X171678597Y-110946788D01*
X171642979Y-110968905D01*
X171624988Y-110982561D01*
X171626127Y-110986729D01*
X171647899Y-110980382D01*
X171656400Y-110977165D01*
X171990525Y-110849747D01*
X172342555Y-110720115D01*
X172707655Y-110589884D01*
X173080990Y-110460669D01*
X173457724Y-110334085D01*
X173833024Y-110211746D01*
X174202054Y-110095268D01*
X174559979Y-109986264D01*
X174901965Y-109886351D01*
X175034049Y-109849059D01*
X175943610Y-109608197D01*
X176858635Y-109392089D01*
X177778708Y-109200780D01*
X178703417Y-109034314D01*
X179632348Y-108892734D01*
X180565087Y-108776084D01*
X181501220Y-108684408D01*
X182440334Y-108617749D01*
X183382016Y-108576153D01*
X184325851Y-108559661D01*
X185271426Y-108568319D01*
X186218328Y-108602171D01*
X186601850Y-108623043D01*
X187532834Y-108691226D01*
X188461916Y-108784228D01*
X189388026Y-108901865D01*
X190310095Y-109043956D01*
X191227055Y-109210316D01*
X192137835Y-109400763D01*
X193041368Y-109615114D01*
X193936583Y-109853184D01*
X194167965Y-109918980D01*
X194470154Y-110007962D01*
X194785233Y-110104288D01*
X195107892Y-110206203D01*
X195432822Y-110311952D01*
X195754714Y-110419777D01*
X196068259Y-110527924D01*
X196368146Y-110634636D01*
X196649068Y-110738157D01*
X196679300Y-110749545D01*
X196815434Y-110800682D01*
X196940868Y-110847280D01*
X197053898Y-110888735D01*
X197152817Y-110924440D01*
X197235921Y-110953791D01*
X197301505Y-110976183D01*
X197347864Y-110991011D01*
X197373293Y-110997670D01*
X197377800Y-110997426D01*
X197366657Y-110988384D01*
X197334676Y-110969660D01*
X197284034Y-110942319D01*
X197216908Y-110907428D01*
X197135473Y-110866054D01*
X197041905Y-110819265D01*
X196938381Y-110768126D01*
X196827076Y-110713704D01*
X196710167Y-110657066D01*
X196589830Y-110599280D01*
X196468241Y-110541410D01*
X196347576Y-110484526D01*
X196230010Y-110429692D01*
X196117721Y-110377976D01*
X196067480Y-110355092D01*
X195536945Y-110121179D01*
X194996583Y-109896109D01*
X194450016Y-109681162D01*
X193900866Y-109477619D01*
X193352753Y-109286760D01*
X192809300Y-109109866D01*
X192274128Y-108948217D01*
X191750858Y-108803092D01*
X191481825Y-108733873D01*
X191400345Y-108713157D01*
X191327763Y-108694050D01*
X191267493Y-108677505D01*
X191222948Y-108664474D01*
X191197543Y-108655911D01*
X191192900Y-108653257D01*
X191204010Y-108645503D01*
X191233577Y-108632196D01*
X191275954Y-108615800D01*
X191291325Y-108610294D01*
X191388929Y-108572224D01*
X191494879Y-108524557D01*
X191599904Y-108471836D01*
X191694731Y-108418608D01*
X191739000Y-108390880D01*
X191886835Y-108282701D01*
X192012003Y-108166601D01*
X192116762Y-108039555D01*
X192203370Y-107898540D01*
X192274083Y-107740532D01*
X192315019Y-107619250D01*
X192341666Y-107530350D01*
X192345302Y-104301374D01*
X192348938Y-101072399D01*
X191605819Y-101072399D01*
X190862700Y-101072400D01*
X190860715Y-101818525D01*
X190860501Y-101909917D01*
X190860281Y-102024935D01*
X190860055Y-102161808D01*
X190859827Y-102318760D01*
X190859597Y-102494019D01*
X190859368Y-102685812D01*
X190859141Y-102892364D01*
X190858918Y-103111904D01*
X190858701Y-103342657D01*
X190858491Y-103582850D01*
X190858291Y-103830710D01*
X190858102Y-104084464D01*
X190857925Y-104342338D01*
X190857763Y-104602559D01*
X190857617Y-104863354D01*
X190857540Y-105015750D01*
X190857367Y-105263614D01*
X190857095Y-105504803D01*
X190856729Y-105738077D01*
X190856276Y-105962199D01*
X190855742Y-106175931D01*
X190855131Y-106378036D01*
X190854450Y-106567276D01*
X190853705Y-106742412D01*
X190852901Y-106902207D01*
X190852045Y-107045423D01*
X190851142Y-107170822D01*
X190850197Y-107277167D01*
X190849217Y-107363219D01*
X190848207Y-107427742D01*
X190847174Y-107469496D01*
X190846122Y-107487244D01*
X190845988Y-107487716D01*
X190829632Y-107503354D01*
X190796949Y-107523926D01*
X190757088Y-107543995D01*
X190662590Y-107574935D01*
X190562372Y-107587197D01*
X190462431Y-107581199D01*
X190368766Y-107557359D01*
X190287375Y-107516096D01*
X190279706Y-107510713D01*
X190225381Y-107471360D01*
X190227822Y-105633955D01*
X190228122Y-105389239D01*
X190228391Y-105131963D01*
X190228627Y-104865351D01*
X190228830Y-104592627D01*
X190228997Y-104317016D01*
X190229129Y-104041743D01*
X190229223Y-103770031D01*
X190229279Y-103505105D01*
X190229296Y-103250191D01*
X190229272Y-103008512D01*
X190229205Y-102783292D01*
X190229096Y-102577756D01*
X190228982Y-102434475D01*
X190227700Y-101072400D01*
X188728594Y-101072400D01*
X188732655Y-104422025D01*
X188733059Y-104770265D01*
X188733410Y-105094045D01*
X188733731Y-105394304D01*
X188734043Y-105671982D01*
X188734368Y-105928018D01*
X188734729Y-106163353D01*
X188735147Y-106378924D01*
X188735645Y-106575673D01*
X188736244Y-106754539D01*
X188736966Y-106916461D01*
X188737833Y-107062378D01*
X188738867Y-107193231D01*
X188740091Y-107309959D01*
X188741526Y-107413501D01*
X188743194Y-107504798D01*
X188745118Y-107584787D01*
X188747318Y-107654411D01*
X188749818Y-107714607D01*
X188752639Y-107766315D01*
X188755802Y-107810475D01*
X188759331Y-107848026D01*
X188763247Y-107879909D01*
X188767572Y-107907062D01*
X188772328Y-107930426D01*
X188777537Y-107950939D01*
X188783221Y-107969541D01*
X188789402Y-107987172D01*
X188796101Y-108004772D01*
X188803342Y-108023279D01*
X188811146Y-108043635D01*
X188817806Y-108061874D01*
X188834432Y-108111282D01*
X188846129Y-108151190D01*
X188851343Y-108175986D01*
X188850890Y-108181143D01*
X188837072Y-108181141D01*
X188801264Y-108177839D01*
X188746606Y-108171618D01*
X188676240Y-108162861D01*
X188593307Y-108151949D01*
X188500949Y-108139265D01*
X188465898Y-108134324D01*
X188365648Y-108120297D01*
X188268978Y-108107145D01*
X188180036Y-108095402D01*
X188102967Y-108085606D01*
X188041918Y-108078291D01*
X188001034Y-108073994D01*
X187995675Y-108073546D01*
X187951038Y-108069126D01*
X187918347Y-108064035D01*
X187903895Y-108059287D01*
X187903684Y-108058741D01*
X187910244Y-108044129D01*
X187926273Y-108018123D01*
X187929756Y-108012950D01*
X187972361Y-107941869D01*
X188014068Y-107857352D01*
X188049530Y-107770969D01*
X188068727Y-107712226D01*
X188078360Y-107674058D01*
X188086730Y-107631843D01*
X188093919Y-107583657D01*
X188100011Y-107527580D01*
X188105089Y-107461688D01*
X188109235Y-107384058D01*
X188112533Y-107292767D01*
X188115066Y-107185894D01*
X188116916Y-107061516D01*
X188118167Y-106917709D01*
X188118901Y-106752551D01*
X188119202Y-106564121D01*
X188119212Y-106542925D01*
X188119500Y-105771400D01*
X186684400Y-105771400D01*
X186684400Y-106584607D01*
X186684310Y-106754759D01*
X186684015Y-106901246D01*
X186683479Y-107025803D01*
X186682669Y-107130163D01*
X186681549Y-107216062D01*
X186680083Y-107285234D01*
X186678237Y-107339413D01*
X186675976Y-107380334D01*
X186673263Y-107409731D01*
X186670065Y-107429339D01*
X186667077Y-107439275D01*
X186630036Y-107495629D01*
X186572141Y-107539124D01*
X186494804Y-107569129D01*
X186399435Y-107585010D01*
X186336854Y-107587500D01*
X186233695Y-107580466D01*
X186145622Y-107560009D01*
X186074819Y-107527092D01*
X186023476Y-107482681D01*
X185997188Y-107437735D01*
X185994956Y-107419422D01*
X185992883Y-107378289D01*
X185991014Y-107316917D01*
X185989391Y-107237886D01*
X185988057Y-107143778D01*
X185987055Y-107037171D01*
X185986430Y-106920647D01*
X185986224Y-106796786D01*
X185986228Y-106783398D01*
X185986330Y-106641201D01*
X185986538Y-106522027D01*
X185986948Y-106423497D01*
X185987656Y-106343233D01*
X185988760Y-106278859D01*
X185990356Y-106227996D01*
X185992540Y-106188266D01*
X185995408Y-106157291D01*
X185999057Y-106132694D01*
X186003584Y-106112097D01*
X186009085Y-106093123D01*
X186014949Y-106075465D01*
X186035367Y-106022027D01*
X186060596Y-105969046D01*
X186091961Y-105915117D01*
X186130788Y-105858839D01*
X186178402Y-105798807D01*
X186236129Y-105733617D01*
X186305294Y-105661868D01*
X186387224Y-105582155D01*
X186483244Y-105493075D01*
X186594679Y-105393224D01*
X186722855Y-105281200D01*
X186869098Y-105155598D01*
X186944326Y-105091582D01*
X187113386Y-104946248D01*
X187263035Y-104813502D01*
X187394847Y-104691616D01*
X187510392Y-104578863D01*
X187611245Y-104473518D01*
X187698977Y-104373852D01*
X187775160Y-104278140D01*
X187841367Y-104184653D01*
X187899170Y-104091666D01*
X187950141Y-103997452D01*
X187961589Y-103974350D01*
X187997074Y-103899855D01*
X188025816Y-103834238D01*
X188048645Y-103773359D01*
X188066390Y-103713083D01*
X188079879Y-103649271D01*
X188089941Y-103577786D01*
X188097406Y-103494489D01*
X188103101Y-103395245D01*
X188107857Y-103275914D01*
X188109152Y-103237750D01*
X188112123Y-103126667D01*
X188114399Y-102997595D01*
X188115924Y-102857935D01*
X188116641Y-102715088D01*
X188116494Y-102576457D01*
X188115426Y-102449444D01*
X188115266Y-102437650D01*
X188113032Y-102302723D01*
X188110134Y-102189865D01*
X188106067Y-102095742D01*
X188100324Y-102017023D01*
X188092398Y-101950376D01*
X188081782Y-101892470D01*
X188067969Y-101839972D01*
X188050454Y-101789551D01*
X188028729Y-101737874D01*
X188002288Y-101681611D01*
X187999387Y-101675650D01*
X187929536Y-101553666D01*
X187845310Y-101446350D01*
X187744750Y-101352165D01*
X187625899Y-101269575D01*
X187486803Y-101197042D01*
X187325503Y-101133030D01*
X187295541Y-101122820D01*
X187160570Y-101082739D01*
X187019191Y-101050849D01*
X186868186Y-101026796D01*
X186704339Y-101010224D01*
X186524434Y-101000781D01*
X186325254Y-100998110D01*
X186180139Y-100999918D01*
M02*
