G04 #@! TF.FileFunction,Legend,Top*
%FSLAX46Y46*%
G04 Gerber Fmt 4.6, Leading zero omitted, Abs format (unit mm)*
G04 Created by KiCad (PCBNEW 4.0.4-stable) date 06/13/17 21:08:50*
%MOMM*%
%LPD*%
G01*
G04 APERTURE LIST*
%ADD10C,0.100000*%
%ADD11C,0.120000*%
%ADD12C,0.127000*%
%ADD13C,0.304800*%
%ADD14C,0.150000*%
%ADD15C,0.050000*%
G04 APERTURE END LIST*
D10*
D11*
X183900000Y-123580000D02*
X181900000Y-123580000D01*
X181900000Y-125620000D02*
X183900000Y-125620000D01*
X193900000Y-118620000D02*
X195900000Y-118620000D01*
X195900000Y-116580000D02*
X193900000Y-116580000D01*
X179720000Y-124400000D02*
X179720000Y-122400000D01*
X177680000Y-122400000D02*
X177680000Y-124400000D01*
X180380000Y-119400000D02*
X180380000Y-121400000D01*
X182420000Y-121400000D02*
X182420000Y-119400000D01*
X195150000Y-127780000D02*
X193950000Y-127780000D01*
X193950000Y-126020000D02*
X195150000Y-126020000D01*
X195150000Y-124380000D02*
X193950000Y-124380000D01*
X193950000Y-122620000D02*
X195150000Y-122620000D01*
X179380790Y-110309636D02*
X179380790Y-109109636D01*
X181140790Y-109109636D02*
X181140790Y-110309636D01*
X174877100Y-110336752D02*
X174877100Y-109136752D01*
X176637100Y-109136752D02*
X176637100Y-110336752D01*
D12*
X183293500Y-122474000D02*
X187093500Y-122474000D01*
X187093500Y-122474000D02*
X187093500Y-117274000D01*
X187093500Y-117274000D02*
X183293500Y-117274000D01*
X183293500Y-117274000D02*
X183293500Y-122474000D01*
D13*
X182993500Y-122074000D02*
G75*
G03X182993500Y-122074000I-100000J0D01*
G01*
D14*
X190000000Y-108900000D02*
X190000000Y-108200000D01*
X191200000Y-108200000D02*
X191200000Y-108900000D01*
X186600000Y-109000000D02*
X186600000Y-108300000D01*
X187800000Y-108300000D02*
X187800000Y-109000000D01*
X162970476Y-118687381D02*
X162970476Y-117687381D01*
X163303810Y-118401667D01*
X163637143Y-117687381D01*
X163637143Y-118687381D01*
X164637143Y-118687381D02*
X164065714Y-118687381D01*
X164351428Y-118687381D02*
X164351428Y-117687381D01*
X164256190Y-117830238D01*
X164160952Y-117925476D01*
X164065714Y-117973095D01*
X182733334Y-126957143D02*
X182685715Y-127004762D01*
X182542858Y-127052381D01*
X182447620Y-127052381D01*
X182304762Y-127004762D01*
X182209524Y-126909524D01*
X182161905Y-126814286D01*
X182114286Y-126623810D01*
X182114286Y-126480952D01*
X182161905Y-126290476D01*
X182209524Y-126195238D01*
X182304762Y-126100000D01*
X182447620Y-126052381D01*
X182542858Y-126052381D01*
X182685715Y-126100000D01*
X182733334Y-126147619D01*
X183114286Y-126147619D02*
X183161905Y-126100000D01*
X183257143Y-126052381D01*
X183495239Y-126052381D01*
X183590477Y-126100000D01*
X183638096Y-126147619D01*
X183685715Y-126242857D01*
X183685715Y-126338095D01*
X183638096Y-126480952D01*
X183066667Y-127052381D01*
X183685715Y-127052381D01*
X194733334Y-119957143D02*
X194685715Y-120004762D01*
X194542858Y-120052381D01*
X194447620Y-120052381D01*
X194304762Y-120004762D01*
X194209524Y-119909524D01*
X194161905Y-119814286D01*
X194114286Y-119623810D01*
X194114286Y-119480952D01*
X194161905Y-119290476D01*
X194209524Y-119195238D01*
X194304762Y-119100000D01*
X194447620Y-119052381D01*
X194542858Y-119052381D01*
X194685715Y-119100000D01*
X194733334Y-119147619D01*
X195209524Y-120052381D02*
X195400000Y-120052381D01*
X195495239Y-120004762D01*
X195542858Y-119957143D01*
X195638096Y-119814286D01*
X195685715Y-119623810D01*
X195685715Y-119242857D01*
X195638096Y-119147619D01*
X195590477Y-119100000D01*
X195495239Y-119052381D01*
X195304762Y-119052381D01*
X195209524Y-119100000D01*
X195161905Y-119147619D01*
X195114286Y-119242857D01*
X195114286Y-119480952D01*
X195161905Y-119576190D01*
X195209524Y-119623810D01*
X195304762Y-119671429D01*
X195495239Y-119671429D01*
X195590477Y-119623810D01*
X195638096Y-119576190D01*
X195685715Y-119480952D01*
X177057143Y-124042857D02*
X177104762Y-124090476D01*
X177152381Y-124233333D01*
X177152381Y-124328571D01*
X177104762Y-124471429D01*
X177009524Y-124566667D01*
X176914286Y-124614286D01*
X176723810Y-124661905D01*
X176580952Y-124661905D01*
X176390476Y-124614286D01*
X176295238Y-124566667D01*
X176200000Y-124471429D01*
X176152381Y-124328571D01*
X176152381Y-124233333D01*
X176200000Y-124090476D01*
X176247619Y-124042857D01*
X176247619Y-123661905D02*
X176200000Y-123614286D01*
X176152381Y-123519048D01*
X176152381Y-123280952D01*
X176200000Y-123185714D01*
X176247619Y-123138095D01*
X176342857Y-123090476D01*
X176438095Y-123090476D01*
X176580952Y-123138095D01*
X177152381Y-123709524D01*
X177152381Y-123090476D01*
X176152381Y-122185714D02*
X176152381Y-122661905D01*
X176628571Y-122709524D01*
X176580952Y-122661905D01*
X176533333Y-122566667D01*
X176533333Y-122328571D01*
X176580952Y-122233333D01*
X176628571Y-122185714D01*
X176723810Y-122138095D01*
X176961905Y-122138095D01*
X177057143Y-122185714D01*
X177104762Y-122233333D01*
X177152381Y-122328571D01*
X177152381Y-122566667D01*
X177104762Y-122661905D01*
X177057143Y-122709524D01*
X179757143Y-119342857D02*
X179804762Y-119390476D01*
X179852381Y-119533333D01*
X179852381Y-119628571D01*
X179804762Y-119771429D01*
X179709524Y-119866667D01*
X179614286Y-119914286D01*
X179423810Y-119961905D01*
X179280952Y-119961905D01*
X179090476Y-119914286D01*
X178995238Y-119866667D01*
X178900000Y-119771429D01*
X178852381Y-119628571D01*
X178852381Y-119533333D01*
X178900000Y-119390476D01*
X178947619Y-119342857D01*
X178947619Y-118961905D02*
X178900000Y-118914286D01*
X178852381Y-118819048D01*
X178852381Y-118580952D01*
X178900000Y-118485714D01*
X178947619Y-118438095D01*
X179042857Y-118390476D01*
X179138095Y-118390476D01*
X179280952Y-118438095D01*
X179852381Y-119009524D01*
X179852381Y-118390476D01*
X179280952Y-117819048D02*
X179233333Y-117914286D01*
X179185714Y-117961905D01*
X179090476Y-118009524D01*
X179042857Y-118009524D01*
X178947619Y-117961905D01*
X178900000Y-117914286D01*
X178852381Y-117819048D01*
X178852381Y-117628571D01*
X178900000Y-117533333D01*
X178947619Y-117485714D01*
X179042857Y-117438095D01*
X179090476Y-117438095D01*
X179185714Y-117485714D01*
X179233333Y-117533333D01*
X179280952Y-117628571D01*
X179280952Y-117819048D01*
X179328571Y-117914286D01*
X179376190Y-117961905D01*
X179471429Y-118009524D01*
X179661905Y-118009524D01*
X179757143Y-117961905D01*
X179804762Y-117914286D01*
X179852381Y-117819048D01*
X179852381Y-117628571D01*
X179804762Y-117533333D01*
X179757143Y-117485714D01*
X179661905Y-117438095D01*
X179471429Y-117438095D01*
X179376190Y-117485714D01*
X179328571Y-117533333D01*
X179280952Y-117628571D01*
X194383334Y-125702381D02*
X194050000Y-125226190D01*
X193811905Y-125702381D02*
X193811905Y-124702381D01*
X194192858Y-124702381D01*
X194288096Y-124750000D01*
X194335715Y-124797619D01*
X194383334Y-124892857D01*
X194383334Y-125035714D01*
X194335715Y-125130952D01*
X194288096Y-125178571D01*
X194192858Y-125226190D01*
X193811905Y-125226190D01*
X195240477Y-125035714D02*
X195240477Y-125702381D01*
X195002381Y-124654762D02*
X194764286Y-125369048D01*
X195383334Y-125369048D01*
X193907143Y-122302381D02*
X193573809Y-121826190D01*
X193335714Y-122302381D02*
X193335714Y-121302381D01*
X193716667Y-121302381D01*
X193811905Y-121350000D01*
X193859524Y-121397619D01*
X193907143Y-121492857D01*
X193907143Y-121635714D01*
X193859524Y-121730952D01*
X193811905Y-121778571D01*
X193716667Y-121826190D01*
X193335714Y-121826190D01*
X194859524Y-122302381D02*
X194288095Y-122302381D01*
X194573809Y-122302381D02*
X194573809Y-121302381D01*
X194478571Y-121445238D01*
X194383333Y-121540476D01*
X194288095Y-121588095D01*
X195811905Y-122302381D02*
X195240476Y-122302381D01*
X195526190Y-122302381D02*
X195526190Y-121302381D01*
X195430952Y-121445238D01*
X195335714Y-121540476D01*
X195240476Y-121588095D01*
X182363171Y-110352493D02*
X181886980Y-110685827D01*
X182363171Y-110923922D02*
X181363171Y-110923922D01*
X181363171Y-110542969D01*
X181410790Y-110447731D01*
X181458409Y-110400112D01*
X181553647Y-110352493D01*
X181696504Y-110352493D01*
X181791742Y-110400112D01*
X181839361Y-110447731D01*
X181886980Y-110542969D01*
X181886980Y-110923922D01*
X182363171Y-109400112D02*
X182363171Y-109971541D01*
X182363171Y-109685827D02*
X181363171Y-109685827D01*
X181506028Y-109781065D01*
X181601266Y-109876303D01*
X181648885Y-109971541D01*
X182363171Y-108923922D02*
X182363171Y-108733446D01*
X182315552Y-108638207D01*
X182267933Y-108590588D01*
X182125076Y-108495350D01*
X181934600Y-108447731D01*
X181553647Y-108447731D01*
X181458409Y-108495350D01*
X181410790Y-108542969D01*
X181363171Y-108638207D01*
X181363171Y-108828684D01*
X181410790Y-108923922D01*
X181458409Y-108971541D01*
X181553647Y-109019160D01*
X181791742Y-109019160D01*
X181886980Y-108971541D01*
X181934600Y-108923922D01*
X181982219Y-108828684D01*
X181982219Y-108638207D01*
X181934600Y-108542969D01*
X181886980Y-108495350D01*
X181791742Y-108447731D01*
X177859481Y-110379609D02*
X177383290Y-110712943D01*
X177859481Y-110951038D02*
X176859481Y-110951038D01*
X176859481Y-110570085D01*
X176907100Y-110474847D01*
X176954719Y-110427228D01*
X177049957Y-110379609D01*
X177192814Y-110379609D01*
X177288052Y-110427228D01*
X177335671Y-110474847D01*
X177383290Y-110570085D01*
X177383290Y-110951038D01*
X176954719Y-109998657D02*
X176907100Y-109951038D01*
X176859481Y-109855800D01*
X176859481Y-109617704D01*
X176907100Y-109522466D01*
X176954719Y-109474847D01*
X177049957Y-109427228D01*
X177145195Y-109427228D01*
X177288052Y-109474847D01*
X177859481Y-110046276D01*
X177859481Y-109427228D01*
X176859481Y-108808181D02*
X176859481Y-108712942D01*
X176907100Y-108617704D01*
X176954719Y-108570085D01*
X177049957Y-108522466D01*
X177240433Y-108474847D01*
X177478529Y-108474847D01*
X177669005Y-108522466D01*
X177764243Y-108570085D01*
X177811862Y-108617704D01*
X177859481Y-108712942D01*
X177859481Y-108808181D01*
X177811862Y-108903419D01*
X177764243Y-108951038D01*
X177669005Y-108998657D01*
X177478529Y-109046276D01*
X177240433Y-109046276D01*
X177049957Y-108998657D01*
X176954719Y-108951038D01*
X176907100Y-108903419D01*
X176859481Y-108808181D01*
D15*
X181810881Y-119595905D02*
X182620405Y-119595905D01*
X182715643Y-119548286D01*
X182763262Y-119500667D01*
X182810881Y-119405429D01*
X182810881Y-119214952D01*
X182763262Y-119119714D01*
X182715643Y-119072095D01*
X182620405Y-119024476D01*
X181810881Y-119024476D01*
X182810881Y-118024476D02*
X182810881Y-118595905D01*
X182810881Y-118310191D02*
X181810881Y-118310191D01*
X181953738Y-118405429D01*
X182048976Y-118500667D01*
X182096595Y-118595905D01*
D14*
X189866667Y-105752381D02*
X189866667Y-106466667D01*
X189819047Y-106609524D01*
X189723809Y-106704762D01*
X189580952Y-106752381D01*
X189485714Y-106752381D01*
X190342857Y-106752381D02*
X190342857Y-105752381D01*
X190723810Y-105752381D01*
X190819048Y-105800000D01*
X190866667Y-105847619D01*
X190914286Y-105942857D01*
X190914286Y-106085714D01*
X190866667Y-106180952D01*
X190819048Y-106228571D01*
X190723810Y-106276190D01*
X190342857Y-106276190D01*
X191866667Y-106752381D02*
X191295238Y-106752381D01*
X191580952Y-106752381D02*
X191580952Y-105752381D01*
X191485714Y-105895238D01*
X191390476Y-105990476D01*
X191295238Y-106038095D01*
X186266667Y-105752381D02*
X186266667Y-106466667D01*
X186219047Y-106609524D01*
X186123809Y-106704762D01*
X185980952Y-106752381D01*
X185885714Y-106752381D01*
X186742857Y-106752381D02*
X186742857Y-105752381D01*
X187123810Y-105752381D01*
X187219048Y-105800000D01*
X187266667Y-105847619D01*
X187314286Y-105942857D01*
X187314286Y-106085714D01*
X187266667Y-106180952D01*
X187219048Y-106228571D01*
X187123810Y-106276190D01*
X186742857Y-106276190D01*
X187695238Y-105847619D02*
X187742857Y-105800000D01*
X187838095Y-105752381D01*
X188076191Y-105752381D01*
X188171429Y-105800000D01*
X188219048Y-105847619D01*
X188266667Y-105942857D01*
X188266667Y-106038095D01*
X188219048Y-106180952D01*
X187647619Y-106752381D01*
X188266667Y-106752381D01*
M02*
