G04 #@! TF.FileFunction,Soldermask,Top*
%FSLAX46Y46*%
G04 Gerber Fmt 4.6, Leading zero omitted, Abs format (unit mm)*
G04 Created by KiCad (PCBNEW 4.0.4-stable) date 06/13/17 21:08:50*
%MOMM*%
%LPD*%
G01*
G04 APERTURE LIST*
%ADD10C,0.100000*%
%ADD11O,1.924000X1.924000*%
%ADD12C,3.600000*%
%ADD13R,1.400000X2.000000*%
%ADD14R,2.000000X1.400000*%
%ADD15R,1.100000X1.700000*%
%ADD16R,1.700000X1.100000*%
%ADD17R,0.925000X0.700000*%
%ADD18R,0.700000X0.825000*%
%ADD19R,1.150000X1.200000*%
G04 APERTURE END LIST*
D10*
D11*
X171400000Y-132840000D03*
X156160000Y-132840000D03*
X171400000Y-127760000D03*
X171400000Y-125220000D03*
X171400000Y-130300000D03*
X156160000Y-130300000D03*
X156160000Y-127760000D03*
X171400000Y-117600000D03*
X156160000Y-125220000D03*
X171400000Y-120140000D03*
X156160000Y-122680000D03*
X171400000Y-115060000D03*
X171400000Y-109980000D03*
X171400000Y-122680000D03*
X171400000Y-107440000D03*
X171400000Y-104900000D03*
X156160000Y-117600000D03*
X171400000Y-112520000D03*
X171400000Y-99820000D03*
X171400000Y-102360000D03*
X156160000Y-115060000D03*
X156160000Y-112520000D03*
X156160000Y-99820000D03*
X156160000Y-109980000D03*
X156160000Y-120140000D03*
X156160000Y-107440000D03*
X156160000Y-104900000D03*
X156160000Y-102360000D03*
D12*
X154000000Y-94000000D03*
X197800000Y-137800000D03*
X197800000Y-94000000D03*
D13*
X181400000Y-124600000D03*
X184400000Y-124600000D03*
X196400000Y-117600000D03*
X193400000Y-117600000D03*
D14*
X178700000Y-121900000D03*
X178700000Y-124900000D03*
X181400000Y-121900000D03*
X181400000Y-118900000D03*
D15*
X193600000Y-126900000D03*
X195500000Y-126900000D03*
X193600000Y-123500000D03*
X195500000Y-123500000D03*
D16*
X180260790Y-108759636D03*
X180260790Y-110659636D03*
X175757100Y-108786752D03*
X175757100Y-110686752D03*
D17*
X183631000Y-122124000D03*
D18*
X184443500Y-122186500D03*
X184943500Y-122186500D03*
X185443500Y-122186500D03*
X185943500Y-122186500D03*
D17*
X186756000Y-122124000D03*
X186756000Y-121624000D03*
X186756000Y-121124000D03*
X186756000Y-120624000D03*
X186756000Y-120124000D03*
X186756000Y-119624000D03*
X186756000Y-119124000D03*
X186756000Y-118624000D03*
X186756000Y-118124000D03*
X186756000Y-117624000D03*
D18*
X185943500Y-117561500D03*
X185443500Y-117561500D03*
X184943500Y-117561500D03*
X184443500Y-117561500D03*
D17*
X183631000Y-117624000D03*
X183631000Y-118124000D03*
X183631000Y-118624000D03*
X183631000Y-119124000D03*
X183631000Y-119624000D03*
X183631000Y-120124000D03*
X183631000Y-120624000D03*
X183631000Y-121124000D03*
X183631000Y-121624000D03*
D12*
X154100000Y-137800000D03*
D19*
X190600000Y-109300000D03*
X190600000Y-107800000D03*
D10*
G36*
X190025000Y-107216200D02*
X191175000Y-107766200D01*
X191175000Y-108216200D01*
X190025000Y-108766200D01*
X190025000Y-107216200D01*
X190025000Y-107216200D01*
G37*
G36*
X191175000Y-108766200D02*
X190025000Y-108216200D01*
X190025000Y-107766200D01*
X191175000Y-107216200D01*
X191175000Y-108766200D01*
X191175000Y-108766200D01*
G37*
G36*
X190399960Y-108358000D02*
X191175960Y-108658000D01*
X191175960Y-109458000D01*
X190399960Y-109758000D01*
X190399960Y-108358000D01*
X190399960Y-108358000D01*
G37*
G36*
X190800040Y-109758000D02*
X190024040Y-109458000D01*
X190024040Y-108658000D01*
X190800040Y-108358000D01*
X190800040Y-109758000D01*
X190800040Y-109758000D01*
G37*
D19*
X187200000Y-109400000D03*
X187200000Y-107900000D03*
D10*
G36*
X186625000Y-107316200D02*
X187775000Y-107866200D01*
X187775000Y-108316200D01*
X186625000Y-108866200D01*
X186625000Y-107316200D01*
X186625000Y-107316200D01*
G37*
G36*
X187775000Y-108866200D02*
X186625000Y-108316200D01*
X186625000Y-107866200D01*
X187775000Y-107316200D01*
X187775000Y-108866200D01*
X187775000Y-108866200D01*
G37*
G36*
X186999960Y-108458000D02*
X187775960Y-108758000D01*
X187775960Y-109558000D01*
X186999960Y-109858000D01*
X186999960Y-108458000D01*
X186999960Y-108458000D01*
G37*
G36*
X187400040Y-109858000D02*
X186624040Y-109558000D01*
X186624040Y-108758000D01*
X187400040Y-108458000D01*
X187400040Y-109858000D01*
X187400040Y-109858000D01*
G37*
M02*
