M48
;DRILL file {KiCad 4.0.4-stable} date 06/13/17 21:09:01
;FORMAT={3:3/ absolute / metric / suppress leading zeros}
FMAT,2
METRIC,TZ
T1C0.400
T2C0.762
T3C0.800
T4C3.200
%
G90
G05
M71
T1
X180261Y-113561
X182600Y-115700
X185600Y-105700
X187900Y-120100
X187900Y-123300
X188276Y-118124
X188900Y-120600
X188900Y-120600
X191800Y-117700
T2
X156160Y-102360
X156160Y-104900
X156160Y-107440
X156160Y-109980
X156160Y-112520
X156160Y-115060
X156160Y-117600
X156160Y-120140
X156160Y-122680
X156160Y-125220
X156160Y-127760
X156160Y-130300
X156160Y-132840
X171400Y-99820
X171400Y-102360
X171400Y-104900
X171400Y-107440
X171400Y-109980
X171400Y-112520
X171400Y-115060
X171400Y-117600
X171400Y-120140
X171400Y-122680
X171400Y-125220
X171400Y-127760
X171400Y-130300
X171400Y-132840
T3
X156160Y-99820
T4
X154000Y-94000
X154100Y-137800
X197800Y-94000
X197800Y-137800
T0
M30
