G04 #@! TF.FileFunction,Copper,L2,Bot,Signal*
%FSLAX46Y46*%
G04 Gerber Fmt 4.6, Leading zero omitted, Abs format (unit mm)*
G04 Created by KiCad (PCBNEW 4.0.4-stable) date 06/13/17 21:08:50*
%MOMM*%
%LPD*%
G01*
G04 APERTURE LIST*
%ADD10C,0.100000*%
%ADD11O,1.524000X1.524000*%
%ADD12C,0.600000*%
%ADD13C,0.250000*%
%ADD14C,0.254000*%
G04 APERTURE END LIST*
D10*
D11*
X171400000Y-132840000D03*
X156160000Y-132840000D03*
X171400000Y-127760000D03*
X171400000Y-125220000D03*
X171400000Y-130300000D03*
X156160000Y-130300000D03*
X156160000Y-127760000D03*
X171400000Y-117600000D03*
X156160000Y-125220000D03*
X171400000Y-120140000D03*
X156160000Y-122680000D03*
X171400000Y-115060000D03*
X171400000Y-109980000D03*
X171400000Y-122680000D03*
X171400000Y-107440000D03*
X171400000Y-104900000D03*
X156160000Y-117600000D03*
X171400000Y-112520000D03*
X171400000Y-99820000D03*
X171400000Y-102360000D03*
X156160000Y-115060000D03*
X156160000Y-112520000D03*
X156160000Y-99820000D03*
X156160000Y-109980000D03*
X156160000Y-120140000D03*
X156160000Y-107440000D03*
X156160000Y-104900000D03*
X156160000Y-102360000D03*
D12*
X187900000Y-123300000D03*
X187900000Y-120100000D03*
X191800000Y-117700000D03*
X188900000Y-120600000D03*
X188900000Y-120600000D03*
X180260790Y-113560790D03*
X185600000Y-105700000D03*
X182600000Y-115700000D03*
X188276000Y-118124000D03*
D13*
X187900000Y-120100000D02*
X187900000Y-123300000D01*
X188900000Y-120600000D02*
X191800000Y-117700000D01*
X180260790Y-113560790D02*
X183421580Y-110400000D01*
X183421580Y-110400000D02*
X183421580Y-106278420D01*
X183421580Y-106278420D02*
X184000000Y-105700000D01*
X184000000Y-105700000D02*
X185600000Y-105700000D01*
X182600000Y-115700000D02*
X181513944Y-115700000D01*
X181513944Y-115700000D02*
X180300000Y-114486056D01*
X180300000Y-114486056D02*
X180300000Y-113500000D01*
X171400000Y-117600000D02*
X173000000Y-117600000D01*
X173000000Y-117600000D02*
X177039210Y-113560790D01*
X177039210Y-113560790D02*
X180260790Y-113560790D01*
X173600000Y-114200000D02*
X172740000Y-115060000D01*
X172740000Y-115060000D02*
X171400000Y-115060000D01*
X173600000Y-106200000D02*
X173600000Y-114200000D01*
X175888569Y-103911431D02*
X173600000Y-106200000D01*
X190602355Y-103911431D02*
X175888569Y-103911431D01*
X190602355Y-103911431D02*
X193841665Y-107150741D01*
X193841665Y-107150741D02*
X193841665Y-112558335D01*
X193841665Y-112558335D02*
X188276000Y-118124000D01*
D14*
G36*
X201690000Y-141690000D02*
X150110000Y-141690000D01*
X150110000Y-138242619D01*
X151864613Y-138242619D01*
X152204155Y-139064372D01*
X152832321Y-139693636D01*
X153653481Y-140034611D01*
X154542619Y-140035387D01*
X155364372Y-139695845D01*
X155993636Y-139067679D01*
X156334611Y-138246519D01*
X156334614Y-138242619D01*
X195564613Y-138242619D01*
X195904155Y-139064372D01*
X196532321Y-139693636D01*
X197353481Y-140034611D01*
X198242619Y-140035387D01*
X199064372Y-139695845D01*
X199693636Y-139067679D01*
X200034611Y-138246519D01*
X200035387Y-137357381D01*
X199695845Y-136535628D01*
X199067679Y-135906364D01*
X198246519Y-135565389D01*
X197357381Y-135564613D01*
X196535628Y-135904155D01*
X195906364Y-136532321D01*
X195565389Y-137353481D01*
X195564613Y-138242619D01*
X156334614Y-138242619D01*
X156335387Y-137357381D01*
X155995845Y-136535628D01*
X155367679Y-135906364D01*
X154546519Y-135565389D01*
X153657381Y-135564613D01*
X152835628Y-135904155D01*
X152206364Y-136532321D01*
X151865389Y-137353481D01*
X151864613Y-138242619D01*
X150110000Y-138242619D01*
X150110000Y-102360000D01*
X154735631Y-102360000D01*
X154841971Y-102894609D01*
X155144803Y-103347828D01*
X155567102Y-103630000D01*
X155144803Y-103912172D01*
X154841971Y-104365391D01*
X154735631Y-104900000D01*
X154841971Y-105434609D01*
X155144803Y-105887828D01*
X155567102Y-106170000D01*
X155144803Y-106452172D01*
X154841971Y-106905391D01*
X154735631Y-107440000D01*
X154841971Y-107974609D01*
X155144803Y-108427828D01*
X155567102Y-108710000D01*
X155144803Y-108992172D01*
X154841971Y-109445391D01*
X154735631Y-109980000D01*
X154841971Y-110514609D01*
X155144803Y-110967828D01*
X155567102Y-111250000D01*
X155144803Y-111532172D01*
X154841971Y-111985391D01*
X154735631Y-112520000D01*
X154841971Y-113054609D01*
X155144803Y-113507828D01*
X155567102Y-113790000D01*
X155144803Y-114072172D01*
X154841971Y-114525391D01*
X154735631Y-115060000D01*
X154841971Y-115594609D01*
X155144803Y-116047828D01*
X155567102Y-116330000D01*
X155144803Y-116612172D01*
X154841971Y-117065391D01*
X154735631Y-117600000D01*
X154841971Y-118134609D01*
X155144803Y-118587828D01*
X155567102Y-118870000D01*
X155144803Y-119152172D01*
X154841971Y-119605391D01*
X154735631Y-120140000D01*
X154841971Y-120674609D01*
X155144803Y-121127828D01*
X155567102Y-121410000D01*
X155144803Y-121692172D01*
X154841971Y-122145391D01*
X154735631Y-122680000D01*
X154841971Y-123214609D01*
X155144803Y-123667828D01*
X155567102Y-123950000D01*
X155144803Y-124232172D01*
X154841971Y-124685391D01*
X154735631Y-125220000D01*
X154841971Y-125754609D01*
X155144803Y-126207828D01*
X155567102Y-126490000D01*
X155144803Y-126772172D01*
X154841971Y-127225391D01*
X154735631Y-127760000D01*
X154841971Y-128294609D01*
X155144803Y-128747828D01*
X155567102Y-129030000D01*
X155144803Y-129312172D01*
X154841971Y-129765391D01*
X154735631Y-130300000D01*
X154841971Y-130834609D01*
X155144803Y-131287828D01*
X155567102Y-131570000D01*
X155144803Y-131852172D01*
X154841971Y-132305391D01*
X154735631Y-132840000D01*
X154841971Y-133374609D01*
X155144803Y-133827828D01*
X155598022Y-134130660D01*
X156132631Y-134237000D01*
X156187369Y-134237000D01*
X156721978Y-134130660D01*
X157175197Y-133827828D01*
X157478029Y-133374609D01*
X157584369Y-132840000D01*
X157478029Y-132305391D01*
X157175197Y-131852172D01*
X156752898Y-131570000D01*
X157175197Y-131287828D01*
X157478029Y-130834609D01*
X157584369Y-130300000D01*
X157478029Y-129765391D01*
X157175197Y-129312172D01*
X156752898Y-129030000D01*
X157175197Y-128747828D01*
X157478029Y-128294609D01*
X157584369Y-127760000D01*
X157478029Y-127225391D01*
X157175197Y-126772172D01*
X156752898Y-126490000D01*
X157175197Y-126207828D01*
X157478029Y-125754609D01*
X157584369Y-125220000D01*
X157478029Y-124685391D01*
X157175197Y-124232172D01*
X156752898Y-123950000D01*
X157175197Y-123667828D01*
X157478029Y-123214609D01*
X157584369Y-122680000D01*
X157478029Y-122145391D01*
X157175197Y-121692172D01*
X156752898Y-121410000D01*
X157175197Y-121127828D01*
X157478029Y-120674609D01*
X157584369Y-120140000D01*
X157478029Y-119605391D01*
X157175197Y-119152172D01*
X156752898Y-118870000D01*
X157175197Y-118587828D01*
X157478029Y-118134609D01*
X157584369Y-117600000D01*
X157478029Y-117065391D01*
X157175197Y-116612172D01*
X156752898Y-116330000D01*
X157175197Y-116047828D01*
X157478029Y-115594609D01*
X157584369Y-115060000D01*
X157478029Y-114525391D01*
X157175197Y-114072172D01*
X156752898Y-113790000D01*
X157175197Y-113507828D01*
X157478029Y-113054609D01*
X157584369Y-112520000D01*
X157478029Y-111985391D01*
X157175197Y-111532172D01*
X156752898Y-111250000D01*
X157175197Y-110967828D01*
X157478029Y-110514609D01*
X157584369Y-109980000D01*
X157478029Y-109445391D01*
X157175197Y-108992172D01*
X156752898Y-108710000D01*
X157175197Y-108427828D01*
X157478029Y-107974609D01*
X157584369Y-107440000D01*
X157478029Y-106905391D01*
X157175197Y-106452172D01*
X156752898Y-106170000D01*
X157175197Y-105887828D01*
X157478029Y-105434609D01*
X157584369Y-104900000D01*
X157478029Y-104365391D01*
X157175197Y-103912172D01*
X156752898Y-103630000D01*
X157175197Y-103347828D01*
X157478029Y-102894609D01*
X157584369Y-102360000D01*
X157478029Y-101825391D01*
X157175197Y-101372172D01*
X156722536Y-101069713D01*
X156995199Y-100939858D01*
X157360174Y-100534997D01*
X157514220Y-100163070D01*
X157391720Y-99947000D01*
X156287000Y-99947000D01*
X156287000Y-99967000D01*
X156033000Y-99967000D01*
X156033000Y-99947000D01*
X154928280Y-99947000D01*
X154805780Y-100163070D01*
X154959826Y-100534997D01*
X155324801Y-100939858D01*
X155597464Y-101069713D01*
X155144803Y-101372172D01*
X154841971Y-101825391D01*
X154735631Y-102360000D01*
X150110000Y-102360000D01*
X150110000Y-99820000D01*
X169975631Y-99820000D01*
X170081971Y-100354609D01*
X170384803Y-100807828D01*
X170807102Y-101090000D01*
X170384803Y-101372172D01*
X170081971Y-101825391D01*
X169975631Y-102360000D01*
X170081971Y-102894609D01*
X170384803Y-103347828D01*
X170807102Y-103630000D01*
X170384803Y-103912172D01*
X170081971Y-104365391D01*
X169975631Y-104900000D01*
X170081971Y-105434609D01*
X170384803Y-105887828D01*
X170807102Y-106170000D01*
X170384803Y-106452172D01*
X170081971Y-106905391D01*
X169975631Y-107440000D01*
X170081971Y-107974609D01*
X170384803Y-108427828D01*
X170807102Y-108710000D01*
X170384803Y-108992172D01*
X170081971Y-109445391D01*
X169975631Y-109980000D01*
X170081971Y-110514609D01*
X170384803Y-110967828D01*
X170807102Y-111250000D01*
X170384803Y-111532172D01*
X170081971Y-111985391D01*
X169975631Y-112520000D01*
X170081971Y-113054609D01*
X170384803Y-113507828D01*
X170807102Y-113790000D01*
X170384803Y-114072172D01*
X170081971Y-114525391D01*
X169975631Y-115060000D01*
X170081971Y-115594609D01*
X170384803Y-116047828D01*
X170807102Y-116330000D01*
X170384803Y-116612172D01*
X170081971Y-117065391D01*
X169975631Y-117600000D01*
X170081971Y-118134609D01*
X170384803Y-118587828D01*
X170807102Y-118870000D01*
X170384803Y-119152172D01*
X170081971Y-119605391D01*
X169975631Y-120140000D01*
X170081971Y-120674609D01*
X170384803Y-121127828D01*
X170807102Y-121410000D01*
X170384803Y-121692172D01*
X170081971Y-122145391D01*
X169975631Y-122680000D01*
X170081971Y-123214609D01*
X170384803Y-123667828D01*
X170807102Y-123950000D01*
X170384803Y-124232172D01*
X170081971Y-124685391D01*
X169975631Y-125220000D01*
X170081971Y-125754609D01*
X170384803Y-126207828D01*
X170807102Y-126490000D01*
X170384803Y-126772172D01*
X170081971Y-127225391D01*
X169975631Y-127760000D01*
X170081971Y-128294609D01*
X170384803Y-128747828D01*
X170807102Y-129030000D01*
X170384803Y-129312172D01*
X170081971Y-129765391D01*
X169975631Y-130300000D01*
X170081971Y-130834609D01*
X170384803Y-131287828D01*
X170807102Y-131570000D01*
X170384803Y-131852172D01*
X170081971Y-132305391D01*
X169975631Y-132840000D01*
X170081971Y-133374609D01*
X170384803Y-133827828D01*
X170838022Y-134130660D01*
X171372631Y-134237000D01*
X171427369Y-134237000D01*
X171961978Y-134130660D01*
X172415197Y-133827828D01*
X172718029Y-133374609D01*
X172824369Y-132840000D01*
X172718029Y-132305391D01*
X172415197Y-131852172D01*
X171992898Y-131570000D01*
X172415197Y-131287828D01*
X172718029Y-130834609D01*
X172824369Y-130300000D01*
X172718029Y-129765391D01*
X172415197Y-129312172D01*
X171992898Y-129030000D01*
X172415197Y-128747828D01*
X172718029Y-128294609D01*
X172824369Y-127760000D01*
X172718029Y-127225391D01*
X172415197Y-126772172D01*
X171992898Y-126490000D01*
X172415197Y-126207828D01*
X172718029Y-125754609D01*
X172824369Y-125220000D01*
X172718029Y-124685391D01*
X172415197Y-124232172D01*
X171992898Y-123950000D01*
X172415197Y-123667828D01*
X172718029Y-123214609D01*
X172824369Y-122680000D01*
X172718029Y-122145391D01*
X172415197Y-121692172D01*
X171992898Y-121410000D01*
X172415197Y-121127828D01*
X172644156Y-120785167D01*
X187964838Y-120785167D01*
X188106883Y-121128943D01*
X188369673Y-121392192D01*
X188713201Y-121534838D01*
X189085167Y-121535162D01*
X189428943Y-121393117D01*
X189692192Y-121130327D01*
X189834838Y-120786799D01*
X189834879Y-120739923D01*
X191939680Y-118635122D01*
X191985167Y-118635162D01*
X192328943Y-118493117D01*
X192592192Y-118230327D01*
X192734838Y-117886799D01*
X192735162Y-117514833D01*
X192593117Y-117171057D01*
X192330327Y-116907808D01*
X191986799Y-116765162D01*
X191614833Y-116764838D01*
X191271057Y-116906883D01*
X191007808Y-117169673D01*
X190865162Y-117513201D01*
X190865121Y-117560077D01*
X188760320Y-119664878D01*
X188714833Y-119664838D01*
X188371057Y-119806883D01*
X188107808Y-120069673D01*
X187965162Y-120413201D01*
X187964838Y-120785167D01*
X172644156Y-120785167D01*
X172718029Y-120674609D01*
X172824369Y-120140000D01*
X172718029Y-119605391D01*
X172415197Y-119152172D01*
X171992898Y-118870000D01*
X172415197Y-118587828D01*
X172567427Y-118360000D01*
X173000000Y-118360000D01*
X173290839Y-118302148D01*
X173537401Y-118137401D01*
X177354012Y-114320790D01*
X179540000Y-114320790D01*
X179540000Y-114486056D01*
X179597852Y-114776895D01*
X179762599Y-115023457D01*
X180976543Y-116237401D01*
X181223105Y-116402148D01*
X181513944Y-116460000D01*
X182037537Y-116460000D01*
X182069673Y-116492192D01*
X182413201Y-116634838D01*
X182785167Y-116635162D01*
X183128943Y-116493117D01*
X183392192Y-116230327D01*
X183534838Y-115886799D01*
X183535162Y-115514833D01*
X183393117Y-115171057D01*
X183130327Y-114907808D01*
X182786799Y-114765162D01*
X182414833Y-114764838D01*
X182071057Y-114906883D01*
X182037882Y-114940000D01*
X181828746Y-114940000D01*
X181060000Y-114171254D01*
X181060000Y-114074216D01*
X181195628Y-113747589D01*
X181195669Y-113700713D01*
X183958981Y-110937401D01*
X184123728Y-110690839D01*
X184181580Y-110400000D01*
X184181580Y-106593222D01*
X184314802Y-106460000D01*
X185037537Y-106460000D01*
X185069673Y-106492192D01*
X185413201Y-106634838D01*
X185785167Y-106635162D01*
X186128943Y-106493117D01*
X186392192Y-106230327D01*
X186534838Y-105886799D01*
X186535162Y-105514833D01*
X186393117Y-105171057D01*
X186130327Y-104907808D01*
X185786799Y-104765162D01*
X185414833Y-104764838D01*
X185071057Y-104906883D01*
X185037882Y-104940000D01*
X184000000Y-104940000D01*
X183757414Y-104988254D01*
X183709160Y-104997852D01*
X183462599Y-105162599D01*
X182884179Y-105741019D01*
X182719432Y-105987581D01*
X182661580Y-106278420D01*
X182661580Y-110085198D01*
X180121110Y-112625668D01*
X180075623Y-112625628D01*
X179731847Y-112767673D01*
X179698672Y-112800790D01*
X177039210Y-112800790D01*
X176748371Y-112858642D01*
X176501809Y-113023389D01*
X172685198Y-116840000D01*
X172567427Y-116840000D01*
X172415197Y-116612172D01*
X171992898Y-116330000D01*
X172415197Y-116047828D01*
X172567427Y-115820000D01*
X172740000Y-115820000D01*
X173030839Y-115762148D01*
X173277401Y-115597401D01*
X174137401Y-114737401D01*
X174302148Y-114490839D01*
X174360000Y-114200000D01*
X174360000Y-106514802D01*
X176203371Y-104671431D01*
X190287553Y-104671431D01*
X193081665Y-107465543D01*
X193081665Y-112243533D01*
X188136320Y-117188878D01*
X188090833Y-117188838D01*
X187747057Y-117330883D01*
X187483808Y-117593673D01*
X187341162Y-117937201D01*
X187340838Y-118309167D01*
X187482883Y-118652943D01*
X187745673Y-118916192D01*
X188089201Y-119058838D01*
X188461167Y-119059162D01*
X188804943Y-118917117D01*
X189068192Y-118654327D01*
X189210838Y-118310799D01*
X189210879Y-118263923D01*
X194379066Y-113095736D01*
X194543813Y-112849174D01*
X194601665Y-112558335D01*
X194601665Y-107150741D01*
X194543813Y-106859902D01*
X194379066Y-106613340D01*
X191139756Y-103374030D01*
X190893194Y-103209283D01*
X190602355Y-103151431D01*
X175888569Y-103151431D01*
X175597729Y-103209283D01*
X175351168Y-103374030D01*
X173062599Y-105662599D01*
X172897852Y-105909161D01*
X172840000Y-106200000D01*
X172840000Y-113885198D01*
X172510458Y-114214740D01*
X172415197Y-114072172D01*
X171992898Y-113790000D01*
X172415197Y-113507828D01*
X172718029Y-113054609D01*
X172824369Y-112520000D01*
X172718029Y-111985391D01*
X172415197Y-111532172D01*
X171992898Y-111250000D01*
X172415197Y-110967828D01*
X172718029Y-110514609D01*
X172824369Y-109980000D01*
X172718029Y-109445391D01*
X172415197Y-108992172D01*
X171992898Y-108710000D01*
X172415197Y-108427828D01*
X172718029Y-107974609D01*
X172824369Y-107440000D01*
X172718029Y-106905391D01*
X172415197Y-106452172D01*
X171992898Y-106170000D01*
X172415197Y-105887828D01*
X172718029Y-105434609D01*
X172824369Y-104900000D01*
X172718029Y-104365391D01*
X172415197Y-103912172D01*
X171992898Y-103630000D01*
X172415197Y-103347828D01*
X172718029Y-102894609D01*
X172824369Y-102360000D01*
X172718029Y-101825391D01*
X172415197Y-101372172D01*
X171992898Y-101090000D01*
X172415197Y-100807828D01*
X172718029Y-100354609D01*
X172824369Y-99820000D01*
X172718029Y-99285391D01*
X172415197Y-98832172D01*
X171961978Y-98529340D01*
X171427369Y-98423000D01*
X171372631Y-98423000D01*
X170838022Y-98529340D01*
X170384803Y-98832172D01*
X170081971Y-99285391D01*
X169975631Y-99820000D01*
X150110000Y-99820000D01*
X150110000Y-99476930D01*
X154805780Y-99476930D01*
X154928280Y-99693000D01*
X156033000Y-99693000D01*
X156033000Y-98587524D01*
X156287000Y-98587524D01*
X156287000Y-99693000D01*
X157391720Y-99693000D01*
X157514220Y-99476930D01*
X157360174Y-99105003D01*
X156995199Y-98700142D01*
X156503072Y-98465769D01*
X156287000Y-98587524D01*
X156033000Y-98587524D01*
X155816928Y-98465769D01*
X155324801Y-98700142D01*
X154959826Y-99105003D01*
X154805780Y-99476930D01*
X150110000Y-99476930D01*
X150110000Y-94442619D01*
X151764613Y-94442619D01*
X152104155Y-95264372D01*
X152732321Y-95893636D01*
X153553481Y-96234611D01*
X154442619Y-96235387D01*
X155264372Y-95895845D01*
X155893636Y-95267679D01*
X156234611Y-94446519D01*
X156234614Y-94442619D01*
X195564613Y-94442619D01*
X195904155Y-95264372D01*
X196532321Y-95893636D01*
X197353481Y-96234611D01*
X198242619Y-96235387D01*
X199064372Y-95895845D01*
X199693636Y-95267679D01*
X200034611Y-94446519D01*
X200035387Y-93557381D01*
X199695845Y-92735628D01*
X199067679Y-92106364D01*
X198246519Y-91765389D01*
X197357381Y-91764613D01*
X196535628Y-92104155D01*
X195906364Y-92732321D01*
X195565389Y-93553481D01*
X195564613Y-94442619D01*
X156234614Y-94442619D01*
X156235387Y-93557381D01*
X155895845Y-92735628D01*
X155267679Y-92106364D01*
X154446519Y-91765389D01*
X153557381Y-91764613D01*
X152735628Y-92104155D01*
X152106364Y-92732321D01*
X151765389Y-93553481D01*
X151764613Y-94442619D01*
X150110000Y-94442619D01*
X150110000Y-90110000D01*
X201690000Y-90110000D01*
X201690000Y-141690000D01*
X201690000Y-141690000D01*
G37*
X201690000Y-141690000D02*
X150110000Y-141690000D01*
X150110000Y-138242619D01*
X151864613Y-138242619D01*
X152204155Y-139064372D01*
X152832321Y-139693636D01*
X153653481Y-140034611D01*
X154542619Y-140035387D01*
X155364372Y-139695845D01*
X155993636Y-139067679D01*
X156334611Y-138246519D01*
X156334614Y-138242619D01*
X195564613Y-138242619D01*
X195904155Y-139064372D01*
X196532321Y-139693636D01*
X197353481Y-140034611D01*
X198242619Y-140035387D01*
X199064372Y-139695845D01*
X199693636Y-139067679D01*
X200034611Y-138246519D01*
X200035387Y-137357381D01*
X199695845Y-136535628D01*
X199067679Y-135906364D01*
X198246519Y-135565389D01*
X197357381Y-135564613D01*
X196535628Y-135904155D01*
X195906364Y-136532321D01*
X195565389Y-137353481D01*
X195564613Y-138242619D01*
X156334614Y-138242619D01*
X156335387Y-137357381D01*
X155995845Y-136535628D01*
X155367679Y-135906364D01*
X154546519Y-135565389D01*
X153657381Y-135564613D01*
X152835628Y-135904155D01*
X152206364Y-136532321D01*
X151865389Y-137353481D01*
X151864613Y-138242619D01*
X150110000Y-138242619D01*
X150110000Y-102360000D01*
X154735631Y-102360000D01*
X154841971Y-102894609D01*
X155144803Y-103347828D01*
X155567102Y-103630000D01*
X155144803Y-103912172D01*
X154841971Y-104365391D01*
X154735631Y-104900000D01*
X154841971Y-105434609D01*
X155144803Y-105887828D01*
X155567102Y-106170000D01*
X155144803Y-106452172D01*
X154841971Y-106905391D01*
X154735631Y-107440000D01*
X154841971Y-107974609D01*
X155144803Y-108427828D01*
X155567102Y-108710000D01*
X155144803Y-108992172D01*
X154841971Y-109445391D01*
X154735631Y-109980000D01*
X154841971Y-110514609D01*
X155144803Y-110967828D01*
X155567102Y-111250000D01*
X155144803Y-111532172D01*
X154841971Y-111985391D01*
X154735631Y-112520000D01*
X154841971Y-113054609D01*
X155144803Y-113507828D01*
X155567102Y-113790000D01*
X155144803Y-114072172D01*
X154841971Y-114525391D01*
X154735631Y-115060000D01*
X154841971Y-115594609D01*
X155144803Y-116047828D01*
X155567102Y-116330000D01*
X155144803Y-116612172D01*
X154841971Y-117065391D01*
X154735631Y-117600000D01*
X154841971Y-118134609D01*
X155144803Y-118587828D01*
X155567102Y-118870000D01*
X155144803Y-119152172D01*
X154841971Y-119605391D01*
X154735631Y-120140000D01*
X154841971Y-120674609D01*
X155144803Y-121127828D01*
X155567102Y-121410000D01*
X155144803Y-121692172D01*
X154841971Y-122145391D01*
X154735631Y-122680000D01*
X154841971Y-123214609D01*
X155144803Y-123667828D01*
X155567102Y-123950000D01*
X155144803Y-124232172D01*
X154841971Y-124685391D01*
X154735631Y-125220000D01*
X154841971Y-125754609D01*
X155144803Y-126207828D01*
X155567102Y-126490000D01*
X155144803Y-126772172D01*
X154841971Y-127225391D01*
X154735631Y-127760000D01*
X154841971Y-128294609D01*
X155144803Y-128747828D01*
X155567102Y-129030000D01*
X155144803Y-129312172D01*
X154841971Y-129765391D01*
X154735631Y-130300000D01*
X154841971Y-130834609D01*
X155144803Y-131287828D01*
X155567102Y-131570000D01*
X155144803Y-131852172D01*
X154841971Y-132305391D01*
X154735631Y-132840000D01*
X154841971Y-133374609D01*
X155144803Y-133827828D01*
X155598022Y-134130660D01*
X156132631Y-134237000D01*
X156187369Y-134237000D01*
X156721978Y-134130660D01*
X157175197Y-133827828D01*
X157478029Y-133374609D01*
X157584369Y-132840000D01*
X157478029Y-132305391D01*
X157175197Y-131852172D01*
X156752898Y-131570000D01*
X157175197Y-131287828D01*
X157478029Y-130834609D01*
X157584369Y-130300000D01*
X157478029Y-129765391D01*
X157175197Y-129312172D01*
X156752898Y-129030000D01*
X157175197Y-128747828D01*
X157478029Y-128294609D01*
X157584369Y-127760000D01*
X157478029Y-127225391D01*
X157175197Y-126772172D01*
X156752898Y-126490000D01*
X157175197Y-126207828D01*
X157478029Y-125754609D01*
X157584369Y-125220000D01*
X157478029Y-124685391D01*
X157175197Y-124232172D01*
X156752898Y-123950000D01*
X157175197Y-123667828D01*
X157478029Y-123214609D01*
X157584369Y-122680000D01*
X157478029Y-122145391D01*
X157175197Y-121692172D01*
X156752898Y-121410000D01*
X157175197Y-121127828D01*
X157478029Y-120674609D01*
X157584369Y-120140000D01*
X157478029Y-119605391D01*
X157175197Y-119152172D01*
X156752898Y-118870000D01*
X157175197Y-118587828D01*
X157478029Y-118134609D01*
X157584369Y-117600000D01*
X157478029Y-117065391D01*
X157175197Y-116612172D01*
X156752898Y-116330000D01*
X157175197Y-116047828D01*
X157478029Y-115594609D01*
X157584369Y-115060000D01*
X157478029Y-114525391D01*
X157175197Y-114072172D01*
X156752898Y-113790000D01*
X157175197Y-113507828D01*
X157478029Y-113054609D01*
X157584369Y-112520000D01*
X157478029Y-111985391D01*
X157175197Y-111532172D01*
X156752898Y-111250000D01*
X157175197Y-110967828D01*
X157478029Y-110514609D01*
X157584369Y-109980000D01*
X157478029Y-109445391D01*
X157175197Y-108992172D01*
X156752898Y-108710000D01*
X157175197Y-108427828D01*
X157478029Y-107974609D01*
X157584369Y-107440000D01*
X157478029Y-106905391D01*
X157175197Y-106452172D01*
X156752898Y-106170000D01*
X157175197Y-105887828D01*
X157478029Y-105434609D01*
X157584369Y-104900000D01*
X157478029Y-104365391D01*
X157175197Y-103912172D01*
X156752898Y-103630000D01*
X157175197Y-103347828D01*
X157478029Y-102894609D01*
X157584369Y-102360000D01*
X157478029Y-101825391D01*
X157175197Y-101372172D01*
X156722536Y-101069713D01*
X156995199Y-100939858D01*
X157360174Y-100534997D01*
X157514220Y-100163070D01*
X157391720Y-99947000D01*
X156287000Y-99947000D01*
X156287000Y-99967000D01*
X156033000Y-99967000D01*
X156033000Y-99947000D01*
X154928280Y-99947000D01*
X154805780Y-100163070D01*
X154959826Y-100534997D01*
X155324801Y-100939858D01*
X155597464Y-101069713D01*
X155144803Y-101372172D01*
X154841971Y-101825391D01*
X154735631Y-102360000D01*
X150110000Y-102360000D01*
X150110000Y-99820000D01*
X169975631Y-99820000D01*
X170081971Y-100354609D01*
X170384803Y-100807828D01*
X170807102Y-101090000D01*
X170384803Y-101372172D01*
X170081971Y-101825391D01*
X169975631Y-102360000D01*
X170081971Y-102894609D01*
X170384803Y-103347828D01*
X170807102Y-103630000D01*
X170384803Y-103912172D01*
X170081971Y-104365391D01*
X169975631Y-104900000D01*
X170081971Y-105434609D01*
X170384803Y-105887828D01*
X170807102Y-106170000D01*
X170384803Y-106452172D01*
X170081971Y-106905391D01*
X169975631Y-107440000D01*
X170081971Y-107974609D01*
X170384803Y-108427828D01*
X170807102Y-108710000D01*
X170384803Y-108992172D01*
X170081971Y-109445391D01*
X169975631Y-109980000D01*
X170081971Y-110514609D01*
X170384803Y-110967828D01*
X170807102Y-111250000D01*
X170384803Y-111532172D01*
X170081971Y-111985391D01*
X169975631Y-112520000D01*
X170081971Y-113054609D01*
X170384803Y-113507828D01*
X170807102Y-113790000D01*
X170384803Y-114072172D01*
X170081971Y-114525391D01*
X169975631Y-115060000D01*
X170081971Y-115594609D01*
X170384803Y-116047828D01*
X170807102Y-116330000D01*
X170384803Y-116612172D01*
X170081971Y-117065391D01*
X169975631Y-117600000D01*
X170081971Y-118134609D01*
X170384803Y-118587828D01*
X170807102Y-118870000D01*
X170384803Y-119152172D01*
X170081971Y-119605391D01*
X169975631Y-120140000D01*
X170081971Y-120674609D01*
X170384803Y-121127828D01*
X170807102Y-121410000D01*
X170384803Y-121692172D01*
X170081971Y-122145391D01*
X169975631Y-122680000D01*
X170081971Y-123214609D01*
X170384803Y-123667828D01*
X170807102Y-123950000D01*
X170384803Y-124232172D01*
X170081971Y-124685391D01*
X169975631Y-125220000D01*
X170081971Y-125754609D01*
X170384803Y-126207828D01*
X170807102Y-126490000D01*
X170384803Y-126772172D01*
X170081971Y-127225391D01*
X169975631Y-127760000D01*
X170081971Y-128294609D01*
X170384803Y-128747828D01*
X170807102Y-129030000D01*
X170384803Y-129312172D01*
X170081971Y-129765391D01*
X169975631Y-130300000D01*
X170081971Y-130834609D01*
X170384803Y-131287828D01*
X170807102Y-131570000D01*
X170384803Y-131852172D01*
X170081971Y-132305391D01*
X169975631Y-132840000D01*
X170081971Y-133374609D01*
X170384803Y-133827828D01*
X170838022Y-134130660D01*
X171372631Y-134237000D01*
X171427369Y-134237000D01*
X171961978Y-134130660D01*
X172415197Y-133827828D01*
X172718029Y-133374609D01*
X172824369Y-132840000D01*
X172718029Y-132305391D01*
X172415197Y-131852172D01*
X171992898Y-131570000D01*
X172415197Y-131287828D01*
X172718029Y-130834609D01*
X172824369Y-130300000D01*
X172718029Y-129765391D01*
X172415197Y-129312172D01*
X171992898Y-129030000D01*
X172415197Y-128747828D01*
X172718029Y-128294609D01*
X172824369Y-127760000D01*
X172718029Y-127225391D01*
X172415197Y-126772172D01*
X171992898Y-126490000D01*
X172415197Y-126207828D01*
X172718029Y-125754609D01*
X172824369Y-125220000D01*
X172718029Y-124685391D01*
X172415197Y-124232172D01*
X171992898Y-123950000D01*
X172415197Y-123667828D01*
X172718029Y-123214609D01*
X172824369Y-122680000D01*
X172718029Y-122145391D01*
X172415197Y-121692172D01*
X171992898Y-121410000D01*
X172415197Y-121127828D01*
X172644156Y-120785167D01*
X187964838Y-120785167D01*
X188106883Y-121128943D01*
X188369673Y-121392192D01*
X188713201Y-121534838D01*
X189085167Y-121535162D01*
X189428943Y-121393117D01*
X189692192Y-121130327D01*
X189834838Y-120786799D01*
X189834879Y-120739923D01*
X191939680Y-118635122D01*
X191985167Y-118635162D01*
X192328943Y-118493117D01*
X192592192Y-118230327D01*
X192734838Y-117886799D01*
X192735162Y-117514833D01*
X192593117Y-117171057D01*
X192330327Y-116907808D01*
X191986799Y-116765162D01*
X191614833Y-116764838D01*
X191271057Y-116906883D01*
X191007808Y-117169673D01*
X190865162Y-117513201D01*
X190865121Y-117560077D01*
X188760320Y-119664878D01*
X188714833Y-119664838D01*
X188371057Y-119806883D01*
X188107808Y-120069673D01*
X187965162Y-120413201D01*
X187964838Y-120785167D01*
X172644156Y-120785167D01*
X172718029Y-120674609D01*
X172824369Y-120140000D01*
X172718029Y-119605391D01*
X172415197Y-119152172D01*
X171992898Y-118870000D01*
X172415197Y-118587828D01*
X172567427Y-118360000D01*
X173000000Y-118360000D01*
X173290839Y-118302148D01*
X173537401Y-118137401D01*
X177354012Y-114320790D01*
X179540000Y-114320790D01*
X179540000Y-114486056D01*
X179597852Y-114776895D01*
X179762599Y-115023457D01*
X180976543Y-116237401D01*
X181223105Y-116402148D01*
X181513944Y-116460000D01*
X182037537Y-116460000D01*
X182069673Y-116492192D01*
X182413201Y-116634838D01*
X182785167Y-116635162D01*
X183128943Y-116493117D01*
X183392192Y-116230327D01*
X183534838Y-115886799D01*
X183535162Y-115514833D01*
X183393117Y-115171057D01*
X183130327Y-114907808D01*
X182786799Y-114765162D01*
X182414833Y-114764838D01*
X182071057Y-114906883D01*
X182037882Y-114940000D01*
X181828746Y-114940000D01*
X181060000Y-114171254D01*
X181060000Y-114074216D01*
X181195628Y-113747589D01*
X181195669Y-113700713D01*
X183958981Y-110937401D01*
X184123728Y-110690839D01*
X184181580Y-110400000D01*
X184181580Y-106593222D01*
X184314802Y-106460000D01*
X185037537Y-106460000D01*
X185069673Y-106492192D01*
X185413201Y-106634838D01*
X185785167Y-106635162D01*
X186128943Y-106493117D01*
X186392192Y-106230327D01*
X186534838Y-105886799D01*
X186535162Y-105514833D01*
X186393117Y-105171057D01*
X186130327Y-104907808D01*
X185786799Y-104765162D01*
X185414833Y-104764838D01*
X185071057Y-104906883D01*
X185037882Y-104940000D01*
X184000000Y-104940000D01*
X183757414Y-104988254D01*
X183709160Y-104997852D01*
X183462599Y-105162599D01*
X182884179Y-105741019D01*
X182719432Y-105987581D01*
X182661580Y-106278420D01*
X182661580Y-110085198D01*
X180121110Y-112625668D01*
X180075623Y-112625628D01*
X179731847Y-112767673D01*
X179698672Y-112800790D01*
X177039210Y-112800790D01*
X176748371Y-112858642D01*
X176501809Y-113023389D01*
X172685198Y-116840000D01*
X172567427Y-116840000D01*
X172415197Y-116612172D01*
X171992898Y-116330000D01*
X172415197Y-116047828D01*
X172567427Y-115820000D01*
X172740000Y-115820000D01*
X173030839Y-115762148D01*
X173277401Y-115597401D01*
X174137401Y-114737401D01*
X174302148Y-114490839D01*
X174360000Y-114200000D01*
X174360000Y-106514802D01*
X176203371Y-104671431D01*
X190287553Y-104671431D01*
X193081665Y-107465543D01*
X193081665Y-112243533D01*
X188136320Y-117188878D01*
X188090833Y-117188838D01*
X187747057Y-117330883D01*
X187483808Y-117593673D01*
X187341162Y-117937201D01*
X187340838Y-118309167D01*
X187482883Y-118652943D01*
X187745673Y-118916192D01*
X188089201Y-119058838D01*
X188461167Y-119059162D01*
X188804943Y-118917117D01*
X189068192Y-118654327D01*
X189210838Y-118310799D01*
X189210879Y-118263923D01*
X194379066Y-113095736D01*
X194543813Y-112849174D01*
X194601665Y-112558335D01*
X194601665Y-107150741D01*
X194543813Y-106859902D01*
X194379066Y-106613340D01*
X191139756Y-103374030D01*
X190893194Y-103209283D01*
X190602355Y-103151431D01*
X175888569Y-103151431D01*
X175597729Y-103209283D01*
X175351168Y-103374030D01*
X173062599Y-105662599D01*
X172897852Y-105909161D01*
X172840000Y-106200000D01*
X172840000Y-113885198D01*
X172510458Y-114214740D01*
X172415197Y-114072172D01*
X171992898Y-113790000D01*
X172415197Y-113507828D01*
X172718029Y-113054609D01*
X172824369Y-112520000D01*
X172718029Y-111985391D01*
X172415197Y-111532172D01*
X171992898Y-111250000D01*
X172415197Y-110967828D01*
X172718029Y-110514609D01*
X172824369Y-109980000D01*
X172718029Y-109445391D01*
X172415197Y-108992172D01*
X171992898Y-108710000D01*
X172415197Y-108427828D01*
X172718029Y-107974609D01*
X172824369Y-107440000D01*
X172718029Y-106905391D01*
X172415197Y-106452172D01*
X171992898Y-106170000D01*
X172415197Y-105887828D01*
X172718029Y-105434609D01*
X172824369Y-104900000D01*
X172718029Y-104365391D01*
X172415197Y-103912172D01*
X171992898Y-103630000D01*
X172415197Y-103347828D01*
X172718029Y-102894609D01*
X172824369Y-102360000D01*
X172718029Y-101825391D01*
X172415197Y-101372172D01*
X171992898Y-101090000D01*
X172415197Y-100807828D01*
X172718029Y-100354609D01*
X172824369Y-99820000D01*
X172718029Y-99285391D01*
X172415197Y-98832172D01*
X171961978Y-98529340D01*
X171427369Y-98423000D01*
X171372631Y-98423000D01*
X170838022Y-98529340D01*
X170384803Y-98832172D01*
X170081971Y-99285391D01*
X169975631Y-99820000D01*
X150110000Y-99820000D01*
X150110000Y-99476930D01*
X154805780Y-99476930D01*
X154928280Y-99693000D01*
X156033000Y-99693000D01*
X156033000Y-98587524D01*
X156287000Y-98587524D01*
X156287000Y-99693000D01*
X157391720Y-99693000D01*
X157514220Y-99476930D01*
X157360174Y-99105003D01*
X156995199Y-98700142D01*
X156503072Y-98465769D01*
X156287000Y-98587524D01*
X156033000Y-98587524D01*
X155816928Y-98465769D01*
X155324801Y-98700142D01*
X154959826Y-99105003D01*
X154805780Y-99476930D01*
X150110000Y-99476930D01*
X150110000Y-94442619D01*
X151764613Y-94442619D01*
X152104155Y-95264372D01*
X152732321Y-95893636D01*
X153553481Y-96234611D01*
X154442619Y-96235387D01*
X155264372Y-95895845D01*
X155893636Y-95267679D01*
X156234611Y-94446519D01*
X156234614Y-94442619D01*
X195564613Y-94442619D01*
X195904155Y-95264372D01*
X196532321Y-95893636D01*
X197353481Y-96234611D01*
X198242619Y-96235387D01*
X199064372Y-95895845D01*
X199693636Y-95267679D01*
X200034611Y-94446519D01*
X200035387Y-93557381D01*
X199695845Y-92735628D01*
X199067679Y-92106364D01*
X198246519Y-91765389D01*
X197357381Y-91764613D01*
X196535628Y-92104155D01*
X195906364Y-92732321D01*
X195565389Y-93553481D01*
X195564613Y-94442619D01*
X156234614Y-94442619D01*
X156235387Y-93557381D01*
X155895845Y-92735628D01*
X155267679Y-92106364D01*
X154446519Y-91765389D01*
X153557381Y-91764613D01*
X152735628Y-92104155D01*
X152106364Y-92732321D01*
X151765389Y-93553481D01*
X151764613Y-94442619D01*
X150110000Y-94442619D01*
X150110000Y-90110000D01*
X201690000Y-90110000D01*
X201690000Y-141690000D01*
M02*
