G04 #@! TF.FileFunction,Copper,L1,Top,Signal*
%FSLAX46Y46*%
G04 Gerber Fmt 4.6, Leading zero omitted, Abs format (unit mm)*
G04 Created by KiCad (PCBNEW 4.0.4-stable) date 12/14/16 14:43:15*
%MOMM*%
%LPD*%
G01*
G04 APERTURE LIST*
%ADD10C,0.020000*%
%ADD11C,1.501140*%
%ADD12C,2.999740*%
%ADD13R,1.300000X0.700000*%
%ADD14R,0.700000X1.300000*%
%ADD15R,1.000000X1.250000*%
%ADD16R,1.250000X1.000000*%
%ADD17R,2.032000X2.032000*%
%ADD18O,2.032000X2.032000*%
%ADD19R,1.300000X0.250000*%
%ADD20R,0.250000X1.300000*%
%ADD21R,2.500000X3.000000*%
%ADD22R,2.301240X0.500380*%
%ADD23R,2.499360X1.998980*%
%ADD24C,0.600000*%
%ADD25C,0.300000*%
%ADD26C,0.600000*%
%ADD27C,0.254000*%
G04 APERTURE END LIST*
D10*
D11*
X126301500Y-118681500D03*
X126301500Y-121221500D03*
X126301500Y-123253500D03*
X126301500Y-125793500D03*
D12*
X123634500Y-115633500D03*
X123634500Y-129349500D03*
D13*
X166179500Y-121600000D03*
X166179500Y-119700000D03*
X169227500Y-117980500D03*
X169227500Y-116080500D03*
D14*
X184780000Y-98171000D03*
X182880000Y-98171000D03*
X181036000Y-95250000D03*
X179136000Y-95250000D03*
D13*
X155511500Y-80647500D03*
X155511500Y-82547500D03*
X153479500Y-84394000D03*
X153479500Y-86294000D03*
D14*
X130495000Y-122618500D03*
X132395000Y-122618500D03*
X134432000Y-125158500D03*
X136332000Y-125158500D03*
D13*
X176212500Y-80774500D03*
X176212500Y-82674500D03*
X173926500Y-85537000D03*
X173926500Y-87437000D03*
X145923000Y-121028500D03*
X145923000Y-119128500D03*
X148399500Y-117919500D03*
X148399500Y-116019500D03*
D14*
X184401500Y-119189500D03*
X182501500Y-119189500D03*
D15*
X180768500Y-115697000D03*
X178768500Y-115697000D03*
D16*
X139954000Y-105838500D03*
X139954000Y-103838500D03*
D15*
X141494000Y-86614000D03*
X143494000Y-86614000D03*
X149653500Y-86677500D03*
X147653500Y-86677500D03*
D16*
X134429500Y-104473500D03*
X134429500Y-106473500D03*
D17*
X138747500Y-114554000D03*
D18*
X136207500Y-114554000D03*
D11*
X161798000Y-126111000D03*
X164338000Y-126111000D03*
X166370000Y-126111000D03*
X168910000Y-126111000D03*
D12*
X158750000Y-128778000D03*
X172466000Y-128778000D03*
D11*
X188722000Y-102108000D03*
X188722000Y-99568000D03*
X188722000Y-97536000D03*
X188722000Y-94996000D03*
D12*
X191389000Y-105156000D03*
X191389000Y-91440000D03*
D11*
X159322360Y-77662620D03*
X156782360Y-77662620D03*
X154750360Y-77662620D03*
X152210360Y-77662620D03*
D12*
X162370360Y-74995620D03*
X148654360Y-74995620D03*
D11*
X180135967Y-77736021D03*
X177595967Y-77736021D03*
X175563967Y-77736021D03*
X173023967Y-77736021D03*
D12*
X183183967Y-75069021D03*
X169467967Y-75069021D03*
D11*
X141478000Y-125984000D03*
X144018000Y-125984000D03*
X146050000Y-125984000D03*
X148590000Y-125984000D03*
D12*
X138430000Y-128651000D03*
X152146000Y-128651000D03*
D11*
X188722000Y-122809000D03*
X188722000Y-120269000D03*
X188722000Y-118237000D03*
X188722000Y-115697000D03*
D12*
X191389000Y-125857000D03*
X191389000Y-112141000D03*
D13*
X167449500Y-129860000D03*
X167449500Y-131760000D03*
X163703000Y-129733000D03*
X163703000Y-131633000D03*
D14*
X192280500Y-96266000D03*
X194180500Y-96266000D03*
X192471000Y-100520500D03*
X194371000Y-100520500D03*
D13*
X154178000Y-74991000D03*
X154178000Y-73091000D03*
D14*
X146306500Y-95694500D03*
X148206500Y-95694500D03*
D13*
X157734000Y-74991000D03*
X157734000Y-73091000D03*
D14*
X122870000Y-124650500D03*
X120970000Y-124650500D03*
X122933500Y-120205500D03*
X121033500Y-120205500D03*
D13*
X174293967Y-74876021D03*
X174293967Y-72976021D03*
X178230967Y-74876021D03*
X178230967Y-72976021D03*
X147129500Y-129542500D03*
X147129500Y-131442500D03*
X142621000Y-129415500D03*
X142621000Y-131315500D03*
D14*
X192725000Y-116586000D03*
X194625000Y-116586000D03*
X192725000Y-121031000D03*
X194625000Y-121031000D03*
X126870500Y-100012500D03*
X124970500Y-100012500D03*
X132077500Y-102171500D03*
X130177500Y-102171500D03*
X141539000Y-96456500D03*
X139639000Y-96456500D03*
D19*
X142558520Y-100460360D03*
X142558520Y-100960360D03*
X142558520Y-101460360D03*
X142558520Y-101960360D03*
X142558520Y-102460360D03*
X142558520Y-102960360D03*
X142558520Y-103460360D03*
X142558520Y-103960360D03*
X142558520Y-104460360D03*
X142558520Y-104960360D03*
X142558520Y-105460360D03*
X142558520Y-105960360D03*
D20*
X144158520Y-107560360D03*
X144658520Y-107560360D03*
X145158520Y-107560360D03*
X145658520Y-107560360D03*
X146158520Y-107560360D03*
X146658520Y-107560360D03*
X147158520Y-107560360D03*
X147658520Y-107560360D03*
X148158520Y-107560360D03*
X148658520Y-107560360D03*
X149158520Y-107560360D03*
X149658520Y-107560360D03*
D19*
X151258520Y-105960360D03*
X151258520Y-105460360D03*
X151258520Y-104960360D03*
X151258520Y-104460360D03*
X151258520Y-103960360D03*
X151258520Y-103460360D03*
X151258520Y-102960360D03*
X151258520Y-102460360D03*
X151258520Y-101960360D03*
X151258520Y-101460360D03*
X151258520Y-100960360D03*
X151258520Y-100460360D03*
D20*
X149658520Y-98860360D03*
X149158520Y-98860360D03*
X148658520Y-98860360D03*
X148158520Y-98860360D03*
X147658520Y-98860360D03*
X147158520Y-98860360D03*
X146658520Y-98860360D03*
X146158520Y-98860360D03*
X145658520Y-98860360D03*
X145158520Y-98860360D03*
X144658520Y-98860360D03*
X144158520Y-98860360D03*
D21*
X149919000Y-91440000D03*
X141419000Y-91440000D03*
D17*
X129826102Y-84579358D03*
D18*
X129826102Y-82039358D03*
D14*
X140274000Y-110172500D03*
X142174000Y-110172500D03*
D22*
X121622820Y-100317300D03*
X121622820Y-101117400D03*
X121622820Y-101917500D03*
X121622820Y-102717600D03*
X121622820Y-103517700D03*
D23*
X121523760Y-97467420D03*
X116024660Y-97467420D03*
X121523760Y-106367580D03*
X116024660Y-106367580D03*
D24*
X145161000Y-100330000D03*
X121666000Y-79248000D03*
X148402000Y-100774500D03*
X143827500Y-104521000D03*
X144526000Y-88900000D03*
X146812000Y-97282000D03*
X138049000Y-97218500D03*
X133413500Y-107823000D03*
X151320500Y-107823000D03*
X122682000Y-108775500D03*
X116078000Y-95186500D03*
X147955000Y-97282000D03*
X123888500Y-98171000D03*
X146875500Y-101727000D03*
X145542000Y-102552500D03*
X139763500Y-100457000D03*
X143954500Y-100457000D03*
X139573000Y-98361500D03*
X145732500Y-104838500D03*
X147637500Y-112077500D03*
X149352000Y-105918000D03*
X149288500Y-103886000D03*
X149542500Y-101981000D03*
X151003000Y-97218500D03*
X171323000Y-117729000D03*
X179895500Y-92964000D03*
X151828500Y-85153500D03*
X134493000Y-127635000D03*
X171704000Y-86169500D03*
X150749000Y-116713000D03*
X179451000Y-113411000D03*
X132080000Y-100584000D03*
X164274500Y-119761000D03*
X182880000Y-100330000D03*
X157289500Y-82550000D03*
X132397500Y-120269000D03*
X178371500Y-82677000D03*
X143827500Y-119253000D03*
X182562500Y-121031000D03*
D25*
X167449500Y-129860000D02*
X167449500Y-127190500D01*
X167449500Y-127190500D02*
X166370000Y-126111000D01*
X166370000Y-126111000D02*
X166370000Y-121790500D01*
X166370000Y-121790500D02*
X166179500Y-121600000D01*
X164338000Y-126111000D02*
X164338000Y-129098000D01*
X164338000Y-129098000D02*
X163703000Y-129733000D01*
X164338000Y-126111000D02*
X165229499Y-125219501D01*
X165229499Y-125219501D02*
X165229499Y-121009999D01*
X165229499Y-121009999D02*
X165889497Y-120350001D01*
X165889497Y-120350001D02*
X167507999Y-120350001D01*
X167507999Y-120350001D02*
X169227500Y-118630500D01*
X169227500Y-118630500D02*
X169227500Y-117980500D01*
X188722000Y-97536000D02*
X191310500Y-97536000D01*
X191310500Y-97536000D02*
X192280500Y-96566000D01*
X192280500Y-96566000D02*
X192280500Y-96266000D01*
X188722000Y-97536000D02*
X185415000Y-97536000D01*
X185415000Y-97536000D02*
X184780000Y-98171000D01*
X188722000Y-99568000D02*
X191818500Y-99568000D01*
X191818500Y-99568000D02*
X192471000Y-100220500D01*
X192471000Y-100220500D02*
X192471000Y-100520500D01*
X188722000Y-99568000D02*
X184636998Y-99568000D01*
X184636998Y-99568000D02*
X184213500Y-99144502D01*
X184213500Y-99144502D02*
X184213500Y-99121001D01*
X184213500Y-99121001D02*
X184189999Y-99121001D01*
X184189999Y-99121001D02*
X183530001Y-98461003D01*
X183530001Y-98461003D02*
X183530001Y-97094001D01*
X183530001Y-97094001D02*
X181686000Y-95250000D01*
X181686000Y-95250000D02*
X181036000Y-95250000D01*
X154178000Y-74991000D02*
X154178000Y-77090260D01*
X154178000Y-77090260D02*
X154750360Y-77662620D01*
X154750360Y-77662620D02*
X154750360Y-79886360D01*
X154750360Y-79886360D02*
X155511500Y-80647500D01*
X157734000Y-74991000D02*
X157734000Y-76710980D01*
X157734000Y-76710980D02*
X156782360Y-77662620D01*
X156782360Y-77662620D02*
X156782360Y-80916642D01*
X156782360Y-80916642D02*
X155801503Y-81897499D01*
X155801503Y-81897499D02*
X154621499Y-81897499D01*
X154621499Y-81897499D02*
X153479500Y-83039498D01*
X153479500Y-83039498D02*
X153479500Y-83744000D01*
X153479500Y-83744000D02*
X153479500Y-84394000D01*
X122870000Y-124650500D02*
X124904500Y-124650500D01*
X124904500Y-124650500D02*
X126301500Y-123253500D01*
X126301500Y-123253500D02*
X129860000Y-123253500D01*
X129860000Y-123253500D02*
X130495000Y-122618500D01*
X126301500Y-121221500D02*
X125285500Y-120205500D01*
X125285500Y-120205500D02*
X122933500Y-120205500D01*
X126301500Y-121221500D02*
X130638002Y-121221500D01*
X133782000Y-125158500D02*
X134432000Y-125158500D01*
X130638002Y-121221500D02*
X131744999Y-122328497D01*
X131744999Y-122328497D02*
X131744999Y-123508501D01*
X131744999Y-123508501D02*
X133394998Y-125158500D01*
X133394998Y-125158500D02*
X133782000Y-125158500D01*
X175563967Y-77736021D02*
X175563967Y-80125967D01*
X175563967Y-80125967D02*
X176212500Y-80774500D01*
X174293967Y-74876021D02*
X174293967Y-76466021D01*
X174293967Y-76466021D02*
X175563967Y-77736021D01*
X177595967Y-77736021D02*
X177595967Y-80931035D01*
X177595967Y-80931035D02*
X176502503Y-82024499D01*
X176502503Y-82024499D02*
X175322499Y-82024499D01*
X175322499Y-82024499D02*
X173926500Y-83420498D01*
X173926500Y-83420498D02*
X173926500Y-84887000D01*
X173926500Y-84887000D02*
X173926500Y-85537000D01*
X177595967Y-77736021D02*
X177595967Y-75511021D01*
X177595967Y-75511021D02*
X178230967Y-74876021D01*
X146050000Y-125984000D02*
X146050000Y-121155500D01*
X146050000Y-121155500D02*
X145923000Y-121028500D01*
X146050000Y-125984000D02*
X146050000Y-128763000D01*
X146050000Y-128763000D02*
X146829500Y-129542500D01*
X146829500Y-129542500D02*
X147129500Y-129542500D01*
X144018000Y-125984000D02*
X144018000Y-121393498D01*
X144018000Y-121393498D02*
X145632997Y-119778501D01*
X145632997Y-119778501D02*
X147190499Y-119778501D01*
X147190499Y-119778501D02*
X148399500Y-118569500D01*
X148399500Y-118569500D02*
X148399500Y-117919500D01*
X144018000Y-125984000D02*
X144018000Y-128318500D01*
X144018000Y-128318500D02*
X142921000Y-129415500D01*
X142921000Y-129415500D02*
X142621000Y-129415500D01*
X188722000Y-118237000D02*
X191374000Y-118237000D01*
X191374000Y-118237000D02*
X192725000Y-116886000D01*
X192725000Y-116886000D02*
X192725000Y-116586000D01*
X188722000Y-118237000D02*
X185054000Y-118237000D01*
X185054000Y-118237000D02*
X184401500Y-118889500D01*
X184401500Y-118889500D02*
X184401500Y-119189500D01*
X192725000Y-121031000D02*
X189484000Y-121031000D01*
X189484000Y-121031000D02*
X188722000Y-120269000D01*
X188722000Y-120269000D02*
X183940998Y-120269000D01*
X180768500Y-115822000D02*
X180768500Y-115697000D01*
X183940998Y-120269000D02*
X183151501Y-119479503D01*
X183151501Y-119479503D02*
X183151501Y-118205001D01*
X183151501Y-118205001D02*
X180768500Y-115822000D01*
X145161000Y-100330000D02*
X145161000Y-98862840D01*
X145161000Y-98862840D02*
X145158520Y-98860360D01*
D26*
X136384742Y-93980000D02*
X139362500Y-93980000D01*
X139362500Y-93980000D02*
X141539000Y-96156500D01*
X141539000Y-96156500D02*
X141539000Y-96456500D01*
X121666000Y-79248000D02*
X121666000Y-79261258D01*
X121666000Y-79261258D02*
X136384742Y-93980000D01*
D25*
X140274000Y-110172500D02*
X140274000Y-106158500D01*
X140274000Y-106158500D02*
X139954000Y-105838500D01*
X142558520Y-104460360D02*
X143766860Y-104460360D01*
X143766860Y-104460360D02*
X143827500Y-104521000D01*
X141539000Y-96456500D02*
X143204660Y-96456500D01*
X143204660Y-96456500D02*
X144658520Y-97910360D01*
X144658520Y-97910360D02*
X144658520Y-98860360D01*
X142558520Y-104960360D02*
X140032140Y-104960360D01*
X140032140Y-104960360D02*
X139954000Y-105038500D01*
X139954000Y-105038500D02*
X139954000Y-105838500D01*
X144658520Y-98860360D02*
X145158520Y-98860360D01*
X142558520Y-103960360D02*
X142558520Y-104460360D01*
X142558520Y-104460360D02*
X142558520Y-104960360D01*
D26*
X143494000Y-86614000D02*
X143494000Y-87868000D01*
X143494000Y-87868000D02*
X144526000Y-88900000D01*
X143494000Y-86614000D02*
X147590000Y-86614000D01*
X147590000Y-86614000D02*
X147653500Y-86677500D01*
D25*
X146658520Y-98860360D02*
X146658520Y-97435480D01*
X146658520Y-97435480D02*
X146812000Y-97282000D01*
X144158520Y-98860360D02*
X139962142Y-98860360D01*
X139962142Y-98860360D02*
X139861001Y-98961501D01*
X139861001Y-98961501D02*
X139284999Y-98961501D01*
X139284999Y-98961501D02*
X138049000Y-97725502D01*
X138049000Y-97725502D02*
X138049000Y-97218500D01*
X134429500Y-106473500D02*
X137319000Y-106473500D01*
X139029000Y-104638500D02*
X139829000Y-103838500D01*
X137319000Y-106473500D02*
X139029000Y-104763500D01*
X139029000Y-104763500D02*
X139029000Y-104638500D01*
X139829000Y-103838500D02*
X139954000Y-103838500D01*
X134429500Y-106473500D02*
X134429500Y-106807000D01*
X134429500Y-106807000D02*
X133413500Y-107823000D01*
X149658520Y-107560360D02*
X151057860Y-107560360D01*
X151057860Y-107560360D02*
X151320500Y-107823000D01*
D26*
X194371000Y-100520500D02*
X194371000Y-102174000D01*
X194371000Y-102174000D02*
X191389000Y-105156000D01*
X194371000Y-100520500D02*
X194371000Y-96456500D01*
X194371000Y-96456500D02*
X194180500Y-96266000D01*
X194180500Y-96266000D02*
X194180500Y-94231500D01*
X194180500Y-94231500D02*
X191389000Y-91440000D01*
X121523760Y-106367580D02*
X121523760Y-107617260D01*
X121523760Y-107617260D02*
X122682000Y-108775500D01*
X116024660Y-97467420D02*
X116024660Y-95239840D01*
X116024660Y-95239840D02*
X116078000Y-95186500D01*
X116024660Y-97467420D02*
X116024660Y-106367580D01*
X116024660Y-97467420D02*
X121523760Y-97467420D01*
X121622820Y-103517700D02*
X121622820Y-102717600D01*
X121523760Y-106367580D02*
X121523760Y-103616760D01*
X121523760Y-103616760D02*
X121622820Y-103517700D01*
X116024660Y-106367580D02*
X121523760Y-106367580D01*
X141478000Y-125984000D02*
X141097000Y-125984000D01*
X141097000Y-125984000D02*
X138430000Y-128651000D01*
X147129500Y-131442500D02*
X149354500Y-131442500D01*
X149354500Y-131442500D02*
X152146000Y-128651000D01*
X142621000Y-131315500D02*
X147002500Y-131315500D01*
X147002500Y-131315500D02*
X147129500Y-131442500D01*
X142621000Y-131315500D02*
X141094500Y-131315500D01*
X141094500Y-131315500D02*
X138430000Y-128651000D01*
X126301500Y-118681500D02*
X126301500Y-118300500D01*
X126301500Y-118300500D02*
X123634500Y-115633500D01*
X120970000Y-124650500D02*
X120970000Y-126685000D01*
X120970000Y-126685000D02*
X123634500Y-129349500D01*
X121033500Y-120205500D02*
X121033500Y-124587000D01*
X121033500Y-124587000D02*
X120970000Y-124650500D01*
X121033500Y-120205500D02*
X121033500Y-118234500D01*
X121033500Y-118234500D02*
X123634500Y-115633500D01*
X161798000Y-126111000D02*
X161417000Y-126111000D01*
X161417000Y-126111000D02*
X158750000Y-128778000D01*
X167449500Y-131760000D02*
X169484000Y-131760000D01*
X169484000Y-131760000D02*
X172466000Y-128778000D01*
X163703000Y-131633000D02*
X167322500Y-131633000D01*
X167322500Y-131633000D02*
X167449500Y-131760000D01*
X158750000Y-128778000D02*
X161605000Y-131633000D01*
X161605000Y-131633000D02*
X163703000Y-131633000D01*
X188722000Y-122809000D02*
X188722000Y-123190000D01*
X188722000Y-123190000D02*
X191389000Y-125857000D01*
X188722000Y-102108000D02*
X188722000Y-102489000D01*
X188722000Y-102489000D02*
X191389000Y-105156000D01*
X180135967Y-77736021D02*
X180516967Y-77736021D01*
X180516967Y-77736021D02*
X183183967Y-75069021D01*
X194625000Y-121031000D02*
X194625000Y-122621000D01*
X194625000Y-122621000D02*
X191389000Y-125857000D01*
X194625000Y-116586000D02*
X194625000Y-121031000D01*
X194625000Y-116586000D02*
X194625000Y-115377000D01*
X194625000Y-115377000D02*
X191389000Y-112141000D01*
X178230967Y-72976021D02*
X181090967Y-72976021D01*
X181090967Y-72976021D02*
X183183967Y-75069021D01*
X178230967Y-72976021D02*
X174293967Y-72976021D01*
X174293967Y-72976021D02*
X171560967Y-72976021D01*
X171560967Y-72976021D02*
X169467967Y-75069021D01*
D25*
X142558520Y-102460360D02*
X140532140Y-102460360D01*
X140532140Y-102460360D02*
X139954000Y-103038500D01*
X139954000Y-103038500D02*
X139954000Y-103838500D01*
D26*
X159322360Y-77662620D02*
X159703360Y-77662620D01*
X159703360Y-77662620D02*
X162370360Y-74995620D01*
X157734000Y-73091000D02*
X160465740Y-73091000D01*
X160465740Y-73091000D02*
X162370360Y-74995620D01*
X154178000Y-73091000D02*
X157734000Y-73091000D01*
X154178000Y-73091000D02*
X150558980Y-73091000D01*
X150558980Y-73091000D02*
X148654360Y-74995620D01*
D25*
X141419000Y-91440000D02*
X141419000Y-93240000D01*
X141419000Y-93240000D02*
X145658520Y-97479520D01*
X145658520Y-97479520D02*
X145658520Y-97910360D01*
X145658520Y-97910360D02*
X145658520Y-98860360D01*
X141494000Y-86614000D02*
X141494000Y-91365000D01*
X141494000Y-91365000D02*
X141419000Y-91440000D01*
X149919000Y-91440000D02*
X149919000Y-86943000D01*
X149919000Y-86943000D02*
X149653500Y-86677500D01*
X148206500Y-95694500D02*
X148856500Y-95694500D01*
X148856500Y-95694500D02*
X149919000Y-94632000D01*
X149919000Y-94632000D02*
X149919000Y-93240000D01*
X149919000Y-93240000D02*
X149919000Y-91440000D01*
X142558520Y-102960360D02*
X143508520Y-102960360D01*
X143508520Y-102960360D02*
X144427501Y-103879341D01*
X144427501Y-103879341D02*
X144427501Y-106079999D01*
X144427501Y-106079999D02*
X143008530Y-107498970D01*
X143008530Y-107498970D02*
X143008530Y-111608970D01*
X143008530Y-111608970D02*
X140063500Y-114554000D01*
X140063500Y-114554000D02*
X138747500Y-114554000D01*
X146306500Y-95694500D02*
X146306500Y-96644500D01*
X146306500Y-96644500D02*
X146158520Y-96792480D01*
X146158520Y-96792480D02*
X146158520Y-97910360D01*
X146158520Y-97910360D02*
X146158520Y-98860360D01*
X148158520Y-98860360D02*
X148158520Y-97485520D01*
X148158520Y-97485520D02*
X147955000Y-97282000D01*
X121622820Y-101117400D02*
X124165600Y-101117400D01*
X124970500Y-100312500D02*
X124970500Y-100012500D01*
X124165600Y-101117400D02*
X124970500Y-100312500D01*
X121622820Y-100317300D02*
X122523250Y-100317300D01*
X122523250Y-100317300D02*
X123888500Y-98952050D01*
X123888500Y-98952050D02*
X123888500Y-98171000D01*
X146875500Y-101727000D02*
X147299764Y-101727000D01*
X147299764Y-101727000D02*
X147658520Y-101368244D01*
X147658520Y-101368244D02*
X147658520Y-99810360D01*
X147658520Y-99810360D02*
X147658520Y-98860360D01*
X121622820Y-101917500D02*
X129923500Y-101917500D01*
X129923500Y-101917500D02*
X130177500Y-102171500D01*
X145542000Y-102552500D02*
X145542000Y-101291882D01*
X145542000Y-101291882D02*
X147023521Y-99810361D01*
X147023521Y-99810361D02*
X147158520Y-99810360D01*
X147158520Y-99810360D02*
X147158520Y-98860360D01*
X142558520Y-100960360D02*
X140266860Y-100960360D01*
X140266860Y-100960360D02*
X139763500Y-100457000D01*
X143954500Y-100457000D02*
X142561880Y-100457000D01*
X142561880Y-100457000D02*
X142558520Y-100460360D01*
X139573000Y-98361500D02*
X139573000Y-96522500D01*
X139573000Y-96522500D02*
X139639000Y-96456500D01*
X142558520Y-105960360D02*
X142558520Y-109787980D01*
X142558520Y-109787980D02*
X142174000Y-110172500D01*
X145732500Y-104838500D02*
X145658520Y-104912480D01*
X145658520Y-104912480D02*
X145658520Y-107560360D01*
X147637500Y-112077500D02*
X147337501Y-111777501D01*
X147337501Y-111777501D02*
X147337501Y-108696381D01*
X147337501Y-108696381D02*
X147523521Y-108510361D01*
X147523521Y-108510361D02*
X147658520Y-108510360D01*
X147658520Y-108510360D02*
X147658520Y-107560360D01*
X149352000Y-105918000D02*
X151216160Y-105918000D01*
X151216160Y-105918000D02*
X151258520Y-105960360D01*
X149288500Y-103886000D02*
X149362860Y-103960360D01*
X149362860Y-103960360D02*
X151258520Y-103960360D01*
X149542500Y-101981000D02*
X151237880Y-101981000D01*
X151237880Y-101981000D02*
X151258520Y-101960360D01*
X151003000Y-97218500D02*
X151003000Y-97515880D01*
X151003000Y-97515880D02*
X149658520Y-98860360D01*
X165076552Y-111827500D02*
X165076552Y-111877490D01*
X165076552Y-111877490D02*
X165674494Y-111877494D01*
X165674494Y-111877494D02*
X169227500Y-115430500D01*
X169227500Y-115430500D02*
X169227500Y-116080500D01*
X150916052Y-111827500D02*
X165076552Y-111827500D01*
X148658519Y-109569967D02*
X150916052Y-111827500D01*
X148658520Y-107560360D02*
X148658519Y-107560361D01*
X148658519Y-107560361D02*
X148658519Y-109569967D01*
X169227500Y-116080500D02*
X169674500Y-116080500D01*
X169674500Y-116080500D02*
X171323000Y-117729000D01*
X151258520Y-102960360D02*
X151258521Y-102960361D01*
X151258521Y-102960361D02*
X167513587Y-102960361D01*
X167513587Y-102960361D02*
X175223948Y-95250000D01*
X175223948Y-95250000D02*
X179136000Y-95250000D01*
X179136000Y-95250000D02*
X179136000Y-93723500D01*
X179136000Y-93723500D02*
X179895500Y-92964000D01*
X148658520Y-98860360D02*
X148658521Y-98860359D01*
X148658521Y-98860359D02*
X148658521Y-97494927D01*
X148658521Y-97494927D02*
X155011501Y-91141947D01*
X155011501Y-91141947D02*
X155011501Y-87826001D01*
X155011501Y-87826001D02*
X153479500Y-86294000D01*
X153479500Y-86294000D02*
X152969000Y-86294000D01*
X152969000Y-86294000D02*
X151828500Y-85153500D01*
X144658519Y-114645534D02*
X139446000Y-119858053D01*
X136332000Y-125158500D02*
X136982000Y-125158500D01*
X139446000Y-122694500D02*
X139446000Y-119858053D01*
X136982000Y-125158500D02*
X139446000Y-122694500D01*
X144658520Y-107560360D02*
X144658519Y-107560361D01*
X144658519Y-107560361D02*
X144658519Y-114645534D01*
X134493000Y-127635000D02*
X136332000Y-125796000D01*
X136332000Y-125796000D02*
X136332000Y-125158500D01*
X151258520Y-100960360D02*
X151258521Y-100960361D01*
X151258521Y-100960361D02*
X163798587Y-100960361D01*
X163798587Y-100960361D02*
X173926500Y-90832448D01*
X173926500Y-90832448D02*
X173926500Y-87437000D01*
X171704000Y-86169500D02*
X172659000Y-86169500D01*
X172659000Y-86169500D02*
X173926500Y-87437000D01*
X146658520Y-107560360D02*
X146658520Y-114578520D01*
X146658520Y-114578520D02*
X148099500Y-116019500D01*
X148099500Y-116019500D02*
X148399500Y-116019500D01*
X148399500Y-116019500D02*
X150055500Y-116019500D01*
X150055500Y-116019500D02*
X150749000Y-116713000D01*
X178768500Y-115697000D02*
X177968500Y-115697000D01*
X177968500Y-115697000D02*
X177782000Y-115510500D01*
X177782000Y-115510500D02*
X173903052Y-115510500D01*
X163352913Y-104960361D02*
X173903052Y-115510500D01*
X151258520Y-104960360D02*
X151258521Y-104960361D01*
X151258521Y-104960361D02*
X163352913Y-104960361D01*
X178768500Y-115697000D02*
X178768500Y-114093500D01*
X178768500Y-114093500D02*
X179451000Y-113411000D01*
X132077500Y-102171500D02*
X132077500Y-100586500D01*
X132077500Y-100586500D02*
X132080000Y-100584000D01*
X142558520Y-101460360D02*
X142558519Y-101460361D01*
X142558519Y-101460361D02*
X134787086Y-101460361D01*
X134787086Y-101460361D02*
X134075947Y-102171500D01*
X134075947Y-102171500D02*
X132077500Y-102171500D01*
X148158520Y-107560360D02*
X148158521Y-107560361D01*
X148158521Y-107560361D02*
X148158521Y-109777073D01*
X148158521Y-109777073D02*
X150708948Y-112327500D01*
X150708948Y-112327500D02*
X165032500Y-112327500D01*
X165032500Y-112327500D02*
X166179500Y-113474500D01*
X166179500Y-113474500D02*
X166179500Y-119700000D01*
X164274500Y-119761000D02*
X166118500Y-119761000D01*
X166118500Y-119761000D02*
X166179500Y-119700000D01*
X167720693Y-103460359D02*
X172565552Y-98615500D01*
X182880000Y-98171000D02*
X173010052Y-98171000D01*
X173010052Y-98171000D02*
X172565552Y-98615500D01*
X151258521Y-103460359D02*
X167720693Y-103460359D01*
X151258520Y-103460360D02*
X151258521Y-103460359D01*
X182880000Y-98171000D02*
X182880000Y-100330000D01*
X149158519Y-98860359D02*
X149158519Y-97702033D01*
X149158520Y-98860360D02*
X149158519Y-98860359D01*
X149158519Y-97702033D02*
X155511500Y-91349052D01*
X155511500Y-91349052D02*
X155511500Y-87826000D01*
X155511500Y-87826000D02*
X155511500Y-82547500D01*
X157289500Y-82550000D02*
X155514000Y-82550000D01*
X155514000Y-82550000D02*
X155511500Y-82547500D01*
X144158521Y-114438426D02*
X135978447Y-122618500D01*
X144158520Y-107560360D02*
X144158521Y-107560361D01*
X144158521Y-107560361D02*
X144158521Y-114438426D01*
X135978447Y-122618500D02*
X132395000Y-122618500D01*
X132395000Y-122618500D02*
X132395000Y-120271500D01*
X132395000Y-120271500D02*
X132397500Y-120269000D01*
X176212500Y-82674500D02*
X176212500Y-89182858D01*
X176212500Y-89182858D02*
X173903052Y-91492306D01*
X173903052Y-91492306D02*
X173903052Y-91563000D01*
X164005693Y-101460359D02*
X173903052Y-91563000D01*
X151258520Y-101460360D02*
X151258521Y-101460359D01*
X151258521Y-101460359D02*
X164005693Y-101460359D01*
X176212500Y-82674500D02*
X178369000Y-82674500D01*
X178369000Y-82674500D02*
X178371500Y-82677000D01*
X146158520Y-107560360D02*
X146158520Y-118892980D01*
X146158520Y-118892980D02*
X145923000Y-119128500D01*
X143827500Y-119253000D02*
X145798500Y-119253000D01*
X145798500Y-119253000D02*
X145923000Y-119128500D01*
X173695948Y-116010500D02*
X177416998Y-116010500D01*
X177416998Y-116010500D02*
X180595998Y-119189500D01*
X180595998Y-119189500D02*
X181851500Y-119189500D01*
X181851500Y-119189500D02*
X182501500Y-119189500D01*
X163145807Y-105460359D02*
X173695948Y-116010500D01*
X151258521Y-105460359D02*
X163145807Y-105460359D01*
X151258520Y-105460360D02*
X151258521Y-105460359D01*
X182562500Y-121031000D02*
X182562500Y-119250500D01*
X182562500Y-119250500D02*
X182501500Y-119189500D01*
X134429500Y-104473500D02*
X135354500Y-104473500D01*
X135354500Y-104473500D02*
X137867641Y-101960359D01*
X137867641Y-101960359D02*
X142558519Y-101960359D01*
X142558519Y-101960359D02*
X142558520Y-101960360D01*
X126870500Y-100012500D02*
X129558502Y-100012500D01*
X129558502Y-100012500D02*
X131427499Y-101881497D01*
X131427499Y-101881497D02*
X131427499Y-103061501D01*
X131427499Y-103061501D02*
X132839498Y-104473500D01*
X132839498Y-104473500D02*
X133504500Y-104473500D01*
X133504500Y-104473500D02*
X134429500Y-104473500D01*
D27*
G36*
X200245000Y-137855000D02*
X114285000Y-137855000D01*
X114285000Y-131601250D01*
X141336000Y-131601250D01*
X141336000Y-131791809D01*
X141432673Y-132025198D01*
X141611301Y-132203827D01*
X141844690Y-132300500D01*
X142335250Y-132300500D01*
X142494000Y-132141750D01*
X142494000Y-131442500D01*
X142748000Y-131442500D01*
X142748000Y-132141750D01*
X142906750Y-132300500D01*
X143397310Y-132300500D01*
X143630699Y-132203827D01*
X143809327Y-132025198D01*
X143906000Y-131791809D01*
X143906000Y-131728250D01*
X145844500Y-131728250D01*
X145844500Y-131918809D01*
X145941173Y-132152198D01*
X146119801Y-132330827D01*
X146353190Y-132427500D01*
X146843750Y-132427500D01*
X147002500Y-132268750D01*
X147002500Y-131569500D01*
X147256500Y-131569500D01*
X147256500Y-132268750D01*
X147415250Y-132427500D01*
X147905810Y-132427500D01*
X148139199Y-132330827D01*
X148317827Y-132152198D01*
X148414500Y-131918809D01*
X148414500Y-131918750D01*
X162418000Y-131918750D01*
X162418000Y-132109309D01*
X162514673Y-132342698D01*
X162693301Y-132521327D01*
X162926690Y-132618000D01*
X163417250Y-132618000D01*
X163576000Y-132459250D01*
X163576000Y-131760000D01*
X163830000Y-131760000D01*
X163830000Y-132459250D01*
X163988750Y-132618000D01*
X164479310Y-132618000D01*
X164712699Y-132521327D01*
X164891327Y-132342698D01*
X164988000Y-132109309D01*
X164988000Y-132045750D01*
X166164500Y-132045750D01*
X166164500Y-132236309D01*
X166261173Y-132469698D01*
X166439801Y-132648327D01*
X166673190Y-132745000D01*
X167163750Y-132745000D01*
X167322500Y-132586250D01*
X167322500Y-131887000D01*
X167576500Y-131887000D01*
X167576500Y-132586250D01*
X167735250Y-132745000D01*
X168225810Y-132745000D01*
X168459199Y-132648327D01*
X168637827Y-132469698D01*
X168734500Y-132236309D01*
X168734500Y-132045750D01*
X168575750Y-131887000D01*
X167576500Y-131887000D01*
X167322500Y-131887000D01*
X166323250Y-131887000D01*
X166164500Y-132045750D01*
X164988000Y-132045750D01*
X164988000Y-131918750D01*
X164829250Y-131760000D01*
X163830000Y-131760000D01*
X163576000Y-131760000D01*
X162576750Y-131760000D01*
X162418000Y-131918750D01*
X148414500Y-131918750D01*
X148414500Y-131728250D01*
X148255750Y-131569500D01*
X147256500Y-131569500D01*
X147002500Y-131569500D01*
X146003250Y-131569500D01*
X145844500Y-131728250D01*
X143906000Y-131728250D01*
X143906000Y-131601250D01*
X143747250Y-131442500D01*
X142748000Y-131442500D01*
X142494000Y-131442500D01*
X141494750Y-131442500D01*
X141336000Y-131601250D01*
X114285000Y-131601250D01*
X114285000Y-130863377D01*
X122300228Y-130863377D01*
X122459995Y-131182132D01*
X123250717Y-131492095D01*
X124099866Y-131475867D01*
X124809005Y-131182132D01*
X124968772Y-130863377D01*
X123634500Y-129529105D01*
X122300228Y-130863377D01*
X114285000Y-130863377D01*
X114285000Y-128965717D01*
X121491905Y-128965717D01*
X121508133Y-129814866D01*
X121801868Y-130524005D01*
X122120623Y-130683772D01*
X123454895Y-129349500D01*
X123814105Y-129349500D01*
X125148377Y-130683772D01*
X125467132Y-130524005D01*
X125607910Y-130164877D01*
X137095728Y-130164877D01*
X137255495Y-130483632D01*
X138046217Y-130793595D01*
X138895366Y-130777367D01*
X139604505Y-130483632D01*
X139764272Y-130164877D01*
X138430000Y-128830605D01*
X137095728Y-130164877D01*
X125607910Y-130164877D01*
X125777095Y-129733283D01*
X125760867Y-128884134D01*
X125467132Y-128174995D01*
X125148377Y-128015228D01*
X123814105Y-129349500D01*
X123454895Y-129349500D01*
X122120623Y-128015228D01*
X121801868Y-128174995D01*
X121491905Y-128965717D01*
X114285000Y-128965717D01*
X114285000Y-127835623D01*
X122300228Y-127835623D01*
X123634500Y-129169895D01*
X124968772Y-127835623D01*
X124809005Y-127516868D01*
X124018283Y-127206905D01*
X123169134Y-127223133D01*
X122459995Y-127516868D01*
X122300228Y-127835623D01*
X114285000Y-127835623D01*
X114285000Y-124936250D01*
X119985000Y-124936250D01*
X119985000Y-125426810D01*
X120081673Y-125660199D01*
X120260302Y-125838827D01*
X120493691Y-125935500D01*
X120684250Y-125935500D01*
X120843000Y-125776750D01*
X120843000Y-124777500D01*
X120143750Y-124777500D01*
X119985000Y-124936250D01*
X114285000Y-124936250D01*
X114285000Y-123874190D01*
X119985000Y-123874190D01*
X119985000Y-124364750D01*
X120143750Y-124523500D01*
X120843000Y-124523500D01*
X120843000Y-123524250D01*
X120684250Y-123365500D01*
X120493691Y-123365500D01*
X120260302Y-123462173D01*
X120081673Y-123640801D01*
X119985000Y-123874190D01*
X114285000Y-123874190D01*
X114285000Y-120491250D01*
X120048500Y-120491250D01*
X120048500Y-120981810D01*
X120145173Y-121215199D01*
X120323802Y-121393827D01*
X120557191Y-121490500D01*
X120747750Y-121490500D01*
X120906500Y-121331750D01*
X120906500Y-120332500D01*
X120207250Y-120332500D01*
X120048500Y-120491250D01*
X114285000Y-120491250D01*
X114285000Y-119429190D01*
X120048500Y-119429190D01*
X120048500Y-119919750D01*
X120207250Y-120078500D01*
X120906500Y-120078500D01*
X120906500Y-119079250D01*
X120747750Y-118920500D01*
X120557191Y-118920500D01*
X120323802Y-119017173D01*
X120145173Y-119195801D01*
X120048500Y-119429190D01*
X114285000Y-119429190D01*
X114285000Y-117147377D01*
X122300228Y-117147377D01*
X122459995Y-117466132D01*
X123250717Y-117776095D01*
X124099866Y-117759867D01*
X124221293Y-117709570D01*
X125509175Y-117709570D01*
X126301500Y-118501895D01*
X127093825Y-117709570D01*
X127025765Y-117468569D01*
X126506466Y-117283733D01*
X125955962Y-117311695D01*
X125577235Y-117468569D01*
X125509175Y-117709570D01*
X124221293Y-117709570D01*
X124809005Y-117466132D01*
X124968772Y-117147377D01*
X123634500Y-115813105D01*
X122300228Y-117147377D01*
X114285000Y-117147377D01*
X114285000Y-115249717D01*
X121491905Y-115249717D01*
X121508133Y-116098866D01*
X121801868Y-116808005D01*
X122120623Y-116967772D01*
X123454895Y-115633500D01*
X123814105Y-115633500D01*
X125148377Y-116967772D01*
X125467132Y-116808005D01*
X125777095Y-116017283D01*
X125760867Y-115168134D01*
X125665106Y-114936946D01*
X134601517Y-114936946D01*
X134870312Y-115522379D01*
X135342682Y-115960385D01*
X135824556Y-116159975D01*
X136080500Y-116040836D01*
X136080500Y-114681000D01*
X134720133Y-114681000D01*
X134601517Y-114936946D01*
X125665106Y-114936946D01*
X125467132Y-114458995D01*
X125148377Y-114299228D01*
X123814105Y-115633500D01*
X123454895Y-115633500D01*
X122120623Y-114299228D01*
X121801868Y-114458995D01*
X121491905Y-115249717D01*
X114285000Y-115249717D01*
X114285000Y-114119623D01*
X122300228Y-114119623D01*
X123634500Y-115453895D01*
X124917341Y-114171054D01*
X134601517Y-114171054D01*
X134720133Y-114427000D01*
X136080500Y-114427000D01*
X136080500Y-113067164D01*
X135824556Y-112948025D01*
X135342682Y-113147615D01*
X134870312Y-113585621D01*
X134601517Y-114171054D01*
X124917341Y-114171054D01*
X124968772Y-114119623D01*
X124809005Y-113800868D01*
X124018283Y-113490905D01*
X123169134Y-113507133D01*
X122459995Y-113800868D01*
X122300228Y-114119623D01*
X114285000Y-114119623D01*
X114285000Y-107775116D01*
X114415282Y-107905397D01*
X114648671Y-108002070D01*
X115738910Y-108002070D01*
X115897660Y-107843320D01*
X115897660Y-106494580D01*
X116151660Y-106494580D01*
X116151660Y-107843320D01*
X116310410Y-108002070D01*
X117400649Y-108002070D01*
X117634038Y-107905397D01*
X117812667Y-107726769D01*
X117909340Y-107493380D01*
X117909340Y-106653330D01*
X119639080Y-106653330D01*
X119639080Y-107493380D01*
X119735753Y-107726769D01*
X119914382Y-107905397D01*
X120147771Y-108002070D01*
X121238010Y-108002070D01*
X121396760Y-107843320D01*
X121396760Y-106494580D01*
X121650760Y-106494580D01*
X121650760Y-107843320D01*
X121809510Y-108002070D01*
X122899749Y-108002070D01*
X123133138Y-107905397D01*
X123311767Y-107726769D01*
X123408440Y-107493380D01*
X123408440Y-106759250D01*
X133169500Y-106759250D01*
X133169500Y-107099809D01*
X133266173Y-107333198D01*
X133444801Y-107511827D01*
X133678190Y-107608500D01*
X134143750Y-107608500D01*
X134302500Y-107449750D01*
X134302500Y-106600500D01*
X134556500Y-106600500D01*
X134556500Y-107449750D01*
X134715250Y-107608500D01*
X135180810Y-107608500D01*
X135414199Y-107511827D01*
X135592827Y-107333198D01*
X135689500Y-107099809D01*
X135689500Y-106759250D01*
X135530750Y-106600500D01*
X134556500Y-106600500D01*
X134302500Y-106600500D01*
X133328250Y-106600500D01*
X133169500Y-106759250D01*
X123408440Y-106759250D01*
X123408440Y-106653330D01*
X123249690Y-106494580D01*
X121650760Y-106494580D01*
X121396760Y-106494580D01*
X119797830Y-106494580D01*
X119639080Y-106653330D01*
X117909340Y-106653330D01*
X117750590Y-106494580D01*
X116151660Y-106494580D01*
X115897660Y-106494580D01*
X115877660Y-106494580D01*
X115877660Y-106240580D01*
X115897660Y-106240580D01*
X115897660Y-104891840D01*
X116151660Y-104891840D01*
X116151660Y-106240580D01*
X117750590Y-106240580D01*
X117909340Y-106081830D01*
X117909340Y-105241780D01*
X119639080Y-105241780D01*
X119639080Y-106081830D01*
X119797830Y-106240580D01*
X121396760Y-106240580D01*
X121396760Y-104891840D01*
X121650760Y-104891840D01*
X121650760Y-106240580D01*
X123249690Y-106240580D01*
X123408440Y-106081830D01*
X123408440Y-105241780D01*
X123311767Y-105008391D01*
X123133138Y-104829763D01*
X122899749Y-104733090D01*
X121809510Y-104733090D01*
X121650760Y-104891840D01*
X121396760Y-104891840D01*
X121238010Y-104733090D01*
X120147771Y-104733090D01*
X119914382Y-104829763D01*
X119735753Y-105008391D01*
X119639080Y-105241780D01*
X117909340Y-105241780D01*
X117812667Y-105008391D01*
X117634038Y-104829763D01*
X117400649Y-104733090D01*
X116310410Y-104733090D01*
X116151660Y-104891840D01*
X115897660Y-104891840D01*
X115738910Y-104733090D01*
X114648671Y-104733090D01*
X114415282Y-104829763D01*
X114285000Y-104960044D01*
X114285000Y-99932650D01*
X117939632Y-99932650D01*
X118104402Y-100331423D01*
X118409233Y-100636786D01*
X118807717Y-100802251D01*
X119239190Y-100802628D01*
X119637963Y-100637858D01*
X119824760Y-100451386D01*
X119824760Y-100567490D01*
X119853993Y-100722852D01*
X119824760Y-100867210D01*
X119824760Y-101367590D01*
X119853993Y-101522952D01*
X119824760Y-101667310D01*
X119824760Y-102167690D01*
X119851083Y-102307584D01*
X119837200Y-102341100D01*
X119837200Y-102433755D01*
X119982000Y-102578555D01*
X120008110Y-102619131D01*
X120147786Y-102714568D01*
X120112502Y-102729183D01*
X119998989Y-102842695D01*
X119995950Y-102842695D01*
X119837200Y-103001445D01*
X119837200Y-103094100D01*
X119846955Y-103117650D01*
X119837200Y-103141200D01*
X119837200Y-103233855D01*
X119994043Y-103390698D01*
X119837200Y-103390698D01*
X119837200Y-103396192D01*
X119639567Y-103198214D01*
X119241083Y-103032749D01*
X118809610Y-103032372D01*
X118410837Y-103197142D01*
X118105474Y-103501973D01*
X117940009Y-103900457D01*
X117939632Y-104331930D01*
X118104402Y-104730703D01*
X118409233Y-105036066D01*
X118807717Y-105201531D01*
X119239190Y-105201908D01*
X119637963Y-105037138D01*
X119943326Y-104732307D01*
X120108791Y-104333823D01*
X120108818Y-104302533D01*
X120112502Y-104306217D01*
X120345891Y-104402890D01*
X121337070Y-104402890D01*
X121495820Y-104244140D01*
X121495820Y-103642795D01*
X121749820Y-103642795D01*
X121749820Y-104244140D01*
X121908570Y-104402890D01*
X122899749Y-104402890D01*
X123133138Y-104306217D01*
X123311767Y-104127589D01*
X123408440Y-103894200D01*
X123408440Y-103801545D01*
X123249690Y-103642795D01*
X121749820Y-103642795D01*
X121495820Y-103642795D01*
X121475820Y-103642795D01*
X121475820Y-103464040D01*
X121495820Y-103444040D01*
X121495820Y-103370700D01*
X121749820Y-103370700D01*
X121749820Y-103444040D01*
X121908570Y-103602790D01*
X122899749Y-103602790D01*
X123133138Y-103506117D01*
X123246651Y-103392605D01*
X123249690Y-103392605D01*
X123408440Y-103233855D01*
X123408440Y-103141200D01*
X123398685Y-103117650D01*
X123408440Y-103094100D01*
X123408440Y-103001445D01*
X123249690Y-102842695D01*
X123246651Y-102842695D01*
X123133138Y-102729183D01*
X123096863Y-102714157D01*
X123114979Y-102702500D01*
X129180060Y-102702500D01*
X129180060Y-102821500D01*
X129224338Y-103056817D01*
X129363410Y-103272941D01*
X129575610Y-103417931D01*
X129827500Y-103468940D01*
X130527500Y-103468940D01*
X130746266Y-103427776D01*
X130872420Y-103616580D01*
X132284419Y-105028579D01*
X132539091Y-105198745D01*
X132839498Y-105258500D01*
X133233308Y-105258500D01*
X133340410Y-105424941D01*
X133408506Y-105471469D01*
X133266173Y-105613802D01*
X133169500Y-105847191D01*
X133169500Y-106187750D01*
X133328250Y-106346500D01*
X134302500Y-106346500D01*
X134302500Y-106326500D01*
X134556500Y-106326500D01*
X134556500Y-106346500D01*
X135530750Y-106346500D01*
X135689500Y-106187750D01*
X135689500Y-105847191D01*
X135592827Y-105613802D01*
X135451590Y-105472564D01*
X135505941Y-105437590D01*
X135650931Y-105225390D01*
X135656549Y-105197648D01*
X135909579Y-105028579D01*
X138192799Y-102745359D01*
X139101634Y-102745359D01*
X138969301Y-102800173D01*
X138790673Y-102978802D01*
X138694000Y-103212191D01*
X138694000Y-103552750D01*
X138852750Y-103711500D01*
X139827000Y-103711500D01*
X139827000Y-103691500D01*
X140081000Y-103691500D01*
X140081000Y-103711500D01*
X141055250Y-103711500D01*
X141214000Y-103552750D01*
X141214000Y-103212191D01*
X141117327Y-102978802D01*
X140938699Y-102800173D01*
X140806366Y-102745359D01*
X141279306Y-102745359D01*
X141261080Y-102835360D01*
X141261080Y-103085360D01*
X141285464Y-103214949D01*
X141261080Y-103335360D01*
X141261080Y-103585360D01*
X141285464Y-103714949D01*
X141261080Y-103835360D01*
X141261080Y-104085360D01*
X141278015Y-104175360D01*
X141214000Y-104175360D01*
X141214000Y-104124250D01*
X141055250Y-103965500D01*
X140081000Y-103965500D01*
X140081000Y-103985500D01*
X139827000Y-103985500D01*
X139827000Y-103965500D01*
X138852750Y-103965500D01*
X138694000Y-104124250D01*
X138694000Y-104464809D01*
X138790673Y-104698198D01*
X138931910Y-104839436D01*
X138877559Y-104874410D01*
X138732569Y-105086610D01*
X138681560Y-105338500D01*
X138681560Y-106338500D01*
X138725838Y-106573817D01*
X138864910Y-106789941D01*
X139077110Y-106934931D01*
X139329000Y-106985940D01*
X139489000Y-106985940D01*
X139489000Y-109047831D01*
X139472559Y-109058410D01*
X139327569Y-109270610D01*
X139276560Y-109522500D01*
X139276560Y-110822500D01*
X139320838Y-111057817D01*
X139459910Y-111273941D01*
X139672110Y-111418931D01*
X139924000Y-111469940D01*
X140624000Y-111469940D01*
X140859317Y-111425662D01*
X141075441Y-111286590D01*
X141220431Y-111074390D01*
X141223081Y-111061303D01*
X141359910Y-111273941D01*
X141572110Y-111418931D01*
X141824000Y-111469940D01*
X142037402Y-111469940D01*
X140303232Y-113204110D01*
X140227590Y-113086559D01*
X140015390Y-112941569D01*
X139763500Y-112890560D01*
X137731500Y-112890560D01*
X137496183Y-112934838D01*
X137280059Y-113073910D01*
X137168660Y-113236948D01*
X137072318Y-113147615D01*
X136590444Y-112948025D01*
X136334500Y-113067164D01*
X136334500Y-114427000D01*
X136354500Y-114427000D01*
X136354500Y-114681000D01*
X136334500Y-114681000D01*
X136334500Y-116040836D01*
X136590444Y-116159975D01*
X137072318Y-115960385D01*
X137169898Y-115869903D01*
X137267410Y-116021441D01*
X137479610Y-116166431D01*
X137731500Y-116217440D01*
X139763500Y-116217440D01*
X139998817Y-116173162D01*
X140214941Y-116034090D01*
X140359931Y-115821890D01*
X140410940Y-115570000D01*
X140410940Y-115247819D01*
X140618579Y-115109079D01*
X143373521Y-112354137D01*
X143373521Y-114113268D01*
X135653289Y-121833500D01*
X133367038Y-121833500D01*
X133348162Y-121733183D01*
X133209090Y-121517059D01*
X133180000Y-121497183D01*
X133180000Y-120809002D01*
X133189692Y-120799327D01*
X133332338Y-120455799D01*
X133332662Y-120083833D01*
X133190617Y-119740057D01*
X132927827Y-119476808D01*
X132584299Y-119334162D01*
X132212333Y-119333838D01*
X131868557Y-119475883D01*
X131605308Y-119738673D01*
X131462662Y-120082201D01*
X131462338Y-120454167D01*
X131604383Y-120797943D01*
X131610000Y-120803570D01*
X131610000Y-121083340D01*
X131193081Y-120666421D01*
X130938409Y-120496255D01*
X130638002Y-120436500D01*
X127475653Y-120436500D01*
X127087387Y-120047556D01*
X126872004Y-119958121D01*
X127025765Y-119894431D01*
X127093825Y-119653430D01*
X126301500Y-118861105D01*
X126287358Y-118875248D01*
X126107753Y-118695643D01*
X126121895Y-118681500D01*
X126481105Y-118681500D01*
X127273430Y-119473825D01*
X127514431Y-119405765D01*
X127699267Y-118886466D01*
X127671305Y-118335962D01*
X127514431Y-117957235D01*
X127273430Y-117889175D01*
X126481105Y-118681500D01*
X126121895Y-118681500D01*
X125329570Y-117889175D01*
X125088569Y-117957235D01*
X124903733Y-118476534D01*
X124931695Y-119027038D01*
X125088569Y-119405765D01*
X125140746Y-119420500D01*
X123905538Y-119420500D01*
X123886662Y-119320183D01*
X123747590Y-119104059D01*
X123535390Y-118959069D01*
X123283500Y-118908060D01*
X122583500Y-118908060D01*
X122348183Y-118952338D01*
X122132059Y-119091410D01*
X121987069Y-119303610D01*
X121980309Y-119336990D01*
X121921827Y-119195801D01*
X121743198Y-119017173D01*
X121509809Y-118920500D01*
X121319250Y-118920500D01*
X121160500Y-119079250D01*
X121160500Y-120078500D01*
X121180500Y-120078500D01*
X121180500Y-120332500D01*
X121160500Y-120332500D01*
X121160500Y-121331750D01*
X121319250Y-121490500D01*
X121509809Y-121490500D01*
X121743198Y-121393827D01*
X121921827Y-121215199D01*
X121978154Y-121079213D01*
X121980338Y-121090817D01*
X122119410Y-121306941D01*
X122331610Y-121451931D01*
X122583500Y-121502940D01*
X123283500Y-121502940D01*
X123518817Y-121458662D01*
X123734941Y-121319590D01*
X123879931Y-121107390D01*
X123903602Y-120990500D01*
X124916131Y-120990500D01*
X124915690Y-121495898D01*
X125126186Y-122005337D01*
X125358007Y-122237563D01*
X125127556Y-122467613D01*
X124916171Y-122976684D01*
X124915690Y-123527898D01*
X124916057Y-123528785D01*
X124579342Y-123865500D01*
X123842038Y-123865500D01*
X123823162Y-123765183D01*
X123684090Y-123549059D01*
X123471890Y-123404069D01*
X123220000Y-123353060D01*
X122520000Y-123353060D01*
X122284683Y-123397338D01*
X122068559Y-123536410D01*
X121923569Y-123748610D01*
X121916809Y-123781990D01*
X121858327Y-123640801D01*
X121679698Y-123462173D01*
X121446309Y-123365500D01*
X121255750Y-123365500D01*
X121097000Y-123524250D01*
X121097000Y-124523500D01*
X121117000Y-124523500D01*
X121117000Y-124777500D01*
X121097000Y-124777500D01*
X121097000Y-125776750D01*
X121255750Y-125935500D01*
X121446309Y-125935500D01*
X121679698Y-125838827D01*
X121858327Y-125660199D01*
X121914654Y-125524213D01*
X121916838Y-125535817D01*
X122055910Y-125751941D01*
X122268110Y-125896931D01*
X122520000Y-125947940D01*
X123220000Y-125947940D01*
X123455317Y-125903662D01*
X123671441Y-125764590D01*
X123816431Y-125552390D01*
X123840102Y-125435500D01*
X124904500Y-125435500D01*
X124953967Y-125425660D01*
X124916171Y-125516684D01*
X124915690Y-126067898D01*
X125126186Y-126577337D01*
X125515613Y-126967444D01*
X126024684Y-127178829D01*
X126575898Y-127179310D01*
X127085337Y-126968814D01*
X127475444Y-126579387D01*
X127686829Y-126070316D01*
X127687310Y-125519102D01*
X127476814Y-125009663D01*
X127087387Y-124619556D01*
X126856119Y-124523525D01*
X127085337Y-124428814D01*
X127475444Y-124039387D01*
X127475812Y-124038500D01*
X129860000Y-124038500D01*
X130160407Y-123978745D01*
X130254402Y-123915940D01*
X130845000Y-123915940D01*
X131063766Y-123874776D01*
X131189920Y-124063580D01*
X132839919Y-125713579D01*
X133094591Y-125883745D01*
X133394998Y-125943500D01*
X133459962Y-125943500D01*
X133478838Y-126043817D01*
X133617910Y-126259941D01*
X133830110Y-126404931D01*
X134082000Y-126455940D01*
X134561902Y-126455940D01*
X134317995Y-126699847D01*
X134307833Y-126699838D01*
X133964057Y-126841883D01*
X133700808Y-127104673D01*
X133558162Y-127448201D01*
X133557838Y-127820167D01*
X133699883Y-128163943D01*
X133962673Y-128427192D01*
X134306201Y-128569838D01*
X134678167Y-128570162D01*
X135021943Y-128428117D01*
X135183124Y-128267217D01*
X136287405Y-128267217D01*
X136303633Y-129116366D01*
X136597368Y-129825505D01*
X136916123Y-129985272D01*
X138250395Y-128651000D01*
X138609605Y-128651000D01*
X139943877Y-129985272D01*
X140262632Y-129825505D01*
X140572595Y-129034783D01*
X140556367Y-128185634D01*
X140262632Y-127476495D01*
X139943877Y-127316728D01*
X138609605Y-128651000D01*
X138250395Y-128651000D01*
X136916123Y-127316728D01*
X136597368Y-127476495D01*
X136287405Y-128267217D01*
X135183124Y-128267217D01*
X135285192Y-128165327D01*
X135427838Y-127821799D01*
X135427848Y-127810310D01*
X136101035Y-127137123D01*
X137095728Y-127137123D01*
X138430000Y-128471395D01*
X139764272Y-127137123D01*
X139673455Y-126955930D01*
X140685675Y-126955930D01*
X140753735Y-127196931D01*
X141273034Y-127381767D01*
X141823538Y-127353805D01*
X142202265Y-127196931D01*
X142270325Y-126955930D01*
X141478000Y-126163605D01*
X140685675Y-126955930D01*
X139673455Y-126955930D01*
X139604505Y-126818368D01*
X138813783Y-126508405D01*
X137964634Y-126524633D01*
X137255495Y-126818368D01*
X137095728Y-127137123D01*
X136101035Y-127137123D01*
X136805446Y-126432712D01*
X136917317Y-126411662D01*
X137133441Y-126272590D01*
X137278431Y-126060390D01*
X137319178Y-125859175D01*
X137439118Y-125779034D01*
X140080233Y-125779034D01*
X140108195Y-126329538D01*
X140265069Y-126708265D01*
X140506070Y-126776325D01*
X141298395Y-125984000D01*
X140506070Y-125191675D01*
X140265069Y-125259735D01*
X140080233Y-125779034D01*
X137439118Y-125779034D01*
X137537079Y-125713579D01*
X138238588Y-125012070D01*
X140685675Y-125012070D01*
X141478000Y-125804395D01*
X142270325Y-125012070D01*
X142202265Y-124771069D01*
X141682966Y-124586233D01*
X141132462Y-124614195D01*
X140753735Y-124771069D01*
X140685675Y-125012070D01*
X138238588Y-125012070D01*
X140001079Y-123249579D01*
X140171245Y-122994907D01*
X140231000Y-122694500D01*
X140231000Y-120183211D01*
X145213598Y-115200613D01*
X145373520Y-114961272D01*
X145373520Y-118131060D01*
X145273000Y-118131060D01*
X145037683Y-118175338D01*
X144821559Y-118314410D01*
X144716615Y-118468000D01*
X144365006Y-118468000D01*
X144357827Y-118460808D01*
X144014299Y-118318162D01*
X143642333Y-118317838D01*
X143298557Y-118459883D01*
X143035308Y-118722673D01*
X142892662Y-119066201D01*
X142892338Y-119438167D01*
X143034383Y-119781943D01*
X143297173Y-120045192D01*
X143640701Y-120187838D01*
X144012667Y-120188162D01*
X144183951Y-120117389D01*
X143462921Y-120838419D01*
X143292755Y-121093091D01*
X143268466Y-121215199D01*
X143233000Y-121393498D01*
X143233000Y-124809847D01*
X142844056Y-125198113D01*
X142754621Y-125413496D01*
X142690931Y-125259735D01*
X142449930Y-125191675D01*
X141657605Y-125984000D01*
X142449930Y-126776325D01*
X142690931Y-126708265D01*
X142749769Y-126542960D01*
X142842686Y-126767837D01*
X143232113Y-127157944D01*
X143233000Y-127158312D01*
X143233000Y-127993342D01*
X142808282Y-128418060D01*
X141971000Y-128418060D01*
X141735683Y-128462338D01*
X141519559Y-128601410D01*
X141374569Y-128813610D01*
X141323560Y-129065500D01*
X141323560Y-129765500D01*
X141367838Y-130000817D01*
X141506910Y-130216941D01*
X141719110Y-130361931D01*
X141752490Y-130368691D01*
X141611301Y-130427173D01*
X141432673Y-130605802D01*
X141336000Y-130839191D01*
X141336000Y-131029750D01*
X141494750Y-131188500D01*
X142494000Y-131188500D01*
X142494000Y-131168500D01*
X142748000Y-131168500D01*
X142748000Y-131188500D01*
X143747250Y-131188500D01*
X143906000Y-131029750D01*
X143906000Y-130839191D01*
X143809327Y-130605802D01*
X143630699Y-130427173D01*
X143494713Y-130370846D01*
X143506317Y-130368662D01*
X143722441Y-130229590D01*
X143867431Y-130017390D01*
X143918440Y-129765500D01*
X143918440Y-129528218D01*
X144573079Y-128873579D01*
X144743245Y-128618907D01*
X144803000Y-128318500D01*
X144803000Y-127158153D01*
X145034063Y-126927493D01*
X145264113Y-127157944D01*
X145265000Y-127158312D01*
X145265000Y-128763000D01*
X145324755Y-129063407D01*
X145494921Y-129318079D01*
X145832060Y-129655218D01*
X145832060Y-129892500D01*
X145876338Y-130127817D01*
X146015410Y-130343941D01*
X146227610Y-130488931D01*
X146260990Y-130495691D01*
X146119801Y-130554173D01*
X145941173Y-130732802D01*
X145844500Y-130966191D01*
X145844500Y-131156750D01*
X146003250Y-131315500D01*
X147002500Y-131315500D01*
X147002500Y-131295500D01*
X147256500Y-131295500D01*
X147256500Y-131315500D01*
X148255750Y-131315500D01*
X148414500Y-131156750D01*
X148414500Y-130966191D01*
X148317827Y-130732802D01*
X148139199Y-130554173D01*
X148003213Y-130497846D01*
X148014817Y-130495662D01*
X148230941Y-130356590D01*
X148361932Y-130164877D01*
X150811728Y-130164877D01*
X150971495Y-130483632D01*
X151762217Y-130793595D01*
X152611366Y-130777367D01*
X153320505Y-130483632D01*
X153416616Y-130291877D01*
X157415728Y-130291877D01*
X157575495Y-130610632D01*
X158366217Y-130920595D01*
X159215366Y-130904367D01*
X159924505Y-130610632D01*
X160084272Y-130291877D01*
X158750000Y-128957605D01*
X157415728Y-130291877D01*
X153416616Y-130291877D01*
X153480272Y-130164877D01*
X152146000Y-128830605D01*
X150811728Y-130164877D01*
X148361932Y-130164877D01*
X148375931Y-130144390D01*
X148426940Y-129892500D01*
X148426940Y-129192500D01*
X148382662Y-128957183D01*
X148243590Y-128741059D01*
X148031390Y-128596069D01*
X147779500Y-128545060D01*
X146942218Y-128545060D01*
X146835000Y-128437842D01*
X146835000Y-128267217D01*
X150003405Y-128267217D01*
X150019633Y-129116366D01*
X150313368Y-129825505D01*
X150632123Y-129985272D01*
X151966395Y-128651000D01*
X152325605Y-128651000D01*
X153659877Y-129985272D01*
X153978632Y-129825505D01*
X154288595Y-129034783D01*
X154276354Y-128394217D01*
X156607405Y-128394217D01*
X156623633Y-129243366D01*
X156917368Y-129952505D01*
X157236123Y-130112272D01*
X158570395Y-128778000D01*
X158929605Y-128778000D01*
X160263877Y-130112272D01*
X160582632Y-129952505D01*
X160892595Y-129161783D01*
X160876367Y-128312634D01*
X160582632Y-127603495D01*
X160263877Y-127443728D01*
X158929605Y-128778000D01*
X158570395Y-128778000D01*
X157236123Y-127443728D01*
X156917368Y-127603495D01*
X156607405Y-128394217D01*
X154276354Y-128394217D01*
X154272367Y-128185634D01*
X153978632Y-127476495D01*
X153659877Y-127316728D01*
X152325605Y-128651000D01*
X151966395Y-128651000D01*
X150632123Y-127316728D01*
X150313368Y-127476495D01*
X150003405Y-128267217D01*
X146835000Y-128267217D01*
X146835000Y-127158153D01*
X147223944Y-126769887D01*
X147319975Y-126538619D01*
X147414686Y-126767837D01*
X147804113Y-127157944D01*
X148313184Y-127369329D01*
X148864398Y-127369810D01*
X149373837Y-127159314D01*
X149396066Y-127137123D01*
X150811728Y-127137123D01*
X152146000Y-128471395D01*
X153353272Y-127264123D01*
X157415728Y-127264123D01*
X158750000Y-128598395D01*
X160084272Y-127264123D01*
X159993455Y-127082930D01*
X161005675Y-127082930D01*
X161073735Y-127323931D01*
X161593034Y-127508767D01*
X162143538Y-127480805D01*
X162522265Y-127323931D01*
X162590325Y-127082930D01*
X161798000Y-126290605D01*
X161005675Y-127082930D01*
X159993455Y-127082930D01*
X159924505Y-126945368D01*
X159133783Y-126635405D01*
X158284634Y-126651633D01*
X157575495Y-126945368D01*
X157415728Y-127264123D01*
X153353272Y-127264123D01*
X153480272Y-127137123D01*
X153320505Y-126818368D01*
X152529783Y-126508405D01*
X151680634Y-126524633D01*
X150971495Y-126818368D01*
X150811728Y-127137123D01*
X149396066Y-127137123D01*
X149763944Y-126769887D01*
X149975329Y-126260816D01*
X149975638Y-125906034D01*
X160400233Y-125906034D01*
X160428195Y-126456538D01*
X160585069Y-126835265D01*
X160826070Y-126903325D01*
X161618395Y-126111000D01*
X160826070Y-125318675D01*
X160585069Y-125386735D01*
X160400233Y-125906034D01*
X149975638Y-125906034D01*
X149975810Y-125709602D01*
X149765314Y-125200163D01*
X149704328Y-125139070D01*
X161005675Y-125139070D01*
X161798000Y-125931395D01*
X162590325Y-125139070D01*
X162522265Y-124898069D01*
X162002966Y-124713233D01*
X161452462Y-124741195D01*
X161073735Y-124898069D01*
X161005675Y-125139070D01*
X149704328Y-125139070D01*
X149375887Y-124810056D01*
X148866816Y-124598671D01*
X148315602Y-124598190D01*
X147806163Y-124808686D01*
X147416056Y-125198113D01*
X147320025Y-125429381D01*
X147225314Y-125200163D01*
X146835887Y-124810056D01*
X146835000Y-124809688D01*
X146835000Y-121964492D01*
X147024441Y-121842590D01*
X147169431Y-121630390D01*
X147220440Y-121378500D01*
X147220440Y-120678500D01*
X147198502Y-120561909D01*
X147490906Y-120503746D01*
X147745578Y-120333580D01*
X148954579Y-119124579D01*
X149099619Y-118907509D01*
X149284817Y-118872662D01*
X149500941Y-118733590D01*
X149645931Y-118521390D01*
X149696940Y-118269500D01*
X149696940Y-117569500D01*
X149652662Y-117334183D01*
X149513590Y-117118059D01*
X149301390Y-116973069D01*
X149288303Y-116970419D01*
X149500941Y-116833590D01*
X149520817Y-116804500D01*
X149730342Y-116804500D01*
X149813847Y-116888005D01*
X149813838Y-116898167D01*
X149955883Y-117241943D01*
X150218673Y-117505192D01*
X150562201Y-117647838D01*
X150934167Y-117648162D01*
X151277943Y-117506117D01*
X151541192Y-117243327D01*
X151683838Y-116899799D01*
X151684162Y-116527833D01*
X151542117Y-116184057D01*
X151279327Y-115920808D01*
X150935799Y-115778162D01*
X150924310Y-115778152D01*
X150610579Y-115464421D01*
X150355907Y-115294255D01*
X150055500Y-115234500D01*
X149524169Y-115234500D01*
X149513590Y-115218059D01*
X149301390Y-115073069D01*
X149049500Y-115022060D01*
X148212217Y-115022060D01*
X147443520Y-114253362D01*
X147443520Y-113009356D01*
X147450701Y-113012338D01*
X147822667Y-113012662D01*
X148166443Y-112870617D01*
X148429692Y-112607827D01*
X148572338Y-112264299D01*
X148572662Y-111892333D01*
X148430617Y-111548557D01*
X148167827Y-111285308D01*
X148122501Y-111266487D01*
X148122501Y-110851211D01*
X150153869Y-112882579D01*
X150408542Y-113052745D01*
X150708948Y-113112500D01*
X164707342Y-113112500D01*
X165394500Y-113799658D01*
X165394500Y-118727962D01*
X165294183Y-118746838D01*
X165078059Y-118885910D01*
X165016503Y-118976000D01*
X164812006Y-118976000D01*
X164804827Y-118968808D01*
X164461299Y-118826162D01*
X164089333Y-118825838D01*
X163745557Y-118967883D01*
X163482308Y-119230673D01*
X163339662Y-119574201D01*
X163339338Y-119946167D01*
X163481383Y-120289943D01*
X163744173Y-120553192D01*
X164087701Y-120695838D01*
X164459667Y-120696162D01*
X164533654Y-120665591D01*
X164504254Y-120709592D01*
X164477154Y-120845833D01*
X164444499Y-121009999D01*
X164444499Y-124725522D01*
X164063602Y-124725190D01*
X163554163Y-124935686D01*
X163164056Y-125325113D01*
X163074621Y-125540496D01*
X163010931Y-125386735D01*
X162769930Y-125318675D01*
X161977605Y-126111000D01*
X162769930Y-126903325D01*
X163010931Y-126835265D01*
X163069769Y-126669960D01*
X163162686Y-126894837D01*
X163552113Y-127284944D01*
X163553000Y-127285312D01*
X163553000Y-128735560D01*
X163053000Y-128735560D01*
X162817683Y-128779838D01*
X162601559Y-128918910D01*
X162456569Y-129131110D01*
X162405560Y-129383000D01*
X162405560Y-130083000D01*
X162449838Y-130318317D01*
X162588910Y-130534441D01*
X162801110Y-130679431D01*
X162834490Y-130686191D01*
X162693301Y-130744673D01*
X162514673Y-130923302D01*
X162418000Y-131156691D01*
X162418000Y-131347250D01*
X162576750Y-131506000D01*
X163576000Y-131506000D01*
X163576000Y-131486000D01*
X163830000Y-131486000D01*
X163830000Y-131506000D01*
X164829250Y-131506000D01*
X164988000Y-131347250D01*
X164988000Y-131156691D01*
X164891327Y-130923302D01*
X164712699Y-130744673D01*
X164576713Y-130688346D01*
X164588317Y-130686162D01*
X164804441Y-130547090D01*
X164949431Y-130334890D01*
X165000440Y-130083000D01*
X165000440Y-129492401D01*
X165063245Y-129398406D01*
X165123001Y-129098000D01*
X165123000Y-129097995D01*
X165123000Y-127285153D01*
X165354063Y-127054493D01*
X165584113Y-127284944D01*
X166093184Y-127496329D01*
X166644398Y-127496810D01*
X166645286Y-127496443D01*
X166664500Y-127515657D01*
X166664500Y-128887962D01*
X166564183Y-128906838D01*
X166348059Y-129045910D01*
X166203069Y-129258110D01*
X166152060Y-129510000D01*
X166152060Y-130210000D01*
X166196338Y-130445317D01*
X166335410Y-130661441D01*
X166547610Y-130806431D01*
X166580990Y-130813191D01*
X166439801Y-130871673D01*
X166261173Y-131050302D01*
X166164500Y-131283691D01*
X166164500Y-131474250D01*
X166323250Y-131633000D01*
X167322500Y-131633000D01*
X167322500Y-131613000D01*
X167576500Y-131613000D01*
X167576500Y-131633000D01*
X168575750Y-131633000D01*
X168734500Y-131474250D01*
X168734500Y-131283691D01*
X168637827Y-131050302D01*
X168459199Y-130871673D01*
X168323213Y-130815346D01*
X168334817Y-130813162D01*
X168550941Y-130674090D01*
X168695931Y-130461890D01*
X168730359Y-130291877D01*
X171131728Y-130291877D01*
X171291495Y-130610632D01*
X172082217Y-130920595D01*
X172931366Y-130904367D01*
X173640505Y-130610632D01*
X173800272Y-130291877D01*
X172466000Y-128957605D01*
X171131728Y-130291877D01*
X168730359Y-130291877D01*
X168746940Y-130210000D01*
X168746940Y-129510000D01*
X168702662Y-129274683D01*
X168563590Y-129058559D01*
X168351390Y-128913569D01*
X168234500Y-128889898D01*
X168234500Y-128394217D01*
X170323405Y-128394217D01*
X170339633Y-129243366D01*
X170633368Y-129952505D01*
X170952123Y-130112272D01*
X172286395Y-128778000D01*
X172645605Y-128778000D01*
X173979877Y-130112272D01*
X174298632Y-129952505D01*
X174608595Y-129161783D01*
X174592367Y-128312634D01*
X174298632Y-127603495D01*
X173979877Y-127443728D01*
X172645605Y-128778000D01*
X172286395Y-128778000D01*
X170952123Y-127443728D01*
X170633368Y-127603495D01*
X170323405Y-128394217D01*
X168234500Y-128394217D01*
X168234500Y-127330781D01*
X168633184Y-127496329D01*
X169184398Y-127496810D01*
X169693837Y-127286314D01*
X169716066Y-127264123D01*
X171131728Y-127264123D01*
X172466000Y-128598395D01*
X173693518Y-127370877D01*
X190054728Y-127370877D01*
X190214495Y-127689632D01*
X191005217Y-127999595D01*
X191854366Y-127983367D01*
X192563505Y-127689632D01*
X192723272Y-127370877D01*
X191389000Y-126036605D01*
X190054728Y-127370877D01*
X173693518Y-127370877D01*
X173800272Y-127264123D01*
X173640505Y-126945368D01*
X172849783Y-126635405D01*
X172000634Y-126651633D01*
X171291495Y-126945368D01*
X171131728Y-127264123D01*
X169716066Y-127264123D01*
X170083944Y-126896887D01*
X170295329Y-126387816D01*
X170295810Y-125836602D01*
X170145663Y-125473217D01*
X189246405Y-125473217D01*
X189262633Y-126322366D01*
X189556368Y-127031505D01*
X189875123Y-127191272D01*
X191209395Y-125857000D01*
X191568605Y-125857000D01*
X192902877Y-127191272D01*
X193221632Y-127031505D01*
X193531595Y-126240783D01*
X193515367Y-125391634D01*
X193221632Y-124682495D01*
X192902877Y-124522728D01*
X191568605Y-125857000D01*
X191209395Y-125857000D01*
X189875123Y-124522728D01*
X189556368Y-124682495D01*
X189246405Y-125473217D01*
X170145663Y-125473217D01*
X170085314Y-125327163D01*
X169695887Y-124937056D01*
X169186816Y-124725671D01*
X168635602Y-124725190D01*
X168126163Y-124935686D01*
X167736056Y-125325113D01*
X167640025Y-125556381D01*
X167545314Y-125327163D01*
X167155887Y-124937056D01*
X167155000Y-124936688D01*
X167155000Y-124343123D01*
X190054728Y-124343123D01*
X191389000Y-125677395D01*
X192723272Y-124343123D01*
X192563505Y-124024368D01*
X191772783Y-123714405D01*
X190923634Y-123730633D01*
X190214495Y-124024368D01*
X190054728Y-124343123D01*
X167155000Y-124343123D01*
X167155000Y-123780930D01*
X187929675Y-123780930D01*
X187997735Y-124021931D01*
X188517034Y-124206767D01*
X189067538Y-124178805D01*
X189446265Y-124021931D01*
X189514325Y-123780930D01*
X188722000Y-122988605D01*
X187929675Y-123780930D01*
X167155000Y-123780930D01*
X167155000Y-122604034D01*
X187324233Y-122604034D01*
X187352195Y-123154538D01*
X187509069Y-123533265D01*
X187750070Y-123601325D01*
X188542395Y-122809000D01*
X187750070Y-122016675D01*
X187509069Y-122084735D01*
X187324233Y-122604034D01*
X167155000Y-122604034D01*
X167155000Y-122495131D01*
X167280941Y-122414090D01*
X167425931Y-122201890D01*
X167476940Y-121950000D01*
X167476940Y-121250000D01*
X167455301Y-121135001D01*
X167507999Y-121135001D01*
X167808406Y-121075246D01*
X168063078Y-120905080D01*
X169782579Y-119185579D01*
X169927619Y-118968509D01*
X170112817Y-118933662D01*
X170328941Y-118794590D01*
X170473931Y-118582390D01*
X170524940Y-118330500D01*
X170524940Y-118245980D01*
X170529883Y-118257943D01*
X170792673Y-118521192D01*
X171136201Y-118663838D01*
X171508167Y-118664162D01*
X171851943Y-118522117D01*
X172115192Y-118259327D01*
X172257838Y-117915799D01*
X172258162Y-117543833D01*
X172116117Y-117200057D01*
X171853327Y-116936808D01*
X171509799Y-116794162D01*
X171498310Y-116794152D01*
X170524940Y-115820782D01*
X170524940Y-115730500D01*
X170480662Y-115495183D01*
X170341590Y-115279059D01*
X170129390Y-115134069D01*
X169928175Y-115093322D01*
X169782579Y-114875421D01*
X166229573Y-111322415D01*
X166060565Y-111209488D01*
X165974905Y-111152251D01*
X165974904Y-111152251D01*
X165974901Y-111152249D01*
X165810372Y-111119522D01*
X165674499Y-111092494D01*
X165327875Y-111092492D01*
X165076552Y-111042500D01*
X151241210Y-111042500D01*
X149443519Y-109244809D01*
X149443519Y-108839111D01*
X149457582Y-108825048D01*
X149518837Y-108813522D01*
X149721020Y-108683421D01*
X149721020Y-108686610D01*
X149879770Y-108845360D01*
X149909830Y-108845360D01*
X150143219Y-108748687D01*
X150321847Y-108570058D01*
X150418520Y-108336669D01*
X150418520Y-107846110D01*
X150259770Y-107687360D01*
X149930960Y-107687360D01*
X149930960Y-107433360D01*
X150259770Y-107433360D01*
X150418520Y-107274610D01*
X150418520Y-106784051D01*
X150384948Y-106703000D01*
X150461363Y-106703000D01*
X150608520Y-106732800D01*
X151195377Y-106732800D01*
X151258520Y-106745360D01*
X151321663Y-106732800D01*
X151908520Y-106732800D01*
X152143837Y-106688522D01*
X152359961Y-106549450D01*
X152504951Y-106337250D01*
X152523559Y-106245359D01*
X162820649Y-106245359D01*
X173140867Y-116565576D01*
X173140869Y-116565579D01*
X173395542Y-116735745D01*
X173695948Y-116795500D01*
X177091840Y-116795500D01*
X180040919Y-119744579D01*
X180295592Y-119914745D01*
X180595998Y-119974500D01*
X181529462Y-119974500D01*
X181548338Y-120074817D01*
X181687410Y-120290941D01*
X181777500Y-120352497D01*
X181777500Y-120493494D01*
X181770308Y-120500673D01*
X181627662Y-120844201D01*
X181627338Y-121216167D01*
X181769383Y-121559943D01*
X182032173Y-121823192D01*
X182375701Y-121965838D01*
X182747667Y-121966162D01*
X183091443Y-121824117D01*
X183354692Y-121561327D01*
X183497338Y-121217799D01*
X183497616Y-120898712D01*
X183640591Y-120994245D01*
X183940998Y-121054000D01*
X187547847Y-121054000D01*
X187936113Y-121442944D01*
X188151496Y-121532379D01*
X187997735Y-121596069D01*
X187929675Y-121837070D01*
X188722000Y-122629395D01*
X188736143Y-122615253D01*
X188915748Y-122794858D01*
X188901605Y-122809000D01*
X189693930Y-123601325D01*
X189934931Y-123533265D01*
X190119767Y-123013966D01*
X190091805Y-122463462D01*
X189934931Y-122084735D01*
X189693932Y-122016676D01*
X189808985Y-121901623D01*
X189723362Y-121816000D01*
X191752962Y-121816000D01*
X191771838Y-121916317D01*
X191910910Y-122132441D01*
X192123110Y-122277431D01*
X192375000Y-122328440D01*
X193075000Y-122328440D01*
X193310317Y-122284162D01*
X193526441Y-122145090D01*
X193671431Y-121932890D01*
X193678191Y-121899510D01*
X193736673Y-122040699D01*
X193915302Y-122219327D01*
X194148691Y-122316000D01*
X194339250Y-122316000D01*
X194498000Y-122157250D01*
X194498000Y-121158000D01*
X194752000Y-121158000D01*
X194752000Y-122157250D01*
X194910750Y-122316000D01*
X195101309Y-122316000D01*
X195334698Y-122219327D01*
X195513327Y-122040699D01*
X195610000Y-121807310D01*
X195610000Y-121316750D01*
X195451250Y-121158000D01*
X194752000Y-121158000D01*
X194498000Y-121158000D01*
X194478000Y-121158000D01*
X194478000Y-120904000D01*
X194498000Y-120904000D01*
X194498000Y-119904750D01*
X194752000Y-119904750D01*
X194752000Y-120904000D01*
X195451250Y-120904000D01*
X195610000Y-120745250D01*
X195610000Y-120254690D01*
X195513327Y-120021301D01*
X195334698Y-119842673D01*
X195101309Y-119746000D01*
X194910750Y-119746000D01*
X194752000Y-119904750D01*
X194498000Y-119904750D01*
X194339250Y-119746000D01*
X194148691Y-119746000D01*
X193915302Y-119842673D01*
X193736673Y-120021301D01*
X193680346Y-120157287D01*
X193678162Y-120145683D01*
X193539090Y-119929559D01*
X193326890Y-119784569D01*
X193075000Y-119733560D01*
X192375000Y-119733560D01*
X192139683Y-119777838D01*
X191923559Y-119916910D01*
X191778569Y-120129110D01*
X191754898Y-120246000D01*
X190107591Y-120246000D01*
X190107810Y-119994602D01*
X189897314Y-119485163D01*
X189665493Y-119252937D01*
X189895944Y-119022887D01*
X189896312Y-119022000D01*
X191374000Y-119022000D01*
X191674407Y-118962245D01*
X191929079Y-118792079D01*
X192837717Y-117883440D01*
X193075000Y-117883440D01*
X193310317Y-117839162D01*
X193526441Y-117700090D01*
X193671431Y-117487890D01*
X193678191Y-117454510D01*
X193736673Y-117595699D01*
X193915302Y-117774327D01*
X194148691Y-117871000D01*
X194339250Y-117871000D01*
X194498000Y-117712250D01*
X194498000Y-116713000D01*
X194752000Y-116713000D01*
X194752000Y-117712250D01*
X194910750Y-117871000D01*
X195101309Y-117871000D01*
X195334698Y-117774327D01*
X195513327Y-117595699D01*
X195610000Y-117362310D01*
X195610000Y-116871750D01*
X195451250Y-116713000D01*
X194752000Y-116713000D01*
X194498000Y-116713000D01*
X194478000Y-116713000D01*
X194478000Y-116459000D01*
X194498000Y-116459000D01*
X194498000Y-115459750D01*
X194752000Y-115459750D01*
X194752000Y-116459000D01*
X195451250Y-116459000D01*
X195610000Y-116300250D01*
X195610000Y-115809690D01*
X195513327Y-115576301D01*
X195334698Y-115397673D01*
X195101309Y-115301000D01*
X194910750Y-115301000D01*
X194752000Y-115459750D01*
X194498000Y-115459750D01*
X194339250Y-115301000D01*
X194148691Y-115301000D01*
X193915302Y-115397673D01*
X193736673Y-115576301D01*
X193680346Y-115712287D01*
X193678162Y-115700683D01*
X193539090Y-115484559D01*
X193326890Y-115339569D01*
X193075000Y-115288560D01*
X192375000Y-115288560D01*
X192139683Y-115332838D01*
X191923559Y-115471910D01*
X191778569Y-115684110D01*
X191727560Y-115936000D01*
X191727560Y-116773283D01*
X191048842Y-117452000D01*
X189896153Y-117452000D01*
X189507887Y-117063056D01*
X189276619Y-116967025D01*
X189505837Y-116872314D01*
X189895944Y-116482887D01*
X190107329Y-115973816D01*
X190107810Y-115422602D01*
X189897314Y-114913163D01*
X189507887Y-114523056D01*
X188998816Y-114311671D01*
X188447602Y-114311190D01*
X187938163Y-114521686D01*
X187548056Y-114911113D01*
X187336671Y-115420184D01*
X187336190Y-115971398D01*
X187546686Y-116480837D01*
X187936113Y-116870944D01*
X188167381Y-116966975D01*
X187938163Y-117061686D01*
X187548056Y-117451113D01*
X187547688Y-117452000D01*
X185054000Y-117452000D01*
X184753593Y-117511755D01*
X184498921Y-117681921D01*
X184288782Y-117892060D01*
X184051500Y-117892060D01*
X183880648Y-117924208D01*
X183876746Y-117904594D01*
X183706580Y-117649922D01*
X181915940Y-115859282D01*
X181915940Y-115072000D01*
X181871662Y-114836683D01*
X181732590Y-114620559D01*
X181520390Y-114475569D01*
X181268500Y-114424560D01*
X180268500Y-114424560D01*
X180033183Y-114468838D01*
X179817059Y-114607910D01*
X179769366Y-114677711D01*
X179732590Y-114620559D01*
X179553500Y-114498192D01*
X179553500Y-114418658D01*
X179626005Y-114346153D01*
X179636167Y-114346162D01*
X179979943Y-114204117D01*
X180243192Y-113941327D01*
X180362137Y-113654877D01*
X190054728Y-113654877D01*
X190214495Y-113973632D01*
X191005217Y-114283595D01*
X191854366Y-114267367D01*
X192563505Y-113973632D01*
X192723272Y-113654877D01*
X191389000Y-112320605D01*
X190054728Y-113654877D01*
X180362137Y-113654877D01*
X180385838Y-113597799D01*
X180386162Y-113225833D01*
X180244117Y-112882057D01*
X179981327Y-112618808D01*
X179637799Y-112476162D01*
X179265833Y-112475838D01*
X178922057Y-112617883D01*
X178658808Y-112880673D01*
X178516162Y-113224201D01*
X178516152Y-113235690D01*
X178213421Y-113538421D01*
X178043255Y-113793093D01*
X178031284Y-113853275D01*
X177983500Y-114093500D01*
X177983500Y-114500808D01*
X177817059Y-114607910D01*
X177736713Y-114725500D01*
X174228210Y-114725500D01*
X171259927Y-111757217D01*
X189246405Y-111757217D01*
X189262633Y-112606366D01*
X189556368Y-113315505D01*
X189875123Y-113475272D01*
X191209395Y-112141000D01*
X191568605Y-112141000D01*
X192902877Y-113475272D01*
X193221632Y-113315505D01*
X193531595Y-112524783D01*
X193515367Y-111675634D01*
X193221632Y-110966495D01*
X192902877Y-110806728D01*
X191568605Y-112141000D01*
X191209395Y-112141000D01*
X189875123Y-110806728D01*
X189556368Y-110966495D01*
X189246405Y-111757217D01*
X171259927Y-111757217D01*
X170129833Y-110627123D01*
X190054728Y-110627123D01*
X191389000Y-111961395D01*
X192723272Y-110627123D01*
X192563505Y-110308368D01*
X191772783Y-109998405D01*
X190923634Y-110014633D01*
X190214495Y-110308368D01*
X190054728Y-110627123D01*
X170129833Y-110627123D01*
X166172587Y-106669877D01*
X190054728Y-106669877D01*
X190214495Y-106988632D01*
X191005217Y-107298595D01*
X191854366Y-107282367D01*
X192563505Y-106988632D01*
X192723272Y-106669877D01*
X191389000Y-105335605D01*
X190054728Y-106669877D01*
X166172587Y-106669877D01*
X164274927Y-104772217D01*
X189246405Y-104772217D01*
X189262633Y-105621366D01*
X189556368Y-106330505D01*
X189875123Y-106490272D01*
X191209395Y-105156000D01*
X191568605Y-105156000D01*
X192902877Y-106490272D01*
X193221632Y-106330505D01*
X193531595Y-105539783D01*
X193515367Y-104690634D01*
X193221632Y-103981495D01*
X192902877Y-103821728D01*
X191568605Y-105156000D01*
X191209395Y-105156000D01*
X189875123Y-103821728D01*
X189556368Y-103981495D01*
X189246405Y-104772217D01*
X164274927Y-104772217D01*
X163907992Y-104405282D01*
X163668650Y-104245359D01*
X167720693Y-104245359D01*
X168021100Y-104185604D01*
X168275772Y-104015438D01*
X168649087Y-103642123D01*
X190054728Y-103642123D01*
X191389000Y-104976395D01*
X192723272Y-103642123D01*
X192563505Y-103323368D01*
X191772783Y-103013405D01*
X190923634Y-103029633D01*
X190214495Y-103323368D01*
X190054728Y-103642123D01*
X168649087Y-103642123D01*
X169211280Y-103079930D01*
X187929675Y-103079930D01*
X187997735Y-103320931D01*
X188517034Y-103505767D01*
X189067538Y-103477805D01*
X189446265Y-103320931D01*
X189514325Y-103079930D01*
X188722000Y-102287605D01*
X187929675Y-103079930D01*
X169211280Y-103079930D01*
X170388176Y-101903034D01*
X187324233Y-101903034D01*
X187352195Y-102453538D01*
X187509069Y-102832265D01*
X187750070Y-102900325D01*
X188542395Y-102108000D01*
X188901605Y-102108000D01*
X189693930Y-102900325D01*
X189934931Y-102832265D01*
X190119767Y-102312966D01*
X190091805Y-101762462D01*
X189934931Y-101383735D01*
X189693930Y-101315675D01*
X188901605Y-102108000D01*
X188542395Y-102108000D01*
X187750070Y-101315675D01*
X187509069Y-101383735D01*
X187324233Y-101903034D01*
X170388176Y-101903034D01*
X173335210Y-98956000D01*
X181907962Y-98956000D01*
X181926838Y-99056317D01*
X182065910Y-99272441D01*
X182095000Y-99292317D01*
X182095000Y-99792494D01*
X182087808Y-99799673D01*
X181945162Y-100143201D01*
X181944838Y-100515167D01*
X182086883Y-100858943D01*
X182349673Y-101122192D01*
X182693201Y-101264838D01*
X183065167Y-101265162D01*
X183408943Y-101123117D01*
X183672192Y-100860327D01*
X183814838Y-100516799D01*
X183815162Y-100144833D01*
X183673117Y-99801057D01*
X183665000Y-99792926D01*
X183665000Y-99706160D01*
X184081919Y-100123079D01*
X184336592Y-100293245D01*
X184636998Y-100353001D01*
X184637003Y-100353000D01*
X187547847Y-100353000D01*
X187936113Y-100741944D01*
X188151496Y-100831379D01*
X187997735Y-100895069D01*
X187929675Y-101136070D01*
X188722000Y-101928395D01*
X189514325Y-101136070D01*
X189446265Y-100895069D01*
X189280960Y-100836231D01*
X189505837Y-100743314D01*
X189895944Y-100353887D01*
X189896312Y-100353000D01*
X191473560Y-100353000D01*
X191473560Y-101170500D01*
X191517838Y-101405817D01*
X191656910Y-101621941D01*
X191869110Y-101766931D01*
X192121000Y-101817940D01*
X192821000Y-101817940D01*
X193056317Y-101773662D01*
X193272441Y-101634590D01*
X193417431Y-101422390D01*
X193424191Y-101389010D01*
X193482673Y-101530199D01*
X193661302Y-101708827D01*
X193894691Y-101805500D01*
X194085250Y-101805500D01*
X194244000Y-101646750D01*
X194244000Y-100647500D01*
X194498000Y-100647500D01*
X194498000Y-101646750D01*
X194656750Y-101805500D01*
X194847309Y-101805500D01*
X195080698Y-101708827D01*
X195259327Y-101530199D01*
X195356000Y-101296810D01*
X195356000Y-100806250D01*
X195197250Y-100647500D01*
X194498000Y-100647500D01*
X194244000Y-100647500D01*
X194224000Y-100647500D01*
X194224000Y-100393500D01*
X194244000Y-100393500D01*
X194244000Y-99394250D01*
X194498000Y-99394250D01*
X194498000Y-100393500D01*
X195197250Y-100393500D01*
X195356000Y-100234750D01*
X195356000Y-99744190D01*
X195259327Y-99510801D01*
X195080698Y-99332173D01*
X194847309Y-99235500D01*
X194656750Y-99235500D01*
X194498000Y-99394250D01*
X194244000Y-99394250D01*
X194085250Y-99235500D01*
X193894691Y-99235500D01*
X193661302Y-99332173D01*
X193482673Y-99510801D01*
X193426346Y-99646787D01*
X193424162Y-99635183D01*
X193285090Y-99419059D01*
X193072890Y-99274069D01*
X192821000Y-99223060D01*
X192583718Y-99223060D01*
X192373579Y-99012921D01*
X192118907Y-98842755D01*
X191818500Y-98783000D01*
X189896153Y-98783000D01*
X189665493Y-98551937D01*
X189895944Y-98321887D01*
X189896312Y-98321000D01*
X191310500Y-98321000D01*
X191610907Y-98261245D01*
X191865579Y-98091079D01*
X192393218Y-97563440D01*
X192630500Y-97563440D01*
X192865817Y-97519162D01*
X193081941Y-97380090D01*
X193226931Y-97167890D01*
X193233691Y-97134510D01*
X193292173Y-97275699D01*
X193470802Y-97454327D01*
X193704191Y-97551000D01*
X193894750Y-97551000D01*
X194053500Y-97392250D01*
X194053500Y-96393000D01*
X194307500Y-96393000D01*
X194307500Y-97392250D01*
X194466250Y-97551000D01*
X194656809Y-97551000D01*
X194890198Y-97454327D01*
X195068827Y-97275699D01*
X195165500Y-97042310D01*
X195165500Y-96551750D01*
X195006750Y-96393000D01*
X194307500Y-96393000D01*
X194053500Y-96393000D01*
X194033500Y-96393000D01*
X194033500Y-96139000D01*
X194053500Y-96139000D01*
X194053500Y-95139750D01*
X194307500Y-95139750D01*
X194307500Y-96139000D01*
X195006750Y-96139000D01*
X195165500Y-95980250D01*
X195165500Y-95489690D01*
X195068827Y-95256301D01*
X194890198Y-95077673D01*
X194656809Y-94981000D01*
X194466250Y-94981000D01*
X194307500Y-95139750D01*
X194053500Y-95139750D01*
X193894750Y-94981000D01*
X193704191Y-94981000D01*
X193470802Y-95077673D01*
X193292173Y-95256301D01*
X193235846Y-95392287D01*
X193233662Y-95380683D01*
X193094590Y-95164559D01*
X192882390Y-95019569D01*
X192630500Y-94968560D01*
X191930500Y-94968560D01*
X191695183Y-95012838D01*
X191479059Y-95151910D01*
X191334069Y-95364110D01*
X191283060Y-95616000D01*
X191283060Y-96453282D01*
X190985342Y-96751000D01*
X189896153Y-96751000D01*
X189507887Y-96362056D01*
X189276619Y-96266025D01*
X189505837Y-96171314D01*
X189895944Y-95781887D01*
X190107329Y-95272816D01*
X190107810Y-94721602D01*
X189897314Y-94212163D01*
X189507887Y-93822056D01*
X188998816Y-93610671D01*
X188447602Y-93610190D01*
X187938163Y-93820686D01*
X187548056Y-94210113D01*
X187336671Y-94719184D01*
X187336190Y-95270398D01*
X187546686Y-95779837D01*
X187936113Y-96169944D01*
X188167381Y-96265975D01*
X187938163Y-96360686D01*
X187548056Y-96750113D01*
X187547688Y-96751000D01*
X185415005Y-96751000D01*
X185415000Y-96750999D01*
X185114594Y-96810755D01*
X185020599Y-96873560D01*
X184430000Y-96873560D01*
X184276883Y-96902371D01*
X184255246Y-96793594D01*
X184085080Y-96538922D01*
X182241079Y-94694921D01*
X182024009Y-94549880D01*
X181989162Y-94364683D01*
X181850090Y-94148559D01*
X181637890Y-94003569D01*
X181386000Y-93952560D01*
X180686000Y-93952560D01*
X180450683Y-93996838D01*
X180234559Y-94135910D01*
X180089569Y-94348110D01*
X180086919Y-94361197D01*
X179950090Y-94148559D01*
X179921000Y-94128683D01*
X179921000Y-94048658D01*
X180070505Y-93899153D01*
X180080667Y-93899162D01*
X180424443Y-93757117D01*
X180687692Y-93494327D01*
X180830338Y-93150799D01*
X180830509Y-92953877D01*
X190054728Y-92953877D01*
X190214495Y-93272632D01*
X191005217Y-93582595D01*
X191854366Y-93566367D01*
X192563505Y-93272632D01*
X192723272Y-92953877D01*
X191389000Y-91619605D01*
X190054728Y-92953877D01*
X180830509Y-92953877D01*
X180830662Y-92778833D01*
X180688617Y-92435057D01*
X180425827Y-92171808D01*
X180082299Y-92029162D01*
X179710333Y-92028838D01*
X179366557Y-92170883D01*
X179103308Y-92433673D01*
X178960662Y-92777201D01*
X178960652Y-92788690D01*
X178580921Y-93168421D01*
X178410755Y-93423093D01*
X178410755Y-93423094D01*
X178351000Y-93723500D01*
X178351000Y-94125331D01*
X178334559Y-94135910D01*
X178189569Y-94348110D01*
X178165898Y-94465000D01*
X175223948Y-94465000D01*
X174923541Y-94524755D01*
X174668869Y-94694921D01*
X167188429Y-102175361D01*
X164321430Y-102175361D01*
X164560772Y-102015438D01*
X174458131Y-92118079D01*
X174600484Y-91905032D01*
X175449299Y-91056217D01*
X189246405Y-91056217D01*
X189262633Y-91905366D01*
X189556368Y-92614505D01*
X189875123Y-92774272D01*
X191209395Y-91440000D01*
X191568605Y-91440000D01*
X192902877Y-92774272D01*
X193221632Y-92614505D01*
X193531595Y-91823783D01*
X193515367Y-90974634D01*
X193221632Y-90265495D01*
X192902877Y-90105728D01*
X191568605Y-91440000D01*
X191209395Y-91440000D01*
X189875123Y-90105728D01*
X189556368Y-90265495D01*
X189246405Y-91056217D01*
X175449299Y-91056217D01*
X176579393Y-89926123D01*
X190054728Y-89926123D01*
X191389000Y-91260395D01*
X192723272Y-89926123D01*
X192563505Y-89607368D01*
X191772783Y-89297405D01*
X190923634Y-89313633D01*
X190214495Y-89607368D01*
X190054728Y-89926123D01*
X176579393Y-89926123D01*
X176767579Y-89737937D01*
X176937745Y-89483264D01*
X176997500Y-89182858D01*
X176997500Y-83646538D01*
X177097817Y-83627662D01*
X177313941Y-83488590D01*
X177333817Y-83459500D01*
X177831498Y-83459500D01*
X177841173Y-83469192D01*
X178184701Y-83611838D01*
X178556667Y-83612162D01*
X178900443Y-83470117D01*
X179163692Y-83207327D01*
X179306338Y-82863799D01*
X179306662Y-82491833D01*
X179164617Y-82148057D01*
X178901827Y-81884808D01*
X178558299Y-81742162D01*
X178186333Y-81741838D01*
X177842557Y-81883883D01*
X177836930Y-81889500D01*
X177747660Y-81889500D01*
X178151046Y-81486114D01*
X178321212Y-81231441D01*
X178380968Y-80931035D01*
X178380967Y-80931030D01*
X178380967Y-78910174D01*
X178583543Y-78707951D01*
X179343642Y-78707951D01*
X179411702Y-78948952D01*
X179931001Y-79133788D01*
X180481505Y-79105826D01*
X180860232Y-78948952D01*
X180928292Y-78707951D01*
X180135967Y-77915626D01*
X179343642Y-78707951D01*
X178583543Y-78707951D01*
X178769911Y-78521908D01*
X178859346Y-78306525D01*
X178923036Y-78460286D01*
X179164037Y-78528346D01*
X179956362Y-77736021D01*
X180315572Y-77736021D01*
X181107897Y-78528346D01*
X181348898Y-78460286D01*
X181533734Y-77940987D01*
X181505772Y-77390483D01*
X181348898Y-77011756D01*
X181107897Y-76943696D01*
X180315572Y-77736021D01*
X179956362Y-77736021D01*
X179164037Y-76943696D01*
X178923036Y-77011756D01*
X178864198Y-77177061D01*
X178771281Y-76952184D01*
X178583516Y-76764091D01*
X179343642Y-76764091D01*
X180135967Y-77556416D01*
X180928292Y-76764091D01*
X180877123Y-76582898D01*
X181849695Y-76582898D01*
X182009462Y-76901653D01*
X182800184Y-77211616D01*
X183649333Y-77195388D01*
X184358472Y-76901653D01*
X184518239Y-76582898D01*
X183183967Y-75248626D01*
X181849695Y-76582898D01*
X180877123Y-76582898D01*
X180860232Y-76523090D01*
X180340933Y-76338254D01*
X179790429Y-76366216D01*
X179411702Y-76523090D01*
X179343642Y-76764091D01*
X178583516Y-76764091D01*
X178381854Y-76562077D01*
X178380967Y-76561709D01*
X178380967Y-75873461D01*
X178880967Y-75873461D01*
X179116284Y-75829183D01*
X179332408Y-75690111D01*
X179477398Y-75477911D01*
X179528407Y-75226021D01*
X179528407Y-74685238D01*
X181041372Y-74685238D01*
X181057600Y-75534387D01*
X181351335Y-76243526D01*
X181670090Y-76403293D01*
X183004362Y-75069021D01*
X183363572Y-75069021D01*
X184697844Y-76403293D01*
X185016599Y-76243526D01*
X185326562Y-75452804D01*
X185310334Y-74603655D01*
X185016599Y-73894516D01*
X184697844Y-73734749D01*
X183363572Y-75069021D01*
X183004362Y-75069021D01*
X181670090Y-73734749D01*
X181351335Y-73894516D01*
X181041372Y-74685238D01*
X179528407Y-74685238D01*
X179528407Y-74526021D01*
X179484129Y-74290704D01*
X179345057Y-74074580D01*
X179132857Y-73929590D01*
X179099477Y-73922830D01*
X179240666Y-73864348D01*
X179419294Y-73685719D01*
X179473379Y-73555144D01*
X181849695Y-73555144D01*
X183183967Y-74889416D01*
X184518239Y-73555144D01*
X184358472Y-73236389D01*
X183567750Y-72926426D01*
X182718601Y-72942654D01*
X182009462Y-73236389D01*
X181849695Y-73555144D01*
X179473379Y-73555144D01*
X179515967Y-73452330D01*
X179515967Y-73261771D01*
X179357217Y-73103021D01*
X178357967Y-73103021D01*
X178357967Y-73123021D01*
X178103967Y-73123021D01*
X178103967Y-73103021D01*
X177104717Y-73103021D01*
X176945967Y-73261771D01*
X176945967Y-73452330D01*
X177042640Y-73685719D01*
X177221268Y-73864348D01*
X177357254Y-73920675D01*
X177345650Y-73922859D01*
X177129526Y-74061931D01*
X176984536Y-74274131D01*
X176933527Y-74526021D01*
X176933527Y-75116619D01*
X176870722Y-75210614D01*
X176837148Y-75379403D01*
X176810967Y-75511021D01*
X176810967Y-76561868D01*
X176579904Y-76792528D01*
X176349854Y-76562077D01*
X175840783Y-76350692D01*
X175289569Y-76350211D01*
X175288682Y-76350578D01*
X175078967Y-76140863D01*
X175078967Y-75848059D01*
X175179284Y-75829183D01*
X175395408Y-75690111D01*
X175540398Y-75477911D01*
X175591407Y-75226021D01*
X175591407Y-74526021D01*
X175547129Y-74290704D01*
X175408057Y-74074580D01*
X175195857Y-73929590D01*
X175162477Y-73922830D01*
X175303666Y-73864348D01*
X175482294Y-73685719D01*
X175578967Y-73452330D01*
X175578967Y-73261771D01*
X175420217Y-73103021D01*
X174420967Y-73103021D01*
X174420967Y-73123021D01*
X174166967Y-73123021D01*
X174166967Y-73103021D01*
X173167717Y-73103021D01*
X173008967Y-73261771D01*
X173008967Y-73452330D01*
X173105640Y-73685719D01*
X173284268Y-73864348D01*
X173420254Y-73920675D01*
X173408650Y-73922859D01*
X173192526Y-74061931D01*
X173047536Y-74274131D01*
X172996527Y-74526021D01*
X172996527Y-75226021D01*
X173040805Y-75461338D01*
X173179877Y-75677462D01*
X173392077Y-75822452D01*
X173508967Y-75846123D01*
X173508967Y-76437138D01*
X173300783Y-76350692D01*
X172749569Y-76350211D01*
X172240130Y-76560707D01*
X171850023Y-76950134D01*
X171638638Y-77459205D01*
X171638157Y-78010419D01*
X171848653Y-78519858D01*
X172238080Y-78909965D01*
X172747151Y-79121350D01*
X173298365Y-79121831D01*
X173807804Y-78911335D01*
X174197911Y-78521908D01*
X174293942Y-78290640D01*
X174388653Y-78519858D01*
X174778080Y-78909965D01*
X174778967Y-78910333D01*
X174778967Y-80125967D01*
X174838722Y-80426374D01*
X174915060Y-80540622D01*
X174915060Y-81124500D01*
X174956224Y-81343266D01*
X174767420Y-81469420D01*
X173371421Y-82865419D01*
X173201255Y-83120091D01*
X173201255Y-83120092D01*
X173141500Y-83420498D01*
X173141500Y-84564962D01*
X173041183Y-84583838D01*
X172825059Y-84722910D01*
X172680069Y-84935110D01*
X172629060Y-85187000D01*
X172629060Y-85384500D01*
X172241506Y-85384500D01*
X172234327Y-85377308D01*
X171890799Y-85234662D01*
X171518833Y-85234338D01*
X171175057Y-85376383D01*
X170911808Y-85639173D01*
X170769162Y-85982701D01*
X170768838Y-86354667D01*
X170910883Y-86698443D01*
X171173673Y-86961692D01*
X171517201Y-87104338D01*
X171889167Y-87104662D01*
X172232943Y-86962617D01*
X172241074Y-86954500D01*
X172333842Y-86954500D01*
X172629060Y-87249718D01*
X172629060Y-87787000D01*
X172673338Y-88022317D01*
X172812410Y-88238441D01*
X173024610Y-88383431D01*
X173141500Y-88407102D01*
X173141500Y-90507290D01*
X163473429Y-100175361D01*
X152525854Y-100175361D01*
X152511682Y-100100043D01*
X152372610Y-99883919D01*
X152160410Y-99738929D01*
X151908520Y-99687920D01*
X150608520Y-99687920D01*
X150386545Y-99729688D01*
X150430960Y-99510360D01*
X150430960Y-99198078D01*
X151558079Y-98070959D01*
X151728245Y-97816286D01*
X151728401Y-97815501D01*
X151795192Y-97748827D01*
X151937838Y-97405299D01*
X151938162Y-97033333D01*
X151796117Y-96689557D01*
X151538860Y-96431850D01*
X156066579Y-91904131D01*
X156236745Y-91649458D01*
X156296500Y-91349052D01*
X156296500Y-83519538D01*
X156396817Y-83500662D01*
X156612941Y-83361590D01*
X156631109Y-83335000D01*
X156751994Y-83335000D01*
X156759173Y-83342192D01*
X157102701Y-83484838D01*
X157474667Y-83485162D01*
X157818443Y-83343117D01*
X158081692Y-83080327D01*
X158224338Y-82736799D01*
X158224662Y-82364833D01*
X158082617Y-82021057D01*
X157819827Y-81757808D01*
X157476299Y-81615162D01*
X157194244Y-81614916D01*
X157337439Y-81471721D01*
X157507605Y-81217049D01*
X157567360Y-80916642D01*
X157567360Y-78836773D01*
X157769936Y-78634550D01*
X158530035Y-78634550D01*
X158598095Y-78875551D01*
X159117394Y-79060387D01*
X159667898Y-79032425D01*
X160046625Y-78875551D01*
X160114685Y-78634550D01*
X159322360Y-77842225D01*
X158530035Y-78634550D01*
X157769936Y-78634550D01*
X157956304Y-78448507D01*
X158045739Y-78233124D01*
X158109429Y-78386885D01*
X158350430Y-78454945D01*
X159142755Y-77662620D01*
X159501965Y-77662620D01*
X160294290Y-78454945D01*
X160535291Y-78386885D01*
X160720127Y-77867586D01*
X160692165Y-77317082D01*
X160535291Y-76938355D01*
X160294290Y-76870295D01*
X159501965Y-77662620D01*
X159142755Y-77662620D01*
X159128613Y-77648478D01*
X159308218Y-77468873D01*
X159322360Y-77483015D01*
X160114685Y-76690690D01*
X160063516Y-76509497D01*
X161036088Y-76509497D01*
X161195855Y-76828252D01*
X161986577Y-77138215D01*
X162835726Y-77121987D01*
X163544865Y-76828252D01*
X163667841Y-76582898D01*
X168133695Y-76582898D01*
X168293462Y-76901653D01*
X169084184Y-77211616D01*
X169933333Y-77195388D01*
X170642472Y-76901653D01*
X170802239Y-76582898D01*
X169467967Y-75248626D01*
X168133695Y-76582898D01*
X163667841Y-76582898D01*
X163704632Y-76509497D01*
X162370360Y-75175225D01*
X161036088Y-76509497D01*
X160063516Y-76509497D01*
X160046625Y-76449689D01*
X159527326Y-76264853D01*
X158976822Y-76292815D01*
X158598095Y-76449689D01*
X158530036Y-76690688D01*
X158519000Y-76679652D01*
X158519000Y-75963038D01*
X158619317Y-75944162D01*
X158835441Y-75805090D01*
X158980431Y-75592890D01*
X159031440Y-75341000D01*
X159031440Y-74641000D01*
X159025953Y-74611837D01*
X160227765Y-74611837D01*
X160243993Y-75460986D01*
X160537728Y-76170125D01*
X160856483Y-76329892D01*
X162190755Y-74995620D01*
X162549965Y-74995620D01*
X163884237Y-76329892D01*
X164202992Y-76170125D01*
X164512955Y-75379403D01*
X164499689Y-74685238D01*
X167325372Y-74685238D01*
X167341600Y-75534387D01*
X167635335Y-76243526D01*
X167954090Y-76403293D01*
X169288362Y-75069021D01*
X169647572Y-75069021D01*
X170981844Y-76403293D01*
X171300599Y-76243526D01*
X171610562Y-75452804D01*
X171594334Y-74603655D01*
X171300599Y-73894516D01*
X170981844Y-73734749D01*
X169647572Y-75069021D01*
X169288362Y-75069021D01*
X167954090Y-73734749D01*
X167635335Y-73894516D01*
X167325372Y-74685238D01*
X164499689Y-74685238D01*
X164496727Y-74530254D01*
X164202992Y-73821115D01*
X163884237Y-73661348D01*
X162549965Y-74995620D01*
X162190755Y-74995620D01*
X160856483Y-73661348D01*
X160537728Y-73821115D01*
X160227765Y-74611837D01*
X159025953Y-74611837D01*
X158987162Y-74405683D01*
X158848090Y-74189559D01*
X158635890Y-74044569D01*
X158602510Y-74037809D01*
X158743699Y-73979327D01*
X158922327Y-73800698D01*
X159019000Y-73567309D01*
X159019000Y-73481743D01*
X161036088Y-73481743D01*
X162370360Y-74816015D01*
X163631231Y-73555144D01*
X168133695Y-73555144D01*
X169467967Y-74889416D01*
X170802239Y-73555144D01*
X170642472Y-73236389D01*
X169851750Y-72926426D01*
X169002601Y-72942654D01*
X168293462Y-73236389D01*
X168133695Y-73555144D01*
X163631231Y-73555144D01*
X163704632Y-73481743D01*
X163544865Y-73162988D01*
X162754143Y-72853025D01*
X161904994Y-72869253D01*
X161195855Y-73162988D01*
X161036088Y-73481743D01*
X159019000Y-73481743D01*
X159019000Y-73376750D01*
X158860250Y-73218000D01*
X157861000Y-73218000D01*
X157861000Y-73238000D01*
X157607000Y-73238000D01*
X157607000Y-73218000D01*
X156607750Y-73218000D01*
X156449000Y-73376750D01*
X156449000Y-73567309D01*
X156545673Y-73800698D01*
X156724301Y-73979327D01*
X156860287Y-74035654D01*
X156848683Y-74037838D01*
X156632559Y-74176910D01*
X156487569Y-74389110D01*
X156436560Y-74641000D01*
X156436560Y-75341000D01*
X156480838Y-75576317D01*
X156619910Y-75792441D01*
X156832110Y-75937431D01*
X156949000Y-75961102D01*
X156949000Y-76277195D01*
X156507962Y-76276810D01*
X155998523Y-76487306D01*
X155766297Y-76719127D01*
X155536247Y-76488676D01*
X155027176Y-76277291D01*
X154963000Y-76277235D01*
X154963000Y-75963038D01*
X155063317Y-75944162D01*
X155279441Y-75805090D01*
X155424431Y-75592890D01*
X155475440Y-75341000D01*
X155475440Y-74641000D01*
X155431162Y-74405683D01*
X155292090Y-74189559D01*
X155079890Y-74044569D01*
X155046510Y-74037809D01*
X155187699Y-73979327D01*
X155366327Y-73800698D01*
X155463000Y-73567309D01*
X155463000Y-73376750D01*
X155304250Y-73218000D01*
X154305000Y-73218000D01*
X154305000Y-73238000D01*
X154051000Y-73238000D01*
X154051000Y-73218000D01*
X153051750Y-73218000D01*
X152893000Y-73376750D01*
X152893000Y-73567309D01*
X152989673Y-73800698D01*
X153168301Y-73979327D01*
X153304287Y-74035654D01*
X153292683Y-74037838D01*
X153076559Y-74176910D01*
X152931569Y-74389110D01*
X152880560Y-74641000D01*
X152880560Y-75341000D01*
X152924838Y-75576317D01*
X153063910Y-75792441D01*
X153276110Y-75937431D01*
X153393000Y-75961102D01*
X153393000Y-76896513D01*
X153385674Y-76878783D01*
X152996247Y-76488676D01*
X152487176Y-76277291D01*
X151935962Y-76276810D01*
X151426523Y-76487306D01*
X151036416Y-76876733D01*
X150825031Y-77385804D01*
X150824550Y-77937018D01*
X151035046Y-78446457D01*
X151424473Y-78836564D01*
X151933544Y-79047949D01*
X152484758Y-79048430D01*
X152994197Y-78837934D01*
X153384304Y-78448507D01*
X153480335Y-78217239D01*
X153575046Y-78446457D01*
X153964473Y-78836564D01*
X153965360Y-78836932D01*
X153965360Y-79886360D01*
X154025115Y-80186767D01*
X154195281Y-80441439D01*
X154214060Y-80460218D01*
X154214060Y-80997500D01*
X154255224Y-81216266D01*
X154066420Y-81342420D01*
X154066418Y-81342423D01*
X152924421Y-82484419D01*
X152754255Y-82739091D01*
X152754255Y-82739092D01*
X152694500Y-83039498D01*
X152694500Y-83421962D01*
X152594183Y-83440838D01*
X152378059Y-83579910D01*
X152233069Y-83792110D01*
X152182060Y-84044000D01*
X152182060Y-84287908D01*
X152015299Y-84218662D01*
X151643333Y-84218338D01*
X151299557Y-84360383D01*
X151036308Y-84623173D01*
X150893662Y-84966701D01*
X150893338Y-85338667D01*
X151035383Y-85682443D01*
X151298173Y-85945692D01*
X151641701Y-86088338D01*
X151653190Y-86088348D01*
X152182060Y-86617218D01*
X152182060Y-86644000D01*
X152226338Y-86879317D01*
X152365410Y-87095441D01*
X152577610Y-87240431D01*
X152829500Y-87291440D01*
X153366782Y-87291440D01*
X154226501Y-88151159D01*
X154226501Y-90816790D01*
X150704000Y-94339290D01*
X150704000Y-93587440D01*
X151169000Y-93587440D01*
X151404317Y-93543162D01*
X151620441Y-93404090D01*
X151765431Y-93191890D01*
X151816440Y-92940000D01*
X151816440Y-89940000D01*
X151772162Y-89704683D01*
X151633090Y-89488559D01*
X151420890Y-89343569D01*
X151169000Y-89292560D01*
X150704000Y-89292560D01*
X150704000Y-87621612D01*
X150749931Y-87554390D01*
X150800940Y-87302500D01*
X150800940Y-86052500D01*
X150756662Y-85817183D01*
X150617590Y-85601059D01*
X150405390Y-85456069D01*
X150153500Y-85405060D01*
X149153500Y-85405060D01*
X148918183Y-85449338D01*
X148702059Y-85588410D01*
X148655531Y-85656506D01*
X148513198Y-85514173D01*
X148279809Y-85417500D01*
X147939250Y-85417500D01*
X147780500Y-85576250D01*
X147780500Y-86550500D01*
X147800500Y-86550500D01*
X147800500Y-86804500D01*
X147780500Y-86804500D01*
X147780500Y-87778750D01*
X147939250Y-87937500D01*
X148279809Y-87937500D01*
X148513198Y-87840827D01*
X148654436Y-87699590D01*
X148689410Y-87753941D01*
X148901610Y-87898931D01*
X149134000Y-87945991D01*
X149134000Y-89292560D01*
X148669000Y-89292560D01*
X148433683Y-89336838D01*
X148217559Y-89475910D01*
X148072569Y-89688110D01*
X148021560Y-89940000D01*
X148021560Y-92940000D01*
X148065838Y-93175317D01*
X148204910Y-93391441D01*
X148417110Y-93536431D01*
X148669000Y-93587440D01*
X149134000Y-93587440D01*
X149134000Y-94306842D01*
X148917929Y-94522913D01*
X148808390Y-94448069D01*
X148556500Y-94397060D01*
X147856500Y-94397060D01*
X147621183Y-94441338D01*
X147405059Y-94580410D01*
X147260069Y-94792610D01*
X147257419Y-94805697D01*
X147120590Y-94593059D01*
X146908390Y-94448069D01*
X146656500Y-94397060D01*
X145956500Y-94397060D01*
X145721183Y-94441338D01*
X145505059Y-94580410D01*
X145360069Y-94792610D01*
X145309060Y-95044500D01*
X145309060Y-96019902D01*
X142843722Y-93554564D01*
X142904317Y-93543162D01*
X143120441Y-93404090D01*
X143265431Y-93191890D01*
X143316440Y-92940000D01*
X143316440Y-89940000D01*
X143272162Y-89704683D01*
X143133090Y-89488559D01*
X142920890Y-89343569D01*
X142669000Y-89292560D01*
X142279000Y-89292560D01*
X142279000Y-87810192D01*
X142445441Y-87703090D01*
X142491969Y-87634994D01*
X142634302Y-87777327D01*
X142867691Y-87874000D01*
X143208250Y-87874000D01*
X143367000Y-87715250D01*
X143367000Y-86741000D01*
X143621000Y-86741000D01*
X143621000Y-87715250D01*
X143779750Y-87874000D01*
X144120309Y-87874000D01*
X144353698Y-87777327D01*
X144532327Y-87598699D01*
X144629000Y-87365310D01*
X144629000Y-86963250D01*
X146518500Y-86963250D01*
X146518500Y-87428810D01*
X146615173Y-87662199D01*
X146793802Y-87840827D01*
X147027191Y-87937500D01*
X147367750Y-87937500D01*
X147526500Y-87778750D01*
X147526500Y-86804500D01*
X146677250Y-86804500D01*
X146518500Y-86963250D01*
X144629000Y-86963250D01*
X144629000Y-86899750D01*
X144470250Y-86741000D01*
X143621000Y-86741000D01*
X143367000Y-86741000D01*
X143347000Y-86741000D01*
X143347000Y-86487000D01*
X143367000Y-86487000D01*
X143367000Y-85512750D01*
X143621000Y-85512750D01*
X143621000Y-86487000D01*
X144470250Y-86487000D01*
X144629000Y-86328250D01*
X144629000Y-85926190D01*
X146518500Y-85926190D01*
X146518500Y-86391750D01*
X146677250Y-86550500D01*
X147526500Y-86550500D01*
X147526500Y-85576250D01*
X147367750Y-85417500D01*
X147027191Y-85417500D01*
X146793802Y-85514173D01*
X146615173Y-85692801D01*
X146518500Y-85926190D01*
X144629000Y-85926190D01*
X144629000Y-85862690D01*
X144532327Y-85629301D01*
X144353698Y-85450673D01*
X144120309Y-85354000D01*
X143779750Y-85354000D01*
X143621000Y-85512750D01*
X143367000Y-85512750D01*
X143208250Y-85354000D01*
X142867691Y-85354000D01*
X142634302Y-85450673D01*
X142493064Y-85591910D01*
X142458090Y-85537559D01*
X142245890Y-85392569D01*
X141994000Y-85341560D01*
X140994000Y-85341560D01*
X140758683Y-85385838D01*
X140542559Y-85524910D01*
X140397569Y-85737110D01*
X140346560Y-85989000D01*
X140346560Y-87239000D01*
X140390838Y-87474317D01*
X140529910Y-87690441D01*
X140709000Y-87812808D01*
X140709000Y-89292560D01*
X140169000Y-89292560D01*
X139933683Y-89336838D01*
X139717559Y-89475910D01*
X139572569Y-89688110D01*
X139521560Y-89940000D01*
X139521560Y-92940000D01*
X139548270Y-93081952D01*
X139362500Y-93045000D01*
X136772032Y-93045000D01*
X129953104Y-86226072D01*
X129953104Y-86071610D01*
X130111852Y-86230358D01*
X130968411Y-86230358D01*
X131201800Y-86133685D01*
X131380429Y-85955057D01*
X131477102Y-85721668D01*
X131477102Y-84865108D01*
X131318352Y-84706358D01*
X129953102Y-84706358D01*
X129953102Y-84726358D01*
X129699102Y-84726358D01*
X129699102Y-84706358D01*
X129679102Y-84706358D01*
X129679102Y-84452358D01*
X129699102Y-84452358D01*
X129699102Y-84432358D01*
X129953102Y-84432358D01*
X129953102Y-84452358D01*
X131318352Y-84452358D01*
X131477102Y-84293608D01*
X131477102Y-83437048D01*
X131380429Y-83203659D01*
X131201800Y-83025031D01*
X131159136Y-83007359D01*
X131383772Y-82671168D01*
X131509447Y-82039358D01*
X131383772Y-81407548D01*
X131025880Y-80871925D01*
X130490257Y-80514033D01*
X129858447Y-80388358D01*
X129793757Y-80388358D01*
X129161947Y-80514033D01*
X128626324Y-80871925D01*
X128268432Y-81407548D01*
X128142757Y-82039358D01*
X128268432Y-82671168D01*
X128493068Y-83007359D01*
X128450404Y-83025031D01*
X128271775Y-83203659D01*
X128175102Y-83437048D01*
X128175102Y-84293608D01*
X128333850Y-84452356D01*
X128179388Y-84452356D01*
X122468290Y-78741258D01*
X122459117Y-78719057D01*
X122196327Y-78455808D01*
X121852799Y-78313162D01*
X121480833Y-78312838D01*
X121137057Y-78454883D01*
X120873808Y-78717673D01*
X120731162Y-79061201D01*
X120730838Y-79433167D01*
X120797089Y-79593506D01*
X120802173Y-79619067D01*
X120816526Y-79640547D01*
X120872883Y-79776943D01*
X120978065Y-79882309D01*
X121004855Y-79922403D01*
X135723597Y-94641145D01*
X136026933Y-94843827D01*
X136086298Y-94855636D01*
X136384742Y-94915001D01*
X136384747Y-94915000D01*
X138975210Y-94915000D01*
X139230313Y-95170103D01*
X139053683Y-95203338D01*
X138837559Y-95342410D01*
X138692569Y-95554610D01*
X138641560Y-95806500D01*
X138641560Y-97106500D01*
X138685838Y-97341817D01*
X138788000Y-97500581D01*
X138788000Y-97823994D01*
X138780808Y-97831173D01*
X138638162Y-98174701D01*
X138637838Y-98546667D01*
X138779883Y-98890443D01*
X139042673Y-99153692D01*
X139386201Y-99296338D01*
X139758167Y-99296662D01*
X140101943Y-99154617D01*
X140365192Y-98891827D01*
X140507838Y-98548299D01*
X140508162Y-98176333D01*
X140366117Y-97832557D01*
X140358000Y-97824426D01*
X140358000Y-97623639D01*
X140440441Y-97570590D01*
X140585431Y-97358390D01*
X140588081Y-97345303D01*
X140724910Y-97557941D01*
X140937110Y-97702931D01*
X141189000Y-97753940D01*
X141889000Y-97753940D01*
X142124317Y-97709662D01*
X142340441Y-97570590D01*
X142485431Y-97358390D01*
X142509102Y-97241500D01*
X142879502Y-97241500D01*
X143493281Y-97855278D01*
X143398520Y-98084051D01*
X143398520Y-98574610D01*
X143557270Y-98733360D01*
X143873520Y-98733360D01*
X143873520Y-98860360D01*
X143886080Y-98923503D01*
X143886080Y-98987360D01*
X143557270Y-98987360D01*
X143398520Y-99146110D01*
X143398520Y-99636669D01*
X143413155Y-99672000D01*
X142561880Y-99672000D01*
X142481845Y-99687920D01*
X141908520Y-99687920D01*
X141673203Y-99732198D01*
X141457079Y-99871270D01*
X141312089Y-100083470D01*
X141293481Y-100175360D01*
X140658800Y-100175360D01*
X140556617Y-99928057D01*
X140293827Y-99664808D01*
X139950299Y-99522162D01*
X139578333Y-99521838D01*
X139234557Y-99663883D01*
X138971308Y-99926673D01*
X138828662Y-100270201D01*
X138828338Y-100642167D01*
X138842053Y-100675361D01*
X134787086Y-100675361D01*
X134486680Y-100735116D01*
X134333825Y-100837250D01*
X134232007Y-100905282D01*
X133750789Y-101386500D01*
X133049538Y-101386500D01*
X133030662Y-101286183D01*
X132891590Y-101070059D01*
X132890798Y-101069518D01*
X133014838Y-100770799D01*
X133015162Y-100398833D01*
X132873117Y-100055057D01*
X132610327Y-99791808D01*
X132266799Y-99649162D01*
X131894833Y-99648838D01*
X131551057Y-99790883D01*
X131287808Y-100053673D01*
X131145162Y-100397201D01*
X131145082Y-100488922D01*
X130113581Y-99457421D01*
X129858909Y-99287255D01*
X129558502Y-99227500D01*
X127842538Y-99227500D01*
X127823662Y-99127183D01*
X127684590Y-98911059D01*
X127472390Y-98766069D01*
X127220500Y-98715060D01*
X126520500Y-98715060D01*
X126285183Y-98759338D01*
X126069059Y-98898410D01*
X125924069Y-99110610D01*
X125921419Y-99123697D01*
X125784590Y-98911059D01*
X125572390Y-98766069D01*
X125320500Y-98715060D01*
X124673500Y-98715060D01*
X124673500Y-98708506D01*
X124680692Y-98701327D01*
X124823338Y-98357799D01*
X124823662Y-97985833D01*
X124681617Y-97642057D01*
X124418827Y-97378808D01*
X124075299Y-97236162D01*
X123703333Y-97235838D01*
X123408440Y-97357685D01*
X123408440Y-97340418D01*
X123249692Y-97340418D01*
X123408440Y-97181670D01*
X123408440Y-96341620D01*
X123311767Y-96108231D01*
X123133138Y-95929603D01*
X122899749Y-95832930D01*
X121809510Y-95832930D01*
X121650760Y-95991680D01*
X121650760Y-97340420D01*
X121670760Y-97340420D01*
X121670760Y-97594420D01*
X121650760Y-97594420D01*
X121650760Y-98943160D01*
X121809510Y-99101910D01*
X122628482Y-99101910D01*
X122310722Y-99419670D01*
X120472200Y-99419670D01*
X120236883Y-99463948D01*
X120109130Y-99546155D01*
X120109168Y-99503070D01*
X119944398Y-99104297D01*
X119639567Y-98798934D01*
X119241083Y-98633469D01*
X118809610Y-98633092D01*
X118410837Y-98797862D01*
X118105474Y-99102693D01*
X117940009Y-99501177D01*
X117939632Y-99932650D01*
X114285000Y-99932650D01*
X114285000Y-98874956D01*
X114415282Y-99005237D01*
X114648671Y-99101910D01*
X115738910Y-99101910D01*
X115897660Y-98943160D01*
X115897660Y-97594420D01*
X116151660Y-97594420D01*
X116151660Y-98943160D01*
X116310410Y-99101910D01*
X117400649Y-99101910D01*
X117634038Y-99005237D01*
X117812667Y-98826609D01*
X117909340Y-98593220D01*
X117909340Y-97753170D01*
X119639080Y-97753170D01*
X119639080Y-98593220D01*
X119735753Y-98826609D01*
X119914382Y-99005237D01*
X120147771Y-99101910D01*
X121238010Y-99101910D01*
X121396760Y-98943160D01*
X121396760Y-97594420D01*
X119797830Y-97594420D01*
X119639080Y-97753170D01*
X117909340Y-97753170D01*
X117750590Y-97594420D01*
X116151660Y-97594420D01*
X115897660Y-97594420D01*
X115877660Y-97594420D01*
X115877660Y-97340420D01*
X115897660Y-97340420D01*
X115897660Y-95991680D01*
X116151660Y-95991680D01*
X116151660Y-97340420D01*
X117750590Y-97340420D01*
X117909340Y-97181670D01*
X117909340Y-96341620D01*
X119639080Y-96341620D01*
X119639080Y-97181670D01*
X119797830Y-97340420D01*
X121396760Y-97340420D01*
X121396760Y-95991680D01*
X121238010Y-95832930D01*
X120147771Y-95832930D01*
X119914382Y-95929603D01*
X119735753Y-96108231D01*
X119639080Y-96341620D01*
X117909340Y-96341620D01*
X117812667Y-96108231D01*
X117634038Y-95929603D01*
X117400649Y-95832930D01*
X116310410Y-95832930D01*
X116151660Y-95991680D01*
X115897660Y-95991680D01*
X115738910Y-95832930D01*
X114648671Y-95832930D01*
X114415282Y-95929603D01*
X114285000Y-96059884D01*
X114285000Y-76509497D01*
X147320088Y-76509497D01*
X147479855Y-76828252D01*
X148270577Y-77138215D01*
X149119726Y-77121987D01*
X149828865Y-76828252D01*
X149988632Y-76509497D01*
X148654360Y-75175225D01*
X147320088Y-76509497D01*
X114285000Y-76509497D01*
X114285000Y-74611837D01*
X146511765Y-74611837D01*
X146527993Y-75460986D01*
X146821728Y-76170125D01*
X147140483Y-76329892D01*
X148474755Y-74995620D01*
X148833965Y-74995620D01*
X150168237Y-76329892D01*
X150486992Y-76170125D01*
X150796955Y-75379403D01*
X150780727Y-74530254D01*
X150486992Y-73821115D01*
X150168237Y-73661348D01*
X148833965Y-74995620D01*
X148474755Y-74995620D01*
X147140483Y-73661348D01*
X146821728Y-73821115D01*
X146511765Y-74611837D01*
X114285000Y-74611837D01*
X114285000Y-73481743D01*
X147320088Y-73481743D01*
X148654360Y-74816015D01*
X149988632Y-73481743D01*
X149828865Y-73162988D01*
X149038143Y-72853025D01*
X148188994Y-72869253D01*
X147479855Y-73162988D01*
X147320088Y-73481743D01*
X114285000Y-73481743D01*
X114285000Y-72614691D01*
X152893000Y-72614691D01*
X152893000Y-72805250D01*
X153051750Y-72964000D01*
X154051000Y-72964000D01*
X154051000Y-72264750D01*
X154305000Y-72264750D01*
X154305000Y-72964000D01*
X155304250Y-72964000D01*
X155463000Y-72805250D01*
X155463000Y-72614691D01*
X156449000Y-72614691D01*
X156449000Y-72805250D01*
X156607750Y-72964000D01*
X157607000Y-72964000D01*
X157607000Y-72264750D01*
X157861000Y-72264750D01*
X157861000Y-72964000D01*
X158860250Y-72964000D01*
X159019000Y-72805250D01*
X159019000Y-72614691D01*
X158971375Y-72499712D01*
X173008967Y-72499712D01*
X173008967Y-72690271D01*
X173167717Y-72849021D01*
X174166967Y-72849021D01*
X174166967Y-72149771D01*
X174420967Y-72149771D01*
X174420967Y-72849021D01*
X175420217Y-72849021D01*
X175578967Y-72690271D01*
X175578967Y-72499712D01*
X176945967Y-72499712D01*
X176945967Y-72690271D01*
X177104717Y-72849021D01*
X178103967Y-72849021D01*
X178103967Y-72149771D01*
X178357967Y-72149771D01*
X178357967Y-72849021D01*
X179357217Y-72849021D01*
X179515967Y-72690271D01*
X179515967Y-72499712D01*
X179419294Y-72266323D01*
X179240666Y-72087694D01*
X179007277Y-71991021D01*
X178516717Y-71991021D01*
X178357967Y-72149771D01*
X178103967Y-72149771D01*
X177945217Y-71991021D01*
X177454657Y-71991021D01*
X177221268Y-72087694D01*
X177042640Y-72266323D01*
X176945967Y-72499712D01*
X175578967Y-72499712D01*
X175482294Y-72266323D01*
X175303666Y-72087694D01*
X175070277Y-71991021D01*
X174579717Y-71991021D01*
X174420967Y-72149771D01*
X174166967Y-72149771D01*
X174008217Y-71991021D01*
X173517657Y-71991021D01*
X173284268Y-72087694D01*
X173105640Y-72266323D01*
X173008967Y-72499712D01*
X158971375Y-72499712D01*
X158922327Y-72381302D01*
X158743699Y-72202673D01*
X158510310Y-72106000D01*
X158019750Y-72106000D01*
X157861000Y-72264750D01*
X157607000Y-72264750D01*
X157448250Y-72106000D01*
X156957690Y-72106000D01*
X156724301Y-72202673D01*
X156545673Y-72381302D01*
X156449000Y-72614691D01*
X155463000Y-72614691D01*
X155366327Y-72381302D01*
X155187699Y-72202673D01*
X154954310Y-72106000D01*
X154463750Y-72106000D01*
X154305000Y-72264750D01*
X154051000Y-72264750D01*
X153892250Y-72106000D01*
X153401690Y-72106000D01*
X153168301Y-72202673D01*
X152989673Y-72381302D01*
X152893000Y-72614691D01*
X114285000Y-72614691D01*
X114285000Y-66945000D01*
X200245000Y-66945000D01*
X200245000Y-137855000D01*
X200245000Y-137855000D01*
G37*
X200245000Y-137855000D02*
X114285000Y-137855000D01*
X114285000Y-131601250D01*
X141336000Y-131601250D01*
X141336000Y-131791809D01*
X141432673Y-132025198D01*
X141611301Y-132203827D01*
X141844690Y-132300500D01*
X142335250Y-132300500D01*
X142494000Y-132141750D01*
X142494000Y-131442500D01*
X142748000Y-131442500D01*
X142748000Y-132141750D01*
X142906750Y-132300500D01*
X143397310Y-132300500D01*
X143630699Y-132203827D01*
X143809327Y-132025198D01*
X143906000Y-131791809D01*
X143906000Y-131728250D01*
X145844500Y-131728250D01*
X145844500Y-131918809D01*
X145941173Y-132152198D01*
X146119801Y-132330827D01*
X146353190Y-132427500D01*
X146843750Y-132427500D01*
X147002500Y-132268750D01*
X147002500Y-131569500D01*
X147256500Y-131569500D01*
X147256500Y-132268750D01*
X147415250Y-132427500D01*
X147905810Y-132427500D01*
X148139199Y-132330827D01*
X148317827Y-132152198D01*
X148414500Y-131918809D01*
X148414500Y-131918750D01*
X162418000Y-131918750D01*
X162418000Y-132109309D01*
X162514673Y-132342698D01*
X162693301Y-132521327D01*
X162926690Y-132618000D01*
X163417250Y-132618000D01*
X163576000Y-132459250D01*
X163576000Y-131760000D01*
X163830000Y-131760000D01*
X163830000Y-132459250D01*
X163988750Y-132618000D01*
X164479310Y-132618000D01*
X164712699Y-132521327D01*
X164891327Y-132342698D01*
X164988000Y-132109309D01*
X164988000Y-132045750D01*
X166164500Y-132045750D01*
X166164500Y-132236309D01*
X166261173Y-132469698D01*
X166439801Y-132648327D01*
X166673190Y-132745000D01*
X167163750Y-132745000D01*
X167322500Y-132586250D01*
X167322500Y-131887000D01*
X167576500Y-131887000D01*
X167576500Y-132586250D01*
X167735250Y-132745000D01*
X168225810Y-132745000D01*
X168459199Y-132648327D01*
X168637827Y-132469698D01*
X168734500Y-132236309D01*
X168734500Y-132045750D01*
X168575750Y-131887000D01*
X167576500Y-131887000D01*
X167322500Y-131887000D01*
X166323250Y-131887000D01*
X166164500Y-132045750D01*
X164988000Y-132045750D01*
X164988000Y-131918750D01*
X164829250Y-131760000D01*
X163830000Y-131760000D01*
X163576000Y-131760000D01*
X162576750Y-131760000D01*
X162418000Y-131918750D01*
X148414500Y-131918750D01*
X148414500Y-131728250D01*
X148255750Y-131569500D01*
X147256500Y-131569500D01*
X147002500Y-131569500D01*
X146003250Y-131569500D01*
X145844500Y-131728250D01*
X143906000Y-131728250D01*
X143906000Y-131601250D01*
X143747250Y-131442500D01*
X142748000Y-131442500D01*
X142494000Y-131442500D01*
X141494750Y-131442500D01*
X141336000Y-131601250D01*
X114285000Y-131601250D01*
X114285000Y-130863377D01*
X122300228Y-130863377D01*
X122459995Y-131182132D01*
X123250717Y-131492095D01*
X124099866Y-131475867D01*
X124809005Y-131182132D01*
X124968772Y-130863377D01*
X123634500Y-129529105D01*
X122300228Y-130863377D01*
X114285000Y-130863377D01*
X114285000Y-128965717D01*
X121491905Y-128965717D01*
X121508133Y-129814866D01*
X121801868Y-130524005D01*
X122120623Y-130683772D01*
X123454895Y-129349500D01*
X123814105Y-129349500D01*
X125148377Y-130683772D01*
X125467132Y-130524005D01*
X125607910Y-130164877D01*
X137095728Y-130164877D01*
X137255495Y-130483632D01*
X138046217Y-130793595D01*
X138895366Y-130777367D01*
X139604505Y-130483632D01*
X139764272Y-130164877D01*
X138430000Y-128830605D01*
X137095728Y-130164877D01*
X125607910Y-130164877D01*
X125777095Y-129733283D01*
X125760867Y-128884134D01*
X125467132Y-128174995D01*
X125148377Y-128015228D01*
X123814105Y-129349500D01*
X123454895Y-129349500D01*
X122120623Y-128015228D01*
X121801868Y-128174995D01*
X121491905Y-128965717D01*
X114285000Y-128965717D01*
X114285000Y-127835623D01*
X122300228Y-127835623D01*
X123634500Y-129169895D01*
X124968772Y-127835623D01*
X124809005Y-127516868D01*
X124018283Y-127206905D01*
X123169134Y-127223133D01*
X122459995Y-127516868D01*
X122300228Y-127835623D01*
X114285000Y-127835623D01*
X114285000Y-124936250D01*
X119985000Y-124936250D01*
X119985000Y-125426810D01*
X120081673Y-125660199D01*
X120260302Y-125838827D01*
X120493691Y-125935500D01*
X120684250Y-125935500D01*
X120843000Y-125776750D01*
X120843000Y-124777500D01*
X120143750Y-124777500D01*
X119985000Y-124936250D01*
X114285000Y-124936250D01*
X114285000Y-123874190D01*
X119985000Y-123874190D01*
X119985000Y-124364750D01*
X120143750Y-124523500D01*
X120843000Y-124523500D01*
X120843000Y-123524250D01*
X120684250Y-123365500D01*
X120493691Y-123365500D01*
X120260302Y-123462173D01*
X120081673Y-123640801D01*
X119985000Y-123874190D01*
X114285000Y-123874190D01*
X114285000Y-120491250D01*
X120048500Y-120491250D01*
X120048500Y-120981810D01*
X120145173Y-121215199D01*
X120323802Y-121393827D01*
X120557191Y-121490500D01*
X120747750Y-121490500D01*
X120906500Y-121331750D01*
X120906500Y-120332500D01*
X120207250Y-120332500D01*
X120048500Y-120491250D01*
X114285000Y-120491250D01*
X114285000Y-119429190D01*
X120048500Y-119429190D01*
X120048500Y-119919750D01*
X120207250Y-120078500D01*
X120906500Y-120078500D01*
X120906500Y-119079250D01*
X120747750Y-118920500D01*
X120557191Y-118920500D01*
X120323802Y-119017173D01*
X120145173Y-119195801D01*
X120048500Y-119429190D01*
X114285000Y-119429190D01*
X114285000Y-117147377D01*
X122300228Y-117147377D01*
X122459995Y-117466132D01*
X123250717Y-117776095D01*
X124099866Y-117759867D01*
X124221293Y-117709570D01*
X125509175Y-117709570D01*
X126301500Y-118501895D01*
X127093825Y-117709570D01*
X127025765Y-117468569D01*
X126506466Y-117283733D01*
X125955962Y-117311695D01*
X125577235Y-117468569D01*
X125509175Y-117709570D01*
X124221293Y-117709570D01*
X124809005Y-117466132D01*
X124968772Y-117147377D01*
X123634500Y-115813105D01*
X122300228Y-117147377D01*
X114285000Y-117147377D01*
X114285000Y-115249717D01*
X121491905Y-115249717D01*
X121508133Y-116098866D01*
X121801868Y-116808005D01*
X122120623Y-116967772D01*
X123454895Y-115633500D01*
X123814105Y-115633500D01*
X125148377Y-116967772D01*
X125467132Y-116808005D01*
X125777095Y-116017283D01*
X125760867Y-115168134D01*
X125665106Y-114936946D01*
X134601517Y-114936946D01*
X134870312Y-115522379D01*
X135342682Y-115960385D01*
X135824556Y-116159975D01*
X136080500Y-116040836D01*
X136080500Y-114681000D01*
X134720133Y-114681000D01*
X134601517Y-114936946D01*
X125665106Y-114936946D01*
X125467132Y-114458995D01*
X125148377Y-114299228D01*
X123814105Y-115633500D01*
X123454895Y-115633500D01*
X122120623Y-114299228D01*
X121801868Y-114458995D01*
X121491905Y-115249717D01*
X114285000Y-115249717D01*
X114285000Y-114119623D01*
X122300228Y-114119623D01*
X123634500Y-115453895D01*
X124917341Y-114171054D01*
X134601517Y-114171054D01*
X134720133Y-114427000D01*
X136080500Y-114427000D01*
X136080500Y-113067164D01*
X135824556Y-112948025D01*
X135342682Y-113147615D01*
X134870312Y-113585621D01*
X134601517Y-114171054D01*
X124917341Y-114171054D01*
X124968772Y-114119623D01*
X124809005Y-113800868D01*
X124018283Y-113490905D01*
X123169134Y-113507133D01*
X122459995Y-113800868D01*
X122300228Y-114119623D01*
X114285000Y-114119623D01*
X114285000Y-107775116D01*
X114415282Y-107905397D01*
X114648671Y-108002070D01*
X115738910Y-108002070D01*
X115897660Y-107843320D01*
X115897660Y-106494580D01*
X116151660Y-106494580D01*
X116151660Y-107843320D01*
X116310410Y-108002070D01*
X117400649Y-108002070D01*
X117634038Y-107905397D01*
X117812667Y-107726769D01*
X117909340Y-107493380D01*
X117909340Y-106653330D01*
X119639080Y-106653330D01*
X119639080Y-107493380D01*
X119735753Y-107726769D01*
X119914382Y-107905397D01*
X120147771Y-108002070D01*
X121238010Y-108002070D01*
X121396760Y-107843320D01*
X121396760Y-106494580D01*
X121650760Y-106494580D01*
X121650760Y-107843320D01*
X121809510Y-108002070D01*
X122899749Y-108002070D01*
X123133138Y-107905397D01*
X123311767Y-107726769D01*
X123408440Y-107493380D01*
X123408440Y-106759250D01*
X133169500Y-106759250D01*
X133169500Y-107099809D01*
X133266173Y-107333198D01*
X133444801Y-107511827D01*
X133678190Y-107608500D01*
X134143750Y-107608500D01*
X134302500Y-107449750D01*
X134302500Y-106600500D01*
X134556500Y-106600500D01*
X134556500Y-107449750D01*
X134715250Y-107608500D01*
X135180810Y-107608500D01*
X135414199Y-107511827D01*
X135592827Y-107333198D01*
X135689500Y-107099809D01*
X135689500Y-106759250D01*
X135530750Y-106600500D01*
X134556500Y-106600500D01*
X134302500Y-106600500D01*
X133328250Y-106600500D01*
X133169500Y-106759250D01*
X123408440Y-106759250D01*
X123408440Y-106653330D01*
X123249690Y-106494580D01*
X121650760Y-106494580D01*
X121396760Y-106494580D01*
X119797830Y-106494580D01*
X119639080Y-106653330D01*
X117909340Y-106653330D01*
X117750590Y-106494580D01*
X116151660Y-106494580D01*
X115897660Y-106494580D01*
X115877660Y-106494580D01*
X115877660Y-106240580D01*
X115897660Y-106240580D01*
X115897660Y-104891840D01*
X116151660Y-104891840D01*
X116151660Y-106240580D01*
X117750590Y-106240580D01*
X117909340Y-106081830D01*
X117909340Y-105241780D01*
X119639080Y-105241780D01*
X119639080Y-106081830D01*
X119797830Y-106240580D01*
X121396760Y-106240580D01*
X121396760Y-104891840D01*
X121650760Y-104891840D01*
X121650760Y-106240580D01*
X123249690Y-106240580D01*
X123408440Y-106081830D01*
X123408440Y-105241780D01*
X123311767Y-105008391D01*
X123133138Y-104829763D01*
X122899749Y-104733090D01*
X121809510Y-104733090D01*
X121650760Y-104891840D01*
X121396760Y-104891840D01*
X121238010Y-104733090D01*
X120147771Y-104733090D01*
X119914382Y-104829763D01*
X119735753Y-105008391D01*
X119639080Y-105241780D01*
X117909340Y-105241780D01*
X117812667Y-105008391D01*
X117634038Y-104829763D01*
X117400649Y-104733090D01*
X116310410Y-104733090D01*
X116151660Y-104891840D01*
X115897660Y-104891840D01*
X115738910Y-104733090D01*
X114648671Y-104733090D01*
X114415282Y-104829763D01*
X114285000Y-104960044D01*
X114285000Y-99932650D01*
X117939632Y-99932650D01*
X118104402Y-100331423D01*
X118409233Y-100636786D01*
X118807717Y-100802251D01*
X119239190Y-100802628D01*
X119637963Y-100637858D01*
X119824760Y-100451386D01*
X119824760Y-100567490D01*
X119853993Y-100722852D01*
X119824760Y-100867210D01*
X119824760Y-101367590D01*
X119853993Y-101522952D01*
X119824760Y-101667310D01*
X119824760Y-102167690D01*
X119851083Y-102307584D01*
X119837200Y-102341100D01*
X119837200Y-102433755D01*
X119982000Y-102578555D01*
X120008110Y-102619131D01*
X120147786Y-102714568D01*
X120112502Y-102729183D01*
X119998989Y-102842695D01*
X119995950Y-102842695D01*
X119837200Y-103001445D01*
X119837200Y-103094100D01*
X119846955Y-103117650D01*
X119837200Y-103141200D01*
X119837200Y-103233855D01*
X119994043Y-103390698D01*
X119837200Y-103390698D01*
X119837200Y-103396192D01*
X119639567Y-103198214D01*
X119241083Y-103032749D01*
X118809610Y-103032372D01*
X118410837Y-103197142D01*
X118105474Y-103501973D01*
X117940009Y-103900457D01*
X117939632Y-104331930D01*
X118104402Y-104730703D01*
X118409233Y-105036066D01*
X118807717Y-105201531D01*
X119239190Y-105201908D01*
X119637963Y-105037138D01*
X119943326Y-104732307D01*
X120108791Y-104333823D01*
X120108818Y-104302533D01*
X120112502Y-104306217D01*
X120345891Y-104402890D01*
X121337070Y-104402890D01*
X121495820Y-104244140D01*
X121495820Y-103642795D01*
X121749820Y-103642795D01*
X121749820Y-104244140D01*
X121908570Y-104402890D01*
X122899749Y-104402890D01*
X123133138Y-104306217D01*
X123311767Y-104127589D01*
X123408440Y-103894200D01*
X123408440Y-103801545D01*
X123249690Y-103642795D01*
X121749820Y-103642795D01*
X121495820Y-103642795D01*
X121475820Y-103642795D01*
X121475820Y-103464040D01*
X121495820Y-103444040D01*
X121495820Y-103370700D01*
X121749820Y-103370700D01*
X121749820Y-103444040D01*
X121908570Y-103602790D01*
X122899749Y-103602790D01*
X123133138Y-103506117D01*
X123246651Y-103392605D01*
X123249690Y-103392605D01*
X123408440Y-103233855D01*
X123408440Y-103141200D01*
X123398685Y-103117650D01*
X123408440Y-103094100D01*
X123408440Y-103001445D01*
X123249690Y-102842695D01*
X123246651Y-102842695D01*
X123133138Y-102729183D01*
X123096863Y-102714157D01*
X123114979Y-102702500D01*
X129180060Y-102702500D01*
X129180060Y-102821500D01*
X129224338Y-103056817D01*
X129363410Y-103272941D01*
X129575610Y-103417931D01*
X129827500Y-103468940D01*
X130527500Y-103468940D01*
X130746266Y-103427776D01*
X130872420Y-103616580D01*
X132284419Y-105028579D01*
X132539091Y-105198745D01*
X132839498Y-105258500D01*
X133233308Y-105258500D01*
X133340410Y-105424941D01*
X133408506Y-105471469D01*
X133266173Y-105613802D01*
X133169500Y-105847191D01*
X133169500Y-106187750D01*
X133328250Y-106346500D01*
X134302500Y-106346500D01*
X134302500Y-106326500D01*
X134556500Y-106326500D01*
X134556500Y-106346500D01*
X135530750Y-106346500D01*
X135689500Y-106187750D01*
X135689500Y-105847191D01*
X135592827Y-105613802D01*
X135451590Y-105472564D01*
X135505941Y-105437590D01*
X135650931Y-105225390D01*
X135656549Y-105197648D01*
X135909579Y-105028579D01*
X138192799Y-102745359D01*
X139101634Y-102745359D01*
X138969301Y-102800173D01*
X138790673Y-102978802D01*
X138694000Y-103212191D01*
X138694000Y-103552750D01*
X138852750Y-103711500D01*
X139827000Y-103711500D01*
X139827000Y-103691500D01*
X140081000Y-103691500D01*
X140081000Y-103711500D01*
X141055250Y-103711500D01*
X141214000Y-103552750D01*
X141214000Y-103212191D01*
X141117327Y-102978802D01*
X140938699Y-102800173D01*
X140806366Y-102745359D01*
X141279306Y-102745359D01*
X141261080Y-102835360D01*
X141261080Y-103085360D01*
X141285464Y-103214949D01*
X141261080Y-103335360D01*
X141261080Y-103585360D01*
X141285464Y-103714949D01*
X141261080Y-103835360D01*
X141261080Y-104085360D01*
X141278015Y-104175360D01*
X141214000Y-104175360D01*
X141214000Y-104124250D01*
X141055250Y-103965500D01*
X140081000Y-103965500D01*
X140081000Y-103985500D01*
X139827000Y-103985500D01*
X139827000Y-103965500D01*
X138852750Y-103965500D01*
X138694000Y-104124250D01*
X138694000Y-104464809D01*
X138790673Y-104698198D01*
X138931910Y-104839436D01*
X138877559Y-104874410D01*
X138732569Y-105086610D01*
X138681560Y-105338500D01*
X138681560Y-106338500D01*
X138725838Y-106573817D01*
X138864910Y-106789941D01*
X139077110Y-106934931D01*
X139329000Y-106985940D01*
X139489000Y-106985940D01*
X139489000Y-109047831D01*
X139472559Y-109058410D01*
X139327569Y-109270610D01*
X139276560Y-109522500D01*
X139276560Y-110822500D01*
X139320838Y-111057817D01*
X139459910Y-111273941D01*
X139672110Y-111418931D01*
X139924000Y-111469940D01*
X140624000Y-111469940D01*
X140859317Y-111425662D01*
X141075441Y-111286590D01*
X141220431Y-111074390D01*
X141223081Y-111061303D01*
X141359910Y-111273941D01*
X141572110Y-111418931D01*
X141824000Y-111469940D01*
X142037402Y-111469940D01*
X140303232Y-113204110D01*
X140227590Y-113086559D01*
X140015390Y-112941569D01*
X139763500Y-112890560D01*
X137731500Y-112890560D01*
X137496183Y-112934838D01*
X137280059Y-113073910D01*
X137168660Y-113236948D01*
X137072318Y-113147615D01*
X136590444Y-112948025D01*
X136334500Y-113067164D01*
X136334500Y-114427000D01*
X136354500Y-114427000D01*
X136354500Y-114681000D01*
X136334500Y-114681000D01*
X136334500Y-116040836D01*
X136590444Y-116159975D01*
X137072318Y-115960385D01*
X137169898Y-115869903D01*
X137267410Y-116021441D01*
X137479610Y-116166431D01*
X137731500Y-116217440D01*
X139763500Y-116217440D01*
X139998817Y-116173162D01*
X140214941Y-116034090D01*
X140359931Y-115821890D01*
X140410940Y-115570000D01*
X140410940Y-115247819D01*
X140618579Y-115109079D01*
X143373521Y-112354137D01*
X143373521Y-114113268D01*
X135653289Y-121833500D01*
X133367038Y-121833500D01*
X133348162Y-121733183D01*
X133209090Y-121517059D01*
X133180000Y-121497183D01*
X133180000Y-120809002D01*
X133189692Y-120799327D01*
X133332338Y-120455799D01*
X133332662Y-120083833D01*
X133190617Y-119740057D01*
X132927827Y-119476808D01*
X132584299Y-119334162D01*
X132212333Y-119333838D01*
X131868557Y-119475883D01*
X131605308Y-119738673D01*
X131462662Y-120082201D01*
X131462338Y-120454167D01*
X131604383Y-120797943D01*
X131610000Y-120803570D01*
X131610000Y-121083340D01*
X131193081Y-120666421D01*
X130938409Y-120496255D01*
X130638002Y-120436500D01*
X127475653Y-120436500D01*
X127087387Y-120047556D01*
X126872004Y-119958121D01*
X127025765Y-119894431D01*
X127093825Y-119653430D01*
X126301500Y-118861105D01*
X126287358Y-118875248D01*
X126107753Y-118695643D01*
X126121895Y-118681500D01*
X126481105Y-118681500D01*
X127273430Y-119473825D01*
X127514431Y-119405765D01*
X127699267Y-118886466D01*
X127671305Y-118335962D01*
X127514431Y-117957235D01*
X127273430Y-117889175D01*
X126481105Y-118681500D01*
X126121895Y-118681500D01*
X125329570Y-117889175D01*
X125088569Y-117957235D01*
X124903733Y-118476534D01*
X124931695Y-119027038D01*
X125088569Y-119405765D01*
X125140746Y-119420500D01*
X123905538Y-119420500D01*
X123886662Y-119320183D01*
X123747590Y-119104059D01*
X123535390Y-118959069D01*
X123283500Y-118908060D01*
X122583500Y-118908060D01*
X122348183Y-118952338D01*
X122132059Y-119091410D01*
X121987069Y-119303610D01*
X121980309Y-119336990D01*
X121921827Y-119195801D01*
X121743198Y-119017173D01*
X121509809Y-118920500D01*
X121319250Y-118920500D01*
X121160500Y-119079250D01*
X121160500Y-120078500D01*
X121180500Y-120078500D01*
X121180500Y-120332500D01*
X121160500Y-120332500D01*
X121160500Y-121331750D01*
X121319250Y-121490500D01*
X121509809Y-121490500D01*
X121743198Y-121393827D01*
X121921827Y-121215199D01*
X121978154Y-121079213D01*
X121980338Y-121090817D01*
X122119410Y-121306941D01*
X122331610Y-121451931D01*
X122583500Y-121502940D01*
X123283500Y-121502940D01*
X123518817Y-121458662D01*
X123734941Y-121319590D01*
X123879931Y-121107390D01*
X123903602Y-120990500D01*
X124916131Y-120990500D01*
X124915690Y-121495898D01*
X125126186Y-122005337D01*
X125358007Y-122237563D01*
X125127556Y-122467613D01*
X124916171Y-122976684D01*
X124915690Y-123527898D01*
X124916057Y-123528785D01*
X124579342Y-123865500D01*
X123842038Y-123865500D01*
X123823162Y-123765183D01*
X123684090Y-123549059D01*
X123471890Y-123404069D01*
X123220000Y-123353060D01*
X122520000Y-123353060D01*
X122284683Y-123397338D01*
X122068559Y-123536410D01*
X121923569Y-123748610D01*
X121916809Y-123781990D01*
X121858327Y-123640801D01*
X121679698Y-123462173D01*
X121446309Y-123365500D01*
X121255750Y-123365500D01*
X121097000Y-123524250D01*
X121097000Y-124523500D01*
X121117000Y-124523500D01*
X121117000Y-124777500D01*
X121097000Y-124777500D01*
X121097000Y-125776750D01*
X121255750Y-125935500D01*
X121446309Y-125935500D01*
X121679698Y-125838827D01*
X121858327Y-125660199D01*
X121914654Y-125524213D01*
X121916838Y-125535817D01*
X122055910Y-125751941D01*
X122268110Y-125896931D01*
X122520000Y-125947940D01*
X123220000Y-125947940D01*
X123455317Y-125903662D01*
X123671441Y-125764590D01*
X123816431Y-125552390D01*
X123840102Y-125435500D01*
X124904500Y-125435500D01*
X124953967Y-125425660D01*
X124916171Y-125516684D01*
X124915690Y-126067898D01*
X125126186Y-126577337D01*
X125515613Y-126967444D01*
X126024684Y-127178829D01*
X126575898Y-127179310D01*
X127085337Y-126968814D01*
X127475444Y-126579387D01*
X127686829Y-126070316D01*
X127687310Y-125519102D01*
X127476814Y-125009663D01*
X127087387Y-124619556D01*
X126856119Y-124523525D01*
X127085337Y-124428814D01*
X127475444Y-124039387D01*
X127475812Y-124038500D01*
X129860000Y-124038500D01*
X130160407Y-123978745D01*
X130254402Y-123915940D01*
X130845000Y-123915940D01*
X131063766Y-123874776D01*
X131189920Y-124063580D01*
X132839919Y-125713579D01*
X133094591Y-125883745D01*
X133394998Y-125943500D01*
X133459962Y-125943500D01*
X133478838Y-126043817D01*
X133617910Y-126259941D01*
X133830110Y-126404931D01*
X134082000Y-126455940D01*
X134561902Y-126455940D01*
X134317995Y-126699847D01*
X134307833Y-126699838D01*
X133964057Y-126841883D01*
X133700808Y-127104673D01*
X133558162Y-127448201D01*
X133557838Y-127820167D01*
X133699883Y-128163943D01*
X133962673Y-128427192D01*
X134306201Y-128569838D01*
X134678167Y-128570162D01*
X135021943Y-128428117D01*
X135183124Y-128267217D01*
X136287405Y-128267217D01*
X136303633Y-129116366D01*
X136597368Y-129825505D01*
X136916123Y-129985272D01*
X138250395Y-128651000D01*
X138609605Y-128651000D01*
X139943877Y-129985272D01*
X140262632Y-129825505D01*
X140572595Y-129034783D01*
X140556367Y-128185634D01*
X140262632Y-127476495D01*
X139943877Y-127316728D01*
X138609605Y-128651000D01*
X138250395Y-128651000D01*
X136916123Y-127316728D01*
X136597368Y-127476495D01*
X136287405Y-128267217D01*
X135183124Y-128267217D01*
X135285192Y-128165327D01*
X135427838Y-127821799D01*
X135427848Y-127810310D01*
X136101035Y-127137123D01*
X137095728Y-127137123D01*
X138430000Y-128471395D01*
X139764272Y-127137123D01*
X139673455Y-126955930D01*
X140685675Y-126955930D01*
X140753735Y-127196931D01*
X141273034Y-127381767D01*
X141823538Y-127353805D01*
X142202265Y-127196931D01*
X142270325Y-126955930D01*
X141478000Y-126163605D01*
X140685675Y-126955930D01*
X139673455Y-126955930D01*
X139604505Y-126818368D01*
X138813783Y-126508405D01*
X137964634Y-126524633D01*
X137255495Y-126818368D01*
X137095728Y-127137123D01*
X136101035Y-127137123D01*
X136805446Y-126432712D01*
X136917317Y-126411662D01*
X137133441Y-126272590D01*
X137278431Y-126060390D01*
X137319178Y-125859175D01*
X137439118Y-125779034D01*
X140080233Y-125779034D01*
X140108195Y-126329538D01*
X140265069Y-126708265D01*
X140506070Y-126776325D01*
X141298395Y-125984000D01*
X140506070Y-125191675D01*
X140265069Y-125259735D01*
X140080233Y-125779034D01*
X137439118Y-125779034D01*
X137537079Y-125713579D01*
X138238588Y-125012070D01*
X140685675Y-125012070D01*
X141478000Y-125804395D01*
X142270325Y-125012070D01*
X142202265Y-124771069D01*
X141682966Y-124586233D01*
X141132462Y-124614195D01*
X140753735Y-124771069D01*
X140685675Y-125012070D01*
X138238588Y-125012070D01*
X140001079Y-123249579D01*
X140171245Y-122994907D01*
X140231000Y-122694500D01*
X140231000Y-120183211D01*
X145213598Y-115200613D01*
X145373520Y-114961272D01*
X145373520Y-118131060D01*
X145273000Y-118131060D01*
X145037683Y-118175338D01*
X144821559Y-118314410D01*
X144716615Y-118468000D01*
X144365006Y-118468000D01*
X144357827Y-118460808D01*
X144014299Y-118318162D01*
X143642333Y-118317838D01*
X143298557Y-118459883D01*
X143035308Y-118722673D01*
X142892662Y-119066201D01*
X142892338Y-119438167D01*
X143034383Y-119781943D01*
X143297173Y-120045192D01*
X143640701Y-120187838D01*
X144012667Y-120188162D01*
X144183951Y-120117389D01*
X143462921Y-120838419D01*
X143292755Y-121093091D01*
X143268466Y-121215199D01*
X143233000Y-121393498D01*
X143233000Y-124809847D01*
X142844056Y-125198113D01*
X142754621Y-125413496D01*
X142690931Y-125259735D01*
X142449930Y-125191675D01*
X141657605Y-125984000D01*
X142449930Y-126776325D01*
X142690931Y-126708265D01*
X142749769Y-126542960D01*
X142842686Y-126767837D01*
X143232113Y-127157944D01*
X143233000Y-127158312D01*
X143233000Y-127993342D01*
X142808282Y-128418060D01*
X141971000Y-128418060D01*
X141735683Y-128462338D01*
X141519559Y-128601410D01*
X141374569Y-128813610D01*
X141323560Y-129065500D01*
X141323560Y-129765500D01*
X141367838Y-130000817D01*
X141506910Y-130216941D01*
X141719110Y-130361931D01*
X141752490Y-130368691D01*
X141611301Y-130427173D01*
X141432673Y-130605802D01*
X141336000Y-130839191D01*
X141336000Y-131029750D01*
X141494750Y-131188500D01*
X142494000Y-131188500D01*
X142494000Y-131168500D01*
X142748000Y-131168500D01*
X142748000Y-131188500D01*
X143747250Y-131188500D01*
X143906000Y-131029750D01*
X143906000Y-130839191D01*
X143809327Y-130605802D01*
X143630699Y-130427173D01*
X143494713Y-130370846D01*
X143506317Y-130368662D01*
X143722441Y-130229590D01*
X143867431Y-130017390D01*
X143918440Y-129765500D01*
X143918440Y-129528218D01*
X144573079Y-128873579D01*
X144743245Y-128618907D01*
X144803000Y-128318500D01*
X144803000Y-127158153D01*
X145034063Y-126927493D01*
X145264113Y-127157944D01*
X145265000Y-127158312D01*
X145265000Y-128763000D01*
X145324755Y-129063407D01*
X145494921Y-129318079D01*
X145832060Y-129655218D01*
X145832060Y-129892500D01*
X145876338Y-130127817D01*
X146015410Y-130343941D01*
X146227610Y-130488931D01*
X146260990Y-130495691D01*
X146119801Y-130554173D01*
X145941173Y-130732802D01*
X145844500Y-130966191D01*
X145844500Y-131156750D01*
X146003250Y-131315500D01*
X147002500Y-131315500D01*
X147002500Y-131295500D01*
X147256500Y-131295500D01*
X147256500Y-131315500D01*
X148255750Y-131315500D01*
X148414500Y-131156750D01*
X148414500Y-130966191D01*
X148317827Y-130732802D01*
X148139199Y-130554173D01*
X148003213Y-130497846D01*
X148014817Y-130495662D01*
X148230941Y-130356590D01*
X148361932Y-130164877D01*
X150811728Y-130164877D01*
X150971495Y-130483632D01*
X151762217Y-130793595D01*
X152611366Y-130777367D01*
X153320505Y-130483632D01*
X153416616Y-130291877D01*
X157415728Y-130291877D01*
X157575495Y-130610632D01*
X158366217Y-130920595D01*
X159215366Y-130904367D01*
X159924505Y-130610632D01*
X160084272Y-130291877D01*
X158750000Y-128957605D01*
X157415728Y-130291877D01*
X153416616Y-130291877D01*
X153480272Y-130164877D01*
X152146000Y-128830605D01*
X150811728Y-130164877D01*
X148361932Y-130164877D01*
X148375931Y-130144390D01*
X148426940Y-129892500D01*
X148426940Y-129192500D01*
X148382662Y-128957183D01*
X148243590Y-128741059D01*
X148031390Y-128596069D01*
X147779500Y-128545060D01*
X146942218Y-128545060D01*
X146835000Y-128437842D01*
X146835000Y-128267217D01*
X150003405Y-128267217D01*
X150019633Y-129116366D01*
X150313368Y-129825505D01*
X150632123Y-129985272D01*
X151966395Y-128651000D01*
X152325605Y-128651000D01*
X153659877Y-129985272D01*
X153978632Y-129825505D01*
X154288595Y-129034783D01*
X154276354Y-128394217D01*
X156607405Y-128394217D01*
X156623633Y-129243366D01*
X156917368Y-129952505D01*
X157236123Y-130112272D01*
X158570395Y-128778000D01*
X158929605Y-128778000D01*
X160263877Y-130112272D01*
X160582632Y-129952505D01*
X160892595Y-129161783D01*
X160876367Y-128312634D01*
X160582632Y-127603495D01*
X160263877Y-127443728D01*
X158929605Y-128778000D01*
X158570395Y-128778000D01*
X157236123Y-127443728D01*
X156917368Y-127603495D01*
X156607405Y-128394217D01*
X154276354Y-128394217D01*
X154272367Y-128185634D01*
X153978632Y-127476495D01*
X153659877Y-127316728D01*
X152325605Y-128651000D01*
X151966395Y-128651000D01*
X150632123Y-127316728D01*
X150313368Y-127476495D01*
X150003405Y-128267217D01*
X146835000Y-128267217D01*
X146835000Y-127158153D01*
X147223944Y-126769887D01*
X147319975Y-126538619D01*
X147414686Y-126767837D01*
X147804113Y-127157944D01*
X148313184Y-127369329D01*
X148864398Y-127369810D01*
X149373837Y-127159314D01*
X149396066Y-127137123D01*
X150811728Y-127137123D01*
X152146000Y-128471395D01*
X153353272Y-127264123D01*
X157415728Y-127264123D01*
X158750000Y-128598395D01*
X160084272Y-127264123D01*
X159993455Y-127082930D01*
X161005675Y-127082930D01*
X161073735Y-127323931D01*
X161593034Y-127508767D01*
X162143538Y-127480805D01*
X162522265Y-127323931D01*
X162590325Y-127082930D01*
X161798000Y-126290605D01*
X161005675Y-127082930D01*
X159993455Y-127082930D01*
X159924505Y-126945368D01*
X159133783Y-126635405D01*
X158284634Y-126651633D01*
X157575495Y-126945368D01*
X157415728Y-127264123D01*
X153353272Y-127264123D01*
X153480272Y-127137123D01*
X153320505Y-126818368D01*
X152529783Y-126508405D01*
X151680634Y-126524633D01*
X150971495Y-126818368D01*
X150811728Y-127137123D01*
X149396066Y-127137123D01*
X149763944Y-126769887D01*
X149975329Y-126260816D01*
X149975638Y-125906034D01*
X160400233Y-125906034D01*
X160428195Y-126456538D01*
X160585069Y-126835265D01*
X160826070Y-126903325D01*
X161618395Y-126111000D01*
X160826070Y-125318675D01*
X160585069Y-125386735D01*
X160400233Y-125906034D01*
X149975638Y-125906034D01*
X149975810Y-125709602D01*
X149765314Y-125200163D01*
X149704328Y-125139070D01*
X161005675Y-125139070D01*
X161798000Y-125931395D01*
X162590325Y-125139070D01*
X162522265Y-124898069D01*
X162002966Y-124713233D01*
X161452462Y-124741195D01*
X161073735Y-124898069D01*
X161005675Y-125139070D01*
X149704328Y-125139070D01*
X149375887Y-124810056D01*
X148866816Y-124598671D01*
X148315602Y-124598190D01*
X147806163Y-124808686D01*
X147416056Y-125198113D01*
X147320025Y-125429381D01*
X147225314Y-125200163D01*
X146835887Y-124810056D01*
X146835000Y-124809688D01*
X146835000Y-121964492D01*
X147024441Y-121842590D01*
X147169431Y-121630390D01*
X147220440Y-121378500D01*
X147220440Y-120678500D01*
X147198502Y-120561909D01*
X147490906Y-120503746D01*
X147745578Y-120333580D01*
X148954579Y-119124579D01*
X149099619Y-118907509D01*
X149284817Y-118872662D01*
X149500941Y-118733590D01*
X149645931Y-118521390D01*
X149696940Y-118269500D01*
X149696940Y-117569500D01*
X149652662Y-117334183D01*
X149513590Y-117118059D01*
X149301390Y-116973069D01*
X149288303Y-116970419D01*
X149500941Y-116833590D01*
X149520817Y-116804500D01*
X149730342Y-116804500D01*
X149813847Y-116888005D01*
X149813838Y-116898167D01*
X149955883Y-117241943D01*
X150218673Y-117505192D01*
X150562201Y-117647838D01*
X150934167Y-117648162D01*
X151277943Y-117506117D01*
X151541192Y-117243327D01*
X151683838Y-116899799D01*
X151684162Y-116527833D01*
X151542117Y-116184057D01*
X151279327Y-115920808D01*
X150935799Y-115778162D01*
X150924310Y-115778152D01*
X150610579Y-115464421D01*
X150355907Y-115294255D01*
X150055500Y-115234500D01*
X149524169Y-115234500D01*
X149513590Y-115218059D01*
X149301390Y-115073069D01*
X149049500Y-115022060D01*
X148212217Y-115022060D01*
X147443520Y-114253362D01*
X147443520Y-113009356D01*
X147450701Y-113012338D01*
X147822667Y-113012662D01*
X148166443Y-112870617D01*
X148429692Y-112607827D01*
X148572338Y-112264299D01*
X148572662Y-111892333D01*
X148430617Y-111548557D01*
X148167827Y-111285308D01*
X148122501Y-111266487D01*
X148122501Y-110851211D01*
X150153869Y-112882579D01*
X150408542Y-113052745D01*
X150708948Y-113112500D01*
X164707342Y-113112500D01*
X165394500Y-113799658D01*
X165394500Y-118727962D01*
X165294183Y-118746838D01*
X165078059Y-118885910D01*
X165016503Y-118976000D01*
X164812006Y-118976000D01*
X164804827Y-118968808D01*
X164461299Y-118826162D01*
X164089333Y-118825838D01*
X163745557Y-118967883D01*
X163482308Y-119230673D01*
X163339662Y-119574201D01*
X163339338Y-119946167D01*
X163481383Y-120289943D01*
X163744173Y-120553192D01*
X164087701Y-120695838D01*
X164459667Y-120696162D01*
X164533654Y-120665591D01*
X164504254Y-120709592D01*
X164477154Y-120845833D01*
X164444499Y-121009999D01*
X164444499Y-124725522D01*
X164063602Y-124725190D01*
X163554163Y-124935686D01*
X163164056Y-125325113D01*
X163074621Y-125540496D01*
X163010931Y-125386735D01*
X162769930Y-125318675D01*
X161977605Y-126111000D01*
X162769930Y-126903325D01*
X163010931Y-126835265D01*
X163069769Y-126669960D01*
X163162686Y-126894837D01*
X163552113Y-127284944D01*
X163553000Y-127285312D01*
X163553000Y-128735560D01*
X163053000Y-128735560D01*
X162817683Y-128779838D01*
X162601559Y-128918910D01*
X162456569Y-129131110D01*
X162405560Y-129383000D01*
X162405560Y-130083000D01*
X162449838Y-130318317D01*
X162588910Y-130534441D01*
X162801110Y-130679431D01*
X162834490Y-130686191D01*
X162693301Y-130744673D01*
X162514673Y-130923302D01*
X162418000Y-131156691D01*
X162418000Y-131347250D01*
X162576750Y-131506000D01*
X163576000Y-131506000D01*
X163576000Y-131486000D01*
X163830000Y-131486000D01*
X163830000Y-131506000D01*
X164829250Y-131506000D01*
X164988000Y-131347250D01*
X164988000Y-131156691D01*
X164891327Y-130923302D01*
X164712699Y-130744673D01*
X164576713Y-130688346D01*
X164588317Y-130686162D01*
X164804441Y-130547090D01*
X164949431Y-130334890D01*
X165000440Y-130083000D01*
X165000440Y-129492401D01*
X165063245Y-129398406D01*
X165123001Y-129098000D01*
X165123000Y-129097995D01*
X165123000Y-127285153D01*
X165354063Y-127054493D01*
X165584113Y-127284944D01*
X166093184Y-127496329D01*
X166644398Y-127496810D01*
X166645286Y-127496443D01*
X166664500Y-127515657D01*
X166664500Y-128887962D01*
X166564183Y-128906838D01*
X166348059Y-129045910D01*
X166203069Y-129258110D01*
X166152060Y-129510000D01*
X166152060Y-130210000D01*
X166196338Y-130445317D01*
X166335410Y-130661441D01*
X166547610Y-130806431D01*
X166580990Y-130813191D01*
X166439801Y-130871673D01*
X166261173Y-131050302D01*
X166164500Y-131283691D01*
X166164500Y-131474250D01*
X166323250Y-131633000D01*
X167322500Y-131633000D01*
X167322500Y-131613000D01*
X167576500Y-131613000D01*
X167576500Y-131633000D01*
X168575750Y-131633000D01*
X168734500Y-131474250D01*
X168734500Y-131283691D01*
X168637827Y-131050302D01*
X168459199Y-130871673D01*
X168323213Y-130815346D01*
X168334817Y-130813162D01*
X168550941Y-130674090D01*
X168695931Y-130461890D01*
X168730359Y-130291877D01*
X171131728Y-130291877D01*
X171291495Y-130610632D01*
X172082217Y-130920595D01*
X172931366Y-130904367D01*
X173640505Y-130610632D01*
X173800272Y-130291877D01*
X172466000Y-128957605D01*
X171131728Y-130291877D01*
X168730359Y-130291877D01*
X168746940Y-130210000D01*
X168746940Y-129510000D01*
X168702662Y-129274683D01*
X168563590Y-129058559D01*
X168351390Y-128913569D01*
X168234500Y-128889898D01*
X168234500Y-128394217D01*
X170323405Y-128394217D01*
X170339633Y-129243366D01*
X170633368Y-129952505D01*
X170952123Y-130112272D01*
X172286395Y-128778000D01*
X172645605Y-128778000D01*
X173979877Y-130112272D01*
X174298632Y-129952505D01*
X174608595Y-129161783D01*
X174592367Y-128312634D01*
X174298632Y-127603495D01*
X173979877Y-127443728D01*
X172645605Y-128778000D01*
X172286395Y-128778000D01*
X170952123Y-127443728D01*
X170633368Y-127603495D01*
X170323405Y-128394217D01*
X168234500Y-128394217D01*
X168234500Y-127330781D01*
X168633184Y-127496329D01*
X169184398Y-127496810D01*
X169693837Y-127286314D01*
X169716066Y-127264123D01*
X171131728Y-127264123D01*
X172466000Y-128598395D01*
X173693518Y-127370877D01*
X190054728Y-127370877D01*
X190214495Y-127689632D01*
X191005217Y-127999595D01*
X191854366Y-127983367D01*
X192563505Y-127689632D01*
X192723272Y-127370877D01*
X191389000Y-126036605D01*
X190054728Y-127370877D01*
X173693518Y-127370877D01*
X173800272Y-127264123D01*
X173640505Y-126945368D01*
X172849783Y-126635405D01*
X172000634Y-126651633D01*
X171291495Y-126945368D01*
X171131728Y-127264123D01*
X169716066Y-127264123D01*
X170083944Y-126896887D01*
X170295329Y-126387816D01*
X170295810Y-125836602D01*
X170145663Y-125473217D01*
X189246405Y-125473217D01*
X189262633Y-126322366D01*
X189556368Y-127031505D01*
X189875123Y-127191272D01*
X191209395Y-125857000D01*
X191568605Y-125857000D01*
X192902877Y-127191272D01*
X193221632Y-127031505D01*
X193531595Y-126240783D01*
X193515367Y-125391634D01*
X193221632Y-124682495D01*
X192902877Y-124522728D01*
X191568605Y-125857000D01*
X191209395Y-125857000D01*
X189875123Y-124522728D01*
X189556368Y-124682495D01*
X189246405Y-125473217D01*
X170145663Y-125473217D01*
X170085314Y-125327163D01*
X169695887Y-124937056D01*
X169186816Y-124725671D01*
X168635602Y-124725190D01*
X168126163Y-124935686D01*
X167736056Y-125325113D01*
X167640025Y-125556381D01*
X167545314Y-125327163D01*
X167155887Y-124937056D01*
X167155000Y-124936688D01*
X167155000Y-124343123D01*
X190054728Y-124343123D01*
X191389000Y-125677395D01*
X192723272Y-124343123D01*
X192563505Y-124024368D01*
X191772783Y-123714405D01*
X190923634Y-123730633D01*
X190214495Y-124024368D01*
X190054728Y-124343123D01*
X167155000Y-124343123D01*
X167155000Y-123780930D01*
X187929675Y-123780930D01*
X187997735Y-124021931D01*
X188517034Y-124206767D01*
X189067538Y-124178805D01*
X189446265Y-124021931D01*
X189514325Y-123780930D01*
X188722000Y-122988605D01*
X187929675Y-123780930D01*
X167155000Y-123780930D01*
X167155000Y-122604034D01*
X187324233Y-122604034D01*
X187352195Y-123154538D01*
X187509069Y-123533265D01*
X187750070Y-123601325D01*
X188542395Y-122809000D01*
X187750070Y-122016675D01*
X187509069Y-122084735D01*
X187324233Y-122604034D01*
X167155000Y-122604034D01*
X167155000Y-122495131D01*
X167280941Y-122414090D01*
X167425931Y-122201890D01*
X167476940Y-121950000D01*
X167476940Y-121250000D01*
X167455301Y-121135001D01*
X167507999Y-121135001D01*
X167808406Y-121075246D01*
X168063078Y-120905080D01*
X169782579Y-119185579D01*
X169927619Y-118968509D01*
X170112817Y-118933662D01*
X170328941Y-118794590D01*
X170473931Y-118582390D01*
X170524940Y-118330500D01*
X170524940Y-118245980D01*
X170529883Y-118257943D01*
X170792673Y-118521192D01*
X171136201Y-118663838D01*
X171508167Y-118664162D01*
X171851943Y-118522117D01*
X172115192Y-118259327D01*
X172257838Y-117915799D01*
X172258162Y-117543833D01*
X172116117Y-117200057D01*
X171853327Y-116936808D01*
X171509799Y-116794162D01*
X171498310Y-116794152D01*
X170524940Y-115820782D01*
X170524940Y-115730500D01*
X170480662Y-115495183D01*
X170341590Y-115279059D01*
X170129390Y-115134069D01*
X169928175Y-115093322D01*
X169782579Y-114875421D01*
X166229573Y-111322415D01*
X166060565Y-111209488D01*
X165974905Y-111152251D01*
X165974904Y-111152251D01*
X165974901Y-111152249D01*
X165810372Y-111119522D01*
X165674499Y-111092494D01*
X165327875Y-111092492D01*
X165076552Y-111042500D01*
X151241210Y-111042500D01*
X149443519Y-109244809D01*
X149443519Y-108839111D01*
X149457582Y-108825048D01*
X149518837Y-108813522D01*
X149721020Y-108683421D01*
X149721020Y-108686610D01*
X149879770Y-108845360D01*
X149909830Y-108845360D01*
X150143219Y-108748687D01*
X150321847Y-108570058D01*
X150418520Y-108336669D01*
X150418520Y-107846110D01*
X150259770Y-107687360D01*
X149930960Y-107687360D01*
X149930960Y-107433360D01*
X150259770Y-107433360D01*
X150418520Y-107274610D01*
X150418520Y-106784051D01*
X150384948Y-106703000D01*
X150461363Y-106703000D01*
X150608520Y-106732800D01*
X151195377Y-106732800D01*
X151258520Y-106745360D01*
X151321663Y-106732800D01*
X151908520Y-106732800D01*
X152143837Y-106688522D01*
X152359961Y-106549450D01*
X152504951Y-106337250D01*
X152523559Y-106245359D01*
X162820649Y-106245359D01*
X173140867Y-116565576D01*
X173140869Y-116565579D01*
X173395542Y-116735745D01*
X173695948Y-116795500D01*
X177091840Y-116795500D01*
X180040919Y-119744579D01*
X180295592Y-119914745D01*
X180595998Y-119974500D01*
X181529462Y-119974500D01*
X181548338Y-120074817D01*
X181687410Y-120290941D01*
X181777500Y-120352497D01*
X181777500Y-120493494D01*
X181770308Y-120500673D01*
X181627662Y-120844201D01*
X181627338Y-121216167D01*
X181769383Y-121559943D01*
X182032173Y-121823192D01*
X182375701Y-121965838D01*
X182747667Y-121966162D01*
X183091443Y-121824117D01*
X183354692Y-121561327D01*
X183497338Y-121217799D01*
X183497616Y-120898712D01*
X183640591Y-120994245D01*
X183940998Y-121054000D01*
X187547847Y-121054000D01*
X187936113Y-121442944D01*
X188151496Y-121532379D01*
X187997735Y-121596069D01*
X187929675Y-121837070D01*
X188722000Y-122629395D01*
X188736143Y-122615253D01*
X188915748Y-122794858D01*
X188901605Y-122809000D01*
X189693930Y-123601325D01*
X189934931Y-123533265D01*
X190119767Y-123013966D01*
X190091805Y-122463462D01*
X189934931Y-122084735D01*
X189693932Y-122016676D01*
X189808985Y-121901623D01*
X189723362Y-121816000D01*
X191752962Y-121816000D01*
X191771838Y-121916317D01*
X191910910Y-122132441D01*
X192123110Y-122277431D01*
X192375000Y-122328440D01*
X193075000Y-122328440D01*
X193310317Y-122284162D01*
X193526441Y-122145090D01*
X193671431Y-121932890D01*
X193678191Y-121899510D01*
X193736673Y-122040699D01*
X193915302Y-122219327D01*
X194148691Y-122316000D01*
X194339250Y-122316000D01*
X194498000Y-122157250D01*
X194498000Y-121158000D01*
X194752000Y-121158000D01*
X194752000Y-122157250D01*
X194910750Y-122316000D01*
X195101309Y-122316000D01*
X195334698Y-122219327D01*
X195513327Y-122040699D01*
X195610000Y-121807310D01*
X195610000Y-121316750D01*
X195451250Y-121158000D01*
X194752000Y-121158000D01*
X194498000Y-121158000D01*
X194478000Y-121158000D01*
X194478000Y-120904000D01*
X194498000Y-120904000D01*
X194498000Y-119904750D01*
X194752000Y-119904750D01*
X194752000Y-120904000D01*
X195451250Y-120904000D01*
X195610000Y-120745250D01*
X195610000Y-120254690D01*
X195513327Y-120021301D01*
X195334698Y-119842673D01*
X195101309Y-119746000D01*
X194910750Y-119746000D01*
X194752000Y-119904750D01*
X194498000Y-119904750D01*
X194339250Y-119746000D01*
X194148691Y-119746000D01*
X193915302Y-119842673D01*
X193736673Y-120021301D01*
X193680346Y-120157287D01*
X193678162Y-120145683D01*
X193539090Y-119929559D01*
X193326890Y-119784569D01*
X193075000Y-119733560D01*
X192375000Y-119733560D01*
X192139683Y-119777838D01*
X191923559Y-119916910D01*
X191778569Y-120129110D01*
X191754898Y-120246000D01*
X190107591Y-120246000D01*
X190107810Y-119994602D01*
X189897314Y-119485163D01*
X189665493Y-119252937D01*
X189895944Y-119022887D01*
X189896312Y-119022000D01*
X191374000Y-119022000D01*
X191674407Y-118962245D01*
X191929079Y-118792079D01*
X192837717Y-117883440D01*
X193075000Y-117883440D01*
X193310317Y-117839162D01*
X193526441Y-117700090D01*
X193671431Y-117487890D01*
X193678191Y-117454510D01*
X193736673Y-117595699D01*
X193915302Y-117774327D01*
X194148691Y-117871000D01*
X194339250Y-117871000D01*
X194498000Y-117712250D01*
X194498000Y-116713000D01*
X194752000Y-116713000D01*
X194752000Y-117712250D01*
X194910750Y-117871000D01*
X195101309Y-117871000D01*
X195334698Y-117774327D01*
X195513327Y-117595699D01*
X195610000Y-117362310D01*
X195610000Y-116871750D01*
X195451250Y-116713000D01*
X194752000Y-116713000D01*
X194498000Y-116713000D01*
X194478000Y-116713000D01*
X194478000Y-116459000D01*
X194498000Y-116459000D01*
X194498000Y-115459750D01*
X194752000Y-115459750D01*
X194752000Y-116459000D01*
X195451250Y-116459000D01*
X195610000Y-116300250D01*
X195610000Y-115809690D01*
X195513327Y-115576301D01*
X195334698Y-115397673D01*
X195101309Y-115301000D01*
X194910750Y-115301000D01*
X194752000Y-115459750D01*
X194498000Y-115459750D01*
X194339250Y-115301000D01*
X194148691Y-115301000D01*
X193915302Y-115397673D01*
X193736673Y-115576301D01*
X193680346Y-115712287D01*
X193678162Y-115700683D01*
X193539090Y-115484559D01*
X193326890Y-115339569D01*
X193075000Y-115288560D01*
X192375000Y-115288560D01*
X192139683Y-115332838D01*
X191923559Y-115471910D01*
X191778569Y-115684110D01*
X191727560Y-115936000D01*
X191727560Y-116773283D01*
X191048842Y-117452000D01*
X189896153Y-117452000D01*
X189507887Y-117063056D01*
X189276619Y-116967025D01*
X189505837Y-116872314D01*
X189895944Y-116482887D01*
X190107329Y-115973816D01*
X190107810Y-115422602D01*
X189897314Y-114913163D01*
X189507887Y-114523056D01*
X188998816Y-114311671D01*
X188447602Y-114311190D01*
X187938163Y-114521686D01*
X187548056Y-114911113D01*
X187336671Y-115420184D01*
X187336190Y-115971398D01*
X187546686Y-116480837D01*
X187936113Y-116870944D01*
X188167381Y-116966975D01*
X187938163Y-117061686D01*
X187548056Y-117451113D01*
X187547688Y-117452000D01*
X185054000Y-117452000D01*
X184753593Y-117511755D01*
X184498921Y-117681921D01*
X184288782Y-117892060D01*
X184051500Y-117892060D01*
X183880648Y-117924208D01*
X183876746Y-117904594D01*
X183706580Y-117649922D01*
X181915940Y-115859282D01*
X181915940Y-115072000D01*
X181871662Y-114836683D01*
X181732590Y-114620559D01*
X181520390Y-114475569D01*
X181268500Y-114424560D01*
X180268500Y-114424560D01*
X180033183Y-114468838D01*
X179817059Y-114607910D01*
X179769366Y-114677711D01*
X179732590Y-114620559D01*
X179553500Y-114498192D01*
X179553500Y-114418658D01*
X179626005Y-114346153D01*
X179636167Y-114346162D01*
X179979943Y-114204117D01*
X180243192Y-113941327D01*
X180362137Y-113654877D01*
X190054728Y-113654877D01*
X190214495Y-113973632D01*
X191005217Y-114283595D01*
X191854366Y-114267367D01*
X192563505Y-113973632D01*
X192723272Y-113654877D01*
X191389000Y-112320605D01*
X190054728Y-113654877D01*
X180362137Y-113654877D01*
X180385838Y-113597799D01*
X180386162Y-113225833D01*
X180244117Y-112882057D01*
X179981327Y-112618808D01*
X179637799Y-112476162D01*
X179265833Y-112475838D01*
X178922057Y-112617883D01*
X178658808Y-112880673D01*
X178516162Y-113224201D01*
X178516152Y-113235690D01*
X178213421Y-113538421D01*
X178043255Y-113793093D01*
X178031284Y-113853275D01*
X177983500Y-114093500D01*
X177983500Y-114500808D01*
X177817059Y-114607910D01*
X177736713Y-114725500D01*
X174228210Y-114725500D01*
X171259927Y-111757217D01*
X189246405Y-111757217D01*
X189262633Y-112606366D01*
X189556368Y-113315505D01*
X189875123Y-113475272D01*
X191209395Y-112141000D01*
X191568605Y-112141000D01*
X192902877Y-113475272D01*
X193221632Y-113315505D01*
X193531595Y-112524783D01*
X193515367Y-111675634D01*
X193221632Y-110966495D01*
X192902877Y-110806728D01*
X191568605Y-112141000D01*
X191209395Y-112141000D01*
X189875123Y-110806728D01*
X189556368Y-110966495D01*
X189246405Y-111757217D01*
X171259927Y-111757217D01*
X170129833Y-110627123D01*
X190054728Y-110627123D01*
X191389000Y-111961395D01*
X192723272Y-110627123D01*
X192563505Y-110308368D01*
X191772783Y-109998405D01*
X190923634Y-110014633D01*
X190214495Y-110308368D01*
X190054728Y-110627123D01*
X170129833Y-110627123D01*
X166172587Y-106669877D01*
X190054728Y-106669877D01*
X190214495Y-106988632D01*
X191005217Y-107298595D01*
X191854366Y-107282367D01*
X192563505Y-106988632D01*
X192723272Y-106669877D01*
X191389000Y-105335605D01*
X190054728Y-106669877D01*
X166172587Y-106669877D01*
X164274927Y-104772217D01*
X189246405Y-104772217D01*
X189262633Y-105621366D01*
X189556368Y-106330505D01*
X189875123Y-106490272D01*
X191209395Y-105156000D01*
X191568605Y-105156000D01*
X192902877Y-106490272D01*
X193221632Y-106330505D01*
X193531595Y-105539783D01*
X193515367Y-104690634D01*
X193221632Y-103981495D01*
X192902877Y-103821728D01*
X191568605Y-105156000D01*
X191209395Y-105156000D01*
X189875123Y-103821728D01*
X189556368Y-103981495D01*
X189246405Y-104772217D01*
X164274927Y-104772217D01*
X163907992Y-104405282D01*
X163668650Y-104245359D01*
X167720693Y-104245359D01*
X168021100Y-104185604D01*
X168275772Y-104015438D01*
X168649087Y-103642123D01*
X190054728Y-103642123D01*
X191389000Y-104976395D01*
X192723272Y-103642123D01*
X192563505Y-103323368D01*
X191772783Y-103013405D01*
X190923634Y-103029633D01*
X190214495Y-103323368D01*
X190054728Y-103642123D01*
X168649087Y-103642123D01*
X169211280Y-103079930D01*
X187929675Y-103079930D01*
X187997735Y-103320931D01*
X188517034Y-103505767D01*
X189067538Y-103477805D01*
X189446265Y-103320931D01*
X189514325Y-103079930D01*
X188722000Y-102287605D01*
X187929675Y-103079930D01*
X169211280Y-103079930D01*
X170388176Y-101903034D01*
X187324233Y-101903034D01*
X187352195Y-102453538D01*
X187509069Y-102832265D01*
X187750070Y-102900325D01*
X188542395Y-102108000D01*
X188901605Y-102108000D01*
X189693930Y-102900325D01*
X189934931Y-102832265D01*
X190119767Y-102312966D01*
X190091805Y-101762462D01*
X189934931Y-101383735D01*
X189693930Y-101315675D01*
X188901605Y-102108000D01*
X188542395Y-102108000D01*
X187750070Y-101315675D01*
X187509069Y-101383735D01*
X187324233Y-101903034D01*
X170388176Y-101903034D01*
X173335210Y-98956000D01*
X181907962Y-98956000D01*
X181926838Y-99056317D01*
X182065910Y-99272441D01*
X182095000Y-99292317D01*
X182095000Y-99792494D01*
X182087808Y-99799673D01*
X181945162Y-100143201D01*
X181944838Y-100515167D01*
X182086883Y-100858943D01*
X182349673Y-101122192D01*
X182693201Y-101264838D01*
X183065167Y-101265162D01*
X183408943Y-101123117D01*
X183672192Y-100860327D01*
X183814838Y-100516799D01*
X183815162Y-100144833D01*
X183673117Y-99801057D01*
X183665000Y-99792926D01*
X183665000Y-99706160D01*
X184081919Y-100123079D01*
X184336592Y-100293245D01*
X184636998Y-100353001D01*
X184637003Y-100353000D01*
X187547847Y-100353000D01*
X187936113Y-100741944D01*
X188151496Y-100831379D01*
X187997735Y-100895069D01*
X187929675Y-101136070D01*
X188722000Y-101928395D01*
X189514325Y-101136070D01*
X189446265Y-100895069D01*
X189280960Y-100836231D01*
X189505837Y-100743314D01*
X189895944Y-100353887D01*
X189896312Y-100353000D01*
X191473560Y-100353000D01*
X191473560Y-101170500D01*
X191517838Y-101405817D01*
X191656910Y-101621941D01*
X191869110Y-101766931D01*
X192121000Y-101817940D01*
X192821000Y-101817940D01*
X193056317Y-101773662D01*
X193272441Y-101634590D01*
X193417431Y-101422390D01*
X193424191Y-101389010D01*
X193482673Y-101530199D01*
X193661302Y-101708827D01*
X193894691Y-101805500D01*
X194085250Y-101805500D01*
X194244000Y-101646750D01*
X194244000Y-100647500D01*
X194498000Y-100647500D01*
X194498000Y-101646750D01*
X194656750Y-101805500D01*
X194847309Y-101805500D01*
X195080698Y-101708827D01*
X195259327Y-101530199D01*
X195356000Y-101296810D01*
X195356000Y-100806250D01*
X195197250Y-100647500D01*
X194498000Y-100647500D01*
X194244000Y-100647500D01*
X194224000Y-100647500D01*
X194224000Y-100393500D01*
X194244000Y-100393500D01*
X194244000Y-99394250D01*
X194498000Y-99394250D01*
X194498000Y-100393500D01*
X195197250Y-100393500D01*
X195356000Y-100234750D01*
X195356000Y-99744190D01*
X195259327Y-99510801D01*
X195080698Y-99332173D01*
X194847309Y-99235500D01*
X194656750Y-99235500D01*
X194498000Y-99394250D01*
X194244000Y-99394250D01*
X194085250Y-99235500D01*
X193894691Y-99235500D01*
X193661302Y-99332173D01*
X193482673Y-99510801D01*
X193426346Y-99646787D01*
X193424162Y-99635183D01*
X193285090Y-99419059D01*
X193072890Y-99274069D01*
X192821000Y-99223060D01*
X192583718Y-99223060D01*
X192373579Y-99012921D01*
X192118907Y-98842755D01*
X191818500Y-98783000D01*
X189896153Y-98783000D01*
X189665493Y-98551937D01*
X189895944Y-98321887D01*
X189896312Y-98321000D01*
X191310500Y-98321000D01*
X191610907Y-98261245D01*
X191865579Y-98091079D01*
X192393218Y-97563440D01*
X192630500Y-97563440D01*
X192865817Y-97519162D01*
X193081941Y-97380090D01*
X193226931Y-97167890D01*
X193233691Y-97134510D01*
X193292173Y-97275699D01*
X193470802Y-97454327D01*
X193704191Y-97551000D01*
X193894750Y-97551000D01*
X194053500Y-97392250D01*
X194053500Y-96393000D01*
X194307500Y-96393000D01*
X194307500Y-97392250D01*
X194466250Y-97551000D01*
X194656809Y-97551000D01*
X194890198Y-97454327D01*
X195068827Y-97275699D01*
X195165500Y-97042310D01*
X195165500Y-96551750D01*
X195006750Y-96393000D01*
X194307500Y-96393000D01*
X194053500Y-96393000D01*
X194033500Y-96393000D01*
X194033500Y-96139000D01*
X194053500Y-96139000D01*
X194053500Y-95139750D01*
X194307500Y-95139750D01*
X194307500Y-96139000D01*
X195006750Y-96139000D01*
X195165500Y-95980250D01*
X195165500Y-95489690D01*
X195068827Y-95256301D01*
X194890198Y-95077673D01*
X194656809Y-94981000D01*
X194466250Y-94981000D01*
X194307500Y-95139750D01*
X194053500Y-95139750D01*
X193894750Y-94981000D01*
X193704191Y-94981000D01*
X193470802Y-95077673D01*
X193292173Y-95256301D01*
X193235846Y-95392287D01*
X193233662Y-95380683D01*
X193094590Y-95164559D01*
X192882390Y-95019569D01*
X192630500Y-94968560D01*
X191930500Y-94968560D01*
X191695183Y-95012838D01*
X191479059Y-95151910D01*
X191334069Y-95364110D01*
X191283060Y-95616000D01*
X191283060Y-96453282D01*
X190985342Y-96751000D01*
X189896153Y-96751000D01*
X189507887Y-96362056D01*
X189276619Y-96266025D01*
X189505837Y-96171314D01*
X189895944Y-95781887D01*
X190107329Y-95272816D01*
X190107810Y-94721602D01*
X189897314Y-94212163D01*
X189507887Y-93822056D01*
X188998816Y-93610671D01*
X188447602Y-93610190D01*
X187938163Y-93820686D01*
X187548056Y-94210113D01*
X187336671Y-94719184D01*
X187336190Y-95270398D01*
X187546686Y-95779837D01*
X187936113Y-96169944D01*
X188167381Y-96265975D01*
X187938163Y-96360686D01*
X187548056Y-96750113D01*
X187547688Y-96751000D01*
X185415005Y-96751000D01*
X185415000Y-96750999D01*
X185114594Y-96810755D01*
X185020599Y-96873560D01*
X184430000Y-96873560D01*
X184276883Y-96902371D01*
X184255246Y-96793594D01*
X184085080Y-96538922D01*
X182241079Y-94694921D01*
X182024009Y-94549880D01*
X181989162Y-94364683D01*
X181850090Y-94148559D01*
X181637890Y-94003569D01*
X181386000Y-93952560D01*
X180686000Y-93952560D01*
X180450683Y-93996838D01*
X180234559Y-94135910D01*
X180089569Y-94348110D01*
X180086919Y-94361197D01*
X179950090Y-94148559D01*
X179921000Y-94128683D01*
X179921000Y-94048658D01*
X180070505Y-93899153D01*
X180080667Y-93899162D01*
X180424443Y-93757117D01*
X180687692Y-93494327D01*
X180830338Y-93150799D01*
X180830509Y-92953877D01*
X190054728Y-92953877D01*
X190214495Y-93272632D01*
X191005217Y-93582595D01*
X191854366Y-93566367D01*
X192563505Y-93272632D01*
X192723272Y-92953877D01*
X191389000Y-91619605D01*
X190054728Y-92953877D01*
X180830509Y-92953877D01*
X180830662Y-92778833D01*
X180688617Y-92435057D01*
X180425827Y-92171808D01*
X180082299Y-92029162D01*
X179710333Y-92028838D01*
X179366557Y-92170883D01*
X179103308Y-92433673D01*
X178960662Y-92777201D01*
X178960652Y-92788690D01*
X178580921Y-93168421D01*
X178410755Y-93423093D01*
X178410755Y-93423094D01*
X178351000Y-93723500D01*
X178351000Y-94125331D01*
X178334559Y-94135910D01*
X178189569Y-94348110D01*
X178165898Y-94465000D01*
X175223948Y-94465000D01*
X174923541Y-94524755D01*
X174668869Y-94694921D01*
X167188429Y-102175361D01*
X164321430Y-102175361D01*
X164560772Y-102015438D01*
X174458131Y-92118079D01*
X174600484Y-91905032D01*
X175449299Y-91056217D01*
X189246405Y-91056217D01*
X189262633Y-91905366D01*
X189556368Y-92614505D01*
X189875123Y-92774272D01*
X191209395Y-91440000D01*
X191568605Y-91440000D01*
X192902877Y-92774272D01*
X193221632Y-92614505D01*
X193531595Y-91823783D01*
X193515367Y-90974634D01*
X193221632Y-90265495D01*
X192902877Y-90105728D01*
X191568605Y-91440000D01*
X191209395Y-91440000D01*
X189875123Y-90105728D01*
X189556368Y-90265495D01*
X189246405Y-91056217D01*
X175449299Y-91056217D01*
X176579393Y-89926123D01*
X190054728Y-89926123D01*
X191389000Y-91260395D01*
X192723272Y-89926123D01*
X192563505Y-89607368D01*
X191772783Y-89297405D01*
X190923634Y-89313633D01*
X190214495Y-89607368D01*
X190054728Y-89926123D01*
X176579393Y-89926123D01*
X176767579Y-89737937D01*
X176937745Y-89483264D01*
X176997500Y-89182858D01*
X176997500Y-83646538D01*
X177097817Y-83627662D01*
X177313941Y-83488590D01*
X177333817Y-83459500D01*
X177831498Y-83459500D01*
X177841173Y-83469192D01*
X178184701Y-83611838D01*
X178556667Y-83612162D01*
X178900443Y-83470117D01*
X179163692Y-83207327D01*
X179306338Y-82863799D01*
X179306662Y-82491833D01*
X179164617Y-82148057D01*
X178901827Y-81884808D01*
X178558299Y-81742162D01*
X178186333Y-81741838D01*
X177842557Y-81883883D01*
X177836930Y-81889500D01*
X177747660Y-81889500D01*
X178151046Y-81486114D01*
X178321212Y-81231441D01*
X178380968Y-80931035D01*
X178380967Y-80931030D01*
X178380967Y-78910174D01*
X178583543Y-78707951D01*
X179343642Y-78707951D01*
X179411702Y-78948952D01*
X179931001Y-79133788D01*
X180481505Y-79105826D01*
X180860232Y-78948952D01*
X180928292Y-78707951D01*
X180135967Y-77915626D01*
X179343642Y-78707951D01*
X178583543Y-78707951D01*
X178769911Y-78521908D01*
X178859346Y-78306525D01*
X178923036Y-78460286D01*
X179164037Y-78528346D01*
X179956362Y-77736021D01*
X180315572Y-77736021D01*
X181107897Y-78528346D01*
X181348898Y-78460286D01*
X181533734Y-77940987D01*
X181505772Y-77390483D01*
X181348898Y-77011756D01*
X181107897Y-76943696D01*
X180315572Y-77736021D01*
X179956362Y-77736021D01*
X179164037Y-76943696D01*
X178923036Y-77011756D01*
X178864198Y-77177061D01*
X178771281Y-76952184D01*
X178583516Y-76764091D01*
X179343642Y-76764091D01*
X180135967Y-77556416D01*
X180928292Y-76764091D01*
X180877123Y-76582898D01*
X181849695Y-76582898D01*
X182009462Y-76901653D01*
X182800184Y-77211616D01*
X183649333Y-77195388D01*
X184358472Y-76901653D01*
X184518239Y-76582898D01*
X183183967Y-75248626D01*
X181849695Y-76582898D01*
X180877123Y-76582898D01*
X180860232Y-76523090D01*
X180340933Y-76338254D01*
X179790429Y-76366216D01*
X179411702Y-76523090D01*
X179343642Y-76764091D01*
X178583516Y-76764091D01*
X178381854Y-76562077D01*
X178380967Y-76561709D01*
X178380967Y-75873461D01*
X178880967Y-75873461D01*
X179116284Y-75829183D01*
X179332408Y-75690111D01*
X179477398Y-75477911D01*
X179528407Y-75226021D01*
X179528407Y-74685238D01*
X181041372Y-74685238D01*
X181057600Y-75534387D01*
X181351335Y-76243526D01*
X181670090Y-76403293D01*
X183004362Y-75069021D01*
X183363572Y-75069021D01*
X184697844Y-76403293D01*
X185016599Y-76243526D01*
X185326562Y-75452804D01*
X185310334Y-74603655D01*
X185016599Y-73894516D01*
X184697844Y-73734749D01*
X183363572Y-75069021D01*
X183004362Y-75069021D01*
X181670090Y-73734749D01*
X181351335Y-73894516D01*
X181041372Y-74685238D01*
X179528407Y-74685238D01*
X179528407Y-74526021D01*
X179484129Y-74290704D01*
X179345057Y-74074580D01*
X179132857Y-73929590D01*
X179099477Y-73922830D01*
X179240666Y-73864348D01*
X179419294Y-73685719D01*
X179473379Y-73555144D01*
X181849695Y-73555144D01*
X183183967Y-74889416D01*
X184518239Y-73555144D01*
X184358472Y-73236389D01*
X183567750Y-72926426D01*
X182718601Y-72942654D01*
X182009462Y-73236389D01*
X181849695Y-73555144D01*
X179473379Y-73555144D01*
X179515967Y-73452330D01*
X179515967Y-73261771D01*
X179357217Y-73103021D01*
X178357967Y-73103021D01*
X178357967Y-73123021D01*
X178103967Y-73123021D01*
X178103967Y-73103021D01*
X177104717Y-73103021D01*
X176945967Y-73261771D01*
X176945967Y-73452330D01*
X177042640Y-73685719D01*
X177221268Y-73864348D01*
X177357254Y-73920675D01*
X177345650Y-73922859D01*
X177129526Y-74061931D01*
X176984536Y-74274131D01*
X176933527Y-74526021D01*
X176933527Y-75116619D01*
X176870722Y-75210614D01*
X176837148Y-75379403D01*
X176810967Y-75511021D01*
X176810967Y-76561868D01*
X176579904Y-76792528D01*
X176349854Y-76562077D01*
X175840783Y-76350692D01*
X175289569Y-76350211D01*
X175288682Y-76350578D01*
X175078967Y-76140863D01*
X175078967Y-75848059D01*
X175179284Y-75829183D01*
X175395408Y-75690111D01*
X175540398Y-75477911D01*
X175591407Y-75226021D01*
X175591407Y-74526021D01*
X175547129Y-74290704D01*
X175408057Y-74074580D01*
X175195857Y-73929590D01*
X175162477Y-73922830D01*
X175303666Y-73864348D01*
X175482294Y-73685719D01*
X175578967Y-73452330D01*
X175578967Y-73261771D01*
X175420217Y-73103021D01*
X174420967Y-73103021D01*
X174420967Y-73123021D01*
X174166967Y-73123021D01*
X174166967Y-73103021D01*
X173167717Y-73103021D01*
X173008967Y-73261771D01*
X173008967Y-73452330D01*
X173105640Y-73685719D01*
X173284268Y-73864348D01*
X173420254Y-73920675D01*
X173408650Y-73922859D01*
X173192526Y-74061931D01*
X173047536Y-74274131D01*
X172996527Y-74526021D01*
X172996527Y-75226021D01*
X173040805Y-75461338D01*
X173179877Y-75677462D01*
X173392077Y-75822452D01*
X173508967Y-75846123D01*
X173508967Y-76437138D01*
X173300783Y-76350692D01*
X172749569Y-76350211D01*
X172240130Y-76560707D01*
X171850023Y-76950134D01*
X171638638Y-77459205D01*
X171638157Y-78010419D01*
X171848653Y-78519858D01*
X172238080Y-78909965D01*
X172747151Y-79121350D01*
X173298365Y-79121831D01*
X173807804Y-78911335D01*
X174197911Y-78521908D01*
X174293942Y-78290640D01*
X174388653Y-78519858D01*
X174778080Y-78909965D01*
X174778967Y-78910333D01*
X174778967Y-80125967D01*
X174838722Y-80426374D01*
X174915060Y-80540622D01*
X174915060Y-81124500D01*
X174956224Y-81343266D01*
X174767420Y-81469420D01*
X173371421Y-82865419D01*
X173201255Y-83120091D01*
X173201255Y-83120092D01*
X173141500Y-83420498D01*
X173141500Y-84564962D01*
X173041183Y-84583838D01*
X172825059Y-84722910D01*
X172680069Y-84935110D01*
X172629060Y-85187000D01*
X172629060Y-85384500D01*
X172241506Y-85384500D01*
X172234327Y-85377308D01*
X171890799Y-85234662D01*
X171518833Y-85234338D01*
X171175057Y-85376383D01*
X170911808Y-85639173D01*
X170769162Y-85982701D01*
X170768838Y-86354667D01*
X170910883Y-86698443D01*
X171173673Y-86961692D01*
X171517201Y-87104338D01*
X171889167Y-87104662D01*
X172232943Y-86962617D01*
X172241074Y-86954500D01*
X172333842Y-86954500D01*
X172629060Y-87249718D01*
X172629060Y-87787000D01*
X172673338Y-88022317D01*
X172812410Y-88238441D01*
X173024610Y-88383431D01*
X173141500Y-88407102D01*
X173141500Y-90507290D01*
X163473429Y-100175361D01*
X152525854Y-100175361D01*
X152511682Y-100100043D01*
X152372610Y-99883919D01*
X152160410Y-99738929D01*
X151908520Y-99687920D01*
X150608520Y-99687920D01*
X150386545Y-99729688D01*
X150430960Y-99510360D01*
X150430960Y-99198078D01*
X151558079Y-98070959D01*
X151728245Y-97816286D01*
X151728401Y-97815501D01*
X151795192Y-97748827D01*
X151937838Y-97405299D01*
X151938162Y-97033333D01*
X151796117Y-96689557D01*
X151538860Y-96431850D01*
X156066579Y-91904131D01*
X156236745Y-91649458D01*
X156296500Y-91349052D01*
X156296500Y-83519538D01*
X156396817Y-83500662D01*
X156612941Y-83361590D01*
X156631109Y-83335000D01*
X156751994Y-83335000D01*
X156759173Y-83342192D01*
X157102701Y-83484838D01*
X157474667Y-83485162D01*
X157818443Y-83343117D01*
X158081692Y-83080327D01*
X158224338Y-82736799D01*
X158224662Y-82364833D01*
X158082617Y-82021057D01*
X157819827Y-81757808D01*
X157476299Y-81615162D01*
X157194244Y-81614916D01*
X157337439Y-81471721D01*
X157507605Y-81217049D01*
X157567360Y-80916642D01*
X157567360Y-78836773D01*
X157769936Y-78634550D01*
X158530035Y-78634550D01*
X158598095Y-78875551D01*
X159117394Y-79060387D01*
X159667898Y-79032425D01*
X160046625Y-78875551D01*
X160114685Y-78634550D01*
X159322360Y-77842225D01*
X158530035Y-78634550D01*
X157769936Y-78634550D01*
X157956304Y-78448507D01*
X158045739Y-78233124D01*
X158109429Y-78386885D01*
X158350430Y-78454945D01*
X159142755Y-77662620D01*
X159501965Y-77662620D01*
X160294290Y-78454945D01*
X160535291Y-78386885D01*
X160720127Y-77867586D01*
X160692165Y-77317082D01*
X160535291Y-76938355D01*
X160294290Y-76870295D01*
X159501965Y-77662620D01*
X159142755Y-77662620D01*
X159128613Y-77648478D01*
X159308218Y-77468873D01*
X159322360Y-77483015D01*
X160114685Y-76690690D01*
X160063516Y-76509497D01*
X161036088Y-76509497D01*
X161195855Y-76828252D01*
X161986577Y-77138215D01*
X162835726Y-77121987D01*
X163544865Y-76828252D01*
X163667841Y-76582898D01*
X168133695Y-76582898D01*
X168293462Y-76901653D01*
X169084184Y-77211616D01*
X169933333Y-77195388D01*
X170642472Y-76901653D01*
X170802239Y-76582898D01*
X169467967Y-75248626D01*
X168133695Y-76582898D01*
X163667841Y-76582898D01*
X163704632Y-76509497D01*
X162370360Y-75175225D01*
X161036088Y-76509497D01*
X160063516Y-76509497D01*
X160046625Y-76449689D01*
X159527326Y-76264853D01*
X158976822Y-76292815D01*
X158598095Y-76449689D01*
X158530036Y-76690688D01*
X158519000Y-76679652D01*
X158519000Y-75963038D01*
X158619317Y-75944162D01*
X158835441Y-75805090D01*
X158980431Y-75592890D01*
X159031440Y-75341000D01*
X159031440Y-74641000D01*
X159025953Y-74611837D01*
X160227765Y-74611837D01*
X160243993Y-75460986D01*
X160537728Y-76170125D01*
X160856483Y-76329892D01*
X162190755Y-74995620D01*
X162549965Y-74995620D01*
X163884237Y-76329892D01*
X164202992Y-76170125D01*
X164512955Y-75379403D01*
X164499689Y-74685238D01*
X167325372Y-74685238D01*
X167341600Y-75534387D01*
X167635335Y-76243526D01*
X167954090Y-76403293D01*
X169288362Y-75069021D01*
X169647572Y-75069021D01*
X170981844Y-76403293D01*
X171300599Y-76243526D01*
X171610562Y-75452804D01*
X171594334Y-74603655D01*
X171300599Y-73894516D01*
X170981844Y-73734749D01*
X169647572Y-75069021D01*
X169288362Y-75069021D01*
X167954090Y-73734749D01*
X167635335Y-73894516D01*
X167325372Y-74685238D01*
X164499689Y-74685238D01*
X164496727Y-74530254D01*
X164202992Y-73821115D01*
X163884237Y-73661348D01*
X162549965Y-74995620D01*
X162190755Y-74995620D01*
X160856483Y-73661348D01*
X160537728Y-73821115D01*
X160227765Y-74611837D01*
X159025953Y-74611837D01*
X158987162Y-74405683D01*
X158848090Y-74189559D01*
X158635890Y-74044569D01*
X158602510Y-74037809D01*
X158743699Y-73979327D01*
X158922327Y-73800698D01*
X159019000Y-73567309D01*
X159019000Y-73481743D01*
X161036088Y-73481743D01*
X162370360Y-74816015D01*
X163631231Y-73555144D01*
X168133695Y-73555144D01*
X169467967Y-74889416D01*
X170802239Y-73555144D01*
X170642472Y-73236389D01*
X169851750Y-72926426D01*
X169002601Y-72942654D01*
X168293462Y-73236389D01*
X168133695Y-73555144D01*
X163631231Y-73555144D01*
X163704632Y-73481743D01*
X163544865Y-73162988D01*
X162754143Y-72853025D01*
X161904994Y-72869253D01*
X161195855Y-73162988D01*
X161036088Y-73481743D01*
X159019000Y-73481743D01*
X159019000Y-73376750D01*
X158860250Y-73218000D01*
X157861000Y-73218000D01*
X157861000Y-73238000D01*
X157607000Y-73238000D01*
X157607000Y-73218000D01*
X156607750Y-73218000D01*
X156449000Y-73376750D01*
X156449000Y-73567309D01*
X156545673Y-73800698D01*
X156724301Y-73979327D01*
X156860287Y-74035654D01*
X156848683Y-74037838D01*
X156632559Y-74176910D01*
X156487569Y-74389110D01*
X156436560Y-74641000D01*
X156436560Y-75341000D01*
X156480838Y-75576317D01*
X156619910Y-75792441D01*
X156832110Y-75937431D01*
X156949000Y-75961102D01*
X156949000Y-76277195D01*
X156507962Y-76276810D01*
X155998523Y-76487306D01*
X155766297Y-76719127D01*
X155536247Y-76488676D01*
X155027176Y-76277291D01*
X154963000Y-76277235D01*
X154963000Y-75963038D01*
X155063317Y-75944162D01*
X155279441Y-75805090D01*
X155424431Y-75592890D01*
X155475440Y-75341000D01*
X155475440Y-74641000D01*
X155431162Y-74405683D01*
X155292090Y-74189559D01*
X155079890Y-74044569D01*
X155046510Y-74037809D01*
X155187699Y-73979327D01*
X155366327Y-73800698D01*
X155463000Y-73567309D01*
X155463000Y-73376750D01*
X155304250Y-73218000D01*
X154305000Y-73218000D01*
X154305000Y-73238000D01*
X154051000Y-73238000D01*
X154051000Y-73218000D01*
X153051750Y-73218000D01*
X152893000Y-73376750D01*
X152893000Y-73567309D01*
X152989673Y-73800698D01*
X153168301Y-73979327D01*
X153304287Y-74035654D01*
X153292683Y-74037838D01*
X153076559Y-74176910D01*
X152931569Y-74389110D01*
X152880560Y-74641000D01*
X152880560Y-75341000D01*
X152924838Y-75576317D01*
X153063910Y-75792441D01*
X153276110Y-75937431D01*
X153393000Y-75961102D01*
X153393000Y-76896513D01*
X153385674Y-76878783D01*
X152996247Y-76488676D01*
X152487176Y-76277291D01*
X151935962Y-76276810D01*
X151426523Y-76487306D01*
X151036416Y-76876733D01*
X150825031Y-77385804D01*
X150824550Y-77937018D01*
X151035046Y-78446457D01*
X151424473Y-78836564D01*
X151933544Y-79047949D01*
X152484758Y-79048430D01*
X152994197Y-78837934D01*
X153384304Y-78448507D01*
X153480335Y-78217239D01*
X153575046Y-78446457D01*
X153964473Y-78836564D01*
X153965360Y-78836932D01*
X153965360Y-79886360D01*
X154025115Y-80186767D01*
X154195281Y-80441439D01*
X154214060Y-80460218D01*
X154214060Y-80997500D01*
X154255224Y-81216266D01*
X154066420Y-81342420D01*
X154066418Y-81342423D01*
X152924421Y-82484419D01*
X152754255Y-82739091D01*
X152754255Y-82739092D01*
X152694500Y-83039498D01*
X152694500Y-83421962D01*
X152594183Y-83440838D01*
X152378059Y-83579910D01*
X152233069Y-83792110D01*
X152182060Y-84044000D01*
X152182060Y-84287908D01*
X152015299Y-84218662D01*
X151643333Y-84218338D01*
X151299557Y-84360383D01*
X151036308Y-84623173D01*
X150893662Y-84966701D01*
X150893338Y-85338667D01*
X151035383Y-85682443D01*
X151298173Y-85945692D01*
X151641701Y-86088338D01*
X151653190Y-86088348D01*
X152182060Y-86617218D01*
X152182060Y-86644000D01*
X152226338Y-86879317D01*
X152365410Y-87095441D01*
X152577610Y-87240431D01*
X152829500Y-87291440D01*
X153366782Y-87291440D01*
X154226501Y-88151159D01*
X154226501Y-90816790D01*
X150704000Y-94339290D01*
X150704000Y-93587440D01*
X151169000Y-93587440D01*
X151404317Y-93543162D01*
X151620441Y-93404090D01*
X151765431Y-93191890D01*
X151816440Y-92940000D01*
X151816440Y-89940000D01*
X151772162Y-89704683D01*
X151633090Y-89488559D01*
X151420890Y-89343569D01*
X151169000Y-89292560D01*
X150704000Y-89292560D01*
X150704000Y-87621612D01*
X150749931Y-87554390D01*
X150800940Y-87302500D01*
X150800940Y-86052500D01*
X150756662Y-85817183D01*
X150617590Y-85601059D01*
X150405390Y-85456069D01*
X150153500Y-85405060D01*
X149153500Y-85405060D01*
X148918183Y-85449338D01*
X148702059Y-85588410D01*
X148655531Y-85656506D01*
X148513198Y-85514173D01*
X148279809Y-85417500D01*
X147939250Y-85417500D01*
X147780500Y-85576250D01*
X147780500Y-86550500D01*
X147800500Y-86550500D01*
X147800500Y-86804500D01*
X147780500Y-86804500D01*
X147780500Y-87778750D01*
X147939250Y-87937500D01*
X148279809Y-87937500D01*
X148513198Y-87840827D01*
X148654436Y-87699590D01*
X148689410Y-87753941D01*
X148901610Y-87898931D01*
X149134000Y-87945991D01*
X149134000Y-89292560D01*
X148669000Y-89292560D01*
X148433683Y-89336838D01*
X148217559Y-89475910D01*
X148072569Y-89688110D01*
X148021560Y-89940000D01*
X148021560Y-92940000D01*
X148065838Y-93175317D01*
X148204910Y-93391441D01*
X148417110Y-93536431D01*
X148669000Y-93587440D01*
X149134000Y-93587440D01*
X149134000Y-94306842D01*
X148917929Y-94522913D01*
X148808390Y-94448069D01*
X148556500Y-94397060D01*
X147856500Y-94397060D01*
X147621183Y-94441338D01*
X147405059Y-94580410D01*
X147260069Y-94792610D01*
X147257419Y-94805697D01*
X147120590Y-94593059D01*
X146908390Y-94448069D01*
X146656500Y-94397060D01*
X145956500Y-94397060D01*
X145721183Y-94441338D01*
X145505059Y-94580410D01*
X145360069Y-94792610D01*
X145309060Y-95044500D01*
X145309060Y-96019902D01*
X142843722Y-93554564D01*
X142904317Y-93543162D01*
X143120441Y-93404090D01*
X143265431Y-93191890D01*
X143316440Y-92940000D01*
X143316440Y-89940000D01*
X143272162Y-89704683D01*
X143133090Y-89488559D01*
X142920890Y-89343569D01*
X142669000Y-89292560D01*
X142279000Y-89292560D01*
X142279000Y-87810192D01*
X142445441Y-87703090D01*
X142491969Y-87634994D01*
X142634302Y-87777327D01*
X142867691Y-87874000D01*
X143208250Y-87874000D01*
X143367000Y-87715250D01*
X143367000Y-86741000D01*
X143621000Y-86741000D01*
X143621000Y-87715250D01*
X143779750Y-87874000D01*
X144120309Y-87874000D01*
X144353698Y-87777327D01*
X144532327Y-87598699D01*
X144629000Y-87365310D01*
X144629000Y-86963250D01*
X146518500Y-86963250D01*
X146518500Y-87428810D01*
X146615173Y-87662199D01*
X146793802Y-87840827D01*
X147027191Y-87937500D01*
X147367750Y-87937500D01*
X147526500Y-87778750D01*
X147526500Y-86804500D01*
X146677250Y-86804500D01*
X146518500Y-86963250D01*
X144629000Y-86963250D01*
X144629000Y-86899750D01*
X144470250Y-86741000D01*
X143621000Y-86741000D01*
X143367000Y-86741000D01*
X143347000Y-86741000D01*
X143347000Y-86487000D01*
X143367000Y-86487000D01*
X143367000Y-85512750D01*
X143621000Y-85512750D01*
X143621000Y-86487000D01*
X144470250Y-86487000D01*
X144629000Y-86328250D01*
X144629000Y-85926190D01*
X146518500Y-85926190D01*
X146518500Y-86391750D01*
X146677250Y-86550500D01*
X147526500Y-86550500D01*
X147526500Y-85576250D01*
X147367750Y-85417500D01*
X147027191Y-85417500D01*
X146793802Y-85514173D01*
X146615173Y-85692801D01*
X146518500Y-85926190D01*
X144629000Y-85926190D01*
X144629000Y-85862690D01*
X144532327Y-85629301D01*
X144353698Y-85450673D01*
X144120309Y-85354000D01*
X143779750Y-85354000D01*
X143621000Y-85512750D01*
X143367000Y-85512750D01*
X143208250Y-85354000D01*
X142867691Y-85354000D01*
X142634302Y-85450673D01*
X142493064Y-85591910D01*
X142458090Y-85537559D01*
X142245890Y-85392569D01*
X141994000Y-85341560D01*
X140994000Y-85341560D01*
X140758683Y-85385838D01*
X140542559Y-85524910D01*
X140397569Y-85737110D01*
X140346560Y-85989000D01*
X140346560Y-87239000D01*
X140390838Y-87474317D01*
X140529910Y-87690441D01*
X140709000Y-87812808D01*
X140709000Y-89292560D01*
X140169000Y-89292560D01*
X139933683Y-89336838D01*
X139717559Y-89475910D01*
X139572569Y-89688110D01*
X139521560Y-89940000D01*
X139521560Y-92940000D01*
X139548270Y-93081952D01*
X139362500Y-93045000D01*
X136772032Y-93045000D01*
X129953104Y-86226072D01*
X129953104Y-86071610D01*
X130111852Y-86230358D01*
X130968411Y-86230358D01*
X131201800Y-86133685D01*
X131380429Y-85955057D01*
X131477102Y-85721668D01*
X131477102Y-84865108D01*
X131318352Y-84706358D01*
X129953102Y-84706358D01*
X129953102Y-84726358D01*
X129699102Y-84726358D01*
X129699102Y-84706358D01*
X129679102Y-84706358D01*
X129679102Y-84452358D01*
X129699102Y-84452358D01*
X129699102Y-84432358D01*
X129953102Y-84432358D01*
X129953102Y-84452358D01*
X131318352Y-84452358D01*
X131477102Y-84293608D01*
X131477102Y-83437048D01*
X131380429Y-83203659D01*
X131201800Y-83025031D01*
X131159136Y-83007359D01*
X131383772Y-82671168D01*
X131509447Y-82039358D01*
X131383772Y-81407548D01*
X131025880Y-80871925D01*
X130490257Y-80514033D01*
X129858447Y-80388358D01*
X129793757Y-80388358D01*
X129161947Y-80514033D01*
X128626324Y-80871925D01*
X128268432Y-81407548D01*
X128142757Y-82039358D01*
X128268432Y-82671168D01*
X128493068Y-83007359D01*
X128450404Y-83025031D01*
X128271775Y-83203659D01*
X128175102Y-83437048D01*
X128175102Y-84293608D01*
X128333850Y-84452356D01*
X128179388Y-84452356D01*
X122468290Y-78741258D01*
X122459117Y-78719057D01*
X122196327Y-78455808D01*
X121852799Y-78313162D01*
X121480833Y-78312838D01*
X121137057Y-78454883D01*
X120873808Y-78717673D01*
X120731162Y-79061201D01*
X120730838Y-79433167D01*
X120797089Y-79593506D01*
X120802173Y-79619067D01*
X120816526Y-79640547D01*
X120872883Y-79776943D01*
X120978065Y-79882309D01*
X121004855Y-79922403D01*
X135723597Y-94641145D01*
X136026933Y-94843827D01*
X136086298Y-94855636D01*
X136384742Y-94915001D01*
X136384747Y-94915000D01*
X138975210Y-94915000D01*
X139230313Y-95170103D01*
X139053683Y-95203338D01*
X138837559Y-95342410D01*
X138692569Y-95554610D01*
X138641560Y-95806500D01*
X138641560Y-97106500D01*
X138685838Y-97341817D01*
X138788000Y-97500581D01*
X138788000Y-97823994D01*
X138780808Y-97831173D01*
X138638162Y-98174701D01*
X138637838Y-98546667D01*
X138779883Y-98890443D01*
X139042673Y-99153692D01*
X139386201Y-99296338D01*
X139758167Y-99296662D01*
X140101943Y-99154617D01*
X140365192Y-98891827D01*
X140507838Y-98548299D01*
X140508162Y-98176333D01*
X140366117Y-97832557D01*
X140358000Y-97824426D01*
X140358000Y-97623639D01*
X140440441Y-97570590D01*
X140585431Y-97358390D01*
X140588081Y-97345303D01*
X140724910Y-97557941D01*
X140937110Y-97702931D01*
X141189000Y-97753940D01*
X141889000Y-97753940D01*
X142124317Y-97709662D01*
X142340441Y-97570590D01*
X142485431Y-97358390D01*
X142509102Y-97241500D01*
X142879502Y-97241500D01*
X143493281Y-97855278D01*
X143398520Y-98084051D01*
X143398520Y-98574610D01*
X143557270Y-98733360D01*
X143873520Y-98733360D01*
X143873520Y-98860360D01*
X143886080Y-98923503D01*
X143886080Y-98987360D01*
X143557270Y-98987360D01*
X143398520Y-99146110D01*
X143398520Y-99636669D01*
X143413155Y-99672000D01*
X142561880Y-99672000D01*
X142481845Y-99687920D01*
X141908520Y-99687920D01*
X141673203Y-99732198D01*
X141457079Y-99871270D01*
X141312089Y-100083470D01*
X141293481Y-100175360D01*
X140658800Y-100175360D01*
X140556617Y-99928057D01*
X140293827Y-99664808D01*
X139950299Y-99522162D01*
X139578333Y-99521838D01*
X139234557Y-99663883D01*
X138971308Y-99926673D01*
X138828662Y-100270201D01*
X138828338Y-100642167D01*
X138842053Y-100675361D01*
X134787086Y-100675361D01*
X134486680Y-100735116D01*
X134333825Y-100837250D01*
X134232007Y-100905282D01*
X133750789Y-101386500D01*
X133049538Y-101386500D01*
X133030662Y-101286183D01*
X132891590Y-101070059D01*
X132890798Y-101069518D01*
X133014838Y-100770799D01*
X133015162Y-100398833D01*
X132873117Y-100055057D01*
X132610327Y-99791808D01*
X132266799Y-99649162D01*
X131894833Y-99648838D01*
X131551057Y-99790883D01*
X131287808Y-100053673D01*
X131145162Y-100397201D01*
X131145082Y-100488922D01*
X130113581Y-99457421D01*
X129858909Y-99287255D01*
X129558502Y-99227500D01*
X127842538Y-99227500D01*
X127823662Y-99127183D01*
X127684590Y-98911059D01*
X127472390Y-98766069D01*
X127220500Y-98715060D01*
X126520500Y-98715060D01*
X126285183Y-98759338D01*
X126069059Y-98898410D01*
X125924069Y-99110610D01*
X125921419Y-99123697D01*
X125784590Y-98911059D01*
X125572390Y-98766069D01*
X125320500Y-98715060D01*
X124673500Y-98715060D01*
X124673500Y-98708506D01*
X124680692Y-98701327D01*
X124823338Y-98357799D01*
X124823662Y-97985833D01*
X124681617Y-97642057D01*
X124418827Y-97378808D01*
X124075299Y-97236162D01*
X123703333Y-97235838D01*
X123408440Y-97357685D01*
X123408440Y-97340418D01*
X123249692Y-97340418D01*
X123408440Y-97181670D01*
X123408440Y-96341620D01*
X123311767Y-96108231D01*
X123133138Y-95929603D01*
X122899749Y-95832930D01*
X121809510Y-95832930D01*
X121650760Y-95991680D01*
X121650760Y-97340420D01*
X121670760Y-97340420D01*
X121670760Y-97594420D01*
X121650760Y-97594420D01*
X121650760Y-98943160D01*
X121809510Y-99101910D01*
X122628482Y-99101910D01*
X122310722Y-99419670D01*
X120472200Y-99419670D01*
X120236883Y-99463948D01*
X120109130Y-99546155D01*
X120109168Y-99503070D01*
X119944398Y-99104297D01*
X119639567Y-98798934D01*
X119241083Y-98633469D01*
X118809610Y-98633092D01*
X118410837Y-98797862D01*
X118105474Y-99102693D01*
X117940009Y-99501177D01*
X117939632Y-99932650D01*
X114285000Y-99932650D01*
X114285000Y-98874956D01*
X114415282Y-99005237D01*
X114648671Y-99101910D01*
X115738910Y-99101910D01*
X115897660Y-98943160D01*
X115897660Y-97594420D01*
X116151660Y-97594420D01*
X116151660Y-98943160D01*
X116310410Y-99101910D01*
X117400649Y-99101910D01*
X117634038Y-99005237D01*
X117812667Y-98826609D01*
X117909340Y-98593220D01*
X117909340Y-97753170D01*
X119639080Y-97753170D01*
X119639080Y-98593220D01*
X119735753Y-98826609D01*
X119914382Y-99005237D01*
X120147771Y-99101910D01*
X121238010Y-99101910D01*
X121396760Y-98943160D01*
X121396760Y-97594420D01*
X119797830Y-97594420D01*
X119639080Y-97753170D01*
X117909340Y-97753170D01*
X117750590Y-97594420D01*
X116151660Y-97594420D01*
X115897660Y-97594420D01*
X115877660Y-97594420D01*
X115877660Y-97340420D01*
X115897660Y-97340420D01*
X115897660Y-95991680D01*
X116151660Y-95991680D01*
X116151660Y-97340420D01*
X117750590Y-97340420D01*
X117909340Y-97181670D01*
X117909340Y-96341620D01*
X119639080Y-96341620D01*
X119639080Y-97181670D01*
X119797830Y-97340420D01*
X121396760Y-97340420D01*
X121396760Y-95991680D01*
X121238010Y-95832930D01*
X120147771Y-95832930D01*
X119914382Y-95929603D01*
X119735753Y-96108231D01*
X119639080Y-96341620D01*
X117909340Y-96341620D01*
X117812667Y-96108231D01*
X117634038Y-95929603D01*
X117400649Y-95832930D01*
X116310410Y-95832930D01*
X116151660Y-95991680D01*
X115897660Y-95991680D01*
X115738910Y-95832930D01*
X114648671Y-95832930D01*
X114415282Y-95929603D01*
X114285000Y-96059884D01*
X114285000Y-76509497D01*
X147320088Y-76509497D01*
X147479855Y-76828252D01*
X148270577Y-77138215D01*
X149119726Y-77121987D01*
X149828865Y-76828252D01*
X149988632Y-76509497D01*
X148654360Y-75175225D01*
X147320088Y-76509497D01*
X114285000Y-76509497D01*
X114285000Y-74611837D01*
X146511765Y-74611837D01*
X146527993Y-75460986D01*
X146821728Y-76170125D01*
X147140483Y-76329892D01*
X148474755Y-74995620D01*
X148833965Y-74995620D01*
X150168237Y-76329892D01*
X150486992Y-76170125D01*
X150796955Y-75379403D01*
X150780727Y-74530254D01*
X150486992Y-73821115D01*
X150168237Y-73661348D01*
X148833965Y-74995620D01*
X148474755Y-74995620D01*
X147140483Y-73661348D01*
X146821728Y-73821115D01*
X146511765Y-74611837D01*
X114285000Y-74611837D01*
X114285000Y-73481743D01*
X147320088Y-73481743D01*
X148654360Y-74816015D01*
X149988632Y-73481743D01*
X149828865Y-73162988D01*
X149038143Y-72853025D01*
X148188994Y-72869253D01*
X147479855Y-73162988D01*
X147320088Y-73481743D01*
X114285000Y-73481743D01*
X114285000Y-72614691D01*
X152893000Y-72614691D01*
X152893000Y-72805250D01*
X153051750Y-72964000D01*
X154051000Y-72964000D01*
X154051000Y-72264750D01*
X154305000Y-72264750D01*
X154305000Y-72964000D01*
X155304250Y-72964000D01*
X155463000Y-72805250D01*
X155463000Y-72614691D01*
X156449000Y-72614691D01*
X156449000Y-72805250D01*
X156607750Y-72964000D01*
X157607000Y-72964000D01*
X157607000Y-72264750D01*
X157861000Y-72264750D01*
X157861000Y-72964000D01*
X158860250Y-72964000D01*
X159019000Y-72805250D01*
X159019000Y-72614691D01*
X158971375Y-72499712D01*
X173008967Y-72499712D01*
X173008967Y-72690271D01*
X173167717Y-72849021D01*
X174166967Y-72849021D01*
X174166967Y-72149771D01*
X174420967Y-72149771D01*
X174420967Y-72849021D01*
X175420217Y-72849021D01*
X175578967Y-72690271D01*
X175578967Y-72499712D01*
X176945967Y-72499712D01*
X176945967Y-72690271D01*
X177104717Y-72849021D01*
X178103967Y-72849021D01*
X178103967Y-72149771D01*
X178357967Y-72149771D01*
X178357967Y-72849021D01*
X179357217Y-72849021D01*
X179515967Y-72690271D01*
X179515967Y-72499712D01*
X179419294Y-72266323D01*
X179240666Y-72087694D01*
X179007277Y-71991021D01*
X178516717Y-71991021D01*
X178357967Y-72149771D01*
X178103967Y-72149771D01*
X177945217Y-71991021D01*
X177454657Y-71991021D01*
X177221268Y-72087694D01*
X177042640Y-72266323D01*
X176945967Y-72499712D01*
X175578967Y-72499712D01*
X175482294Y-72266323D01*
X175303666Y-72087694D01*
X175070277Y-71991021D01*
X174579717Y-71991021D01*
X174420967Y-72149771D01*
X174166967Y-72149771D01*
X174008217Y-71991021D01*
X173517657Y-71991021D01*
X173284268Y-72087694D01*
X173105640Y-72266323D01*
X173008967Y-72499712D01*
X158971375Y-72499712D01*
X158922327Y-72381302D01*
X158743699Y-72202673D01*
X158510310Y-72106000D01*
X158019750Y-72106000D01*
X157861000Y-72264750D01*
X157607000Y-72264750D01*
X157448250Y-72106000D01*
X156957690Y-72106000D01*
X156724301Y-72202673D01*
X156545673Y-72381302D01*
X156449000Y-72614691D01*
X155463000Y-72614691D01*
X155366327Y-72381302D01*
X155187699Y-72202673D01*
X154954310Y-72106000D01*
X154463750Y-72106000D01*
X154305000Y-72264750D01*
X154051000Y-72264750D01*
X153892250Y-72106000D01*
X153401690Y-72106000D01*
X153168301Y-72202673D01*
X152989673Y-72381302D01*
X152893000Y-72614691D01*
X114285000Y-72614691D01*
X114285000Y-66945000D01*
X200245000Y-66945000D01*
X200245000Y-137855000D01*
M02*
