G04 #@! TF.FileFunction,Copper,L1,Top,Signal*
%FSLAX46Y46*%
G04 Gerber Fmt 4.6, Leading zero omitted, Abs format (unit mm)*
G04 Created by KiCad (PCBNEW 4.0.7-e2-6376~58~ubuntu16.04.1) date Wed Jul 25 01:15:53 2018*
%MOMM*%
%LPD*%
G01*
G04 APERTURE LIST*
%ADD10C,0.100000*%
%ADD11R,3.000000X1.000000*%
%ADD12R,2.500000X1.000000*%
%ADD13R,0.750000X0.800000*%
%ADD14R,1.300000X1.300000*%
%ADD15C,1.300000*%
%ADD16R,2.800000X2.800000*%
%ADD17C,2.800000*%
%ADD18R,3.000000X3.000000*%
%ADD19C,3.000000*%
%ADD20C,2.400000*%
%ADD21R,2.400000X2.400000*%
%ADD22R,0.400000X1.350000*%
%ADD23O,1.250000X0.950000*%
%ADD24O,1.000000X1.550000*%
%ADD25R,0.900000X0.800000*%
%ADD26R,0.900000X0.500000*%
%ADD27R,0.500000X0.900000*%
%ADD28R,1.500000X0.300000*%
%ADD29R,1.300000X0.250000*%
%ADD30R,0.250000X1.300000*%
%ADD31O,1.200000X0.850000*%
%ADD32O,1.000000X1.200000*%
%ADD33O,2.000000X1.510000*%
%ADD34R,0.800000X0.600000*%
%ADD35R,0.600000X0.800000*%
%ADD36R,2.540000X2.540000*%
%ADD37C,2.540000*%
%ADD38R,0.900000X2.500000*%
%ADD39R,3.500000X1.600000*%
%ADD40C,2.300000*%
%ADD41C,0.600000*%
%ADD42C,0.750000*%
%ADD43C,0.500000*%
%ADD44C,0.250000*%
%ADD45C,0.254000*%
G04 APERTURE END LIST*
D10*
D11*
X141072397Y-124446949D03*
X141072397Y-119846949D03*
X109016800Y-131092000D03*
X109016800Y-126492000D03*
D12*
X94386400Y-116917600D03*
X94386400Y-113917600D03*
D11*
X99872800Y-117717600D03*
X99872800Y-113117600D03*
X160122397Y-137654949D03*
X160122397Y-133054949D03*
X153772397Y-137654949D03*
X153772397Y-133054949D03*
X147422397Y-137654949D03*
X147422397Y-133054949D03*
X141021597Y-137654949D03*
X141021597Y-133054949D03*
X134722397Y-133054949D03*
X134722397Y-137654949D03*
X160122397Y-124446949D03*
X160122397Y-119846949D03*
X153772397Y-124446949D03*
X153772397Y-119846949D03*
X147422397Y-124446949D03*
X147422397Y-119846949D03*
X134722397Y-119846949D03*
X134722397Y-124446949D03*
D13*
X125171200Y-96508000D03*
X125171200Y-95008000D03*
X121361200Y-96508000D03*
X121361200Y-95008000D03*
X118262400Y-93218000D03*
X118262400Y-91718000D03*
D14*
X115976400Y-138176000D03*
D15*
X115976400Y-140676000D03*
D14*
X115824000Y-131572000D03*
D15*
X115824000Y-134072000D03*
D11*
X109118400Y-133894800D03*
X109118400Y-138494800D03*
D16*
X157716000Y-52920000D03*
D17*
X161916000Y-52920000D03*
X166116000Y-52920000D03*
X170316000Y-52920000D03*
X157716000Y-58420000D03*
X161916000Y-58420000D03*
X166116000Y-58420000D03*
X170316000Y-58420000D03*
X123434000Y-70358000D03*
X119634000Y-70358000D03*
X123434000Y-57858000D03*
X119634000Y-57858000D03*
X108434000Y-70358000D03*
X104634000Y-70358000D03*
X108434000Y-57858000D03*
X104634000Y-57858000D03*
X88900000Y-67310000D03*
X88900000Y-71110000D03*
X76400000Y-67310000D03*
X76400000Y-71110000D03*
X88900000Y-82310000D03*
X88900000Y-86110000D03*
X76400000Y-82310000D03*
X76400000Y-86110000D03*
D18*
X248920000Y-76200000D03*
D19*
X248920000Y-71120000D03*
X248920000Y-66040000D03*
X248920000Y-60960000D03*
X248920000Y-55880000D03*
X248920000Y-50800000D03*
D18*
X248920000Y-142240000D03*
D19*
X248920000Y-137160000D03*
X248920000Y-132080000D03*
X248920000Y-127000000D03*
X248920000Y-121920000D03*
X248920000Y-116840000D03*
D18*
X76200000Y-101600000D03*
D19*
X76200000Y-106680000D03*
X76200000Y-111760000D03*
X76200000Y-116840000D03*
X76200000Y-121920000D03*
X76200000Y-127000000D03*
D20*
X202494000Y-54356000D03*
D21*
X205994000Y-54356000D03*
D20*
X198994000Y-54356000D03*
X195494000Y-54356000D03*
X191994000Y-54356000D03*
X188494000Y-54356000D03*
D22*
X142804000Y-60358000D03*
X142154000Y-60358000D03*
X141504000Y-60358000D03*
X143454000Y-60358000D03*
X144104000Y-60358000D03*
D23*
X140304000Y-60358000D03*
X145304000Y-60358000D03*
D24*
X146304000Y-57658000D03*
X139304000Y-57658000D03*
D25*
X113842800Y-100360400D03*
X113842800Y-102260400D03*
X115842800Y-101310400D03*
X108677200Y-100192800D03*
X108677200Y-102092800D03*
X110677200Y-101142800D03*
X121275600Y-135041600D03*
X121275600Y-136941600D03*
X123275600Y-135991600D03*
D26*
X111353600Y-93206000D03*
X111353600Y-91706000D03*
X111353600Y-96812800D03*
X111353600Y-95312800D03*
D27*
X105194800Y-118618000D03*
X103694800Y-118618000D03*
D26*
X160122397Y-127492949D03*
X160122397Y-128992949D03*
X154026397Y-127492949D03*
X154026397Y-128992949D03*
X147422397Y-127492949D03*
X147422397Y-128992949D03*
X141326397Y-127492949D03*
X141326397Y-128992949D03*
X134722397Y-127492949D03*
X134722397Y-128992949D03*
X160376397Y-114284949D03*
X160376397Y-115784949D03*
X153772397Y-114284949D03*
X153772397Y-115784949D03*
X147676397Y-114284949D03*
X147676397Y-115784949D03*
X141072397Y-114284949D03*
X141072397Y-115784949D03*
X134976397Y-115784949D03*
X134976397Y-114284949D03*
X125222000Y-91756800D03*
X125222000Y-93256800D03*
X121361200Y-91718000D03*
X121361200Y-93218000D03*
D27*
X121259600Y-131572000D03*
X122759600Y-131572000D03*
X119392000Y-122174000D03*
X120892000Y-122174000D03*
X103694800Y-112217200D03*
X105194800Y-112217200D03*
X115023200Y-128574800D03*
X116523200Y-128574800D03*
D28*
X117144800Y-105492800D03*
X117144800Y-105992800D03*
X117144800Y-106492800D03*
X117144800Y-106992800D03*
X117144800Y-107492800D03*
X117144800Y-107992800D03*
X117144800Y-108532800D03*
X117144800Y-109032800D03*
X117144800Y-109532800D03*
X117144800Y-110032800D03*
X117144800Y-110532800D03*
X117144800Y-111032800D03*
X117144800Y-111532800D03*
X117144800Y-112032800D03*
X117144800Y-112532800D03*
X122944800Y-112532800D03*
X122944800Y-112032800D03*
X122944800Y-111532800D03*
X122944800Y-111032800D03*
X122944800Y-110532800D03*
X122944800Y-110032800D03*
X122944800Y-109532800D03*
X122944800Y-109032800D03*
X122944800Y-108532800D03*
X122944800Y-108032800D03*
X122944800Y-107532800D03*
X122944800Y-107032800D03*
X122944800Y-106532800D03*
X122944800Y-106032800D03*
X122944800Y-105532800D03*
D29*
X133592000Y-99224400D03*
X133592000Y-99724400D03*
X133592000Y-100224400D03*
X133592000Y-100724400D03*
X133592000Y-101224400D03*
X133592000Y-101724400D03*
X133592000Y-102224400D03*
X133592000Y-102724400D03*
X133592000Y-103224400D03*
X133592000Y-103724400D03*
X133592000Y-104224400D03*
X133592000Y-104724400D03*
D30*
X135192000Y-106324400D03*
X135692000Y-106324400D03*
X136192000Y-106324400D03*
X136692000Y-106324400D03*
X137192000Y-106324400D03*
X137692000Y-106324400D03*
X138192000Y-106324400D03*
X138692000Y-106324400D03*
X139192000Y-106324400D03*
X139692000Y-106324400D03*
X140192000Y-106324400D03*
X140692000Y-106324400D03*
D29*
X142292000Y-104724400D03*
X142292000Y-104224400D03*
X142292000Y-103724400D03*
X142292000Y-103224400D03*
X142292000Y-102724400D03*
X142292000Y-102224400D03*
X142292000Y-101724400D03*
X142292000Y-101224400D03*
X142292000Y-100724400D03*
X142292000Y-100224400D03*
X142292000Y-99724400D03*
X142292000Y-99224400D03*
D30*
X140692000Y-97624400D03*
X140192000Y-97624400D03*
X139692000Y-97624400D03*
X139192000Y-97624400D03*
X138692000Y-97624400D03*
X138192000Y-97624400D03*
X137692000Y-97624400D03*
X137192000Y-97624400D03*
X136692000Y-97624400D03*
X136192000Y-97624400D03*
X135692000Y-97624400D03*
X135192000Y-97624400D03*
D14*
X191860800Y-82651600D03*
D15*
X194360800Y-82651600D03*
D26*
X114655600Y-93206000D03*
X114655600Y-91706000D03*
X193356800Y-87438800D03*
X193356800Y-88938800D03*
D31*
X212384000Y-62952000D03*
X209804000Y-62992000D03*
X207264000Y-62992000D03*
X204724000Y-62992000D03*
X202184000Y-62992000D03*
X199644000Y-62992000D03*
X197104000Y-62992000D03*
X194564000Y-62992000D03*
X192024000Y-62992000D03*
X189484000Y-62992000D03*
X186944000Y-62992000D03*
X184404000Y-62992000D03*
D25*
X108626400Y-105323600D03*
X108626400Y-107223600D03*
X110626400Y-106273600D03*
X103902000Y-114467600D03*
X103902000Y-116367600D03*
X105902000Y-115417600D03*
D32*
X106680000Y-85852000D03*
X106680000Y-83312000D03*
X106680000Y-80772000D03*
X116840000Y-85852000D03*
X116840000Y-83312000D03*
X116840000Y-80772000D03*
D33*
X125222000Y-85090000D03*
X130302000Y-85090000D03*
D34*
X114655600Y-95365200D03*
X114655600Y-97065200D03*
D35*
X119139600Y-115468400D03*
X120839600Y-115468400D03*
X119190400Y-118719600D03*
X120890400Y-118719600D03*
D36*
X172720000Y-103886000D03*
D37*
X177800000Y-103886000D03*
D36*
X172720000Y-121666000D03*
D37*
X177800000Y-121666000D03*
D36*
X172720000Y-86106000D03*
D37*
X177800000Y-86106000D03*
D20*
X248412000Y-101686000D03*
D21*
X248412000Y-105186000D03*
D20*
X248412000Y-98186000D03*
X248412000Y-94686000D03*
X248412000Y-91186000D03*
X248412000Y-87686000D03*
D36*
X227330000Y-59690000D03*
D37*
X232410000Y-59690000D03*
D36*
X227330000Y-77470000D03*
D37*
X232410000Y-77470000D03*
D38*
X221922000Y-146558000D03*
X219022000Y-146558000D03*
D39*
X209042000Y-92303600D03*
X209042000Y-97180400D03*
D15*
X201620000Y-89154000D03*
D14*
X198120000Y-89154000D03*
D40*
X218186000Y-140462000D03*
X223266000Y-140462000D03*
X233426000Y-140462000D03*
X215646000Y-94742000D03*
X225806000Y-94742000D03*
X235966000Y-94742000D03*
D14*
X203708000Y-136144000D03*
D15*
X208708000Y-136144000D03*
D41*
X227330000Y-71120000D03*
X227330000Y-65786000D03*
X112522000Y-99060000D03*
X209042000Y-99822000D03*
X111353600Y-91706000D03*
X118344949Y-112165152D03*
X109016800Y-126492000D03*
X125268988Y-103516758D03*
X120469377Y-107495006D03*
X120142000Y-102108000D03*
X141478000Y-61468000D03*
X134874000Y-117602000D03*
X137753443Y-105284922D03*
X134742002Y-100686912D03*
X109118400Y-138494800D03*
X134722397Y-124460000D03*
X141311279Y-99724401D03*
X138192000Y-98605122D03*
X118262400Y-91718000D03*
X125222000Y-91756800D03*
X125171200Y-96508000D03*
X125171200Y-96508000D03*
X105194800Y-112217200D03*
X99872800Y-117717600D03*
X94386400Y-113917600D03*
X120839600Y-115468400D03*
X122682000Y-113792000D03*
X144948160Y-125243023D03*
X149122872Y-125896960D03*
X132080000Y-114046000D03*
X124224564Y-109432789D03*
X160376397Y-115784949D03*
X112065026Y-118389513D03*
X116586000Y-114808000D03*
X109597134Y-116831032D03*
X118369627Y-109726144D03*
X124820621Y-106599103D03*
X118263034Y-104402228D03*
X116078000Y-104648000D03*
X122759600Y-131572000D03*
X134722397Y-127492949D03*
X121412000Y-126746000D03*
X119888000Y-125222000D03*
X123275600Y-135991600D03*
X119392000Y-122174000D03*
X113843220Y-102270019D03*
X108677200Y-102092800D03*
X122016652Y-124513989D03*
X117699659Y-124638903D03*
X133604000Y-105156000D03*
X124232631Y-112107821D03*
X103902000Y-116367600D03*
X103694800Y-118618000D03*
X115824000Y-107799759D03*
X115719901Y-109499781D03*
X108088805Y-125484798D03*
X116008815Y-111564966D03*
X124686955Y-105810337D03*
X121244789Y-107691872D03*
X124634915Y-105012015D03*
X120915461Y-106790437D03*
X126993012Y-104387012D03*
X122936000Y-105382798D03*
X134722397Y-137654949D03*
X117094000Y-113030000D03*
X119139600Y-115468400D03*
X197104000Y-82296000D03*
X211836000Y-91694000D03*
D42*
X227330000Y-83566000D02*
X227330000Y-86106000D01*
X227330000Y-77470000D02*
X227330000Y-83566000D01*
X227330000Y-86106000D02*
X235966000Y-94742000D01*
X227330000Y-65786000D02*
X227330000Y-59690000D01*
X227330000Y-77470000D02*
X227330000Y-71120000D01*
D43*
X209042000Y-97180400D02*
X209042000Y-99822000D01*
D44*
X221922000Y-146558000D02*
X222622000Y-146558000D01*
X222622000Y-146558000D02*
X223266000Y-145914000D01*
X223266000Y-145914000D02*
X223266000Y-142342345D01*
X223266000Y-142342345D02*
X223266000Y-140716000D01*
X112522000Y-99060000D02*
X112522000Y-99089600D01*
X112522000Y-99089600D02*
X113792800Y-100360400D01*
X113792800Y-100360400D02*
X113842800Y-100360400D01*
X76200000Y-106680000D02*
X83820000Y-99060000D01*
X83820000Y-99060000D02*
X112522000Y-99060000D01*
X113654679Y-100360400D02*
X113842800Y-100360400D01*
X118212597Y-112032800D02*
X118344949Y-112165152D01*
X117144800Y-112032800D02*
X118212597Y-112032800D01*
X118344949Y-111232949D02*
X118344949Y-112165152D01*
X118144800Y-111032800D02*
X118344949Y-111232949D01*
X117144800Y-111032800D02*
X118144800Y-111032800D01*
X117144800Y-111032800D02*
X117144800Y-110532800D01*
X94386400Y-116917600D02*
X95886400Y-116917600D01*
X101397119Y-114178283D02*
X102828463Y-112746939D01*
X95886400Y-116917600D02*
X98625717Y-114178283D01*
X98625717Y-114178283D02*
X101397119Y-114178283D01*
X104252976Y-110374022D02*
X105313798Y-110374022D01*
X102828463Y-112746939D02*
X102828463Y-111798535D01*
X102828463Y-111798535D02*
X104252976Y-110374022D01*
X115986780Y-108874780D02*
X116144800Y-109032800D01*
X105313798Y-110374022D02*
X106680019Y-109007801D01*
X106680019Y-109007801D02*
X115286879Y-109007801D01*
X115286879Y-109007801D02*
X115419900Y-108874780D01*
X115419900Y-108874780D02*
X115986780Y-108874780D01*
X116144800Y-109032800D02*
X117144800Y-109032800D01*
X127061346Y-101724400D02*
X125268988Y-103516758D01*
X133592000Y-101724400D02*
X127061346Y-101724400D01*
X118931583Y-109032800D02*
X120469377Y-107495006D01*
X117144800Y-109032800D02*
X118931583Y-109032800D01*
X137142001Y-105414399D02*
X137142001Y-106274401D01*
X134588413Y-101724400D02*
X134588413Y-102860811D01*
X134588413Y-102860811D02*
X137142001Y-105414399D01*
X137142001Y-106274401D02*
X137192000Y-106324400D01*
X137192000Y-99120813D02*
X137782689Y-99120813D01*
X137782689Y-99120813D02*
X137891999Y-99230123D01*
X137891999Y-99230123D02*
X140880555Y-99230123D01*
X140880555Y-99230123D02*
X141011278Y-99099400D01*
X141011278Y-99099400D02*
X142167000Y-99099400D01*
X142167000Y-99099400D02*
X142292000Y-99224400D01*
X133592000Y-101724400D02*
X134588413Y-101724400D01*
X134588413Y-101724400D02*
X137192000Y-99120813D01*
X137192000Y-99120813D02*
X137192000Y-97624400D01*
X134722397Y-124460000D02*
X141059346Y-124460000D01*
X141059346Y-124460000D02*
X141072397Y-124446949D01*
X119134089Y-105889116D02*
X119134089Y-103115911D01*
X119134089Y-103115911D02*
X120142000Y-102108000D01*
X141504000Y-60358000D02*
X141504000Y-61442000D01*
X118530405Y-106492800D02*
X119134089Y-105889116D01*
X117144800Y-106492800D02*
X118530405Y-106492800D01*
X134976397Y-115784949D02*
X134976397Y-117499603D01*
X134976397Y-117499603D02*
X134874000Y-117602000D01*
X137692000Y-105346365D02*
X137753443Y-105284922D01*
X137692000Y-106324400D02*
X137692000Y-105346365D01*
X134742002Y-100934401D02*
X134742002Y-100686912D01*
X134452003Y-101224400D02*
X134742002Y-100934401D01*
X133592000Y-101224400D02*
X134452003Y-101224400D01*
X142292000Y-99724400D02*
X141311280Y-99724400D01*
X141311280Y-99724400D02*
X141311279Y-99724401D01*
X138192000Y-97624400D02*
X138192000Y-98605122D01*
X115125469Y-108532800D02*
X115233500Y-108424769D01*
X116314333Y-108532800D02*
X117144800Y-108532800D01*
X105127398Y-109924011D02*
X106518609Y-108532800D01*
X100872800Y-113117600D02*
X104066389Y-109924011D01*
X99872800Y-113117600D02*
X100872800Y-113117600D01*
X116206302Y-108424769D02*
X116314333Y-108532800D01*
X115233500Y-108424769D02*
X116206302Y-108424769D01*
X106518609Y-108532800D02*
X115125469Y-108532800D01*
X104066389Y-109924011D02*
X105127398Y-109924011D01*
X132589596Y-134779972D02*
X141098862Y-134779972D01*
X123944800Y-111532800D02*
X123994789Y-111482811D01*
X145368201Y-139049311D02*
X156228035Y-139049311D01*
X141098862Y-134779972D02*
X145368201Y-139049311D01*
X130197330Y-132387707D02*
X132589596Y-134779972D01*
X123994789Y-111482811D02*
X125960811Y-111482811D01*
X130197330Y-115719330D02*
X130197330Y-132387707D01*
X122944800Y-111532800D02*
X123944800Y-111532800D01*
X125960811Y-111482811D02*
X130197330Y-115719330D01*
X156228035Y-139049311D02*
X157622397Y-137654949D01*
X122944800Y-112032800D02*
X122944800Y-111532800D01*
X153772397Y-133054949D02*
X153772397Y-129246949D01*
X153772397Y-129246949D02*
X154026397Y-128992949D01*
X153772397Y-133054949D02*
X153772397Y-133804949D01*
X153772397Y-133804949D02*
X157622397Y-137654949D01*
X157622397Y-137654949D02*
X160122397Y-137654949D01*
X160122397Y-133054949D02*
X160122397Y-133804949D01*
X122682000Y-114216264D02*
X122682000Y-113792000D01*
X160122397Y-133804949D02*
X162233460Y-135916012D01*
X162233460Y-135916012D02*
X162233460Y-138445270D01*
X162233460Y-138445270D02*
X161179408Y-139499322D01*
X161179408Y-139499322D02*
X133981768Y-139499322D01*
X133981768Y-139499322D02*
X132588000Y-138105554D01*
X122682000Y-125508787D02*
X122682000Y-114216264D01*
X132588000Y-138105554D02*
X132588000Y-135414787D01*
X132588000Y-135414787D02*
X122682000Y-125508787D01*
X121147200Y-112532800D02*
X120839600Y-112840400D01*
X120839600Y-112840400D02*
X120839600Y-115468400D01*
X122944800Y-112532800D02*
X121147200Y-112532800D01*
X160122397Y-128992949D02*
X160122397Y-133054949D01*
X122944800Y-111032800D02*
X126272800Y-111032800D01*
X145343261Y-138387960D02*
X145554601Y-138599300D01*
X145554601Y-138599300D02*
X150328046Y-138599300D01*
X126272800Y-111032800D02*
X130647341Y-115407341D01*
X130647341Y-115407341D02*
X130647341Y-132201306D01*
X130647341Y-132201306D02*
X132775996Y-134329961D01*
X132775996Y-134329961D02*
X142078372Y-134329961D01*
X142078372Y-134329961D02*
X145343261Y-137594850D01*
X145343261Y-137594850D02*
X145343261Y-138387960D01*
X150328046Y-138599300D02*
X151272397Y-137654949D01*
X147422397Y-133054949D02*
X147422397Y-133804949D01*
X147422397Y-133804949D02*
X151272397Y-137654949D01*
X151272397Y-137654949D02*
X153772397Y-137654949D01*
X147422397Y-128992949D02*
X147422397Y-133054949D01*
X143572397Y-133054949D02*
X141021597Y-133054949D01*
X147422397Y-137654949D02*
X147422397Y-136904949D01*
X147422397Y-136904949D02*
X143572397Y-133054949D01*
X132992360Y-133879950D02*
X138446596Y-133879950D01*
X131097352Y-131984942D02*
X132992360Y-133879950D01*
X131097352Y-115095352D02*
X131097352Y-131984942D01*
X122944800Y-110532800D02*
X126534800Y-110532800D01*
X139271597Y-133054949D02*
X141021597Y-133054949D01*
X138446596Y-133879950D02*
X139271597Y-133054949D01*
X126534800Y-110532800D02*
X131097352Y-115095352D01*
X141326397Y-128992949D02*
X141326397Y-132750149D01*
X141326397Y-132750149D02*
X141021597Y-133054949D01*
X134522397Y-128992949D02*
X134722397Y-128992949D01*
X131547363Y-126017915D02*
X134522397Y-128992949D01*
X131547363Y-114529363D02*
X131547363Y-126017915D01*
X127075799Y-110057799D02*
X131547363Y-114529363D01*
X123944800Y-110032800D02*
X123969799Y-110057799D01*
X122944800Y-110032800D02*
X123944800Y-110032800D01*
X123969799Y-110057799D02*
X127075799Y-110057799D01*
X134722397Y-128992949D02*
X134722397Y-133054949D01*
X132705001Y-113448261D02*
X127830877Y-108574137D01*
X132705001Y-114439821D02*
X132705001Y-113448261D01*
X131997374Y-115147448D02*
X132705001Y-114439821D01*
X123986137Y-108574137D02*
X123944800Y-108532800D01*
X131997374Y-120979750D02*
X131997374Y-115147448D01*
X141277108Y-121571971D02*
X132589596Y-121571972D01*
X144948160Y-125243023D02*
X141277108Y-121571971D01*
X123944800Y-108532800D02*
X122944800Y-108532800D01*
X127830877Y-108574137D02*
X123986137Y-108574137D01*
X132589596Y-121571972D02*
X131997374Y-120979750D01*
X149547136Y-125896960D02*
X149122872Y-125896960D01*
X152428151Y-125896960D02*
X149547136Y-125896960D01*
X152881247Y-125443864D02*
X152428151Y-125896960D01*
X158372397Y-124446949D02*
X157375482Y-125443864D01*
X157375482Y-125443864D02*
X152881247Y-125443864D01*
X160122397Y-124446949D02*
X158372397Y-124446949D01*
X122944800Y-109032800D02*
X122944800Y-108532800D01*
X153772397Y-115784949D02*
X153772397Y-119846949D01*
X153772397Y-119846949D02*
X155522397Y-119846949D01*
X155522397Y-119846949D02*
X160122397Y-124446949D01*
X132080000Y-114046000D02*
X127466789Y-109432789D01*
X127466789Y-109432789D02*
X124224564Y-109432789D01*
X118110000Y-114249799D02*
X121869799Y-110490000D01*
X121869799Y-110490000D02*
X121869799Y-109622799D01*
X121869799Y-109622799D02*
X121959798Y-109532800D01*
X121959798Y-109532800D02*
X122944800Y-109532800D01*
X118110000Y-115839200D02*
X118110000Y-114249799D01*
X120890400Y-118619600D02*
X118110000Y-115839200D01*
X120890400Y-118719600D02*
X120890400Y-118619600D01*
X124124553Y-109532800D02*
X124224564Y-109432789D01*
X122944800Y-109532800D02*
X124124553Y-109532800D01*
X160376397Y-115784949D02*
X160701388Y-115784949D01*
X160376397Y-115784949D02*
X160376397Y-119592949D01*
X160376397Y-119592949D02*
X160122397Y-119846949D01*
X128042754Y-108124126D02*
X124147820Y-108124126D01*
X124147820Y-108124126D02*
X124056494Y-108032800D01*
X124056494Y-108032800D02*
X122944800Y-108032800D01*
X132447385Y-115341140D02*
X133155012Y-114633513D01*
X133155012Y-114633513D02*
X133155012Y-113236384D01*
X132447385Y-120793350D02*
X132447385Y-115341140D01*
X132775996Y-121121961D02*
X132447385Y-120793350D01*
X136997409Y-121121961D02*
X132775996Y-121121961D01*
X145597396Y-125008358D02*
X141644858Y-121055820D01*
X145597396Y-125206950D02*
X145597396Y-125008358D01*
X149182398Y-125271950D02*
X145662396Y-125271950D01*
X136997409Y-121055820D02*
X136997409Y-121121961D01*
X153772397Y-124446949D02*
X150007399Y-124446949D01*
X150007399Y-124446949D02*
X149182398Y-125271950D01*
X145662396Y-125271950D02*
X145597396Y-125206950D01*
X133155012Y-113236384D02*
X128042754Y-108124126D01*
X141644858Y-121055820D02*
X136997409Y-121055820D01*
X147422397Y-119846949D02*
X147422397Y-116038949D01*
X147422397Y-116038949D02*
X147676397Y-115784949D01*
X153772397Y-124446949D02*
X152022397Y-124446949D01*
X152022397Y-124446949D02*
X147422397Y-119846949D01*
X124192905Y-107532800D02*
X122944800Y-107532800D01*
X133605023Y-114819913D02*
X133605023Y-113049985D01*
X133605023Y-113049985D02*
X128229153Y-107674115D01*
X132897396Y-120606950D02*
X132897396Y-115527540D01*
X136482398Y-120671950D02*
X132962396Y-120671950D01*
X136547398Y-120606950D02*
X136482398Y-120671950D01*
X136547398Y-120109948D02*
X136547398Y-120606950D01*
X132897396Y-115527540D02*
X133605023Y-114819913D01*
X132962396Y-120671950D02*
X132897396Y-120606950D01*
X140872397Y-115784949D02*
X136547398Y-120109948D01*
X141072397Y-115784949D02*
X140872397Y-115784949D01*
X124334220Y-107674115D02*
X124192905Y-107532800D01*
X128229153Y-107674115D02*
X124334220Y-107674115D01*
X121419788Y-109974212D02*
X116586000Y-114808000D01*
X121419788Y-109436399D02*
X121419788Y-109974212D01*
X121869799Y-108986388D02*
X121419788Y-109436399D01*
X121959798Y-107532800D02*
X121869799Y-107622799D01*
X122944800Y-107532800D02*
X121959798Y-107532800D01*
X121869799Y-107622799D02*
X121869799Y-108986388D01*
X105902000Y-115417600D02*
X109093113Y-115417600D01*
X109093113Y-115417600D02*
X112065026Y-118389513D01*
X141072397Y-119846949D02*
X141072397Y-115672397D01*
X147422397Y-124446949D02*
X145672397Y-124446949D01*
X145672397Y-124446949D02*
X141072397Y-119846949D01*
X134976397Y-113784949D02*
X128415552Y-107224104D01*
X124520620Y-107224104D02*
X124329316Y-107032800D01*
X134976397Y-114284949D02*
X134976397Y-113784949D01*
X128415552Y-107224104D02*
X124520620Y-107224104D01*
X124329316Y-107032800D02*
X122944800Y-107032800D01*
X135722397Y-119846949D02*
X136472397Y-119096949D01*
X134722397Y-119846949D02*
X135722397Y-119846949D01*
X136472397Y-115580949D02*
X135176397Y-114284949D01*
X135176397Y-114284949D02*
X134976397Y-114284949D01*
X136472397Y-119096949D02*
X136472397Y-115580949D01*
X121361200Y-102464198D02*
X124019801Y-105122799D01*
X124019801Y-105122799D02*
X124019801Y-106457799D01*
X121361200Y-96508000D02*
X121361200Y-102464198D01*
X124019801Y-106457799D02*
X123944800Y-106532800D01*
X123944800Y-106532800D02*
X122944800Y-106532800D01*
X121361200Y-96508000D02*
X123696200Y-96508000D01*
X123696200Y-96508000D02*
X125171200Y-95033000D01*
X125171200Y-95033000D02*
X125171200Y-95008000D01*
X125222000Y-93256800D02*
X125222000Y-94957200D01*
X125222000Y-94957200D02*
X125171200Y-95008000D01*
X121719238Y-106032800D02*
X122944800Y-106032800D01*
X120726199Y-97233001D02*
X120872995Y-97233001D01*
X121361200Y-95033000D02*
X120661199Y-95733001D01*
X120661199Y-97168001D02*
X120726199Y-97233001D01*
X121361200Y-95008000D02*
X121361200Y-95033000D01*
X120872995Y-97233001D02*
X120872995Y-105186557D01*
X120872995Y-105186557D02*
X121719238Y-106032800D01*
X120661199Y-95733001D02*
X120661199Y-97168001D01*
X121361200Y-93218000D02*
X121361200Y-95008000D01*
X118262400Y-93218000D02*
X121361200Y-93218000D01*
X109118400Y-133894800D02*
X108118400Y-133894800D01*
X108118400Y-133894800D02*
X107010380Y-132786780D01*
X107010380Y-132786780D02*
X107010380Y-119417786D01*
X107010380Y-119417786D02*
X109597134Y-116831032D01*
X109118400Y-133894800D02*
X110118400Y-133894800D01*
X110118400Y-133894800D02*
X111116779Y-134893179D01*
X111116779Y-134893179D02*
X111116779Y-139672721D01*
X111116779Y-139672721D02*
X122201279Y-139672721D01*
X122201279Y-139672721D02*
X122428000Y-139446000D01*
X121275600Y-138293600D02*
X121275600Y-136941600D01*
X122428000Y-139446000D02*
X121275600Y-138293600D01*
X118369627Y-109726144D02*
X118176283Y-109532800D01*
X118176283Y-109532800D02*
X117144800Y-109532800D01*
X106680000Y-88732400D02*
X106680000Y-85852000D01*
X111153600Y-93206000D02*
X111353600Y-93206000D01*
X106680000Y-88732400D02*
X111153600Y-93206000D01*
X111353600Y-95312800D02*
X114603200Y-95312800D01*
X114603200Y-95312800D02*
X114655600Y-95365200D01*
X111353600Y-95312800D02*
X111353600Y-93206000D01*
X114655600Y-97065200D02*
X115305600Y-97065200D01*
X115842800Y-97602400D02*
X115842800Y-101310400D01*
X115305600Y-97065200D02*
X115842800Y-97602400D01*
X111353600Y-96812800D02*
X114403200Y-96812800D01*
X114403200Y-96812800D02*
X114655600Y-97065200D01*
X143385546Y-112671800D02*
X160558522Y-112671800D01*
X141772397Y-114284949D02*
X143385546Y-112671800D01*
X156066000Y-52920000D02*
X157716000Y-52920000D01*
X153162000Y-55824000D02*
X156066000Y-52920000D01*
X160808751Y-68352751D02*
X153162000Y-60706000D01*
X160808751Y-112421571D02*
X160808751Y-68352751D01*
X160558522Y-112671800D02*
X160808751Y-112421571D01*
X153162000Y-60706000D02*
X153162000Y-55824000D01*
X141072397Y-114284949D02*
X141772397Y-114284949D01*
X108677200Y-100192800D02*
X111555983Y-100192800D01*
X111555983Y-100192800D02*
X112385851Y-101022668D01*
X112385851Y-103070940D02*
X113962911Y-104648000D01*
X115653736Y-104648000D02*
X116078000Y-104648000D01*
X112385851Y-101022668D02*
X112385851Y-103070940D01*
X113962911Y-104648000D02*
X115653736Y-104648000D01*
X108677200Y-100192800D02*
X108627200Y-100192800D01*
X108627200Y-100192800D02*
X107477184Y-101342816D01*
X107477184Y-101342816D02*
X107477184Y-103524384D01*
X107477184Y-103524384D02*
X108626400Y-104673600D01*
X108626400Y-104673600D02*
X108626400Y-105323600D01*
X136261399Y-114284949D02*
X128575553Y-106599103D01*
X141072397Y-114284949D02*
X136261399Y-114284949D01*
X128575553Y-106599103D02*
X124820621Y-106599103D01*
X154511375Y-55118000D02*
X153670000Y-55959375D01*
X161258762Y-112607971D02*
X160744922Y-113121811D01*
X149539535Y-113121811D02*
X148376397Y-114284949D01*
X148376397Y-114284949D02*
X147676397Y-114284949D01*
X160744922Y-113121811D02*
X149539535Y-113121811D01*
X161258762Y-68040762D02*
X161258762Y-112607971D01*
X153670000Y-60452000D02*
X161258762Y-68040762D01*
X161916000Y-52920000D02*
X159718000Y-55118000D01*
X159718000Y-55118000D02*
X154511375Y-55118000D01*
X153670000Y-55959375D02*
X153670000Y-60452000D01*
X154178000Y-60198000D02*
X161708773Y-67728773D01*
X154472397Y-114284949D02*
X153772397Y-114284949D01*
X166116000Y-52920000D02*
X163410000Y-55626000D01*
X159804522Y-113571822D02*
X159091395Y-114284949D01*
X163410000Y-55626000D02*
X154686000Y-55626000D01*
X154686000Y-55626000D02*
X154178000Y-56134000D01*
X154178000Y-56134000D02*
X154178000Y-60198000D01*
X160931322Y-113571822D02*
X159804522Y-113571822D01*
X161708773Y-67728773D02*
X161708773Y-112794371D01*
X159091395Y-114284949D02*
X154472397Y-114284949D01*
X161708773Y-112794371D02*
X160931322Y-113571822D01*
X152439560Y-126521962D02*
X153067647Y-125893875D01*
X148822870Y-126521962D02*
X152439560Y-126521962D01*
X148226919Y-125926011D02*
X148822870Y-126521962D01*
X135422397Y-127492949D02*
X136989335Y-125926011D01*
X134722397Y-127492949D02*
X135422397Y-127492949D01*
X161947398Y-125206950D02*
X161947398Y-115655950D01*
X161947398Y-115655950D02*
X160576397Y-114284949D01*
X153067647Y-125893875D02*
X161260473Y-125893875D01*
X161260473Y-125893875D02*
X161947398Y-125206950D01*
X136989335Y-125926011D02*
X148226919Y-125926011D01*
X160576397Y-114284949D02*
X160854606Y-114284949D01*
X154940000Y-56366204D02*
X155172204Y-56134000D01*
X160854606Y-114284949D02*
X162158784Y-112980771D01*
X155172204Y-56134000D02*
X167102000Y-56134000D01*
X162158784Y-112980771D02*
X162158784Y-67162784D01*
X154940000Y-59944000D02*
X154940000Y-56366204D01*
X162158784Y-67162784D02*
X154940000Y-59944000D01*
X167102000Y-56134000D02*
X170316000Y-52920000D01*
X160576397Y-114284949D02*
X160376397Y-114284949D01*
X122759600Y-131372000D02*
X122759600Y-131572000D01*
X142026397Y-127492949D02*
X141326397Y-127492949D01*
X152625960Y-126971973D02*
X148470896Y-126971973D01*
X142968395Y-126550951D02*
X142026397Y-127492949D01*
X161446873Y-126343886D02*
X153254047Y-126343886D01*
X153254047Y-126343886D02*
X152625960Y-126971973D01*
X162741509Y-66874491D02*
X162741509Y-125049250D01*
X148470896Y-126971973D02*
X148049874Y-126550951D01*
X157716000Y-61848982D02*
X162741509Y-66874491D01*
X157716000Y-58420000D02*
X157716000Y-61848982D01*
X148049874Y-126550951D02*
X142968395Y-126550951D01*
X162741509Y-125049250D02*
X161446873Y-126343886D01*
X147422397Y-127492949D02*
X152838480Y-127492949D01*
X161633273Y-126793897D02*
X163068000Y-125359170D01*
X152838480Y-127492949D02*
X153537532Y-126793897D01*
X153537532Y-126793897D02*
X161633273Y-126793897D01*
X163068000Y-125359170D02*
X163191520Y-125235650D01*
X163322000Y-66548000D02*
X163322000Y-125105170D01*
X163322000Y-125105170D02*
X163068000Y-125359170D01*
X161798000Y-65024000D02*
X163322000Y-66548000D01*
X161798000Y-60517898D02*
X161798000Y-65024000D01*
X161916000Y-58420000D02*
X161916000Y-60399898D01*
X161916000Y-60399898D02*
X161798000Y-60517898D01*
X154026397Y-127492949D02*
X154726397Y-127492949D01*
X154726397Y-127492949D02*
X155301398Y-128067950D01*
X155301398Y-128067950D02*
X162268452Y-128067950D01*
X162268452Y-128067950D02*
X164417062Y-125919340D01*
X164417062Y-125919340D02*
X164417062Y-66468938D01*
X164417062Y-66468938D02*
X167640000Y-63246000D01*
X167640000Y-63246000D02*
X167640000Y-59944000D01*
X167640000Y-59944000D02*
X166116000Y-58420000D01*
X123952000Y-137318000D02*
X123952000Y-144780000D01*
X123275600Y-135991600D02*
X123275600Y-136641600D01*
X123275600Y-136641600D02*
X123952000Y-137318000D01*
X170316000Y-58420000D02*
X168490696Y-56594696D01*
X163830000Y-58152998D02*
X163830000Y-125869992D01*
X162207043Y-127492949D02*
X160822397Y-127492949D01*
X168490696Y-56594696D02*
X165388302Y-56594696D01*
X165388302Y-56594696D02*
X163830000Y-58152998D01*
X163830000Y-125869992D02*
X162207043Y-127492949D01*
X160822397Y-127492949D02*
X160122397Y-127492949D01*
X121412000Y-126746000D02*
X121412000Y-127170264D01*
X123975600Y-134641600D02*
X123275600Y-135341600D01*
X121412000Y-127170264D02*
X123975600Y-129733864D01*
X123975600Y-129733864D02*
X123975600Y-134641600D01*
X123275600Y-135341600D02*
X123275600Y-135991600D01*
X119392000Y-122174000D02*
X119392000Y-124726000D01*
X119392000Y-124726000D02*
X119888000Y-125222000D01*
X110677200Y-101142800D02*
X110677200Y-106222800D01*
X110677200Y-106222800D02*
X110626400Y-106273600D01*
X104940998Y-109474000D02*
X102616000Y-109474000D01*
X110626400Y-106273600D02*
X108141398Y-106273600D01*
X108141398Y-106273600D02*
X104940998Y-109474000D01*
X113842800Y-102260400D02*
X114256389Y-102673989D01*
X118005419Y-105992800D02*
X117144800Y-105992800D01*
X118219801Y-105082799D02*
X118219801Y-105778418D01*
X118219801Y-105778418D02*
X118005419Y-105992800D01*
X118154801Y-105017799D02*
X118219801Y-105082799D01*
X117594810Y-104258400D02*
X117594810Y-105017799D01*
X117594810Y-105017799D02*
X118154801Y-105017799D01*
X116010400Y-102673989D02*
X117594810Y-104258400D01*
X114256389Y-102673989D02*
X116010400Y-102673989D01*
X113842800Y-102260400D02*
X113843220Y-102260820D01*
X113843220Y-102260820D02*
X113843220Y-102270019D01*
X108844800Y-102260400D02*
X108677200Y-102092800D01*
X122016652Y-124089725D02*
X122016652Y-124513989D01*
X122224573Y-120777838D02*
X121985274Y-121017137D01*
X122224573Y-117780840D02*
X122224573Y-120777838D01*
X121985274Y-124058347D02*
X122016652Y-124089725D01*
X121985274Y-117541541D02*
X122224573Y-117780840D01*
X121985274Y-113563722D02*
X121985274Y-117541541D01*
X124232631Y-112729971D02*
X123795604Y-113166998D01*
X123795604Y-113166998D02*
X122381998Y-113166998D01*
X124232631Y-112107821D02*
X124232631Y-112729971D01*
X121985274Y-121017137D02*
X121985274Y-124058347D01*
X122381998Y-113166998D02*
X121985274Y-113563722D01*
X117699659Y-123127487D02*
X117699659Y-124638903D01*
X109039772Y-114467600D02*
X117699659Y-123127487D01*
X103902000Y-114467600D02*
X109039772Y-114467600D01*
X133604000Y-105156000D02*
X133604000Y-104736400D01*
X133604000Y-104736400D02*
X133592000Y-104724400D01*
X105194800Y-118618000D02*
X105194800Y-118418000D01*
X103694800Y-112917200D02*
X103694800Y-112217200D01*
X105194800Y-118418000D02*
X104213290Y-117436490D01*
X104213290Y-117436490D02*
X103236582Y-117436490D01*
X103236582Y-117436490D02*
X102936391Y-117136299D01*
X102936391Y-117136299D02*
X102936391Y-113675609D01*
X102936391Y-113675609D02*
X103694800Y-112917200D01*
X103694800Y-112017200D02*
X104887967Y-110824033D01*
X104887967Y-110824033D02*
X114395649Y-110824033D01*
X114395649Y-110824033D02*
X115719901Y-109499781D01*
X103694800Y-112217200D02*
X103694800Y-112017200D01*
X115998999Y-107974758D02*
X115824000Y-107799759D01*
X117126758Y-107974758D02*
X115998999Y-107974758D01*
X117144800Y-107992800D02*
X117126758Y-107974758D01*
X114655600Y-91706000D02*
X115355600Y-91706000D01*
X115355600Y-91706000D02*
X116318716Y-90742884D01*
X116318716Y-90742884D02*
X119686084Y-90742884D01*
X119686084Y-90742884D02*
X120661200Y-91718000D01*
X120661200Y-91718000D02*
X121361200Y-91718000D01*
X125222000Y-85090000D02*
X125222000Y-88057200D01*
X125222000Y-88057200D02*
X121561200Y-91718000D01*
X121561200Y-91718000D02*
X121361200Y-91718000D01*
X111133199Y-125184799D02*
X108388804Y-125184799D01*
X114523200Y-128574800D02*
X111133199Y-125184799D01*
X108388804Y-125184799D02*
X108088805Y-125484798D01*
X115023200Y-128574800D02*
X114523200Y-128574800D01*
X116040981Y-111532800D02*
X116008815Y-111564966D01*
X117144800Y-111532800D02*
X116040981Y-111532800D01*
X112835862Y-101832336D02*
X112835862Y-102884540D01*
X114655600Y-93206000D02*
X114655600Y-93706000D01*
X116894703Y-95945103D02*
X116894703Y-101693499D01*
X113305091Y-101363107D02*
X112835862Y-101832336D01*
X114380509Y-101363107D02*
X113305091Y-101363107D01*
X114655600Y-93706000D02*
X116894703Y-95945103D01*
X113075322Y-103124000D02*
X115824000Y-103124000D01*
X116894703Y-101693499D02*
X116480202Y-102108000D01*
X112835862Y-102884540D02*
X113075322Y-103124000D01*
X116480202Y-102108000D02*
X115125402Y-102108000D01*
X115125402Y-102108000D02*
X114380509Y-101363107D01*
X115824000Y-103124000D02*
X117144800Y-104444800D01*
X117144800Y-104444800D02*
X117144800Y-105492800D01*
X116840000Y-85852000D02*
X116840000Y-86702000D01*
X116840000Y-86702000D02*
X113880599Y-89661401D01*
X113880599Y-89661401D02*
X113880599Y-92630999D01*
X113880599Y-92630999D02*
X114455600Y-93206000D01*
X114455600Y-93206000D02*
X114655600Y-93206000D01*
X108626400Y-107223600D02*
X114428998Y-107223600D01*
X114428998Y-107223600D02*
X116159798Y-105492800D01*
X116159798Y-105492800D02*
X117144800Y-105492800D01*
X118300784Y-107030716D02*
X119336267Y-107030716D01*
X121604124Y-107252063D02*
X121244789Y-107611398D01*
X121244789Y-107611398D02*
X121244789Y-107691872D01*
X117144800Y-106992800D02*
X118262868Y-106992800D01*
X121067012Y-106016985D02*
X121604124Y-106554097D01*
X120349998Y-106016985D02*
X121067012Y-106016985D01*
X121604124Y-106554097D02*
X121604124Y-107252063D01*
X118262868Y-106992800D02*
X118300784Y-107030716D01*
X119336267Y-107030716D02*
X120349998Y-106016985D01*
X125111219Y-105810337D02*
X124686955Y-105810337D01*
X133592000Y-103724400D02*
X126730622Y-103724400D01*
X126730622Y-103724400D02*
X126368011Y-104087011D01*
X126368011Y-104553545D02*
X125111219Y-105810337D01*
X126368011Y-104087011D02*
X126368011Y-104553545D01*
X125106595Y-104712016D02*
X124934914Y-104712016D01*
X124934914Y-104712016D02*
X124634915Y-105012015D01*
X133592000Y-103224400D02*
X126594211Y-103224400D01*
X126594211Y-103224400D02*
X125106595Y-104712016D01*
X120248942Y-106790437D02*
X120915461Y-106790437D01*
X117144800Y-107492800D02*
X119546579Y-107492800D01*
X119546579Y-107492800D02*
X120248942Y-106790437D01*
X126993012Y-104387012D02*
X127417276Y-104387012D01*
X127417276Y-104387012D02*
X127579888Y-104224400D01*
X127579888Y-104224400D02*
X133592000Y-104224400D01*
X122944800Y-105391598D02*
X122936000Y-105382798D01*
X122944800Y-105532800D02*
X122944800Y-105391598D01*
X116523200Y-128574800D02*
X116523200Y-127639009D01*
X116523200Y-127639009D02*
X116708991Y-127639009D01*
X116708991Y-127639009D02*
X118735002Y-125612998D01*
X118735002Y-125612998D02*
X118735002Y-119824998D01*
X118735002Y-119824998D02*
X119190400Y-119369600D01*
X119190400Y-119369600D02*
X119190400Y-118719600D01*
X116523200Y-128774800D02*
X115570000Y-129728000D01*
X115383805Y-114813005D02*
X115383805Y-110895307D01*
X119190400Y-118619600D02*
X115383805Y-114813005D01*
X119190400Y-118719600D02*
X119190400Y-118619600D01*
X115383805Y-110895307D02*
X116046288Y-110232824D01*
X116046288Y-110232824D02*
X116046288Y-110032800D01*
X116046288Y-110032800D02*
X117144800Y-110032800D01*
X116523200Y-128774800D02*
X116523200Y-128574800D01*
X121275600Y-131588000D02*
X121259600Y-131572000D01*
X134722397Y-137654949D02*
X141021597Y-137654949D01*
X121774562Y-117967240D02*
X119275722Y-115468400D01*
X120892000Y-121474000D02*
X121774562Y-120591438D01*
X120892000Y-122174000D02*
X120892000Y-121474000D01*
X119275722Y-115468400D02*
X119139600Y-115468400D01*
X121774562Y-120591438D02*
X121774562Y-117967240D01*
X120892000Y-122174000D02*
X120892000Y-122874000D01*
X120892000Y-122874000D02*
X121391642Y-123373642D01*
X121391642Y-125372014D02*
X120803031Y-125960625D01*
X120546175Y-125960625D02*
X115834800Y-130672000D01*
X115834800Y-130672000D02*
X115834800Y-131572000D01*
X121391642Y-123373642D02*
X121391642Y-125372014D01*
X120803031Y-125960625D02*
X120546175Y-125960625D01*
X117094000Y-113030000D02*
X117094000Y-112583600D01*
X117094000Y-112583600D02*
X117144800Y-112532800D01*
X132595587Y-100724400D02*
X132692000Y-100724400D01*
X131809164Y-98231628D02*
X131809164Y-99937977D01*
X146304000Y-62738000D02*
X153657000Y-62738000D01*
X134937596Y-95882391D02*
X134158401Y-95882391D01*
X134158401Y-95882391D02*
X131809164Y-98231628D01*
X159908729Y-68989729D02*
X159908729Y-70911258D01*
X159908729Y-70911258D02*
X134937596Y-95882391D01*
X153657000Y-62738000D02*
X159908729Y-68989729D01*
X131809164Y-99937977D02*
X132595587Y-100724400D01*
X132692000Y-100724400D02*
X133592000Y-100724400D01*
X146037000Y-62738000D02*
X146304000Y-62738000D01*
X142804000Y-60358000D02*
X142804000Y-61283000D01*
X142804000Y-61283000D02*
X144259000Y-62738000D01*
X144259000Y-62738000D02*
X146304000Y-62738000D01*
X143454000Y-60358000D02*
X143454000Y-61168002D01*
X144429085Y-62143087D02*
X153698498Y-62143087D01*
X160358740Y-68803329D02*
X160358740Y-95556756D01*
X153698498Y-62143087D02*
X160358740Y-68803329D01*
X160358740Y-95556756D02*
X159583094Y-96332402D01*
X143454000Y-61168002D02*
X144429085Y-62143087D01*
X159583094Y-96332402D02*
X134344801Y-96332402D01*
X134344801Y-96332402D02*
X132259175Y-98418028D01*
X132259175Y-98418028D02*
X132259175Y-99751577D01*
X132259175Y-99751577D02*
X132731998Y-100224400D01*
X132731998Y-100224400D02*
X133592000Y-100224400D01*
X193356800Y-87438800D02*
X193356800Y-86938800D01*
X193356800Y-86938800D02*
X197104000Y-83191600D01*
X197104000Y-83191600D02*
X197104000Y-82296000D01*
D43*
X208708000Y-136144000D02*
X213614000Y-136144000D01*
X213868000Y-136398000D02*
X218186000Y-140716000D01*
X213614000Y-136144000D02*
X213868000Y-136398000D01*
D44*
X218186000Y-140716000D02*
X218186000Y-146422000D01*
X218186000Y-146422000D02*
X218322000Y-146558000D01*
X218322000Y-146558000D02*
X219022000Y-146558000D01*
D43*
X211226400Y-92303600D02*
X211836000Y-91694000D01*
X209042000Y-92303600D02*
X211226400Y-92303600D01*
D45*
G36*
X110363000Y-57175344D02*
X110184106Y-56743455D01*
X109875724Y-56595882D01*
X108613605Y-57858000D01*
X109875724Y-59120118D01*
X110184106Y-58972545D01*
X110363000Y-58512301D01*
X110363000Y-69675344D01*
X110184106Y-69243455D01*
X109875724Y-69095882D01*
X108613605Y-70358000D01*
X109875724Y-71620118D01*
X110184106Y-71472545D01*
X110363000Y-71012301D01*
X110363000Y-74803000D01*
X78740000Y-74803000D01*
X78690590Y-74813006D01*
X78648965Y-74841447D01*
X78621685Y-74883841D01*
X78613003Y-74930941D01*
X78820806Y-102984392D01*
X77074017Y-104731181D01*
X76626541Y-104545372D01*
X75777185Y-104544630D01*
X74992200Y-104868980D01*
X74391091Y-105469041D01*
X74065372Y-106253459D01*
X74064630Y-107102815D01*
X74388980Y-107887800D01*
X74989041Y-108488909D01*
X75773459Y-108814628D01*
X76622815Y-108815370D01*
X77407800Y-108491020D01*
X78008909Y-107890959D01*
X78334628Y-107106541D01*
X78335370Y-106257185D01*
X78148902Y-105805900D01*
X78836612Y-105118190D01*
X78867003Y-109220941D01*
X78877375Y-109270275D01*
X78906123Y-109311688D01*
X78948719Y-109338653D01*
X78994000Y-109347000D01*
X103588269Y-109347000D01*
X103528988Y-109386610D01*
X100945438Y-111970160D01*
X98372800Y-111970160D01*
X98137483Y-112014438D01*
X97921359Y-112153510D01*
X97776369Y-112365710D01*
X97725360Y-112617600D01*
X97725360Y-113617600D01*
X97769638Y-113852917D01*
X97811393Y-113917805D01*
X95900017Y-115829181D01*
X95888290Y-115821169D01*
X95636400Y-115770160D01*
X93136400Y-115770160D01*
X92901083Y-115814438D01*
X92684959Y-115953510D01*
X92539969Y-116165710D01*
X92488960Y-116417600D01*
X92488960Y-117417600D01*
X92533238Y-117652917D01*
X92672310Y-117869041D01*
X92884510Y-118014031D01*
X93136400Y-118065040D01*
X95636400Y-118065040D01*
X95871717Y-118020762D01*
X96087841Y-117881690D01*
X96232831Y-117669490D01*
X96253179Y-117569006D01*
X96423801Y-117455001D01*
X96661202Y-117217600D01*
X97725360Y-117217600D01*
X97725360Y-118217600D01*
X97769638Y-118452917D01*
X97908710Y-118669041D01*
X98120910Y-118814031D01*
X98372800Y-118865040D01*
X101372800Y-118865040D01*
X101608117Y-118820762D01*
X101824241Y-118681690D01*
X101969231Y-118469490D01*
X102020240Y-118217600D01*
X102020240Y-117217600D01*
X101975962Y-116982283D01*
X101836890Y-116766159D01*
X101624690Y-116621169D01*
X101372800Y-116570160D01*
X98372800Y-116570160D01*
X98137483Y-116614438D01*
X97921359Y-116753510D01*
X97776369Y-116965710D01*
X97725360Y-117217600D01*
X96661202Y-117217600D01*
X98940519Y-114938283D01*
X101397119Y-114938283D01*
X101687958Y-114880431D01*
X101934520Y-114715684D01*
X102176391Y-114473813D01*
X102176391Y-117136299D01*
X102234243Y-117427138D01*
X102398990Y-117673700D01*
X102699181Y-117973891D01*
X102820282Y-118054808D01*
X102797360Y-118168000D01*
X102797360Y-118341137D01*
X102759962Y-118431201D01*
X102759638Y-118803167D01*
X102797360Y-118894461D01*
X102797360Y-119068000D01*
X102841638Y-119303317D01*
X102980710Y-119519441D01*
X103192910Y-119664431D01*
X103444800Y-119715440D01*
X103944800Y-119715440D01*
X104180117Y-119671162D01*
X104396241Y-119532090D01*
X104443934Y-119462289D01*
X104480710Y-119519441D01*
X104692910Y-119664431D01*
X104944800Y-119715440D01*
X105444800Y-119715440D01*
X105680117Y-119671162D01*
X105896241Y-119532090D01*
X106041231Y-119319890D01*
X106092240Y-119068000D01*
X106092240Y-118168000D01*
X106047962Y-117932683D01*
X105908890Y-117716559D01*
X105696690Y-117571569D01*
X105444800Y-117520560D01*
X105372162Y-117520560D01*
X104917038Y-117065436D01*
X104948431Y-117019490D01*
X104999440Y-116767600D01*
X104999440Y-116276919D01*
X105200110Y-116414031D01*
X105452000Y-116465040D01*
X106352000Y-116465040D01*
X106587317Y-116420762D01*
X106803441Y-116281690D01*
X106874563Y-116177600D01*
X108778311Y-116177600D01*
X108853221Y-116252510D01*
X108804942Y-116300705D01*
X108662296Y-116644233D01*
X108662255Y-116691109D01*
X106472979Y-118880385D01*
X106308232Y-119126947D01*
X106250380Y-119417786D01*
X106250380Y-119761000D01*
X91567000Y-119761000D01*
X91567000Y-114300000D01*
X91556994Y-114250590D01*
X91528553Y-114208965D01*
X91486159Y-114181685D01*
X91440000Y-114173000D01*
X78994000Y-114173000D01*
X78944590Y-114183006D01*
X78902965Y-114211447D01*
X78875685Y-114253841D01*
X78867005Y-114298896D01*
X78613005Y-143508896D01*
X78622581Y-143558391D01*
X78650658Y-143600261D01*
X78692814Y-143627909D01*
X78739603Y-143636999D01*
X200659603Y-144017999D01*
X200709044Y-144008148D01*
X200750757Y-143979837D01*
X200778170Y-143937529D01*
X200786998Y-143890380D01*
X200750605Y-136429750D01*
X202423000Y-136429750D01*
X202423000Y-136920310D01*
X202519673Y-137153699D01*
X202698302Y-137332327D01*
X202931691Y-137429000D01*
X203422250Y-137429000D01*
X203581000Y-137270250D01*
X203581000Y-136271000D01*
X203835000Y-136271000D01*
X203835000Y-137270250D01*
X203993750Y-137429000D01*
X204484309Y-137429000D01*
X204717698Y-137332327D01*
X204896327Y-137153699D01*
X204993000Y-136920310D01*
X204993000Y-136429750D01*
X204834250Y-136271000D01*
X203835000Y-136271000D01*
X203581000Y-136271000D01*
X202581750Y-136271000D01*
X202423000Y-136429750D01*
X200750605Y-136429750D01*
X200745425Y-135367690D01*
X202423000Y-135367690D01*
X202423000Y-135858250D01*
X202581750Y-136017000D01*
X203581000Y-136017000D01*
X203581000Y-135017750D01*
X203835000Y-135017750D01*
X203835000Y-136017000D01*
X204834250Y-136017000D01*
X204993000Y-135858250D01*
X204993000Y-135367690D01*
X204896327Y-135134301D01*
X204717698Y-134955673D01*
X204484309Y-134859000D01*
X203993750Y-134859000D01*
X203835000Y-135017750D01*
X203581000Y-135017750D01*
X203422250Y-134859000D01*
X202931691Y-134859000D01*
X202698302Y-134955673D01*
X202519673Y-135134301D01*
X202423000Y-135367690D01*
X200745425Y-135367690D01*
X200660001Y-117856094D01*
X200786999Y-91440611D01*
X200777230Y-91391153D01*
X200748990Y-91349392D01*
X200706727Y-91321909D01*
X200660000Y-91313000D01*
X195961000Y-91313000D01*
X195961000Y-89662000D01*
X195950994Y-89612590D01*
X195922553Y-89570965D01*
X195880159Y-89543685D01*
X195834000Y-89535000D01*
X194350718Y-89535000D01*
X194441800Y-89315109D01*
X194441800Y-89222550D01*
X194283050Y-89063800D01*
X193483800Y-89063800D01*
X193483800Y-89085800D01*
X193229800Y-89085800D01*
X193229800Y-89063800D01*
X193209800Y-89063800D01*
X193209800Y-88813800D01*
X193229800Y-88813800D01*
X193229800Y-88791800D01*
X193483800Y-88791800D01*
X193483800Y-88813800D01*
X194283050Y-88813800D01*
X194441800Y-88655050D01*
X194441800Y-88562491D01*
X194423785Y-88519000D01*
X196469000Y-88519000D01*
X196469000Y-90678000D01*
X196479006Y-90727410D01*
X196507447Y-90769035D01*
X196549841Y-90796315D01*
X196596000Y-90805000D01*
X200660000Y-90805000D01*
X200709410Y-90794994D01*
X200751035Y-90766553D01*
X200778315Y-90724159D01*
X200787000Y-90678000D01*
X200787000Y-90166608D01*
X200900590Y-90053018D01*
X200956271Y-90283611D01*
X201439078Y-90451622D01*
X201949428Y-90422083D01*
X202283729Y-90283611D01*
X202339410Y-90053016D01*
X201620000Y-89333605D01*
X201605858Y-89347748D01*
X201426252Y-89168142D01*
X201440395Y-89154000D01*
X201799605Y-89154000D01*
X202519016Y-89873410D01*
X202749611Y-89817729D01*
X202917622Y-89334922D01*
X202888083Y-88824572D01*
X202749611Y-88490271D01*
X202519016Y-88434590D01*
X201799605Y-89154000D01*
X201440395Y-89154000D01*
X201426252Y-89139858D01*
X201605858Y-88960252D01*
X201620000Y-88974395D01*
X202339410Y-88254984D01*
X202283729Y-88024389D01*
X201800922Y-87856378D01*
X201290572Y-87885917D01*
X200956271Y-88024389D01*
X200900590Y-88254982D01*
X200787000Y-88141392D01*
X200787000Y-63450784D01*
X200822507Y-63397644D01*
X200903195Y-62992000D01*
X200924805Y-62992000D01*
X201005493Y-63397644D01*
X201235272Y-63741533D01*
X201579161Y-63971312D01*
X201984805Y-64052000D01*
X202383195Y-64052000D01*
X202788839Y-63971312D01*
X203132728Y-63741533D01*
X203362507Y-63397644D01*
X203385497Y-63282062D01*
X203529460Y-63282062D01*
X203717336Y-63655570D01*
X204034580Y-63923323D01*
X204430140Y-64049290D01*
X204597000Y-63896117D01*
X204597000Y-63119000D01*
X204851000Y-63119000D01*
X204851000Y-63896117D01*
X205017860Y-64049290D01*
X205413420Y-63923323D01*
X205730664Y-63655570D01*
X205918540Y-63282062D01*
X206069460Y-63282062D01*
X206257336Y-63655570D01*
X206574580Y-63923323D01*
X206970140Y-64049290D01*
X207137000Y-63896117D01*
X207137000Y-63119000D01*
X207391000Y-63119000D01*
X207391000Y-63896117D01*
X207557860Y-64049290D01*
X207953420Y-63923323D01*
X208270664Y-63655570D01*
X208458540Y-63282062D01*
X208609460Y-63282062D01*
X208797336Y-63655570D01*
X209114580Y-63923323D01*
X209510140Y-64049290D01*
X209677000Y-63896117D01*
X209677000Y-63119000D01*
X209931000Y-63119000D01*
X209931000Y-63896117D01*
X210097860Y-64049290D01*
X210493420Y-63923323D01*
X210810664Y-63655570D01*
X210998540Y-63282062D01*
X210871257Y-63119000D01*
X209931000Y-63119000D01*
X209677000Y-63119000D01*
X208736743Y-63119000D01*
X208609460Y-63282062D01*
X208458540Y-63282062D01*
X208331257Y-63119000D01*
X207391000Y-63119000D01*
X207137000Y-63119000D01*
X206196743Y-63119000D01*
X206069460Y-63282062D01*
X205918540Y-63282062D01*
X205791257Y-63119000D01*
X204851000Y-63119000D01*
X204597000Y-63119000D01*
X203656743Y-63119000D01*
X203529460Y-63282062D01*
X203385497Y-63282062D01*
X203443195Y-62992000D01*
X203385498Y-62701938D01*
X203529460Y-62701938D01*
X203656743Y-62865000D01*
X204597000Y-62865000D01*
X204597000Y-62087883D01*
X204851000Y-62087883D01*
X204851000Y-62865000D01*
X205791257Y-62865000D01*
X205918540Y-62701938D01*
X206069460Y-62701938D01*
X206196743Y-62865000D01*
X207137000Y-62865000D01*
X207137000Y-62087883D01*
X207391000Y-62087883D01*
X207391000Y-62865000D01*
X208331257Y-62865000D01*
X208458540Y-62701938D01*
X208609460Y-62701938D01*
X208736743Y-62865000D01*
X209677000Y-62865000D01*
X209677000Y-62087883D01*
X209931000Y-62087883D01*
X209931000Y-62865000D01*
X210871257Y-62865000D01*
X210998540Y-62701938D01*
X210810664Y-62328430D01*
X210493420Y-62060677D01*
X210097860Y-61934710D01*
X209931000Y-62087883D01*
X209677000Y-62087883D01*
X209510140Y-61934710D01*
X209114580Y-62060677D01*
X208797336Y-62328430D01*
X208609460Y-62701938D01*
X208458540Y-62701938D01*
X208270664Y-62328430D01*
X207953420Y-62060677D01*
X207557860Y-61934710D01*
X207391000Y-62087883D01*
X207137000Y-62087883D01*
X206970140Y-61934710D01*
X206574580Y-62060677D01*
X206257336Y-62328430D01*
X206069460Y-62701938D01*
X205918540Y-62701938D01*
X205730664Y-62328430D01*
X205413420Y-62060677D01*
X205017860Y-61934710D01*
X204851000Y-62087883D01*
X204597000Y-62087883D01*
X204430140Y-61934710D01*
X204034580Y-62060677D01*
X203717336Y-62328430D01*
X203529460Y-62701938D01*
X203385498Y-62701938D01*
X203362507Y-62586356D01*
X203132728Y-62242467D01*
X202788839Y-62012688D01*
X202383195Y-61932000D01*
X201984805Y-61932000D01*
X201579161Y-62012688D01*
X201235272Y-62242467D01*
X201005493Y-62586356D01*
X200924805Y-62992000D01*
X200903195Y-62992000D01*
X200822507Y-62586356D01*
X200787000Y-62533216D01*
X200787000Y-61849000D01*
X211201000Y-61849000D01*
X211201000Y-62568944D01*
X211124805Y-62952000D01*
X211201000Y-63335056D01*
X211201000Y-64897000D01*
X205740000Y-64897000D01*
X205690590Y-64907006D01*
X205648965Y-64935447D01*
X205621685Y-64977841D01*
X205613000Y-65024000D01*
X205613000Y-67056000D01*
X205623006Y-67105410D01*
X205651447Y-67147035D01*
X205693841Y-67174315D01*
X205740000Y-67183000D01*
X247074179Y-67183000D01*
X247087261Y-67214582D01*
X247406030Y-67374365D01*
X247597395Y-67183000D01*
X247956605Y-67183000D01*
X247585635Y-67553970D01*
X247745418Y-67872739D01*
X248536187Y-68182723D01*
X249385387Y-68166497D01*
X250094582Y-67872739D01*
X250254365Y-67553970D01*
X249883395Y-67183000D01*
X250242605Y-67183000D01*
X250433970Y-67374365D01*
X250752739Y-67214582D01*
X250765119Y-67183000D01*
X251333000Y-67183000D01*
X251333000Y-69723000D01*
X250542150Y-69723000D01*
X250130959Y-69311091D01*
X249346541Y-68985372D01*
X248497185Y-68984630D01*
X247712200Y-69308980D01*
X247297457Y-69723000D01*
X205740000Y-69723000D01*
X205690590Y-69733006D01*
X205648965Y-69761447D01*
X205621685Y-69803841D01*
X205613000Y-69850000D01*
X205613000Y-124460000D01*
X205623006Y-124509410D01*
X205651447Y-124551035D01*
X205693841Y-124578315D01*
X205740000Y-124587000D01*
X246380000Y-124587000D01*
X246429410Y-124576994D01*
X246471035Y-124548553D01*
X246498315Y-124506159D01*
X246507000Y-124460000D01*
X246507000Y-123433970D01*
X247585635Y-123433970D01*
X247745418Y-123752739D01*
X248536187Y-124062723D01*
X249385387Y-124046497D01*
X250094582Y-123752739D01*
X250254365Y-123433970D01*
X248920000Y-122099605D01*
X247585635Y-123433970D01*
X246507000Y-123433970D01*
X246507000Y-121536187D01*
X246777277Y-121536187D01*
X246793503Y-122385387D01*
X247087261Y-123094582D01*
X247406030Y-123254365D01*
X248740395Y-121920000D01*
X249099605Y-121920000D01*
X250433970Y-123254365D01*
X250752739Y-123094582D01*
X251062723Y-122303813D01*
X251046497Y-121454613D01*
X250752739Y-120745418D01*
X250433970Y-120585635D01*
X249099605Y-121920000D01*
X248740395Y-121920000D01*
X247406030Y-120585635D01*
X247087261Y-120745418D01*
X246777277Y-121536187D01*
X246507000Y-121536187D01*
X246507000Y-120406030D01*
X247585635Y-120406030D01*
X248920000Y-121740395D01*
X250254365Y-120406030D01*
X250094582Y-120087261D01*
X249303813Y-119777277D01*
X248454613Y-119793503D01*
X247745418Y-120087261D01*
X247585635Y-120406030D01*
X246507000Y-120406030D01*
X246507000Y-119507000D01*
X251587000Y-119507000D01*
X251587000Y-144653000D01*
X246507000Y-144653000D01*
X246507000Y-142525750D01*
X246785000Y-142525750D01*
X246785000Y-143866309D01*
X246881673Y-144099698D01*
X247060301Y-144278327D01*
X247293690Y-144375000D01*
X248634250Y-144375000D01*
X248793000Y-144216250D01*
X248793000Y-142367000D01*
X249047000Y-142367000D01*
X249047000Y-144216250D01*
X249205750Y-144375000D01*
X250546310Y-144375000D01*
X250779699Y-144278327D01*
X250958327Y-144099698D01*
X251055000Y-143866309D01*
X251055000Y-142525750D01*
X250896250Y-142367000D01*
X249047000Y-142367000D01*
X248793000Y-142367000D01*
X246943750Y-142367000D01*
X246785000Y-142525750D01*
X246507000Y-142525750D01*
X246507000Y-140613691D01*
X246785000Y-140613691D01*
X246785000Y-141954250D01*
X246943750Y-142113000D01*
X248793000Y-142113000D01*
X248793000Y-140263750D01*
X249047000Y-140263750D01*
X249047000Y-142113000D01*
X250896250Y-142113000D01*
X251055000Y-141954250D01*
X251055000Y-140613691D01*
X250958327Y-140380302D01*
X250779699Y-140201673D01*
X250546310Y-140105000D01*
X249205750Y-140105000D01*
X249047000Y-140263750D01*
X248793000Y-140263750D01*
X248634250Y-140105000D01*
X247293690Y-140105000D01*
X247060301Y-140201673D01*
X246881673Y-140380302D01*
X246785000Y-140613691D01*
X246507000Y-140613691D01*
X246507000Y-137582815D01*
X246784630Y-137582815D01*
X247108980Y-138367800D01*
X247709041Y-138968909D01*
X248493459Y-139294628D01*
X249342815Y-139295370D01*
X250127800Y-138971020D01*
X250728909Y-138370959D01*
X251054628Y-137586541D01*
X251055370Y-136737185D01*
X250731020Y-135952200D01*
X250130959Y-135351091D01*
X249346541Y-135025372D01*
X248497185Y-135024630D01*
X247712200Y-135348980D01*
X247111091Y-135949041D01*
X246785372Y-136733459D01*
X246784630Y-137582815D01*
X246507000Y-137582815D01*
X246507000Y-133593970D01*
X247585635Y-133593970D01*
X247745418Y-133912739D01*
X248536187Y-134222723D01*
X249385387Y-134206497D01*
X250094582Y-133912739D01*
X250254365Y-133593970D01*
X248920000Y-132259605D01*
X247585635Y-133593970D01*
X246507000Y-133593970D01*
X246507000Y-131696187D01*
X246777277Y-131696187D01*
X246793503Y-132545387D01*
X247087261Y-133254582D01*
X247406030Y-133414365D01*
X248740395Y-132080000D01*
X249099605Y-132080000D01*
X250433970Y-133414365D01*
X250752739Y-133254582D01*
X251062723Y-132463813D01*
X251046497Y-131614613D01*
X250752739Y-130905418D01*
X250433970Y-130745635D01*
X249099605Y-132080000D01*
X248740395Y-132080000D01*
X247406030Y-130745635D01*
X247087261Y-130905418D01*
X246777277Y-131696187D01*
X246507000Y-131696187D01*
X246507000Y-130566030D01*
X247585635Y-130566030D01*
X248920000Y-131900395D01*
X250254365Y-130566030D01*
X250094582Y-130247261D01*
X249303813Y-129937277D01*
X248454613Y-129953503D01*
X247745418Y-130247261D01*
X247585635Y-130566030D01*
X246507000Y-130566030D01*
X246507000Y-127422815D01*
X246784630Y-127422815D01*
X247108980Y-128207800D01*
X247709041Y-128808909D01*
X248493459Y-129134628D01*
X249342815Y-129135370D01*
X250127800Y-128811020D01*
X250728909Y-128210959D01*
X251054628Y-127426541D01*
X251055370Y-126577185D01*
X250731020Y-125792200D01*
X250130959Y-125191091D01*
X249346541Y-124865372D01*
X248497185Y-124864630D01*
X247712200Y-125188980D01*
X247111091Y-125789041D01*
X246785372Y-126573459D01*
X246784630Y-127422815D01*
X246507000Y-127422815D01*
X246507000Y-127000000D01*
X246496994Y-126950590D01*
X246468553Y-126908965D01*
X246426159Y-126881685D01*
X246380000Y-126873000D01*
X205740000Y-126873000D01*
X205690590Y-126883006D01*
X205648965Y-126911447D01*
X205621685Y-126953841D01*
X205613000Y-127000000D01*
X205613000Y-149479239D01*
X154367569Y-149575929D01*
X154380611Y-149544519D01*
X154381387Y-148655381D01*
X154041845Y-147833628D01*
X153413679Y-147204364D01*
X152592519Y-146863389D01*
X151703381Y-146862613D01*
X150881628Y-147202155D01*
X150252364Y-147830321D01*
X149911389Y-148651481D01*
X149910613Y-149540619D01*
X149928663Y-149584304D01*
X84208602Y-149708304D01*
X84276611Y-149544519D01*
X84277387Y-148655381D01*
X83937845Y-147833628D01*
X83309679Y-147204364D01*
X82488519Y-146863389D01*
X81599381Y-146862613D01*
X80777628Y-147202155D01*
X80148364Y-147830321D01*
X79807389Y-148651481D01*
X79806613Y-149540619D01*
X79879274Y-149716473D01*
X71247000Y-149732760D01*
X71247000Y-127422815D01*
X74064630Y-127422815D01*
X74388980Y-128207800D01*
X74989041Y-128808909D01*
X75773459Y-129134628D01*
X76622815Y-129135370D01*
X77407800Y-128811020D01*
X78008909Y-128210959D01*
X78334628Y-127426541D01*
X78335370Y-126577185D01*
X78011020Y-125792200D01*
X77410959Y-125191091D01*
X76626541Y-124865372D01*
X75777185Y-124864630D01*
X74992200Y-125188980D01*
X74391091Y-125789041D01*
X74065372Y-126573459D01*
X74064630Y-127422815D01*
X71247000Y-127422815D01*
X71247000Y-123433970D01*
X74865635Y-123433970D01*
X75025418Y-123752739D01*
X75816187Y-124062723D01*
X76665387Y-124046497D01*
X77374582Y-123752739D01*
X77534365Y-123433970D01*
X76200000Y-122099605D01*
X74865635Y-123433970D01*
X71247000Y-123433970D01*
X71247000Y-121536187D01*
X74057277Y-121536187D01*
X74073503Y-122385387D01*
X74367261Y-123094582D01*
X74686030Y-123254365D01*
X76020395Y-121920000D01*
X76379605Y-121920000D01*
X77713970Y-123254365D01*
X78032739Y-123094582D01*
X78342723Y-122303813D01*
X78326497Y-121454613D01*
X78032739Y-120745418D01*
X77713970Y-120585635D01*
X76379605Y-121920000D01*
X76020395Y-121920000D01*
X74686030Y-120585635D01*
X74367261Y-120745418D01*
X74057277Y-121536187D01*
X71247000Y-121536187D01*
X71247000Y-120406030D01*
X74865635Y-120406030D01*
X76200000Y-121740395D01*
X77534365Y-120406030D01*
X77374582Y-120087261D01*
X76583813Y-119777277D01*
X75734613Y-119793503D01*
X75025418Y-120087261D01*
X74865635Y-120406030D01*
X71247000Y-120406030D01*
X71247000Y-117262815D01*
X74064630Y-117262815D01*
X74388980Y-118047800D01*
X74989041Y-118648909D01*
X75773459Y-118974628D01*
X76622815Y-118975370D01*
X77407800Y-118651020D01*
X78008909Y-118050959D01*
X78334628Y-117266541D01*
X78335370Y-116417185D01*
X78011020Y-115632200D01*
X77410959Y-115031091D01*
X76626541Y-114705372D01*
X75777185Y-114704630D01*
X74992200Y-115028980D01*
X74391091Y-115629041D01*
X74065372Y-116413459D01*
X74064630Y-117262815D01*
X71247000Y-117262815D01*
X71247000Y-113273970D01*
X74865635Y-113273970D01*
X75025418Y-113592739D01*
X75816187Y-113902723D01*
X76665387Y-113886497D01*
X77374582Y-113592739D01*
X77462370Y-113417600D01*
X92488960Y-113417600D01*
X92488960Y-114417600D01*
X92533238Y-114652917D01*
X92672310Y-114869041D01*
X92884510Y-115014031D01*
X93136400Y-115065040D01*
X95636400Y-115065040D01*
X95871717Y-115020762D01*
X96087841Y-114881690D01*
X96232831Y-114669490D01*
X96283840Y-114417600D01*
X96283840Y-113417600D01*
X96239562Y-113182283D01*
X96100490Y-112966159D01*
X95888290Y-112821169D01*
X95636400Y-112770160D01*
X93136400Y-112770160D01*
X92901083Y-112814438D01*
X92684959Y-112953510D01*
X92539969Y-113165710D01*
X92488960Y-113417600D01*
X77462370Y-113417600D01*
X77534365Y-113273970D01*
X76200000Y-111939605D01*
X74865635Y-113273970D01*
X71247000Y-113273970D01*
X71247000Y-111376187D01*
X74057277Y-111376187D01*
X74073503Y-112225387D01*
X74367261Y-112934582D01*
X74686030Y-113094365D01*
X76020395Y-111760000D01*
X76379605Y-111760000D01*
X77713970Y-113094365D01*
X78032739Y-112934582D01*
X78342723Y-112143813D01*
X78326497Y-111294613D01*
X78032739Y-110585418D01*
X77713970Y-110425635D01*
X76379605Y-111760000D01*
X76020395Y-111760000D01*
X74686030Y-110425635D01*
X74367261Y-110585418D01*
X74057277Y-111376187D01*
X71247000Y-111376187D01*
X71247000Y-110246030D01*
X74865635Y-110246030D01*
X76200000Y-111580395D01*
X77534365Y-110246030D01*
X77374582Y-109927261D01*
X76583813Y-109617277D01*
X75734613Y-109633503D01*
X75025418Y-109927261D01*
X74865635Y-110246030D01*
X71247000Y-110246030D01*
X71247000Y-101885750D01*
X74065000Y-101885750D01*
X74065000Y-103226309D01*
X74161673Y-103459698D01*
X74340301Y-103638327D01*
X74573690Y-103735000D01*
X75914250Y-103735000D01*
X76073000Y-103576250D01*
X76073000Y-101727000D01*
X76327000Y-101727000D01*
X76327000Y-103576250D01*
X76485750Y-103735000D01*
X77826310Y-103735000D01*
X78059699Y-103638327D01*
X78238327Y-103459698D01*
X78335000Y-103226309D01*
X78335000Y-101885750D01*
X78176250Y-101727000D01*
X76327000Y-101727000D01*
X76073000Y-101727000D01*
X74223750Y-101727000D01*
X74065000Y-101885750D01*
X71247000Y-101885750D01*
X71247000Y-99973691D01*
X74065000Y-99973691D01*
X74065000Y-101314250D01*
X74223750Y-101473000D01*
X76073000Y-101473000D01*
X76073000Y-99623750D01*
X76327000Y-99623750D01*
X76327000Y-101473000D01*
X78176250Y-101473000D01*
X78335000Y-101314250D01*
X78335000Y-99973691D01*
X78238327Y-99740302D01*
X78059699Y-99561673D01*
X77826310Y-99465000D01*
X76485750Y-99465000D01*
X76327000Y-99623750D01*
X76073000Y-99623750D01*
X75914250Y-99465000D01*
X74573690Y-99465000D01*
X74340301Y-99561673D01*
X74161673Y-99740302D01*
X74065000Y-99973691D01*
X71247000Y-99973691D01*
X71247000Y-82713011D01*
X74364648Y-82713011D01*
X74673805Y-83461229D01*
X75245760Y-84034183D01*
X75669293Y-84210049D01*
X75248771Y-84383805D01*
X74675817Y-84955760D01*
X74365354Y-85703438D01*
X74364648Y-86513011D01*
X74673805Y-87261229D01*
X75245760Y-87834183D01*
X75993438Y-88144646D01*
X76803011Y-88145352D01*
X77551229Y-87836195D01*
X78124183Y-87264240D01*
X78434646Y-86516562D01*
X78435352Y-85706989D01*
X78126195Y-84958771D01*
X77554240Y-84385817D01*
X77130707Y-84209951D01*
X77551229Y-84036195D01*
X78124183Y-83464240D01*
X78434646Y-82716562D01*
X78435352Y-81906989D01*
X78126195Y-81158771D01*
X77554240Y-80585817D01*
X76806562Y-80275354D01*
X75996989Y-80274648D01*
X75248771Y-80583805D01*
X74675817Y-81155760D01*
X74365354Y-81903438D01*
X74364648Y-82713011D01*
X71247000Y-82713011D01*
X71247000Y-72551724D01*
X75137882Y-72551724D01*
X75285455Y-72860106D01*
X76040031Y-73153405D01*
X76849409Y-73135614D01*
X77514545Y-72860106D01*
X77662118Y-72551724D01*
X87637882Y-72551724D01*
X87785455Y-72860106D01*
X88540031Y-73153405D01*
X89349409Y-73135614D01*
X90014545Y-72860106D01*
X90162118Y-72551724D01*
X88900000Y-71289605D01*
X87637882Y-72551724D01*
X77662118Y-72551724D01*
X76400000Y-71289605D01*
X75137882Y-72551724D01*
X71247000Y-72551724D01*
X71247000Y-70750031D01*
X74356595Y-70750031D01*
X74374386Y-71559409D01*
X74649894Y-72224545D01*
X74958276Y-72372118D01*
X76220395Y-71110000D01*
X76579605Y-71110000D01*
X77841724Y-72372118D01*
X78150106Y-72224545D01*
X78443405Y-71469969D01*
X78427580Y-70750031D01*
X86856595Y-70750031D01*
X86874386Y-71559409D01*
X87149894Y-72224545D01*
X87458276Y-72372118D01*
X88720395Y-71110000D01*
X89079605Y-71110000D01*
X90341724Y-72372118D01*
X90650106Y-72224545D01*
X90815231Y-71799724D01*
X103371882Y-71799724D01*
X103519455Y-72108106D01*
X104274031Y-72401405D01*
X105083409Y-72383614D01*
X105748545Y-72108106D01*
X105896118Y-71799724D01*
X107171882Y-71799724D01*
X107319455Y-72108106D01*
X108074031Y-72401405D01*
X108883409Y-72383614D01*
X109548545Y-72108106D01*
X109696118Y-71799724D01*
X108434000Y-70537605D01*
X107171882Y-71799724D01*
X105896118Y-71799724D01*
X104634000Y-70537605D01*
X103371882Y-71799724D01*
X90815231Y-71799724D01*
X90943405Y-71469969D01*
X90925614Y-70660591D01*
X90651174Y-69998031D01*
X102590595Y-69998031D01*
X102608386Y-70807409D01*
X102883894Y-71472545D01*
X103192276Y-71620118D01*
X104454395Y-70358000D01*
X104813605Y-70358000D01*
X106075724Y-71620118D01*
X106384106Y-71472545D01*
X106529236Y-71099167D01*
X106683894Y-71472545D01*
X106992276Y-71620118D01*
X108254395Y-70358000D01*
X106992276Y-69095882D01*
X106683894Y-69243455D01*
X106538764Y-69616833D01*
X106384106Y-69243455D01*
X106075724Y-69095882D01*
X104813605Y-70358000D01*
X104454395Y-70358000D01*
X103192276Y-69095882D01*
X102883894Y-69243455D01*
X102590595Y-69998031D01*
X90651174Y-69998031D01*
X90650106Y-69995455D01*
X90341724Y-69847882D01*
X89079605Y-71110000D01*
X88720395Y-71110000D01*
X87458276Y-69847882D01*
X87149894Y-69995455D01*
X86856595Y-70750031D01*
X78427580Y-70750031D01*
X78425614Y-70660591D01*
X78150106Y-69995455D01*
X77841724Y-69847882D01*
X76579605Y-71110000D01*
X76220395Y-71110000D01*
X74958276Y-69847882D01*
X74649894Y-69995455D01*
X74356595Y-70750031D01*
X71247000Y-70750031D01*
X71247000Y-68751724D01*
X75137882Y-68751724D01*
X75285455Y-69060106D01*
X75658833Y-69205236D01*
X75285455Y-69359894D01*
X75137882Y-69668276D01*
X76400000Y-70930395D01*
X77662118Y-69668276D01*
X77514545Y-69359894D01*
X77141167Y-69214764D01*
X77514545Y-69060106D01*
X77662118Y-68751724D01*
X87637882Y-68751724D01*
X87785455Y-69060106D01*
X88158833Y-69205236D01*
X87785455Y-69359894D01*
X87637882Y-69668276D01*
X88900000Y-70930395D01*
X90162118Y-69668276D01*
X90014545Y-69359894D01*
X89641167Y-69214764D01*
X90014545Y-69060106D01*
X90083373Y-68916276D01*
X103371882Y-68916276D01*
X104634000Y-70178395D01*
X105896118Y-68916276D01*
X107171882Y-68916276D01*
X108434000Y-70178395D01*
X109696118Y-68916276D01*
X109548545Y-68607894D01*
X108793969Y-68314595D01*
X107984591Y-68332386D01*
X107319455Y-68607894D01*
X107171882Y-68916276D01*
X105896118Y-68916276D01*
X105748545Y-68607894D01*
X104993969Y-68314595D01*
X104184591Y-68332386D01*
X103519455Y-68607894D01*
X103371882Y-68916276D01*
X90083373Y-68916276D01*
X90162118Y-68751724D01*
X88900000Y-67489605D01*
X87637882Y-68751724D01*
X77662118Y-68751724D01*
X76400000Y-67489605D01*
X75137882Y-68751724D01*
X71247000Y-68751724D01*
X71247000Y-66950031D01*
X74356595Y-66950031D01*
X74374386Y-67759409D01*
X74649894Y-68424545D01*
X74958276Y-68572118D01*
X76220395Y-67310000D01*
X76579605Y-67310000D01*
X77841724Y-68572118D01*
X78150106Y-68424545D01*
X78443405Y-67669969D01*
X78427580Y-66950031D01*
X86856595Y-66950031D01*
X86874386Y-67759409D01*
X87149894Y-68424545D01*
X87458276Y-68572118D01*
X88720395Y-67310000D01*
X89079605Y-67310000D01*
X90341724Y-68572118D01*
X90650106Y-68424545D01*
X90943405Y-67669969D01*
X90925614Y-66860591D01*
X90650106Y-66195455D01*
X90341724Y-66047882D01*
X89079605Y-67310000D01*
X88720395Y-67310000D01*
X87458276Y-66047882D01*
X87149894Y-66195455D01*
X86856595Y-66950031D01*
X78427580Y-66950031D01*
X78425614Y-66860591D01*
X78150106Y-66195455D01*
X77841724Y-66047882D01*
X76579605Y-67310000D01*
X76220395Y-67310000D01*
X74958276Y-66047882D01*
X74649894Y-66195455D01*
X74356595Y-66950031D01*
X71247000Y-66950031D01*
X71247000Y-65868276D01*
X75137882Y-65868276D01*
X76400000Y-67130395D01*
X77662118Y-65868276D01*
X87637882Y-65868276D01*
X88900000Y-67130395D01*
X90162118Y-65868276D01*
X90014545Y-65559894D01*
X89259969Y-65266595D01*
X88450591Y-65284386D01*
X87785455Y-65559894D01*
X87637882Y-65868276D01*
X77662118Y-65868276D01*
X77514545Y-65559894D01*
X76759969Y-65266595D01*
X75950591Y-65284386D01*
X75285455Y-65559894D01*
X75137882Y-65868276D01*
X71247000Y-65868276D01*
X71247000Y-59299724D01*
X103371882Y-59299724D01*
X103519455Y-59608106D01*
X104274031Y-59901405D01*
X105083409Y-59883614D01*
X105748545Y-59608106D01*
X105896118Y-59299724D01*
X107171882Y-59299724D01*
X107319455Y-59608106D01*
X108074031Y-59901405D01*
X108883409Y-59883614D01*
X109548545Y-59608106D01*
X109696118Y-59299724D01*
X108434000Y-58037605D01*
X107171882Y-59299724D01*
X105896118Y-59299724D01*
X104634000Y-58037605D01*
X103371882Y-59299724D01*
X71247000Y-59299724D01*
X71247000Y-57498031D01*
X102590595Y-57498031D01*
X102608386Y-58307409D01*
X102883894Y-58972545D01*
X103192276Y-59120118D01*
X104454395Y-57858000D01*
X104813605Y-57858000D01*
X106075724Y-59120118D01*
X106384106Y-58972545D01*
X106529236Y-58599167D01*
X106683894Y-58972545D01*
X106992276Y-59120118D01*
X108254395Y-57858000D01*
X106992276Y-56595882D01*
X106683894Y-56743455D01*
X106538764Y-57116833D01*
X106384106Y-56743455D01*
X106075724Y-56595882D01*
X104813605Y-57858000D01*
X104454395Y-57858000D01*
X103192276Y-56595882D01*
X102883894Y-56743455D01*
X102590595Y-57498031D01*
X71247000Y-57498031D01*
X71247000Y-56416276D01*
X103371882Y-56416276D01*
X104634000Y-57678395D01*
X105896118Y-56416276D01*
X107171882Y-56416276D01*
X108434000Y-57678395D01*
X109696118Y-56416276D01*
X109548545Y-56107894D01*
X108793969Y-55814595D01*
X107984591Y-55832386D01*
X107319455Y-56107894D01*
X107171882Y-56416276D01*
X105896118Y-56416276D01*
X105748545Y-56107894D01*
X104993969Y-55814595D01*
X104184591Y-55832386D01*
X103519455Y-56107894D01*
X103371882Y-56416276D01*
X71247000Y-56416276D01*
X71247000Y-55499000D01*
X110363000Y-55499000D01*
X110363000Y-57175344D01*
X110363000Y-57175344D01*
G37*
X110363000Y-57175344D02*
X110184106Y-56743455D01*
X109875724Y-56595882D01*
X108613605Y-57858000D01*
X109875724Y-59120118D01*
X110184106Y-58972545D01*
X110363000Y-58512301D01*
X110363000Y-69675344D01*
X110184106Y-69243455D01*
X109875724Y-69095882D01*
X108613605Y-70358000D01*
X109875724Y-71620118D01*
X110184106Y-71472545D01*
X110363000Y-71012301D01*
X110363000Y-74803000D01*
X78740000Y-74803000D01*
X78690590Y-74813006D01*
X78648965Y-74841447D01*
X78621685Y-74883841D01*
X78613003Y-74930941D01*
X78820806Y-102984392D01*
X77074017Y-104731181D01*
X76626541Y-104545372D01*
X75777185Y-104544630D01*
X74992200Y-104868980D01*
X74391091Y-105469041D01*
X74065372Y-106253459D01*
X74064630Y-107102815D01*
X74388980Y-107887800D01*
X74989041Y-108488909D01*
X75773459Y-108814628D01*
X76622815Y-108815370D01*
X77407800Y-108491020D01*
X78008909Y-107890959D01*
X78334628Y-107106541D01*
X78335370Y-106257185D01*
X78148902Y-105805900D01*
X78836612Y-105118190D01*
X78867003Y-109220941D01*
X78877375Y-109270275D01*
X78906123Y-109311688D01*
X78948719Y-109338653D01*
X78994000Y-109347000D01*
X103588269Y-109347000D01*
X103528988Y-109386610D01*
X100945438Y-111970160D01*
X98372800Y-111970160D01*
X98137483Y-112014438D01*
X97921359Y-112153510D01*
X97776369Y-112365710D01*
X97725360Y-112617600D01*
X97725360Y-113617600D01*
X97769638Y-113852917D01*
X97811393Y-113917805D01*
X95900017Y-115829181D01*
X95888290Y-115821169D01*
X95636400Y-115770160D01*
X93136400Y-115770160D01*
X92901083Y-115814438D01*
X92684959Y-115953510D01*
X92539969Y-116165710D01*
X92488960Y-116417600D01*
X92488960Y-117417600D01*
X92533238Y-117652917D01*
X92672310Y-117869041D01*
X92884510Y-118014031D01*
X93136400Y-118065040D01*
X95636400Y-118065040D01*
X95871717Y-118020762D01*
X96087841Y-117881690D01*
X96232831Y-117669490D01*
X96253179Y-117569006D01*
X96423801Y-117455001D01*
X96661202Y-117217600D01*
X97725360Y-117217600D01*
X97725360Y-118217600D01*
X97769638Y-118452917D01*
X97908710Y-118669041D01*
X98120910Y-118814031D01*
X98372800Y-118865040D01*
X101372800Y-118865040D01*
X101608117Y-118820762D01*
X101824241Y-118681690D01*
X101969231Y-118469490D01*
X102020240Y-118217600D01*
X102020240Y-117217600D01*
X101975962Y-116982283D01*
X101836890Y-116766159D01*
X101624690Y-116621169D01*
X101372800Y-116570160D01*
X98372800Y-116570160D01*
X98137483Y-116614438D01*
X97921359Y-116753510D01*
X97776369Y-116965710D01*
X97725360Y-117217600D01*
X96661202Y-117217600D01*
X98940519Y-114938283D01*
X101397119Y-114938283D01*
X101687958Y-114880431D01*
X101934520Y-114715684D01*
X102176391Y-114473813D01*
X102176391Y-117136299D01*
X102234243Y-117427138D01*
X102398990Y-117673700D01*
X102699181Y-117973891D01*
X102820282Y-118054808D01*
X102797360Y-118168000D01*
X102797360Y-118341137D01*
X102759962Y-118431201D01*
X102759638Y-118803167D01*
X102797360Y-118894461D01*
X102797360Y-119068000D01*
X102841638Y-119303317D01*
X102980710Y-119519441D01*
X103192910Y-119664431D01*
X103444800Y-119715440D01*
X103944800Y-119715440D01*
X104180117Y-119671162D01*
X104396241Y-119532090D01*
X104443934Y-119462289D01*
X104480710Y-119519441D01*
X104692910Y-119664431D01*
X104944800Y-119715440D01*
X105444800Y-119715440D01*
X105680117Y-119671162D01*
X105896241Y-119532090D01*
X106041231Y-119319890D01*
X106092240Y-119068000D01*
X106092240Y-118168000D01*
X106047962Y-117932683D01*
X105908890Y-117716559D01*
X105696690Y-117571569D01*
X105444800Y-117520560D01*
X105372162Y-117520560D01*
X104917038Y-117065436D01*
X104948431Y-117019490D01*
X104999440Y-116767600D01*
X104999440Y-116276919D01*
X105200110Y-116414031D01*
X105452000Y-116465040D01*
X106352000Y-116465040D01*
X106587317Y-116420762D01*
X106803441Y-116281690D01*
X106874563Y-116177600D01*
X108778311Y-116177600D01*
X108853221Y-116252510D01*
X108804942Y-116300705D01*
X108662296Y-116644233D01*
X108662255Y-116691109D01*
X106472979Y-118880385D01*
X106308232Y-119126947D01*
X106250380Y-119417786D01*
X106250380Y-119761000D01*
X91567000Y-119761000D01*
X91567000Y-114300000D01*
X91556994Y-114250590D01*
X91528553Y-114208965D01*
X91486159Y-114181685D01*
X91440000Y-114173000D01*
X78994000Y-114173000D01*
X78944590Y-114183006D01*
X78902965Y-114211447D01*
X78875685Y-114253841D01*
X78867005Y-114298896D01*
X78613005Y-143508896D01*
X78622581Y-143558391D01*
X78650658Y-143600261D01*
X78692814Y-143627909D01*
X78739603Y-143636999D01*
X200659603Y-144017999D01*
X200709044Y-144008148D01*
X200750757Y-143979837D01*
X200778170Y-143937529D01*
X200786998Y-143890380D01*
X200750605Y-136429750D01*
X202423000Y-136429750D01*
X202423000Y-136920310D01*
X202519673Y-137153699D01*
X202698302Y-137332327D01*
X202931691Y-137429000D01*
X203422250Y-137429000D01*
X203581000Y-137270250D01*
X203581000Y-136271000D01*
X203835000Y-136271000D01*
X203835000Y-137270250D01*
X203993750Y-137429000D01*
X204484309Y-137429000D01*
X204717698Y-137332327D01*
X204896327Y-137153699D01*
X204993000Y-136920310D01*
X204993000Y-136429750D01*
X204834250Y-136271000D01*
X203835000Y-136271000D01*
X203581000Y-136271000D01*
X202581750Y-136271000D01*
X202423000Y-136429750D01*
X200750605Y-136429750D01*
X200745425Y-135367690D01*
X202423000Y-135367690D01*
X202423000Y-135858250D01*
X202581750Y-136017000D01*
X203581000Y-136017000D01*
X203581000Y-135017750D01*
X203835000Y-135017750D01*
X203835000Y-136017000D01*
X204834250Y-136017000D01*
X204993000Y-135858250D01*
X204993000Y-135367690D01*
X204896327Y-135134301D01*
X204717698Y-134955673D01*
X204484309Y-134859000D01*
X203993750Y-134859000D01*
X203835000Y-135017750D01*
X203581000Y-135017750D01*
X203422250Y-134859000D01*
X202931691Y-134859000D01*
X202698302Y-134955673D01*
X202519673Y-135134301D01*
X202423000Y-135367690D01*
X200745425Y-135367690D01*
X200660001Y-117856094D01*
X200786999Y-91440611D01*
X200777230Y-91391153D01*
X200748990Y-91349392D01*
X200706727Y-91321909D01*
X200660000Y-91313000D01*
X195961000Y-91313000D01*
X195961000Y-89662000D01*
X195950994Y-89612590D01*
X195922553Y-89570965D01*
X195880159Y-89543685D01*
X195834000Y-89535000D01*
X194350718Y-89535000D01*
X194441800Y-89315109D01*
X194441800Y-89222550D01*
X194283050Y-89063800D01*
X193483800Y-89063800D01*
X193483800Y-89085800D01*
X193229800Y-89085800D01*
X193229800Y-89063800D01*
X193209800Y-89063800D01*
X193209800Y-88813800D01*
X193229800Y-88813800D01*
X193229800Y-88791800D01*
X193483800Y-88791800D01*
X193483800Y-88813800D01*
X194283050Y-88813800D01*
X194441800Y-88655050D01*
X194441800Y-88562491D01*
X194423785Y-88519000D01*
X196469000Y-88519000D01*
X196469000Y-90678000D01*
X196479006Y-90727410D01*
X196507447Y-90769035D01*
X196549841Y-90796315D01*
X196596000Y-90805000D01*
X200660000Y-90805000D01*
X200709410Y-90794994D01*
X200751035Y-90766553D01*
X200778315Y-90724159D01*
X200787000Y-90678000D01*
X200787000Y-90166608D01*
X200900590Y-90053018D01*
X200956271Y-90283611D01*
X201439078Y-90451622D01*
X201949428Y-90422083D01*
X202283729Y-90283611D01*
X202339410Y-90053016D01*
X201620000Y-89333605D01*
X201605858Y-89347748D01*
X201426252Y-89168142D01*
X201440395Y-89154000D01*
X201799605Y-89154000D01*
X202519016Y-89873410D01*
X202749611Y-89817729D01*
X202917622Y-89334922D01*
X202888083Y-88824572D01*
X202749611Y-88490271D01*
X202519016Y-88434590D01*
X201799605Y-89154000D01*
X201440395Y-89154000D01*
X201426252Y-89139858D01*
X201605858Y-88960252D01*
X201620000Y-88974395D01*
X202339410Y-88254984D01*
X202283729Y-88024389D01*
X201800922Y-87856378D01*
X201290572Y-87885917D01*
X200956271Y-88024389D01*
X200900590Y-88254982D01*
X200787000Y-88141392D01*
X200787000Y-63450784D01*
X200822507Y-63397644D01*
X200903195Y-62992000D01*
X200924805Y-62992000D01*
X201005493Y-63397644D01*
X201235272Y-63741533D01*
X201579161Y-63971312D01*
X201984805Y-64052000D01*
X202383195Y-64052000D01*
X202788839Y-63971312D01*
X203132728Y-63741533D01*
X203362507Y-63397644D01*
X203385497Y-63282062D01*
X203529460Y-63282062D01*
X203717336Y-63655570D01*
X204034580Y-63923323D01*
X204430140Y-64049290D01*
X204597000Y-63896117D01*
X204597000Y-63119000D01*
X204851000Y-63119000D01*
X204851000Y-63896117D01*
X205017860Y-64049290D01*
X205413420Y-63923323D01*
X205730664Y-63655570D01*
X205918540Y-63282062D01*
X206069460Y-63282062D01*
X206257336Y-63655570D01*
X206574580Y-63923323D01*
X206970140Y-64049290D01*
X207137000Y-63896117D01*
X207137000Y-63119000D01*
X207391000Y-63119000D01*
X207391000Y-63896117D01*
X207557860Y-64049290D01*
X207953420Y-63923323D01*
X208270664Y-63655570D01*
X208458540Y-63282062D01*
X208609460Y-63282062D01*
X208797336Y-63655570D01*
X209114580Y-63923323D01*
X209510140Y-64049290D01*
X209677000Y-63896117D01*
X209677000Y-63119000D01*
X209931000Y-63119000D01*
X209931000Y-63896117D01*
X210097860Y-64049290D01*
X210493420Y-63923323D01*
X210810664Y-63655570D01*
X210998540Y-63282062D01*
X210871257Y-63119000D01*
X209931000Y-63119000D01*
X209677000Y-63119000D01*
X208736743Y-63119000D01*
X208609460Y-63282062D01*
X208458540Y-63282062D01*
X208331257Y-63119000D01*
X207391000Y-63119000D01*
X207137000Y-63119000D01*
X206196743Y-63119000D01*
X206069460Y-63282062D01*
X205918540Y-63282062D01*
X205791257Y-63119000D01*
X204851000Y-63119000D01*
X204597000Y-63119000D01*
X203656743Y-63119000D01*
X203529460Y-63282062D01*
X203385497Y-63282062D01*
X203443195Y-62992000D01*
X203385498Y-62701938D01*
X203529460Y-62701938D01*
X203656743Y-62865000D01*
X204597000Y-62865000D01*
X204597000Y-62087883D01*
X204851000Y-62087883D01*
X204851000Y-62865000D01*
X205791257Y-62865000D01*
X205918540Y-62701938D01*
X206069460Y-62701938D01*
X206196743Y-62865000D01*
X207137000Y-62865000D01*
X207137000Y-62087883D01*
X207391000Y-62087883D01*
X207391000Y-62865000D01*
X208331257Y-62865000D01*
X208458540Y-62701938D01*
X208609460Y-62701938D01*
X208736743Y-62865000D01*
X209677000Y-62865000D01*
X209677000Y-62087883D01*
X209931000Y-62087883D01*
X209931000Y-62865000D01*
X210871257Y-62865000D01*
X210998540Y-62701938D01*
X210810664Y-62328430D01*
X210493420Y-62060677D01*
X210097860Y-61934710D01*
X209931000Y-62087883D01*
X209677000Y-62087883D01*
X209510140Y-61934710D01*
X209114580Y-62060677D01*
X208797336Y-62328430D01*
X208609460Y-62701938D01*
X208458540Y-62701938D01*
X208270664Y-62328430D01*
X207953420Y-62060677D01*
X207557860Y-61934710D01*
X207391000Y-62087883D01*
X207137000Y-62087883D01*
X206970140Y-61934710D01*
X206574580Y-62060677D01*
X206257336Y-62328430D01*
X206069460Y-62701938D01*
X205918540Y-62701938D01*
X205730664Y-62328430D01*
X205413420Y-62060677D01*
X205017860Y-61934710D01*
X204851000Y-62087883D01*
X204597000Y-62087883D01*
X204430140Y-61934710D01*
X204034580Y-62060677D01*
X203717336Y-62328430D01*
X203529460Y-62701938D01*
X203385498Y-62701938D01*
X203362507Y-62586356D01*
X203132728Y-62242467D01*
X202788839Y-62012688D01*
X202383195Y-61932000D01*
X201984805Y-61932000D01*
X201579161Y-62012688D01*
X201235272Y-62242467D01*
X201005493Y-62586356D01*
X200924805Y-62992000D01*
X200903195Y-62992000D01*
X200822507Y-62586356D01*
X200787000Y-62533216D01*
X200787000Y-61849000D01*
X211201000Y-61849000D01*
X211201000Y-62568944D01*
X211124805Y-62952000D01*
X211201000Y-63335056D01*
X211201000Y-64897000D01*
X205740000Y-64897000D01*
X205690590Y-64907006D01*
X205648965Y-64935447D01*
X205621685Y-64977841D01*
X205613000Y-65024000D01*
X205613000Y-67056000D01*
X205623006Y-67105410D01*
X205651447Y-67147035D01*
X205693841Y-67174315D01*
X205740000Y-67183000D01*
X247074179Y-67183000D01*
X247087261Y-67214582D01*
X247406030Y-67374365D01*
X247597395Y-67183000D01*
X247956605Y-67183000D01*
X247585635Y-67553970D01*
X247745418Y-67872739D01*
X248536187Y-68182723D01*
X249385387Y-68166497D01*
X250094582Y-67872739D01*
X250254365Y-67553970D01*
X249883395Y-67183000D01*
X250242605Y-67183000D01*
X250433970Y-67374365D01*
X250752739Y-67214582D01*
X250765119Y-67183000D01*
X251333000Y-67183000D01*
X251333000Y-69723000D01*
X250542150Y-69723000D01*
X250130959Y-69311091D01*
X249346541Y-68985372D01*
X248497185Y-68984630D01*
X247712200Y-69308980D01*
X247297457Y-69723000D01*
X205740000Y-69723000D01*
X205690590Y-69733006D01*
X205648965Y-69761447D01*
X205621685Y-69803841D01*
X205613000Y-69850000D01*
X205613000Y-124460000D01*
X205623006Y-124509410D01*
X205651447Y-124551035D01*
X205693841Y-124578315D01*
X205740000Y-124587000D01*
X246380000Y-124587000D01*
X246429410Y-124576994D01*
X246471035Y-124548553D01*
X246498315Y-124506159D01*
X246507000Y-124460000D01*
X246507000Y-123433970D01*
X247585635Y-123433970D01*
X247745418Y-123752739D01*
X248536187Y-124062723D01*
X249385387Y-124046497D01*
X250094582Y-123752739D01*
X250254365Y-123433970D01*
X248920000Y-122099605D01*
X247585635Y-123433970D01*
X246507000Y-123433970D01*
X246507000Y-121536187D01*
X246777277Y-121536187D01*
X246793503Y-122385387D01*
X247087261Y-123094582D01*
X247406030Y-123254365D01*
X248740395Y-121920000D01*
X249099605Y-121920000D01*
X250433970Y-123254365D01*
X250752739Y-123094582D01*
X251062723Y-122303813D01*
X251046497Y-121454613D01*
X250752739Y-120745418D01*
X250433970Y-120585635D01*
X249099605Y-121920000D01*
X248740395Y-121920000D01*
X247406030Y-120585635D01*
X247087261Y-120745418D01*
X246777277Y-121536187D01*
X246507000Y-121536187D01*
X246507000Y-120406030D01*
X247585635Y-120406030D01*
X248920000Y-121740395D01*
X250254365Y-120406030D01*
X250094582Y-120087261D01*
X249303813Y-119777277D01*
X248454613Y-119793503D01*
X247745418Y-120087261D01*
X247585635Y-120406030D01*
X246507000Y-120406030D01*
X246507000Y-119507000D01*
X251587000Y-119507000D01*
X251587000Y-144653000D01*
X246507000Y-144653000D01*
X246507000Y-142525750D01*
X246785000Y-142525750D01*
X246785000Y-143866309D01*
X246881673Y-144099698D01*
X247060301Y-144278327D01*
X247293690Y-144375000D01*
X248634250Y-144375000D01*
X248793000Y-144216250D01*
X248793000Y-142367000D01*
X249047000Y-142367000D01*
X249047000Y-144216250D01*
X249205750Y-144375000D01*
X250546310Y-144375000D01*
X250779699Y-144278327D01*
X250958327Y-144099698D01*
X251055000Y-143866309D01*
X251055000Y-142525750D01*
X250896250Y-142367000D01*
X249047000Y-142367000D01*
X248793000Y-142367000D01*
X246943750Y-142367000D01*
X246785000Y-142525750D01*
X246507000Y-142525750D01*
X246507000Y-140613691D01*
X246785000Y-140613691D01*
X246785000Y-141954250D01*
X246943750Y-142113000D01*
X248793000Y-142113000D01*
X248793000Y-140263750D01*
X249047000Y-140263750D01*
X249047000Y-142113000D01*
X250896250Y-142113000D01*
X251055000Y-141954250D01*
X251055000Y-140613691D01*
X250958327Y-140380302D01*
X250779699Y-140201673D01*
X250546310Y-140105000D01*
X249205750Y-140105000D01*
X249047000Y-140263750D01*
X248793000Y-140263750D01*
X248634250Y-140105000D01*
X247293690Y-140105000D01*
X247060301Y-140201673D01*
X246881673Y-140380302D01*
X246785000Y-140613691D01*
X246507000Y-140613691D01*
X246507000Y-137582815D01*
X246784630Y-137582815D01*
X247108980Y-138367800D01*
X247709041Y-138968909D01*
X248493459Y-139294628D01*
X249342815Y-139295370D01*
X250127800Y-138971020D01*
X250728909Y-138370959D01*
X251054628Y-137586541D01*
X251055370Y-136737185D01*
X250731020Y-135952200D01*
X250130959Y-135351091D01*
X249346541Y-135025372D01*
X248497185Y-135024630D01*
X247712200Y-135348980D01*
X247111091Y-135949041D01*
X246785372Y-136733459D01*
X246784630Y-137582815D01*
X246507000Y-137582815D01*
X246507000Y-133593970D01*
X247585635Y-133593970D01*
X247745418Y-133912739D01*
X248536187Y-134222723D01*
X249385387Y-134206497D01*
X250094582Y-133912739D01*
X250254365Y-133593970D01*
X248920000Y-132259605D01*
X247585635Y-133593970D01*
X246507000Y-133593970D01*
X246507000Y-131696187D01*
X246777277Y-131696187D01*
X246793503Y-132545387D01*
X247087261Y-133254582D01*
X247406030Y-133414365D01*
X248740395Y-132080000D01*
X249099605Y-132080000D01*
X250433970Y-133414365D01*
X250752739Y-133254582D01*
X251062723Y-132463813D01*
X251046497Y-131614613D01*
X250752739Y-130905418D01*
X250433970Y-130745635D01*
X249099605Y-132080000D01*
X248740395Y-132080000D01*
X247406030Y-130745635D01*
X247087261Y-130905418D01*
X246777277Y-131696187D01*
X246507000Y-131696187D01*
X246507000Y-130566030D01*
X247585635Y-130566030D01*
X248920000Y-131900395D01*
X250254365Y-130566030D01*
X250094582Y-130247261D01*
X249303813Y-129937277D01*
X248454613Y-129953503D01*
X247745418Y-130247261D01*
X247585635Y-130566030D01*
X246507000Y-130566030D01*
X246507000Y-127422815D01*
X246784630Y-127422815D01*
X247108980Y-128207800D01*
X247709041Y-128808909D01*
X248493459Y-129134628D01*
X249342815Y-129135370D01*
X250127800Y-128811020D01*
X250728909Y-128210959D01*
X251054628Y-127426541D01*
X251055370Y-126577185D01*
X250731020Y-125792200D01*
X250130959Y-125191091D01*
X249346541Y-124865372D01*
X248497185Y-124864630D01*
X247712200Y-125188980D01*
X247111091Y-125789041D01*
X246785372Y-126573459D01*
X246784630Y-127422815D01*
X246507000Y-127422815D01*
X246507000Y-127000000D01*
X246496994Y-126950590D01*
X246468553Y-126908965D01*
X246426159Y-126881685D01*
X246380000Y-126873000D01*
X205740000Y-126873000D01*
X205690590Y-126883006D01*
X205648965Y-126911447D01*
X205621685Y-126953841D01*
X205613000Y-127000000D01*
X205613000Y-149479239D01*
X154367569Y-149575929D01*
X154380611Y-149544519D01*
X154381387Y-148655381D01*
X154041845Y-147833628D01*
X153413679Y-147204364D01*
X152592519Y-146863389D01*
X151703381Y-146862613D01*
X150881628Y-147202155D01*
X150252364Y-147830321D01*
X149911389Y-148651481D01*
X149910613Y-149540619D01*
X149928663Y-149584304D01*
X84208602Y-149708304D01*
X84276611Y-149544519D01*
X84277387Y-148655381D01*
X83937845Y-147833628D01*
X83309679Y-147204364D01*
X82488519Y-146863389D01*
X81599381Y-146862613D01*
X80777628Y-147202155D01*
X80148364Y-147830321D01*
X79807389Y-148651481D01*
X79806613Y-149540619D01*
X79879274Y-149716473D01*
X71247000Y-149732760D01*
X71247000Y-127422815D01*
X74064630Y-127422815D01*
X74388980Y-128207800D01*
X74989041Y-128808909D01*
X75773459Y-129134628D01*
X76622815Y-129135370D01*
X77407800Y-128811020D01*
X78008909Y-128210959D01*
X78334628Y-127426541D01*
X78335370Y-126577185D01*
X78011020Y-125792200D01*
X77410959Y-125191091D01*
X76626541Y-124865372D01*
X75777185Y-124864630D01*
X74992200Y-125188980D01*
X74391091Y-125789041D01*
X74065372Y-126573459D01*
X74064630Y-127422815D01*
X71247000Y-127422815D01*
X71247000Y-123433970D01*
X74865635Y-123433970D01*
X75025418Y-123752739D01*
X75816187Y-124062723D01*
X76665387Y-124046497D01*
X77374582Y-123752739D01*
X77534365Y-123433970D01*
X76200000Y-122099605D01*
X74865635Y-123433970D01*
X71247000Y-123433970D01*
X71247000Y-121536187D01*
X74057277Y-121536187D01*
X74073503Y-122385387D01*
X74367261Y-123094582D01*
X74686030Y-123254365D01*
X76020395Y-121920000D01*
X76379605Y-121920000D01*
X77713970Y-123254365D01*
X78032739Y-123094582D01*
X78342723Y-122303813D01*
X78326497Y-121454613D01*
X78032739Y-120745418D01*
X77713970Y-120585635D01*
X76379605Y-121920000D01*
X76020395Y-121920000D01*
X74686030Y-120585635D01*
X74367261Y-120745418D01*
X74057277Y-121536187D01*
X71247000Y-121536187D01*
X71247000Y-120406030D01*
X74865635Y-120406030D01*
X76200000Y-121740395D01*
X77534365Y-120406030D01*
X77374582Y-120087261D01*
X76583813Y-119777277D01*
X75734613Y-119793503D01*
X75025418Y-120087261D01*
X74865635Y-120406030D01*
X71247000Y-120406030D01*
X71247000Y-117262815D01*
X74064630Y-117262815D01*
X74388980Y-118047800D01*
X74989041Y-118648909D01*
X75773459Y-118974628D01*
X76622815Y-118975370D01*
X77407800Y-118651020D01*
X78008909Y-118050959D01*
X78334628Y-117266541D01*
X78335370Y-116417185D01*
X78011020Y-115632200D01*
X77410959Y-115031091D01*
X76626541Y-114705372D01*
X75777185Y-114704630D01*
X74992200Y-115028980D01*
X74391091Y-115629041D01*
X74065372Y-116413459D01*
X74064630Y-117262815D01*
X71247000Y-117262815D01*
X71247000Y-113273970D01*
X74865635Y-113273970D01*
X75025418Y-113592739D01*
X75816187Y-113902723D01*
X76665387Y-113886497D01*
X77374582Y-113592739D01*
X77462370Y-113417600D01*
X92488960Y-113417600D01*
X92488960Y-114417600D01*
X92533238Y-114652917D01*
X92672310Y-114869041D01*
X92884510Y-115014031D01*
X93136400Y-115065040D01*
X95636400Y-115065040D01*
X95871717Y-115020762D01*
X96087841Y-114881690D01*
X96232831Y-114669490D01*
X96283840Y-114417600D01*
X96283840Y-113417600D01*
X96239562Y-113182283D01*
X96100490Y-112966159D01*
X95888290Y-112821169D01*
X95636400Y-112770160D01*
X93136400Y-112770160D01*
X92901083Y-112814438D01*
X92684959Y-112953510D01*
X92539969Y-113165710D01*
X92488960Y-113417600D01*
X77462370Y-113417600D01*
X77534365Y-113273970D01*
X76200000Y-111939605D01*
X74865635Y-113273970D01*
X71247000Y-113273970D01*
X71247000Y-111376187D01*
X74057277Y-111376187D01*
X74073503Y-112225387D01*
X74367261Y-112934582D01*
X74686030Y-113094365D01*
X76020395Y-111760000D01*
X76379605Y-111760000D01*
X77713970Y-113094365D01*
X78032739Y-112934582D01*
X78342723Y-112143813D01*
X78326497Y-111294613D01*
X78032739Y-110585418D01*
X77713970Y-110425635D01*
X76379605Y-111760000D01*
X76020395Y-111760000D01*
X74686030Y-110425635D01*
X74367261Y-110585418D01*
X74057277Y-111376187D01*
X71247000Y-111376187D01*
X71247000Y-110246030D01*
X74865635Y-110246030D01*
X76200000Y-111580395D01*
X77534365Y-110246030D01*
X77374582Y-109927261D01*
X76583813Y-109617277D01*
X75734613Y-109633503D01*
X75025418Y-109927261D01*
X74865635Y-110246030D01*
X71247000Y-110246030D01*
X71247000Y-101885750D01*
X74065000Y-101885750D01*
X74065000Y-103226309D01*
X74161673Y-103459698D01*
X74340301Y-103638327D01*
X74573690Y-103735000D01*
X75914250Y-103735000D01*
X76073000Y-103576250D01*
X76073000Y-101727000D01*
X76327000Y-101727000D01*
X76327000Y-103576250D01*
X76485750Y-103735000D01*
X77826310Y-103735000D01*
X78059699Y-103638327D01*
X78238327Y-103459698D01*
X78335000Y-103226309D01*
X78335000Y-101885750D01*
X78176250Y-101727000D01*
X76327000Y-101727000D01*
X76073000Y-101727000D01*
X74223750Y-101727000D01*
X74065000Y-101885750D01*
X71247000Y-101885750D01*
X71247000Y-99973691D01*
X74065000Y-99973691D01*
X74065000Y-101314250D01*
X74223750Y-101473000D01*
X76073000Y-101473000D01*
X76073000Y-99623750D01*
X76327000Y-99623750D01*
X76327000Y-101473000D01*
X78176250Y-101473000D01*
X78335000Y-101314250D01*
X78335000Y-99973691D01*
X78238327Y-99740302D01*
X78059699Y-99561673D01*
X77826310Y-99465000D01*
X76485750Y-99465000D01*
X76327000Y-99623750D01*
X76073000Y-99623750D01*
X75914250Y-99465000D01*
X74573690Y-99465000D01*
X74340301Y-99561673D01*
X74161673Y-99740302D01*
X74065000Y-99973691D01*
X71247000Y-99973691D01*
X71247000Y-82713011D01*
X74364648Y-82713011D01*
X74673805Y-83461229D01*
X75245760Y-84034183D01*
X75669293Y-84210049D01*
X75248771Y-84383805D01*
X74675817Y-84955760D01*
X74365354Y-85703438D01*
X74364648Y-86513011D01*
X74673805Y-87261229D01*
X75245760Y-87834183D01*
X75993438Y-88144646D01*
X76803011Y-88145352D01*
X77551229Y-87836195D01*
X78124183Y-87264240D01*
X78434646Y-86516562D01*
X78435352Y-85706989D01*
X78126195Y-84958771D01*
X77554240Y-84385817D01*
X77130707Y-84209951D01*
X77551229Y-84036195D01*
X78124183Y-83464240D01*
X78434646Y-82716562D01*
X78435352Y-81906989D01*
X78126195Y-81158771D01*
X77554240Y-80585817D01*
X76806562Y-80275354D01*
X75996989Y-80274648D01*
X75248771Y-80583805D01*
X74675817Y-81155760D01*
X74365354Y-81903438D01*
X74364648Y-82713011D01*
X71247000Y-82713011D01*
X71247000Y-72551724D01*
X75137882Y-72551724D01*
X75285455Y-72860106D01*
X76040031Y-73153405D01*
X76849409Y-73135614D01*
X77514545Y-72860106D01*
X77662118Y-72551724D01*
X87637882Y-72551724D01*
X87785455Y-72860106D01*
X88540031Y-73153405D01*
X89349409Y-73135614D01*
X90014545Y-72860106D01*
X90162118Y-72551724D01*
X88900000Y-71289605D01*
X87637882Y-72551724D01*
X77662118Y-72551724D01*
X76400000Y-71289605D01*
X75137882Y-72551724D01*
X71247000Y-72551724D01*
X71247000Y-70750031D01*
X74356595Y-70750031D01*
X74374386Y-71559409D01*
X74649894Y-72224545D01*
X74958276Y-72372118D01*
X76220395Y-71110000D01*
X76579605Y-71110000D01*
X77841724Y-72372118D01*
X78150106Y-72224545D01*
X78443405Y-71469969D01*
X78427580Y-70750031D01*
X86856595Y-70750031D01*
X86874386Y-71559409D01*
X87149894Y-72224545D01*
X87458276Y-72372118D01*
X88720395Y-71110000D01*
X89079605Y-71110000D01*
X90341724Y-72372118D01*
X90650106Y-72224545D01*
X90815231Y-71799724D01*
X103371882Y-71799724D01*
X103519455Y-72108106D01*
X104274031Y-72401405D01*
X105083409Y-72383614D01*
X105748545Y-72108106D01*
X105896118Y-71799724D01*
X107171882Y-71799724D01*
X107319455Y-72108106D01*
X108074031Y-72401405D01*
X108883409Y-72383614D01*
X109548545Y-72108106D01*
X109696118Y-71799724D01*
X108434000Y-70537605D01*
X107171882Y-71799724D01*
X105896118Y-71799724D01*
X104634000Y-70537605D01*
X103371882Y-71799724D01*
X90815231Y-71799724D01*
X90943405Y-71469969D01*
X90925614Y-70660591D01*
X90651174Y-69998031D01*
X102590595Y-69998031D01*
X102608386Y-70807409D01*
X102883894Y-71472545D01*
X103192276Y-71620118D01*
X104454395Y-70358000D01*
X104813605Y-70358000D01*
X106075724Y-71620118D01*
X106384106Y-71472545D01*
X106529236Y-71099167D01*
X106683894Y-71472545D01*
X106992276Y-71620118D01*
X108254395Y-70358000D01*
X106992276Y-69095882D01*
X106683894Y-69243455D01*
X106538764Y-69616833D01*
X106384106Y-69243455D01*
X106075724Y-69095882D01*
X104813605Y-70358000D01*
X104454395Y-70358000D01*
X103192276Y-69095882D01*
X102883894Y-69243455D01*
X102590595Y-69998031D01*
X90651174Y-69998031D01*
X90650106Y-69995455D01*
X90341724Y-69847882D01*
X89079605Y-71110000D01*
X88720395Y-71110000D01*
X87458276Y-69847882D01*
X87149894Y-69995455D01*
X86856595Y-70750031D01*
X78427580Y-70750031D01*
X78425614Y-70660591D01*
X78150106Y-69995455D01*
X77841724Y-69847882D01*
X76579605Y-71110000D01*
X76220395Y-71110000D01*
X74958276Y-69847882D01*
X74649894Y-69995455D01*
X74356595Y-70750031D01*
X71247000Y-70750031D01*
X71247000Y-68751724D01*
X75137882Y-68751724D01*
X75285455Y-69060106D01*
X75658833Y-69205236D01*
X75285455Y-69359894D01*
X75137882Y-69668276D01*
X76400000Y-70930395D01*
X77662118Y-69668276D01*
X77514545Y-69359894D01*
X77141167Y-69214764D01*
X77514545Y-69060106D01*
X77662118Y-68751724D01*
X87637882Y-68751724D01*
X87785455Y-69060106D01*
X88158833Y-69205236D01*
X87785455Y-69359894D01*
X87637882Y-69668276D01*
X88900000Y-70930395D01*
X90162118Y-69668276D01*
X90014545Y-69359894D01*
X89641167Y-69214764D01*
X90014545Y-69060106D01*
X90083373Y-68916276D01*
X103371882Y-68916276D01*
X104634000Y-70178395D01*
X105896118Y-68916276D01*
X107171882Y-68916276D01*
X108434000Y-70178395D01*
X109696118Y-68916276D01*
X109548545Y-68607894D01*
X108793969Y-68314595D01*
X107984591Y-68332386D01*
X107319455Y-68607894D01*
X107171882Y-68916276D01*
X105896118Y-68916276D01*
X105748545Y-68607894D01*
X104993969Y-68314595D01*
X104184591Y-68332386D01*
X103519455Y-68607894D01*
X103371882Y-68916276D01*
X90083373Y-68916276D01*
X90162118Y-68751724D01*
X88900000Y-67489605D01*
X87637882Y-68751724D01*
X77662118Y-68751724D01*
X76400000Y-67489605D01*
X75137882Y-68751724D01*
X71247000Y-68751724D01*
X71247000Y-66950031D01*
X74356595Y-66950031D01*
X74374386Y-67759409D01*
X74649894Y-68424545D01*
X74958276Y-68572118D01*
X76220395Y-67310000D01*
X76579605Y-67310000D01*
X77841724Y-68572118D01*
X78150106Y-68424545D01*
X78443405Y-67669969D01*
X78427580Y-66950031D01*
X86856595Y-66950031D01*
X86874386Y-67759409D01*
X87149894Y-68424545D01*
X87458276Y-68572118D01*
X88720395Y-67310000D01*
X89079605Y-67310000D01*
X90341724Y-68572118D01*
X90650106Y-68424545D01*
X90943405Y-67669969D01*
X90925614Y-66860591D01*
X90650106Y-66195455D01*
X90341724Y-66047882D01*
X89079605Y-67310000D01*
X88720395Y-67310000D01*
X87458276Y-66047882D01*
X87149894Y-66195455D01*
X86856595Y-66950031D01*
X78427580Y-66950031D01*
X78425614Y-66860591D01*
X78150106Y-66195455D01*
X77841724Y-66047882D01*
X76579605Y-67310000D01*
X76220395Y-67310000D01*
X74958276Y-66047882D01*
X74649894Y-66195455D01*
X74356595Y-66950031D01*
X71247000Y-66950031D01*
X71247000Y-65868276D01*
X75137882Y-65868276D01*
X76400000Y-67130395D01*
X77662118Y-65868276D01*
X87637882Y-65868276D01*
X88900000Y-67130395D01*
X90162118Y-65868276D01*
X90014545Y-65559894D01*
X89259969Y-65266595D01*
X88450591Y-65284386D01*
X87785455Y-65559894D01*
X87637882Y-65868276D01*
X77662118Y-65868276D01*
X77514545Y-65559894D01*
X76759969Y-65266595D01*
X75950591Y-65284386D01*
X75285455Y-65559894D01*
X75137882Y-65868276D01*
X71247000Y-65868276D01*
X71247000Y-59299724D01*
X103371882Y-59299724D01*
X103519455Y-59608106D01*
X104274031Y-59901405D01*
X105083409Y-59883614D01*
X105748545Y-59608106D01*
X105896118Y-59299724D01*
X107171882Y-59299724D01*
X107319455Y-59608106D01*
X108074031Y-59901405D01*
X108883409Y-59883614D01*
X109548545Y-59608106D01*
X109696118Y-59299724D01*
X108434000Y-58037605D01*
X107171882Y-59299724D01*
X105896118Y-59299724D01*
X104634000Y-58037605D01*
X103371882Y-59299724D01*
X71247000Y-59299724D01*
X71247000Y-57498031D01*
X102590595Y-57498031D01*
X102608386Y-58307409D01*
X102883894Y-58972545D01*
X103192276Y-59120118D01*
X104454395Y-57858000D01*
X104813605Y-57858000D01*
X106075724Y-59120118D01*
X106384106Y-58972545D01*
X106529236Y-58599167D01*
X106683894Y-58972545D01*
X106992276Y-59120118D01*
X108254395Y-57858000D01*
X106992276Y-56595882D01*
X106683894Y-56743455D01*
X106538764Y-57116833D01*
X106384106Y-56743455D01*
X106075724Y-56595882D01*
X104813605Y-57858000D01*
X104454395Y-57858000D01*
X103192276Y-56595882D01*
X102883894Y-56743455D01*
X102590595Y-57498031D01*
X71247000Y-57498031D01*
X71247000Y-56416276D01*
X103371882Y-56416276D01*
X104634000Y-57678395D01*
X105896118Y-56416276D01*
X107171882Y-56416276D01*
X108434000Y-57678395D01*
X109696118Y-56416276D01*
X109548545Y-56107894D01*
X108793969Y-55814595D01*
X107984591Y-55832386D01*
X107319455Y-56107894D01*
X107171882Y-56416276D01*
X105896118Y-56416276D01*
X105748545Y-56107894D01*
X104993969Y-55814595D01*
X104184591Y-55832386D01*
X103519455Y-56107894D01*
X103371882Y-56416276D01*
X71247000Y-56416276D01*
X71247000Y-55499000D01*
X110363000Y-55499000D01*
X110363000Y-57175344D01*
G36*
X113985799Y-129112201D02*
X114164698Y-129231738D01*
X114170038Y-129260117D01*
X114309110Y-129476241D01*
X114521310Y-129621231D01*
X114773200Y-129672240D01*
X115273200Y-129672240D01*
X115508517Y-129627962D01*
X115724641Y-129488890D01*
X115771169Y-129420794D01*
X115891186Y-129540812D01*
X115297399Y-130134599D01*
X115203880Y-130274560D01*
X115174000Y-130274560D01*
X114938683Y-130318838D01*
X114722559Y-130457910D01*
X114577569Y-130670110D01*
X114526560Y-130922000D01*
X114526560Y-132222000D01*
X114570838Y-132457317D01*
X114709910Y-132673441D01*
X114922110Y-132818431D01*
X115174000Y-132869440D01*
X115336385Y-132869440D01*
X115160271Y-132942389D01*
X115104590Y-133172984D01*
X115824000Y-133892395D01*
X116543410Y-133172984D01*
X116487729Y-132942389D01*
X116278098Y-132869440D01*
X116474000Y-132869440D01*
X116709317Y-132825162D01*
X116925441Y-132686090D01*
X117070431Y-132473890D01*
X117121440Y-132222000D01*
X117121440Y-131857750D01*
X120374600Y-131857750D01*
X120374600Y-132148310D01*
X120471273Y-132381699D01*
X120649902Y-132560327D01*
X120883291Y-132657000D01*
X120975850Y-132657000D01*
X121134600Y-132498250D01*
X121134600Y-131699000D01*
X120533350Y-131699000D01*
X120374600Y-131857750D01*
X117121440Y-131857750D01*
X117121440Y-130922000D01*
X117077162Y-130686683D01*
X117005807Y-130575795D01*
X117221000Y-130360602D01*
X117221000Y-130556000D01*
X117231006Y-130605410D01*
X117259447Y-130647035D01*
X117301841Y-130674315D01*
X117348000Y-130683000D01*
X120550574Y-130683000D01*
X120471273Y-130762301D01*
X120374600Y-130995690D01*
X120374600Y-131286250D01*
X120533350Y-131445000D01*
X121134600Y-131445000D01*
X121134600Y-131425000D01*
X121384600Y-131425000D01*
X121384600Y-131445000D01*
X121406600Y-131445000D01*
X121406600Y-131699000D01*
X121384600Y-131699000D01*
X121384600Y-132498250D01*
X121543350Y-132657000D01*
X121635909Y-132657000D01*
X121869298Y-132560327D01*
X122010536Y-132419090D01*
X122045510Y-132473441D01*
X122047000Y-132474459D01*
X122047000Y-134087409D01*
X121851909Y-134006600D01*
X121561350Y-134006600D01*
X121402600Y-134165350D01*
X121402600Y-134914600D01*
X121422600Y-134914600D01*
X121422600Y-135168600D01*
X121402600Y-135168600D01*
X121402600Y-135188600D01*
X121148600Y-135188600D01*
X121148600Y-135168600D01*
X120349350Y-135168600D01*
X120190600Y-135327350D01*
X120190600Y-135567910D01*
X120287273Y-135801299D01*
X120465902Y-135979927D01*
X120502347Y-135995023D01*
X120374159Y-136077510D01*
X120229169Y-136289710D01*
X120178160Y-136541600D01*
X120178160Y-137341600D01*
X120222438Y-137576917D01*
X120361510Y-137793041D01*
X120515600Y-137898326D01*
X120515600Y-138293600D01*
X120573452Y-138584439D01*
X120738199Y-138831001D01*
X120819919Y-138912721D01*
X117261400Y-138912721D01*
X117261400Y-138461750D01*
X117102650Y-138303000D01*
X116103400Y-138303000D01*
X116103400Y-138323000D01*
X115849400Y-138323000D01*
X115849400Y-138303000D01*
X114850150Y-138303000D01*
X114691400Y-138461750D01*
X114691400Y-138912721D01*
X111876779Y-138912721D01*
X111876779Y-137399691D01*
X114691400Y-137399691D01*
X114691400Y-137890250D01*
X114850150Y-138049000D01*
X115849400Y-138049000D01*
X115849400Y-137049750D01*
X116103400Y-137049750D01*
X116103400Y-138049000D01*
X117102650Y-138049000D01*
X117261400Y-137890250D01*
X117261400Y-137399691D01*
X117164727Y-137166302D01*
X116986099Y-136987673D01*
X116752710Y-136891000D01*
X116262150Y-136891000D01*
X116103400Y-137049750D01*
X115849400Y-137049750D01*
X115690650Y-136891000D01*
X115200090Y-136891000D01*
X114966701Y-136987673D01*
X114788073Y-137166302D01*
X114691400Y-137399691D01*
X111876779Y-137399691D01*
X111876779Y-134971016D01*
X115104590Y-134971016D01*
X115160271Y-135201611D01*
X115643078Y-135369622D01*
X116153428Y-135340083D01*
X116487729Y-135201611D01*
X116543410Y-134971016D01*
X115824000Y-134251605D01*
X115104590Y-134971016D01*
X111876779Y-134971016D01*
X111876779Y-134893179D01*
X111818927Y-134602340D01*
X111654180Y-134355778D01*
X111379000Y-134080598D01*
X111379000Y-133891078D01*
X114526378Y-133891078D01*
X114555917Y-134401428D01*
X114694389Y-134735729D01*
X114924984Y-134791410D01*
X115644395Y-134072000D01*
X116003605Y-134072000D01*
X116723016Y-134791410D01*
X116953611Y-134735729D01*
X117030321Y-134515290D01*
X120190600Y-134515290D01*
X120190600Y-134755850D01*
X120349350Y-134914600D01*
X121148600Y-134914600D01*
X121148600Y-134165350D01*
X120989850Y-134006600D01*
X120699291Y-134006600D01*
X120465902Y-134103273D01*
X120287273Y-134281901D01*
X120190600Y-134515290D01*
X117030321Y-134515290D01*
X117121622Y-134252922D01*
X117092083Y-133742572D01*
X116953611Y-133408271D01*
X116723016Y-133352590D01*
X116003605Y-134072000D01*
X115644395Y-134072000D01*
X114924984Y-133352590D01*
X114694389Y-133408271D01*
X114526378Y-133891078D01*
X111379000Y-133891078D01*
X111379000Y-132842000D01*
X111368994Y-132792590D01*
X111340553Y-132750965D01*
X111298159Y-132723685D01*
X111252000Y-132715000D01*
X108013402Y-132715000D01*
X107770380Y-132471978D01*
X107770380Y-132227000D01*
X108731050Y-132227000D01*
X108889800Y-132068250D01*
X108889800Y-131219000D01*
X109143800Y-131219000D01*
X109143800Y-132068250D01*
X109302550Y-132227000D01*
X110643110Y-132227000D01*
X110876499Y-132130327D01*
X111055127Y-131951698D01*
X111151800Y-131718309D01*
X111151800Y-131377750D01*
X110993050Y-131219000D01*
X109143800Y-131219000D01*
X108889800Y-131219000D01*
X108869800Y-131219000D01*
X108869800Y-130965000D01*
X108889800Y-130965000D01*
X108889800Y-130115750D01*
X109143800Y-130115750D01*
X109143800Y-130965000D01*
X110993050Y-130965000D01*
X111151800Y-130806250D01*
X111151800Y-130465691D01*
X111055127Y-130232302D01*
X110876499Y-130053673D01*
X110643110Y-129957000D01*
X109302550Y-129957000D01*
X109143800Y-130115750D01*
X108889800Y-130115750D01*
X108731050Y-129957000D01*
X107770380Y-129957000D01*
X107770380Y-129627331D01*
X111029751Y-127889000D01*
X112762598Y-127889000D01*
X113985799Y-129112201D01*
X113985799Y-129112201D01*
G37*
X113985799Y-129112201D02*
X114164698Y-129231738D01*
X114170038Y-129260117D01*
X114309110Y-129476241D01*
X114521310Y-129621231D01*
X114773200Y-129672240D01*
X115273200Y-129672240D01*
X115508517Y-129627962D01*
X115724641Y-129488890D01*
X115771169Y-129420794D01*
X115891186Y-129540812D01*
X115297399Y-130134599D01*
X115203880Y-130274560D01*
X115174000Y-130274560D01*
X114938683Y-130318838D01*
X114722559Y-130457910D01*
X114577569Y-130670110D01*
X114526560Y-130922000D01*
X114526560Y-132222000D01*
X114570838Y-132457317D01*
X114709910Y-132673441D01*
X114922110Y-132818431D01*
X115174000Y-132869440D01*
X115336385Y-132869440D01*
X115160271Y-132942389D01*
X115104590Y-133172984D01*
X115824000Y-133892395D01*
X116543410Y-133172984D01*
X116487729Y-132942389D01*
X116278098Y-132869440D01*
X116474000Y-132869440D01*
X116709317Y-132825162D01*
X116925441Y-132686090D01*
X117070431Y-132473890D01*
X117121440Y-132222000D01*
X117121440Y-131857750D01*
X120374600Y-131857750D01*
X120374600Y-132148310D01*
X120471273Y-132381699D01*
X120649902Y-132560327D01*
X120883291Y-132657000D01*
X120975850Y-132657000D01*
X121134600Y-132498250D01*
X121134600Y-131699000D01*
X120533350Y-131699000D01*
X120374600Y-131857750D01*
X117121440Y-131857750D01*
X117121440Y-130922000D01*
X117077162Y-130686683D01*
X117005807Y-130575795D01*
X117221000Y-130360602D01*
X117221000Y-130556000D01*
X117231006Y-130605410D01*
X117259447Y-130647035D01*
X117301841Y-130674315D01*
X117348000Y-130683000D01*
X120550574Y-130683000D01*
X120471273Y-130762301D01*
X120374600Y-130995690D01*
X120374600Y-131286250D01*
X120533350Y-131445000D01*
X121134600Y-131445000D01*
X121134600Y-131425000D01*
X121384600Y-131425000D01*
X121384600Y-131445000D01*
X121406600Y-131445000D01*
X121406600Y-131699000D01*
X121384600Y-131699000D01*
X121384600Y-132498250D01*
X121543350Y-132657000D01*
X121635909Y-132657000D01*
X121869298Y-132560327D01*
X122010536Y-132419090D01*
X122045510Y-132473441D01*
X122047000Y-132474459D01*
X122047000Y-134087409D01*
X121851909Y-134006600D01*
X121561350Y-134006600D01*
X121402600Y-134165350D01*
X121402600Y-134914600D01*
X121422600Y-134914600D01*
X121422600Y-135168600D01*
X121402600Y-135168600D01*
X121402600Y-135188600D01*
X121148600Y-135188600D01*
X121148600Y-135168600D01*
X120349350Y-135168600D01*
X120190600Y-135327350D01*
X120190600Y-135567910D01*
X120287273Y-135801299D01*
X120465902Y-135979927D01*
X120502347Y-135995023D01*
X120374159Y-136077510D01*
X120229169Y-136289710D01*
X120178160Y-136541600D01*
X120178160Y-137341600D01*
X120222438Y-137576917D01*
X120361510Y-137793041D01*
X120515600Y-137898326D01*
X120515600Y-138293600D01*
X120573452Y-138584439D01*
X120738199Y-138831001D01*
X120819919Y-138912721D01*
X117261400Y-138912721D01*
X117261400Y-138461750D01*
X117102650Y-138303000D01*
X116103400Y-138303000D01*
X116103400Y-138323000D01*
X115849400Y-138323000D01*
X115849400Y-138303000D01*
X114850150Y-138303000D01*
X114691400Y-138461750D01*
X114691400Y-138912721D01*
X111876779Y-138912721D01*
X111876779Y-137399691D01*
X114691400Y-137399691D01*
X114691400Y-137890250D01*
X114850150Y-138049000D01*
X115849400Y-138049000D01*
X115849400Y-137049750D01*
X116103400Y-137049750D01*
X116103400Y-138049000D01*
X117102650Y-138049000D01*
X117261400Y-137890250D01*
X117261400Y-137399691D01*
X117164727Y-137166302D01*
X116986099Y-136987673D01*
X116752710Y-136891000D01*
X116262150Y-136891000D01*
X116103400Y-137049750D01*
X115849400Y-137049750D01*
X115690650Y-136891000D01*
X115200090Y-136891000D01*
X114966701Y-136987673D01*
X114788073Y-137166302D01*
X114691400Y-137399691D01*
X111876779Y-137399691D01*
X111876779Y-134971016D01*
X115104590Y-134971016D01*
X115160271Y-135201611D01*
X115643078Y-135369622D01*
X116153428Y-135340083D01*
X116487729Y-135201611D01*
X116543410Y-134971016D01*
X115824000Y-134251605D01*
X115104590Y-134971016D01*
X111876779Y-134971016D01*
X111876779Y-134893179D01*
X111818927Y-134602340D01*
X111654180Y-134355778D01*
X111379000Y-134080598D01*
X111379000Y-133891078D01*
X114526378Y-133891078D01*
X114555917Y-134401428D01*
X114694389Y-134735729D01*
X114924984Y-134791410D01*
X115644395Y-134072000D01*
X116003605Y-134072000D01*
X116723016Y-134791410D01*
X116953611Y-134735729D01*
X117030321Y-134515290D01*
X120190600Y-134515290D01*
X120190600Y-134755850D01*
X120349350Y-134914600D01*
X121148600Y-134914600D01*
X121148600Y-134165350D01*
X120989850Y-134006600D01*
X120699291Y-134006600D01*
X120465902Y-134103273D01*
X120287273Y-134281901D01*
X120190600Y-134515290D01*
X117030321Y-134515290D01*
X117121622Y-134252922D01*
X117092083Y-133742572D01*
X116953611Y-133408271D01*
X116723016Y-133352590D01*
X116003605Y-134072000D01*
X115644395Y-134072000D01*
X114924984Y-133352590D01*
X114694389Y-133408271D01*
X114526378Y-133891078D01*
X111379000Y-133891078D01*
X111379000Y-132842000D01*
X111368994Y-132792590D01*
X111340553Y-132750965D01*
X111298159Y-132723685D01*
X111252000Y-132715000D01*
X108013402Y-132715000D01*
X107770380Y-132471978D01*
X107770380Y-132227000D01*
X108731050Y-132227000D01*
X108889800Y-132068250D01*
X108889800Y-131219000D01*
X109143800Y-131219000D01*
X109143800Y-132068250D01*
X109302550Y-132227000D01*
X110643110Y-132227000D01*
X110876499Y-132130327D01*
X111055127Y-131951698D01*
X111151800Y-131718309D01*
X111151800Y-131377750D01*
X110993050Y-131219000D01*
X109143800Y-131219000D01*
X108889800Y-131219000D01*
X108869800Y-131219000D01*
X108869800Y-130965000D01*
X108889800Y-130965000D01*
X108889800Y-130115750D01*
X109143800Y-130115750D01*
X109143800Y-130965000D01*
X110993050Y-130965000D01*
X111151800Y-130806250D01*
X111151800Y-130465691D01*
X111055127Y-130232302D01*
X110876499Y-130053673D01*
X110643110Y-129957000D01*
X109302550Y-129957000D01*
X109143800Y-130115750D01*
X108889800Y-130115750D01*
X108731050Y-129957000D01*
X107770380Y-129957000D01*
X107770380Y-129627331D01*
X111029751Y-127889000D01*
X112762598Y-127889000D01*
X113985799Y-129112201D01*
G36*
X116648200Y-128447800D02*
X116670200Y-128447800D01*
X116670200Y-128701800D01*
X116648200Y-128701800D01*
X116648200Y-128721800D01*
X116398200Y-128721800D01*
X116398200Y-128701800D01*
X116376200Y-128701800D01*
X116376200Y-128447800D01*
X116398200Y-128447800D01*
X116398200Y-128427800D01*
X116648200Y-128427800D01*
X116648200Y-128447800D01*
X116648200Y-128447800D01*
G37*
X116648200Y-128447800D02*
X116670200Y-128447800D01*
X116670200Y-128701800D01*
X116648200Y-128701800D01*
X116648200Y-128721800D01*
X116398200Y-128721800D01*
X116398200Y-128701800D01*
X116376200Y-128701800D01*
X116376200Y-128447800D01*
X116398200Y-128447800D01*
X116398200Y-128427800D01*
X116648200Y-128427800D01*
X116648200Y-128447800D01*
G36*
X207899000Y-56515000D02*
X193548000Y-56515000D01*
X193498590Y-56525006D01*
X193456965Y-56553447D01*
X193429685Y-56595841D01*
X193421000Y-56642000D01*
X193421000Y-62533216D01*
X193385493Y-62586356D01*
X193304805Y-62992000D01*
X193385493Y-63397644D01*
X193421000Y-63450784D01*
X193421000Y-64135000D01*
X175260000Y-64135000D01*
X175210590Y-64145006D01*
X175168965Y-64173447D01*
X175141685Y-64215841D01*
X175133000Y-64262000D01*
X175133000Y-123825000D01*
X170307000Y-123825000D01*
X170307000Y-121951750D01*
X170815000Y-121951750D01*
X170815000Y-123062310D01*
X170911673Y-123295699D01*
X171090302Y-123474327D01*
X171323691Y-123571000D01*
X172434250Y-123571000D01*
X172593000Y-123412250D01*
X172593000Y-121793000D01*
X172847000Y-121793000D01*
X172847000Y-123412250D01*
X173005750Y-123571000D01*
X174116309Y-123571000D01*
X174349698Y-123474327D01*
X174528327Y-123295699D01*
X174625000Y-123062310D01*
X174625000Y-121951750D01*
X174466250Y-121793000D01*
X172847000Y-121793000D01*
X172593000Y-121793000D01*
X170973750Y-121793000D01*
X170815000Y-121951750D01*
X170307000Y-121951750D01*
X170307000Y-120269690D01*
X170815000Y-120269690D01*
X170815000Y-121380250D01*
X170973750Y-121539000D01*
X172593000Y-121539000D01*
X172593000Y-119919750D01*
X172847000Y-119919750D01*
X172847000Y-121539000D01*
X174466250Y-121539000D01*
X174625000Y-121380250D01*
X174625000Y-120269690D01*
X174528327Y-120036301D01*
X174349698Y-119857673D01*
X174116309Y-119761000D01*
X173005750Y-119761000D01*
X172847000Y-119919750D01*
X172593000Y-119919750D01*
X172434250Y-119761000D01*
X171323691Y-119761000D01*
X171090302Y-119857673D01*
X170911673Y-120036301D01*
X170815000Y-120269690D01*
X170307000Y-120269690D01*
X170307000Y-104171750D01*
X170815000Y-104171750D01*
X170815000Y-105282310D01*
X170911673Y-105515699D01*
X171090302Y-105694327D01*
X171323691Y-105791000D01*
X172434250Y-105791000D01*
X172593000Y-105632250D01*
X172593000Y-104013000D01*
X172847000Y-104013000D01*
X172847000Y-105632250D01*
X173005750Y-105791000D01*
X174116309Y-105791000D01*
X174349698Y-105694327D01*
X174528327Y-105515699D01*
X174625000Y-105282310D01*
X174625000Y-104171750D01*
X174466250Y-104013000D01*
X172847000Y-104013000D01*
X172593000Y-104013000D01*
X170973750Y-104013000D01*
X170815000Y-104171750D01*
X170307000Y-104171750D01*
X170307000Y-102489690D01*
X170815000Y-102489690D01*
X170815000Y-103600250D01*
X170973750Y-103759000D01*
X172593000Y-103759000D01*
X172593000Y-102139750D01*
X172847000Y-102139750D01*
X172847000Y-103759000D01*
X174466250Y-103759000D01*
X174625000Y-103600250D01*
X174625000Y-102489690D01*
X174528327Y-102256301D01*
X174349698Y-102077673D01*
X174116309Y-101981000D01*
X173005750Y-101981000D01*
X172847000Y-102139750D01*
X172593000Y-102139750D01*
X172434250Y-101981000D01*
X171323691Y-101981000D01*
X171090302Y-102077673D01*
X170911673Y-102256301D01*
X170815000Y-102489690D01*
X170307000Y-102489690D01*
X170307000Y-86391750D01*
X170815000Y-86391750D01*
X170815000Y-87502310D01*
X170911673Y-87735699D01*
X171090302Y-87914327D01*
X171323691Y-88011000D01*
X172434250Y-88011000D01*
X172593000Y-87852250D01*
X172593000Y-86233000D01*
X172847000Y-86233000D01*
X172847000Y-87852250D01*
X173005750Y-88011000D01*
X174116309Y-88011000D01*
X174349698Y-87914327D01*
X174528327Y-87735699D01*
X174625000Y-87502310D01*
X174625000Y-86391750D01*
X174466250Y-86233000D01*
X172847000Y-86233000D01*
X172593000Y-86233000D01*
X170973750Y-86233000D01*
X170815000Y-86391750D01*
X170307000Y-86391750D01*
X170307000Y-84709690D01*
X170815000Y-84709690D01*
X170815000Y-85820250D01*
X170973750Y-85979000D01*
X172593000Y-85979000D01*
X172593000Y-84359750D01*
X172847000Y-84359750D01*
X172847000Y-85979000D01*
X174466250Y-85979000D01*
X174625000Y-85820250D01*
X174625000Y-84709690D01*
X174528327Y-84476301D01*
X174349698Y-84297673D01*
X174116309Y-84201000D01*
X173005750Y-84201000D01*
X172847000Y-84359750D01*
X172593000Y-84359750D01*
X172434250Y-84201000D01*
X171323691Y-84201000D01*
X171090302Y-84297673D01*
X170911673Y-84476301D01*
X170815000Y-84709690D01*
X170307000Y-84709690D01*
X170307000Y-62103000D01*
X183663999Y-62103000D01*
X183455272Y-62242467D01*
X183225493Y-62586356D01*
X183144805Y-62992000D01*
X183225493Y-63397644D01*
X183455272Y-63741533D01*
X183799161Y-63971312D01*
X184204805Y-64052000D01*
X184603195Y-64052000D01*
X185008839Y-63971312D01*
X185352728Y-63741533D01*
X185582507Y-63397644D01*
X185605497Y-63282062D01*
X185749460Y-63282062D01*
X185937336Y-63655570D01*
X186254580Y-63923323D01*
X186650140Y-64049290D01*
X186817000Y-63896117D01*
X186817000Y-63119000D01*
X187071000Y-63119000D01*
X187071000Y-63896117D01*
X187237860Y-64049290D01*
X187633420Y-63923323D01*
X187950664Y-63655570D01*
X188138540Y-63282062D01*
X188289460Y-63282062D01*
X188477336Y-63655570D01*
X188794580Y-63923323D01*
X189190140Y-64049290D01*
X189357000Y-63896117D01*
X189357000Y-63119000D01*
X189611000Y-63119000D01*
X189611000Y-63896117D01*
X189777860Y-64049290D01*
X190173420Y-63923323D01*
X190490664Y-63655570D01*
X190678540Y-63282062D01*
X190829460Y-63282062D01*
X191017336Y-63655570D01*
X191334580Y-63923323D01*
X191730140Y-64049290D01*
X191897000Y-63896117D01*
X191897000Y-63119000D01*
X192151000Y-63119000D01*
X192151000Y-63896117D01*
X192317860Y-64049290D01*
X192713420Y-63923323D01*
X193030664Y-63655570D01*
X193218540Y-63282062D01*
X193091257Y-63119000D01*
X192151000Y-63119000D01*
X191897000Y-63119000D01*
X190956743Y-63119000D01*
X190829460Y-63282062D01*
X190678540Y-63282062D01*
X190551257Y-63119000D01*
X189611000Y-63119000D01*
X189357000Y-63119000D01*
X188416743Y-63119000D01*
X188289460Y-63282062D01*
X188138540Y-63282062D01*
X188011257Y-63119000D01*
X187071000Y-63119000D01*
X186817000Y-63119000D01*
X185876743Y-63119000D01*
X185749460Y-63282062D01*
X185605497Y-63282062D01*
X185663195Y-62992000D01*
X185582507Y-62586356D01*
X185352728Y-62242467D01*
X185144001Y-62103000D01*
X186204434Y-62103000D01*
X185937336Y-62328430D01*
X185749460Y-62701938D01*
X185876743Y-62865000D01*
X186817000Y-62865000D01*
X186817000Y-62845000D01*
X187071000Y-62845000D01*
X187071000Y-62865000D01*
X188011257Y-62865000D01*
X188138540Y-62701938D01*
X187950664Y-62328430D01*
X187683566Y-62103000D01*
X188744434Y-62103000D01*
X188477336Y-62328430D01*
X188289460Y-62701938D01*
X188416743Y-62865000D01*
X189357000Y-62865000D01*
X189357000Y-62845000D01*
X189611000Y-62845000D01*
X189611000Y-62865000D01*
X190551257Y-62865000D01*
X190678540Y-62701938D01*
X190829460Y-62701938D01*
X190956743Y-62865000D01*
X191897000Y-62865000D01*
X191897000Y-62087883D01*
X192151000Y-62087883D01*
X192151000Y-62865000D01*
X193091257Y-62865000D01*
X193218540Y-62701938D01*
X193030664Y-62328430D01*
X192713420Y-62060677D01*
X192317860Y-61934710D01*
X192151000Y-62087883D01*
X191897000Y-62087883D01*
X191730140Y-61934710D01*
X191334580Y-62060677D01*
X191017336Y-62328430D01*
X190829460Y-62701938D01*
X190678540Y-62701938D01*
X190490664Y-62328430D01*
X190173420Y-62060677D01*
X190100477Y-62037448D01*
X190110315Y-62022159D01*
X190119000Y-61976000D01*
X190119000Y-55653175D01*
X190876430Y-55653175D01*
X190999565Y-55940788D01*
X191681734Y-56200707D01*
X192411443Y-56179786D01*
X192988435Y-55940788D01*
X193111570Y-55653175D01*
X191994000Y-54535605D01*
X190876430Y-55653175D01*
X190119000Y-55653175D01*
X190119000Y-55227572D01*
X190238808Y-54939043D01*
X190409212Y-55350435D01*
X190696825Y-55473570D01*
X191814395Y-54356000D01*
X192173605Y-54356000D01*
X193291175Y-55473570D01*
X193578788Y-55350435D01*
X193742204Y-54921542D01*
X193937455Y-55394086D01*
X194453199Y-55910730D01*
X195127395Y-56190681D01*
X195857403Y-56191318D01*
X196532086Y-55912545D01*
X196791908Y-55653175D01*
X197876430Y-55653175D01*
X197999565Y-55940788D01*
X198681734Y-56200707D01*
X199411443Y-56179786D01*
X199988435Y-55940788D01*
X200111570Y-55653175D01*
X198994000Y-54535605D01*
X197876430Y-55653175D01*
X196791908Y-55653175D01*
X197048730Y-55396801D01*
X197238808Y-54939043D01*
X197409212Y-55350435D01*
X197696825Y-55473570D01*
X198814395Y-54356000D01*
X199173605Y-54356000D01*
X200291175Y-55473570D01*
X200578788Y-55350435D01*
X200742204Y-54921542D01*
X200937455Y-55394086D01*
X201453199Y-55910730D01*
X202127395Y-56190681D01*
X202857403Y-56191318D01*
X203532086Y-55912545D01*
X204048730Y-55396801D01*
X204159000Y-55131242D01*
X204159000Y-55682310D01*
X204255673Y-55915699D01*
X204434302Y-56094327D01*
X204667691Y-56191000D01*
X205708250Y-56191000D01*
X205867000Y-56032250D01*
X205867000Y-54483000D01*
X206121000Y-54483000D01*
X206121000Y-56032250D01*
X206279750Y-56191000D01*
X207320309Y-56191000D01*
X207553698Y-56094327D01*
X207732327Y-55915699D01*
X207829000Y-55682310D01*
X207829000Y-54641750D01*
X207670250Y-54483000D01*
X206121000Y-54483000D01*
X205867000Y-54483000D01*
X205847000Y-54483000D01*
X205847000Y-54229000D01*
X205867000Y-54229000D01*
X205867000Y-52679750D01*
X206121000Y-52679750D01*
X206121000Y-54229000D01*
X207670250Y-54229000D01*
X207829000Y-54070250D01*
X207829000Y-53029690D01*
X207732327Y-52796301D01*
X207553698Y-52617673D01*
X207320309Y-52521000D01*
X206279750Y-52521000D01*
X206121000Y-52679750D01*
X205867000Y-52679750D01*
X205708250Y-52521000D01*
X204667691Y-52521000D01*
X204434302Y-52617673D01*
X204255673Y-52796301D01*
X204159000Y-53029690D01*
X204159000Y-53580395D01*
X204050545Y-53317914D01*
X203534801Y-52801270D01*
X202860605Y-52521319D01*
X202130597Y-52520682D01*
X201455914Y-52799455D01*
X200939270Y-53315199D01*
X200749192Y-53772957D01*
X200578788Y-53361565D01*
X200291175Y-53238430D01*
X199173605Y-54356000D01*
X198814395Y-54356000D01*
X197696825Y-53238430D01*
X197409212Y-53361565D01*
X197245796Y-53790458D01*
X197050545Y-53317914D01*
X196791908Y-53058825D01*
X197876430Y-53058825D01*
X198994000Y-54176395D01*
X200111570Y-53058825D01*
X199988435Y-52771212D01*
X199306266Y-52511293D01*
X198576557Y-52532214D01*
X197999565Y-52771212D01*
X197876430Y-53058825D01*
X196791908Y-53058825D01*
X196534801Y-52801270D01*
X195860605Y-52521319D01*
X195130597Y-52520682D01*
X194455914Y-52799455D01*
X193939270Y-53315199D01*
X193749192Y-53772957D01*
X193578788Y-53361565D01*
X193291175Y-53238430D01*
X192173605Y-54356000D01*
X191814395Y-54356000D01*
X190696825Y-53238430D01*
X190409212Y-53361565D01*
X190245796Y-53790458D01*
X190119000Y-53483588D01*
X190119000Y-53058825D01*
X190876430Y-53058825D01*
X191994000Y-54176395D01*
X193111570Y-53058825D01*
X192988435Y-52771212D01*
X192306266Y-52511293D01*
X191576557Y-52532214D01*
X190999565Y-52771212D01*
X190876430Y-53058825D01*
X190119000Y-53058825D01*
X190119000Y-52197000D01*
X207899000Y-52197000D01*
X207899000Y-56515000D01*
X207899000Y-56515000D01*
G37*
X207899000Y-56515000D02*
X193548000Y-56515000D01*
X193498590Y-56525006D01*
X193456965Y-56553447D01*
X193429685Y-56595841D01*
X193421000Y-56642000D01*
X193421000Y-62533216D01*
X193385493Y-62586356D01*
X193304805Y-62992000D01*
X193385493Y-63397644D01*
X193421000Y-63450784D01*
X193421000Y-64135000D01*
X175260000Y-64135000D01*
X175210590Y-64145006D01*
X175168965Y-64173447D01*
X175141685Y-64215841D01*
X175133000Y-64262000D01*
X175133000Y-123825000D01*
X170307000Y-123825000D01*
X170307000Y-121951750D01*
X170815000Y-121951750D01*
X170815000Y-123062310D01*
X170911673Y-123295699D01*
X171090302Y-123474327D01*
X171323691Y-123571000D01*
X172434250Y-123571000D01*
X172593000Y-123412250D01*
X172593000Y-121793000D01*
X172847000Y-121793000D01*
X172847000Y-123412250D01*
X173005750Y-123571000D01*
X174116309Y-123571000D01*
X174349698Y-123474327D01*
X174528327Y-123295699D01*
X174625000Y-123062310D01*
X174625000Y-121951750D01*
X174466250Y-121793000D01*
X172847000Y-121793000D01*
X172593000Y-121793000D01*
X170973750Y-121793000D01*
X170815000Y-121951750D01*
X170307000Y-121951750D01*
X170307000Y-120269690D01*
X170815000Y-120269690D01*
X170815000Y-121380250D01*
X170973750Y-121539000D01*
X172593000Y-121539000D01*
X172593000Y-119919750D01*
X172847000Y-119919750D01*
X172847000Y-121539000D01*
X174466250Y-121539000D01*
X174625000Y-121380250D01*
X174625000Y-120269690D01*
X174528327Y-120036301D01*
X174349698Y-119857673D01*
X174116309Y-119761000D01*
X173005750Y-119761000D01*
X172847000Y-119919750D01*
X172593000Y-119919750D01*
X172434250Y-119761000D01*
X171323691Y-119761000D01*
X171090302Y-119857673D01*
X170911673Y-120036301D01*
X170815000Y-120269690D01*
X170307000Y-120269690D01*
X170307000Y-104171750D01*
X170815000Y-104171750D01*
X170815000Y-105282310D01*
X170911673Y-105515699D01*
X171090302Y-105694327D01*
X171323691Y-105791000D01*
X172434250Y-105791000D01*
X172593000Y-105632250D01*
X172593000Y-104013000D01*
X172847000Y-104013000D01*
X172847000Y-105632250D01*
X173005750Y-105791000D01*
X174116309Y-105791000D01*
X174349698Y-105694327D01*
X174528327Y-105515699D01*
X174625000Y-105282310D01*
X174625000Y-104171750D01*
X174466250Y-104013000D01*
X172847000Y-104013000D01*
X172593000Y-104013000D01*
X170973750Y-104013000D01*
X170815000Y-104171750D01*
X170307000Y-104171750D01*
X170307000Y-102489690D01*
X170815000Y-102489690D01*
X170815000Y-103600250D01*
X170973750Y-103759000D01*
X172593000Y-103759000D01*
X172593000Y-102139750D01*
X172847000Y-102139750D01*
X172847000Y-103759000D01*
X174466250Y-103759000D01*
X174625000Y-103600250D01*
X174625000Y-102489690D01*
X174528327Y-102256301D01*
X174349698Y-102077673D01*
X174116309Y-101981000D01*
X173005750Y-101981000D01*
X172847000Y-102139750D01*
X172593000Y-102139750D01*
X172434250Y-101981000D01*
X171323691Y-101981000D01*
X171090302Y-102077673D01*
X170911673Y-102256301D01*
X170815000Y-102489690D01*
X170307000Y-102489690D01*
X170307000Y-86391750D01*
X170815000Y-86391750D01*
X170815000Y-87502310D01*
X170911673Y-87735699D01*
X171090302Y-87914327D01*
X171323691Y-88011000D01*
X172434250Y-88011000D01*
X172593000Y-87852250D01*
X172593000Y-86233000D01*
X172847000Y-86233000D01*
X172847000Y-87852250D01*
X173005750Y-88011000D01*
X174116309Y-88011000D01*
X174349698Y-87914327D01*
X174528327Y-87735699D01*
X174625000Y-87502310D01*
X174625000Y-86391750D01*
X174466250Y-86233000D01*
X172847000Y-86233000D01*
X172593000Y-86233000D01*
X170973750Y-86233000D01*
X170815000Y-86391750D01*
X170307000Y-86391750D01*
X170307000Y-84709690D01*
X170815000Y-84709690D01*
X170815000Y-85820250D01*
X170973750Y-85979000D01*
X172593000Y-85979000D01*
X172593000Y-84359750D01*
X172847000Y-84359750D01*
X172847000Y-85979000D01*
X174466250Y-85979000D01*
X174625000Y-85820250D01*
X174625000Y-84709690D01*
X174528327Y-84476301D01*
X174349698Y-84297673D01*
X174116309Y-84201000D01*
X173005750Y-84201000D01*
X172847000Y-84359750D01*
X172593000Y-84359750D01*
X172434250Y-84201000D01*
X171323691Y-84201000D01*
X171090302Y-84297673D01*
X170911673Y-84476301D01*
X170815000Y-84709690D01*
X170307000Y-84709690D01*
X170307000Y-62103000D01*
X183663999Y-62103000D01*
X183455272Y-62242467D01*
X183225493Y-62586356D01*
X183144805Y-62992000D01*
X183225493Y-63397644D01*
X183455272Y-63741533D01*
X183799161Y-63971312D01*
X184204805Y-64052000D01*
X184603195Y-64052000D01*
X185008839Y-63971312D01*
X185352728Y-63741533D01*
X185582507Y-63397644D01*
X185605497Y-63282062D01*
X185749460Y-63282062D01*
X185937336Y-63655570D01*
X186254580Y-63923323D01*
X186650140Y-64049290D01*
X186817000Y-63896117D01*
X186817000Y-63119000D01*
X187071000Y-63119000D01*
X187071000Y-63896117D01*
X187237860Y-64049290D01*
X187633420Y-63923323D01*
X187950664Y-63655570D01*
X188138540Y-63282062D01*
X188289460Y-63282062D01*
X188477336Y-63655570D01*
X188794580Y-63923323D01*
X189190140Y-64049290D01*
X189357000Y-63896117D01*
X189357000Y-63119000D01*
X189611000Y-63119000D01*
X189611000Y-63896117D01*
X189777860Y-64049290D01*
X190173420Y-63923323D01*
X190490664Y-63655570D01*
X190678540Y-63282062D01*
X190829460Y-63282062D01*
X191017336Y-63655570D01*
X191334580Y-63923323D01*
X191730140Y-64049290D01*
X191897000Y-63896117D01*
X191897000Y-63119000D01*
X192151000Y-63119000D01*
X192151000Y-63896117D01*
X192317860Y-64049290D01*
X192713420Y-63923323D01*
X193030664Y-63655570D01*
X193218540Y-63282062D01*
X193091257Y-63119000D01*
X192151000Y-63119000D01*
X191897000Y-63119000D01*
X190956743Y-63119000D01*
X190829460Y-63282062D01*
X190678540Y-63282062D01*
X190551257Y-63119000D01*
X189611000Y-63119000D01*
X189357000Y-63119000D01*
X188416743Y-63119000D01*
X188289460Y-63282062D01*
X188138540Y-63282062D01*
X188011257Y-63119000D01*
X187071000Y-63119000D01*
X186817000Y-63119000D01*
X185876743Y-63119000D01*
X185749460Y-63282062D01*
X185605497Y-63282062D01*
X185663195Y-62992000D01*
X185582507Y-62586356D01*
X185352728Y-62242467D01*
X185144001Y-62103000D01*
X186204434Y-62103000D01*
X185937336Y-62328430D01*
X185749460Y-62701938D01*
X185876743Y-62865000D01*
X186817000Y-62865000D01*
X186817000Y-62845000D01*
X187071000Y-62845000D01*
X187071000Y-62865000D01*
X188011257Y-62865000D01*
X188138540Y-62701938D01*
X187950664Y-62328430D01*
X187683566Y-62103000D01*
X188744434Y-62103000D01*
X188477336Y-62328430D01*
X188289460Y-62701938D01*
X188416743Y-62865000D01*
X189357000Y-62865000D01*
X189357000Y-62845000D01*
X189611000Y-62845000D01*
X189611000Y-62865000D01*
X190551257Y-62865000D01*
X190678540Y-62701938D01*
X190829460Y-62701938D01*
X190956743Y-62865000D01*
X191897000Y-62865000D01*
X191897000Y-62087883D01*
X192151000Y-62087883D01*
X192151000Y-62865000D01*
X193091257Y-62865000D01*
X193218540Y-62701938D01*
X193030664Y-62328430D01*
X192713420Y-62060677D01*
X192317860Y-61934710D01*
X192151000Y-62087883D01*
X191897000Y-62087883D01*
X191730140Y-61934710D01*
X191334580Y-62060677D01*
X191017336Y-62328430D01*
X190829460Y-62701938D01*
X190678540Y-62701938D01*
X190490664Y-62328430D01*
X190173420Y-62060677D01*
X190100477Y-62037448D01*
X190110315Y-62022159D01*
X190119000Y-61976000D01*
X190119000Y-55653175D01*
X190876430Y-55653175D01*
X190999565Y-55940788D01*
X191681734Y-56200707D01*
X192411443Y-56179786D01*
X192988435Y-55940788D01*
X193111570Y-55653175D01*
X191994000Y-54535605D01*
X190876430Y-55653175D01*
X190119000Y-55653175D01*
X190119000Y-55227572D01*
X190238808Y-54939043D01*
X190409212Y-55350435D01*
X190696825Y-55473570D01*
X191814395Y-54356000D01*
X192173605Y-54356000D01*
X193291175Y-55473570D01*
X193578788Y-55350435D01*
X193742204Y-54921542D01*
X193937455Y-55394086D01*
X194453199Y-55910730D01*
X195127395Y-56190681D01*
X195857403Y-56191318D01*
X196532086Y-55912545D01*
X196791908Y-55653175D01*
X197876430Y-55653175D01*
X197999565Y-55940788D01*
X198681734Y-56200707D01*
X199411443Y-56179786D01*
X199988435Y-55940788D01*
X200111570Y-55653175D01*
X198994000Y-54535605D01*
X197876430Y-55653175D01*
X196791908Y-55653175D01*
X197048730Y-55396801D01*
X197238808Y-54939043D01*
X197409212Y-55350435D01*
X197696825Y-55473570D01*
X198814395Y-54356000D01*
X199173605Y-54356000D01*
X200291175Y-55473570D01*
X200578788Y-55350435D01*
X200742204Y-54921542D01*
X200937455Y-55394086D01*
X201453199Y-55910730D01*
X202127395Y-56190681D01*
X202857403Y-56191318D01*
X203532086Y-55912545D01*
X204048730Y-55396801D01*
X204159000Y-55131242D01*
X204159000Y-55682310D01*
X204255673Y-55915699D01*
X204434302Y-56094327D01*
X204667691Y-56191000D01*
X205708250Y-56191000D01*
X205867000Y-56032250D01*
X205867000Y-54483000D01*
X206121000Y-54483000D01*
X206121000Y-56032250D01*
X206279750Y-56191000D01*
X207320309Y-56191000D01*
X207553698Y-56094327D01*
X207732327Y-55915699D01*
X207829000Y-55682310D01*
X207829000Y-54641750D01*
X207670250Y-54483000D01*
X206121000Y-54483000D01*
X205867000Y-54483000D01*
X205847000Y-54483000D01*
X205847000Y-54229000D01*
X205867000Y-54229000D01*
X205867000Y-52679750D01*
X206121000Y-52679750D01*
X206121000Y-54229000D01*
X207670250Y-54229000D01*
X207829000Y-54070250D01*
X207829000Y-53029690D01*
X207732327Y-52796301D01*
X207553698Y-52617673D01*
X207320309Y-52521000D01*
X206279750Y-52521000D01*
X206121000Y-52679750D01*
X205867000Y-52679750D01*
X205708250Y-52521000D01*
X204667691Y-52521000D01*
X204434302Y-52617673D01*
X204255673Y-52796301D01*
X204159000Y-53029690D01*
X204159000Y-53580395D01*
X204050545Y-53317914D01*
X203534801Y-52801270D01*
X202860605Y-52521319D01*
X202130597Y-52520682D01*
X201455914Y-52799455D01*
X200939270Y-53315199D01*
X200749192Y-53772957D01*
X200578788Y-53361565D01*
X200291175Y-53238430D01*
X199173605Y-54356000D01*
X198814395Y-54356000D01*
X197696825Y-53238430D01*
X197409212Y-53361565D01*
X197245796Y-53790458D01*
X197050545Y-53317914D01*
X196791908Y-53058825D01*
X197876430Y-53058825D01*
X198994000Y-54176395D01*
X200111570Y-53058825D01*
X199988435Y-52771212D01*
X199306266Y-52511293D01*
X198576557Y-52532214D01*
X197999565Y-52771212D01*
X197876430Y-53058825D01*
X196791908Y-53058825D01*
X196534801Y-52801270D01*
X195860605Y-52521319D01*
X195130597Y-52520682D01*
X194455914Y-52799455D01*
X193939270Y-53315199D01*
X193749192Y-53772957D01*
X193578788Y-53361565D01*
X193291175Y-53238430D01*
X192173605Y-54356000D01*
X191814395Y-54356000D01*
X190696825Y-53238430D01*
X190409212Y-53361565D01*
X190245796Y-53790458D01*
X190119000Y-53483588D01*
X190119000Y-53058825D01*
X190876430Y-53058825D01*
X191994000Y-54176395D01*
X193111570Y-53058825D01*
X192988435Y-52771212D01*
X192306266Y-52511293D01*
X191576557Y-52532214D01*
X190999565Y-52771212D01*
X190876430Y-53058825D01*
X190119000Y-53058825D01*
X190119000Y-52197000D01*
X207899000Y-52197000D01*
X207899000Y-56515000D01*
G36*
X247828957Y-89430808D02*
X247417565Y-89601212D01*
X247294430Y-89888825D01*
X248412000Y-91006395D01*
X249529570Y-89888825D01*
X249406435Y-89601212D01*
X248977542Y-89437796D01*
X249357018Y-89281000D01*
X251079000Y-89281000D01*
X251079000Y-107315000D01*
X245745000Y-107315000D01*
X245745000Y-105471750D01*
X246577000Y-105471750D01*
X246577000Y-106512309D01*
X246673673Y-106745698D01*
X246852301Y-106924327D01*
X247085690Y-107021000D01*
X248126250Y-107021000D01*
X248285000Y-106862250D01*
X248285000Y-105313000D01*
X248539000Y-105313000D01*
X248539000Y-106862250D01*
X248697750Y-107021000D01*
X249738310Y-107021000D01*
X249971699Y-106924327D01*
X250150327Y-106745698D01*
X250247000Y-106512309D01*
X250247000Y-105471750D01*
X250088250Y-105313000D01*
X248539000Y-105313000D01*
X248285000Y-105313000D01*
X246735750Y-105313000D01*
X246577000Y-105471750D01*
X245745000Y-105471750D01*
X245745000Y-102049403D01*
X246576682Y-102049403D01*
X246855455Y-102724086D01*
X247371199Y-103240730D01*
X247636758Y-103351000D01*
X247085690Y-103351000D01*
X246852301Y-103447673D01*
X246673673Y-103626302D01*
X246577000Y-103859691D01*
X246577000Y-104900250D01*
X246735750Y-105059000D01*
X248285000Y-105059000D01*
X248285000Y-105039000D01*
X248539000Y-105039000D01*
X248539000Y-105059000D01*
X250088250Y-105059000D01*
X250247000Y-104900250D01*
X250247000Y-103859691D01*
X250150327Y-103626302D01*
X249971699Y-103447673D01*
X249738310Y-103351000D01*
X249187605Y-103351000D01*
X249450086Y-103242545D01*
X249966730Y-102726801D01*
X250246681Y-102052605D01*
X250247318Y-101322597D01*
X249968545Y-100647914D01*
X249452801Y-100131270D01*
X248995043Y-99941192D01*
X249406435Y-99770788D01*
X249529570Y-99483175D01*
X248412000Y-98365605D01*
X247294430Y-99483175D01*
X247417565Y-99770788D01*
X247846458Y-99934204D01*
X247373914Y-100129455D01*
X246857270Y-100645199D01*
X246577319Y-101319395D01*
X246576682Y-102049403D01*
X245745000Y-102049403D01*
X245745000Y-97873734D01*
X246567293Y-97873734D01*
X246588214Y-98603443D01*
X246827212Y-99180435D01*
X247114825Y-99303570D01*
X248232395Y-98186000D01*
X248591605Y-98186000D01*
X249709175Y-99303570D01*
X249996788Y-99180435D01*
X250256707Y-98498266D01*
X250235786Y-97768557D01*
X249996788Y-97191565D01*
X249709175Y-97068430D01*
X248591605Y-98186000D01*
X248232395Y-98186000D01*
X247114825Y-97068430D01*
X246827212Y-97191565D01*
X246567293Y-97873734D01*
X245745000Y-97873734D01*
X245745000Y-96774000D01*
X245734994Y-96724590D01*
X245706553Y-96682965D01*
X245664159Y-96655685D01*
X245618000Y-96647000D01*
X232791000Y-96647000D01*
X232791000Y-96003025D01*
X234884581Y-96003025D01*
X235001601Y-96285446D01*
X235665663Y-96537018D01*
X236375448Y-96515314D01*
X236930399Y-96285446D01*
X237047419Y-96003025D01*
X235966000Y-94921605D01*
X234884581Y-96003025D01*
X232791000Y-96003025D01*
X232791000Y-94441663D01*
X234170982Y-94441663D01*
X234192686Y-95151448D01*
X234422554Y-95706399D01*
X234704975Y-95823419D01*
X235786395Y-94742000D01*
X236145605Y-94742000D01*
X237227025Y-95823419D01*
X237509446Y-95706399D01*
X237758341Y-95049403D01*
X246576682Y-95049403D01*
X246855455Y-95724086D01*
X247371199Y-96240730D01*
X247828957Y-96430808D01*
X247417565Y-96601212D01*
X247294430Y-96888825D01*
X248412000Y-98006395D01*
X249529570Y-96888825D01*
X249406435Y-96601212D01*
X248977542Y-96437796D01*
X249450086Y-96242545D01*
X249966730Y-95726801D01*
X250246681Y-95052605D01*
X250247318Y-94322597D01*
X249968545Y-93647914D01*
X249452801Y-93131270D01*
X248995043Y-92941192D01*
X249406435Y-92770788D01*
X249529570Y-92483175D01*
X248412000Y-91365605D01*
X247294430Y-92483175D01*
X247417565Y-92770788D01*
X247846458Y-92934204D01*
X247373914Y-93129455D01*
X246857270Y-93645199D01*
X246577319Y-94319395D01*
X246576682Y-95049403D01*
X237758341Y-95049403D01*
X237761018Y-95042337D01*
X237739314Y-94332552D01*
X237509446Y-93777601D01*
X237227025Y-93660581D01*
X236145605Y-94742000D01*
X235786395Y-94742000D01*
X234704975Y-93660581D01*
X234422554Y-93777601D01*
X234170982Y-94441663D01*
X232791000Y-94441663D01*
X232791000Y-93480975D01*
X234884581Y-93480975D01*
X235966000Y-94562395D01*
X237047419Y-93480975D01*
X236930399Y-93198554D01*
X236266337Y-92946982D01*
X235556552Y-92968686D01*
X235001601Y-93198554D01*
X234884581Y-93480975D01*
X232791000Y-93480975D01*
X232791000Y-91821228D01*
X245617772Y-91844217D01*
X245667200Y-91834300D01*
X245708876Y-91805933D01*
X245736232Y-91763588D01*
X245745000Y-91717217D01*
X245745000Y-90873734D01*
X246567293Y-90873734D01*
X246588214Y-91603443D01*
X246827212Y-92180435D01*
X247114825Y-92303570D01*
X248232395Y-91186000D01*
X248591605Y-91186000D01*
X249709175Y-92303570D01*
X249996788Y-92180435D01*
X250256707Y-91498266D01*
X250235786Y-90768557D01*
X249996788Y-90191565D01*
X249709175Y-90068430D01*
X248591605Y-91186000D01*
X248232395Y-91186000D01*
X247114825Y-90068430D01*
X246827212Y-90191565D01*
X246567293Y-90873734D01*
X245745000Y-90873734D01*
X245745000Y-89281000D01*
X247468180Y-89281000D01*
X247828957Y-89430808D01*
X247828957Y-89430808D01*
G37*
X247828957Y-89430808D02*
X247417565Y-89601212D01*
X247294430Y-89888825D01*
X248412000Y-91006395D01*
X249529570Y-89888825D01*
X249406435Y-89601212D01*
X248977542Y-89437796D01*
X249357018Y-89281000D01*
X251079000Y-89281000D01*
X251079000Y-107315000D01*
X245745000Y-107315000D01*
X245745000Y-105471750D01*
X246577000Y-105471750D01*
X246577000Y-106512309D01*
X246673673Y-106745698D01*
X246852301Y-106924327D01*
X247085690Y-107021000D01*
X248126250Y-107021000D01*
X248285000Y-106862250D01*
X248285000Y-105313000D01*
X248539000Y-105313000D01*
X248539000Y-106862250D01*
X248697750Y-107021000D01*
X249738310Y-107021000D01*
X249971699Y-106924327D01*
X250150327Y-106745698D01*
X250247000Y-106512309D01*
X250247000Y-105471750D01*
X250088250Y-105313000D01*
X248539000Y-105313000D01*
X248285000Y-105313000D01*
X246735750Y-105313000D01*
X246577000Y-105471750D01*
X245745000Y-105471750D01*
X245745000Y-102049403D01*
X246576682Y-102049403D01*
X246855455Y-102724086D01*
X247371199Y-103240730D01*
X247636758Y-103351000D01*
X247085690Y-103351000D01*
X246852301Y-103447673D01*
X246673673Y-103626302D01*
X246577000Y-103859691D01*
X246577000Y-104900250D01*
X246735750Y-105059000D01*
X248285000Y-105059000D01*
X248285000Y-105039000D01*
X248539000Y-105039000D01*
X248539000Y-105059000D01*
X250088250Y-105059000D01*
X250247000Y-104900250D01*
X250247000Y-103859691D01*
X250150327Y-103626302D01*
X249971699Y-103447673D01*
X249738310Y-103351000D01*
X249187605Y-103351000D01*
X249450086Y-103242545D01*
X249966730Y-102726801D01*
X250246681Y-102052605D01*
X250247318Y-101322597D01*
X249968545Y-100647914D01*
X249452801Y-100131270D01*
X248995043Y-99941192D01*
X249406435Y-99770788D01*
X249529570Y-99483175D01*
X248412000Y-98365605D01*
X247294430Y-99483175D01*
X247417565Y-99770788D01*
X247846458Y-99934204D01*
X247373914Y-100129455D01*
X246857270Y-100645199D01*
X246577319Y-101319395D01*
X246576682Y-102049403D01*
X245745000Y-102049403D01*
X245745000Y-97873734D01*
X246567293Y-97873734D01*
X246588214Y-98603443D01*
X246827212Y-99180435D01*
X247114825Y-99303570D01*
X248232395Y-98186000D01*
X248591605Y-98186000D01*
X249709175Y-99303570D01*
X249996788Y-99180435D01*
X250256707Y-98498266D01*
X250235786Y-97768557D01*
X249996788Y-97191565D01*
X249709175Y-97068430D01*
X248591605Y-98186000D01*
X248232395Y-98186000D01*
X247114825Y-97068430D01*
X246827212Y-97191565D01*
X246567293Y-97873734D01*
X245745000Y-97873734D01*
X245745000Y-96774000D01*
X245734994Y-96724590D01*
X245706553Y-96682965D01*
X245664159Y-96655685D01*
X245618000Y-96647000D01*
X232791000Y-96647000D01*
X232791000Y-96003025D01*
X234884581Y-96003025D01*
X235001601Y-96285446D01*
X235665663Y-96537018D01*
X236375448Y-96515314D01*
X236930399Y-96285446D01*
X237047419Y-96003025D01*
X235966000Y-94921605D01*
X234884581Y-96003025D01*
X232791000Y-96003025D01*
X232791000Y-94441663D01*
X234170982Y-94441663D01*
X234192686Y-95151448D01*
X234422554Y-95706399D01*
X234704975Y-95823419D01*
X235786395Y-94742000D01*
X236145605Y-94742000D01*
X237227025Y-95823419D01*
X237509446Y-95706399D01*
X237758341Y-95049403D01*
X246576682Y-95049403D01*
X246855455Y-95724086D01*
X247371199Y-96240730D01*
X247828957Y-96430808D01*
X247417565Y-96601212D01*
X247294430Y-96888825D01*
X248412000Y-98006395D01*
X249529570Y-96888825D01*
X249406435Y-96601212D01*
X248977542Y-96437796D01*
X249450086Y-96242545D01*
X249966730Y-95726801D01*
X250246681Y-95052605D01*
X250247318Y-94322597D01*
X249968545Y-93647914D01*
X249452801Y-93131270D01*
X248995043Y-92941192D01*
X249406435Y-92770788D01*
X249529570Y-92483175D01*
X248412000Y-91365605D01*
X247294430Y-92483175D01*
X247417565Y-92770788D01*
X247846458Y-92934204D01*
X247373914Y-93129455D01*
X246857270Y-93645199D01*
X246577319Y-94319395D01*
X246576682Y-95049403D01*
X237758341Y-95049403D01*
X237761018Y-95042337D01*
X237739314Y-94332552D01*
X237509446Y-93777601D01*
X237227025Y-93660581D01*
X236145605Y-94742000D01*
X235786395Y-94742000D01*
X234704975Y-93660581D01*
X234422554Y-93777601D01*
X234170982Y-94441663D01*
X232791000Y-94441663D01*
X232791000Y-93480975D01*
X234884581Y-93480975D01*
X235966000Y-94562395D01*
X237047419Y-93480975D01*
X236930399Y-93198554D01*
X236266337Y-92946982D01*
X235556552Y-92968686D01*
X235001601Y-93198554D01*
X234884581Y-93480975D01*
X232791000Y-93480975D01*
X232791000Y-91821228D01*
X245617772Y-91844217D01*
X245667200Y-91834300D01*
X245708876Y-91805933D01*
X245736232Y-91763588D01*
X245745000Y-91717217D01*
X245745000Y-90873734D01*
X246567293Y-90873734D01*
X246588214Y-91603443D01*
X246827212Y-92180435D01*
X247114825Y-92303570D01*
X248232395Y-91186000D01*
X248591605Y-91186000D01*
X249709175Y-92303570D01*
X249996788Y-92180435D01*
X250256707Y-91498266D01*
X250235786Y-90768557D01*
X249996788Y-90191565D01*
X249709175Y-90068430D01*
X248591605Y-91186000D01*
X248232395Y-91186000D01*
X247114825Y-90068430D01*
X246827212Y-90191565D01*
X246567293Y-90873734D01*
X245745000Y-90873734D01*
X245745000Y-89281000D01*
X247468180Y-89281000D01*
X247828957Y-89430808D01*
G36*
X251333000Y-78613000D02*
X246507000Y-78613000D01*
X246507000Y-76485750D01*
X246785000Y-76485750D01*
X246785000Y-77826309D01*
X246881673Y-78059698D01*
X247060301Y-78238327D01*
X247293690Y-78335000D01*
X248634250Y-78335000D01*
X248793000Y-78176250D01*
X248793000Y-76327000D01*
X249047000Y-76327000D01*
X249047000Y-78176250D01*
X249205750Y-78335000D01*
X250546310Y-78335000D01*
X250779699Y-78238327D01*
X250958327Y-78059698D01*
X251055000Y-77826309D01*
X251055000Y-76485750D01*
X250896250Y-76327000D01*
X249047000Y-76327000D01*
X248793000Y-76327000D01*
X246943750Y-76327000D01*
X246785000Y-76485750D01*
X246507000Y-76485750D01*
X246507000Y-74573691D01*
X246785000Y-74573691D01*
X246785000Y-75914250D01*
X246943750Y-76073000D01*
X248793000Y-76073000D01*
X248793000Y-74223750D01*
X249047000Y-74223750D01*
X249047000Y-76073000D01*
X250896250Y-76073000D01*
X251055000Y-75914250D01*
X251055000Y-74573691D01*
X250958327Y-74340302D01*
X250779699Y-74161673D01*
X250546310Y-74065000D01*
X249205750Y-74065000D01*
X249047000Y-74223750D01*
X248793000Y-74223750D01*
X248634250Y-74065000D01*
X247293690Y-74065000D01*
X247060301Y-74161673D01*
X246881673Y-74340302D01*
X246785000Y-74573691D01*
X246507000Y-74573691D01*
X246507000Y-71542815D01*
X246784630Y-71542815D01*
X247108980Y-72327800D01*
X247709041Y-72928909D01*
X248493459Y-73254628D01*
X249342815Y-73255370D01*
X250127800Y-72931020D01*
X250728909Y-72330959D01*
X251054628Y-71546541D01*
X251055370Y-70697185D01*
X250731020Y-69912200D01*
X250130959Y-69311091D01*
X249346541Y-68985372D01*
X248497185Y-68984630D01*
X247712200Y-69308980D01*
X247111091Y-69909041D01*
X246785372Y-70693459D01*
X246784630Y-71542815D01*
X246507000Y-71542815D01*
X246507000Y-67553970D01*
X247585635Y-67553970D01*
X247745418Y-67872739D01*
X248536187Y-68182723D01*
X249385387Y-68166497D01*
X250094582Y-67872739D01*
X250254365Y-67553970D01*
X248920000Y-66219605D01*
X247585635Y-67553970D01*
X246507000Y-67553970D01*
X246507000Y-65656187D01*
X246777277Y-65656187D01*
X246793503Y-66505387D01*
X247087261Y-67214582D01*
X247406030Y-67374365D01*
X248740395Y-66040000D01*
X249099605Y-66040000D01*
X250433970Y-67374365D01*
X250752739Y-67214582D01*
X251062723Y-66423813D01*
X251046497Y-65574613D01*
X250752739Y-64865418D01*
X250433970Y-64705635D01*
X249099605Y-66040000D01*
X248740395Y-66040000D01*
X247406030Y-64705635D01*
X247087261Y-64865418D01*
X246777277Y-65656187D01*
X246507000Y-65656187D01*
X246507000Y-64526030D01*
X247585635Y-64526030D01*
X248920000Y-65860395D01*
X250254365Y-64526030D01*
X250094582Y-64207261D01*
X249303813Y-63897277D01*
X248454613Y-63913503D01*
X247745418Y-64207261D01*
X247585635Y-64526030D01*
X246507000Y-64526030D01*
X246507000Y-61382815D01*
X246784630Y-61382815D01*
X247108980Y-62167800D01*
X247709041Y-62768909D01*
X248493459Y-63094628D01*
X249342815Y-63095370D01*
X250127800Y-62771020D01*
X250728909Y-62170959D01*
X251054628Y-61386541D01*
X251055370Y-60537185D01*
X250731020Y-59752200D01*
X250130959Y-59151091D01*
X249346541Y-58825372D01*
X248497185Y-58824630D01*
X247712200Y-59148980D01*
X247111091Y-59749041D01*
X246785372Y-60533459D01*
X246784630Y-61382815D01*
X246507000Y-61382815D01*
X246507000Y-57393970D01*
X247585635Y-57393970D01*
X247745418Y-57712739D01*
X248536187Y-58022723D01*
X249385387Y-58006497D01*
X250094582Y-57712739D01*
X250254365Y-57393970D01*
X248920000Y-56059605D01*
X247585635Y-57393970D01*
X246507000Y-57393970D01*
X246507000Y-55496187D01*
X246777277Y-55496187D01*
X246793503Y-56345387D01*
X247087261Y-57054582D01*
X247406030Y-57214365D01*
X248740395Y-55880000D01*
X249099605Y-55880000D01*
X250433970Y-57214365D01*
X250752739Y-57054582D01*
X251062723Y-56263813D01*
X251046497Y-55414613D01*
X250752739Y-54705418D01*
X250433970Y-54545635D01*
X249099605Y-55880000D01*
X248740395Y-55880000D01*
X247406030Y-54545635D01*
X247087261Y-54705418D01*
X246777277Y-55496187D01*
X246507000Y-55496187D01*
X246507000Y-54366030D01*
X247585635Y-54366030D01*
X248920000Y-55700395D01*
X250254365Y-54366030D01*
X250094582Y-54047261D01*
X249303813Y-53737277D01*
X248454613Y-53753503D01*
X247745418Y-54047261D01*
X247585635Y-54366030D01*
X246507000Y-54366030D01*
X246507000Y-53467000D01*
X251333000Y-53467000D01*
X251333000Y-78613000D01*
X251333000Y-78613000D01*
G37*
X251333000Y-78613000D02*
X246507000Y-78613000D01*
X246507000Y-76485750D01*
X246785000Y-76485750D01*
X246785000Y-77826309D01*
X246881673Y-78059698D01*
X247060301Y-78238327D01*
X247293690Y-78335000D01*
X248634250Y-78335000D01*
X248793000Y-78176250D01*
X248793000Y-76327000D01*
X249047000Y-76327000D01*
X249047000Y-78176250D01*
X249205750Y-78335000D01*
X250546310Y-78335000D01*
X250779699Y-78238327D01*
X250958327Y-78059698D01*
X251055000Y-77826309D01*
X251055000Y-76485750D01*
X250896250Y-76327000D01*
X249047000Y-76327000D01*
X248793000Y-76327000D01*
X246943750Y-76327000D01*
X246785000Y-76485750D01*
X246507000Y-76485750D01*
X246507000Y-74573691D01*
X246785000Y-74573691D01*
X246785000Y-75914250D01*
X246943750Y-76073000D01*
X248793000Y-76073000D01*
X248793000Y-74223750D01*
X249047000Y-74223750D01*
X249047000Y-76073000D01*
X250896250Y-76073000D01*
X251055000Y-75914250D01*
X251055000Y-74573691D01*
X250958327Y-74340302D01*
X250779699Y-74161673D01*
X250546310Y-74065000D01*
X249205750Y-74065000D01*
X249047000Y-74223750D01*
X248793000Y-74223750D01*
X248634250Y-74065000D01*
X247293690Y-74065000D01*
X247060301Y-74161673D01*
X246881673Y-74340302D01*
X246785000Y-74573691D01*
X246507000Y-74573691D01*
X246507000Y-71542815D01*
X246784630Y-71542815D01*
X247108980Y-72327800D01*
X247709041Y-72928909D01*
X248493459Y-73254628D01*
X249342815Y-73255370D01*
X250127800Y-72931020D01*
X250728909Y-72330959D01*
X251054628Y-71546541D01*
X251055370Y-70697185D01*
X250731020Y-69912200D01*
X250130959Y-69311091D01*
X249346541Y-68985372D01*
X248497185Y-68984630D01*
X247712200Y-69308980D01*
X247111091Y-69909041D01*
X246785372Y-70693459D01*
X246784630Y-71542815D01*
X246507000Y-71542815D01*
X246507000Y-67553970D01*
X247585635Y-67553970D01*
X247745418Y-67872739D01*
X248536187Y-68182723D01*
X249385387Y-68166497D01*
X250094582Y-67872739D01*
X250254365Y-67553970D01*
X248920000Y-66219605D01*
X247585635Y-67553970D01*
X246507000Y-67553970D01*
X246507000Y-65656187D01*
X246777277Y-65656187D01*
X246793503Y-66505387D01*
X247087261Y-67214582D01*
X247406030Y-67374365D01*
X248740395Y-66040000D01*
X249099605Y-66040000D01*
X250433970Y-67374365D01*
X250752739Y-67214582D01*
X251062723Y-66423813D01*
X251046497Y-65574613D01*
X250752739Y-64865418D01*
X250433970Y-64705635D01*
X249099605Y-66040000D01*
X248740395Y-66040000D01*
X247406030Y-64705635D01*
X247087261Y-64865418D01*
X246777277Y-65656187D01*
X246507000Y-65656187D01*
X246507000Y-64526030D01*
X247585635Y-64526030D01*
X248920000Y-65860395D01*
X250254365Y-64526030D01*
X250094582Y-64207261D01*
X249303813Y-63897277D01*
X248454613Y-63913503D01*
X247745418Y-64207261D01*
X247585635Y-64526030D01*
X246507000Y-64526030D01*
X246507000Y-61382815D01*
X246784630Y-61382815D01*
X247108980Y-62167800D01*
X247709041Y-62768909D01*
X248493459Y-63094628D01*
X249342815Y-63095370D01*
X250127800Y-62771020D01*
X250728909Y-62170959D01*
X251054628Y-61386541D01*
X251055370Y-60537185D01*
X250731020Y-59752200D01*
X250130959Y-59151091D01*
X249346541Y-58825372D01*
X248497185Y-58824630D01*
X247712200Y-59148980D01*
X247111091Y-59749041D01*
X246785372Y-60533459D01*
X246784630Y-61382815D01*
X246507000Y-61382815D01*
X246507000Y-57393970D01*
X247585635Y-57393970D01*
X247745418Y-57712739D01*
X248536187Y-58022723D01*
X249385387Y-58006497D01*
X250094582Y-57712739D01*
X250254365Y-57393970D01*
X248920000Y-56059605D01*
X247585635Y-57393970D01*
X246507000Y-57393970D01*
X246507000Y-55496187D01*
X246777277Y-55496187D01*
X246793503Y-56345387D01*
X247087261Y-57054582D01*
X247406030Y-57214365D01*
X248740395Y-55880000D01*
X249099605Y-55880000D01*
X250433970Y-57214365D01*
X250752739Y-57054582D01*
X251062723Y-56263813D01*
X251046497Y-55414613D01*
X250752739Y-54705418D01*
X250433970Y-54545635D01*
X249099605Y-55880000D01*
X248740395Y-55880000D01*
X247406030Y-54545635D01*
X247087261Y-54705418D01*
X246777277Y-55496187D01*
X246507000Y-55496187D01*
X246507000Y-54366030D01*
X247585635Y-54366030D01*
X248920000Y-55700395D01*
X250254365Y-54366030D01*
X250094582Y-54047261D01*
X249303813Y-53737277D01*
X248454613Y-53753503D01*
X247745418Y-54047261D01*
X247585635Y-54366030D01*
X246507000Y-54366030D01*
X246507000Y-53467000D01*
X251333000Y-53467000D01*
X251333000Y-78613000D01*
M02*
