G04 #@! TF.FileFunction,Legend,Bot*
%FSLAX46Y46*%
G04 Gerber Fmt 4.6, Leading zero omitted, Abs format (unit mm)*
G04 Created by KiCad (PCBNEW 4.0.7-e2-6376~58~ubuntu16.04.1) date Wed Jul 25 01:15:53 2018*
%MOMM*%
%LPD*%
G01*
G04 APERTURE LIST*
%ADD10C,0.100000*%
%ADD11C,3.600000*%
%ADD12R,1.700000X1.700000*%
%ADD13C,1.700000*%
%ADD14R,3.200000X3.200000*%
%ADD15C,3.200000*%
%ADD16R,3.400000X3.400000*%
%ADD17C,3.400000*%
%ADD18C,2.800000*%
%ADD19R,2.800000X2.800000*%
%ADD20O,1.650000X1.350000*%
%ADD21O,1.400000X1.950000*%
%ADD22O,1.600000X1.250000*%
%ADD23O,1.400000X1.600000*%
%ADD24O,2.400000X1.910000*%
%ADD25R,2.940000X2.940000*%
%ADD26C,2.940000*%
%ADD27C,2.700000*%
G04 APERTURE END LIST*
D10*
%LPC*%
D11*
X209042000Y-48768000D03*
X209042000Y-149098000D03*
X152146000Y-48768000D03*
X152146000Y-149098000D03*
X82042000Y-149098000D03*
D12*
X115976400Y-138176000D03*
D13*
X115976400Y-140676000D03*
D12*
X115824000Y-131572000D03*
D13*
X115824000Y-134072000D03*
D14*
X157716000Y-52920000D03*
D15*
X161916000Y-52920000D03*
X166116000Y-52920000D03*
X170316000Y-52920000D03*
X157716000Y-58420000D03*
X161916000Y-58420000D03*
X166116000Y-58420000D03*
X170316000Y-58420000D03*
X123434000Y-70358000D03*
X119634000Y-70358000D03*
X123434000Y-57858000D03*
X119634000Y-57858000D03*
X108434000Y-70358000D03*
X104634000Y-70358000D03*
X108434000Y-57858000D03*
X104634000Y-57858000D03*
X88900000Y-67310000D03*
X88900000Y-71110000D03*
X76400000Y-67310000D03*
X76400000Y-71110000D03*
X88900000Y-82310000D03*
X88900000Y-86110000D03*
X76400000Y-82310000D03*
X76400000Y-86110000D03*
D16*
X248920000Y-76200000D03*
D17*
X248920000Y-71120000D03*
X248920000Y-66040000D03*
X248920000Y-60960000D03*
X248920000Y-55880000D03*
X248920000Y-50800000D03*
D16*
X248920000Y-142240000D03*
D17*
X248920000Y-137160000D03*
X248920000Y-132080000D03*
X248920000Y-127000000D03*
X248920000Y-121920000D03*
X248920000Y-116840000D03*
D16*
X76200000Y-101600000D03*
D17*
X76200000Y-106680000D03*
X76200000Y-111760000D03*
X76200000Y-116840000D03*
X76200000Y-121920000D03*
X76200000Y-127000000D03*
D18*
X202494000Y-54356000D03*
D19*
X205994000Y-54356000D03*
D18*
X198994000Y-54356000D03*
X195494000Y-54356000D03*
X191994000Y-54356000D03*
X188494000Y-54356000D03*
D20*
X140304000Y-60358000D03*
X145304000Y-60358000D03*
D21*
X146304000Y-57658000D03*
X139304000Y-57658000D03*
D12*
X191860800Y-82651600D03*
D13*
X194360800Y-82651600D03*
D22*
X212384000Y-62952000D03*
X209804000Y-62992000D03*
X207264000Y-62992000D03*
X204724000Y-62992000D03*
X202184000Y-62992000D03*
X199644000Y-62992000D03*
X197104000Y-62992000D03*
X194564000Y-62992000D03*
X192024000Y-62992000D03*
X189484000Y-62992000D03*
X186944000Y-62992000D03*
X184404000Y-62992000D03*
D23*
X106680000Y-85852000D03*
X106680000Y-83312000D03*
X106680000Y-80772000D03*
X116840000Y-85852000D03*
X116840000Y-83312000D03*
X116840000Y-80772000D03*
D24*
X125222000Y-85090000D03*
X130302000Y-85090000D03*
D25*
X172720000Y-103886000D03*
D26*
X177800000Y-103886000D03*
D25*
X172720000Y-121666000D03*
D26*
X177800000Y-121666000D03*
D25*
X172720000Y-86106000D03*
D26*
X177800000Y-86106000D03*
D18*
X248412000Y-101686000D03*
D19*
X248412000Y-105186000D03*
D18*
X248412000Y-98186000D03*
X248412000Y-94686000D03*
X248412000Y-91186000D03*
X248412000Y-87686000D03*
D25*
X227330000Y-59690000D03*
D26*
X232410000Y-59690000D03*
D25*
X227330000Y-77470000D03*
D26*
X232410000Y-77470000D03*
D11*
X82042000Y-48768000D03*
D13*
X201620000Y-89154000D03*
D12*
X198120000Y-89154000D03*
D27*
X218186000Y-140462000D03*
X223266000Y-140462000D03*
X233426000Y-140462000D03*
X215646000Y-94742000D03*
X225806000Y-94742000D03*
X235966000Y-94742000D03*
D12*
X203708000Y-136144000D03*
D13*
X208708000Y-136144000D03*
M02*
