M48
;DRILL file {KiCad 4.0.7-e2-6376~58~ubuntu16.04.1} date Wed Jul 25 01:15:58 2018
;FORMAT={2:4/ absolute / inch / suppress trailing zeros}
FMAT,2
INCH,LZ
T1C0.016
T2C0.020
T3C0.022
T4C0.031
T5C0.039
T6C0.047
T7C0.055
T8C0.059
T9C0.060
T10C0.063
T11C0.067
%
G90
G05
M72
T1
X03716Y-044849
X03932Y-046346
X040825Y-0467
X040906Y-045814
X041415Y-04418
X042555Y-049403
X042786Y-040194
X04292Y-0498
X04296Y-054526
X043148Y-045996
X04384Y-036105
X04412Y-04661
X0443Y-039
X04482Y-040264
X045559Y-04311
X0456Y-042441
X045673Y-043923
X0457Y-0412
X0459Y-0452
X0461Y-0445
X046338Y-04907
X04656Y-036109
X04656Y-041103
X046592Y-04416
X046602Y-043199
X046905Y-04546
X047005Y-0481
X0472Y-0493
X0473Y-0402
X047429Y-042321
X047575Y-04546
X047605Y-042043
X047734Y-042398
X0478Y-0499
X048038Y-049021
X0483Y-0448
X048331Y-0518
X0484Y-041489
X048534Y-05354
X048907Y-043084
X04891Y-044137
X049069Y-041343
X049089Y-041658
X049142Y-041968
X04928Y-037995
X04928Y-037995
X0493Y-036125
X049318Y-040755
X049997Y-041097
X052Y-0449
X0526Y-0414
X05304Y-049
X05304Y-050194
X05304Y-054195
X053048Y-039641
X0531Y-0463
X054234Y-041451
X054406Y-038821
X055634Y-039262
X0557Y-0242
X057066Y-049308
X05871Y-049566
X06314Y-045585
X0776Y-0324
X0823Y-0393
X0834Y-0361
X0895Y-0259
X0895Y-028
T4
X0456Y-0518
X0456Y-052784
X04566Y-0544
X04566Y-055384
X075536Y-03254
X07652Y-03254
X078Y-0351
X079378Y-0351
X0802Y-0536
X082169Y-0536
T6
X07421Y-0214
X075588Y-0214
X076966Y-0214
X078344Y-0214
X079722Y-0214
X0811Y-0214
X0978Y-034522
X0978Y-0359
X0978Y-037278
X0978Y-038656
X0978Y-040034
X0978Y-041412
T7
X062093Y-020835
X062093Y-023
X063746Y-020835
X063746Y-023
X0654Y-020835
X0654Y-023
X067054Y-020835
X067054Y-023
T8
X03Y-04
X03Y-042
X03Y-044
X03Y-046
X03Y-048
X03Y-05
X098Y-02
X098Y-022
X098Y-024
X098Y-026
X098Y-028
X098Y-03
X098Y-046
X098Y-048
X098Y-05
X098Y-052
X098Y-054
X098Y-056
T9
X068Y-0339
X068Y-0409
X068Y-0479
X07Y-0339
X07Y-0409
X07Y-0479
X0895Y-0235
X0895Y-0305
X0915Y-0235
X0915Y-0305
T10
X030079Y-0265
X030079Y-027996
X030079Y-032406
X030079Y-033902
X035Y-0265
X035Y-027996
X035Y-032406
X035Y-033902
X041194Y-022779
X041194Y-0277
X042691Y-022779
X042691Y-0277
X0471Y-022779
X0471Y-0277
X048596Y-022779
X048596Y-0277
T11
X0849Y-0373
X0859Y-0553
X0879Y-0553
X0889Y-0373
X0919Y-0553
X0929Y-0373
T2
X054844Y-022828G85X054844Y-022572
G05
X0576Y-022828G85X0576Y-022572
G05
T3
X055297Y-023763G85X055179Y-023763
G05
X057265Y-023763G85X057147Y-023763
G05
X072689Y-0248G85X072511Y-0248
G05
X073689Y-0248G85X073511Y-0248
G05
X074689Y-0248G85X074511Y-0248
G05
X075689Y-0248G85X075511Y-0248
G05
X076689Y-0248G85X076511Y-0248
G05
X077689Y-0248G85X077511Y-0248
G05
X078689Y-0248G85X078511Y-0248
G05
X079689Y-0248G85X079511Y-0248
G05
X080689Y-0248G85X080511Y-0248
G05
X081689Y-0248G85X081511Y-0248
G05
X082689Y-0248G85X082511Y-0248
G05
X083704Y-024784G85X083527Y-024784
G05
T4
X042Y-031839G85X042Y-031761
G05
X042Y-032839G85X042Y-032761
G05
X042Y-033839G85X042Y-033761
G05
X046Y-031839G85X046Y-031761
G05
X046Y-032839G85X046Y-032761
G05
X046Y-033839G85X046Y-033761
G05
T5
X049202Y-0335G85X049398Y-0335
G05
X051202Y-0335G85X051398Y-0335
G05
T0
M30
