G04 #@! TF.FileFunction,Legend,Top*
%FSLAX46Y46*%
G04 Gerber Fmt 4.6, Leading zero omitted, Abs format (unit mm)*
G04 Created by KiCad (PCBNEW 4.0.7-e2-6376~58~ubuntu16.04.1) date Wed Jul 25 01:35:37 2018*
%MOMM*%
%LPD*%
G01*
G04 APERTURE LIST*
%ADD10C,0.100000*%
%ADD11C,0.350000*%
%ADD12C,0.250000*%
%ADD13C,0.300000*%
%ADD14C,0.150000*%
%ADD15C,0.120000*%
%ADD16C,0.010000*%
%ADD17R,3.400000X1.400000*%
%ADD18C,3.600000*%
%ADD19R,2.900000X1.400000*%
%ADD20R,1.150000X1.200000*%
%ADD21R,1.700000X1.700000*%
%ADD22C,1.700000*%
%ADD23R,3.200000X3.200000*%
%ADD24C,3.200000*%
%ADD25R,3.400000X3.400000*%
%ADD26C,3.400000*%
%ADD27C,2.800000*%
%ADD28R,2.800000X2.800000*%
%ADD29R,0.800000X1.750000*%
%ADD30O,1.650000X1.350000*%
%ADD31O,1.400000X1.950000*%
%ADD32R,1.300000X1.200000*%
%ADD33R,1.300000X0.900000*%
%ADD34R,0.900000X1.300000*%
%ADD35R,1.900000X0.700000*%
%ADD36R,1.700000X0.650000*%
%ADD37R,0.650000X1.700000*%
%ADD38O,1.600000X1.250000*%
%ADD39O,1.400000X1.600000*%
%ADD40O,2.400000X1.910000*%
%ADD41R,1.200000X1.000000*%
%ADD42R,1.000000X1.200000*%
%ADD43R,2.940000X2.940000*%
%ADD44C,2.940000*%
%ADD45R,1.300000X2.900000*%
%ADD46R,3.900000X2.000000*%
%ADD47C,2.700000*%
G04 APERTURE END LIST*
D10*
D11*
X226568095Y-85486857D02*
X228091905Y-85486857D01*
X231648095Y-85486857D02*
X233171905Y-85486857D01*
X232410000Y-86248762D02*
X232410000Y-84724952D01*
X174879047Y-74596762D02*
X173926666Y-74596762D01*
X173831428Y-75549143D01*
X173926666Y-75453905D01*
X174117143Y-75358667D01*
X174593333Y-75358667D01*
X174783809Y-75453905D01*
X174879047Y-75549143D01*
X174974286Y-75739619D01*
X174974286Y-76215810D01*
X174879047Y-76406286D01*
X174783809Y-76501524D01*
X174593333Y-76596762D01*
X174117143Y-76596762D01*
X173926666Y-76501524D01*
X173831428Y-76406286D01*
X175545714Y-74596762D02*
X176212381Y-76596762D01*
X176879048Y-74596762D01*
X183515047Y-102536762D02*
X182562666Y-102536762D01*
X182467428Y-103489143D01*
X182562666Y-103393905D01*
X182753143Y-103298667D01*
X183229333Y-103298667D01*
X183419809Y-103393905D01*
X183515047Y-103489143D01*
X183610286Y-103679619D01*
X183610286Y-104155810D01*
X183515047Y-104346286D01*
X183419809Y-104441524D01*
X183229333Y-104536762D01*
X182753143Y-104536762D01*
X182562666Y-104441524D01*
X182467428Y-104346286D01*
X184181714Y-102536762D02*
X184848381Y-104536762D01*
X185515048Y-102536762D01*
X183515047Y-120570762D02*
X182562666Y-120570762D01*
X182467428Y-121523143D01*
X182562666Y-121427905D01*
X182753143Y-121332667D01*
X183229333Y-121332667D01*
X183419809Y-121427905D01*
X183515047Y-121523143D01*
X183610286Y-121713619D01*
X183610286Y-122189810D01*
X183515047Y-122380286D01*
X183419809Y-122475524D01*
X183229333Y-122570762D01*
X182753143Y-122570762D01*
X182562666Y-122475524D01*
X182467428Y-122380286D01*
X184181714Y-120570762D02*
X184848381Y-122570762D01*
X185515048Y-120570762D01*
X171958095Y-79136857D02*
X173481905Y-79136857D01*
X177038095Y-79136857D02*
X178561905Y-79136857D01*
X177800000Y-79898762D02*
X177800000Y-78374952D01*
X177038095Y-127396857D02*
X178561905Y-127396857D01*
X177800000Y-128158762D02*
X177800000Y-126634952D01*
X171958095Y-127396857D02*
X173481905Y-127396857D01*
X177038095Y-110124857D02*
X178561905Y-110124857D01*
X177800000Y-110886762D02*
X177800000Y-109362952D01*
X171958095Y-110124857D02*
X173481905Y-110124857D01*
X248158095Y-147462857D02*
X249681905Y-147462857D01*
X248920000Y-148224762D02*
X248920000Y-146700952D01*
X243078095Y-142382857D02*
X244601905Y-142382857D01*
X243840000Y-143144762D02*
X243840000Y-141620952D01*
X243078095Y-137048857D02*
X244601905Y-137048857D01*
X243078095Y-132222857D02*
X244601905Y-132222857D01*
X243840000Y-132984762D02*
X243840000Y-131460952D01*
X243078095Y-126888857D02*
X244601905Y-126888857D01*
X247650095Y-108854857D02*
X249173905Y-108854857D01*
X248412000Y-109616762D02*
X248412000Y-108092952D01*
X242570095Y-105298857D02*
X244093905Y-105298857D01*
X243332000Y-106060762D02*
X243332000Y-104536952D01*
X242570095Y-87772857D02*
X244093905Y-87772857D01*
X242570095Y-94630857D02*
X244093905Y-94630857D01*
X242570095Y-91074857D02*
X244093905Y-91074857D01*
X243332000Y-91836762D02*
X243332000Y-90312952D01*
D12*
X84724857Y-110569809D02*
X84629619Y-110855523D01*
X84534381Y-110950762D01*
X84343905Y-111046000D01*
X84058190Y-111046000D01*
X83867714Y-110950762D01*
X83772476Y-110855523D01*
X83677238Y-110665047D01*
X83677238Y-109903142D01*
X85677238Y-109903142D01*
X85677238Y-110569809D01*
X85582000Y-110760285D01*
X85486762Y-110855523D01*
X85296286Y-110950762D01*
X85105810Y-110950762D01*
X84915333Y-110855523D01*
X84820095Y-110760285D01*
X84724857Y-110569809D01*
X84724857Y-109903142D01*
X84248667Y-111807904D02*
X84248667Y-112760285D01*
X83677238Y-111617428D02*
X85677238Y-112284095D01*
X83677238Y-112950762D01*
X85677238Y-113331714D02*
X85677238Y-114474571D01*
X83677238Y-113903143D02*
X85677238Y-113903143D01*
X85677238Y-114855524D02*
X85677238Y-115998381D01*
X83677238Y-115426953D02*
X85677238Y-115426953D01*
X84439143Y-116665048D02*
X84439143Y-118188858D01*
X83677238Y-117426953D02*
X85201048Y-117426953D01*
D13*
X81265143Y-136488857D02*
X81479429Y-136560286D01*
X81550857Y-136631714D01*
X81622286Y-136774571D01*
X81622286Y-136988857D01*
X81550857Y-137131714D01*
X81479429Y-137203143D01*
X81336571Y-137274571D01*
X80765143Y-137274571D01*
X80765143Y-135774571D01*
X81265143Y-135774571D01*
X81408000Y-135846000D01*
X81479429Y-135917429D01*
X81550857Y-136060286D01*
X81550857Y-136203143D01*
X81479429Y-136346000D01*
X81408000Y-136417429D01*
X81265143Y-136488857D01*
X80765143Y-136488857D01*
X82122286Y-136274571D02*
X82479429Y-137274571D01*
X82836571Y-136274571D02*
X82479429Y-137274571D01*
X82336571Y-137631714D01*
X82265143Y-137703143D01*
X82122286Y-137774571D01*
X83408000Y-137131714D02*
X83479428Y-137203143D01*
X83408000Y-137274571D01*
X83336571Y-137203143D01*
X83408000Y-137131714D01*
X83408000Y-137274571D01*
X83408000Y-136346000D02*
X83479428Y-136417429D01*
X83408000Y-136488857D01*
X83336571Y-136417429D01*
X83408000Y-136346000D01*
X83408000Y-136488857D01*
X85050857Y-135774571D02*
X85908000Y-135774571D01*
X85479429Y-137274571D02*
X85479429Y-135774571D01*
X86408000Y-137274571D02*
X86408000Y-135774571D01*
X87050857Y-137274571D02*
X87050857Y-136488857D01*
X86979428Y-136346000D01*
X86836571Y-136274571D01*
X86622286Y-136274571D01*
X86479428Y-136346000D01*
X86408000Y-136417429D01*
X87979429Y-137274571D02*
X87836571Y-137203143D01*
X87765143Y-137131714D01*
X87693714Y-136988857D01*
X87693714Y-136560286D01*
X87765143Y-136417429D01*
X87836571Y-136346000D01*
X87979429Y-136274571D01*
X88193714Y-136274571D01*
X88336571Y-136346000D01*
X88408000Y-136417429D01*
X88479429Y-136560286D01*
X88479429Y-136988857D01*
X88408000Y-137131714D01*
X88336571Y-137203143D01*
X88193714Y-137274571D01*
X87979429Y-137274571D01*
X89122286Y-137274571D02*
X89122286Y-136274571D01*
X89122286Y-136417429D02*
X89193714Y-136346000D01*
X89336572Y-136274571D01*
X89550857Y-136274571D01*
X89693714Y-136346000D01*
X89765143Y-136488857D01*
X89765143Y-137274571D01*
X89765143Y-136488857D02*
X89836572Y-136346000D01*
X89979429Y-136274571D01*
X90193714Y-136274571D01*
X90336572Y-136346000D01*
X90408000Y-136488857D01*
X90408000Y-137274571D01*
X91765143Y-137274571D02*
X91765143Y-136488857D01*
X91693714Y-136346000D01*
X91550857Y-136274571D01*
X91265143Y-136274571D01*
X91122286Y-136346000D01*
X91765143Y-137203143D02*
X91622286Y-137274571D01*
X91265143Y-137274571D01*
X91122286Y-137203143D01*
X91050857Y-137060286D01*
X91050857Y-136917429D01*
X91122286Y-136774571D01*
X91265143Y-136703143D01*
X91622286Y-136703143D01*
X91765143Y-136631714D01*
X92408000Y-137203143D02*
X92550857Y-137274571D01*
X92836572Y-137274571D01*
X92979429Y-137203143D01*
X93050857Y-137060286D01*
X93050857Y-136988857D01*
X92979429Y-136846000D01*
X92836572Y-136774571D01*
X92622286Y-136774571D01*
X92479429Y-136703143D01*
X92408000Y-136560286D01*
X92408000Y-136488857D01*
X92479429Y-136346000D01*
X92622286Y-136274571D01*
X92836572Y-136274571D01*
X92979429Y-136346000D01*
X94765143Y-137203143D02*
X94979429Y-137274571D01*
X95336572Y-137274571D01*
X95479429Y-137203143D01*
X95550858Y-137131714D01*
X95622286Y-136988857D01*
X95622286Y-136846000D01*
X95550858Y-136703143D01*
X95479429Y-136631714D01*
X95336572Y-136560286D01*
X95050858Y-136488857D01*
X94908000Y-136417429D01*
X94836572Y-136346000D01*
X94765143Y-136203143D01*
X94765143Y-136060286D01*
X94836572Y-135917429D01*
X94908000Y-135846000D01*
X95050858Y-135774571D01*
X95408000Y-135774571D01*
X95622286Y-135846000D01*
X96050857Y-136274571D02*
X96622286Y-136274571D01*
X96265143Y-135774571D02*
X96265143Y-137060286D01*
X96336571Y-137203143D01*
X96479429Y-137274571D01*
X96622286Y-137274571D01*
X97765143Y-136274571D02*
X97765143Y-137274571D01*
X97122286Y-136274571D02*
X97122286Y-137060286D01*
X97193714Y-137203143D01*
X97336572Y-137274571D01*
X97550857Y-137274571D01*
X97693714Y-137203143D01*
X97765143Y-137131714D01*
X98479429Y-137274571D02*
X98479429Y-136274571D01*
X98479429Y-136560286D02*
X98550857Y-136417429D01*
X98622286Y-136346000D01*
X98765143Y-136274571D01*
X98908000Y-136274571D01*
X100050857Y-136274571D02*
X100050857Y-137488857D01*
X99979428Y-137631714D01*
X99908000Y-137703143D01*
X99765143Y-137774571D01*
X99550857Y-137774571D01*
X99408000Y-137703143D01*
X100050857Y-137203143D02*
X99908000Y-137274571D01*
X99622286Y-137274571D01*
X99479428Y-137203143D01*
X99408000Y-137131714D01*
X99336571Y-136988857D01*
X99336571Y-136560286D01*
X99408000Y-136417429D01*
X99479428Y-136346000D01*
X99622286Y-136274571D01*
X99908000Y-136274571D01*
X100050857Y-136346000D01*
X101336571Y-137203143D02*
X101193714Y-137274571D01*
X100908000Y-137274571D01*
X100765143Y-137203143D01*
X100693714Y-137060286D01*
X100693714Y-136488857D01*
X100765143Y-136346000D01*
X100908000Y-136274571D01*
X101193714Y-136274571D01*
X101336571Y-136346000D01*
X101408000Y-136488857D01*
X101408000Y-136631714D01*
X100693714Y-136774571D01*
X102265143Y-137274571D02*
X102122285Y-137203143D01*
X102050857Y-137131714D01*
X101979428Y-136988857D01*
X101979428Y-136560286D01*
X102050857Y-136417429D01*
X102122285Y-136346000D01*
X102265143Y-136274571D01*
X102479428Y-136274571D01*
X102622285Y-136346000D01*
X102693714Y-136417429D01*
X102765143Y-136560286D01*
X102765143Y-136988857D01*
X102693714Y-137131714D01*
X102622285Y-137203143D01*
X102479428Y-137274571D01*
X102265143Y-137274571D01*
X103408000Y-136274571D02*
X103408000Y-137274571D01*
X103408000Y-136417429D02*
X103479428Y-136346000D01*
X103622286Y-136274571D01*
X103836571Y-136274571D01*
X103979428Y-136346000D01*
X104050857Y-136488857D01*
X104050857Y-137274571D01*
X83015143Y-139824571D02*
X83015143Y-139038857D01*
X82943714Y-138896000D01*
X82800857Y-138824571D01*
X82515143Y-138824571D01*
X82372286Y-138896000D01*
X83015143Y-139753143D02*
X82872286Y-139824571D01*
X82515143Y-139824571D01*
X82372286Y-139753143D01*
X82300857Y-139610286D01*
X82300857Y-139467429D01*
X82372286Y-139324571D01*
X82515143Y-139253143D01*
X82872286Y-139253143D01*
X83015143Y-139181714D01*
X83729429Y-138824571D02*
X83729429Y-139824571D01*
X83729429Y-138967429D02*
X83800857Y-138896000D01*
X83943715Y-138824571D01*
X84158000Y-138824571D01*
X84300857Y-138896000D01*
X84372286Y-139038857D01*
X84372286Y-139824571D01*
X85729429Y-139824571D02*
X85729429Y-138324571D01*
X85729429Y-139753143D02*
X85586572Y-139824571D01*
X85300858Y-139824571D01*
X85158000Y-139753143D01*
X85086572Y-139681714D01*
X85015143Y-139538857D01*
X85015143Y-139110286D01*
X85086572Y-138967429D01*
X85158000Y-138896000D01*
X85300858Y-138824571D01*
X85586572Y-138824571D01*
X85729429Y-138896000D01*
X88443715Y-139681714D02*
X88372286Y-139753143D01*
X88158000Y-139824571D01*
X88015143Y-139824571D01*
X87800858Y-139753143D01*
X87658000Y-139610286D01*
X87586572Y-139467429D01*
X87515143Y-139181714D01*
X87515143Y-138967429D01*
X87586572Y-138681714D01*
X87658000Y-138538857D01*
X87800858Y-138396000D01*
X88015143Y-138324571D01*
X88158000Y-138324571D01*
X88372286Y-138396000D01*
X88443715Y-138467429D01*
X89300858Y-139824571D02*
X89158000Y-139753143D01*
X89086572Y-139681714D01*
X89015143Y-139538857D01*
X89015143Y-139110286D01*
X89086572Y-138967429D01*
X89158000Y-138896000D01*
X89300858Y-138824571D01*
X89515143Y-138824571D01*
X89658000Y-138896000D01*
X89729429Y-138967429D01*
X89800858Y-139110286D01*
X89800858Y-139538857D01*
X89729429Y-139681714D01*
X89658000Y-139753143D01*
X89515143Y-139824571D01*
X89300858Y-139824571D01*
X91086572Y-139824571D02*
X91086572Y-138324571D01*
X91086572Y-139753143D02*
X90943715Y-139824571D01*
X90658001Y-139824571D01*
X90515143Y-139753143D01*
X90443715Y-139681714D01*
X90372286Y-139538857D01*
X90372286Y-139110286D01*
X90443715Y-138967429D01*
X90515143Y-138896000D01*
X90658001Y-138824571D01*
X90943715Y-138824571D01*
X91086572Y-138896000D01*
X91658001Y-138824571D02*
X92015144Y-139824571D01*
X92372286Y-138824571D02*
X92015144Y-139824571D01*
X91872286Y-140181714D01*
X91800858Y-140253143D01*
X91658001Y-140324571D01*
X94586572Y-139038857D02*
X94800858Y-139110286D01*
X94872286Y-139181714D01*
X94943715Y-139324571D01*
X94943715Y-139538857D01*
X94872286Y-139681714D01*
X94800858Y-139753143D01*
X94658000Y-139824571D01*
X94086572Y-139824571D01*
X94086572Y-138324571D01*
X94586572Y-138324571D01*
X94729429Y-138396000D01*
X94800858Y-138467429D01*
X94872286Y-138610286D01*
X94872286Y-138753143D01*
X94800858Y-138896000D01*
X94729429Y-138967429D01*
X94586572Y-139038857D01*
X94086572Y-139038857D01*
X96158000Y-139753143D02*
X96015143Y-139824571D01*
X95729429Y-139824571D01*
X95586572Y-139753143D01*
X95515143Y-139610286D01*
X95515143Y-139038857D01*
X95586572Y-138896000D01*
X95729429Y-138824571D01*
X96015143Y-138824571D01*
X96158000Y-138896000D01*
X96229429Y-139038857D01*
X96229429Y-139181714D01*
X95515143Y-139324571D01*
X97515143Y-138824571D02*
X97515143Y-140038857D01*
X97443714Y-140181714D01*
X97372286Y-140253143D01*
X97229429Y-140324571D01*
X97015143Y-140324571D01*
X96872286Y-140253143D01*
X97515143Y-139753143D02*
X97372286Y-139824571D01*
X97086572Y-139824571D01*
X96943714Y-139753143D01*
X96872286Y-139681714D01*
X96800857Y-139538857D01*
X96800857Y-139110286D01*
X96872286Y-138967429D01*
X96943714Y-138896000D01*
X97086572Y-138824571D01*
X97372286Y-138824571D01*
X97515143Y-138896000D01*
X98872286Y-138824571D02*
X98872286Y-140038857D01*
X98800857Y-140181714D01*
X98729429Y-140253143D01*
X98586572Y-140324571D01*
X98372286Y-140324571D01*
X98229429Y-140253143D01*
X98872286Y-139753143D02*
X98729429Y-139824571D01*
X98443715Y-139824571D01*
X98300857Y-139753143D01*
X98229429Y-139681714D01*
X98158000Y-139538857D01*
X98158000Y-139110286D01*
X98229429Y-138967429D01*
X98300857Y-138896000D01*
X98443715Y-138824571D01*
X98729429Y-138824571D01*
X98872286Y-138896000D01*
X99586572Y-139824571D02*
X99586572Y-138824571D01*
X99586572Y-139110286D02*
X99658000Y-138967429D01*
X99729429Y-138896000D01*
X99872286Y-138824571D01*
X100015143Y-138824571D01*
X101086571Y-139753143D02*
X100943714Y-139824571D01*
X100658000Y-139824571D01*
X100515143Y-139753143D01*
X100443714Y-139610286D01*
X100443714Y-139038857D01*
X100515143Y-138896000D01*
X100658000Y-138824571D01*
X100943714Y-138824571D01*
X101086571Y-138896000D01*
X101158000Y-139038857D01*
X101158000Y-139181714D01*
X100443714Y-139324571D01*
X101800857Y-138824571D02*
X101800857Y-139824571D01*
X101800857Y-138967429D02*
X101872285Y-138896000D01*
X102015143Y-138824571D01*
X102229428Y-138824571D01*
X102372285Y-138896000D01*
X102443714Y-139038857D01*
X102443714Y-139824571D01*
X86050859Y-141017429D02*
X86122288Y-140946000D01*
X86265145Y-140874571D01*
X86622288Y-140874571D01*
X86765145Y-140946000D01*
X86836574Y-141017429D01*
X86908002Y-141160286D01*
X86908002Y-141303143D01*
X86836574Y-141517429D01*
X85979431Y-142374571D01*
X86908002Y-142374571D01*
X87836573Y-140874571D02*
X87979430Y-140874571D01*
X88122287Y-140946000D01*
X88193716Y-141017429D01*
X88265145Y-141160286D01*
X88336573Y-141446000D01*
X88336573Y-141803143D01*
X88265145Y-142088857D01*
X88193716Y-142231714D01*
X88122287Y-142303143D01*
X87979430Y-142374571D01*
X87836573Y-142374571D01*
X87693716Y-142303143D01*
X87622287Y-142231714D01*
X87550859Y-142088857D01*
X87479430Y-141803143D01*
X87479430Y-141446000D01*
X87550859Y-141160286D01*
X87622287Y-141017429D01*
X87693716Y-140946000D01*
X87836573Y-140874571D01*
X89765144Y-142374571D02*
X88908001Y-142374571D01*
X89336573Y-142374571D02*
X89336573Y-140874571D01*
X89193716Y-141088857D01*
X89050858Y-141231714D01*
X88908001Y-141303143D01*
X90265144Y-140874571D02*
X91265144Y-140874571D01*
X90622287Y-142374571D01*
X91836572Y-141803143D02*
X92979429Y-141803143D01*
X93622286Y-141017429D02*
X93693715Y-140946000D01*
X93836572Y-140874571D01*
X94193715Y-140874571D01*
X94336572Y-140946000D01*
X94408001Y-141017429D01*
X94479429Y-141160286D01*
X94479429Y-141303143D01*
X94408001Y-141517429D01*
X93550858Y-142374571D01*
X94479429Y-142374571D01*
X95408000Y-140874571D02*
X95550857Y-140874571D01*
X95693714Y-140946000D01*
X95765143Y-141017429D01*
X95836572Y-141160286D01*
X95908000Y-141446000D01*
X95908000Y-141803143D01*
X95836572Y-142088857D01*
X95765143Y-142231714D01*
X95693714Y-142303143D01*
X95550857Y-142374571D01*
X95408000Y-142374571D01*
X95265143Y-142303143D01*
X95193714Y-142231714D01*
X95122286Y-142088857D01*
X95050857Y-141803143D01*
X95050857Y-141446000D01*
X95122286Y-141160286D01*
X95193714Y-141017429D01*
X95265143Y-140946000D01*
X95408000Y-140874571D01*
X97336571Y-142374571D02*
X96479428Y-142374571D01*
X96908000Y-142374571D02*
X96908000Y-140874571D01*
X96765143Y-141088857D01*
X96622285Y-141231714D01*
X96479428Y-141303143D01*
X98193714Y-141517429D02*
X98050856Y-141446000D01*
X97979428Y-141374571D01*
X97907999Y-141231714D01*
X97907999Y-141160286D01*
X97979428Y-141017429D01*
X98050856Y-140946000D01*
X98193714Y-140874571D01*
X98479428Y-140874571D01*
X98622285Y-140946000D01*
X98693714Y-141017429D01*
X98765142Y-141160286D01*
X98765142Y-141231714D01*
X98693714Y-141374571D01*
X98622285Y-141446000D01*
X98479428Y-141517429D01*
X98193714Y-141517429D01*
X98050856Y-141588857D01*
X97979428Y-141660286D01*
X97907999Y-141803143D01*
X97907999Y-142088857D01*
X97979428Y-142231714D01*
X98050856Y-142303143D01*
X98193714Y-142374571D01*
X98479428Y-142374571D01*
X98622285Y-142303143D01*
X98693714Y-142231714D01*
X98765142Y-142088857D01*
X98765142Y-141803143D01*
X98693714Y-141660286D01*
X98622285Y-141588857D01*
X98479428Y-141517429D01*
D11*
X183515047Y-85010762D02*
X182562666Y-85010762D01*
X182467428Y-85963143D01*
X182562666Y-85867905D01*
X182753143Y-85772667D01*
X183229333Y-85772667D01*
X183419809Y-85867905D01*
X183515047Y-85963143D01*
X183610286Y-86153619D01*
X183610286Y-86629810D01*
X183515047Y-86820286D01*
X183419809Y-86915524D01*
X183229333Y-87010762D01*
X182753143Y-87010762D01*
X182562666Y-86915524D01*
X182467428Y-86820286D01*
X184181714Y-85010762D02*
X184848381Y-87010762D01*
X185515048Y-85010762D01*
X228631905Y-52466762D02*
X227489047Y-52466762D01*
X228060476Y-52466762D02*
X228060476Y-50466762D01*
X227870000Y-50752476D01*
X227679524Y-50942952D01*
X227489047Y-51038190D01*
X229393809Y-50657238D02*
X229489047Y-50562000D01*
X229679524Y-50466762D01*
X230155714Y-50466762D01*
X230346190Y-50562000D01*
X230441428Y-50657238D01*
X230536667Y-50847714D01*
X230536667Y-51038190D01*
X230441428Y-51323905D01*
X229298571Y-52466762D01*
X230536667Y-52466762D01*
X231108095Y-50466762D02*
X231774762Y-52466762D01*
X232441429Y-50466762D01*
D13*
X175228287Y-96968571D02*
X174514001Y-96968571D01*
X174442572Y-97682857D01*
X174514001Y-97611429D01*
X174656858Y-97540000D01*
X175014001Y-97540000D01*
X175156858Y-97611429D01*
X175228287Y-97682857D01*
X175299715Y-97825714D01*
X175299715Y-98182857D01*
X175228287Y-98325714D01*
X175156858Y-98397143D01*
X175014001Y-98468571D01*
X174656858Y-98468571D01*
X174514001Y-98397143D01*
X174442572Y-98325714D01*
X175728286Y-96968571D02*
X176228286Y-98468571D01*
X176728286Y-96968571D01*
X228941429Y-69004571D02*
X228084286Y-69004571D01*
X228512858Y-69004571D02*
X228512858Y-67504571D01*
X228370001Y-67718857D01*
X228227143Y-67861714D01*
X228084286Y-67933143D01*
X229512857Y-67647429D02*
X229584286Y-67576000D01*
X229727143Y-67504571D01*
X230084286Y-67504571D01*
X230227143Y-67576000D01*
X230298572Y-67647429D01*
X230370000Y-67790286D01*
X230370000Y-67933143D01*
X230298572Y-68147429D01*
X229441429Y-69004571D01*
X230370000Y-69004571D01*
X230798571Y-67504571D02*
X231298571Y-69004571D01*
X231798571Y-67504571D01*
D12*
X206319429Y-49402952D02*
X206319429Y-48641047D01*
X206700381Y-49021999D02*
X205938476Y-49021999D01*
X202255429Y-49402952D02*
X202255429Y-48641047D01*
X199207429Y-49402952D02*
X199207429Y-48641047D01*
X199588381Y-49021999D02*
X198826476Y-49021999D01*
X192095429Y-49402952D02*
X192095429Y-48641047D01*
X192476381Y-49021999D02*
X191714476Y-49021999D01*
X195143429Y-49402952D02*
X195143429Y-48641047D01*
X188031429Y-49402952D02*
X188031429Y-48641047D01*
D13*
X196818287Y-50486571D02*
X196104001Y-50486571D01*
X196032572Y-51200857D01*
X196104001Y-51129429D01*
X196246858Y-51058000D01*
X196604001Y-51058000D01*
X196746858Y-51129429D01*
X196818287Y-51200857D01*
X196889715Y-51343714D01*
X196889715Y-51700857D01*
X196818287Y-51843714D01*
X196746858Y-51915143D01*
X196604001Y-51986571D01*
X196246858Y-51986571D01*
X196104001Y-51915143D01*
X196032572Y-51843714D01*
X197318286Y-50486571D02*
X197818286Y-51986571D01*
X198318286Y-50486571D01*
X247134286Y-112097429D02*
X247205715Y-112026000D01*
X247348572Y-111954571D01*
X247705715Y-111954571D01*
X247848572Y-112026000D01*
X247920001Y-112097429D01*
X247991429Y-112240286D01*
X247991429Y-112383143D01*
X247920001Y-112597429D01*
X247062858Y-113454571D01*
X247991429Y-113454571D01*
X249277143Y-112454571D02*
X249277143Y-113454571D01*
X248920000Y-111883143D02*
X248562857Y-112954571D01*
X249491429Y-112954571D01*
X249848571Y-111954571D02*
X250348571Y-113454571D01*
X250848571Y-111954571D01*
X247483429Y-84752571D02*
X246626286Y-84752571D01*
X247054858Y-84752571D02*
X247054858Y-83252571D01*
X246912001Y-83466857D01*
X246769143Y-83609714D01*
X246626286Y-83681143D01*
X248054857Y-83395429D02*
X248126286Y-83324000D01*
X248269143Y-83252571D01*
X248626286Y-83252571D01*
X248769143Y-83324000D01*
X248840572Y-83395429D01*
X248912000Y-83538286D01*
X248912000Y-83681143D01*
X248840572Y-83895429D01*
X247983429Y-84752571D01*
X248912000Y-84752571D01*
X249340571Y-83252571D02*
X249840571Y-84752571D01*
X250340571Y-83252571D01*
D11*
X242570095Y-101742857D02*
X244093905Y-101742857D01*
X242570095Y-98186857D02*
X244093905Y-98186857D01*
X243332000Y-98948762D02*
X243332000Y-97424952D01*
X122808857Y-49569714D02*
X120523143Y-49569714D01*
X107822857Y-49823714D02*
X105537143Y-49823714D01*
X106680000Y-48680857D02*
X106680000Y-50966571D01*
D12*
X97281905Y-83677143D02*
X95758095Y-83677143D01*
X97535905Y-69199143D02*
X96012095Y-69199143D01*
X96774000Y-68437238D02*
X96774000Y-69961048D01*
X81660952Y-106608571D02*
X80899047Y-106608571D01*
X81660952Y-101528571D02*
X80899047Y-101528571D01*
X81279999Y-101147619D02*
X81279999Y-101909524D01*
X81660952Y-116768571D02*
X80899047Y-116768571D01*
X81660952Y-111688571D02*
X80899047Y-111688571D01*
X81279999Y-111307619D02*
X81279999Y-112069524D01*
X81660952Y-126928571D02*
X80899047Y-126928571D01*
X81660952Y-121848571D02*
X80899047Y-121848571D01*
X81279999Y-121467619D02*
X81279999Y-122229524D01*
D11*
X243078095Y-116728857D02*
X244601905Y-116728857D01*
X243078095Y-122062857D02*
X244601905Y-122062857D01*
X243840000Y-122824762D02*
X243840000Y-121300952D01*
X244348095Y-71262857D02*
X245871905Y-71262857D01*
X244348095Y-76342857D02*
X245871905Y-76342857D01*
X245110000Y-77104762D02*
X245110000Y-75580952D01*
X244348095Y-61102857D02*
X245871905Y-61102857D01*
X244348095Y-66182857D02*
X245871905Y-66182857D01*
X245110000Y-66944762D02*
X245110000Y-65420952D01*
D13*
X247134286Y-46311429D02*
X247205715Y-46240000D01*
X247348572Y-46168571D01*
X247705715Y-46168571D01*
X247848572Y-46240000D01*
X247920001Y-46311429D01*
X247991429Y-46454286D01*
X247991429Y-46597143D01*
X247920001Y-46811429D01*
X247062858Y-47668571D01*
X247991429Y-47668571D01*
X249277143Y-46668571D02*
X249277143Y-47668571D01*
X248920000Y-46097143D02*
X248562857Y-47168571D01*
X249491429Y-47168571D01*
X249848571Y-46168571D02*
X250348571Y-47668571D01*
X250848571Y-46168571D01*
D11*
X244348095Y-50942857D02*
X245871905Y-50942857D01*
X244348095Y-56022857D02*
X245871905Y-56022857D01*
X245110000Y-56784762D02*
X245110000Y-55260952D01*
X171958095Y-91582857D02*
X173481905Y-91582857D01*
X177038095Y-91582857D02*
X178561905Y-91582857D01*
X177800000Y-92344762D02*
X177800000Y-90820952D01*
D13*
X175228287Y-115256571D02*
X174514001Y-115256571D01*
X174442572Y-115970857D01*
X174514001Y-115899429D01*
X174656858Y-115828000D01*
X175014001Y-115828000D01*
X175156858Y-115899429D01*
X175228287Y-115970857D01*
X175299715Y-116113714D01*
X175299715Y-116470857D01*
X175228287Y-116613714D01*
X175156858Y-116685143D01*
X175014001Y-116756571D01*
X174656858Y-116756571D01*
X174514001Y-116685143D01*
X174442572Y-116613714D01*
X175728286Y-115256571D02*
X176228286Y-116756571D01*
X176728286Y-115256571D01*
D11*
X226568095Y-48148857D02*
X228091905Y-48148857D01*
X231648095Y-48148857D02*
X233171905Y-48148857D01*
X232410000Y-48910762D02*
X232410000Y-47386952D01*
D14*
X139347397Y-120346949D02*
X139347397Y-123946949D01*
X142797397Y-123946949D02*
X142797397Y-120346949D01*
X211328000Y-48768000D02*
G75*
G03X211328000Y-48768000I-2286000J0D01*
G01*
X211328000Y-149098000D02*
G75*
G03X211328000Y-149098000I-2286000J0D01*
G01*
X154432000Y-48768000D02*
G75*
G03X154432000Y-48768000I-2286000J0D01*
G01*
X154432000Y-149098000D02*
G75*
G03X154432000Y-149098000I-2286000J0D01*
G01*
X84328000Y-149098000D02*
G75*
G03X84328000Y-149098000I-2286000J0D01*
G01*
X107291800Y-126992000D02*
X107291800Y-130592000D01*
X110741800Y-130592000D02*
X110741800Y-126992000D01*
X92911400Y-114417600D02*
X92911400Y-116417600D01*
X95861400Y-116417600D02*
X95861400Y-114417600D01*
X98147800Y-113617600D02*
X98147800Y-117217600D01*
X101597800Y-117217600D02*
X101597800Y-113617600D01*
X158397397Y-133554949D02*
X158397397Y-137154949D01*
X161847397Y-137154949D02*
X161847397Y-133554949D01*
X152047397Y-133554949D02*
X152047397Y-137154949D01*
X155497397Y-137154949D02*
X155497397Y-133554949D01*
X145697397Y-133554949D02*
X145697397Y-137154949D01*
X149147397Y-137154949D02*
X149147397Y-133554949D01*
X139296597Y-133554949D02*
X139296597Y-137154949D01*
X142746597Y-137154949D02*
X142746597Y-133554949D01*
X136447397Y-137154949D02*
X136447397Y-133554949D01*
X132997397Y-133554949D02*
X132997397Y-137154949D01*
X158397397Y-120346949D02*
X158397397Y-123946949D01*
X161847397Y-123946949D02*
X161847397Y-120346949D01*
X152047397Y-120346949D02*
X152047397Y-123946949D01*
X155497397Y-123946949D02*
X155497397Y-120346949D01*
X145697397Y-120346949D02*
X145697397Y-123946949D01*
X149147397Y-123946949D02*
X149147397Y-120346949D01*
X136447397Y-123946949D02*
X136447397Y-120346949D01*
X132997397Y-120346949D02*
X132997397Y-123946949D01*
X124571200Y-96108000D02*
X124571200Y-95408000D01*
X125771200Y-95408000D02*
X125771200Y-96108000D01*
X120761200Y-96108000D02*
X120761200Y-95408000D01*
X121961200Y-95408000D02*
X121961200Y-96108000D01*
X117662400Y-92818000D02*
X117662400Y-92118000D01*
X118862400Y-92118000D02*
X118862400Y-92818000D01*
X118475400Y-139501000D02*
X113477400Y-139501000D01*
X118467400Y-139641000D02*
X113485400Y-139641000D01*
X118451400Y-139781000D02*
X116071400Y-139781000D01*
X115881400Y-139781000D02*
X113501400Y-139781000D01*
X118427400Y-139921000D02*
X116466400Y-139921000D01*
X115486400Y-139921000D02*
X113525400Y-139921000D01*
X118394400Y-140061000D02*
X116633400Y-140061000D01*
X115319400Y-140061000D02*
X113558400Y-140061000D01*
X118353400Y-140201000D02*
X116740400Y-140201000D01*
X115212400Y-140201000D02*
X113599400Y-140201000D01*
X118303400Y-140341000D02*
X116811400Y-140341000D01*
X115141400Y-140341000D02*
X113649400Y-140341000D01*
X118242400Y-140481000D02*
X116855400Y-140481000D01*
X115097400Y-140481000D02*
X113710400Y-140481000D01*
X118172400Y-140621000D02*
X116874400Y-140621000D01*
X115078400Y-140621000D02*
X113780400Y-140621000D01*
X118090400Y-140761000D02*
X116872400Y-140761000D01*
X115080400Y-140761000D02*
X113862400Y-140761000D01*
X117995400Y-140901000D02*
X116847400Y-140901000D01*
X115105400Y-140901000D02*
X113957400Y-140901000D01*
X117884400Y-141041000D02*
X116799400Y-141041000D01*
X115153400Y-141041000D02*
X114068400Y-141041000D01*
X117756400Y-141181000D02*
X116721400Y-141181000D01*
X115231400Y-141181000D02*
X114196400Y-141181000D01*
X117607400Y-141321000D02*
X116604400Y-141321000D01*
X115348400Y-141321000D02*
X114345400Y-141321000D01*
X117428400Y-141461000D02*
X116416400Y-141461000D01*
X115536400Y-141461000D02*
X114524400Y-141461000D01*
X117209400Y-141601000D02*
X114743400Y-141601000D01*
X116920400Y-141741000D02*
X115032400Y-141741000D01*
X116448400Y-141881000D02*
X115504400Y-141881000D01*
X116876400Y-140676000D02*
G75*
G03X116876400Y-140676000I-900000J0D01*
G01*
X118513900Y-139426000D02*
G75*
G03X118513900Y-139426000I-2537500J0D01*
G01*
X118323000Y-132897000D02*
X113325000Y-132897000D01*
X118315000Y-133037000D02*
X113333000Y-133037000D01*
X118299000Y-133177000D02*
X115919000Y-133177000D01*
X115729000Y-133177000D02*
X113349000Y-133177000D01*
X118275000Y-133317000D02*
X116314000Y-133317000D01*
X115334000Y-133317000D02*
X113373000Y-133317000D01*
X118242000Y-133457000D02*
X116481000Y-133457000D01*
X115167000Y-133457000D02*
X113406000Y-133457000D01*
X118201000Y-133597000D02*
X116588000Y-133597000D01*
X115060000Y-133597000D02*
X113447000Y-133597000D01*
X118151000Y-133737000D02*
X116659000Y-133737000D01*
X114989000Y-133737000D02*
X113497000Y-133737000D01*
X118090000Y-133877000D02*
X116703000Y-133877000D01*
X114945000Y-133877000D02*
X113558000Y-133877000D01*
X118020000Y-134017000D02*
X116722000Y-134017000D01*
X114926000Y-134017000D02*
X113628000Y-134017000D01*
X117938000Y-134157000D02*
X116720000Y-134157000D01*
X114928000Y-134157000D02*
X113710000Y-134157000D01*
X117843000Y-134297000D02*
X116695000Y-134297000D01*
X114953000Y-134297000D02*
X113805000Y-134297000D01*
X117732000Y-134437000D02*
X116647000Y-134437000D01*
X115001000Y-134437000D02*
X113916000Y-134437000D01*
X117604000Y-134577000D02*
X116569000Y-134577000D01*
X115079000Y-134577000D02*
X114044000Y-134577000D01*
X117455000Y-134717000D02*
X116452000Y-134717000D01*
X115196000Y-134717000D02*
X114193000Y-134717000D01*
X117276000Y-134857000D02*
X116264000Y-134857000D01*
X115384000Y-134857000D02*
X114372000Y-134857000D01*
X117057000Y-134997000D02*
X114591000Y-134997000D01*
X116768000Y-135137000D02*
X114880000Y-135137000D01*
X116296000Y-135277000D02*
X115352000Y-135277000D01*
X116724000Y-134072000D02*
G75*
G03X116724000Y-134072000I-900000J0D01*
G01*
X118361500Y-132822000D02*
G75*
G03X118361500Y-132822000I-2537500J0D01*
G01*
X110843400Y-137994800D02*
X110843400Y-134394800D01*
X107393400Y-134394800D02*
X107393400Y-137994800D01*
X164016000Y-50570000D02*
X154916000Y-50570000D01*
X154916000Y-50570000D02*
X154916000Y-60470000D01*
X154916000Y-60470000D02*
X162216000Y-60470000D01*
X162216000Y-60470000D02*
X162216000Y-61870000D01*
X162216000Y-61870000D02*
X164016000Y-61870000D01*
X164016000Y-50570000D02*
X173116000Y-50570000D01*
X173116000Y-50570000D02*
X173116000Y-60470000D01*
X173116000Y-60470000D02*
X165816000Y-60470000D01*
X165816000Y-60470000D02*
X165816000Y-61870000D01*
X165816000Y-61870000D02*
X164016000Y-61870000D01*
X154516000Y-52920000D02*
X153916000Y-53220000D01*
X153916000Y-53220000D02*
X153916000Y-52620000D01*
X153916000Y-52620000D02*
X154516000Y-52920000D01*
X128514000Y-75438000D02*
X127244000Y-75438000D01*
X128514000Y-52578000D02*
X128514000Y-75438000D01*
X98034000Y-52578000D02*
X128514000Y-52578000D01*
X98034000Y-75438000D02*
X98034000Y-52578000D01*
X127244000Y-75438000D02*
X98034000Y-75438000D01*
X93980000Y-62230000D02*
X93980000Y-63500000D01*
X71120000Y-62230000D02*
X93980000Y-62230000D01*
X71120000Y-92710000D02*
X71120000Y-62230000D01*
X93980000Y-92710000D02*
X71120000Y-92710000D01*
X93980000Y-63500000D02*
X93980000Y-92710000D01*
X252730000Y-48260000D02*
X251460000Y-48260000D01*
X252730000Y-78740000D02*
X252730000Y-48260000D01*
X251460000Y-78740000D02*
X252730000Y-78740000D01*
X251460000Y-78740000D02*
X251460000Y-77470000D01*
X246380000Y-78740000D02*
X251460000Y-78740000D01*
X246380000Y-77470000D02*
X246380000Y-78740000D01*
X251460000Y-48260000D02*
X251460000Y-49530000D01*
X246380000Y-48260000D02*
X251460000Y-48260000D01*
X246380000Y-49530000D02*
X246380000Y-48260000D01*
X246380000Y-49530000D02*
X246380000Y-77470000D01*
X251460000Y-77470000D02*
X251460000Y-49530000D01*
X252730000Y-114300000D02*
X251460000Y-114300000D01*
X252730000Y-144780000D02*
X252730000Y-114300000D01*
X251460000Y-144780000D02*
X252730000Y-144780000D01*
X251460000Y-144780000D02*
X251460000Y-143510000D01*
X246380000Y-144780000D02*
X251460000Y-144780000D01*
X246380000Y-143510000D02*
X246380000Y-144780000D01*
X251460000Y-114300000D02*
X251460000Y-115570000D01*
X246380000Y-114300000D02*
X251460000Y-114300000D01*
X246380000Y-115570000D02*
X246380000Y-114300000D01*
X246380000Y-115570000D02*
X246380000Y-143510000D01*
X251460000Y-143510000D02*
X251460000Y-115570000D01*
X72390000Y-129540000D02*
X73660000Y-129540000D01*
X72390000Y-99060000D02*
X72390000Y-129540000D01*
X73660000Y-99060000D02*
X72390000Y-99060000D01*
X73660000Y-99060000D02*
X73660000Y-100330000D01*
X78740000Y-99060000D02*
X73660000Y-99060000D01*
X78740000Y-100330000D02*
X78740000Y-99060000D01*
X73660000Y-129540000D02*
X73660000Y-128270000D01*
X78740000Y-129540000D02*
X73660000Y-129540000D01*
X78740000Y-128270000D02*
X78740000Y-129540000D01*
X78740000Y-128270000D02*
X78740000Y-100330000D01*
X73660000Y-100330000D02*
X73660000Y-128270000D01*
X190244000Y-50256000D02*
X190244000Y-49856000D01*
X193744000Y-50256000D02*
X193744000Y-49856000D01*
X204244000Y-50256000D02*
X204244000Y-49856000D01*
X200744000Y-50256000D02*
X200744000Y-49856000D01*
X197244000Y-50256000D02*
X197244000Y-49856000D01*
X207744000Y-51356000D02*
X186744000Y-51356000D01*
X207744000Y-50256000D02*
X186744000Y-50256000D01*
X207744000Y-57456000D02*
X207744000Y-49856000D01*
X186744000Y-49856000D02*
X186744000Y-57456000D01*
X186744000Y-57456000D02*
X207744000Y-57456000D01*
D10*
X146904000Y-55458000D02*
X146904000Y-54908000D01*
X146904000Y-54908000D02*
X146254000Y-54908000D01*
X138704000Y-55508000D02*
X138704000Y-54908000D01*
X138704000Y-54908000D02*
X139104000Y-54908000D01*
X139204000Y-60608000D02*
X138704000Y-60608000D01*
X138704000Y-60608000D02*
X138704000Y-59908000D01*
X146154000Y-60608000D02*
X146604000Y-60608000D01*
X146604000Y-60608000D02*
X146904000Y-60258000D01*
X146904000Y-60258000D02*
X146904000Y-59958000D01*
X146904000Y-59958000D02*
X147054000Y-59958000D01*
D15*
X115602800Y-102890400D02*
X115602800Y-101960400D01*
X115602800Y-99730400D02*
X115602800Y-100660400D01*
X115602800Y-99730400D02*
X113442800Y-99730400D01*
X115602800Y-102890400D02*
X114142800Y-102890400D01*
X110437200Y-102722800D02*
X110437200Y-101792800D01*
X110437200Y-99562800D02*
X110437200Y-100492800D01*
X110437200Y-99562800D02*
X108277200Y-99562800D01*
X110437200Y-102722800D02*
X108977200Y-102722800D01*
X123035600Y-137571600D02*
X123035600Y-136641600D01*
X123035600Y-134411600D02*
X123035600Y-135341600D01*
X123035600Y-134411600D02*
X120875600Y-134411600D01*
X123035600Y-137571600D02*
X121575600Y-137571600D01*
D14*
X112028600Y-91956000D02*
X112028600Y-92956000D01*
X110678600Y-92956000D02*
X110678600Y-91956000D01*
X112028600Y-95562800D02*
X112028600Y-96562800D01*
X110678600Y-96562800D02*
X110678600Y-95562800D01*
X103944800Y-117943000D02*
X104944800Y-117943000D01*
X104944800Y-119293000D02*
X103944800Y-119293000D01*
X159447397Y-128742949D02*
X159447397Y-127742949D01*
X160797397Y-127742949D02*
X160797397Y-128742949D01*
X153351397Y-128742949D02*
X153351397Y-127742949D01*
X154701397Y-127742949D02*
X154701397Y-128742949D01*
X146747397Y-128742949D02*
X146747397Y-127742949D01*
X148097397Y-127742949D02*
X148097397Y-128742949D01*
X140651397Y-128742949D02*
X140651397Y-127742949D01*
X142001397Y-127742949D02*
X142001397Y-128742949D01*
X134047397Y-128742949D02*
X134047397Y-127742949D01*
X135397397Y-127742949D02*
X135397397Y-128742949D01*
X159701397Y-115534949D02*
X159701397Y-114534949D01*
X161051397Y-114534949D02*
X161051397Y-115534949D01*
X153097397Y-115534949D02*
X153097397Y-114534949D01*
X154447397Y-114534949D02*
X154447397Y-115534949D01*
X147001397Y-115534949D02*
X147001397Y-114534949D01*
X148351397Y-114534949D02*
X148351397Y-115534949D01*
X140397397Y-115534949D02*
X140397397Y-114534949D01*
X141747397Y-114534949D02*
X141747397Y-115534949D01*
X135651397Y-114534949D02*
X135651397Y-115534949D01*
X134301397Y-115534949D02*
X134301397Y-114534949D01*
X124547000Y-93006800D02*
X124547000Y-92006800D01*
X125897000Y-92006800D02*
X125897000Y-93006800D01*
X120686200Y-92968000D02*
X120686200Y-91968000D01*
X122036200Y-91968000D02*
X122036200Y-92968000D01*
X122509600Y-132247000D02*
X121509600Y-132247000D01*
X121509600Y-130897000D02*
X122509600Y-130897000D01*
X120642000Y-122849000D02*
X119642000Y-122849000D01*
X119642000Y-121499000D02*
X120642000Y-121499000D01*
X104944800Y-112892200D02*
X103944800Y-112892200D01*
X103944800Y-111542200D02*
X104944800Y-111542200D01*
X116273200Y-129249800D02*
X115273200Y-129249800D01*
X115273200Y-127899800D02*
X116273200Y-127899800D01*
X134317000Y-98349400D02*
X134317000Y-98774400D01*
X141567000Y-98349400D02*
X141567000Y-98874400D01*
X141567000Y-105599400D02*
X141567000Y-105074400D01*
X134317000Y-105599400D02*
X134317000Y-105074400D01*
X134317000Y-98349400D02*
X134842000Y-98349400D01*
X134317000Y-105599400D02*
X134842000Y-105599400D01*
X141567000Y-105599400D02*
X141042000Y-105599400D01*
X141567000Y-98349400D02*
X141042000Y-98349400D01*
X134317000Y-98774400D02*
X132942000Y-98774400D01*
X193185800Y-80152600D02*
X193185800Y-85150600D01*
X193325800Y-80160600D02*
X193325800Y-85142600D01*
X193465800Y-80176600D02*
X193465800Y-82556600D01*
X193465800Y-82746600D02*
X193465800Y-85126600D01*
X193605800Y-80200600D02*
X193605800Y-82161600D01*
X193605800Y-83141600D02*
X193605800Y-85102600D01*
X193745800Y-80233600D02*
X193745800Y-81994600D01*
X193745800Y-83308600D02*
X193745800Y-85069600D01*
X193885800Y-80274600D02*
X193885800Y-81887600D01*
X193885800Y-83415600D02*
X193885800Y-85028600D01*
X194025800Y-80324600D02*
X194025800Y-81816600D01*
X194025800Y-83486600D02*
X194025800Y-84978600D01*
X194165800Y-80385600D02*
X194165800Y-81772600D01*
X194165800Y-83530600D02*
X194165800Y-84917600D01*
X194305800Y-80455600D02*
X194305800Y-81753600D01*
X194305800Y-83549600D02*
X194305800Y-84847600D01*
X194445800Y-80537600D02*
X194445800Y-81755600D01*
X194445800Y-83547600D02*
X194445800Y-84765600D01*
X194585800Y-80632600D02*
X194585800Y-81780600D01*
X194585800Y-83522600D02*
X194585800Y-84670600D01*
X194725800Y-80743600D02*
X194725800Y-81828600D01*
X194725800Y-83474600D02*
X194725800Y-84559600D01*
X194865800Y-80871600D02*
X194865800Y-81906600D01*
X194865800Y-83396600D02*
X194865800Y-84431600D01*
X195005800Y-81020600D02*
X195005800Y-82023600D01*
X195005800Y-83279600D02*
X195005800Y-84282600D01*
X195145800Y-81199600D02*
X195145800Y-82211600D01*
X195145800Y-83091600D02*
X195145800Y-84103600D01*
X195285800Y-81418600D02*
X195285800Y-83884600D01*
X195425800Y-81707600D02*
X195425800Y-83595600D01*
X195565800Y-82179600D02*
X195565800Y-83123600D01*
X195260800Y-82651600D02*
G75*
G03X195260800Y-82651600I-900000J0D01*
G01*
X195648300Y-82651600D02*
G75*
G03X195648300Y-82651600I-2537500J0D01*
G01*
X115330600Y-91956000D02*
X115330600Y-92956000D01*
X113980600Y-92956000D02*
X113980600Y-91956000D01*
X192681800Y-88688800D02*
X192681800Y-87688800D01*
X194031800Y-87688800D02*
X194031800Y-88688800D01*
X214894000Y-60500000D02*
X182694000Y-60500000D01*
X182636000Y-79042000D02*
X182636000Y-60500000D01*
X214894000Y-79042000D02*
X182694000Y-79042000D01*
X214894000Y-79042000D02*
X214894000Y-60500000D01*
D15*
X110386400Y-107853600D02*
X110386400Y-106923600D01*
X110386400Y-104693600D02*
X110386400Y-105623600D01*
X110386400Y-104693600D02*
X108226400Y-104693600D01*
X110386400Y-107853600D02*
X108926400Y-107853600D01*
X105662000Y-116997600D02*
X105662000Y-116067600D01*
X105662000Y-113837600D02*
X105662000Y-114767600D01*
X105662000Y-113837600D02*
X103502000Y-113837600D01*
X105662000Y-116997600D02*
X104202000Y-116997600D01*
X104060000Y-88432000D02*
X104060000Y-78192000D01*
X108701000Y-88432000D02*
X108701000Y-78192000D01*
X104060000Y-88432000D02*
X108701000Y-88432000D01*
X104060000Y-78192000D02*
X108701000Y-78192000D01*
X105570000Y-88432000D02*
X105570000Y-78192000D01*
X104060000Y-85162000D02*
X105570000Y-85162000D01*
X104060000Y-81461000D02*
X105570000Y-81461000D01*
X114220000Y-88432000D02*
X114220000Y-78192000D01*
X118861000Y-88432000D02*
X118861000Y-78192000D01*
X114220000Y-88432000D02*
X118861000Y-88432000D01*
X114220000Y-78192000D02*
X118861000Y-78192000D01*
X115730000Y-88432000D02*
X115730000Y-78192000D01*
X114220000Y-85162000D02*
X115730000Y-85162000D01*
X114220000Y-81461000D02*
X115730000Y-81461000D01*
X122642000Y-82470000D02*
X132882000Y-82470000D01*
X122642000Y-87111000D02*
X132882000Y-87111000D01*
X122642000Y-82470000D02*
X122642000Y-87111000D01*
X132882000Y-82470000D02*
X132882000Y-87111000D01*
X122642000Y-83980000D02*
X132882000Y-83980000D01*
X125912000Y-82470000D02*
X125912000Y-83980000D01*
X129613000Y-82470000D02*
X129613000Y-83980000D01*
D14*
X114055600Y-95115200D02*
X114055600Y-96915200D01*
X115255600Y-95115200D02*
X115255600Y-96915200D01*
X118889600Y-116068400D02*
X120689600Y-116068400D01*
X118889600Y-114868400D02*
X120689600Y-114868400D01*
X118940400Y-119319600D02*
X120740400Y-119319600D01*
X118940400Y-118119600D02*
X120740400Y-118119600D01*
D16*
G36*
X90219861Y-125001918D02*
X90369238Y-125006198D01*
X90498197Y-125012541D01*
X90611675Y-125021496D01*
X90714609Y-125033610D01*
X90811934Y-125049430D01*
X90908588Y-125069503D01*
X90976073Y-125085767D01*
X91154338Y-125140100D01*
X91311329Y-125207876D01*
X91447583Y-125289518D01*
X91563634Y-125385452D01*
X91660019Y-125496101D01*
X91737274Y-125621890D01*
X91781861Y-125723419D01*
X91797393Y-125765898D01*
X91810778Y-125806099D01*
X91822176Y-125846224D01*
X91831744Y-125888476D01*
X91839643Y-125935054D01*
X91846031Y-125988161D01*
X91851067Y-126049997D01*
X91854911Y-126122765D01*
X91857722Y-126208665D01*
X91859658Y-126309900D01*
X91860879Y-126428669D01*
X91861544Y-126567176D01*
X91861812Y-126727621D01*
X91861848Y-126830175D01*
X91861900Y-127589000D01*
X90490300Y-127589000D01*
X90490300Y-126880490D01*
X90490299Y-126171981D01*
X90461725Y-126115315D01*
X90421936Y-126064127D01*
X90361739Y-126026129D01*
X90282691Y-126001759D01*
X90186349Y-125991451D01*
X90074271Y-125995644D01*
X90045822Y-125998780D01*
X89966394Y-126011974D01*
X89907349Y-126030632D01*
X89863865Y-126057068D01*
X89831121Y-126093594D01*
X89823550Y-126105397D01*
X89817837Y-126115702D01*
X89813052Y-126127497D01*
X89809111Y-126142986D01*
X89805933Y-126164372D01*
X89803436Y-126193857D01*
X89801539Y-126233644D01*
X89800158Y-126285936D01*
X89799213Y-126352936D01*
X89798622Y-126436846D01*
X89798302Y-126539870D01*
X89798172Y-126664211D01*
X89798150Y-126788900D01*
X89798186Y-126941291D01*
X89798456Y-127070619D01*
X89799199Y-127179217D01*
X89800654Y-127269423D01*
X89803059Y-127343571D01*
X89806655Y-127403997D01*
X89811681Y-127453037D01*
X89818376Y-127493027D01*
X89826980Y-127526302D01*
X89837730Y-127555197D01*
X89850868Y-127582049D01*
X89866632Y-127609193D01*
X89885239Y-127638929D01*
X89907739Y-127673249D01*
X89931924Y-127707081D01*
X89959267Y-127741845D01*
X89991242Y-127778959D01*
X90029321Y-127819845D01*
X90074979Y-127865922D01*
X90129687Y-127918609D01*
X90194920Y-127979328D01*
X90272151Y-128049496D01*
X90362853Y-128130534D01*
X90468498Y-128223863D01*
X90590561Y-128330901D01*
X90725250Y-128448479D01*
X90896895Y-128599852D01*
X91049200Y-128738087D01*
X91183564Y-128864711D01*
X91301385Y-128981250D01*
X91404061Y-129089232D01*
X91492991Y-129190184D01*
X91569573Y-129285633D01*
X91635206Y-129377107D01*
X91691289Y-129466131D01*
X91739219Y-129554233D01*
X91740856Y-129557500D01*
X91775427Y-129630424D01*
X91805337Y-129702705D01*
X91830866Y-129776659D01*
X91852296Y-129854600D01*
X91869907Y-129938842D01*
X91883978Y-130031702D01*
X91894791Y-130135493D01*
X91902626Y-130252531D01*
X91907763Y-130385130D01*
X91910484Y-130535606D01*
X91911067Y-130706273D01*
X91909795Y-130899445D01*
X91909268Y-130947462D01*
X91907253Y-131097539D01*
X91904849Y-131225028D01*
X91901831Y-131332744D01*
X91897976Y-131423500D01*
X91893058Y-131500108D01*
X91886853Y-131565381D01*
X91879138Y-131622132D01*
X91869687Y-131673175D01*
X91858278Y-131721322D01*
X91844684Y-131769385D01*
X91843393Y-131773650D01*
X91832405Y-131811378D01*
X91825343Y-131838724D01*
X91823937Y-131846675D01*
X91836044Y-131849227D01*
X91870222Y-131851520D01*
X91923143Y-131853460D01*
X91991478Y-131854950D01*
X92071900Y-131855895D01*
X92154855Y-131856200D01*
X92255112Y-131856104D01*
X92332752Y-131855690D01*
X92390556Y-131854767D01*
X92431309Y-131853144D01*
X92457791Y-131850630D01*
X92472786Y-131847034D01*
X92479077Y-131842166D01*
X92479444Y-131835834D01*
X92478929Y-131833975D01*
X92455048Y-131747744D01*
X92433101Y-131650118D01*
X92415797Y-131554050D01*
X92407855Y-131494250D01*
X92405703Y-131461237D01*
X92403666Y-131405387D01*
X92401778Y-131329262D01*
X92400075Y-131235426D01*
X92398590Y-131126441D01*
X92397358Y-131004869D01*
X92396414Y-130873274D01*
X92395791Y-130734217D01*
X92395525Y-130590263D01*
X92395520Y-130576675D01*
X92395300Y-129773400D01*
X93829867Y-129773400D01*
X93833308Y-130608425D01*
X93833925Y-130779190D01*
X93834430Y-130926411D01*
X93835066Y-131051940D01*
X93836080Y-131157630D01*
X93837715Y-131245335D01*
X93840216Y-131316907D01*
X93843827Y-131374199D01*
X93848795Y-131419065D01*
X93855362Y-131453356D01*
X93863774Y-131478926D01*
X93874276Y-131497629D01*
X93887112Y-131511316D01*
X93902527Y-131521841D01*
X93920766Y-131531056D01*
X93942072Y-131540816D01*
X93957400Y-131548187D01*
X93990169Y-131563547D01*
X94019606Y-131573624D01*
X94052487Y-131579515D01*
X94095589Y-131582317D01*
X94155688Y-131583129D01*
X94173300Y-131583150D01*
X94264316Y-131580517D01*
X94335420Y-131571634D01*
X94391645Y-131555021D01*
X94438028Y-131529201D01*
X94478935Y-131493381D01*
X94522550Y-131448377D01*
X94522550Y-130109950D01*
X94477034Y-130014700D01*
X94451322Y-129964737D01*
X94421552Y-129915018D01*
X94386263Y-129864045D01*
X94343991Y-129810324D01*
X94293273Y-129752357D01*
X94232646Y-129688648D01*
X94160647Y-129617702D01*
X94075813Y-129538022D01*
X93976681Y-129448112D01*
X93861788Y-129346476D01*
X93729672Y-129231618D01*
X93614221Y-129132314D01*
X93439288Y-128980659D01*
X93284153Y-128842442D01*
X93147745Y-128716620D01*
X93028993Y-128602152D01*
X92926828Y-128497993D01*
X92840179Y-128403102D01*
X92767975Y-128316436D01*
X92742400Y-128283174D01*
X92666521Y-128173769D01*
X92595619Y-128056135D01*
X92533673Y-127937585D01*
X92484659Y-127825434D01*
X92467359Y-127777430D01*
X92454181Y-127736359D01*
X92442886Y-127697138D01*
X92433331Y-127657498D01*
X92425372Y-127615168D01*
X92418868Y-127567878D01*
X92413676Y-127513356D01*
X92409653Y-127449334D01*
X92406656Y-127373539D01*
X92404544Y-127283703D01*
X92403173Y-127177554D01*
X92402401Y-127052823D01*
X92402086Y-126907238D01*
X92402084Y-126738529D01*
X92402084Y-126738100D01*
X92402518Y-126007850D01*
X92436193Y-125884357D01*
X92490450Y-125728598D01*
X92564036Y-125589089D01*
X92657385Y-125465299D01*
X92770929Y-125356701D01*
X92905104Y-125262764D01*
X92979500Y-125221419D01*
X93072713Y-125177242D01*
X93170262Y-125139065D01*
X93276312Y-125105729D01*
X93395026Y-125076075D01*
X93530567Y-125048944D01*
X93687099Y-125023177D01*
X93697050Y-125021679D01*
X93758858Y-125014976D01*
X93841543Y-125009802D01*
X93940630Y-125006128D01*
X94051643Y-125003931D01*
X94170105Y-125003183D01*
X94291542Y-125003858D01*
X94411478Y-125005931D01*
X94525438Y-125009375D01*
X94628946Y-125014164D01*
X94717525Y-125020273D01*
X94786702Y-125027675D01*
X94789250Y-125028033D01*
X94997636Y-125064870D01*
X95183829Y-125113160D01*
X95348514Y-125173321D01*
X95492377Y-125245772D01*
X95616104Y-125330935D01*
X95720380Y-125429227D01*
X95805890Y-125541069D01*
X95873321Y-125666880D01*
X95887149Y-125699849D01*
X95902815Y-125739473D01*
X95916325Y-125775470D01*
X95927852Y-125810003D01*
X95937568Y-125845236D01*
X95945643Y-125883335D01*
X95952250Y-125926463D01*
X95957560Y-125976785D01*
X95961745Y-126036465D01*
X95964977Y-126107667D01*
X95967427Y-126192555D01*
X95969267Y-126293293D01*
X95970669Y-126412047D01*
X95971805Y-126550980D01*
X95972845Y-126712256D01*
X95973286Y-126785724D01*
X95978087Y-127588999D01*
X95291593Y-127588999D01*
X94605100Y-127589000D01*
X94605100Y-126881809D01*
X94605075Y-126729786D01*
X94604951Y-126601043D01*
X94604657Y-126493458D01*
X94604117Y-126404913D01*
X94603259Y-126333285D01*
X94602009Y-126276455D01*
X94600295Y-126232302D01*
X94598043Y-126198706D01*
X94595180Y-126173546D01*
X94591633Y-126154701D01*
X94587328Y-126140052D01*
X94582193Y-126127478D01*
X94578798Y-126120288D01*
X94548698Y-126073906D01*
X94507303Y-126040243D01*
X94450137Y-126016741D01*
X94372723Y-126000840D01*
X94368870Y-126000287D01*
X94251425Y-125991299D01*
X94144602Y-125998394D01*
X94052610Y-126021188D01*
X94027639Y-126031437D01*
X94003199Y-126042367D01*
X93982494Y-126052355D01*
X93965217Y-126063479D01*
X93951058Y-126077814D01*
X93939707Y-126097437D01*
X93930857Y-126124423D01*
X93924197Y-126160849D01*
X93919418Y-126208790D01*
X93916211Y-126270324D01*
X93914267Y-126347525D01*
X93913277Y-126442471D01*
X93912932Y-126557237D01*
X93912922Y-126693899D01*
X93912950Y-126801600D01*
X93912967Y-126947175D01*
X93913080Y-127069618D01*
X93913378Y-127171199D01*
X93913953Y-127254185D01*
X93914894Y-127320845D01*
X93916293Y-127373448D01*
X93918239Y-127414263D01*
X93920823Y-127445557D01*
X93924135Y-127469599D01*
X93928267Y-127488658D01*
X93933308Y-127505003D01*
X93939348Y-127520901D01*
X93941883Y-127527193D01*
X93964006Y-127573500D01*
X93995261Y-127628660D01*
X94029239Y-127681436D01*
X94032394Y-127685943D01*
X94052658Y-127714239D01*
X94072750Y-127741044D01*
X94094046Y-127767645D01*
X94117926Y-127795332D01*
X94145769Y-127825395D01*
X94178953Y-127859123D01*
X94218857Y-127897805D01*
X94266860Y-127942730D01*
X94324340Y-127995188D01*
X94392677Y-128056467D01*
X94473248Y-128127858D01*
X94567432Y-128210650D01*
X94676609Y-128306131D01*
X94802156Y-128415591D01*
X94945453Y-128540319D01*
X94953644Y-128547445D01*
X95028331Y-128613800D01*
X95113803Y-128691992D01*
X95203190Y-128775595D01*
X95289625Y-128858184D01*
X95366238Y-128933333D01*
X95367702Y-128934795D01*
X95508431Y-129081061D01*
X95628201Y-129218502D01*
X95728640Y-129349908D01*
X95811376Y-129478070D01*
X95878040Y-129605779D01*
X95930259Y-129735826D01*
X95969663Y-129871001D01*
X95997880Y-130014096D01*
X95997974Y-130014700D01*
X96003300Y-130051645D01*
X96007748Y-130090106D01*
X96011397Y-130132679D01*
X96014322Y-130181960D01*
X96016600Y-130240544D01*
X96018308Y-130311028D01*
X96019521Y-130396005D01*
X96020316Y-130498073D01*
X96020770Y-130619827D01*
X96020958Y-130763863D01*
X96020971Y-130795750D01*
X96020825Y-130959900D01*
X96020179Y-131101079D01*
X96018869Y-131221711D01*
X96016732Y-131324223D01*
X96013605Y-131411041D01*
X96009325Y-131484589D01*
X96003728Y-131547295D01*
X95996651Y-131601583D01*
X95987931Y-131649880D01*
X95977404Y-131694611D01*
X95964908Y-131738202D01*
X95955578Y-131767300D01*
X95905704Y-131889959D01*
X95836016Y-132014596D01*
X95808183Y-132057117D01*
X95788122Y-132088500D01*
X95776605Y-132109988D01*
X95775450Y-132115537D01*
X95788735Y-132118239D01*
X95823613Y-132123889D01*
X95876519Y-132131950D01*
X95943889Y-132141885D01*
X96022155Y-132153156D01*
X96071950Y-132160209D01*
X96160159Y-132173103D01*
X96267244Y-132189525D01*
X96387084Y-132208492D01*
X96513558Y-132229017D01*
X96640545Y-132250117D01*
X96761925Y-132270806D01*
X96794204Y-132276414D01*
X96896049Y-132294105D01*
X96990300Y-132310312D01*
X97073944Y-132324529D01*
X97143970Y-132336251D01*
X97197364Y-132344973D01*
X97231115Y-132350189D01*
X97241879Y-132351500D01*
X97244261Y-132348482D01*
X97246425Y-132338689D01*
X97248379Y-132321015D01*
X97250135Y-132294350D01*
X97251701Y-132257588D01*
X97253088Y-132209620D01*
X97254306Y-132149339D01*
X97255365Y-132075637D01*
X97256275Y-131987407D01*
X97257045Y-131883540D01*
X97257686Y-131762929D01*
X97258209Y-131624466D01*
X97258622Y-131467043D01*
X97258935Y-131289553D01*
X97259160Y-131090888D01*
X97259305Y-130869939D01*
X97259382Y-130625601D01*
X97259400Y-130408717D01*
X97259399Y-128465935D01*
X97224475Y-128471555D01*
X97199623Y-128474980D01*
X97155079Y-128480571D01*
X97096392Y-128487651D01*
X97029110Y-128495544D01*
X97002429Y-128498617D01*
X96815308Y-128520059D01*
X96809019Y-128559354D01*
X96807203Y-128578488D01*
X96804033Y-128620785D01*
X96799650Y-128684054D01*
X96794195Y-128766103D01*
X96787809Y-128864739D01*
X96780633Y-128977769D01*
X96772809Y-129103003D01*
X96764477Y-129238248D01*
X96755780Y-129381311D01*
X96751289Y-129455900D01*
X96735713Y-129713873D01*
X96721423Y-129947156D01*
X96708372Y-130156423D01*
X96696512Y-130342350D01*
X96685796Y-130505610D01*
X96676176Y-130646880D01*
X96667604Y-130766833D01*
X96660033Y-130866144D01*
X96653416Y-130945489D01*
X96647706Y-131005541D01*
X96642854Y-131046975D01*
X96638813Y-131070467D01*
X96637345Y-131075150D01*
X96630420Y-131085514D01*
X96626646Y-131075182D01*
X96625136Y-131043400D01*
X96624043Y-131011102D01*
X96621669Y-130959288D01*
X96618306Y-130893791D01*
X96614250Y-130820446D01*
X96611701Y-130776700D01*
X96608495Y-130719270D01*
X96604224Y-130637005D01*
X96598912Y-130530448D01*
X96592586Y-130400140D01*
X96585270Y-130246623D01*
X96576990Y-130070439D01*
X96567771Y-129872129D01*
X96557638Y-129652237D01*
X96546618Y-129411302D01*
X96534735Y-129149869D01*
X96522015Y-128868477D01*
X96514683Y-128705667D01*
X96506358Y-128520584D01*
X96022454Y-128440106D01*
X95914623Y-128422007D01*
X95814660Y-128404911D01*
X95725339Y-128389315D01*
X95649432Y-128375718D01*
X95589710Y-128364618D01*
X95548948Y-128356512D01*
X95529917Y-128351900D01*
X95528955Y-128351434D01*
X95538098Y-128347489D01*
X95569883Y-128341091D01*
X95621709Y-128332595D01*
X95690975Y-128322353D01*
X95775077Y-128310720D01*
X95871415Y-128298049D01*
X95977386Y-128284693D01*
X96090388Y-128271005D01*
X96207821Y-128257340D01*
X96286395Y-128248516D01*
X96357313Y-128240393D01*
X96418998Y-128232801D01*
X96467202Y-128226305D01*
X96497680Y-128221471D01*
X96506404Y-128219228D01*
X96508232Y-128205830D01*
X96511348Y-128169522D01*
X96515589Y-128112756D01*
X96520787Y-128037981D01*
X96526779Y-127947647D01*
X96533397Y-127844204D01*
X96540477Y-127730101D01*
X96547853Y-127607788D01*
X96548892Y-127590283D01*
X96557341Y-127448259D01*
X96566313Y-127298574D01*
X96575499Y-127146279D01*
X96584593Y-126996428D01*
X96593287Y-126854074D01*
X96601275Y-126724268D01*
X96608250Y-126612063D01*
X96611458Y-126561025D01*
X96617758Y-126459915D01*
X96623497Y-126365153D01*
X96628477Y-126280197D01*
X96632503Y-126208505D01*
X96635377Y-126153536D01*
X96636903Y-126118747D01*
X96637100Y-126110074D01*
X96637100Y-126065000D01*
X96722069Y-126065000D01*
X96730366Y-126290425D01*
X96734288Y-126393501D01*
X96738996Y-126511365D01*
X96744358Y-126641147D01*
X96750244Y-126779980D01*
X96756523Y-126924996D01*
X96763063Y-127073325D01*
X96769735Y-127222101D01*
X96776407Y-127368454D01*
X96782950Y-127509516D01*
X96789231Y-127642420D01*
X96795120Y-127764296D01*
X96800487Y-127872278D01*
X96805200Y-127963496D01*
X96809129Y-128035082D01*
X96812144Y-128084168D01*
X96812153Y-128084300D01*
X96821250Y-128217650D01*
X97011750Y-128251245D01*
X97080426Y-128263119D01*
X97142051Y-128273334D01*
X97191437Y-128281063D01*
X97223399Y-128285479D01*
X97230825Y-128286170D01*
X97259400Y-128287500D01*
X97259400Y-126065000D01*
X96722069Y-126065000D01*
X96637100Y-126065000D01*
X96167200Y-126065000D01*
X96167200Y-125074400D01*
X99837500Y-125074400D01*
X99837500Y-126064724D01*
X98764350Y-126071350D01*
X98757952Y-132693408D01*
X98805601Y-132705879D01*
X98840431Y-132714859D01*
X98890526Y-132727608D01*
X98946507Y-132741743D01*
X98961200Y-132745433D01*
X99301891Y-132834528D01*
X99660247Y-132935077D01*
X100032022Y-133045683D01*
X100412970Y-133164948D01*
X100798847Y-133291478D01*
X101185406Y-133423874D01*
X101568403Y-133560741D01*
X101943593Y-133700681D01*
X102306730Y-133842297D01*
X102360211Y-133863724D01*
X102570554Y-133949577D01*
X102789766Y-134041433D01*
X103014547Y-134137790D01*
X103241595Y-134237148D01*
X103467612Y-134338007D01*
X103689296Y-134438868D01*
X103903346Y-134538229D01*
X104106463Y-134634591D01*
X104295346Y-134726453D01*
X104466694Y-134812316D01*
X104603294Y-134883279D01*
X104669659Y-134919237D01*
X104721403Y-134948788D01*
X104757021Y-134970905D01*
X104775012Y-134984561D01*
X104773873Y-134988729D01*
X104752101Y-134982382D01*
X104743600Y-134979165D01*
X104409475Y-134851747D01*
X104057445Y-134722115D01*
X103692345Y-134591884D01*
X103319010Y-134462669D01*
X102942276Y-134336085D01*
X102566976Y-134213746D01*
X102197946Y-134097268D01*
X101840021Y-133988264D01*
X101498035Y-133888351D01*
X101365951Y-133851059D01*
X100456390Y-133610197D01*
X99541365Y-133394089D01*
X98621292Y-133202780D01*
X97696583Y-133036314D01*
X96767652Y-132894734D01*
X95834913Y-132778084D01*
X94898780Y-132686408D01*
X93959666Y-132619749D01*
X93017984Y-132578153D01*
X92074149Y-132561661D01*
X91128574Y-132570319D01*
X90181672Y-132604171D01*
X89798150Y-132625043D01*
X88867166Y-132693226D01*
X87938084Y-132786228D01*
X87011974Y-132903865D01*
X86089905Y-133045956D01*
X85172945Y-133212316D01*
X84262165Y-133402763D01*
X83358632Y-133617114D01*
X82463417Y-133855184D01*
X82232035Y-133920980D01*
X81929846Y-134009962D01*
X81614767Y-134106288D01*
X81292108Y-134208203D01*
X80967178Y-134313952D01*
X80645286Y-134421777D01*
X80331741Y-134529924D01*
X80031854Y-134636636D01*
X79750932Y-134740157D01*
X79720700Y-134751545D01*
X79584566Y-134802682D01*
X79459132Y-134849280D01*
X79346102Y-134890735D01*
X79247183Y-134926440D01*
X79164079Y-134955791D01*
X79098495Y-134978183D01*
X79052136Y-134993011D01*
X79026707Y-134999670D01*
X79022200Y-134999426D01*
X79033343Y-134990384D01*
X79065324Y-134971660D01*
X79115966Y-134944319D01*
X79183092Y-134909428D01*
X79264527Y-134868054D01*
X79358095Y-134821265D01*
X79461619Y-134770126D01*
X79572924Y-134715704D01*
X79689833Y-134659066D01*
X79810170Y-134601280D01*
X79931759Y-134543410D01*
X80052424Y-134486526D01*
X80169990Y-134431692D01*
X80282279Y-134379976D01*
X80332520Y-134357092D01*
X80863055Y-134123179D01*
X81403417Y-133898109D01*
X81949984Y-133683162D01*
X82499134Y-133479619D01*
X83047247Y-133288760D01*
X83590700Y-133111866D01*
X84125872Y-132950217D01*
X84649142Y-132805092D01*
X84918175Y-132735873D01*
X84999655Y-132715157D01*
X85072237Y-132696050D01*
X85132507Y-132679505D01*
X85177052Y-132666474D01*
X85202457Y-132657911D01*
X85207100Y-132655257D01*
X85195990Y-132647503D01*
X85166423Y-132634196D01*
X85124046Y-132617800D01*
X85108675Y-132612294D01*
X85011071Y-132574224D01*
X84905121Y-132526557D01*
X84800096Y-132473836D01*
X84705269Y-132420608D01*
X84661000Y-132392880D01*
X84513165Y-132284701D01*
X84387997Y-132168601D01*
X84283238Y-132041555D01*
X84196630Y-131900540D01*
X84125917Y-131742532D01*
X84084981Y-131621250D01*
X84058334Y-131532350D01*
X84054698Y-128303374D01*
X84051062Y-125074399D01*
X84794181Y-125074399D01*
X85537300Y-125074400D01*
X85539285Y-125820525D01*
X85539499Y-125911917D01*
X85539719Y-126026935D01*
X85539945Y-126163808D01*
X85540173Y-126320760D01*
X85540403Y-126496019D01*
X85540632Y-126687812D01*
X85540859Y-126894364D01*
X85541082Y-127113904D01*
X85541299Y-127344657D01*
X85541509Y-127584850D01*
X85541709Y-127832710D01*
X85541898Y-128086464D01*
X85542075Y-128344338D01*
X85542237Y-128604559D01*
X85542383Y-128865354D01*
X85542460Y-129017750D01*
X85542633Y-129265614D01*
X85542905Y-129506803D01*
X85543271Y-129740077D01*
X85543724Y-129964199D01*
X85544258Y-130177931D01*
X85544869Y-130380036D01*
X85545550Y-130569276D01*
X85546295Y-130744412D01*
X85547099Y-130904207D01*
X85547955Y-131047423D01*
X85548858Y-131172822D01*
X85549803Y-131279167D01*
X85550783Y-131365219D01*
X85551793Y-131429742D01*
X85552826Y-131471496D01*
X85553878Y-131489244D01*
X85554012Y-131489716D01*
X85570368Y-131505354D01*
X85603051Y-131525926D01*
X85642912Y-131545995D01*
X85737410Y-131576935D01*
X85837628Y-131589197D01*
X85937569Y-131583199D01*
X86031234Y-131559359D01*
X86112625Y-131518096D01*
X86120294Y-131512713D01*
X86174619Y-131473360D01*
X86172178Y-129635955D01*
X86171878Y-129391239D01*
X86171609Y-129133963D01*
X86171373Y-128867351D01*
X86171170Y-128594627D01*
X86171003Y-128319016D01*
X86170871Y-128043743D01*
X86170777Y-127772031D01*
X86170721Y-127507105D01*
X86170704Y-127252191D01*
X86170728Y-127010512D01*
X86170795Y-126785292D01*
X86170904Y-126579756D01*
X86171018Y-126436475D01*
X86172300Y-125074400D01*
X87671406Y-125074400D01*
X87667345Y-128424025D01*
X87666941Y-128772265D01*
X87666590Y-129096045D01*
X87666269Y-129396304D01*
X87665957Y-129673982D01*
X87665632Y-129930018D01*
X87665271Y-130165353D01*
X87664853Y-130380924D01*
X87664355Y-130577673D01*
X87663756Y-130756539D01*
X87663034Y-130918461D01*
X87662167Y-131064378D01*
X87661133Y-131195231D01*
X87659909Y-131311959D01*
X87658474Y-131415501D01*
X87656806Y-131506798D01*
X87654882Y-131586787D01*
X87652682Y-131656411D01*
X87650182Y-131716607D01*
X87647361Y-131768315D01*
X87644198Y-131812475D01*
X87640669Y-131850026D01*
X87636753Y-131881909D01*
X87632428Y-131909062D01*
X87627672Y-131932426D01*
X87622463Y-131952939D01*
X87616779Y-131971541D01*
X87610598Y-131989172D01*
X87603899Y-132006772D01*
X87596658Y-132025279D01*
X87588854Y-132045635D01*
X87582194Y-132063874D01*
X87565568Y-132113282D01*
X87553871Y-132153190D01*
X87548657Y-132177986D01*
X87549110Y-132183143D01*
X87562928Y-132183141D01*
X87598736Y-132179839D01*
X87653394Y-132173618D01*
X87723760Y-132164861D01*
X87806693Y-132153949D01*
X87899051Y-132141265D01*
X87934102Y-132136324D01*
X88034352Y-132122297D01*
X88131022Y-132109145D01*
X88219964Y-132097402D01*
X88297033Y-132087606D01*
X88358082Y-132080291D01*
X88398966Y-132075994D01*
X88404325Y-132075546D01*
X88448962Y-132071126D01*
X88481653Y-132066035D01*
X88496105Y-132061287D01*
X88496316Y-132060741D01*
X88489756Y-132046129D01*
X88473727Y-132020123D01*
X88470244Y-132014950D01*
X88427639Y-131943869D01*
X88385932Y-131859352D01*
X88350470Y-131772969D01*
X88331273Y-131714226D01*
X88321640Y-131676058D01*
X88313270Y-131633843D01*
X88306081Y-131585657D01*
X88299989Y-131529580D01*
X88294911Y-131463688D01*
X88290765Y-131386058D01*
X88287467Y-131294767D01*
X88284934Y-131187894D01*
X88283084Y-131063516D01*
X88281833Y-130919709D01*
X88281099Y-130754551D01*
X88280798Y-130566121D01*
X88280788Y-130544925D01*
X88280500Y-129773400D01*
X89715600Y-129773400D01*
X89715600Y-130586607D01*
X89715690Y-130756759D01*
X89715985Y-130903246D01*
X89716521Y-131027803D01*
X89717331Y-131132163D01*
X89718451Y-131218062D01*
X89719917Y-131287234D01*
X89721763Y-131341413D01*
X89724024Y-131382334D01*
X89726737Y-131411731D01*
X89729935Y-131431339D01*
X89732923Y-131441275D01*
X89769964Y-131497629D01*
X89827859Y-131541124D01*
X89905196Y-131571129D01*
X90000565Y-131587010D01*
X90063146Y-131589500D01*
X90166305Y-131582466D01*
X90254378Y-131562009D01*
X90325181Y-131529092D01*
X90376524Y-131484681D01*
X90402812Y-131439735D01*
X90405044Y-131421422D01*
X90407117Y-131380289D01*
X90408986Y-131318917D01*
X90410609Y-131239886D01*
X90411943Y-131145778D01*
X90412945Y-131039171D01*
X90413570Y-130922647D01*
X90413776Y-130798786D01*
X90413772Y-130785398D01*
X90413670Y-130643201D01*
X90413462Y-130524027D01*
X90413052Y-130425497D01*
X90412344Y-130345233D01*
X90411240Y-130280859D01*
X90409644Y-130229996D01*
X90407460Y-130190266D01*
X90404592Y-130159291D01*
X90400943Y-130134694D01*
X90396416Y-130114097D01*
X90390915Y-130095123D01*
X90385051Y-130077465D01*
X90364633Y-130024027D01*
X90339404Y-129971046D01*
X90308039Y-129917117D01*
X90269212Y-129860839D01*
X90221598Y-129800807D01*
X90163871Y-129735617D01*
X90094706Y-129663868D01*
X90012776Y-129584155D01*
X89916756Y-129495075D01*
X89805321Y-129395224D01*
X89677145Y-129283200D01*
X89530902Y-129157598D01*
X89455674Y-129093582D01*
X89286614Y-128948248D01*
X89136965Y-128815502D01*
X89005153Y-128693616D01*
X88889608Y-128580863D01*
X88788755Y-128475518D01*
X88701023Y-128375852D01*
X88624840Y-128280140D01*
X88558633Y-128186653D01*
X88500830Y-128093666D01*
X88449859Y-127999452D01*
X88438411Y-127976350D01*
X88402926Y-127901855D01*
X88374184Y-127836238D01*
X88351355Y-127775359D01*
X88333610Y-127715083D01*
X88320121Y-127651271D01*
X88310059Y-127579786D01*
X88302594Y-127496489D01*
X88296899Y-127397245D01*
X88292143Y-127277914D01*
X88290848Y-127239750D01*
X88287877Y-127128667D01*
X88285601Y-126999595D01*
X88284076Y-126859935D01*
X88283359Y-126717088D01*
X88283506Y-126578457D01*
X88284574Y-126451444D01*
X88284734Y-126439650D01*
X88286968Y-126304723D01*
X88289866Y-126191865D01*
X88293933Y-126097742D01*
X88299676Y-126019023D01*
X88307602Y-125952376D01*
X88318218Y-125894470D01*
X88332031Y-125841972D01*
X88349546Y-125791551D01*
X88371271Y-125739874D01*
X88397712Y-125683611D01*
X88400613Y-125677650D01*
X88470464Y-125555666D01*
X88554690Y-125448350D01*
X88655250Y-125354165D01*
X88774101Y-125271575D01*
X88913197Y-125199042D01*
X89074497Y-125135030D01*
X89104459Y-125124820D01*
X89239430Y-125084739D01*
X89380809Y-125052849D01*
X89531814Y-125028796D01*
X89695661Y-125012224D01*
X89875566Y-125002781D01*
X90074746Y-125000110D01*
X90219861Y-125001918D01*
X90219861Y-125001918D01*
G37*
X90219861Y-125001918D02*
X90369238Y-125006198D01*
X90498197Y-125012541D01*
X90611675Y-125021496D01*
X90714609Y-125033610D01*
X90811934Y-125049430D01*
X90908588Y-125069503D01*
X90976073Y-125085767D01*
X91154338Y-125140100D01*
X91311329Y-125207876D01*
X91447583Y-125289518D01*
X91563634Y-125385452D01*
X91660019Y-125496101D01*
X91737274Y-125621890D01*
X91781861Y-125723419D01*
X91797393Y-125765898D01*
X91810778Y-125806099D01*
X91822176Y-125846224D01*
X91831744Y-125888476D01*
X91839643Y-125935054D01*
X91846031Y-125988161D01*
X91851067Y-126049997D01*
X91854911Y-126122765D01*
X91857722Y-126208665D01*
X91859658Y-126309900D01*
X91860879Y-126428669D01*
X91861544Y-126567176D01*
X91861812Y-126727621D01*
X91861848Y-126830175D01*
X91861900Y-127589000D01*
X90490300Y-127589000D01*
X90490300Y-126880490D01*
X90490299Y-126171981D01*
X90461725Y-126115315D01*
X90421936Y-126064127D01*
X90361739Y-126026129D01*
X90282691Y-126001759D01*
X90186349Y-125991451D01*
X90074271Y-125995644D01*
X90045822Y-125998780D01*
X89966394Y-126011974D01*
X89907349Y-126030632D01*
X89863865Y-126057068D01*
X89831121Y-126093594D01*
X89823550Y-126105397D01*
X89817837Y-126115702D01*
X89813052Y-126127497D01*
X89809111Y-126142986D01*
X89805933Y-126164372D01*
X89803436Y-126193857D01*
X89801539Y-126233644D01*
X89800158Y-126285936D01*
X89799213Y-126352936D01*
X89798622Y-126436846D01*
X89798302Y-126539870D01*
X89798172Y-126664211D01*
X89798150Y-126788900D01*
X89798186Y-126941291D01*
X89798456Y-127070619D01*
X89799199Y-127179217D01*
X89800654Y-127269423D01*
X89803059Y-127343571D01*
X89806655Y-127403997D01*
X89811681Y-127453037D01*
X89818376Y-127493027D01*
X89826980Y-127526302D01*
X89837730Y-127555197D01*
X89850868Y-127582049D01*
X89866632Y-127609193D01*
X89885239Y-127638929D01*
X89907739Y-127673249D01*
X89931924Y-127707081D01*
X89959267Y-127741845D01*
X89991242Y-127778959D01*
X90029321Y-127819845D01*
X90074979Y-127865922D01*
X90129687Y-127918609D01*
X90194920Y-127979328D01*
X90272151Y-128049496D01*
X90362853Y-128130534D01*
X90468498Y-128223863D01*
X90590561Y-128330901D01*
X90725250Y-128448479D01*
X90896895Y-128599852D01*
X91049200Y-128738087D01*
X91183564Y-128864711D01*
X91301385Y-128981250D01*
X91404061Y-129089232D01*
X91492991Y-129190184D01*
X91569573Y-129285633D01*
X91635206Y-129377107D01*
X91691289Y-129466131D01*
X91739219Y-129554233D01*
X91740856Y-129557500D01*
X91775427Y-129630424D01*
X91805337Y-129702705D01*
X91830866Y-129776659D01*
X91852296Y-129854600D01*
X91869907Y-129938842D01*
X91883978Y-130031702D01*
X91894791Y-130135493D01*
X91902626Y-130252531D01*
X91907763Y-130385130D01*
X91910484Y-130535606D01*
X91911067Y-130706273D01*
X91909795Y-130899445D01*
X91909268Y-130947462D01*
X91907253Y-131097539D01*
X91904849Y-131225028D01*
X91901831Y-131332744D01*
X91897976Y-131423500D01*
X91893058Y-131500108D01*
X91886853Y-131565381D01*
X91879138Y-131622132D01*
X91869687Y-131673175D01*
X91858278Y-131721322D01*
X91844684Y-131769385D01*
X91843393Y-131773650D01*
X91832405Y-131811378D01*
X91825343Y-131838724D01*
X91823937Y-131846675D01*
X91836044Y-131849227D01*
X91870222Y-131851520D01*
X91923143Y-131853460D01*
X91991478Y-131854950D01*
X92071900Y-131855895D01*
X92154855Y-131856200D01*
X92255112Y-131856104D01*
X92332752Y-131855690D01*
X92390556Y-131854767D01*
X92431309Y-131853144D01*
X92457791Y-131850630D01*
X92472786Y-131847034D01*
X92479077Y-131842166D01*
X92479444Y-131835834D01*
X92478929Y-131833975D01*
X92455048Y-131747744D01*
X92433101Y-131650118D01*
X92415797Y-131554050D01*
X92407855Y-131494250D01*
X92405703Y-131461237D01*
X92403666Y-131405387D01*
X92401778Y-131329262D01*
X92400075Y-131235426D01*
X92398590Y-131126441D01*
X92397358Y-131004869D01*
X92396414Y-130873274D01*
X92395791Y-130734217D01*
X92395525Y-130590263D01*
X92395520Y-130576675D01*
X92395300Y-129773400D01*
X93829867Y-129773400D01*
X93833308Y-130608425D01*
X93833925Y-130779190D01*
X93834430Y-130926411D01*
X93835066Y-131051940D01*
X93836080Y-131157630D01*
X93837715Y-131245335D01*
X93840216Y-131316907D01*
X93843827Y-131374199D01*
X93848795Y-131419065D01*
X93855362Y-131453356D01*
X93863774Y-131478926D01*
X93874276Y-131497629D01*
X93887112Y-131511316D01*
X93902527Y-131521841D01*
X93920766Y-131531056D01*
X93942072Y-131540816D01*
X93957400Y-131548187D01*
X93990169Y-131563547D01*
X94019606Y-131573624D01*
X94052487Y-131579515D01*
X94095589Y-131582317D01*
X94155688Y-131583129D01*
X94173300Y-131583150D01*
X94264316Y-131580517D01*
X94335420Y-131571634D01*
X94391645Y-131555021D01*
X94438028Y-131529201D01*
X94478935Y-131493381D01*
X94522550Y-131448377D01*
X94522550Y-130109950D01*
X94477034Y-130014700D01*
X94451322Y-129964737D01*
X94421552Y-129915018D01*
X94386263Y-129864045D01*
X94343991Y-129810324D01*
X94293273Y-129752357D01*
X94232646Y-129688648D01*
X94160647Y-129617702D01*
X94075813Y-129538022D01*
X93976681Y-129448112D01*
X93861788Y-129346476D01*
X93729672Y-129231618D01*
X93614221Y-129132314D01*
X93439288Y-128980659D01*
X93284153Y-128842442D01*
X93147745Y-128716620D01*
X93028993Y-128602152D01*
X92926828Y-128497993D01*
X92840179Y-128403102D01*
X92767975Y-128316436D01*
X92742400Y-128283174D01*
X92666521Y-128173769D01*
X92595619Y-128056135D01*
X92533673Y-127937585D01*
X92484659Y-127825434D01*
X92467359Y-127777430D01*
X92454181Y-127736359D01*
X92442886Y-127697138D01*
X92433331Y-127657498D01*
X92425372Y-127615168D01*
X92418868Y-127567878D01*
X92413676Y-127513356D01*
X92409653Y-127449334D01*
X92406656Y-127373539D01*
X92404544Y-127283703D01*
X92403173Y-127177554D01*
X92402401Y-127052823D01*
X92402086Y-126907238D01*
X92402084Y-126738529D01*
X92402084Y-126738100D01*
X92402518Y-126007850D01*
X92436193Y-125884357D01*
X92490450Y-125728598D01*
X92564036Y-125589089D01*
X92657385Y-125465299D01*
X92770929Y-125356701D01*
X92905104Y-125262764D01*
X92979500Y-125221419D01*
X93072713Y-125177242D01*
X93170262Y-125139065D01*
X93276312Y-125105729D01*
X93395026Y-125076075D01*
X93530567Y-125048944D01*
X93687099Y-125023177D01*
X93697050Y-125021679D01*
X93758858Y-125014976D01*
X93841543Y-125009802D01*
X93940630Y-125006128D01*
X94051643Y-125003931D01*
X94170105Y-125003183D01*
X94291542Y-125003858D01*
X94411478Y-125005931D01*
X94525438Y-125009375D01*
X94628946Y-125014164D01*
X94717525Y-125020273D01*
X94786702Y-125027675D01*
X94789250Y-125028033D01*
X94997636Y-125064870D01*
X95183829Y-125113160D01*
X95348514Y-125173321D01*
X95492377Y-125245772D01*
X95616104Y-125330935D01*
X95720380Y-125429227D01*
X95805890Y-125541069D01*
X95873321Y-125666880D01*
X95887149Y-125699849D01*
X95902815Y-125739473D01*
X95916325Y-125775470D01*
X95927852Y-125810003D01*
X95937568Y-125845236D01*
X95945643Y-125883335D01*
X95952250Y-125926463D01*
X95957560Y-125976785D01*
X95961745Y-126036465D01*
X95964977Y-126107667D01*
X95967427Y-126192555D01*
X95969267Y-126293293D01*
X95970669Y-126412047D01*
X95971805Y-126550980D01*
X95972845Y-126712256D01*
X95973286Y-126785724D01*
X95978087Y-127588999D01*
X95291593Y-127588999D01*
X94605100Y-127589000D01*
X94605100Y-126881809D01*
X94605075Y-126729786D01*
X94604951Y-126601043D01*
X94604657Y-126493458D01*
X94604117Y-126404913D01*
X94603259Y-126333285D01*
X94602009Y-126276455D01*
X94600295Y-126232302D01*
X94598043Y-126198706D01*
X94595180Y-126173546D01*
X94591633Y-126154701D01*
X94587328Y-126140052D01*
X94582193Y-126127478D01*
X94578798Y-126120288D01*
X94548698Y-126073906D01*
X94507303Y-126040243D01*
X94450137Y-126016741D01*
X94372723Y-126000840D01*
X94368870Y-126000287D01*
X94251425Y-125991299D01*
X94144602Y-125998394D01*
X94052610Y-126021188D01*
X94027639Y-126031437D01*
X94003199Y-126042367D01*
X93982494Y-126052355D01*
X93965217Y-126063479D01*
X93951058Y-126077814D01*
X93939707Y-126097437D01*
X93930857Y-126124423D01*
X93924197Y-126160849D01*
X93919418Y-126208790D01*
X93916211Y-126270324D01*
X93914267Y-126347525D01*
X93913277Y-126442471D01*
X93912932Y-126557237D01*
X93912922Y-126693899D01*
X93912950Y-126801600D01*
X93912967Y-126947175D01*
X93913080Y-127069618D01*
X93913378Y-127171199D01*
X93913953Y-127254185D01*
X93914894Y-127320845D01*
X93916293Y-127373448D01*
X93918239Y-127414263D01*
X93920823Y-127445557D01*
X93924135Y-127469599D01*
X93928267Y-127488658D01*
X93933308Y-127505003D01*
X93939348Y-127520901D01*
X93941883Y-127527193D01*
X93964006Y-127573500D01*
X93995261Y-127628660D01*
X94029239Y-127681436D01*
X94032394Y-127685943D01*
X94052658Y-127714239D01*
X94072750Y-127741044D01*
X94094046Y-127767645D01*
X94117926Y-127795332D01*
X94145769Y-127825395D01*
X94178953Y-127859123D01*
X94218857Y-127897805D01*
X94266860Y-127942730D01*
X94324340Y-127995188D01*
X94392677Y-128056467D01*
X94473248Y-128127858D01*
X94567432Y-128210650D01*
X94676609Y-128306131D01*
X94802156Y-128415591D01*
X94945453Y-128540319D01*
X94953644Y-128547445D01*
X95028331Y-128613800D01*
X95113803Y-128691992D01*
X95203190Y-128775595D01*
X95289625Y-128858184D01*
X95366238Y-128933333D01*
X95367702Y-128934795D01*
X95508431Y-129081061D01*
X95628201Y-129218502D01*
X95728640Y-129349908D01*
X95811376Y-129478070D01*
X95878040Y-129605779D01*
X95930259Y-129735826D01*
X95969663Y-129871001D01*
X95997880Y-130014096D01*
X95997974Y-130014700D01*
X96003300Y-130051645D01*
X96007748Y-130090106D01*
X96011397Y-130132679D01*
X96014322Y-130181960D01*
X96016600Y-130240544D01*
X96018308Y-130311028D01*
X96019521Y-130396005D01*
X96020316Y-130498073D01*
X96020770Y-130619827D01*
X96020958Y-130763863D01*
X96020971Y-130795750D01*
X96020825Y-130959900D01*
X96020179Y-131101079D01*
X96018869Y-131221711D01*
X96016732Y-131324223D01*
X96013605Y-131411041D01*
X96009325Y-131484589D01*
X96003728Y-131547295D01*
X95996651Y-131601583D01*
X95987931Y-131649880D01*
X95977404Y-131694611D01*
X95964908Y-131738202D01*
X95955578Y-131767300D01*
X95905704Y-131889959D01*
X95836016Y-132014596D01*
X95808183Y-132057117D01*
X95788122Y-132088500D01*
X95776605Y-132109988D01*
X95775450Y-132115537D01*
X95788735Y-132118239D01*
X95823613Y-132123889D01*
X95876519Y-132131950D01*
X95943889Y-132141885D01*
X96022155Y-132153156D01*
X96071950Y-132160209D01*
X96160159Y-132173103D01*
X96267244Y-132189525D01*
X96387084Y-132208492D01*
X96513558Y-132229017D01*
X96640545Y-132250117D01*
X96761925Y-132270806D01*
X96794204Y-132276414D01*
X96896049Y-132294105D01*
X96990300Y-132310312D01*
X97073944Y-132324529D01*
X97143970Y-132336251D01*
X97197364Y-132344973D01*
X97231115Y-132350189D01*
X97241879Y-132351500D01*
X97244261Y-132348482D01*
X97246425Y-132338689D01*
X97248379Y-132321015D01*
X97250135Y-132294350D01*
X97251701Y-132257588D01*
X97253088Y-132209620D01*
X97254306Y-132149339D01*
X97255365Y-132075637D01*
X97256275Y-131987407D01*
X97257045Y-131883540D01*
X97257686Y-131762929D01*
X97258209Y-131624466D01*
X97258622Y-131467043D01*
X97258935Y-131289553D01*
X97259160Y-131090888D01*
X97259305Y-130869939D01*
X97259382Y-130625601D01*
X97259400Y-130408717D01*
X97259399Y-128465935D01*
X97224475Y-128471555D01*
X97199623Y-128474980D01*
X97155079Y-128480571D01*
X97096392Y-128487651D01*
X97029110Y-128495544D01*
X97002429Y-128498617D01*
X96815308Y-128520059D01*
X96809019Y-128559354D01*
X96807203Y-128578488D01*
X96804033Y-128620785D01*
X96799650Y-128684054D01*
X96794195Y-128766103D01*
X96787809Y-128864739D01*
X96780633Y-128977769D01*
X96772809Y-129103003D01*
X96764477Y-129238248D01*
X96755780Y-129381311D01*
X96751289Y-129455900D01*
X96735713Y-129713873D01*
X96721423Y-129947156D01*
X96708372Y-130156423D01*
X96696512Y-130342350D01*
X96685796Y-130505610D01*
X96676176Y-130646880D01*
X96667604Y-130766833D01*
X96660033Y-130866144D01*
X96653416Y-130945489D01*
X96647706Y-131005541D01*
X96642854Y-131046975D01*
X96638813Y-131070467D01*
X96637345Y-131075150D01*
X96630420Y-131085514D01*
X96626646Y-131075182D01*
X96625136Y-131043400D01*
X96624043Y-131011102D01*
X96621669Y-130959288D01*
X96618306Y-130893791D01*
X96614250Y-130820446D01*
X96611701Y-130776700D01*
X96608495Y-130719270D01*
X96604224Y-130637005D01*
X96598912Y-130530448D01*
X96592586Y-130400140D01*
X96585270Y-130246623D01*
X96576990Y-130070439D01*
X96567771Y-129872129D01*
X96557638Y-129652237D01*
X96546618Y-129411302D01*
X96534735Y-129149869D01*
X96522015Y-128868477D01*
X96514683Y-128705667D01*
X96506358Y-128520584D01*
X96022454Y-128440106D01*
X95914623Y-128422007D01*
X95814660Y-128404911D01*
X95725339Y-128389315D01*
X95649432Y-128375718D01*
X95589710Y-128364618D01*
X95548948Y-128356512D01*
X95529917Y-128351900D01*
X95528955Y-128351434D01*
X95538098Y-128347489D01*
X95569883Y-128341091D01*
X95621709Y-128332595D01*
X95690975Y-128322353D01*
X95775077Y-128310720D01*
X95871415Y-128298049D01*
X95977386Y-128284693D01*
X96090388Y-128271005D01*
X96207821Y-128257340D01*
X96286395Y-128248516D01*
X96357313Y-128240393D01*
X96418998Y-128232801D01*
X96467202Y-128226305D01*
X96497680Y-128221471D01*
X96506404Y-128219228D01*
X96508232Y-128205830D01*
X96511348Y-128169522D01*
X96515589Y-128112756D01*
X96520787Y-128037981D01*
X96526779Y-127947647D01*
X96533397Y-127844204D01*
X96540477Y-127730101D01*
X96547853Y-127607788D01*
X96548892Y-127590283D01*
X96557341Y-127448259D01*
X96566313Y-127298574D01*
X96575499Y-127146279D01*
X96584593Y-126996428D01*
X96593287Y-126854074D01*
X96601275Y-126724268D01*
X96608250Y-126612063D01*
X96611458Y-126561025D01*
X96617758Y-126459915D01*
X96623497Y-126365153D01*
X96628477Y-126280197D01*
X96632503Y-126208505D01*
X96635377Y-126153536D01*
X96636903Y-126118747D01*
X96637100Y-126110074D01*
X96637100Y-126065000D01*
X96722069Y-126065000D01*
X96730366Y-126290425D01*
X96734288Y-126393501D01*
X96738996Y-126511365D01*
X96744358Y-126641147D01*
X96750244Y-126779980D01*
X96756523Y-126924996D01*
X96763063Y-127073325D01*
X96769735Y-127222101D01*
X96776407Y-127368454D01*
X96782950Y-127509516D01*
X96789231Y-127642420D01*
X96795120Y-127764296D01*
X96800487Y-127872278D01*
X96805200Y-127963496D01*
X96809129Y-128035082D01*
X96812144Y-128084168D01*
X96812153Y-128084300D01*
X96821250Y-128217650D01*
X97011750Y-128251245D01*
X97080426Y-128263119D01*
X97142051Y-128273334D01*
X97191437Y-128281063D01*
X97223399Y-128285479D01*
X97230825Y-128286170D01*
X97259400Y-128287500D01*
X97259400Y-126065000D01*
X96722069Y-126065000D01*
X96637100Y-126065000D01*
X96167200Y-126065000D01*
X96167200Y-125074400D01*
X99837500Y-125074400D01*
X99837500Y-126064724D01*
X98764350Y-126071350D01*
X98757952Y-132693408D01*
X98805601Y-132705879D01*
X98840431Y-132714859D01*
X98890526Y-132727608D01*
X98946507Y-132741743D01*
X98961200Y-132745433D01*
X99301891Y-132834528D01*
X99660247Y-132935077D01*
X100032022Y-133045683D01*
X100412970Y-133164948D01*
X100798847Y-133291478D01*
X101185406Y-133423874D01*
X101568403Y-133560741D01*
X101943593Y-133700681D01*
X102306730Y-133842297D01*
X102360211Y-133863724D01*
X102570554Y-133949577D01*
X102789766Y-134041433D01*
X103014547Y-134137790D01*
X103241595Y-134237148D01*
X103467612Y-134338007D01*
X103689296Y-134438868D01*
X103903346Y-134538229D01*
X104106463Y-134634591D01*
X104295346Y-134726453D01*
X104466694Y-134812316D01*
X104603294Y-134883279D01*
X104669659Y-134919237D01*
X104721403Y-134948788D01*
X104757021Y-134970905D01*
X104775012Y-134984561D01*
X104773873Y-134988729D01*
X104752101Y-134982382D01*
X104743600Y-134979165D01*
X104409475Y-134851747D01*
X104057445Y-134722115D01*
X103692345Y-134591884D01*
X103319010Y-134462669D01*
X102942276Y-134336085D01*
X102566976Y-134213746D01*
X102197946Y-134097268D01*
X101840021Y-133988264D01*
X101498035Y-133888351D01*
X101365951Y-133851059D01*
X100456390Y-133610197D01*
X99541365Y-133394089D01*
X98621292Y-133202780D01*
X97696583Y-133036314D01*
X96767652Y-132894734D01*
X95834913Y-132778084D01*
X94898780Y-132686408D01*
X93959666Y-132619749D01*
X93017984Y-132578153D01*
X92074149Y-132561661D01*
X91128574Y-132570319D01*
X90181672Y-132604171D01*
X89798150Y-132625043D01*
X88867166Y-132693226D01*
X87938084Y-132786228D01*
X87011974Y-132903865D01*
X86089905Y-133045956D01*
X85172945Y-133212316D01*
X84262165Y-133402763D01*
X83358632Y-133617114D01*
X82463417Y-133855184D01*
X82232035Y-133920980D01*
X81929846Y-134009962D01*
X81614767Y-134106288D01*
X81292108Y-134208203D01*
X80967178Y-134313952D01*
X80645286Y-134421777D01*
X80331741Y-134529924D01*
X80031854Y-134636636D01*
X79750932Y-134740157D01*
X79720700Y-134751545D01*
X79584566Y-134802682D01*
X79459132Y-134849280D01*
X79346102Y-134890735D01*
X79247183Y-134926440D01*
X79164079Y-134955791D01*
X79098495Y-134978183D01*
X79052136Y-134993011D01*
X79026707Y-134999670D01*
X79022200Y-134999426D01*
X79033343Y-134990384D01*
X79065324Y-134971660D01*
X79115966Y-134944319D01*
X79183092Y-134909428D01*
X79264527Y-134868054D01*
X79358095Y-134821265D01*
X79461619Y-134770126D01*
X79572924Y-134715704D01*
X79689833Y-134659066D01*
X79810170Y-134601280D01*
X79931759Y-134543410D01*
X80052424Y-134486526D01*
X80169990Y-134431692D01*
X80282279Y-134379976D01*
X80332520Y-134357092D01*
X80863055Y-134123179D01*
X81403417Y-133898109D01*
X81949984Y-133683162D01*
X82499134Y-133479619D01*
X83047247Y-133288760D01*
X83590700Y-133111866D01*
X84125872Y-132950217D01*
X84649142Y-132805092D01*
X84918175Y-132735873D01*
X84999655Y-132715157D01*
X85072237Y-132696050D01*
X85132507Y-132679505D01*
X85177052Y-132666474D01*
X85202457Y-132657911D01*
X85207100Y-132655257D01*
X85195990Y-132647503D01*
X85166423Y-132634196D01*
X85124046Y-132617800D01*
X85108675Y-132612294D01*
X85011071Y-132574224D01*
X84905121Y-132526557D01*
X84800096Y-132473836D01*
X84705269Y-132420608D01*
X84661000Y-132392880D01*
X84513165Y-132284701D01*
X84387997Y-132168601D01*
X84283238Y-132041555D01*
X84196630Y-131900540D01*
X84125917Y-131742532D01*
X84084981Y-131621250D01*
X84058334Y-131532350D01*
X84054698Y-128303374D01*
X84051062Y-125074399D01*
X84794181Y-125074399D01*
X85537300Y-125074400D01*
X85539285Y-125820525D01*
X85539499Y-125911917D01*
X85539719Y-126026935D01*
X85539945Y-126163808D01*
X85540173Y-126320760D01*
X85540403Y-126496019D01*
X85540632Y-126687812D01*
X85540859Y-126894364D01*
X85541082Y-127113904D01*
X85541299Y-127344657D01*
X85541509Y-127584850D01*
X85541709Y-127832710D01*
X85541898Y-128086464D01*
X85542075Y-128344338D01*
X85542237Y-128604559D01*
X85542383Y-128865354D01*
X85542460Y-129017750D01*
X85542633Y-129265614D01*
X85542905Y-129506803D01*
X85543271Y-129740077D01*
X85543724Y-129964199D01*
X85544258Y-130177931D01*
X85544869Y-130380036D01*
X85545550Y-130569276D01*
X85546295Y-130744412D01*
X85547099Y-130904207D01*
X85547955Y-131047423D01*
X85548858Y-131172822D01*
X85549803Y-131279167D01*
X85550783Y-131365219D01*
X85551793Y-131429742D01*
X85552826Y-131471496D01*
X85553878Y-131489244D01*
X85554012Y-131489716D01*
X85570368Y-131505354D01*
X85603051Y-131525926D01*
X85642912Y-131545995D01*
X85737410Y-131576935D01*
X85837628Y-131589197D01*
X85937569Y-131583199D01*
X86031234Y-131559359D01*
X86112625Y-131518096D01*
X86120294Y-131512713D01*
X86174619Y-131473360D01*
X86172178Y-129635955D01*
X86171878Y-129391239D01*
X86171609Y-129133963D01*
X86171373Y-128867351D01*
X86171170Y-128594627D01*
X86171003Y-128319016D01*
X86170871Y-128043743D01*
X86170777Y-127772031D01*
X86170721Y-127507105D01*
X86170704Y-127252191D01*
X86170728Y-127010512D01*
X86170795Y-126785292D01*
X86170904Y-126579756D01*
X86171018Y-126436475D01*
X86172300Y-125074400D01*
X87671406Y-125074400D01*
X87667345Y-128424025D01*
X87666941Y-128772265D01*
X87666590Y-129096045D01*
X87666269Y-129396304D01*
X87665957Y-129673982D01*
X87665632Y-129930018D01*
X87665271Y-130165353D01*
X87664853Y-130380924D01*
X87664355Y-130577673D01*
X87663756Y-130756539D01*
X87663034Y-130918461D01*
X87662167Y-131064378D01*
X87661133Y-131195231D01*
X87659909Y-131311959D01*
X87658474Y-131415501D01*
X87656806Y-131506798D01*
X87654882Y-131586787D01*
X87652682Y-131656411D01*
X87650182Y-131716607D01*
X87647361Y-131768315D01*
X87644198Y-131812475D01*
X87640669Y-131850026D01*
X87636753Y-131881909D01*
X87632428Y-131909062D01*
X87627672Y-131932426D01*
X87622463Y-131952939D01*
X87616779Y-131971541D01*
X87610598Y-131989172D01*
X87603899Y-132006772D01*
X87596658Y-132025279D01*
X87588854Y-132045635D01*
X87582194Y-132063874D01*
X87565568Y-132113282D01*
X87553871Y-132153190D01*
X87548657Y-132177986D01*
X87549110Y-132183143D01*
X87562928Y-132183141D01*
X87598736Y-132179839D01*
X87653394Y-132173618D01*
X87723760Y-132164861D01*
X87806693Y-132153949D01*
X87899051Y-132141265D01*
X87934102Y-132136324D01*
X88034352Y-132122297D01*
X88131022Y-132109145D01*
X88219964Y-132097402D01*
X88297033Y-132087606D01*
X88358082Y-132080291D01*
X88398966Y-132075994D01*
X88404325Y-132075546D01*
X88448962Y-132071126D01*
X88481653Y-132066035D01*
X88496105Y-132061287D01*
X88496316Y-132060741D01*
X88489756Y-132046129D01*
X88473727Y-132020123D01*
X88470244Y-132014950D01*
X88427639Y-131943869D01*
X88385932Y-131859352D01*
X88350470Y-131772969D01*
X88331273Y-131714226D01*
X88321640Y-131676058D01*
X88313270Y-131633843D01*
X88306081Y-131585657D01*
X88299989Y-131529580D01*
X88294911Y-131463688D01*
X88290765Y-131386058D01*
X88287467Y-131294767D01*
X88284934Y-131187894D01*
X88283084Y-131063516D01*
X88281833Y-130919709D01*
X88281099Y-130754551D01*
X88280798Y-130566121D01*
X88280788Y-130544925D01*
X88280500Y-129773400D01*
X89715600Y-129773400D01*
X89715600Y-130586607D01*
X89715690Y-130756759D01*
X89715985Y-130903246D01*
X89716521Y-131027803D01*
X89717331Y-131132163D01*
X89718451Y-131218062D01*
X89719917Y-131287234D01*
X89721763Y-131341413D01*
X89724024Y-131382334D01*
X89726737Y-131411731D01*
X89729935Y-131431339D01*
X89732923Y-131441275D01*
X89769964Y-131497629D01*
X89827859Y-131541124D01*
X89905196Y-131571129D01*
X90000565Y-131587010D01*
X90063146Y-131589500D01*
X90166305Y-131582466D01*
X90254378Y-131562009D01*
X90325181Y-131529092D01*
X90376524Y-131484681D01*
X90402812Y-131439735D01*
X90405044Y-131421422D01*
X90407117Y-131380289D01*
X90408986Y-131318917D01*
X90410609Y-131239886D01*
X90411943Y-131145778D01*
X90412945Y-131039171D01*
X90413570Y-130922647D01*
X90413776Y-130798786D01*
X90413772Y-130785398D01*
X90413670Y-130643201D01*
X90413462Y-130524027D01*
X90413052Y-130425497D01*
X90412344Y-130345233D01*
X90411240Y-130280859D01*
X90409644Y-130229996D01*
X90407460Y-130190266D01*
X90404592Y-130159291D01*
X90400943Y-130134694D01*
X90396416Y-130114097D01*
X90390915Y-130095123D01*
X90385051Y-130077465D01*
X90364633Y-130024027D01*
X90339404Y-129971046D01*
X90308039Y-129917117D01*
X90269212Y-129860839D01*
X90221598Y-129800807D01*
X90163871Y-129735617D01*
X90094706Y-129663868D01*
X90012776Y-129584155D01*
X89916756Y-129495075D01*
X89805321Y-129395224D01*
X89677145Y-129283200D01*
X89530902Y-129157598D01*
X89455674Y-129093582D01*
X89286614Y-128948248D01*
X89136965Y-128815502D01*
X89005153Y-128693616D01*
X88889608Y-128580863D01*
X88788755Y-128475518D01*
X88701023Y-128375852D01*
X88624840Y-128280140D01*
X88558633Y-128186653D01*
X88500830Y-128093666D01*
X88449859Y-127999452D01*
X88438411Y-127976350D01*
X88402926Y-127901855D01*
X88374184Y-127836238D01*
X88351355Y-127775359D01*
X88333610Y-127715083D01*
X88320121Y-127651271D01*
X88310059Y-127579786D01*
X88302594Y-127496489D01*
X88296899Y-127397245D01*
X88292143Y-127277914D01*
X88290848Y-127239750D01*
X88287877Y-127128667D01*
X88285601Y-126999595D01*
X88284076Y-126859935D01*
X88283359Y-126717088D01*
X88283506Y-126578457D01*
X88284574Y-126451444D01*
X88284734Y-126439650D01*
X88286968Y-126304723D01*
X88289866Y-126191865D01*
X88293933Y-126097742D01*
X88299676Y-126019023D01*
X88307602Y-125952376D01*
X88318218Y-125894470D01*
X88332031Y-125841972D01*
X88349546Y-125791551D01*
X88371271Y-125739874D01*
X88397712Y-125683611D01*
X88400613Y-125677650D01*
X88470464Y-125555666D01*
X88554690Y-125448350D01*
X88655250Y-125354165D01*
X88774101Y-125271575D01*
X88913197Y-125199042D01*
X89074497Y-125135030D01*
X89104459Y-125124820D01*
X89239430Y-125084739D01*
X89380809Y-125052849D01*
X89531814Y-125028796D01*
X89695661Y-125012224D01*
X89875566Y-125002781D01*
X90074746Y-125000110D01*
X90219861Y-125001918D01*
D14*
X180340000Y-106426000D02*
X170180000Y-106426000D01*
X180340000Y-107696000D02*
X180340000Y-100076000D01*
X180340000Y-100076000D02*
X170180000Y-100076000D01*
X170180000Y-100076000D02*
X170180000Y-107696000D01*
X170180000Y-107696000D02*
X180340000Y-107696000D01*
X180340000Y-124206000D02*
X170180000Y-124206000D01*
X180340000Y-125476000D02*
X180340000Y-117856000D01*
X180340000Y-117856000D02*
X170180000Y-117856000D01*
X170180000Y-117856000D02*
X170180000Y-125476000D01*
X170180000Y-125476000D02*
X180340000Y-125476000D01*
X180340000Y-88646000D02*
X170180000Y-88646000D01*
X180340000Y-89916000D02*
X180340000Y-82296000D01*
X180340000Y-82296000D02*
X170180000Y-82296000D01*
X170180000Y-82296000D02*
X170180000Y-89916000D01*
X170180000Y-89916000D02*
X180340000Y-89916000D01*
X252512000Y-89436000D02*
X252912000Y-89436000D01*
X252512000Y-92936000D02*
X252912000Y-92936000D01*
X252512000Y-103436000D02*
X252912000Y-103436000D01*
X252512000Y-99936000D02*
X252912000Y-99936000D01*
X252512000Y-96436000D02*
X252912000Y-96436000D01*
X251412000Y-106936000D02*
X251412000Y-85936000D01*
X252512000Y-106936000D02*
X252512000Y-85936000D01*
X245312000Y-106936000D02*
X252912000Y-106936000D01*
X252912000Y-85936000D02*
X245312000Y-85936000D01*
X245312000Y-85936000D02*
X245312000Y-106936000D01*
X234950000Y-62230000D02*
X224790000Y-62230000D01*
X234950000Y-63500000D02*
X234950000Y-55880000D01*
X234950000Y-55880000D02*
X224790000Y-55880000D01*
X224790000Y-55880000D02*
X224790000Y-63500000D01*
X224790000Y-63500000D02*
X234950000Y-63500000D01*
X234950000Y-80010000D02*
X224790000Y-80010000D01*
X234950000Y-81280000D02*
X234950000Y-73660000D01*
X234950000Y-73660000D02*
X224790000Y-73660000D01*
X224790000Y-73660000D02*
X224790000Y-81280000D01*
X224790000Y-81280000D02*
X234950000Y-81280000D01*
X84328000Y-48768000D02*
G75*
G03X84328000Y-48768000I-2286000J0D01*
G01*
X219472000Y-145083000D02*
X221472000Y-145083000D01*
X221472000Y-148033000D02*
X219472000Y-148033000D01*
X207162400Y-93014800D02*
X207162400Y-96469200D01*
X210921600Y-93014800D02*
X210921600Y-96469200D01*
X199945000Y-85155000D02*
X199945000Y-93153000D01*
X200085000Y-85160000D02*
X200085000Y-93148000D01*
X200225000Y-85170000D02*
X200225000Y-93138000D01*
X200365000Y-85185000D02*
X200365000Y-93123000D01*
X200505000Y-85205000D02*
X200505000Y-93103000D01*
X200645000Y-85230000D02*
X200645000Y-88932000D01*
X200645000Y-89376000D02*
X200645000Y-93078000D01*
X200785000Y-85260000D02*
X200785000Y-88604000D01*
X200785000Y-89704000D02*
X200785000Y-93048000D01*
X200925000Y-85296000D02*
X200925000Y-88435000D01*
X200925000Y-89873000D02*
X200925000Y-93012000D01*
X201065000Y-85337000D02*
X201065000Y-88322000D01*
X201065000Y-89986000D02*
X201065000Y-92971000D01*
X201205000Y-85383000D02*
X201205000Y-88244000D01*
X201205000Y-90064000D02*
X201205000Y-92925000D01*
X201345000Y-85436000D02*
X201345000Y-88193000D01*
X201345000Y-90115000D02*
X201345000Y-92872000D01*
X201485000Y-85495000D02*
X201485000Y-88163000D01*
X201485000Y-90145000D02*
X201485000Y-92813000D01*
X201625000Y-85560000D02*
X201625000Y-88154000D01*
X201625000Y-90154000D02*
X201625000Y-92748000D01*
X201765000Y-85631000D02*
X201765000Y-88165000D01*
X201765000Y-90143000D02*
X201765000Y-92677000D01*
X201905000Y-85710000D02*
X201905000Y-88195000D01*
X201905000Y-90113000D02*
X201905000Y-92598000D01*
X202045000Y-85797000D02*
X202045000Y-88249000D01*
X202045000Y-90059000D02*
X202045000Y-92511000D01*
X202185000Y-85892000D02*
X202185000Y-88329000D01*
X202185000Y-89979000D02*
X202185000Y-92416000D01*
X202325000Y-85996000D02*
X202325000Y-88445000D01*
X202325000Y-89863000D02*
X202325000Y-92312000D01*
X202465000Y-86110000D02*
X202465000Y-88619000D01*
X202465000Y-89689000D02*
X202465000Y-92198000D01*
X202605000Y-86235000D02*
X202605000Y-88981000D01*
X202605000Y-89327000D02*
X202605000Y-92073000D01*
X202745000Y-86373000D02*
X202745000Y-91935000D01*
X202885000Y-86525000D02*
X202885000Y-91783000D01*
X203025000Y-86695000D02*
X203025000Y-91613000D01*
X203165000Y-86886000D02*
X203165000Y-91422000D01*
X203305000Y-87104000D02*
X203305000Y-91204000D01*
X203445000Y-87360000D02*
X203445000Y-90948000D01*
X203585000Y-87671000D02*
X203585000Y-90637000D01*
X203725000Y-88087000D02*
X203725000Y-90221000D01*
X203865000Y-88954000D02*
X203865000Y-89354000D01*
X202620000Y-89154000D02*
G75*
G03X202620000Y-89154000I-1000000J0D01*
G01*
X203907500Y-89154000D02*
G75*
G03X203907500Y-89154000I-4037500J0D01*
G01*
X238506000Y-143002000D02*
X238506000Y-92202000D01*
X238506000Y-92202000D02*
X213106000Y-92202000D01*
X213106000Y-92202000D02*
X213106000Y-143002000D01*
X213106000Y-143002000D02*
X238506000Y-143002000D01*
X206283000Y-131145000D02*
X206283000Y-141143000D01*
X206423000Y-131149000D02*
X206423000Y-141139000D01*
X206563000Y-131157000D02*
X206563000Y-141131000D01*
X206703000Y-131169000D02*
X206703000Y-141119000D01*
X206843000Y-131184000D02*
X206843000Y-141104000D01*
X206983000Y-131204000D02*
X206983000Y-141084000D01*
X207123000Y-131228000D02*
X207123000Y-141060000D01*
X207263000Y-131257000D02*
X207263000Y-141031000D01*
X207403000Y-131289000D02*
X207403000Y-140999000D01*
X207543000Y-131326000D02*
X207543000Y-140962000D01*
X207683000Y-131367000D02*
X207683000Y-140921000D01*
X207823000Y-131412000D02*
X207823000Y-135678000D01*
X207823000Y-136610000D02*
X207823000Y-140876000D01*
X207963000Y-131462000D02*
X207963000Y-135477000D01*
X207963000Y-136811000D02*
X207963000Y-140826000D01*
X208103000Y-131517000D02*
X208103000Y-135348000D01*
X208103000Y-136940000D02*
X208103000Y-140771000D01*
X208243000Y-131577000D02*
X208243000Y-135259000D01*
X208243000Y-137029000D02*
X208243000Y-140711000D01*
X208383000Y-131642000D02*
X208383000Y-135198000D01*
X208383000Y-137090000D02*
X208383000Y-140646000D01*
X208523000Y-131712000D02*
X208523000Y-135161000D01*
X208523000Y-137127000D02*
X208523000Y-140576000D01*
X208663000Y-131788000D02*
X208663000Y-135145000D01*
X208663000Y-137143000D02*
X208663000Y-140500000D01*
X208803000Y-131870000D02*
X208803000Y-135149000D01*
X208803000Y-137139000D02*
X208803000Y-140418000D01*
X208943000Y-131958000D02*
X208943000Y-135172000D01*
X208943000Y-137116000D02*
X208943000Y-140330000D01*
X209083000Y-132053000D02*
X209083000Y-135217000D01*
X209083000Y-137071000D02*
X209083000Y-140235000D01*
X209223000Y-132155000D02*
X209223000Y-135287000D01*
X209223000Y-137001000D02*
X209223000Y-140133000D01*
X209363000Y-132265000D02*
X209363000Y-135388000D01*
X209363000Y-136900000D02*
X209363000Y-140023000D01*
X209503000Y-132383000D02*
X209503000Y-135537000D01*
X209503000Y-136751000D02*
X209503000Y-139905000D01*
X209643000Y-132511000D02*
X209643000Y-135789000D01*
X209643000Y-136499000D02*
X209643000Y-139777000D01*
X209783000Y-132648000D02*
X209783000Y-139640000D01*
X209923000Y-132798000D02*
X209923000Y-139490000D01*
X210063000Y-132960000D02*
X210063000Y-139328000D01*
X210203000Y-133137000D02*
X210203000Y-139151000D01*
X210343000Y-133333000D02*
X210343000Y-138955000D01*
X210483000Y-133551000D02*
X210483000Y-138737000D01*
X210623000Y-133797000D02*
X210623000Y-138491000D01*
X210763000Y-134082000D02*
X210763000Y-138206000D01*
X210903000Y-134424000D02*
X210903000Y-137864000D01*
X211043000Y-134870000D02*
X211043000Y-137418000D01*
X211183000Y-135645000D02*
X211183000Y-136643000D01*
X209708000Y-136144000D02*
G75*
G03X209708000Y-136144000I-1000000J0D01*
G01*
X211245500Y-136144000D02*
G75*
G03X211245500Y-136144000I-5037500J0D01*
G01*
X138429540Y-122789806D02*
X138477159Y-122837425D01*
X138524778Y-122980282D01*
X138524778Y-123075520D01*
X138477159Y-123218378D01*
X138381921Y-123313616D01*
X138286683Y-123361235D01*
X138096207Y-123408854D01*
X137953349Y-123408854D01*
X137762873Y-123361235D01*
X137667635Y-123313616D01*
X137572397Y-123218378D01*
X137524778Y-123075520D01*
X137524778Y-122980282D01*
X137572397Y-122837425D01*
X137620016Y-122789806D01*
X137524778Y-122456473D02*
X137524778Y-121837425D01*
X137905730Y-122170759D01*
X137905730Y-122027901D01*
X137953349Y-121932663D01*
X138000968Y-121885044D01*
X138096207Y-121837425D01*
X138334302Y-121837425D01*
X138429540Y-121885044D01*
X138477159Y-121932663D01*
X138524778Y-122027901D01*
X138524778Y-122313616D01*
X138477159Y-122408854D01*
X138429540Y-122456473D01*
X137524778Y-121504092D02*
X137524778Y-120837425D01*
X138524778Y-121265997D01*
X106373943Y-129434857D02*
X106421562Y-129482476D01*
X106469181Y-129625333D01*
X106469181Y-129720571D01*
X106421562Y-129863429D01*
X106326324Y-129958667D01*
X106231086Y-130006286D01*
X106040610Y-130053905D01*
X105897752Y-130053905D01*
X105707276Y-130006286D01*
X105612038Y-129958667D01*
X105516800Y-129863429D01*
X105469181Y-129720571D01*
X105469181Y-129625333D01*
X105516800Y-129482476D01*
X105564419Y-129434857D01*
X105564419Y-129053905D02*
X105516800Y-129006286D01*
X105469181Y-128911048D01*
X105469181Y-128672952D01*
X105516800Y-128577714D01*
X105564419Y-128530095D01*
X105659657Y-128482476D01*
X105754895Y-128482476D01*
X105897752Y-128530095D01*
X106469181Y-129101524D01*
X106469181Y-128482476D01*
X105469181Y-127625333D02*
X105469181Y-127815810D01*
X105516800Y-127911048D01*
X105564419Y-127958667D01*
X105707276Y-128053905D01*
X105897752Y-128101524D01*
X106278705Y-128101524D01*
X106373943Y-128053905D01*
X106421562Y-128006286D01*
X106469181Y-127911048D01*
X106469181Y-127720571D01*
X106421562Y-127625333D01*
X106373943Y-127577714D01*
X106278705Y-127530095D01*
X106040610Y-127530095D01*
X105945371Y-127577714D01*
X105897752Y-127625333D01*
X105850133Y-127720571D01*
X105850133Y-127911048D01*
X105897752Y-128006286D01*
X105945371Y-128053905D01*
X106040610Y-128101524D01*
X92043543Y-116060457D02*
X92091162Y-116108076D01*
X92138781Y-116250933D01*
X92138781Y-116346171D01*
X92091162Y-116489029D01*
X91995924Y-116584267D01*
X91900686Y-116631886D01*
X91710210Y-116679505D01*
X91567352Y-116679505D01*
X91376876Y-116631886D01*
X91281638Y-116584267D01*
X91186400Y-116489029D01*
X91138781Y-116346171D01*
X91138781Y-116250933D01*
X91186400Y-116108076D01*
X91234019Y-116060457D01*
X91234019Y-115679505D02*
X91186400Y-115631886D01*
X91138781Y-115536648D01*
X91138781Y-115298552D01*
X91186400Y-115203314D01*
X91234019Y-115155695D01*
X91329257Y-115108076D01*
X91424495Y-115108076D01*
X91567352Y-115155695D01*
X92138781Y-115727124D01*
X92138781Y-115108076D01*
X91138781Y-114774743D02*
X91138781Y-114108076D01*
X92138781Y-114536648D01*
X97229943Y-116060457D02*
X97277562Y-116108076D01*
X97325181Y-116250933D01*
X97325181Y-116346171D01*
X97277562Y-116489029D01*
X97182324Y-116584267D01*
X97087086Y-116631886D01*
X96896610Y-116679505D01*
X96753752Y-116679505D01*
X96563276Y-116631886D01*
X96468038Y-116584267D01*
X96372800Y-116489029D01*
X96325181Y-116346171D01*
X96325181Y-116250933D01*
X96372800Y-116108076D01*
X96420419Y-116060457D01*
X96420419Y-115679505D02*
X96372800Y-115631886D01*
X96325181Y-115536648D01*
X96325181Y-115298552D01*
X96372800Y-115203314D01*
X96420419Y-115155695D01*
X96515657Y-115108076D01*
X96610895Y-115108076D01*
X96753752Y-115155695D01*
X97325181Y-115727124D01*
X97325181Y-115108076D01*
X96753752Y-114536648D02*
X96706133Y-114631886D01*
X96658514Y-114679505D01*
X96563276Y-114727124D01*
X96515657Y-114727124D01*
X96420419Y-114679505D01*
X96372800Y-114631886D01*
X96325181Y-114536648D01*
X96325181Y-114346171D01*
X96372800Y-114250933D01*
X96420419Y-114203314D01*
X96515657Y-114155695D01*
X96563276Y-114155695D01*
X96658514Y-114203314D01*
X96706133Y-114250933D01*
X96753752Y-114346171D01*
X96753752Y-114536648D01*
X96801371Y-114631886D01*
X96848990Y-114679505D01*
X96944229Y-114727124D01*
X97134705Y-114727124D01*
X97229943Y-114679505D01*
X97277562Y-114631886D01*
X97325181Y-114536648D01*
X97325181Y-114346171D01*
X97277562Y-114250933D01*
X97229943Y-114203314D01*
X97134705Y-114155695D01*
X96944229Y-114155695D01*
X96848990Y-114203314D01*
X96801371Y-114250933D01*
X96753752Y-114346171D01*
X157479540Y-135997806D02*
X157527159Y-136045425D01*
X157574778Y-136188282D01*
X157574778Y-136283520D01*
X157527159Y-136426378D01*
X157431921Y-136521616D01*
X157336683Y-136569235D01*
X157146207Y-136616854D01*
X157003349Y-136616854D01*
X156812873Y-136569235D01*
X156717635Y-136521616D01*
X156622397Y-136426378D01*
X156574778Y-136283520D01*
X156574778Y-136188282D01*
X156622397Y-136045425D01*
X156670016Y-135997806D01*
X156670016Y-135616854D02*
X156622397Y-135569235D01*
X156574778Y-135473997D01*
X156574778Y-135235901D01*
X156622397Y-135140663D01*
X156670016Y-135093044D01*
X156765254Y-135045425D01*
X156860492Y-135045425D01*
X157003349Y-135093044D01*
X157574778Y-135664473D01*
X157574778Y-135045425D01*
X157574778Y-134569235D02*
X157574778Y-134378759D01*
X157527159Y-134283520D01*
X157479540Y-134235901D01*
X157336683Y-134140663D01*
X157146207Y-134093044D01*
X156765254Y-134093044D01*
X156670016Y-134140663D01*
X156622397Y-134188282D01*
X156574778Y-134283520D01*
X156574778Y-134473997D01*
X156622397Y-134569235D01*
X156670016Y-134616854D01*
X156765254Y-134664473D01*
X157003349Y-134664473D01*
X157098587Y-134616854D01*
X157146207Y-134569235D01*
X157193826Y-134473997D01*
X157193826Y-134283520D01*
X157146207Y-134188282D01*
X157098587Y-134140663D01*
X157003349Y-134093044D01*
X151129540Y-135997806D02*
X151177159Y-136045425D01*
X151224778Y-136188282D01*
X151224778Y-136283520D01*
X151177159Y-136426378D01*
X151081921Y-136521616D01*
X150986683Y-136569235D01*
X150796207Y-136616854D01*
X150653349Y-136616854D01*
X150462873Y-136569235D01*
X150367635Y-136521616D01*
X150272397Y-136426378D01*
X150224778Y-136283520D01*
X150224778Y-136188282D01*
X150272397Y-136045425D01*
X150320016Y-135997806D01*
X150224778Y-135664473D02*
X150224778Y-135045425D01*
X150605730Y-135378759D01*
X150605730Y-135235901D01*
X150653349Y-135140663D01*
X150700968Y-135093044D01*
X150796207Y-135045425D01*
X151034302Y-135045425D01*
X151129540Y-135093044D01*
X151177159Y-135140663D01*
X151224778Y-135235901D01*
X151224778Y-135521616D01*
X151177159Y-135616854D01*
X151129540Y-135664473D01*
X150224778Y-134426378D02*
X150224778Y-134331139D01*
X150272397Y-134235901D01*
X150320016Y-134188282D01*
X150415254Y-134140663D01*
X150605730Y-134093044D01*
X150843826Y-134093044D01*
X151034302Y-134140663D01*
X151129540Y-134188282D01*
X151177159Y-134235901D01*
X151224778Y-134331139D01*
X151224778Y-134426378D01*
X151177159Y-134521616D01*
X151129540Y-134569235D01*
X151034302Y-134616854D01*
X150843826Y-134664473D01*
X150605730Y-134664473D01*
X150415254Y-134616854D01*
X150320016Y-134569235D01*
X150272397Y-134521616D01*
X150224778Y-134426378D01*
X144779540Y-135997806D02*
X144827159Y-136045425D01*
X144874778Y-136188282D01*
X144874778Y-136283520D01*
X144827159Y-136426378D01*
X144731921Y-136521616D01*
X144636683Y-136569235D01*
X144446207Y-136616854D01*
X144303349Y-136616854D01*
X144112873Y-136569235D01*
X144017635Y-136521616D01*
X143922397Y-136426378D01*
X143874778Y-136283520D01*
X143874778Y-136188282D01*
X143922397Y-136045425D01*
X143970016Y-135997806D01*
X143874778Y-135664473D02*
X143874778Y-135045425D01*
X144255730Y-135378759D01*
X144255730Y-135235901D01*
X144303349Y-135140663D01*
X144350968Y-135093044D01*
X144446207Y-135045425D01*
X144684302Y-135045425D01*
X144779540Y-135093044D01*
X144827159Y-135140663D01*
X144874778Y-135235901D01*
X144874778Y-135521616D01*
X144827159Y-135616854D01*
X144779540Y-135664473D01*
X144874778Y-134093044D02*
X144874778Y-134664473D01*
X144874778Y-134378759D02*
X143874778Y-134378759D01*
X144017635Y-134473997D01*
X144112873Y-134569235D01*
X144160492Y-134664473D01*
X138378740Y-135997806D02*
X138426359Y-136045425D01*
X138473978Y-136188282D01*
X138473978Y-136283520D01*
X138426359Y-136426378D01*
X138331121Y-136521616D01*
X138235883Y-136569235D01*
X138045407Y-136616854D01*
X137902549Y-136616854D01*
X137712073Y-136569235D01*
X137616835Y-136521616D01*
X137521597Y-136426378D01*
X137473978Y-136283520D01*
X137473978Y-136188282D01*
X137521597Y-136045425D01*
X137569216Y-135997806D01*
X137473978Y-135664473D02*
X137473978Y-135045425D01*
X137854930Y-135378759D01*
X137854930Y-135235901D01*
X137902549Y-135140663D01*
X137950168Y-135093044D01*
X138045407Y-135045425D01*
X138283502Y-135045425D01*
X138378740Y-135093044D01*
X138426359Y-135140663D01*
X138473978Y-135235901D01*
X138473978Y-135521616D01*
X138426359Y-135616854D01*
X138378740Y-135664473D01*
X137569216Y-134664473D02*
X137521597Y-134616854D01*
X137473978Y-134521616D01*
X137473978Y-134283520D01*
X137521597Y-134188282D01*
X137569216Y-134140663D01*
X137664454Y-134093044D01*
X137759692Y-134093044D01*
X137902549Y-134140663D01*
X138473978Y-134712092D01*
X138473978Y-134093044D01*
X132183143Y-136024857D02*
X132230762Y-136072476D01*
X132278381Y-136215333D01*
X132278381Y-136310571D01*
X132230762Y-136453429D01*
X132135524Y-136548667D01*
X132040286Y-136596286D01*
X131849810Y-136643905D01*
X131706952Y-136643905D01*
X131516476Y-136596286D01*
X131421238Y-136548667D01*
X131326000Y-136453429D01*
X131278381Y-136310571D01*
X131278381Y-136215333D01*
X131326000Y-136072476D01*
X131373619Y-136024857D01*
X131278381Y-135691524D02*
X131278381Y-135072476D01*
X131659333Y-135405810D01*
X131659333Y-135262952D01*
X131706952Y-135167714D01*
X131754571Y-135120095D01*
X131849810Y-135072476D01*
X132087905Y-135072476D01*
X132183143Y-135120095D01*
X132230762Y-135167714D01*
X132278381Y-135262952D01*
X132278381Y-135548667D01*
X132230762Y-135643905D01*
X132183143Y-135691524D01*
X131278381Y-134739143D02*
X131278381Y-134120095D01*
X131659333Y-134453429D01*
X131659333Y-134310571D01*
X131706952Y-134215333D01*
X131754571Y-134167714D01*
X131849810Y-134120095D01*
X132087905Y-134120095D01*
X132183143Y-134167714D01*
X132230762Y-134215333D01*
X132278381Y-134310571D01*
X132278381Y-134596286D01*
X132230762Y-134691524D01*
X132183143Y-134739143D01*
X157479540Y-122789806D02*
X157527159Y-122837425D01*
X157574778Y-122980282D01*
X157574778Y-123075520D01*
X157527159Y-123218378D01*
X157431921Y-123313616D01*
X157336683Y-123361235D01*
X157146207Y-123408854D01*
X157003349Y-123408854D01*
X156812873Y-123361235D01*
X156717635Y-123313616D01*
X156622397Y-123218378D01*
X156574778Y-123075520D01*
X156574778Y-122980282D01*
X156622397Y-122837425D01*
X156670016Y-122789806D01*
X156574778Y-122456473D02*
X156574778Y-121837425D01*
X156955730Y-122170759D01*
X156955730Y-122027901D01*
X157003349Y-121932663D01*
X157050968Y-121885044D01*
X157146207Y-121837425D01*
X157384302Y-121837425D01*
X157479540Y-121885044D01*
X157527159Y-121932663D01*
X157574778Y-122027901D01*
X157574778Y-122313616D01*
X157527159Y-122408854D01*
X157479540Y-122456473D01*
X156908111Y-120980282D02*
X157574778Y-120980282D01*
X156527159Y-121218378D02*
X157241445Y-121456473D01*
X157241445Y-120837425D01*
X151129540Y-122789806D02*
X151177159Y-122837425D01*
X151224778Y-122980282D01*
X151224778Y-123075520D01*
X151177159Y-123218378D01*
X151081921Y-123313616D01*
X150986683Y-123361235D01*
X150796207Y-123408854D01*
X150653349Y-123408854D01*
X150462873Y-123361235D01*
X150367635Y-123313616D01*
X150272397Y-123218378D01*
X150224778Y-123075520D01*
X150224778Y-122980282D01*
X150272397Y-122837425D01*
X150320016Y-122789806D01*
X150224778Y-122456473D02*
X150224778Y-121837425D01*
X150605730Y-122170759D01*
X150605730Y-122027901D01*
X150653349Y-121932663D01*
X150700968Y-121885044D01*
X150796207Y-121837425D01*
X151034302Y-121837425D01*
X151129540Y-121885044D01*
X151177159Y-121932663D01*
X151224778Y-122027901D01*
X151224778Y-122313616D01*
X151177159Y-122408854D01*
X151129540Y-122456473D01*
X150224778Y-120932663D02*
X150224778Y-121408854D01*
X150700968Y-121456473D01*
X150653349Y-121408854D01*
X150605730Y-121313616D01*
X150605730Y-121075520D01*
X150653349Y-120980282D01*
X150700968Y-120932663D01*
X150796207Y-120885044D01*
X151034302Y-120885044D01*
X151129540Y-120932663D01*
X151177159Y-120980282D01*
X151224778Y-121075520D01*
X151224778Y-121313616D01*
X151177159Y-121408854D01*
X151129540Y-121456473D01*
X144779540Y-122789806D02*
X144827159Y-122837425D01*
X144874778Y-122980282D01*
X144874778Y-123075520D01*
X144827159Y-123218378D01*
X144731921Y-123313616D01*
X144636683Y-123361235D01*
X144446207Y-123408854D01*
X144303349Y-123408854D01*
X144112873Y-123361235D01*
X144017635Y-123313616D01*
X143922397Y-123218378D01*
X143874778Y-123075520D01*
X143874778Y-122980282D01*
X143922397Y-122837425D01*
X143970016Y-122789806D01*
X143874778Y-122456473D02*
X143874778Y-121837425D01*
X144255730Y-122170759D01*
X144255730Y-122027901D01*
X144303349Y-121932663D01*
X144350968Y-121885044D01*
X144446207Y-121837425D01*
X144684302Y-121837425D01*
X144779540Y-121885044D01*
X144827159Y-121932663D01*
X144874778Y-122027901D01*
X144874778Y-122313616D01*
X144827159Y-122408854D01*
X144779540Y-122456473D01*
X143874778Y-120980282D02*
X143874778Y-121170759D01*
X143922397Y-121265997D01*
X143970016Y-121313616D01*
X144112873Y-121408854D01*
X144303349Y-121456473D01*
X144684302Y-121456473D01*
X144779540Y-121408854D01*
X144827159Y-121361235D01*
X144874778Y-121265997D01*
X144874778Y-121075520D01*
X144827159Y-120980282D01*
X144779540Y-120932663D01*
X144684302Y-120885044D01*
X144446207Y-120885044D01*
X144350968Y-120932663D01*
X144303349Y-120980282D01*
X144255730Y-121075520D01*
X144255730Y-121265997D01*
X144303349Y-121361235D01*
X144350968Y-121408854D01*
X144446207Y-121456473D01*
X132183143Y-122816857D02*
X132230762Y-122864476D01*
X132278381Y-123007333D01*
X132278381Y-123102571D01*
X132230762Y-123245429D01*
X132135524Y-123340667D01*
X132040286Y-123388286D01*
X131849810Y-123435905D01*
X131706952Y-123435905D01*
X131516476Y-123388286D01*
X131421238Y-123340667D01*
X131326000Y-123245429D01*
X131278381Y-123102571D01*
X131278381Y-123007333D01*
X131326000Y-122864476D01*
X131373619Y-122816857D01*
X131278381Y-122483524D02*
X131278381Y-121864476D01*
X131659333Y-122197810D01*
X131659333Y-122054952D01*
X131706952Y-121959714D01*
X131754571Y-121912095D01*
X131849810Y-121864476D01*
X132087905Y-121864476D01*
X132183143Y-121912095D01*
X132230762Y-121959714D01*
X132278381Y-122054952D01*
X132278381Y-122340667D01*
X132230762Y-122435905D01*
X132183143Y-122483524D01*
X131706952Y-121293048D02*
X131659333Y-121388286D01*
X131611714Y-121435905D01*
X131516476Y-121483524D01*
X131468857Y-121483524D01*
X131373619Y-121435905D01*
X131326000Y-121388286D01*
X131278381Y-121293048D01*
X131278381Y-121102571D01*
X131326000Y-121007333D01*
X131373619Y-120959714D01*
X131468857Y-120912095D01*
X131516476Y-120912095D01*
X131611714Y-120959714D01*
X131659333Y-121007333D01*
X131706952Y-121102571D01*
X131706952Y-121293048D01*
X131754571Y-121388286D01*
X131802190Y-121435905D01*
X131897429Y-121483524D01*
X132087905Y-121483524D01*
X132183143Y-121435905D01*
X132230762Y-121388286D01*
X132278381Y-121293048D01*
X132278381Y-121102571D01*
X132230762Y-121007333D01*
X132183143Y-120959714D01*
X132087905Y-120912095D01*
X131897429Y-120912095D01*
X131802190Y-120959714D01*
X131754571Y-121007333D01*
X131706952Y-121102571D01*
X123628343Y-96400857D02*
X123675962Y-96448476D01*
X123723581Y-96591333D01*
X123723581Y-96686571D01*
X123675962Y-96829429D01*
X123580724Y-96924667D01*
X123485486Y-96972286D01*
X123295010Y-97019905D01*
X123152152Y-97019905D01*
X122961676Y-96972286D01*
X122866438Y-96924667D01*
X122771200Y-96829429D01*
X122723581Y-96686571D01*
X122723581Y-96591333D01*
X122771200Y-96448476D01*
X122818819Y-96400857D01*
X122723581Y-96067524D02*
X122723581Y-95448476D01*
X123104533Y-95781810D01*
X123104533Y-95638952D01*
X123152152Y-95543714D01*
X123199771Y-95496095D01*
X123295010Y-95448476D01*
X123533105Y-95448476D01*
X123628343Y-95496095D01*
X123675962Y-95543714D01*
X123723581Y-95638952D01*
X123723581Y-95924667D01*
X123675962Y-96019905D01*
X123628343Y-96067524D01*
X123723581Y-94972286D02*
X123723581Y-94781810D01*
X123675962Y-94686571D01*
X123628343Y-94638952D01*
X123485486Y-94543714D01*
X123295010Y-94496095D01*
X122914057Y-94496095D01*
X122818819Y-94543714D01*
X122771200Y-94591333D01*
X122723581Y-94686571D01*
X122723581Y-94877048D01*
X122771200Y-94972286D01*
X122818819Y-95019905D01*
X122914057Y-95067524D01*
X123152152Y-95067524D01*
X123247390Y-95019905D01*
X123295010Y-94972286D01*
X123342629Y-94877048D01*
X123342629Y-94686571D01*
X123295010Y-94591333D01*
X123247390Y-94543714D01*
X123152152Y-94496095D01*
X119818343Y-96400857D02*
X119865962Y-96448476D01*
X119913581Y-96591333D01*
X119913581Y-96686571D01*
X119865962Y-96829429D01*
X119770724Y-96924667D01*
X119675486Y-96972286D01*
X119485010Y-97019905D01*
X119342152Y-97019905D01*
X119151676Y-96972286D01*
X119056438Y-96924667D01*
X118961200Y-96829429D01*
X118913581Y-96686571D01*
X118913581Y-96591333D01*
X118961200Y-96448476D01*
X119008819Y-96400857D01*
X119246914Y-95543714D02*
X119913581Y-95543714D01*
X118865962Y-95781810D02*
X119580248Y-96019905D01*
X119580248Y-95400857D01*
X118913581Y-94829429D02*
X118913581Y-94734190D01*
X118961200Y-94638952D01*
X119008819Y-94591333D01*
X119104057Y-94543714D01*
X119294533Y-94496095D01*
X119532629Y-94496095D01*
X119723105Y-94543714D01*
X119818343Y-94591333D01*
X119865962Y-94638952D01*
X119913581Y-94734190D01*
X119913581Y-94829429D01*
X119865962Y-94924667D01*
X119818343Y-94972286D01*
X119723105Y-95019905D01*
X119532629Y-95067524D01*
X119294533Y-95067524D01*
X119104057Y-95019905D01*
X119008819Y-94972286D01*
X118961200Y-94924667D01*
X118913581Y-94829429D01*
X116719543Y-93110857D02*
X116767162Y-93158476D01*
X116814781Y-93301333D01*
X116814781Y-93396571D01*
X116767162Y-93539429D01*
X116671924Y-93634667D01*
X116576686Y-93682286D01*
X116386210Y-93729905D01*
X116243352Y-93729905D01*
X116052876Y-93682286D01*
X115957638Y-93634667D01*
X115862400Y-93539429D01*
X115814781Y-93396571D01*
X115814781Y-93301333D01*
X115862400Y-93158476D01*
X115910019Y-93110857D01*
X116148114Y-92253714D02*
X116814781Y-92253714D01*
X115767162Y-92491810D02*
X116481448Y-92729905D01*
X116481448Y-92110857D01*
X116814781Y-91206095D02*
X116814781Y-91777524D01*
X116814781Y-91491810D02*
X115814781Y-91491810D01*
X115957638Y-91587048D01*
X116052876Y-91682286D01*
X116100495Y-91777524D01*
X112523543Y-140038057D02*
X112571162Y-140085676D01*
X112618781Y-140228533D01*
X112618781Y-140323771D01*
X112571162Y-140466629D01*
X112475924Y-140561867D01*
X112380686Y-140609486D01*
X112190210Y-140657105D01*
X112047352Y-140657105D01*
X111856876Y-140609486D01*
X111761638Y-140561867D01*
X111666400Y-140466629D01*
X111618781Y-140323771D01*
X111618781Y-140228533D01*
X111666400Y-140085676D01*
X111714019Y-140038057D01*
X111952114Y-139180914D02*
X112618781Y-139180914D01*
X111571162Y-139419010D02*
X112285448Y-139657105D01*
X112285448Y-139038057D01*
X111714019Y-138704724D02*
X111666400Y-138657105D01*
X111618781Y-138561867D01*
X111618781Y-138323771D01*
X111666400Y-138228533D01*
X111714019Y-138180914D01*
X111809257Y-138133295D01*
X111904495Y-138133295D01*
X112047352Y-138180914D01*
X112618781Y-138752343D01*
X112618781Y-138133295D01*
X112665143Y-133586457D02*
X112712762Y-133634076D01*
X112760381Y-133776933D01*
X112760381Y-133872171D01*
X112712762Y-134015029D01*
X112617524Y-134110267D01*
X112522286Y-134157886D01*
X112331810Y-134205505D01*
X112188952Y-134205505D01*
X111998476Y-134157886D01*
X111903238Y-134110267D01*
X111808000Y-134015029D01*
X111760381Y-133872171D01*
X111760381Y-133776933D01*
X111808000Y-133634076D01*
X111855619Y-133586457D01*
X112093714Y-132729314D02*
X112760381Y-132729314D01*
X111712762Y-132967410D02*
X112427048Y-133205505D01*
X112427048Y-132586457D01*
X111760381Y-132300743D02*
X111760381Y-131681695D01*
X112141333Y-132015029D01*
X112141333Y-131872171D01*
X112188952Y-131776933D01*
X112236571Y-131729314D01*
X112331810Y-131681695D01*
X112569905Y-131681695D01*
X112665143Y-131729314D01*
X112712762Y-131776933D01*
X112760381Y-131872171D01*
X112760381Y-132157886D01*
X112712762Y-132253124D01*
X112665143Y-132300743D01*
X106884743Y-136888457D02*
X106932362Y-136936076D01*
X106979981Y-137078933D01*
X106979981Y-137174171D01*
X106932362Y-137317029D01*
X106837124Y-137412267D01*
X106741886Y-137459886D01*
X106551410Y-137507505D01*
X106408552Y-137507505D01*
X106218076Y-137459886D01*
X106122838Y-137412267D01*
X106027600Y-137317029D01*
X105979981Y-137174171D01*
X105979981Y-137078933D01*
X106027600Y-136936076D01*
X106075219Y-136888457D01*
X106313314Y-136031314D02*
X106979981Y-136031314D01*
X105932362Y-136269410D02*
X106646648Y-136507505D01*
X106646648Y-135888457D01*
X106313314Y-135078933D02*
X106979981Y-135078933D01*
X105932362Y-135317029D02*
X106646648Y-135555124D01*
X106646648Y-134936076D01*
X163682667Y-62372381D02*
X163682667Y-63086667D01*
X163635047Y-63229524D01*
X163539809Y-63324762D01*
X163396952Y-63372381D01*
X163301714Y-63372381D01*
X164682667Y-63372381D02*
X164111238Y-63372381D01*
X164396952Y-63372381D02*
X164396952Y-62372381D01*
X164301714Y-62515238D01*
X164206476Y-62610476D01*
X164111238Y-62658095D01*
X110400667Y-58380381D02*
X110400667Y-59094667D01*
X110353047Y-59237524D01*
X110257809Y-59332762D01*
X110114952Y-59380381D01*
X110019714Y-59380381D01*
X110829238Y-58475619D02*
X110876857Y-58428000D01*
X110972095Y-58380381D01*
X111210191Y-58380381D01*
X111305429Y-58428000D01*
X111353048Y-58475619D01*
X111400667Y-58570857D01*
X111400667Y-58666095D01*
X111353048Y-58808952D01*
X110781619Y-59380381D01*
X111400667Y-59380381D01*
X76922381Y-80343333D02*
X77636667Y-80343333D01*
X77779524Y-80390953D01*
X77874762Y-80486191D01*
X77922381Y-80629048D01*
X77922381Y-80724286D01*
X76922381Y-79390952D02*
X76922381Y-79867143D01*
X77398571Y-79914762D01*
X77350952Y-79867143D01*
X77303333Y-79771905D01*
X77303333Y-79533809D01*
X77350952Y-79438571D01*
X77398571Y-79390952D01*
X77493810Y-79343333D01*
X77731905Y-79343333D01*
X77827143Y-79390952D01*
X77874762Y-79438571D01*
X77922381Y-79533809D01*
X77922381Y-79771905D01*
X77874762Y-79867143D01*
X77827143Y-79914762D01*
X79462381Y-115903333D02*
X80176667Y-115903333D01*
X80319524Y-115950953D01*
X80414762Y-116046191D01*
X80462381Y-116189048D01*
X80462381Y-116284286D01*
X80462381Y-115379524D02*
X80462381Y-115189048D01*
X80414762Y-115093809D01*
X80367143Y-115046190D01*
X80224286Y-114950952D01*
X80033810Y-114903333D01*
X79652857Y-114903333D01*
X79557619Y-114950952D01*
X79510000Y-114998571D01*
X79462381Y-115093809D01*
X79462381Y-115284286D01*
X79510000Y-115379524D01*
X79557619Y-115427143D01*
X79652857Y-115474762D01*
X79890952Y-115474762D01*
X79986190Y-115427143D01*
X80033810Y-115379524D01*
X80081429Y-115284286D01*
X80081429Y-115093809D01*
X80033810Y-114998571D01*
X79986190Y-114950952D01*
X79890952Y-114903333D01*
X185040381Y-55419523D02*
X185754667Y-55419523D01*
X185897524Y-55467143D01*
X185992762Y-55562381D01*
X186040381Y-55705238D01*
X186040381Y-55800476D01*
X186040381Y-54419523D02*
X186040381Y-54990952D01*
X186040381Y-54705238D02*
X185040381Y-54705238D01*
X185183238Y-54800476D01*
X185278476Y-54895714D01*
X185326095Y-54990952D01*
X185040381Y-53800476D02*
X185040381Y-53705237D01*
X185088000Y-53609999D01*
X185135619Y-53562380D01*
X185230857Y-53514761D01*
X185421333Y-53467142D01*
X185659429Y-53467142D01*
X185849905Y-53514761D01*
X185945143Y-53562380D01*
X185992762Y-53609999D01*
X186040381Y-53705237D01*
X186040381Y-53800476D01*
X185992762Y-53895714D01*
X185945143Y-53943333D01*
X185849905Y-53990952D01*
X185659429Y-54038571D01*
X185421333Y-54038571D01*
X185230857Y-53990952D01*
X185135619Y-53943333D01*
X185088000Y-53895714D01*
X185040381Y-53800476D01*
X141994477Y-62310381D02*
X141994477Y-63024667D01*
X141946857Y-63167524D01*
X141851619Y-63262762D01*
X141708762Y-63310381D01*
X141613524Y-63310381D01*
X142994477Y-63310381D02*
X142423048Y-63310381D01*
X142708762Y-63310381D02*
X142708762Y-62310381D01*
X142613524Y-62453238D01*
X142518286Y-62548476D01*
X142423048Y-62596095D01*
X143565905Y-62738952D02*
X143470667Y-62691333D01*
X143423048Y-62643714D01*
X143375429Y-62548476D01*
X143375429Y-62500857D01*
X143423048Y-62405619D01*
X143470667Y-62358000D01*
X143565905Y-62310381D01*
X143756382Y-62310381D01*
X143851620Y-62358000D01*
X143899239Y-62405619D01*
X143946858Y-62500857D01*
X143946858Y-62548476D01*
X143899239Y-62643714D01*
X143851620Y-62691333D01*
X143756382Y-62738952D01*
X143565905Y-62738952D01*
X143470667Y-62786571D01*
X143423048Y-62834190D01*
X143375429Y-62929429D01*
X143375429Y-63119905D01*
X143423048Y-63215143D01*
X143470667Y-63262762D01*
X143565905Y-63310381D01*
X143756382Y-63310381D01*
X143851620Y-63262762D01*
X143899239Y-63215143D01*
X143946858Y-63119905D01*
X143946858Y-62929429D01*
X143899239Y-62834190D01*
X143851620Y-62786571D01*
X143756382Y-62738952D01*
X114747562Y-99358019D02*
X114652324Y-99310400D01*
X114557086Y-99215162D01*
X114414229Y-99072305D01*
X114318990Y-99024686D01*
X114223752Y-99024686D01*
X114271371Y-99262781D02*
X114176133Y-99215162D01*
X114080895Y-99119924D01*
X114033276Y-98929448D01*
X114033276Y-98596114D01*
X114080895Y-98405638D01*
X114176133Y-98310400D01*
X114271371Y-98262781D01*
X114461848Y-98262781D01*
X114557086Y-98310400D01*
X114652324Y-98405638D01*
X114699943Y-98596114D01*
X114699943Y-98929448D01*
X114652324Y-99119924D01*
X114557086Y-99215162D01*
X114461848Y-99262781D01*
X114271371Y-99262781D01*
X115033276Y-98262781D02*
X115652324Y-98262781D01*
X115318990Y-98643733D01*
X115461848Y-98643733D01*
X115557086Y-98691352D01*
X115604705Y-98738971D01*
X115652324Y-98834210D01*
X115652324Y-99072305D01*
X115604705Y-99167543D01*
X115557086Y-99215162D01*
X115461848Y-99262781D01*
X115176133Y-99262781D01*
X115080895Y-99215162D01*
X115033276Y-99167543D01*
X109581962Y-99190419D02*
X109486724Y-99142800D01*
X109391486Y-99047562D01*
X109248629Y-98904705D01*
X109153390Y-98857086D01*
X109058152Y-98857086D01*
X109105771Y-99095181D02*
X109010533Y-99047562D01*
X108915295Y-98952324D01*
X108867676Y-98761848D01*
X108867676Y-98428514D01*
X108915295Y-98238038D01*
X109010533Y-98142800D01*
X109105771Y-98095181D01*
X109296248Y-98095181D01*
X109391486Y-98142800D01*
X109486724Y-98238038D01*
X109534343Y-98428514D01*
X109534343Y-98761848D01*
X109486724Y-98952324D01*
X109391486Y-99047562D01*
X109296248Y-99095181D01*
X109105771Y-99095181D01*
X110391486Y-98428514D02*
X110391486Y-99095181D01*
X110153390Y-98047562D02*
X109915295Y-98761848D01*
X110534343Y-98761848D01*
X122180362Y-134039219D02*
X122085124Y-133991600D01*
X121989886Y-133896362D01*
X121847029Y-133753505D01*
X121751790Y-133705886D01*
X121656552Y-133705886D01*
X121704171Y-133943981D02*
X121608933Y-133896362D01*
X121513695Y-133801124D01*
X121466076Y-133610648D01*
X121466076Y-133277314D01*
X121513695Y-133086838D01*
X121608933Y-132991600D01*
X121704171Y-132943981D01*
X121894648Y-132943981D01*
X121989886Y-132991600D01*
X122085124Y-133086838D01*
X122132743Y-133277314D01*
X122132743Y-133610648D01*
X122085124Y-133801124D01*
X121989886Y-133896362D01*
X121894648Y-133943981D01*
X121704171Y-133943981D01*
X123037505Y-132943981D02*
X122561314Y-132943981D01*
X122513695Y-133420171D01*
X122561314Y-133372552D01*
X122656552Y-133324933D01*
X122894648Y-133324933D01*
X122989886Y-133372552D01*
X123037505Y-133420171D01*
X123085124Y-133515410D01*
X123085124Y-133753505D01*
X123037505Y-133848743D01*
X122989886Y-133896362D01*
X122894648Y-133943981D01*
X122656552Y-133943981D01*
X122561314Y-133896362D01*
X122513695Y-133848743D01*
X109905981Y-92622666D02*
X109429790Y-92956000D01*
X109905981Y-93194095D02*
X108905981Y-93194095D01*
X108905981Y-92813142D01*
X108953600Y-92717904D01*
X109001219Y-92670285D01*
X109096457Y-92622666D01*
X109239314Y-92622666D01*
X109334552Y-92670285D01*
X109382171Y-92717904D01*
X109429790Y-92813142D01*
X109429790Y-93194095D01*
X109905981Y-91670285D02*
X109905981Y-92241714D01*
X109905981Y-91956000D02*
X108905981Y-91956000D01*
X109048838Y-92051238D01*
X109144076Y-92146476D01*
X109191695Y-92241714D01*
X109905981Y-96229466D02*
X109429790Y-96562800D01*
X109905981Y-96800895D02*
X108905981Y-96800895D01*
X108905981Y-96419942D01*
X108953600Y-96324704D01*
X109001219Y-96277085D01*
X109096457Y-96229466D01*
X109239314Y-96229466D01*
X109334552Y-96277085D01*
X109382171Y-96324704D01*
X109429790Y-96419942D01*
X109429790Y-96800895D01*
X109001219Y-95848514D02*
X108953600Y-95800895D01*
X108905981Y-95705657D01*
X108905981Y-95467561D01*
X108953600Y-95372323D01*
X109001219Y-95324704D01*
X109096457Y-95277085D01*
X109191695Y-95277085D01*
X109334552Y-95324704D01*
X109905981Y-95896133D01*
X109905981Y-95277085D01*
X106970534Y-119222781D02*
X106637200Y-118746590D01*
X106399105Y-119222781D02*
X106399105Y-118222781D01*
X106780058Y-118222781D01*
X106875296Y-118270400D01*
X106922915Y-118318019D01*
X106970534Y-118413257D01*
X106970534Y-118556114D01*
X106922915Y-118651352D01*
X106875296Y-118698971D01*
X106780058Y-118746590D01*
X106399105Y-118746590D01*
X107827677Y-118222781D02*
X107637200Y-118222781D01*
X107541962Y-118270400D01*
X107494343Y-118318019D01*
X107399105Y-118460876D01*
X107351486Y-118651352D01*
X107351486Y-119032305D01*
X107399105Y-119127543D01*
X107446724Y-119175162D01*
X107541962Y-119222781D01*
X107732439Y-119222781D01*
X107827677Y-119175162D01*
X107875296Y-119127543D01*
X107922915Y-119032305D01*
X107922915Y-118794210D01*
X107875296Y-118698971D01*
X107827677Y-118651352D01*
X107732439Y-118603733D01*
X107541962Y-118603733D01*
X107446724Y-118651352D01*
X107399105Y-118698971D01*
X107351486Y-118794210D01*
X162474778Y-128409615D02*
X161998587Y-128742949D01*
X162474778Y-128981044D02*
X161474778Y-128981044D01*
X161474778Y-128600091D01*
X161522397Y-128504853D01*
X161570016Y-128457234D01*
X161665254Y-128409615D01*
X161808111Y-128409615D01*
X161903349Y-128457234D01*
X161950968Y-128504853D01*
X161998587Y-128600091D01*
X161998587Y-128981044D01*
X161474778Y-128076282D02*
X161474778Y-127409615D01*
X162474778Y-127838187D01*
X156378778Y-128409615D02*
X155902587Y-128742949D01*
X156378778Y-128981044D02*
X155378778Y-128981044D01*
X155378778Y-128600091D01*
X155426397Y-128504853D01*
X155474016Y-128457234D01*
X155569254Y-128409615D01*
X155712111Y-128409615D01*
X155807349Y-128457234D01*
X155854968Y-128504853D01*
X155902587Y-128600091D01*
X155902587Y-128981044D01*
X155807349Y-127838187D02*
X155759730Y-127933425D01*
X155712111Y-127981044D01*
X155616873Y-128028663D01*
X155569254Y-128028663D01*
X155474016Y-127981044D01*
X155426397Y-127933425D01*
X155378778Y-127838187D01*
X155378778Y-127647710D01*
X155426397Y-127552472D01*
X155474016Y-127504853D01*
X155569254Y-127457234D01*
X155616873Y-127457234D01*
X155712111Y-127504853D01*
X155759730Y-127552472D01*
X155807349Y-127647710D01*
X155807349Y-127838187D01*
X155854968Y-127933425D01*
X155902587Y-127981044D01*
X155997826Y-128028663D01*
X156188302Y-128028663D01*
X156283540Y-127981044D01*
X156331159Y-127933425D01*
X156378778Y-127838187D01*
X156378778Y-127647710D01*
X156331159Y-127552472D01*
X156283540Y-127504853D01*
X156188302Y-127457234D01*
X155997826Y-127457234D01*
X155902587Y-127504853D01*
X155854968Y-127552472D01*
X155807349Y-127647710D01*
X149774778Y-128409615D02*
X149298587Y-128742949D01*
X149774778Y-128981044D02*
X148774778Y-128981044D01*
X148774778Y-128600091D01*
X148822397Y-128504853D01*
X148870016Y-128457234D01*
X148965254Y-128409615D01*
X149108111Y-128409615D01*
X149203349Y-128457234D01*
X149250968Y-128504853D01*
X149298587Y-128600091D01*
X149298587Y-128981044D01*
X149774778Y-127933425D02*
X149774778Y-127742949D01*
X149727159Y-127647710D01*
X149679540Y-127600091D01*
X149536683Y-127504853D01*
X149346207Y-127457234D01*
X148965254Y-127457234D01*
X148870016Y-127504853D01*
X148822397Y-127552472D01*
X148774778Y-127647710D01*
X148774778Y-127838187D01*
X148822397Y-127933425D01*
X148870016Y-127981044D01*
X148965254Y-128028663D01*
X149203349Y-128028663D01*
X149298587Y-127981044D01*
X149346207Y-127933425D01*
X149393826Y-127838187D01*
X149393826Y-127647710D01*
X149346207Y-127552472D01*
X149298587Y-127504853D01*
X149203349Y-127457234D01*
X143678778Y-128885806D02*
X143202587Y-129219140D01*
X143678778Y-129457235D02*
X142678778Y-129457235D01*
X142678778Y-129076282D01*
X142726397Y-128981044D01*
X142774016Y-128933425D01*
X142869254Y-128885806D01*
X143012111Y-128885806D01*
X143107349Y-128933425D01*
X143154968Y-128981044D01*
X143202587Y-129076282D01*
X143202587Y-129457235D01*
X143678778Y-127933425D02*
X143678778Y-128504854D01*
X143678778Y-128219140D02*
X142678778Y-128219140D01*
X142821635Y-128314378D01*
X142916873Y-128409616D01*
X142964492Y-128504854D01*
X142678778Y-127314378D02*
X142678778Y-127219139D01*
X142726397Y-127123901D01*
X142774016Y-127076282D01*
X142869254Y-127028663D01*
X143059730Y-126981044D01*
X143297826Y-126981044D01*
X143488302Y-127028663D01*
X143583540Y-127076282D01*
X143631159Y-127123901D01*
X143678778Y-127219139D01*
X143678778Y-127314378D01*
X143631159Y-127409616D01*
X143583540Y-127457235D01*
X143488302Y-127504854D01*
X143297826Y-127552473D01*
X143059730Y-127552473D01*
X142869254Y-127504854D01*
X142774016Y-127457235D01*
X142726397Y-127409616D01*
X142678778Y-127314378D01*
X137074778Y-128885806D02*
X136598587Y-129219140D01*
X137074778Y-129457235D02*
X136074778Y-129457235D01*
X136074778Y-129076282D01*
X136122397Y-128981044D01*
X136170016Y-128933425D01*
X136265254Y-128885806D01*
X136408111Y-128885806D01*
X136503349Y-128933425D01*
X136550968Y-128981044D01*
X136598587Y-129076282D01*
X136598587Y-129457235D01*
X137074778Y-127933425D02*
X137074778Y-128504854D01*
X137074778Y-128219140D02*
X136074778Y-128219140D01*
X136217635Y-128314378D01*
X136312873Y-128409616D01*
X136360492Y-128504854D01*
X137074778Y-126981044D02*
X137074778Y-127552473D01*
X137074778Y-127266759D02*
X136074778Y-127266759D01*
X136217635Y-127361997D01*
X136312873Y-127457235D01*
X136360492Y-127552473D01*
X162728778Y-115677806D02*
X162252587Y-116011140D01*
X162728778Y-116249235D02*
X161728778Y-116249235D01*
X161728778Y-115868282D01*
X161776397Y-115773044D01*
X161824016Y-115725425D01*
X161919254Y-115677806D01*
X162062111Y-115677806D01*
X162157349Y-115725425D01*
X162204968Y-115773044D01*
X162252587Y-115868282D01*
X162252587Y-116249235D01*
X162728778Y-114725425D02*
X162728778Y-115296854D01*
X162728778Y-115011140D02*
X161728778Y-115011140D01*
X161871635Y-115106378D01*
X161966873Y-115201616D01*
X162014492Y-115296854D01*
X161824016Y-114344473D02*
X161776397Y-114296854D01*
X161728778Y-114201616D01*
X161728778Y-113963520D01*
X161776397Y-113868282D01*
X161824016Y-113820663D01*
X161919254Y-113773044D01*
X162014492Y-113773044D01*
X162157349Y-113820663D01*
X162728778Y-114392092D01*
X162728778Y-113773044D01*
X156124778Y-115677806D02*
X155648587Y-116011140D01*
X156124778Y-116249235D02*
X155124778Y-116249235D01*
X155124778Y-115868282D01*
X155172397Y-115773044D01*
X155220016Y-115725425D01*
X155315254Y-115677806D01*
X155458111Y-115677806D01*
X155553349Y-115725425D01*
X155600968Y-115773044D01*
X155648587Y-115868282D01*
X155648587Y-116249235D01*
X156124778Y-114725425D02*
X156124778Y-115296854D01*
X156124778Y-115011140D02*
X155124778Y-115011140D01*
X155267635Y-115106378D01*
X155362873Y-115201616D01*
X155410492Y-115296854D01*
X155124778Y-114392092D02*
X155124778Y-113773044D01*
X155505730Y-114106378D01*
X155505730Y-113963520D01*
X155553349Y-113868282D01*
X155600968Y-113820663D01*
X155696207Y-113773044D01*
X155934302Y-113773044D01*
X156029540Y-113820663D01*
X156077159Y-113868282D01*
X156124778Y-113963520D01*
X156124778Y-114249235D01*
X156077159Y-114344473D01*
X156029540Y-114392092D01*
X150028778Y-115677806D02*
X149552587Y-116011140D01*
X150028778Y-116249235D02*
X149028778Y-116249235D01*
X149028778Y-115868282D01*
X149076397Y-115773044D01*
X149124016Y-115725425D01*
X149219254Y-115677806D01*
X149362111Y-115677806D01*
X149457349Y-115725425D01*
X149504968Y-115773044D01*
X149552587Y-115868282D01*
X149552587Y-116249235D01*
X150028778Y-114725425D02*
X150028778Y-115296854D01*
X150028778Y-115011140D02*
X149028778Y-115011140D01*
X149171635Y-115106378D01*
X149266873Y-115201616D01*
X149314492Y-115296854D01*
X149362111Y-113868282D02*
X150028778Y-113868282D01*
X148981159Y-114106378D02*
X149695445Y-114344473D01*
X149695445Y-113725425D01*
X143424778Y-115677806D02*
X142948587Y-116011140D01*
X143424778Y-116249235D02*
X142424778Y-116249235D01*
X142424778Y-115868282D01*
X142472397Y-115773044D01*
X142520016Y-115725425D01*
X142615254Y-115677806D01*
X142758111Y-115677806D01*
X142853349Y-115725425D01*
X142900968Y-115773044D01*
X142948587Y-115868282D01*
X142948587Y-116249235D01*
X143424778Y-114725425D02*
X143424778Y-115296854D01*
X143424778Y-115011140D02*
X142424778Y-115011140D01*
X142567635Y-115106378D01*
X142662873Y-115201616D01*
X142710492Y-115296854D01*
X142424778Y-113820663D02*
X142424778Y-114296854D01*
X142900968Y-114344473D01*
X142853349Y-114296854D01*
X142805730Y-114201616D01*
X142805730Y-113963520D01*
X142853349Y-113868282D01*
X142900968Y-113820663D01*
X142996207Y-113773044D01*
X143234302Y-113773044D01*
X143329540Y-113820663D01*
X143377159Y-113868282D01*
X143424778Y-113963520D01*
X143424778Y-114201616D01*
X143377159Y-114296854D01*
X143329540Y-114344473D01*
X133528778Y-115677806D02*
X133052587Y-116011140D01*
X133528778Y-116249235D02*
X132528778Y-116249235D01*
X132528778Y-115868282D01*
X132576397Y-115773044D01*
X132624016Y-115725425D01*
X132719254Y-115677806D01*
X132862111Y-115677806D01*
X132957349Y-115725425D01*
X133004968Y-115773044D01*
X133052587Y-115868282D01*
X133052587Y-116249235D01*
X133528778Y-114725425D02*
X133528778Y-115296854D01*
X133528778Y-115011140D02*
X132528778Y-115011140D01*
X132671635Y-115106378D01*
X132766873Y-115201616D01*
X132814492Y-115296854D01*
X132528778Y-113868282D02*
X132528778Y-114058759D01*
X132576397Y-114153997D01*
X132624016Y-114201616D01*
X132766873Y-114296854D01*
X132957349Y-114344473D01*
X133338302Y-114344473D01*
X133433540Y-114296854D01*
X133481159Y-114249235D01*
X133528778Y-114153997D01*
X133528778Y-113963520D01*
X133481159Y-113868282D01*
X133433540Y-113820663D01*
X133338302Y-113773044D01*
X133100207Y-113773044D01*
X133004968Y-113820663D01*
X132957349Y-113868282D01*
X132909730Y-113963520D01*
X132909730Y-114153997D01*
X132957349Y-114249235D01*
X133004968Y-114296854D01*
X133100207Y-114344473D01*
X127574381Y-93149657D02*
X127098190Y-93482991D01*
X127574381Y-93721086D02*
X126574381Y-93721086D01*
X126574381Y-93340133D01*
X126622000Y-93244895D01*
X126669619Y-93197276D01*
X126764857Y-93149657D01*
X126907714Y-93149657D01*
X127002952Y-93197276D01*
X127050571Y-93244895D01*
X127098190Y-93340133D01*
X127098190Y-93721086D01*
X127574381Y-92197276D02*
X127574381Y-92768705D01*
X127574381Y-92482991D02*
X126574381Y-92482991D01*
X126717238Y-92578229D01*
X126812476Y-92673467D01*
X126860095Y-92768705D01*
X126574381Y-91863943D02*
X126574381Y-91197276D01*
X127574381Y-91625848D01*
X123713581Y-93110857D02*
X123237390Y-93444191D01*
X123713581Y-93682286D02*
X122713581Y-93682286D01*
X122713581Y-93301333D01*
X122761200Y-93206095D01*
X122808819Y-93158476D01*
X122904057Y-93110857D01*
X123046914Y-93110857D01*
X123142152Y-93158476D01*
X123189771Y-93206095D01*
X123237390Y-93301333D01*
X123237390Y-93682286D01*
X123713581Y-92158476D02*
X123713581Y-92729905D01*
X123713581Y-92444191D02*
X122713581Y-92444191D01*
X122856438Y-92539429D01*
X122951676Y-92634667D01*
X122999295Y-92729905D01*
X123713581Y-91682286D02*
X123713581Y-91491810D01*
X123665962Y-91396571D01*
X123618343Y-91348952D01*
X123475486Y-91253714D01*
X123285010Y-91206095D01*
X122904057Y-91206095D01*
X122808819Y-91253714D01*
X122761200Y-91301333D01*
X122713581Y-91396571D01*
X122713581Y-91587048D01*
X122761200Y-91682286D01*
X122808819Y-91729905D01*
X122904057Y-91777524D01*
X123142152Y-91777524D01*
X123237390Y-91729905D01*
X123285010Y-91682286D01*
X123332629Y-91587048D01*
X123332629Y-91396571D01*
X123285010Y-91301333D01*
X123237390Y-91253714D01*
X123142152Y-91206095D01*
X121366743Y-130124381D02*
X121033409Y-129648190D01*
X120795314Y-130124381D02*
X120795314Y-129124381D01*
X121176267Y-129124381D01*
X121271505Y-129172000D01*
X121319124Y-129219619D01*
X121366743Y-129314857D01*
X121366743Y-129457714D01*
X121319124Y-129552952D01*
X121271505Y-129600571D01*
X121176267Y-129648190D01*
X120795314Y-129648190D01*
X121747695Y-129219619D02*
X121795314Y-129172000D01*
X121890552Y-129124381D01*
X122128648Y-129124381D01*
X122223886Y-129172000D01*
X122271505Y-129219619D01*
X122319124Y-129314857D01*
X122319124Y-129410095D01*
X122271505Y-129552952D01*
X121700076Y-130124381D01*
X122319124Y-130124381D01*
X122938171Y-129124381D02*
X123033410Y-129124381D01*
X123128648Y-129172000D01*
X123176267Y-129219619D01*
X123223886Y-129314857D01*
X123271505Y-129505333D01*
X123271505Y-129743429D01*
X123223886Y-129933905D01*
X123176267Y-130029143D01*
X123128648Y-130076762D01*
X123033410Y-130124381D01*
X122938171Y-130124381D01*
X122842933Y-130076762D01*
X122795314Y-130029143D01*
X122747695Y-129933905D01*
X122700076Y-129743429D01*
X122700076Y-129505333D01*
X122747695Y-129314857D01*
X122795314Y-129219619D01*
X122842933Y-129172000D01*
X122938171Y-129124381D01*
X119499143Y-124404381D02*
X119165809Y-123928190D01*
X118927714Y-124404381D02*
X118927714Y-123404381D01*
X119308667Y-123404381D01*
X119403905Y-123452000D01*
X119451524Y-123499619D01*
X119499143Y-123594857D01*
X119499143Y-123737714D01*
X119451524Y-123832952D01*
X119403905Y-123880571D01*
X119308667Y-123928190D01*
X118927714Y-123928190D01*
X119880095Y-123499619D02*
X119927714Y-123452000D01*
X120022952Y-123404381D01*
X120261048Y-123404381D01*
X120356286Y-123452000D01*
X120403905Y-123499619D01*
X120451524Y-123594857D01*
X120451524Y-123690095D01*
X120403905Y-123832952D01*
X119832476Y-124404381D01*
X120451524Y-124404381D01*
X121403905Y-124404381D02*
X120832476Y-124404381D01*
X121118190Y-124404381D02*
X121118190Y-123404381D01*
X121022952Y-123547238D01*
X120927714Y-123642476D01*
X120832476Y-123690095D01*
X106105486Y-111720381D02*
X106676915Y-111720381D01*
X106391200Y-112720381D02*
X106391200Y-111720381D01*
X107010248Y-112720381D02*
X107010248Y-111720381D01*
X107010248Y-112196571D02*
X107581677Y-112196571D01*
X107581677Y-112720381D02*
X107581677Y-111720381D01*
X108581677Y-112720381D02*
X108010248Y-112720381D01*
X108295962Y-112720381D02*
X108295962Y-111720381D01*
X108200724Y-111863238D01*
X108105486Y-111958476D01*
X108010248Y-112006095D01*
X114487486Y-126127181D02*
X115058915Y-126127181D01*
X114773200Y-127127181D02*
X114773200Y-126127181D01*
X115392248Y-127127181D02*
X115392248Y-126127181D01*
X115392248Y-126603371D02*
X115963677Y-126603371D01*
X115963677Y-127127181D02*
X115963677Y-126127181D01*
X116392248Y-126222419D02*
X116439867Y-126174800D01*
X116535105Y-126127181D01*
X116773201Y-126127181D01*
X116868439Y-126174800D01*
X116916058Y-126222419D01*
X116963677Y-126317657D01*
X116963677Y-126412895D01*
X116916058Y-126555752D01*
X116344629Y-127127181D01*
X116963677Y-127127181D01*
X119329295Y-108672381D02*
X119329295Y-109481905D01*
X119376914Y-109577143D01*
X119424533Y-109624762D01*
X119519771Y-109672381D01*
X119710248Y-109672381D01*
X119805486Y-109624762D01*
X119853105Y-109577143D01*
X119900724Y-109481905D01*
X119900724Y-108672381D01*
X120329295Y-108767619D02*
X120376914Y-108720000D01*
X120472152Y-108672381D01*
X120710248Y-108672381D01*
X120805486Y-108720000D01*
X120853105Y-108767619D01*
X120900724Y-108862857D01*
X120900724Y-108958095D01*
X120853105Y-109100952D01*
X120281676Y-109672381D01*
X120900724Y-109672381D01*
X141130095Y-96457889D02*
X141130095Y-97267413D01*
X141177714Y-97362651D01*
X141225333Y-97410270D01*
X141320571Y-97457889D01*
X141511048Y-97457889D01*
X141606286Y-97410270D01*
X141653905Y-97362651D01*
X141701524Y-97267413D01*
X141701524Y-96457889D01*
X142082476Y-96457889D02*
X142701524Y-96457889D01*
X142368190Y-96838841D01*
X142511048Y-96838841D01*
X142606286Y-96886460D01*
X142653905Y-96934079D01*
X142701524Y-97029318D01*
X142701524Y-97267413D01*
X142653905Y-97362651D01*
X142606286Y-97410270D01*
X142511048Y-97457889D01*
X142225333Y-97457889D01*
X142130095Y-97410270D01*
X142082476Y-97362651D01*
X188809334Y-82907143D02*
X188761715Y-82954762D01*
X188618858Y-83002381D01*
X188523620Y-83002381D01*
X188380762Y-82954762D01*
X188285524Y-82859524D01*
X188237905Y-82764286D01*
X188190286Y-82573810D01*
X188190286Y-82430952D01*
X188237905Y-82240476D01*
X188285524Y-82145238D01*
X188380762Y-82050000D01*
X188523620Y-82002381D01*
X188618858Y-82002381D01*
X188761715Y-82050000D01*
X188809334Y-82097619D01*
X189190286Y-82097619D02*
X189237905Y-82050000D01*
X189333143Y-82002381D01*
X189571239Y-82002381D01*
X189666477Y-82050000D01*
X189714096Y-82097619D01*
X189761715Y-82192857D01*
X189761715Y-82288095D01*
X189714096Y-82430952D01*
X189142667Y-83002381D01*
X189761715Y-83002381D01*
X113207981Y-92622666D02*
X112731790Y-92956000D01*
X113207981Y-93194095D02*
X112207981Y-93194095D01*
X112207981Y-92813142D01*
X112255600Y-92717904D01*
X112303219Y-92670285D01*
X112398457Y-92622666D01*
X112541314Y-92622666D01*
X112636552Y-92670285D01*
X112684171Y-92717904D01*
X112731790Y-92813142D01*
X112731790Y-93194095D01*
X112541314Y-91765523D02*
X113207981Y-91765523D01*
X112160362Y-92003619D02*
X112874648Y-92241714D01*
X112874648Y-91622666D01*
X191968381Y-88355466D02*
X191492190Y-88688800D01*
X191968381Y-88926895D02*
X190968381Y-88926895D01*
X190968381Y-88545942D01*
X191016000Y-88450704D01*
X191063619Y-88403085D01*
X191158857Y-88355466D01*
X191301714Y-88355466D01*
X191396952Y-88403085D01*
X191444571Y-88450704D01*
X191492190Y-88545942D01*
X191492190Y-88926895D01*
X190968381Y-87450704D02*
X190968381Y-87926895D01*
X191444571Y-87974514D01*
X191396952Y-87926895D01*
X191349333Y-87831657D01*
X191349333Y-87593561D01*
X191396952Y-87498323D01*
X191444571Y-87450704D01*
X191539810Y-87403085D01*
X191777905Y-87403085D01*
X191873143Y-87450704D01*
X191920762Y-87498323D01*
X191968381Y-87593561D01*
X191968381Y-87831657D01*
X191920762Y-87926895D01*
X191873143Y-87974514D01*
X198050667Y-69866381D02*
X198050667Y-70580667D01*
X198003047Y-70723524D01*
X197907809Y-70818762D01*
X197764952Y-70866381D01*
X197669714Y-70866381D01*
X198955429Y-70199714D02*
X198955429Y-70866381D01*
X198717333Y-69818762D02*
X198479238Y-70533048D01*
X199098286Y-70533048D01*
X109531162Y-104321219D02*
X109435924Y-104273600D01*
X109340686Y-104178362D01*
X109197829Y-104035505D01*
X109102590Y-103987886D01*
X109007352Y-103987886D01*
X109054971Y-104225981D02*
X108959733Y-104178362D01*
X108864495Y-104083124D01*
X108816876Y-103892648D01*
X108816876Y-103559314D01*
X108864495Y-103368838D01*
X108959733Y-103273600D01*
X109054971Y-103225981D01*
X109245448Y-103225981D01*
X109340686Y-103273600D01*
X109435924Y-103368838D01*
X109483543Y-103559314D01*
X109483543Y-103892648D01*
X109435924Y-104083124D01*
X109340686Y-104178362D01*
X109245448Y-104225981D01*
X109054971Y-104225981D01*
X110340686Y-103225981D02*
X110150209Y-103225981D01*
X110054971Y-103273600D01*
X110007352Y-103321219D01*
X109912114Y-103464076D01*
X109864495Y-103654552D01*
X109864495Y-104035505D01*
X109912114Y-104130743D01*
X109959733Y-104178362D01*
X110054971Y-104225981D01*
X110245448Y-104225981D01*
X110340686Y-104178362D01*
X110388305Y-104130743D01*
X110435924Y-104035505D01*
X110435924Y-103797410D01*
X110388305Y-103702171D01*
X110340686Y-103654552D01*
X110245448Y-103606933D01*
X110054971Y-103606933D01*
X109959733Y-103654552D01*
X109912114Y-103702171D01*
X109864495Y-103797410D01*
X107753162Y-116016019D02*
X107657924Y-115968400D01*
X107562686Y-115873162D01*
X107419829Y-115730305D01*
X107324590Y-115682686D01*
X107229352Y-115682686D01*
X107276971Y-115920781D02*
X107181733Y-115873162D01*
X107086495Y-115777924D01*
X107038876Y-115587448D01*
X107038876Y-115254114D01*
X107086495Y-115063638D01*
X107181733Y-114968400D01*
X107276971Y-114920781D01*
X107467448Y-114920781D01*
X107562686Y-114968400D01*
X107657924Y-115063638D01*
X107705543Y-115254114D01*
X107705543Y-115587448D01*
X107657924Y-115777924D01*
X107562686Y-115873162D01*
X107467448Y-115920781D01*
X107276971Y-115920781D01*
X108038876Y-114920781D02*
X108705543Y-114920781D01*
X108276971Y-115920781D01*
X106279962Y-90362019D02*
X106184724Y-90314400D01*
X106089486Y-90219162D01*
X105946629Y-90076305D01*
X105851390Y-90028686D01*
X105756152Y-90028686D01*
X105803771Y-90266781D02*
X105708533Y-90219162D01*
X105613295Y-90123924D01*
X105565676Y-89933448D01*
X105565676Y-89600114D01*
X105613295Y-89409638D01*
X105708533Y-89314400D01*
X105803771Y-89266781D01*
X105994248Y-89266781D01*
X106089486Y-89314400D01*
X106184724Y-89409638D01*
X106232343Y-89600114D01*
X106232343Y-89933448D01*
X106184724Y-90123924D01*
X106089486Y-90219162D01*
X105994248Y-90266781D01*
X105803771Y-90266781D01*
X107184724Y-90266781D02*
X106613295Y-90266781D01*
X106899009Y-90266781D02*
X106899009Y-89266781D01*
X106803771Y-89409638D01*
X106708533Y-89504876D01*
X106613295Y-89552495D01*
X116439962Y-90362019D02*
X116344724Y-90314400D01*
X116249486Y-90219162D01*
X116106629Y-90076305D01*
X116011390Y-90028686D01*
X115916152Y-90028686D01*
X115963771Y-90266781D02*
X115868533Y-90219162D01*
X115773295Y-90123924D01*
X115725676Y-89933448D01*
X115725676Y-89600114D01*
X115773295Y-89409638D01*
X115868533Y-89314400D01*
X115963771Y-89266781D01*
X116154248Y-89266781D01*
X116249486Y-89314400D01*
X116344724Y-89409638D01*
X116392343Y-89600114D01*
X116392343Y-89933448D01*
X116344724Y-90123924D01*
X116249486Y-90219162D01*
X116154248Y-90266781D01*
X115963771Y-90266781D01*
X116773295Y-89362019D02*
X116820914Y-89314400D01*
X116916152Y-89266781D01*
X117154248Y-89266781D01*
X117249486Y-89314400D01*
X117297105Y-89362019D01*
X117344724Y-89457257D01*
X117344724Y-89552495D01*
X117297105Y-89695352D01*
X116725676Y-90266781D01*
X117344724Y-90266781D01*
X121711981Y-85428057D02*
X121235790Y-85761391D01*
X121711981Y-85999486D02*
X120711981Y-85999486D01*
X120711981Y-85618533D01*
X120759600Y-85523295D01*
X120807219Y-85475676D01*
X120902457Y-85428057D01*
X121045314Y-85428057D01*
X121140552Y-85475676D01*
X121188171Y-85523295D01*
X121235790Y-85618533D01*
X121235790Y-85999486D01*
X121711981Y-84475676D02*
X121711981Y-85047105D01*
X121711981Y-84761391D02*
X120711981Y-84761391D01*
X120854838Y-84856629D01*
X120950076Y-84951867D01*
X120997695Y-85047105D01*
X121140552Y-83904248D02*
X121092933Y-83999486D01*
X121045314Y-84047105D01*
X120950076Y-84094724D01*
X120902457Y-84094724D01*
X120807219Y-84047105D01*
X120759600Y-83999486D01*
X120711981Y-83904248D01*
X120711981Y-83713771D01*
X120759600Y-83618533D01*
X120807219Y-83570914D01*
X120902457Y-83523295D01*
X120950076Y-83523295D01*
X121045314Y-83570914D01*
X121092933Y-83618533D01*
X121140552Y-83713771D01*
X121140552Y-83904248D01*
X121188171Y-83999486D01*
X121235790Y-84047105D01*
X121331029Y-84094724D01*
X121521505Y-84094724D01*
X121616743Y-84047105D01*
X121664362Y-83999486D01*
X121711981Y-83904248D01*
X121711981Y-83713771D01*
X121664362Y-83618533D01*
X121616743Y-83570914D01*
X121521505Y-83523295D01*
X121331029Y-83523295D01*
X121235790Y-83570914D01*
X121188171Y-83618533D01*
X121140552Y-83713771D01*
X113607981Y-96953295D02*
X112607981Y-96953295D01*
X112607981Y-96715200D01*
X112655600Y-96572342D01*
X112750838Y-96477104D01*
X112846076Y-96429485D01*
X113036552Y-96381866D01*
X113179410Y-96381866D01*
X113369886Y-96429485D01*
X113465124Y-96477104D01*
X113560362Y-96572342D01*
X113607981Y-96715200D01*
X113607981Y-96953295D01*
X113607981Y-95429485D02*
X113607981Y-96000914D01*
X113607981Y-95715200D02*
X112607981Y-95715200D01*
X112750838Y-95810438D01*
X112846076Y-95905676D01*
X112893695Y-96000914D01*
X119251505Y-117420781D02*
X119251505Y-116420781D01*
X119489600Y-116420781D01*
X119632458Y-116468400D01*
X119727696Y-116563638D01*
X119775315Y-116658876D01*
X119822934Y-116849352D01*
X119822934Y-116992210D01*
X119775315Y-117182686D01*
X119727696Y-117277924D01*
X119632458Y-117373162D01*
X119489600Y-117420781D01*
X119251505Y-117420781D01*
X120156267Y-116420781D02*
X120775315Y-116420781D01*
X120441981Y-116801733D01*
X120584839Y-116801733D01*
X120680077Y-116849352D01*
X120727696Y-116896971D01*
X120775315Y-116992210D01*
X120775315Y-117230305D01*
X120727696Y-117325543D01*
X120680077Y-117373162D01*
X120584839Y-117420781D01*
X120299124Y-117420781D01*
X120203886Y-117373162D01*
X120156267Y-117325543D01*
X119302305Y-120671981D02*
X119302305Y-119671981D01*
X119540400Y-119671981D01*
X119683258Y-119719600D01*
X119778496Y-119814838D01*
X119826115Y-119910076D01*
X119873734Y-120100552D01*
X119873734Y-120243410D01*
X119826115Y-120433886D01*
X119778496Y-120529124D01*
X119683258Y-120624362D01*
X119540400Y-120671981D01*
X119302305Y-120671981D01*
X120730877Y-120005314D02*
X120730877Y-120671981D01*
X120492781Y-119624362D02*
X120254686Y-120338648D01*
X120873734Y-120338648D01*
X221948477Y-59142381D02*
X221948477Y-59856667D01*
X221900857Y-59999524D01*
X221805619Y-60094762D01*
X221662762Y-60142381D01*
X221567524Y-60142381D01*
X222948477Y-60142381D02*
X222377048Y-60142381D01*
X222662762Y-60142381D02*
X222662762Y-59142381D01*
X222567524Y-59285238D01*
X222472286Y-59380476D01*
X222377048Y-59428095D01*
X223853239Y-59142381D02*
X223377048Y-59142381D01*
X223329429Y-59618571D01*
X223377048Y-59570952D01*
X223472286Y-59523333D01*
X223710382Y-59523333D01*
X223805620Y-59570952D01*
X223853239Y-59618571D01*
X223900858Y-59713810D01*
X223900858Y-59951905D01*
X223853239Y-60047143D01*
X223805620Y-60094762D01*
X223710382Y-60142381D01*
X223472286Y-60142381D01*
X223377048Y-60094762D01*
X223329429Y-60047143D01*
X221948477Y-76922381D02*
X221948477Y-77636667D01*
X221900857Y-77779524D01*
X221805619Y-77874762D01*
X221662762Y-77922381D01*
X221567524Y-77922381D01*
X222948477Y-77922381D02*
X222377048Y-77922381D01*
X222662762Y-77922381D02*
X222662762Y-76922381D01*
X222567524Y-77065238D01*
X222472286Y-77160476D01*
X222377048Y-77208095D01*
X223805620Y-76922381D02*
X223615143Y-76922381D01*
X223519905Y-76970000D01*
X223472286Y-77017619D01*
X223377048Y-77160476D01*
X223329429Y-77350952D01*
X223329429Y-77731905D01*
X223377048Y-77827143D01*
X223424667Y-77874762D01*
X223519905Y-77922381D01*
X223710382Y-77922381D01*
X223805620Y-77874762D01*
X223853239Y-77827143D01*
X223900858Y-77731905D01*
X223900858Y-77493810D01*
X223853239Y-77398571D01*
X223805620Y-77350952D01*
X223710382Y-77303333D01*
X223519905Y-77303333D01*
X223424667Y-77350952D01*
X223377048Y-77398571D01*
X223329429Y-77493810D01*
X220305334Y-149615143D02*
X220257715Y-149662762D01*
X220114858Y-149710381D01*
X220019620Y-149710381D01*
X219876762Y-149662762D01*
X219781524Y-149567524D01*
X219733905Y-149472286D01*
X219686286Y-149281810D01*
X219686286Y-149138952D01*
X219733905Y-148948476D01*
X219781524Y-148853238D01*
X219876762Y-148758000D01*
X220019620Y-148710381D01*
X220114858Y-148710381D01*
X220257715Y-148758000D01*
X220305334Y-148805619D01*
X220638667Y-148710381D02*
X221257715Y-148710381D01*
X220924381Y-149091333D01*
X221067239Y-149091333D01*
X221162477Y-149138952D01*
X221210096Y-149186571D01*
X221257715Y-149281810D01*
X221257715Y-149519905D01*
X221210096Y-149615143D01*
X221162477Y-149662762D01*
X221067239Y-149710381D01*
X220781524Y-149710381D01*
X220686286Y-149662762D01*
X220638667Y-149615143D01*
X212574143Y-94908666D02*
X212621762Y-94956285D01*
X212669381Y-95099142D01*
X212669381Y-95194380D01*
X212621762Y-95337238D01*
X212526524Y-95432476D01*
X212431286Y-95480095D01*
X212240810Y-95527714D01*
X212097952Y-95527714D01*
X211907476Y-95480095D01*
X211812238Y-95432476D01*
X211717000Y-95337238D01*
X211669381Y-95194380D01*
X211669381Y-95099142D01*
X211717000Y-94956285D01*
X211764619Y-94908666D01*
X212002714Y-94051523D02*
X212669381Y-94051523D01*
X211621762Y-94289619D02*
X212336048Y-94527714D01*
X212336048Y-93908666D01*
X199703334Y-84211143D02*
X199655715Y-84258762D01*
X199512858Y-84306381D01*
X199417620Y-84306381D01*
X199274762Y-84258762D01*
X199179524Y-84163524D01*
X199131905Y-84068286D01*
X199084286Y-83877810D01*
X199084286Y-83734952D01*
X199131905Y-83544476D01*
X199179524Y-83449238D01*
X199274762Y-83354000D01*
X199417620Y-83306381D01*
X199512858Y-83306381D01*
X199655715Y-83354000D01*
X199703334Y-83401619D01*
X200655715Y-84306381D02*
X200084286Y-84306381D01*
X200370000Y-84306381D02*
X200370000Y-83306381D01*
X200274762Y-83449238D01*
X200179524Y-83544476D01*
X200084286Y-83592095D01*
X228012667Y-143724381D02*
X228012667Y-144438667D01*
X227965047Y-144581524D01*
X227869809Y-144676762D01*
X227726952Y-144724381D01*
X227631714Y-144724381D01*
X228393619Y-143724381D02*
X229012667Y-143724381D01*
X228679333Y-144105333D01*
X228822191Y-144105333D01*
X228917429Y-144152952D01*
X228965048Y-144200571D01*
X229012667Y-144295810D01*
X229012667Y-144533905D01*
X228965048Y-144629143D01*
X228917429Y-144676762D01*
X228822191Y-144724381D01*
X228536476Y-144724381D01*
X228441238Y-144676762D01*
X228393619Y-144629143D01*
X206041334Y-130296381D02*
X205565143Y-130296381D01*
X205565143Y-129296381D01*
X206898477Y-130296381D02*
X206327048Y-130296381D01*
X206612762Y-130296381D02*
X206612762Y-129296381D01*
X206517524Y-129439238D01*
X206422286Y-129534476D01*
X206327048Y-129582095D01*
%LPC*%
D17*
X141072397Y-124446949D03*
X141072397Y-119846949D03*
D18*
X209042000Y-48768000D03*
X209042000Y-149098000D03*
X152146000Y-48768000D03*
X152146000Y-149098000D03*
X82042000Y-149098000D03*
D17*
X109016800Y-131092000D03*
X109016800Y-126492000D03*
D19*
X94386400Y-116917600D03*
X94386400Y-113917600D03*
D17*
X99872800Y-117717600D03*
X99872800Y-113117600D03*
X160122397Y-137654949D03*
X160122397Y-133054949D03*
X153772397Y-137654949D03*
X153772397Y-133054949D03*
X147422397Y-137654949D03*
X147422397Y-133054949D03*
X141021597Y-137654949D03*
X141021597Y-133054949D03*
X134722397Y-133054949D03*
X134722397Y-137654949D03*
X160122397Y-124446949D03*
X160122397Y-119846949D03*
X153772397Y-124446949D03*
X153772397Y-119846949D03*
X147422397Y-124446949D03*
X147422397Y-119846949D03*
X134722397Y-119846949D03*
X134722397Y-124446949D03*
D20*
X125171200Y-96508000D03*
X125171200Y-95008000D03*
X121361200Y-96508000D03*
X121361200Y-95008000D03*
X118262400Y-93218000D03*
X118262400Y-91718000D03*
D21*
X115976400Y-138176000D03*
D22*
X115976400Y-140676000D03*
D21*
X115824000Y-131572000D03*
D22*
X115824000Y-134072000D03*
D17*
X109118400Y-133894800D03*
X109118400Y-138494800D03*
D23*
X157716000Y-52920000D03*
D24*
X161916000Y-52920000D03*
X166116000Y-52920000D03*
X170316000Y-52920000D03*
X157716000Y-58420000D03*
X161916000Y-58420000D03*
X166116000Y-58420000D03*
X170316000Y-58420000D03*
X123434000Y-70358000D03*
X119634000Y-70358000D03*
X123434000Y-57858000D03*
X119634000Y-57858000D03*
X108434000Y-70358000D03*
X104634000Y-70358000D03*
X108434000Y-57858000D03*
X104634000Y-57858000D03*
X88900000Y-67310000D03*
X88900000Y-71110000D03*
X76400000Y-67310000D03*
X76400000Y-71110000D03*
X88900000Y-82310000D03*
X88900000Y-86110000D03*
X76400000Y-82310000D03*
X76400000Y-86110000D03*
D25*
X248920000Y-76200000D03*
D26*
X248920000Y-71120000D03*
X248920000Y-66040000D03*
X248920000Y-60960000D03*
X248920000Y-55880000D03*
X248920000Y-50800000D03*
D25*
X248920000Y-142240000D03*
D26*
X248920000Y-137160000D03*
X248920000Y-132080000D03*
X248920000Y-127000000D03*
X248920000Y-121920000D03*
X248920000Y-116840000D03*
D25*
X76200000Y-101600000D03*
D26*
X76200000Y-106680000D03*
X76200000Y-111760000D03*
X76200000Y-116840000D03*
X76200000Y-121920000D03*
X76200000Y-127000000D03*
D27*
X202494000Y-54356000D03*
D28*
X205994000Y-54356000D03*
D27*
X198994000Y-54356000D03*
X195494000Y-54356000D03*
X191994000Y-54356000D03*
X188494000Y-54356000D03*
D29*
X142804000Y-60358000D03*
X142154000Y-60358000D03*
X141504000Y-60358000D03*
X143454000Y-60358000D03*
X144104000Y-60358000D03*
D30*
X140304000Y-60358000D03*
X145304000Y-60358000D03*
D31*
X146304000Y-57658000D03*
X139304000Y-57658000D03*
D32*
X113842800Y-100360400D03*
X113842800Y-102260400D03*
X115842800Y-101310400D03*
X108677200Y-100192800D03*
X108677200Y-102092800D03*
X110677200Y-101142800D03*
X121275600Y-135041600D03*
X121275600Y-136941600D03*
X123275600Y-135991600D03*
D33*
X111353600Y-93206000D03*
X111353600Y-91706000D03*
X111353600Y-96812800D03*
X111353600Y-95312800D03*
D34*
X105194800Y-118618000D03*
X103694800Y-118618000D03*
D33*
X160122397Y-127492949D03*
X160122397Y-128992949D03*
X154026397Y-127492949D03*
X154026397Y-128992949D03*
X147422397Y-127492949D03*
X147422397Y-128992949D03*
X141326397Y-127492949D03*
X141326397Y-128992949D03*
X134722397Y-127492949D03*
X134722397Y-128992949D03*
X160376397Y-114284949D03*
X160376397Y-115784949D03*
X153772397Y-114284949D03*
X153772397Y-115784949D03*
X147676397Y-114284949D03*
X147676397Y-115784949D03*
X141072397Y-114284949D03*
X141072397Y-115784949D03*
X134976397Y-115784949D03*
X134976397Y-114284949D03*
X125222000Y-91756800D03*
X125222000Y-93256800D03*
X121361200Y-91718000D03*
X121361200Y-93218000D03*
D34*
X121259600Y-131572000D03*
X122759600Y-131572000D03*
X119392000Y-122174000D03*
X120892000Y-122174000D03*
X103694800Y-112217200D03*
X105194800Y-112217200D03*
X115023200Y-128574800D03*
X116523200Y-128574800D03*
D35*
X117144800Y-105492800D03*
X117144800Y-105992800D03*
X117144800Y-106492800D03*
X117144800Y-106992800D03*
X117144800Y-107492800D03*
X117144800Y-107992800D03*
X117144800Y-108532800D03*
X117144800Y-109032800D03*
X117144800Y-109532800D03*
X117144800Y-110032800D03*
X117144800Y-110532800D03*
X117144800Y-111032800D03*
X117144800Y-111532800D03*
X117144800Y-112032800D03*
X117144800Y-112532800D03*
X122944800Y-112532800D03*
X122944800Y-112032800D03*
X122944800Y-111532800D03*
X122944800Y-111032800D03*
X122944800Y-110532800D03*
X122944800Y-110032800D03*
X122944800Y-109532800D03*
X122944800Y-109032800D03*
X122944800Y-108532800D03*
X122944800Y-108032800D03*
X122944800Y-107532800D03*
X122944800Y-107032800D03*
X122944800Y-106532800D03*
X122944800Y-106032800D03*
X122944800Y-105532800D03*
D36*
X133592000Y-99224400D03*
X133592000Y-99724400D03*
X133592000Y-100224400D03*
X133592000Y-100724400D03*
X133592000Y-101224400D03*
X133592000Y-101724400D03*
X133592000Y-102224400D03*
X133592000Y-102724400D03*
X133592000Y-103224400D03*
X133592000Y-103724400D03*
X133592000Y-104224400D03*
X133592000Y-104724400D03*
D37*
X135192000Y-106324400D03*
X135692000Y-106324400D03*
X136192000Y-106324400D03*
X136692000Y-106324400D03*
X137192000Y-106324400D03*
X137692000Y-106324400D03*
X138192000Y-106324400D03*
X138692000Y-106324400D03*
X139192000Y-106324400D03*
X139692000Y-106324400D03*
X140192000Y-106324400D03*
X140692000Y-106324400D03*
D36*
X142292000Y-104724400D03*
X142292000Y-104224400D03*
X142292000Y-103724400D03*
X142292000Y-103224400D03*
X142292000Y-102724400D03*
X142292000Y-102224400D03*
X142292000Y-101724400D03*
X142292000Y-101224400D03*
X142292000Y-100724400D03*
X142292000Y-100224400D03*
X142292000Y-99724400D03*
X142292000Y-99224400D03*
D37*
X140692000Y-97624400D03*
X140192000Y-97624400D03*
X139692000Y-97624400D03*
X139192000Y-97624400D03*
X138692000Y-97624400D03*
X138192000Y-97624400D03*
X137692000Y-97624400D03*
X137192000Y-97624400D03*
X136692000Y-97624400D03*
X136192000Y-97624400D03*
X135692000Y-97624400D03*
X135192000Y-97624400D03*
D21*
X191860800Y-82651600D03*
D22*
X194360800Y-82651600D03*
D33*
X114655600Y-93206000D03*
X114655600Y-91706000D03*
X193356800Y-87438800D03*
X193356800Y-88938800D03*
D38*
X212384000Y-62952000D03*
X209804000Y-62992000D03*
X207264000Y-62992000D03*
X204724000Y-62992000D03*
X202184000Y-62992000D03*
X199644000Y-62992000D03*
X197104000Y-62992000D03*
X194564000Y-62992000D03*
X192024000Y-62992000D03*
X189484000Y-62992000D03*
X186944000Y-62992000D03*
X184404000Y-62992000D03*
D32*
X108626400Y-105323600D03*
X108626400Y-107223600D03*
X110626400Y-106273600D03*
X103902000Y-114467600D03*
X103902000Y-116367600D03*
X105902000Y-115417600D03*
D39*
X106680000Y-85852000D03*
X106680000Y-83312000D03*
X106680000Y-80772000D03*
X116840000Y-85852000D03*
X116840000Y-83312000D03*
X116840000Y-80772000D03*
D40*
X125222000Y-85090000D03*
X130302000Y-85090000D03*
D41*
X114655600Y-95365200D03*
X114655600Y-97065200D03*
D42*
X119139600Y-115468400D03*
X120839600Y-115468400D03*
X119190400Y-118719600D03*
X120890400Y-118719600D03*
D43*
X172720000Y-103886000D03*
D44*
X177800000Y-103886000D03*
D43*
X172720000Y-121666000D03*
D44*
X177800000Y-121666000D03*
D43*
X172720000Y-86106000D03*
D44*
X177800000Y-86106000D03*
D27*
X248412000Y-101686000D03*
D28*
X248412000Y-105186000D03*
D27*
X248412000Y-98186000D03*
X248412000Y-94686000D03*
X248412000Y-91186000D03*
X248412000Y-87686000D03*
D43*
X227330000Y-59690000D03*
D44*
X232410000Y-59690000D03*
D43*
X227330000Y-77470000D03*
D44*
X232410000Y-77470000D03*
D18*
X82042000Y-48768000D03*
D45*
X221922000Y-146558000D03*
X219022000Y-146558000D03*
D46*
X209042000Y-92303600D03*
X209042000Y-97180400D03*
D22*
X201620000Y-89154000D03*
D21*
X198120000Y-89154000D03*
D47*
X218186000Y-140462000D03*
X223266000Y-140462000D03*
X233426000Y-140462000D03*
X215646000Y-94742000D03*
X225806000Y-94742000D03*
X235966000Y-94742000D03*
D21*
X203708000Y-136144000D03*
D22*
X208708000Y-136144000D03*
M02*
