G04 #@! TF.FileFunction,Copper,L2,Bot,Signal*
%FSLAX46Y46*%
G04 Gerber Fmt 4.6, Leading zero omitted, Abs format (unit mm)*
G04 Created by KiCad (PCBNEW 4.0.7-e2-6376~58~ubuntu16.04.1) date Wed Jul 25 01:15:53 2018*
%MOMM*%
%LPD*%
G01*
G04 APERTURE LIST*
%ADD10C,0.100000*%
%ADD11R,1.300000X1.300000*%
%ADD12C,1.300000*%
%ADD13R,2.800000X2.800000*%
%ADD14C,2.800000*%
%ADD15R,3.000000X3.000000*%
%ADD16C,3.000000*%
%ADD17C,2.400000*%
%ADD18R,2.400000X2.400000*%
%ADD19O,1.250000X0.950000*%
%ADD20O,1.000000X1.550000*%
%ADD21O,1.200000X0.850000*%
%ADD22O,1.000000X1.200000*%
%ADD23O,2.000000X1.510000*%
%ADD24R,2.540000X2.540000*%
%ADD25C,2.540000*%
%ADD26C,2.300000*%
%ADD27C,0.600000*%
%ADD28C,0.750000*%
%ADD29C,0.250000*%
%ADD30C,0.500000*%
%ADD31C,0.254000*%
G04 APERTURE END LIST*
D10*
D11*
X115976400Y-138176000D03*
D12*
X115976400Y-140676000D03*
D11*
X115824000Y-131572000D03*
D12*
X115824000Y-134072000D03*
D13*
X157716000Y-52920000D03*
D14*
X161916000Y-52920000D03*
X166116000Y-52920000D03*
X170316000Y-52920000D03*
X157716000Y-58420000D03*
X161916000Y-58420000D03*
X166116000Y-58420000D03*
X170316000Y-58420000D03*
X123434000Y-70358000D03*
X119634000Y-70358000D03*
X123434000Y-57858000D03*
X119634000Y-57858000D03*
X108434000Y-70358000D03*
X104634000Y-70358000D03*
X108434000Y-57858000D03*
X104634000Y-57858000D03*
X88900000Y-67310000D03*
X88900000Y-71110000D03*
X76400000Y-67310000D03*
X76400000Y-71110000D03*
X88900000Y-82310000D03*
X88900000Y-86110000D03*
X76400000Y-82310000D03*
X76400000Y-86110000D03*
D15*
X248920000Y-76200000D03*
D16*
X248920000Y-71120000D03*
X248920000Y-66040000D03*
X248920000Y-60960000D03*
X248920000Y-55880000D03*
X248920000Y-50800000D03*
D15*
X248920000Y-142240000D03*
D16*
X248920000Y-137160000D03*
X248920000Y-132080000D03*
X248920000Y-127000000D03*
X248920000Y-121920000D03*
X248920000Y-116840000D03*
D15*
X76200000Y-101600000D03*
D16*
X76200000Y-106680000D03*
X76200000Y-111760000D03*
X76200000Y-116840000D03*
X76200000Y-121920000D03*
X76200000Y-127000000D03*
D17*
X202494000Y-54356000D03*
D18*
X205994000Y-54356000D03*
D17*
X198994000Y-54356000D03*
X195494000Y-54356000D03*
X191994000Y-54356000D03*
X188494000Y-54356000D03*
D19*
X140304000Y-60358000D03*
X145304000Y-60358000D03*
D20*
X146304000Y-57658000D03*
X139304000Y-57658000D03*
D11*
X191860800Y-82651600D03*
D12*
X194360800Y-82651600D03*
D21*
X212384000Y-62952000D03*
X209804000Y-62992000D03*
X207264000Y-62992000D03*
X204724000Y-62992000D03*
X202184000Y-62992000D03*
X199644000Y-62992000D03*
X197104000Y-62992000D03*
X194564000Y-62992000D03*
X192024000Y-62992000D03*
X189484000Y-62992000D03*
X186944000Y-62992000D03*
X184404000Y-62992000D03*
D22*
X106680000Y-85852000D03*
X106680000Y-83312000D03*
X106680000Y-80772000D03*
X116840000Y-85852000D03*
X116840000Y-83312000D03*
X116840000Y-80772000D03*
D23*
X125222000Y-85090000D03*
X130302000Y-85090000D03*
D24*
X172720000Y-103886000D03*
D25*
X177800000Y-103886000D03*
D24*
X172720000Y-121666000D03*
D25*
X177800000Y-121666000D03*
D24*
X172720000Y-86106000D03*
D25*
X177800000Y-86106000D03*
D17*
X248412000Y-101686000D03*
D18*
X248412000Y-105186000D03*
D17*
X248412000Y-98186000D03*
X248412000Y-94686000D03*
X248412000Y-91186000D03*
X248412000Y-87686000D03*
D24*
X227330000Y-59690000D03*
D25*
X232410000Y-59690000D03*
D24*
X227330000Y-77470000D03*
D25*
X232410000Y-77470000D03*
D12*
X201620000Y-89154000D03*
D11*
X198120000Y-89154000D03*
D26*
X218186000Y-140462000D03*
X223266000Y-140462000D03*
X233426000Y-140462000D03*
X215646000Y-94742000D03*
X225806000Y-94742000D03*
X235966000Y-94742000D03*
D11*
X203708000Y-136144000D03*
D12*
X208708000Y-136144000D03*
D27*
X227330000Y-71120000D03*
X227330000Y-65786000D03*
X112522000Y-99060000D03*
X209042000Y-99822000D03*
X111353600Y-91706000D03*
X118344949Y-112165152D03*
X109016800Y-126492000D03*
X125268988Y-103516758D03*
X120469377Y-107495006D03*
X120142000Y-102108000D03*
X141478000Y-61468000D03*
X134874000Y-117602000D03*
X137753443Y-105284922D03*
X134742002Y-100686912D03*
X109118400Y-138494800D03*
X134722397Y-124460000D03*
X141311279Y-99724401D03*
X138192000Y-98605122D03*
X118262400Y-91718000D03*
X125222000Y-91756800D03*
X125171200Y-96508000D03*
X125171200Y-96508000D03*
X105194800Y-112217200D03*
X99872800Y-117717600D03*
X94386400Y-113917600D03*
X120839600Y-115468400D03*
X122682000Y-113792000D03*
X144948160Y-125243023D03*
X149122872Y-125896960D03*
X132080000Y-114046000D03*
X124224564Y-109432789D03*
X160376397Y-115784949D03*
X112065026Y-118389513D03*
X116586000Y-114808000D03*
X109597134Y-116831032D03*
X118369627Y-109726144D03*
X124820621Y-106599103D03*
X118263034Y-104402228D03*
X116078000Y-104648000D03*
X122759600Y-131572000D03*
X134722397Y-127492949D03*
X121412000Y-126746000D03*
X119888000Y-125222000D03*
X123275600Y-135991600D03*
X119392000Y-122174000D03*
X113843220Y-102270019D03*
X108677200Y-102092800D03*
X122016652Y-124513989D03*
X117699659Y-124638903D03*
X133604000Y-105156000D03*
X124232631Y-112107821D03*
X103902000Y-116367600D03*
X103694800Y-118618000D03*
X115824000Y-107799759D03*
X115719901Y-109499781D03*
X108088805Y-125484798D03*
X116008815Y-111564966D03*
X124686955Y-105810337D03*
X121244789Y-107691872D03*
X124634915Y-105012015D03*
X120915461Y-106790437D03*
X126993012Y-104387012D03*
X122936000Y-105382798D03*
X134722397Y-137654949D03*
X117094000Y-113030000D03*
X119139600Y-115468400D03*
X197104000Y-82296000D03*
X211836000Y-91694000D03*
D28*
X227330000Y-71120000D02*
X227330000Y-65786000D01*
X177800000Y-99060000D02*
X177800000Y-103886000D01*
X177800000Y-86106000D02*
X177800000Y-99060000D01*
X177800000Y-99060000D02*
X195072000Y-99060000D01*
X232410000Y-77470000D02*
X232410000Y-75673949D01*
X232410000Y-75673949D02*
X232410000Y-62992000D01*
X232410000Y-59690000D02*
X232410000Y-62992000D01*
D29*
X111353600Y-91706000D02*
X111353600Y-97891600D01*
X111353600Y-97891600D02*
X112522000Y-99060000D01*
D28*
X177800000Y-103886000D02*
X177800000Y-121666000D01*
D29*
X108712000Y-119888000D02*
X116434848Y-112165152D01*
X116434848Y-112165152D02*
X118344949Y-112165152D01*
X108712000Y-125437200D02*
X108712000Y-119888000D01*
X109016800Y-125742000D02*
X108712000Y-125437200D01*
X109016800Y-126492000D02*
X109016800Y-125742000D01*
X120169378Y-107195007D02*
X120169378Y-106588007D01*
X120469377Y-107495006D02*
X120169378Y-107195007D01*
X120169378Y-106588007D02*
X123240627Y-103516758D01*
X123240627Y-103516758D02*
X125268988Y-103516758D01*
X109118400Y-138494800D02*
X113795200Y-138494800D01*
X113795200Y-138494800D02*
X115976400Y-140676000D01*
X109118400Y-138494800D02*
X109118400Y-128265103D01*
X109118400Y-128265103D02*
X106211138Y-125357841D01*
X106211138Y-125357841D02*
X106211138Y-124805938D01*
X106211138Y-124805938D02*
X99872800Y-118467600D01*
X99872800Y-118467600D02*
X99872800Y-117717600D01*
X120142000Y-102108000D02*
X125171200Y-97078800D01*
X125171200Y-97078800D02*
X125171200Y-96508000D01*
X135372940Y-100686912D02*
X134742002Y-100686912D01*
X135707014Y-101020986D02*
X135372940Y-100686912D01*
X138192000Y-98605122D02*
X142440878Y-98605122D01*
X122682000Y-113792000D02*
X121005600Y-115468400D01*
X121005600Y-115468400D02*
X120839600Y-115468400D01*
X149122872Y-125896960D02*
X145602097Y-125896960D01*
X145602097Y-125896960D02*
X144948160Y-125243023D01*
X132080000Y-114300000D02*
X132080000Y-114046000D01*
X133564949Y-115784949D02*
X132080000Y-114300000D01*
X160376397Y-115784949D02*
X133564949Y-115784949D01*
X116586000Y-114808000D02*
X115646539Y-114808000D01*
X115646539Y-114808000D02*
X112065026Y-118389513D01*
X116702022Y-109726144D02*
X109597134Y-116831032D01*
X118369627Y-109726144D02*
X116702022Y-109726144D01*
X119773506Y-102891756D02*
X126422758Y-102891756D01*
X125705923Y-106599103D02*
X124820621Y-106599103D01*
X118263034Y-104402228D02*
X119773506Y-102891756D01*
X127618013Y-104087011D02*
X127618013Y-104687013D01*
X127618013Y-104687013D02*
X125705923Y-106599103D01*
X126422758Y-102891756D02*
X127618013Y-104087011D01*
X116078000Y-104648000D02*
X118017262Y-104648000D01*
X118017262Y-104648000D02*
X118263034Y-104402228D01*
X134722397Y-127492949D02*
X126838651Y-127492949D01*
X126838651Y-127492949D02*
X122759600Y-131572000D01*
X119888000Y-125222000D02*
X121412000Y-126746000D01*
X191860800Y-82651600D02*
X191860800Y-63155200D01*
X191860800Y-63155200D02*
X192024000Y-62992000D01*
X108677200Y-102092800D02*
X113666001Y-102092800D01*
X113666001Y-102092800D02*
X113843220Y-102270019D01*
X117824573Y-124513989D02*
X117699659Y-124638903D01*
X122016652Y-124513989D02*
X117824573Y-124513989D01*
X124232631Y-112107821D02*
X126652179Y-112107821D01*
X126652179Y-112107821D02*
X133604000Y-105156000D01*
X103902000Y-116367600D02*
X103902000Y-118410800D01*
X103902000Y-118410800D02*
X103694800Y-118618000D01*
X115719901Y-109499781D02*
X115719901Y-107903858D01*
X115719901Y-107903858D02*
X115824000Y-107799759D01*
X108088805Y-119484976D02*
X108088805Y-125060534D01*
X116008815Y-111564966D02*
X108088805Y-119484976D01*
X108088805Y-125060534D02*
X108088805Y-125484798D01*
X121244789Y-107691872D02*
X122805420Y-107691872D01*
X122805420Y-107691872D02*
X124686955Y-105810337D01*
X120915461Y-106790437D02*
X122628891Y-106790437D01*
X122628891Y-106790437D02*
X124407313Y-105012015D01*
X124407313Y-105012015D02*
X124634915Y-105012015D01*
X123517201Y-105082799D02*
X124212988Y-104387012D01*
X124212988Y-104387012D02*
X126993012Y-104387012D01*
X122936000Y-105382798D02*
X123235999Y-105082799D01*
X123235999Y-105082799D02*
X123517201Y-105082799D01*
X134722397Y-137654949D02*
X116497451Y-137654949D01*
X116497451Y-137654949D02*
X115976400Y-138176000D01*
X119139600Y-115468400D02*
X119139600Y-115368400D01*
X117094000Y-113322800D02*
X117094000Y-113030000D01*
X119139600Y-115368400D02*
X117094000Y-113322800D01*
X197104000Y-82296000D02*
X212384000Y-67016000D01*
X212384000Y-67016000D02*
X212384000Y-62952000D01*
D30*
X225343999Y-91739999D02*
X225806000Y-92202000D01*
X212852000Y-91694000D02*
X212897999Y-91739999D01*
X212897999Y-91739999D02*
X225343999Y-91739999D01*
X211836000Y-91694000D02*
X212852000Y-91694000D01*
X225806000Y-92202000D02*
X225806000Y-94742000D01*
D31*
G36*
X127635000Y-87249000D02*
X120269000Y-87249000D01*
X120269000Y-85431971D01*
X123629723Y-85431971D01*
X123647730Y-85530482D01*
X123917480Y-86005642D01*
X124348532Y-86341404D01*
X124875263Y-86486651D01*
X125095000Y-86326621D01*
X125095000Y-85217000D01*
X125349000Y-85217000D01*
X125349000Y-86326621D01*
X125568737Y-86486651D01*
X126095468Y-86341404D01*
X126526520Y-86005642D01*
X126796270Y-85530482D01*
X126814277Y-85431971D01*
X126691683Y-85217000D01*
X125349000Y-85217000D01*
X125095000Y-85217000D01*
X123752317Y-85217000D01*
X123629723Y-85431971D01*
X120269000Y-85431971D01*
X120269000Y-84748029D01*
X123629723Y-84748029D01*
X123752317Y-84963000D01*
X125095000Y-84963000D01*
X125095000Y-83853379D01*
X125349000Y-83853379D01*
X125349000Y-84963000D01*
X126691683Y-84963000D01*
X126814277Y-84748029D01*
X126796270Y-84649518D01*
X126526520Y-84174358D01*
X126095468Y-83838596D01*
X125568737Y-83693349D01*
X125349000Y-83853379D01*
X125095000Y-83853379D01*
X124875263Y-83693349D01*
X124348532Y-83838596D01*
X123917480Y-84174358D01*
X123647730Y-84649518D01*
X123629723Y-84748029D01*
X120269000Y-84748029D01*
X120269000Y-81280000D01*
X120258994Y-81230590D01*
X120230553Y-81188965D01*
X120188159Y-81161685D01*
X120142000Y-81153000D01*
X117924797Y-81153000D01*
X117955312Y-81075985D01*
X117814741Y-80899000D01*
X116967000Y-80899000D01*
X116967000Y-80919000D01*
X116713000Y-80919000D01*
X116713000Y-80899000D01*
X115865259Y-80899000D01*
X115724688Y-81075985D01*
X115755203Y-81153000D01*
X114173000Y-81153000D01*
X114173000Y-80468015D01*
X115724688Y-80468015D01*
X115865259Y-80645000D01*
X116713000Y-80645000D01*
X116713000Y-79704046D01*
X116967000Y-79704046D01*
X116967000Y-80645000D01*
X117814741Y-80645000D01*
X117955312Y-80468015D01*
X117792352Y-80056731D01*
X117484405Y-79739116D01*
X117141874Y-79577881D01*
X116967000Y-79704046D01*
X116713000Y-79704046D01*
X116538126Y-79577881D01*
X116195595Y-79739116D01*
X115887648Y-80056731D01*
X115724688Y-80468015D01*
X114173000Y-80468015D01*
X114173000Y-78105000D01*
X127635000Y-78105000D01*
X127635000Y-87249000D01*
X127635000Y-87249000D01*
G37*
X127635000Y-87249000D02*
X120269000Y-87249000D01*
X120269000Y-85431971D01*
X123629723Y-85431971D01*
X123647730Y-85530482D01*
X123917480Y-86005642D01*
X124348532Y-86341404D01*
X124875263Y-86486651D01*
X125095000Y-86326621D01*
X125095000Y-85217000D01*
X125349000Y-85217000D01*
X125349000Y-86326621D01*
X125568737Y-86486651D01*
X126095468Y-86341404D01*
X126526520Y-86005642D01*
X126796270Y-85530482D01*
X126814277Y-85431971D01*
X126691683Y-85217000D01*
X125349000Y-85217000D01*
X125095000Y-85217000D01*
X123752317Y-85217000D01*
X123629723Y-85431971D01*
X120269000Y-85431971D01*
X120269000Y-84748029D01*
X123629723Y-84748029D01*
X123752317Y-84963000D01*
X125095000Y-84963000D01*
X125095000Y-83853379D01*
X125349000Y-83853379D01*
X125349000Y-84963000D01*
X126691683Y-84963000D01*
X126814277Y-84748029D01*
X126796270Y-84649518D01*
X126526520Y-84174358D01*
X126095468Y-83838596D01*
X125568737Y-83693349D01*
X125349000Y-83853379D01*
X125095000Y-83853379D01*
X124875263Y-83693349D01*
X124348532Y-83838596D01*
X123917480Y-84174358D01*
X123647730Y-84649518D01*
X123629723Y-84748029D01*
X120269000Y-84748029D01*
X120269000Y-81280000D01*
X120258994Y-81230590D01*
X120230553Y-81188965D01*
X120188159Y-81161685D01*
X120142000Y-81153000D01*
X117924797Y-81153000D01*
X117955312Y-81075985D01*
X117814741Y-80899000D01*
X116967000Y-80899000D01*
X116967000Y-80919000D01*
X116713000Y-80919000D01*
X116713000Y-80899000D01*
X115865259Y-80899000D01*
X115724688Y-81075985D01*
X115755203Y-81153000D01*
X114173000Y-81153000D01*
X114173000Y-80468015D01*
X115724688Y-80468015D01*
X115865259Y-80645000D01*
X116713000Y-80645000D01*
X116713000Y-79704046D01*
X116967000Y-79704046D01*
X116967000Y-80645000D01*
X117814741Y-80645000D01*
X117955312Y-80468015D01*
X117792352Y-80056731D01*
X117484405Y-79739116D01*
X117141874Y-79577881D01*
X116967000Y-79704046D01*
X116713000Y-79704046D01*
X116538126Y-79577881D01*
X116195595Y-79739116D01*
X115887648Y-80056731D01*
X115724688Y-80468015D01*
X114173000Y-80468015D01*
X114173000Y-78105000D01*
X127635000Y-78105000D01*
X127635000Y-87249000D01*
G36*
X114678960Y-138826000D02*
X114723238Y-139061317D01*
X114862310Y-139277441D01*
X115074510Y-139422431D01*
X115326400Y-139473440D01*
X115488785Y-139473440D01*
X115312671Y-139546389D01*
X115256990Y-139776984D01*
X115815005Y-140335000D01*
X115455795Y-140335000D01*
X115077384Y-139956590D01*
X114846789Y-140012271D01*
X114734483Y-140335000D01*
X106553000Y-140335000D01*
X106553000Y-138104007D01*
X114678960Y-138087788D01*
X114678960Y-138826000D01*
X114678960Y-138826000D01*
G37*
X114678960Y-138826000D02*
X114723238Y-139061317D01*
X114862310Y-139277441D01*
X115074510Y-139422431D01*
X115326400Y-139473440D01*
X115488785Y-139473440D01*
X115312671Y-139546389D01*
X115256990Y-139776984D01*
X115815005Y-140335000D01*
X115455795Y-140335000D01*
X115077384Y-139956590D01*
X114846789Y-140012271D01*
X114734483Y-140335000D01*
X106553000Y-140335000D01*
X106553000Y-138104007D01*
X114678960Y-138087788D01*
X114678960Y-138826000D01*
G36*
X146939000Y-56452450D02*
X146605874Y-56288881D01*
X146431000Y-56415046D01*
X146431000Y-57531000D01*
X146451000Y-57531000D01*
X146451000Y-57785000D01*
X146431000Y-57785000D01*
X146431000Y-58900954D01*
X146605874Y-59027119D01*
X146939000Y-58863550D01*
X146939000Y-62103000D01*
X131826000Y-62103000D01*
X131776590Y-62113006D01*
X131734965Y-62141447D01*
X131707685Y-62183841D01*
X131699000Y-62230000D01*
X131699000Y-84337260D01*
X131606520Y-84174358D01*
X131175468Y-83838596D01*
X130648737Y-83693349D01*
X130429000Y-83853379D01*
X130429000Y-84963000D01*
X130449000Y-84963000D01*
X130449000Y-85217000D01*
X130429000Y-85217000D01*
X130429000Y-86326621D01*
X130648737Y-86486651D01*
X131175468Y-86341404D01*
X131606520Y-86005642D01*
X131699000Y-85842740D01*
X131699000Y-98044000D01*
X131709006Y-98093410D01*
X131737447Y-98135035D01*
X131779841Y-98162315D01*
X131826000Y-98171000D01*
X141605000Y-98171000D01*
X141605000Y-105819537D01*
X135636607Y-105791001D01*
X135587150Y-105800771D01*
X135545390Y-105829012D01*
X135517907Y-105871276D01*
X135509000Y-105918000D01*
X135509000Y-115024949D01*
X133879751Y-115024949D01*
X133014901Y-114160099D01*
X133015162Y-113860833D01*
X132873117Y-113517057D01*
X132610327Y-113253808D01*
X132266799Y-113111162D01*
X131894833Y-113110838D01*
X131551057Y-113252883D01*
X131287808Y-113515673D01*
X131145162Y-113859201D01*
X131144838Y-114231167D01*
X131286883Y-114574943D01*
X131529878Y-114818362D01*
X131542599Y-114837401D01*
X133027548Y-116322350D01*
X133274110Y-116487097D01*
X133564949Y-116544949D01*
X135509000Y-116544949D01*
X135509000Y-117894426D01*
X135519006Y-117943836D01*
X135547447Y-117985461D01*
X135589841Y-118012741D01*
X135638744Y-118021396D01*
X137287000Y-117985774D01*
X137287000Y-140335000D01*
X117239690Y-140335000D01*
X117106011Y-140012271D01*
X116875416Y-139956590D01*
X116497005Y-140335000D01*
X116137795Y-140335000D01*
X116695810Y-139776984D01*
X116640129Y-139546389D01*
X116430498Y-139473440D01*
X116626400Y-139473440D01*
X116861717Y-139429162D01*
X117077841Y-139290090D01*
X117222831Y-139077890D01*
X117273840Y-138826000D01*
X117273840Y-138414949D01*
X134159934Y-138414949D01*
X134192070Y-138447141D01*
X134535598Y-138589787D01*
X134907564Y-138590111D01*
X135251340Y-138448066D01*
X135514589Y-138185276D01*
X135657235Y-137841748D01*
X135657559Y-137469782D01*
X135515514Y-137126006D01*
X135252724Y-136862757D01*
X134909196Y-136720111D01*
X134537230Y-136719787D01*
X134239000Y-136843013D01*
X134239000Y-128304628D01*
X134535598Y-128427787D01*
X134907564Y-128428111D01*
X135251340Y-128286066D01*
X135514589Y-128023276D01*
X135657235Y-127679748D01*
X135657559Y-127307782D01*
X135515514Y-126964006D01*
X135252724Y-126700757D01*
X134909196Y-126558111D01*
X134537230Y-126557787D01*
X134193454Y-126699832D01*
X134160279Y-126732949D01*
X126838651Y-126732949D01*
X126547811Y-126790801D01*
X126301250Y-126955548D01*
X125113798Y-128143000D01*
X106553000Y-128143000D01*
X106553000Y-113030000D01*
X106542994Y-112980590D01*
X106514553Y-112938965D01*
X106472159Y-112911685D01*
X106426000Y-112903000D01*
X100584000Y-112903000D01*
X100534590Y-112913006D01*
X100492965Y-112941447D01*
X100465685Y-112983841D01*
X100457000Y-113030000D01*
X100457000Y-118237000D01*
X99441000Y-118237000D01*
X99441000Y-114554000D01*
X99430994Y-114504590D01*
X99402553Y-114462965D01*
X99360159Y-114435685D01*
X99314000Y-114427000D01*
X94107000Y-114427000D01*
X94107000Y-111887895D01*
X107569000Y-111982435D01*
X107569000Y-118929979D01*
X107551404Y-118947575D01*
X107386657Y-119194137D01*
X107328805Y-119484976D01*
X107328805Y-124922335D01*
X107296613Y-124954471D01*
X107153967Y-125297999D01*
X107153643Y-125669965D01*
X107295688Y-126013741D01*
X107558478Y-126276990D01*
X107902006Y-126419636D01*
X108081862Y-126419793D01*
X108081638Y-126677167D01*
X108223683Y-127020943D01*
X108486473Y-127284192D01*
X108830001Y-127426838D01*
X109201967Y-127427162D01*
X109545743Y-127285117D01*
X109808992Y-127022327D01*
X109951638Y-126678799D01*
X109951962Y-126306833D01*
X109809917Y-125963057D01*
X109776800Y-125929882D01*
X109776800Y-125742000D01*
X109749772Y-125606121D01*
X109749151Y-125603000D01*
X119033754Y-125603000D01*
X119094883Y-125750943D01*
X119357673Y-126014192D01*
X119701201Y-126156838D01*
X119748077Y-126156879D01*
X120476878Y-126885680D01*
X120476838Y-126931167D01*
X120618883Y-127274943D01*
X120881673Y-127538192D01*
X121225201Y-127680838D01*
X121597167Y-127681162D01*
X121940943Y-127539117D01*
X122204192Y-127276327D01*
X122346838Y-126932799D01*
X122347162Y-126560833D01*
X122205117Y-126217057D01*
X121942327Y-125953808D01*
X121598799Y-125811162D01*
X121551923Y-125811121D01*
X121343802Y-125603000D01*
X134366000Y-125603000D01*
X134415410Y-125592994D01*
X134457035Y-125564553D01*
X134484315Y-125522159D01*
X134493000Y-125476000D01*
X134493000Y-117981320D01*
X134482994Y-117931910D01*
X134454643Y-117890373D01*
X129466765Y-113028841D01*
X131116606Y-111379000D01*
X134366000Y-111379000D01*
X134415410Y-111368994D01*
X134457035Y-111340553D01*
X134484315Y-111298159D01*
X134493000Y-111252000D01*
X134493000Y-105453189D01*
X134538838Y-105342799D01*
X134539162Y-104970833D01*
X134493000Y-104859112D01*
X134493000Y-102362000D01*
X134482994Y-102312590D01*
X134454553Y-102270965D01*
X134412159Y-102243685D01*
X134366000Y-102235000D01*
X128651000Y-102235000D01*
X128651000Y-97282000D01*
X128640994Y-97232590D01*
X128612553Y-97190965D01*
X128570159Y-97163685D01*
X128524000Y-97155000D01*
X124587000Y-97155000D01*
X124587000Y-96139000D01*
X128524000Y-96139000D01*
X128573410Y-96128994D01*
X128615035Y-96100553D01*
X128642315Y-96058159D01*
X128651000Y-96012000D01*
X128651000Y-92477949D01*
X128640994Y-92428539D01*
X128612553Y-92386914D01*
X128570159Y-92359634D01*
X128524255Y-92350949D01*
X117729000Y-92329255D01*
X117729000Y-91059000D01*
X128778000Y-91059000D01*
X128827410Y-91048994D01*
X128869035Y-91020553D01*
X128896315Y-90978159D01*
X128905000Y-90932000D01*
X128905000Y-85842740D01*
X128997480Y-86005642D01*
X129428532Y-86341404D01*
X129955263Y-86486651D01*
X130175000Y-86326621D01*
X130175000Y-85217000D01*
X130155000Y-85217000D01*
X130155000Y-84963000D01*
X130175000Y-84963000D01*
X130175000Y-83853379D01*
X129955263Y-83693349D01*
X129428532Y-83838596D01*
X128997480Y-84174358D01*
X128905000Y-84337260D01*
X128905000Y-73152000D01*
X128894994Y-73102590D01*
X128866553Y-73060965D01*
X128824159Y-73033685D01*
X128778000Y-73025000D01*
X116713000Y-73025000D01*
X116713000Y-71799724D01*
X118371882Y-71799724D01*
X118519455Y-72108106D01*
X119274031Y-72401405D01*
X120083409Y-72383614D01*
X120748545Y-72108106D01*
X120896118Y-71799724D01*
X122171882Y-71799724D01*
X122319455Y-72108106D01*
X123074031Y-72401405D01*
X123883409Y-72383614D01*
X124548545Y-72108106D01*
X124696118Y-71799724D01*
X123434000Y-70537605D01*
X122171882Y-71799724D01*
X120896118Y-71799724D01*
X119634000Y-70537605D01*
X118371882Y-71799724D01*
X116713000Y-71799724D01*
X116713000Y-69998031D01*
X117590595Y-69998031D01*
X117608386Y-70807409D01*
X117883894Y-71472545D01*
X118192276Y-71620118D01*
X119454395Y-70358000D01*
X119813605Y-70358000D01*
X121075724Y-71620118D01*
X121384106Y-71472545D01*
X121529236Y-71099167D01*
X121683894Y-71472545D01*
X121992276Y-71620118D01*
X123254395Y-70358000D01*
X123613605Y-70358000D01*
X124875724Y-71620118D01*
X125184106Y-71472545D01*
X125477405Y-70717969D01*
X125459614Y-69908591D01*
X125184106Y-69243455D01*
X124875724Y-69095882D01*
X123613605Y-70358000D01*
X123254395Y-70358000D01*
X121992276Y-69095882D01*
X121683894Y-69243455D01*
X121538764Y-69616833D01*
X121384106Y-69243455D01*
X121075724Y-69095882D01*
X119813605Y-70358000D01*
X119454395Y-70358000D01*
X118192276Y-69095882D01*
X117883894Y-69243455D01*
X117590595Y-69998031D01*
X116713000Y-69998031D01*
X116713000Y-68916276D01*
X118371882Y-68916276D01*
X119634000Y-70178395D01*
X120896118Y-68916276D01*
X122171882Y-68916276D01*
X123434000Y-70178395D01*
X124696118Y-68916276D01*
X124548545Y-68607894D01*
X123793969Y-68314595D01*
X122984591Y-68332386D01*
X122319455Y-68607894D01*
X122171882Y-68916276D01*
X120896118Y-68916276D01*
X120748545Y-68607894D01*
X119993969Y-68314595D01*
X119184591Y-68332386D01*
X118519455Y-68607894D01*
X118371882Y-68916276D01*
X116713000Y-68916276D01*
X116713000Y-60655938D01*
X139084732Y-60655938D01*
X139268448Y-61029821D01*
X139592951Y-61317568D01*
X140002869Y-61459229D01*
X140177000Y-61310563D01*
X140177000Y-60485000D01*
X140431000Y-60485000D01*
X140431000Y-61310563D01*
X140605131Y-61459229D01*
X141015049Y-61317568D01*
X141339552Y-61029821D01*
X141523268Y-60655938D01*
X144084732Y-60655938D01*
X144268448Y-61029821D01*
X144592951Y-61317568D01*
X145002869Y-61459229D01*
X145177000Y-61310563D01*
X145177000Y-60485000D01*
X145431000Y-60485000D01*
X145431000Y-61310563D01*
X145605131Y-61459229D01*
X146015049Y-61317568D01*
X146339552Y-61029821D01*
X146523268Y-60655938D01*
X146396734Y-60485000D01*
X145431000Y-60485000D01*
X145177000Y-60485000D01*
X144211266Y-60485000D01*
X144084732Y-60655938D01*
X141523268Y-60655938D01*
X141396734Y-60485000D01*
X140431000Y-60485000D01*
X140177000Y-60485000D01*
X139211266Y-60485000D01*
X139084732Y-60655938D01*
X116713000Y-60655938D01*
X116713000Y-60060062D01*
X139084732Y-60060062D01*
X139211266Y-60231000D01*
X140177000Y-60231000D01*
X140177000Y-59405437D01*
X140431000Y-59405437D01*
X140431000Y-60231000D01*
X141396734Y-60231000D01*
X141523268Y-60060062D01*
X144084732Y-60060062D01*
X144211266Y-60231000D01*
X145177000Y-60231000D01*
X145177000Y-59405437D01*
X145431000Y-59405437D01*
X145431000Y-60231000D01*
X146396734Y-60231000D01*
X146523268Y-60060062D01*
X146339552Y-59686179D01*
X146015049Y-59398432D01*
X145605131Y-59256771D01*
X145431000Y-59405437D01*
X145177000Y-59405437D01*
X145002869Y-59256771D01*
X144592951Y-59398432D01*
X144268448Y-59686179D01*
X144084732Y-60060062D01*
X141523268Y-60060062D01*
X141339552Y-59686179D01*
X141015049Y-59398432D01*
X140605131Y-59256771D01*
X140431000Y-59405437D01*
X140177000Y-59405437D01*
X140002869Y-59256771D01*
X139592951Y-59398432D01*
X139268448Y-59686179D01*
X139084732Y-60060062D01*
X116713000Y-60060062D01*
X116713000Y-59299724D01*
X118371882Y-59299724D01*
X118519455Y-59608106D01*
X119274031Y-59901405D01*
X120083409Y-59883614D01*
X120748545Y-59608106D01*
X120896118Y-59299724D01*
X122171882Y-59299724D01*
X122319455Y-59608106D01*
X123074031Y-59901405D01*
X123883409Y-59883614D01*
X124548545Y-59608106D01*
X124696118Y-59299724D01*
X123434000Y-58037605D01*
X122171882Y-59299724D01*
X120896118Y-59299724D01*
X119634000Y-58037605D01*
X118371882Y-59299724D01*
X116713000Y-59299724D01*
X116713000Y-57498031D01*
X117590595Y-57498031D01*
X117608386Y-58307409D01*
X117883894Y-58972545D01*
X118192276Y-59120118D01*
X119454395Y-57858000D01*
X119813605Y-57858000D01*
X121075724Y-59120118D01*
X121384106Y-58972545D01*
X121529236Y-58599167D01*
X121683894Y-58972545D01*
X121992276Y-59120118D01*
X123254395Y-57858000D01*
X123613605Y-57858000D01*
X124875724Y-59120118D01*
X125184106Y-58972545D01*
X125477405Y-58217969D01*
X125467888Y-57785000D01*
X138169000Y-57785000D01*
X138169000Y-58060000D01*
X138303998Y-58484678D01*
X138591237Y-58825368D01*
X139002126Y-59027119D01*
X139177000Y-58900954D01*
X139177000Y-57785000D01*
X139431000Y-57785000D01*
X139431000Y-58900954D01*
X139605874Y-59027119D01*
X140016763Y-58825368D01*
X140304002Y-58484678D01*
X140439000Y-58060000D01*
X140439000Y-57785000D01*
X145169000Y-57785000D01*
X145169000Y-58060000D01*
X145303998Y-58484678D01*
X145591237Y-58825368D01*
X146002126Y-59027119D01*
X146177000Y-58900954D01*
X146177000Y-57785000D01*
X145169000Y-57785000D01*
X140439000Y-57785000D01*
X139431000Y-57785000D01*
X139177000Y-57785000D01*
X138169000Y-57785000D01*
X125467888Y-57785000D01*
X125459614Y-57408591D01*
X125396409Y-57256000D01*
X138169000Y-57256000D01*
X138169000Y-57531000D01*
X139177000Y-57531000D01*
X139177000Y-56415046D01*
X139431000Y-56415046D01*
X139431000Y-57531000D01*
X140439000Y-57531000D01*
X140439000Y-57256000D01*
X145169000Y-57256000D01*
X145169000Y-57531000D01*
X146177000Y-57531000D01*
X146177000Y-56415046D01*
X146002126Y-56288881D01*
X145591237Y-56490632D01*
X145303998Y-56831322D01*
X145169000Y-57256000D01*
X140439000Y-57256000D01*
X140304002Y-56831322D01*
X140016763Y-56490632D01*
X139605874Y-56288881D01*
X139431000Y-56415046D01*
X139177000Y-56415046D01*
X139002126Y-56288881D01*
X138591237Y-56490632D01*
X138303998Y-56831322D01*
X138169000Y-57256000D01*
X125396409Y-57256000D01*
X125184106Y-56743455D01*
X124875724Y-56595882D01*
X123613605Y-57858000D01*
X123254395Y-57858000D01*
X121992276Y-56595882D01*
X121683894Y-56743455D01*
X121538764Y-57116833D01*
X121384106Y-56743455D01*
X121075724Y-56595882D01*
X119813605Y-57858000D01*
X119454395Y-57858000D01*
X118192276Y-56595882D01*
X117883894Y-56743455D01*
X117590595Y-57498031D01*
X116713000Y-57498031D01*
X116713000Y-56416276D01*
X118371882Y-56416276D01*
X119634000Y-57678395D01*
X120896118Y-56416276D01*
X122171882Y-56416276D01*
X123434000Y-57678395D01*
X124696118Y-56416276D01*
X124548545Y-56107894D01*
X123793969Y-55814595D01*
X122984591Y-55832386D01*
X122319455Y-56107894D01*
X122171882Y-56416276D01*
X120896118Y-56416276D01*
X120748545Y-56107894D01*
X119993969Y-55814595D01*
X119184591Y-55832386D01*
X118519455Y-56107894D01*
X118371882Y-56416276D01*
X116713000Y-56416276D01*
X116713000Y-53721000D01*
X146939000Y-53721000D01*
X146939000Y-56452450D01*
X146939000Y-56452450D01*
G37*
X146939000Y-56452450D02*
X146605874Y-56288881D01*
X146431000Y-56415046D01*
X146431000Y-57531000D01*
X146451000Y-57531000D01*
X146451000Y-57785000D01*
X146431000Y-57785000D01*
X146431000Y-58900954D01*
X146605874Y-59027119D01*
X146939000Y-58863550D01*
X146939000Y-62103000D01*
X131826000Y-62103000D01*
X131776590Y-62113006D01*
X131734965Y-62141447D01*
X131707685Y-62183841D01*
X131699000Y-62230000D01*
X131699000Y-84337260D01*
X131606520Y-84174358D01*
X131175468Y-83838596D01*
X130648737Y-83693349D01*
X130429000Y-83853379D01*
X130429000Y-84963000D01*
X130449000Y-84963000D01*
X130449000Y-85217000D01*
X130429000Y-85217000D01*
X130429000Y-86326621D01*
X130648737Y-86486651D01*
X131175468Y-86341404D01*
X131606520Y-86005642D01*
X131699000Y-85842740D01*
X131699000Y-98044000D01*
X131709006Y-98093410D01*
X131737447Y-98135035D01*
X131779841Y-98162315D01*
X131826000Y-98171000D01*
X141605000Y-98171000D01*
X141605000Y-105819537D01*
X135636607Y-105791001D01*
X135587150Y-105800771D01*
X135545390Y-105829012D01*
X135517907Y-105871276D01*
X135509000Y-105918000D01*
X135509000Y-115024949D01*
X133879751Y-115024949D01*
X133014901Y-114160099D01*
X133015162Y-113860833D01*
X132873117Y-113517057D01*
X132610327Y-113253808D01*
X132266799Y-113111162D01*
X131894833Y-113110838D01*
X131551057Y-113252883D01*
X131287808Y-113515673D01*
X131145162Y-113859201D01*
X131144838Y-114231167D01*
X131286883Y-114574943D01*
X131529878Y-114818362D01*
X131542599Y-114837401D01*
X133027548Y-116322350D01*
X133274110Y-116487097D01*
X133564949Y-116544949D01*
X135509000Y-116544949D01*
X135509000Y-117894426D01*
X135519006Y-117943836D01*
X135547447Y-117985461D01*
X135589841Y-118012741D01*
X135638744Y-118021396D01*
X137287000Y-117985774D01*
X137287000Y-140335000D01*
X117239690Y-140335000D01*
X117106011Y-140012271D01*
X116875416Y-139956590D01*
X116497005Y-140335000D01*
X116137795Y-140335000D01*
X116695810Y-139776984D01*
X116640129Y-139546389D01*
X116430498Y-139473440D01*
X116626400Y-139473440D01*
X116861717Y-139429162D01*
X117077841Y-139290090D01*
X117222831Y-139077890D01*
X117273840Y-138826000D01*
X117273840Y-138414949D01*
X134159934Y-138414949D01*
X134192070Y-138447141D01*
X134535598Y-138589787D01*
X134907564Y-138590111D01*
X135251340Y-138448066D01*
X135514589Y-138185276D01*
X135657235Y-137841748D01*
X135657559Y-137469782D01*
X135515514Y-137126006D01*
X135252724Y-136862757D01*
X134909196Y-136720111D01*
X134537230Y-136719787D01*
X134239000Y-136843013D01*
X134239000Y-128304628D01*
X134535598Y-128427787D01*
X134907564Y-128428111D01*
X135251340Y-128286066D01*
X135514589Y-128023276D01*
X135657235Y-127679748D01*
X135657559Y-127307782D01*
X135515514Y-126964006D01*
X135252724Y-126700757D01*
X134909196Y-126558111D01*
X134537230Y-126557787D01*
X134193454Y-126699832D01*
X134160279Y-126732949D01*
X126838651Y-126732949D01*
X126547811Y-126790801D01*
X126301250Y-126955548D01*
X125113798Y-128143000D01*
X106553000Y-128143000D01*
X106553000Y-113030000D01*
X106542994Y-112980590D01*
X106514553Y-112938965D01*
X106472159Y-112911685D01*
X106426000Y-112903000D01*
X100584000Y-112903000D01*
X100534590Y-112913006D01*
X100492965Y-112941447D01*
X100465685Y-112983841D01*
X100457000Y-113030000D01*
X100457000Y-118237000D01*
X99441000Y-118237000D01*
X99441000Y-114554000D01*
X99430994Y-114504590D01*
X99402553Y-114462965D01*
X99360159Y-114435685D01*
X99314000Y-114427000D01*
X94107000Y-114427000D01*
X94107000Y-111887895D01*
X107569000Y-111982435D01*
X107569000Y-118929979D01*
X107551404Y-118947575D01*
X107386657Y-119194137D01*
X107328805Y-119484976D01*
X107328805Y-124922335D01*
X107296613Y-124954471D01*
X107153967Y-125297999D01*
X107153643Y-125669965D01*
X107295688Y-126013741D01*
X107558478Y-126276990D01*
X107902006Y-126419636D01*
X108081862Y-126419793D01*
X108081638Y-126677167D01*
X108223683Y-127020943D01*
X108486473Y-127284192D01*
X108830001Y-127426838D01*
X109201967Y-127427162D01*
X109545743Y-127285117D01*
X109808992Y-127022327D01*
X109951638Y-126678799D01*
X109951962Y-126306833D01*
X109809917Y-125963057D01*
X109776800Y-125929882D01*
X109776800Y-125742000D01*
X109749772Y-125606121D01*
X109749151Y-125603000D01*
X119033754Y-125603000D01*
X119094883Y-125750943D01*
X119357673Y-126014192D01*
X119701201Y-126156838D01*
X119748077Y-126156879D01*
X120476878Y-126885680D01*
X120476838Y-126931167D01*
X120618883Y-127274943D01*
X120881673Y-127538192D01*
X121225201Y-127680838D01*
X121597167Y-127681162D01*
X121940943Y-127539117D01*
X122204192Y-127276327D01*
X122346838Y-126932799D01*
X122347162Y-126560833D01*
X122205117Y-126217057D01*
X121942327Y-125953808D01*
X121598799Y-125811162D01*
X121551923Y-125811121D01*
X121343802Y-125603000D01*
X134366000Y-125603000D01*
X134415410Y-125592994D01*
X134457035Y-125564553D01*
X134484315Y-125522159D01*
X134493000Y-125476000D01*
X134493000Y-117981320D01*
X134482994Y-117931910D01*
X134454643Y-117890373D01*
X129466765Y-113028841D01*
X131116606Y-111379000D01*
X134366000Y-111379000D01*
X134415410Y-111368994D01*
X134457035Y-111340553D01*
X134484315Y-111298159D01*
X134493000Y-111252000D01*
X134493000Y-105453189D01*
X134538838Y-105342799D01*
X134539162Y-104970833D01*
X134493000Y-104859112D01*
X134493000Y-102362000D01*
X134482994Y-102312590D01*
X134454553Y-102270965D01*
X134412159Y-102243685D01*
X134366000Y-102235000D01*
X128651000Y-102235000D01*
X128651000Y-97282000D01*
X128640994Y-97232590D01*
X128612553Y-97190965D01*
X128570159Y-97163685D01*
X128524000Y-97155000D01*
X124587000Y-97155000D01*
X124587000Y-96139000D01*
X128524000Y-96139000D01*
X128573410Y-96128994D01*
X128615035Y-96100553D01*
X128642315Y-96058159D01*
X128651000Y-96012000D01*
X128651000Y-92477949D01*
X128640994Y-92428539D01*
X128612553Y-92386914D01*
X128570159Y-92359634D01*
X128524255Y-92350949D01*
X117729000Y-92329255D01*
X117729000Y-91059000D01*
X128778000Y-91059000D01*
X128827410Y-91048994D01*
X128869035Y-91020553D01*
X128896315Y-90978159D01*
X128905000Y-90932000D01*
X128905000Y-85842740D01*
X128997480Y-86005642D01*
X129428532Y-86341404D01*
X129955263Y-86486651D01*
X130175000Y-86326621D01*
X130175000Y-85217000D01*
X130155000Y-85217000D01*
X130155000Y-84963000D01*
X130175000Y-84963000D01*
X130175000Y-83853379D01*
X129955263Y-83693349D01*
X129428532Y-83838596D01*
X128997480Y-84174358D01*
X128905000Y-84337260D01*
X128905000Y-73152000D01*
X128894994Y-73102590D01*
X128866553Y-73060965D01*
X128824159Y-73033685D01*
X128778000Y-73025000D01*
X116713000Y-73025000D01*
X116713000Y-71799724D01*
X118371882Y-71799724D01*
X118519455Y-72108106D01*
X119274031Y-72401405D01*
X120083409Y-72383614D01*
X120748545Y-72108106D01*
X120896118Y-71799724D01*
X122171882Y-71799724D01*
X122319455Y-72108106D01*
X123074031Y-72401405D01*
X123883409Y-72383614D01*
X124548545Y-72108106D01*
X124696118Y-71799724D01*
X123434000Y-70537605D01*
X122171882Y-71799724D01*
X120896118Y-71799724D01*
X119634000Y-70537605D01*
X118371882Y-71799724D01*
X116713000Y-71799724D01*
X116713000Y-69998031D01*
X117590595Y-69998031D01*
X117608386Y-70807409D01*
X117883894Y-71472545D01*
X118192276Y-71620118D01*
X119454395Y-70358000D01*
X119813605Y-70358000D01*
X121075724Y-71620118D01*
X121384106Y-71472545D01*
X121529236Y-71099167D01*
X121683894Y-71472545D01*
X121992276Y-71620118D01*
X123254395Y-70358000D01*
X123613605Y-70358000D01*
X124875724Y-71620118D01*
X125184106Y-71472545D01*
X125477405Y-70717969D01*
X125459614Y-69908591D01*
X125184106Y-69243455D01*
X124875724Y-69095882D01*
X123613605Y-70358000D01*
X123254395Y-70358000D01*
X121992276Y-69095882D01*
X121683894Y-69243455D01*
X121538764Y-69616833D01*
X121384106Y-69243455D01*
X121075724Y-69095882D01*
X119813605Y-70358000D01*
X119454395Y-70358000D01*
X118192276Y-69095882D01*
X117883894Y-69243455D01*
X117590595Y-69998031D01*
X116713000Y-69998031D01*
X116713000Y-68916276D01*
X118371882Y-68916276D01*
X119634000Y-70178395D01*
X120896118Y-68916276D01*
X122171882Y-68916276D01*
X123434000Y-70178395D01*
X124696118Y-68916276D01*
X124548545Y-68607894D01*
X123793969Y-68314595D01*
X122984591Y-68332386D01*
X122319455Y-68607894D01*
X122171882Y-68916276D01*
X120896118Y-68916276D01*
X120748545Y-68607894D01*
X119993969Y-68314595D01*
X119184591Y-68332386D01*
X118519455Y-68607894D01*
X118371882Y-68916276D01*
X116713000Y-68916276D01*
X116713000Y-60655938D01*
X139084732Y-60655938D01*
X139268448Y-61029821D01*
X139592951Y-61317568D01*
X140002869Y-61459229D01*
X140177000Y-61310563D01*
X140177000Y-60485000D01*
X140431000Y-60485000D01*
X140431000Y-61310563D01*
X140605131Y-61459229D01*
X141015049Y-61317568D01*
X141339552Y-61029821D01*
X141523268Y-60655938D01*
X144084732Y-60655938D01*
X144268448Y-61029821D01*
X144592951Y-61317568D01*
X145002869Y-61459229D01*
X145177000Y-61310563D01*
X145177000Y-60485000D01*
X145431000Y-60485000D01*
X145431000Y-61310563D01*
X145605131Y-61459229D01*
X146015049Y-61317568D01*
X146339552Y-61029821D01*
X146523268Y-60655938D01*
X146396734Y-60485000D01*
X145431000Y-60485000D01*
X145177000Y-60485000D01*
X144211266Y-60485000D01*
X144084732Y-60655938D01*
X141523268Y-60655938D01*
X141396734Y-60485000D01*
X140431000Y-60485000D01*
X140177000Y-60485000D01*
X139211266Y-60485000D01*
X139084732Y-60655938D01*
X116713000Y-60655938D01*
X116713000Y-60060062D01*
X139084732Y-60060062D01*
X139211266Y-60231000D01*
X140177000Y-60231000D01*
X140177000Y-59405437D01*
X140431000Y-59405437D01*
X140431000Y-60231000D01*
X141396734Y-60231000D01*
X141523268Y-60060062D01*
X144084732Y-60060062D01*
X144211266Y-60231000D01*
X145177000Y-60231000D01*
X145177000Y-59405437D01*
X145431000Y-59405437D01*
X145431000Y-60231000D01*
X146396734Y-60231000D01*
X146523268Y-60060062D01*
X146339552Y-59686179D01*
X146015049Y-59398432D01*
X145605131Y-59256771D01*
X145431000Y-59405437D01*
X145177000Y-59405437D01*
X145002869Y-59256771D01*
X144592951Y-59398432D01*
X144268448Y-59686179D01*
X144084732Y-60060062D01*
X141523268Y-60060062D01*
X141339552Y-59686179D01*
X141015049Y-59398432D01*
X140605131Y-59256771D01*
X140431000Y-59405437D01*
X140177000Y-59405437D01*
X140002869Y-59256771D01*
X139592951Y-59398432D01*
X139268448Y-59686179D01*
X139084732Y-60060062D01*
X116713000Y-60060062D01*
X116713000Y-59299724D01*
X118371882Y-59299724D01*
X118519455Y-59608106D01*
X119274031Y-59901405D01*
X120083409Y-59883614D01*
X120748545Y-59608106D01*
X120896118Y-59299724D01*
X122171882Y-59299724D01*
X122319455Y-59608106D01*
X123074031Y-59901405D01*
X123883409Y-59883614D01*
X124548545Y-59608106D01*
X124696118Y-59299724D01*
X123434000Y-58037605D01*
X122171882Y-59299724D01*
X120896118Y-59299724D01*
X119634000Y-58037605D01*
X118371882Y-59299724D01*
X116713000Y-59299724D01*
X116713000Y-57498031D01*
X117590595Y-57498031D01*
X117608386Y-58307409D01*
X117883894Y-58972545D01*
X118192276Y-59120118D01*
X119454395Y-57858000D01*
X119813605Y-57858000D01*
X121075724Y-59120118D01*
X121384106Y-58972545D01*
X121529236Y-58599167D01*
X121683894Y-58972545D01*
X121992276Y-59120118D01*
X123254395Y-57858000D01*
X123613605Y-57858000D01*
X124875724Y-59120118D01*
X125184106Y-58972545D01*
X125477405Y-58217969D01*
X125467888Y-57785000D01*
X138169000Y-57785000D01*
X138169000Y-58060000D01*
X138303998Y-58484678D01*
X138591237Y-58825368D01*
X139002126Y-59027119D01*
X139177000Y-58900954D01*
X139177000Y-57785000D01*
X139431000Y-57785000D01*
X139431000Y-58900954D01*
X139605874Y-59027119D01*
X140016763Y-58825368D01*
X140304002Y-58484678D01*
X140439000Y-58060000D01*
X140439000Y-57785000D01*
X145169000Y-57785000D01*
X145169000Y-58060000D01*
X145303998Y-58484678D01*
X145591237Y-58825368D01*
X146002126Y-59027119D01*
X146177000Y-58900954D01*
X146177000Y-57785000D01*
X145169000Y-57785000D01*
X140439000Y-57785000D01*
X139431000Y-57785000D01*
X139177000Y-57785000D01*
X138169000Y-57785000D01*
X125467888Y-57785000D01*
X125459614Y-57408591D01*
X125396409Y-57256000D01*
X138169000Y-57256000D01*
X138169000Y-57531000D01*
X139177000Y-57531000D01*
X139177000Y-56415046D01*
X139431000Y-56415046D01*
X139431000Y-57531000D01*
X140439000Y-57531000D01*
X140439000Y-57256000D01*
X145169000Y-57256000D01*
X145169000Y-57531000D01*
X146177000Y-57531000D01*
X146177000Y-56415046D01*
X146002126Y-56288881D01*
X145591237Y-56490632D01*
X145303998Y-56831322D01*
X145169000Y-57256000D01*
X140439000Y-57256000D01*
X140304002Y-56831322D01*
X140016763Y-56490632D01*
X139605874Y-56288881D01*
X139431000Y-56415046D01*
X139177000Y-56415046D01*
X139002126Y-56288881D01*
X138591237Y-56490632D01*
X138303998Y-56831322D01*
X138169000Y-57256000D01*
X125396409Y-57256000D01*
X125184106Y-56743455D01*
X124875724Y-56595882D01*
X123613605Y-57858000D01*
X123254395Y-57858000D01*
X121992276Y-56595882D01*
X121683894Y-56743455D01*
X121538764Y-57116833D01*
X121384106Y-56743455D01*
X121075724Y-56595882D01*
X119813605Y-57858000D01*
X119454395Y-57858000D01*
X118192276Y-56595882D01*
X117883894Y-56743455D01*
X117590595Y-57498031D01*
X116713000Y-57498031D01*
X116713000Y-56416276D01*
X118371882Y-56416276D01*
X119634000Y-57678395D01*
X120896118Y-56416276D01*
X122171882Y-56416276D01*
X123434000Y-57678395D01*
X124696118Y-56416276D01*
X124548545Y-56107894D01*
X123793969Y-55814595D01*
X122984591Y-55832386D01*
X122319455Y-56107894D01*
X122171882Y-56416276D01*
X120896118Y-56416276D01*
X120748545Y-56107894D01*
X119993969Y-55814595D01*
X119184591Y-55832386D01*
X118519455Y-56107894D01*
X118371882Y-56416276D01*
X116713000Y-56416276D01*
X116713000Y-53721000D01*
X146939000Y-53721000D01*
X146939000Y-56452450D01*
G36*
X251333000Y-73533000D02*
X246507000Y-73533000D01*
X246507000Y-72633970D01*
X247585635Y-72633970D01*
X247745418Y-72952739D01*
X248536187Y-73262723D01*
X249385387Y-73246497D01*
X250094582Y-72952739D01*
X250254365Y-72633970D01*
X248920000Y-71299605D01*
X247585635Y-72633970D01*
X246507000Y-72633970D01*
X246507000Y-70736187D01*
X246777277Y-70736187D01*
X246793503Y-71585387D01*
X247087261Y-72294582D01*
X247406030Y-72454365D01*
X248740395Y-71120000D01*
X249099605Y-71120000D01*
X250433970Y-72454365D01*
X250752739Y-72294582D01*
X251062723Y-71503813D01*
X251046497Y-70654613D01*
X250752739Y-69945418D01*
X250433970Y-69785635D01*
X249099605Y-71120000D01*
X248740395Y-71120000D01*
X247406030Y-69785635D01*
X247087261Y-69945418D01*
X246777277Y-70736187D01*
X246507000Y-70736187D01*
X246507000Y-69606030D01*
X247585635Y-69606030D01*
X248920000Y-70940395D01*
X250254365Y-69606030D01*
X250094582Y-69287261D01*
X249303813Y-68977277D01*
X248454613Y-68993503D01*
X247745418Y-69287261D01*
X247585635Y-69606030D01*
X246507000Y-69606030D01*
X246507000Y-66462815D01*
X246784630Y-66462815D01*
X247108980Y-67247800D01*
X247709041Y-67848909D01*
X248493459Y-68174628D01*
X249342815Y-68175370D01*
X250127800Y-67851020D01*
X250728909Y-67250959D01*
X251054628Y-66466541D01*
X251055370Y-65617185D01*
X250731020Y-64832200D01*
X250130959Y-64231091D01*
X249346541Y-63905372D01*
X248497185Y-63904630D01*
X247712200Y-64228980D01*
X247111091Y-64829041D01*
X246785372Y-65613459D01*
X246784630Y-66462815D01*
X246507000Y-66462815D01*
X246507000Y-64262000D01*
X246496994Y-64212590D01*
X246468553Y-64170965D01*
X246426159Y-64143685D01*
X246380000Y-64135000D01*
X213144000Y-64135000D01*
X213144000Y-63827637D01*
X213332728Y-63701533D01*
X213562507Y-63357644D01*
X213643195Y-62952000D01*
X213562507Y-62546356D01*
X213514141Y-62473970D01*
X247585635Y-62473970D01*
X247745418Y-62792739D01*
X248536187Y-63102723D01*
X249385387Y-63086497D01*
X250094582Y-62792739D01*
X250254365Y-62473970D01*
X248920000Y-61139605D01*
X247585635Y-62473970D01*
X213514141Y-62473970D01*
X213332728Y-62202467D01*
X212988839Y-61972688D01*
X212583195Y-61892000D01*
X212184805Y-61892000D01*
X211779161Y-61972688D01*
X211435272Y-62202467D01*
X211205493Y-62546356D01*
X211124805Y-62952000D01*
X211205493Y-63357644D01*
X211435272Y-63701533D01*
X211624000Y-63827637D01*
X211624000Y-64135000D01*
X196596000Y-64135000D01*
X196546590Y-64145006D01*
X196504965Y-64173447D01*
X196477685Y-64215841D01*
X196469000Y-64262000D01*
X196469000Y-81608755D01*
X196311808Y-81765673D01*
X196169162Y-82109201D01*
X196168838Y-82481167D01*
X196310883Y-82824943D01*
X196469000Y-82983336D01*
X196469000Y-86868000D01*
X196479006Y-86917410D01*
X196507447Y-86959035D01*
X196549841Y-86986315D01*
X196596275Y-86995000D01*
X199771000Y-86988132D01*
X199771000Y-91313000D01*
X196596000Y-91313000D01*
X196546590Y-91323006D01*
X196504965Y-91351447D01*
X196477685Y-91393841D01*
X196469000Y-91440000D01*
X196469000Y-99060000D01*
X196479006Y-99109410D01*
X196507447Y-99151035D01*
X196549841Y-99178315D01*
X196596000Y-99187000D01*
X245618000Y-99187000D01*
X245667410Y-99176994D01*
X245709035Y-99148553D01*
X245736315Y-99106159D01*
X245745000Y-99060000D01*
X245745000Y-98549403D01*
X246576682Y-98549403D01*
X246855455Y-99224086D01*
X247371199Y-99740730D01*
X247828957Y-99930808D01*
X247417565Y-100101212D01*
X247294430Y-100388825D01*
X248412000Y-101506395D01*
X249529570Y-100388825D01*
X249406435Y-100101212D01*
X248977542Y-99937796D01*
X249450086Y-99742545D01*
X249966730Y-99226801D01*
X250246681Y-98552605D01*
X250247318Y-97822597D01*
X249968545Y-97147914D01*
X249452801Y-96631270D01*
X248995043Y-96441192D01*
X249406435Y-96270788D01*
X249529570Y-95983175D01*
X248412000Y-94865605D01*
X247294430Y-95983175D01*
X247417565Y-96270788D01*
X247846458Y-96434204D01*
X247373914Y-96629455D01*
X246857270Y-97145199D01*
X246577319Y-97819395D01*
X246576682Y-98549403D01*
X245745000Y-98549403D01*
X245745000Y-94373734D01*
X246567293Y-94373734D01*
X246588214Y-95103443D01*
X246827212Y-95680435D01*
X247114825Y-95803570D01*
X248232395Y-94686000D01*
X248591605Y-94686000D01*
X249709175Y-95803570D01*
X249996788Y-95680435D01*
X250256707Y-94998266D01*
X250235786Y-94268557D01*
X249996788Y-93691565D01*
X249709175Y-93568430D01*
X248591605Y-94686000D01*
X248232395Y-94686000D01*
X247114825Y-93568430D01*
X246827212Y-93691565D01*
X246567293Y-94373734D01*
X245745000Y-94373734D01*
X245745000Y-91549403D01*
X246576682Y-91549403D01*
X246855455Y-92224086D01*
X247371199Y-92740730D01*
X247828957Y-92930808D01*
X247417565Y-93101212D01*
X247294430Y-93388825D01*
X248412000Y-94506395D01*
X249529570Y-93388825D01*
X249406435Y-93101212D01*
X248977542Y-92937796D01*
X249450086Y-92742545D01*
X249966730Y-92226801D01*
X250246681Y-91552605D01*
X250247318Y-90822597D01*
X249968545Y-90147914D01*
X249452801Y-89631270D01*
X248995043Y-89441192D01*
X249406435Y-89270788D01*
X249529570Y-88983175D01*
X248412000Y-87865605D01*
X247294430Y-88983175D01*
X247417565Y-89270788D01*
X247846458Y-89434204D01*
X247373914Y-89629455D01*
X246857270Y-90145199D01*
X246577319Y-90819395D01*
X246576682Y-91549403D01*
X245745000Y-91549403D01*
X245745000Y-87373734D01*
X246567293Y-87373734D01*
X246588214Y-88103443D01*
X246827212Y-88680435D01*
X247114825Y-88803570D01*
X248232395Y-87686000D01*
X248591605Y-87686000D01*
X249709175Y-88803570D01*
X249996788Y-88680435D01*
X250256707Y-87998266D01*
X250235786Y-87268557D01*
X249996788Y-86691565D01*
X249709175Y-86568430D01*
X248591605Y-87686000D01*
X248232395Y-87686000D01*
X247114825Y-86568430D01*
X246827212Y-86691565D01*
X246567293Y-87373734D01*
X245745000Y-87373734D01*
X245745000Y-86233000D01*
X247361143Y-86233000D01*
X247294430Y-86388825D01*
X248412000Y-87506395D01*
X249529570Y-86388825D01*
X249462857Y-86233000D01*
X250825000Y-86233000D01*
X250825000Y-103251000D01*
X249414907Y-103251000D01*
X249529570Y-102983175D01*
X248412000Y-101865605D01*
X247294430Y-102983175D01*
X247409093Y-103251000D01*
X245745000Y-103251000D01*
X245745000Y-101600000D01*
X245734994Y-101550590D01*
X245706553Y-101508965D01*
X245664159Y-101481685D01*
X245618000Y-101473000D01*
X227584000Y-101473000D01*
X227534590Y-101483006D01*
X227492965Y-101511447D01*
X227465685Y-101553841D01*
X227457000Y-101600000D01*
X227457000Y-121920000D01*
X227467006Y-121969410D01*
X227495447Y-122011035D01*
X227537841Y-122038315D01*
X227584000Y-122047000D01*
X246380000Y-122047000D01*
X246429410Y-122036994D01*
X246471035Y-122008553D01*
X246498315Y-121966159D01*
X246507000Y-121920000D01*
X246507000Y-118353970D01*
X247585635Y-118353970D01*
X247745418Y-118672739D01*
X248536187Y-118982723D01*
X249385387Y-118966497D01*
X250094582Y-118672739D01*
X250254365Y-118353970D01*
X248920000Y-117019605D01*
X247585635Y-118353970D01*
X246507000Y-118353970D01*
X246507000Y-116456187D01*
X246777277Y-116456187D01*
X246793503Y-117305387D01*
X247087261Y-118014582D01*
X247406030Y-118174365D01*
X248740395Y-116840000D01*
X249099605Y-116840000D01*
X250433970Y-118174365D01*
X250752739Y-118014582D01*
X251062723Y-117223813D01*
X251046497Y-116374613D01*
X250752739Y-115665418D01*
X250433970Y-115505635D01*
X249099605Y-116840000D01*
X248740395Y-116840000D01*
X247406030Y-115505635D01*
X247087261Y-115665418D01*
X246777277Y-116456187D01*
X246507000Y-116456187D01*
X246507000Y-115326030D01*
X247585635Y-115326030D01*
X248920000Y-116660395D01*
X250254365Y-115326030D01*
X250094582Y-115007261D01*
X249303813Y-114697277D01*
X248454613Y-114713503D01*
X247745418Y-115007261D01*
X247585635Y-115326030D01*
X246507000Y-115326030D01*
X246507000Y-114427000D01*
X251333000Y-114427000D01*
X251333000Y-139573000D01*
X246507000Y-139573000D01*
X246507000Y-138673970D01*
X247585635Y-138673970D01*
X247745418Y-138992739D01*
X248536187Y-139302723D01*
X249385387Y-139286497D01*
X250094582Y-138992739D01*
X250254365Y-138673970D01*
X248920000Y-137339605D01*
X247585635Y-138673970D01*
X246507000Y-138673970D01*
X246507000Y-136776187D01*
X246777277Y-136776187D01*
X246793503Y-137625387D01*
X247087261Y-138334582D01*
X247406030Y-138494365D01*
X248740395Y-137160000D01*
X249099605Y-137160000D01*
X250433970Y-138494365D01*
X250752739Y-138334582D01*
X251062723Y-137543813D01*
X251046497Y-136694613D01*
X250752739Y-135985418D01*
X250433970Y-135825635D01*
X249099605Y-137160000D01*
X248740395Y-137160000D01*
X247406030Y-135825635D01*
X247087261Y-135985418D01*
X246777277Y-136776187D01*
X246507000Y-136776187D01*
X246507000Y-135646030D01*
X247585635Y-135646030D01*
X248920000Y-136980395D01*
X250254365Y-135646030D01*
X250094582Y-135327261D01*
X249303813Y-135017277D01*
X248454613Y-135033503D01*
X247745418Y-135327261D01*
X247585635Y-135646030D01*
X246507000Y-135646030D01*
X246507000Y-132502815D01*
X246784630Y-132502815D01*
X247108980Y-133287800D01*
X247709041Y-133888909D01*
X248493459Y-134214628D01*
X249342815Y-134215370D01*
X250127800Y-133891020D01*
X250728909Y-133290959D01*
X251054628Y-132506541D01*
X251055370Y-131657185D01*
X250731020Y-130872200D01*
X250130959Y-130271091D01*
X249346541Y-129945372D01*
X248497185Y-129944630D01*
X247712200Y-130268980D01*
X247111091Y-130869041D01*
X246785372Y-131653459D01*
X246784630Y-132502815D01*
X246507000Y-132502815D01*
X246507000Y-128513970D01*
X247585635Y-128513970D01*
X247745418Y-128832739D01*
X248536187Y-129142723D01*
X249385387Y-129126497D01*
X250094582Y-128832739D01*
X250254365Y-128513970D01*
X248920000Y-127179605D01*
X247585635Y-128513970D01*
X246507000Y-128513970D01*
X246507000Y-126616187D01*
X246777277Y-126616187D01*
X246793503Y-127465387D01*
X247087261Y-128174582D01*
X247406030Y-128334365D01*
X248740395Y-127000000D01*
X249099605Y-127000000D01*
X250433970Y-128334365D01*
X250752739Y-128174582D01*
X251062723Y-127383813D01*
X251046497Y-126534613D01*
X250752739Y-125825418D01*
X250433970Y-125665635D01*
X249099605Y-127000000D01*
X248740395Y-127000000D01*
X247406030Y-125665635D01*
X247087261Y-125825418D01*
X246777277Y-126616187D01*
X246507000Y-126616187D01*
X246507000Y-125486030D01*
X247585635Y-125486030D01*
X248920000Y-126820395D01*
X250254365Y-125486030D01*
X250094582Y-125167261D01*
X249303813Y-124857277D01*
X248454613Y-124873503D01*
X247745418Y-125167261D01*
X247585635Y-125486030D01*
X246507000Y-125486030D01*
X246507000Y-124460000D01*
X246496994Y-124410590D01*
X246468553Y-124368965D01*
X246426159Y-124341685D01*
X246380000Y-124333000D01*
X227584000Y-124333000D01*
X227534590Y-124343006D01*
X227492965Y-124371447D01*
X227465685Y-124413841D01*
X227457000Y-124460000D01*
X227457000Y-149479000D01*
X211276668Y-149479000D01*
X211277387Y-148655381D01*
X210937845Y-147833628D01*
X210309679Y-147204364D01*
X209488519Y-146863389D01*
X208599381Y-146862613D01*
X207777628Y-147202155D01*
X207148364Y-147830321D01*
X206807389Y-148651481D01*
X206806667Y-149479000D01*
X154380668Y-149479000D01*
X154381387Y-148655381D01*
X154041845Y-147833628D01*
X153413679Y-147204364D01*
X152592519Y-146863389D01*
X151703381Y-146862613D01*
X150881628Y-147202155D01*
X150252364Y-147830321D01*
X149911389Y-148651481D01*
X149910667Y-149479000D01*
X84276668Y-149479000D01*
X84277387Y-148655381D01*
X83937845Y-147833628D01*
X83309679Y-147204364D01*
X82488519Y-146863389D01*
X81599381Y-146862613D01*
X80777628Y-147202155D01*
X80148364Y-147830321D01*
X79807389Y-148651481D01*
X79806667Y-149479000D01*
X71247000Y-149479000D01*
X71247000Y-130175000D01*
X71374000Y-130175000D01*
X71423410Y-130164994D01*
X71465035Y-130136553D01*
X71492315Y-130094159D01*
X71500998Y-130047380D01*
X71493519Y-128513970D01*
X74865635Y-128513970D01*
X75025418Y-128832739D01*
X75816187Y-129142723D01*
X76665387Y-129126497D01*
X77374582Y-128832739D01*
X77534365Y-128513970D01*
X76200000Y-127179605D01*
X74865635Y-128513970D01*
X71493519Y-128513970D01*
X71484261Y-126616187D01*
X74057277Y-126616187D01*
X74073503Y-127465387D01*
X74367261Y-128174582D01*
X74686030Y-128334365D01*
X76020395Y-127000000D01*
X76379605Y-127000000D01*
X77713970Y-128334365D01*
X78032739Y-128174582D01*
X78342723Y-127383813D01*
X78326497Y-126534613D01*
X78032739Y-125825418D01*
X77713970Y-125665635D01*
X76379605Y-127000000D01*
X76020395Y-127000000D01*
X74686030Y-125665635D01*
X74367261Y-125825418D01*
X74057277Y-126616187D01*
X71484261Y-126616187D01*
X71478749Y-125486030D01*
X74865635Y-125486030D01*
X76200000Y-126820395D01*
X77534365Y-125486030D01*
X77374582Y-125167261D01*
X76583813Y-124857277D01*
X75734613Y-124873503D01*
X75025418Y-125167261D01*
X74865635Y-125486030D01*
X71478749Y-125486030D01*
X71463416Y-122342815D01*
X74064630Y-122342815D01*
X74388980Y-123127800D01*
X74989041Y-123728909D01*
X75773459Y-124054628D01*
X76622815Y-124055370D01*
X77407800Y-123731020D01*
X78008909Y-123130959D01*
X78334628Y-122346541D01*
X78335370Y-121497185D01*
X78011020Y-120712200D01*
X77410959Y-120111091D01*
X76626541Y-119785372D01*
X75777185Y-119784630D01*
X74992200Y-120108980D01*
X74391091Y-120709041D01*
X74065372Y-121493459D01*
X74064630Y-122342815D01*
X71463416Y-122342815D01*
X71443959Y-118353970D01*
X74865635Y-118353970D01*
X75025418Y-118672739D01*
X75816187Y-118982723D01*
X76665387Y-118966497D01*
X77374582Y-118672739D01*
X77534365Y-118353970D01*
X76200000Y-117019605D01*
X74865635Y-118353970D01*
X71443959Y-118353970D01*
X71434701Y-116456187D01*
X74057277Y-116456187D01*
X74073503Y-117305387D01*
X74367261Y-118014582D01*
X74686030Y-118174365D01*
X76020395Y-116840000D01*
X76379605Y-116840000D01*
X77713970Y-118174365D01*
X78032739Y-118014582D01*
X78342723Y-117223813D01*
X78326497Y-116374613D01*
X78032739Y-115665418D01*
X77713970Y-115505635D01*
X76379605Y-116840000D01*
X76020395Y-116840000D01*
X74686030Y-115505635D01*
X74367261Y-115665418D01*
X74057277Y-116456187D01*
X71434701Y-116456187D01*
X71429189Y-115326030D01*
X74865635Y-115326030D01*
X76200000Y-116660395D01*
X77534365Y-115326030D01*
X77374582Y-115007261D01*
X76583813Y-114697277D01*
X75734613Y-114713503D01*
X75025418Y-115007261D01*
X74865635Y-115326030D01*
X71429189Y-115326030D01*
X71413856Y-112182815D01*
X74064630Y-112182815D01*
X74388980Y-112967800D01*
X74989041Y-113568909D01*
X75773459Y-113894628D01*
X76622815Y-113895370D01*
X77407800Y-113571020D01*
X78008909Y-112970959D01*
X78334628Y-112186541D01*
X78335370Y-111337185D01*
X78011020Y-110552200D01*
X77410959Y-109951091D01*
X76626541Y-109625372D01*
X75777185Y-109624630D01*
X74992200Y-109948980D01*
X74391091Y-110549041D01*
X74065372Y-111333459D01*
X74064630Y-112182815D01*
X71413856Y-112182815D01*
X71394398Y-108193970D01*
X74865635Y-108193970D01*
X75025418Y-108512739D01*
X75816187Y-108822723D01*
X76665387Y-108806497D01*
X77374582Y-108512739D01*
X77534365Y-108193970D01*
X76200000Y-106859605D01*
X74865635Y-108193970D01*
X71394398Y-108193970D01*
X71385140Y-106296187D01*
X74057277Y-106296187D01*
X74073503Y-107145387D01*
X74367261Y-107854582D01*
X74686030Y-108014365D01*
X76020395Y-106680000D01*
X76379605Y-106680000D01*
X77713970Y-108014365D01*
X78032739Y-107854582D01*
X78342723Y-107063813D01*
X78326497Y-106214613D01*
X78032739Y-105505418D01*
X77713970Y-105345635D01*
X76379605Y-106680000D01*
X76020395Y-106680000D01*
X74686030Y-105345635D01*
X74367261Y-105505418D01*
X74057277Y-106296187D01*
X71385140Y-106296187D01*
X71379627Y-105166030D01*
X74865635Y-105166030D01*
X76200000Y-106500395D01*
X77534365Y-105166030D01*
X77374582Y-104847261D01*
X76583813Y-104537277D01*
X75734613Y-104553503D01*
X75025418Y-104847261D01*
X74865635Y-105166030D01*
X71379627Y-105166030D01*
X71354914Y-100100000D01*
X74052560Y-100100000D01*
X74052560Y-103100000D01*
X74096838Y-103335317D01*
X74235910Y-103551441D01*
X74448110Y-103696431D01*
X74700000Y-103747440D01*
X77700000Y-103747440D01*
X77935317Y-103703162D01*
X78151441Y-103564090D01*
X78296431Y-103351890D01*
X78347440Y-103100000D01*
X78347440Y-100100000D01*
X78303162Y-99864683D01*
X78164090Y-99648559D01*
X77951890Y-99503569D01*
X77700000Y-99452560D01*
X74700000Y-99452560D01*
X74464683Y-99496838D01*
X74248559Y-99635910D01*
X74103569Y-99848110D01*
X74052560Y-100100000D01*
X71354914Y-100100000D01*
X71293703Y-87551724D01*
X75137882Y-87551724D01*
X75285455Y-87860106D01*
X76040031Y-88153405D01*
X76849409Y-88135614D01*
X77514545Y-87860106D01*
X77662118Y-87551724D01*
X87637882Y-87551724D01*
X87785455Y-87860106D01*
X88540031Y-88153405D01*
X89349409Y-88135614D01*
X90014545Y-87860106D01*
X90162118Y-87551724D01*
X88900000Y-86289605D01*
X87637882Y-87551724D01*
X77662118Y-87551724D01*
X76400000Y-86289605D01*
X75137882Y-87551724D01*
X71293703Y-87551724D01*
X71284914Y-85750031D01*
X74356595Y-85750031D01*
X74374386Y-86559409D01*
X74649894Y-87224545D01*
X74958276Y-87372118D01*
X76220395Y-86110000D01*
X76579605Y-86110000D01*
X77841724Y-87372118D01*
X78150106Y-87224545D01*
X78443405Y-86469969D01*
X78427580Y-85750031D01*
X86856595Y-85750031D01*
X86874386Y-86559409D01*
X87149894Y-87224545D01*
X87458276Y-87372118D01*
X88720395Y-86110000D01*
X89079605Y-86110000D01*
X90341724Y-87372118D01*
X90650106Y-87224545D01*
X90943405Y-86469969D01*
X90925614Y-85660591D01*
X90650106Y-84995455D01*
X90341724Y-84847882D01*
X89079605Y-86110000D01*
X88720395Y-86110000D01*
X87458276Y-84847882D01*
X87149894Y-84995455D01*
X86856595Y-85750031D01*
X78427580Y-85750031D01*
X78425614Y-85660591D01*
X78150106Y-84995455D01*
X77841724Y-84847882D01*
X76579605Y-86110000D01*
X76220395Y-86110000D01*
X74958276Y-84847882D01*
X74649894Y-84995455D01*
X74356595Y-85750031D01*
X71284914Y-85750031D01*
X71275167Y-83751724D01*
X75137882Y-83751724D01*
X75285455Y-84060106D01*
X75658833Y-84205236D01*
X75285455Y-84359894D01*
X75137882Y-84668276D01*
X76400000Y-85930395D01*
X77662118Y-84668276D01*
X77514545Y-84359894D01*
X77141167Y-84214764D01*
X77514545Y-84060106D01*
X77662118Y-83751724D01*
X87637882Y-83751724D01*
X87785455Y-84060106D01*
X88158833Y-84205236D01*
X87785455Y-84359894D01*
X87637882Y-84668276D01*
X88900000Y-85930395D01*
X90162118Y-84668276D01*
X90014545Y-84359894D01*
X89641167Y-84214764D01*
X90014545Y-84060106D01*
X90162118Y-83751724D01*
X88900000Y-82489605D01*
X87637882Y-83751724D01*
X77662118Y-83751724D01*
X76400000Y-82489605D01*
X75137882Y-83751724D01*
X71275167Y-83751724D01*
X71266378Y-81950031D01*
X74356595Y-81950031D01*
X74374386Y-82759409D01*
X74649894Y-83424545D01*
X74958276Y-83572118D01*
X76220395Y-82310000D01*
X76579605Y-82310000D01*
X77841724Y-83572118D01*
X78150106Y-83424545D01*
X78443405Y-82669969D01*
X78427580Y-81950031D01*
X86856595Y-81950031D01*
X86874386Y-82759409D01*
X87149894Y-83424545D01*
X87458276Y-83572118D01*
X88720395Y-82310000D01*
X89079605Y-82310000D01*
X90341724Y-83572118D01*
X90650106Y-83424545D01*
X90943405Y-82669969D01*
X90925614Y-81860591D01*
X90650106Y-81195455D01*
X90341724Y-81047882D01*
X89079605Y-82310000D01*
X88720395Y-82310000D01*
X87458276Y-81047882D01*
X87149894Y-81195455D01*
X86856595Y-81950031D01*
X78427580Y-81950031D01*
X78425614Y-81860591D01*
X78150106Y-81195455D01*
X77841724Y-81047882D01*
X76579605Y-82310000D01*
X76220395Y-82310000D01*
X74958276Y-81047882D01*
X74649894Y-81195455D01*
X74356595Y-81950031D01*
X71266378Y-81950031D01*
X71261101Y-80868276D01*
X75137882Y-80868276D01*
X76400000Y-82130395D01*
X77662118Y-80868276D01*
X87637882Y-80868276D01*
X88900000Y-82130395D01*
X90162118Y-80868276D01*
X90014545Y-80559894D01*
X89778167Y-80468015D01*
X105564688Y-80468015D01*
X105705259Y-80645000D01*
X106553000Y-80645000D01*
X106553000Y-79704046D01*
X106807000Y-79704046D01*
X106807000Y-80645000D01*
X107654741Y-80645000D01*
X107795312Y-80468015D01*
X107632352Y-80056731D01*
X107324405Y-79739116D01*
X106981874Y-79577881D01*
X106807000Y-79704046D01*
X106553000Y-79704046D01*
X106378126Y-79577881D01*
X106035595Y-79739116D01*
X105727648Y-80056731D01*
X105564688Y-80468015D01*
X89778167Y-80468015D01*
X89259969Y-80266595D01*
X88450591Y-80284386D01*
X87785455Y-80559894D01*
X87637882Y-80868276D01*
X77662118Y-80868276D01*
X77514545Y-80559894D01*
X76759969Y-80266595D01*
X75950591Y-80284386D01*
X75285455Y-80559894D01*
X75137882Y-80868276D01*
X71261101Y-80868276D01*
X71247621Y-78105000D01*
X109601000Y-78105000D01*
X109601000Y-81407000D01*
X107664156Y-81407000D01*
X107795312Y-81075985D01*
X107654741Y-80899000D01*
X106807000Y-80899000D01*
X106807000Y-80919000D01*
X106553000Y-80919000D01*
X106553000Y-80899000D01*
X105705259Y-80899000D01*
X105564688Y-81075985D01*
X105695844Y-81407000D01*
X93980000Y-81407000D01*
X93930590Y-81417006D01*
X93888965Y-81445447D01*
X93861685Y-81487841D01*
X93853000Y-81534000D01*
X93853000Y-88519000D01*
X78994000Y-88519000D01*
X78944590Y-88529006D01*
X78902965Y-88557447D01*
X78875685Y-88599841D01*
X78867001Y-88645419D01*
X78613001Y-144144419D01*
X78622781Y-144193874D01*
X78651031Y-144235628D01*
X78693300Y-144263102D01*
X78740113Y-144272000D01*
X221234113Y-144145000D01*
X221283514Y-144134950D01*
X221325113Y-144106472D01*
X221352356Y-144064054D01*
X221361000Y-144018000D01*
X221361000Y-141723025D01*
X222184581Y-141723025D01*
X222301601Y-142005446D01*
X222965663Y-142257018D01*
X223675448Y-142235314D01*
X224230399Y-142005446D01*
X224347419Y-141723025D01*
X223266000Y-140641605D01*
X222184581Y-141723025D01*
X221361000Y-141723025D01*
X221361000Y-140161663D01*
X221470982Y-140161663D01*
X221492686Y-140871448D01*
X221722554Y-141426399D01*
X222004975Y-141543419D01*
X223086395Y-140462000D01*
X223445605Y-140462000D01*
X224527025Y-141543419D01*
X224809446Y-141426399D01*
X225061018Y-140762337D01*
X225039314Y-140052552D01*
X224809446Y-139497601D01*
X224527025Y-139380581D01*
X223445605Y-140462000D01*
X223086395Y-140462000D01*
X222004975Y-139380581D01*
X221722554Y-139497601D01*
X221470982Y-140161663D01*
X221361000Y-140161663D01*
X221361000Y-139200975D01*
X222184581Y-139200975D01*
X223266000Y-140282395D01*
X224347419Y-139200975D01*
X224230399Y-138918554D01*
X223566337Y-138666982D01*
X222856552Y-138688686D01*
X222301601Y-138918554D01*
X222184581Y-139200975D01*
X221361000Y-139200975D01*
X221361000Y-122342815D01*
X246784630Y-122342815D01*
X247108980Y-123127800D01*
X247709041Y-123728909D01*
X248493459Y-124054628D01*
X249342815Y-124055370D01*
X250127800Y-123731020D01*
X250728909Y-123130959D01*
X251054628Y-122346541D01*
X251055370Y-121497185D01*
X250731020Y-120712200D01*
X250130959Y-120111091D01*
X249346541Y-119785372D01*
X248497185Y-119784630D01*
X247712200Y-120108980D01*
X247111091Y-120709041D01*
X246785372Y-121493459D01*
X246784630Y-122342815D01*
X221361000Y-122342815D01*
X221361000Y-103124000D01*
X221350994Y-103074590D01*
X221322553Y-103032965D01*
X221280159Y-103005685D01*
X221234000Y-102997000D01*
X193167000Y-102997000D01*
X193167000Y-101373734D01*
X246567293Y-101373734D01*
X246588214Y-102103443D01*
X246827212Y-102680435D01*
X247114825Y-102803570D01*
X248232395Y-101686000D01*
X248591605Y-101686000D01*
X249709175Y-102803570D01*
X249996788Y-102680435D01*
X250256707Y-101998266D01*
X250235786Y-101268557D01*
X249996788Y-100691565D01*
X249709175Y-100568430D01*
X248591605Y-101686000D01*
X248232395Y-101686000D01*
X247114825Y-100568430D01*
X246827212Y-100691565D01*
X246567293Y-101373734D01*
X193167000Y-101373734D01*
X193167000Y-101346376D01*
X193235037Y-89439750D01*
X196835000Y-89439750D01*
X196835000Y-89930310D01*
X196931673Y-90163699D01*
X197110302Y-90342327D01*
X197343691Y-90439000D01*
X197834250Y-90439000D01*
X197993000Y-90280250D01*
X197993000Y-89281000D01*
X198247000Y-89281000D01*
X198247000Y-90280250D01*
X198405750Y-90439000D01*
X198896309Y-90439000D01*
X199129698Y-90342327D01*
X199308327Y-90163699D01*
X199405000Y-89930310D01*
X199405000Y-89439750D01*
X199246250Y-89281000D01*
X198247000Y-89281000D01*
X197993000Y-89281000D01*
X196993750Y-89281000D01*
X196835000Y-89439750D01*
X193235037Y-89439750D01*
X193241106Y-88377690D01*
X196835000Y-88377690D01*
X196835000Y-88868250D01*
X196993750Y-89027000D01*
X197993000Y-89027000D01*
X197993000Y-88027750D01*
X198247000Y-88027750D01*
X198247000Y-89027000D01*
X199246250Y-89027000D01*
X199405000Y-88868250D01*
X199405000Y-88377690D01*
X199308327Y-88144301D01*
X199129698Y-87965673D01*
X198896309Y-87869000D01*
X198405750Y-87869000D01*
X198247000Y-88027750D01*
X197993000Y-88027750D01*
X197834250Y-87869000D01*
X197343691Y-87869000D01*
X197110302Y-87965673D01*
X196931673Y-88144301D01*
X196835000Y-88377690D01*
X193241106Y-88377690D01*
X193268690Y-83550616D01*
X193641390Y-83550616D01*
X193697071Y-83781211D01*
X194179878Y-83949222D01*
X194690228Y-83919683D01*
X195024529Y-83781211D01*
X195080210Y-83550616D01*
X194360800Y-82831205D01*
X193641390Y-83550616D01*
X193268690Y-83550616D01*
X193269981Y-83324696D01*
X193461784Y-83371010D01*
X194181195Y-82651600D01*
X194540405Y-82651600D01*
X195259816Y-83371010D01*
X195490411Y-83315329D01*
X195658422Y-82832522D01*
X195628883Y-82322172D01*
X195490411Y-81987871D01*
X195259816Y-81932190D01*
X194540405Y-82651600D01*
X194181195Y-82651600D01*
X193461784Y-81932190D01*
X193277684Y-81976644D01*
X193278964Y-81752584D01*
X193641390Y-81752584D01*
X194360800Y-82471995D01*
X195080210Y-81752584D01*
X195024529Y-81521989D01*
X194541722Y-81353978D01*
X194031372Y-81383517D01*
X193697071Y-81521989D01*
X193641390Y-81752584D01*
X193278964Y-81752584D01*
X193384341Y-63311647D01*
X193557336Y-63655570D01*
X193874580Y-63923323D01*
X194270140Y-64049290D01*
X194437000Y-63896117D01*
X194437000Y-63119000D01*
X194691000Y-63119000D01*
X194691000Y-63896117D01*
X194857860Y-64049290D01*
X195253420Y-63923323D01*
X195570664Y-63655570D01*
X195758540Y-63282062D01*
X195909460Y-63282062D01*
X196097336Y-63655570D01*
X196414580Y-63923323D01*
X196810140Y-64049290D01*
X196977000Y-63896117D01*
X196977000Y-63119000D01*
X197231000Y-63119000D01*
X197231000Y-63896117D01*
X197397860Y-64049290D01*
X197793420Y-63923323D01*
X198110664Y-63655570D01*
X198298540Y-63282062D01*
X198449460Y-63282062D01*
X198637336Y-63655570D01*
X198954580Y-63923323D01*
X199350140Y-64049290D01*
X199517000Y-63896117D01*
X199517000Y-63119000D01*
X199771000Y-63119000D01*
X199771000Y-63896117D01*
X199937860Y-64049290D01*
X200333420Y-63923323D01*
X200650664Y-63655570D01*
X200838540Y-63282062D01*
X200989460Y-63282062D01*
X201177336Y-63655570D01*
X201494580Y-63923323D01*
X201890140Y-64049290D01*
X202057000Y-63896117D01*
X202057000Y-63119000D01*
X202311000Y-63119000D01*
X202311000Y-63896117D01*
X202477860Y-64049290D01*
X202873420Y-63923323D01*
X203190664Y-63655570D01*
X203378540Y-63282062D01*
X203251257Y-63119000D01*
X202311000Y-63119000D01*
X202057000Y-63119000D01*
X201116743Y-63119000D01*
X200989460Y-63282062D01*
X200838540Y-63282062D01*
X200711257Y-63119000D01*
X199771000Y-63119000D01*
X199517000Y-63119000D01*
X198576743Y-63119000D01*
X198449460Y-63282062D01*
X198298540Y-63282062D01*
X198171257Y-63119000D01*
X197231000Y-63119000D01*
X196977000Y-63119000D01*
X196036743Y-63119000D01*
X195909460Y-63282062D01*
X195758540Y-63282062D01*
X195631257Y-63119000D01*
X194691000Y-63119000D01*
X194437000Y-63119000D01*
X194417000Y-63119000D01*
X194417000Y-62992000D01*
X203464805Y-62992000D01*
X203545493Y-63397644D01*
X203775272Y-63741533D01*
X204119161Y-63971312D01*
X204524805Y-64052000D01*
X204923195Y-64052000D01*
X205328839Y-63971312D01*
X205672728Y-63741533D01*
X205902507Y-63397644D01*
X205983195Y-62992000D01*
X206004805Y-62992000D01*
X206085493Y-63397644D01*
X206315272Y-63741533D01*
X206659161Y-63971312D01*
X207064805Y-64052000D01*
X207463195Y-64052000D01*
X207868839Y-63971312D01*
X208212728Y-63741533D01*
X208442507Y-63397644D01*
X208523195Y-62992000D01*
X208544805Y-62992000D01*
X208625493Y-63397644D01*
X208855272Y-63741533D01*
X209199161Y-63971312D01*
X209604805Y-64052000D01*
X210003195Y-64052000D01*
X210408839Y-63971312D01*
X210752728Y-63741533D01*
X210982507Y-63397644D01*
X211063195Y-62992000D01*
X210982507Y-62586356D01*
X210752728Y-62242467D01*
X210408839Y-62012688D01*
X210003195Y-61932000D01*
X209604805Y-61932000D01*
X209199161Y-62012688D01*
X208855272Y-62242467D01*
X208625493Y-62586356D01*
X208544805Y-62992000D01*
X208523195Y-62992000D01*
X208442507Y-62586356D01*
X208212728Y-62242467D01*
X207868839Y-62012688D01*
X207463195Y-61932000D01*
X207064805Y-61932000D01*
X206659161Y-62012688D01*
X206315272Y-62242467D01*
X206085493Y-62586356D01*
X206004805Y-62992000D01*
X205983195Y-62992000D01*
X205902507Y-62586356D01*
X205672728Y-62242467D01*
X205328839Y-62012688D01*
X204923195Y-61932000D01*
X204524805Y-61932000D01*
X204119161Y-62012688D01*
X203775272Y-62242467D01*
X203545493Y-62586356D01*
X203464805Y-62992000D01*
X194417000Y-62992000D01*
X194417000Y-62865000D01*
X194437000Y-62865000D01*
X194437000Y-62087883D01*
X194691000Y-62087883D01*
X194691000Y-62865000D01*
X195631257Y-62865000D01*
X195758540Y-62701938D01*
X195909460Y-62701938D01*
X196036743Y-62865000D01*
X196977000Y-62865000D01*
X196977000Y-62087883D01*
X197231000Y-62087883D01*
X197231000Y-62865000D01*
X198171257Y-62865000D01*
X198298540Y-62701938D01*
X198449460Y-62701938D01*
X198576743Y-62865000D01*
X199517000Y-62865000D01*
X199517000Y-62087883D01*
X199771000Y-62087883D01*
X199771000Y-62865000D01*
X200711257Y-62865000D01*
X200838540Y-62701938D01*
X200989460Y-62701938D01*
X201116743Y-62865000D01*
X202057000Y-62865000D01*
X202057000Y-62087883D01*
X202311000Y-62087883D01*
X202311000Y-62865000D01*
X203251257Y-62865000D01*
X203378540Y-62701938D01*
X203190664Y-62328430D01*
X202873420Y-62060677D01*
X202477860Y-61934710D01*
X202311000Y-62087883D01*
X202057000Y-62087883D01*
X201890140Y-61934710D01*
X201494580Y-62060677D01*
X201177336Y-62328430D01*
X200989460Y-62701938D01*
X200838540Y-62701938D01*
X200650664Y-62328430D01*
X200333420Y-62060677D01*
X199937860Y-61934710D01*
X199771000Y-62087883D01*
X199517000Y-62087883D01*
X199350140Y-61934710D01*
X198954580Y-62060677D01*
X198637336Y-62328430D01*
X198449460Y-62701938D01*
X198298540Y-62701938D01*
X198110664Y-62328430D01*
X197793420Y-62060677D01*
X197397860Y-61934710D01*
X197231000Y-62087883D01*
X196977000Y-62087883D01*
X196810140Y-61934710D01*
X196414580Y-62060677D01*
X196097336Y-62328430D01*
X195909460Y-62701938D01*
X195758540Y-62701938D01*
X195570664Y-62328430D01*
X195253420Y-62060677D01*
X194857860Y-61934710D01*
X194691000Y-62087883D01*
X194437000Y-62087883D01*
X194270140Y-61934710D01*
X193874580Y-62060677D01*
X193557336Y-62328430D01*
X193388036Y-62665007D01*
X193420998Y-56896726D01*
X193411275Y-56847259D01*
X193383072Y-56805473D01*
X193340834Y-56777951D01*
X193294000Y-56769000D01*
X187071000Y-56769000D01*
X187071000Y-55653175D01*
X187376430Y-55653175D01*
X187499565Y-55940788D01*
X188181734Y-56200707D01*
X188911443Y-56179786D01*
X189488435Y-55940788D01*
X189611570Y-55653175D01*
X188494000Y-54535605D01*
X187376430Y-55653175D01*
X187071000Y-55653175D01*
X187071000Y-55419701D01*
X187196825Y-55473570D01*
X188314395Y-54356000D01*
X188673605Y-54356000D01*
X189791175Y-55473570D01*
X190078788Y-55350435D01*
X190242204Y-54921542D01*
X190437455Y-55394086D01*
X190953199Y-55910730D01*
X191627395Y-56190681D01*
X192357403Y-56191318D01*
X193032086Y-55912545D01*
X193291908Y-55653175D01*
X194376430Y-55653175D01*
X194499565Y-55940788D01*
X195181734Y-56200707D01*
X195911443Y-56179786D01*
X196488435Y-55940788D01*
X196611570Y-55653175D01*
X195494000Y-54535605D01*
X194376430Y-55653175D01*
X193291908Y-55653175D01*
X193548730Y-55396801D01*
X193738808Y-54939043D01*
X193909212Y-55350435D01*
X194196825Y-55473570D01*
X195314395Y-54356000D01*
X195673605Y-54356000D01*
X196791175Y-55473570D01*
X197078788Y-55350435D01*
X197242204Y-54921542D01*
X197437455Y-55394086D01*
X197953199Y-55910730D01*
X198627395Y-56190681D01*
X199357403Y-56191318D01*
X200032086Y-55912545D01*
X200291908Y-55653175D01*
X201376430Y-55653175D01*
X201499565Y-55940788D01*
X202181734Y-56200707D01*
X202911443Y-56179786D01*
X203488435Y-55940788D01*
X203611570Y-55653175D01*
X202494000Y-54535605D01*
X201376430Y-55653175D01*
X200291908Y-55653175D01*
X200548730Y-55396801D01*
X200738808Y-54939043D01*
X200909212Y-55350435D01*
X201196825Y-55473570D01*
X202314395Y-54356000D01*
X201196825Y-53238430D01*
X200909212Y-53361565D01*
X200745796Y-53790458D01*
X200550545Y-53317914D01*
X200291908Y-53058825D01*
X201376430Y-53058825D01*
X202494000Y-54176395D01*
X203611570Y-53058825D01*
X203488435Y-52771212D01*
X202806266Y-52511293D01*
X202076557Y-52532214D01*
X201499565Y-52771212D01*
X201376430Y-53058825D01*
X200291908Y-53058825D01*
X200034801Y-52801270D01*
X199360605Y-52521319D01*
X198630597Y-52520682D01*
X197955914Y-52799455D01*
X197439270Y-53315199D01*
X197249192Y-53772957D01*
X197078788Y-53361565D01*
X196791175Y-53238430D01*
X195673605Y-54356000D01*
X195314395Y-54356000D01*
X194196825Y-53238430D01*
X193909212Y-53361565D01*
X193745796Y-53790458D01*
X193550545Y-53317914D01*
X193291908Y-53058825D01*
X194376430Y-53058825D01*
X195494000Y-54176395D01*
X196611570Y-53058825D01*
X196488435Y-52771212D01*
X195806266Y-52511293D01*
X195076557Y-52532214D01*
X194499565Y-52771212D01*
X194376430Y-53058825D01*
X193291908Y-53058825D01*
X193034801Y-52801270D01*
X192360605Y-52521319D01*
X191630597Y-52520682D01*
X190955914Y-52799455D01*
X190439270Y-53315199D01*
X190249192Y-53772957D01*
X190078788Y-53361565D01*
X189791175Y-53238430D01*
X188673605Y-54356000D01*
X188314395Y-54356000D01*
X187196825Y-53238430D01*
X187071000Y-53292299D01*
X187071000Y-53058825D01*
X187376430Y-53058825D01*
X188494000Y-54176395D01*
X189611570Y-53058825D01*
X189488435Y-52771212D01*
X188806266Y-52511293D01*
X188076557Y-52532214D01*
X187499565Y-52771212D01*
X187376430Y-53058825D01*
X187071000Y-53058825D01*
X187071000Y-52197000D01*
X204343000Y-52197000D01*
X204343000Y-52691626D01*
X204342559Y-52691910D01*
X204197569Y-52904110D01*
X204146560Y-53156000D01*
X204146560Y-53525181D01*
X204078788Y-53361565D01*
X203791175Y-53238430D01*
X202673605Y-54356000D01*
X203791175Y-55473570D01*
X204078788Y-55350435D01*
X204146560Y-55172564D01*
X204146560Y-55556000D01*
X204190838Y-55791317D01*
X204329910Y-56007441D01*
X204343000Y-56016385D01*
X204343000Y-61468000D01*
X204353006Y-61517410D01*
X204381447Y-61559035D01*
X204423841Y-61586315D01*
X204470000Y-61595000D01*
X225998569Y-61595000D01*
X226060000Y-61607440D01*
X228600000Y-61607440D01*
X228666113Y-61595000D01*
X232056912Y-61595000D01*
X232081036Y-61604261D01*
X232434937Y-61595000D01*
X246380000Y-61595000D01*
X246429410Y-61584994D01*
X246471035Y-61556553D01*
X246498315Y-61514159D01*
X246507000Y-61468000D01*
X246507000Y-60576187D01*
X246777277Y-60576187D01*
X246793503Y-61425387D01*
X247087261Y-62134582D01*
X247406030Y-62294365D01*
X248740395Y-60960000D01*
X249099605Y-60960000D01*
X250433970Y-62294365D01*
X250752739Y-62134582D01*
X251062723Y-61343813D01*
X251046497Y-60494613D01*
X250752739Y-59785418D01*
X250433970Y-59625635D01*
X249099605Y-60960000D01*
X248740395Y-60960000D01*
X247406030Y-59625635D01*
X247087261Y-59785418D01*
X246777277Y-60576187D01*
X246507000Y-60576187D01*
X246507000Y-59446030D01*
X247585635Y-59446030D01*
X248920000Y-60780395D01*
X250254365Y-59446030D01*
X250094582Y-59127261D01*
X249303813Y-58817277D01*
X248454613Y-58833503D01*
X247745418Y-59127261D01*
X247585635Y-59446030D01*
X246507000Y-59446030D01*
X246507000Y-56302815D01*
X246784630Y-56302815D01*
X247108980Y-57087800D01*
X247709041Y-57688909D01*
X248493459Y-58014628D01*
X249342815Y-58015370D01*
X250127800Y-57691020D01*
X250728909Y-57090959D01*
X251054628Y-56306541D01*
X251055370Y-55457185D01*
X250731020Y-54672200D01*
X250130959Y-54071091D01*
X249346541Y-53745372D01*
X248497185Y-53744630D01*
X247712200Y-54068980D01*
X247111091Y-54669041D01*
X246785372Y-55453459D01*
X246784630Y-56302815D01*
X246507000Y-56302815D01*
X246507000Y-52313970D01*
X247585635Y-52313970D01*
X247745418Y-52632739D01*
X248536187Y-52942723D01*
X249385387Y-52926497D01*
X250094582Y-52632739D01*
X250254365Y-52313970D01*
X248920000Y-50979605D01*
X247585635Y-52313970D01*
X246507000Y-52313970D01*
X246507000Y-50416187D01*
X246777277Y-50416187D01*
X246793503Y-51265387D01*
X247087261Y-51974582D01*
X247406030Y-52134365D01*
X248740395Y-50800000D01*
X249099605Y-50800000D01*
X250433970Y-52134365D01*
X250752739Y-51974582D01*
X251062723Y-51183813D01*
X251046497Y-50334613D01*
X250752739Y-49625418D01*
X250433970Y-49465635D01*
X249099605Y-50800000D01*
X248740395Y-50800000D01*
X247406030Y-49465635D01*
X247087261Y-49625418D01*
X246777277Y-50416187D01*
X246507000Y-50416187D01*
X246507000Y-49286030D01*
X247585635Y-49286030D01*
X248920000Y-50620395D01*
X250254365Y-49286030D01*
X250094582Y-48967261D01*
X249303813Y-48657277D01*
X248454613Y-48673503D01*
X247745418Y-48967261D01*
X247585635Y-49286030D01*
X246507000Y-49286030D01*
X246507000Y-48641000D01*
X251333000Y-48641000D01*
X251333000Y-73533000D01*
X251333000Y-73533000D01*
G37*
X251333000Y-73533000D02*
X246507000Y-73533000D01*
X246507000Y-72633970D01*
X247585635Y-72633970D01*
X247745418Y-72952739D01*
X248536187Y-73262723D01*
X249385387Y-73246497D01*
X250094582Y-72952739D01*
X250254365Y-72633970D01*
X248920000Y-71299605D01*
X247585635Y-72633970D01*
X246507000Y-72633970D01*
X246507000Y-70736187D01*
X246777277Y-70736187D01*
X246793503Y-71585387D01*
X247087261Y-72294582D01*
X247406030Y-72454365D01*
X248740395Y-71120000D01*
X249099605Y-71120000D01*
X250433970Y-72454365D01*
X250752739Y-72294582D01*
X251062723Y-71503813D01*
X251046497Y-70654613D01*
X250752739Y-69945418D01*
X250433970Y-69785635D01*
X249099605Y-71120000D01*
X248740395Y-71120000D01*
X247406030Y-69785635D01*
X247087261Y-69945418D01*
X246777277Y-70736187D01*
X246507000Y-70736187D01*
X246507000Y-69606030D01*
X247585635Y-69606030D01*
X248920000Y-70940395D01*
X250254365Y-69606030D01*
X250094582Y-69287261D01*
X249303813Y-68977277D01*
X248454613Y-68993503D01*
X247745418Y-69287261D01*
X247585635Y-69606030D01*
X246507000Y-69606030D01*
X246507000Y-66462815D01*
X246784630Y-66462815D01*
X247108980Y-67247800D01*
X247709041Y-67848909D01*
X248493459Y-68174628D01*
X249342815Y-68175370D01*
X250127800Y-67851020D01*
X250728909Y-67250959D01*
X251054628Y-66466541D01*
X251055370Y-65617185D01*
X250731020Y-64832200D01*
X250130959Y-64231091D01*
X249346541Y-63905372D01*
X248497185Y-63904630D01*
X247712200Y-64228980D01*
X247111091Y-64829041D01*
X246785372Y-65613459D01*
X246784630Y-66462815D01*
X246507000Y-66462815D01*
X246507000Y-64262000D01*
X246496994Y-64212590D01*
X246468553Y-64170965D01*
X246426159Y-64143685D01*
X246380000Y-64135000D01*
X213144000Y-64135000D01*
X213144000Y-63827637D01*
X213332728Y-63701533D01*
X213562507Y-63357644D01*
X213643195Y-62952000D01*
X213562507Y-62546356D01*
X213514141Y-62473970D01*
X247585635Y-62473970D01*
X247745418Y-62792739D01*
X248536187Y-63102723D01*
X249385387Y-63086497D01*
X250094582Y-62792739D01*
X250254365Y-62473970D01*
X248920000Y-61139605D01*
X247585635Y-62473970D01*
X213514141Y-62473970D01*
X213332728Y-62202467D01*
X212988839Y-61972688D01*
X212583195Y-61892000D01*
X212184805Y-61892000D01*
X211779161Y-61972688D01*
X211435272Y-62202467D01*
X211205493Y-62546356D01*
X211124805Y-62952000D01*
X211205493Y-63357644D01*
X211435272Y-63701533D01*
X211624000Y-63827637D01*
X211624000Y-64135000D01*
X196596000Y-64135000D01*
X196546590Y-64145006D01*
X196504965Y-64173447D01*
X196477685Y-64215841D01*
X196469000Y-64262000D01*
X196469000Y-81608755D01*
X196311808Y-81765673D01*
X196169162Y-82109201D01*
X196168838Y-82481167D01*
X196310883Y-82824943D01*
X196469000Y-82983336D01*
X196469000Y-86868000D01*
X196479006Y-86917410D01*
X196507447Y-86959035D01*
X196549841Y-86986315D01*
X196596275Y-86995000D01*
X199771000Y-86988132D01*
X199771000Y-91313000D01*
X196596000Y-91313000D01*
X196546590Y-91323006D01*
X196504965Y-91351447D01*
X196477685Y-91393841D01*
X196469000Y-91440000D01*
X196469000Y-99060000D01*
X196479006Y-99109410D01*
X196507447Y-99151035D01*
X196549841Y-99178315D01*
X196596000Y-99187000D01*
X245618000Y-99187000D01*
X245667410Y-99176994D01*
X245709035Y-99148553D01*
X245736315Y-99106159D01*
X245745000Y-99060000D01*
X245745000Y-98549403D01*
X246576682Y-98549403D01*
X246855455Y-99224086D01*
X247371199Y-99740730D01*
X247828957Y-99930808D01*
X247417565Y-100101212D01*
X247294430Y-100388825D01*
X248412000Y-101506395D01*
X249529570Y-100388825D01*
X249406435Y-100101212D01*
X248977542Y-99937796D01*
X249450086Y-99742545D01*
X249966730Y-99226801D01*
X250246681Y-98552605D01*
X250247318Y-97822597D01*
X249968545Y-97147914D01*
X249452801Y-96631270D01*
X248995043Y-96441192D01*
X249406435Y-96270788D01*
X249529570Y-95983175D01*
X248412000Y-94865605D01*
X247294430Y-95983175D01*
X247417565Y-96270788D01*
X247846458Y-96434204D01*
X247373914Y-96629455D01*
X246857270Y-97145199D01*
X246577319Y-97819395D01*
X246576682Y-98549403D01*
X245745000Y-98549403D01*
X245745000Y-94373734D01*
X246567293Y-94373734D01*
X246588214Y-95103443D01*
X246827212Y-95680435D01*
X247114825Y-95803570D01*
X248232395Y-94686000D01*
X248591605Y-94686000D01*
X249709175Y-95803570D01*
X249996788Y-95680435D01*
X250256707Y-94998266D01*
X250235786Y-94268557D01*
X249996788Y-93691565D01*
X249709175Y-93568430D01*
X248591605Y-94686000D01*
X248232395Y-94686000D01*
X247114825Y-93568430D01*
X246827212Y-93691565D01*
X246567293Y-94373734D01*
X245745000Y-94373734D01*
X245745000Y-91549403D01*
X246576682Y-91549403D01*
X246855455Y-92224086D01*
X247371199Y-92740730D01*
X247828957Y-92930808D01*
X247417565Y-93101212D01*
X247294430Y-93388825D01*
X248412000Y-94506395D01*
X249529570Y-93388825D01*
X249406435Y-93101212D01*
X248977542Y-92937796D01*
X249450086Y-92742545D01*
X249966730Y-92226801D01*
X250246681Y-91552605D01*
X250247318Y-90822597D01*
X249968545Y-90147914D01*
X249452801Y-89631270D01*
X248995043Y-89441192D01*
X249406435Y-89270788D01*
X249529570Y-88983175D01*
X248412000Y-87865605D01*
X247294430Y-88983175D01*
X247417565Y-89270788D01*
X247846458Y-89434204D01*
X247373914Y-89629455D01*
X246857270Y-90145199D01*
X246577319Y-90819395D01*
X246576682Y-91549403D01*
X245745000Y-91549403D01*
X245745000Y-87373734D01*
X246567293Y-87373734D01*
X246588214Y-88103443D01*
X246827212Y-88680435D01*
X247114825Y-88803570D01*
X248232395Y-87686000D01*
X248591605Y-87686000D01*
X249709175Y-88803570D01*
X249996788Y-88680435D01*
X250256707Y-87998266D01*
X250235786Y-87268557D01*
X249996788Y-86691565D01*
X249709175Y-86568430D01*
X248591605Y-87686000D01*
X248232395Y-87686000D01*
X247114825Y-86568430D01*
X246827212Y-86691565D01*
X246567293Y-87373734D01*
X245745000Y-87373734D01*
X245745000Y-86233000D01*
X247361143Y-86233000D01*
X247294430Y-86388825D01*
X248412000Y-87506395D01*
X249529570Y-86388825D01*
X249462857Y-86233000D01*
X250825000Y-86233000D01*
X250825000Y-103251000D01*
X249414907Y-103251000D01*
X249529570Y-102983175D01*
X248412000Y-101865605D01*
X247294430Y-102983175D01*
X247409093Y-103251000D01*
X245745000Y-103251000D01*
X245745000Y-101600000D01*
X245734994Y-101550590D01*
X245706553Y-101508965D01*
X245664159Y-101481685D01*
X245618000Y-101473000D01*
X227584000Y-101473000D01*
X227534590Y-101483006D01*
X227492965Y-101511447D01*
X227465685Y-101553841D01*
X227457000Y-101600000D01*
X227457000Y-121920000D01*
X227467006Y-121969410D01*
X227495447Y-122011035D01*
X227537841Y-122038315D01*
X227584000Y-122047000D01*
X246380000Y-122047000D01*
X246429410Y-122036994D01*
X246471035Y-122008553D01*
X246498315Y-121966159D01*
X246507000Y-121920000D01*
X246507000Y-118353970D01*
X247585635Y-118353970D01*
X247745418Y-118672739D01*
X248536187Y-118982723D01*
X249385387Y-118966497D01*
X250094582Y-118672739D01*
X250254365Y-118353970D01*
X248920000Y-117019605D01*
X247585635Y-118353970D01*
X246507000Y-118353970D01*
X246507000Y-116456187D01*
X246777277Y-116456187D01*
X246793503Y-117305387D01*
X247087261Y-118014582D01*
X247406030Y-118174365D01*
X248740395Y-116840000D01*
X249099605Y-116840000D01*
X250433970Y-118174365D01*
X250752739Y-118014582D01*
X251062723Y-117223813D01*
X251046497Y-116374613D01*
X250752739Y-115665418D01*
X250433970Y-115505635D01*
X249099605Y-116840000D01*
X248740395Y-116840000D01*
X247406030Y-115505635D01*
X247087261Y-115665418D01*
X246777277Y-116456187D01*
X246507000Y-116456187D01*
X246507000Y-115326030D01*
X247585635Y-115326030D01*
X248920000Y-116660395D01*
X250254365Y-115326030D01*
X250094582Y-115007261D01*
X249303813Y-114697277D01*
X248454613Y-114713503D01*
X247745418Y-115007261D01*
X247585635Y-115326030D01*
X246507000Y-115326030D01*
X246507000Y-114427000D01*
X251333000Y-114427000D01*
X251333000Y-139573000D01*
X246507000Y-139573000D01*
X246507000Y-138673970D01*
X247585635Y-138673970D01*
X247745418Y-138992739D01*
X248536187Y-139302723D01*
X249385387Y-139286497D01*
X250094582Y-138992739D01*
X250254365Y-138673970D01*
X248920000Y-137339605D01*
X247585635Y-138673970D01*
X246507000Y-138673970D01*
X246507000Y-136776187D01*
X246777277Y-136776187D01*
X246793503Y-137625387D01*
X247087261Y-138334582D01*
X247406030Y-138494365D01*
X248740395Y-137160000D01*
X249099605Y-137160000D01*
X250433970Y-138494365D01*
X250752739Y-138334582D01*
X251062723Y-137543813D01*
X251046497Y-136694613D01*
X250752739Y-135985418D01*
X250433970Y-135825635D01*
X249099605Y-137160000D01*
X248740395Y-137160000D01*
X247406030Y-135825635D01*
X247087261Y-135985418D01*
X246777277Y-136776187D01*
X246507000Y-136776187D01*
X246507000Y-135646030D01*
X247585635Y-135646030D01*
X248920000Y-136980395D01*
X250254365Y-135646030D01*
X250094582Y-135327261D01*
X249303813Y-135017277D01*
X248454613Y-135033503D01*
X247745418Y-135327261D01*
X247585635Y-135646030D01*
X246507000Y-135646030D01*
X246507000Y-132502815D01*
X246784630Y-132502815D01*
X247108980Y-133287800D01*
X247709041Y-133888909D01*
X248493459Y-134214628D01*
X249342815Y-134215370D01*
X250127800Y-133891020D01*
X250728909Y-133290959D01*
X251054628Y-132506541D01*
X251055370Y-131657185D01*
X250731020Y-130872200D01*
X250130959Y-130271091D01*
X249346541Y-129945372D01*
X248497185Y-129944630D01*
X247712200Y-130268980D01*
X247111091Y-130869041D01*
X246785372Y-131653459D01*
X246784630Y-132502815D01*
X246507000Y-132502815D01*
X246507000Y-128513970D01*
X247585635Y-128513970D01*
X247745418Y-128832739D01*
X248536187Y-129142723D01*
X249385387Y-129126497D01*
X250094582Y-128832739D01*
X250254365Y-128513970D01*
X248920000Y-127179605D01*
X247585635Y-128513970D01*
X246507000Y-128513970D01*
X246507000Y-126616187D01*
X246777277Y-126616187D01*
X246793503Y-127465387D01*
X247087261Y-128174582D01*
X247406030Y-128334365D01*
X248740395Y-127000000D01*
X249099605Y-127000000D01*
X250433970Y-128334365D01*
X250752739Y-128174582D01*
X251062723Y-127383813D01*
X251046497Y-126534613D01*
X250752739Y-125825418D01*
X250433970Y-125665635D01*
X249099605Y-127000000D01*
X248740395Y-127000000D01*
X247406030Y-125665635D01*
X247087261Y-125825418D01*
X246777277Y-126616187D01*
X246507000Y-126616187D01*
X246507000Y-125486030D01*
X247585635Y-125486030D01*
X248920000Y-126820395D01*
X250254365Y-125486030D01*
X250094582Y-125167261D01*
X249303813Y-124857277D01*
X248454613Y-124873503D01*
X247745418Y-125167261D01*
X247585635Y-125486030D01*
X246507000Y-125486030D01*
X246507000Y-124460000D01*
X246496994Y-124410590D01*
X246468553Y-124368965D01*
X246426159Y-124341685D01*
X246380000Y-124333000D01*
X227584000Y-124333000D01*
X227534590Y-124343006D01*
X227492965Y-124371447D01*
X227465685Y-124413841D01*
X227457000Y-124460000D01*
X227457000Y-149479000D01*
X211276668Y-149479000D01*
X211277387Y-148655381D01*
X210937845Y-147833628D01*
X210309679Y-147204364D01*
X209488519Y-146863389D01*
X208599381Y-146862613D01*
X207777628Y-147202155D01*
X207148364Y-147830321D01*
X206807389Y-148651481D01*
X206806667Y-149479000D01*
X154380668Y-149479000D01*
X154381387Y-148655381D01*
X154041845Y-147833628D01*
X153413679Y-147204364D01*
X152592519Y-146863389D01*
X151703381Y-146862613D01*
X150881628Y-147202155D01*
X150252364Y-147830321D01*
X149911389Y-148651481D01*
X149910667Y-149479000D01*
X84276668Y-149479000D01*
X84277387Y-148655381D01*
X83937845Y-147833628D01*
X83309679Y-147204364D01*
X82488519Y-146863389D01*
X81599381Y-146862613D01*
X80777628Y-147202155D01*
X80148364Y-147830321D01*
X79807389Y-148651481D01*
X79806667Y-149479000D01*
X71247000Y-149479000D01*
X71247000Y-130175000D01*
X71374000Y-130175000D01*
X71423410Y-130164994D01*
X71465035Y-130136553D01*
X71492315Y-130094159D01*
X71500998Y-130047380D01*
X71493519Y-128513970D01*
X74865635Y-128513970D01*
X75025418Y-128832739D01*
X75816187Y-129142723D01*
X76665387Y-129126497D01*
X77374582Y-128832739D01*
X77534365Y-128513970D01*
X76200000Y-127179605D01*
X74865635Y-128513970D01*
X71493519Y-128513970D01*
X71484261Y-126616187D01*
X74057277Y-126616187D01*
X74073503Y-127465387D01*
X74367261Y-128174582D01*
X74686030Y-128334365D01*
X76020395Y-127000000D01*
X76379605Y-127000000D01*
X77713970Y-128334365D01*
X78032739Y-128174582D01*
X78342723Y-127383813D01*
X78326497Y-126534613D01*
X78032739Y-125825418D01*
X77713970Y-125665635D01*
X76379605Y-127000000D01*
X76020395Y-127000000D01*
X74686030Y-125665635D01*
X74367261Y-125825418D01*
X74057277Y-126616187D01*
X71484261Y-126616187D01*
X71478749Y-125486030D01*
X74865635Y-125486030D01*
X76200000Y-126820395D01*
X77534365Y-125486030D01*
X77374582Y-125167261D01*
X76583813Y-124857277D01*
X75734613Y-124873503D01*
X75025418Y-125167261D01*
X74865635Y-125486030D01*
X71478749Y-125486030D01*
X71463416Y-122342815D01*
X74064630Y-122342815D01*
X74388980Y-123127800D01*
X74989041Y-123728909D01*
X75773459Y-124054628D01*
X76622815Y-124055370D01*
X77407800Y-123731020D01*
X78008909Y-123130959D01*
X78334628Y-122346541D01*
X78335370Y-121497185D01*
X78011020Y-120712200D01*
X77410959Y-120111091D01*
X76626541Y-119785372D01*
X75777185Y-119784630D01*
X74992200Y-120108980D01*
X74391091Y-120709041D01*
X74065372Y-121493459D01*
X74064630Y-122342815D01*
X71463416Y-122342815D01*
X71443959Y-118353970D01*
X74865635Y-118353970D01*
X75025418Y-118672739D01*
X75816187Y-118982723D01*
X76665387Y-118966497D01*
X77374582Y-118672739D01*
X77534365Y-118353970D01*
X76200000Y-117019605D01*
X74865635Y-118353970D01*
X71443959Y-118353970D01*
X71434701Y-116456187D01*
X74057277Y-116456187D01*
X74073503Y-117305387D01*
X74367261Y-118014582D01*
X74686030Y-118174365D01*
X76020395Y-116840000D01*
X76379605Y-116840000D01*
X77713970Y-118174365D01*
X78032739Y-118014582D01*
X78342723Y-117223813D01*
X78326497Y-116374613D01*
X78032739Y-115665418D01*
X77713970Y-115505635D01*
X76379605Y-116840000D01*
X76020395Y-116840000D01*
X74686030Y-115505635D01*
X74367261Y-115665418D01*
X74057277Y-116456187D01*
X71434701Y-116456187D01*
X71429189Y-115326030D01*
X74865635Y-115326030D01*
X76200000Y-116660395D01*
X77534365Y-115326030D01*
X77374582Y-115007261D01*
X76583813Y-114697277D01*
X75734613Y-114713503D01*
X75025418Y-115007261D01*
X74865635Y-115326030D01*
X71429189Y-115326030D01*
X71413856Y-112182815D01*
X74064630Y-112182815D01*
X74388980Y-112967800D01*
X74989041Y-113568909D01*
X75773459Y-113894628D01*
X76622815Y-113895370D01*
X77407800Y-113571020D01*
X78008909Y-112970959D01*
X78334628Y-112186541D01*
X78335370Y-111337185D01*
X78011020Y-110552200D01*
X77410959Y-109951091D01*
X76626541Y-109625372D01*
X75777185Y-109624630D01*
X74992200Y-109948980D01*
X74391091Y-110549041D01*
X74065372Y-111333459D01*
X74064630Y-112182815D01*
X71413856Y-112182815D01*
X71394398Y-108193970D01*
X74865635Y-108193970D01*
X75025418Y-108512739D01*
X75816187Y-108822723D01*
X76665387Y-108806497D01*
X77374582Y-108512739D01*
X77534365Y-108193970D01*
X76200000Y-106859605D01*
X74865635Y-108193970D01*
X71394398Y-108193970D01*
X71385140Y-106296187D01*
X74057277Y-106296187D01*
X74073503Y-107145387D01*
X74367261Y-107854582D01*
X74686030Y-108014365D01*
X76020395Y-106680000D01*
X76379605Y-106680000D01*
X77713970Y-108014365D01*
X78032739Y-107854582D01*
X78342723Y-107063813D01*
X78326497Y-106214613D01*
X78032739Y-105505418D01*
X77713970Y-105345635D01*
X76379605Y-106680000D01*
X76020395Y-106680000D01*
X74686030Y-105345635D01*
X74367261Y-105505418D01*
X74057277Y-106296187D01*
X71385140Y-106296187D01*
X71379627Y-105166030D01*
X74865635Y-105166030D01*
X76200000Y-106500395D01*
X77534365Y-105166030D01*
X77374582Y-104847261D01*
X76583813Y-104537277D01*
X75734613Y-104553503D01*
X75025418Y-104847261D01*
X74865635Y-105166030D01*
X71379627Y-105166030D01*
X71354914Y-100100000D01*
X74052560Y-100100000D01*
X74052560Y-103100000D01*
X74096838Y-103335317D01*
X74235910Y-103551441D01*
X74448110Y-103696431D01*
X74700000Y-103747440D01*
X77700000Y-103747440D01*
X77935317Y-103703162D01*
X78151441Y-103564090D01*
X78296431Y-103351890D01*
X78347440Y-103100000D01*
X78347440Y-100100000D01*
X78303162Y-99864683D01*
X78164090Y-99648559D01*
X77951890Y-99503569D01*
X77700000Y-99452560D01*
X74700000Y-99452560D01*
X74464683Y-99496838D01*
X74248559Y-99635910D01*
X74103569Y-99848110D01*
X74052560Y-100100000D01*
X71354914Y-100100000D01*
X71293703Y-87551724D01*
X75137882Y-87551724D01*
X75285455Y-87860106D01*
X76040031Y-88153405D01*
X76849409Y-88135614D01*
X77514545Y-87860106D01*
X77662118Y-87551724D01*
X87637882Y-87551724D01*
X87785455Y-87860106D01*
X88540031Y-88153405D01*
X89349409Y-88135614D01*
X90014545Y-87860106D01*
X90162118Y-87551724D01*
X88900000Y-86289605D01*
X87637882Y-87551724D01*
X77662118Y-87551724D01*
X76400000Y-86289605D01*
X75137882Y-87551724D01*
X71293703Y-87551724D01*
X71284914Y-85750031D01*
X74356595Y-85750031D01*
X74374386Y-86559409D01*
X74649894Y-87224545D01*
X74958276Y-87372118D01*
X76220395Y-86110000D01*
X76579605Y-86110000D01*
X77841724Y-87372118D01*
X78150106Y-87224545D01*
X78443405Y-86469969D01*
X78427580Y-85750031D01*
X86856595Y-85750031D01*
X86874386Y-86559409D01*
X87149894Y-87224545D01*
X87458276Y-87372118D01*
X88720395Y-86110000D01*
X89079605Y-86110000D01*
X90341724Y-87372118D01*
X90650106Y-87224545D01*
X90943405Y-86469969D01*
X90925614Y-85660591D01*
X90650106Y-84995455D01*
X90341724Y-84847882D01*
X89079605Y-86110000D01*
X88720395Y-86110000D01*
X87458276Y-84847882D01*
X87149894Y-84995455D01*
X86856595Y-85750031D01*
X78427580Y-85750031D01*
X78425614Y-85660591D01*
X78150106Y-84995455D01*
X77841724Y-84847882D01*
X76579605Y-86110000D01*
X76220395Y-86110000D01*
X74958276Y-84847882D01*
X74649894Y-84995455D01*
X74356595Y-85750031D01*
X71284914Y-85750031D01*
X71275167Y-83751724D01*
X75137882Y-83751724D01*
X75285455Y-84060106D01*
X75658833Y-84205236D01*
X75285455Y-84359894D01*
X75137882Y-84668276D01*
X76400000Y-85930395D01*
X77662118Y-84668276D01*
X77514545Y-84359894D01*
X77141167Y-84214764D01*
X77514545Y-84060106D01*
X77662118Y-83751724D01*
X87637882Y-83751724D01*
X87785455Y-84060106D01*
X88158833Y-84205236D01*
X87785455Y-84359894D01*
X87637882Y-84668276D01*
X88900000Y-85930395D01*
X90162118Y-84668276D01*
X90014545Y-84359894D01*
X89641167Y-84214764D01*
X90014545Y-84060106D01*
X90162118Y-83751724D01*
X88900000Y-82489605D01*
X87637882Y-83751724D01*
X77662118Y-83751724D01*
X76400000Y-82489605D01*
X75137882Y-83751724D01*
X71275167Y-83751724D01*
X71266378Y-81950031D01*
X74356595Y-81950031D01*
X74374386Y-82759409D01*
X74649894Y-83424545D01*
X74958276Y-83572118D01*
X76220395Y-82310000D01*
X76579605Y-82310000D01*
X77841724Y-83572118D01*
X78150106Y-83424545D01*
X78443405Y-82669969D01*
X78427580Y-81950031D01*
X86856595Y-81950031D01*
X86874386Y-82759409D01*
X87149894Y-83424545D01*
X87458276Y-83572118D01*
X88720395Y-82310000D01*
X89079605Y-82310000D01*
X90341724Y-83572118D01*
X90650106Y-83424545D01*
X90943405Y-82669969D01*
X90925614Y-81860591D01*
X90650106Y-81195455D01*
X90341724Y-81047882D01*
X89079605Y-82310000D01*
X88720395Y-82310000D01*
X87458276Y-81047882D01*
X87149894Y-81195455D01*
X86856595Y-81950031D01*
X78427580Y-81950031D01*
X78425614Y-81860591D01*
X78150106Y-81195455D01*
X77841724Y-81047882D01*
X76579605Y-82310000D01*
X76220395Y-82310000D01*
X74958276Y-81047882D01*
X74649894Y-81195455D01*
X74356595Y-81950031D01*
X71266378Y-81950031D01*
X71261101Y-80868276D01*
X75137882Y-80868276D01*
X76400000Y-82130395D01*
X77662118Y-80868276D01*
X87637882Y-80868276D01*
X88900000Y-82130395D01*
X90162118Y-80868276D01*
X90014545Y-80559894D01*
X89778167Y-80468015D01*
X105564688Y-80468015D01*
X105705259Y-80645000D01*
X106553000Y-80645000D01*
X106553000Y-79704046D01*
X106807000Y-79704046D01*
X106807000Y-80645000D01*
X107654741Y-80645000D01*
X107795312Y-80468015D01*
X107632352Y-80056731D01*
X107324405Y-79739116D01*
X106981874Y-79577881D01*
X106807000Y-79704046D01*
X106553000Y-79704046D01*
X106378126Y-79577881D01*
X106035595Y-79739116D01*
X105727648Y-80056731D01*
X105564688Y-80468015D01*
X89778167Y-80468015D01*
X89259969Y-80266595D01*
X88450591Y-80284386D01*
X87785455Y-80559894D01*
X87637882Y-80868276D01*
X77662118Y-80868276D01*
X77514545Y-80559894D01*
X76759969Y-80266595D01*
X75950591Y-80284386D01*
X75285455Y-80559894D01*
X75137882Y-80868276D01*
X71261101Y-80868276D01*
X71247621Y-78105000D01*
X109601000Y-78105000D01*
X109601000Y-81407000D01*
X107664156Y-81407000D01*
X107795312Y-81075985D01*
X107654741Y-80899000D01*
X106807000Y-80899000D01*
X106807000Y-80919000D01*
X106553000Y-80919000D01*
X106553000Y-80899000D01*
X105705259Y-80899000D01*
X105564688Y-81075985D01*
X105695844Y-81407000D01*
X93980000Y-81407000D01*
X93930590Y-81417006D01*
X93888965Y-81445447D01*
X93861685Y-81487841D01*
X93853000Y-81534000D01*
X93853000Y-88519000D01*
X78994000Y-88519000D01*
X78944590Y-88529006D01*
X78902965Y-88557447D01*
X78875685Y-88599841D01*
X78867001Y-88645419D01*
X78613001Y-144144419D01*
X78622781Y-144193874D01*
X78651031Y-144235628D01*
X78693300Y-144263102D01*
X78740113Y-144272000D01*
X221234113Y-144145000D01*
X221283514Y-144134950D01*
X221325113Y-144106472D01*
X221352356Y-144064054D01*
X221361000Y-144018000D01*
X221361000Y-141723025D01*
X222184581Y-141723025D01*
X222301601Y-142005446D01*
X222965663Y-142257018D01*
X223675448Y-142235314D01*
X224230399Y-142005446D01*
X224347419Y-141723025D01*
X223266000Y-140641605D01*
X222184581Y-141723025D01*
X221361000Y-141723025D01*
X221361000Y-140161663D01*
X221470982Y-140161663D01*
X221492686Y-140871448D01*
X221722554Y-141426399D01*
X222004975Y-141543419D01*
X223086395Y-140462000D01*
X223445605Y-140462000D01*
X224527025Y-141543419D01*
X224809446Y-141426399D01*
X225061018Y-140762337D01*
X225039314Y-140052552D01*
X224809446Y-139497601D01*
X224527025Y-139380581D01*
X223445605Y-140462000D01*
X223086395Y-140462000D01*
X222004975Y-139380581D01*
X221722554Y-139497601D01*
X221470982Y-140161663D01*
X221361000Y-140161663D01*
X221361000Y-139200975D01*
X222184581Y-139200975D01*
X223266000Y-140282395D01*
X224347419Y-139200975D01*
X224230399Y-138918554D01*
X223566337Y-138666982D01*
X222856552Y-138688686D01*
X222301601Y-138918554D01*
X222184581Y-139200975D01*
X221361000Y-139200975D01*
X221361000Y-122342815D01*
X246784630Y-122342815D01*
X247108980Y-123127800D01*
X247709041Y-123728909D01*
X248493459Y-124054628D01*
X249342815Y-124055370D01*
X250127800Y-123731020D01*
X250728909Y-123130959D01*
X251054628Y-122346541D01*
X251055370Y-121497185D01*
X250731020Y-120712200D01*
X250130959Y-120111091D01*
X249346541Y-119785372D01*
X248497185Y-119784630D01*
X247712200Y-120108980D01*
X247111091Y-120709041D01*
X246785372Y-121493459D01*
X246784630Y-122342815D01*
X221361000Y-122342815D01*
X221361000Y-103124000D01*
X221350994Y-103074590D01*
X221322553Y-103032965D01*
X221280159Y-103005685D01*
X221234000Y-102997000D01*
X193167000Y-102997000D01*
X193167000Y-101373734D01*
X246567293Y-101373734D01*
X246588214Y-102103443D01*
X246827212Y-102680435D01*
X247114825Y-102803570D01*
X248232395Y-101686000D01*
X248591605Y-101686000D01*
X249709175Y-102803570D01*
X249996788Y-102680435D01*
X250256707Y-101998266D01*
X250235786Y-101268557D01*
X249996788Y-100691565D01*
X249709175Y-100568430D01*
X248591605Y-101686000D01*
X248232395Y-101686000D01*
X247114825Y-100568430D01*
X246827212Y-100691565D01*
X246567293Y-101373734D01*
X193167000Y-101373734D01*
X193167000Y-101346376D01*
X193235037Y-89439750D01*
X196835000Y-89439750D01*
X196835000Y-89930310D01*
X196931673Y-90163699D01*
X197110302Y-90342327D01*
X197343691Y-90439000D01*
X197834250Y-90439000D01*
X197993000Y-90280250D01*
X197993000Y-89281000D01*
X198247000Y-89281000D01*
X198247000Y-90280250D01*
X198405750Y-90439000D01*
X198896309Y-90439000D01*
X199129698Y-90342327D01*
X199308327Y-90163699D01*
X199405000Y-89930310D01*
X199405000Y-89439750D01*
X199246250Y-89281000D01*
X198247000Y-89281000D01*
X197993000Y-89281000D01*
X196993750Y-89281000D01*
X196835000Y-89439750D01*
X193235037Y-89439750D01*
X193241106Y-88377690D01*
X196835000Y-88377690D01*
X196835000Y-88868250D01*
X196993750Y-89027000D01*
X197993000Y-89027000D01*
X197993000Y-88027750D01*
X198247000Y-88027750D01*
X198247000Y-89027000D01*
X199246250Y-89027000D01*
X199405000Y-88868250D01*
X199405000Y-88377690D01*
X199308327Y-88144301D01*
X199129698Y-87965673D01*
X198896309Y-87869000D01*
X198405750Y-87869000D01*
X198247000Y-88027750D01*
X197993000Y-88027750D01*
X197834250Y-87869000D01*
X197343691Y-87869000D01*
X197110302Y-87965673D01*
X196931673Y-88144301D01*
X196835000Y-88377690D01*
X193241106Y-88377690D01*
X193268690Y-83550616D01*
X193641390Y-83550616D01*
X193697071Y-83781211D01*
X194179878Y-83949222D01*
X194690228Y-83919683D01*
X195024529Y-83781211D01*
X195080210Y-83550616D01*
X194360800Y-82831205D01*
X193641390Y-83550616D01*
X193268690Y-83550616D01*
X193269981Y-83324696D01*
X193461784Y-83371010D01*
X194181195Y-82651600D01*
X194540405Y-82651600D01*
X195259816Y-83371010D01*
X195490411Y-83315329D01*
X195658422Y-82832522D01*
X195628883Y-82322172D01*
X195490411Y-81987871D01*
X195259816Y-81932190D01*
X194540405Y-82651600D01*
X194181195Y-82651600D01*
X193461784Y-81932190D01*
X193277684Y-81976644D01*
X193278964Y-81752584D01*
X193641390Y-81752584D01*
X194360800Y-82471995D01*
X195080210Y-81752584D01*
X195024529Y-81521989D01*
X194541722Y-81353978D01*
X194031372Y-81383517D01*
X193697071Y-81521989D01*
X193641390Y-81752584D01*
X193278964Y-81752584D01*
X193384341Y-63311647D01*
X193557336Y-63655570D01*
X193874580Y-63923323D01*
X194270140Y-64049290D01*
X194437000Y-63896117D01*
X194437000Y-63119000D01*
X194691000Y-63119000D01*
X194691000Y-63896117D01*
X194857860Y-64049290D01*
X195253420Y-63923323D01*
X195570664Y-63655570D01*
X195758540Y-63282062D01*
X195909460Y-63282062D01*
X196097336Y-63655570D01*
X196414580Y-63923323D01*
X196810140Y-64049290D01*
X196977000Y-63896117D01*
X196977000Y-63119000D01*
X197231000Y-63119000D01*
X197231000Y-63896117D01*
X197397860Y-64049290D01*
X197793420Y-63923323D01*
X198110664Y-63655570D01*
X198298540Y-63282062D01*
X198449460Y-63282062D01*
X198637336Y-63655570D01*
X198954580Y-63923323D01*
X199350140Y-64049290D01*
X199517000Y-63896117D01*
X199517000Y-63119000D01*
X199771000Y-63119000D01*
X199771000Y-63896117D01*
X199937860Y-64049290D01*
X200333420Y-63923323D01*
X200650664Y-63655570D01*
X200838540Y-63282062D01*
X200989460Y-63282062D01*
X201177336Y-63655570D01*
X201494580Y-63923323D01*
X201890140Y-64049290D01*
X202057000Y-63896117D01*
X202057000Y-63119000D01*
X202311000Y-63119000D01*
X202311000Y-63896117D01*
X202477860Y-64049290D01*
X202873420Y-63923323D01*
X203190664Y-63655570D01*
X203378540Y-63282062D01*
X203251257Y-63119000D01*
X202311000Y-63119000D01*
X202057000Y-63119000D01*
X201116743Y-63119000D01*
X200989460Y-63282062D01*
X200838540Y-63282062D01*
X200711257Y-63119000D01*
X199771000Y-63119000D01*
X199517000Y-63119000D01*
X198576743Y-63119000D01*
X198449460Y-63282062D01*
X198298540Y-63282062D01*
X198171257Y-63119000D01*
X197231000Y-63119000D01*
X196977000Y-63119000D01*
X196036743Y-63119000D01*
X195909460Y-63282062D01*
X195758540Y-63282062D01*
X195631257Y-63119000D01*
X194691000Y-63119000D01*
X194437000Y-63119000D01*
X194417000Y-63119000D01*
X194417000Y-62992000D01*
X203464805Y-62992000D01*
X203545493Y-63397644D01*
X203775272Y-63741533D01*
X204119161Y-63971312D01*
X204524805Y-64052000D01*
X204923195Y-64052000D01*
X205328839Y-63971312D01*
X205672728Y-63741533D01*
X205902507Y-63397644D01*
X205983195Y-62992000D01*
X206004805Y-62992000D01*
X206085493Y-63397644D01*
X206315272Y-63741533D01*
X206659161Y-63971312D01*
X207064805Y-64052000D01*
X207463195Y-64052000D01*
X207868839Y-63971312D01*
X208212728Y-63741533D01*
X208442507Y-63397644D01*
X208523195Y-62992000D01*
X208544805Y-62992000D01*
X208625493Y-63397644D01*
X208855272Y-63741533D01*
X209199161Y-63971312D01*
X209604805Y-64052000D01*
X210003195Y-64052000D01*
X210408839Y-63971312D01*
X210752728Y-63741533D01*
X210982507Y-63397644D01*
X211063195Y-62992000D01*
X210982507Y-62586356D01*
X210752728Y-62242467D01*
X210408839Y-62012688D01*
X210003195Y-61932000D01*
X209604805Y-61932000D01*
X209199161Y-62012688D01*
X208855272Y-62242467D01*
X208625493Y-62586356D01*
X208544805Y-62992000D01*
X208523195Y-62992000D01*
X208442507Y-62586356D01*
X208212728Y-62242467D01*
X207868839Y-62012688D01*
X207463195Y-61932000D01*
X207064805Y-61932000D01*
X206659161Y-62012688D01*
X206315272Y-62242467D01*
X206085493Y-62586356D01*
X206004805Y-62992000D01*
X205983195Y-62992000D01*
X205902507Y-62586356D01*
X205672728Y-62242467D01*
X205328839Y-62012688D01*
X204923195Y-61932000D01*
X204524805Y-61932000D01*
X204119161Y-62012688D01*
X203775272Y-62242467D01*
X203545493Y-62586356D01*
X203464805Y-62992000D01*
X194417000Y-62992000D01*
X194417000Y-62865000D01*
X194437000Y-62865000D01*
X194437000Y-62087883D01*
X194691000Y-62087883D01*
X194691000Y-62865000D01*
X195631257Y-62865000D01*
X195758540Y-62701938D01*
X195909460Y-62701938D01*
X196036743Y-62865000D01*
X196977000Y-62865000D01*
X196977000Y-62087883D01*
X197231000Y-62087883D01*
X197231000Y-62865000D01*
X198171257Y-62865000D01*
X198298540Y-62701938D01*
X198449460Y-62701938D01*
X198576743Y-62865000D01*
X199517000Y-62865000D01*
X199517000Y-62087883D01*
X199771000Y-62087883D01*
X199771000Y-62865000D01*
X200711257Y-62865000D01*
X200838540Y-62701938D01*
X200989460Y-62701938D01*
X201116743Y-62865000D01*
X202057000Y-62865000D01*
X202057000Y-62087883D01*
X202311000Y-62087883D01*
X202311000Y-62865000D01*
X203251257Y-62865000D01*
X203378540Y-62701938D01*
X203190664Y-62328430D01*
X202873420Y-62060677D01*
X202477860Y-61934710D01*
X202311000Y-62087883D01*
X202057000Y-62087883D01*
X201890140Y-61934710D01*
X201494580Y-62060677D01*
X201177336Y-62328430D01*
X200989460Y-62701938D01*
X200838540Y-62701938D01*
X200650664Y-62328430D01*
X200333420Y-62060677D01*
X199937860Y-61934710D01*
X199771000Y-62087883D01*
X199517000Y-62087883D01*
X199350140Y-61934710D01*
X198954580Y-62060677D01*
X198637336Y-62328430D01*
X198449460Y-62701938D01*
X198298540Y-62701938D01*
X198110664Y-62328430D01*
X197793420Y-62060677D01*
X197397860Y-61934710D01*
X197231000Y-62087883D01*
X196977000Y-62087883D01*
X196810140Y-61934710D01*
X196414580Y-62060677D01*
X196097336Y-62328430D01*
X195909460Y-62701938D01*
X195758540Y-62701938D01*
X195570664Y-62328430D01*
X195253420Y-62060677D01*
X194857860Y-61934710D01*
X194691000Y-62087883D01*
X194437000Y-62087883D01*
X194270140Y-61934710D01*
X193874580Y-62060677D01*
X193557336Y-62328430D01*
X193388036Y-62665007D01*
X193420998Y-56896726D01*
X193411275Y-56847259D01*
X193383072Y-56805473D01*
X193340834Y-56777951D01*
X193294000Y-56769000D01*
X187071000Y-56769000D01*
X187071000Y-55653175D01*
X187376430Y-55653175D01*
X187499565Y-55940788D01*
X188181734Y-56200707D01*
X188911443Y-56179786D01*
X189488435Y-55940788D01*
X189611570Y-55653175D01*
X188494000Y-54535605D01*
X187376430Y-55653175D01*
X187071000Y-55653175D01*
X187071000Y-55419701D01*
X187196825Y-55473570D01*
X188314395Y-54356000D01*
X188673605Y-54356000D01*
X189791175Y-55473570D01*
X190078788Y-55350435D01*
X190242204Y-54921542D01*
X190437455Y-55394086D01*
X190953199Y-55910730D01*
X191627395Y-56190681D01*
X192357403Y-56191318D01*
X193032086Y-55912545D01*
X193291908Y-55653175D01*
X194376430Y-55653175D01*
X194499565Y-55940788D01*
X195181734Y-56200707D01*
X195911443Y-56179786D01*
X196488435Y-55940788D01*
X196611570Y-55653175D01*
X195494000Y-54535605D01*
X194376430Y-55653175D01*
X193291908Y-55653175D01*
X193548730Y-55396801D01*
X193738808Y-54939043D01*
X193909212Y-55350435D01*
X194196825Y-55473570D01*
X195314395Y-54356000D01*
X195673605Y-54356000D01*
X196791175Y-55473570D01*
X197078788Y-55350435D01*
X197242204Y-54921542D01*
X197437455Y-55394086D01*
X197953199Y-55910730D01*
X198627395Y-56190681D01*
X199357403Y-56191318D01*
X200032086Y-55912545D01*
X200291908Y-55653175D01*
X201376430Y-55653175D01*
X201499565Y-55940788D01*
X202181734Y-56200707D01*
X202911443Y-56179786D01*
X203488435Y-55940788D01*
X203611570Y-55653175D01*
X202494000Y-54535605D01*
X201376430Y-55653175D01*
X200291908Y-55653175D01*
X200548730Y-55396801D01*
X200738808Y-54939043D01*
X200909212Y-55350435D01*
X201196825Y-55473570D01*
X202314395Y-54356000D01*
X201196825Y-53238430D01*
X200909212Y-53361565D01*
X200745796Y-53790458D01*
X200550545Y-53317914D01*
X200291908Y-53058825D01*
X201376430Y-53058825D01*
X202494000Y-54176395D01*
X203611570Y-53058825D01*
X203488435Y-52771212D01*
X202806266Y-52511293D01*
X202076557Y-52532214D01*
X201499565Y-52771212D01*
X201376430Y-53058825D01*
X200291908Y-53058825D01*
X200034801Y-52801270D01*
X199360605Y-52521319D01*
X198630597Y-52520682D01*
X197955914Y-52799455D01*
X197439270Y-53315199D01*
X197249192Y-53772957D01*
X197078788Y-53361565D01*
X196791175Y-53238430D01*
X195673605Y-54356000D01*
X195314395Y-54356000D01*
X194196825Y-53238430D01*
X193909212Y-53361565D01*
X193745796Y-53790458D01*
X193550545Y-53317914D01*
X193291908Y-53058825D01*
X194376430Y-53058825D01*
X195494000Y-54176395D01*
X196611570Y-53058825D01*
X196488435Y-52771212D01*
X195806266Y-52511293D01*
X195076557Y-52532214D01*
X194499565Y-52771212D01*
X194376430Y-53058825D01*
X193291908Y-53058825D01*
X193034801Y-52801270D01*
X192360605Y-52521319D01*
X191630597Y-52520682D01*
X190955914Y-52799455D01*
X190439270Y-53315199D01*
X190249192Y-53772957D01*
X190078788Y-53361565D01*
X189791175Y-53238430D01*
X188673605Y-54356000D01*
X188314395Y-54356000D01*
X187196825Y-53238430D01*
X187071000Y-53292299D01*
X187071000Y-53058825D01*
X187376430Y-53058825D01*
X188494000Y-54176395D01*
X189611570Y-53058825D01*
X189488435Y-52771212D01*
X188806266Y-52511293D01*
X188076557Y-52532214D01*
X187499565Y-52771212D01*
X187376430Y-53058825D01*
X187071000Y-53058825D01*
X187071000Y-52197000D01*
X204343000Y-52197000D01*
X204343000Y-52691626D01*
X204342559Y-52691910D01*
X204197569Y-52904110D01*
X204146560Y-53156000D01*
X204146560Y-53525181D01*
X204078788Y-53361565D01*
X203791175Y-53238430D01*
X202673605Y-54356000D01*
X203791175Y-55473570D01*
X204078788Y-55350435D01*
X204146560Y-55172564D01*
X204146560Y-55556000D01*
X204190838Y-55791317D01*
X204329910Y-56007441D01*
X204343000Y-56016385D01*
X204343000Y-61468000D01*
X204353006Y-61517410D01*
X204381447Y-61559035D01*
X204423841Y-61586315D01*
X204470000Y-61595000D01*
X225998569Y-61595000D01*
X226060000Y-61607440D01*
X228600000Y-61607440D01*
X228666113Y-61595000D01*
X232056912Y-61595000D01*
X232081036Y-61604261D01*
X232434937Y-61595000D01*
X246380000Y-61595000D01*
X246429410Y-61584994D01*
X246471035Y-61556553D01*
X246498315Y-61514159D01*
X246507000Y-61468000D01*
X246507000Y-60576187D01*
X246777277Y-60576187D01*
X246793503Y-61425387D01*
X247087261Y-62134582D01*
X247406030Y-62294365D01*
X248740395Y-60960000D01*
X249099605Y-60960000D01*
X250433970Y-62294365D01*
X250752739Y-62134582D01*
X251062723Y-61343813D01*
X251046497Y-60494613D01*
X250752739Y-59785418D01*
X250433970Y-59625635D01*
X249099605Y-60960000D01*
X248740395Y-60960000D01*
X247406030Y-59625635D01*
X247087261Y-59785418D01*
X246777277Y-60576187D01*
X246507000Y-60576187D01*
X246507000Y-59446030D01*
X247585635Y-59446030D01*
X248920000Y-60780395D01*
X250254365Y-59446030D01*
X250094582Y-59127261D01*
X249303813Y-58817277D01*
X248454613Y-58833503D01*
X247745418Y-59127261D01*
X247585635Y-59446030D01*
X246507000Y-59446030D01*
X246507000Y-56302815D01*
X246784630Y-56302815D01*
X247108980Y-57087800D01*
X247709041Y-57688909D01*
X248493459Y-58014628D01*
X249342815Y-58015370D01*
X250127800Y-57691020D01*
X250728909Y-57090959D01*
X251054628Y-56306541D01*
X251055370Y-55457185D01*
X250731020Y-54672200D01*
X250130959Y-54071091D01*
X249346541Y-53745372D01*
X248497185Y-53744630D01*
X247712200Y-54068980D01*
X247111091Y-54669041D01*
X246785372Y-55453459D01*
X246784630Y-56302815D01*
X246507000Y-56302815D01*
X246507000Y-52313970D01*
X247585635Y-52313970D01*
X247745418Y-52632739D01*
X248536187Y-52942723D01*
X249385387Y-52926497D01*
X250094582Y-52632739D01*
X250254365Y-52313970D01*
X248920000Y-50979605D01*
X247585635Y-52313970D01*
X246507000Y-52313970D01*
X246507000Y-50416187D01*
X246777277Y-50416187D01*
X246793503Y-51265387D01*
X247087261Y-51974582D01*
X247406030Y-52134365D01*
X248740395Y-50800000D01*
X249099605Y-50800000D01*
X250433970Y-52134365D01*
X250752739Y-51974582D01*
X251062723Y-51183813D01*
X251046497Y-50334613D01*
X250752739Y-49625418D01*
X250433970Y-49465635D01*
X249099605Y-50800000D01*
X248740395Y-50800000D01*
X247406030Y-49465635D01*
X247087261Y-49625418D01*
X246777277Y-50416187D01*
X246507000Y-50416187D01*
X246507000Y-49286030D01*
X247585635Y-49286030D01*
X248920000Y-50620395D01*
X250254365Y-49286030D01*
X250094582Y-48967261D01*
X249303813Y-48657277D01*
X248454613Y-48673503D01*
X247745418Y-48967261D01*
X247585635Y-49286030D01*
X246507000Y-49286030D01*
X246507000Y-48641000D01*
X251333000Y-48641000D01*
X251333000Y-73533000D01*
G36*
X105564688Y-83008015D02*
X105705259Y-83185000D01*
X106553000Y-83185000D01*
X106553000Y-83165000D01*
X106807000Y-83165000D01*
X106807000Y-83185000D01*
X107654741Y-83185000D01*
X107795312Y-83008015D01*
X107664156Y-82677000D01*
X115855844Y-82677000D01*
X115724688Y-83008015D01*
X115865259Y-83185000D01*
X116713000Y-83185000D01*
X116713000Y-83165000D01*
X116967000Y-83165000D01*
X116967000Y-83185000D01*
X117814741Y-83185000D01*
X117955312Y-83008015D01*
X117824156Y-82677000D01*
X118745000Y-82677000D01*
X118745000Y-88011000D01*
X101727000Y-88011000D01*
X101727000Y-85727805D01*
X105545000Y-85727805D01*
X105545000Y-85976195D01*
X105631397Y-86410541D01*
X105877434Y-86778761D01*
X106245654Y-87024798D01*
X106680000Y-87111195D01*
X107114346Y-87024798D01*
X107482566Y-86778761D01*
X107728603Y-86410541D01*
X107815000Y-85976195D01*
X107815000Y-85727805D01*
X115705000Y-85727805D01*
X115705000Y-85976195D01*
X115791397Y-86410541D01*
X116037434Y-86778761D01*
X116405654Y-87024798D01*
X116840000Y-87111195D01*
X117274346Y-87024798D01*
X117642566Y-86778761D01*
X117888603Y-86410541D01*
X117975000Y-85976195D01*
X117975000Y-85727805D01*
X117888603Y-85293459D01*
X117642566Y-84925239D01*
X117274346Y-84679202D01*
X116840000Y-84592805D01*
X116405654Y-84679202D01*
X116037434Y-84925239D01*
X115791397Y-85293459D01*
X115705000Y-85727805D01*
X107815000Y-85727805D01*
X107728603Y-85293459D01*
X107482566Y-84925239D01*
X107114346Y-84679202D01*
X106680000Y-84592805D01*
X106245654Y-84679202D01*
X105877434Y-84925239D01*
X105631397Y-85293459D01*
X105545000Y-85727805D01*
X101727000Y-85727805D01*
X101727000Y-83615985D01*
X105564688Y-83615985D01*
X105727648Y-84027269D01*
X106035595Y-84344884D01*
X106378126Y-84506119D01*
X106553000Y-84379954D01*
X106553000Y-83439000D01*
X106807000Y-83439000D01*
X106807000Y-84379954D01*
X106981874Y-84506119D01*
X107324405Y-84344884D01*
X107632352Y-84027269D01*
X107795312Y-83615985D01*
X115724688Y-83615985D01*
X115887648Y-84027269D01*
X116195595Y-84344884D01*
X116538126Y-84506119D01*
X116713000Y-84379954D01*
X116713000Y-83439000D01*
X116967000Y-83439000D01*
X116967000Y-84379954D01*
X117141874Y-84506119D01*
X117484405Y-84344884D01*
X117792352Y-84027269D01*
X117955312Y-83615985D01*
X117814741Y-83439000D01*
X116967000Y-83439000D01*
X116713000Y-83439000D01*
X115865259Y-83439000D01*
X115724688Y-83615985D01*
X107795312Y-83615985D01*
X107654741Y-83439000D01*
X106807000Y-83439000D01*
X106553000Y-83439000D01*
X105705259Y-83439000D01*
X105564688Y-83615985D01*
X101727000Y-83615985D01*
X101727000Y-82677000D01*
X105695844Y-82677000D01*
X105564688Y-83008015D01*
X105564688Y-83008015D01*
G37*
X105564688Y-83008015D02*
X105705259Y-83185000D01*
X106553000Y-83185000D01*
X106553000Y-83165000D01*
X106807000Y-83165000D01*
X106807000Y-83185000D01*
X107654741Y-83185000D01*
X107795312Y-83008015D01*
X107664156Y-82677000D01*
X115855844Y-82677000D01*
X115724688Y-83008015D01*
X115865259Y-83185000D01*
X116713000Y-83185000D01*
X116713000Y-83165000D01*
X116967000Y-83165000D01*
X116967000Y-83185000D01*
X117814741Y-83185000D01*
X117955312Y-83008015D01*
X117824156Y-82677000D01*
X118745000Y-82677000D01*
X118745000Y-88011000D01*
X101727000Y-88011000D01*
X101727000Y-85727805D01*
X105545000Y-85727805D01*
X105545000Y-85976195D01*
X105631397Y-86410541D01*
X105877434Y-86778761D01*
X106245654Y-87024798D01*
X106680000Y-87111195D01*
X107114346Y-87024798D01*
X107482566Y-86778761D01*
X107728603Y-86410541D01*
X107815000Y-85976195D01*
X107815000Y-85727805D01*
X115705000Y-85727805D01*
X115705000Y-85976195D01*
X115791397Y-86410541D01*
X116037434Y-86778761D01*
X116405654Y-87024798D01*
X116840000Y-87111195D01*
X117274346Y-87024798D01*
X117642566Y-86778761D01*
X117888603Y-86410541D01*
X117975000Y-85976195D01*
X117975000Y-85727805D01*
X117888603Y-85293459D01*
X117642566Y-84925239D01*
X117274346Y-84679202D01*
X116840000Y-84592805D01*
X116405654Y-84679202D01*
X116037434Y-84925239D01*
X115791397Y-85293459D01*
X115705000Y-85727805D01*
X107815000Y-85727805D01*
X107728603Y-85293459D01*
X107482566Y-84925239D01*
X107114346Y-84679202D01*
X106680000Y-84592805D01*
X106245654Y-84679202D01*
X105877434Y-84925239D01*
X105631397Y-85293459D01*
X105545000Y-85727805D01*
X101727000Y-85727805D01*
X101727000Y-83615985D01*
X105564688Y-83615985D01*
X105727648Y-84027269D01*
X106035595Y-84344884D01*
X106378126Y-84506119D01*
X106553000Y-84379954D01*
X106553000Y-83439000D01*
X106807000Y-83439000D01*
X106807000Y-84379954D01*
X106981874Y-84506119D01*
X107324405Y-84344884D01*
X107632352Y-84027269D01*
X107795312Y-83615985D01*
X115724688Y-83615985D01*
X115887648Y-84027269D01*
X116195595Y-84344884D01*
X116538126Y-84506119D01*
X116713000Y-84379954D01*
X116713000Y-83439000D01*
X116967000Y-83439000D01*
X116967000Y-84379954D01*
X117141874Y-84506119D01*
X117484405Y-84344884D01*
X117792352Y-84027269D01*
X117955312Y-83615985D01*
X117814741Y-83439000D01*
X116967000Y-83439000D01*
X116713000Y-83439000D01*
X115865259Y-83439000D01*
X115724688Y-83615985D01*
X107795312Y-83615985D01*
X107654741Y-83439000D01*
X106807000Y-83439000D01*
X106553000Y-83439000D01*
X105705259Y-83439000D01*
X105564688Y-83615985D01*
X101727000Y-83615985D01*
X101727000Y-82677000D01*
X105695844Y-82677000D01*
X105564688Y-83008015D01*
M02*
