G04 #@! TF.FileFunction,Soldermask,Top*
%FSLAX46Y46*%
G04 Gerber Fmt 4.6, Leading zero omitted, Abs format (unit mm)*
G04 Created by KiCad (PCBNEW 4.0.7-e2-6376~58~ubuntu16.04.1) date Wed Jul 25 01:15:53 2018*
%MOMM*%
%LPD*%
G01*
G04 APERTURE LIST*
%ADD10C,0.100000*%
%ADD11R,3.400000X1.400000*%
%ADD12C,3.600000*%
%ADD13R,2.900000X1.400000*%
%ADD14R,1.150000X1.200000*%
%ADD15R,1.700000X1.700000*%
%ADD16C,1.700000*%
%ADD17R,3.200000X3.200000*%
%ADD18C,3.200000*%
%ADD19R,3.400000X3.400000*%
%ADD20C,3.400000*%
%ADD21C,2.800000*%
%ADD22R,2.800000X2.800000*%
%ADD23R,0.800000X1.750000*%
%ADD24O,1.650000X1.350000*%
%ADD25O,1.400000X1.950000*%
%ADD26R,1.300000X1.200000*%
%ADD27R,1.300000X0.900000*%
%ADD28R,0.900000X1.300000*%
%ADD29R,1.900000X0.700000*%
%ADD30R,1.700000X0.650000*%
%ADD31R,0.650000X1.700000*%
%ADD32O,1.600000X1.250000*%
%ADD33O,1.400000X1.600000*%
%ADD34O,2.400000X1.910000*%
%ADD35R,1.200000X1.000000*%
%ADD36R,1.000000X1.200000*%
%ADD37R,2.940000X2.940000*%
%ADD38C,2.940000*%
%ADD39R,1.300000X2.900000*%
%ADD40R,3.900000X2.000000*%
%ADD41C,2.700000*%
G04 APERTURE END LIST*
D10*
D11*
X141072397Y-124446949D03*
X141072397Y-119846949D03*
D12*
X209042000Y-48768000D03*
X209042000Y-149098000D03*
X152146000Y-48768000D03*
X152146000Y-149098000D03*
X82042000Y-149098000D03*
D11*
X109016800Y-131092000D03*
X109016800Y-126492000D03*
D13*
X94386400Y-116917600D03*
X94386400Y-113917600D03*
D11*
X99872800Y-117717600D03*
X99872800Y-113117600D03*
X160122397Y-137654949D03*
X160122397Y-133054949D03*
X153772397Y-137654949D03*
X153772397Y-133054949D03*
X147422397Y-137654949D03*
X147422397Y-133054949D03*
X141021597Y-137654949D03*
X141021597Y-133054949D03*
X134722397Y-133054949D03*
X134722397Y-137654949D03*
X160122397Y-124446949D03*
X160122397Y-119846949D03*
X153772397Y-124446949D03*
X153772397Y-119846949D03*
X147422397Y-124446949D03*
X147422397Y-119846949D03*
X134722397Y-119846949D03*
X134722397Y-124446949D03*
D14*
X125171200Y-96508000D03*
X125171200Y-95008000D03*
X121361200Y-96508000D03*
X121361200Y-95008000D03*
X118262400Y-93218000D03*
X118262400Y-91718000D03*
D15*
X115976400Y-138176000D03*
D16*
X115976400Y-140676000D03*
D15*
X115824000Y-131572000D03*
D16*
X115824000Y-134072000D03*
D11*
X109118400Y-133894800D03*
X109118400Y-138494800D03*
D17*
X157716000Y-52920000D03*
D18*
X161916000Y-52920000D03*
X166116000Y-52920000D03*
X170316000Y-52920000D03*
X157716000Y-58420000D03*
X161916000Y-58420000D03*
X166116000Y-58420000D03*
X170316000Y-58420000D03*
X123434000Y-70358000D03*
X119634000Y-70358000D03*
X123434000Y-57858000D03*
X119634000Y-57858000D03*
X108434000Y-70358000D03*
X104634000Y-70358000D03*
X108434000Y-57858000D03*
X104634000Y-57858000D03*
X88900000Y-67310000D03*
X88900000Y-71110000D03*
X76400000Y-67310000D03*
X76400000Y-71110000D03*
X88900000Y-82310000D03*
X88900000Y-86110000D03*
X76400000Y-82310000D03*
X76400000Y-86110000D03*
D19*
X248920000Y-76200000D03*
D20*
X248920000Y-71120000D03*
X248920000Y-66040000D03*
X248920000Y-60960000D03*
X248920000Y-55880000D03*
X248920000Y-50800000D03*
D19*
X248920000Y-142240000D03*
D20*
X248920000Y-137160000D03*
X248920000Y-132080000D03*
X248920000Y-127000000D03*
X248920000Y-121920000D03*
X248920000Y-116840000D03*
D19*
X76200000Y-101600000D03*
D20*
X76200000Y-106680000D03*
X76200000Y-111760000D03*
X76200000Y-116840000D03*
X76200000Y-121920000D03*
X76200000Y-127000000D03*
D21*
X202494000Y-54356000D03*
D22*
X205994000Y-54356000D03*
D21*
X198994000Y-54356000D03*
X195494000Y-54356000D03*
X191994000Y-54356000D03*
X188494000Y-54356000D03*
D23*
X142804000Y-60358000D03*
X142154000Y-60358000D03*
X141504000Y-60358000D03*
X143454000Y-60358000D03*
X144104000Y-60358000D03*
D24*
X140304000Y-60358000D03*
X145304000Y-60358000D03*
D25*
X146304000Y-57658000D03*
X139304000Y-57658000D03*
D26*
X113842800Y-100360400D03*
X113842800Y-102260400D03*
X115842800Y-101310400D03*
X108677200Y-100192800D03*
X108677200Y-102092800D03*
X110677200Y-101142800D03*
X121275600Y-135041600D03*
X121275600Y-136941600D03*
X123275600Y-135991600D03*
D27*
X111353600Y-93206000D03*
X111353600Y-91706000D03*
X111353600Y-96812800D03*
X111353600Y-95312800D03*
D28*
X105194800Y-118618000D03*
X103694800Y-118618000D03*
D27*
X160122397Y-127492949D03*
X160122397Y-128992949D03*
X154026397Y-127492949D03*
X154026397Y-128992949D03*
X147422397Y-127492949D03*
X147422397Y-128992949D03*
X141326397Y-127492949D03*
X141326397Y-128992949D03*
X134722397Y-127492949D03*
X134722397Y-128992949D03*
X160376397Y-114284949D03*
X160376397Y-115784949D03*
X153772397Y-114284949D03*
X153772397Y-115784949D03*
X147676397Y-114284949D03*
X147676397Y-115784949D03*
X141072397Y-114284949D03*
X141072397Y-115784949D03*
X134976397Y-115784949D03*
X134976397Y-114284949D03*
X125222000Y-91756800D03*
X125222000Y-93256800D03*
X121361200Y-91718000D03*
X121361200Y-93218000D03*
D28*
X121259600Y-131572000D03*
X122759600Y-131572000D03*
X119392000Y-122174000D03*
X120892000Y-122174000D03*
X103694800Y-112217200D03*
X105194800Y-112217200D03*
X115023200Y-128574800D03*
X116523200Y-128574800D03*
D29*
X117144800Y-105492800D03*
X117144800Y-105992800D03*
X117144800Y-106492800D03*
X117144800Y-106992800D03*
X117144800Y-107492800D03*
X117144800Y-107992800D03*
X117144800Y-108532800D03*
X117144800Y-109032800D03*
X117144800Y-109532800D03*
X117144800Y-110032800D03*
X117144800Y-110532800D03*
X117144800Y-111032800D03*
X117144800Y-111532800D03*
X117144800Y-112032800D03*
X117144800Y-112532800D03*
X122944800Y-112532800D03*
X122944800Y-112032800D03*
X122944800Y-111532800D03*
X122944800Y-111032800D03*
X122944800Y-110532800D03*
X122944800Y-110032800D03*
X122944800Y-109532800D03*
X122944800Y-109032800D03*
X122944800Y-108532800D03*
X122944800Y-108032800D03*
X122944800Y-107532800D03*
X122944800Y-107032800D03*
X122944800Y-106532800D03*
X122944800Y-106032800D03*
X122944800Y-105532800D03*
D30*
X133592000Y-99224400D03*
X133592000Y-99724400D03*
X133592000Y-100224400D03*
X133592000Y-100724400D03*
X133592000Y-101224400D03*
X133592000Y-101724400D03*
X133592000Y-102224400D03*
X133592000Y-102724400D03*
X133592000Y-103224400D03*
X133592000Y-103724400D03*
X133592000Y-104224400D03*
X133592000Y-104724400D03*
D31*
X135192000Y-106324400D03*
X135692000Y-106324400D03*
X136192000Y-106324400D03*
X136692000Y-106324400D03*
X137192000Y-106324400D03*
X137692000Y-106324400D03*
X138192000Y-106324400D03*
X138692000Y-106324400D03*
X139192000Y-106324400D03*
X139692000Y-106324400D03*
X140192000Y-106324400D03*
X140692000Y-106324400D03*
D30*
X142292000Y-104724400D03*
X142292000Y-104224400D03*
X142292000Y-103724400D03*
X142292000Y-103224400D03*
X142292000Y-102724400D03*
X142292000Y-102224400D03*
X142292000Y-101724400D03*
X142292000Y-101224400D03*
X142292000Y-100724400D03*
X142292000Y-100224400D03*
X142292000Y-99724400D03*
X142292000Y-99224400D03*
D31*
X140692000Y-97624400D03*
X140192000Y-97624400D03*
X139692000Y-97624400D03*
X139192000Y-97624400D03*
X138692000Y-97624400D03*
X138192000Y-97624400D03*
X137692000Y-97624400D03*
X137192000Y-97624400D03*
X136692000Y-97624400D03*
X136192000Y-97624400D03*
X135692000Y-97624400D03*
X135192000Y-97624400D03*
D15*
X191860800Y-82651600D03*
D16*
X194360800Y-82651600D03*
D27*
X114655600Y-93206000D03*
X114655600Y-91706000D03*
X193356800Y-87438800D03*
X193356800Y-88938800D03*
D32*
X212384000Y-62952000D03*
X209804000Y-62992000D03*
X207264000Y-62992000D03*
X204724000Y-62992000D03*
X202184000Y-62992000D03*
X199644000Y-62992000D03*
X197104000Y-62992000D03*
X194564000Y-62992000D03*
X192024000Y-62992000D03*
X189484000Y-62992000D03*
X186944000Y-62992000D03*
X184404000Y-62992000D03*
D26*
X108626400Y-105323600D03*
X108626400Y-107223600D03*
X110626400Y-106273600D03*
X103902000Y-114467600D03*
X103902000Y-116367600D03*
X105902000Y-115417600D03*
D33*
X106680000Y-85852000D03*
X106680000Y-83312000D03*
X106680000Y-80772000D03*
X116840000Y-85852000D03*
X116840000Y-83312000D03*
X116840000Y-80772000D03*
D34*
X125222000Y-85090000D03*
X130302000Y-85090000D03*
D35*
X114655600Y-95365200D03*
X114655600Y-97065200D03*
D36*
X119139600Y-115468400D03*
X120839600Y-115468400D03*
X119190400Y-118719600D03*
X120890400Y-118719600D03*
D37*
X172720000Y-103886000D03*
D38*
X177800000Y-103886000D03*
D37*
X172720000Y-121666000D03*
D38*
X177800000Y-121666000D03*
D37*
X172720000Y-86106000D03*
D38*
X177800000Y-86106000D03*
D21*
X248412000Y-101686000D03*
D22*
X248412000Y-105186000D03*
D21*
X248412000Y-98186000D03*
X248412000Y-94686000D03*
X248412000Y-91186000D03*
X248412000Y-87686000D03*
D37*
X227330000Y-59690000D03*
D38*
X232410000Y-59690000D03*
D37*
X227330000Y-77470000D03*
D38*
X232410000Y-77470000D03*
D12*
X82042000Y-48768000D03*
D39*
X221922000Y-146558000D03*
X219022000Y-146558000D03*
D40*
X209042000Y-92303600D03*
X209042000Y-97180400D03*
D16*
X201620000Y-89154000D03*
D15*
X198120000Y-89154000D03*
D41*
X218186000Y-140462000D03*
X223266000Y-140462000D03*
X233426000Y-140462000D03*
X215646000Y-94742000D03*
X225806000Y-94742000D03*
X235966000Y-94742000D03*
D15*
X203708000Y-136144000D03*
D16*
X208708000Y-136144000D03*
M02*
