G04 #@! TF.FileFunction,Soldermask,Top*
%FSLAX46Y46*%
G04 Gerber Fmt 4.6, Leading zero omitted, Abs format (unit mm)*
G04 Created by KiCad (PCBNEW 4.0.7) date 04/21/18 17:47:43*
%MOMM*%
%LPD*%
G01*
G04 APERTURE LIST*
%ADD10C,0.100000*%
%ADD11C,3.600000*%
%ADD12R,2.800000X2.800000*%
%ADD13C,2.800000*%
%ADD14R,2.000000X2.000000*%
%ADD15C,2.000000*%
%ADD16R,2.400000X2.400000*%
%ADD17C,2.400000*%
%ADD18R,2.200000X2.200000*%
%ADD19O,2.200000X2.200000*%
%ADD20C,3.200000*%
%ADD21C,2.600000*%
%ADD22R,1.700000X0.650000*%
%ADD23R,0.650000X1.700000*%
%ADD24R,2.100000X2.900000*%
%ADD25R,1.100000X0.650000*%
%ADD26R,1.300000X0.900000*%
%ADD27R,0.900000X1.300000*%
%ADD28R,1.300000X1.200000*%
%ADD29R,2.525980X2.525980*%
%ADD30R,0.800000X1.750000*%
%ADD31O,1.650000X1.350000*%
%ADD32O,1.400000X1.950000*%
%ADD33R,3.400000X3.400000*%
%ADD34C,3.400000*%
%ADD35R,3.200000X3.200000*%
%ADD36R,0.900000X0.900000*%
%ADD37R,1.000000X1.200000*%
%ADD38R,1.400000X3.400000*%
%ADD39R,1.150000X1.200000*%
%ADD40R,3.400000X1.400000*%
%ADD41R,1.400000X2.900000*%
%ADD42R,2.900000X1.400000*%
%ADD43R,1.900000X0.700000*%
G04 APERTURE END LIST*
D10*
D11*
X154380000Y-40630000D03*
X154380000Y-141040000D03*
D12*
X175055000Y-59702000D03*
D13*
X180055000Y-59702000D03*
D12*
X175055000Y-74162000D03*
D13*
X180055000Y-74162000D03*
D12*
X175055000Y-87987000D03*
D13*
X180055000Y-87987000D03*
D12*
X175325000Y-101967000D03*
D13*
X180325000Y-101967000D03*
D12*
X175325000Y-115792000D03*
D13*
X180325000Y-115792000D03*
D12*
X175325000Y-129617000D03*
D13*
X180325000Y-129617000D03*
D14*
X154279600Y-104597200D03*
D15*
X154279600Y-107097200D03*
D12*
X190055000Y-59702000D03*
D13*
X195055000Y-59702000D03*
D12*
X190055000Y-74162000D03*
D13*
X195055000Y-74162000D03*
D12*
X190055000Y-87987000D03*
D13*
X195055000Y-87987000D03*
D12*
X190325000Y-101967000D03*
D13*
X195325000Y-101967000D03*
D12*
X190325000Y-115792000D03*
D13*
X195325000Y-115792000D03*
D12*
X190325000Y-129617000D03*
D13*
X195325000Y-129617000D03*
D14*
X146659600Y-104597200D03*
D15*
X146659600Y-107097200D03*
D12*
X205055000Y-59702000D03*
D13*
X210055000Y-59702000D03*
D12*
X205055000Y-74162000D03*
D13*
X210055000Y-74162000D03*
D12*
X205055000Y-87987000D03*
D13*
X210055000Y-87987000D03*
D12*
X205325000Y-101967000D03*
D13*
X210325000Y-101967000D03*
D12*
X205325000Y-115792000D03*
D13*
X210325000Y-115792000D03*
D12*
X205325000Y-129617000D03*
D13*
X210325000Y-129617000D03*
D14*
X161899600Y-104597200D03*
D15*
X161899600Y-107097200D03*
D14*
X151104600Y-97612200D03*
D15*
X151104600Y-100112200D03*
D14*
X157454600Y-97612200D03*
D15*
X157454600Y-100112200D03*
D14*
X163804600Y-97612200D03*
D15*
X163804600Y-100112200D03*
D13*
X167914200Y-115773200D03*
D12*
X164414200Y-115773200D03*
D13*
X85369400Y-121315600D03*
D12*
X85369400Y-117815600D03*
D13*
X85369400Y-124815600D03*
X85369400Y-128315600D03*
X85369400Y-131815600D03*
X85369400Y-135315600D03*
D16*
X160629600Y-87452200D03*
D17*
X160629600Y-92452200D03*
D18*
X113157000Y-77216000D03*
D19*
X113157000Y-74676000D03*
X113157000Y-72136000D03*
D18*
X125857000Y-77216000D03*
D19*
X125857000Y-74676000D03*
X125857000Y-72136000D03*
D13*
X170292000Y-43815000D03*
X166792000Y-43815000D03*
X173792000Y-43815000D03*
D12*
X177292000Y-43815000D03*
D20*
X118455000Y-38802000D03*
X122255000Y-38802000D03*
D21*
X118455000Y-54802000D03*
X122255000Y-54802000D03*
D20*
X133445000Y-38802000D03*
X137255000Y-38792000D03*
D21*
X133455000Y-54802000D03*
X137255000Y-54792000D03*
D11*
X84380000Y-141040000D03*
D18*
X135813800Y-78079600D03*
D19*
X140893800Y-78079600D03*
D22*
X131959600Y-118777200D03*
X131959600Y-118277200D03*
X131959600Y-117777200D03*
X131959600Y-117277200D03*
X131959600Y-116777200D03*
X131959600Y-116277200D03*
X131959600Y-115777200D03*
X131959600Y-115277200D03*
X131959600Y-114777200D03*
X131959600Y-114277200D03*
X131959600Y-113777200D03*
X131959600Y-113277200D03*
D23*
X130359600Y-111677200D03*
X129859600Y-111677200D03*
X129359600Y-111677200D03*
X128859600Y-111677200D03*
X128359600Y-111677200D03*
X127859600Y-111677200D03*
X127359600Y-111677200D03*
X126859600Y-111677200D03*
X126359600Y-111677200D03*
X125859600Y-111677200D03*
X125359600Y-111677200D03*
X124859600Y-111677200D03*
D22*
X123259600Y-113277200D03*
X123259600Y-113777200D03*
X123259600Y-114277200D03*
X123259600Y-114777200D03*
X123259600Y-115277200D03*
X123259600Y-115777200D03*
X123259600Y-116277200D03*
X123259600Y-116777200D03*
X123259600Y-117277200D03*
X123259600Y-117777200D03*
X123259600Y-118277200D03*
X123259600Y-118777200D03*
D23*
X124859600Y-120377200D03*
X125359600Y-120377200D03*
X125859600Y-120377200D03*
X126359600Y-120377200D03*
X126859600Y-120377200D03*
X127359600Y-120377200D03*
X127859600Y-120377200D03*
X128359600Y-120377200D03*
X128859600Y-120377200D03*
X129359600Y-120377200D03*
X129859600Y-120377200D03*
X130359600Y-120377200D03*
D24*
X149834600Y-91262200D03*
D25*
X148384600Y-90762200D03*
X148384600Y-91262200D03*
X148384600Y-90262200D03*
X148384600Y-92262200D03*
X148384600Y-91762200D03*
X151284600Y-92262200D03*
X151284600Y-91762200D03*
X151284600Y-91262200D03*
X151284600Y-90762200D03*
X151284600Y-90262200D03*
D26*
X132689600Y-86702200D03*
X132689600Y-88202200D03*
X126974600Y-90107200D03*
X126974600Y-88607200D03*
D27*
X144869600Y-86817200D03*
X143369600Y-86817200D03*
X141694600Y-86817200D03*
X140194600Y-86817200D03*
D26*
X106019600Y-93052200D03*
X106019600Y-94552200D03*
X110464600Y-93052200D03*
X110464600Y-94552200D03*
X114909600Y-93052200D03*
X114909600Y-94552200D03*
X119354600Y-93052200D03*
X119354600Y-94552200D03*
X125069600Y-88607200D03*
X125069600Y-90107200D03*
X123164600Y-88607200D03*
X123164600Y-90107200D03*
X106019600Y-88607200D03*
X106019600Y-90107200D03*
X110464600Y-88607200D03*
X110464600Y-90107200D03*
X114909600Y-88607200D03*
X114909600Y-90107200D03*
X119354600Y-88607200D03*
X119354600Y-90107200D03*
D28*
X128514600Y-85232200D03*
X128514600Y-87132200D03*
X130514600Y-86182200D03*
X128514600Y-92852200D03*
X128514600Y-94752200D03*
X130514600Y-93802200D03*
X128514600Y-89042200D03*
X128514600Y-90942200D03*
X130514600Y-89992200D03*
D29*
X129105660Y-127558800D03*
X129105660Y-132422900D03*
X133306820Y-127558800D03*
X133306820Y-132422900D03*
X137505440Y-127558800D03*
X137505440Y-132422900D03*
X141706600Y-127558800D03*
X141706600Y-132422900D03*
X145905220Y-127558800D03*
X145905220Y-132422900D03*
X150106380Y-127558800D03*
X150106380Y-132422900D03*
X154305000Y-127558800D03*
X154305000Y-132422900D03*
X158506160Y-127558800D03*
X158506160Y-132422900D03*
X162704780Y-127558800D03*
X162704780Y-132422900D03*
X166905940Y-127558800D03*
X166900860Y-132422900D03*
D30*
X94315400Y-39479200D03*
X93665400Y-39479200D03*
X93015400Y-39479200D03*
X94965400Y-39479200D03*
X95615400Y-39479200D03*
D31*
X91815400Y-39479200D03*
X96815400Y-39479200D03*
D32*
X97815400Y-36779200D03*
X90815400Y-36779200D03*
D33*
X219075000Y-106832400D03*
D34*
X219075000Y-101752400D03*
X219075000Y-96672400D03*
X219075000Y-91592400D03*
X219075000Y-86512400D03*
X219075000Y-81432400D03*
D33*
X84709000Y-87376000D03*
D34*
X84709000Y-92456000D03*
X84709000Y-97536000D03*
X84709000Y-102616000D03*
X84709000Y-107696000D03*
X84709000Y-112776000D03*
D33*
X219075000Y-140970000D03*
D34*
X219075000Y-135890000D03*
X219075000Y-130810000D03*
X219075000Y-125730000D03*
X219075000Y-120650000D03*
X219075000Y-115570000D03*
D33*
X219075000Y-73406000D03*
D34*
X219075000Y-68326000D03*
X219075000Y-63246000D03*
X219075000Y-58166000D03*
X219075000Y-53086000D03*
X219075000Y-48006000D03*
D20*
X98983800Y-55219600D03*
X98983800Y-59019600D03*
X86483800Y-55219600D03*
X86483800Y-59019600D03*
X98983800Y-70219600D03*
X98983800Y-74019600D03*
X86483800Y-70219600D03*
X86483800Y-74019600D03*
D35*
X147463400Y-47687600D03*
D20*
X151663400Y-47687600D03*
X155863400Y-47687600D03*
X160063400Y-47687600D03*
X147463400Y-53187600D03*
X151663400Y-53187600D03*
X155863400Y-53187600D03*
X160063400Y-53187600D03*
D36*
X124434600Y-94267200D03*
X124434600Y-92067200D03*
X122529600Y-94267200D03*
X122529600Y-92067200D03*
D37*
X148984600Y-93421200D03*
X150684600Y-93421200D03*
D36*
X126339600Y-92067200D03*
X126339600Y-94267200D03*
D38*
X139434600Y-111582200D03*
X134834600Y-111582200D03*
D39*
X142214600Y-88607200D03*
X142214600Y-90107200D03*
X144119600Y-90107200D03*
X144119600Y-88607200D03*
X140309600Y-88607200D03*
X140309600Y-90107200D03*
D40*
X106019600Y-101182200D03*
X106019600Y-96582200D03*
X110464600Y-101182200D03*
X110464600Y-96582200D03*
X114909600Y-101182200D03*
X114909600Y-96582200D03*
X119354600Y-101182200D03*
X119354600Y-96582200D03*
X106019600Y-108167200D03*
X106019600Y-103567200D03*
D38*
X139434600Y-102692200D03*
X134834600Y-102692200D03*
X134834600Y-107137200D03*
X139434600Y-107137200D03*
D40*
X110464600Y-103567200D03*
X110464600Y-108167200D03*
X114909600Y-108167200D03*
X114909600Y-103567200D03*
D38*
X139434600Y-98247200D03*
X134834600Y-98247200D03*
D41*
X137999600Y-89992200D03*
X134999600Y-89992200D03*
D38*
X134834600Y-93802200D03*
X139434600Y-93802200D03*
D42*
X144119600Y-99747200D03*
X144119600Y-96747200D03*
D43*
X130784600Y-106502200D03*
X130784600Y-106002200D03*
X130784600Y-105502200D03*
X130784600Y-105002200D03*
X130784600Y-104502200D03*
X130784600Y-104002200D03*
X130784600Y-103462200D03*
X130784600Y-102962200D03*
X130784600Y-102462200D03*
X130784600Y-101962200D03*
X130784600Y-101462200D03*
X130784600Y-100962200D03*
X130784600Y-100462200D03*
X130784600Y-99962200D03*
X130784600Y-99462200D03*
X124984600Y-99462200D03*
X124984600Y-99962200D03*
X124984600Y-100462200D03*
X124984600Y-100962200D03*
X124984600Y-101462200D03*
X124984600Y-101962200D03*
X124984600Y-102462200D03*
X124984600Y-102962200D03*
X124984600Y-103462200D03*
X124984600Y-103962200D03*
X124984600Y-104462200D03*
X124984600Y-104962200D03*
X124984600Y-105462200D03*
X124984600Y-105962200D03*
X124984600Y-106462200D03*
D11*
X211440000Y-141040000D03*
X211440000Y-40630000D03*
X84430000Y-40640000D03*
D40*
X119354600Y-108167200D03*
X119354600Y-103567200D03*
D27*
X131939600Y-89992200D03*
X133439600Y-89992200D03*
X131939600Y-91262200D03*
X133439600Y-91262200D03*
X133439600Y-92532200D03*
X131939600Y-92532200D03*
X131939600Y-93802200D03*
X133439600Y-93802200D03*
X131939600Y-95072200D03*
X133439600Y-95072200D03*
D26*
X144018000Y-92988000D03*
X144018000Y-94488000D03*
X145669000Y-94488000D03*
X145669000Y-92988000D03*
D27*
X147562000Y-89027000D03*
X146062000Y-89027000D03*
D26*
X152527000Y-88531000D03*
X152527000Y-90031000D03*
X154432000Y-90309000D03*
X154432000Y-91809000D03*
M02*
