G75*
%MOIN*%
%OFA0B0*%
%FSLAX24Y24*%
%IPPOS*%
%LPD*%
%AMOC8*
5,1,8,0,0,1.08239X$1,22.5*
%
%ADD10C,0.0000*%
D10*
X002495Y003425D02*
X002515Y042865D01*
X018747Y042855D01*
X018717Y003425D01*
X002495Y003425D01*
X006338Y005873D02*
X006340Y005902D01*
X006346Y005930D01*
X006355Y005958D01*
X006368Y005984D01*
X006385Y006007D01*
X006404Y006029D01*
X006426Y006048D01*
X006451Y006063D01*
X006477Y006076D01*
X006505Y006084D01*
X006533Y006089D01*
X006562Y006090D01*
X006591Y006087D01*
X006619Y006080D01*
X006646Y006070D01*
X006672Y006056D01*
X006695Y006039D01*
X006716Y006019D01*
X006734Y005996D01*
X006749Y005971D01*
X006760Y005944D01*
X006768Y005916D01*
X006772Y005887D01*
X006772Y005859D01*
X006768Y005830D01*
X006760Y005802D01*
X006749Y005775D01*
X006734Y005750D01*
X006716Y005727D01*
X006695Y005707D01*
X006672Y005690D01*
X006646Y005676D01*
X006619Y005666D01*
X006591Y005659D01*
X006562Y005656D01*
X006533Y005657D01*
X006505Y005662D01*
X006477Y005670D01*
X006451Y005683D01*
X006426Y005698D01*
X006404Y005717D01*
X006385Y005739D01*
X006368Y005762D01*
X006355Y005788D01*
X006346Y005816D01*
X006340Y005844D01*
X006338Y005873D01*
X006279Y036031D02*
X006281Y036064D01*
X006287Y036096D01*
X006296Y036127D01*
X006309Y036157D01*
X006326Y036185D01*
X006346Y036211D01*
X006369Y036235D01*
X006394Y036255D01*
X006422Y036273D01*
X006451Y036287D01*
X006482Y036297D01*
X006514Y036304D01*
X006547Y036307D01*
X006580Y036306D01*
X006612Y036301D01*
X006643Y036292D01*
X006674Y036280D01*
X006702Y036264D01*
X006729Y036245D01*
X006753Y036223D01*
X006774Y036198D01*
X006793Y036171D01*
X006808Y036142D01*
X006819Y036112D01*
X006827Y036080D01*
X006831Y036047D01*
X006831Y036015D01*
X006827Y035982D01*
X006819Y035950D01*
X006808Y035920D01*
X006793Y035891D01*
X006774Y035864D01*
X006753Y035839D01*
X006729Y035817D01*
X006702Y035798D01*
X006674Y035782D01*
X006643Y035770D01*
X006612Y035761D01*
X006580Y035756D01*
X006547Y035755D01*
X006514Y035758D01*
X006482Y035765D01*
X006451Y035775D01*
X006422Y035789D01*
X006394Y035807D01*
X006369Y035827D01*
X006346Y035851D01*
X006326Y035877D01*
X006309Y035905D01*
X006296Y035935D01*
X006287Y035966D01*
X006281Y035998D01*
X006279Y036031D01*
X011065Y041765D02*
X011067Y041815D01*
X011073Y041865D01*
X011083Y041914D01*
X011096Y041963D01*
X011114Y042010D01*
X011135Y042056D01*
X011159Y042099D01*
X011187Y042141D01*
X011218Y042181D01*
X011252Y042218D01*
X011289Y042252D01*
X011329Y042283D01*
X011371Y042311D01*
X011414Y042335D01*
X011460Y042356D01*
X011507Y042374D01*
X011556Y042387D01*
X011605Y042397D01*
X011655Y042403D01*
X011705Y042405D01*
X011755Y042403D01*
X011805Y042397D01*
X011854Y042387D01*
X011903Y042374D01*
X011950Y042356D01*
X011996Y042335D01*
X012039Y042311D01*
X012081Y042283D01*
X012121Y042252D01*
X012158Y042218D01*
X012192Y042181D01*
X012223Y042141D01*
X012251Y042099D01*
X012275Y042056D01*
X012296Y042010D01*
X012314Y041963D01*
X012327Y041914D01*
X012337Y041865D01*
X012343Y041815D01*
X012345Y041765D01*
X012343Y041715D01*
X012337Y041665D01*
X012327Y041616D01*
X012314Y041567D01*
X012296Y041520D01*
X012275Y041474D01*
X012251Y041431D01*
X012223Y041389D01*
X012192Y041349D01*
X012158Y041312D01*
X012121Y041278D01*
X012081Y041247D01*
X012039Y041219D01*
X011996Y041195D01*
X011950Y041174D01*
X011903Y041156D01*
X011854Y041143D01*
X011805Y041133D01*
X011755Y041127D01*
X011705Y041125D01*
X011655Y041127D01*
X011605Y041133D01*
X011556Y041143D01*
X011507Y041156D01*
X011460Y041174D01*
X011414Y041195D01*
X011371Y041219D01*
X011329Y041247D01*
X011289Y041278D01*
X011252Y041312D01*
X011218Y041349D01*
X011187Y041389D01*
X011159Y041431D01*
X011135Y041474D01*
X011114Y041520D01*
X011096Y041567D01*
X011083Y041616D01*
X011073Y041665D01*
X011067Y041715D01*
X011065Y041765D01*
X016065Y041765D02*
X016067Y041815D01*
X016073Y041865D01*
X016083Y041914D01*
X016096Y041963D01*
X016114Y042010D01*
X016135Y042056D01*
X016159Y042099D01*
X016187Y042141D01*
X016218Y042181D01*
X016252Y042218D01*
X016289Y042252D01*
X016329Y042283D01*
X016371Y042311D01*
X016414Y042335D01*
X016460Y042356D01*
X016507Y042374D01*
X016556Y042387D01*
X016605Y042397D01*
X016655Y042403D01*
X016705Y042405D01*
X016755Y042403D01*
X016805Y042397D01*
X016854Y042387D01*
X016903Y042374D01*
X016950Y042356D01*
X016996Y042335D01*
X017039Y042311D01*
X017081Y042283D01*
X017121Y042252D01*
X017158Y042218D01*
X017192Y042181D01*
X017223Y042141D01*
X017251Y042099D01*
X017275Y042056D01*
X017296Y042010D01*
X017314Y041963D01*
X017327Y041914D01*
X017337Y041865D01*
X017343Y041815D01*
X017345Y041765D01*
X017343Y041715D01*
X017337Y041665D01*
X017327Y041616D01*
X017314Y041567D01*
X017296Y041520D01*
X017275Y041474D01*
X017251Y041431D01*
X017223Y041389D01*
X017192Y041349D01*
X017158Y041312D01*
X017121Y041278D01*
X017081Y041247D01*
X017039Y041219D01*
X016996Y041195D01*
X016950Y041174D01*
X016903Y041156D01*
X016854Y041143D01*
X016805Y041133D01*
X016755Y041127D01*
X016705Y041125D01*
X016655Y041127D01*
X016605Y041133D01*
X016556Y041143D01*
X016507Y041156D01*
X016460Y041174D01*
X016414Y041195D01*
X016371Y041219D01*
X016329Y041247D01*
X016289Y041278D01*
X016252Y041312D01*
X016218Y041349D01*
X016187Y041389D01*
X016159Y041431D01*
X016135Y041474D01*
X016114Y041520D01*
X016096Y041567D01*
X016083Y041616D01*
X016073Y041665D01*
X016067Y041715D01*
X016065Y041765D01*
M02*
