G75*
%MOIN*%
%OFA0B0*%
%FSLAX24Y24*%
%IPPOS*%
%LPD*%
%AMOC8*
5,1,8,0,0,1.08239X$1,22.5*
%
%ADD10C,0.0000*%
%ADD11R,0.1457X0.0631*%
%ADD12R,0.0440X0.0180*%
%ADD13R,0.0440X0.0160*%
%ADD14R,0.0434X0.0473*%
%ADD15R,0.0473X0.0434*%
%ADD16R,0.0434X0.0138*%
%ADD17R,0.0749X0.1034*%
%ADD18R,0.0310X0.0340*%
%ADD19R,0.0420X0.0640*%
%ADD20R,0.0316X0.0394*%
%ADD21R,0.0394X0.0316*%
%ADD22R,0.0520X0.0780*%
%ADD23C,0.0560*%
%ADD24C,0.1346*%
%ADD25R,0.0340X0.0310*%
%ADD26C,0.0476*%
%ADD27R,0.0197X0.0394*%
%ADD28C,0.0780*%
%ADD29C,0.1320*%
%ADD30C,0.0591*%
%ADD31C,0.0473*%
D10*
X002495Y003425D02*
X002515Y042865D01*
X018747Y042855D01*
X018717Y003425D01*
X002495Y003425D01*
X006338Y005873D02*
X006340Y005902D01*
X006346Y005930D01*
X006355Y005958D01*
X006368Y005984D01*
X006385Y006007D01*
X006404Y006029D01*
X006426Y006048D01*
X006451Y006063D01*
X006477Y006076D01*
X006505Y006084D01*
X006533Y006089D01*
X006562Y006090D01*
X006591Y006087D01*
X006619Y006080D01*
X006646Y006070D01*
X006672Y006056D01*
X006695Y006039D01*
X006716Y006019D01*
X006734Y005996D01*
X006749Y005971D01*
X006760Y005944D01*
X006768Y005916D01*
X006772Y005887D01*
X006772Y005859D01*
X006768Y005830D01*
X006760Y005802D01*
X006749Y005775D01*
X006734Y005750D01*
X006716Y005727D01*
X006695Y005707D01*
X006672Y005690D01*
X006646Y005676D01*
X006619Y005666D01*
X006591Y005659D01*
X006562Y005656D01*
X006533Y005657D01*
X006505Y005662D01*
X006477Y005670D01*
X006451Y005683D01*
X006426Y005698D01*
X006404Y005717D01*
X006385Y005739D01*
X006368Y005762D01*
X006355Y005788D01*
X006346Y005816D01*
X006340Y005844D01*
X006338Y005873D01*
X006279Y036031D02*
X006281Y036064D01*
X006287Y036096D01*
X006296Y036127D01*
X006309Y036157D01*
X006326Y036185D01*
X006346Y036211D01*
X006369Y036235D01*
X006394Y036255D01*
X006422Y036273D01*
X006451Y036287D01*
X006482Y036297D01*
X006514Y036304D01*
X006547Y036307D01*
X006580Y036306D01*
X006612Y036301D01*
X006643Y036292D01*
X006674Y036280D01*
X006702Y036264D01*
X006729Y036245D01*
X006753Y036223D01*
X006774Y036198D01*
X006793Y036171D01*
X006808Y036142D01*
X006819Y036112D01*
X006827Y036080D01*
X006831Y036047D01*
X006831Y036015D01*
X006827Y035982D01*
X006819Y035950D01*
X006808Y035920D01*
X006793Y035891D01*
X006774Y035864D01*
X006753Y035839D01*
X006729Y035817D01*
X006702Y035798D01*
X006674Y035782D01*
X006643Y035770D01*
X006612Y035761D01*
X006580Y035756D01*
X006547Y035755D01*
X006514Y035758D01*
X006482Y035765D01*
X006451Y035775D01*
X006422Y035789D01*
X006394Y035807D01*
X006369Y035827D01*
X006346Y035851D01*
X006326Y035877D01*
X006309Y035905D01*
X006296Y035935D01*
X006287Y035966D01*
X006281Y035998D01*
X006279Y036031D01*
X011065Y041765D02*
X011067Y041815D01*
X011073Y041865D01*
X011083Y041914D01*
X011096Y041963D01*
X011114Y042010D01*
X011135Y042056D01*
X011159Y042099D01*
X011187Y042141D01*
X011218Y042181D01*
X011252Y042218D01*
X011289Y042252D01*
X011329Y042283D01*
X011371Y042311D01*
X011414Y042335D01*
X011460Y042356D01*
X011507Y042374D01*
X011556Y042387D01*
X011605Y042397D01*
X011655Y042403D01*
X011705Y042405D01*
X011755Y042403D01*
X011805Y042397D01*
X011854Y042387D01*
X011903Y042374D01*
X011950Y042356D01*
X011996Y042335D01*
X012039Y042311D01*
X012081Y042283D01*
X012121Y042252D01*
X012158Y042218D01*
X012192Y042181D01*
X012223Y042141D01*
X012251Y042099D01*
X012275Y042056D01*
X012296Y042010D01*
X012314Y041963D01*
X012327Y041914D01*
X012337Y041865D01*
X012343Y041815D01*
X012345Y041765D01*
X012343Y041715D01*
X012337Y041665D01*
X012327Y041616D01*
X012314Y041567D01*
X012296Y041520D01*
X012275Y041474D01*
X012251Y041431D01*
X012223Y041389D01*
X012192Y041349D01*
X012158Y041312D01*
X012121Y041278D01*
X012081Y041247D01*
X012039Y041219D01*
X011996Y041195D01*
X011950Y041174D01*
X011903Y041156D01*
X011854Y041143D01*
X011805Y041133D01*
X011755Y041127D01*
X011705Y041125D01*
X011655Y041127D01*
X011605Y041133D01*
X011556Y041143D01*
X011507Y041156D01*
X011460Y041174D01*
X011414Y041195D01*
X011371Y041219D01*
X011329Y041247D01*
X011289Y041278D01*
X011252Y041312D01*
X011218Y041349D01*
X011187Y041389D01*
X011159Y041431D01*
X011135Y041474D01*
X011114Y041520D01*
X011096Y041567D01*
X011083Y041616D01*
X011073Y041665D01*
X011067Y041715D01*
X011065Y041765D01*
X016065Y041765D02*
X016067Y041815D01*
X016073Y041865D01*
X016083Y041914D01*
X016096Y041963D01*
X016114Y042010D01*
X016135Y042056D01*
X016159Y042099D01*
X016187Y042141D01*
X016218Y042181D01*
X016252Y042218D01*
X016289Y042252D01*
X016329Y042283D01*
X016371Y042311D01*
X016414Y042335D01*
X016460Y042356D01*
X016507Y042374D01*
X016556Y042387D01*
X016605Y042397D01*
X016655Y042403D01*
X016705Y042405D01*
X016755Y042403D01*
X016805Y042397D01*
X016854Y042387D01*
X016903Y042374D01*
X016950Y042356D01*
X016996Y042335D01*
X017039Y042311D01*
X017081Y042283D01*
X017121Y042252D01*
X017158Y042218D01*
X017192Y042181D01*
X017223Y042141D01*
X017251Y042099D01*
X017275Y042056D01*
X017296Y042010D01*
X017314Y041963D01*
X017327Y041914D01*
X017337Y041865D01*
X017343Y041815D01*
X017345Y041765D01*
X017343Y041715D01*
X017337Y041665D01*
X017327Y041616D01*
X017314Y041567D01*
X017296Y041520D01*
X017275Y041474D01*
X017251Y041431D01*
X017223Y041389D01*
X017192Y041349D01*
X017158Y041312D01*
X017121Y041278D01*
X017081Y041247D01*
X017039Y041219D01*
X016996Y041195D01*
X016950Y041174D01*
X016903Y041156D01*
X016854Y041143D01*
X016805Y041133D01*
X016755Y041127D01*
X016705Y041125D01*
X016655Y041127D01*
X016605Y041133D01*
X016556Y041143D01*
X016507Y041156D01*
X016460Y041174D01*
X016414Y041195D01*
X016371Y041219D01*
X016329Y041247D01*
X016289Y041278D01*
X016252Y041312D01*
X016218Y041349D01*
X016187Y041389D01*
X016159Y041431D01*
X016135Y041474D01*
X016114Y041520D01*
X016096Y041567D01*
X016083Y041616D01*
X016073Y041665D01*
X016067Y041715D01*
X016065Y041765D01*
D11*
X009255Y041425D03*
X009255Y040225D03*
X004745Y039195D03*
X004745Y037995D03*
D12*
X007035Y012905D03*
X007035Y012505D03*
X006395Y012055D03*
X006395Y011655D03*
D13*
X006395Y012705D03*
X007035Y011855D03*
D14*
X011545Y027890D03*
X011545Y028560D03*
X009465Y028940D03*
X009465Y029610D03*
D15*
X010380Y024215D03*
X011050Y024215D03*
X005720Y030095D03*
X005050Y030095D03*
D16*
X006219Y039268D03*
X006219Y039445D03*
X006219Y039622D03*
X006219Y039799D03*
X006219Y039976D03*
X006219Y040154D03*
X007557Y040154D03*
X007557Y039976D03*
X007557Y039799D03*
X007557Y039622D03*
X007557Y039445D03*
X007557Y039268D03*
D17*
X006888Y039709D03*
D18*
X008115Y038105D03*
X008535Y038105D03*
X011775Y025915D03*
X012195Y025915D03*
X010845Y025615D03*
X010845Y024985D03*
X010425Y024985D03*
X010425Y025615D03*
X010635Y023305D03*
X010635Y022675D03*
X011055Y022675D03*
X011055Y023305D03*
X011995Y023155D03*
X012415Y023155D03*
X012415Y022515D03*
X011995Y022515D03*
D19*
X013645Y030165D03*
X014465Y030165D03*
X007285Y037545D03*
X007285Y038585D03*
X006465Y038585D03*
X006465Y037545D03*
X006455Y040865D03*
X006455Y041935D03*
X007275Y041935D03*
X007275Y040865D03*
X011235Y010705D03*
X012055Y010705D03*
D20*
X012061Y011535D03*
X011549Y011535D03*
X008091Y019245D03*
X007579Y019245D03*
X007579Y019945D03*
X008091Y019945D03*
X005501Y012455D03*
X004989Y012455D03*
X004989Y011125D03*
X005501Y011125D03*
X006379Y031685D03*
X006891Y031685D03*
X004221Y033285D03*
X004211Y032725D03*
X003699Y032725D03*
X003709Y033285D03*
X004779Y041385D03*
X004779Y042025D03*
X005291Y042025D03*
X005291Y041385D03*
X008069Y038705D03*
X008581Y038705D03*
X012509Y036865D03*
X013021Y036865D03*
X015539Y036865D03*
X016051Y036865D03*
D21*
X013655Y029191D03*
X013655Y028679D03*
X014275Y026291D03*
X014275Y025779D03*
X017705Y026269D03*
X017705Y026781D03*
X010365Y039009D03*
X010365Y039521D03*
X009175Y039521D03*
X009175Y039009D03*
X005285Y039889D03*
X005285Y040401D03*
X004105Y040411D03*
X004105Y039899D03*
X005555Y031561D03*
X005555Y031049D03*
X004685Y028881D03*
X004685Y028369D03*
X003635Y029979D03*
X003635Y030491D03*
X006135Y022261D03*
X006135Y021749D03*
X006145Y020961D03*
X006145Y020449D03*
D22*
X010715Y009645D03*
X012015Y009645D03*
D23*
X012967Y007976D03*
X012967Y006945D03*
X013951Y006945D03*
X013951Y007976D03*
X014739Y007976D03*
X014739Y006945D03*
X015723Y006945D03*
X015723Y007976D03*
D24*
X016932Y008114D03*
X016932Y005878D03*
X011758Y005878D03*
X011758Y008114D03*
D25*
X012855Y019745D03*
X012855Y020165D03*
X013455Y020175D03*
X013455Y019755D03*
X014125Y019745D03*
X014125Y020165D03*
X014795Y020165D03*
X014795Y019745D03*
X015425Y019745D03*
X015425Y020165D03*
X016055Y020165D03*
X016055Y019745D03*
X016245Y025565D03*
X016245Y025985D03*
X017115Y025985D03*
X017115Y025565D03*
X013025Y024245D03*
X013025Y023825D03*
X011845Y024185D03*
X011845Y024605D03*
X005595Y028555D03*
X005595Y028975D03*
X005125Y027175D03*
X005125Y026755D03*
X009755Y039105D03*
X009755Y039525D03*
X004685Y039895D03*
X004685Y040315D03*
D26*
X014465Y023955D03*
X014465Y022955D03*
X014465Y021955D03*
X015465Y021955D03*
X015465Y022955D03*
X015465Y023955D03*
X016465Y023955D03*
X016465Y022955D03*
X016465Y021955D03*
D27*
X006131Y027190D03*
X005875Y027190D03*
X006131Y027820D03*
X005619Y027820D03*
X005619Y027190D03*
D28*
X003775Y027505D03*
X003775Y026505D03*
X017545Y017175D03*
X017545Y016175D03*
X017545Y015175D03*
D29*
X016705Y041765D03*
X011705Y041765D03*
D30*
X006555Y036031D03*
D31*
X006555Y005873D03*
M02*
