G75*
%MOIN*%
%OFA0B0*%
%FSLAX24Y24*%
%IPPOS*%
%LPD*%
%AMOC8*
5,1,8,0,0,1.08239X$1,22.5*
%
%ADD10C,0.0000*%
%ADD11C,0.0030*%
%ADD12C,0.0080*%
%ADD13C,0.0060*%
%ADD14C,0.0220*%
%ADD15C,0.0010*%
%ADD16C,0.0050*%
%ADD17R,0.0118X0.0118*%
D10*
X002495Y003425D02*
X002515Y042865D01*
X018747Y042855D01*
X018717Y003425D01*
X002495Y003425D01*
X006338Y005873D02*
X006340Y005902D01*
X006346Y005930D01*
X006355Y005958D01*
X006368Y005984D01*
X006385Y006007D01*
X006404Y006029D01*
X006426Y006048D01*
X006451Y006063D01*
X006477Y006076D01*
X006505Y006084D01*
X006533Y006089D01*
X006562Y006090D01*
X006591Y006087D01*
X006619Y006080D01*
X006646Y006070D01*
X006672Y006056D01*
X006695Y006039D01*
X006716Y006019D01*
X006734Y005996D01*
X006749Y005971D01*
X006760Y005944D01*
X006768Y005916D01*
X006772Y005887D01*
X006772Y005859D01*
X006768Y005830D01*
X006760Y005802D01*
X006749Y005775D01*
X006734Y005750D01*
X006716Y005727D01*
X006695Y005707D01*
X006672Y005690D01*
X006646Y005676D01*
X006619Y005666D01*
X006591Y005659D01*
X006562Y005656D01*
X006533Y005657D01*
X006505Y005662D01*
X006477Y005670D01*
X006451Y005683D01*
X006426Y005698D01*
X006404Y005717D01*
X006385Y005739D01*
X006368Y005762D01*
X006355Y005788D01*
X006346Y005816D01*
X006340Y005844D01*
X006338Y005873D01*
X006279Y036031D02*
X006281Y036064D01*
X006287Y036096D01*
X006296Y036127D01*
X006309Y036157D01*
X006326Y036185D01*
X006346Y036211D01*
X006369Y036235D01*
X006394Y036255D01*
X006422Y036273D01*
X006451Y036287D01*
X006482Y036297D01*
X006514Y036304D01*
X006547Y036307D01*
X006580Y036306D01*
X006612Y036301D01*
X006643Y036292D01*
X006674Y036280D01*
X006702Y036264D01*
X006729Y036245D01*
X006753Y036223D01*
X006774Y036198D01*
X006793Y036171D01*
X006808Y036142D01*
X006819Y036112D01*
X006827Y036080D01*
X006831Y036047D01*
X006831Y036015D01*
X006827Y035982D01*
X006819Y035950D01*
X006808Y035920D01*
X006793Y035891D01*
X006774Y035864D01*
X006753Y035839D01*
X006729Y035817D01*
X006702Y035798D01*
X006674Y035782D01*
X006643Y035770D01*
X006612Y035761D01*
X006580Y035756D01*
X006547Y035755D01*
X006514Y035758D01*
X006482Y035765D01*
X006451Y035775D01*
X006422Y035789D01*
X006394Y035807D01*
X006369Y035827D01*
X006346Y035851D01*
X006326Y035877D01*
X006309Y035905D01*
X006296Y035935D01*
X006287Y035966D01*
X006281Y035998D01*
X006279Y036031D01*
X011065Y041765D02*
X011067Y041815D01*
X011073Y041865D01*
X011083Y041914D01*
X011096Y041963D01*
X011114Y042010D01*
X011135Y042056D01*
X011159Y042099D01*
X011187Y042141D01*
X011218Y042181D01*
X011252Y042218D01*
X011289Y042252D01*
X011329Y042283D01*
X011371Y042311D01*
X011414Y042335D01*
X011460Y042356D01*
X011507Y042374D01*
X011556Y042387D01*
X011605Y042397D01*
X011655Y042403D01*
X011705Y042405D01*
X011755Y042403D01*
X011805Y042397D01*
X011854Y042387D01*
X011903Y042374D01*
X011950Y042356D01*
X011996Y042335D01*
X012039Y042311D01*
X012081Y042283D01*
X012121Y042252D01*
X012158Y042218D01*
X012192Y042181D01*
X012223Y042141D01*
X012251Y042099D01*
X012275Y042056D01*
X012296Y042010D01*
X012314Y041963D01*
X012327Y041914D01*
X012337Y041865D01*
X012343Y041815D01*
X012345Y041765D01*
X012343Y041715D01*
X012337Y041665D01*
X012327Y041616D01*
X012314Y041567D01*
X012296Y041520D01*
X012275Y041474D01*
X012251Y041431D01*
X012223Y041389D01*
X012192Y041349D01*
X012158Y041312D01*
X012121Y041278D01*
X012081Y041247D01*
X012039Y041219D01*
X011996Y041195D01*
X011950Y041174D01*
X011903Y041156D01*
X011854Y041143D01*
X011805Y041133D01*
X011755Y041127D01*
X011705Y041125D01*
X011655Y041127D01*
X011605Y041133D01*
X011556Y041143D01*
X011507Y041156D01*
X011460Y041174D01*
X011414Y041195D01*
X011371Y041219D01*
X011329Y041247D01*
X011289Y041278D01*
X011252Y041312D01*
X011218Y041349D01*
X011187Y041389D01*
X011159Y041431D01*
X011135Y041474D01*
X011114Y041520D01*
X011096Y041567D01*
X011083Y041616D01*
X011073Y041665D01*
X011067Y041715D01*
X011065Y041765D01*
X016065Y041765D02*
X016067Y041815D01*
X016073Y041865D01*
X016083Y041914D01*
X016096Y041963D01*
X016114Y042010D01*
X016135Y042056D01*
X016159Y042099D01*
X016187Y042141D01*
X016218Y042181D01*
X016252Y042218D01*
X016289Y042252D01*
X016329Y042283D01*
X016371Y042311D01*
X016414Y042335D01*
X016460Y042356D01*
X016507Y042374D01*
X016556Y042387D01*
X016605Y042397D01*
X016655Y042403D01*
X016705Y042405D01*
X016755Y042403D01*
X016805Y042397D01*
X016854Y042387D01*
X016903Y042374D01*
X016950Y042356D01*
X016996Y042335D01*
X017039Y042311D01*
X017081Y042283D01*
X017121Y042252D01*
X017158Y042218D01*
X017192Y042181D01*
X017223Y042141D01*
X017251Y042099D01*
X017275Y042056D01*
X017296Y042010D01*
X017314Y041963D01*
X017327Y041914D01*
X017337Y041865D01*
X017343Y041815D01*
X017345Y041765D01*
X017343Y041715D01*
X017337Y041665D01*
X017327Y041616D01*
X017314Y041567D01*
X017296Y041520D01*
X017275Y041474D01*
X017251Y041431D01*
X017223Y041389D01*
X017192Y041349D01*
X017158Y041312D01*
X017121Y041278D01*
X017081Y041247D01*
X017039Y041219D01*
X016996Y041195D01*
X016950Y041174D01*
X016903Y041156D01*
X016854Y041143D01*
X016805Y041133D01*
X016755Y041127D01*
X016705Y041125D01*
X016655Y041127D01*
X016605Y041133D01*
X016556Y041143D01*
X016507Y041156D01*
X016460Y041174D01*
X016414Y041195D01*
X016371Y041219D01*
X016329Y041247D01*
X016289Y041278D01*
X016252Y041312D01*
X016218Y041349D01*
X016187Y041389D01*
X016159Y041431D01*
X016135Y041474D01*
X016114Y041520D01*
X016096Y041567D01*
X016083Y041616D01*
X016073Y041665D01*
X016067Y041715D01*
X016065Y041765D01*
D11*
X016025Y037420D02*
X015977Y037372D01*
X015977Y037275D01*
X016025Y037227D01*
X016170Y037227D01*
X016073Y037227D02*
X015977Y037130D01*
X015875Y037178D02*
X015827Y037130D01*
X015730Y037130D01*
X015682Y037178D01*
X015682Y037227D01*
X015730Y037275D01*
X015779Y037275D01*
X015730Y037275D02*
X015682Y037323D01*
X015682Y037372D01*
X015730Y037420D01*
X015827Y037420D01*
X015875Y037372D01*
X016025Y037420D02*
X016170Y037420D01*
X016170Y037130D01*
X015581Y037130D02*
X015387Y037323D01*
X015387Y037372D01*
X015436Y037420D01*
X015532Y037420D01*
X015581Y037372D01*
X015581Y037130D02*
X015387Y037130D01*
X013130Y037150D02*
X013130Y037440D01*
X012985Y037440D01*
X012937Y037392D01*
X012937Y037295D01*
X012985Y037247D01*
X013130Y037247D01*
X013033Y037247D02*
X012937Y037150D01*
X012835Y037198D02*
X012787Y037150D01*
X012690Y037150D01*
X012642Y037198D01*
X012642Y037247D01*
X012690Y037295D01*
X012739Y037295D01*
X012690Y037295D02*
X012642Y037343D01*
X012642Y037392D01*
X012690Y037440D01*
X012787Y037440D01*
X012835Y037392D01*
X012541Y037392D02*
X012492Y037440D01*
X012396Y037440D01*
X012347Y037392D01*
X012347Y037343D01*
X012396Y037295D01*
X012347Y037247D01*
X012347Y037198D01*
X012396Y037150D01*
X012492Y037150D01*
X012541Y037198D01*
X012444Y037295D02*
X012396Y037295D01*
X010510Y037866D02*
X010510Y038011D01*
X010462Y038060D01*
X010365Y038060D01*
X010317Y038011D01*
X010317Y037866D01*
X010317Y037963D02*
X010220Y038060D01*
X010268Y038161D02*
X010220Y038209D01*
X010220Y038306D01*
X010268Y038354D01*
X010317Y038354D01*
X010365Y038306D01*
X010365Y038257D01*
X010365Y038306D02*
X010413Y038354D01*
X010462Y038354D01*
X010510Y038306D01*
X010510Y038209D01*
X010462Y038161D01*
X010510Y038455D02*
X010365Y038455D01*
X010413Y038552D01*
X010413Y038600D01*
X010365Y038649D01*
X010268Y038649D01*
X010220Y038600D01*
X010220Y038504D01*
X010268Y038455D01*
X010510Y038455D02*
X010510Y038649D01*
X009900Y038610D02*
X009900Y038514D01*
X009852Y038465D01*
X009900Y038364D02*
X009900Y038171D01*
X009755Y038171D01*
X009803Y038267D01*
X009803Y038316D01*
X009755Y038364D01*
X009658Y038364D01*
X009610Y038316D01*
X009610Y038219D01*
X009658Y038171D01*
X009658Y038070D02*
X009610Y038021D01*
X009610Y037924D01*
X009658Y037876D01*
X009852Y037876D01*
X009900Y037924D01*
X009900Y038021D01*
X009852Y038070D01*
X010220Y037866D02*
X010510Y037866D01*
X009900Y038610D02*
X009852Y038659D01*
X009803Y038659D01*
X009610Y038465D01*
X009610Y038659D01*
X009330Y038560D02*
X009330Y038464D01*
X009282Y038415D01*
X009282Y038314D02*
X009185Y038314D01*
X009137Y038266D01*
X009137Y038121D01*
X009137Y038217D02*
X009040Y038314D01*
X009088Y038415D02*
X009040Y038464D01*
X009040Y038560D01*
X009088Y038609D01*
X009137Y038609D01*
X009185Y038560D01*
X009185Y038512D01*
X009185Y038560D02*
X009233Y038609D01*
X009282Y038609D01*
X009330Y038560D01*
X009282Y038314D02*
X009330Y038266D01*
X009330Y038121D01*
X009040Y038121D01*
X008630Y037772D02*
X008630Y037578D01*
X008582Y037530D01*
X008485Y037530D01*
X008437Y037578D01*
X008335Y037530D02*
X008142Y037723D01*
X008142Y037772D01*
X008190Y037820D01*
X008287Y037820D01*
X008335Y037772D01*
X008437Y037772D02*
X008485Y037820D01*
X008582Y037820D01*
X008630Y037772D01*
X008335Y037530D02*
X008142Y037530D01*
X007970Y037455D02*
X007970Y037358D01*
X007922Y037310D01*
X007728Y037310D01*
X007680Y037358D01*
X007680Y037455D01*
X007728Y037503D01*
X007728Y037605D02*
X007777Y037605D01*
X007825Y037653D01*
X007825Y037750D01*
X007777Y037798D01*
X007728Y037798D01*
X007680Y037750D01*
X007680Y037653D01*
X007728Y037605D01*
X007825Y037653D02*
X007873Y037605D01*
X007922Y037605D01*
X007970Y037653D01*
X007970Y037750D01*
X007922Y037798D01*
X007873Y037798D01*
X007825Y037750D01*
X007922Y037503D02*
X007970Y037455D01*
X007113Y038300D02*
X006990Y038300D01*
X006928Y038362D01*
X006928Y038670D01*
X006807Y038609D02*
X006745Y038670D01*
X006621Y038670D01*
X006560Y038609D01*
X006438Y038547D02*
X006315Y038670D01*
X006315Y038300D01*
X006438Y038300D02*
X006191Y038300D01*
X006090Y038319D02*
X006042Y038271D01*
X005848Y038271D01*
X005800Y038319D01*
X005800Y038416D01*
X005848Y038464D01*
X005848Y038565D02*
X005800Y038614D01*
X005800Y038710D01*
X005848Y038759D01*
X005897Y038759D01*
X005945Y038710D01*
X005945Y038662D01*
X005945Y038710D02*
X005993Y038759D01*
X006042Y038759D01*
X006090Y038710D01*
X006090Y038614D01*
X006042Y038565D01*
X006042Y038464D02*
X006090Y038416D01*
X006090Y038319D01*
X006560Y038362D02*
X006560Y038423D01*
X006621Y038485D01*
X006745Y038485D01*
X006807Y038547D01*
X006807Y038609D01*
X006683Y038732D02*
X006683Y038238D01*
X006621Y038300D02*
X006560Y038362D01*
X006621Y038300D02*
X006745Y038300D01*
X006807Y038362D01*
X007113Y038300D02*
X007175Y038362D01*
X007175Y038670D01*
X007952Y038990D02*
X008145Y038990D01*
X008049Y038990D02*
X008049Y039280D01*
X008145Y039183D01*
X008247Y039135D02*
X008295Y039087D01*
X008440Y039087D01*
X008343Y039087D02*
X008247Y038990D01*
X008247Y039135D02*
X008247Y039232D01*
X008295Y039280D01*
X008440Y039280D01*
X008440Y038990D01*
X008130Y039410D02*
X007888Y039410D01*
X007840Y039458D01*
X007840Y039555D01*
X007888Y039603D01*
X008130Y039603D01*
X008082Y039705D02*
X008130Y039753D01*
X008130Y039850D01*
X008082Y039898D01*
X007985Y039850D02*
X007985Y039753D01*
X008033Y039705D01*
X008082Y039705D01*
X008179Y039801D02*
X007792Y039801D01*
X007840Y039753D02*
X007840Y039850D01*
X007888Y039898D01*
X007937Y039898D01*
X007985Y039850D01*
X008033Y039999D02*
X008130Y040096D01*
X007840Y040096D01*
X007840Y039999D02*
X007840Y040193D01*
X007840Y039753D02*
X007888Y039705D01*
X006110Y040748D02*
X006062Y040700D01*
X005965Y040700D01*
X005917Y040748D01*
X005815Y040845D02*
X005622Y040845D01*
X005670Y040700D02*
X005670Y040990D01*
X005815Y040845D01*
X005917Y040942D02*
X005965Y040990D01*
X006062Y040990D01*
X006110Y040942D01*
X006110Y040748D01*
X005410Y040725D02*
X005362Y040773D01*
X005265Y040773D01*
X005217Y040725D01*
X005217Y040580D01*
X005217Y040677D02*
X005120Y040773D01*
X005120Y040875D02*
X005313Y041068D01*
X005362Y041068D01*
X005410Y041020D01*
X005410Y040923D01*
X005362Y040875D01*
X005410Y040725D02*
X005410Y040580D01*
X005120Y040580D01*
X004840Y040538D02*
X004792Y040490D01*
X004598Y040490D01*
X004550Y040538D01*
X004550Y040635D01*
X004598Y040683D01*
X004598Y040785D02*
X004550Y040833D01*
X004550Y040930D01*
X004598Y040978D01*
X004695Y040978D01*
X004743Y040930D01*
X004743Y040881D01*
X004695Y040785D01*
X004840Y040785D01*
X004840Y040978D01*
X004743Y041079D02*
X004840Y041176D01*
X004550Y041176D01*
X004550Y041079D02*
X004550Y041273D01*
X004450Y041260D02*
X004450Y041550D01*
X004305Y041550D01*
X004257Y041502D01*
X004257Y041405D01*
X004305Y041357D01*
X004450Y041357D01*
X004353Y041357D02*
X004257Y041260D01*
X004230Y041304D02*
X004085Y041159D01*
X004085Y041353D01*
X004155Y041308D02*
X004107Y041260D01*
X004010Y041260D01*
X003962Y041308D01*
X003962Y041357D01*
X004010Y041405D01*
X004155Y041405D01*
X004155Y041308D01*
X004230Y041304D02*
X003940Y041304D01*
X004059Y041502D02*
X003962Y041550D01*
X004059Y041502D02*
X004155Y041405D01*
X004133Y041058D02*
X004085Y041010D01*
X004037Y041058D01*
X003988Y041058D01*
X003940Y041010D01*
X003940Y040913D01*
X003988Y040865D01*
X003940Y040763D02*
X004037Y040667D01*
X004037Y040715D02*
X004037Y040570D01*
X003940Y040570D02*
X004230Y040570D01*
X004230Y040715D01*
X004182Y040763D01*
X004085Y040763D01*
X004037Y040715D01*
X004182Y040865D02*
X004230Y040913D01*
X004230Y041010D01*
X004182Y041058D01*
X004133Y041058D01*
X004085Y041010D02*
X004085Y040961D01*
X004039Y041910D02*
X004039Y042200D01*
X004135Y042103D01*
X004237Y042055D02*
X004285Y042007D01*
X004430Y042007D01*
X004333Y042007D02*
X004237Y041910D01*
X004135Y041910D02*
X003942Y041910D01*
X003841Y041958D02*
X003841Y042007D01*
X003792Y042055D01*
X003696Y042055D01*
X003647Y042007D01*
X003647Y041958D01*
X003696Y041910D01*
X003792Y041910D01*
X003841Y041958D01*
X003792Y042055D02*
X003841Y042103D01*
X003841Y042152D01*
X003792Y042200D01*
X003696Y042200D01*
X003647Y042152D01*
X003647Y042103D01*
X003696Y042055D01*
X004237Y042055D02*
X004237Y042152D01*
X004285Y042200D01*
X004430Y042200D01*
X004430Y041910D01*
X005120Y041068D02*
X005120Y040875D01*
X004840Y040635D02*
X004840Y040538D01*
X004840Y040635D02*
X004792Y040683D01*
X005670Y041850D02*
X005622Y041898D01*
X005622Y041947D01*
X005670Y041995D01*
X005815Y041995D01*
X005815Y041898D01*
X005767Y041850D01*
X005670Y041850D01*
X005815Y041995D02*
X005719Y042092D01*
X005622Y042140D01*
X005917Y042092D02*
X005965Y042140D01*
X006062Y042140D01*
X006110Y042092D01*
X006110Y041898D01*
X006062Y041850D01*
X005965Y041850D01*
X005917Y041898D01*
X003812Y038269D02*
X003860Y038220D01*
X003860Y038124D01*
X003812Y038075D01*
X003812Y038269D02*
X003763Y038269D01*
X003570Y038075D01*
X003570Y038269D01*
X003570Y037974D02*
X003570Y037781D01*
X003860Y037781D01*
X003902Y033860D02*
X003902Y033812D01*
X004095Y033618D01*
X004095Y033570D01*
X004197Y033570D02*
X004293Y033667D01*
X004245Y033667D02*
X004390Y033667D01*
X004390Y033570D02*
X004390Y033860D01*
X004245Y033860D01*
X004197Y033812D01*
X004197Y033715D01*
X004245Y033667D01*
X004095Y033860D02*
X003902Y033860D01*
X003980Y032410D02*
X003932Y032362D01*
X003932Y032313D01*
X003980Y032265D01*
X004077Y032265D01*
X004125Y032313D01*
X004125Y032362D01*
X004077Y032410D01*
X003980Y032410D01*
X003980Y032265D02*
X003932Y032217D01*
X003932Y032168D01*
X003980Y032120D01*
X004077Y032120D01*
X004125Y032168D01*
X004125Y032217D01*
X004077Y032265D01*
X004227Y032265D02*
X004275Y032217D01*
X004420Y032217D01*
X004323Y032217D02*
X004227Y032120D01*
X004227Y032265D02*
X004227Y032362D01*
X004275Y032410D01*
X004420Y032410D01*
X004420Y032120D01*
X005068Y031449D02*
X005020Y031400D01*
X005020Y031304D01*
X005068Y031255D01*
X005262Y031449D01*
X005068Y031449D01*
X005068Y031255D02*
X005262Y031255D01*
X005310Y031304D01*
X005310Y031400D01*
X005262Y031449D01*
X005020Y031154D02*
X005020Y030961D01*
X005020Y031057D02*
X005310Y031057D01*
X005213Y030961D01*
X005165Y030860D02*
X005117Y030811D01*
X005117Y030666D01*
X005117Y030763D02*
X005020Y030860D01*
X005165Y030860D02*
X005262Y030860D01*
X005310Y030811D01*
X005310Y030666D01*
X005020Y030666D01*
X005252Y029029D02*
X005058Y028835D01*
X005010Y028835D01*
X005010Y028686D02*
X005300Y028686D01*
X005155Y028541D01*
X005155Y028734D01*
X005300Y028835D02*
X005300Y029029D01*
X005252Y029029D01*
X005252Y028440D02*
X005300Y028391D01*
X005300Y028294D01*
X005252Y028246D01*
X005058Y028246D01*
X005010Y028294D01*
X005010Y028391D01*
X005058Y028440D01*
X004400Y028517D02*
X004303Y028421D01*
X004255Y028320D02*
X004207Y028271D01*
X004207Y028126D01*
X004207Y028223D02*
X004110Y028320D01*
X004110Y028421D02*
X004110Y028614D01*
X004110Y028517D02*
X004400Y028517D01*
X004352Y028320D02*
X004255Y028320D01*
X004352Y028320D02*
X004400Y028271D01*
X004400Y028126D01*
X004110Y028126D01*
X004110Y028715D02*
X004303Y028909D01*
X004352Y028909D01*
X004400Y028860D01*
X004400Y028764D01*
X004352Y028715D01*
X004110Y028715D02*
X004110Y028909D01*
X003370Y029736D02*
X003370Y029881D01*
X003322Y029930D01*
X003225Y029930D01*
X003177Y029881D01*
X003177Y029736D01*
X003177Y029833D02*
X003080Y029930D01*
X003080Y030031D02*
X003080Y030224D01*
X003080Y030127D02*
X003370Y030127D01*
X003273Y030031D01*
X003273Y030325D02*
X003370Y030422D01*
X003080Y030422D01*
X003080Y030325D02*
X003080Y030519D01*
X003080Y029736D02*
X003370Y029736D01*
X004998Y026339D02*
X004950Y026290D01*
X004950Y026194D01*
X004998Y026145D01*
X005095Y026145D02*
X005143Y026242D01*
X005143Y026290D01*
X005095Y026339D01*
X004998Y026339D01*
X005095Y026145D02*
X005240Y026145D01*
X005240Y026339D01*
X005095Y026044D02*
X005095Y025851D01*
X005240Y025996D01*
X004950Y025996D01*
X004998Y025750D02*
X004950Y025701D01*
X004950Y025604D01*
X004998Y025556D01*
X005192Y025556D01*
X005240Y025604D01*
X005240Y025701D01*
X005192Y025750D01*
X006488Y027230D02*
X006440Y027278D01*
X006440Y027375D01*
X006488Y027423D01*
X006730Y027423D01*
X006730Y027525D02*
X006585Y027525D01*
X006633Y027621D01*
X006633Y027670D01*
X006585Y027718D01*
X006488Y027718D01*
X006440Y027670D01*
X006440Y027573D01*
X006488Y027525D01*
X006730Y027525D02*
X006730Y027718D01*
X006730Y027230D02*
X006488Y027230D01*
X007150Y027260D02*
X007440Y027260D01*
X007295Y027115D01*
X007295Y027309D01*
X007295Y027014D02*
X007247Y026966D01*
X007247Y026821D01*
X007247Y026917D02*
X007150Y027014D01*
X007295Y027014D02*
X007392Y027014D01*
X007440Y026966D01*
X007440Y026821D01*
X007150Y026821D01*
X006282Y029690D02*
X006088Y029690D01*
X006040Y029738D01*
X006040Y029835D01*
X006088Y029883D01*
X006185Y029985D02*
X006185Y030178D01*
X006137Y030279D02*
X006088Y030279D01*
X006040Y030328D01*
X006040Y030424D01*
X006088Y030473D01*
X006137Y030473D01*
X006185Y030424D01*
X006185Y030328D01*
X006233Y030279D01*
X006282Y030279D01*
X006330Y030328D01*
X006330Y030424D01*
X006282Y030473D01*
X006233Y030473D01*
X006185Y030424D01*
X006185Y030328D02*
X006137Y030279D01*
X006040Y030130D02*
X006330Y030130D01*
X006185Y029985D01*
X006282Y029883D02*
X006330Y029835D01*
X006330Y029738D01*
X006282Y029690D01*
X006580Y031950D02*
X006532Y031998D01*
X006532Y032192D01*
X006580Y032240D01*
X006677Y032240D01*
X006725Y032192D01*
X006725Y032143D01*
X006677Y032095D01*
X006532Y032095D01*
X006580Y031950D02*
X006677Y031950D01*
X006725Y031998D01*
X006827Y031950D02*
X006923Y032047D01*
X006875Y032047D02*
X007020Y032047D01*
X007020Y031950D02*
X007020Y032240D01*
X006875Y032240D01*
X006827Y032192D01*
X006827Y032095D01*
X006875Y032047D01*
X009960Y029614D02*
X009960Y029518D01*
X010008Y029469D01*
X009960Y029368D02*
X009960Y029175D01*
X010153Y029368D01*
X010202Y029368D01*
X010250Y029320D01*
X010250Y029223D01*
X010202Y029175D01*
X010202Y029073D02*
X010250Y029025D01*
X010250Y028928D01*
X010202Y028880D01*
X010008Y028880D01*
X009960Y028928D01*
X009960Y029025D01*
X010008Y029073D01*
X010202Y029469D02*
X010250Y029518D01*
X010250Y029614D01*
X010202Y029663D01*
X010153Y029663D01*
X010105Y029614D01*
X010057Y029663D01*
X010008Y029663D01*
X009960Y029614D01*
X010105Y029614D02*
X010105Y029566D01*
X010820Y028529D02*
X011110Y028529D01*
X011013Y028432D01*
X011110Y028335D01*
X010820Y028335D01*
X010820Y028234D02*
X010820Y028041D01*
X011110Y028041D01*
X011062Y027940D02*
X011013Y027940D01*
X010965Y027891D01*
X010965Y027746D01*
X010820Y027746D02*
X010820Y027891D01*
X010868Y027940D01*
X010917Y027940D01*
X010965Y027891D01*
X011062Y027940D02*
X011110Y027891D01*
X011110Y027746D01*
X010820Y027746D01*
X011936Y026550D02*
X011887Y026502D01*
X011887Y026453D01*
X011936Y026405D01*
X011887Y026357D01*
X011887Y026308D01*
X011936Y026260D01*
X012032Y026260D01*
X012081Y026308D01*
X012182Y026260D02*
X012375Y026260D01*
X012182Y026453D01*
X012182Y026502D01*
X012230Y026550D01*
X012327Y026550D01*
X012375Y026502D01*
X012477Y026502D02*
X012525Y026550D01*
X012622Y026550D01*
X012670Y026502D01*
X012670Y026308D01*
X012622Y026260D01*
X012525Y026260D01*
X012477Y026308D01*
X012081Y026502D02*
X012032Y026550D01*
X011936Y026550D01*
X011936Y026405D02*
X011984Y026405D01*
X012208Y024753D02*
X012160Y024704D01*
X012160Y024608D01*
X012208Y024559D01*
X012257Y024559D01*
X012305Y024608D01*
X012305Y024704D01*
X012257Y024753D01*
X012208Y024753D01*
X012305Y024704D02*
X012353Y024753D01*
X012402Y024753D01*
X012450Y024704D01*
X012450Y024608D01*
X012402Y024559D01*
X012353Y024559D01*
X012305Y024608D01*
X012160Y024458D02*
X012160Y024265D01*
X012160Y024361D02*
X012450Y024361D01*
X012353Y024265D01*
X012402Y024163D02*
X012450Y024115D01*
X012450Y024018D01*
X012402Y023970D01*
X012208Y023970D01*
X012160Y024018D01*
X012160Y024115D01*
X012208Y024163D01*
X012761Y023280D02*
X012761Y023232D01*
X012955Y023038D01*
X012955Y022990D01*
X013056Y022990D02*
X013249Y022990D01*
X013153Y022990D02*
X013153Y023280D01*
X013249Y023183D01*
X013350Y023232D02*
X013399Y023280D01*
X013496Y023280D01*
X013544Y023232D01*
X013544Y023038D01*
X013496Y022990D01*
X013399Y022990D01*
X013350Y023038D01*
X013355Y022650D02*
X013452Y022650D01*
X013500Y022602D01*
X013500Y022408D01*
X013452Y022360D01*
X013355Y022360D01*
X013307Y022408D01*
X013205Y022360D02*
X013012Y022553D01*
X013012Y022602D01*
X013060Y022650D01*
X013157Y022650D01*
X013205Y022602D01*
X013307Y022602D02*
X013355Y022650D01*
X013205Y022360D02*
X013012Y022360D01*
X012911Y022360D02*
X012717Y022553D01*
X012717Y022602D01*
X012766Y022650D01*
X012862Y022650D01*
X012911Y022602D01*
X012911Y022360D02*
X012717Y022360D01*
X012761Y023280D02*
X012955Y023280D01*
X013340Y023654D02*
X013340Y023751D01*
X013388Y023800D01*
X013340Y023901D02*
X013533Y024094D01*
X013582Y024094D01*
X013630Y024046D01*
X013630Y023949D01*
X013582Y023901D01*
X013582Y023800D02*
X013630Y023751D01*
X013630Y023654D01*
X013582Y023606D01*
X013388Y023606D01*
X013340Y023654D01*
X013340Y023901D02*
X013340Y024094D01*
X013388Y024195D02*
X013340Y024244D01*
X013340Y024340D01*
X013388Y024389D01*
X013485Y024389D01*
X013533Y024340D01*
X013533Y024292D01*
X013485Y024195D01*
X013630Y024195D01*
X013630Y024389D01*
X013720Y025556D02*
X014010Y025556D01*
X014010Y025701D01*
X013962Y025750D01*
X013865Y025750D01*
X013817Y025701D01*
X013817Y025556D01*
X013817Y025653D02*
X013720Y025750D01*
X013720Y025851D02*
X013913Y026044D01*
X013962Y026044D01*
X014010Y025996D01*
X014010Y025899D01*
X013962Y025851D01*
X013720Y025851D02*
X013720Y026044D01*
X013720Y026145D02*
X013768Y026145D01*
X013962Y026339D01*
X014010Y026339D01*
X014010Y026145D01*
X013410Y028446D02*
X013120Y028446D01*
X013217Y028446D02*
X013217Y028591D01*
X013265Y028640D01*
X013362Y028640D01*
X013410Y028591D01*
X013410Y028446D01*
X013217Y028543D02*
X013120Y028640D01*
X013168Y028741D02*
X013120Y028789D01*
X013120Y028886D01*
X013168Y028934D01*
X013217Y028934D01*
X013265Y028886D01*
X013265Y028837D01*
X013265Y028886D02*
X013313Y028934D01*
X013362Y028934D01*
X013410Y028886D01*
X013410Y028789D01*
X013362Y028741D01*
X013313Y029035D02*
X013410Y029132D01*
X013120Y029132D01*
X013120Y029035D02*
X013120Y029229D01*
X013696Y030620D02*
X013647Y030668D01*
X013647Y030862D01*
X013696Y030910D01*
X013792Y030910D01*
X013841Y030862D01*
X013841Y030813D01*
X013792Y030765D01*
X013647Y030765D01*
X013696Y030620D02*
X013792Y030620D01*
X013841Y030668D01*
X013942Y030765D02*
X014135Y030765D01*
X013990Y030910D01*
X013990Y030620D01*
X014237Y030668D02*
X014285Y030620D01*
X014382Y030620D01*
X014430Y030668D01*
X014430Y030862D01*
X014382Y030910D01*
X014285Y030910D01*
X014237Y030862D01*
X015708Y026153D02*
X015660Y026104D01*
X015660Y026008D01*
X015708Y025959D01*
X015805Y025959D02*
X015853Y026056D01*
X015853Y026104D01*
X015805Y026153D01*
X015708Y026153D01*
X015805Y025959D02*
X015950Y025959D01*
X015950Y026153D01*
X015902Y025858D02*
X015853Y025858D01*
X015805Y025810D01*
X015757Y025858D01*
X015708Y025858D01*
X015660Y025810D01*
X015660Y025713D01*
X015708Y025665D01*
X015708Y025563D02*
X015660Y025515D01*
X015660Y025418D01*
X015708Y025370D01*
X015902Y025370D01*
X015950Y025418D01*
X015950Y025515D01*
X015902Y025563D01*
X015902Y025665D02*
X015950Y025713D01*
X015950Y025810D01*
X015902Y025858D01*
X015805Y025810D02*
X015805Y025761D01*
X016540Y025675D02*
X016733Y025868D01*
X016782Y025868D01*
X016830Y025820D01*
X016830Y025723D01*
X016782Y025675D01*
X016782Y025573D02*
X016830Y025525D01*
X016830Y025428D01*
X016782Y025380D01*
X016588Y025380D01*
X016540Y025428D01*
X016540Y025525D01*
X016588Y025573D01*
X016540Y025675D02*
X016540Y025868D01*
X016540Y025969D02*
X016540Y026163D01*
X016540Y026066D02*
X016830Y026066D01*
X016733Y025969D01*
X018030Y026106D02*
X018320Y026106D01*
X018320Y026251D01*
X018272Y026300D01*
X018175Y026300D01*
X018127Y026251D01*
X018127Y026106D01*
X018127Y026203D02*
X018030Y026300D01*
X018030Y026401D02*
X018223Y026594D01*
X018272Y026594D01*
X018320Y026546D01*
X018320Y026449D01*
X018272Y026401D01*
X018030Y026401D02*
X018030Y026594D01*
X018078Y026695D02*
X018030Y026744D01*
X018030Y026840D01*
X018078Y026889D01*
X018272Y026889D01*
X018320Y026840D01*
X018320Y026744D01*
X018272Y026695D01*
X018223Y026695D01*
X018175Y026744D01*
X018175Y026889D01*
X016192Y019329D02*
X016143Y019329D01*
X015950Y019135D01*
X015950Y019329D01*
X016192Y019329D02*
X016240Y019280D01*
X016240Y019184D01*
X016192Y019135D01*
X016192Y019034D02*
X016143Y019034D01*
X016095Y018986D01*
X016047Y019034D01*
X015998Y019034D01*
X015950Y018986D01*
X015950Y018889D01*
X015998Y018841D01*
X015998Y018740D02*
X015950Y018691D01*
X015950Y018594D01*
X015998Y018546D01*
X016192Y018546D01*
X016240Y018594D01*
X016240Y018691D01*
X016192Y018740D01*
X016192Y018841D02*
X016240Y018889D01*
X016240Y018986D01*
X016192Y019034D01*
X016095Y018986D02*
X016095Y018937D01*
X015600Y018947D02*
X015310Y018947D01*
X015310Y018851D02*
X015310Y019044D01*
X015358Y019145D02*
X015310Y019194D01*
X015310Y019290D01*
X015358Y019339D01*
X015552Y019339D01*
X015600Y019290D01*
X015600Y019194D01*
X015552Y019145D01*
X015503Y019145D01*
X015455Y019194D01*
X015455Y019339D01*
X015600Y018947D02*
X015503Y018851D01*
X015552Y018750D02*
X015600Y018701D01*
X015600Y018604D01*
X015552Y018556D01*
X015358Y018556D01*
X015310Y018604D01*
X015310Y018701D01*
X015358Y018750D01*
X014950Y018701D02*
X014950Y018604D01*
X014902Y018556D01*
X014708Y018556D01*
X014660Y018604D01*
X014660Y018701D01*
X014708Y018750D01*
X014660Y018851D02*
X014853Y019044D01*
X014902Y019044D01*
X014950Y018996D01*
X014950Y018899D01*
X014902Y018851D01*
X014902Y018750D02*
X014950Y018701D01*
X014660Y018851D02*
X014660Y019044D01*
X014805Y019145D02*
X014805Y019339D01*
X014660Y019290D02*
X014950Y019290D01*
X014805Y019145D01*
X014290Y019194D02*
X014290Y019290D01*
X014242Y019339D01*
X014048Y019145D01*
X014000Y019194D01*
X014000Y019290D01*
X014048Y019339D01*
X014242Y019339D01*
X014290Y019194D02*
X014242Y019145D01*
X014048Y019145D01*
X014000Y019044D02*
X014000Y018851D01*
X014193Y019044D01*
X014242Y019044D01*
X014290Y018996D01*
X014290Y018899D01*
X014242Y018851D01*
X014242Y018750D02*
X014290Y018701D01*
X014290Y018604D01*
X014242Y018556D01*
X014048Y018556D01*
X014000Y018604D01*
X014000Y018701D01*
X014048Y018750D01*
X013640Y018711D02*
X013640Y018614D01*
X013592Y018566D01*
X013398Y018566D01*
X013350Y018614D01*
X013350Y018711D01*
X013398Y018760D01*
X013350Y018861D02*
X013543Y019054D01*
X013592Y019054D01*
X013640Y019006D01*
X013640Y018909D01*
X013592Y018861D01*
X013592Y018760D02*
X013640Y018711D01*
X013495Y019155D02*
X013495Y019300D01*
X013447Y019349D01*
X013398Y019349D01*
X013350Y019300D01*
X013350Y019204D01*
X013398Y019155D01*
X013495Y019155D01*
X013592Y019252D01*
X013640Y019349D01*
X013350Y019054D02*
X013350Y018861D01*
X013000Y018899D02*
X012952Y018851D01*
X013000Y018899D02*
X013000Y018996D01*
X012952Y019044D01*
X012903Y019044D01*
X012710Y018851D01*
X012710Y019044D01*
X012758Y019145D02*
X012710Y019194D01*
X012710Y019290D01*
X012758Y019339D01*
X012952Y019339D01*
X013000Y019290D01*
X013000Y019194D01*
X012952Y019145D01*
X012903Y019145D01*
X012855Y019194D01*
X012855Y019339D01*
X012758Y018750D02*
X012710Y018701D01*
X012710Y018604D01*
X012758Y018556D01*
X012952Y018556D01*
X013000Y018604D01*
X013000Y018701D01*
X012952Y018750D01*
X010302Y022560D02*
X010350Y022608D01*
X010350Y022802D01*
X010302Y022850D01*
X010205Y022850D01*
X010157Y022802D01*
X010055Y022705D02*
X009862Y022705D01*
X009761Y022802D02*
X009712Y022850D01*
X009616Y022850D01*
X009567Y022802D01*
X009567Y022753D01*
X009761Y022560D01*
X009567Y022560D01*
X009547Y023210D02*
X009741Y023210D01*
X009644Y023210D02*
X009644Y023500D01*
X009741Y023403D01*
X009842Y023355D02*
X010035Y023355D01*
X009890Y023500D01*
X009890Y023210D01*
X010137Y023258D02*
X010185Y023210D01*
X010282Y023210D01*
X010330Y023258D01*
X010330Y023452D01*
X010282Y023500D01*
X010185Y023500D01*
X010137Y023452D01*
X010070Y024090D02*
X009925Y024090D01*
X009877Y024138D01*
X009877Y024187D01*
X009925Y024235D01*
X010070Y024235D01*
X010070Y024090D02*
X010070Y024380D01*
X009925Y024380D01*
X009877Y024332D01*
X009877Y024283D01*
X009925Y024235D01*
X009775Y024380D02*
X009775Y024090D01*
X009582Y024090D01*
X009481Y024090D02*
X009481Y024380D01*
X009384Y024283D01*
X009287Y024380D01*
X009287Y024090D01*
X009186Y024090D02*
X008993Y024090D01*
X009089Y024090D02*
X009089Y024380D01*
X009186Y024283D01*
X009416Y024860D02*
X009367Y024908D01*
X009367Y025102D01*
X009416Y025150D01*
X009512Y025150D01*
X009561Y025102D01*
X009561Y025053D01*
X009512Y025005D01*
X009367Y025005D01*
X009416Y024860D02*
X009512Y024860D01*
X009561Y024908D01*
X009662Y024908D02*
X009710Y024860D01*
X009807Y024860D01*
X009855Y024908D01*
X009957Y024908D02*
X010005Y024860D01*
X010102Y024860D01*
X010150Y024908D01*
X010150Y025102D01*
X010102Y025150D01*
X010005Y025150D01*
X009957Y025102D01*
X009855Y025102D02*
X009807Y025150D01*
X009710Y025150D01*
X009662Y025102D01*
X009662Y025053D01*
X009710Y025005D01*
X009662Y024957D01*
X009662Y024908D01*
X009710Y025005D02*
X009759Y025005D01*
X009720Y025470D02*
X009720Y025760D01*
X009865Y025615D01*
X009672Y025615D01*
X009571Y025518D02*
X009377Y025712D01*
X009377Y025518D01*
X009426Y025470D01*
X009522Y025470D01*
X009571Y025518D01*
X009571Y025712D01*
X009522Y025760D01*
X009426Y025760D01*
X009377Y025712D01*
X009967Y025712D02*
X010015Y025760D01*
X010112Y025760D01*
X010160Y025712D01*
X010160Y025518D01*
X010112Y025470D01*
X010015Y025470D01*
X009967Y025518D01*
X009910Y022850D02*
X010055Y022705D01*
X010157Y022608D02*
X010205Y022560D01*
X010302Y022560D01*
X009910Y022560D02*
X009910Y022850D01*
X008240Y020610D02*
X008095Y020610D01*
X008047Y020562D01*
X008047Y020465D01*
X008095Y020417D01*
X008240Y020417D01*
X008143Y020417D02*
X008047Y020320D01*
X007945Y020320D02*
X007752Y020320D01*
X007849Y020320D02*
X007849Y020610D01*
X007945Y020513D01*
X007651Y020465D02*
X007506Y020465D01*
X007457Y020417D01*
X007457Y020368D01*
X007506Y020320D01*
X007602Y020320D01*
X007651Y020368D01*
X007651Y020465D01*
X007554Y020562D01*
X007457Y020610D01*
X006820Y020697D02*
X006530Y020697D01*
X006530Y020601D02*
X006530Y020794D01*
X006578Y020895D02*
X006530Y020944D01*
X006530Y021040D01*
X006578Y021089D01*
X006772Y021089D01*
X006820Y021040D01*
X006820Y020944D01*
X006772Y020895D01*
X006723Y020895D01*
X006675Y020944D01*
X006675Y021089D01*
X006820Y020697D02*
X006723Y020601D01*
X006675Y020500D02*
X006627Y020451D01*
X006627Y020306D01*
X006627Y020403D02*
X006530Y020500D01*
X006675Y020500D02*
X006772Y020500D01*
X006820Y020451D01*
X006820Y020306D01*
X006530Y020306D01*
X006540Y021660D02*
X006830Y021660D01*
X006830Y021805D01*
X006782Y021853D01*
X006685Y021853D01*
X006637Y021805D01*
X006637Y021660D01*
X006637Y021757D02*
X006540Y021853D01*
X006540Y021955D02*
X006733Y022148D01*
X006782Y022148D01*
X006830Y022100D01*
X006830Y022003D01*
X006782Y021955D01*
X006540Y021955D02*
X006540Y022148D01*
X006588Y022249D02*
X006540Y022298D01*
X006540Y022394D01*
X006588Y022443D01*
X006782Y022443D01*
X006588Y022249D01*
X006782Y022249D01*
X006830Y022298D01*
X006830Y022394D01*
X006782Y022443D01*
X008240Y020610D02*
X008240Y020320D01*
X008220Y018880D02*
X008075Y018880D01*
X008027Y018832D01*
X008027Y018735D01*
X008075Y018687D01*
X008220Y018687D01*
X008123Y018687D02*
X008027Y018590D01*
X007925Y018590D02*
X007732Y018590D01*
X007829Y018590D02*
X007829Y018880D01*
X007925Y018783D01*
X007631Y018832D02*
X007582Y018880D01*
X007486Y018880D01*
X007437Y018832D01*
X007437Y018783D01*
X007486Y018735D01*
X007437Y018687D01*
X007437Y018638D01*
X007486Y018590D01*
X007582Y018590D01*
X007631Y018638D01*
X007534Y018735D02*
X007486Y018735D01*
X008220Y018590D02*
X008220Y018880D01*
X007340Y013392D02*
X007026Y013078D01*
X007183Y013078D02*
X007183Y013392D01*
X007026Y013392D02*
X007340Y013078D01*
X007340Y013235D02*
X007026Y013235D01*
X006404Y011482D02*
X006090Y011168D01*
X006090Y011325D02*
X006404Y011325D01*
X006404Y011168D02*
X006090Y011482D01*
X006247Y011482D02*
X006247Y011168D01*
X004600Y011107D02*
X004455Y011107D01*
X004407Y011155D01*
X004407Y011252D01*
X004455Y011300D01*
X004600Y011300D01*
X004600Y011010D01*
X004503Y011107D02*
X004407Y011010D01*
X004305Y011010D02*
X004112Y011010D01*
X004209Y011010D02*
X004209Y011300D01*
X004305Y011203D01*
X004011Y011155D02*
X003914Y011203D01*
X003866Y011203D01*
X003817Y011155D01*
X003817Y011058D01*
X003866Y011010D01*
X003962Y011010D01*
X004011Y011058D01*
X004011Y011155D02*
X004011Y011300D01*
X003817Y011300D01*
X003906Y012310D02*
X003906Y012600D01*
X004051Y012455D01*
X003857Y012455D01*
X004152Y012310D02*
X004345Y012310D01*
X004249Y012310D02*
X004249Y012600D01*
X004345Y012503D01*
X004447Y012455D02*
X004495Y012407D01*
X004640Y012407D01*
X004543Y012407D02*
X004447Y012310D01*
X004447Y012455D02*
X004447Y012552D01*
X004495Y012600D01*
X004640Y012600D01*
X004640Y012310D01*
X012501Y011632D02*
X012550Y011680D01*
X012646Y011680D01*
X012695Y011632D01*
X012796Y011632D02*
X012844Y011680D01*
X012941Y011680D01*
X012989Y011632D01*
X013090Y011632D02*
X013090Y011535D01*
X013139Y011487D01*
X013284Y011487D01*
X013187Y011487D02*
X013090Y011390D01*
X012989Y011390D02*
X012796Y011583D01*
X012796Y011632D01*
X012796Y011390D02*
X012989Y011390D01*
X013090Y011632D02*
X013139Y011680D01*
X013284Y011680D01*
X013284Y011390D01*
X013256Y010830D02*
X013304Y010782D01*
X013304Y010588D01*
X013256Y010540D01*
X013159Y010540D01*
X013110Y010588D01*
X013009Y010685D02*
X012816Y010685D01*
X012715Y010685D02*
X012521Y010685D01*
X012570Y010540D02*
X012570Y010830D01*
X012715Y010685D01*
X012864Y010540D02*
X012864Y010830D01*
X013009Y010685D01*
X013110Y010782D02*
X013159Y010830D01*
X013256Y010830D01*
X012695Y011390D02*
X012501Y011583D01*
X012501Y011632D01*
X012501Y011390D02*
X012695Y011390D01*
X012580Y009750D02*
X012725Y009605D01*
X012531Y009605D01*
X012580Y009460D02*
X012580Y009750D01*
X012826Y009460D02*
X013019Y009460D01*
X012923Y009460D02*
X012923Y009750D01*
X013019Y009653D01*
X013120Y009702D02*
X013169Y009750D01*
X013266Y009750D01*
X013314Y009702D01*
X013314Y009508D01*
X013266Y009460D01*
X013169Y009460D01*
X013120Y009508D01*
X010480Y040160D02*
X010190Y040160D01*
X010190Y040353D01*
X010190Y040455D02*
X010190Y040648D01*
X010190Y040551D02*
X010480Y040551D01*
X010383Y040455D01*
D12*
X010042Y040668D02*
X010042Y040982D01*
X008468Y040982D02*
X008468Y040668D01*
X006423Y039295D02*
X006425Y039307D01*
X006430Y039319D01*
X006439Y039328D01*
X006450Y039334D01*
X006462Y039337D01*
X006474Y039336D01*
X006486Y039331D01*
X006496Y039324D01*
X006503Y039313D01*
X006507Y039301D01*
X006507Y039289D01*
X006503Y039277D01*
X006496Y039266D01*
X006486Y039259D01*
X006474Y039254D01*
X006462Y039253D01*
X006450Y039256D01*
X006439Y039262D01*
X006430Y039271D01*
X006425Y039283D01*
X006423Y039295D01*
X005532Y038752D02*
X005532Y038438D01*
X003958Y038438D02*
X003958Y038752D01*
X005442Y027722D02*
X005442Y027288D01*
X006308Y027288D02*
X006308Y027722D01*
X006910Y014486D02*
X007280Y014115D01*
X006786Y014115D01*
X006910Y013745D02*
X006910Y014486D01*
X007541Y014486D02*
X007541Y013868D01*
X007665Y013745D01*
X007912Y013745D01*
X008035Y013868D01*
X008035Y014486D01*
X006520Y010815D02*
X006273Y010815D01*
X006150Y010692D01*
X005889Y010692D02*
X005889Y010074D01*
X006150Y010198D02*
X006273Y010074D01*
X006520Y010074D01*
X006644Y010198D01*
X006644Y010321D01*
X006520Y010445D01*
X006644Y010568D01*
X006644Y010692D01*
X006520Y010815D01*
X006520Y010445D02*
X006397Y010445D01*
X005889Y010692D02*
X005765Y010815D01*
X005518Y010815D01*
X005395Y010692D01*
X005395Y010074D01*
D13*
X006835Y011525D02*
X006832Y011544D01*
X006827Y011562D01*
X006818Y011579D01*
X006807Y011594D01*
X006794Y011607D01*
X006779Y011618D01*
X006762Y011627D01*
X006744Y011632D01*
X006725Y011635D01*
X006715Y011525D02*
X006835Y011525D01*
X006885Y011525D01*
X006885Y011665D01*
X006885Y012045D02*
X006885Y012185D01*
X006715Y012185D01*
X006715Y012375D02*
X006545Y012375D01*
X006545Y012515D01*
X006545Y012895D02*
X006545Y013035D01*
X006595Y013035D01*
X006715Y013035D01*
X006705Y012925D02*
X006686Y012928D01*
X006668Y012933D01*
X006651Y012942D01*
X006636Y012953D01*
X006623Y012966D01*
X006612Y012981D01*
X006603Y012998D01*
X006598Y013016D01*
X006595Y013035D01*
D14*
X010715Y024203D02*
X010715Y024227D01*
X011533Y028225D02*
X011557Y028225D01*
X009477Y029275D02*
X009453Y029275D01*
X005385Y030083D02*
X005385Y030107D01*
D15*
X005360Y030400D02*
X005410Y030400D01*
X005435Y030425D01*
X005435Y030450D01*
X005410Y030475D01*
X005360Y030475D01*
X005335Y030450D01*
X005335Y030425D01*
X005360Y030400D01*
X005360Y030475D02*
X005335Y030500D01*
X005335Y030525D01*
X005360Y030550D01*
X005410Y030550D01*
X005435Y030525D01*
X005435Y030500D01*
X005410Y030475D01*
X005483Y030475D02*
X005583Y030475D01*
X005508Y030550D01*
X005508Y030400D01*
X005630Y030425D02*
X005655Y030400D01*
X005705Y030400D01*
X005730Y030425D01*
X005730Y030525D01*
X005705Y030550D01*
X005655Y030550D01*
X005630Y030525D01*
X009770Y029300D02*
X009770Y029250D01*
X009795Y029225D01*
X009795Y029177D02*
X009770Y029152D01*
X009770Y029102D01*
X009795Y029077D01*
X009795Y029030D02*
X009770Y029005D01*
X009770Y028955D01*
X009795Y028930D01*
X009895Y028930D01*
X009920Y028955D01*
X009920Y029005D01*
X009895Y029030D01*
X009920Y029077D02*
X009845Y029077D01*
X009870Y029127D01*
X009870Y029152D01*
X009845Y029177D01*
X009795Y029177D01*
X009845Y029275D02*
X009845Y029300D01*
X009820Y029325D01*
X009795Y029325D01*
X009770Y029300D01*
X009845Y029300D02*
X009870Y029325D01*
X009895Y029325D01*
X009920Y029300D01*
X009920Y029250D01*
X009895Y029225D01*
X009920Y029177D02*
X009920Y029077D01*
X011090Y028533D02*
X011240Y028533D01*
X011190Y028483D01*
X011240Y028433D01*
X011090Y028433D01*
X011090Y028385D02*
X011090Y028285D01*
X011240Y028285D01*
X011215Y028238D02*
X011190Y028238D01*
X011165Y028213D01*
X011165Y028138D01*
X011090Y028138D02*
X011090Y028213D01*
X011115Y028238D01*
X011140Y028238D01*
X011165Y028213D01*
X011215Y028238D02*
X011240Y028213D01*
X011240Y028138D01*
X011090Y028138D01*
X011060Y024670D02*
X010985Y024670D01*
X010960Y024645D01*
X010960Y024620D01*
X010985Y024595D01*
X011060Y024595D01*
X011060Y024520D02*
X010985Y024520D01*
X010960Y024545D01*
X010960Y024570D01*
X010985Y024595D01*
X010913Y024520D02*
X010813Y024520D01*
X010765Y024520D02*
X010765Y024670D01*
X010715Y024620D01*
X010665Y024670D01*
X010665Y024520D01*
X010618Y024520D02*
X010518Y024520D01*
X010568Y024520D02*
X010568Y024670D01*
X010618Y024620D01*
X010913Y024670D02*
X010913Y024520D01*
X011060Y024520D02*
X011060Y024670D01*
D16*
X011055Y024765D02*
X011055Y025205D01*
X010215Y025205D01*
X010215Y024765D01*
X011055Y024765D01*
X011055Y025395D02*
X011055Y025835D01*
X010215Y025835D01*
X010215Y025395D01*
X011055Y025395D01*
X011565Y025695D02*
X011565Y026135D01*
X012405Y026135D01*
X012405Y025695D01*
X011565Y025695D01*
X011625Y024815D02*
X011625Y023975D01*
X012065Y023975D01*
X012065Y024815D01*
X011625Y024815D01*
X011265Y023525D02*
X011265Y023085D01*
X010425Y023085D01*
X010425Y023525D01*
X011265Y023525D01*
X011785Y023375D02*
X011785Y022935D01*
X012625Y022935D01*
X012625Y023375D01*
X011785Y023375D01*
X011785Y022735D02*
X011785Y022295D01*
X012625Y022295D01*
X012625Y022735D01*
X011785Y022735D01*
X011265Y022895D02*
X011265Y022455D01*
X010425Y022455D01*
X010425Y022895D01*
X011265Y022895D01*
X012635Y020375D02*
X013075Y020375D01*
X013075Y019535D01*
X012635Y019535D01*
X012635Y020375D01*
X013235Y020385D02*
X013235Y019545D01*
X013675Y019545D01*
X013675Y020385D01*
X013235Y020385D01*
X013905Y020375D02*
X013905Y019535D01*
X014345Y019535D01*
X014345Y020375D01*
X013905Y020375D01*
X014575Y020375D02*
X014575Y019535D01*
X015015Y019535D01*
X015015Y020375D01*
X014575Y020375D01*
X015205Y020375D02*
X015205Y019535D01*
X015645Y019535D01*
X015645Y020375D01*
X015205Y020375D01*
X015835Y020375D02*
X015835Y019535D01*
X016275Y019535D01*
X016275Y020375D01*
X015835Y020375D01*
X013245Y023615D02*
X012805Y023615D01*
X012805Y024455D01*
X013245Y024455D01*
X013245Y023615D01*
X013999Y025878D02*
X013999Y026192D01*
X014551Y026192D02*
X014551Y025878D01*
X016025Y026195D02*
X016025Y025355D01*
X016465Y025355D01*
X016465Y026195D01*
X016025Y026195D01*
X016895Y026195D02*
X016895Y025355D01*
X017335Y025355D01*
X017335Y026195D01*
X016895Y026195D01*
X017429Y026368D02*
X017429Y026682D01*
X017981Y026682D02*
X017981Y026368D01*
X014755Y029765D02*
X014755Y030565D01*
X013355Y030565D01*
X013355Y029765D01*
X014755Y029765D01*
X013931Y029092D02*
X013931Y028778D01*
X013379Y028778D02*
X013379Y029092D01*
X012922Y036589D02*
X012608Y036589D01*
X012608Y037141D02*
X012922Y037141D01*
X010641Y039108D02*
X010641Y039422D01*
X010089Y039422D02*
X010089Y039108D01*
X009975Y038895D02*
X009535Y038895D01*
X009535Y039735D01*
X009975Y039735D01*
X009975Y038895D01*
X009451Y039108D02*
X009451Y039422D01*
X008899Y039422D02*
X008899Y039108D01*
X008482Y038981D02*
X008168Y038981D01*
X008168Y038429D02*
X008482Y038429D01*
X008745Y038325D02*
X008745Y037885D01*
X007905Y037885D01*
X007905Y038325D01*
X008745Y038325D01*
X007575Y038185D02*
X007575Y038985D01*
X006175Y038985D01*
X006175Y038185D01*
X007575Y038185D01*
X007575Y037945D02*
X006175Y037945D01*
X006175Y037145D01*
X007575Y037145D01*
X007575Y037945D01*
X007479Y039110D02*
X007479Y040291D01*
X006298Y040291D01*
X006298Y039110D01*
X007479Y039110D01*
X007565Y040465D02*
X007565Y041265D01*
X006165Y041265D01*
X006165Y040465D01*
X007565Y040465D01*
X007565Y041535D02*
X007565Y042335D01*
X006165Y042335D01*
X006165Y041535D01*
X007565Y041535D01*
X006402Y039252D02*
X006404Y039262D01*
X006409Y039271D01*
X006416Y039277D01*
X006426Y039281D01*
X006436Y039281D01*
X006445Y039277D01*
X006453Y039271D01*
X006458Y039262D01*
X006460Y039252D01*
X006458Y039242D01*
X006453Y039233D01*
X006446Y039227D01*
X006436Y039223D01*
X006426Y039223D01*
X006416Y039227D01*
X006409Y039233D01*
X006404Y039242D01*
X006402Y039252D01*
X005561Y039988D02*
X005561Y040302D01*
X005009Y040302D02*
X005009Y039988D01*
X004905Y039685D02*
X004905Y040525D01*
X004465Y040525D01*
X004465Y039685D01*
X004905Y039685D01*
X004381Y039998D02*
X004381Y040312D01*
X003829Y040312D02*
X003829Y039998D01*
X004878Y041109D02*
X005192Y041109D01*
X005192Y041661D02*
X004878Y041661D01*
X004878Y041749D02*
X005192Y041749D01*
X005192Y042301D02*
X004878Y042301D01*
X004122Y033561D02*
X003808Y033561D01*
X003808Y033009D02*
X004122Y033009D01*
X004112Y033001D02*
X003798Y033001D01*
X003798Y032449D02*
X004112Y032449D01*
X003911Y030392D02*
X003911Y030078D01*
X003359Y030078D02*
X003359Y030392D01*
X004409Y028782D02*
X004409Y028468D01*
X004961Y028468D02*
X004961Y028782D01*
X005375Y029185D02*
X005375Y028345D01*
X005815Y028345D01*
X005815Y029185D01*
X005375Y029185D01*
X005345Y027385D02*
X004905Y027385D01*
X004905Y026545D01*
X005345Y026545D01*
X005345Y027385D01*
X005279Y031148D02*
X005279Y031462D01*
X005831Y031462D02*
X005831Y031148D01*
X006478Y031409D02*
X006792Y031409D01*
X006792Y031961D02*
X006478Y031961D01*
X006411Y022162D02*
X006411Y021848D01*
X006421Y020862D02*
X006421Y020548D01*
X005869Y020548D02*
X005869Y020862D01*
X005859Y021848D02*
X005859Y022162D01*
X007678Y020221D02*
X007992Y020221D01*
X007992Y019669D02*
X007678Y019669D01*
X007678Y019521D02*
X007992Y019521D01*
X007992Y018969D02*
X007678Y018969D01*
X005402Y012731D02*
X005088Y012731D01*
X005088Y012179D02*
X005402Y012179D01*
X005402Y011401D02*
X005088Y011401D01*
X005088Y010849D02*
X005402Y010849D01*
X010365Y010145D02*
X010365Y009145D01*
X012365Y009145D01*
X012365Y010145D01*
X010365Y010145D01*
X010945Y010305D02*
X010945Y011105D01*
X012345Y011105D01*
X012345Y010305D01*
X010945Y010305D01*
X011648Y011259D02*
X011962Y011259D01*
X011962Y011811D02*
X011648Y011811D01*
X015638Y036589D02*
X015952Y036589D01*
X015952Y037141D02*
X015638Y037141D01*
D17*
X006328Y027288D03*
M02*
