%
M48
M72
T01C0.0150
T02C0.0197
T03C0.0236
T04C0.0320
T05C0.0400
T06C0.0433
T07C0.0551
T08C0.0906
T09C0.1280
%
T01
X6085Y9025
X5885Y11445
X5875Y12315
X3845Y14065
X6925Y19315
X5595Y20435
X9305Y21105
X11685Y25335
X11705Y26675
X11475Y27435
X12455Y25335
X13505Y25405
X13575Y26035
X13435Y27085
X14055Y27575
X14775Y25745
X14415Y25055
X15585Y25055
X16935Y25055
X17775Y25685
X17215Y27085
X17705Y27925
X17635Y23375
X17635Y21765
X18195Y20505
X15995Y20715
X15545Y20715
X14835Y20715
X13295Y21205
X13295Y22865
X12455Y23725
X12335Y21835
X14985Y15405
X10305Y12125
X9305Y12945
X3495Y29445
X2935Y29535
X4115Y31075
X5595Y32265
X5605Y32745
X5595Y33245
X4195Y35835
X4055Y36955
X5805Y38405
X5805Y40385
X8105Y40325
X8585Y39135
X8055Y35405
X7555Y31635
X9465Y30125
X10515Y30725
X12405Y35545
X11775Y36785
X13585Y36065
X13685Y32405
X16005Y35495
X17695Y32715
X17415Y32475
X18015Y37895
T02
X13655Y27955
X9305Y19685
X10705Y16245
X10725Y15755
X6935Y19945
X3965Y41445
X3935Y42125
T03
X14465Y23955
X14465Y22955
X14465Y21955
X15465Y21955
X15465Y22955
X15465Y23955
X16465Y23955
X16465Y22955
X16465Y21955
T04
X15723Y7976
X15723Y6945
X14739Y6945
X14739Y7976
X13951Y7976
X13951Y6945
X12967Y6945
X12967Y7976
T05
X17545Y15175
X17545Y16175
X17545Y17175
X3775Y26505
X3775Y27505
T06
X6555Y5873
T07
X6555Y36031
T08
X11758Y8114
X11758Y5878
X16932Y5878
X16932Y8114
T09
X16705Y41765
X11705Y41765
M30
