M48
;DRILL file {KiCad 4.0.2-stable} date 2016-03-21 12:08:25 PM
;FORMAT={2:4/ absolute / inch / suppress leading zeros}
FMAT,2
INCH,TZ
T1C0.060
T2C0.063
T3C0.067
T4C0.126
%
G90
G05
M72
T1
X30320Y32260
X30320Y30260
X30420Y38220
X30420Y36220
X30500Y44000
X30500Y42000
X36900Y38230
X36900Y36230
X36917Y32263
X36917Y30263
X36970Y44000
X36970Y42000
X43530Y38210
X43530Y36210
X43610Y32240
X43610Y30240
X47160Y44135
X47160Y42135
X50330Y32240
X50330Y30240
X50340Y38230
X50340Y36230
X74746Y16803
X74746Y14803
T2
X5746Y19799
X5746Y18303
X5746Y13893
X5746Y12397
X10667Y19799
X10667Y18303
X10667Y13893
X10667Y12397
X19750Y18224
X19750Y13303
X21246Y18224
X21246Y13303
X25655Y18224
X25655Y13303
X27151Y18224
X27151Y13303
X32250Y18303
X32250Y13381
X33746Y18303
X33746Y13381
X38155Y18303
X38155Y13381
X39651Y18303
X39651Y13381
X44840Y18303
X44840Y13381
X46336Y18303
X46336Y13381
X50746Y18303
X50746Y13381
X52242Y18303
X52242Y13381
X57340Y18303
X57340Y13381
X58836Y18303
X58836Y13381
X63246Y18303
X63246Y13381
X64742Y18303
X64742Y13381
T3
X61386Y29500
X61388Y31665
X63040Y31665
X63040Y29500
X64693Y31665
X64693Y29500
X66347Y31665
X66347Y29500
X68000Y31665
X68000Y29500
X69654Y31665
X69654Y29500
X71307Y31665
X71307Y29500
X72961Y31665
X72961Y29500
X74614Y31665
X74614Y29500
X76268Y31665
X76268Y29500
T4
X7500Y25000
X7500Y4500
X26000Y47000
X26000Y28500
X76000Y47000
X76000Y4500
T0
M30
