M48
;DRILL file {KiCad 4.0.0-rc1-stable} date 2015-12-11 6:44:03 PM
;FORMAT={-:-/ absolute / inch / decimal}
FMAT,2
INCH,TZ
T1C0.049
T2C0.071
T3C0.118
%
G90
G05
M72
T2
X2.696Y-3.0818
X2.696Y-3.2471
X2.696Y-3.4125
X2.696Y-3.5779
X2.696Y-3.7432
X2.9125Y-3.0818
X2.9125Y-3.2471
X2.9125Y-3.4125
X2.9125Y-3.5779
X2.9125Y-3.7432
T3
X2.5938Y-2.2715
X2.5938Y-4.555
X3.3418Y-2.3109
X3.3418Y-2.862
X3.3418Y-3.4132
X3.3418Y-3.9644
X3.3418Y-4.5156
X4.0308Y-2.3109
X4.0308Y-2.862
X4.0308Y-3.4132
X4.0308Y-3.9644
X4.0308Y-4.5156
X4.7198Y-2.3109
X4.7198Y-2.862
X4.7198Y-3.4132
X4.7198Y-3.9644
X4.7198Y-4.5156
X6.452Y-2.5865
X6.452Y-3.1376
X6.452Y-3.6888
X6.452Y-4.24
X7.141Y-2.5865
X7.141Y-3.1376
X7.141Y-3.6888
X7.141Y-4.24
X7.83Y-2.5865
X7.83Y-3.1376
X7.83Y-3.6888
X7.83Y-4.24
X8.578Y-2.2715
X8.578Y-4.555
T1
X4.0308Y-2.4536G85X4.0308Y-2.4536
G05
X4.0308Y-2.7193G85X4.0308Y-2.7193
G05
X4.0308Y-3.0048G85X4.0308Y-3.0048
G05
X4.0308Y-3.2705G85X4.0308Y-3.2705
G05
X4.0308Y-3.5559G85X4.0308Y-3.5559
G05
X4.0308Y-3.8217G85X4.0308Y-3.8217
G05
X4.0308Y-4.1071G85X4.0308Y-4.1071
G05
X4.0308Y-4.3729G85X4.0308Y-4.3729
G05
X7.141Y-2.4437G85X7.141Y-2.4437
G05
X7.141Y-2.7292G85X7.141Y-2.7292
G05
X7.141Y-2.9949G85X7.141Y-2.9949
G05
X7.141Y-3.2804G85X7.141Y-3.2804
G05
X7.141Y-3.5461G85X7.141Y-3.5461
G05
X7.141Y-3.8315G85X7.141Y-3.8315
G05
X7.141Y-4.0973G85X7.141Y-4.0973
G05
X7.141Y-4.3827G85X7.141Y-4.3827
G05
T0
M30
