G04 #@! TF.FileFunction,Copper,L2,Bot,Signal*
%FSLAX46Y46*%
G04 Gerber Fmt 4.6, Leading zero omitted, Abs format (unit mm)*
G04 Created by KiCad (PCBNEW 4.0.7) date 04/09/18 21:47:58*
%MOMM*%
%LPD*%
G01*
G04 APERTURE LIST*
%ADD10C,0.100000*%
%ADD11C,2.400000*%
%ADD12C,1.000000*%
%ADD13R,3.000000X3.000000*%
%ADD14C,3.000000*%
%ADD15C,0.250000*%
%ADD16C,1.250000*%
G04 APERTURE END LIST*
D10*
D11*
X202387200Y-110985300D03*
X202387200Y-105305300D03*
X215527200Y-105305300D03*
X215527200Y-110975300D03*
D12*
X212457200Y-108985300D03*
X205457200Y-108985300D03*
X207957200Y-108985300D03*
X209957200Y-108985300D03*
X212957200Y-107485300D03*
X210957200Y-107485300D03*
X208967200Y-107485300D03*
X206957200Y-107485300D03*
X204957200Y-107485300D03*
X205457200Y-105785300D03*
X207957200Y-105785300D03*
X209957200Y-105785300D03*
X212457200Y-105785300D03*
X212957200Y-104285300D03*
X210957200Y-104285300D03*
X208957200Y-104285300D03*
X206957200Y-104285300D03*
X204957200Y-104285300D03*
D11*
X202387200Y-94792800D03*
X202387200Y-100472800D03*
X215527200Y-100472800D03*
X215527200Y-94802800D03*
D12*
X212457200Y-96792800D03*
X205457200Y-96792800D03*
X207957200Y-96792800D03*
X209957200Y-96792800D03*
X212957200Y-98292800D03*
X210957200Y-98292800D03*
X208967200Y-98292800D03*
X206957200Y-98292800D03*
X204957200Y-98292800D03*
X205457200Y-99992800D03*
X207957200Y-99992800D03*
X209957200Y-99992800D03*
X212457200Y-99992800D03*
X212957200Y-101492800D03*
X210957200Y-101492800D03*
X208957200Y-101492800D03*
X206957200Y-101492800D03*
X204957200Y-101492800D03*
D11*
X185020700Y-110976800D03*
X185020700Y-105296800D03*
X198160700Y-105296800D03*
X198160700Y-110966800D03*
D12*
X195090700Y-108976800D03*
X188090700Y-108976800D03*
X190590700Y-108976800D03*
X192590700Y-108976800D03*
X195590700Y-107476800D03*
X193590700Y-107476800D03*
X191600700Y-107476800D03*
X189590700Y-107476800D03*
X187590700Y-107476800D03*
X188090700Y-105776800D03*
X190590700Y-105776800D03*
X192590700Y-105776800D03*
X195090700Y-105776800D03*
X195590700Y-104276800D03*
X193590700Y-104276800D03*
X191590700Y-104276800D03*
X189590700Y-104276800D03*
X187590700Y-104276800D03*
D11*
X185020700Y-94737800D03*
X185020700Y-100417800D03*
X198160700Y-100417800D03*
X198160700Y-94747800D03*
D12*
X195090700Y-96737800D03*
X188090700Y-96737800D03*
X190590700Y-96737800D03*
X192590700Y-96737800D03*
X195590700Y-98237800D03*
X193590700Y-98237800D03*
X191600700Y-98237800D03*
X189590700Y-98237800D03*
X187590700Y-98237800D03*
X188090700Y-99937800D03*
X190590700Y-99937800D03*
X192590700Y-99937800D03*
X195090700Y-99937800D03*
X195590700Y-101437800D03*
X193590700Y-101437800D03*
X191590700Y-101437800D03*
X189590700Y-101437800D03*
X187590700Y-101437800D03*
D13*
X93827600Y-110286800D03*
D14*
X89627600Y-110286800D03*
X85427600Y-110286800D03*
X81227600Y-110286800D03*
X93827600Y-104786800D03*
X89627600Y-104786800D03*
X85427600Y-104786800D03*
X81227600Y-104786800D03*
D13*
X93827600Y-95250000D03*
D14*
X89627600Y-95250000D03*
X85427600Y-95250000D03*
X81227600Y-95250000D03*
X93827600Y-100750000D03*
X89627600Y-100750000D03*
X85427600Y-100750000D03*
X81227600Y-100750000D03*
D13*
X114808000Y-110286800D03*
D14*
X110608000Y-110286800D03*
X106408000Y-110286800D03*
X102208000Y-110286800D03*
X114808000Y-104786800D03*
X110608000Y-104786800D03*
X106408000Y-104786800D03*
X102208000Y-104786800D03*
D13*
X114858800Y-95250000D03*
D14*
X110658800Y-95250000D03*
X106458800Y-95250000D03*
X102258800Y-95250000D03*
X114858800Y-100750000D03*
X110658800Y-100750000D03*
X106458800Y-100750000D03*
X102258800Y-100750000D03*
D13*
X135839200Y-110286800D03*
D14*
X131639200Y-110286800D03*
X127439200Y-110286800D03*
X123239200Y-110286800D03*
X135839200Y-104786800D03*
X131639200Y-104786800D03*
X127439200Y-104786800D03*
X123239200Y-104786800D03*
D13*
X135839200Y-95250000D03*
D14*
X131639200Y-95250000D03*
X127439200Y-95250000D03*
X123239200Y-95250000D03*
X135839200Y-100750000D03*
X131639200Y-100750000D03*
X127439200Y-100750000D03*
X123239200Y-100750000D03*
D13*
X156870400Y-110286800D03*
D14*
X152670400Y-110286800D03*
X148470400Y-110286800D03*
X144270400Y-110286800D03*
X156870400Y-104786800D03*
X152670400Y-104786800D03*
X148470400Y-104786800D03*
X144270400Y-104786800D03*
D13*
X156870400Y-95250000D03*
D14*
X152670400Y-95250000D03*
X148470400Y-95250000D03*
X144270400Y-95250000D03*
X156870400Y-100750000D03*
X152670400Y-100750000D03*
X148470400Y-100750000D03*
X144270400Y-100750000D03*
D13*
X177901600Y-110286800D03*
D14*
X173701600Y-110286800D03*
X169501600Y-110286800D03*
X165301600Y-110286800D03*
X177901600Y-104786800D03*
X173701600Y-104786800D03*
X169501600Y-104786800D03*
X165301600Y-104786800D03*
D13*
X177901600Y-95250000D03*
D14*
X173701600Y-95250000D03*
X169501600Y-95250000D03*
X165301600Y-95250000D03*
X177901600Y-100750000D03*
X173701600Y-100750000D03*
X169501600Y-100750000D03*
X165301600Y-100750000D03*
D15*
X93789500Y-110286800D02*
X94870549Y-110286800D01*
X94870549Y-110286800D02*
X96202500Y-108954849D01*
X96202500Y-108954849D02*
X96202500Y-96062800D01*
X96202500Y-96062800D02*
X95377000Y-95237300D01*
X95377000Y-95237300D02*
X93789500Y-95237300D01*
X89589500Y-110286800D02*
X89589500Y-110352953D01*
X89589500Y-110352953D02*
X91745847Y-112509300D01*
X91745847Y-112509300D02*
X95683938Y-112509300D01*
X97028000Y-94530115D02*
X95512685Y-93014800D01*
X95512685Y-93014800D02*
X91900058Y-93014800D01*
X89677558Y-95237300D02*
X89589500Y-95237300D01*
X95683938Y-112509300D02*
X97028000Y-111165238D01*
X97028000Y-111165238D02*
X97028000Y-94530115D01*
X91900058Y-93014800D02*
X89677558Y-95237300D01*
X85389500Y-110286800D02*
X85241089Y-110286800D01*
X80118106Y-93014800D02*
X83200795Y-93014800D01*
X85241089Y-110286800D02*
X83082089Y-112445800D01*
X83082089Y-112445800D02*
X80250329Y-112445800D01*
X83200795Y-93014800D02*
X85389500Y-95203505D01*
X80250329Y-112445800D02*
X77978000Y-110173471D01*
X77978000Y-110173471D02*
X77978000Y-95154906D01*
X77978000Y-95154906D02*
X80118106Y-93014800D01*
X85389500Y-95203505D02*
X85389500Y-95237300D01*
X93789500Y-100737300D02*
X93789500Y-104786800D01*
X89589500Y-100737300D02*
X89589500Y-104786800D01*
D16*
X85389500Y-100737300D02*
X85389500Y-104786800D01*
X81189500Y-100737300D02*
X81189500Y-104786800D01*
D15*
X114820700Y-110286800D02*
X115793459Y-110286800D01*
X115793459Y-110286800D02*
X117233700Y-108846559D01*
X117233700Y-108846559D02*
X117233700Y-96062800D01*
X117233700Y-96062800D02*
X116408200Y-95237300D01*
X116408200Y-95237300D02*
X114820700Y-95237300D01*
X110620700Y-110286800D02*
X110764374Y-110286800D01*
X116501012Y-93014800D02*
X112908242Y-93014800D01*
X110764374Y-110286800D02*
X112986874Y-112509300D01*
X116738524Y-112509300D02*
X118059200Y-111188624D01*
X112986874Y-112509300D02*
X116738524Y-112509300D01*
X118059200Y-111188624D02*
X118059200Y-94572988D01*
X118059200Y-94572988D02*
X116501012Y-93014800D01*
X112908242Y-93014800D02*
X110685742Y-95237300D01*
X110685742Y-95237300D02*
X110620700Y-95237300D01*
X106420700Y-110286800D02*
X106420700Y-110333128D01*
X106420700Y-110333128D02*
X104308028Y-112445800D01*
X100995696Y-93014800D02*
X104193751Y-93014800D01*
X104308028Y-112445800D02*
X101008733Y-112445800D01*
X101008733Y-112445800D02*
X99009200Y-110446267D01*
X99009200Y-110446267D02*
X99009200Y-95001296D01*
X99009200Y-95001296D02*
X100995696Y-93014800D01*
X104193751Y-93014800D02*
X106416251Y-95237300D01*
X106416251Y-95237300D02*
X106420700Y-95237300D01*
X114820700Y-100737300D02*
X114820700Y-104786800D01*
X110620700Y-100737300D02*
X110620700Y-104786800D01*
D16*
X106420700Y-100737300D02*
X106420700Y-104786800D01*
X102220700Y-100737300D02*
X102220700Y-104786800D01*
D15*
X177876200Y-110286800D02*
X179023298Y-110286800D01*
X179023298Y-110286800D02*
X180289200Y-109020898D01*
X180289200Y-109020898D02*
X180289200Y-96062800D01*
X180289200Y-96062800D02*
X179463700Y-95237300D01*
X179463700Y-95237300D02*
X177876200Y-95237300D01*
X173676200Y-110286800D02*
X173732640Y-110286800D01*
X173732640Y-110286800D02*
X175955140Y-112509300D01*
X181114700Y-94392275D02*
X179737225Y-93014800D01*
X173676200Y-95197467D02*
X173676200Y-95237300D01*
X175955140Y-112509300D02*
X179854076Y-112509300D01*
X179854076Y-112509300D02*
X181114700Y-111248676D01*
X181114700Y-111248676D02*
X181114700Y-94392275D01*
X179737225Y-93014800D02*
X175858867Y-93014800D01*
X175858867Y-93014800D02*
X173676200Y-95197467D01*
X169476200Y-110286800D02*
X169381367Y-110286800D01*
X169381367Y-110286800D02*
X167222367Y-112445800D01*
X167222367Y-112445800D02*
X164064205Y-112445800D01*
X164064205Y-112445800D02*
X162064700Y-110446295D01*
X162064700Y-110446295D02*
X162064700Y-94916735D01*
X162064700Y-94916735D02*
X163966635Y-93014800D01*
X167320855Y-93014800D02*
X169476200Y-95170145D01*
X163966635Y-93014800D02*
X167320855Y-93014800D01*
X169476200Y-95170145D02*
X169476200Y-95237300D01*
X177876200Y-100737300D02*
X177876200Y-104786800D01*
X173676200Y-100737300D02*
X173676200Y-104786800D01*
D16*
X169476200Y-100737300D02*
X169476200Y-104786800D01*
X165276200Y-100737300D02*
X165276200Y-104786800D01*
D15*
X210989700Y-106769694D02*
X210989700Y-107476800D01*
X210989700Y-106055798D02*
X210989700Y-106769694D01*
X211814701Y-105230797D02*
X210989700Y-106055798D01*
X211814701Y-101041799D02*
X211814701Y-105230797D01*
X210989700Y-100216798D02*
X211814701Y-101041799D01*
X210989700Y-98237800D02*
X210989700Y-100216798D01*
X206989700Y-98237800D02*
X206989700Y-100216798D01*
X206989700Y-100216798D02*
X205996077Y-101210421D01*
X205996077Y-101210421D02*
X205996077Y-105004179D01*
X206989700Y-105997802D02*
X206989700Y-106769694D01*
X205996077Y-105004179D02*
X206989700Y-105997802D01*
X206989700Y-106769694D02*
X206989700Y-107476800D01*
X205489700Y-99937800D02*
X204989701Y-100437799D01*
X204063888Y-105058094D02*
X204782594Y-105776800D01*
X204989701Y-100437799D02*
X204768699Y-100437799D01*
X204768699Y-100437799D02*
X204063888Y-101142610D01*
X204063888Y-101142610D02*
X204063888Y-105058094D01*
X204782594Y-105776800D02*
X205489700Y-105776800D01*
X207989700Y-99937800D02*
X207989700Y-105776800D01*
X209989700Y-99937800D02*
X210008770Y-99956870D01*
X210008770Y-105757730D02*
X209989700Y-105776800D01*
X210008770Y-99956870D02*
X210008770Y-105757730D01*
X212489700Y-99937800D02*
X213196806Y-99937800D01*
X213196806Y-99937800D02*
X213848778Y-100589772D01*
X213848778Y-100589772D02*
X213848778Y-105124828D01*
X213848778Y-105124828D02*
X213196806Y-105776800D01*
X213196806Y-105776800D02*
X212489700Y-105776800D01*
X212989700Y-101437800D02*
X212989700Y-104276800D01*
X210989700Y-101437800D02*
X210989700Y-104276800D01*
X208989700Y-101437800D02*
X208989700Y-104276800D01*
X206989700Y-101437800D02*
X206989700Y-104276800D01*
X204989700Y-101437800D02*
X204989700Y-104276800D01*
X193590700Y-98237800D02*
X193590700Y-100073542D01*
X193590700Y-100073542D02*
X194470519Y-100953361D01*
X194470519Y-100953361D02*
X194470519Y-104961419D01*
X194470519Y-104961419D02*
X193590700Y-105841238D01*
X193590700Y-105841238D02*
X193590700Y-106769694D01*
X193590700Y-106769694D02*
X193590700Y-107476800D01*
X189590700Y-98237800D02*
X189590700Y-100216798D01*
X188629510Y-105036612D02*
X189590700Y-105997802D01*
X189590700Y-100216798D02*
X188629510Y-101177988D01*
X188629510Y-101177988D02*
X188629510Y-105036612D01*
X189590700Y-105997802D02*
X189590700Y-106769694D01*
X189590700Y-106769694D02*
X189590700Y-107476800D01*
X188090700Y-99937800D02*
X187869698Y-99937800D01*
X187383594Y-105776800D02*
X188090700Y-105776800D01*
X187869698Y-99937800D02*
X186649920Y-101157578D01*
X186649920Y-101157578D02*
X186649920Y-105043126D01*
X186649920Y-105043126D02*
X187383594Y-105776800D01*
X190590700Y-99937800D02*
X190590700Y-105776800D01*
X192590700Y-99937800D02*
X192590700Y-105776800D01*
X195090700Y-99937800D02*
X195797806Y-99937800D01*
X195797806Y-99937800D02*
X196474548Y-100614542D01*
X196474548Y-100614542D02*
X196474548Y-105100058D01*
X196474548Y-105100058D02*
X195797806Y-105776800D01*
X195797806Y-105776800D02*
X195090700Y-105776800D01*
X195590700Y-101437800D02*
X195590700Y-104276800D01*
X193590700Y-101437800D02*
X193590700Y-104276800D01*
X191590700Y-101437800D02*
X191590700Y-104276800D01*
X189590700Y-101437800D02*
X189590700Y-104276800D01*
X187590700Y-101437800D02*
X187590700Y-104276800D01*
X135839200Y-110286800D02*
X136730639Y-110286800D01*
X136730639Y-110286800D02*
X138252200Y-108765239D01*
X138252200Y-108765239D02*
X138252200Y-96062800D01*
X138252200Y-96062800D02*
X137426700Y-95237300D01*
X137426700Y-95237300D02*
X135839200Y-95237300D01*
X131639200Y-110286800D02*
X131639200Y-110395918D01*
X131639200Y-110395918D02*
X133752582Y-112509300D01*
X133752582Y-112509300D02*
X137795085Y-112509300D01*
X137795085Y-112509300D02*
X139077700Y-111226685D01*
X131679527Y-95237300D02*
X131639200Y-95237300D01*
X139077700Y-111226685D02*
X139077700Y-93840300D01*
X139077700Y-93840300D02*
X138252200Y-93014800D01*
X138252200Y-93014800D02*
X133902027Y-93014800D01*
X133902027Y-93014800D02*
X131679527Y-95237300D01*
X127439200Y-110286800D02*
X127438617Y-110286800D01*
X127438617Y-110286800D02*
X125279617Y-112445800D01*
X125279617Y-112445800D02*
X122105575Y-112445800D01*
X122105575Y-112445800D02*
X120027700Y-110367925D01*
X122068569Y-93014800D02*
X125314739Y-93014800D01*
X120027700Y-110367925D02*
X120027700Y-95055669D01*
X120027700Y-95055669D02*
X122068569Y-93014800D01*
X125314739Y-93014800D02*
X127439200Y-95139261D01*
X127439200Y-95139261D02*
X127439200Y-95237300D01*
X135839200Y-100737300D02*
X135839200Y-104786800D01*
X131639200Y-100737300D02*
X131639200Y-104786800D01*
D16*
X127439200Y-100737300D02*
X127439200Y-104786800D01*
X123239200Y-100737300D02*
X123239200Y-104786800D01*
D15*
X156857700Y-110286800D02*
X157512151Y-110286800D01*
X157512151Y-110286800D02*
X159270700Y-108528251D01*
X159270700Y-108528251D02*
X159270700Y-96062800D01*
X159270700Y-96062800D02*
X158445200Y-95237300D01*
X158445200Y-95237300D02*
X156857700Y-95237300D01*
X152657700Y-110286800D02*
X152657700Y-110488582D01*
X152657700Y-110488582D02*
X154678418Y-112509300D01*
X160096200Y-111620300D02*
X160096200Y-94595291D01*
X158515709Y-93014800D02*
X154903672Y-93014800D01*
X154678418Y-112509300D02*
X159207200Y-112509300D01*
X159207200Y-112509300D02*
X160096200Y-111620300D01*
X160096200Y-94595291D02*
X158515709Y-93014800D01*
X154903672Y-93014800D02*
X152681172Y-95237300D01*
X152681172Y-95237300D02*
X152657700Y-95237300D01*
X148457700Y-110286800D02*
X148390646Y-110286800D01*
X148390646Y-110286800D02*
X146231646Y-112445800D01*
X146231646Y-112445800D02*
X143058710Y-112445800D01*
X143058710Y-112445800D02*
X141046200Y-110433290D01*
X143015513Y-93014800D02*
X146162516Y-93014800D01*
X141046200Y-110433290D02*
X141046200Y-94984113D01*
X146162516Y-93014800D02*
X148385016Y-95237300D01*
X141046200Y-94984113D02*
X143015513Y-93014800D01*
X148385016Y-95237300D02*
X148457700Y-95237300D01*
X144257700Y-110286800D02*
X142951200Y-110286800D01*
X156857700Y-100737300D02*
X156857700Y-104786800D01*
X152657700Y-100737300D02*
X152657700Y-104786800D01*
D16*
X148457700Y-100737300D02*
X148457700Y-104786800D01*
X144257700Y-100737300D02*
X144257700Y-104786800D01*
M02*
