M48
;DRILL file {KiCad 4.0.7} date 04/09/18 21:48:02
;FORMAT={3:3/ absolute / metric / suppress trailing zeros}
FMAT,2
METRIC,LZ
T1C0.700
T2C1.800
T3C2.300
T4C3.200
%
G90
G05
M71
T1
X187591Y-098238
X187591Y-101438
X187591Y-104277
X187591Y-107477
X188091Y-096738
X188091Y-099938
X188091Y-105777
X188091Y-108977
X189591Y-098238
X189591Y-101438
X189591Y-104277
X189591Y-107477
X190591Y-096738
X190591Y-099938
X190591Y-105777
X190591Y-108977
X191591Y-101438
X191591Y-104277
X191601Y-098238
X191601Y-107477
X192591Y-096738
X192591Y-099938
X192591Y-105777
X192591Y-108977
X193591Y-098238
X193591Y-101438
X193591Y-104277
X193591Y-107477
X195091Y-096738
X195091Y-099938
X195091Y-105777
X195091Y-108977
X195591Y-098238
X195591Y-101438
X195591Y-104277
X195591Y-107477
X204957Y-098293
X204957Y-101493
X204957Y-104285
X204957Y-107485
X205457Y-096793
X205457Y-099993
X205457Y-105785
X205457Y-108985
X206957Y-098293
X206957Y-101493
X206957Y-104285
X206957Y-107485
X207957Y-096793
X207957Y-099993
X207957Y-105785
X207957Y-108985
X208957Y-101493
X208957Y-104285
X208967Y-098293
X208967Y-107485
X209957Y-096793
X209957Y-099993
X209957Y-105785
X209957Y-108985
X210957Y-098293
X210957Y-101493
X210957Y-104285
X210957Y-107485
X212457Y-096793
X212457Y-099993
X212457Y-105785
X212457Y-108985
X212957Y-098293
X212957Y-101493
X212957Y-104285
X212957Y-107485
T2
X081228Y-09525
X081228Y-10075
X081228Y-104787
X081228Y-110287
X085428Y-09525
X085428Y-10075
X085428Y-104787
X085428Y-110287
X089628Y-09525
X089628Y-10075
X089628Y-104787
X089628Y-110287
X093828Y-09525
X093828Y-10075
X093828Y-104787
X093828Y-110287
X102208Y-104787
X102208Y-110287
X102259Y-09525
X102259Y-10075
X106408Y-104787
X106408Y-110287
X106459Y-09525
X106459Y-10075
X110608Y-104787
X110608Y-110287
X110659Y-09525
X110659Y-10075
X114808Y-104787
X114808Y-110287
X114859Y-09525
X114859Y-10075
X123239Y-09525
X123239Y-10075
X123239Y-104787
X123239Y-110287
X127439Y-09525
X127439Y-10075
X127439Y-104787
X127439Y-110287
X131639Y-09525
X131639Y-10075
X131639Y-104787
X131639Y-110287
X135839Y-09525
X135839Y-10075
X135839Y-104787
X135839Y-110287
X14427Y-09525
X14427Y-10075
X14427Y-104787
X14427Y-110287
X14847Y-09525
X14847Y-10075
X14847Y-104787
X14847Y-110287
X15267Y-09525
X15267Y-10075
X15267Y-104787
X15267Y-110287
X15687Y-09525
X15687Y-10075
X15687Y-104787
X15687Y-110287
X165302Y-09525
X165302Y-10075
X165302Y-104787
X165302Y-110287
X169502Y-09525
X169502Y-10075
X169502Y-104787
X169502Y-110287
X173702Y-09525
X173702Y-10075
X173702Y-104787
X173702Y-110287
X177902Y-09525
X177902Y-10075
X177902Y-104787
X177902Y-110287
T3
X185021Y-094738
X185021Y-100418
X185021Y-105297
X185021Y-110977
X198161Y-094748
X198161Y-100418
X198161Y-105297
X198161Y-110967
X202387Y-094793
X202387Y-100473
X202387Y-105305
X202387Y-110985
X215527Y-094803
X215527Y-100473
X215527Y-105305
X215527Y-110975
T4
X07Y-0902
X07Y-1153
X2252Y-0902
X2252Y-1153
T0
M30
