G04 #@! TF.FileFunction,Copper,L1,Top,Signal*
%FSLAX46Y46*%
G04 Gerber Fmt 4.6, Leading zero omitted, Abs format (unit mm)*
G04 Created by KiCad (PCBNEW 4.0.7) date 04/09/18 21:47:58*
%MOMM*%
%LPD*%
G01*
G04 APERTURE LIST*
%ADD10C,0.100000*%
%ADD11C,2.400000*%
%ADD12C,1.000000*%
%ADD13R,3.000000X3.000000*%
%ADD14C,3.000000*%
%ADD15C,1.250000*%
%ADD16C,1.000000*%
%ADD17C,0.250000*%
G04 APERTURE END LIST*
D10*
D11*
X202387200Y-110985300D03*
X202387200Y-105305300D03*
X215527200Y-105305300D03*
X215527200Y-110975300D03*
D12*
X212457200Y-108985300D03*
X205457200Y-108985300D03*
X207957200Y-108985300D03*
X209957200Y-108985300D03*
X212957200Y-107485300D03*
X210957200Y-107485300D03*
X208967200Y-107485300D03*
X206957200Y-107485300D03*
X204957200Y-107485300D03*
X205457200Y-105785300D03*
X207957200Y-105785300D03*
X209957200Y-105785300D03*
X212457200Y-105785300D03*
X212957200Y-104285300D03*
X210957200Y-104285300D03*
X208957200Y-104285300D03*
X206957200Y-104285300D03*
X204957200Y-104285300D03*
D11*
X202387200Y-94792800D03*
X202387200Y-100472800D03*
X215527200Y-100472800D03*
X215527200Y-94802800D03*
D12*
X212457200Y-96792800D03*
X205457200Y-96792800D03*
X207957200Y-96792800D03*
X209957200Y-96792800D03*
X212957200Y-98292800D03*
X210957200Y-98292800D03*
X208967200Y-98292800D03*
X206957200Y-98292800D03*
X204957200Y-98292800D03*
X205457200Y-99992800D03*
X207957200Y-99992800D03*
X209957200Y-99992800D03*
X212457200Y-99992800D03*
X212957200Y-101492800D03*
X210957200Y-101492800D03*
X208957200Y-101492800D03*
X206957200Y-101492800D03*
X204957200Y-101492800D03*
D11*
X185020700Y-110976800D03*
X185020700Y-105296800D03*
X198160700Y-105296800D03*
X198160700Y-110966800D03*
D12*
X195090700Y-108976800D03*
X188090700Y-108976800D03*
X190590700Y-108976800D03*
X192590700Y-108976800D03*
X195590700Y-107476800D03*
X193590700Y-107476800D03*
X191600700Y-107476800D03*
X189590700Y-107476800D03*
X187590700Y-107476800D03*
X188090700Y-105776800D03*
X190590700Y-105776800D03*
X192590700Y-105776800D03*
X195090700Y-105776800D03*
X195590700Y-104276800D03*
X193590700Y-104276800D03*
X191590700Y-104276800D03*
X189590700Y-104276800D03*
X187590700Y-104276800D03*
D11*
X185020700Y-94737800D03*
X185020700Y-100417800D03*
X198160700Y-100417800D03*
X198160700Y-94747800D03*
D12*
X195090700Y-96737800D03*
X188090700Y-96737800D03*
X190590700Y-96737800D03*
X192590700Y-96737800D03*
X195590700Y-98237800D03*
X193590700Y-98237800D03*
X191600700Y-98237800D03*
X189590700Y-98237800D03*
X187590700Y-98237800D03*
X188090700Y-99937800D03*
X190590700Y-99937800D03*
X192590700Y-99937800D03*
X195090700Y-99937800D03*
X195590700Y-101437800D03*
X193590700Y-101437800D03*
X191590700Y-101437800D03*
X189590700Y-101437800D03*
X187590700Y-101437800D03*
D13*
X93827600Y-110286800D03*
D14*
X89627600Y-110286800D03*
X85427600Y-110286800D03*
X81227600Y-110286800D03*
X93827600Y-104786800D03*
X89627600Y-104786800D03*
X85427600Y-104786800D03*
X81227600Y-104786800D03*
D13*
X93827600Y-95250000D03*
D14*
X89627600Y-95250000D03*
X85427600Y-95250000D03*
X81227600Y-95250000D03*
X93827600Y-100750000D03*
X89627600Y-100750000D03*
X85427600Y-100750000D03*
X81227600Y-100750000D03*
D13*
X114808000Y-110286800D03*
D14*
X110608000Y-110286800D03*
X106408000Y-110286800D03*
X102208000Y-110286800D03*
X114808000Y-104786800D03*
X110608000Y-104786800D03*
X106408000Y-104786800D03*
X102208000Y-104786800D03*
D13*
X114858800Y-95250000D03*
D14*
X110658800Y-95250000D03*
X106458800Y-95250000D03*
X102258800Y-95250000D03*
X114858800Y-100750000D03*
X110658800Y-100750000D03*
X106458800Y-100750000D03*
X102258800Y-100750000D03*
D13*
X135839200Y-110286800D03*
D14*
X131639200Y-110286800D03*
X127439200Y-110286800D03*
X123239200Y-110286800D03*
X135839200Y-104786800D03*
X131639200Y-104786800D03*
X127439200Y-104786800D03*
X123239200Y-104786800D03*
D13*
X135839200Y-95250000D03*
D14*
X131639200Y-95250000D03*
X127439200Y-95250000D03*
X123239200Y-95250000D03*
X135839200Y-100750000D03*
X131639200Y-100750000D03*
X127439200Y-100750000D03*
X123239200Y-100750000D03*
D13*
X156870400Y-110286800D03*
D14*
X152670400Y-110286800D03*
X148470400Y-110286800D03*
X144270400Y-110286800D03*
X156870400Y-104786800D03*
X152670400Y-104786800D03*
X148470400Y-104786800D03*
X144270400Y-104786800D03*
D13*
X156870400Y-95250000D03*
D14*
X152670400Y-95250000D03*
X148470400Y-95250000D03*
X144270400Y-95250000D03*
X156870400Y-100750000D03*
X152670400Y-100750000D03*
X148470400Y-100750000D03*
X144270400Y-100750000D03*
D13*
X177901600Y-110286800D03*
D14*
X173701600Y-110286800D03*
X169501600Y-110286800D03*
X165301600Y-110286800D03*
X177901600Y-104786800D03*
X173701600Y-104786800D03*
X169501600Y-104786800D03*
X165301600Y-104786800D03*
D13*
X177901600Y-95250000D03*
D14*
X173701600Y-95250000D03*
X169501600Y-95250000D03*
X165301600Y-95250000D03*
X177901600Y-100750000D03*
X173701600Y-100750000D03*
X169501600Y-100750000D03*
X165301600Y-100750000D03*
D15*
X81189500Y-110286800D02*
X79883000Y-110286800D01*
X78405656Y-108809456D02*
X78405656Y-96333644D01*
X78405656Y-96333644D02*
X79502000Y-95237300D01*
X79883000Y-110286800D02*
X78405656Y-108809456D01*
X79502000Y-95237300D02*
X81189500Y-95237300D01*
X100533200Y-95237300D02*
X102220700Y-95237300D01*
X100914200Y-110286800D02*
X99436856Y-108809456D01*
X99436856Y-96333644D02*
X100533200Y-95237300D01*
X99436856Y-108809456D02*
X99436856Y-96333644D01*
X102220700Y-110286800D02*
X100914200Y-110286800D01*
X165339700Y-110286800D02*
X163840160Y-110286800D01*
X163840160Y-110286800D02*
X162204400Y-108651040D01*
X162204400Y-97414080D02*
X164381180Y-95237300D01*
X162204400Y-108651040D02*
X162204400Y-97414080D01*
D16*
X164381180Y-95237300D02*
X165339700Y-95237300D01*
D17*
X212489700Y-96737800D02*
X212989699Y-97237799D01*
X217154116Y-105959386D02*
X214136702Y-108976800D01*
X212989699Y-97237799D02*
X214636701Y-97237799D01*
X214636701Y-97237799D02*
X217154116Y-99755214D01*
X217154116Y-99755214D02*
X217154116Y-105959386D01*
X214136702Y-108976800D02*
X213196806Y-108976800D01*
X213196806Y-108976800D02*
X212489700Y-108976800D01*
X205489700Y-96737800D02*
X204989701Y-97237799D01*
X204989701Y-97237799D02*
X203342699Y-97237799D01*
X203342699Y-97237799D02*
X200807577Y-99772921D01*
X200807577Y-99772921D02*
X200807577Y-106076180D01*
X200807577Y-106076180D02*
X203708197Y-108976800D01*
X203708197Y-108976800D02*
X204782594Y-108976800D01*
X204782594Y-108976800D02*
X205489700Y-108976800D01*
X207989700Y-96737800D02*
X207989700Y-98716798D01*
X207989700Y-108269694D02*
X207989700Y-108976800D01*
X207989700Y-98716798D02*
X207024529Y-99681969D01*
X207024529Y-99681969D02*
X207024529Y-100330355D01*
X207798472Y-101104298D02*
X207798472Y-104714568D01*
X207024529Y-100330355D02*
X207798472Y-101104298D01*
X207798472Y-104714568D02*
X207802701Y-104718797D01*
X207802701Y-104718797D02*
X206969247Y-105552251D01*
X206969247Y-105552251D02*
X206969247Y-106235345D01*
X206969247Y-106235345D02*
X207989700Y-107255798D01*
X207989700Y-107255798D02*
X207989700Y-108269694D01*
X209989700Y-96737800D02*
X209989700Y-98716798D01*
X209989700Y-98716798D02*
X210974274Y-99701372D01*
X210974274Y-99701372D02*
X210974274Y-100232224D01*
X210814701Y-106272241D02*
X209989700Y-107097242D01*
X210974274Y-100232224D02*
X210005537Y-101200961D01*
X210005537Y-101200961D02*
X210005537Y-104571635D01*
X210005537Y-104571635D02*
X210814701Y-105380799D01*
X210814701Y-105380799D02*
X210814701Y-106272241D01*
X209989700Y-107097242D02*
X209989700Y-108269694D01*
X209989700Y-108269694D02*
X209989700Y-108976800D01*
X212989700Y-98237800D02*
X212989700Y-99216798D01*
X212989700Y-99216798D02*
X213860357Y-100087455D01*
X213860357Y-100087455D02*
X213860357Y-106606143D01*
X213860357Y-106606143D02*
X213489699Y-106976801D01*
X213489699Y-106976801D02*
X212989700Y-107476800D01*
X208999700Y-97530694D02*
X208999700Y-98237800D01*
X208385701Y-95912799D02*
X208999700Y-96526798D01*
X206057099Y-98613701D02*
X206057099Y-97449399D01*
X206057099Y-97449399D02*
X207593699Y-95912799D01*
X205995675Y-104846847D02*
X205995675Y-101210823D01*
X205995675Y-101210823D02*
X206561199Y-100645299D01*
X206132199Y-106808782D02*
X206519236Y-106421745D01*
X206519236Y-105370408D02*
X205995675Y-104846847D01*
X206519236Y-106421745D02*
X206519236Y-105370408D01*
X207561199Y-109810301D02*
X207132199Y-109381301D01*
X206132199Y-108340301D02*
X206132199Y-106808782D01*
X208999700Y-107476800D02*
X208999700Y-109187802D01*
X207132199Y-109340301D02*
X206132199Y-108340301D01*
X206561199Y-100645299D02*
X206561199Y-99117801D01*
X207132199Y-109381301D02*
X207132199Y-109340301D01*
X208361701Y-109801801D02*
X208353201Y-109810301D01*
X208999700Y-96526798D02*
X208999700Y-97530694D01*
X206561199Y-99117801D02*
X206057099Y-98613701D01*
X208353201Y-109810301D02*
X207561199Y-109810301D01*
X208385701Y-109801801D02*
X208361701Y-109801801D01*
X208999700Y-109187802D02*
X208385701Y-109801801D01*
X207593699Y-95912799D02*
X208385701Y-95912799D01*
X204989700Y-98237800D02*
X204989700Y-99216798D01*
X204989700Y-99216798D02*
X204063888Y-100142610D01*
X204063888Y-100142610D02*
X204063888Y-106550988D01*
X204063888Y-106550988D02*
X204489701Y-106976801D01*
X204489701Y-106976801D02*
X204989700Y-107476800D01*
X195090700Y-96737800D02*
X195590699Y-97237799D01*
X195590699Y-97237799D02*
X197237701Y-97237799D01*
X197237701Y-97237799D02*
X199685701Y-99685799D01*
X199685701Y-99685799D02*
X199685701Y-106028801D01*
X199685701Y-106028801D02*
X196737702Y-108976800D01*
X195797806Y-108976800D02*
X195090700Y-108976800D01*
X196737702Y-108976800D02*
X195797806Y-108976800D01*
X188090700Y-96737800D02*
X188083570Y-96744930D01*
X188083570Y-96744930D02*
X186324217Y-96744930D01*
X183375045Y-99694102D02*
X183375045Y-105908147D01*
X186324217Y-96744930D02*
X183375045Y-99694102D01*
X183375045Y-105908147D02*
X186443698Y-108976800D01*
X186443698Y-108976800D02*
X187383594Y-108976800D01*
X187383594Y-108976800D02*
X188090700Y-108976800D01*
X190578549Y-101204647D02*
X190578549Y-104567949D01*
X190590700Y-108269694D02*
X190590700Y-108976800D01*
X189631524Y-106296622D02*
X190590700Y-107255798D01*
X189631524Y-105514974D02*
X189631524Y-106296622D01*
X190590700Y-96737800D02*
X190590700Y-98716798D01*
X190590700Y-98716798D02*
X189637634Y-99669864D01*
X189637634Y-99669864D02*
X189637634Y-100263732D01*
X189637634Y-100263732D02*
X190578549Y-101204647D01*
X190578549Y-104567949D02*
X189631524Y-105514974D01*
X190590700Y-107255798D02*
X190590700Y-108269694D01*
X192590700Y-96737800D02*
X192590700Y-98716798D01*
X193560153Y-99686251D02*
X193560153Y-100247345D01*
X192590700Y-98716798D02*
X193560153Y-99686251D01*
X193560153Y-100247345D02*
X192576468Y-101231030D01*
X192576468Y-101231030D02*
X192576468Y-104541566D01*
X193590702Y-105555800D02*
X193590702Y-106255796D01*
X192576468Y-104541566D02*
X193590702Y-105555800D01*
X193590702Y-106255796D02*
X192590700Y-107255798D01*
X192590700Y-107255798D02*
X192590700Y-108269694D01*
X192590700Y-108269694D02*
X192590700Y-108976800D01*
X195590700Y-98237800D02*
X195590700Y-99216798D01*
X195590700Y-99216798D02*
X196468438Y-100094536D01*
X196468438Y-100094536D02*
X196468438Y-106599062D01*
X196468438Y-106599062D02*
X196090699Y-106976801D01*
X196090699Y-106976801D02*
X195590700Y-107476800D01*
X188765699Y-98633801D02*
X188765699Y-97341799D01*
X190986701Y-95912799D02*
X191600700Y-96526798D01*
X191600700Y-97530694D02*
X191600700Y-98237800D01*
X189187623Y-100450132D02*
X189187623Y-99055725D01*
X191600700Y-107476800D02*
X191600700Y-109187802D01*
X188653949Y-104863660D02*
X188653949Y-100983806D01*
X188653949Y-100983806D02*
X189187623Y-100450132D01*
X189181513Y-106483022D02*
X189181513Y-105391224D01*
X188765699Y-97341799D02*
X190194699Y-95912799D01*
X189181513Y-105391224D02*
X188653949Y-104863660D01*
X191600700Y-96526798D02*
X191600700Y-97530694D01*
X188765699Y-106898836D02*
X189181513Y-106483022D01*
X188765699Y-108409142D02*
X188765699Y-106898836D01*
X190230288Y-109873731D02*
X188765699Y-108409142D01*
X190914771Y-109873731D02*
X190230288Y-109873731D01*
X191600700Y-109187802D02*
X190914771Y-109873731D01*
X189187623Y-99055725D02*
X188765699Y-98633801D01*
X190194699Y-95912799D02*
X190986701Y-95912799D01*
X187590700Y-98237800D02*
X187590700Y-99216798D01*
X187590700Y-99216798D02*
X186674360Y-100133138D01*
X186674360Y-100133138D02*
X186674360Y-106560460D01*
X186674360Y-106560460D02*
X187090701Y-106976801D01*
X187090701Y-106976801D02*
X187590700Y-107476800D01*
D15*
X123239200Y-110286800D02*
X122036333Y-110286800D01*
X122036333Y-110286800D02*
X120272119Y-108522586D01*
X120272119Y-108522586D02*
X120272119Y-97004537D01*
X120272119Y-97004537D02*
X122039356Y-95237300D01*
X122039356Y-95237300D02*
X123239200Y-95237300D01*
X144241520Y-110276640D02*
X142554960Y-110276640D01*
X142554960Y-110276640D02*
X140949680Y-108671360D01*
X140949680Y-108671360D02*
X140949680Y-96702880D01*
X142415260Y-95237300D02*
X144257700Y-95237300D01*
X140949680Y-96702880D02*
X142415260Y-95237300D01*
M02*
