M48
;DRILL file {KiCad 4.0.5} date 05/10/17 18:47:40
;FORMAT={2:4/ absolute / inch / suppress leading zeros}
FMAT,2
INCH,TZ
T1C0.013
T2C0.030
T3C0.031
T4C0.039
T5C0.051
T6C0.060
T7C0.063
T8C0.067
T9C0.085
T10C0.098
T11C0.126
%
G90
G05
M72
T1
X11505Y51590
X11538Y52949
X11544Y40369
X11570Y41944
X11612Y43322
X11659Y44700
X11880Y46078
X12463Y53046
X14182Y35920
X14182Y35487
X14537Y38637
X14880Y33823
X17962Y29346
X20324Y29346
X21426Y34464
X21702Y33480
X72804Y32968
T2
X15523Y53393
X15523Y52393
X15523Y51393
X15523Y50393
X15523Y49393
X15523Y48393
X15523Y47393
X15523Y46393
X15523Y45393
X15523Y44393
X15523Y43393
X15523Y42393
X15523Y41393
X20521Y51393
X20521Y50393
X20521Y49393
X21523Y54393
X21523Y53393
X21523Y52393
X21523Y51393
X21523Y50393
X21523Y49393
X21523Y48393
X21523Y47393
X21523Y46393
X21523Y45393
X21523Y44393
X21523Y43393
X21523Y42393
X21523Y41393
T3
X15523Y54393
T4
X14174Y48393
X14174Y47393
X14174Y46393
X14174Y45393
X14174Y44393
X14174Y43393
X14174Y42393
X14174Y41393
T5
X5560Y52771
X5560Y51393
X5560Y50015
X5560Y48637
X5560Y47259
X5560Y45881
X5560Y44503
X5560Y43125
X5560Y41747
X5560Y37613
X5560Y36235
X5560Y34857
X5560Y33480
T6
X27607Y52196
X27607Y50196
X27607Y39794
X27607Y37794
X27614Y45900
X27614Y43900
X34094Y45910
X34094Y43910
X34104Y52196
X34104Y50196
X34104Y39794
X34104Y37794
X40600Y52196
X40600Y50196
X40600Y45897
X40600Y43897
X40600Y39794
X40600Y37794
X47489Y52196
X47489Y50196
X47489Y45897
X47489Y43897
X47489Y39747
X47489Y37747
X53395Y39794
X53395Y37794
X53474Y52196
X53474Y50196
X69459Y24440
X71459Y24440
T7
X7218Y23569
X7218Y22073
X7218Y17664
X7218Y16168
X12139Y23569
X12139Y22073
X12139Y17664
X12139Y16168
X19237Y22495
X19237Y17573
X20733Y22495
X20733Y17573
X25143Y22495
X25143Y17573
X26639Y22495
X26639Y17573
X31733Y22495
X31733Y17573
X33229Y22495
X33229Y17573
X37639Y22495
X37639Y17573
X39135Y22495
X39135Y17573
X44737Y22495
X44737Y17573
X46233Y22495
X46233Y17573
X50643Y22495
X50643Y17573
X52139Y22495
X52139Y17573
X57237Y22495
X57237Y17573
X58733Y22495
X58733Y17573
X63143Y22495
X63143Y17573
X64639Y22495
X64639Y17573
T8
X58576Y37008
X58578Y38923
X60230Y38923
X60230Y37008
X61883Y38923
X61883Y37008
X63537Y38923
X63537Y37008
X65190Y38923
X65190Y37008
X66844Y38923
X66844Y37008
X68497Y38923
X68497Y37008
X70151Y38923
X70151Y37008
X71804Y38923
X71804Y37008
X73458Y38923
X73458Y37008
T9
X57952Y52397
X57952Y44897
X64202Y52397
X65452Y52397
X66702Y52397
X71702Y52397
X71702Y44897
T10
X14419Y28165
X23867Y28165
T11
X3985Y54543
X3985Y27771
X3985Y11039
X74458Y54543
X74458Y27771
X74458Y11039
T0
M30
