G04 #@! TF.FileFunction,Legend,Bot*
%FSLAX46Y46*%
G04 Gerber Fmt 4.6, Leading zero omitted, Abs format (unit mm)*
G04 Created by KiCad (PCBNEW 4.0.7) date 04/13/18 18:03:43*
%MOMM*%
%LPD*%
G01*
G04 APERTURE LIST*
%ADD10C,0.100000*%
%ADD11C,3.600000*%
%ADD12R,2.800000X2.800000*%
%ADD13C,2.800000*%
%ADD14R,2.000000X2.000000*%
%ADD15C,2.000000*%
%ADD16R,2.400000X2.400000*%
%ADD17C,2.400000*%
%ADD18R,2.200000X2.200000*%
%ADD19O,2.200000X2.200000*%
%ADD20C,3.200000*%
%ADD21C,2.600000*%
%ADD22R,2.525980X2.525980*%
%ADD23O,1.650000X1.350000*%
%ADD24O,1.400000X1.950000*%
%ADD25R,3.400000X3.400000*%
%ADD26C,3.400000*%
%ADD27R,3.200000X3.200000*%
G04 APERTURE END LIST*
D10*
%LPC*%
D11*
X154380000Y-40630000D03*
X154380000Y-141040000D03*
D12*
X175055000Y-59702000D03*
D13*
X180055000Y-59702000D03*
D12*
X175055000Y-74162000D03*
D13*
X180055000Y-74162000D03*
D12*
X175055000Y-87987000D03*
D13*
X180055000Y-87987000D03*
D12*
X175325000Y-101967000D03*
D13*
X180325000Y-101967000D03*
D12*
X175325000Y-115792000D03*
D13*
X180325000Y-115792000D03*
D12*
X175325000Y-129617000D03*
D13*
X180325000Y-129617000D03*
D14*
X154279600Y-104597200D03*
D15*
X154279600Y-107097200D03*
D12*
X190055000Y-59702000D03*
D13*
X195055000Y-59702000D03*
D12*
X190055000Y-74162000D03*
D13*
X195055000Y-74162000D03*
D12*
X190055000Y-87987000D03*
D13*
X195055000Y-87987000D03*
D12*
X190325000Y-101967000D03*
D13*
X195325000Y-101967000D03*
D12*
X190325000Y-115792000D03*
D13*
X195325000Y-115792000D03*
D12*
X190325000Y-129617000D03*
D13*
X195325000Y-129617000D03*
D14*
X146659600Y-104597200D03*
D15*
X146659600Y-107097200D03*
D12*
X205055000Y-59702000D03*
D13*
X210055000Y-59702000D03*
D12*
X205055000Y-74162000D03*
D13*
X210055000Y-74162000D03*
D12*
X205055000Y-87987000D03*
D13*
X210055000Y-87987000D03*
D12*
X205325000Y-101967000D03*
D13*
X210325000Y-101967000D03*
D12*
X205325000Y-115792000D03*
D13*
X210325000Y-115792000D03*
D12*
X205325000Y-129617000D03*
D13*
X210325000Y-129617000D03*
D14*
X161899600Y-104597200D03*
D15*
X161899600Y-107097200D03*
D14*
X151104600Y-97612200D03*
D15*
X151104600Y-100112200D03*
D14*
X157454600Y-97612200D03*
D15*
X157454600Y-100112200D03*
D14*
X163804600Y-97612200D03*
D15*
X163804600Y-100112200D03*
D13*
X167914200Y-115773200D03*
D12*
X164414200Y-115773200D03*
D13*
X85369400Y-121315600D03*
D12*
X85369400Y-117815600D03*
D13*
X85369400Y-124815600D03*
X85369400Y-128315600D03*
X85369400Y-131815600D03*
X85369400Y-135315600D03*
D16*
X160629600Y-87452200D03*
D17*
X160629600Y-92452200D03*
D18*
X113157000Y-77216000D03*
D19*
X113157000Y-74676000D03*
X113157000Y-72136000D03*
D18*
X125857000Y-77216000D03*
D19*
X125857000Y-74676000D03*
X125857000Y-72136000D03*
D13*
X170292000Y-43815000D03*
X166792000Y-43815000D03*
X173792000Y-43815000D03*
D12*
X177292000Y-43815000D03*
D20*
X118455000Y-38802000D03*
X122255000Y-38802000D03*
D21*
X118455000Y-54802000D03*
X122255000Y-54802000D03*
D20*
X133445000Y-38802000D03*
X137255000Y-38792000D03*
D21*
X133455000Y-54802000D03*
X137255000Y-54792000D03*
D11*
X84380000Y-141040000D03*
D18*
X135813800Y-78079600D03*
D19*
X140893800Y-78079600D03*
D22*
X129105660Y-127558800D03*
X129105660Y-132422900D03*
X133306820Y-127558800D03*
X133306820Y-132422900D03*
X137505440Y-127558800D03*
X137505440Y-132422900D03*
X141706600Y-127558800D03*
X141706600Y-132422900D03*
X145905220Y-127558800D03*
X145905220Y-132422900D03*
X150106380Y-127558800D03*
X150106380Y-132422900D03*
X154305000Y-127558800D03*
X154305000Y-132422900D03*
X158506160Y-127558800D03*
X158506160Y-132422900D03*
X162704780Y-127558800D03*
X162704780Y-132422900D03*
X166905940Y-127558800D03*
X166900860Y-132422900D03*
D23*
X91815400Y-39479200D03*
X96815400Y-39479200D03*
D24*
X97815400Y-36779200D03*
X90815400Y-36779200D03*
D25*
X219075000Y-106832400D03*
D26*
X219075000Y-101752400D03*
X219075000Y-96672400D03*
X219075000Y-91592400D03*
X219075000Y-86512400D03*
X219075000Y-81432400D03*
D25*
X84709000Y-87376000D03*
D26*
X84709000Y-92456000D03*
X84709000Y-97536000D03*
X84709000Y-102616000D03*
X84709000Y-107696000D03*
X84709000Y-112776000D03*
D25*
X219075000Y-140970000D03*
D26*
X219075000Y-135890000D03*
X219075000Y-130810000D03*
X219075000Y-125730000D03*
X219075000Y-120650000D03*
X219075000Y-115570000D03*
D25*
X219075000Y-73406000D03*
D26*
X219075000Y-68326000D03*
X219075000Y-63246000D03*
X219075000Y-58166000D03*
X219075000Y-53086000D03*
X219075000Y-48006000D03*
D20*
X98983800Y-55219600D03*
X98983800Y-59019600D03*
X86483800Y-55219600D03*
X86483800Y-59019600D03*
X98983800Y-70219600D03*
X98983800Y-74019600D03*
X86483800Y-70219600D03*
X86483800Y-74019600D03*
D27*
X147463400Y-47687600D03*
D20*
X151663400Y-47687600D03*
X155863400Y-47687600D03*
X160063400Y-47687600D03*
X147463400Y-53187600D03*
X151663400Y-53187600D03*
X155863400Y-53187600D03*
X160063400Y-53187600D03*
D11*
X211440000Y-141040000D03*
X211440000Y-40630000D03*
X84430000Y-40640000D03*
M02*
