M48
;DRILL file {KiCad 4.0.4-stable} date 05/23/18 22:15:14
;FORMAT={2:4/ absolute / inch / suppress leading zeros}
FMAT,2
INCH,TZ
T1C0.030
T2C0.169
T3C0.177
T4C0.071
%
G90
G05
M72
T1
X16593Y-22706
X16602Y-7490
X16605Y-13605
X16613Y-19675
X16617Y-1400
X16617Y-4441
X16622Y-10500
X16625Y-16616
X47105Y-22706
X47114Y-7490
X47117Y-13605
X47125Y-19675
X47129Y-1400
X47129Y-4441
X47134Y-10500
X47137Y-16616
T2
X7121Y-22656
X7130Y-7440
X7133Y-13555
X7141Y-19625
X7145Y-1350
X7145Y-4391
X7150Y-10450
X7153Y-16566
X10074Y-22656
X10083Y-7440
X10085Y-13555
X10094Y-19625
X10097Y-1350
X10097Y-4391
X10103Y-10450
X10105Y-16566
X13027Y-22656
X13036Y-7440
X13038Y-13555
X13047Y-19625
X13050Y-1350
X13050Y-4391
X13056Y-10450
X13058Y-16566
X20160Y-22706
X20169Y-7490
X20171Y-13605
X20180Y-19675
X20183Y-1400
X20183Y-4441
X20189Y-10500
X20191Y-16616
X23112Y-22706
X23122Y-7490
X23124Y-13605
X23132Y-19675
X23136Y-1400
X23136Y-4441
X23142Y-10500
X23144Y-16616
X26065Y-22706
X26075Y-7490
X26077Y-13605
X26085Y-19675
X26089Y-1400
X26089Y-4441
X26095Y-10500
X26097Y-16616
X37633Y-22656
X37642Y-7440
X37644Y-13555
X37653Y-19625
X37656Y-1350
X37656Y-4391
X37662Y-10450
X37664Y-16566
X40586Y-22656
X40595Y-7440
X40597Y-13555
X40606Y-19625
X40609Y-1350
X40609Y-4391
X40615Y-10450
X40617Y-16566
X43538Y-22656
X43548Y-7440
X43550Y-13555
X43558Y-19625
X43562Y-1350
X43562Y-4391
X43568Y-10450
X43570Y-16566
X50672Y-22706
X50681Y-7490
X50683Y-13605
X50692Y-19675
X50695Y-1400
X50695Y-4441
X50701Y-10500
X50703Y-16616
X53624Y-22706
X53634Y-7490
X53636Y-13605
X53644Y-19675
X53648Y-1400
X53648Y-4441
X53654Y-10500
X53656Y-16616
X56577Y-22706
X56586Y-7490
X56589Y-13605
X56597Y-19675
X56601Y-1400
X56601Y-4441
X56606Y-10500
X56609Y-16616
T3
X1909Y-22416
X2014Y-1979
X60986Y-2034
X60986Y-22416
T4
X59545Y-8328
X59545Y-9981
X59545Y-11635
X59545Y-13289
X59545Y-14942
X61710Y-8328
X61710Y-9981
X61710Y-11635
X61710Y-13289
X61710Y-14942
T0
M30
