G04 #@! TF.FileFunction,Copper,L1,Top,Signal*
%FSLAX46Y46*%
G04 Gerber Fmt 4.6, Leading zero omitted, Abs format (unit mm)*
G04 Created by KiCad (PCBNEW 4.0.4-stable) date 05/23/18 22:13:55*
%MOMM*%
%LPD*%
G01*
G04 APERTURE LIST*
%ADD10C,0.100000*%
%ADD11C,4.500000*%
%ADD12R,55.000000X6.000000*%
%ADD13C,4.300000*%
%ADD14C,3.000000*%
%ADD15C,0.750000*%
%ADD16C,0.700000*%
%ADD17C,0.250000*%
%ADD18C,5.000000*%
G04 APERTURE END LIST*
D10*
D11*
X154905700Y-5165100D03*
D12*
X42170300Y-19024600D03*
D13*
X51229300Y-19024600D03*
X33111300Y-18897600D03*
X18111300Y-18897600D03*
X25611300Y-18897600D03*
X66229300Y-19024600D03*
X58729300Y-19024600D03*
D12*
X42146700Y-57673700D03*
D13*
X51205700Y-57673700D03*
X33087700Y-57546700D03*
X18087700Y-57546700D03*
X25587700Y-57546700D03*
X66205700Y-57673700D03*
X58705700Y-57673700D03*
D12*
X42197500Y-49974500D03*
D13*
X51256500Y-49974500D03*
X33138500Y-49847500D03*
X18138500Y-49847500D03*
X25638500Y-49847500D03*
X66256500Y-49974500D03*
X58756500Y-49974500D03*
D12*
X42226800Y-42205100D03*
D13*
X51285800Y-42205100D03*
X33167800Y-42078100D03*
X18167800Y-42078100D03*
X25667800Y-42078100D03*
X66285800Y-42205100D03*
X58785800Y-42205100D03*
D12*
X42176000Y-34556700D03*
D13*
X51235000Y-34556700D03*
X33117000Y-34429700D03*
X18117000Y-34429700D03*
X25617000Y-34429700D03*
X66235000Y-34556700D03*
X58735000Y-34556700D03*
D12*
X42221100Y-26670000D03*
D13*
X51280100Y-26670000D03*
X33162100Y-26543000D03*
X18162100Y-26543000D03*
X25662100Y-26543000D03*
X66280100Y-26670000D03*
X58780100Y-26670000D03*
D12*
X119706500Y-11280600D03*
D13*
X128765500Y-11280600D03*
X110647500Y-11153600D03*
X95647500Y-11153600D03*
X103147500Y-11153600D03*
X143765500Y-11280600D03*
X136265500Y-11280600D03*
D12*
X119706500Y-3556500D03*
D13*
X128765500Y-3556500D03*
X110647500Y-3429500D03*
X95647500Y-3429500D03*
X103147500Y-3429500D03*
X143765500Y-3556500D03*
X136265500Y-3556500D03*
D12*
X119646700Y-57673700D03*
D13*
X128705700Y-57673700D03*
X110587700Y-57546700D03*
X95587700Y-57546700D03*
X103087700Y-57546700D03*
X143705700Y-57673700D03*
X136205700Y-57673700D03*
D12*
X119697500Y-49974500D03*
D13*
X128756500Y-49974500D03*
X110638500Y-49847500D03*
X95638500Y-49847500D03*
X103138500Y-49847500D03*
X143756500Y-49974500D03*
X136256500Y-49974500D03*
D12*
X119726800Y-42205100D03*
D13*
X128785800Y-42205100D03*
X110667800Y-42078100D03*
X95667800Y-42078100D03*
X103167800Y-42078100D03*
X143785800Y-42205100D03*
X136285800Y-42205100D03*
D12*
X119676000Y-34556700D03*
D13*
X128735000Y-34556700D03*
X110617000Y-34429700D03*
X95617000Y-34429700D03*
X103117000Y-34429700D03*
X143735000Y-34556700D03*
X136235000Y-34556700D03*
D12*
X119721100Y-26670000D03*
D13*
X128780100Y-26670000D03*
X110662100Y-26543000D03*
X95662100Y-26543000D03*
X103162100Y-26543000D03*
X143780100Y-26670000D03*
X136280100Y-26670000D03*
D12*
X119670300Y-19024600D03*
D13*
X128729300Y-19024600D03*
X110611300Y-18897600D03*
X95611300Y-18897600D03*
X103111300Y-18897600D03*
X143729300Y-19024600D03*
X136229300Y-19024600D03*
D12*
X42206500Y-11280600D03*
D13*
X51265500Y-11280600D03*
X33147500Y-11153600D03*
X18147500Y-11153600D03*
X25647500Y-11153600D03*
X66265500Y-11280600D03*
X58765500Y-11280600D03*
D12*
X42206500Y-3556500D03*
D13*
X51265500Y-3556500D03*
X33147500Y-3429500D03*
X18147500Y-3429500D03*
X25647500Y-3429500D03*
X66265500Y-3556500D03*
X58765500Y-3556500D03*
D11*
X5114300Y-5025400D03*
X4847600Y-56937900D03*
X154905700Y-56937900D03*
D14*
X151243400Y-37952900D03*
X156743400Y-37952900D03*
X156743400Y-33752900D03*
X151243400Y-33752900D03*
X156743400Y-29552900D03*
X151243400Y-29552900D03*
X156743400Y-25352900D03*
X151243400Y-25352900D03*
X156743400Y-21152900D03*
X151243400Y-21152900D03*
D15*
X62547771Y-38485232D02*
X147589002Y-38485232D01*
X147589002Y-38485232D02*
X149420844Y-36653390D01*
D16*
X147950768Y-38017396D02*
X149845127Y-36123037D01*
X149845127Y-36123037D02*
X149845127Y-35151173D01*
X149845127Y-35151173D02*
X151243400Y-33752900D01*
X119706500Y-3556500D02*
X146978350Y-3556500D01*
X146978350Y-3556500D02*
X158967196Y-15545346D01*
X158967196Y-15545346D02*
X158967196Y-23129104D01*
X158967196Y-23129104D02*
X156743400Y-25352900D01*
X147387167Y-57673700D02*
X143705700Y-57673700D01*
X159073266Y-45987601D02*
X147387167Y-57673700D01*
X159073266Y-36082766D02*
X159073266Y-45987601D01*
X156743400Y-33752900D02*
X159073266Y-36082766D01*
X156743400Y-37952900D02*
X156743400Y-45352861D01*
X156743400Y-45352861D02*
X148152724Y-53943537D01*
D15*
X147408900Y-46253400D02*
X141423400Y-46253400D01*
D16*
X151243400Y-37952900D02*
X151243400Y-42418900D01*
X151243400Y-42418900D02*
X147408900Y-46253400D01*
X151243400Y-29552900D02*
X149122080Y-29552900D01*
X149122080Y-29552900D02*
X148168056Y-30506924D01*
X148168056Y-30506924D02*
X144126724Y-30506924D01*
D15*
X139405803Y-31731200D02*
X140345592Y-30791411D01*
D16*
X147240196Y-22916510D02*
X148807010Y-22916510D01*
X148807010Y-22916510D02*
X151243400Y-25352900D01*
X147586840Y-15076941D02*
X148952439Y-15076941D01*
X148952439Y-15076941D02*
X151243400Y-17367902D01*
X151243400Y-17367902D02*
X151243400Y-21152900D01*
X151243400Y-28399241D02*
X151243400Y-29552900D01*
X148121488Y-7440770D02*
X148316926Y-7440770D01*
X148316926Y-7440770D02*
X156743400Y-15867244D01*
X156743400Y-15867244D02*
X156743400Y-21152900D01*
D17*
X25400Y-61899800D02*
X25400Y304800D01*
X159943800Y-61899800D02*
X25400Y-61899800D01*
X159943800Y114300D02*
X160070800Y114300D01*
X153517222Y114300D02*
X159943800Y114300D01*
X159943800Y114300D02*
X159943800Y-61899800D01*
X69717902Y114300D02*
X153517222Y114300D01*
X-114300Y114300D02*
X69717902Y114300D01*
D18*
X63690934Y-22182952D02*
X61749986Y-24123900D01*
X61749986Y-24123900D02*
X39726833Y-24123900D01*
X39726833Y-24123900D02*
X37731987Y-22129054D01*
X63551234Y-52243852D02*
X61610286Y-54184800D01*
X66699253Y-53282453D02*
X66699253Y-56109840D01*
X66644024Y-50255630D02*
X66644024Y-53227224D01*
X61610286Y-54184800D02*
X39932500Y-54184800D01*
X17656442Y-49813803D02*
X17656442Y-56496439D01*
X20630580Y-53522301D02*
X36204882Y-53522301D01*
X63690934Y-37689652D02*
X61749986Y-39630600D01*
X66838953Y-38728253D02*
X66838953Y-41555640D01*
X66783724Y-35701430D02*
X66783724Y-38673024D01*
X61749986Y-39630600D02*
X40072200Y-39630600D01*
X17796142Y-35259603D02*
X17796142Y-41942239D01*
X20770280Y-38968101D02*
X36344582Y-38968101D01*
X66838953Y-23221553D02*
X66838953Y-26048940D01*
X66783724Y-20194730D02*
X66783724Y-23166324D01*
X17796142Y-19752903D02*
X17796142Y-26435539D01*
X20770280Y-23461401D02*
X36344582Y-23461401D01*
X63690934Y-6663552D02*
X61749986Y-8604500D01*
X66838953Y-7702153D02*
X66838953Y-10529540D01*
X66783724Y-4675330D02*
X66783724Y-7646924D01*
X61749986Y-8604500D02*
X40072200Y-8604500D01*
X17796142Y-4233503D02*
X17796142Y-10916139D01*
X20770280Y-7942001D02*
X36344582Y-7942001D01*
D15*
X62762193Y-22916510D02*
X147240196Y-22916510D01*
X62201023Y-7247080D02*
X62394713Y-7440770D01*
X62394713Y-7440770D02*
X148121488Y-7440770D01*
D18*
X144063224Y-43118230D02*
X144063224Y-46089824D01*
X144118453Y-46145053D02*
X144118453Y-48972440D01*
X95075642Y-42676403D02*
X95075642Y-49359039D01*
X98049780Y-46384901D02*
X113624082Y-46384901D01*
X139029486Y-47047400D02*
X117351700Y-47047400D01*
X140970434Y-45106452D02*
X139029486Y-47047400D01*
X95139142Y-27093503D02*
X95139142Y-33776139D01*
X98113280Y-30802001D02*
X113687582Y-30802001D01*
X141229243Y-33389540D02*
X141220200Y-33380497D01*
X144181953Y-30562153D02*
X144181953Y-33389540D01*
X144126724Y-27535330D02*
X144126724Y-30506924D01*
X141033934Y-29523552D02*
X139092986Y-31464500D01*
X139092986Y-31464500D02*
X117415200Y-31464500D01*
X95958711Y-11186334D02*
X95240742Y-11904303D01*
X98214880Y-15612801D02*
X113789182Y-15612801D01*
X95240742Y-11904303D02*
X95240742Y-18586939D01*
X95240742Y-18586939D02*
X98214880Y-15612801D01*
X113789182Y-15612801D02*
X117516800Y-19340419D01*
X141135534Y-14334352D02*
X139194586Y-16275300D01*
X139194586Y-16275300D02*
X117516800Y-16275300D01*
X144228324Y-12346130D02*
X144228324Y-15317724D01*
X141330843Y-18200340D02*
X141321800Y-18191297D01*
X144228324Y-15317724D02*
X144283553Y-15372953D01*
X144283553Y-15372953D02*
X144283553Y-18200340D01*
X144283553Y-18200340D02*
X141330843Y-18200340D01*
D15*
X148152724Y-53943537D02*
X63091466Y-53943537D01*
X141301000Y-3699000D02*
X146919297Y-3699000D01*
X139405803Y-16275300D02*
X140604162Y-15076941D01*
X140604162Y-15076941D02*
X147586840Y-15076941D01*
M02*
