G04 #@! TF.FileFunction,Legend,Bot*
%FSLAX46Y46*%
G04 Gerber Fmt 4.6, Leading zero omitted, Abs format (unit mm)*
G04 Created by KiCad (PCBNEW 4.0.5) date 05/10/17 18:46:16*
%MOMM*%
%LPD*%
G01*
G04 APERTURE LIST*
%ADD10C,0.100000*%
%ADD11C,0.187500*%
%ADD12C,0.150000*%
G04 APERTURE END LIST*
D10*
D11*
X183962285Y26698714D02*
X184319428Y26698714D01*
X184319428Y27448714D01*
X183712285Y26698714D02*
X183712285Y27198714D01*
X183712285Y27448714D02*
X183747999Y27413000D01*
X183712285Y27377286D01*
X183676570Y27413000D01*
X183712285Y27448714D01*
X183712285Y27377286D01*
X183426570Y27198714D02*
X183033713Y27198714D01*
X183426570Y26698714D01*
X183033713Y26698714D01*
X182426570Y26698714D02*
X182426570Y27091571D01*
X182462284Y27163000D01*
X182533713Y27198714D01*
X182676570Y27198714D01*
X182747999Y27163000D01*
X182426570Y26734429D02*
X182497999Y26698714D01*
X182676570Y26698714D01*
X182747999Y26734429D01*
X182783713Y26805857D01*
X182783713Y26877286D01*
X182747999Y26948714D01*
X182676570Y26984429D01*
X182497999Y26984429D01*
X182426570Y27020143D01*
X181069427Y26770143D02*
X181105141Y26734429D01*
X181212284Y26698714D01*
X181283713Y26698714D01*
X181390856Y26734429D01*
X181462284Y26805857D01*
X181497999Y26877286D01*
X181533713Y27020143D01*
X181533713Y27127286D01*
X181497999Y27270143D01*
X181462284Y27341571D01*
X181390856Y27413000D01*
X181283713Y27448714D01*
X181212284Y27448714D01*
X181105141Y27413000D01*
X181069427Y27377286D01*
X180426570Y26698714D02*
X180426570Y27091571D01*
X180462284Y27163000D01*
X180533713Y27198714D01*
X180676570Y27198714D01*
X180747999Y27163000D01*
X180426570Y26734429D02*
X180497999Y26698714D01*
X180676570Y26698714D01*
X180747999Y26734429D01*
X180783713Y26805857D01*
X180783713Y26877286D01*
X180747999Y26948714D01*
X180676570Y26984429D01*
X180497999Y26984429D01*
X180426570Y27020143D01*
X180176570Y27198714D02*
X179890856Y27198714D01*
X180069428Y27448714D02*
X180069428Y26805857D01*
X180033713Y26734429D01*
X179962285Y26698714D01*
X179890856Y26698714D01*
X179319428Y26698714D02*
X179319428Y27091571D01*
X179355142Y27163000D01*
X179426571Y27198714D01*
X179569428Y27198714D01*
X179640857Y27163000D01*
X179319428Y26734429D02*
X179390857Y26698714D01*
X179569428Y26698714D01*
X179640857Y26734429D01*
X179676571Y26805857D01*
X179676571Y26877286D01*
X179640857Y26948714D01*
X179569428Y26984429D01*
X179390857Y26984429D01*
X179319428Y27020143D01*
X178962286Y26698714D02*
X178962286Y27198714D01*
X178962286Y27127286D02*
X178926571Y27163000D01*
X178855143Y27198714D01*
X178748000Y27198714D01*
X178676571Y27163000D01*
X178640857Y27091571D01*
X178640857Y26698714D01*
X178640857Y27091571D02*
X178605143Y27163000D01*
X178533714Y27198714D01*
X178426571Y27198714D01*
X178355143Y27163000D01*
X178319428Y27091571D01*
X178319428Y26698714D01*
X177962286Y26698714D02*
X177962286Y27448714D01*
X177962286Y27163000D02*
X177890857Y27198714D01*
X177748000Y27198714D01*
X177676571Y27163000D01*
X177640857Y27127286D01*
X177605143Y27055857D01*
X177605143Y26841571D01*
X177640857Y26770143D01*
X177676571Y26734429D01*
X177748000Y26698714D01*
X177890857Y26698714D01*
X177962286Y26734429D01*
X177283715Y26698714D02*
X177283715Y27198714D01*
X177283715Y27448714D02*
X177319429Y27413000D01*
X177283715Y27377286D01*
X177248000Y27413000D01*
X177283715Y27448714D01*
X177283715Y27377286D01*
X176926572Y27198714D02*
X176926572Y26698714D01*
X176926572Y27127286D02*
X176890857Y27163000D01*
X176819429Y27198714D01*
X176712286Y27198714D01*
X176640857Y27163000D01*
X176605143Y27091571D01*
X176605143Y26698714D01*
X175926572Y27198714D02*
X175926572Y26591571D01*
X175962286Y26520143D01*
X175998001Y26484429D01*
X176069429Y26448714D01*
X176176572Y26448714D01*
X176248001Y26484429D01*
X175926572Y26734429D02*
X175998001Y26698714D01*
X176140858Y26698714D01*
X176212286Y26734429D01*
X176248001Y26770143D01*
X176283715Y26841571D01*
X176283715Y27055857D01*
X176248001Y27127286D01*
X176212286Y27163000D01*
X176140858Y27198714D01*
X175998001Y27198714D01*
X175926572Y27163000D01*
X184373000Y29413000D02*
X184015857Y29413000D01*
X184444428Y29198714D02*
X184194428Y29948714D01*
X183944428Y29198714D01*
X183373000Y29698714D02*
X183373000Y29198714D01*
X183694429Y29698714D02*
X183694429Y29305857D01*
X183658714Y29234429D01*
X183587286Y29198714D01*
X183480143Y29198714D01*
X183408714Y29234429D01*
X183373000Y29270143D01*
X183051572Y29234429D02*
X182980143Y29198714D01*
X182837286Y29198714D01*
X182765858Y29234429D01*
X182730143Y29305857D01*
X182730143Y29341571D01*
X182765858Y29413000D01*
X182837286Y29448714D01*
X182944429Y29448714D01*
X183015858Y29484429D01*
X183051572Y29555857D01*
X183051572Y29591571D01*
X183015858Y29663000D01*
X182944429Y29698714D01*
X182837286Y29698714D01*
X182765858Y29663000D01*
X182515857Y29698714D02*
X182230143Y29698714D01*
X182408715Y29948714D02*
X182408715Y29305857D01*
X182373000Y29234429D01*
X182301572Y29198714D01*
X182230143Y29198714D01*
X181980144Y29198714D02*
X181980144Y29698714D01*
X181980144Y29948714D02*
X182015858Y29913000D01*
X181980144Y29877286D01*
X181944429Y29913000D01*
X181980144Y29948714D01*
X181980144Y29877286D01*
X181623001Y29698714D02*
X181623001Y29198714D01*
X181623001Y29627286D02*
X181587286Y29663000D01*
X181515858Y29698714D01*
X181408715Y29698714D01*
X181337286Y29663000D01*
X181301572Y29591571D01*
X181301572Y29198714D01*
X180408715Y29234429D02*
X180301572Y29198714D01*
X180123001Y29198714D01*
X180051572Y29234429D01*
X180015858Y29270143D01*
X179980143Y29341571D01*
X179980143Y29413000D01*
X180015858Y29484429D01*
X180051572Y29520143D01*
X180123001Y29555857D01*
X180265858Y29591571D01*
X180337286Y29627286D01*
X180373001Y29663000D01*
X180408715Y29734429D01*
X180408715Y29805857D01*
X180373001Y29877286D01*
X180337286Y29913000D01*
X180265858Y29948714D01*
X180087286Y29948714D01*
X179980143Y29913000D01*
X179658715Y29198714D02*
X179658715Y29948714D01*
X179337286Y29198714D02*
X179337286Y29591571D01*
X179373000Y29663000D01*
X179444429Y29698714D01*
X179551572Y29698714D01*
X179623000Y29663000D01*
X179658715Y29627286D01*
X178980144Y29198714D02*
X178980144Y29698714D01*
X178980144Y29948714D02*
X179015858Y29913000D01*
X178980144Y29877286D01*
X178944429Y29913000D01*
X178980144Y29948714D01*
X178980144Y29877286D01*
X178623001Y29198714D02*
X178623001Y29698714D01*
X178623001Y29555857D02*
X178587286Y29627286D01*
X178551572Y29663000D01*
X178480143Y29698714D01*
X178408715Y29698714D01*
X178051572Y29198714D02*
X178123000Y29234429D01*
X178158715Y29305857D01*
X178158715Y29948714D01*
X177480143Y29234429D02*
X177551572Y29198714D01*
X177694429Y29198714D01*
X177765858Y29234429D01*
X177801572Y29305857D01*
X177801572Y29591571D01*
X177765858Y29663000D01*
X177694429Y29698714D01*
X177551572Y29698714D01*
X177480143Y29663000D01*
X177444429Y29591571D01*
X177444429Y29520143D01*
X177801572Y29448714D01*
X177194429Y29698714D02*
X177015858Y29198714D01*
X176837286Y29698714D02*
X177015858Y29198714D01*
X177087286Y29020143D01*
X177123001Y28984429D01*
X177194429Y28948714D01*
D12*
X192623000Y24538000D02*
X192623000Y142038000D01*
X6623000Y24538000D02*
X192623000Y24538000D01*
X6623000Y142038000D02*
X6623000Y24538000D01*
X192623000Y142038000D02*
X6623000Y142038000D01*
M02*
