G04 #@! TF.FileFunction,Soldermask,Top*
%FSLAX46Y46*%
G04 Gerber Fmt 4.6, Leading zero omitted, Abs format (unit mm)*
G04 Created by KiCad (PCBNEW 4.0.5) date 05/10/17 18:46:16*
%MOMM*%
%LPD*%
G01*
G04 APERTURE LIST*
%ADD10C,0.100000*%
%ADD11C,1.500000*%
%ADD12C,0.150000*%
%ADD13C,5.400000*%
%ADD14R,2.940000X2.940000*%
%ADD15C,2.940000*%
%ADD16C,3.600000*%
%ADD17O,1.924000X1.924000*%
%ADD18R,1.950000X1.000000*%
%ADD19R,1.000000X1.950000*%
%ADD20R,2.525980X2.525980*%
%ADD21C,3.200000*%
%ADD22R,1.700000X1.900000*%
%ADD23R,1.900000X1.700000*%
%ADD24R,2.900000X1.400000*%
%ADD25R,1.400000X2.900000*%
%ADD26R,1.300000X1.600000*%
%ADD27C,2.900000*%
%ADD28R,1.900000X1.650000*%
%ADD29R,2.100000X2.100000*%
%ADD30O,2.100000X2.100000*%
%ADD31R,2.900000X4.400000*%
%ADD32R,1.100000X1.700000*%
%ADD33C,3.150000*%
%ADD34R,1.650000X1.400000*%
%ADD35C,1.085800*%
G04 APERTURE END LIST*
D10*
D11*
X39623000Y68538000D02*
X13623000Y68538000D01*
X13623000Y76538000D02*
X31623000Y76538000D01*
X13623000Y68538000D02*
X13623000Y76538000D01*
X42623000Y64538000D02*
X54623000Y69538000D01*
X42623000Y64538000D02*
X54623000Y64538000D01*
X54623000Y69538000D02*
X42623000Y69538000D01*
X54623000Y78538000D02*
X54623000Y64538000D01*
X42623000Y78538000D02*
X42623000Y64538000D01*
X43623000Y78538000D02*
X42623000Y78538000D01*
X20623000Y68538000D02*
X15623000Y76538000D01*
X26623000Y76538000D02*
X20623000Y68538000D01*
X31623000Y68538000D02*
X26623000Y76538000D01*
X39623000Y78538000D02*
X31623000Y68538000D01*
X33623000Y78538000D02*
X39623000Y78538000D01*
X31623000Y76538000D02*
X33623000Y78538000D01*
X39623000Y78538000D02*
X39623000Y68538000D01*
X46623000Y78538000D02*
X43623000Y78538000D01*
X50623000Y78538000D02*
X54623000Y78538000D01*
X186623000Y54538000D02*
X189623000Y61538000D01*
X186623000Y54538000D02*
X174623000Y54538000D01*
X186623000Y57538000D02*
X186623000Y54538000D01*
X186623000Y61538000D02*
X186623000Y57538000D01*
X189623000Y61538000D02*
X186623000Y61538000D01*
X189623000Y54538000D02*
X189623000Y61538000D01*
X184623000Y73538000D02*
X189623000Y67538000D01*
X177623000Y68538000D02*
X184623000Y73538000D01*
X177623000Y67538000D02*
X177623000Y68538000D01*
X189623000Y67538000D02*
X177623000Y67538000D01*
X189623000Y73538000D02*
X189623000Y67538000D01*
X180623000Y73538000D02*
X189623000Y73538000D01*
X178623000Y75538000D02*
X180623000Y73538000D01*
X177623000Y68538000D02*
X178623000Y75538000D01*
X168623000Y77538000D02*
X171623000Y71538000D01*
X162623000Y64538000D02*
X168623000Y77538000D01*
X156623000Y77538000D02*
X162623000Y64538000D01*
X149623000Y64538000D02*
X156623000Y77538000D01*
X143623000Y77538000D02*
X149623000Y64538000D01*
X137623000Y64538000D02*
X143623000Y77538000D01*
X132623000Y77538000D02*
X137623000Y64538000D01*
X126623000Y64538000D02*
X132623000Y77538000D01*
X120623000Y77538000D02*
X126623000Y64538000D01*
X114623000Y64538000D02*
X120623000Y77538000D01*
X108623000Y77538000D02*
X114623000Y64538000D01*
X102623000Y64538000D02*
X108623000Y77538000D01*
X96623000Y77538000D02*
X102623000Y64538000D01*
X90623000Y64538000D02*
X96623000Y77538000D01*
X84623000Y77538000D02*
X90623000Y64538000D01*
X78623000Y64538000D02*
X84623000Y77538000D01*
X72623000Y77538000D02*
X78623000Y64538000D01*
X65623000Y64538000D02*
X72623000Y77538000D01*
X57623000Y77538000D02*
X65623000Y64538000D01*
X165623000Y77538000D02*
X57623000Y77538000D01*
X174623000Y79538000D02*
X165623000Y77538000D01*
X169623000Y64538000D02*
X174623000Y79538000D01*
X57623000Y64538000D02*
X169623000Y64538000D01*
X57623000Y77538000D02*
X57623000Y64538000D01*
X186623000Y36538000D02*
X180623000Y27538000D01*
X180623000Y45538000D02*
X189623000Y45538000D01*
X180623000Y45538000D02*
X186623000Y54538000D01*
X180623000Y45538000D02*
X174623000Y54538000D01*
X180623000Y45538000D02*
X186623000Y36538000D01*
X180623000Y45538000D02*
X174623000Y36538000D01*
X174623000Y36538000D02*
X189623000Y36538000D01*
X174623000Y36538000D02*
X180623000Y27538000D01*
X169623000Y27538000D02*
X174623000Y36538000D01*
X163623000Y36538000D02*
X169623000Y27538000D01*
X158623000Y27538000D02*
X163623000Y36538000D01*
X153623000Y36538000D02*
X158623000Y27538000D01*
X148623000Y27538000D02*
X153623000Y36538000D01*
X143623000Y36538000D02*
X148623000Y27538000D01*
X138623000Y27538000D02*
X143623000Y36538000D01*
X133623000Y36538000D02*
X138623000Y27538000D01*
X128623000Y27538000D02*
X133623000Y36538000D01*
X122623000Y36538000D02*
X127623000Y27538000D01*
X116623000Y27538000D02*
X121623000Y36538000D01*
X112623000Y36538000D02*
X116623000Y27538000D01*
X107623000Y27538000D02*
X112623000Y36538000D01*
X102623000Y36538000D02*
X107623000Y27538000D01*
X97623000Y27538000D02*
X102623000Y36538000D01*
X92623000Y36538000D02*
X97623000Y27538000D01*
X87623000Y27538000D02*
X92623000Y36538000D01*
X82623000Y36538000D02*
X87623000Y27538000D01*
X77623000Y27538000D02*
X82623000Y36538000D01*
X72623000Y36538000D02*
X77623000Y27538000D01*
X67623000Y27538000D02*
X72623000Y36538000D01*
X62623000Y36538000D02*
X67623000Y27538000D01*
X57623000Y27538000D02*
X62623000Y36538000D01*
X52623000Y36538000D02*
X57623000Y27538000D01*
X47623000Y27538000D02*
X52623000Y36538000D01*
X42623000Y36538000D02*
X47623000Y27538000D01*
X37623000Y27538000D02*
X42623000Y36538000D01*
X33623000Y33538000D02*
X37623000Y27538000D01*
X28623000Y27538000D02*
X33623000Y33538000D01*
X24623000Y33538000D02*
X28623000Y27538000D01*
X19623000Y27538000D02*
X24623000Y33538000D01*
X13623000Y33538000D02*
X19623000Y27538000D01*
X38623000Y33538000D02*
X13623000Y33538000D01*
X38623000Y36538000D02*
X38623000Y33538000D01*
X174623000Y36538000D02*
X38623000Y36538000D01*
X174623000Y54538000D02*
X174623000Y36538000D01*
X189623000Y27538000D02*
X189623000Y54538000D01*
X13623000Y27538000D02*
X189623000Y27538000D01*
X13623000Y27538000D02*
X13623000Y33538000D01*
D12*
X192623000Y24538000D02*
X192623000Y142038000D01*
X6623000Y24538000D02*
X192623000Y24538000D01*
X6623000Y142038000D02*
X6623000Y24538000D01*
X192623000Y142038000D02*
X6623000Y142038000D01*
D13*
X60623000Y71538000D03*
D14*
X135623000Y95998000D03*
D15*
X135623000Y101078000D03*
D14*
X86623000Y95998000D03*
D15*
X86623000Y101078000D03*
D16*
X10123000Y70538000D03*
X189123000Y70538000D03*
D17*
X54668000Y105138000D03*
X39428000Y105138000D03*
X54668000Y110218000D03*
X54668000Y112758000D03*
X54668000Y107678000D03*
X39428000Y107678000D03*
X39428000Y110218000D03*
X54668000Y120378000D03*
X39428000Y112758000D03*
X54668000Y117838000D03*
X39428000Y115298000D03*
X54668000Y122918000D03*
X52123000Y127998000D03*
X54668000Y115298000D03*
X52123000Y130538000D03*
X54668000Y133078000D03*
X39428000Y120378000D03*
X52123000Y125458000D03*
X54668000Y138158000D03*
X54668000Y135618000D03*
X39428000Y122918000D03*
X39428000Y125458000D03*
X39428000Y138158000D03*
X39428000Y127998000D03*
X39428000Y117838000D03*
X39428000Y130538000D03*
X39428000Y133078000D03*
X39428000Y135618000D03*
X54668000Y127998000D03*
X54668000Y125458000D03*
X54668000Y130538000D03*
D18*
X178843000Y81953000D03*
X178843000Y80683000D03*
X178843000Y79413000D03*
X178843000Y78143000D03*
X184243000Y78143000D03*
X184243000Y79413000D03*
X184243000Y80683000D03*
X184243000Y81953000D03*
D19*
X46713000Y81538000D03*
X47983000Y81538000D03*
X49253000Y81538000D03*
X50523000Y81538000D03*
X50523000Y86938000D03*
X49253000Y86938000D03*
X47983000Y86938000D03*
X46713000Y86938000D03*
D20*
X186583560Y94001500D03*
X186583560Y98865600D03*
X182382400Y94001500D03*
X182382400Y98865600D03*
X178183780Y94001500D03*
X178183780Y98865600D03*
X173982620Y94001500D03*
X173982620Y98865600D03*
X169784000Y94001500D03*
X169784000Y98865600D03*
X165582840Y94001500D03*
X165582840Y98865600D03*
X161384220Y94001500D03*
X161384220Y98865600D03*
X157183060Y94001500D03*
X157183060Y98865600D03*
X152984440Y94001500D03*
X152984440Y98865600D03*
X148783280Y94001500D03*
X148788360Y98865600D03*
D21*
X113632847Y57136163D03*
X117432847Y57136163D03*
X113632847Y44636163D03*
X117432847Y44636163D03*
X128632847Y57136163D03*
X132432847Y57136163D03*
X128632847Y44636163D03*
X132432847Y44636163D03*
X48862847Y57136163D03*
X52662847Y57136163D03*
X48862847Y44636163D03*
X52662847Y44636163D03*
X63862847Y57136163D03*
X67662847Y57136163D03*
X63862847Y44636163D03*
X67662847Y44636163D03*
X80602847Y57136163D03*
X84402847Y57136163D03*
X80602847Y44636163D03*
X84402847Y44636163D03*
X95602847Y57136163D03*
X99402847Y57136163D03*
X95602847Y44636163D03*
X99402847Y44636163D03*
X145382847Y57136163D03*
X149182847Y57136163D03*
X145382847Y44636163D03*
X149182847Y44636163D03*
X160382847Y57136163D03*
X164182847Y57136163D03*
X160382847Y44636163D03*
X164182847Y44636163D03*
X18332847Y41066163D03*
X18332847Y44866163D03*
X30832847Y41066163D03*
X30832847Y44866163D03*
X18332847Y56066163D03*
X18332847Y59866163D03*
X30832847Y56066163D03*
X30832847Y59866163D03*
D22*
X45123000Y92388000D03*
X45123000Y89688000D03*
D23*
X45273000Y96538000D03*
X47973000Y96538000D03*
D22*
X187123000Y86388000D03*
X187123000Y83688000D03*
D23*
X182973000Y88538000D03*
X180273000Y88538000D03*
X27744000Y127538000D03*
X25044000Y127538000D03*
X27744000Y124038000D03*
X25044000Y124038000D03*
X27744000Y120538000D03*
X25044000Y120538000D03*
X27744000Y117038000D03*
X25044000Y117038000D03*
X27744000Y113538000D03*
X25044000Y113538000D03*
X27744000Y110038000D03*
X25044000Y110038000D03*
X27744000Y106538000D03*
X25044000Y106538000D03*
X27744000Y102538000D03*
X25044000Y102538000D03*
X27744000Y98538000D03*
X25044000Y98538000D03*
X27744000Y94538000D03*
X25044000Y94538000D03*
X27744000Y90538000D03*
X25044000Y90538000D03*
X27744000Y86538000D03*
X25044000Y86538000D03*
X27744000Y82538000D03*
X25044000Y82538000D03*
X27744000Y137869500D03*
X25044000Y137869500D03*
X27744000Y134538000D03*
X25044000Y134538000D03*
X27744000Y131038000D03*
X25044000Y131038000D03*
D24*
X49123000Y90038000D03*
X49123000Y93038000D03*
D25*
X41123000Y98038000D03*
X38123000Y98038000D03*
X55623000Y93038000D03*
X52623000Y93038000D03*
D26*
X55773000Y97038000D03*
X52473000Y97038000D03*
X179973000Y85538000D03*
X183273000Y85538000D03*
D14*
X176427000Y62077000D03*
D15*
X181507000Y62077000D03*
D14*
X86599000Y111532200D03*
D15*
X86599000Y116612200D03*
D14*
X135823000Y127498000D03*
D15*
X135823000Y132578000D03*
D14*
X120623000Y95876867D03*
D15*
X120623000Y100956867D03*
D14*
X70123000Y127498000D03*
D15*
X70123000Y132578000D03*
D14*
X70139800Y111506800D03*
D15*
X70139800Y116586800D03*
D14*
X120623000Y127498000D03*
D15*
X120623000Y132578000D03*
D14*
X103123000Y95998000D03*
D15*
X103123000Y101078000D03*
D14*
X86623000Y127498000D03*
D15*
X86623000Y132578000D03*
D14*
X103123000Y127498000D03*
D15*
X103123000Y132578000D03*
D27*
X14123000Y95538000D03*
X14123000Y92038000D03*
X14123000Y88538000D03*
X14123000Y85038000D03*
X14123000Y106038000D03*
X14123000Y109538000D03*
X14123000Y113038000D03*
X14123000Y116538000D03*
X14123000Y120038000D03*
X14123000Y123538000D03*
X14123000Y127038000D03*
X14123000Y130538000D03*
X14123000Y134038000D03*
D19*
X41528000Y93738000D03*
X40258000Y93738000D03*
X38988000Y93738000D03*
X37718000Y93738000D03*
X37718000Y88338000D03*
X38988000Y88338000D03*
X40258000Y88338000D03*
X41528000Y88338000D03*
D24*
X176123000Y85538000D03*
X176123000Y88538000D03*
D28*
X57373000Y85038000D03*
X59873000Y85038000D03*
D23*
X57273000Y88038000D03*
X59973000Y88038000D03*
X47283000Y74168000D03*
X49983000Y74168000D03*
D14*
X70123000Y95998000D03*
D15*
X70123000Y101078000D03*
D16*
X189123000Y138538000D03*
X189123000Y28038000D03*
X10123000Y28038000D03*
X10123000Y138538000D03*
D29*
X36003000Y122918000D03*
D30*
X36003000Y120378000D03*
X36003000Y117838000D03*
X36003000Y115298000D03*
X36003000Y112758000D03*
X36003000Y110218000D03*
X36003000Y107678000D03*
X36003000Y105138000D03*
D25*
X185623000Y119538000D03*
X188623000Y119538000D03*
X185623000Y126538000D03*
X188623000Y126538000D03*
X185623000Y116038000D03*
X188623000Y116038000D03*
X185623000Y123038000D03*
X188623000Y123038000D03*
D31*
X134123000Y118038000D03*
X134123000Y110038000D03*
D14*
X103123000Y111498000D03*
D15*
X103123000Y116578000D03*
D14*
X120623000Y111498000D03*
D15*
X120623000Y116578000D03*
D32*
X162673000Y137538000D03*
X164573000Y137538000D03*
D33*
X182123000Y114038000D03*
X147198000Y114038000D03*
X147198000Y133088000D03*
X182123000Y133088000D03*
X163073000Y133088000D03*
X166248000Y133088000D03*
X169423000Y133088000D03*
D34*
X187123000Y79538000D03*
X187123000Y77538000D03*
D13*
X36623000Y71538000D03*
D35*
X36923000Y98138000D03*
X184923000Y83738000D03*
X54423000Y87538000D03*
X36023000Y90138000D03*
X36023000Y91238000D03*
X29223000Y131038000D03*
X29305509Y134490647D03*
X31656383Y134738000D03*
X30175656Y117038000D03*
X29613756Y113538000D03*
X29494285Y110038000D03*
X29386909Y106538000D03*
X29323000Y102538000D03*
X37796189Y85910169D03*
X45623000Y74538000D03*
X55123000Y85038000D03*
X51623000Y74538000D03*
M02*
