G04 #@! TF.FileFunction,Paste,Top*
%FSLAX46Y46*%
G04 Gerber Fmt 4.6, Leading zero omitted, Abs format (unit mm)*
G04 Created by KiCad (PCBNEW 4.0.4-stable) date 05/08/17 18:11:55*
%MOMM*%
%LPD*%
G01*
G04 APERTURE LIST*
%ADD10C,0.100000*%
%ADD11C,0.150000*%
%ADD12R,1.550000X0.600000*%
%ADD13R,0.600000X1.550000*%
%ADD14R,1.300000X1.500000*%
%ADD15R,1.500000X1.300000*%
%ADD16R,2.500000X1.000000*%
%ADD17R,1.000000X2.500000*%
%ADD18R,0.900000X1.200000*%
%ADD19R,1.500000X1.250000*%
%ADD20R,2.500000X4.000000*%
%ADD21R,0.700000X1.300000*%
%ADD22R,1.250000X1.000000*%
G04 APERTURE END LIST*
D10*
D11*
X192623000Y24538000D02*
X192623000Y142038000D01*
X6623000Y24538000D02*
X192623000Y24538000D01*
X6623000Y142038000D02*
X6623000Y24538000D01*
X192623000Y142038000D02*
X6623000Y142038000D01*
X15623000Y102538000D02*
X6123000Y102538000D01*
X15623000Y137538000D02*
X6123000Y137538000D01*
X15623000Y102538000D02*
X15623000Y137538000D01*
X6123000Y102538000D02*
X6123000Y137538000D01*
D12*
X178843000Y81953000D03*
X178843000Y80683000D03*
X178843000Y79413000D03*
X178843000Y78143000D03*
X184243000Y78143000D03*
X184243000Y79413000D03*
X184243000Y80683000D03*
X184243000Y81953000D03*
D13*
X46713000Y81538000D03*
X47983000Y81538000D03*
X49253000Y81538000D03*
X50523000Y81538000D03*
X50523000Y86938000D03*
X49253000Y86938000D03*
X47983000Y86938000D03*
X46713000Y86938000D03*
D14*
X45123000Y92388000D03*
X45123000Y89688000D03*
D15*
X45273000Y96538000D03*
X47973000Y96538000D03*
D14*
X187123000Y86388000D03*
X187123000Y83688000D03*
D15*
X182973000Y88538000D03*
X180273000Y88538000D03*
X27744000Y127538000D03*
X25044000Y127538000D03*
X27744000Y124038000D03*
X25044000Y124038000D03*
X27744000Y120538000D03*
X25044000Y120538000D03*
X27744000Y117038000D03*
X25044000Y117038000D03*
X27744000Y113538000D03*
X25044000Y113538000D03*
X27744000Y110038000D03*
X25044000Y110038000D03*
X27744000Y106538000D03*
X25044000Y106538000D03*
X27744000Y102538000D03*
X25044000Y102538000D03*
X27744000Y98538000D03*
X25044000Y98538000D03*
X27744000Y94538000D03*
X25044000Y94538000D03*
X27744000Y90538000D03*
X25044000Y90538000D03*
X27744000Y86538000D03*
X25044000Y86538000D03*
X27744000Y82538000D03*
X25044000Y82538000D03*
X27744000Y137869500D03*
X25044000Y137869500D03*
X27744000Y134538000D03*
X25044000Y134538000D03*
X27744000Y131038000D03*
X25044000Y131038000D03*
D16*
X49123000Y90038000D03*
X49123000Y93038000D03*
D17*
X41123000Y98038000D03*
X38123000Y98038000D03*
X55623000Y93038000D03*
X52623000Y93038000D03*
D18*
X55773000Y97038000D03*
X52473000Y97038000D03*
X179973000Y85538000D03*
X183273000Y85538000D03*
D13*
X41528000Y93738000D03*
X40258000Y93738000D03*
X38988000Y93738000D03*
X37718000Y93738000D03*
X37718000Y88338000D03*
X38988000Y88338000D03*
X40258000Y88338000D03*
X41528000Y88338000D03*
D16*
X176123000Y85538000D03*
X176123000Y88538000D03*
D19*
X57373000Y85038000D03*
X59873000Y85038000D03*
D15*
X57273000Y88038000D03*
X59973000Y88038000D03*
X47283000Y74168000D03*
X49983000Y74168000D03*
D17*
X185623000Y119538000D03*
X188623000Y119538000D03*
X185623000Y126538000D03*
X188623000Y126538000D03*
X185623000Y116038000D03*
X188623000Y116038000D03*
X185623000Y123038000D03*
X188623000Y123038000D03*
D20*
X134123000Y118038000D03*
X134123000Y110038000D03*
D21*
X162673000Y137538000D03*
X164573000Y137538000D03*
D22*
X187123000Y79538000D03*
X187123000Y77538000D03*
M02*
