G04 #@! TF.FileFunction,Legend,Top*
%FSLAX46Y46*%
G04 Gerber Fmt 4.6, Leading zero omitted, Abs format (unit mm)*
G04 Created by KiCad (PCBNEW 4.0.5) date 05/10/17 18:46:16*
%MOMM*%
%LPD*%
G01*
G04 APERTURE LIST*
%ADD10C,0.100000*%
%ADD11C,0.254000*%
%ADD12C,0.187500*%
%ADD13C,0.300000*%
%ADD14C,0.250000*%
%ADD15C,0.500000*%
%ADD16C,0.150000*%
%ADD17C,0.120000*%
%ADD18C,0.010000*%
G04 APERTURE END LIST*
D10*
D11*
X122623000Y123538000D02*
X126123000Y123538000D01*
X118123000Y123538000D02*
X121623000Y123538000D01*
X113623000Y123538000D02*
X117123000Y123538000D01*
X109123000Y123538000D02*
X112623000Y123538000D01*
X104623000Y123538000D02*
X108123000Y123538000D01*
X100123000Y123538000D02*
X103623000Y123538000D01*
X95623000Y123538000D02*
X99123000Y123538000D01*
D12*
X150265857Y133569250D02*
X150623000Y133569250D01*
X150194429Y133354964D02*
X150444429Y134104964D01*
X150694429Y133354964D01*
X151265857Y133854964D02*
X151265857Y133354964D01*
X150944428Y133854964D02*
X150944428Y133462107D01*
X150980143Y133390679D01*
X151051571Y133354964D01*
X151158714Y133354964D01*
X151230143Y133390679D01*
X151265857Y133426393D01*
X151551571Y133354964D02*
X151944428Y133854964D01*
X151551571Y133854964D02*
X151944428Y133354964D01*
X152230142Y133354964D02*
X152230142Y133854964D01*
X152230142Y134104964D02*
X152194428Y134069250D01*
X152230142Y134033536D01*
X152265857Y134069250D01*
X152230142Y134104964D01*
X152230142Y134033536D01*
X152694428Y133354964D02*
X152623000Y133390679D01*
X152587285Y133462107D01*
X152587285Y134104964D01*
X153087285Y133354964D02*
X153015857Y133390679D01*
X152980142Y133462107D01*
X152980142Y134104964D01*
X153694428Y133354964D02*
X153694428Y133747821D01*
X153658714Y133819250D01*
X153587285Y133854964D01*
X153444428Y133854964D01*
X153372999Y133819250D01*
X153694428Y133390679D02*
X153622999Y133354964D01*
X153444428Y133354964D01*
X153372999Y133390679D01*
X153337285Y133462107D01*
X153337285Y133533536D01*
X153372999Y133604964D01*
X153444428Y133640679D01*
X153622999Y133640679D01*
X153694428Y133676393D01*
X154051570Y133354964D02*
X154051570Y133854964D01*
X154051570Y133712107D02*
X154087285Y133783536D01*
X154122999Y133819250D01*
X154194428Y133854964D01*
X154265856Y133854964D01*
X154444428Y133854964D02*
X154622999Y133354964D01*
X154801571Y133854964D02*
X154622999Y133354964D01*
X154551571Y133176393D01*
X154515856Y133140679D01*
X154444428Y133104964D01*
X156087286Y133354964D02*
X155837286Y133712107D01*
X155658714Y133354964D02*
X155658714Y134104964D01*
X155944429Y134104964D01*
X156015857Y134069250D01*
X156051572Y134033536D01*
X156087286Y133962107D01*
X156087286Y133854964D01*
X156051572Y133783536D01*
X156015857Y133747821D01*
X155944429Y133712107D01*
X155658714Y133712107D01*
X156694429Y133390679D02*
X156623000Y133354964D01*
X156480143Y133354964D01*
X156408714Y133390679D01*
X156373000Y133462107D01*
X156373000Y133747821D01*
X156408714Y133819250D01*
X156480143Y133854964D01*
X156623000Y133854964D01*
X156694429Y133819250D01*
X156730143Y133747821D01*
X156730143Y133676393D01*
X156373000Y133604964D01*
X157373000Y133854964D02*
X157373000Y133247821D01*
X157337286Y133176393D01*
X157301571Y133140679D01*
X157230143Y133104964D01*
X157123000Y133104964D01*
X157051571Y133140679D01*
X157373000Y133390679D02*
X157301571Y133354964D01*
X157158714Y133354964D01*
X157087286Y133390679D01*
X157051571Y133426393D01*
X157015857Y133497821D01*
X157015857Y133712107D01*
X157051571Y133783536D01*
X157087286Y133819250D01*
X157158714Y133854964D01*
X157301571Y133854964D01*
X157373000Y133819250D01*
X158051571Y133854964D02*
X158051571Y133354964D01*
X157730142Y133854964D02*
X157730142Y133462107D01*
X157765857Y133390679D01*
X157837285Y133354964D01*
X157944428Y133354964D01*
X158015857Y133390679D01*
X158051571Y133426393D01*
X158515856Y133354964D02*
X158444428Y133390679D01*
X158408713Y133462107D01*
X158408713Y134104964D01*
X159122999Y133354964D02*
X159122999Y133747821D01*
X159087285Y133819250D01*
X159015856Y133854964D01*
X158872999Y133854964D01*
X158801570Y133819250D01*
X159122999Y133390679D02*
X159051570Y133354964D01*
X158872999Y133354964D01*
X158801570Y133390679D01*
X158765856Y133462107D01*
X158765856Y133533536D01*
X158801570Y133604964D01*
X158872999Y133640679D01*
X159051570Y133640679D01*
X159122999Y133676393D01*
X159372999Y133854964D02*
X159658713Y133854964D01*
X159480141Y134104964D02*
X159480141Y133462107D01*
X159515856Y133390679D01*
X159587284Y133354964D01*
X159658713Y133354964D01*
X160015855Y133354964D02*
X159944427Y133390679D01*
X159908712Y133426393D01*
X159872998Y133497821D01*
X159872998Y133712107D01*
X159908712Y133783536D01*
X159944427Y133819250D01*
X160015855Y133854964D01*
X160122998Y133854964D01*
X160194427Y133819250D01*
X160230141Y133783536D01*
X160265855Y133712107D01*
X160265855Y133497821D01*
X160230141Y133426393D01*
X160194427Y133390679D01*
X160122998Y133354964D01*
X160015855Y133354964D01*
X160587283Y133354964D02*
X160587283Y133854964D01*
X160587283Y133712107D02*
X160622998Y133783536D01*
X160658712Y133819250D01*
X160730141Y133854964D01*
X160801569Y133854964D01*
X150301571Y132042464D02*
X150301571Y132792464D01*
X150587286Y132792464D01*
X150658714Y132756750D01*
X150694429Y132721036D01*
X150730143Y132649607D01*
X150730143Y132542464D01*
X150694429Y132471036D01*
X150658714Y132435321D01*
X150587286Y132399607D01*
X150301571Y132399607D01*
X150944429Y132792464D02*
X151373000Y132792464D01*
X151158714Y132042464D02*
X151158714Y132792464D01*
X151623000Y132042464D02*
X151623000Y132792464D01*
X152051572Y132042464D01*
X152051572Y132792464D01*
X152337286Y132792464D02*
X152837286Y132792464D01*
X152515857Y132042464D01*
X153230143Y132471036D02*
X153158715Y132506750D01*
X153123000Y132542464D01*
X153087286Y132613893D01*
X153087286Y132649607D01*
X153123000Y132721036D01*
X153158715Y132756750D01*
X153230143Y132792464D01*
X153373000Y132792464D01*
X153444429Y132756750D01*
X153480143Y132721036D01*
X153515858Y132649607D01*
X153515858Y132613893D01*
X153480143Y132542464D01*
X153444429Y132506750D01*
X153373000Y132471036D01*
X153230143Y132471036D01*
X153158715Y132435321D01*
X153123000Y132399607D01*
X153087286Y132328179D01*
X153087286Y132185321D01*
X153123000Y132113893D01*
X153158715Y132078179D01*
X153230143Y132042464D01*
X153373000Y132042464D01*
X153444429Y132078179D01*
X153480143Y132113893D01*
X153515858Y132185321D01*
X153515858Y132328179D01*
X153480143Y132399607D01*
X153444429Y132435321D01*
X153373000Y132471036D01*
X153980144Y132792464D02*
X154051572Y132792464D01*
X154123001Y132756750D01*
X154158715Y132721036D01*
X154194429Y132649607D01*
X154230144Y132506750D01*
X154230144Y132328179D01*
X154194429Y132185321D01*
X154158715Y132113893D01*
X154123001Y132078179D01*
X154051572Y132042464D01*
X153980144Y132042464D01*
X153908715Y132078179D01*
X153873001Y132113893D01*
X153837286Y132185321D01*
X153801572Y132328179D01*
X153801572Y132506750D01*
X153837286Y132649607D01*
X153873001Y132721036D01*
X153908715Y132756750D01*
X153980144Y132792464D01*
X154515858Y132721036D02*
X154551572Y132756750D01*
X154623001Y132792464D01*
X154801572Y132792464D01*
X154873001Y132756750D01*
X154908715Y132721036D01*
X154944430Y132649607D01*
X154944430Y132578179D01*
X154908715Y132471036D01*
X154480144Y132042464D01*
X154944430Y132042464D01*
X155408716Y132792464D02*
X155480144Y132792464D01*
X155551573Y132756750D01*
X155587287Y132721036D01*
X155623001Y132649607D01*
X155658716Y132506750D01*
X155658716Y132328179D01*
X155623001Y132185321D01*
X155587287Y132113893D01*
X155551573Y132078179D01*
X155480144Y132042464D01*
X155408716Y132042464D01*
X155337287Y132078179D01*
X155301573Y132113893D01*
X155265858Y132185321D01*
X155230144Y132328179D01*
X155230144Y132506750D01*
X155265858Y132649607D01*
X155301573Y132721036D01*
X155337287Y132756750D01*
X155408716Y132792464D01*
X155980144Y132042464D02*
X155980144Y132792464D01*
X155980144Y132435321D02*
X156408716Y132435321D01*
X156408716Y132042464D02*
X156408716Y132792464D01*
D11*
X94623000Y96038000D02*
X94623000Y92538000D01*
X94623000Y100538000D02*
X94623000Y97038000D01*
X94623000Y105038000D02*
X94623000Y101538000D01*
X94623000Y109538000D02*
X94623000Y106038000D01*
X94623000Y114038000D02*
X94623000Y110538000D01*
X94623000Y118538000D02*
X94623000Y115038000D01*
X94623000Y123038000D02*
X94623000Y119538000D01*
X94623000Y127538000D02*
X94623000Y124038000D01*
X94623000Y132038000D02*
X94623000Y128538000D01*
X94623000Y136538000D02*
X94623000Y133038000D01*
X142623000Y136038000D02*
X141123000Y136038000D01*
X142623000Y133538000D02*
X142623000Y136038000D01*
X142623000Y129538000D02*
X142623000Y132538000D01*
X142623000Y126038000D02*
X142623000Y128538000D01*
X142623000Y124038000D02*
X142623000Y125038000D01*
X139623000Y124038000D02*
X142623000Y124038000D01*
D13*
X67051572Y105430857D02*
X68194429Y105430857D01*
X67623000Y104859429D02*
X67623000Y106002286D01*
X69623001Y106359429D02*
X68908715Y106359429D01*
X68837286Y105645143D01*
X68908715Y105716571D01*
X69051572Y105788000D01*
X69408715Y105788000D01*
X69551572Y105716571D01*
X69623001Y105645143D01*
X69694429Y105502286D01*
X69694429Y105145143D01*
X69623001Y105002286D01*
X69551572Y104930857D01*
X69408715Y104859429D01*
X69051572Y104859429D01*
X68908715Y104930857D01*
X68837286Y105002286D01*
X70194429Y105859429D02*
X70551572Y104859429D01*
X70908714Y105859429D01*
X71765857Y106359429D02*
X71908714Y106359429D01*
X72051571Y106288000D01*
X72123000Y106216571D01*
X72194429Y106073714D01*
X72265857Y105788000D01*
X72265857Y105430857D01*
X72194429Y105145143D01*
X72123000Y105002286D01*
X72051571Y104930857D01*
X71908714Y104859429D01*
X71765857Y104859429D01*
X71623000Y104930857D01*
X71551571Y105002286D01*
X71480143Y105145143D01*
X71408714Y105430857D01*
X71408714Y105788000D01*
X71480143Y106073714D01*
X71551571Y106216571D01*
X71623000Y106288000D01*
X71765857Y106359429D01*
X83551572Y105430857D02*
X84694429Y105430857D01*
X84123000Y104859429D02*
X84123000Y106002286D01*
X86123001Y106359429D02*
X85408715Y106359429D01*
X85337286Y105645143D01*
X85408715Y105716571D01*
X85551572Y105788000D01*
X85908715Y105788000D01*
X86051572Y105716571D01*
X86123001Y105645143D01*
X86194429Y105502286D01*
X86194429Y105145143D01*
X86123001Y105002286D01*
X86051572Y104930857D01*
X85908715Y104859429D01*
X85551572Y104859429D01*
X85408715Y104930857D01*
X85337286Y105002286D01*
X86694429Y105859429D02*
X87051572Y104859429D01*
X87408714Y105859429D01*
X88265857Y106359429D02*
X88408714Y106359429D01*
X88551571Y106288000D01*
X88623000Y106216571D01*
X88694429Y106073714D01*
X88765857Y105788000D01*
X88765857Y105430857D01*
X88694429Y105145143D01*
X88623000Y105002286D01*
X88551571Y104930857D01*
X88408714Y104859429D01*
X88265857Y104859429D01*
X88123000Y104930857D01*
X88051571Y105002286D01*
X87980143Y105145143D01*
X87908714Y105430857D01*
X87908714Y105788000D01*
X87980143Y106073714D01*
X88051571Y106216571D01*
X88123000Y106288000D01*
X88265857Y106359429D01*
X67051572Y136930857D02*
X68194429Y136930857D01*
X67623000Y136359429D02*
X67623000Y137502286D01*
X69623001Y137859429D02*
X68908715Y137859429D01*
X68837286Y137145143D01*
X68908715Y137216571D01*
X69051572Y137288000D01*
X69408715Y137288000D01*
X69551572Y137216571D01*
X69623001Y137145143D01*
X69694429Y137002286D01*
X69694429Y136645143D01*
X69623001Y136502286D01*
X69551572Y136430857D01*
X69408715Y136359429D01*
X69051572Y136359429D01*
X68908715Y136430857D01*
X68837286Y136502286D01*
X70194429Y137359429D02*
X70551572Y136359429D01*
X70908714Y137359429D01*
X71765857Y137859429D02*
X71908714Y137859429D01*
X72051571Y137788000D01*
X72123000Y137716571D01*
X72194429Y137573714D01*
X72265857Y137288000D01*
X72265857Y136930857D01*
X72194429Y136645143D01*
X72123000Y136502286D01*
X72051571Y136430857D01*
X71908714Y136359429D01*
X71765857Y136359429D01*
X71623000Y136430857D01*
X71551571Y136502286D01*
X71480143Y136645143D01*
X71408714Y136930857D01*
X71408714Y137288000D01*
X71480143Y137573714D01*
X71551571Y137716571D01*
X71623000Y137788000D01*
X71765857Y137859429D01*
D14*
X160885858Y38449429D02*
X161028715Y38401810D01*
X161076334Y38354190D01*
X161123953Y38258952D01*
X161123953Y38116095D01*
X161076334Y38020857D01*
X161028715Y37973238D01*
X160933477Y37925619D01*
X160552524Y37925619D01*
X160552524Y38925619D01*
X160885858Y38925619D01*
X160981096Y38878000D01*
X161028715Y38830381D01*
X161076334Y38735143D01*
X161076334Y38639905D01*
X161028715Y38544667D01*
X160981096Y38497048D01*
X160885858Y38449429D01*
X160552524Y38449429D01*
X161504905Y38211333D02*
X161981096Y38211333D01*
X161409667Y37925619D02*
X161743000Y38925619D01*
X162076334Y37925619D01*
X162266810Y38925619D02*
X162838239Y38925619D01*
X162552524Y37925619D02*
X162552524Y38925619D01*
X163171572Y38306571D02*
X163933477Y38306571D01*
X163552525Y37925619D02*
X163552525Y38687524D01*
X129165858Y38459429D02*
X129308715Y38411810D01*
X129356334Y38364190D01*
X129403953Y38268952D01*
X129403953Y38126095D01*
X129356334Y38030857D01*
X129308715Y37983238D01*
X129213477Y37935619D01*
X128832524Y37935619D01*
X128832524Y38935619D01*
X129165858Y38935619D01*
X129261096Y38888000D01*
X129308715Y38840381D01*
X129356334Y38745143D01*
X129356334Y38649905D01*
X129308715Y38554667D01*
X129261096Y38507048D01*
X129165858Y38459429D01*
X128832524Y38459429D01*
X129784905Y38221333D02*
X130261096Y38221333D01*
X129689667Y37935619D02*
X130023000Y38935619D01*
X130356334Y37935619D01*
X130546810Y38935619D02*
X131118239Y38935619D01*
X130832524Y37935619D02*
X130832524Y38935619D01*
X131451572Y38316571D02*
X132213477Y38316571D01*
X131832525Y37935619D02*
X131832525Y38697524D01*
X96155858Y38309429D02*
X96298715Y38261810D01*
X96346334Y38214190D01*
X96393953Y38118952D01*
X96393953Y37976095D01*
X96346334Y37880857D01*
X96298715Y37833238D01*
X96203477Y37785619D01*
X95822524Y37785619D01*
X95822524Y38785619D01*
X96155858Y38785619D01*
X96251096Y38738000D01*
X96298715Y38690381D01*
X96346334Y38595143D01*
X96346334Y38499905D01*
X96298715Y38404667D01*
X96251096Y38357048D01*
X96155858Y38309429D01*
X95822524Y38309429D01*
X96774905Y38071333D02*
X97251096Y38071333D01*
X96679667Y37785619D02*
X97013000Y38785619D01*
X97346334Y37785619D01*
X97536810Y38785619D02*
X98108239Y38785619D01*
X97822524Y37785619D02*
X97822524Y38785619D01*
X98441572Y38166571D02*
X99203477Y38166571D01*
X98822525Y37785619D02*
X98822525Y38547524D01*
X64445858Y38309429D02*
X64588715Y38261810D01*
X64636334Y38214190D01*
X64683953Y38118952D01*
X64683953Y37976095D01*
X64636334Y37880857D01*
X64588715Y37833238D01*
X64493477Y37785619D01*
X64112524Y37785619D01*
X64112524Y38785619D01*
X64445858Y38785619D01*
X64541096Y38738000D01*
X64588715Y38690381D01*
X64636334Y38595143D01*
X64636334Y38499905D01*
X64588715Y38404667D01*
X64541096Y38357048D01*
X64445858Y38309429D01*
X64112524Y38309429D01*
X65064905Y38071333D02*
X65541096Y38071333D01*
X64969667Y37785619D02*
X65303000Y38785619D01*
X65636334Y37785619D01*
X65826810Y38785619D02*
X66398239Y38785619D01*
X66112524Y37785619D02*
X66112524Y38785619D01*
X66731572Y38166571D02*
X67493477Y38166571D01*
X67112525Y37785619D02*
X67112525Y38547524D01*
X145895858Y38419429D02*
X146038715Y38371810D01*
X146086334Y38324190D01*
X146133953Y38228952D01*
X146133953Y38086095D01*
X146086334Y37990857D01*
X146038715Y37943238D01*
X145943477Y37895619D01*
X145562524Y37895619D01*
X145562524Y38895619D01*
X145895858Y38895619D01*
X145991096Y38848000D01*
X146038715Y38800381D01*
X146086334Y38705143D01*
X146086334Y38609905D01*
X146038715Y38514667D01*
X145991096Y38467048D01*
X145895858Y38419429D01*
X145562524Y38419429D01*
X146514905Y38181333D02*
X146991096Y38181333D01*
X146419667Y37895619D02*
X146753000Y38895619D01*
X147086334Y37895619D01*
X147276810Y38895619D02*
X147848239Y38895619D01*
X147562524Y37895619D02*
X147562524Y38895619D01*
X148181572Y38276571D02*
X148943477Y38276571D01*
X114255858Y38339429D02*
X114398715Y38291810D01*
X114446334Y38244190D01*
X114493953Y38148952D01*
X114493953Y38006095D01*
X114446334Y37910857D01*
X114398715Y37863238D01*
X114303477Y37815619D01*
X113922524Y37815619D01*
X113922524Y38815619D01*
X114255858Y38815619D01*
X114351096Y38768000D01*
X114398715Y38720381D01*
X114446334Y38625143D01*
X114446334Y38529905D01*
X114398715Y38434667D01*
X114351096Y38387048D01*
X114255858Y38339429D01*
X113922524Y38339429D01*
X114874905Y38101333D02*
X115351096Y38101333D01*
X114779667Y37815619D02*
X115113000Y38815619D01*
X115446334Y37815619D01*
X115636810Y38815619D02*
X116208239Y38815619D01*
X115922524Y37815619D02*
X115922524Y38815619D01*
X116541572Y38196571D02*
X117303477Y38196571D01*
X81075858Y38289429D02*
X81218715Y38241810D01*
X81266334Y38194190D01*
X81313953Y38098952D01*
X81313953Y37956095D01*
X81266334Y37860857D01*
X81218715Y37813238D01*
X81123477Y37765619D01*
X80742524Y37765619D01*
X80742524Y38765619D01*
X81075858Y38765619D01*
X81171096Y38718000D01*
X81218715Y38670381D01*
X81266334Y38575143D01*
X81266334Y38479905D01*
X81218715Y38384667D01*
X81171096Y38337048D01*
X81075858Y38289429D01*
X80742524Y38289429D01*
X81694905Y38051333D02*
X82171096Y38051333D01*
X81599667Y37765619D02*
X81933000Y38765619D01*
X82266334Y37765619D01*
X82456810Y38765619D02*
X83028239Y38765619D01*
X82742524Y37765619D02*
X82742524Y38765619D01*
X83361572Y38146571D02*
X84123477Y38146571D01*
X49485858Y38349429D02*
X49628715Y38301810D01*
X49676334Y38254190D01*
X49723953Y38158952D01*
X49723953Y38016095D01*
X49676334Y37920857D01*
X49628715Y37873238D01*
X49533477Y37825619D01*
X49152524Y37825619D01*
X49152524Y38825619D01*
X49485858Y38825619D01*
X49581096Y38778000D01*
X49628715Y38730381D01*
X49676334Y38635143D01*
X49676334Y38539905D01*
X49628715Y38444667D01*
X49581096Y38397048D01*
X49485858Y38349429D01*
X49152524Y38349429D01*
X50104905Y38111333D02*
X50581096Y38111333D01*
X50009667Y37825619D02*
X50343000Y38825619D01*
X50676334Y37825619D01*
X50866810Y38825619D02*
X51438239Y38825619D01*
X51152524Y37825619D02*
X51152524Y38825619D01*
X51771572Y38206571D02*
X52533477Y38206571D01*
D15*
X10568714Y55686572D02*
X10711571Y56115143D01*
X10854429Y56258000D01*
X11140143Y56400857D01*
X11568714Y56400857D01*
X11854429Y56258000D01*
X11997286Y56115143D01*
X12140143Y55829429D01*
X12140143Y54686572D01*
X9140143Y54686572D01*
X9140143Y55686572D01*
X9283000Y55972286D01*
X9425857Y56115143D01*
X9711571Y56258000D01*
X9997286Y56258000D01*
X10283000Y56115143D01*
X10425857Y55972286D01*
X10568714Y55686572D01*
X10568714Y54686572D01*
X11283000Y57543715D02*
X11283000Y58972286D01*
X12140143Y57258000D02*
X9140143Y58258000D01*
X12140143Y59258000D01*
X9140143Y59829429D02*
X9140143Y61543715D01*
X12140143Y60686572D02*
X9140143Y60686572D01*
X10997286Y62543715D02*
X10997286Y64829429D01*
X12140143Y63686572D02*
X9854429Y63686572D01*
X10568714Y39306572D02*
X10711571Y39735143D01*
X10854429Y39878000D01*
X11140143Y40020857D01*
X11568714Y40020857D01*
X11854429Y39878000D01*
X11997286Y39735143D01*
X12140143Y39449429D01*
X12140143Y38306572D01*
X9140143Y38306572D01*
X9140143Y39306572D01*
X9283000Y39592286D01*
X9425857Y39735143D01*
X9711571Y39878000D01*
X9997286Y39878000D01*
X10283000Y39735143D01*
X10425857Y39592286D01*
X10568714Y39306572D01*
X10568714Y38306572D01*
X11283000Y41163715D02*
X11283000Y42592286D01*
X12140143Y40878000D02*
X9140143Y41878000D01*
X12140143Y42878000D01*
X9140143Y43449429D02*
X9140143Y45163715D01*
X12140143Y44306572D02*
X9140143Y44306572D01*
X10997286Y46163715D02*
X10997286Y48449429D01*
D14*
X147861095Y108460619D02*
X147861095Y109460619D01*
X148242048Y109460619D01*
X148337286Y109413000D01*
X148384905Y109365381D01*
X148432524Y109270143D01*
X148432524Y109127286D01*
X148384905Y109032048D01*
X148337286Y108984429D01*
X148242048Y108936810D01*
X147861095Y108936810D01*
X149003952Y108460619D02*
X148908714Y108508238D01*
X148861095Y108555857D01*
X148813476Y108651095D01*
X148813476Y108936810D01*
X148861095Y109032048D01*
X148908714Y109079667D01*
X149003952Y109127286D01*
X149146810Y109127286D01*
X149242048Y109079667D01*
X149289667Y109032048D01*
X149337286Y108936810D01*
X149337286Y108651095D01*
X149289667Y108555857D01*
X149242048Y108508238D01*
X149146810Y108460619D01*
X149003952Y108460619D01*
X149670619Y109127286D02*
X149861095Y108460619D01*
X150051572Y108936810D01*
X150242048Y108460619D01*
X150432524Y109127286D01*
X151194429Y108508238D02*
X151099191Y108460619D01*
X150908714Y108460619D01*
X150813476Y108508238D01*
X150765857Y108603476D01*
X150765857Y108984429D01*
X150813476Y109079667D01*
X150908714Y109127286D01*
X151099191Y109127286D01*
X151194429Y109079667D01*
X151242048Y108984429D01*
X151242048Y108889190D01*
X150765857Y108793952D01*
X151670619Y108460619D02*
X151670619Y109127286D01*
X151670619Y108936810D02*
X151718238Y109032048D01*
X151765857Y109079667D01*
X151861095Y109127286D01*
X151956334Y109127286D01*
X153051572Y108460619D02*
X153051572Y109460619D01*
X153289667Y109460619D01*
X153432525Y109413000D01*
X153527763Y109317762D01*
X153575382Y109222524D01*
X153623001Y109032048D01*
X153623001Y108889190D01*
X153575382Y108698714D01*
X153527763Y108603476D01*
X153432525Y108508238D01*
X153289667Y108460619D01*
X153051572Y108460619D01*
X154051572Y108460619D02*
X154051572Y109127286D01*
X154051572Y109460619D02*
X154003953Y109413000D01*
X154051572Y109365381D01*
X154099191Y109413000D01*
X154051572Y109460619D01*
X154051572Y109365381D01*
X154480143Y108508238D02*
X154575381Y108460619D01*
X154765857Y108460619D01*
X154861096Y108508238D01*
X154908715Y108603476D01*
X154908715Y108651095D01*
X154861096Y108746333D01*
X154765857Y108793952D01*
X154623000Y108793952D01*
X154527762Y108841571D01*
X154480143Y108936810D01*
X154480143Y108984429D01*
X154527762Y109079667D01*
X154623000Y109127286D01*
X154765857Y109127286D01*
X154861096Y109079667D01*
X155194429Y109127286D02*
X155575381Y109127286D01*
X155337286Y109460619D02*
X155337286Y108603476D01*
X155384905Y108508238D01*
X155480143Y108460619D01*
X155575381Y108460619D01*
X155908715Y108460619D02*
X155908715Y109127286D01*
X155908715Y108936810D02*
X155956334Y109032048D01*
X156003953Y109079667D01*
X156099191Y109127286D01*
X156194430Y109127286D01*
X156527763Y108460619D02*
X156527763Y109127286D01*
X156527763Y109460619D02*
X156480144Y109413000D01*
X156527763Y109365381D01*
X156575382Y109413000D01*
X156527763Y109460619D01*
X156527763Y109365381D01*
X157003953Y108460619D02*
X157003953Y109460619D01*
X157003953Y109079667D02*
X157099191Y109127286D01*
X157289668Y109127286D01*
X157384906Y109079667D01*
X157432525Y109032048D01*
X157480144Y108936810D01*
X157480144Y108651095D01*
X157432525Y108555857D01*
X157384906Y108508238D01*
X157289668Y108460619D01*
X157099191Y108460619D01*
X157003953Y108508238D01*
X158337287Y109127286D02*
X158337287Y108460619D01*
X157908715Y109127286D02*
X157908715Y108603476D01*
X157956334Y108508238D01*
X158051572Y108460619D01*
X158194430Y108460619D01*
X158289668Y108508238D01*
X158337287Y108555857D01*
X158670620Y109127286D02*
X159051572Y109127286D01*
X158813477Y109460619D02*
X158813477Y108603476D01*
X158861096Y108508238D01*
X158956334Y108460619D01*
X159051572Y108460619D01*
X159384906Y108460619D02*
X159384906Y109127286D01*
X159384906Y109460619D02*
X159337287Y109413000D01*
X159384906Y109365381D01*
X159432525Y109413000D01*
X159384906Y109460619D01*
X159384906Y109365381D01*
X160003953Y108460619D02*
X159908715Y108508238D01*
X159861096Y108555857D01*
X159813477Y108651095D01*
X159813477Y108936810D01*
X159861096Y109032048D01*
X159908715Y109079667D01*
X160003953Y109127286D01*
X160146811Y109127286D01*
X160242049Y109079667D01*
X160289668Y109032048D01*
X160337287Y108936810D01*
X160337287Y108651095D01*
X160289668Y108555857D01*
X160242049Y108508238D01*
X160146811Y108460619D01*
X160003953Y108460619D01*
X160765858Y109127286D02*
X160765858Y108460619D01*
X160765858Y109032048D02*
X160813477Y109079667D01*
X160908715Y109127286D01*
X161051573Y109127286D01*
X161146811Y109079667D01*
X161194430Y108984429D01*
X161194430Y108460619D01*
X162765859Y108984429D02*
X162908716Y108936810D01*
X162956335Y108889190D01*
X163003954Y108793952D01*
X163003954Y108651095D01*
X162956335Y108555857D01*
X162908716Y108508238D01*
X162813478Y108460619D01*
X162432525Y108460619D01*
X162432525Y109460619D01*
X162765859Y109460619D01*
X162861097Y109413000D01*
X162908716Y109365381D01*
X162956335Y109270143D01*
X162956335Y109174905D01*
X162908716Y109079667D01*
X162861097Y109032048D01*
X162765859Y108984429D01*
X162432525Y108984429D01*
X163575382Y108460619D02*
X163480144Y108508238D01*
X163432525Y108555857D01*
X163384906Y108651095D01*
X163384906Y108936810D01*
X163432525Y109032048D01*
X163480144Y109079667D01*
X163575382Y109127286D01*
X163718240Y109127286D01*
X163813478Y109079667D01*
X163861097Y109032048D01*
X163908716Y108936810D01*
X163908716Y108651095D01*
X163861097Y108555857D01*
X163813478Y108508238D01*
X163718240Y108460619D01*
X163575382Y108460619D01*
X164765859Y108460619D02*
X164765859Y108984429D01*
X164718240Y109079667D01*
X164623002Y109127286D01*
X164432525Y109127286D01*
X164337287Y109079667D01*
X164765859Y108508238D02*
X164670621Y108460619D01*
X164432525Y108460619D01*
X164337287Y108508238D01*
X164289668Y108603476D01*
X164289668Y108698714D01*
X164337287Y108793952D01*
X164432525Y108841571D01*
X164670621Y108841571D01*
X164765859Y108889190D01*
X165242049Y108460619D02*
X165242049Y109127286D01*
X165242049Y108936810D02*
X165289668Y109032048D01*
X165337287Y109079667D01*
X165432525Y109127286D01*
X165527764Y109127286D01*
X166289669Y108460619D02*
X166289669Y109460619D01*
X166289669Y108508238D02*
X166194431Y108460619D01*
X166003954Y108460619D01*
X165908716Y108508238D01*
X165861097Y108555857D01*
X165813478Y108651095D01*
X165813478Y108936810D01*
X165861097Y109032048D01*
X165908716Y109079667D01*
X166003954Y109127286D01*
X166194431Y109127286D01*
X166289669Y109079667D01*
X147813476Y107615381D02*
X147861095Y107663000D01*
X147956333Y107710619D01*
X148194429Y107710619D01*
X148289667Y107663000D01*
X148337286Y107615381D01*
X148384905Y107520143D01*
X148384905Y107424905D01*
X148337286Y107282048D01*
X147765857Y106710619D01*
X148384905Y106710619D01*
X149003952Y107710619D02*
X149099191Y107710619D01*
X149194429Y107663000D01*
X149242048Y107615381D01*
X149289667Y107520143D01*
X149337286Y107329667D01*
X149337286Y107091571D01*
X149289667Y106901095D01*
X149242048Y106805857D01*
X149194429Y106758238D01*
X149099191Y106710619D01*
X149003952Y106710619D01*
X148908714Y106758238D01*
X148861095Y106805857D01*
X148813476Y106901095D01*
X148765857Y107091571D01*
X148765857Y107329667D01*
X148813476Y107520143D01*
X148861095Y107615381D01*
X148908714Y107663000D01*
X149003952Y107710619D01*
X150289667Y106710619D02*
X149718238Y106710619D01*
X150003952Y106710619D02*
X150003952Y107710619D01*
X149908714Y107567762D01*
X149813476Y107472524D01*
X149718238Y107424905D01*
X150623000Y107710619D02*
X151289667Y107710619D01*
X150861095Y106710619D01*
D11*
X128623000Y136038000D02*
X130123000Y136038000D01*
X128623000Y135538000D02*
X128623000Y136038000D01*
X128623000Y132038000D02*
X128623000Y135038000D01*
X135123000Y124038000D02*
X138123000Y124038000D01*
X131123000Y124038000D02*
X134123000Y124038000D01*
X128623000Y124038000D02*
X130123000Y124038000D01*
X128623000Y126538000D02*
X128623000Y124038000D01*
X128623000Y131038000D02*
X128623000Y127538000D01*
D13*
X61945667Y100911000D02*
X63300334Y100911000D01*
X62623001Y100233667D02*
X62623001Y101588333D01*
X61945667Y116411000D02*
X63300334Y116411000D01*
X62623001Y115733667D02*
X62623001Y117088333D01*
X61945667Y132411000D02*
X63300334Y132411000D01*
X62623001Y131733667D02*
X62623001Y133088333D01*
X115408715Y120930857D02*
X116551572Y120930857D01*
X115980143Y120359429D02*
X115980143Y121502286D01*
X118051572Y120359429D02*
X117194429Y120359429D01*
X117623001Y120359429D02*
X117623001Y121859429D01*
X117480144Y121645143D01*
X117337286Y121502286D01*
X117194429Y121430857D01*
X118623000Y121716571D02*
X118694429Y121788000D01*
X118837286Y121859429D01*
X119194429Y121859429D01*
X119337286Y121788000D01*
X119408715Y121716571D01*
X119480143Y121573714D01*
X119480143Y121430857D01*
X119408715Y121216571D01*
X118551572Y120359429D01*
X119480143Y120359429D01*
X119980143Y121359429D02*
X120337286Y120359429D01*
X120694428Y121359429D01*
X121194428Y120788000D02*
X121908714Y120788000D01*
X121051571Y120359429D02*
X121551571Y121859429D01*
X122051571Y120359429D01*
X122551571Y121859429D02*
X122551571Y120645143D01*
X122622999Y120502286D01*
X122694428Y120430857D01*
X122837285Y120359429D01*
X123122999Y120359429D01*
X123265857Y120430857D01*
X123337285Y120502286D01*
X123408714Y120645143D01*
X123408714Y121859429D01*
X123980143Y121859429D02*
X124980143Y120359429D01*
X124980143Y121859429D02*
X123980143Y120359429D01*
X97908715Y120930857D02*
X99051572Y120930857D01*
X98480143Y120359429D02*
X98480143Y121502286D01*
X100551572Y120359429D02*
X99694429Y120359429D01*
X100123001Y120359429D02*
X100123001Y121859429D01*
X99980144Y121645143D01*
X99837286Y121502286D01*
X99694429Y121430857D01*
X101123000Y121716571D02*
X101194429Y121788000D01*
X101337286Y121859429D01*
X101694429Y121859429D01*
X101837286Y121788000D01*
X101908715Y121716571D01*
X101980143Y121573714D01*
X101980143Y121430857D01*
X101908715Y121216571D01*
X101051572Y120359429D01*
X101980143Y120359429D01*
X102480143Y121359429D02*
X102837286Y120359429D01*
X103194428Y121359429D01*
X103694428Y120788000D02*
X104408714Y120788000D01*
X103551571Y120359429D02*
X104051571Y121859429D01*
X104551571Y120359429D01*
X105051571Y121859429D02*
X105051571Y120645143D01*
X105122999Y120502286D01*
X105194428Y120430857D01*
X105337285Y120359429D01*
X105622999Y120359429D01*
X105765857Y120430857D01*
X105837285Y120502286D01*
X105908714Y120645143D01*
X105908714Y121859429D01*
X106480143Y121859429D02*
X107480143Y120359429D01*
X107480143Y121859429D02*
X106480143Y120359429D01*
X99337287Y105930857D02*
X100480144Y105930857D01*
X99908715Y105359429D02*
X99908715Y106502286D01*
X101980144Y105359429D02*
X101123001Y105359429D01*
X101551573Y105359429D02*
X101551573Y106859429D01*
X101408716Y106645143D01*
X101265858Y106502286D01*
X101123001Y106430857D01*
X102551572Y106716571D02*
X102623001Y106788000D01*
X102765858Y106859429D01*
X103123001Y106859429D01*
X103265858Y106788000D01*
X103337287Y106716571D01*
X103408715Y106573714D01*
X103408715Y106430857D01*
X103337287Y106216571D01*
X102480144Y105359429D01*
X103408715Y105359429D01*
X103908715Y106359429D02*
X104265858Y105359429D01*
X104623000Y106359429D01*
X105480143Y106859429D02*
X105623000Y106859429D01*
X105765857Y106788000D01*
X105837286Y106716571D01*
X105908715Y106573714D01*
X105980143Y106288000D01*
X105980143Y105930857D01*
X105908715Y105645143D01*
X105837286Y105502286D01*
X105765857Y105430857D01*
X105623000Y105359429D01*
X105480143Y105359429D01*
X105337286Y105430857D01*
X105265857Y105502286D01*
X105194429Y105645143D01*
X105123000Y105930857D01*
X105123000Y106288000D01*
X105194429Y106573714D01*
X105265857Y106716571D01*
X105337286Y106788000D01*
X105480143Y106859429D01*
X116837287Y105930857D02*
X117980144Y105930857D01*
X117408715Y105359429D02*
X117408715Y106502286D01*
X119480144Y105359429D02*
X118623001Y105359429D01*
X119051573Y105359429D02*
X119051573Y106859429D01*
X118908716Y106645143D01*
X118765858Y106502286D01*
X118623001Y106430857D01*
X120051572Y106716571D02*
X120123001Y106788000D01*
X120265858Y106859429D01*
X120623001Y106859429D01*
X120765858Y106788000D01*
X120837287Y106716571D01*
X120908715Y106573714D01*
X120908715Y106430857D01*
X120837287Y106216571D01*
X119980144Y105359429D01*
X120908715Y105359429D01*
X121408715Y106359429D02*
X121765858Y105359429D01*
X122123000Y106359429D01*
X122980143Y106859429D02*
X123123000Y106859429D01*
X123265857Y106788000D01*
X123337286Y106716571D01*
X123408715Y106573714D01*
X123480143Y106288000D01*
X123480143Y105930857D01*
X123408715Y105645143D01*
X123337286Y105502286D01*
X123265857Y105430857D01*
X123123000Y105359429D01*
X122980143Y105359429D01*
X122837286Y105430857D01*
X122765857Y105502286D01*
X122694429Y105645143D01*
X122623000Y105930857D01*
X122623000Y106288000D01*
X122694429Y106573714D01*
X122765857Y106716571D01*
X122837286Y106788000D01*
X122980143Y106859429D01*
X131837287Y105430857D02*
X132980144Y105430857D01*
X132408715Y104859429D02*
X132408715Y106002286D01*
X134480144Y104859429D02*
X133623001Y104859429D01*
X134051573Y104859429D02*
X134051573Y106359429D01*
X133908716Y106145143D01*
X133765858Y106002286D01*
X133623001Y105930857D01*
X135051572Y106216571D02*
X135123001Y106288000D01*
X135265858Y106359429D01*
X135623001Y106359429D01*
X135765858Y106288000D01*
X135837287Y106216571D01*
X135908715Y106073714D01*
X135908715Y105930857D01*
X135837287Y105716571D01*
X134980144Y104859429D01*
X135908715Y104859429D01*
X136408715Y105859429D02*
X136765858Y104859429D01*
X137123000Y105859429D01*
X137980143Y106359429D02*
X138123000Y106359429D01*
X138265857Y106288000D01*
X138337286Y106216571D01*
X138408715Y106073714D01*
X138480143Y105788000D01*
X138480143Y105430857D01*
X138408715Y105145143D01*
X138337286Y105002286D01*
X138265857Y104930857D01*
X138123000Y104859429D01*
X137980143Y104859429D01*
X137837286Y104930857D01*
X137765857Y105002286D01*
X137694429Y105145143D01*
X137623000Y105430857D01*
X137623000Y105788000D01*
X137694429Y106073714D01*
X137765857Y106216571D01*
X137837286Y106288000D01*
X137980143Y106359429D01*
X133551572Y125930857D02*
X134694429Y125930857D01*
X134123000Y125359429D02*
X134123000Y126502286D01*
X136123001Y126859429D02*
X135408715Y126859429D01*
X135337286Y126145143D01*
X135408715Y126216571D01*
X135551572Y126288000D01*
X135908715Y126288000D01*
X136051572Y126216571D01*
X136123001Y126145143D01*
X136194429Y126002286D01*
X136194429Y125645143D01*
X136123001Y125502286D01*
X136051572Y125430857D01*
X135908715Y125359429D01*
X135551572Y125359429D01*
X135408715Y125430857D01*
X135337286Y125502286D01*
X136694429Y126359429D02*
X137051572Y125359429D01*
X137408714Y126359429D01*
X138265857Y126859429D02*
X138408714Y126859429D01*
X138551571Y126788000D01*
X138623000Y126716571D01*
X138694429Y126573714D01*
X138765857Y126288000D01*
X138765857Y125930857D01*
X138694429Y125645143D01*
X138623000Y125502286D01*
X138551571Y125430857D01*
X138408714Y125359429D01*
X138265857Y125359429D01*
X138123000Y125430857D01*
X138051571Y125502286D01*
X137980143Y125645143D01*
X137908714Y125930857D01*
X137908714Y126288000D01*
X137980143Y126573714D01*
X138051571Y126716571D01*
X138123000Y126788000D01*
X138265857Y126859429D01*
X83551572Y136930857D02*
X84694429Y136930857D01*
X84123000Y136359429D02*
X84123000Y137502286D01*
X86123001Y137859429D02*
X85408715Y137859429D01*
X85337286Y137145143D01*
X85408715Y137216571D01*
X85551572Y137288000D01*
X85908715Y137288000D01*
X86051572Y137216571D01*
X86123001Y137145143D01*
X86194429Y137002286D01*
X86194429Y136645143D01*
X86123001Y136502286D01*
X86051572Y136430857D01*
X85908715Y136359429D01*
X85551572Y136359429D01*
X85408715Y136430857D01*
X85337286Y136502286D01*
X86694429Y137359429D02*
X87051572Y136359429D01*
X87408714Y137359429D01*
X88265857Y137859429D02*
X88408714Y137859429D01*
X88551571Y137788000D01*
X88623000Y137716571D01*
X88694429Y137573714D01*
X88765857Y137288000D01*
X88765857Y136930857D01*
X88694429Y136645143D01*
X88623000Y136502286D01*
X88551571Y136430857D01*
X88408714Y136359429D01*
X88265857Y136359429D01*
X88123000Y136430857D01*
X88051571Y136502286D01*
X87980143Y136645143D01*
X87908714Y136930857D01*
X87908714Y137288000D01*
X87980143Y137573714D01*
X88051571Y137716571D01*
X88123000Y137788000D01*
X88265857Y137859429D01*
X84051572Y121430857D02*
X85194429Y121430857D01*
X84623000Y120859429D02*
X84623000Y122002286D01*
X86623001Y122359429D02*
X85908715Y122359429D01*
X85837286Y121645143D01*
X85908715Y121716571D01*
X86051572Y121788000D01*
X86408715Y121788000D01*
X86551572Y121716571D01*
X86623001Y121645143D01*
X86694429Y121502286D01*
X86694429Y121145143D01*
X86623001Y121002286D01*
X86551572Y120930857D01*
X86408715Y120859429D01*
X86051572Y120859429D01*
X85908715Y120930857D01*
X85837286Y121002286D01*
X87194429Y121859429D02*
X87551572Y120859429D01*
X87908714Y121859429D01*
X88765857Y122359429D02*
X88908714Y122359429D01*
X89051571Y122288000D01*
X89123000Y122216571D01*
X89194429Y122073714D01*
X89265857Y121788000D01*
X89265857Y121430857D01*
X89194429Y121145143D01*
X89123000Y121002286D01*
X89051571Y120930857D01*
X88908714Y120859429D01*
X88765857Y120859429D01*
X88623000Y120930857D01*
X88551571Y121002286D01*
X88480143Y121145143D01*
X88408714Y121430857D01*
X88408714Y121788000D01*
X88480143Y122073714D01*
X88551571Y122216571D01*
X88623000Y122288000D01*
X88765857Y122359429D01*
X67551572Y121430857D02*
X68694429Y121430857D01*
X68123000Y120859429D02*
X68123000Y122002286D01*
X70123001Y122359429D02*
X69408715Y122359429D01*
X69337286Y121645143D01*
X69408715Y121716571D01*
X69551572Y121788000D01*
X69908715Y121788000D01*
X70051572Y121716571D01*
X70123001Y121645143D01*
X70194429Y121502286D01*
X70194429Y121145143D01*
X70123001Y121002286D01*
X70051572Y120930857D01*
X69908715Y120859429D01*
X69551572Y120859429D01*
X69408715Y120930857D01*
X69337286Y121002286D01*
X70694429Y121859429D02*
X71051572Y120859429D01*
X71408714Y121859429D01*
X72265857Y122359429D02*
X72408714Y122359429D01*
X72551571Y122288000D01*
X72623000Y122216571D01*
X72694429Y122073714D01*
X72765857Y121788000D01*
X72765857Y121430857D01*
X72694429Y121145143D01*
X72623000Y121002286D01*
X72551571Y120930857D01*
X72408714Y120859429D01*
X72265857Y120859429D01*
X72123000Y120930857D01*
X72051571Y121002286D01*
X71980143Y121145143D01*
X71908714Y121430857D01*
X71908714Y121788000D01*
X71980143Y122073714D01*
X72051571Y122216571D01*
X72123000Y122288000D01*
X72265857Y122359429D01*
X131591750Y139002286D02*
X131511392Y138930857D01*
X131288178Y138859429D01*
X131145321Y138859429D01*
X130939964Y138930857D01*
X130814963Y139073714D01*
X130761392Y139216571D01*
X130725678Y139502286D01*
X130752463Y139716571D01*
X130859607Y140002286D01*
X130948892Y140145143D01*
X131109607Y140288000D01*
X131332821Y140359429D01*
X131475678Y140359429D01*
X131681035Y140288000D01*
X131743535Y140216571D01*
X132198892Y139288000D02*
X132913178Y139288000D01*
X132002464Y138859429D02*
X132689964Y140359429D01*
X133002464Y138859429D01*
X133689964Y140359429D02*
X133538178Y139145143D01*
X133591749Y139002286D01*
X133654249Y138930857D01*
X133788178Y138859429D01*
X134073892Y138859429D01*
X134225678Y138930857D01*
X134306035Y139002286D01*
X134395321Y139145143D01*
X134547107Y140359429D01*
X135047107Y140359429D02*
X135904250Y140359429D01*
X135288179Y138859429D02*
X135475679Y140359429D01*
X136216750Y138859429D02*
X136404250Y140359429D01*
X137404250Y140359429D02*
X137689964Y140359429D01*
X137823893Y140288000D01*
X137948893Y140145143D01*
X137984607Y139859429D01*
X137922107Y139359429D01*
X137814964Y139073714D01*
X137654250Y138930857D01*
X137502464Y138859429D01*
X137216750Y138859429D01*
X137082821Y138930857D01*
X136957821Y139073714D01*
X136922107Y139359429D01*
X136984607Y139859429D01*
X137091750Y140145143D01*
X137252464Y140288000D01*
X137404250Y140359429D01*
X138502465Y138859429D02*
X138689965Y140359429D01*
X139359608Y138859429D01*
X139547108Y140359429D01*
X131837287Y136930857D02*
X132980144Y136930857D01*
X134480144Y136359429D02*
X133623001Y136359429D01*
X134051573Y136359429D02*
X134051573Y137859429D01*
X133908716Y137645143D01*
X133765858Y137502286D01*
X133623001Y137430857D01*
X135051572Y137716571D02*
X135123001Y137788000D01*
X135265858Y137859429D01*
X135623001Y137859429D01*
X135765858Y137788000D01*
X135837287Y137716571D01*
X135908715Y137573714D01*
X135908715Y137430857D01*
X135837287Y137216571D01*
X134980144Y136359429D01*
X135908715Y136359429D01*
X136408715Y137359429D02*
X136765858Y136359429D01*
X137123000Y137359429D01*
X137980143Y137859429D02*
X138123000Y137859429D01*
X138265857Y137788000D01*
X138337286Y137716571D01*
X138408715Y137573714D01*
X138480143Y137288000D01*
X138480143Y136930857D01*
X138408715Y136645143D01*
X138337286Y136502286D01*
X138265857Y136430857D01*
X138123000Y136359429D01*
X137980143Y136359429D01*
X137837286Y136430857D01*
X137765857Y136502286D01*
X137694429Y136645143D01*
X137623000Y136930857D01*
X137623000Y137288000D01*
X137694429Y137573714D01*
X137765857Y137716571D01*
X137837286Y137788000D01*
X137980143Y137859429D01*
X118551572Y136930857D02*
X119694429Y136930857D01*
X119123000Y136359429D02*
X119123000Y137502286D01*
X120265858Y137859429D02*
X121194429Y137859429D01*
X120694429Y137288000D01*
X120908715Y137288000D01*
X121051572Y137216571D01*
X121123001Y137145143D01*
X121194429Y137002286D01*
X121194429Y136645143D01*
X121123001Y136502286D01*
X121051572Y136430857D01*
X120908715Y136359429D01*
X120480143Y136359429D01*
X120337286Y136430857D01*
X120265858Y136502286D01*
X121694429Y137359429D02*
X122051572Y136359429D01*
X122408714Y137359429D01*
X122837286Y137859429D02*
X123765857Y137859429D01*
X123265857Y137288000D01*
X123480143Y137288000D01*
X123623000Y137216571D01*
X123694429Y137145143D01*
X123765857Y137002286D01*
X123765857Y136645143D01*
X123694429Y136502286D01*
X123623000Y136430857D01*
X123480143Y136359429D01*
X123051571Y136359429D01*
X122908714Y136430857D01*
X122837286Y136502286D01*
X101551572Y136930857D02*
X102694429Y136930857D01*
X102123000Y136359429D02*
X102123000Y137502286D01*
X103265858Y137859429D02*
X104194429Y137859429D01*
X103694429Y137288000D01*
X103908715Y137288000D01*
X104051572Y137216571D01*
X104123001Y137145143D01*
X104194429Y137002286D01*
X104194429Y136645143D01*
X104123001Y136502286D01*
X104051572Y136430857D01*
X103908715Y136359429D01*
X103480143Y136359429D01*
X103337286Y136430857D01*
X103265858Y136502286D01*
X104694429Y137359429D02*
X105051572Y136359429D01*
X105408714Y137359429D01*
X105837286Y137859429D02*
X106765857Y137859429D01*
X106265857Y137288000D01*
X106480143Y137288000D01*
X106623000Y137216571D01*
X106694429Y137145143D01*
X106765857Y137002286D01*
X106765857Y136645143D01*
X106694429Y136502286D01*
X106623000Y136430857D01*
X106480143Y136359429D01*
X106051571Y136359429D01*
X105908714Y136430857D01*
X105837286Y136502286D01*
D16*
X192623000Y24538000D02*
X192623000Y142038000D01*
X6623000Y24538000D02*
X192623000Y24538000D01*
X6623000Y142038000D02*
X6623000Y24538000D01*
X192623000Y142038000D02*
X6623000Y142038000D01*
X138163000Y103618000D02*
X138163000Y93458000D01*
X139433000Y103618000D02*
X131813000Y103618000D01*
X131813000Y103618000D02*
X131813000Y93458000D01*
X131813000Y93458000D02*
X139433000Y93458000D01*
X139433000Y93458000D02*
X139433000Y103618000D01*
X89163000Y103618000D02*
X89163000Y93458000D01*
X90433000Y103618000D02*
X82813000Y103618000D01*
X82813000Y103618000D02*
X82813000Y93458000D01*
X82813000Y93458000D02*
X90433000Y93458000D01*
X90433000Y93458000D02*
X90433000Y103618000D01*
X55938000Y139428000D02*
X56573000Y103868000D01*
X37523000Y139428000D02*
X55938000Y139428000D01*
X38158000Y103868000D02*
X37523000Y139428000D01*
X56573000Y103868000D02*
X38158000Y103868000D01*
X179468000Y82623000D02*
X179468000Y82478000D01*
X183618000Y82623000D02*
X183618000Y82478000D01*
X183618000Y77473000D02*
X183618000Y77618000D01*
X179468000Y77473000D02*
X179468000Y77618000D01*
X179468000Y82623000D02*
X183618000Y82623000D01*
X179468000Y77473000D02*
X183618000Y77473000D01*
X179468000Y82478000D02*
X178068000Y82478000D01*
X46043000Y82163000D02*
X46188000Y82163000D01*
X46043000Y86313000D02*
X46188000Y86313000D01*
X51193000Y86313000D02*
X51048000Y86313000D01*
X51193000Y82163000D02*
X51048000Y82163000D01*
X46043000Y82163000D02*
X46043000Y86313000D01*
X51193000Y82163000D02*
X51193000Y86313000D01*
X46188000Y82163000D02*
X46188000Y80763000D01*
X108552847Y62216163D02*
X109822847Y62216163D01*
X108552847Y39356163D02*
X108552847Y62216163D01*
X139032847Y39356163D02*
X108552847Y39356163D01*
X139032847Y62216163D02*
X139032847Y39356163D01*
X109822847Y62216163D02*
X139032847Y62216163D01*
X43782847Y62216163D02*
X45052847Y62216163D01*
X43782847Y39356163D02*
X43782847Y62216163D01*
X74262847Y39356163D02*
X43782847Y39356163D01*
X74262847Y62216163D02*
X74262847Y39356163D01*
X45052847Y62216163D02*
X74262847Y62216163D01*
X75522847Y62216163D02*
X76792847Y62216163D01*
X75522847Y39356163D02*
X75522847Y62216163D01*
X106002847Y39356163D02*
X75522847Y39356163D01*
X106002847Y62216163D02*
X106002847Y39356163D01*
X76792847Y62216163D02*
X106002847Y62216163D01*
X140302847Y62216163D02*
X141572847Y62216163D01*
X140302847Y39356163D02*
X140302847Y62216163D01*
X170782847Y39356163D02*
X140302847Y39356163D01*
X170782847Y62216163D02*
X170782847Y39356163D01*
X141572847Y62216163D02*
X170782847Y62216163D01*
X13252847Y35986163D02*
X13252847Y37256163D01*
X36112847Y35986163D02*
X13252847Y35986163D01*
X36112847Y66466163D02*
X36112847Y35986163D01*
X13252847Y66466163D02*
X36112847Y66466163D01*
X13252847Y37256163D02*
X13252847Y66466163D01*
X44248000Y90438000D02*
X44248000Y91638000D01*
X45998000Y91638000D02*
X45998000Y90438000D01*
X47223000Y95663000D02*
X46023000Y95663000D01*
X46023000Y97413000D02*
X47223000Y97413000D01*
X186248000Y84438000D02*
X186248000Y85638000D01*
X187998000Y85638000D02*
X187998000Y84438000D01*
X181023000Y89413000D02*
X182223000Y89413000D01*
X182223000Y87663000D02*
X181023000Y87663000D01*
X25794000Y128413000D02*
X26994000Y128413000D01*
X26994000Y126663000D02*
X25794000Y126663000D01*
X25794000Y124913000D02*
X26994000Y124913000D01*
X26994000Y123163000D02*
X25794000Y123163000D01*
X25794000Y121413000D02*
X26994000Y121413000D01*
X26994000Y119663000D02*
X25794000Y119663000D01*
X25794000Y117913000D02*
X26994000Y117913000D01*
X26994000Y116163000D02*
X25794000Y116163000D01*
X25794000Y114413000D02*
X26994000Y114413000D01*
X26994000Y112663000D02*
X25794000Y112663000D01*
X25794000Y110913000D02*
X26994000Y110913000D01*
X26994000Y109163000D02*
X25794000Y109163000D01*
X25794000Y107413000D02*
X26994000Y107413000D01*
X26994000Y105663000D02*
X25794000Y105663000D01*
X25794000Y103413000D02*
X26994000Y103413000D01*
X26994000Y101663000D02*
X25794000Y101663000D01*
X25794000Y99413000D02*
X26994000Y99413000D01*
X26994000Y97663000D02*
X25794000Y97663000D01*
X25794000Y95413000D02*
X26994000Y95413000D01*
X26994000Y93663000D02*
X25794000Y93663000D01*
X25794000Y91413000D02*
X26994000Y91413000D01*
X26994000Y89663000D02*
X25794000Y89663000D01*
X25794000Y87413000D02*
X26994000Y87413000D01*
X26994000Y85663000D02*
X25794000Y85663000D01*
X25794000Y83413000D02*
X26994000Y83413000D01*
X26994000Y81663000D02*
X25794000Y81663000D01*
X25794000Y138744500D02*
X26994000Y138744500D01*
X26994000Y136994500D02*
X25794000Y136994500D01*
X25794000Y135413000D02*
X26994000Y135413000D01*
X26994000Y133663000D02*
X25794000Y133663000D01*
X25794000Y131913000D02*
X26994000Y131913000D01*
X26994000Y130163000D02*
X25794000Y130163000D01*
D17*
X47648000Y92538000D02*
X47648000Y90538000D01*
X50598000Y90538000D02*
X50598000Y92538000D01*
X38623000Y96563000D02*
X40623000Y96563000D01*
X40623000Y99513000D02*
X38623000Y99513000D01*
X53123000Y91563000D02*
X55123000Y91563000D01*
X55123000Y94513000D02*
X53123000Y94513000D01*
X56373000Y96038000D02*
X56373000Y98038000D01*
X56373000Y98038000D02*
X52473000Y98038000D01*
X56373000Y96038000D02*
X52473000Y96038000D01*
X179373000Y86538000D02*
X179373000Y84538000D01*
X179373000Y84538000D02*
X183273000Y84538000D01*
X179373000Y86538000D02*
X183273000Y86538000D01*
D16*
X184047000Y59537000D02*
X173887000Y59537000D01*
X184047000Y58267000D02*
X184047000Y65887000D01*
X184047000Y65887000D02*
X173887000Y65887000D01*
X173887000Y65887000D02*
X173887000Y58267000D01*
X173887000Y58267000D02*
X184047000Y58267000D01*
X89139000Y119152200D02*
X89139000Y108992200D01*
X90409000Y119152200D02*
X82789000Y119152200D01*
X82789000Y119152200D02*
X82789000Y108992200D01*
X82789000Y108992200D02*
X90409000Y108992200D01*
X90409000Y108992200D02*
X90409000Y119152200D01*
X138363000Y135118000D02*
X138363000Y124958000D01*
X139633000Y135118000D02*
X132013000Y135118000D01*
X132013000Y135118000D02*
X132013000Y124958000D01*
X132013000Y124958000D02*
X139633000Y124958000D01*
X139633000Y124958000D02*
X139633000Y135118000D01*
X123163000Y103496867D02*
X123163000Y93336867D01*
X124433000Y103496867D02*
X116813000Y103496867D01*
X116813000Y103496867D02*
X116813000Y93336867D01*
X116813000Y93336867D02*
X124433000Y93336867D01*
X124433000Y93336867D02*
X124433000Y103496867D01*
X72663000Y135118000D02*
X72663000Y124958000D01*
X73933000Y135118000D02*
X66313000Y135118000D01*
X66313000Y135118000D02*
X66313000Y124958000D01*
X66313000Y124958000D02*
X73933000Y124958000D01*
X73933000Y124958000D02*
X73933000Y135118000D01*
X72679800Y119126800D02*
X72679800Y108966800D01*
X73949800Y119126800D02*
X66329800Y119126800D01*
X66329800Y119126800D02*
X66329800Y108966800D01*
X66329800Y108966800D02*
X73949800Y108966800D01*
X73949800Y108966800D02*
X73949800Y119126800D01*
X123163000Y135118000D02*
X123163000Y124958000D01*
X124433000Y135118000D02*
X116813000Y135118000D01*
X116813000Y135118000D02*
X116813000Y124958000D01*
X116813000Y124958000D02*
X124433000Y124958000D01*
X124433000Y124958000D02*
X124433000Y135118000D01*
X105663000Y103618000D02*
X105663000Y93458000D01*
X106933000Y103618000D02*
X99313000Y103618000D01*
X99313000Y103618000D02*
X99313000Y93458000D01*
X99313000Y93458000D02*
X106933000Y93458000D01*
X106933000Y93458000D02*
X106933000Y103618000D01*
X89163000Y135118000D02*
X89163000Y124958000D01*
X90433000Y135118000D02*
X82813000Y135118000D01*
X82813000Y135118000D02*
X82813000Y124958000D01*
X82813000Y124958000D02*
X90433000Y124958000D01*
X90433000Y124958000D02*
X90433000Y135118000D01*
X105663000Y135118000D02*
X105663000Y124958000D01*
X106933000Y135118000D02*
X99313000Y135118000D01*
X99313000Y135118000D02*
X99313000Y124958000D01*
X99313000Y124958000D02*
X106933000Y124958000D01*
X106933000Y124958000D02*
X106933000Y135118000D01*
X42198000Y93113000D02*
X42148000Y93113000D01*
X42198000Y88963000D02*
X42053000Y88963000D01*
X37048000Y88963000D02*
X37193000Y88963000D01*
X37048000Y93113000D02*
X37193000Y93113000D01*
X42198000Y93113000D02*
X42198000Y88963000D01*
X37048000Y93113000D02*
X37048000Y88963000D01*
X42148000Y93113000D02*
X42148000Y94513000D01*
D17*
X174648000Y88038000D02*
X174648000Y86038000D01*
X177598000Y86038000D02*
X177598000Y88038000D01*
X59123000Y85888000D02*
X58123000Y85888000D01*
X58123000Y84188000D02*
X59123000Y84188000D01*
D16*
X59223000Y87163000D02*
X58023000Y87163000D01*
X58023000Y88913000D02*
X59223000Y88913000D01*
X49233000Y73293000D02*
X48033000Y73293000D01*
X48033000Y75043000D02*
X49233000Y75043000D01*
X72663000Y103618000D02*
X72663000Y93458000D01*
X73933000Y103618000D02*
X66313000Y103618000D01*
X66313000Y103618000D02*
X66313000Y93458000D01*
X66313000Y93458000D02*
X73933000Y93458000D01*
X73933000Y93458000D02*
X73933000Y103618000D01*
D18*
G36*
X174442861Y111038082D02*
X174592238Y111033802D01*
X174721197Y111027459D01*
X174834675Y111018504D01*
X174937609Y111006390D01*
X175034934Y110990570D01*
X175131588Y110970497D01*
X175199073Y110954233D01*
X175377338Y110899900D01*
X175534329Y110832124D01*
X175670583Y110750482D01*
X175786634Y110654548D01*
X175883019Y110543899D01*
X175960274Y110418110D01*
X176004861Y110316581D01*
X176020393Y110274102D01*
X176033778Y110233901D01*
X176045176Y110193776D01*
X176054744Y110151524D01*
X176062643Y110104946D01*
X176069031Y110051839D01*
X176074067Y109990003D01*
X176077911Y109917235D01*
X176080722Y109831335D01*
X176082658Y109730100D01*
X176083879Y109611331D01*
X176084544Y109472824D01*
X176084812Y109312379D01*
X176084848Y109209825D01*
X176084900Y108451000D01*
X174713300Y108451000D01*
X174713300Y109159510D01*
X174713299Y109868019D01*
X174684725Y109924685D01*
X174644936Y109975873D01*
X174584739Y110013871D01*
X174505691Y110038241D01*
X174409349Y110048549D01*
X174297271Y110044356D01*
X174268822Y110041220D01*
X174189394Y110028026D01*
X174130349Y110009368D01*
X174086865Y109982932D01*
X174054121Y109946406D01*
X174046550Y109934603D01*
X174040837Y109924298D01*
X174036052Y109912503D01*
X174032111Y109897014D01*
X174028933Y109875628D01*
X174026436Y109846143D01*
X174024539Y109806356D01*
X174023158Y109754064D01*
X174022213Y109687064D01*
X174021622Y109603154D01*
X174021302Y109500130D01*
X174021172Y109375789D01*
X174021150Y109251100D01*
X174021186Y109098709D01*
X174021456Y108969381D01*
X174022199Y108860783D01*
X174023654Y108770577D01*
X174026059Y108696429D01*
X174029655Y108636003D01*
X174034681Y108586963D01*
X174041376Y108546973D01*
X174049980Y108513698D01*
X174060730Y108484803D01*
X174073868Y108457951D01*
X174089632Y108430807D01*
X174108239Y108401071D01*
X174130739Y108366751D01*
X174154924Y108332919D01*
X174182267Y108298155D01*
X174214242Y108261041D01*
X174252321Y108220155D01*
X174297979Y108174078D01*
X174352687Y108121391D01*
X174417920Y108060672D01*
X174495151Y107990504D01*
X174585853Y107909466D01*
X174691498Y107816137D01*
X174813561Y107709099D01*
X174948250Y107591521D01*
X175119895Y107440148D01*
X175272200Y107301913D01*
X175406564Y107175289D01*
X175524385Y107058750D01*
X175627061Y106950768D01*
X175715991Y106849816D01*
X175792573Y106754367D01*
X175858206Y106662893D01*
X175914289Y106573869D01*
X175962219Y106485767D01*
X175963856Y106482500D01*
X175998427Y106409576D01*
X176028337Y106337295D01*
X176053866Y106263341D01*
X176075296Y106185400D01*
X176092907Y106101158D01*
X176106978Y106008298D01*
X176117791Y105904507D01*
X176125626Y105787469D01*
X176130763Y105654870D01*
X176133484Y105504394D01*
X176134067Y105333727D01*
X176132795Y105140555D01*
X176132268Y105092538D01*
X176130253Y104942461D01*
X176127849Y104814972D01*
X176124831Y104707256D01*
X176120976Y104616500D01*
X176116058Y104539892D01*
X176109853Y104474619D01*
X176102138Y104417868D01*
X176092687Y104366825D01*
X176081278Y104318678D01*
X176067684Y104270615D01*
X176066393Y104266350D01*
X176055405Y104228622D01*
X176048343Y104201276D01*
X176046937Y104193325D01*
X176059044Y104190773D01*
X176093222Y104188480D01*
X176146143Y104186540D01*
X176214478Y104185050D01*
X176294900Y104184105D01*
X176377855Y104183800D01*
X176478112Y104183896D01*
X176555752Y104184310D01*
X176613556Y104185233D01*
X176654309Y104186856D01*
X176680791Y104189370D01*
X176695786Y104192966D01*
X176702077Y104197834D01*
X176702444Y104204166D01*
X176701929Y104206025D01*
X176678048Y104292256D01*
X176656101Y104389882D01*
X176638797Y104485950D01*
X176630855Y104545750D01*
X176628703Y104578763D01*
X176626666Y104634613D01*
X176624778Y104710738D01*
X176623075Y104804574D01*
X176621590Y104913559D01*
X176620358Y105035131D01*
X176619414Y105166726D01*
X176618791Y105305783D01*
X176618525Y105449737D01*
X176618520Y105463325D01*
X176618300Y106266600D01*
X178052867Y106266600D01*
X178056308Y105431575D01*
X178056925Y105260810D01*
X178057430Y105113589D01*
X178058066Y104988060D01*
X178059080Y104882370D01*
X178060715Y104794665D01*
X178063216Y104723093D01*
X178066827Y104665801D01*
X178071795Y104620935D01*
X178078362Y104586644D01*
X178086774Y104561074D01*
X178097276Y104542371D01*
X178110112Y104528684D01*
X178125527Y104518159D01*
X178143766Y104508944D01*
X178165072Y104499184D01*
X178180400Y104491813D01*
X178213169Y104476453D01*
X178242606Y104466376D01*
X178275487Y104460485D01*
X178318589Y104457683D01*
X178378688Y104456871D01*
X178396300Y104456850D01*
X178487316Y104459483D01*
X178558420Y104468366D01*
X178614645Y104484979D01*
X178661028Y104510799D01*
X178701935Y104546619D01*
X178745550Y104591623D01*
X178745550Y105930050D01*
X178700034Y106025300D01*
X178674322Y106075263D01*
X178644552Y106124982D01*
X178609263Y106175955D01*
X178566991Y106229676D01*
X178516273Y106287643D01*
X178455646Y106351352D01*
X178383647Y106422298D01*
X178298813Y106501978D01*
X178199681Y106591888D01*
X178084788Y106693524D01*
X177952672Y106808382D01*
X177837221Y106907686D01*
X177662288Y107059341D01*
X177507153Y107197558D01*
X177370745Y107323380D01*
X177251993Y107437848D01*
X177149828Y107542007D01*
X177063179Y107636898D01*
X176990975Y107723564D01*
X176965400Y107756826D01*
X176889521Y107866231D01*
X176818619Y107983865D01*
X176756673Y108102415D01*
X176707659Y108214566D01*
X176690359Y108262570D01*
X176677181Y108303641D01*
X176665886Y108342862D01*
X176656331Y108382502D01*
X176648372Y108424832D01*
X176641868Y108472122D01*
X176636676Y108526644D01*
X176632653Y108590666D01*
X176629656Y108666461D01*
X176627544Y108756297D01*
X176626173Y108862446D01*
X176625401Y108987177D01*
X176625086Y109132762D01*
X176625084Y109301471D01*
X176625084Y109301900D01*
X176625518Y110032150D01*
X176659193Y110155643D01*
X176713450Y110311402D01*
X176787036Y110450911D01*
X176880385Y110574701D01*
X176993929Y110683299D01*
X177128104Y110777236D01*
X177202500Y110818581D01*
X177295713Y110862758D01*
X177393262Y110900935D01*
X177499312Y110934271D01*
X177618026Y110963925D01*
X177753567Y110991056D01*
X177910099Y111016823D01*
X177920050Y111018321D01*
X177981858Y111025024D01*
X178064543Y111030198D01*
X178163630Y111033872D01*
X178274643Y111036069D01*
X178393105Y111036817D01*
X178514542Y111036142D01*
X178634478Y111034069D01*
X178748438Y111030625D01*
X178851946Y111025836D01*
X178940525Y111019727D01*
X179009702Y111012325D01*
X179012250Y111011967D01*
X179220636Y110975130D01*
X179406829Y110926840D01*
X179571514Y110866679D01*
X179715377Y110794228D01*
X179839104Y110709065D01*
X179943380Y110610773D01*
X180028890Y110498931D01*
X180096321Y110373120D01*
X180110149Y110340151D01*
X180125815Y110300527D01*
X180139325Y110264530D01*
X180150852Y110229997D01*
X180160568Y110194764D01*
X180168643Y110156665D01*
X180175250Y110113537D01*
X180180560Y110063215D01*
X180184745Y110003535D01*
X180187977Y109932333D01*
X180190427Y109847445D01*
X180192267Y109746707D01*
X180193669Y109627953D01*
X180194805Y109489020D01*
X180195845Y109327744D01*
X180196286Y109254276D01*
X180201087Y108451001D01*
X179514593Y108451001D01*
X178828100Y108451000D01*
X178828100Y109158191D01*
X178828075Y109310214D01*
X178827951Y109438957D01*
X178827657Y109546542D01*
X178827117Y109635087D01*
X178826259Y109706715D01*
X178825009Y109763545D01*
X178823295Y109807698D01*
X178821043Y109841294D01*
X178818180Y109866454D01*
X178814633Y109885299D01*
X178810328Y109899948D01*
X178805193Y109912522D01*
X178801798Y109919712D01*
X178771698Y109966094D01*
X178730303Y109999757D01*
X178673137Y110023259D01*
X178595723Y110039160D01*
X178591870Y110039713D01*
X178474425Y110048701D01*
X178367602Y110041606D01*
X178275610Y110018812D01*
X178250639Y110008563D01*
X178226199Y109997633D01*
X178205494Y109987645D01*
X178188217Y109976521D01*
X178174058Y109962186D01*
X178162707Y109942563D01*
X178153857Y109915577D01*
X178147197Y109879151D01*
X178142418Y109831210D01*
X178139211Y109769676D01*
X178137267Y109692475D01*
X178136277Y109597529D01*
X178135932Y109482763D01*
X178135922Y109346101D01*
X178135950Y109238400D01*
X178135967Y109092825D01*
X178136080Y108970382D01*
X178136378Y108868801D01*
X178136953Y108785815D01*
X178137894Y108719155D01*
X178139293Y108666552D01*
X178141239Y108625737D01*
X178143823Y108594443D01*
X178147135Y108570401D01*
X178151267Y108551342D01*
X178156308Y108534997D01*
X178162348Y108519099D01*
X178164883Y108512807D01*
X178187006Y108466500D01*
X178218261Y108411340D01*
X178252239Y108358564D01*
X178255394Y108354057D01*
X178275658Y108325761D01*
X178295750Y108298956D01*
X178317046Y108272355D01*
X178340926Y108244668D01*
X178368769Y108214605D01*
X178401953Y108180877D01*
X178441857Y108142195D01*
X178489860Y108097270D01*
X178547340Y108044812D01*
X178615677Y107983533D01*
X178696248Y107912142D01*
X178790432Y107829350D01*
X178899609Y107733869D01*
X179025156Y107624409D01*
X179168453Y107499681D01*
X179176644Y107492555D01*
X179251331Y107426200D01*
X179336803Y107348008D01*
X179426190Y107264405D01*
X179512625Y107181816D01*
X179589238Y107106667D01*
X179590702Y107105205D01*
X179731431Y106958939D01*
X179851201Y106821498D01*
X179951640Y106690092D01*
X180034376Y106561930D01*
X180101040Y106434221D01*
X180153259Y106304174D01*
X180192663Y106168999D01*
X180220880Y106025904D01*
X180220974Y106025300D01*
X180226300Y105988355D01*
X180230748Y105949894D01*
X180234397Y105907321D01*
X180237322Y105858040D01*
X180239600Y105799456D01*
X180241308Y105728972D01*
X180242521Y105643995D01*
X180243316Y105541927D01*
X180243770Y105420173D01*
X180243958Y105276137D01*
X180243971Y105244250D01*
X180243825Y105080100D01*
X180243179Y104938921D01*
X180241869Y104818289D01*
X180239732Y104715777D01*
X180236605Y104628959D01*
X180232325Y104555411D01*
X180226728Y104492705D01*
X180219651Y104438417D01*
X180210931Y104390120D01*
X180200404Y104345389D01*
X180187908Y104301798D01*
X180178578Y104272700D01*
X180128704Y104150041D01*
X180059016Y104025404D01*
X180031183Y103982883D01*
X180011122Y103951500D01*
X179999605Y103930012D01*
X179998450Y103924463D01*
X180011735Y103921761D01*
X180046613Y103916111D01*
X180099519Y103908050D01*
X180166889Y103898115D01*
X180245155Y103886844D01*
X180294950Y103879791D01*
X180383159Y103866897D01*
X180490244Y103850475D01*
X180610084Y103831508D01*
X180736558Y103810983D01*
X180863545Y103789883D01*
X180984925Y103769194D01*
X181017204Y103763586D01*
X181119049Y103745895D01*
X181213300Y103729688D01*
X181296944Y103715471D01*
X181366970Y103703749D01*
X181420364Y103695027D01*
X181454115Y103689811D01*
X181464879Y103688500D01*
X181467261Y103691518D01*
X181469425Y103701311D01*
X181471379Y103718985D01*
X181473135Y103745650D01*
X181474701Y103782412D01*
X181476088Y103830380D01*
X181477306Y103890661D01*
X181478365Y103964363D01*
X181479275Y104052593D01*
X181480045Y104156460D01*
X181480686Y104277071D01*
X181481209Y104415534D01*
X181481622Y104572957D01*
X181481935Y104750447D01*
X181482160Y104949112D01*
X181482305Y105170061D01*
X181482382Y105414399D01*
X181482400Y105631283D01*
X181482399Y107574065D01*
X181447475Y107568445D01*
X181422623Y107565020D01*
X181378079Y107559429D01*
X181319392Y107552349D01*
X181252110Y107544456D01*
X181225429Y107541383D01*
X181038308Y107519941D01*
X181032019Y107480646D01*
X181030203Y107461512D01*
X181027033Y107419215D01*
X181022650Y107355946D01*
X181017195Y107273897D01*
X181010809Y107175261D01*
X181003633Y107062231D01*
X180995809Y106936997D01*
X180987477Y106801752D01*
X180978780Y106658689D01*
X180974289Y106584100D01*
X180958713Y106326127D01*
X180944423Y106092844D01*
X180931372Y105883577D01*
X180919512Y105697650D01*
X180908796Y105534390D01*
X180899176Y105393120D01*
X180890604Y105273167D01*
X180883033Y105173856D01*
X180876416Y105094511D01*
X180870706Y105034459D01*
X180865854Y104993025D01*
X180861813Y104969533D01*
X180860345Y104964850D01*
X180853420Y104954486D01*
X180849646Y104964818D01*
X180848136Y104996600D01*
X180847043Y105028898D01*
X180844669Y105080712D01*
X180841306Y105146209D01*
X180837250Y105219554D01*
X180834701Y105263300D01*
X180831495Y105320730D01*
X180827224Y105402995D01*
X180821912Y105509552D01*
X180815586Y105639860D01*
X180808270Y105793377D01*
X180799990Y105969561D01*
X180790771Y106167871D01*
X180780638Y106387763D01*
X180769618Y106628698D01*
X180757735Y106890131D01*
X180745015Y107171523D01*
X180737683Y107334333D01*
X180729358Y107519416D01*
X180245454Y107599894D01*
X180137623Y107617993D01*
X180037660Y107635089D01*
X179948339Y107650685D01*
X179872432Y107664282D01*
X179812710Y107675382D01*
X179771948Y107683488D01*
X179752917Y107688100D01*
X179751955Y107688566D01*
X179761098Y107692511D01*
X179792883Y107698909D01*
X179844709Y107707405D01*
X179913975Y107717647D01*
X179998077Y107729280D01*
X180094415Y107741951D01*
X180200386Y107755307D01*
X180313388Y107768995D01*
X180430821Y107782660D01*
X180509395Y107791484D01*
X180580313Y107799607D01*
X180641998Y107807199D01*
X180690202Y107813695D01*
X180720680Y107818529D01*
X180729404Y107820772D01*
X180731232Y107834170D01*
X180734348Y107870478D01*
X180738589Y107927244D01*
X180743787Y108002019D01*
X180749779Y108092353D01*
X180756397Y108195796D01*
X180763477Y108309899D01*
X180770853Y108432212D01*
X180771892Y108449717D01*
X180780341Y108591741D01*
X180789313Y108741426D01*
X180798499Y108893721D01*
X180807593Y109043572D01*
X180816287Y109185926D01*
X180824275Y109315732D01*
X180831250Y109427937D01*
X180834458Y109478975D01*
X180840758Y109580085D01*
X180846497Y109674847D01*
X180851477Y109759803D01*
X180855503Y109831495D01*
X180858377Y109886464D01*
X180859903Y109921253D01*
X180860100Y109929926D01*
X180860100Y109975000D01*
X180945069Y109975000D01*
X180953366Y109749575D01*
X180957288Y109646499D01*
X180961996Y109528635D01*
X180967358Y109398853D01*
X180973244Y109260020D01*
X180979523Y109115004D01*
X180986063Y108966675D01*
X180992735Y108817899D01*
X180999407Y108671546D01*
X181005950Y108530484D01*
X181012231Y108397580D01*
X181018120Y108275704D01*
X181023487Y108167722D01*
X181028200Y108076504D01*
X181032129Y108004918D01*
X181035144Y107955832D01*
X181035153Y107955700D01*
X181044250Y107822350D01*
X181234750Y107788755D01*
X181303426Y107776881D01*
X181365051Y107766666D01*
X181414437Y107758937D01*
X181446399Y107754521D01*
X181453825Y107753830D01*
X181482400Y107752500D01*
X181482400Y109975000D01*
X180945069Y109975000D01*
X180860100Y109975000D01*
X180390200Y109975000D01*
X180390200Y110965600D01*
X184060500Y110965600D01*
X184060500Y109975276D01*
X182987350Y109968650D01*
X182980952Y103346592D01*
X183028601Y103334121D01*
X183063431Y103325141D01*
X183113526Y103312392D01*
X183169507Y103298257D01*
X183184200Y103294567D01*
X183524891Y103205472D01*
X183883247Y103104923D01*
X184255022Y102994317D01*
X184635970Y102875052D01*
X185021847Y102748522D01*
X185408406Y102616126D01*
X185791403Y102479259D01*
X186166593Y102339319D01*
X186529730Y102197703D01*
X186583211Y102176276D01*
X186793554Y102090423D01*
X187012766Y101998567D01*
X187237547Y101902210D01*
X187464595Y101802852D01*
X187690612Y101701993D01*
X187912296Y101601132D01*
X188126346Y101501771D01*
X188329463Y101405409D01*
X188518346Y101313547D01*
X188689694Y101227684D01*
X188826294Y101156721D01*
X188892659Y101120763D01*
X188944403Y101091212D01*
X188980021Y101069095D01*
X188998012Y101055439D01*
X188996873Y101051271D01*
X188975101Y101057618D01*
X188966600Y101060835D01*
X188632475Y101188253D01*
X188280445Y101317885D01*
X187915345Y101448116D01*
X187542010Y101577331D01*
X187165276Y101703915D01*
X186789976Y101826254D01*
X186420946Y101942732D01*
X186063021Y102051736D01*
X185721035Y102151649D01*
X185588951Y102188941D01*
X184679390Y102429803D01*
X183764365Y102645911D01*
X182844292Y102837220D01*
X181919583Y103003686D01*
X180990652Y103145266D01*
X180057913Y103261916D01*
X179121780Y103353592D01*
X178182666Y103420251D01*
X177240984Y103461847D01*
X176297149Y103478339D01*
X175351574Y103469681D01*
X174404672Y103435829D01*
X174021150Y103414957D01*
X173090166Y103346774D01*
X172161084Y103253772D01*
X171234974Y103136135D01*
X170312905Y102994044D01*
X169395945Y102827684D01*
X168485165Y102637237D01*
X167581632Y102422886D01*
X166686417Y102184816D01*
X166455035Y102119020D01*
X166152846Y102030038D01*
X165837767Y101933712D01*
X165515108Y101831797D01*
X165190178Y101726048D01*
X164868286Y101618223D01*
X164554741Y101510076D01*
X164254854Y101403364D01*
X163973932Y101299843D01*
X163943700Y101288455D01*
X163807566Y101237318D01*
X163682132Y101190720D01*
X163569102Y101149265D01*
X163470183Y101113560D01*
X163387079Y101084209D01*
X163321495Y101061817D01*
X163275136Y101046989D01*
X163249707Y101040330D01*
X163245200Y101040574D01*
X163256343Y101049616D01*
X163288324Y101068340D01*
X163338966Y101095681D01*
X163406092Y101130572D01*
X163487527Y101171946D01*
X163581095Y101218735D01*
X163684619Y101269874D01*
X163795924Y101324296D01*
X163912833Y101380934D01*
X164033170Y101438720D01*
X164154759Y101496590D01*
X164275424Y101553474D01*
X164392990Y101608308D01*
X164505279Y101660024D01*
X164555520Y101682908D01*
X165086055Y101916821D01*
X165626417Y102141891D01*
X166172984Y102356838D01*
X166722134Y102560381D01*
X167270247Y102751240D01*
X167813700Y102928134D01*
X168348872Y103089783D01*
X168872142Y103234908D01*
X169141175Y103304127D01*
X169222655Y103324843D01*
X169295237Y103343950D01*
X169355507Y103360495D01*
X169400052Y103373526D01*
X169425457Y103382089D01*
X169430100Y103384743D01*
X169418990Y103392497D01*
X169389423Y103405804D01*
X169347046Y103422200D01*
X169331675Y103427706D01*
X169234071Y103465776D01*
X169128121Y103513443D01*
X169023096Y103566164D01*
X168928269Y103619392D01*
X168884000Y103647120D01*
X168736165Y103755299D01*
X168610997Y103871399D01*
X168506238Y103998445D01*
X168419630Y104139460D01*
X168348917Y104297468D01*
X168307981Y104418750D01*
X168281334Y104507650D01*
X168277698Y107736626D01*
X168274062Y110965601D01*
X169017181Y110965601D01*
X169760300Y110965600D01*
X169762285Y110219475D01*
X169762499Y110128083D01*
X169762719Y110013065D01*
X169762945Y109876192D01*
X169763173Y109719240D01*
X169763403Y109543981D01*
X169763632Y109352188D01*
X169763859Y109145636D01*
X169764082Y108926096D01*
X169764299Y108695343D01*
X169764509Y108455150D01*
X169764709Y108207290D01*
X169764898Y107953536D01*
X169765075Y107695662D01*
X169765237Y107435441D01*
X169765383Y107174646D01*
X169765460Y107022250D01*
X169765633Y106774386D01*
X169765905Y106533197D01*
X169766271Y106299923D01*
X169766724Y106075801D01*
X169767258Y105862069D01*
X169767869Y105659964D01*
X169768550Y105470724D01*
X169769295Y105295588D01*
X169770099Y105135793D01*
X169770955Y104992577D01*
X169771858Y104867178D01*
X169772803Y104760833D01*
X169773783Y104674781D01*
X169774793Y104610258D01*
X169775826Y104568504D01*
X169776878Y104550756D01*
X169777012Y104550284D01*
X169793368Y104534646D01*
X169826051Y104514074D01*
X169865912Y104494005D01*
X169960410Y104463065D01*
X170060628Y104450803D01*
X170160569Y104456801D01*
X170254234Y104480641D01*
X170335625Y104521904D01*
X170343294Y104527287D01*
X170397619Y104566640D01*
X170395178Y106404045D01*
X170394878Y106648761D01*
X170394609Y106906037D01*
X170394373Y107172649D01*
X170394170Y107445373D01*
X170394003Y107720984D01*
X170393871Y107996257D01*
X170393777Y108267969D01*
X170393721Y108532895D01*
X170393704Y108787809D01*
X170393728Y109029488D01*
X170393795Y109254708D01*
X170393904Y109460244D01*
X170394018Y109603525D01*
X170395300Y110965600D01*
X171894406Y110965600D01*
X171890345Y107615975D01*
X171889941Y107267735D01*
X171889590Y106943955D01*
X171889269Y106643696D01*
X171888957Y106366018D01*
X171888632Y106109982D01*
X171888271Y105874647D01*
X171887853Y105659076D01*
X171887355Y105462327D01*
X171886756Y105283461D01*
X171886034Y105121539D01*
X171885167Y104975622D01*
X171884133Y104844769D01*
X171882909Y104728041D01*
X171881474Y104624499D01*
X171879806Y104533202D01*
X171877882Y104453213D01*
X171875682Y104383589D01*
X171873182Y104323393D01*
X171870361Y104271685D01*
X171867198Y104227525D01*
X171863669Y104189974D01*
X171859753Y104158091D01*
X171855428Y104130938D01*
X171850672Y104107574D01*
X171845463Y104087061D01*
X171839779Y104068459D01*
X171833598Y104050828D01*
X171826899Y104033228D01*
X171819658Y104014721D01*
X171811854Y103994365D01*
X171805194Y103976126D01*
X171788568Y103926718D01*
X171776871Y103886810D01*
X171771657Y103862014D01*
X171772110Y103856857D01*
X171785928Y103856859D01*
X171821736Y103860161D01*
X171876394Y103866382D01*
X171946760Y103875139D01*
X172029693Y103886051D01*
X172122051Y103898735D01*
X172157102Y103903676D01*
X172257352Y103917703D01*
X172354022Y103930855D01*
X172442964Y103942598D01*
X172520033Y103952394D01*
X172581082Y103959709D01*
X172621966Y103964006D01*
X172627325Y103964454D01*
X172671962Y103968874D01*
X172704653Y103973965D01*
X172719105Y103978713D01*
X172719316Y103979259D01*
X172712756Y103993871D01*
X172696727Y104019877D01*
X172693244Y104025050D01*
X172650639Y104096131D01*
X172608932Y104180648D01*
X172573470Y104267031D01*
X172554273Y104325774D01*
X172544640Y104363942D01*
X172536270Y104406157D01*
X172529081Y104454343D01*
X172522989Y104510420D01*
X172517911Y104576312D01*
X172513765Y104653942D01*
X172510467Y104745233D01*
X172507934Y104852106D01*
X172506084Y104976484D01*
X172504833Y105120291D01*
X172504099Y105285449D01*
X172503798Y105473879D01*
X172503788Y105495075D01*
X172503500Y106266600D01*
X173938600Y106266600D01*
X173938600Y105453393D01*
X173938690Y105283241D01*
X173938985Y105136754D01*
X173939521Y105012197D01*
X173940331Y104907837D01*
X173941451Y104821938D01*
X173942917Y104752766D01*
X173944763Y104698587D01*
X173947024Y104657666D01*
X173949737Y104628269D01*
X173952935Y104608661D01*
X173955923Y104598725D01*
X173992964Y104542371D01*
X174050859Y104498876D01*
X174128196Y104468871D01*
X174223565Y104452990D01*
X174286146Y104450500D01*
X174389305Y104457534D01*
X174477378Y104477991D01*
X174548181Y104510908D01*
X174599524Y104555319D01*
X174625812Y104600265D01*
X174628044Y104618578D01*
X174630117Y104659711D01*
X174631986Y104721083D01*
X174633609Y104800114D01*
X174634943Y104894222D01*
X174635945Y105000829D01*
X174636570Y105117353D01*
X174636776Y105241214D01*
X174636772Y105254602D01*
X174636670Y105396799D01*
X174636462Y105515973D01*
X174636052Y105614503D01*
X174635344Y105694767D01*
X174634240Y105759141D01*
X174632644Y105810004D01*
X174630460Y105849734D01*
X174627592Y105880709D01*
X174623943Y105905306D01*
X174619416Y105925903D01*
X174613915Y105944877D01*
X174608051Y105962535D01*
X174587633Y106015973D01*
X174562404Y106068954D01*
X174531039Y106122883D01*
X174492212Y106179161D01*
X174444598Y106239193D01*
X174386871Y106304383D01*
X174317706Y106376132D01*
X174235776Y106455845D01*
X174139756Y106544925D01*
X174028321Y106644776D01*
X173900145Y106756800D01*
X173753902Y106882402D01*
X173678674Y106946418D01*
X173509614Y107091752D01*
X173359965Y107224498D01*
X173228153Y107346384D01*
X173112608Y107459137D01*
X173011755Y107564482D01*
X172924023Y107664148D01*
X172847840Y107759860D01*
X172781633Y107853347D01*
X172723830Y107946334D01*
X172672859Y108040548D01*
X172661411Y108063650D01*
X172625926Y108138145D01*
X172597184Y108203762D01*
X172574355Y108264641D01*
X172556610Y108324917D01*
X172543121Y108388729D01*
X172533059Y108460214D01*
X172525594Y108543511D01*
X172519899Y108642755D01*
X172515143Y108762086D01*
X172513848Y108800250D01*
X172510877Y108911333D01*
X172508601Y109040405D01*
X172507076Y109180065D01*
X172506359Y109322912D01*
X172506506Y109461543D01*
X172507574Y109588556D01*
X172507734Y109600350D01*
X172509968Y109735277D01*
X172512866Y109848135D01*
X172516933Y109942258D01*
X172522676Y110020977D01*
X172530602Y110087624D01*
X172541218Y110145530D01*
X172555031Y110198028D01*
X172572546Y110248449D01*
X172594271Y110300126D01*
X172620712Y110356389D01*
X172623613Y110362350D01*
X172693464Y110484334D01*
X172777690Y110591650D01*
X172878250Y110685835D01*
X172997101Y110768425D01*
X173136197Y110840958D01*
X173297497Y110904970D01*
X173327459Y110915180D01*
X173462430Y110955261D01*
X173603809Y110987151D01*
X173754814Y111011204D01*
X173918661Y111027776D01*
X174098566Y111037219D01*
X174297746Y111039890D01*
X174442861Y111038082D01*
X174442861Y111038082D01*
G37*
X174442861Y111038082D02*
X174592238Y111033802D01*
X174721197Y111027459D01*
X174834675Y111018504D01*
X174937609Y111006390D01*
X175034934Y110990570D01*
X175131588Y110970497D01*
X175199073Y110954233D01*
X175377338Y110899900D01*
X175534329Y110832124D01*
X175670583Y110750482D01*
X175786634Y110654548D01*
X175883019Y110543899D01*
X175960274Y110418110D01*
X176004861Y110316581D01*
X176020393Y110274102D01*
X176033778Y110233901D01*
X176045176Y110193776D01*
X176054744Y110151524D01*
X176062643Y110104946D01*
X176069031Y110051839D01*
X176074067Y109990003D01*
X176077911Y109917235D01*
X176080722Y109831335D01*
X176082658Y109730100D01*
X176083879Y109611331D01*
X176084544Y109472824D01*
X176084812Y109312379D01*
X176084848Y109209825D01*
X176084900Y108451000D01*
X174713300Y108451000D01*
X174713300Y109159510D01*
X174713299Y109868019D01*
X174684725Y109924685D01*
X174644936Y109975873D01*
X174584739Y110013871D01*
X174505691Y110038241D01*
X174409349Y110048549D01*
X174297271Y110044356D01*
X174268822Y110041220D01*
X174189394Y110028026D01*
X174130349Y110009368D01*
X174086865Y109982932D01*
X174054121Y109946406D01*
X174046550Y109934603D01*
X174040837Y109924298D01*
X174036052Y109912503D01*
X174032111Y109897014D01*
X174028933Y109875628D01*
X174026436Y109846143D01*
X174024539Y109806356D01*
X174023158Y109754064D01*
X174022213Y109687064D01*
X174021622Y109603154D01*
X174021302Y109500130D01*
X174021172Y109375789D01*
X174021150Y109251100D01*
X174021186Y109098709D01*
X174021456Y108969381D01*
X174022199Y108860783D01*
X174023654Y108770577D01*
X174026059Y108696429D01*
X174029655Y108636003D01*
X174034681Y108586963D01*
X174041376Y108546973D01*
X174049980Y108513698D01*
X174060730Y108484803D01*
X174073868Y108457951D01*
X174089632Y108430807D01*
X174108239Y108401071D01*
X174130739Y108366751D01*
X174154924Y108332919D01*
X174182267Y108298155D01*
X174214242Y108261041D01*
X174252321Y108220155D01*
X174297979Y108174078D01*
X174352687Y108121391D01*
X174417920Y108060672D01*
X174495151Y107990504D01*
X174585853Y107909466D01*
X174691498Y107816137D01*
X174813561Y107709099D01*
X174948250Y107591521D01*
X175119895Y107440148D01*
X175272200Y107301913D01*
X175406564Y107175289D01*
X175524385Y107058750D01*
X175627061Y106950768D01*
X175715991Y106849816D01*
X175792573Y106754367D01*
X175858206Y106662893D01*
X175914289Y106573869D01*
X175962219Y106485767D01*
X175963856Y106482500D01*
X175998427Y106409576D01*
X176028337Y106337295D01*
X176053866Y106263341D01*
X176075296Y106185400D01*
X176092907Y106101158D01*
X176106978Y106008298D01*
X176117791Y105904507D01*
X176125626Y105787469D01*
X176130763Y105654870D01*
X176133484Y105504394D01*
X176134067Y105333727D01*
X176132795Y105140555D01*
X176132268Y105092538D01*
X176130253Y104942461D01*
X176127849Y104814972D01*
X176124831Y104707256D01*
X176120976Y104616500D01*
X176116058Y104539892D01*
X176109853Y104474619D01*
X176102138Y104417868D01*
X176092687Y104366825D01*
X176081278Y104318678D01*
X176067684Y104270615D01*
X176066393Y104266350D01*
X176055405Y104228622D01*
X176048343Y104201276D01*
X176046937Y104193325D01*
X176059044Y104190773D01*
X176093222Y104188480D01*
X176146143Y104186540D01*
X176214478Y104185050D01*
X176294900Y104184105D01*
X176377855Y104183800D01*
X176478112Y104183896D01*
X176555752Y104184310D01*
X176613556Y104185233D01*
X176654309Y104186856D01*
X176680791Y104189370D01*
X176695786Y104192966D01*
X176702077Y104197834D01*
X176702444Y104204166D01*
X176701929Y104206025D01*
X176678048Y104292256D01*
X176656101Y104389882D01*
X176638797Y104485950D01*
X176630855Y104545750D01*
X176628703Y104578763D01*
X176626666Y104634613D01*
X176624778Y104710738D01*
X176623075Y104804574D01*
X176621590Y104913559D01*
X176620358Y105035131D01*
X176619414Y105166726D01*
X176618791Y105305783D01*
X176618525Y105449737D01*
X176618520Y105463325D01*
X176618300Y106266600D01*
X178052867Y106266600D01*
X178056308Y105431575D01*
X178056925Y105260810D01*
X178057430Y105113589D01*
X178058066Y104988060D01*
X178059080Y104882370D01*
X178060715Y104794665D01*
X178063216Y104723093D01*
X178066827Y104665801D01*
X178071795Y104620935D01*
X178078362Y104586644D01*
X178086774Y104561074D01*
X178097276Y104542371D01*
X178110112Y104528684D01*
X178125527Y104518159D01*
X178143766Y104508944D01*
X178165072Y104499184D01*
X178180400Y104491813D01*
X178213169Y104476453D01*
X178242606Y104466376D01*
X178275487Y104460485D01*
X178318589Y104457683D01*
X178378688Y104456871D01*
X178396300Y104456850D01*
X178487316Y104459483D01*
X178558420Y104468366D01*
X178614645Y104484979D01*
X178661028Y104510799D01*
X178701935Y104546619D01*
X178745550Y104591623D01*
X178745550Y105930050D01*
X178700034Y106025300D01*
X178674322Y106075263D01*
X178644552Y106124982D01*
X178609263Y106175955D01*
X178566991Y106229676D01*
X178516273Y106287643D01*
X178455646Y106351352D01*
X178383647Y106422298D01*
X178298813Y106501978D01*
X178199681Y106591888D01*
X178084788Y106693524D01*
X177952672Y106808382D01*
X177837221Y106907686D01*
X177662288Y107059341D01*
X177507153Y107197558D01*
X177370745Y107323380D01*
X177251993Y107437848D01*
X177149828Y107542007D01*
X177063179Y107636898D01*
X176990975Y107723564D01*
X176965400Y107756826D01*
X176889521Y107866231D01*
X176818619Y107983865D01*
X176756673Y108102415D01*
X176707659Y108214566D01*
X176690359Y108262570D01*
X176677181Y108303641D01*
X176665886Y108342862D01*
X176656331Y108382502D01*
X176648372Y108424832D01*
X176641868Y108472122D01*
X176636676Y108526644D01*
X176632653Y108590666D01*
X176629656Y108666461D01*
X176627544Y108756297D01*
X176626173Y108862446D01*
X176625401Y108987177D01*
X176625086Y109132762D01*
X176625084Y109301471D01*
X176625084Y109301900D01*
X176625518Y110032150D01*
X176659193Y110155643D01*
X176713450Y110311402D01*
X176787036Y110450911D01*
X176880385Y110574701D01*
X176993929Y110683299D01*
X177128104Y110777236D01*
X177202500Y110818581D01*
X177295713Y110862758D01*
X177393262Y110900935D01*
X177499312Y110934271D01*
X177618026Y110963925D01*
X177753567Y110991056D01*
X177910099Y111016823D01*
X177920050Y111018321D01*
X177981858Y111025024D01*
X178064543Y111030198D01*
X178163630Y111033872D01*
X178274643Y111036069D01*
X178393105Y111036817D01*
X178514542Y111036142D01*
X178634478Y111034069D01*
X178748438Y111030625D01*
X178851946Y111025836D01*
X178940525Y111019727D01*
X179009702Y111012325D01*
X179012250Y111011967D01*
X179220636Y110975130D01*
X179406829Y110926840D01*
X179571514Y110866679D01*
X179715377Y110794228D01*
X179839104Y110709065D01*
X179943380Y110610773D01*
X180028890Y110498931D01*
X180096321Y110373120D01*
X180110149Y110340151D01*
X180125815Y110300527D01*
X180139325Y110264530D01*
X180150852Y110229997D01*
X180160568Y110194764D01*
X180168643Y110156665D01*
X180175250Y110113537D01*
X180180560Y110063215D01*
X180184745Y110003535D01*
X180187977Y109932333D01*
X180190427Y109847445D01*
X180192267Y109746707D01*
X180193669Y109627953D01*
X180194805Y109489020D01*
X180195845Y109327744D01*
X180196286Y109254276D01*
X180201087Y108451001D01*
X179514593Y108451001D01*
X178828100Y108451000D01*
X178828100Y109158191D01*
X178828075Y109310214D01*
X178827951Y109438957D01*
X178827657Y109546542D01*
X178827117Y109635087D01*
X178826259Y109706715D01*
X178825009Y109763545D01*
X178823295Y109807698D01*
X178821043Y109841294D01*
X178818180Y109866454D01*
X178814633Y109885299D01*
X178810328Y109899948D01*
X178805193Y109912522D01*
X178801798Y109919712D01*
X178771698Y109966094D01*
X178730303Y109999757D01*
X178673137Y110023259D01*
X178595723Y110039160D01*
X178591870Y110039713D01*
X178474425Y110048701D01*
X178367602Y110041606D01*
X178275610Y110018812D01*
X178250639Y110008563D01*
X178226199Y109997633D01*
X178205494Y109987645D01*
X178188217Y109976521D01*
X178174058Y109962186D01*
X178162707Y109942563D01*
X178153857Y109915577D01*
X178147197Y109879151D01*
X178142418Y109831210D01*
X178139211Y109769676D01*
X178137267Y109692475D01*
X178136277Y109597529D01*
X178135932Y109482763D01*
X178135922Y109346101D01*
X178135950Y109238400D01*
X178135967Y109092825D01*
X178136080Y108970382D01*
X178136378Y108868801D01*
X178136953Y108785815D01*
X178137894Y108719155D01*
X178139293Y108666552D01*
X178141239Y108625737D01*
X178143823Y108594443D01*
X178147135Y108570401D01*
X178151267Y108551342D01*
X178156308Y108534997D01*
X178162348Y108519099D01*
X178164883Y108512807D01*
X178187006Y108466500D01*
X178218261Y108411340D01*
X178252239Y108358564D01*
X178255394Y108354057D01*
X178275658Y108325761D01*
X178295750Y108298956D01*
X178317046Y108272355D01*
X178340926Y108244668D01*
X178368769Y108214605D01*
X178401953Y108180877D01*
X178441857Y108142195D01*
X178489860Y108097270D01*
X178547340Y108044812D01*
X178615677Y107983533D01*
X178696248Y107912142D01*
X178790432Y107829350D01*
X178899609Y107733869D01*
X179025156Y107624409D01*
X179168453Y107499681D01*
X179176644Y107492555D01*
X179251331Y107426200D01*
X179336803Y107348008D01*
X179426190Y107264405D01*
X179512625Y107181816D01*
X179589238Y107106667D01*
X179590702Y107105205D01*
X179731431Y106958939D01*
X179851201Y106821498D01*
X179951640Y106690092D01*
X180034376Y106561930D01*
X180101040Y106434221D01*
X180153259Y106304174D01*
X180192663Y106168999D01*
X180220880Y106025904D01*
X180220974Y106025300D01*
X180226300Y105988355D01*
X180230748Y105949894D01*
X180234397Y105907321D01*
X180237322Y105858040D01*
X180239600Y105799456D01*
X180241308Y105728972D01*
X180242521Y105643995D01*
X180243316Y105541927D01*
X180243770Y105420173D01*
X180243958Y105276137D01*
X180243971Y105244250D01*
X180243825Y105080100D01*
X180243179Y104938921D01*
X180241869Y104818289D01*
X180239732Y104715777D01*
X180236605Y104628959D01*
X180232325Y104555411D01*
X180226728Y104492705D01*
X180219651Y104438417D01*
X180210931Y104390120D01*
X180200404Y104345389D01*
X180187908Y104301798D01*
X180178578Y104272700D01*
X180128704Y104150041D01*
X180059016Y104025404D01*
X180031183Y103982883D01*
X180011122Y103951500D01*
X179999605Y103930012D01*
X179998450Y103924463D01*
X180011735Y103921761D01*
X180046613Y103916111D01*
X180099519Y103908050D01*
X180166889Y103898115D01*
X180245155Y103886844D01*
X180294950Y103879791D01*
X180383159Y103866897D01*
X180490244Y103850475D01*
X180610084Y103831508D01*
X180736558Y103810983D01*
X180863545Y103789883D01*
X180984925Y103769194D01*
X181017204Y103763586D01*
X181119049Y103745895D01*
X181213300Y103729688D01*
X181296944Y103715471D01*
X181366970Y103703749D01*
X181420364Y103695027D01*
X181454115Y103689811D01*
X181464879Y103688500D01*
X181467261Y103691518D01*
X181469425Y103701311D01*
X181471379Y103718985D01*
X181473135Y103745650D01*
X181474701Y103782412D01*
X181476088Y103830380D01*
X181477306Y103890661D01*
X181478365Y103964363D01*
X181479275Y104052593D01*
X181480045Y104156460D01*
X181480686Y104277071D01*
X181481209Y104415534D01*
X181481622Y104572957D01*
X181481935Y104750447D01*
X181482160Y104949112D01*
X181482305Y105170061D01*
X181482382Y105414399D01*
X181482400Y105631283D01*
X181482399Y107574065D01*
X181447475Y107568445D01*
X181422623Y107565020D01*
X181378079Y107559429D01*
X181319392Y107552349D01*
X181252110Y107544456D01*
X181225429Y107541383D01*
X181038308Y107519941D01*
X181032019Y107480646D01*
X181030203Y107461512D01*
X181027033Y107419215D01*
X181022650Y107355946D01*
X181017195Y107273897D01*
X181010809Y107175261D01*
X181003633Y107062231D01*
X180995809Y106936997D01*
X180987477Y106801752D01*
X180978780Y106658689D01*
X180974289Y106584100D01*
X180958713Y106326127D01*
X180944423Y106092844D01*
X180931372Y105883577D01*
X180919512Y105697650D01*
X180908796Y105534390D01*
X180899176Y105393120D01*
X180890604Y105273167D01*
X180883033Y105173856D01*
X180876416Y105094511D01*
X180870706Y105034459D01*
X180865854Y104993025D01*
X180861813Y104969533D01*
X180860345Y104964850D01*
X180853420Y104954486D01*
X180849646Y104964818D01*
X180848136Y104996600D01*
X180847043Y105028898D01*
X180844669Y105080712D01*
X180841306Y105146209D01*
X180837250Y105219554D01*
X180834701Y105263300D01*
X180831495Y105320730D01*
X180827224Y105402995D01*
X180821912Y105509552D01*
X180815586Y105639860D01*
X180808270Y105793377D01*
X180799990Y105969561D01*
X180790771Y106167871D01*
X180780638Y106387763D01*
X180769618Y106628698D01*
X180757735Y106890131D01*
X180745015Y107171523D01*
X180737683Y107334333D01*
X180729358Y107519416D01*
X180245454Y107599894D01*
X180137623Y107617993D01*
X180037660Y107635089D01*
X179948339Y107650685D01*
X179872432Y107664282D01*
X179812710Y107675382D01*
X179771948Y107683488D01*
X179752917Y107688100D01*
X179751955Y107688566D01*
X179761098Y107692511D01*
X179792883Y107698909D01*
X179844709Y107707405D01*
X179913975Y107717647D01*
X179998077Y107729280D01*
X180094415Y107741951D01*
X180200386Y107755307D01*
X180313388Y107768995D01*
X180430821Y107782660D01*
X180509395Y107791484D01*
X180580313Y107799607D01*
X180641998Y107807199D01*
X180690202Y107813695D01*
X180720680Y107818529D01*
X180729404Y107820772D01*
X180731232Y107834170D01*
X180734348Y107870478D01*
X180738589Y107927244D01*
X180743787Y108002019D01*
X180749779Y108092353D01*
X180756397Y108195796D01*
X180763477Y108309899D01*
X180770853Y108432212D01*
X180771892Y108449717D01*
X180780341Y108591741D01*
X180789313Y108741426D01*
X180798499Y108893721D01*
X180807593Y109043572D01*
X180816287Y109185926D01*
X180824275Y109315732D01*
X180831250Y109427937D01*
X180834458Y109478975D01*
X180840758Y109580085D01*
X180846497Y109674847D01*
X180851477Y109759803D01*
X180855503Y109831495D01*
X180858377Y109886464D01*
X180859903Y109921253D01*
X180860100Y109929926D01*
X180860100Y109975000D01*
X180945069Y109975000D01*
X180953366Y109749575D01*
X180957288Y109646499D01*
X180961996Y109528635D01*
X180967358Y109398853D01*
X180973244Y109260020D01*
X180979523Y109115004D01*
X180986063Y108966675D01*
X180992735Y108817899D01*
X180999407Y108671546D01*
X181005950Y108530484D01*
X181012231Y108397580D01*
X181018120Y108275704D01*
X181023487Y108167722D01*
X181028200Y108076504D01*
X181032129Y108004918D01*
X181035144Y107955832D01*
X181035153Y107955700D01*
X181044250Y107822350D01*
X181234750Y107788755D01*
X181303426Y107776881D01*
X181365051Y107766666D01*
X181414437Y107758937D01*
X181446399Y107754521D01*
X181453825Y107753830D01*
X181482400Y107752500D01*
X181482400Y109975000D01*
X180945069Y109975000D01*
X180860100Y109975000D01*
X180390200Y109975000D01*
X180390200Y110965600D01*
X184060500Y110965600D01*
X184060500Y109975276D01*
X182987350Y109968650D01*
X182980952Y103346592D01*
X183028601Y103334121D01*
X183063431Y103325141D01*
X183113526Y103312392D01*
X183169507Y103298257D01*
X183184200Y103294567D01*
X183524891Y103205472D01*
X183883247Y103104923D01*
X184255022Y102994317D01*
X184635970Y102875052D01*
X185021847Y102748522D01*
X185408406Y102616126D01*
X185791403Y102479259D01*
X186166593Y102339319D01*
X186529730Y102197703D01*
X186583211Y102176276D01*
X186793554Y102090423D01*
X187012766Y101998567D01*
X187237547Y101902210D01*
X187464595Y101802852D01*
X187690612Y101701993D01*
X187912296Y101601132D01*
X188126346Y101501771D01*
X188329463Y101405409D01*
X188518346Y101313547D01*
X188689694Y101227684D01*
X188826294Y101156721D01*
X188892659Y101120763D01*
X188944403Y101091212D01*
X188980021Y101069095D01*
X188998012Y101055439D01*
X188996873Y101051271D01*
X188975101Y101057618D01*
X188966600Y101060835D01*
X188632475Y101188253D01*
X188280445Y101317885D01*
X187915345Y101448116D01*
X187542010Y101577331D01*
X187165276Y101703915D01*
X186789976Y101826254D01*
X186420946Y101942732D01*
X186063021Y102051736D01*
X185721035Y102151649D01*
X185588951Y102188941D01*
X184679390Y102429803D01*
X183764365Y102645911D01*
X182844292Y102837220D01*
X181919583Y103003686D01*
X180990652Y103145266D01*
X180057913Y103261916D01*
X179121780Y103353592D01*
X178182666Y103420251D01*
X177240984Y103461847D01*
X176297149Y103478339D01*
X175351574Y103469681D01*
X174404672Y103435829D01*
X174021150Y103414957D01*
X173090166Y103346774D01*
X172161084Y103253772D01*
X171234974Y103136135D01*
X170312905Y102994044D01*
X169395945Y102827684D01*
X168485165Y102637237D01*
X167581632Y102422886D01*
X166686417Y102184816D01*
X166455035Y102119020D01*
X166152846Y102030038D01*
X165837767Y101933712D01*
X165515108Y101831797D01*
X165190178Y101726048D01*
X164868286Y101618223D01*
X164554741Y101510076D01*
X164254854Y101403364D01*
X163973932Y101299843D01*
X163943700Y101288455D01*
X163807566Y101237318D01*
X163682132Y101190720D01*
X163569102Y101149265D01*
X163470183Y101113560D01*
X163387079Y101084209D01*
X163321495Y101061817D01*
X163275136Y101046989D01*
X163249707Y101040330D01*
X163245200Y101040574D01*
X163256343Y101049616D01*
X163288324Y101068340D01*
X163338966Y101095681D01*
X163406092Y101130572D01*
X163487527Y101171946D01*
X163581095Y101218735D01*
X163684619Y101269874D01*
X163795924Y101324296D01*
X163912833Y101380934D01*
X164033170Y101438720D01*
X164154759Y101496590D01*
X164275424Y101553474D01*
X164392990Y101608308D01*
X164505279Y101660024D01*
X164555520Y101682908D01*
X165086055Y101916821D01*
X165626417Y102141891D01*
X166172984Y102356838D01*
X166722134Y102560381D01*
X167270247Y102751240D01*
X167813700Y102928134D01*
X168348872Y103089783D01*
X168872142Y103234908D01*
X169141175Y103304127D01*
X169222655Y103324843D01*
X169295237Y103343950D01*
X169355507Y103360495D01*
X169400052Y103373526D01*
X169425457Y103382089D01*
X169430100Y103384743D01*
X169418990Y103392497D01*
X169389423Y103405804D01*
X169347046Y103422200D01*
X169331675Y103427706D01*
X169234071Y103465776D01*
X169128121Y103513443D01*
X169023096Y103566164D01*
X168928269Y103619392D01*
X168884000Y103647120D01*
X168736165Y103755299D01*
X168610997Y103871399D01*
X168506238Y103998445D01*
X168419630Y104139460D01*
X168348917Y104297468D01*
X168307981Y104418750D01*
X168281334Y104507650D01*
X168277698Y107736626D01*
X168274062Y110965601D01*
X169017181Y110965601D01*
X169760300Y110965600D01*
X169762285Y110219475D01*
X169762499Y110128083D01*
X169762719Y110013065D01*
X169762945Y109876192D01*
X169763173Y109719240D01*
X169763403Y109543981D01*
X169763632Y109352188D01*
X169763859Y109145636D01*
X169764082Y108926096D01*
X169764299Y108695343D01*
X169764509Y108455150D01*
X169764709Y108207290D01*
X169764898Y107953536D01*
X169765075Y107695662D01*
X169765237Y107435441D01*
X169765383Y107174646D01*
X169765460Y107022250D01*
X169765633Y106774386D01*
X169765905Y106533197D01*
X169766271Y106299923D01*
X169766724Y106075801D01*
X169767258Y105862069D01*
X169767869Y105659964D01*
X169768550Y105470724D01*
X169769295Y105295588D01*
X169770099Y105135793D01*
X169770955Y104992577D01*
X169771858Y104867178D01*
X169772803Y104760833D01*
X169773783Y104674781D01*
X169774793Y104610258D01*
X169775826Y104568504D01*
X169776878Y104550756D01*
X169777012Y104550284D01*
X169793368Y104534646D01*
X169826051Y104514074D01*
X169865912Y104494005D01*
X169960410Y104463065D01*
X170060628Y104450803D01*
X170160569Y104456801D01*
X170254234Y104480641D01*
X170335625Y104521904D01*
X170343294Y104527287D01*
X170397619Y104566640D01*
X170395178Y106404045D01*
X170394878Y106648761D01*
X170394609Y106906037D01*
X170394373Y107172649D01*
X170394170Y107445373D01*
X170394003Y107720984D01*
X170393871Y107996257D01*
X170393777Y108267969D01*
X170393721Y108532895D01*
X170393704Y108787809D01*
X170393728Y109029488D01*
X170393795Y109254708D01*
X170393904Y109460244D01*
X170394018Y109603525D01*
X170395300Y110965600D01*
X171894406Y110965600D01*
X171890345Y107615975D01*
X171889941Y107267735D01*
X171889590Y106943955D01*
X171889269Y106643696D01*
X171888957Y106366018D01*
X171888632Y106109982D01*
X171888271Y105874647D01*
X171887853Y105659076D01*
X171887355Y105462327D01*
X171886756Y105283461D01*
X171886034Y105121539D01*
X171885167Y104975622D01*
X171884133Y104844769D01*
X171882909Y104728041D01*
X171881474Y104624499D01*
X171879806Y104533202D01*
X171877882Y104453213D01*
X171875682Y104383589D01*
X171873182Y104323393D01*
X171870361Y104271685D01*
X171867198Y104227525D01*
X171863669Y104189974D01*
X171859753Y104158091D01*
X171855428Y104130938D01*
X171850672Y104107574D01*
X171845463Y104087061D01*
X171839779Y104068459D01*
X171833598Y104050828D01*
X171826899Y104033228D01*
X171819658Y104014721D01*
X171811854Y103994365D01*
X171805194Y103976126D01*
X171788568Y103926718D01*
X171776871Y103886810D01*
X171771657Y103862014D01*
X171772110Y103856857D01*
X171785928Y103856859D01*
X171821736Y103860161D01*
X171876394Y103866382D01*
X171946760Y103875139D01*
X172029693Y103886051D01*
X172122051Y103898735D01*
X172157102Y103903676D01*
X172257352Y103917703D01*
X172354022Y103930855D01*
X172442964Y103942598D01*
X172520033Y103952394D01*
X172581082Y103959709D01*
X172621966Y103964006D01*
X172627325Y103964454D01*
X172671962Y103968874D01*
X172704653Y103973965D01*
X172719105Y103978713D01*
X172719316Y103979259D01*
X172712756Y103993871D01*
X172696727Y104019877D01*
X172693244Y104025050D01*
X172650639Y104096131D01*
X172608932Y104180648D01*
X172573470Y104267031D01*
X172554273Y104325774D01*
X172544640Y104363942D01*
X172536270Y104406157D01*
X172529081Y104454343D01*
X172522989Y104510420D01*
X172517911Y104576312D01*
X172513765Y104653942D01*
X172510467Y104745233D01*
X172507934Y104852106D01*
X172506084Y104976484D01*
X172504833Y105120291D01*
X172504099Y105285449D01*
X172503798Y105473879D01*
X172503788Y105495075D01*
X172503500Y106266600D01*
X173938600Y106266600D01*
X173938600Y105453393D01*
X173938690Y105283241D01*
X173938985Y105136754D01*
X173939521Y105012197D01*
X173940331Y104907837D01*
X173941451Y104821938D01*
X173942917Y104752766D01*
X173944763Y104698587D01*
X173947024Y104657666D01*
X173949737Y104628269D01*
X173952935Y104608661D01*
X173955923Y104598725D01*
X173992964Y104542371D01*
X174050859Y104498876D01*
X174128196Y104468871D01*
X174223565Y104452990D01*
X174286146Y104450500D01*
X174389305Y104457534D01*
X174477378Y104477991D01*
X174548181Y104510908D01*
X174599524Y104555319D01*
X174625812Y104600265D01*
X174628044Y104618578D01*
X174630117Y104659711D01*
X174631986Y104721083D01*
X174633609Y104800114D01*
X174634943Y104894222D01*
X174635945Y105000829D01*
X174636570Y105117353D01*
X174636776Y105241214D01*
X174636772Y105254602D01*
X174636670Y105396799D01*
X174636462Y105515973D01*
X174636052Y105614503D01*
X174635344Y105694767D01*
X174634240Y105759141D01*
X174632644Y105810004D01*
X174630460Y105849734D01*
X174627592Y105880709D01*
X174623943Y105905306D01*
X174619416Y105925903D01*
X174613915Y105944877D01*
X174608051Y105962535D01*
X174587633Y106015973D01*
X174562404Y106068954D01*
X174531039Y106122883D01*
X174492212Y106179161D01*
X174444598Y106239193D01*
X174386871Y106304383D01*
X174317706Y106376132D01*
X174235776Y106455845D01*
X174139756Y106544925D01*
X174028321Y106644776D01*
X173900145Y106756800D01*
X173753902Y106882402D01*
X173678674Y106946418D01*
X173509614Y107091752D01*
X173359965Y107224498D01*
X173228153Y107346384D01*
X173112608Y107459137D01*
X173011755Y107564482D01*
X172924023Y107664148D01*
X172847840Y107759860D01*
X172781633Y107853347D01*
X172723830Y107946334D01*
X172672859Y108040548D01*
X172661411Y108063650D01*
X172625926Y108138145D01*
X172597184Y108203762D01*
X172574355Y108264641D01*
X172556610Y108324917D01*
X172543121Y108388729D01*
X172533059Y108460214D01*
X172525594Y108543511D01*
X172519899Y108642755D01*
X172515143Y108762086D01*
X172513848Y108800250D01*
X172510877Y108911333D01*
X172508601Y109040405D01*
X172507076Y109180065D01*
X172506359Y109322912D01*
X172506506Y109461543D01*
X172507574Y109588556D01*
X172507734Y109600350D01*
X172509968Y109735277D01*
X172512866Y109848135D01*
X172516933Y109942258D01*
X172522676Y110020977D01*
X172530602Y110087624D01*
X172541218Y110145530D01*
X172555031Y110198028D01*
X172572546Y110248449D01*
X172594271Y110300126D01*
X172620712Y110356389D01*
X172623613Y110362350D01*
X172693464Y110484334D01*
X172777690Y110591650D01*
X172878250Y110685835D01*
X172997101Y110768425D01*
X173136197Y110840958D01*
X173297497Y110904970D01*
X173327459Y110915180D01*
X173462430Y110955261D01*
X173603809Y110987151D01*
X173754814Y111011204D01*
X173918661Y111027776D01*
X174098566Y111037219D01*
X174297746Y111039890D01*
X174442861Y111038082D01*
D17*
X34673000Y121648000D02*
X34673000Y103808000D01*
X34673000Y103808000D02*
X37333000Y103808000D01*
X37333000Y103808000D02*
X37333000Y121648000D01*
X37333000Y121648000D02*
X34673000Y121648000D01*
X34673000Y122918000D02*
X34673000Y124248000D01*
X34673000Y124248000D02*
X36003000Y124248000D01*
X188123000Y121018000D02*
X186123000Y121018000D01*
X186123000Y118058000D02*
X188123000Y118058000D01*
X188123000Y128018000D02*
X186123000Y128018000D01*
X186123000Y125058000D02*
X188123000Y125058000D01*
X188123000Y117518000D02*
X186123000Y117518000D01*
X186123000Y114558000D02*
X188123000Y114558000D01*
X188123000Y124518000D02*
X186123000Y124518000D01*
X186123000Y121558000D02*
X188123000Y121558000D01*
X138573000Y119248000D02*
X135683000Y119248000D01*
X129673000Y119248000D02*
X132563000Y119248000D01*
X128913000Y108828000D02*
X132563000Y108828000D01*
X139333000Y108828000D02*
X135683000Y108828000D01*
X128913000Y108828000D02*
X128913000Y118488000D01*
X128913000Y118488000D02*
X129673000Y119248000D01*
X138573000Y119248000D02*
X139333000Y118488000D01*
X139333000Y118488000D02*
X139333000Y108828000D01*
D16*
X105663000Y119118000D02*
X105663000Y108958000D01*
X106933000Y119118000D02*
X99313000Y119118000D01*
X99313000Y119118000D02*
X99313000Y108958000D01*
X99313000Y108958000D02*
X106933000Y108958000D01*
X106933000Y108958000D02*
X106933000Y119118000D01*
X123163000Y119118000D02*
X123163000Y108958000D01*
X124433000Y119118000D02*
X116813000Y119118000D01*
X116813000Y119118000D02*
X116813000Y108958000D01*
X116813000Y108958000D02*
X124433000Y108958000D01*
X124433000Y108958000D02*
X124433000Y119118000D01*
D17*
X164223000Y136658000D02*
X163023000Y136658000D01*
X163023000Y138418000D02*
X164223000Y138418000D01*
D16*
X184155000Y135120000D02*
X184155000Y112006000D01*
X145166000Y135120000D02*
X184155000Y135120000D01*
X145166000Y112006000D02*
X145166000Y135120000D01*
X184155000Y112006000D02*
X145166000Y112006000D01*
D17*
X187973000Y78038000D02*
X187973000Y79038000D01*
X186273000Y79038000D02*
X186273000Y78038000D01*
D16*
X129224429Y119437048D02*
X129224429Y120198953D01*
X129605381Y119818001D02*
X128843476Y119818001D01*
M02*
