G04 #@! TF.FileFunction,Copper,L1,Top,Signal*
%FSLAX46Y46*%
G04 Gerber Fmt 4.6, Leading zero omitted, Abs format (unit mm)*
G04 Created by KiCad (PCBNEW 4.0.4-stable) date 02/12/18 11:53:12*
%MOMM*%
%LPD*%
G01*
G04 APERTURE LIST*
%ADD10C,0.100000*%
%ADD11R,3.000000X3.000000*%
%ADD12C,3.000000*%
%ADD13C,0.250000*%
G04 APERTURE END LIST*
D10*
D11*
X112891000Y-66920000D03*
D12*
X112891000Y-71120000D03*
X112891000Y-75320000D03*
X112891000Y-79520000D03*
X107391000Y-66920000D03*
X107391000Y-71120000D03*
X107391000Y-75320000D03*
X107391000Y-79520000D03*
D11*
X130981000Y-89780000D03*
D12*
X130981000Y-93980000D03*
X130981000Y-98180000D03*
X130981000Y-102380000D03*
X136481000Y-89780000D03*
X136481000Y-93980000D03*
X136481000Y-98180000D03*
X136481000Y-102380000D03*
D11*
X130981000Y-66920000D03*
D12*
X130981000Y-71120000D03*
X130981000Y-75320000D03*
X130981000Y-79520000D03*
X136481000Y-66920000D03*
X136481000Y-71120000D03*
X136481000Y-75320000D03*
X136481000Y-79520000D03*
D11*
X112841000Y-89780000D03*
D12*
X112841000Y-93980000D03*
X112841000Y-98180000D03*
X112841000Y-102380000D03*
X107341000Y-89780000D03*
X107341000Y-93980000D03*
X107341000Y-98180000D03*
X107341000Y-102380000D03*
D13*
X112891000Y-66920000D02*
X114641000Y-66920000D01*
X114641000Y-66920000D02*
X130981000Y-66920000D01*
X112891000Y-71120000D02*
X130981000Y-71120000D01*
X112891000Y-75320000D02*
X130981000Y-75320000D01*
X112891000Y-79520000D02*
X130981000Y-79520000D01*
X107391000Y-66920000D02*
X110824255Y-63486745D01*
X110824255Y-63486745D02*
X133047745Y-63486745D01*
X133047745Y-63486745D02*
X134981001Y-65420001D01*
X134981001Y-65420001D02*
X136481000Y-66920000D01*
X107391000Y-71120000D02*
X105006000Y-68735000D01*
X105006000Y-68735000D02*
X105006000Y-65500000D01*
X107681000Y-62825000D02*
X136181000Y-62825000D01*
X138952376Y-68648624D02*
X137980999Y-69620001D01*
X105006000Y-65500000D02*
X107681000Y-62825000D01*
X137980999Y-69620001D02*
X136481000Y-71120000D01*
X136181000Y-62825000D02*
X138952376Y-65596376D01*
X138952376Y-65596376D02*
X138952376Y-68648624D01*
X107391000Y-75320000D02*
X104956000Y-77755000D01*
X135556000Y-84025000D02*
X138877279Y-80703721D01*
X104956000Y-77755000D02*
X104956000Y-80850000D01*
X104956000Y-80850000D02*
X108131000Y-84025000D01*
X108131000Y-84025000D02*
X135556000Y-84025000D01*
X138877279Y-77716279D02*
X137980999Y-76819999D01*
X138877279Y-80703721D02*
X138877279Y-77716279D01*
X137980999Y-76819999D02*
X136481000Y-75320000D01*
X107391000Y-79520000D02*
X111158268Y-83287268D01*
X111158268Y-83287268D02*
X132713732Y-83287268D01*
X132713732Y-83287268D02*
X134981001Y-81019999D01*
X134981001Y-81019999D02*
X136481000Y-79520000D01*
X112841000Y-89780000D02*
X130981000Y-89780000D01*
X112841000Y-93980000D02*
X130981000Y-93980000D01*
X112841000Y-98180000D02*
X130981000Y-98180000D01*
X112841000Y-102380000D02*
X130981000Y-102380000D01*
X107341000Y-89780000D02*
X111077061Y-86043939D01*
X111077061Y-86043939D02*
X132744939Y-86043939D01*
X132744939Y-86043939D02*
X134981001Y-88280001D01*
X134981001Y-88280001D02*
X136481000Y-89780000D01*
X107341000Y-93980000D02*
X104861093Y-91500093D01*
X104861093Y-91500093D02*
X104861093Y-88351402D01*
X104861093Y-88351402D02*
X107947954Y-85264541D01*
X107947954Y-85264541D02*
X135672233Y-85264541D01*
X135672233Y-85264541D02*
X139018754Y-88611062D01*
X139018754Y-88611062D02*
X139018754Y-91442246D01*
X139018754Y-91442246D02*
X136481000Y-93980000D01*
X107341000Y-98180000D02*
X104931000Y-100590000D01*
X135576042Y-107147428D02*
X138883922Y-103839548D01*
X104931000Y-100590000D02*
X104931000Y-103700000D01*
X104931000Y-103700000D02*
X108378428Y-107147428D01*
X108378428Y-107147428D02*
X135576042Y-107147428D01*
X138883922Y-103839548D02*
X138883922Y-100582922D01*
X138883922Y-100582922D02*
X137980999Y-99679999D01*
X137980999Y-99679999D02*
X136481000Y-98180000D01*
X107341000Y-102380000D02*
X111054468Y-106093468D01*
X111054468Y-106093468D02*
X132767532Y-106093468D01*
X132767532Y-106093468D02*
X134981001Y-103879999D01*
X134981001Y-103879999D02*
X136481000Y-102380000D01*
M02*
