G04 #@! TF.FileFunction,Legend,Top*
%FSLAX46Y46*%
G04 Gerber Fmt 4.6, Leading zero omitted, Abs format (unit mm)*
G04 Created by KiCad (PCBNEW 4.0.4-stable) date 02/12/18 11:53:12*
%MOMM*%
%LPD*%
G01*
G04 APERTURE LIST*
%ADD10C,0.100000*%
%ADD11C,0.120000*%
%ADD12C,0.150000*%
G04 APERTURE END LIST*
D10*
D11*
X144526000Y-108966000D02*
G75*
G03X144526000Y-108966000I-2286000J0D01*
G01*
X103886000Y-108966000D02*
G75*
G03X103886000Y-108966000I-2286000J0D01*
G01*
X103886000Y-60960000D02*
G75*
G03X103886000Y-60960000I-2286000J0D01*
G01*
D12*
X113841000Y-64920000D02*
X113841000Y-64070000D01*
X111091000Y-66620000D02*
X109191000Y-66620000D01*
X111091000Y-67220000D02*
X109191000Y-67220000D01*
X111091000Y-70820000D02*
X109191000Y-70820000D01*
X111091000Y-71420000D02*
X109191000Y-71420000D01*
X111091000Y-75020000D02*
X109191000Y-75020000D01*
X111091000Y-75620000D02*
X109191000Y-75620000D01*
X111091000Y-79220000D02*
X109191000Y-79220000D01*
X111091000Y-79820000D02*
X109191000Y-79820000D01*
X113891000Y-68720000D02*
X113891000Y-69320000D01*
X113891000Y-72920000D02*
X113891000Y-73520000D01*
X113891000Y-77120000D02*
X113891000Y-77720000D01*
X112891000Y-64920000D02*
X112591000Y-64320000D01*
X112591000Y-64320000D02*
X113191000Y-64320000D01*
X113191000Y-64320000D02*
X112891000Y-64920000D01*
X113791000Y-87780000D02*
X113791000Y-86930000D01*
X111041000Y-89480000D02*
X109141000Y-89480000D01*
X111041000Y-90080000D02*
X109141000Y-90080000D01*
X111041000Y-93680000D02*
X109141000Y-93680000D01*
X111041000Y-94280000D02*
X109141000Y-94280000D01*
X111041000Y-97880000D02*
X109141000Y-97880000D01*
X111041000Y-98480000D02*
X109141000Y-98480000D01*
X111041000Y-102080000D02*
X109141000Y-102080000D01*
X111041000Y-102680000D02*
X109141000Y-102680000D01*
X113841000Y-91580000D02*
X113841000Y-92180000D01*
X113841000Y-95780000D02*
X113841000Y-96380000D01*
X113841000Y-99980000D02*
X113841000Y-100580000D01*
X112841000Y-87780000D02*
X112541000Y-87180000D01*
X112541000Y-87180000D02*
X113141000Y-87180000D01*
X113141000Y-87180000D02*
X112841000Y-87780000D01*
D11*
X144526000Y-60960000D02*
G75*
G03X144526000Y-60960000I-2286000J0D01*
G01*
D12*
X104271952Y-80720001D02*
X104224333Y-80815239D01*
X104176714Y-80862858D01*
X104081476Y-80910477D01*
X104033857Y-80910477D01*
X103938619Y-80862858D01*
X103891000Y-80815239D01*
X103843381Y-80720001D01*
X103843381Y-80529524D01*
X103891000Y-80434286D01*
X103938619Y-80386667D01*
X104033857Y-80339048D01*
X104081476Y-80339048D01*
X104176714Y-80386667D01*
X104224333Y-80434286D01*
X104271952Y-80529524D01*
X104271952Y-80720001D01*
X104319571Y-80815239D01*
X104367190Y-80862858D01*
X104462429Y-80910477D01*
X104652905Y-80910477D01*
X104748143Y-80862858D01*
X104795762Y-80815239D01*
X104843381Y-80720001D01*
X104843381Y-80529524D01*
X104795762Y-80434286D01*
X104748143Y-80386667D01*
X104652905Y-80339048D01*
X104462429Y-80339048D01*
X104367190Y-80386667D01*
X104319571Y-80434286D01*
X104271952Y-80529524D01*
X104176714Y-79910477D02*
X105176714Y-79910477D01*
X104224333Y-79910477D02*
X104176714Y-79815239D01*
X104176714Y-79624762D01*
X104224333Y-79529524D01*
X104271952Y-79481905D01*
X104367190Y-79434286D01*
X104652905Y-79434286D01*
X104748143Y-79481905D01*
X104795762Y-79529524D01*
X104843381Y-79624762D01*
X104843381Y-79815239D01*
X104795762Y-79910477D01*
X104843381Y-79005715D02*
X104176714Y-79005715D01*
X103843381Y-79005715D02*
X103891000Y-79053334D01*
X103938619Y-79005715D01*
X103891000Y-78958096D01*
X103843381Y-79005715D01*
X103938619Y-79005715D01*
X104176714Y-78529525D02*
X104843381Y-78529525D01*
X104271952Y-78529525D02*
X104224333Y-78481906D01*
X104176714Y-78386668D01*
X104176714Y-78243810D01*
X104224333Y-78148572D01*
X104319571Y-78100953D01*
X104843381Y-78100953D01*
X104843381Y-76862858D02*
X103843381Y-76862858D01*
X104557667Y-76529524D01*
X103843381Y-76196191D01*
X104843381Y-76196191D01*
X104843381Y-75577144D02*
X104795762Y-75672382D01*
X104748143Y-75720001D01*
X104652905Y-75767620D01*
X104367190Y-75767620D01*
X104271952Y-75720001D01*
X104224333Y-75672382D01*
X104176714Y-75577144D01*
X104176714Y-75434286D01*
X104224333Y-75339048D01*
X104271952Y-75291429D01*
X104367190Y-75243810D01*
X104652905Y-75243810D01*
X104748143Y-75291429D01*
X104795762Y-75339048D01*
X104843381Y-75434286D01*
X104843381Y-75577144D01*
X104843381Y-74672382D02*
X104795762Y-74767620D01*
X104700524Y-74815239D01*
X103843381Y-74815239D01*
X104795762Y-73910476D02*
X104843381Y-74005714D01*
X104843381Y-74196191D01*
X104795762Y-74291429D01*
X104700524Y-74339048D01*
X104319571Y-74339048D01*
X104224333Y-74291429D01*
X104176714Y-74196191D01*
X104176714Y-74005714D01*
X104224333Y-73910476D01*
X104319571Y-73862857D01*
X104414810Y-73862857D01*
X104510048Y-74339048D01*
X104843381Y-73529524D02*
X104176714Y-73005714D01*
X104176714Y-73529524D02*
X104843381Y-73005714D01*
X104843381Y-71862857D02*
X103843381Y-71862857D01*
X104557667Y-71529523D01*
X103843381Y-71196190D01*
X104843381Y-71196190D01*
X104843381Y-70720000D02*
X104176714Y-70720000D01*
X103843381Y-70720000D02*
X103891000Y-70767619D01*
X103938619Y-70720000D01*
X103891000Y-70672381D01*
X103843381Y-70720000D01*
X103938619Y-70720000D01*
X104176714Y-70243810D02*
X104843381Y-70243810D01*
X104271952Y-70243810D02*
X104224333Y-70196191D01*
X104176714Y-70100953D01*
X104176714Y-69958095D01*
X104224333Y-69862857D01*
X104319571Y-69815238D01*
X104843381Y-69815238D01*
X104843381Y-69339048D02*
X104176714Y-69339048D01*
X103843381Y-69339048D02*
X103891000Y-69386667D01*
X103938619Y-69339048D01*
X103891000Y-69291429D01*
X103843381Y-69339048D01*
X103938619Y-69339048D01*
X104176714Y-69005715D02*
X104176714Y-68624763D01*
X104843381Y-68862858D02*
X103986238Y-68862858D01*
X103891000Y-68815239D01*
X103843381Y-68720001D01*
X103843381Y-68624763D01*
X104843381Y-68291429D02*
X104176714Y-68291429D01*
X103843381Y-68291429D02*
X103891000Y-68339048D01*
X103938619Y-68291429D01*
X103891000Y-68243810D01*
X103843381Y-68291429D01*
X103938619Y-68291429D01*
X104176714Y-67958096D02*
X104176714Y-67577144D01*
X103843381Y-67815239D02*
X104700524Y-67815239D01*
X104795762Y-67767620D01*
X104843381Y-67672382D01*
X104843381Y-67577144D01*
X103843381Y-66196190D02*
X104557667Y-66196190D01*
X104700524Y-66243810D01*
X104795762Y-66339048D01*
X104843381Y-66481905D01*
X104843381Y-66577143D01*
X104843381Y-65720000D02*
X104176714Y-65720000D01*
X104367190Y-65720000D02*
X104271952Y-65672381D01*
X104224333Y-65624762D01*
X104176714Y-65529524D01*
X104176714Y-65434285D01*
X104221952Y-103580001D02*
X104174333Y-103675239D01*
X104126714Y-103722858D01*
X104031476Y-103770477D01*
X103983857Y-103770477D01*
X103888619Y-103722858D01*
X103841000Y-103675239D01*
X103793381Y-103580001D01*
X103793381Y-103389524D01*
X103841000Y-103294286D01*
X103888619Y-103246667D01*
X103983857Y-103199048D01*
X104031476Y-103199048D01*
X104126714Y-103246667D01*
X104174333Y-103294286D01*
X104221952Y-103389524D01*
X104221952Y-103580001D01*
X104269571Y-103675239D01*
X104317190Y-103722858D01*
X104412429Y-103770477D01*
X104602905Y-103770477D01*
X104698143Y-103722858D01*
X104745762Y-103675239D01*
X104793381Y-103580001D01*
X104793381Y-103389524D01*
X104745762Y-103294286D01*
X104698143Y-103246667D01*
X104602905Y-103199048D01*
X104412429Y-103199048D01*
X104317190Y-103246667D01*
X104269571Y-103294286D01*
X104221952Y-103389524D01*
X104126714Y-102770477D02*
X105126714Y-102770477D01*
X104174333Y-102770477D02*
X104126714Y-102675239D01*
X104126714Y-102484762D01*
X104174333Y-102389524D01*
X104221952Y-102341905D01*
X104317190Y-102294286D01*
X104602905Y-102294286D01*
X104698143Y-102341905D01*
X104745762Y-102389524D01*
X104793381Y-102484762D01*
X104793381Y-102675239D01*
X104745762Y-102770477D01*
X104793381Y-101865715D02*
X104126714Y-101865715D01*
X103793381Y-101865715D02*
X103841000Y-101913334D01*
X103888619Y-101865715D01*
X103841000Y-101818096D01*
X103793381Y-101865715D01*
X103888619Y-101865715D01*
X104126714Y-101389525D02*
X104793381Y-101389525D01*
X104221952Y-101389525D02*
X104174333Y-101341906D01*
X104126714Y-101246668D01*
X104126714Y-101103810D01*
X104174333Y-101008572D01*
X104269571Y-100960953D01*
X104793381Y-100960953D01*
X104793381Y-99722858D02*
X103793381Y-99722858D01*
X104507667Y-99389524D01*
X103793381Y-99056191D01*
X104793381Y-99056191D01*
X104793381Y-98437144D02*
X104745762Y-98532382D01*
X104698143Y-98580001D01*
X104602905Y-98627620D01*
X104317190Y-98627620D01*
X104221952Y-98580001D01*
X104174333Y-98532382D01*
X104126714Y-98437144D01*
X104126714Y-98294286D01*
X104174333Y-98199048D01*
X104221952Y-98151429D01*
X104317190Y-98103810D01*
X104602905Y-98103810D01*
X104698143Y-98151429D01*
X104745762Y-98199048D01*
X104793381Y-98294286D01*
X104793381Y-98437144D01*
X104793381Y-97532382D02*
X104745762Y-97627620D01*
X104650524Y-97675239D01*
X103793381Y-97675239D01*
X104745762Y-96770476D02*
X104793381Y-96865714D01*
X104793381Y-97056191D01*
X104745762Y-97151429D01*
X104650524Y-97199048D01*
X104269571Y-97199048D01*
X104174333Y-97151429D01*
X104126714Y-97056191D01*
X104126714Y-96865714D01*
X104174333Y-96770476D01*
X104269571Y-96722857D01*
X104364810Y-96722857D01*
X104460048Y-97199048D01*
X104793381Y-96389524D02*
X104126714Y-95865714D01*
X104126714Y-96389524D02*
X104793381Y-95865714D01*
X104793381Y-94722857D02*
X103793381Y-94722857D01*
X104507667Y-94389523D01*
X103793381Y-94056190D01*
X104793381Y-94056190D01*
X104793381Y-93580000D02*
X104126714Y-93580000D01*
X103793381Y-93580000D02*
X103841000Y-93627619D01*
X103888619Y-93580000D01*
X103841000Y-93532381D01*
X103793381Y-93580000D01*
X103888619Y-93580000D01*
X104126714Y-93103810D02*
X104793381Y-93103810D01*
X104221952Y-93103810D02*
X104174333Y-93056191D01*
X104126714Y-92960953D01*
X104126714Y-92818095D01*
X104174333Y-92722857D01*
X104269571Y-92675238D01*
X104793381Y-92675238D01*
X104793381Y-92199048D02*
X104126714Y-92199048D01*
X103793381Y-92199048D02*
X103841000Y-92246667D01*
X103888619Y-92199048D01*
X103841000Y-92151429D01*
X103793381Y-92199048D01*
X103888619Y-92199048D01*
X104126714Y-91865715D02*
X104126714Y-91484763D01*
X104793381Y-91722858D02*
X103936238Y-91722858D01*
X103841000Y-91675239D01*
X103793381Y-91580001D01*
X103793381Y-91484763D01*
X104793381Y-91151429D02*
X104126714Y-91151429D01*
X103793381Y-91151429D02*
X103841000Y-91199048D01*
X103888619Y-91151429D01*
X103841000Y-91103810D01*
X103793381Y-91151429D01*
X103888619Y-91151429D01*
X104126714Y-90818096D02*
X104126714Y-90437144D01*
X103793381Y-90675239D02*
X104650524Y-90675239D01*
X104745762Y-90627620D01*
X104793381Y-90532382D01*
X104793381Y-90437144D01*
X103793381Y-89056190D02*
X104507667Y-89056190D01*
X104650524Y-89103810D01*
X104745762Y-89199048D01*
X104793381Y-89341905D01*
X104793381Y-89437143D01*
X104793381Y-88580000D02*
X104126714Y-88580000D01*
X104317190Y-88580000D02*
X104221952Y-88532381D01*
X104174333Y-88484762D01*
X104126714Y-88389524D01*
X104126714Y-88294285D01*
M02*
