M48
;DRILL file {KiCad 4.0.4-stable} date 02/10/18 20:40:39
;FORMAT={2:4/ absolute / inch / suppress trailing zeros}
FMAT,2
INCH,LZ
T1C0.071
T2C0.126
%
G90
G05
M72
T1
X04226Y-035346
X04226Y-037
X04226Y-038654
X04226Y-040307
X04228Y-026346
X04228Y-028
X04228Y-029654
X04228Y-031307
X044426Y-035346
X044426Y-037
X044426Y-038654
X044426Y-040307
X044445Y-026346
X044445Y-028
X044445Y-029654
X044445Y-031307
X051567Y-026346
X051567Y-028
X051567Y-029654
X051567Y-031307
X051567Y-035346
X051567Y-037
X051567Y-038654
X051567Y-040307
X053733Y-026346
X053733Y-028
X053733Y-029654
X053733Y-031307
X053733Y-035346
X053733Y-037
X053733Y-038654
X053733Y-040307
T2
X04Y-024
X04Y-0429
X056Y-024
X056Y-0429
T0
M30
