M48
;DRILL file {KiCad 4.0.7} date 04/09/18 21:23:17
;FORMAT={3:3/ absolute / metric / suppress trailing zeros}
FMAT,2
METRIC,LZ
T1C1.600
T2C3.200
%
G90
G05
M71
T1
X123495Y-105458
X123495Y-117958
X1238Y-12532
X1238Y-137
X127295Y-105458
X127295Y-117958
X1278Y-12532
X1278Y-137
X138495Y-105458
X138495Y-117958
X1388Y-12532
X1388Y-137
X142295Y-105458
X142295Y-117958
X1428Y-12532
X1428Y-137
X157023Y-105458
X157023Y-117958
X1574Y-125441
X1574Y-137121
X160823Y-105458
X160823Y-117958
X1614Y-125441
X1614Y-137121
X172023Y-105458
X172023Y-117958
X1724Y-125441
X1724Y-137121
X175823Y-105458
X175823Y-117958
X1764Y-125441
X1764Y-137121
T2
X111Y-098
X111Y-146
X1896Y-098
X1896Y-146
T0
M30
