G04 #@! TF.FileFunction,Copper,L2,Bot,Signal*
%FSLAX46Y46*%
G04 Gerber Fmt 4.6, Leading zero omitted, Abs format (unit mm)*
G04 Created by KiCad (PCBNEW 4.0.7) date 03/15/18 11:45:02*
%MOMM*%
%LPD*%
G01*
G04 APERTURE LIST*
%ADD10C,0.100000*%
%ADD11C,4.064000*%
%ADD12C,2.800000*%
%ADD13C,0.254000*%
G04 APERTURE END LIST*
D10*
D11*
X185500000Y-144500000D03*
X113500000Y-144500000D03*
X113500000Y-99500000D03*
D12*
X123649200Y-137120800D03*
X127649200Y-137120800D03*
X123649200Y-125440800D03*
X127649200Y-125440800D03*
X138649200Y-125440800D03*
X142649200Y-125440800D03*
X138649200Y-137120800D03*
X142649200Y-137120800D03*
X123494800Y-117957600D03*
X127294800Y-117957600D03*
X123494800Y-105457600D03*
X127294800Y-105457600D03*
X138494800Y-117957600D03*
X142294800Y-117957600D03*
X138494800Y-105457600D03*
X142294800Y-105457600D03*
X157177200Y-137120800D03*
X161177200Y-137120800D03*
X157177200Y-125440800D03*
X161177200Y-125440800D03*
X172177200Y-125440800D03*
X176177200Y-125440800D03*
X172177200Y-137120800D03*
X176177200Y-137120800D03*
X157022800Y-117957600D03*
X160822800Y-117957600D03*
X157022800Y-105457600D03*
X160822800Y-105457600D03*
X172022800Y-117957600D03*
X175822800Y-117957600D03*
X172022800Y-105457600D03*
X175822800Y-105457600D03*
D11*
X185500000Y-99500000D03*
D13*
G36*
X130581400Y-139776200D02*
X120827800Y-139776200D01*
X120827800Y-102997000D01*
X130581400Y-102997000D01*
X130581400Y-139776200D01*
X130581400Y-139776200D01*
G37*
X130581400Y-139776200D02*
X120827800Y-139776200D01*
X120827800Y-102997000D01*
X130581400Y-102997000D01*
X130581400Y-139776200D01*
G36*
X145313400Y-139725400D02*
X135559800Y-139725400D01*
X135559800Y-102946200D01*
X145313400Y-102946200D01*
X145313400Y-139725400D01*
X145313400Y-139725400D01*
G37*
X145313400Y-139725400D02*
X135559800Y-139725400D01*
X135559800Y-102946200D01*
X145313400Y-102946200D01*
X145313400Y-139725400D01*
G36*
X164109400Y-139776200D02*
X154355800Y-139776200D01*
X154355800Y-102997000D01*
X164109400Y-102997000D01*
X164109400Y-139776200D01*
X164109400Y-139776200D01*
G37*
X164109400Y-139776200D02*
X154355800Y-139776200D01*
X154355800Y-102997000D01*
X164109400Y-102997000D01*
X164109400Y-139776200D01*
G36*
X178841400Y-139725400D02*
X169087800Y-139725400D01*
X169087800Y-102946200D01*
X178841400Y-102946200D01*
X178841400Y-139725400D01*
X178841400Y-139725400D01*
G37*
X178841400Y-139725400D02*
X169087800Y-139725400D01*
X169087800Y-102946200D01*
X178841400Y-102946200D01*
X178841400Y-139725400D01*
M02*
