G04 #@! TF.FileFunction,Copper,L2,Bot,Signal*
%FSLAX46Y46*%
G04 Gerber Fmt 4.6, Leading zero omitted, Abs format (unit mm)*
G04 Created by KiCad (PCBNEW 4.0.7) date 04/09/18 21:23:14*
%MOMM*%
%LPD*%
G01*
G04 APERTURE LIST*
%ADD10C,0.100000*%
%ADD11C,2.800000*%
%ADD12C,0.254000*%
G04 APERTURE END LIST*
D10*
D11*
X123800000Y-137000000D03*
X127800000Y-137000000D03*
X123800000Y-125320000D03*
X127800000Y-125320000D03*
X138800000Y-125320000D03*
X142800000Y-125320000D03*
X138800000Y-137000000D03*
X142800000Y-137000000D03*
X123494800Y-117957600D03*
X127294800Y-117957600D03*
X123494800Y-105457600D03*
X127294800Y-105457600D03*
X138494800Y-117957600D03*
X142294800Y-117957600D03*
X138494800Y-105457600D03*
X142294800Y-105457600D03*
X157400000Y-137120800D03*
X161400000Y-137120800D03*
X157400000Y-125440800D03*
X161400000Y-125440800D03*
X172400000Y-125440800D03*
X176400000Y-125440800D03*
X172400000Y-137120800D03*
X176400000Y-137120800D03*
X157022800Y-117957600D03*
X160822800Y-117957600D03*
X157022800Y-105457600D03*
X160822800Y-105457600D03*
X172022800Y-117957600D03*
X175822800Y-117957600D03*
X172022800Y-105457600D03*
X175822800Y-105457600D03*
D12*
G36*
X145313400Y-139725400D02*
X135559800Y-139725400D01*
X135559800Y-102946200D01*
X145313400Y-102946200D01*
X145313400Y-139725400D01*
X145313400Y-139725400D01*
G37*
X145313400Y-139725400D02*
X135559800Y-139725400D01*
X135559800Y-102946200D01*
X145313400Y-102946200D01*
X145313400Y-139725400D01*
G36*
X164109400Y-139776200D02*
X154355800Y-139776200D01*
X154355800Y-102997000D01*
X164109400Y-102997000D01*
X164109400Y-139776200D01*
X164109400Y-139776200D01*
G37*
X164109400Y-139776200D02*
X154355800Y-139776200D01*
X154355800Y-102997000D01*
X164109400Y-102997000D01*
X164109400Y-139776200D01*
G36*
X178841400Y-139725400D02*
X169087800Y-139725400D01*
X169087800Y-102946200D01*
X178841400Y-102946200D01*
X178841400Y-139725400D01*
X178841400Y-139725400D01*
G37*
X178841400Y-139725400D02*
X169087800Y-139725400D01*
X169087800Y-102946200D01*
X178841400Y-102946200D01*
X178841400Y-139725400D01*
G36*
X130581400Y-139776200D02*
X120827800Y-139776200D01*
X120827800Y-102997000D01*
X130581400Y-102997000D01*
X130581400Y-139776200D01*
X130581400Y-139776200D01*
G37*
X130581400Y-139776200D02*
X120827800Y-139776200D01*
X120827800Y-102997000D01*
X130581400Y-102997000D01*
X130581400Y-139776200D01*
M02*
