G04 #@! TF.FileFunction,Copper,L1,Top,Signal*
%FSLAX46Y46*%
G04 Gerber Fmt 4.6, Leading zero omitted, Abs format (unit mm)*
G04 Created by KiCad (PCBNEW 4.0.7) date 05/16/18 04:16:24*
%MOMM*%
%LPD*%
G01*
G04 APERTURE LIST*
%ADD10C,0.100000*%
%ADD11R,1.600000X1.600000*%
%ADD12C,1.600000*%
%ADD13C,2.400000*%
%ADD14C,1.000000*%
%ADD15R,3.000000X3.000000*%
%ADD16C,3.000000*%
%ADD17C,2.800000*%
%ADD18R,1.000000X1.524000*%
%ADD19R,1.500000X1.300000*%
%ADD20C,1.250000*%
%ADD21C,0.250000*%
%ADD22C,0.500000*%
%ADD23C,0.254000*%
G04 APERTURE END LIST*
D10*
D11*
X124928000Y-103124000D03*
D12*
X122428000Y-103124000D03*
D13*
X104089272Y-129604668D03*
X109769272Y-129604668D03*
X109769272Y-116464668D03*
X104099272Y-116464668D03*
D14*
X106089272Y-119534668D03*
X106089272Y-126534668D03*
X106089272Y-124034668D03*
X106089272Y-122034668D03*
X107589272Y-119034668D03*
X107589272Y-121034668D03*
X107589272Y-123024668D03*
X107589272Y-125034668D03*
X107589272Y-127034668D03*
X109289272Y-126534668D03*
X109289272Y-124034668D03*
X109289272Y-122034668D03*
X109289272Y-119534668D03*
X110789272Y-119034668D03*
X110789272Y-121034668D03*
X110789272Y-123034668D03*
X110789272Y-125034668D03*
X110789272Y-127034668D03*
D13*
X121170272Y-129572668D03*
X115490272Y-129572668D03*
X115490272Y-116432668D03*
X121160272Y-116432668D03*
D14*
X119170272Y-119502668D03*
X119170272Y-126502668D03*
X119170272Y-124002668D03*
X119170272Y-122002668D03*
X117670272Y-119002668D03*
X117670272Y-121002668D03*
X117670272Y-122992668D03*
X117670272Y-125002668D03*
X117670272Y-127002668D03*
X115970272Y-126502668D03*
X115970272Y-124002668D03*
X115970272Y-122002668D03*
X115970272Y-119502668D03*
X114470272Y-119002668D03*
X114470272Y-121002668D03*
X114470272Y-123002668D03*
X114470272Y-125002668D03*
X114470272Y-127002668D03*
D15*
X149987000Y-108966000D03*
D16*
X149987000Y-103886000D03*
X149987000Y-98806000D03*
X149987000Y-93726000D03*
X149987000Y-88646000D03*
X149987000Y-83566000D03*
D17*
X99768000Y-85608000D03*
X99768000Y-89408000D03*
X112268000Y-85608000D03*
X112268000Y-89408000D03*
X99768000Y-100608000D03*
X99768000Y-104408000D03*
X112268000Y-100608000D03*
X112268000Y-104408000D03*
D16*
X96967000Y-73787000D03*
X101957000Y-73797000D03*
X106957000Y-73797000D03*
X111967000Y-73787000D03*
X116967000Y-73787000D03*
X121957000Y-73797000D03*
X126957000Y-73797000D03*
X131967000Y-73787000D03*
X136967000Y-73787000D03*
X141967000Y-73787000D03*
D18*
X137033000Y-82804000D03*
X137033000Y-85344000D03*
X137033000Y-87884000D03*
X137033000Y-90424000D03*
X137033000Y-95504000D03*
X137033000Y-100584000D03*
X137033000Y-92964000D03*
X137033000Y-98044000D03*
X137033000Y-110744000D03*
X137033000Y-103124000D03*
X137033000Y-105664000D03*
X137033000Y-108204000D03*
D19*
X122856000Y-82804000D03*
X125556000Y-82804000D03*
D20*
X143584776Y-93726000D02*
X145870776Y-93726000D01*
D21*
X145870776Y-93726000D02*
X146124776Y-93980000D01*
D20*
X146378776Y-93726000D02*
X146124776Y-93726000D01*
X146124776Y-93726000D02*
X146124776Y-93980000D01*
X146124776Y-87428224D02*
X146124776Y-93726000D01*
X143584776Y-93726000D02*
X139446000Y-93726000D01*
X146124776Y-93980000D02*
X146124776Y-100023776D01*
X146378776Y-93726000D02*
X149987000Y-93726000D01*
X149987000Y-83566000D02*
X146124776Y-87428224D01*
X146124776Y-100023776D02*
X148487001Y-102386001D01*
X148487001Y-102386001D02*
X149987000Y-103886000D01*
X137033000Y-95504000D02*
X117372000Y-95504000D01*
X117372000Y-95504000D02*
X112268000Y-100608000D01*
D21*
X112268000Y-100608000D02*
X112385282Y-100608000D01*
D20*
X122428000Y-103124000D02*
X113552000Y-103124000D01*
D21*
X113552000Y-103124000D02*
X112268000Y-104408000D01*
X112292000Y-100584000D02*
X112268000Y-100608000D01*
D20*
X106172000Y-77978000D02*
X106014503Y-77978000D01*
X106014503Y-77978000D02*
X101957000Y-73920497D01*
X101957000Y-73920497D02*
X101957000Y-73797000D01*
X132080000Y-77978000D02*
X137776000Y-77978000D01*
X137776000Y-77978000D02*
X141967000Y-73787000D01*
X121920000Y-77978000D02*
X132080000Y-77978000D01*
X132080000Y-77978000D02*
X131967000Y-77865000D01*
X131967000Y-77865000D02*
X131967000Y-73787000D01*
X121920000Y-77978000D02*
X121957000Y-77941000D01*
X121957000Y-77941000D02*
X121957000Y-73797000D01*
X112014000Y-77978000D02*
X121920000Y-77978000D01*
X112014000Y-77978000D02*
X111967000Y-77931000D01*
X111967000Y-77931000D02*
X111967000Y-73787000D01*
X106172000Y-77978000D02*
X112014000Y-77978000D01*
X106172000Y-94234000D02*
X106172000Y-77978000D01*
X101197999Y-99208001D02*
X106172000Y-94234000D01*
X99768000Y-100608000D02*
X101167999Y-99208001D01*
X101167999Y-99208001D02*
X101197999Y-99208001D01*
D21*
X107589272Y-119034668D02*
X108578428Y-118045512D01*
X108578428Y-118045512D02*
X116713116Y-118045512D01*
X117170273Y-118502669D02*
X117670272Y-119002668D01*
X116713116Y-118045512D02*
X117170273Y-118502669D01*
X107589272Y-121034668D02*
X109340363Y-121034668D01*
X109340363Y-121034668D02*
X110303961Y-120071070D01*
X115060041Y-120071070D02*
X115991639Y-121002668D01*
X110303961Y-120071070D02*
X115060041Y-120071070D01*
X116963166Y-121002668D02*
X117670272Y-121002668D01*
X115991639Y-121002668D02*
X116963166Y-121002668D01*
X107589272Y-123024668D02*
X105658054Y-123024668D01*
X105658054Y-123024668D02*
X105038154Y-122404768D01*
X105038154Y-122404768D02*
X105038154Y-118554438D01*
X120198871Y-118563756D02*
X120198871Y-122474075D01*
X105038154Y-118554438D02*
X108843992Y-114748600D01*
X108843992Y-114748600D02*
X116383715Y-114748600D01*
X116383715Y-114748600D02*
X120198871Y-118563756D01*
X120198871Y-122474075D02*
X119680278Y-122992668D01*
X119680278Y-122992668D02*
X118377378Y-122992668D01*
X118377378Y-122992668D02*
X117670272Y-122992668D01*
X107589272Y-125034668D02*
X109324521Y-125034668D01*
X109324521Y-125034668D02*
X110287803Y-125997950D01*
X110287803Y-125997950D02*
X115047652Y-125997950D01*
X115047652Y-125997950D02*
X116042934Y-125002668D01*
X116042934Y-125002668D02*
X116963166Y-125002668D01*
X116963166Y-125002668D02*
X117670272Y-125002668D01*
X107589272Y-127034668D02*
X108414273Y-127859669D01*
X108414273Y-127859669D02*
X116813271Y-127859669D01*
X116813271Y-127859669D02*
X117170273Y-127502667D01*
X117170273Y-127502667D02*
X117670272Y-127002668D01*
X109289272Y-124034668D02*
X115938272Y-124034668D01*
X115938272Y-124034668D02*
X115970272Y-124002668D01*
X109289272Y-122034668D02*
X115938272Y-122034668D01*
X115938272Y-122034668D02*
X115970272Y-122002668D01*
X110789272Y-119034668D02*
X114438272Y-119034668D01*
X114438272Y-119034668D02*
X114470272Y-119002668D01*
X110789272Y-121034668D02*
X114438272Y-121034668D01*
X114438272Y-121034668D02*
X114470272Y-121002668D01*
X110789272Y-123034668D02*
X114438272Y-123034668D01*
X114438272Y-123034668D02*
X114470272Y-123002668D01*
X110789272Y-125034668D02*
X114438272Y-125034668D01*
X114438272Y-125034668D02*
X114470272Y-125002668D01*
X110789272Y-127034668D02*
X114438272Y-127034668D01*
X114438272Y-127034668D02*
X114470272Y-127002668D01*
D22*
X112268000Y-85608000D02*
X115015245Y-82860755D01*
X115015245Y-82860755D02*
X122465245Y-82860755D01*
X122465245Y-82860755D02*
X122776000Y-82550000D01*
X125476000Y-82550000D02*
X125706989Y-82780989D01*
X125706989Y-82780989D02*
X137009989Y-82780989D01*
X137009989Y-82780989D02*
X137033000Y-82804000D01*
D21*
X136947546Y-82550000D02*
X137033000Y-82635454D01*
X137033000Y-82635454D02*
X137033000Y-82804000D01*
D23*
G36*
X117542595Y-107823000D02*
X94936595Y-107823000D01*
X94936595Y-105849724D01*
X98505882Y-105849724D01*
X98653455Y-106158106D01*
X99408031Y-106451405D01*
X100217409Y-106433614D01*
X100882545Y-106158106D01*
X101030118Y-105849724D01*
X111005882Y-105849724D01*
X111153455Y-106158106D01*
X111908031Y-106451405D01*
X112717409Y-106433614D01*
X113382545Y-106158106D01*
X113530118Y-105849724D01*
X112268000Y-104587605D01*
X111005882Y-105849724D01*
X101030118Y-105849724D01*
X99768000Y-104587605D01*
X98505882Y-105849724D01*
X94936595Y-105849724D01*
X94936595Y-104048031D01*
X97724595Y-104048031D01*
X97742386Y-104857409D01*
X98017894Y-105522545D01*
X98326276Y-105670118D01*
X99588395Y-104408000D01*
X99947605Y-104408000D01*
X101209724Y-105670118D01*
X101518106Y-105522545D01*
X101811405Y-104767969D01*
X101795580Y-104048031D01*
X110224595Y-104048031D01*
X110242386Y-104857409D01*
X110517894Y-105522545D01*
X110826276Y-105670118D01*
X112088395Y-104408000D01*
X112447605Y-104408000D01*
X113709724Y-105670118D01*
X114018106Y-105522545D01*
X114311405Y-104767969D01*
X114293614Y-103958591D01*
X114018106Y-103293455D01*
X113709724Y-103145882D01*
X112447605Y-104408000D01*
X112088395Y-104408000D01*
X110826276Y-103145882D01*
X110517894Y-103293455D01*
X110224595Y-104048031D01*
X101795580Y-104048031D01*
X101793614Y-103958591D01*
X101518106Y-103293455D01*
X101209724Y-103145882D01*
X99947605Y-104408000D01*
X99588395Y-104408000D01*
X98326276Y-103145882D01*
X98017894Y-103293455D01*
X97724595Y-104048031D01*
X94936595Y-104048031D01*
X94936595Y-102049724D01*
X98505882Y-102049724D01*
X98653455Y-102358106D01*
X99026833Y-102503236D01*
X98653455Y-102657894D01*
X98505882Y-102966276D01*
X99768000Y-104228395D01*
X101030118Y-102966276D01*
X100882545Y-102657894D01*
X100509167Y-102512764D01*
X100882545Y-102358106D01*
X101030118Y-102049724D01*
X111005882Y-102049724D01*
X111153455Y-102358106D01*
X111526833Y-102503236D01*
X111153455Y-102657894D01*
X111005882Y-102966276D01*
X112268000Y-104228395D01*
X113530118Y-102966276D01*
X113382545Y-102657894D01*
X113009167Y-102512764D01*
X113382545Y-102358106D01*
X113530118Y-102049724D01*
X112268000Y-100787605D01*
X111005882Y-102049724D01*
X101030118Y-102049724D01*
X99768000Y-100787605D01*
X98505882Y-102049724D01*
X94936595Y-102049724D01*
X94936595Y-100248031D01*
X97724595Y-100248031D01*
X97742386Y-101057409D01*
X98017894Y-101722545D01*
X98326276Y-101870118D01*
X99588395Y-100608000D01*
X99947605Y-100608000D01*
X101209724Y-101870118D01*
X101518106Y-101722545D01*
X101811405Y-100967969D01*
X101795580Y-100248031D01*
X110224595Y-100248031D01*
X110242386Y-101057409D01*
X110517894Y-101722545D01*
X110826276Y-101870118D01*
X112088395Y-100608000D01*
X112447605Y-100608000D01*
X113709724Y-101870118D01*
X114018106Y-101722545D01*
X114311405Y-100967969D01*
X114293614Y-100158591D01*
X114018106Y-99493455D01*
X113709724Y-99345882D01*
X112447605Y-100608000D01*
X112088395Y-100608000D01*
X110826276Y-99345882D01*
X110517894Y-99493455D01*
X110224595Y-100248031D01*
X101795580Y-100248031D01*
X101793614Y-100158591D01*
X101518106Y-99493455D01*
X101209724Y-99345882D01*
X99947605Y-100608000D01*
X99588395Y-100608000D01*
X98326276Y-99345882D01*
X98017894Y-99493455D01*
X97724595Y-100248031D01*
X94936595Y-100248031D01*
X94936595Y-99166276D01*
X98505882Y-99166276D01*
X99768000Y-100428395D01*
X101030118Y-99166276D01*
X111005882Y-99166276D01*
X112268000Y-100428395D01*
X113530118Y-99166276D01*
X113382545Y-98857894D01*
X112627969Y-98564595D01*
X111818591Y-98582386D01*
X111153455Y-98857894D01*
X111005882Y-99166276D01*
X101030118Y-99166276D01*
X100882545Y-98857894D01*
X100127969Y-98564595D01*
X99318591Y-98582386D01*
X98653455Y-98857894D01*
X98505882Y-99166276D01*
X94936595Y-99166276D01*
X94936595Y-97663000D01*
X117542595Y-97663000D01*
X117542595Y-107823000D01*
X117542595Y-107823000D01*
G37*
X117542595Y-107823000D02*
X94936595Y-107823000D01*
X94936595Y-105849724D01*
X98505882Y-105849724D01*
X98653455Y-106158106D01*
X99408031Y-106451405D01*
X100217409Y-106433614D01*
X100882545Y-106158106D01*
X101030118Y-105849724D01*
X111005882Y-105849724D01*
X111153455Y-106158106D01*
X111908031Y-106451405D01*
X112717409Y-106433614D01*
X113382545Y-106158106D01*
X113530118Y-105849724D01*
X112268000Y-104587605D01*
X111005882Y-105849724D01*
X101030118Y-105849724D01*
X99768000Y-104587605D01*
X98505882Y-105849724D01*
X94936595Y-105849724D01*
X94936595Y-104048031D01*
X97724595Y-104048031D01*
X97742386Y-104857409D01*
X98017894Y-105522545D01*
X98326276Y-105670118D01*
X99588395Y-104408000D01*
X99947605Y-104408000D01*
X101209724Y-105670118D01*
X101518106Y-105522545D01*
X101811405Y-104767969D01*
X101795580Y-104048031D01*
X110224595Y-104048031D01*
X110242386Y-104857409D01*
X110517894Y-105522545D01*
X110826276Y-105670118D01*
X112088395Y-104408000D01*
X112447605Y-104408000D01*
X113709724Y-105670118D01*
X114018106Y-105522545D01*
X114311405Y-104767969D01*
X114293614Y-103958591D01*
X114018106Y-103293455D01*
X113709724Y-103145882D01*
X112447605Y-104408000D01*
X112088395Y-104408000D01*
X110826276Y-103145882D01*
X110517894Y-103293455D01*
X110224595Y-104048031D01*
X101795580Y-104048031D01*
X101793614Y-103958591D01*
X101518106Y-103293455D01*
X101209724Y-103145882D01*
X99947605Y-104408000D01*
X99588395Y-104408000D01*
X98326276Y-103145882D01*
X98017894Y-103293455D01*
X97724595Y-104048031D01*
X94936595Y-104048031D01*
X94936595Y-102049724D01*
X98505882Y-102049724D01*
X98653455Y-102358106D01*
X99026833Y-102503236D01*
X98653455Y-102657894D01*
X98505882Y-102966276D01*
X99768000Y-104228395D01*
X101030118Y-102966276D01*
X100882545Y-102657894D01*
X100509167Y-102512764D01*
X100882545Y-102358106D01*
X101030118Y-102049724D01*
X111005882Y-102049724D01*
X111153455Y-102358106D01*
X111526833Y-102503236D01*
X111153455Y-102657894D01*
X111005882Y-102966276D01*
X112268000Y-104228395D01*
X113530118Y-102966276D01*
X113382545Y-102657894D01*
X113009167Y-102512764D01*
X113382545Y-102358106D01*
X113530118Y-102049724D01*
X112268000Y-100787605D01*
X111005882Y-102049724D01*
X101030118Y-102049724D01*
X99768000Y-100787605D01*
X98505882Y-102049724D01*
X94936595Y-102049724D01*
X94936595Y-100248031D01*
X97724595Y-100248031D01*
X97742386Y-101057409D01*
X98017894Y-101722545D01*
X98326276Y-101870118D01*
X99588395Y-100608000D01*
X99947605Y-100608000D01*
X101209724Y-101870118D01*
X101518106Y-101722545D01*
X101811405Y-100967969D01*
X101795580Y-100248031D01*
X110224595Y-100248031D01*
X110242386Y-101057409D01*
X110517894Y-101722545D01*
X110826276Y-101870118D01*
X112088395Y-100608000D01*
X112447605Y-100608000D01*
X113709724Y-101870118D01*
X114018106Y-101722545D01*
X114311405Y-100967969D01*
X114293614Y-100158591D01*
X114018106Y-99493455D01*
X113709724Y-99345882D01*
X112447605Y-100608000D01*
X112088395Y-100608000D01*
X110826276Y-99345882D01*
X110517894Y-99493455D01*
X110224595Y-100248031D01*
X101795580Y-100248031D01*
X101793614Y-100158591D01*
X101518106Y-99493455D01*
X101209724Y-99345882D01*
X99947605Y-100608000D01*
X99588395Y-100608000D01*
X98326276Y-99345882D01*
X98017894Y-99493455D01*
X97724595Y-100248031D01*
X94936595Y-100248031D01*
X94936595Y-99166276D01*
X98505882Y-99166276D01*
X99768000Y-100428395D01*
X101030118Y-99166276D01*
X111005882Y-99166276D01*
X112268000Y-100428395D01*
X113530118Y-99166276D01*
X113382545Y-98857894D01*
X112627969Y-98564595D01*
X111818591Y-98582386D01*
X111153455Y-98857894D01*
X111005882Y-99166276D01*
X101030118Y-99166276D01*
X100882545Y-98857894D01*
X100127969Y-98564595D01*
X99318591Y-98582386D01*
X98653455Y-98857894D01*
X98505882Y-99166276D01*
X94936595Y-99166276D01*
X94936595Y-97663000D01*
X117542595Y-97663000D01*
X117542595Y-107823000D01*
G36*
X135898000Y-92075691D02*
X135898000Y-92678250D01*
X136056750Y-92837000D01*
X136906000Y-92837000D01*
X136906000Y-92817000D01*
X137160000Y-92817000D01*
X137160000Y-92837000D01*
X138009250Y-92837000D01*
X138168000Y-92678250D01*
X138168000Y-92075691D01*
X138167714Y-92075000D01*
X141097000Y-92075000D01*
X141097000Y-101588366D01*
X138119928Y-101588366D01*
X138168000Y-101472309D01*
X138168000Y-100869750D01*
X138009250Y-100711000D01*
X137160000Y-100711000D01*
X137160000Y-100731000D01*
X136906000Y-100731000D01*
X136906000Y-100711000D01*
X136056750Y-100711000D01*
X135898000Y-100869750D01*
X135898000Y-101472309D01*
X135946072Y-101588366D01*
X135001000Y-101588366D01*
X135001000Y-98329750D01*
X135898000Y-98329750D01*
X135898000Y-98932309D01*
X135994673Y-99165698D01*
X136142974Y-99314000D01*
X135994673Y-99462302D01*
X135898000Y-99695691D01*
X135898000Y-100298250D01*
X136056750Y-100457000D01*
X136906000Y-100457000D01*
X136906000Y-99345750D01*
X136874250Y-99314000D01*
X136906000Y-99282250D01*
X136906000Y-98171000D01*
X137160000Y-98171000D01*
X137160000Y-99282250D01*
X137191750Y-99314000D01*
X137160000Y-99345750D01*
X137160000Y-100457000D01*
X138009250Y-100457000D01*
X138168000Y-100298250D01*
X138168000Y-99695691D01*
X138071327Y-99462302D01*
X137923026Y-99314000D01*
X138071327Y-99165698D01*
X138168000Y-98932309D01*
X138168000Y-98329750D01*
X138009250Y-98171000D01*
X137160000Y-98171000D01*
X136906000Y-98171000D01*
X136056750Y-98171000D01*
X135898000Y-98329750D01*
X135001000Y-98329750D01*
X135001000Y-95789750D01*
X135898000Y-95789750D01*
X135898000Y-96392309D01*
X135994673Y-96625698D01*
X136142974Y-96774000D01*
X135994673Y-96922302D01*
X135898000Y-97155691D01*
X135898000Y-97758250D01*
X136056750Y-97917000D01*
X136906000Y-97917000D01*
X136906000Y-96805750D01*
X136874250Y-96774000D01*
X136906000Y-96742250D01*
X136906000Y-95631000D01*
X137160000Y-95631000D01*
X137160000Y-96742250D01*
X137191750Y-96774000D01*
X137160000Y-96805750D01*
X137160000Y-97917000D01*
X138009250Y-97917000D01*
X138168000Y-97758250D01*
X138168000Y-97155691D01*
X138071327Y-96922302D01*
X137923026Y-96774000D01*
X138071327Y-96625698D01*
X138168000Y-96392309D01*
X138168000Y-95789750D01*
X138009250Y-95631000D01*
X137160000Y-95631000D01*
X136906000Y-95631000D01*
X136056750Y-95631000D01*
X135898000Y-95789750D01*
X135001000Y-95789750D01*
X135001000Y-93249750D01*
X135898000Y-93249750D01*
X135898000Y-93852309D01*
X135994673Y-94085698D01*
X136142974Y-94234000D01*
X135994673Y-94382302D01*
X135898000Y-94615691D01*
X135898000Y-95218250D01*
X136056750Y-95377000D01*
X136906000Y-95377000D01*
X136906000Y-94265750D01*
X136874250Y-94234000D01*
X136906000Y-94202250D01*
X136906000Y-93091000D01*
X137160000Y-93091000D01*
X137160000Y-94202250D01*
X137191750Y-94234000D01*
X137160000Y-94265750D01*
X137160000Y-95377000D01*
X138009250Y-95377000D01*
X138168000Y-95218250D01*
X138168000Y-94615691D01*
X138071327Y-94382302D01*
X137923026Y-94234000D01*
X138071327Y-94085698D01*
X138168000Y-93852309D01*
X138168000Y-93249750D01*
X138009250Y-93091000D01*
X137160000Y-93091000D01*
X136906000Y-93091000D01*
X136056750Y-93091000D01*
X135898000Y-93249750D01*
X135001000Y-93249750D01*
X135001000Y-92075000D01*
X135898286Y-92075000D01*
X135898000Y-92075691D01*
X135898000Y-92075691D01*
G37*
X135898000Y-92075691D02*
X135898000Y-92678250D01*
X136056750Y-92837000D01*
X136906000Y-92837000D01*
X136906000Y-92817000D01*
X137160000Y-92817000D01*
X137160000Y-92837000D01*
X138009250Y-92837000D01*
X138168000Y-92678250D01*
X138168000Y-92075691D01*
X138167714Y-92075000D01*
X141097000Y-92075000D01*
X141097000Y-101588366D01*
X138119928Y-101588366D01*
X138168000Y-101472309D01*
X138168000Y-100869750D01*
X138009250Y-100711000D01*
X137160000Y-100711000D01*
X137160000Y-100731000D01*
X136906000Y-100731000D01*
X136906000Y-100711000D01*
X136056750Y-100711000D01*
X135898000Y-100869750D01*
X135898000Y-101472309D01*
X135946072Y-101588366D01*
X135001000Y-101588366D01*
X135001000Y-98329750D01*
X135898000Y-98329750D01*
X135898000Y-98932309D01*
X135994673Y-99165698D01*
X136142974Y-99314000D01*
X135994673Y-99462302D01*
X135898000Y-99695691D01*
X135898000Y-100298250D01*
X136056750Y-100457000D01*
X136906000Y-100457000D01*
X136906000Y-99345750D01*
X136874250Y-99314000D01*
X136906000Y-99282250D01*
X136906000Y-98171000D01*
X137160000Y-98171000D01*
X137160000Y-99282250D01*
X137191750Y-99314000D01*
X137160000Y-99345750D01*
X137160000Y-100457000D01*
X138009250Y-100457000D01*
X138168000Y-100298250D01*
X138168000Y-99695691D01*
X138071327Y-99462302D01*
X137923026Y-99314000D01*
X138071327Y-99165698D01*
X138168000Y-98932309D01*
X138168000Y-98329750D01*
X138009250Y-98171000D01*
X137160000Y-98171000D01*
X136906000Y-98171000D01*
X136056750Y-98171000D01*
X135898000Y-98329750D01*
X135001000Y-98329750D01*
X135001000Y-95789750D01*
X135898000Y-95789750D01*
X135898000Y-96392309D01*
X135994673Y-96625698D01*
X136142974Y-96774000D01*
X135994673Y-96922302D01*
X135898000Y-97155691D01*
X135898000Y-97758250D01*
X136056750Y-97917000D01*
X136906000Y-97917000D01*
X136906000Y-96805750D01*
X136874250Y-96774000D01*
X136906000Y-96742250D01*
X136906000Y-95631000D01*
X137160000Y-95631000D01*
X137160000Y-96742250D01*
X137191750Y-96774000D01*
X137160000Y-96805750D01*
X137160000Y-97917000D01*
X138009250Y-97917000D01*
X138168000Y-97758250D01*
X138168000Y-97155691D01*
X138071327Y-96922302D01*
X137923026Y-96774000D01*
X138071327Y-96625698D01*
X138168000Y-96392309D01*
X138168000Y-95789750D01*
X138009250Y-95631000D01*
X137160000Y-95631000D01*
X136906000Y-95631000D01*
X136056750Y-95631000D01*
X135898000Y-95789750D01*
X135001000Y-95789750D01*
X135001000Y-93249750D01*
X135898000Y-93249750D01*
X135898000Y-93852309D01*
X135994673Y-94085698D01*
X136142974Y-94234000D01*
X135994673Y-94382302D01*
X135898000Y-94615691D01*
X135898000Y-95218250D01*
X136056750Y-95377000D01*
X136906000Y-95377000D01*
X136906000Y-94265750D01*
X136874250Y-94234000D01*
X136906000Y-94202250D01*
X136906000Y-93091000D01*
X137160000Y-93091000D01*
X137160000Y-94202250D01*
X137191750Y-94234000D01*
X137160000Y-94265750D01*
X137160000Y-95377000D01*
X138009250Y-95377000D01*
X138168000Y-95218250D01*
X138168000Y-94615691D01*
X138071327Y-94382302D01*
X137923026Y-94234000D01*
X138071327Y-94085698D01*
X138168000Y-93852309D01*
X138168000Y-93249750D01*
X138009250Y-93091000D01*
X137160000Y-93091000D01*
X136906000Y-93091000D01*
X136056750Y-93091000D01*
X135898000Y-93249750D01*
X135001000Y-93249750D01*
X135001000Y-92075000D01*
X135898286Y-92075000D01*
X135898000Y-92075691D01*
M02*
