G04 #@! TF.FileFunction,Legend,Bot*
%FSLAX46Y46*%
G04 Gerber Fmt 4.6, Leading zero omitted, Abs format (unit mm)*
G04 Created by KiCad (PCBNEW 4.0.7) date 05/16/18 04:16:24*
%MOMM*%
%LPD*%
G01*
G04 APERTURE LIST*
%ADD10C,0.100000*%
%ADD11C,0.170000*%
%ADD12C,0.500000*%
%ADD13C,0.150000*%
%ADD14C,0.010000*%
%ADD15C,3.600000*%
%ADD16R,2.000000X2.000000*%
%ADD17C,2.000000*%
%ADD18C,2.800000*%
%ADD19C,1.400000*%
%ADD20R,3.400000X3.400000*%
%ADD21C,3.400000*%
%ADD22C,3.200000*%
%ADD23R,1.400000X1.924000*%
G04 APERTURE END LIST*
D10*
D11*
X145247429Y-126306381D02*
X144676000Y-126306381D01*
X144961715Y-127306381D02*
X144961715Y-126306381D01*
X144437905Y-126639714D02*
X144199810Y-127306381D01*
X143961714Y-126639714D02*
X144199810Y-127306381D01*
X144295048Y-127544476D01*
X144342667Y-127592095D01*
X144437905Y-127639714D01*
X143580762Y-127306381D02*
X143580762Y-126639714D01*
X143580762Y-126830190D02*
X143533143Y-126734952D01*
X143485524Y-126687333D01*
X143390286Y-126639714D01*
X143295047Y-126639714D01*
X142580761Y-127258762D02*
X142675999Y-127306381D01*
X142866476Y-127306381D01*
X142961714Y-127258762D01*
X143009333Y-127163524D01*
X143009333Y-126782571D01*
X142961714Y-126687333D01*
X142866476Y-126639714D01*
X142675999Y-126639714D01*
X142580761Y-126687333D01*
X142533142Y-126782571D01*
X142533142Y-126877810D01*
X143009333Y-126973048D01*
X141961714Y-127306381D02*
X142056952Y-127258762D01*
X142104571Y-127163524D01*
X142104571Y-126306381D01*
X140818856Y-127306381D02*
X140818856Y-126306381D01*
X140247427Y-127306381D02*
X140675999Y-126734952D01*
X140247427Y-126306381D02*
X140818856Y-126877810D01*
X139771237Y-127258762D02*
X139771237Y-127306381D01*
X139818856Y-127401619D01*
X139866475Y-127449238D01*
X138723618Y-126306381D02*
X138152189Y-126306381D01*
X138437904Y-127306381D02*
X138437904Y-126306381D01*
X137818856Y-127306381D02*
X137818856Y-126306381D01*
X137390284Y-127306381D02*
X137390284Y-126782571D01*
X137437903Y-126687333D01*
X137533141Y-126639714D01*
X137675999Y-126639714D01*
X137771237Y-126687333D01*
X137818856Y-126734952D01*
X136771237Y-127306381D02*
X136866475Y-127258762D01*
X136914094Y-127211143D01*
X136961713Y-127115905D01*
X136961713Y-126830190D01*
X136914094Y-126734952D01*
X136866475Y-126687333D01*
X136771237Y-126639714D01*
X136628379Y-126639714D01*
X136533141Y-126687333D01*
X136485522Y-126734952D01*
X136437903Y-126830190D01*
X136437903Y-127115905D01*
X136485522Y-127211143D01*
X136533141Y-127258762D01*
X136628379Y-127306381D01*
X136771237Y-127306381D01*
X136009332Y-127306381D02*
X136009332Y-126639714D01*
X136009332Y-126734952D02*
X135961713Y-126687333D01*
X135866475Y-126639714D01*
X135723617Y-126639714D01*
X135628379Y-126687333D01*
X135580760Y-126782571D01*
X135580760Y-127306381D01*
X135580760Y-126782571D02*
X135533141Y-126687333D01*
X135437903Y-126639714D01*
X135295046Y-126639714D01*
X135199808Y-126687333D01*
X135152189Y-126782571D01*
X135152189Y-127306381D01*
X134247427Y-127306381D02*
X134247427Y-126782571D01*
X134295046Y-126687333D01*
X134390284Y-126639714D01*
X134580761Y-126639714D01*
X134675999Y-126687333D01*
X134247427Y-127258762D02*
X134342665Y-127306381D01*
X134580761Y-127306381D01*
X134675999Y-127258762D01*
X134723618Y-127163524D01*
X134723618Y-127068286D01*
X134675999Y-126973048D01*
X134580761Y-126925429D01*
X134342665Y-126925429D01*
X134247427Y-126877810D01*
X133818856Y-127258762D02*
X133723618Y-127306381D01*
X133533142Y-127306381D01*
X133437903Y-127258762D01*
X133390284Y-127163524D01*
X133390284Y-127115905D01*
X133437903Y-127020667D01*
X133533142Y-126973048D01*
X133675999Y-126973048D01*
X133771237Y-126925429D01*
X133818856Y-126830190D01*
X133818856Y-126782571D01*
X133771237Y-126687333D01*
X133675999Y-126639714D01*
X133533142Y-126639714D01*
X133437903Y-126687333D01*
X132247427Y-127258762D02*
X132104570Y-127306381D01*
X131866474Y-127306381D01*
X131771236Y-127258762D01*
X131723617Y-127211143D01*
X131675998Y-127115905D01*
X131675998Y-127020667D01*
X131723617Y-126925429D01*
X131771236Y-126877810D01*
X131866474Y-126830190D01*
X132056951Y-126782571D01*
X132152189Y-126734952D01*
X132199808Y-126687333D01*
X132247427Y-126592095D01*
X132247427Y-126496857D01*
X132199808Y-126401619D01*
X132152189Y-126354000D01*
X132056951Y-126306381D01*
X131818855Y-126306381D01*
X131675998Y-126354000D01*
X131199808Y-127258762D02*
X131199808Y-127306381D01*
X131247427Y-127401619D01*
X131295046Y-127449238D01*
X143366476Y-128976381D02*
X143842667Y-128976381D01*
X143842667Y-127976381D01*
X143033143Y-128976381D02*
X143033143Y-128309714D01*
X143033143Y-127976381D02*
X143080762Y-128024000D01*
X143033143Y-128071619D01*
X142985524Y-128024000D01*
X143033143Y-127976381D01*
X143033143Y-128071619D01*
X142652191Y-128309714D02*
X142128381Y-128309714D01*
X142652191Y-128976381D01*
X142128381Y-128976381D01*
X141318857Y-128976381D02*
X141318857Y-128452571D01*
X141366476Y-128357333D01*
X141461714Y-128309714D01*
X141652191Y-128309714D01*
X141747429Y-128357333D01*
X141318857Y-128928762D02*
X141414095Y-128976381D01*
X141652191Y-128976381D01*
X141747429Y-128928762D01*
X141795048Y-128833524D01*
X141795048Y-128738286D01*
X141747429Y-128643048D01*
X141652191Y-128595429D01*
X141414095Y-128595429D01*
X141318857Y-128547810D01*
X139509333Y-128881143D02*
X139556952Y-128928762D01*
X139699809Y-128976381D01*
X139795047Y-128976381D01*
X139937905Y-128928762D01*
X140033143Y-128833524D01*
X140080762Y-128738286D01*
X140128381Y-128547810D01*
X140128381Y-128404952D01*
X140080762Y-128214476D01*
X140033143Y-128119238D01*
X139937905Y-128024000D01*
X139795047Y-127976381D01*
X139699809Y-127976381D01*
X139556952Y-128024000D01*
X139509333Y-128071619D01*
X139033143Y-128928762D02*
X139033143Y-128976381D01*
X139080762Y-129071619D01*
X139128381Y-129119238D01*
X137271238Y-128881143D02*
X137318857Y-128928762D01*
X137461714Y-128976381D01*
X137556952Y-128976381D01*
X137699810Y-128928762D01*
X137795048Y-128833524D01*
X137842667Y-128738286D01*
X137890286Y-128547810D01*
X137890286Y-128404952D01*
X137842667Y-128214476D01*
X137795048Y-128119238D01*
X137699810Y-128024000D01*
X137556952Y-127976381D01*
X137461714Y-127976381D01*
X137318857Y-128024000D01*
X137271238Y-128071619D01*
X136699810Y-128976381D02*
X136795048Y-128928762D01*
X136842667Y-128881143D01*
X136890286Y-128785905D01*
X136890286Y-128500190D01*
X136842667Y-128404952D01*
X136795048Y-128357333D01*
X136699810Y-128309714D01*
X136556952Y-128309714D01*
X136461714Y-128357333D01*
X136414095Y-128404952D01*
X136366476Y-128500190D01*
X136366476Y-128785905D01*
X136414095Y-128881143D01*
X136461714Y-128928762D01*
X136556952Y-128976381D01*
X136699810Y-128976381D01*
X135509333Y-128976381D02*
X135509333Y-127976381D01*
X135509333Y-128928762D02*
X135604571Y-128976381D01*
X135795048Y-128976381D01*
X135890286Y-128928762D01*
X135937905Y-128881143D01*
X135985524Y-128785905D01*
X135985524Y-128500190D01*
X135937905Y-128404952D01*
X135890286Y-128357333D01*
X135795048Y-128309714D01*
X135604571Y-128309714D01*
X135509333Y-128357333D01*
X135128381Y-128309714D02*
X134890286Y-128976381D01*
X134652190Y-128309714D02*
X134890286Y-128976381D01*
X134985524Y-129214476D01*
X135033143Y-129262095D01*
X135128381Y-129309714D01*
X133175999Y-128452571D02*
X133033142Y-128500190D01*
X132985523Y-128547810D01*
X132937904Y-128643048D01*
X132937904Y-128785905D01*
X132985523Y-128881143D01*
X133033142Y-128928762D01*
X133128380Y-128976381D01*
X133509333Y-128976381D01*
X133509333Y-127976381D01*
X133175999Y-127976381D01*
X133080761Y-128024000D01*
X133033142Y-128071619D01*
X132985523Y-128166857D01*
X132985523Y-128262095D01*
X133033142Y-128357333D01*
X133080761Y-128404952D01*
X133175999Y-128452571D01*
X133509333Y-128452571D01*
X132509333Y-128881143D02*
X132461714Y-128928762D01*
X132509333Y-128976381D01*
X132556952Y-128928762D01*
X132509333Y-128881143D01*
X132509333Y-128976381D01*
X139890286Y-129741619D02*
X139842667Y-129694000D01*
X139747429Y-129646381D01*
X139509333Y-129646381D01*
X139414095Y-129694000D01*
X139366476Y-129741619D01*
X139318857Y-129836857D01*
X139318857Y-129932095D01*
X139366476Y-130074952D01*
X139937905Y-130646381D01*
X139318857Y-130646381D01*
X138699810Y-129646381D02*
X138604571Y-129646381D01*
X138509333Y-129694000D01*
X138461714Y-129741619D01*
X138414095Y-129836857D01*
X138366476Y-130027333D01*
X138366476Y-130265429D01*
X138414095Y-130455905D01*
X138461714Y-130551143D01*
X138509333Y-130598762D01*
X138604571Y-130646381D01*
X138699810Y-130646381D01*
X138795048Y-130598762D01*
X138842667Y-130551143D01*
X138890286Y-130455905D01*
X138937905Y-130265429D01*
X138937905Y-130027333D01*
X138890286Y-129836857D01*
X138842667Y-129741619D01*
X138795048Y-129694000D01*
X138699810Y-129646381D01*
X137414095Y-130646381D02*
X137985524Y-130646381D01*
X137699810Y-130646381D02*
X137699810Y-129646381D01*
X137795048Y-129789238D01*
X137890286Y-129884476D01*
X137985524Y-129932095D01*
X136842667Y-130074952D02*
X136937905Y-130027333D01*
X136985524Y-129979714D01*
X137033143Y-129884476D01*
X137033143Y-129836857D01*
X136985524Y-129741619D01*
X136937905Y-129694000D01*
X136842667Y-129646381D01*
X136652190Y-129646381D01*
X136556952Y-129694000D01*
X136509333Y-129741619D01*
X136461714Y-129836857D01*
X136461714Y-129884476D01*
X136509333Y-129979714D01*
X136556952Y-130027333D01*
X136652190Y-130074952D01*
X136842667Y-130074952D01*
X136937905Y-130122571D01*
X136985524Y-130170190D01*
X137033143Y-130265429D01*
X137033143Y-130455905D01*
X136985524Y-130551143D01*
X136937905Y-130598762D01*
X136842667Y-130646381D01*
X136652190Y-130646381D01*
X136556952Y-130598762D01*
X136509333Y-130551143D01*
X136461714Y-130455905D01*
X136461714Y-130265429D01*
X136509333Y-130170190D01*
X136556952Y-130122571D01*
X136652190Y-130074952D01*
D12*
X123062857Y-109180286D02*
X120777143Y-109180286D01*
X100202857Y-113498286D02*
X97917143Y-113498286D01*
X123062857Y-83780286D02*
X120777143Y-83780286D01*
X121920000Y-84923143D02*
X121920000Y-82637429D01*
X100202857Y-77938286D02*
X97917143Y-77938286D01*
X99060000Y-79081143D02*
X99060000Y-76795429D01*
D13*
X94649272Y-130294668D02*
G75*
G02X94989272Y-129934668I350000J10000D01*
G01*
X94979272Y-116134668D02*
G75*
G02X94649272Y-115784668I10000J340000D01*
G01*
X112099272Y-116134668D02*
X112109272Y-129934668D01*
X112109272Y-129934668D02*
X94649272Y-129934668D01*
X94649272Y-129934668D02*
X94649272Y-116134668D01*
X94649272Y-116134668D02*
X112109272Y-116134668D01*
X94688000Y-80528000D02*
X94688000Y-81798000D01*
X117548000Y-80528000D02*
X94688000Y-80528000D01*
X117548000Y-111008000D02*
X117548000Y-80528000D01*
X94688000Y-111008000D02*
X117548000Y-111008000D01*
X94688000Y-81798000D02*
X94688000Y-111008000D01*
D14*
G36*
X139856139Y-116665918D02*
X139706762Y-116670198D01*
X139577803Y-116676541D01*
X139464325Y-116685496D01*
X139361391Y-116697610D01*
X139264066Y-116713430D01*
X139167412Y-116733503D01*
X139099927Y-116749767D01*
X138921662Y-116804100D01*
X138764671Y-116871876D01*
X138628417Y-116953518D01*
X138512366Y-117049452D01*
X138415981Y-117160101D01*
X138338726Y-117285890D01*
X138294139Y-117387419D01*
X138278607Y-117429898D01*
X138265222Y-117470099D01*
X138253824Y-117510224D01*
X138244256Y-117552476D01*
X138236357Y-117599054D01*
X138229969Y-117652161D01*
X138224933Y-117713997D01*
X138221089Y-117786765D01*
X138218278Y-117872665D01*
X138216342Y-117973900D01*
X138215121Y-118092669D01*
X138214456Y-118231176D01*
X138214188Y-118391621D01*
X138214152Y-118494175D01*
X138214100Y-119253000D01*
X139585700Y-119253000D01*
X139585700Y-118544490D01*
X139585701Y-117835981D01*
X139614275Y-117779315D01*
X139654064Y-117728127D01*
X139714261Y-117690129D01*
X139793309Y-117665759D01*
X139889651Y-117655451D01*
X140001729Y-117659644D01*
X140030178Y-117662780D01*
X140109606Y-117675974D01*
X140168651Y-117694632D01*
X140212135Y-117721068D01*
X140244879Y-117757594D01*
X140252450Y-117769397D01*
X140258163Y-117779702D01*
X140262948Y-117791497D01*
X140266889Y-117806986D01*
X140270067Y-117828372D01*
X140272564Y-117857857D01*
X140274461Y-117897644D01*
X140275842Y-117949936D01*
X140276787Y-118016936D01*
X140277378Y-118100846D01*
X140277698Y-118203870D01*
X140277828Y-118328211D01*
X140277850Y-118452900D01*
X140277814Y-118605291D01*
X140277544Y-118734619D01*
X140276801Y-118843217D01*
X140275346Y-118933423D01*
X140272941Y-119007571D01*
X140269345Y-119067997D01*
X140264319Y-119117037D01*
X140257624Y-119157027D01*
X140249020Y-119190302D01*
X140238270Y-119219197D01*
X140225132Y-119246049D01*
X140209368Y-119273193D01*
X140190761Y-119302929D01*
X140168261Y-119337249D01*
X140144076Y-119371081D01*
X140116733Y-119405845D01*
X140084758Y-119442959D01*
X140046679Y-119483845D01*
X140001021Y-119529922D01*
X139946313Y-119582609D01*
X139881080Y-119643328D01*
X139803849Y-119713496D01*
X139713147Y-119794534D01*
X139607502Y-119887863D01*
X139485439Y-119994901D01*
X139350750Y-120112479D01*
X139179105Y-120263852D01*
X139026800Y-120402087D01*
X138892436Y-120528711D01*
X138774615Y-120645250D01*
X138671939Y-120753232D01*
X138583009Y-120854184D01*
X138506427Y-120949633D01*
X138440794Y-121041107D01*
X138384711Y-121130131D01*
X138336781Y-121218233D01*
X138335144Y-121221500D01*
X138300573Y-121294424D01*
X138270663Y-121366705D01*
X138245134Y-121440659D01*
X138223704Y-121518600D01*
X138206093Y-121602842D01*
X138192022Y-121695702D01*
X138181209Y-121799493D01*
X138173374Y-121916531D01*
X138168237Y-122049130D01*
X138165516Y-122199606D01*
X138164933Y-122370273D01*
X138166205Y-122563445D01*
X138166732Y-122611462D01*
X138168747Y-122761539D01*
X138171151Y-122889028D01*
X138174169Y-122996744D01*
X138178024Y-123087500D01*
X138182942Y-123164108D01*
X138189147Y-123229381D01*
X138196862Y-123286132D01*
X138206313Y-123337175D01*
X138217722Y-123385322D01*
X138231316Y-123433385D01*
X138232607Y-123437650D01*
X138243595Y-123475378D01*
X138250657Y-123502724D01*
X138252063Y-123510675D01*
X138239956Y-123513227D01*
X138205778Y-123515520D01*
X138152857Y-123517460D01*
X138084522Y-123518950D01*
X138004100Y-123519895D01*
X137921145Y-123520200D01*
X137820888Y-123520104D01*
X137743248Y-123519690D01*
X137685444Y-123518767D01*
X137644691Y-123517144D01*
X137618209Y-123514630D01*
X137603214Y-123511034D01*
X137596923Y-123506166D01*
X137596556Y-123499834D01*
X137597071Y-123497975D01*
X137620952Y-123411744D01*
X137642899Y-123314118D01*
X137660203Y-123218050D01*
X137668145Y-123158250D01*
X137670297Y-123125237D01*
X137672334Y-123069387D01*
X137674222Y-122993262D01*
X137675925Y-122899426D01*
X137677410Y-122790441D01*
X137678642Y-122668869D01*
X137679586Y-122537274D01*
X137680209Y-122398217D01*
X137680475Y-122254263D01*
X137680480Y-122240675D01*
X137680700Y-121437400D01*
X136246133Y-121437400D01*
X136242692Y-122272425D01*
X136242075Y-122443190D01*
X136241570Y-122590411D01*
X136240934Y-122715940D01*
X136239920Y-122821630D01*
X136238285Y-122909335D01*
X136235784Y-122980907D01*
X136232173Y-123038199D01*
X136227205Y-123083065D01*
X136220638Y-123117356D01*
X136212226Y-123142926D01*
X136201724Y-123161629D01*
X136188888Y-123175316D01*
X136173473Y-123185841D01*
X136155234Y-123195056D01*
X136133928Y-123204816D01*
X136118600Y-123212187D01*
X136085831Y-123227547D01*
X136056394Y-123237624D01*
X136023513Y-123243515D01*
X135980411Y-123246317D01*
X135920312Y-123247129D01*
X135902700Y-123247150D01*
X135811684Y-123244517D01*
X135740580Y-123235634D01*
X135684355Y-123219021D01*
X135637972Y-123193201D01*
X135597065Y-123157381D01*
X135553450Y-123112377D01*
X135553450Y-121773950D01*
X135598966Y-121678700D01*
X135624678Y-121628737D01*
X135654448Y-121579018D01*
X135689737Y-121528045D01*
X135732009Y-121474324D01*
X135782727Y-121416357D01*
X135843354Y-121352648D01*
X135915353Y-121281702D01*
X136000187Y-121202022D01*
X136099319Y-121112112D01*
X136214212Y-121010476D01*
X136346328Y-120895618D01*
X136461779Y-120796314D01*
X136636712Y-120644659D01*
X136791847Y-120506442D01*
X136928255Y-120380620D01*
X137047007Y-120266152D01*
X137149172Y-120161993D01*
X137235821Y-120067102D01*
X137308025Y-119980436D01*
X137333600Y-119947174D01*
X137409479Y-119837769D01*
X137480381Y-119720135D01*
X137542327Y-119601585D01*
X137591341Y-119489434D01*
X137608641Y-119441430D01*
X137621819Y-119400359D01*
X137633114Y-119361138D01*
X137642669Y-119321498D01*
X137650628Y-119279168D01*
X137657132Y-119231878D01*
X137662324Y-119177356D01*
X137666347Y-119113334D01*
X137669344Y-119037539D01*
X137671456Y-118947703D01*
X137672827Y-118841554D01*
X137673599Y-118716823D01*
X137673914Y-118571238D01*
X137673916Y-118402529D01*
X137673916Y-118402100D01*
X137673482Y-117671850D01*
X137639807Y-117548357D01*
X137585550Y-117392598D01*
X137511964Y-117253089D01*
X137418615Y-117129299D01*
X137305071Y-117020701D01*
X137170896Y-116926764D01*
X137096500Y-116885419D01*
X137003287Y-116841242D01*
X136905738Y-116803065D01*
X136799688Y-116769729D01*
X136680974Y-116740075D01*
X136545433Y-116712944D01*
X136388901Y-116687177D01*
X136378950Y-116685679D01*
X136317142Y-116678976D01*
X136234457Y-116673802D01*
X136135370Y-116670128D01*
X136024357Y-116667931D01*
X135905895Y-116667183D01*
X135784458Y-116667858D01*
X135664522Y-116669931D01*
X135550562Y-116673375D01*
X135447054Y-116678164D01*
X135358475Y-116684273D01*
X135289298Y-116691675D01*
X135286750Y-116692033D01*
X135078364Y-116728870D01*
X134892171Y-116777160D01*
X134727486Y-116837321D01*
X134583623Y-116909772D01*
X134459896Y-116994935D01*
X134355620Y-117093227D01*
X134270110Y-117205069D01*
X134202679Y-117330880D01*
X134188851Y-117363849D01*
X134173185Y-117403473D01*
X134159675Y-117439470D01*
X134148148Y-117474003D01*
X134138432Y-117509236D01*
X134130357Y-117547335D01*
X134123750Y-117590463D01*
X134118440Y-117640785D01*
X134114255Y-117700465D01*
X134111023Y-117771667D01*
X134108573Y-117856555D01*
X134106733Y-117957293D01*
X134105331Y-118076047D01*
X134104195Y-118214980D01*
X134103155Y-118376256D01*
X134102714Y-118449724D01*
X134097913Y-119252999D01*
X134784407Y-119252999D01*
X135470900Y-119253000D01*
X135470900Y-118545809D01*
X135470925Y-118393786D01*
X135471049Y-118265043D01*
X135471343Y-118157458D01*
X135471883Y-118068913D01*
X135472741Y-117997285D01*
X135473991Y-117940455D01*
X135475705Y-117896302D01*
X135477957Y-117862706D01*
X135480820Y-117837546D01*
X135484367Y-117818701D01*
X135488672Y-117804052D01*
X135493807Y-117791478D01*
X135497202Y-117784288D01*
X135527302Y-117737906D01*
X135568697Y-117704243D01*
X135625863Y-117680741D01*
X135703277Y-117664840D01*
X135707130Y-117664287D01*
X135824575Y-117655299D01*
X135931398Y-117662394D01*
X136023390Y-117685188D01*
X136048361Y-117695437D01*
X136072801Y-117706367D01*
X136093506Y-117716355D01*
X136110783Y-117727479D01*
X136124942Y-117741814D01*
X136136293Y-117761437D01*
X136145143Y-117788423D01*
X136151803Y-117824849D01*
X136156582Y-117872790D01*
X136159789Y-117934324D01*
X136161733Y-118011525D01*
X136162723Y-118106471D01*
X136163068Y-118221237D01*
X136163078Y-118357899D01*
X136163050Y-118465600D01*
X136163033Y-118611175D01*
X136162920Y-118733618D01*
X136162622Y-118835199D01*
X136162047Y-118918185D01*
X136161106Y-118984845D01*
X136159707Y-119037448D01*
X136157761Y-119078263D01*
X136155177Y-119109557D01*
X136151865Y-119133599D01*
X136147733Y-119152658D01*
X136142692Y-119169003D01*
X136136652Y-119184901D01*
X136134117Y-119191193D01*
X136111994Y-119237500D01*
X136080739Y-119292660D01*
X136046761Y-119345436D01*
X136043606Y-119349943D01*
X136023342Y-119378239D01*
X136003250Y-119405044D01*
X135981954Y-119431645D01*
X135958074Y-119459332D01*
X135930231Y-119489395D01*
X135897047Y-119523123D01*
X135857143Y-119561805D01*
X135809140Y-119606730D01*
X135751660Y-119659188D01*
X135683323Y-119720467D01*
X135602752Y-119791858D01*
X135508568Y-119874650D01*
X135399391Y-119970131D01*
X135273844Y-120079591D01*
X135130547Y-120204319D01*
X135122356Y-120211445D01*
X135047669Y-120277800D01*
X134962197Y-120355992D01*
X134872810Y-120439595D01*
X134786375Y-120522184D01*
X134709762Y-120597333D01*
X134708298Y-120598795D01*
X134567569Y-120745061D01*
X134447799Y-120882502D01*
X134347360Y-121013908D01*
X134264624Y-121142070D01*
X134197960Y-121269779D01*
X134145741Y-121399826D01*
X134106337Y-121535001D01*
X134078120Y-121678096D01*
X134078026Y-121678700D01*
X134072700Y-121715645D01*
X134068252Y-121754106D01*
X134064603Y-121796679D01*
X134061678Y-121845960D01*
X134059400Y-121904544D01*
X134057692Y-121975028D01*
X134056479Y-122060005D01*
X134055684Y-122162073D01*
X134055230Y-122283827D01*
X134055042Y-122427863D01*
X134055029Y-122459750D01*
X134055175Y-122623900D01*
X134055821Y-122765079D01*
X134057131Y-122885711D01*
X134059268Y-122988223D01*
X134062395Y-123075041D01*
X134066675Y-123148589D01*
X134072272Y-123211295D01*
X134079349Y-123265583D01*
X134088069Y-123313880D01*
X134098596Y-123358611D01*
X134111092Y-123402202D01*
X134120422Y-123431300D01*
X134170296Y-123553959D01*
X134239984Y-123678596D01*
X134267817Y-123721117D01*
X134287878Y-123752500D01*
X134299395Y-123773988D01*
X134300550Y-123779537D01*
X134287265Y-123782239D01*
X134252387Y-123787889D01*
X134199481Y-123795950D01*
X134132111Y-123805885D01*
X134053845Y-123817156D01*
X134004050Y-123824209D01*
X133915841Y-123837103D01*
X133808756Y-123853525D01*
X133688916Y-123872492D01*
X133562442Y-123893017D01*
X133435455Y-123914117D01*
X133314075Y-123934806D01*
X133281796Y-123940414D01*
X133179951Y-123958105D01*
X133085700Y-123974312D01*
X133002056Y-123988529D01*
X132932030Y-124000251D01*
X132878636Y-124008973D01*
X132844885Y-124014189D01*
X132834121Y-124015500D01*
X132831739Y-124012482D01*
X132829575Y-124002689D01*
X132827621Y-123985015D01*
X132825865Y-123958350D01*
X132824299Y-123921588D01*
X132822912Y-123873620D01*
X132821694Y-123813339D01*
X132820635Y-123739637D01*
X132819725Y-123651407D01*
X132818955Y-123547540D01*
X132818314Y-123426929D01*
X132817791Y-123288466D01*
X132817378Y-123131043D01*
X132817065Y-122953553D01*
X132816840Y-122754888D01*
X132816695Y-122533939D01*
X132816618Y-122289601D01*
X132816600Y-122072717D01*
X132816601Y-120129935D01*
X132851525Y-120135555D01*
X132876377Y-120138980D01*
X132920921Y-120144571D01*
X132979608Y-120151651D01*
X133046890Y-120159544D01*
X133073571Y-120162617D01*
X133260692Y-120184059D01*
X133266981Y-120223354D01*
X133268797Y-120242488D01*
X133271967Y-120284785D01*
X133276350Y-120348054D01*
X133281805Y-120430103D01*
X133288191Y-120528739D01*
X133295367Y-120641769D01*
X133303191Y-120767003D01*
X133311523Y-120902248D01*
X133320220Y-121045311D01*
X133324711Y-121119900D01*
X133340287Y-121377873D01*
X133354577Y-121611156D01*
X133367628Y-121820423D01*
X133379488Y-122006350D01*
X133390204Y-122169610D01*
X133399824Y-122310880D01*
X133408396Y-122430833D01*
X133415967Y-122530144D01*
X133422584Y-122609489D01*
X133428294Y-122669541D01*
X133433146Y-122710975D01*
X133437187Y-122734467D01*
X133438655Y-122739150D01*
X133445580Y-122749514D01*
X133449354Y-122739182D01*
X133450864Y-122707400D01*
X133451957Y-122675102D01*
X133454331Y-122623288D01*
X133457694Y-122557791D01*
X133461750Y-122484446D01*
X133464299Y-122440700D01*
X133467505Y-122383270D01*
X133471776Y-122301005D01*
X133477088Y-122194448D01*
X133483414Y-122064140D01*
X133490730Y-121910623D01*
X133499010Y-121734439D01*
X133508229Y-121536129D01*
X133518362Y-121316237D01*
X133529382Y-121075302D01*
X133541265Y-120813869D01*
X133553985Y-120532477D01*
X133561317Y-120369667D01*
X133569642Y-120184584D01*
X134053546Y-120104106D01*
X134161377Y-120086007D01*
X134261340Y-120068911D01*
X134350661Y-120053315D01*
X134426568Y-120039718D01*
X134486290Y-120028618D01*
X134527052Y-120020512D01*
X134546083Y-120015900D01*
X134547045Y-120015434D01*
X134537902Y-120011489D01*
X134506117Y-120005091D01*
X134454291Y-119996595D01*
X134385025Y-119986353D01*
X134300923Y-119974720D01*
X134204585Y-119962049D01*
X134098614Y-119948693D01*
X133985612Y-119935005D01*
X133868179Y-119921340D01*
X133789605Y-119912516D01*
X133718687Y-119904393D01*
X133657002Y-119896801D01*
X133608798Y-119890305D01*
X133578320Y-119885471D01*
X133569596Y-119883228D01*
X133567768Y-119869830D01*
X133564652Y-119833522D01*
X133560411Y-119776756D01*
X133555213Y-119701981D01*
X133549221Y-119611647D01*
X133542603Y-119508204D01*
X133535523Y-119394101D01*
X133528147Y-119271788D01*
X133527108Y-119254283D01*
X133518659Y-119112259D01*
X133509687Y-118962574D01*
X133500501Y-118810279D01*
X133491407Y-118660428D01*
X133482713Y-118518074D01*
X133474725Y-118388268D01*
X133467750Y-118276063D01*
X133464542Y-118225025D01*
X133458242Y-118123915D01*
X133452503Y-118029153D01*
X133447523Y-117944197D01*
X133443497Y-117872505D01*
X133440623Y-117817536D01*
X133439097Y-117782747D01*
X133438900Y-117774074D01*
X133438900Y-117729000D01*
X133353931Y-117729000D01*
X133345634Y-117954425D01*
X133341712Y-118057501D01*
X133337004Y-118175365D01*
X133331642Y-118305147D01*
X133325756Y-118443980D01*
X133319477Y-118588996D01*
X133312937Y-118737325D01*
X133306265Y-118886101D01*
X133299593Y-119032454D01*
X133293050Y-119173516D01*
X133286769Y-119306420D01*
X133280880Y-119428296D01*
X133275513Y-119536278D01*
X133270800Y-119627496D01*
X133266871Y-119699082D01*
X133263856Y-119748168D01*
X133263847Y-119748300D01*
X133254750Y-119881650D01*
X133064250Y-119915245D01*
X132995574Y-119927119D01*
X132933949Y-119937334D01*
X132884563Y-119945063D01*
X132852601Y-119949479D01*
X132845175Y-119950170D01*
X132816600Y-119951500D01*
X132816600Y-117729000D01*
X133353931Y-117729000D01*
X133438900Y-117729000D01*
X133908800Y-117729000D01*
X133908800Y-116738400D01*
X130238500Y-116738400D01*
X130238500Y-117728724D01*
X131311650Y-117735350D01*
X131318048Y-124357408D01*
X131270399Y-124369879D01*
X131235569Y-124378859D01*
X131185474Y-124391608D01*
X131129493Y-124405743D01*
X131114800Y-124409433D01*
X130774109Y-124498528D01*
X130415753Y-124599077D01*
X130043978Y-124709683D01*
X129663030Y-124828948D01*
X129277153Y-124955478D01*
X128890594Y-125087874D01*
X128507597Y-125224741D01*
X128132407Y-125364681D01*
X127769270Y-125506297D01*
X127715789Y-125527724D01*
X127505446Y-125613577D01*
X127286234Y-125705433D01*
X127061453Y-125801790D01*
X126834405Y-125901148D01*
X126608388Y-126002007D01*
X126386704Y-126102868D01*
X126172654Y-126202229D01*
X125969537Y-126298591D01*
X125780654Y-126390453D01*
X125609306Y-126476316D01*
X125472706Y-126547279D01*
X125406341Y-126583237D01*
X125354597Y-126612788D01*
X125318979Y-126634905D01*
X125300988Y-126648561D01*
X125302127Y-126652729D01*
X125323899Y-126646382D01*
X125332400Y-126643165D01*
X125666525Y-126515747D01*
X126018555Y-126386115D01*
X126383655Y-126255884D01*
X126756990Y-126126669D01*
X127133724Y-126000085D01*
X127509024Y-125877746D01*
X127878054Y-125761268D01*
X128235979Y-125652264D01*
X128577965Y-125552351D01*
X128710049Y-125515059D01*
X129619610Y-125274197D01*
X130534635Y-125058089D01*
X131454708Y-124866780D01*
X132379417Y-124700314D01*
X133308348Y-124558734D01*
X134241087Y-124442084D01*
X135177220Y-124350408D01*
X136116334Y-124283749D01*
X137058016Y-124242153D01*
X138001851Y-124225661D01*
X138947426Y-124234319D01*
X139894328Y-124268171D01*
X140277850Y-124289043D01*
X141208834Y-124357226D01*
X142137916Y-124450228D01*
X143064026Y-124567865D01*
X143986095Y-124709956D01*
X144903055Y-124876316D01*
X145813835Y-125066763D01*
X146717368Y-125281114D01*
X147612583Y-125519184D01*
X147843965Y-125584980D01*
X148146154Y-125673962D01*
X148461233Y-125770288D01*
X148783892Y-125872203D01*
X149108822Y-125977952D01*
X149430714Y-126085777D01*
X149744259Y-126193924D01*
X150044146Y-126300636D01*
X150325068Y-126404157D01*
X150355300Y-126415545D01*
X150491434Y-126466682D01*
X150616868Y-126513280D01*
X150729898Y-126554735D01*
X150828817Y-126590440D01*
X150911921Y-126619791D01*
X150977505Y-126642183D01*
X151023864Y-126657011D01*
X151049293Y-126663670D01*
X151053800Y-126663426D01*
X151042657Y-126654384D01*
X151010676Y-126635660D01*
X150960034Y-126608319D01*
X150892908Y-126573428D01*
X150811473Y-126532054D01*
X150717905Y-126485265D01*
X150614381Y-126434126D01*
X150503076Y-126379704D01*
X150386167Y-126323066D01*
X150265830Y-126265280D01*
X150144241Y-126207410D01*
X150023576Y-126150526D01*
X149906010Y-126095692D01*
X149793721Y-126043976D01*
X149743480Y-126021092D01*
X149212945Y-125787179D01*
X148672583Y-125562109D01*
X148126016Y-125347162D01*
X147576866Y-125143619D01*
X147028753Y-124952760D01*
X146485300Y-124775866D01*
X145950128Y-124614217D01*
X145426858Y-124469092D01*
X145157825Y-124399873D01*
X145076345Y-124379157D01*
X145003763Y-124360050D01*
X144943493Y-124343505D01*
X144898948Y-124330474D01*
X144873543Y-124321911D01*
X144868900Y-124319257D01*
X144880010Y-124311503D01*
X144909577Y-124298196D01*
X144951954Y-124281800D01*
X144967325Y-124276294D01*
X145064929Y-124238224D01*
X145170879Y-124190557D01*
X145275904Y-124137836D01*
X145370731Y-124084608D01*
X145415000Y-124056880D01*
X145562835Y-123948701D01*
X145688003Y-123832601D01*
X145792762Y-123705555D01*
X145879370Y-123564540D01*
X145950083Y-123406532D01*
X145991019Y-123285250D01*
X146017666Y-123196350D01*
X146021302Y-119967374D01*
X146024938Y-116738399D01*
X145281819Y-116738399D01*
X144538700Y-116738400D01*
X144536715Y-117484525D01*
X144536501Y-117575917D01*
X144536281Y-117690935D01*
X144536055Y-117827808D01*
X144535827Y-117984760D01*
X144535597Y-118160019D01*
X144535368Y-118351812D01*
X144535141Y-118558364D01*
X144534918Y-118777904D01*
X144534701Y-119008657D01*
X144534491Y-119248850D01*
X144534291Y-119496710D01*
X144534102Y-119750464D01*
X144533925Y-120008338D01*
X144533763Y-120268559D01*
X144533617Y-120529354D01*
X144533540Y-120681750D01*
X144533367Y-120929614D01*
X144533095Y-121170803D01*
X144532729Y-121404077D01*
X144532276Y-121628199D01*
X144531742Y-121841931D01*
X144531131Y-122044036D01*
X144530450Y-122233276D01*
X144529705Y-122408412D01*
X144528901Y-122568207D01*
X144528045Y-122711423D01*
X144527142Y-122836822D01*
X144526197Y-122943167D01*
X144525217Y-123029219D01*
X144524207Y-123093742D01*
X144523174Y-123135496D01*
X144522122Y-123153244D01*
X144521988Y-123153716D01*
X144505632Y-123169354D01*
X144472949Y-123189926D01*
X144433088Y-123209995D01*
X144338590Y-123240935D01*
X144238372Y-123253197D01*
X144138431Y-123247199D01*
X144044766Y-123223359D01*
X143963375Y-123182096D01*
X143955706Y-123176713D01*
X143901381Y-123137360D01*
X143903822Y-121299955D01*
X143904122Y-121055239D01*
X143904391Y-120797963D01*
X143904627Y-120531351D01*
X143904830Y-120258627D01*
X143904997Y-119983016D01*
X143905129Y-119707743D01*
X143905223Y-119436031D01*
X143905279Y-119171105D01*
X143905296Y-118916191D01*
X143905272Y-118674512D01*
X143905205Y-118449292D01*
X143905096Y-118243756D01*
X143904982Y-118100475D01*
X143903700Y-116738400D01*
X142404594Y-116738400D01*
X142408655Y-120088025D01*
X142409059Y-120436265D01*
X142409410Y-120760045D01*
X142409731Y-121060304D01*
X142410043Y-121337982D01*
X142410368Y-121594018D01*
X142410729Y-121829353D01*
X142411147Y-122044924D01*
X142411645Y-122241673D01*
X142412244Y-122420539D01*
X142412966Y-122582461D01*
X142413833Y-122728378D01*
X142414867Y-122859231D01*
X142416091Y-122975959D01*
X142417526Y-123079501D01*
X142419194Y-123170798D01*
X142421118Y-123250787D01*
X142423318Y-123320411D01*
X142425818Y-123380607D01*
X142428639Y-123432315D01*
X142431802Y-123476475D01*
X142435331Y-123514026D01*
X142439247Y-123545909D01*
X142443572Y-123573062D01*
X142448328Y-123596426D01*
X142453537Y-123616939D01*
X142459221Y-123635541D01*
X142465402Y-123653172D01*
X142472101Y-123670772D01*
X142479342Y-123689279D01*
X142487146Y-123709635D01*
X142493806Y-123727874D01*
X142510432Y-123777282D01*
X142522129Y-123817190D01*
X142527343Y-123841986D01*
X142526890Y-123847143D01*
X142513072Y-123847141D01*
X142477264Y-123843839D01*
X142422606Y-123837618D01*
X142352240Y-123828861D01*
X142269307Y-123817949D01*
X142176949Y-123805265D01*
X142141898Y-123800324D01*
X142041648Y-123786297D01*
X141944978Y-123773145D01*
X141856036Y-123761402D01*
X141778967Y-123751606D01*
X141717918Y-123744291D01*
X141677034Y-123739994D01*
X141671675Y-123739546D01*
X141627038Y-123735126D01*
X141594347Y-123730035D01*
X141579895Y-123725287D01*
X141579684Y-123724741D01*
X141586244Y-123710129D01*
X141602273Y-123684123D01*
X141605756Y-123678950D01*
X141648361Y-123607869D01*
X141690068Y-123523352D01*
X141725530Y-123436969D01*
X141744727Y-123378226D01*
X141754360Y-123340058D01*
X141762730Y-123297843D01*
X141769919Y-123249657D01*
X141776011Y-123193580D01*
X141781089Y-123127688D01*
X141785235Y-123050058D01*
X141788533Y-122958767D01*
X141791066Y-122851894D01*
X141792916Y-122727516D01*
X141794167Y-122583709D01*
X141794901Y-122418551D01*
X141795202Y-122230121D01*
X141795212Y-122208925D01*
X141795500Y-121437400D01*
X140360400Y-121437400D01*
X140360400Y-122250607D01*
X140360310Y-122420759D01*
X140360015Y-122567246D01*
X140359479Y-122691803D01*
X140358669Y-122796163D01*
X140357549Y-122882062D01*
X140356083Y-122951234D01*
X140354237Y-123005413D01*
X140351976Y-123046334D01*
X140349263Y-123075731D01*
X140346065Y-123095339D01*
X140343077Y-123105275D01*
X140306036Y-123161629D01*
X140248141Y-123205124D01*
X140170804Y-123235129D01*
X140075435Y-123251010D01*
X140012854Y-123253500D01*
X139909695Y-123246466D01*
X139821622Y-123226009D01*
X139750819Y-123193092D01*
X139699476Y-123148681D01*
X139673188Y-123103735D01*
X139670956Y-123085422D01*
X139668883Y-123044289D01*
X139667014Y-122982917D01*
X139665391Y-122903886D01*
X139664057Y-122809778D01*
X139663055Y-122703171D01*
X139662430Y-122586647D01*
X139662224Y-122462786D01*
X139662228Y-122449398D01*
X139662330Y-122307201D01*
X139662538Y-122188027D01*
X139662948Y-122089497D01*
X139663656Y-122009233D01*
X139664760Y-121944859D01*
X139666356Y-121893996D01*
X139668540Y-121854266D01*
X139671408Y-121823291D01*
X139675057Y-121798694D01*
X139679584Y-121778097D01*
X139685085Y-121759123D01*
X139690949Y-121741465D01*
X139711367Y-121688027D01*
X139736596Y-121635046D01*
X139767961Y-121581117D01*
X139806788Y-121524839D01*
X139854402Y-121464807D01*
X139912129Y-121399617D01*
X139981294Y-121327868D01*
X140063224Y-121248155D01*
X140159244Y-121159075D01*
X140270679Y-121059224D01*
X140398855Y-120947200D01*
X140545098Y-120821598D01*
X140620326Y-120757582D01*
X140789386Y-120612248D01*
X140939035Y-120479502D01*
X141070847Y-120357616D01*
X141186392Y-120244863D01*
X141287245Y-120139518D01*
X141374977Y-120039852D01*
X141451160Y-119944140D01*
X141517367Y-119850653D01*
X141575170Y-119757666D01*
X141626141Y-119663452D01*
X141637589Y-119640350D01*
X141673074Y-119565855D01*
X141701816Y-119500238D01*
X141724645Y-119439359D01*
X141742390Y-119379083D01*
X141755879Y-119315271D01*
X141765941Y-119243786D01*
X141773406Y-119160489D01*
X141779101Y-119061245D01*
X141783857Y-118941914D01*
X141785152Y-118903750D01*
X141788123Y-118792667D01*
X141790399Y-118663595D01*
X141791924Y-118523935D01*
X141792641Y-118381088D01*
X141792494Y-118242457D01*
X141791426Y-118115444D01*
X141791266Y-118103650D01*
X141789032Y-117968723D01*
X141786134Y-117855865D01*
X141782067Y-117761742D01*
X141776324Y-117683023D01*
X141768398Y-117616376D01*
X141757782Y-117558470D01*
X141743969Y-117505972D01*
X141726454Y-117455551D01*
X141704729Y-117403874D01*
X141678288Y-117347611D01*
X141675387Y-117341650D01*
X141605536Y-117219666D01*
X141521310Y-117112350D01*
X141420750Y-117018165D01*
X141301899Y-116935575D01*
X141162803Y-116863042D01*
X141001503Y-116799030D01*
X140971541Y-116788820D01*
X140836570Y-116748739D01*
X140695191Y-116716849D01*
X140544186Y-116692796D01*
X140380339Y-116676224D01*
X140200434Y-116666781D01*
X140001254Y-116664110D01*
X139856139Y-116665918D01*
X139856139Y-116665918D01*
G37*
X139856139Y-116665918D02*
X139706762Y-116670198D01*
X139577803Y-116676541D01*
X139464325Y-116685496D01*
X139361391Y-116697610D01*
X139264066Y-116713430D01*
X139167412Y-116733503D01*
X139099927Y-116749767D01*
X138921662Y-116804100D01*
X138764671Y-116871876D01*
X138628417Y-116953518D01*
X138512366Y-117049452D01*
X138415981Y-117160101D01*
X138338726Y-117285890D01*
X138294139Y-117387419D01*
X138278607Y-117429898D01*
X138265222Y-117470099D01*
X138253824Y-117510224D01*
X138244256Y-117552476D01*
X138236357Y-117599054D01*
X138229969Y-117652161D01*
X138224933Y-117713997D01*
X138221089Y-117786765D01*
X138218278Y-117872665D01*
X138216342Y-117973900D01*
X138215121Y-118092669D01*
X138214456Y-118231176D01*
X138214188Y-118391621D01*
X138214152Y-118494175D01*
X138214100Y-119253000D01*
X139585700Y-119253000D01*
X139585700Y-118544490D01*
X139585701Y-117835981D01*
X139614275Y-117779315D01*
X139654064Y-117728127D01*
X139714261Y-117690129D01*
X139793309Y-117665759D01*
X139889651Y-117655451D01*
X140001729Y-117659644D01*
X140030178Y-117662780D01*
X140109606Y-117675974D01*
X140168651Y-117694632D01*
X140212135Y-117721068D01*
X140244879Y-117757594D01*
X140252450Y-117769397D01*
X140258163Y-117779702D01*
X140262948Y-117791497D01*
X140266889Y-117806986D01*
X140270067Y-117828372D01*
X140272564Y-117857857D01*
X140274461Y-117897644D01*
X140275842Y-117949936D01*
X140276787Y-118016936D01*
X140277378Y-118100846D01*
X140277698Y-118203870D01*
X140277828Y-118328211D01*
X140277850Y-118452900D01*
X140277814Y-118605291D01*
X140277544Y-118734619D01*
X140276801Y-118843217D01*
X140275346Y-118933423D01*
X140272941Y-119007571D01*
X140269345Y-119067997D01*
X140264319Y-119117037D01*
X140257624Y-119157027D01*
X140249020Y-119190302D01*
X140238270Y-119219197D01*
X140225132Y-119246049D01*
X140209368Y-119273193D01*
X140190761Y-119302929D01*
X140168261Y-119337249D01*
X140144076Y-119371081D01*
X140116733Y-119405845D01*
X140084758Y-119442959D01*
X140046679Y-119483845D01*
X140001021Y-119529922D01*
X139946313Y-119582609D01*
X139881080Y-119643328D01*
X139803849Y-119713496D01*
X139713147Y-119794534D01*
X139607502Y-119887863D01*
X139485439Y-119994901D01*
X139350750Y-120112479D01*
X139179105Y-120263852D01*
X139026800Y-120402087D01*
X138892436Y-120528711D01*
X138774615Y-120645250D01*
X138671939Y-120753232D01*
X138583009Y-120854184D01*
X138506427Y-120949633D01*
X138440794Y-121041107D01*
X138384711Y-121130131D01*
X138336781Y-121218233D01*
X138335144Y-121221500D01*
X138300573Y-121294424D01*
X138270663Y-121366705D01*
X138245134Y-121440659D01*
X138223704Y-121518600D01*
X138206093Y-121602842D01*
X138192022Y-121695702D01*
X138181209Y-121799493D01*
X138173374Y-121916531D01*
X138168237Y-122049130D01*
X138165516Y-122199606D01*
X138164933Y-122370273D01*
X138166205Y-122563445D01*
X138166732Y-122611462D01*
X138168747Y-122761539D01*
X138171151Y-122889028D01*
X138174169Y-122996744D01*
X138178024Y-123087500D01*
X138182942Y-123164108D01*
X138189147Y-123229381D01*
X138196862Y-123286132D01*
X138206313Y-123337175D01*
X138217722Y-123385322D01*
X138231316Y-123433385D01*
X138232607Y-123437650D01*
X138243595Y-123475378D01*
X138250657Y-123502724D01*
X138252063Y-123510675D01*
X138239956Y-123513227D01*
X138205778Y-123515520D01*
X138152857Y-123517460D01*
X138084522Y-123518950D01*
X138004100Y-123519895D01*
X137921145Y-123520200D01*
X137820888Y-123520104D01*
X137743248Y-123519690D01*
X137685444Y-123518767D01*
X137644691Y-123517144D01*
X137618209Y-123514630D01*
X137603214Y-123511034D01*
X137596923Y-123506166D01*
X137596556Y-123499834D01*
X137597071Y-123497975D01*
X137620952Y-123411744D01*
X137642899Y-123314118D01*
X137660203Y-123218050D01*
X137668145Y-123158250D01*
X137670297Y-123125237D01*
X137672334Y-123069387D01*
X137674222Y-122993262D01*
X137675925Y-122899426D01*
X137677410Y-122790441D01*
X137678642Y-122668869D01*
X137679586Y-122537274D01*
X137680209Y-122398217D01*
X137680475Y-122254263D01*
X137680480Y-122240675D01*
X137680700Y-121437400D01*
X136246133Y-121437400D01*
X136242692Y-122272425D01*
X136242075Y-122443190D01*
X136241570Y-122590411D01*
X136240934Y-122715940D01*
X136239920Y-122821630D01*
X136238285Y-122909335D01*
X136235784Y-122980907D01*
X136232173Y-123038199D01*
X136227205Y-123083065D01*
X136220638Y-123117356D01*
X136212226Y-123142926D01*
X136201724Y-123161629D01*
X136188888Y-123175316D01*
X136173473Y-123185841D01*
X136155234Y-123195056D01*
X136133928Y-123204816D01*
X136118600Y-123212187D01*
X136085831Y-123227547D01*
X136056394Y-123237624D01*
X136023513Y-123243515D01*
X135980411Y-123246317D01*
X135920312Y-123247129D01*
X135902700Y-123247150D01*
X135811684Y-123244517D01*
X135740580Y-123235634D01*
X135684355Y-123219021D01*
X135637972Y-123193201D01*
X135597065Y-123157381D01*
X135553450Y-123112377D01*
X135553450Y-121773950D01*
X135598966Y-121678700D01*
X135624678Y-121628737D01*
X135654448Y-121579018D01*
X135689737Y-121528045D01*
X135732009Y-121474324D01*
X135782727Y-121416357D01*
X135843354Y-121352648D01*
X135915353Y-121281702D01*
X136000187Y-121202022D01*
X136099319Y-121112112D01*
X136214212Y-121010476D01*
X136346328Y-120895618D01*
X136461779Y-120796314D01*
X136636712Y-120644659D01*
X136791847Y-120506442D01*
X136928255Y-120380620D01*
X137047007Y-120266152D01*
X137149172Y-120161993D01*
X137235821Y-120067102D01*
X137308025Y-119980436D01*
X137333600Y-119947174D01*
X137409479Y-119837769D01*
X137480381Y-119720135D01*
X137542327Y-119601585D01*
X137591341Y-119489434D01*
X137608641Y-119441430D01*
X137621819Y-119400359D01*
X137633114Y-119361138D01*
X137642669Y-119321498D01*
X137650628Y-119279168D01*
X137657132Y-119231878D01*
X137662324Y-119177356D01*
X137666347Y-119113334D01*
X137669344Y-119037539D01*
X137671456Y-118947703D01*
X137672827Y-118841554D01*
X137673599Y-118716823D01*
X137673914Y-118571238D01*
X137673916Y-118402529D01*
X137673916Y-118402100D01*
X137673482Y-117671850D01*
X137639807Y-117548357D01*
X137585550Y-117392598D01*
X137511964Y-117253089D01*
X137418615Y-117129299D01*
X137305071Y-117020701D01*
X137170896Y-116926764D01*
X137096500Y-116885419D01*
X137003287Y-116841242D01*
X136905738Y-116803065D01*
X136799688Y-116769729D01*
X136680974Y-116740075D01*
X136545433Y-116712944D01*
X136388901Y-116687177D01*
X136378950Y-116685679D01*
X136317142Y-116678976D01*
X136234457Y-116673802D01*
X136135370Y-116670128D01*
X136024357Y-116667931D01*
X135905895Y-116667183D01*
X135784458Y-116667858D01*
X135664522Y-116669931D01*
X135550562Y-116673375D01*
X135447054Y-116678164D01*
X135358475Y-116684273D01*
X135289298Y-116691675D01*
X135286750Y-116692033D01*
X135078364Y-116728870D01*
X134892171Y-116777160D01*
X134727486Y-116837321D01*
X134583623Y-116909772D01*
X134459896Y-116994935D01*
X134355620Y-117093227D01*
X134270110Y-117205069D01*
X134202679Y-117330880D01*
X134188851Y-117363849D01*
X134173185Y-117403473D01*
X134159675Y-117439470D01*
X134148148Y-117474003D01*
X134138432Y-117509236D01*
X134130357Y-117547335D01*
X134123750Y-117590463D01*
X134118440Y-117640785D01*
X134114255Y-117700465D01*
X134111023Y-117771667D01*
X134108573Y-117856555D01*
X134106733Y-117957293D01*
X134105331Y-118076047D01*
X134104195Y-118214980D01*
X134103155Y-118376256D01*
X134102714Y-118449724D01*
X134097913Y-119252999D01*
X134784407Y-119252999D01*
X135470900Y-119253000D01*
X135470900Y-118545809D01*
X135470925Y-118393786D01*
X135471049Y-118265043D01*
X135471343Y-118157458D01*
X135471883Y-118068913D01*
X135472741Y-117997285D01*
X135473991Y-117940455D01*
X135475705Y-117896302D01*
X135477957Y-117862706D01*
X135480820Y-117837546D01*
X135484367Y-117818701D01*
X135488672Y-117804052D01*
X135493807Y-117791478D01*
X135497202Y-117784288D01*
X135527302Y-117737906D01*
X135568697Y-117704243D01*
X135625863Y-117680741D01*
X135703277Y-117664840D01*
X135707130Y-117664287D01*
X135824575Y-117655299D01*
X135931398Y-117662394D01*
X136023390Y-117685188D01*
X136048361Y-117695437D01*
X136072801Y-117706367D01*
X136093506Y-117716355D01*
X136110783Y-117727479D01*
X136124942Y-117741814D01*
X136136293Y-117761437D01*
X136145143Y-117788423D01*
X136151803Y-117824849D01*
X136156582Y-117872790D01*
X136159789Y-117934324D01*
X136161733Y-118011525D01*
X136162723Y-118106471D01*
X136163068Y-118221237D01*
X136163078Y-118357899D01*
X136163050Y-118465600D01*
X136163033Y-118611175D01*
X136162920Y-118733618D01*
X136162622Y-118835199D01*
X136162047Y-118918185D01*
X136161106Y-118984845D01*
X136159707Y-119037448D01*
X136157761Y-119078263D01*
X136155177Y-119109557D01*
X136151865Y-119133599D01*
X136147733Y-119152658D01*
X136142692Y-119169003D01*
X136136652Y-119184901D01*
X136134117Y-119191193D01*
X136111994Y-119237500D01*
X136080739Y-119292660D01*
X136046761Y-119345436D01*
X136043606Y-119349943D01*
X136023342Y-119378239D01*
X136003250Y-119405044D01*
X135981954Y-119431645D01*
X135958074Y-119459332D01*
X135930231Y-119489395D01*
X135897047Y-119523123D01*
X135857143Y-119561805D01*
X135809140Y-119606730D01*
X135751660Y-119659188D01*
X135683323Y-119720467D01*
X135602752Y-119791858D01*
X135508568Y-119874650D01*
X135399391Y-119970131D01*
X135273844Y-120079591D01*
X135130547Y-120204319D01*
X135122356Y-120211445D01*
X135047669Y-120277800D01*
X134962197Y-120355992D01*
X134872810Y-120439595D01*
X134786375Y-120522184D01*
X134709762Y-120597333D01*
X134708298Y-120598795D01*
X134567569Y-120745061D01*
X134447799Y-120882502D01*
X134347360Y-121013908D01*
X134264624Y-121142070D01*
X134197960Y-121269779D01*
X134145741Y-121399826D01*
X134106337Y-121535001D01*
X134078120Y-121678096D01*
X134078026Y-121678700D01*
X134072700Y-121715645D01*
X134068252Y-121754106D01*
X134064603Y-121796679D01*
X134061678Y-121845960D01*
X134059400Y-121904544D01*
X134057692Y-121975028D01*
X134056479Y-122060005D01*
X134055684Y-122162073D01*
X134055230Y-122283827D01*
X134055042Y-122427863D01*
X134055029Y-122459750D01*
X134055175Y-122623900D01*
X134055821Y-122765079D01*
X134057131Y-122885711D01*
X134059268Y-122988223D01*
X134062395Y-123075041D01*
X134066675Y-123148589D01*
X134072272Y-123211295D01*
X134079349Y-123265583D01*
X134088069Y-123313880D01*
X134098596Y-123358611D01*
X134111092Y-123402202D01*
X134120422Y-123431300D01*
X134170296Y-123553959D01*
X134239984Y-123678596D01*
X134267817Y-123721117D01*
X134287878Y-123752500D01*
X134299395Y-123773988D01*
X134300550Y-123779537D01*
X134287265Y-123782239D01*
X134252387Y-123787889D01*
X134199481Y-123795950D01*
X134132111Y-123805885D01*
X134053845Y-123817156D01*
X134004050Y-123824209D01*
X133915841Y-123837103D01*
X133808756Y-123853525D01*
X133688916Y-123872492D01*
X133562442Y-123893017D01*
X133435455Y-123914117D01*
X133314075Y-123934806D01*
X133281796Y-123940414D01*
X133179951Y-123958105D01*
X133085700Y-123974312D01*
X133002056Y-123988529D01*
X132932030Y-124000251D01*
X132878636Y-124008973D01*
X132844885Y-124014189D01*
X132834121Y-124015500D01*
X132831739Y-124012482D01*
X132829575Y-124002689D01*
X132827621Y-123985015D01*
X132825865Y-123958350D01*
X132824299Y-123921588D01*
X132822912Y-123873620D01*
X132821694Y-123813339D01*
X132820635Y-123739637D01*
X132819725Y-123651407D01*
X132818955Y-123547540D01*
X132818314Y-123426929D01*
X132817791Y-123288466D01*
X132817378Y-123131043D01*
X132817065Y-122953553D01*
X132816840Y-122754888D01*
X132816695Y-122533939D01*
X132816618Y-122289601D01*
X132816600Y-122072717D01*
X132816601Y-120129935D01*
X132851525Y-120135555D01*
X132876377Y-120138980D01*
X132920921Y-120144571D01*
X132979608Y-120151651D01*
X133046890Y-120159544D01*
X133073571Y-120162617D01*
X133260692Y-120184059D01*
X133266981Y-120223354D01*
X133268797Y-120242488D01*
X133271967Y-120284785D01*
X133276350Y-120348054D01*
X133281805Y-120430103D01*
X133288191Y-120528739D01*
X133295367Y-120641769D01*
X133303191Y-120767003D01*
X133311523Y-120902248D01*
X133320220Y-121045311D01*
X133324711Y-121119900D01*
X133340287Y-121377873D01*
X133354577Y-121611156D01*
X133367628Y-121820423D01*
X133379488Y-122006350D01*
X133390204Y-122169610D01*
X133399824Y-122310880D01*
X133408396Y-122430833D01*
X133415967Y-122530144D01*
X133422584Y-122609489D01*
X133428294Y-122669541D01*
X133433146Y-122710975D01*
X133437187Y-122734467D01*
X133438655Y-122739150D01*
X133445580Y-122749514D01*
X133449354Y-122739182D01*
X133450864Y-122707400D01*
X133451957Y-122675102D01*
X133454331Y-122623288D01*
X133457694Y-122557791D01*
X133461750Y-122484446D01*
X133464299Y-122440700D01*
X133467505Y-122383270D01*
X133471776Y-122301005D01*
X133477088Y-122194448D01*
X133483414Y-122064140D01*
X133490730Y-121910623D01*
X133499010Y-121734439D01*
X133508229Y-121536129D01*
X133518362Y-121316237D01*
X133529382Y-121075302D01*
X133541265Y-120813869D01*
X133553985Y-120532477D01*
X133561317Y-120369667D01*
X133569642Y-120184584D01*
X134053546Y-120104106D01*
X134161377Y-120086007D01*
X134261340Y-120068911D01*
X134350661Y-120053315D01*
X134426568Y-120039718D01*
X134486290Y-120028618D01*
X134527052Y-120020512D01*
X134546083Y-120015900D01*
X134547045Y-120015434D01*
X134537902Y-120011489D01*
X134506117Y-120005091D01*
X134454291Y-119996595D01*
X134385025Y-119986353D01*
X134300923Y-119974720D01*
X134204585Y-119962049D01*
X134098614Y-119948693D01*
X133985612Y-119935005D01*
X133868179Y-119921340D01*
X133789605Y-119912516D01*
X133718687Y-119904393D01*
X133657002Y-119896801D01*
X133608798Y-119890305D01*
X133578320Y-119885471D01*
X133569596Y-119883228D01*
X133567768Y-119869830D01*
X133564652Y-119833522D01*
X133560411Y-119776756D01*
X133555213Y-119701981D01*
X133549221Y-119611647D01*
X133542603Y-119508204D01*
X133535523Y-119394101D01*
X133528147Y-119271788D01*
X133527108Y-119254283D01*
X133518659Y-119112259D01*
X133509687Y-118962574D01*
X133500501Y-118810279D01*
X133491407Y-118660428D01*
X133482713Y-118518074D01*
X133474725Y-118388268D01*
X133467750Y-118276063D01*
X133464542Y-118225025D01*
X133458242Y-118123915D01*
X133452503Y-118029153D01*
X133447523Y-117944197D01*
X133443497Y-117872505D01*
X133440623Y-117817536D01*
X133439097Y-117782747D01*
X133438900Y-117774074D01*
X133438900Y-117729000D01*
X133353931Y-117729000D01*
X133345634Y-117954425D01*
X133341712Y-118057501D01*
X133337004Y-118175365D01*
X133331642Y-118305147D01*
X133325756Y-118443980D01*
X133319477Y-118588996D01*
X133312937Y-118737325D01*
X133306265Y-118886101D01*
X133299593Y-119032454D01*
X133293050Y-119173516D01*
X133286769Y-119306420D01*
X133280880Y-119428296D01*
X133275513Y-119536278D01*
X133270800Y-119627496D01*
X133266871Y-119699082D01*
X133263856Y-119748168D01*
X133263847Y-119748300D01*
X133254750Y-119881650D01*
X133064250Y-119915245D01*
X132995574Y-119927119D01*
X132933949Y-119937334D01*
X132884563Y-119945063D01*
X132852601Y-119949479D01*
X132845175Y-119950170D01*
X132816600Y-119951500D01*
X132816600Y-117729000D01*
X133353931Y-117729000D01*
X133438900Y-117729000D01*
X133908800Y-117729000D01*
X133908800Y-116738400D01*
X130238500Y-116738400D01*
X130238500Y-117728724D01*
X131311650Y-117735350D01*
X131318048Y-124357408D01*
X131270399Y-124369879D01*
X131235569Y-124378859D01*
X131185474Y-124391608D01*
X131129493Y-124405743D01*
X131114800Y-124409433D01*
X130774109Y-124498528D01*
X130415753Y-124599077D01*
X130043978Y-124709683D01*
X129663030Y-124828948D01*
X129277153Y-124955478D01*
X128890594Y-125087874D01*
X128507597Y-125224741D01*
X128132407Y-125364681D01*
X127769270Y-125506297D01*
X127715789Y-125527724D01*
X127505446Y-125613577D01*
X127286234Y-125705433D01*
X127061453Y-125801790D01*
X126834405Y-125901148D01*
X126608388Y-126002007D01*
X126386704Y-126102868D01*
X126172654Y-126202229D01*
X125969537Y-126298591D01*
X125780654Y-126390453D01*
X125609306Y-126476316D01*
X125472706Y-126547279D01*
X125406341Y-126583237D01*
X125354597Y-126612788D01*
X125318979Y-126634905D01*
X125300988Y-126648561D01*
X125302127Y-126652729D01*
X125323899Y-126646382D01*
X125332400Y-126643165D01*
X125666525Y-126515747D01*
X126018555Y-126386115D01*
X126383655Y-126255884D01*
X126756990Y-126126669D01*
X127133724Y-126000085D01*
X127509024Y-125877746D01*
X127878054Y-125761268D01*
X128235979Y-125652264D01*
X128577965Y-125552351D01*
X128710049Y-125515059D01*
X129619610Y-125274197D01*
X130534635Y-125058089D01*
X131454708Y-124866780D01*
X132379417Y-124700314D01*
X133308348Y-124558734D01*
X134241087Y-124442084D01*
X135177220Y-124350408D01*
X136116334Y-124283749D01*
X137058016Y-124242153D01*
X138001851Y-124225661D01*
X138947426Y-124234319D01*
X139894328Y-124268171D01*
X140277850Y-124289043D01*
X141208834Y-124357226D01*
X142137916Y-124450228D01*
X143064026Y-124567865D01*
X143986095Y-124709956D01*
X144903055Y-124876316D01*
X145813835Y-125066763D01*
X146717368Y-125281114D01*
X147612583Y-125519184D01*
X147843965Y-125584980D01*
X148146154Y-125673962D01*
X148461233Y-125770288D01*
X148783892Y-125872203D01*
X149108822Y-125977952D01*
X149430714Y-126085777D01*
X149744259Y-126193924D01*
X150044146Y-126300636D01*
X150325068Y-126404157D01*
X150355300Y-126415545D01*
X150491434Y-126466682D01*
X150616868Y-126513280D01*
X150729898Y-126554735D01*
X150828817Y-126590440D01*
X150911921Y-126619791D01*
X150977505Y-126642183D01*
X151023864Y-126657011D01*
X151049293Y-126663670D01*
X151053800Y-126663426D01*
X151042657Y-126654384D01*
X151010676Y-126635660D01*
X150960034Y-126608319D01*
X150892908Y-126573428D01*
X150811473Y-126532054D01*
X150717905Y-126485265D01*
X150614381Y-126434126D01*
X150503076Y-126379704D01*
X150386167Y-126323066D01*
X150265830Y-126265280D01*
X150144241Y-126207410D01*
X150023576Y-126150526D01*
X149906010Y-126095692D01*
X149793721Y-126043976D01*
X149743480Y-126021092D01*
X149212945Y-125787179D01*
X148672583Y-125562109D01*
X148126016Y-125347162D01*
X147576866Y-125143619D01*
X147028753Y-124952760D01*
X146485300Y-124775866D01*
X145950128Y-124614217D01*
X145426858Y-124469092D01*
X145157825Y-124399873D01*
X145076345Y-124379157D01*
X145003763Y-124360050D01*
X144943493Y-124343505D01*
X144898948Y-124330474D01*
X144873543Y-124321911D01*
X144868900Y-124319257D01*
X144880010Y-124311503D01*
X144909577Y-124298196D01*
X144951954Y-124281800D01*
X144967325Y-124276294D01*
X145064929Y-124238224D01*
X145170879Y-124190557D01*
X145275904Y-124137836D01*
X145370731Y-124084608D01*
X145415000Y-124056880D01*
X145562835Y-123948701D01*
X145688003Y-123832601D01*
X145792762Y-123705555D01*
X145879370Y-123564540D01*
X145950083Y-123406532D01*
X145991019Y-123285250D01*
X146017666Y-123196350D01*
X146021302Y-119967374D01*
X146024938Y-116738399D01*
X145281819Y-116738399D01*
X144538700Y-116738400D01*
X144536715Y-117484525D01*
X144536501Y-117575917D01*
X144536281Y-117690935D01*
X144536055Y-117827808D01*
X144535827Y-117984760D01*
X144535597Y-118160019D01*
X144535368Y-118351812D01*
X144535141Y-118558364D01*
X144534918Y-118777904D01*
X144534701Y-119008657D01*
X144534491Y-119248850D01*
X144534291Y-119496710D01*
X144534102Y-119750464D01*
X144533925Y-120008338D01*
X144533763Y-120268559D01*
X144533617Y-120529354D01*
X144533540Y-120681750D01*
X144533367Y-120929614D01*
X144533095Y-121170803D01*
X144532729Y-121404077D01*
X144532276Y-121628199D01*
X144531742Y-121841931D01*
X144531131Y-122044036D01*
X144530450Y-122233276D01*
X144529705Y-122408412D01*
X144528901Y-122568207D01*
X144528045Y-122711423D01*
X144527142Y-122836822D01*
X144526197Y-122943167D01*
X144525217Y-123029219D01*
X144524207Y-123093742D01*
X144523174Y-123135496D01*
X144522122Y-123153244D01*
X144521988Y-123153716D01*
X144505632Y-123169354D01*
X144472949Y-123189926D01*
X144433088Y-123209995D01*
X144338590Y-123240935D01*
X144238372Y-123253197D01*
X144138431Y-123247199D01*
X144044766Y-123223359D01*
X143963375Y-123182096D01*
X143955706Y-123176713D01*
X143901381Y-123137360D01*
X143903822Y-121299955D01*
X143904122Y-121055239D01*
X143904391Y-120797963D01*
X143904627Y-120531351D01*
X143904830Y-120258627D01*
X143904997Y-119983016D01*
X143905129Y-119707743D01*
X143905223Y-119436031D01*
X143905279Y-119171105D01*
X143905296Y-118916191D01*
X143905272Y-118674512D01*
X143905205Y-118449292D01*
X143905096Y-118243756D01*
X143904982Y-118100475D01*
X143903700Y-116738400D01*
X142404594Y-116738400D01*
X142408655Y-120088025D01*
X142409059Y-120436265D01*
X142409410Y-120760045D01*
X142409731Y-121060304D01*
X142410043Y-121337982D01*
X142410368Y-121594018D01*
X142410729Y-121829353D01*
X142411147Y-122044924D01*
X142411645Y-122241673D01*
X142412244Y-122420539D01*
X142412966Y-122582461D01*
X142413833Y-122728378D01*
X142414867Y-122859231D01*
X142416091Y-122975959D01*
X142417526Y-123079501D01*
X142419194Y-123170798D01*
X142421118Y-123250787D01*
X142423318Y-123320411D01*
X142425818Y-123380607D01*
X142428639Y-123432315D01*
X142431802Y-123476475D01*
X142435331Y-123514026D01*
X142439247Y-123545909D01*
X142443572Y-123573062D01*
X142448328Y-123596426D01*
X142453537Y-123616939D01*
X142459221Y-123635541D01*
X142465402Y-123653172D01*
X142472101Y-123670772D01*
X142479342Y-123689279D01*
X142487146Y-123709635D01*
X142493806Y-123727874D01*
X142510432Y-123777282D01*
X142522129Y-123817190D01*
X142527343Y-123841986D01*
X142526890Y-123847143D01*
X142513072Y-123847141D01*
X142477264Y-123843839D01*
X142422606Y-123837618D01*
X142352240Y-123828861D01*
X142269307Y-123817949D01*
X142176949Y-123805265D01*
X142141898Y-123800324D01*
X142041648Y-123786297D01*
X141944978Y-123773145D01*
X141856036Y-123761402D01*
X141778967Y-123751606D01*
X141717918Y-123744291D01*
X141677034Y-123739994D01*
X141671675Y-123739546D01*
X141627038Y-123735126D01*
X141594347Y-123730035D01*
X141579895Y-123725287D01*
X141579684Y-123724741D01*
X141586244Y-123710129D01*
X141602273Y-123684123D01*
X141605756Y-123678950D01*
X141648361Y-123607869D01*
X141690068Y-123523352D01*
X141725530Y-123436969D01*
X141744727Y-123378226D01*
X141754360Y-123340058D01*
X141762730Y-123297843D01*
X141769919Y-123249657D01*
X141776011Y-123193580D01*
X141781089Y-123127688D01*
X141785235Y-123050058D01*
X141788533Y-122958767D01*
X141791066Y-122851894D01*
X141792916Y-122727516D01*
X141794167Y-122583709D01*
X141794901Y-122418551D01*
X141795202Y-122230121D01*
X141795212Y-122208925D01*
X141795500Y-121437400D01*
X140360400Y-121437400D01*
X140360400Y-122250607D01*
X140360310Y-122420759D01*
X140360015Y-122567246D01*
X140359479Y-122691803D01*
X140358669Y-122796163D01*
X140357549Y-122882062D01*
X140356083Y-122951234D01*
X140354237Y-123005413D01*
X140351976Y-123046334D01*
X140349263Y-123075731D01*
X140346065Y-123095339D01*
X140343077Y-123105275D01*
X140306036Y-123161629D01*
X140248141Y-123205124D01*
X140170804Y-123235129D01*
X140075435Y-123251010D01*
X140012854Y-123253500D01*
X139909695Y-123246466D01*
X139821622Y-123226009D01*
X139750819Y-123193092D01*
X139699476Y-123148681D01*
X139673188Y-123103735D01*
X139670956Y-123085422D01*
X139668883Y-123044289D01*
X139667014Y-122982917D01*
X139665391Y-122903886D01*
X139664057Y-122809778D01*
X139663055Y-122703171D01*
X139662430Y-122586647D01*
X139662224Y-122462786D01*
X139662228Y-122449398D01*
X139662330Y-122307201D01*
X139662538Y-122188027D01*
X139662948Y-122089497D01*
X139663656Y-122009233D01*
X139664760Y-121944859D01*
X139666356Y-121893996D01*
X139668540Y-121854266D01*
X139671408Y-121823291D01*
X139675057Y-121798694D01*
X139679584Y-121778097D01*
X139685085Y-121759123D01*
X139690949Y-121741465D01*
X139711367Y-121688027D01*
X139736596Y-121635046D01*
X139767961Y-121581117D01*
X139806788Y-121524839D01*
X139854402Y-121464807D01*
X139912129Y-121399617D01*
X139981294Y-121327868D01*
X140063224Y-121248155D01*
X140159244Y-121159075D01*
X140270679Y-121059224D01*
X140398855Y-120947200D01*
X140545098Y-120821598D01*
X140620326Y-120757582D01*
X140789386Y-120612248D01*
X140939035Y-120479502D01*
X141070847Y-120357616D01*
X141186392Y-120244863D01*
X141287245Y-120139518D01*
X141374977Y-120039852D01*
X141451160Y-119944140D01*
X141517367Y-119850653D01*
X141575170Y-119757666D01*
X141626141Y-119663452D01*
X141637589Y-119640350D01*
X141673074Y-119565855D01*
X141701816Y-119500238D01*
X141724645Y-119439359D01*
X141742390Y-119379083D01*
X141755879Y-119315271D01*
X141765941Y-119243786D01*
X141773406Y-119160489D01*
X141779101Y-119061245D01*
X141783857Y-118941914D01*
X141785152Y-118903750D01*
X141788123Y-118792667D01*
X141790399Y-118663595D01*
X141791924Y-118523935D01*
X141792641Y-118381088D01*
X141792494Y-118242457D01*
X141791426Y-118115444D01*
X141791266Y-118103650D01*
X141789032Y-117968723D01*
X141786134Y-117855865D01*
X141782067Y-117761742D01*
X141776324Y-117683023D01*
X141768398Y-117616376D01*
X141757782Y-117558470D01*
X141743969Y-117505972D01*
X141726454Y-117455551D01*
X141704729Y-117403874D01*
X141678288Y-117347611D01*
X141675387Y-117341650D01*
X141605536Y-117219666D01*
X141521310Y-117112350D01*
X141420750Y-117018165D01*
X141301899Y-116935575D01*
X141162803Y-116863042D01*
X141001503Y-116799030D01*
X140971541Y-116788820D01*
X140836570Y-116748739D01*
X140695191Y-116716849D01*
X140544186Y-116692796D01*
X140380339Y-116676224D01*
X140200434Y-116666781D01*
X140001254Y-116664110D01*
X139856139Y-116665918D01*
D13*
X98782605Y-128177049D02*
X98782605Y-128891335D01*
X98830225Y-129034192D01*
X98925463Y-129129430D01*
X99068320Y-129177049D01*
X99163558Y-129177049D01*
X97782605Y-129177049D02*
X98354034Y-129177049D01*
X98068320Y-129177049D02*
X98068320Y-128177049D01*
X98163558Y-128319906D01*
X98258796Y-128415144D01*
X98354034Y-128462763D01*
X117013239Y-95702381D02*
X117013239Y-94702381D01*
X116632286Y-94702381D01*
X116537048Y-94750000D01*
X116489429Y-94797619D01*
X116441810Y-94892857D01*
X116441810Y-95035714D01*
X116489429Y-95130952D01*
X116537048Y-95178571D01*
X116632286Y-95226190D01*
X117013239Y-95226190D01*
X116013239Y-95702381D02*
X116013239Y-94702381D01*
X115584667Y-95702381D02*
X115584667Y-95178571D01*
X115632286Y-95083333D01*
X115727524Y-95035714D01*
X115870382Y-95035714D01*
X115965620Y-95083333D01*
X116013239Y-95130952D01*
X114965620Y-95702381D02*
X115060858Y-95654762D01*
X115108477Y-95607143D01*
X115156096Y-95511905D01*
X115156096Y-95226190D01*
X115108477Y-95130952D01*
X115060858Y-95083333D01*
X114965620Y-95035714D01*
X114822762Y-95035714D01*
X114727524Y-95083333D01*
X114679905Y-95130952D01*
X114632286Y-95226190D01*
X114632286Y-95511905D01*
X114679905Y-95607143D01*
X114727524Y-95654762D01*
X114822762Y-95702381D01*
X114965620Y-95702381D01*
X113822762Y-95654762D02*
X113918000Y-95702381D01*
X114108477Y-95702381D01*
X114203715Y-95654762D01*
X114251334Y-95559524D01*
X114251334Y-95178571D01*
X114203715Y-95083333D01*
X114108477Y-95035714D01*
X113918000Y-95035714D01*
X113822762Y-95083333D01*
X113775143Y-95178571D01*
X113775143Y-95273810D01*
X114251334Y-95369048D01*
X113346572Y-95035714D02*
X113346572Y-95702381D01*
X113346572Y-95130952D02*
X113298953Y-95083333D01*
X113203715Y-95035714D01*
X113060857Y-95035714D01*
X112965619Y-95083333D01*
X112918000Y-95178571D01*
X112918000Y-95702381D01*
X112441810Y-95702381D02*
X112441810Y-95035714D01*
X112441810Y-94702381D02*
X112489429Y-94750000D01*
X112441810Y-94797619D01*
X112394191Y-94750000D01*
X112441810Y-94702381D01*
X112441810Y-94797619D01*
X112060858Y-95702381D02*
X111537048Y-95035714D01*
X112060858Y-95035714D02*
X111537048Y-95702381D01*
X109822762Y-95607143D02*
X109870381Y-95654762D01*
X110013238Y-95702381D01*
X110108476Y-95702381D01*
X110251334Y-95654762D01*
X110346572Y-95559524D01*
X110394191Y-95464286D01*
X110441810Y-95273810D01*
X110441810Y-95130952D01*
X110394191Y-94940476D01*
X110346572Y-94845238D01*
X110251334Y-94750000D01*
X110108476Y-94702381D01*
X110013238Y-94702381D01*
X109870381Y-94750000D01*
X109822762Y-94797619D01*
X109251334Y-95702381D02*
X109346572Y-95654762D01*
X109394191Y-95607143D01*
X109441810Y-95511905D01*
X109441810Y-95226190D01*
X109394191Y-95130952D01*
X109346572Y-95083333D01*
X109251334Y-95035714D01*
X109108476Y-95035714D01*
X109013238Y-95083333D01*
X108965619Y-95130952D01*
X108918000Y-95226190D01*
X108918000Y-95511905D01*
X108965619Y-95607143D01*
X109013238Y-95654762D01*
X109108476Y-95702381D01*
X109251334Y-95702381D01*
X108489429Y-95035714D02*
X108489429Y-95702381D01*
X108489429Y-95130952D02*
X108441810Y-95083333D01*
X108346572Y-95035714D01*
X108203714Y-95035714D01*
X108108476Y-95083333D01*
X108060857Y-95178571D01*
X108060857Y-95702381D01*
X107727524Y-95035714D02*
X107346572Y-95035714D01*
X107584667Y-94702381D02*
X107584667Y-95559524D01*
X107537048Y-95654762D01*
X107441810Y-95702381D01*
X107346572Y-95702381D01*
X106584666Y-95702381D02*
X106584666Y-95178571D01*
X106632285Y-95083333D01*
X106727523Y-95035714D01*
X106918000Y-95035714D01*
X107013238Y-95083333D01*
X106584666Y-95654762D02*
X106679904Y-95702381D01*
X106918000Y-95702381D01*
X107013238Y-95654762D01*
X107060857Y-95559524D01*
X107060857Y-95464286D01*
X107013238Y-95369048D01*
X106918000Y-95321429D01*
X106679904Y-95321429D01*
X106584666Y-95273810D01*
X105679904Y-95654762D02*
X105775142Y-95702381D01*
X105965619Y-95702381D01*
X106060857Y-95654762D01*
X106108476Y-95607143D01*
X106156095Y-95511905D01*
X106156095Y-95226190D01*
X106108476Y-95130952D01*
X106060857Y-95083333D01*
X105965619Y-95035714D01*
X105775142Y-95035714D01*
X105679904Y-95083333D01*
X105394190Y-95035714D02*
X105013238Y-95035714D01*
X105251333Y-94702381D02*
X105251333Y-95559524D01*
X105203714Y-95654762D01*
X105108476Y-95702381D01*
X105013238Y-95702381D01*
X103489427Y-94702381D02*
X103679904Y-94702381D01*
X103775142Y-94750000D01*
X103822761Y-94797619D01*
X103917999Y-94940476D01*
X103965618Y-95130952D01*
X103965618Y-95511905D01*
X103917999Y-95607143D01*
X103870380Y-95654762D01*
X103775142Y-95702381D01*
X103584665Y-95702381D01*
X103489427Y-95654762D01*
X103441808Y-95607143D01*
X103394189Y-95511905D01*
X103394189Y-95273810D01*
X103441808Y-95178571D01*
X103489427Y-95130952D01*
X103584665Y-95083333D01*
X103775142Y-95083333D01*
X103870380Y-95130952D01*
X103917999Y-95178571D01*
X103965618Y-95273810D01*
X102537046Y-94702381D02*
X102727523Y-94702381D01*
X102822761Y-94750000D01*
X102870380Y-94797619D01*
X102965618Y-94940476D01*
X103013237Y-95130952D01*
X103013237Y-95511905D01*
X102965618Y-95607143D01*
X102917999Y-95654762D01*
X102822761Y-95702381D01*
X102632284Y-95702381D01*
X102537046Y-95654762D01*
X102489427Y-95607143D01*
X102441808Y-95511905D01*
X102441808Y-95273810D01*
X102489427Y-95178571D01*
X102537046Y-95130952D01*
X102632284Y-95083333D01*
X102822761Y-95083333D01*
X102917999Y-95130952D01*
X102965618Y-95178571D01*
X103013237Y-95273810D01*
X102060856Y-95416667D02*
X101584665Y-95416667D01*
X102156094Y-95702381D02*
X101822761Y-94702381D01*
X101489427Y-95702381D01*
X99822760Y-95702381D02*
X100156094Y-95226190D01*
X100394189Y-95702381D02*
X100394189Y-94702381D01*
X100013236Y-94702381D01*
X99917998Y-94750000D01*
X99870379Y-94797619D01*
X99822760Y-94892857D01*
X99822760Y-95035714D01*
X99870379Y-95130952D01*
X99917998Y-95178571D01*
X100013236Y-95226190D01*
X100394189Y-95226190D01*
X99394189Y-95607143D02*
X99346570Y-95654762D01*
X99394189Y-95702381D01*
X99441808Y-95654762D01*
X99394189Y-95607143D01*
X99394189Y-95702381D01*
X98965618Y-95416667D02*
X98489427Y-95416667D01*
X99060856Y-95702381D02*
X98727523Y-94702381D01*
X98394189Y-95702381D01*
X98060856Y-95607143D02*
X98013237Y-95654762D01*
X98060856Y-95702381D01*
X98108475Y-95654762D01*
X98060856Y-95607143D01*
X98060856Y-95702381D01*
X96822761Y-95321429D02*
X96060856Y-95321429D01*
X95584666Y-95035714D02*
X94822761Y-95321429D01*
X95584666Y-95607143D01*
%LPC*%
D15*
X88900000Y-129540000D03*
X88900000Y-71120000D03*
X157480000Y-129540000D03*
D16*
X124928000Y-103124000D03*
D17*
X122428000Y-103124000D03*
D18*
X104089272Y-129604668D03*
X109769272Y-129604668D03*
X109769272Y-116464668D03*
X104099272Y-116464668D03*
D19*
X106089272Y-119534668D03*
X106089272Y-126534668D03*
X106089272Y-124034668D03*
X106089272Y-122034668D03*
X107589272Y-119034668D03*
X107589272Y-121034668D03*
X107589272Y-123024668D03*
X107589272Y-125034668D03*
X107589272Y-127034668D03*
X109289272Y-126534668D03*
X109289272Y-124034668D03*
X109289272Y-122034668D03*
X109289272Y-119534668D03*
X110789272Y-119034668D03*
X110789272Y-121034668D03*
X110789272Y-123034668D03*
X110789272Y-125034668D03*
X110789272Y-127034668D03*
D18*
X121170272Y-129572668D03*
X115490272Y-129572668D03*
X115490272Y-116432668D03*
X121160272Y-116432668D03*
D19*
X119170272Y-119502668D03*
X119170272Y-126502668D03*
X119170272Y-124002668D03*
X119170272Y-122002668D03*
X117670272Y-119002668D03*
X117670272Y-121002668D03*
X117670272Y-122992668D03*
X117670272Y-125002668D03*
X117670272Y-127002668D03*
X115970272Y-126502668D03*
X115970272Y-124002668D03*
X115970272Y-122002668D03*
X115970272Y-119502668D03*
X114470272Y-119002668D03*
X114470272Y-121002668D03*
X114470272Y-123002668D03*
X114470272Y-125002668D03*
X114470272Y-127002668D03*
D20*
X149987000Y-108966000D03*
D21*
X149987000Y-103886000D03*
X149987000Y-98806000D03*
X149987000Y-93726000D03*
X149987000Y-88646000D03*
X149987000Y-83566000D03*
D22*
X99768000Y-85608000D03*
X99768000Y-89408000D03*
X112268000Y-85608000D03*
X112268000Y-89408000D03*
X99768000Y-100608000D03*
X99768000Y-104408000D03*
X112268000Y-100608000D03*
X112268000Y-104408000D03*
D21*
X96967000Y-73787000D03*
X101957000Y-73797000D03*
X106957000Y-73797000D03*
X111967000Y-73787000D03*
X116967000Y-73787000D03*
X121957000Y-73797000D03*
X126957000Y-73797000D03*
X131967000Y-73787000D03*
X136967000Y-73787000D03*
X141967000Y-73787000D03*
D23*
X137033000Y-82804000D03*
X137033000Y-85344000D03*
X137033000Y-87884000D03*
X137033000Y-90424000D03*
X137033000Y-95504000D03*
X137033000Y-100584000D03*
X137033000Y-92964000D03*
X137033000Y-98044000D03*
X137033000Y-110744000D03*
X137033000Y-103124000D03*
X137033000Y-105664000D03*
X137033000Y-108204000D03*
D15*
X157480000Y-71120000D03*
M02*
