G04 #@! TF.FileFunction,Copper,L1,Top,Signal*
%FSLAX46Y46*%
G04 Gerber Fmt 4.6, Leading zero omitted, Abs format (unit mm)*
G04 Created by KiCad (PCBNEW 4.0.5) date 05/10/17 19:10:08*
%MOMM*%
%LPD*%
G01*
G04 APERTURE LIST*
%ADD10C,0.100000*%
%ADD11R,1.200000X1.200000*%
%ADD12R,1.250000X1.000000*%
%ADD13R,1.000000X1.250000*%
%ADD14R,1.500000X0.350000*%
%ADD15R,3.000000X3.000000*%
%ADD16C,3.000000*%
%ADD17R,1.300000X0.700000*%
%ADD18R,0.700000X1.300000*%
%ADD19C,0.750000*%
%ADD20C,0.850000*%
%ADD21C,1.000000*%
%ADD22C,1.500000*%
%ADD23C,2.700000*%
%ADD24R,2.300000X0.500000*%
%ADD25R,2.500000X2.000000*%
%ADD26C,1.600000*%
%ADD27O,1.600000X1.600000*%
%ADD28R,1.050000X1.100000*%
%ADD29C,0.685800*%
%ADD30C,0.254000*%
%ADD31C,2.540000*%
%ADD32C,0.508000*%
%ADD33C,0.381000*%
%ADD34C,0.152400*%
G04 APERTURE END LIST*
D10*
D11*
X76100000Y28500000D03*
X73900000Y28500000D03*
D12*
X59000000Y19500000D03*
X59000000Y17500000D03*
D13*
X71500000Y15500000D03*
X69500000Y15500000D03*
X73500000Y15500000D03*
X75500000Y15500000D03*
X65000000Y35000000D03*
X63000000Y35000000D03*
D12*
X65000000Y19500000D03*
X65000000Y17500000D03*
X63000000Y19500000D03*
X63000000Y17500000D03*
D14*
X66700000Y25180000D03*
X61300000Y25180000D03*
X66700000Y25800000D03*
X61300000Y25820000D03*
X61300000Y24540000D03*
X66700000Y24540000D03*
X66700000Y23900000D03*
X61300000Y23900000D03*
X61300000Y26460000D03*
X61300000Y27100000D03*
X66700000Y26460000D03*
X66700000Y27100000D03*
X66700000Y23260000D03*
X66700000Y27740000D03*
X61300000Y27740000D03*
X61300000Y23260000D03*
X66700000Y22620000D03*
X61300000Y22620000D03*
X61300000Y28380000D03*
X66700000Y28380000D03*
X66700000Y29020000D03*
X61300000Y29020000D03*
X61300000Y21980000D03*
X66700000Y21980000D03*
X66700000Y21340000D03*
X61300000Y21340000D03*
X61300000Y29660000D03*
X66700000Y29660000D03*
D15*
X14500000Y41580000D03*
D16*
X14500000Y36500000D03*
D15*
X27500000Y41580000D03*
D16*
X27500000Y36500000D03*
D15*
X27500000Y59780000D03*
D16*
X27500000Y54700000D03*
D15*
X27500000Y23380000D03*
D16*
X27500000Y18300000D03*
D11*
X73900000Y30500000D03*
X76100000Y30500000D03*
X76100000Y32500000D03*
X73900000Y32500000D03*
X73900000Y34500000D03*
X76100000Y34500000D03*
X76100000Y36500000D03*
X73900000Y36500000D03*
D17*
X68500000Y19450000D03*
X68500000Y17550000D03*
X71000000Y17500000D03*
X71000000Y19400000D03*
D18*
X74050000Y22500000D03*
X75950000Y22500000D03*
X67500000Y34500000D03*
X69400000Y34500000D03*
X74050000Y25500000D03*
X75950000Y25500000D03*
D17*
X61000000Y17550000D03*
X61000000Y19450000D03*
D19*
X52500000Y18300000D03*
X51850000Y18950000D03*
X51200000Y18300000D03*
X53150000Y18950000D03*
X53800000Y18300000D03*
D20*
X51000000Y19880000D03*
X54000000Y19880000D03*
X54000000Y17380000D03*
X51000000Y17380000D03*
D21*
X49175000Y18920000D03*
X55825000Y18920000D03*
D19*
X52500000Y36500000D03*
X51850000Y37150000D03*
X51200000Y36500000D03*
X53150000Y37150000D03*
X53800000Y36500000D03*
D20*
X51000000Y38080000D03*
X54000000Y38080000D03*
X54000000Y35580000D03*
X51000000Y35580000D03*
D21*
X49175000Y37120000D03*
X55825000Y37120000D03*
D19*
X52500000Y54700000D03*
X51850000Y55350000D03*
X51200000Y54700000D03*
X53150000Y55350000D03*
X53800000Y54700000D03*
D20*
X51000000Y56280000D03*
X54000000Y56280000D03*
X54000000Y53780000D03*
X51000000Y53780000D03*
D21*
X49175000Y55320000D03*
X55825000Y55320000D03*
D22*
X51500000Y72000000D03*
X53500000Y72000000D03*
X55500000Y72000000D03*
X49500000Y72000000D03*
D16*
X45930000Y74710000D03*
X59070000Y74710000D03*
D21*
X66800000Y46200000D03*
X66800000Y47800000D03*
X66800000Y44600000D03*
X64900000Y45400000D03*
X64900000Y47000000D03*
D23*
X65900000Y50400000D03*
X65900000Y42000000D03*
D22*
X65700000Y67440000D03*
X65700000Y64900000D03*
X65700000Y62870000D03*
X65700000Y60330000D03*
D16*
X68370000Y70490000D03*
X68370000Y56770000D03*
D24*
X70200000Y44600000D03*
X70200000Y45400000D03*
X70200000Y46200000D03*
X70200000Y47000000D03*
X70200000Y47800000D03*
D25*
X70300000Y41750000D03*
X75800000Y41750000D03*
X70300000Y50650000D03*
X75800000Y50650000D03*
D26*
X39000000Y42000000D03*
D27*
X39000000Y67000000D03*
D26*
X39000000Y33000000D03*
D27*
X39000000Y13000000D03*
D28*
X64925000Y32500000D03*
X63075000Y32500000D03*
D29*
X76000000Y27250000D03*
X69144398Y25800000D03*
X71500000Y21500000D03*
X69500000Y23500000D03*
X72749310Y26538773D03*
X68500000Y26500000D03*
X68500000Y20500000D03*
X68500000Y23000000D03*
X75750000Y38250000D03*
X69400000Y34500000D03*
X53500000Y51500000D03*
X51226362Y34002186D03*
X60500000Y62500000D03*
X59500000Y62500000D03*
D30*
X76100000Y28500000D02*
X76100000Y27350000D01*
X76100000Y27350000D02*
X76000000Y27250000D01*
X73900000Y30500000D02*
X74100000Y30500000D01*
X74100000Y30500000D02*
X76100000Y28500000D01*
X73900000Y32500000D02*
X73900000Y30500000D01*
X66700000Y25800000D02*
X69144398Y25800000D01*
X73900000Y32500000D02*
X74100000Y32500000D01*
X73900000Y34500000D02*
X73900000Y32500000D01*
X73900000Y36500000D02*
X73900000Y34500000D01*
X73900000Y27100000D02*
X74050000Y26950000D01*
X74050000Y26950000D02*
X74050000Y25500000D01*
X73900000Y28500000D02*
X73900000Y27100000D01*
D31*
X39000000Y33000000D02*
X39000000Y26000000D01*
X39000000Y26000000D02*
X31300000Y18300000D01*
X31300000Y18300000D02*
X27500000Y18300000D01*
X27500000Y36500000D02*
X14500000Y36500000D01*
X39000000Y42000000D02*
X39000000Y43200000D01*
X39000000Y43200000D02*
X27500000Y54700000D01*
X39000000Y42000000D02*
X39000000Y40000000D01*
X39000000Y40000000D02*
X35500000Y36500000D01*
X27500000Y36500000D02*
X35500000Y36500000D01*
X35500000Y36500000D02*
X39000000Y33000000D01*
X15560000Y23250000D02*
X15690000Y23380000D01*
X15690000Y23380000D02*
X27500000Y23380000D01*
X8760000Y30050000D02*
X15560000Y23250000D01*
X8760000Y39880000D02*
X8760000Y30050000D01*
X14500000Y41580000D02*
X10460000Y41580000D01*
X10460000Y41580000D02*
X8760000Y39880000D01*
X27500000Y59780000D02*
X24420581Y59780000D01*
X24420581Y59780000D02*
X22500000Y57859419D01*
X22500000Y50620000D02*
X27500000Y45620000D01*
X22500000Y57859419D02*
X22500000Y50620000D01*
X27500000Y45620000D02*
X27500000Y41580000D01*
X14500000Y41580000D02*
X27500000Y41580000D01*
X27500000Y59780000D02*
X31780000Y59780000D01*
X31780000Y59780000D02*
X39000000Y67000000D01*
D30*
X63500000Y28000000D02*
X65160000Y29660000D01*
X65160000Y29660000D02*
X66700000Y29660000D01*
X63500000Y23816000D02*
X63500000Y28000000D01*
X61300000Y22620000D02*
X62304000Y22620000D01*
X62304000Y22620000D02*
X63500000Y23816000D01*
X66700000Y29660000D02*
X66700000Y33306425D01*
X66700000Y33306425D02*
X65006425Y35000000D01*
X65006425Y35000000D02*
X65000000Y35000000D01*
X60120000Y22620000D02*
X59000000Y21500000D01*
X59000000Y21500000D02*
X59000000Y19500000D01*
X60120000Y22620000D02*
X61300000Y22620000D01*
X61300000Y29660000D02*
X61300000Y30089000D01*
X61300000Y30089000D02*
X61500000Y30289000D01*
X61500000Y30289000D02*
X61500000Y34254000D01*
X61500000Y34254000D02*
X62246000Y35000000D01*
X62246000Y35000000D02*
X63000000Y35000000D01*
X75000000Y24250000D02*
X75000000Y16879000D01*
X75500000Y16379000D02*
X75500000Y15500000D01*
X75000000Y16879000D02*
X75500000Y16379000D01*
X75950000Y25500000D02*
X75950000Y25200000D01*
X75950000Y25200000D02*
X75000000Y24250000D01*
D32*
X70200000Y47800000D02*
X66800000Y47800000D01*
X46500000Y67500000D02*
X46500000Y59500000D01*
X46500000Y59500000D02*
X46500000Y41500000D01*
X51200000Y54700000D02*
X46500000Y59400000D01*
X46500000Y59400000D02*
X46500000Y59500000D01*
X46500000Y41500000D02*
X46500000Y23000000D01*
X51200000Y36500000D02*
X46500000Y41200000D01*
X46500000Y41200000D02*
X46500000Y41500000D01*
X46500000Y23000000D02*
X51200000Y18300000D01*
X49500000Y70500000D02*
X46500000Y67500000D01*
X49500000Y72000000D02*
X49500000Y70500000D01*
X70170000Y60330000D02*
X68500000Y60330000D01*
X68500000Y60330000D02*
X65700000Y60330000D01*
X65000000Y70500000D02*
X68500000Y67000000D01*
X68500000Y67000000D02*
X68500000Y60330000D01*
X59500000Y70500000D02*
X65000000Y70500000D01*
X55000000Y75000000D02*
X59500000Y70500000D01*
X51000000Y75000000D02*
X55000000Y75000000D01*
X49500000Y73500000D02*
X51000000Y75000000D01*
X49500000Y72000000D02*
X49500000Y73500000D01*
X70200000Y44600000D02*
X71858000Y44600000D01*
X71858000Y44600000D02*
X74000000Y46742000D01*
X74000000Y46742000D02*
X74000000Y56500000D01*
X74000000Y56500000D02*
X70170000Y60330000D01*
X66800000Y44600000D02*
X65834084Y44600000D01*
X66000000Y38500000D02*
X70500000Y38500000D01*
X65834084Y44600000D02*
X65279246Y44045162D01*
X65279246Y44045162D02*
X63045162Y44045162D01*
X63045162Y44045162D02*
X62500000Y43500000D01*
X62500000Y43500000D02*
X62500000Y42000000D01*
X62500000Y42000000D02*
X66000000Y38500000D01*
X70500000Y38500000D02*
X72000000Y37000000D01*
X72000000Y37000000D02*
X72000000Y21000000D01*
X72000000Y21000000D02*
X71500000Y21500000D01*
X72500000Y15746000D02*
X72254000Y15500000D01*
X72254000Y15500000D02*
X71500000Y15500000D01*
X72500000Y15746000D02*
X72746000Y15500000D01*
X72746000Y15500000D02*
X73500000Y15500000D01*
X72500000Y17500000D02*
X72500000Y15746000D01*
X72500000Y17500000D02*
X71000000Y17500000D01*
X72500000Y20500000D02*
X72500000Y17500000D01*
X72000000Y21000000D02*
X72500000Y20500000D01*
D33*
X66700000Y24540000D02*
X68460000Y24540000D01*
X68460000Y24540000D02*
X69500000Y23500000D01*
D32*
X70200000Y44600000D02*
X66800000Y44600000D01*
D33*
X65000000Y19500000D02*
X63000000Y19500000D01*
X63000000Y21284000D02*
X63000000Y21411000D01*
X63000000Y21411000D02*
X62431000Y21980000D01*
X62431000Y21980000D02*
X61300000Y21980000D01*
X63000000Y21284000D02*
X63000000Y19500000D01*
X65000000Y27811000D02*
X65000000Y24500000D01*
X65000000Y24500000D02*
X65000000Y23500000D01*
X66700000Y25180000D02*
X65569000Y25180000D01*
X65569000Y25180000D02*
X65000000Y24611000D01*
X65000000Y24611000D02*
X65000000Y24500000D01*
X66700000Y23900000D02*
X65569000Y23900000D01*
X65000000Y23500000D02*
X65000000Y21924000D01*
X65569000Y23900000D02*
X65169000Y23500000D01*
X65169000Y23500000D02*
X65000000Y23500000D01*
X66700000Y22620000D02*
X65569000Y22620000D01*
X65569000Y22620000D02*
X65000000Y22051000D01*
X65000000Y22051000D02*
X65000000Y21924000D01*
X65000000Y21924000D02*
X65000000Y19500000D01*
X66700000Y28380000D02*
X65569000Y28380000D01*
X65569000Y28380000D02*
X65000000Y27811000D01*
D30*
X63000000Y21284000D02*
X63000000Y20254000D01*
X63000000Y20254000D02*
X63000000Y19500000D01*
X72749310Y26053840D02*
X72749310Y26538773D01*
X72749310Y24704690D02*
X72749310Y26053840D01*
X74050000Y23404000D02*
X72749310Y24704690D01*
X74050000Y22500000D02*
X74050000Y23404000D01*
X66700000Y26460000D02*
X68460000Y26460000D01*
X68460000Y26460000D02*
X68500000Y26500000D01*
X67704000Y27100000D02*
X66700000Y27100000D01*
X69500000Y28896000D02*
X67704000Y27100000D01*
X69500000Y31500000D02*
X69500000Y28896000D01*
X67500000Y33500000D02*
X69500000Y31500000D01*
X67500000Y34500000D02*
X67500000Y33500000D01*
X68500000Y19450000D02*
X70950000Y19450000D01*
X70950000Y19450000D02*
X71000000Y19400000D01*
X68500000Y20500000D02*
X68500000Y19450000D01*
X66700000Y23260000D02*
X68240000Y23260000D01*
X68240000Y23260000D02*
X68500000Y23000000D01*
X64925000Y32500000D02*
X64925000Y31001000D01*
X64925000Y31001000D02*
X62304000Y28380000D01*
X62304000Y28380000D02*
X61300000Y28380000D01*
X61300000Y29020000D02*
X62304000Y29020000D01*
X62304000Y29020000D02*
X63075000Y29791000D01*
X63075000Y29791000D02*
X63075000Y32500000D01*
X61300000Y21340000D02*
X61300000Y19750000D01*
X61300000Y19750000D02*
X61000000Y19450000D01*
X76100000Y30500000D02*
X76954000Y30500000D01*
X76954000Y30500000D02*
X76979401Y30474599D01*
X76979401Y30474599D02*
X76979401Y24433401D01*
X76979401Y24433401D02*
X75950000Y23404000D01*
X75950000Y23404000D02*
X75950000Y22500000D01*
X76100000Y32500000D02*
X76100000Y30500000D01*
X76100000Y36500000D02*
X76100000Y34500000D01*
X76100000Y36500000D02*
X76100000Y37900000D01*
X76100000Y37900000D02*
X75750000Y38250000D01*
X61300000Y26460000D02*
X59342275Y26460000D01*
X57411625Y28390650D02*
X57411625Y45431088D01*
X59342275Y26460000D02*
X57411625Y28390650D01*
X57411625Y45431088D02*
X53500000Y49342713D01*
X53500000Y49342713D02*
X53500000Y51500000D01*
X51226362Y33517253D02*
X51226362Y34002186D01*
X57123461Y24540000D02*
X51226362Y30437099D01*
X61300000Y24540000D02*
X57123461Y24540000D01*
X51226362Y30437099D02*
X51226362Y33517253D01*
X61300000Y25820000D02*
X59105250Y25820000D01*
X59105250Y25820000D02*
X56812198Y28113052D01*
X56812198Y28113052D02*
X56812198Y45113052D01*
X56812198Y45113052D02*
X52500000Y49425250D01*
X52500000Y49425250D02*
X52500000Y54169670D01*
X52500000Y54169670D02*
X52500000Y54700000D01*
X60500000Y62500000D02*
X59151593Y61151593D01*
X59151593Y61151593D02*
X59151593Y28576127D01*
X59151593Y28576127D02*
X59987720Y27740000D01*
X59987720Y27740000D02*
X61300000Y27740000D01*
X65700000Y62870000D02*
X65007642Y63562358D01*
X65007642Y63562358D02*
X56709142Y63562358D01*
X56709142Y63562358D02*
X52152256Y68119244D01*
X52152256Y68119244D02*
X52152256Y71347744D01*
X52152256Y71347744D02*
X51500000Y72000000D01*
X61300000Y25180000D02*
X57320000Y25180000D01*
X51850000Y30650000D02*
X57320000Y25180000D01*
X51850000Y35150000D02*
X51850000Y30650000D01*
D34*
X51850000Y37150000D02*
X51850000Y35150000D01*
D30*
X61300000Y23260000D02*
X53260000Y23260000D01*
X52500000Y22500000D02*
X53260000Y23260000D01*
X52500000Y20000000D02*
X52500000Y22500000D01*
D34*
X52500000Y18300000D02*
X52500000Y20000000D01*
D30*
X52900000Y23900000D02*
X61300000Y23900000D01*
X52900000Y23900000D02*
X51850000Y22850000D01*
X51850000Y22850000D02*
X51850000Y18950000D01*
X53500000Y72000000D02*
X52656738Y71156738D01*
X52656738Y71156738D02*
X52656738Y68343262D01*
X52656738Y68343262D02*
X56827226Y64172774D01*
X56827226Y64172774D02*
X64972774Y64172774D01*
X64972774Y64172774D02*
X65700000Y64900000D01*
X59500000Y62500000D02*
X58502695Y61502695D01*
X58502695Y61502695D02*
X58502695Y28280818D01*
X58502695Y28280818D02*
X59683513Y27100000D01*
X59683513Y27100000D02*
X61300000Y27100000D01*
X66700000Y21980000D02*
X69519463Y21980000D01*
X69519463Y21980000D02*
X70488761Y22949298D01*
X70488761Y22949298D02*
X70488761Y36511239D01*
X60722079Y44722079D02*
X62200000Y46200000D01*
X70488761Y36511239D02*
X70000000Y37000000D01*
X70000000Y37000000D02*
X65000000Y37000000D01*
X65000000Y37000000D02*
X60722079Y41277921D01*
X62200000Y46200000D02*
X64000000Y46200000D01*
X60722079Y41277921D02*
X60722079Y44722079D01*
D34*
X66800000Y46200000D02*
X64000000Y46200000D01*
X70200000Y46200000D02*
X66800000Y46200000D01*
D30*
X66700000Y21340000D02*
X69644640Y21340000D01*
X69644640Y21340000D02*
X70931914Y22627274D01*
X70931914Y22627274D02*
X70931914Y36642836D01*
X70931914Y36642836D02*
X70074750Y37500000D01*
X70074750Y37500000D02*
X65074750Y37500000D01*
X65074750Y37500000D02*
X61201875Y41372875D01*
X62400000Y45400000D02*
X64900000Y45400000D01*
X61201875Y41372875D02*
X61201875Y44201875D01*
X61201875Y44201875D02*
X62400000Y45400000D01*
D34*
X64900000Y45400000D02*
X62600000Y45400000D01*
X70200000Y45400000D02*
X64900000Y45400000D01*
D30*
G36*
X44755418Y76542739D02*
X44595635Y76223970D01*
X45930000Y74889605D01*
X47264365Y76223970D01*
X47104582Y76542739D01*
X46473819Y76790000D01*
X58492359Y76790000D01*
X57895418Y76542739D01*
X57735635Y76223970D01*
X59070000Y74889605D01*
X60404365Y76223970D01*
X60244582Y76542739D01*
X59613819Y76790000D01*
X76790000Y76790000D01*
X76790000Y52285000D01*
X76085750Y52285000D01*
X75927000Y52126250D01*
X75927000Y50777000D01*
X75947000Y50777000D01*
X75947000Y50523000D01*
X75927000Y50523000D01*
X75927000Y49173750D01*
X76085750Y49015000D01*
X76790000Y49015000D01*
X76790000Y43385000D01*
X76085750Y43385000D01*
X75927000Y43226250D01*
X75927000Y41877000D01*
X75947000Y41877000D01*
X75947000Y41623000D01*
X75927000Y41623000D01*
X75927000Y40273750D01*
X76085750Y40115000D01*
X76790000Y40115000D01*
X76790000Y38212551D01*
X76737834Y38290623D01*
X76727949Y38305418D01*
X76728069Y38443663D01*
X76579507Y38803212D01*
X76304659Y39078540D01*
X75945370Y39227730D01*
X75556337Y39228069D01*
X75196788Y39079507D01*
X74921460Y38804659D01*
X74772270Y38445370D01*
X74771931Y38056337D01*
X74920493Y37696788D01*
X75051238Y37565814D01*
X75048559Y37564090D01*
X75000866Y37494289D01*
X74964090Y37551441D01*
X74751890Y37696431D01*
X74500000Y37747440D01*
X73300000Y37747440D01*
X73064683Y37703162D01*
X72848559Y37564090D01*
X72759159Y37433249D01*
X72628618Y37628618D01*
X71128618Y39128618D01*
X71091721Y39153272D01*
X70840206Y39321329D01*
X70500000Y39389000D01*
X66368236Y39389000D01*
X65746398Y40010838D01*
X66341418Y40024836D01*
X66984522Y40291218D01*
X67125988Y40594407D01*
X65900000Y41820395D01*
X65885858Y41806252D01*
X65706253Y41985857D01*
X65720395Y42000000D01*
X66079605Y42000000D01*
X67305593Y40774012D01*
X67608782Y40915478D01*
X67821110Y41464250D01*
X68415000Y41464250D01*
X68415000Y40623690D01*
X68511673Y40390301D01*
X68690302Y40211673D01*
X68923691Y40115000D01*
X70014250Y40115000D01*
X70173000Y40273750D01*
X70173000Y41623000D01*
X70427000Y41623000D01*
X70427000Y40273750D01*
X70585750Y40115000D01*
X71676309Y40115000D01*
X71909698Y40211673D01*
X72088327Y40390301D01*
X72185000Y40623690D01*
X72185000Y41464250D01*
X73915000Y41464250D01*
X73915000Y40623690D01*
X74011673Y40390301D01*
X74190302Y40211673D01*
X74423691Y40115000D01*
X75514250Y40115000D01*
X75673000Y40273750D01*
X75673000Y41623000D01*
X74073750Y41623000D01*
X73915000Y41464250D01*
X72185000Y41464250D01*
X72026250Y41623000D01*
X70427000Y41623000D01*
X70173000Y41623000D01*
X68573750Y41623000D01*
X68415000Y41464250D01*
X67821110Y41464250D01*
X67893737Y41651955D01*
X67875164Y42441418D01*
X67695027Y42876310D01*
X68415000Y42876310D01*
X68415000Y42035750D01*
X68573750Y41877000D01*
X70173000Y41877000D01*
X70173000Y43226250D01*
X70427000Y43226250D01*
X70427000Y41877000D01*
X72026250Y41877000D01*
X72185000Y42035750D01*
X72185000Y42876310D01*
X73915000Y42876310D01*
X73915000Y42035750D01*
X74073750Y41877000D01*
X75673000Y41877000D01*
X75673000Y43226250D01*
X75514250Y43385000D01*
X74423691Y43385000D01*
X74190302Y43288327D01*
X74011673Y43109699D01*
X73915000Y42876310D01*
X72185000Y42876310D01*
X72088327Y43109699D01*
X71909698Y43288327D01*
X71676309Y43385000D01*
X70585750Y43385000D01*
X70427000Y43226250D01*
X70173000Y43226250D01*
X70014250Y43385000D01*
X68923691Y43385000D01*
X68690302Y43288327D01*
X68511673Y43109699D01*
X68415000Y42876310D01*
X67695027Y42876310D01*
X67608782Y43084522D01*
X67305593Y43225988D01*
X66079605Y42000000D01*
X65720395Y42000000D01*
X65706253Y42014142D01*
X65885858Y42193747D01*
X65900000Y42179605D01*
X67125988Y43405593D01*
X67086467Y43490294D01*
X67442086Y43637233D01*
X67515982Y43711000D01*
X69008322Y43711000D01*
X69050000Y43702560D01*
X71350000Y43702560D01*
X71394855Y43711000D01*
X71745441Y43711000D01*
X71879646Y43386200D01*
X72184595Y43080718D01*
X72583233Y42915189D01*
X73014873Y42914812D01*
X73413800Y43079646D01*
X73719282Y43384595D01*
X73884811Y43783233D01*
X73885188Y44214873D01*
X73720354Y44613800D01*
X73424953Y44909717D01*
X74628618Y46113382D01*
X74821329Y46401794D01*
X74889000Y46742000D01*
X74889000Y49015000D01*
X75514250Y49015000D01*
X75673000Y49173750D01*
X75673000Y50523000D01*
X75653000Y50523000D01*
X75653000Y50777000D01*
X75673000Y50777000D01*
X75673000Y52126250D01*
X75514250Y52285000D01*
X74889000Y52285000D01*
X74889000Y56500000D01*
X74821329Y56840206D01*
X74628618Y57128618D01*
X70798618Y60958618D01*
X70790743Y60963880D01*
X70510206Y61151329D01*
X70170000Y61219000D01*
X69389000Y61219000D01*
X69389000Y67000000D01*
X69321329Y67340206D01*
X69128618Y67628618D01*
X68402014Y68355222D01*
X68835387Y68363503D01*
X69544582Y68657261D01*
X69704365Y68976030D01*
X68370000Y70310395D01*
X68355858Y70296252D01*
X68176253Y70475857D01*
X68190395Y70490000D01*
X68549605Y70490000D01*
X69883970Y69155635D01*
X70202739Y69315418D01*
X70512723Y70106187D01*
X70496497Y70955387D01*
X70202739Y71664582D01*
X69883970Y71824365D01*
X68549605Y70490000D01*
X68190395Y70490000D01*
X66856030Y71824365D01*
X66537261Y71664582D01*
X66227277Y70873813D01*
X66233975Y70523261D01*
X65628618Y71128618D01*
X65340206Y71321329D01*
X65000000Y71389000D01*
X59868236Y71389000D01*
X59253266Y72003970D01*
X67035635Y72003970D01*
X68370000Y70669605D01*
X69704365Y72003970D01*
X69544582Y72322739D01*
X68753813Y72632723D01*
X67904613Y72616497D01*
X67195418Y72322739D01*
X67035635Y72003970D01*
X59253266Y72003970D01*
X58689888Y72567348D01*
X59535387Y72583503D01*
X60244582Y72877261D01*
X60404365Y73196030D01*
X59070000Y74530395D01*
X59055858Y74516252D01*
X58876253Y74695857D01*
X58890395Y74710000D01*
X59249605Y74710000D01*
X60583970Y73375635D01*
X60902739Y73535418D01*
X60911348Y73557381D01*
X71764613Y73557381D01*
X72104155Y72735628D01*
X72732321Y72106364D01*
X73553481Y71765389D01*
X74442619Y71764613D01*
X75264372Y72104155D01*
X75893636Y72732321D01*
X76234611Y73553481D01*
X76235387Y74442619D01*
X75895845Y75264372D01*
X75267679Y75893636D01*
X74446519Y76234611D01*
X73557381Y76235387D01*
X72735628Y75895845D01*
X72106364Y75267679D01*
X71765389Y74446519D01*
X71764613Y73557381D01*
X60911348Y73557381D01*
X61212723Y74326187D01*
X61196497Y75175387D01*
X60902739Y75884582D01*
X60583970Y76044365D01*
X59249605Y74710000D01*
X58890395Y74710000D01*
X57556030Y76044365D01*
X57237261Y75884582D01*
X56927277Y75093813D01*
X56942157Y74315079D01*
X55628618Y75628618D01*
X55340206Y75821329D01*
X55000000Y75889000D01*
X51000000Y75889000D01*
X50659794Y75821329D01*
X50371382Y75628618D01*
X48871382Y74128618D01*
X48678671Y73840206D01*
X48611000Y73500000D01*
X48611000Y73069530D01*
X48326539Y72785564D01*
X48115241Y72276702D01*
X48114760Y71725715D01*
X48325169Y71216485D01*
X48611000Y70930155D01*
X48611000Y70868236D01*
X45871382Y68128618D01*
X45678671Y67840206D01*
X45611000Y67500000D01*
X45611000Y23000000D01*
X45678671Y22659794D01*
X45811378Y22461184D01*
X45871382Y22371382D01*
X49352827Y18889937D01*
X49295715Y18832825D01*
X49114485Y18757942D01*
X48823081Y18467046D01*
X48767289Y18332684D01*
X48564501Y18129896D01*
X48601648Y17914783D01*
X48665012Y17893644D01*
X48664821Y17675029D01*
X48822058Y17294485D01*
X49112954Y17003081D01*
X49493223Y16845180D01*
X49904971Y16844821D01*
X50037325Y16899508D01*
X50057050Y16851887D01*
X50264447Y16824052D01*
X50809099Y17368704D01*
X50998217Y17290176D01*
X51269666Y17289939D01*
X51735553Y16824052D01*
X51942950Y16851887D01*
X52073272Y17252939D01*
X52062647Y17387993D01*
X52298217Y17290176D01*
X52700020Y17289825D01*
X52936143Y17387389D01*
X52959801Y17086666D01*
X53057050Y16851887D01*
X53264447Y16824052D01*
X53720025Y17279630D01*
X54085301Y17310523D01*
X54201112Y17358493D01*
X54735553Y16824052D01*
X54942950Y16851887D01*
X54958895Y16900957D01*
X55093223Y16845180D01*
X55504971Y16844821D01*
X55885515Y17002058D01*
X56098077Y17214250D01*
X57740000Y17214250D01*
X57740000Y16873691D01*
X57836673Y16640302D01*
X58015301Y16461673D01*
X58248690Y16365000D01*
X58714250Y16365000D01*
X58873000Y16523750D01*
X58873000Y17373000D01*
X59127000Y17373000D01*
X59127000Y16523750D01*
X59285750Y16365000D01*
X59751310Y16365000D01*
X59984699Y16461673D01*
X60127761Y16604735D01*
X60223690Y16565000D01*
X60714250Y16565000D01*
X60873000Y16723750D01*
X60873000Y17423000D01*
X61127000Y17423000D01*
X61127000Y16723750D01*
X61285750Y16565000D01*
X61776310Y16565000D01*
X61872239Y16604735D01*
X62015301Y16461673D01*
X62248690Y16365000D01*
X62714250Y16365000D01*
X62873000Y16523750D01*
X62873000Y17373000D01*
X63127000Y17373000D01*
X63127000Y16523750D01*
X63285750Y16365000D01*
X63751310Y16365000D01*
X63984699Y16461673D01*
X64000000Y16476974D01*
X64015301Y16461673D01*
X64248690Y16365000D01*
X64714250Y16365000D01*
X64873000Y16523750D01*
X64873000Y17373000D01*
X65127000Y17373000D01*
X65127000Y16523750D01*
X65285750Y16365000D01*
X65751310Y16365000D01*
X65984699Y16461673D01*
X66163327Y16640302D01*
X66260000Y16873691D01*
X66260000Y17214250D01*
X66210000Y17264250D01*
X67215000Y17264250D01*
X67215000Y17073691D01*
X67311673Y16840302D01*
X67490301Y16661673D01*
X67723690Y16565000D01*
X68214250Y16565000D01*
X68373000Y16723750D01*
X68373000Y17423000D01*
X67373750Y17423000D01*
X67215000Y17264250D01*
X66210000Y17264250D01*
X66101250Y17373000D01*
X65127000Y17373000D01*
X64873000Y17373000D01*
X63127000Y17373000D01*
X62873000Y17373000D01*
X62176250Y17373000D01*
X62126250Y17423000D01*
X61127000Y17423000D01*
X60873000Y17423000D01*
X59873750Y17423000D01*
X59823750Y17373000D01*
X59127000Y17373000D01*
X58873000Y17373000D01*
X57898750Y17373000D01*
X57740000Y17214250D01*
X56098077Y17214250D01*
X56176919Y17292954D01*
X56334820Y17673223D01*
X56335008Y17888545D01*
X56398352Y17914783D01*
X56435499Y18129896D01*
X56232908Y18332487D01*
X56177942Y18465515D01*
X55887046Y18756919D01*
X55704314Y18832796D01*
X55631253Y18905857D01*
X55645395Y18920000D01*
X56004605Y18920000D01*
X56615104Y18309501D01*
X56830217Y18346648D01*
X56973112Y18774972D01*
X56941217Y19225375D01*
X56830217Y19493352D01*
X56615104Y19530499D01*
X56004605Y18920000D01*
X55645395Y18920000D01*
X55631253Y18934142D01*
X55810858Y19113747D01*
X55825000Y19099605D01*
X56435499Y19710104D01*
X56398352Y19925217D01*
X55970028Y20068112D01*
X55519625Y20036217D01*
X55251648Y19925217D01*
X55214501Y19710107D01*
X55098274Y19826334D01*
X55069743Y19797803D01*
X55040199Y20173334D01*
X54942950Y20408113D01*
X54735553Y20435948D01*
X54179605Y19880000D01*
X54193748Y19865857D01*
X54014143Y19686252D01*
X54000000Y19700395D01*
X53985858Y19686252D01*
X53806253Y19865857D01*
X53820395Y19880000D01*
X53806253Y19894142D01*
X53985858Y20073747D01*
X54000000Y20059605D01*
X54555948Y20615553D01*
X54528113Y20822950D01*
X54127061Y20953272D01*
X53706666Y20920199D01*
X53471887Y20822950D01*
X53444052Y20615556D01*
X53327346Y20732262D01*
X53262000Y20666916D01*
X53262000Y22184370D01*
X53575631Y22498000D01*
X58920370Y22498000D01*
X58461185Y22038815D01*
X58296004Y21791605D01*
X58238000Y21500000D01*
X58238000Y20621662D01*
X58139683Y20603162D01*
X57923559Y20464090D01*
X57778569Y20251890D01*
X57727560Y20000000D01*
X57727560Y19000000D01*
X57771838Y18764683D01*
X57910910Y18548559D01*
X57979006Y18502031D01*
X57836673Y18359698D01*
X57740000Y18126309D01*
X57740000Y17785750D01*
X57898750Y17627000D01*
X58873000Y17627000D01*
X58873000Y17647000D01*
X59127000Y17647000D01*
X59127000Y17627000D01*
X60101250Y17627000D01*
X60151250Y17677000D01*
X60873000Y17677000D01*
X60873000Y17697000D01*
X61127000Y17697000D01*
X61127000Y17677000D01*
X61848750Y17677000D01*
X61898750Y17627000D01*
X62873000Y17627000D01*
X62873000Y17647000D01*
X63127000Y17647000D01*
X63127000Y17627000D01*
X64873000Y17627000D01*
X64873000Y17647000D01*
X65127000Y17647000D01*
X65127000Y17627000D01*
X66101250Y17627000D01*
X66260000Y17785750D01*
X66260000Y18126309D01*
X66163327Y18359698D01*
X66022090Y18500936D01*
X66076441Y18535910D01*
X66221431Y18748110D01*
X66272440Y19000000D01*
X66272440Y20000000D01*
X66228162Y20235317D01*
X66089090Y20451441D01*
X65992322Y20517560D01*
X67450000Y20517560D01*
X67522127Y20531132D01*
X67521963Y20343499D01*
X67398559Y20264090D01*
X67253569Y20051890D01*
X67202560Y19800000D01*
X67202560Y19100000D01*
X67246838Y18864683D01*
X67385910Y18648559D01*
X67598110Y18503569D01*
X67631490Y18496809D01*
X67490301Y18438327D01*
X67311673Y18259698D01*
X67215000Y18026309D01*
X67215000Y17835750D01*
X67373750Y17677000D01*
X68373000Y17677000D01*
X68373000Y17697000D01*
X68627000Y17697000D01*
X68627000Y17677000D01*
X68647000Y17677000D01*
X68647000Y17423000D01*
X68627000Y17423000D01*
X68627000Y16723750D01*
X68673622Y16677128D01*
X68640302Y16663327D01*
X68461673Y16484699D01*
X68365000Y16251310D01*
X68365000Y15785750D01*
X68523750Y15627000D01*
X69373000Y15627000D01*
X69373000Y15647000D01*
X69627000Y15647000D01*
X69627000Y15627000D01*
X69647000Y15627000D01*
X69647000Y15373000D01*
X69627000Y15373000D01*
X69627000Y14398750D01*
X69785750Y14240000D01*
X70126309Y14240000D01*
X70359698Y14336673D01*
X70500936Y14477910D01*
X70535910Y14423559D01*
X70748110Y14278569D01*
X71000000Y14227560D01*
X72000000Y14227560D01*
X72235317Y14271838D01*
X72451441Y14410910D01*
X72499134Y14480711D01*
X72535910Y14423559D01*
X72748110Y14278569D01*
X73000000Y14227560D01*
X74000000Y14227560D01*
X74235317Y14271838D01*
X74451441Y14410910D01*
X74497969Y14479006D01*
X74640302Y14336673D01*
X74873691Y14240000D01*
X75214250Y14240000D01*
X75373000Y14398750D01*
X75373000Y15373000D01*
X75627000Y15373000D01*
X75627000Y14398750D01*
X75785750Y14240000D01*
X76126309Y14240000D01*
X76359698Y14336673D01*
X76538327Y14515301D01*
X76635000Y14748690D01*
X76635000Y15214250D01*
X76476250Y15373000D01*
X75627000Y15373000D01*
X75373000Y15373000D01*
X75353000Y15373000D01*
X75353000Y15627000D01*
X75373000Y15627000D01*
X75373000Y16601250D01*
X75627000Y16601250D01*
X75627000Y15627000D01*
X76476250Y15627000D01*
X76635000Y15785750D01*
X76635000Y16251310D01*
X76538327Y16484699D01*
X76359698Y16663327D01*
X76126309Y16760000D01*
X75785750Y16760000D01*
X75627000Y16601250D01*
X75373000Y16601250D01*
X75214250Y16760000D01*
X74873691Y16760000D01*
X74640302Y16663327D01*
X74499064Y16522090D01*
X74464090Y16576441D01*
X74251890Y16721431D01*
X74000000Y16772440D01*
X73389000Y16772440D01*
X73389000Y20500000D01*
X73321329Y20840206D01*
X73128618Y21128618D01*
X72889000Y21368236D01*
X72889000Y23487369D01*
X73081830Y23294539D01*
X73052560Y23150000D01*
X73052560Y21850000D01*
X73096838Y21614683D01*
X73235910Y21398559D01*
X73448110Y21253569D01*
X73700000Y21202560D01*
X74400000Y21202560D01*
X74635317Y21246838D01*
X74851441Y21385910D01*
X74996431Y21598110D01*
X74999081Y21611197D01*
X75135910Y21398559D01*
X75348110Y21253569D01*
X75600000Y21202560D01*
X76300000Y21202560D01*
X76535317Y21246838D01*
X76751441Y21385910D01*
X76790000Y21442343D01*
X76790000Y3210000D01*
X42627000Y3210000D01*
X42627000Y3764670D01*
X42692619Y3764613D01*
X43514372Y4104155D01*
X44143636Y4732321D01*
X44484611Y5553481D01*
X44484614Y5557381D01*
X71764613Y5557381D01*
X72104155Y4735628D01*
X72732321Y4106364D01*
X73553481Y3765389D01*
X74442619Y3764613D01*
X75264372Y4104155D01*
X75893636Y4732321D01*
X76234611Y5553481D01*
X76235387Y6442619D01*
X75895845Y7264372D01*
X75267679Y7893636D01*
X74446519Y8234611D01*
X73557381Y8235387D01*
X72735628Y7895845D01*
X72106364Y7267679D01*
X71765389Y6446519D01*
X71764613Y5557381D01*
X44484614Y5557381D01*
X44485387Y6442619D01*
X44145845Y7264372D01*
X43517679Y7893636D01*
X42696519Y8234611D01*
X42627000Y8234672D01*
X42627000Y15214250D01*
X68365000Y15214250D01*
X68365000Y14748690D01*
X68461673Y14515301D01*
X68640302Y14336673D01*
X68873691Y14240000D01*
X69214250Y14240000D01*
X69373000Y14398750D01*
X69373000Y15373000D01*
X68523750Y15373000D01*
X68365000Y15214250D01*
X42627000Y15214250D01*
X42627000Y16644447D01*
X50444052Y16644447D01*
X50471887Y16437050D01*
X50872939Y16306728D01*
X51293334Y16339801D01*
X51528113Y16437050D01*
X51555948Y16644447D01*
X53444052Y16644447D01*
X53471887Y16437050D01*
X53872939Y16306728D01*
X54293334Y16339801D01*
X54528113Y16437050D01*
X54555948Y16644447D01*
X54000000Y17200395D01*
X53444052Y16644447D01*
X51555948Y16644447D01*
X51000000Y17200395D01*
X50444052Y16644447D01*
X42627000Y16644447D01*
X42627000Y19065028D01*
X48026888Y19065028D01*
X48058783Y18614625D01*
X48169783Y18346648D01*
X48384896Y18309501D01*
X48995395Y18920000D01*
X48384896Y19530499D01*
X48169783Y19493352D01*
X48026888Y19065028D01*
X42627000Y19065028D01*
X42627000Y71764670D01*
X42692619Y71764613D01*
X43514372Y72104155D01*
X44143636Y72732321D01*
X44336184Y73196030D01*
X44595635Y73196030D01*
X44755418Y72877261D01*
X45546187Y72567277D01*
X46395387Y72583503D01*
X47104582Y72877261D01*
X47264365Y73196030D01*
X45930000Y74530395D01*
X44595635Y73196030D01*
X44336184Y73196030D01*
X44411670Y73377820D01*
X44416030Y73375635D01*
X45750395Y74710000D01*
X46109605Y74710000D01*
X47443970Y73375635D01*
X47762739Y73535418D01*
X48072723Y74326187D01*
X48056497Y75175387D01*
X47762739Y75884582D01*
X47443970Y76044365D01*
X46109605Y74710000D01*
X45750395Y74710000D01*
X44416030Y76044365D01*
X44097261Y75884582D01*
X43936388Y75474195D01*
X43517679Y75893636D01*
X42696519Y76234611D01*
X42627000Y76234672D01*
X42627000Y76790000D01*
X45352359Y76790000D01*
X44755418Y76542739D01*
X44755418Y76542739D01*
G37*
X44755418Y76542739D02*
X44595635Y76223970D01*
X45930000Y74889605D01*
X47264365Y76223970D01*
X47104582Y76542739D01*
X46473819Y76790000D01*
X58492359Y76790000D01*
X57895418Y76542739D01*
X57735635Y76223970D01*
X59070000Y74889605D01*
X60404365Y76223970D01*
X60244582Y76542739D01*
X59613819Y76790000D01*
X76790000Y76790000D01*
X76790000Y52285000D01*
X76085750Y52285000D01*
X75927000Y52126250D01*
X75927000Y50777000D01*
X75947000Y50777000D01*
X75947000Y50523000D01*
X75927000Y50523000D01*
X75927000Y49173750D01*
X76085750Y49015000D01*
X76790000Y49015000D01*
X76790000Y43385000D01*
X76085750Y43385000D01*
X75927000Y43226250D01*
X75927000Y41877000D01*
X75947000Y41877000D01*
X75947000Y41623000D01*
X75927000Y41623000D01*
X75927000Y40273750D01*
X76085750Y40115000D01*
X76790000Y40115000D01*
X76790000Y38212551D01*
X76737834Y38290623D01*
X76727949Y38305418D01*
X76728069Y38443663D01*
X76579507Y38803212D01*
X76304659Y39078540D01*
X75945370Y39227730D01*
X75556337Y39228069D01*
X75196788Y39079507D01*
X74921460Y38804659D01*
X74772270Y38445370D01*
X74771931Y38056337D01*
X74920493Y37696788D01*
X75051238Y37565814D01*
X75048559Y37564090D01*
X75000866Y37494289D01*
X74964090Y37551441D01*
X74751890Y37696431D01*
X74500000Y37747440D01*
X73300000Y37747440D01*
X73064683Y37703162D01*
X72848559Y37564090D01*
X72759159Y37433249D01*
X72628618Y37628618D01*
X71128618Y39128618D01*
X71091721Y39153272D01*
X70840206Y39321329D01*
X70500000Y39389000D01*
X66368236Y39389000D01*
X65746398Y40010838D01*
X66341418Y40024836D01*
X66984522Y40291218D01*
X67125988Y40594407D01*
X65900000Y41820395D01*
X65885858Y41806252D01*
X65706253Y41985857D01*
X65720395Y42000000D01*
X66079605Y42000000D01*
X67305593Y40774012D01*
X67608782Y40915478D01*
X67821110Y41464250D01*
X68415000Y41464250D01*
X68415000Y40623690D01*
X68511673Y40390301D01*
X68690302Y40211673D01*
X68923691Y40115000D01*
X70014250Y40115000D01*
X70173000Y40273750D01*
X70173000Y41623000D01*
X70427000Y41623000D01*
X70427000Y40273750D01*
X70585750Y40115000D01*
X71676309Y40115000D01*
X71909698Y40211673D01*
X72088327Y40390301D01*
X72185000Y40623690D01*
X72185000Y41464250D01*
X73915000Y41464250D01*
X73915000Y40623690D01*
X74011673Y40390301D01*
X74190302Y40211673D01*
X74423691Y40115000D01*
X75514250Y40115000D01*
X75673000Y40273750D01*
X75673000Y41623000D01*
X74073750Y41623000D01*
X73915000Y41464250D01*
X72185000Y41464250D01*
X72026250Y41623000D01*
X70427000Y41623000D01*
X70173000Y41623000D01*
X68573750Y41623000D01*
X68415000Y41464250D01*
X67821110Y41464250D01*
X67893737Y41651955D01*
X67875164Y42441418D01*
X67695027Y42876310D01*
X68415000Y42876310D01*
X68415000Y42035750D01*
X68573750Y41877000D01*
X70173000Y41877000D01*
X70173000Y43226250D01*
X70427000Y43226250D01*
X70427000Y41877000D01*
X72026250Y41877000D01*
X72185000Y42035750D01*
X72185000Y42876310D01*
X73915000Y42876310D01*
X73915000Y42035750D01*
X74073750Y41877000D01*
X75673000Y41877000D01*
X75673000Y43226250D01*
X75514250Y43385000D01*
X74423691Y43385000D01*
X74190302Y43288327D01*
X74011673Y43109699D01*
X73915000Y42876310D01*
X72185000Y42876310D01*
X72088327Y43109699D01*
X71909698Y43288327D01*
X71676309Y43385000D01*
X70585750Y43385000D01*
X70427000Y43226250D01*
X70173000Y43226250D01*
X70014250Y43385000D01*
X68923691Y43385000D01*
X68690302Y43288327D01*
X68511673Y43109699D01*
X68415000Y42876310D01*
X67695027Y42876310D01*
X67608782Y43084522D01*
X67305593Y43225988D01*
X66079605Y42000000D01*
X65720395Y42000000D01*
X65706253Y42014142D01*
X65885858Y42193747D01*
X65900000Y42179605D01*
X67125988Y43405593D01*
X67086467Y43490294D01*
X67442086Y43637233D01*
X67515982Y43711000D01*
X69008322Y43711000D01*
X69050000Y43702560D01*
X71350000Y43702560D01*
X71394855Y43711000D01*
X71745441Y43711000D01*
X71879646Y43386200D01*
X72184595Y43080718D01*
X72583233Y42915189D01*
X73014873Y42914812D01*
X73413800Y43079646D01*
X73719282Y43384595D01*
X73884811Y43783233D01*
X73885188Y44214873D01*
X73720354Y44613800D01*
X73424953Y44909717D01*
X74628618Y46113382D01*
X74821329Y46401794D01*
X74889000Y46742000D01*
X74889000Y49015000D01*
X75514250Y49015000D01*
X75673000Y49173750D01*
X75673000Y50523000D01*
X75653000Y50523000D01*
X75653000Y50777000D01*
X75673000Y50777000D01*
X75673000Y52126250D01*
X75514250Y52285000D01*
X74889000Y52285000D01*
X74889000Y56500000D01*
X74821329Y56840206D01*
X74628618Y57128618D01*
X70798618Y60958618D01*
X70790743Y60963880D01*
X70510206Y61151329D01*
X70170000Y61219000D01*
X69389000Y61219000D01*
X69389000Y67000000D01*
X69321329Y67340206D01*
X69128618Y67628618D01*
X68402014Y68355222D01*
X68835387Y68363503D01*
X69544582Y68657261D01*
X69704365Y68976030D01*
X68370000Y70310395D01*
X68355858Y70296252D01*
X68176253Y70475857D01*
X68190395Y70490000D01*
X68549605Y70490000D01*
X69883970Y69155635D01*
X70202739Y69315418D01*
X70512723Y70106187D01*
X70496497Y70955387D01*
X70202739Y71664582D01*
X69883970Y71824365D01*
X68549605Y70490000D01*
X68190395Y70490000D01*
X66856030Y71824365D01*
X66537261Y71664582D01*
X66227277Y70873813D01*
X66233975Y70523261D01*
X65628618Y71128618D01*
X65340206Y71321329D01*
X65000000Y71389000D01*
X59868236Y71389000D01*
X59253266Y72003970D01*
X67035635Y72003970D01*
X68370000Y70669605D01*
X69704365Y72003970D01*
X69544582Y72322739D01*
X68753813Y72632723D01*
X67904613Y72616497D01*
X67195418Y72322739D01*
X67035635Y72003970D01*
X59253266Y72003970D01*
X58689888Y72567348D01*
X59535387Y72583503D01*
X60244582Y72877261D01*
X60404365Y73196030D01*
X59070000Y74530395D01*
X59055858Y74516252D01*
X58876253Y74695857D01*
X58890395Y74710000D01*
X59249605Y74710000D01*
X60583970Y73375635D01*
X60902739Y73535418D01*
X60911348Y73557381D01*
X71764613Y73557381D01*
X72104155Y72735628D01*
X72732321Y72106364D01*
X73553481Y71765389D01*
X74442619Y71764613D01*
X75264372Y72104155D01*
X75893636Y72732321D01*
X76234611Y73553481D01*
X76235387Y74442619D01*
X75895845Y75264372D01*
X75267679Y75893636D01*
X74446519Y76234611D01*
X73557381Y76235387D01*
X72735628Y75895845D01*
X72106364Y75267679D01*
X71765389Y74446519D01*
X71764613Y73557381D01*
X60911348Y73557381D01*
X61212723Y74326187D01*
X61196497Y75175387D01*
X60902739Y75884582D01*
X60583970Y76044365D01*
X59249605Y74710000D01*
X58890395Y74710000D01*
X57556030Y76044365D01*
X57237261Y75884582D01*
X56927277Y75093813D01*
X56942157Y74315079D01*
X55628618Y75628618D01*
X55340206Y75821329D01*
X55000000Y75889000D01*
X51000000Y75889000D01*
X50659794Y75821329D01*
X50371382Y75628618D01*
X48871382Y74128618D01*
X48678671Y73840206D01*
X48611000Y73500000D01*
X48611000Y73069530D01*
X48326539Y72785564D01*
X48115241Y72276702D01*
X48114760Y71725715D01*
X48325169Y71216485D01*
X48611000Y70930155D01*
X48611000Y70868236D01*
X45871382Y68128618D01*
X45678671Y67840206D01*
X45611000Y67500000D01*
X45611000Y23000000D01*
X45678671Y22659794D01*
X45811378Y22461184D01*
X45871382Y22371382D01*
X49352827Y18889937D01*
X49295715Y18832825D01*
X49114485Y18757942D01*
X48823081Y18467046D01*
X48767289Y18332684D01*
X48564501Y18129896D01*
X48601648Y17914783D01*
X48665012Y17893644D01*
X48664821Y17675029D01*
X48822058Y17294485D01*
X49112954Y17003081D01*
X49493223Y16845180D01*
X49904971Y16844821D01*
X50037325Y16899508D01*
X50057050Y16851887D01*
X50264447Y16824052D01*
X50809099Y17368704D01*
X50998217Y17290176D01*
X51269666Y17289939D01*
X51735553Y16824052D01*
X51942950Y16851887D01*
X52073272Y17252939D01*
X52062647Y17387993D01*
X52298217Y17290176D01*
X52700020Y17289825D01*
X52936143Y17387389D01*
X52959801Y17086666D01*
X53057050Y16851887D01*
X53264447Y16824052D01*
X53720025Y17279630D01*
X54085301Y17310523D01*
X54201112Y17358493D01*
X54735553Y16824052D01*
X54942950Y16851887D01*
X54958895Y16900957D01*
X55093223Y16845180D01*
X55504971Y16844821D01*
X55885515Y17002058D01*
X56098077Y17214250D01*
X57740000Y17214250D01*
X57740000Y16873691D01*
X57836673Y16640302D01*
X58015301Y16461673D01*
X58248690Y16365000D01*
X58714250Y16365000D01*
X58873000Y16523750D01*
X58873000Y17373000D01*
X59127000Y17373000D01*
X59127000Y16523750D01*
X59285750Y16365000D01*
X59751310Y16365000D01*
X59984699Y16461673D01*
X60127761Y16604735D01*
X60223690Y16565000D01*
X60714250Y16565000D01*
X60873000Y16723750D01*
X60873000Y17423000D01*
X61127000Y17423000D01*
X61127000Y16723750D01*
X61285750Y16565000D01*
X61776310Y16565000D01*
X61872239Y16604735D01*
X62015301Y16461673D01*
X62248690Y16365000D01*
X62714250Y16365000D01*
X62873000Y16523750D01*
X62873000Y17373000D01*
X63127000Y17373000D01*
X63127000Y16523750D01*
X63285750Y16365000D01*
X63751310Y16365000D01*
X63984699Y16461673D01*
X64000000Y16476974D01*
X64015301Y16461673D01*
X64248690Y16365000D01*
X64714250Y16365000D01*
X64873000Y16523750D01*
X64873000Y17373000D01*
X65127000Y17373000D01*
X65127000Y16523750D01*
X65285750Y16365000D01*
X65751310Y16365000D01*
X65984699Y16461673D01*
X66163327Y16640302D01*
X66260000Y16873691D01*
X66260000Y17214250D01*
X66210000Y17264250D01*
X67215000Y17264250D01*
X67215000Y17073691D01*
X67311673Y16840302D01*
X67490301Y16661673D01*
X67723690Y16565000D01*
X68214250Y16565000D01*
X68373000Y16723750D01*
X68373000Y17423000D01*
X67373750Y17423000D01*
X67215000Y17264250D01*
X66210000Y17264250D01*
X66101250Y17373000D01*
X65127000Y17373000D01*
X64873000Y17373000D01*
X63127000Y17373000D01*
X62873000Y17373000D01*
X62176250Y17373000D01*
X62126250Y17423000D01*
X61127000Y17423000D01*
X60873000Y17423000D01*
X59873750Y17423000D01*
X59823750Y17373000D01*
X59127000Y17373000D01*
X58873000Y17373000D01*
X57898750Y17373000D01*
X57740000Y17214250D01*
X56098077Y17214250D01*
X56176919Y17292954D01*
X56334820Y17673223D01*
X56335008Y17888545D01*
X56398352Y17914783D01*
X56435499Y18129896D01*
X56232908Y18332487D01*
X56177942Y18465515D01*
X55887046Y18756919D01*
X55704314Y18832796D01*
X55631253Y18905857D01*
X55645395Y18920000D01*
X56004605Y18920000D01*
X56615104Y18309501D01*
X56830217Y18346648D01*
X56973112Y18774972D01*
X56941217Y19225375D01*
X56830217Y19493352D01*
X56615104Y19530499D01*
X56004605Y18920000D01*
X55645395Y18920000D01*
X55631253Y18934142D01*
X55810858Y19113747D01*
X55825000Y19099605D01*
X56435499Y19710104D01*
X56398352Y19925217D01*
X55970028Y20068112D01*
X55519625Y20036217D01*
X55251648Y19925217D01*
X55214501Y19710107D01*
X55098274Y19826334D01*
X55069743Y19797803D01*
X55040199Y20173334D01*
X54942950Y20408113D01*
X54735553Y20435948D01*
X54179605Y19880000D01*
X54193748Y19865857D01*
X54014143Y19686252D01*
X54000000Y19700395D01*
X53985858Y19686252D01*
X53806253Y19865857D01*
X53820395Y19880000D01*
X53806253Y19894142D01*
X53985858Y20073747D01*
X54000000Y20059605D01*
X54555948Y20615553D01*
X54528113Y20822950D01*
X54127061Y20953272D01*
X53706666Y20920199D01*
X53471887Y20822950D01*
X53444052Y20615556D01*
X53327346Y20732262D01*
X53262000Y20666916D01*
X53262000Y22184370D01*
X53575631Y22498000D01*
X58920370Y22498000D01*
X58461185Y22038815D01*
X58296004Y21791605D01*
X58238000Y21500000D01*
X58238000Y20621662D01*
X58139683Y20603162D01*
X57923559Y20464090D01*
X57778569Y20251890D01*
X57727560Y20000000D01*
X57727560Y19000000D01*
X57771838Y18764683D01*
X57910910Y18548559D01*
X57979006Y18502031D01*
X57836673Y18359698D01*
X57740000Y18126309D01*
X57740000Y17785750D01*
X57898750Y17627000D01*
X58873000Y17627000D01*
X58873000Y17647000D01*
X59127000Y17647000D01*
X59127000Y17627000D01*
X60101250Y17627000D01*
X60151250Y17677000D01*
X60873000Y17677000D01*
X60873000Y17697000D01*
X61127000Y17697000D01*
X61127000Y17677000D01*
X61848750Y17677000D01*
X61898750Y17627000D01*
X62873000Y17627000D01*
X62873000Y17647000D01*
X63127000Y17647000D01*
X63127000Y17627000D01*
X64873000Y17627000D01*
X64873000Y17647000D01*
X65127000Y17647000D01*
X65127000Y17627000D01*
X66101250Y17627000D01*
X66260000Y17785750D01*
X66260000Y18126309D01*
X66163327Y18359698D01*
X66022090Y18500936D01*
X66076441Y18535910D01*
X66221431Y18748110D01*
X66272440Y19000000D01*
X66272440Y20000000D01*
X66228162Y20235317D01*
X66089090Y20451441D01*
X65992322Y20517560D01*
X67450000Y20517560D01*
X67522127Y20531132D01*
X67521963Y20343499D01*
X67398559Y20264090D01*
X67253569Y20051890D01*
X67202560Y19800000D01*
X67202560Y19100000D01*
X67246838Y18864683D01*
X67385910Y18648559D01*
X67598110Y18503569D01*
X67631490Y18496809D01*
X67490301Y18438327D01*
X67311673Y18259698D01*
X67215000Y18026309D01*
X67215000Y17835750D01*
X67373750Y17677000D01*
X68373000Y17677000D01*
X68373000Y17697000D01*
X68627000Y17697000D01*
X68627000Y17677000D01*
X68647000Y17677000D01*
X68647000Y17423000D01*
X68627000Y17423000D01*
X68627000Y16723750D01*
X68673622Y16677128D01*
X68640302Y16663327D01*
X68461673Y16484699D01*
X68365000Y16251310D01*
X68365000Y15785750D01*
X68523750Y15627000D01*
X69373000Y15627000D01*
X69373000Y15647000D01*
X69627000Y15647000D01*
X69627000Y15627000D01*
X69647000Y15627000D01*
X69647000Y15373000D01*
X69627000Y15373000D01*
X69627000Y14398750D01*
X69785750Y14240000D01*
X70126309Y14240000D01*
X70359698Y14336673D01*
X70500936Y14477910D01*
X70535910Y14423559D01*
X70748110Y14278569D01*
X71000000Y14227560D01*
X72000000Y14227560D01*
X72235317Y14271838D01*
X72451441Y14410910D01*
X72499134Y14480711D01*
X72535910Y14423559D01*
X72748110Y14278569D01*
X73000000Y14227560D01*
X74000000Y14227560D01*
X74235317Y14271838D01*
X74451441Y14410910D01*
X74497969Y14479006D01*
X74640302Y14336673D01*
X74873691Y14240000D01*
X75214250Y14240000D01*
X75373000Y14398750D01*
X75373000Y15373000D01*
X75627000Y15373000D01*
X75627000Y14398750D01*
X75785750Y14240000D01*
X76126309Y14240000D01*
X76359698Y14336673D01*
X76538327Y14515301D01*
X76635000Y14748690D01*
X76635000Y15214250D01*
X76476250Y15373000D01*
X75627000Y15373000D01*
X75373000Y15373000D01*
X75353000Y15373000D01*
X75353000Y15627000D01*
X75373000Y15627000D01*
X75373000Y16601250D01*
X75627000Y16601250D01*
X75627000Y15627000D01*
X76476250Y15627000D01*
X76635000Y15785750D01*
X76635000Y16251310D01*
X76538327Y16484699D01*
X76359698Y16663327D01*
X76126309Y16760000D01*
X75785750Y16760000D01*
X75627000Y16601250D01*
X75373000Y16601250D01*
X75214250Y16760000D01*
X74873691Y16760000D01*
X74640302Y16663327D01*
X74499064Y16522090D01*
X74464090Y16576441D01*
X74251890Y16721431D01*
X74000000Y16772440D01*
X73389000Y16772440D01*
X73389000Y20500000D01*
X73321329Y20840206D01*
X73128618Y21128618D01*
X72889000Y21368236D01*
X72889000Y23487369D01*
X73081830Y23294539D01*
X73052560Y23150000D01*
X73052560Y21850000D01*
X73096838Y21614683D01*
X73235910Y21398559D01*
X73448110Y21253569D01*
X73700000Y21202560D01*
X74400000Y21202560D01*
X74635317Y21246838D01*
X74851441Y21385910D01*
X74996431Y21598110D01*
X74999081Y21611197D01*
X75135910Y21398559D01*
X75348110Y21253569D01*
X75600000Y21202560D01*
X76300000Y21202560D01*
X76535317Y21246838D01*
X76751441Y21385910D01*
X76790000Y21442343D01*
X76790000Y3210000D01*
X42627000Y3210000D01*
X42627000Y3764670D01*
X42692619Y3764613D01*
X43514372Y4104155D01*
X44143636Y4732321D01*
X44484611Y5553481D01*
X44484614Y5557381D01*
X71764613Y5557381D01*
X72104155Y4735628D01*
X72732321Y4106364D01*
X73553481Y3765389D01*
X74442619Y3764613D01*
X75264372Y4104155D01*
X75893636Y4732321D01*
X76234611Y5553481D01*
X76235387Y6442619D01*
X75895845Y7264372D01*
X75267679Y7893636D01*
X74446519Y8234611D01*
X73557381Y8235387D01*
X72735628Y7895845D01*
X72106364Y7267679D01*
X71765389Y6446519D01*
X71764613Y5557381D01*
X44484614Y5557381D01*
X44485387Y6442619D01*
X44145845Y7264372D01*
X43517679Y7893636D01*
X42696519Y8234611D01*
X42627000Y8234672D01*
X42627000Y15214250D01*
X68365000Y15214250D01*
X68365000Y14748690D01*
X68461673Y14515301D01*
X68640302Y14336673D01*
X68873691Y14240000D01*
X69214250Y14240000D01*
X69373000Y14398750D01*
X69373000Y15373000D01*
X68523750Y15373000D01*
X68365000Y15214250D01*
X42627000Y15214250D01*
X42627000Y16644447D01*
X50444052Y16644447D01*
X50471887Y16437050D01*
X50872939Y16306728D01*
X51293334Y16339801D01*
X51528113Y16437050D01*
X51555948Y16644447D01*
X53444052Y16644447D01*
X53471887Y16437050D01*
X53872939Y16306728D01*
X54293334Y16339801D01*
X54528113Y16437050D01*
X54555948Y16644447D01*
X54000000Y17200395D01*
X53444052Y16644447D01*
X51555948Y16644447D01*
X51000000Y17200395D01*
X50444052Y16644447D01*
X42627000Y16644447D01*
X42627000Y19065028D01*
X48026888Y19065028D01*
X48058783Y18614625D01*
X48169783Y18346648D01*
X48384896Y18309501D01*
X48995395Y18920000D01*
X48384896Y19530499D01*
X48169783Y19493352D01*
X48026888Y19065028D01*
X42627000Y19065028D01*
X42627000Y71764670D01*
X42692619Y71764613D01*
X43514372Y72104155D01*
X44143636Y72732321D01*
X44336184Y73196030D01*
X44595635Y73196030D01*
X44755418Y72877261D01*
X45546187Y72567277D01*
X46395387Y72583503D01*
X47104582Y72877261D01*
X47264365Y73196030D01*
X45930000Y74530395D01*
X44595635Y73196030D01*
X44336184Y73196030D01*
X44411670Y73377820D01*
X44416030Y73375635D01*
X45750395Y74710000D01*
X46109605Y74710000D01*
X47443970Y73375635D01*
X47762739Y73535418D01*
X48072723Y74326187D01*
X48056497Y75175387D01*
X47762739Y75884582D01*
X47443970Y76044365D01*
X46109605Y74710000D01*
X45750395Y74710000D01*
X44416030Y76044365D01*
X44097261Y75884582D01*
X43936388Y75474195D01*
X43517679Y75893636D01*
X42696519Y76234611D01*
X42627000Y76234672D01*
X42627000Y76790000D01*
X45352359Y76790000D01*
X44755418Y76542739D01*
G36*
X49352827Y37089937D02*
X49295715Y37032825D01*
X49114485Y36957942D01*
X48823081Y36667046D01*
X48767289Y36532684D01*
X48564501Y36329896D01*
X48601648Y36114783D01*
X48665012Y36093644D01*
X48664821Y35875029D01*
X48822058Y35494485D01*
X49112954Y35203081D01*
X49493223Y35045180D01*
X49904971Y35044821D01*
X50037325Y35099508D01*
X50057050Y35051887D01*
X50264447Y35024052D01*
X50809099Y35568704D01*
X50998217Y35490176D01*
X51117961Y35490071D01*
X51014143Y35386252D01*
X51000000Y35400395D01*
X50444052Y34844447D01*
X50471887Y34637050D01*
X50476625Y34635510D01*
X50397822Y34556845D01*
X50248632Y34197556D01*
X50248293Y33808523D01*
X50396855Y33448974D01*
X50464362Y33381349D01*
X50464362Y30437099D01*
X50522366Y30145494D01*
X50662490Y29935784D01*
X50687547Y29898284D01*
X55923830Y24662000D01*
X52900000Y24662000D01*
X52608395Y24603996D01*
X52361184Y24438815D01*
X51311185Y23388815D01*
X51146004Y23141605D01*
X51088000Y22850000D01*
X51088000Y20950199D01*
X50706666Y20920199D01*
X50471887Y20822950D01*
X50444052Y20615553D01*
X51000000Y20059605D01*
X51014143Y20073747D01*
X51088000Y19999890D01*
X51088000Y19760110D01*
X51042563Y19714673D01*
X47389000Y23368236D01*
X47389000Y37265028D01*
X48026888Y37265028D01*
X48058783Y36814625D01*
X48169783Y36546648D01*
X48384896Y36509501D01*
X48995395Y37120000D01*
X48384896Y37730499D01*
X48169783Y37693352D01*
X48026888Y37265028D01*
X47389000Y37265028D01*
X47389000Y39053764D01*
X49352827Y37089937D01*
X49352827Y37089937D01*
G37*
X49352827Y37089937D02*
X49295715Y37032825D01*
X49114485Y36957942D01*
X48823081Y36667046D01*
X48767289Y36532684D01*
X48564501Y36329896D01*
X48601648Y36114783D01*
X48665012Y36093644D01*
X48664821Y35875029D01*
X48822058Y35494485D01*
X49112954Y35203081D01*
X49493223Y35045180D01*
X49904971Y35044821D01*
X50037325Y35099508D01*
X50057050Y35051887D01*
X50264447Y35024052D01*
X50809099Y35568704D01*
X50998217Y35490176D01*
X51117961Y35490071D01*
X51014143Y35386252D01*
X51000000Y35400395D01*
X50444052Y34844447D01*
X50471887Y34637050D01*
X50476625Y34635510D01*
X50397822Y34556845D01*
X50248632Y34197556D01*
X50248293Y33808523D01*
X50396855Y33448974D01*
X50464362Y33381349D01*
X50464362Y30437099D01*
X50522366Y30145494D01*
X50662490Y29935784D01*
X50687547Y29898284D01*
X55923830Y24662000D01*
X52900000Y24662000D01*
X52608395Y24603996D01*
X52361184Y24438815D01*
X51311185Y23388815D01*
X51146004Y23141605D01*
X51088000Y22850000D01*
X51088000Y20950199D01*
X50706666Y20920199D01*
X50471887Y20822950D01*
X50444052Y20615553D01*
X51000000Y20059605D01*
X51014143Y20073747D01*
X51088000Y19999890D01*
X51088000Y19760110D01*
X51042563Y19714673D01*
X47389000Y23368236D01*
X47389000Y37265028D01*
X48026888Y37265028D01*
X48058783Y36814625D01*
X48169783Y36546648D01*
X48384896Y36509501D01*
X48995395Y37120000D01*
X48384896Y37730499D01*
X48169783Y37693352D01*
X48026888Y37265028D01*
X47389000Y37265028D01*
X47389000Y39053764D01*
X49352827Y37089937D01*
G36*
X75061673Y24490301D02*
X75240302Y24311673D01*
X75473691Y24215000D01*
X75664250Y24215000D01*
X75822998Y24373748D01*
X75822998Y24354628D01*
X75411185Y23942815D01*
X75246004Y23695605D01*
X75241713Y23674033D01*
X75148559Y23614090D01*
X75003569Y23401890D01*
X75000919Y23388803D01*
X74864090Y23601441D01*
X74758356Y23673686D01*
X74753996Y23695605D01*
X74734355Y23725000D01*
X74588815Y23942816D01*
X74329071Y24202560D01*
X74400000Y24202560D01*
X74635317Y24246838D01*
X74851441Y24385910D01*
X74996431Y24598110D01*
X75003191Y24631490D01*
X75061673Y24490301D01*
X75061673Y24490301D01*
G37*
X75061673Y24490301D02*
X75240302Y24311673D01*
X75473691Y24215000D01*
X75664250Y24215000D01*
X75822998Y24373748D01*
X75822998Y24354628D01*
X75411185Y23942815D01*
X75246004Y23695605D01*
X75241713Y23674033D01*
X75148559Y23614090D01*
X75003569Y23401890D01*
X75000919Y23388803D01*
X74864090Y23601441D01*
X74758356Y23673686D01*
X74753996Y23695605D01*
X74734355Y23725000D01*
X74588815Y23942816D01*
X74329071Y24202560D01*
X74400000Y24202560D01*
X74635317Y24246838D01*
X74851441Y24385910D01*
X74996431Y24598110D01*
X75003191Y24631490D01*
X75061673Y24490301D01*
G36*
X76077000Y25627000D02*
X76097000Y25627000D01*
X76097000Y25373000D01*
X76077000Y25373000D01*
X76077000Y25353000D01*
X75823000Y25353000D01*
X75823000Y25373000D01*
X75803000Y25373000D01*
X75803000Y25627000D01*
X75823000Y25627000D01*
X75823000Y25647000D01*
X76077000Y25647000D01*
X76077000Y25627000D01*
X76077000Y25627000D01*
G37*
X76077000Y25627000D02*
X76097000Y25627000D01*
X76097000Y25373000D01*
X76077000Y25373000D01*
X76077000Y25353000D01*
X75823000Y25353000D01*
X75823000Y25373000D01*
X75803000Y25373000D01*
X75803000Y25627000D01*
X75823000Y25627000D01*
X75823000Y25647000D01*
X76077000Y25647000D01*
X76077000Y25627000D01*
G36*
X64314760Y62595715D02*
X64525169Y62086485D01*
X64914436Y61696539D01*
X65146870Y61600024D01*
X64916485Y61504831D01*
X64526539Y61115564D01*
X64315241Y60606702D01*
X64314760Y60055715D01*
X64525169Y59546485D01*
X64914436Y59156539D01*
X65423298Y58945241D01*
X65974285Y58944760D01*
X66483515Y59155169D01*
X66769845Y59441000D01*
X69801764Y59441000D01*
X73111000Y56131764D01*
X73111000Y49445682D01*
X73016767Y49484811D01*
X72585127Y49485188D01*
X72186200Y49320354D01*
X71880718Y49015405D01*
X71715189Y48616767D01*
X71715159Y48582866D01*
X71709698Y48588327D01*
X71476309Y48685000D01*
X70485750Y48685000D01*
X70327000Y48526250D01*
X70327000Y47925000D01*
X70347000Y47925000D01*
X70347000Y47897440D01*
X69050000Y47897440D01*
X68814683Y47853162D01*
X68598559Y47714090D01*
X68567751Y47669001D01*
X68415000Y47516250D01*
X68415000Y47423690D01*
X68430268Y47386829D01*
X68402560Y47250000D01*
X68402560Y46911200D01*
X67693773Y46911200D01*
X67619082Y46986022D01*
X67706334Y47073274D01*
X67590107Y47189501D01*
X67805217Y47226648D01*
X67948112Y47654972D01*
X67916217Y48105375D01*
X67886835Y48176310D01*
X68415000Y48176310D01*
X68415000Y48083750D01*
X68573750Y47925000D01*
X70073000Y47925000D01*
X70073000Y48526250D01*
X69914250Y48685000D01*
X68923691Y48685000D01*
X68690302Y48588327D01*
X68511673Y48409699D01*
X68415000Y48176310D01*
X67886835Y48176310D01*
X67805217Y48373352D01*
X67590104Y48410499D01*
X66979605Y47800000D01*
X66993748Y47785857D01*
X66814143Y47606252D01*
X66800000Y47620395D01*
X66785858Y47606252D01*
X66606253Y47785857D01*
X66620395Y47800000D01*
X66606253Y47814142D01*
X66785858Y47993747D01*
X66800000Y47979605D01*
X67410499Y48590104D01*
X67373352Y48805217D01*
X67082922Y48902109D01*
X67125988Y48994407D01*
X65900000Y50220395D01*
X64674012Y48994407D01*
X64815478Y48691218D01*
X65551955Y48406263D01*
X66003506Y48416886D01*
X66009893Y48410499D01*
X65794783Y48373352D01*
X65651888Y47945028D01*
X65658877Y47846332D01*
X65543765Y47961645D01*
X65126756Y48134803D01*
X64675225Y48135197D01*
X64257914Y47962767D01*
X63938355Y47643765D01*
X63765197Y47226756D01*
X63764966Y46962000D01*
X62200000Y46962000D01*
X61908395Y46903996D01*
X61665952Y46742000D01*
X61661185Y46738815D01*
X60183264Y45260894D01*
X60018083Y45013684D01*
X59960079Y44722079D01*
X59960079Y41277921D01*
X60018083Y40986316D01*
X60183264Y40739106D01*
X64461185Y36461185D01*
X64708395Y36296004D01*
X64826859Y36272440D01*
X64500000Y36272440D01*
X64264683Y36228162D01*
X64048559Y36089090D01*
X64002031Y36020994D01*
X63859698Y36163327D01*
X63626309Y36260000D01*
X63285750Y36260000D01*
X63127000Y36101250D01*
X63127000Y35127000D01*
X63147000Y35127000D01*
X63147000Y34873000D01*
X63127000Y34873000D01*
X63127000Y33898750D01*
X63285750Y33740000D01*
X63626309Y33740000D01*
X63859698Y33836673D01*
X64000936Y33977910D01*
X64035910Y33923559D01*
X64248110Y33778569D01*
X64500000Y33727560D01*
X65201235Y33727560D01*
X65231355Y33697440D01*
X64400000Y33697440D01*
X64164683Y33653162D01*
X63998523Y33546241D01*
X63851890Y33646431D01*
X63600000Y33697440D01*
X62550000Y33697440D01*
X62314683Y33653162D01*
X62098559Y33514090D01*
X61953569Y33301890D01*
X61902560Y33050000D01*
X61902560Y31950000D01*
X61946838Y31714683D01*
X62085910Y31498559D01*
X62298110Y31353569D01*
X62313000Y31350554D01*
X62313000Y30413381D01*
X62176310Y30470000D01*
X61585750Y30470000D01*
X61427000Y30311250D01*
X61427000Y29842440D01*
X61173000Y29842440D01*
X61173000Y30311250D01*
X61014250Y30470000D01*
X60423690Y30470000D01*
X60190301Y30373327D01*
X60011673Y30194698D01*
X59915000Y29961309D01*
X59915000Y29906250D01*
X60073750Y29747500D01*
X60235952Y29747500D01*
X60098559Y29659090D01*
X59965281Y29464031D01*
X59915000Y29413750D01*
X59915000Y29358691D01*
X59928909Y29325113D01*
X59913593Y29249483D01*
X59913593Y34714250D01*
X61865000Y34714250D01*
X61865000Y34248690D01*
X61961673Y34015301D01*
X62140302Y33836673D01*
X62373691Y33740000D01*
X62714250Y33740000D01*
X62873000Y33898750D01*
X62873000Y34873000D01*
X62023750Y34873000D01*
X61865000Y34714250D01*
X59913593Y34714250D01*
X59913593Y35751310D01*
X61865000Y35751310D01*
X61865000Y35285750D01*
X62023750Y35127000D01*
X62873000Y35127000D01*
X62873000Y36101250D01*
X62714250Y36260000D01*
X62373691Y36260000D01*
X62140302Y36163327D01*
X61961673Y35984699D01*
X61865000Y35751310D01*
X59913593Y35751310D01*
X59913593Y50748045D01*
X63906263Y50748045D01*
X63924836Y49958582D01*
X64191218Y49315478D01*
X64494407Y49174012D01*
X65720395Y50400000D01*
X66079605Y50400000D01*
X67305593Y49174012D01*
X67608782Y49315478D01*
X67893737Y50051955D01*
X67886390Y50364250D01*
X68415000Y50364250D01*
X68415000Y49523690D01*
X68511673Y49290301D01*
X68690302Y49111673D01*
X68923691Y49015000D01*
X70014250Y49015000D01*
X70173000Y49173750D01*
X70173000Y50523000D01*
X70427000Y50523000D01*
X70427000Y49173750D01*
X70585750Y49015000D01*
X71676309Y49015000D01*
X71909698Y49111673D01*
X72088327Y49290301D01*
X72185000Y49523690D01*
X72185000Y50364250D01*
X72026250Y50523000D01*
X70427000Y50523000D01*
X70173000Y50523000D01*
X68573750Y50523000D01*
X68415000Y50364250D01*
X67886390Y50364250D01*
X67875164Y50841418D01*
X67608782Y51484522D01*
X67305593Y51625988D01*
X66079605Y50400000D01*
X65720395Y50400000D01*
X64494407Y51625988D01*
X64191218Y51484522D01*
X63906263Y50748045D01*
X59913593Y50748045D01*
X59913593Y51805593D01*
X64674012Y51805593D01*
X65900000Y50579605D01*
X67096705Y51776310D01*
X68415000Y51776310D01*
X68415000Y50935750D01*
X68573750Y50777000D01*
X70173000Y50777000D01*
X70173000Y52126250D01*
X70427000Y52126250D01*
X70427000Y50777000D01*
X72026250Y50777000D01*
X72185000Y50935750D01*
X72185000Y51776310D01*
X72088327Y52009699D01*
X71909698Y52188327D01*
X71676309Y52285000D01*
X70585750Y52285000D01*
X70427000Y52126250D01*
X70173000Y52126250D01*
X70014250Y52285000D01*
X68923691Y52285000D01*
X68690302Y52188327D01*
X68511673Y52009699D01*
X68415000Y51776310D01*
X67096705Y51776310D01*
X67125988Y51805593D01*
X66984522Y52108782D01*
X66248045Y52393737D01*
X65458582Y52375164D01*
X64815478Y52108782D01*
X64674012Y51805593D01*
X59913593Y51805593D01*
X59913593Y55256030D01*
X67035635Y55256030D01*
X67195418Y54937261D01*
X67986187Y54627277D01*
X68835387Y54643503D01*
X69544582Y54937261D01*
X69704365Y55256030D01*
X68370000Y56590395D01*
X67035635Y55256030D01*
X59913593Y55256030D01*
X59913593Y57153813D01*
X66227277Y57153813D01*
X66243503Y56304613D01*
X66537261Y55595418D01*
X66856030Y55435635D01*
X68190395Y56770000D01*
X68549605Y56770000D01*
X69883970Y55435635D01*
X70202739Y55595418D01*
X70512723Y56386187D01*
X70496497Y57235387D01*
X70202739Y57944582D01*
X69883970Y58104365D01*
X68549605Y56770000D01*
X68190395Y56770000D01*
X66856030Y58104365D01*
X66537261Y57944582D01*
X66227277Y57153813D01*
X59913593Y57153813D01*
X59913593Y58283970D01*
X67035635Y58283970D01*
X68370000Y56949605D01*
X69704365Y58283970D01*
X69544582Y58602739D01*
X68753813Y58912723D01*
X67904613Y58896497D01*
X67195418Y58602739D01*
X67035635Y58283970D01*
X59913593Y58283970D01*
X59913593Y60835963D01*
X60599644Y61522013D01*
X60693663Y61521931D01*
X61053212Y61670493D01*
X61328540Y61945341D01*
X61477730Y62304630D01*
X61478069Y62693663D01*
X61433984Y62800358D01*
X64314939Y62800358D01*
X64314760Y62595715D01*
X64314760Y62595715D01*
G37*
X64314760Y62595715D02*
X64525169Y62086485D01*
X64914436Y61696539D01*
X65146870Y61600024D01*
X64916485Y61504831D01*
X64526539Y61115564D01*
X64315241Y60606702D01*
X64314760Y60055715D01*
X64525169Y59546485D01*
X64914436Y59156539D01*
X65423298Y58945241D01*
X65974285Y58944760D01*
X66483515Y59155169D01*
X66769845Y59441000D01*
X69801764Y59441000D01*
X73111000Y56131764D01*
X73111000Y49445682D01*
X73016767Y49484811D01*
X72585127Y49485188D01*
X72186200Y49320354D01*
X71880718Y49015405D01*
X71715189Y48616767D01*
X71715159Y48582866D01*
X71709698Y48588327D01*
X71476309Y48685000D01*
X70485750Y48685000D01*
X70327000Y48526250D01*
X70327000Y47925000D01*
X70347000Y47925000D01*
X70347000Y47897440D01*
X69050000Y47897440D01*
X68814683Y47853162D01*
X68598559Y47714090D01*
X68567751Y47669001D01*
X68415000Y47516250D01*
X68415000Y47423690D01*
X68430268Y47386829D01*
X68402560Y47250000D01*
X68402560Y46911200D01*
X67693773Y46911200D01*
X67619082Y46986022D01*
X67706334Y47073274D01*
X67590107Y47189501D01*
X67805217Y47226648D01*
X67948112Y47654972D01*
X67916217Y48105375D01*
X67886835Y48176310D01*
X68415000Y48176310D01*
X68415000Y48083750D01*
X68573750Y47925000D01*
X70073000Y47925000D01*
X70073000Y48526250D01*
X69914250Y48685000D01*
X68923691Y48685000D01*
X68690302Y48588327D01*
X68511673Y48409699D01*
X68415000Y48176310D01*
X67886835Y48176310D01*
X67805217Y48373352D01*
X67590104Y48410499D01*
X66979605Y47800000D01*
X66993748Y47785857D01*
X66814143Y47606252D01*
X66800000Y47620395D01*
X66785858Y47606252D01*
X66606253Y47785857D01*
X66620395Y47800000D01*
X66606253Y47814142D01*
X66785858Y47993747D01*
X66800000Y47979605D01*
X67410499Y48590104D01*
X67373352Y48805217D01*
X67082922Y48902109D01*
X67125988Y48994407D01*
X65900000Y50220395D01*
X64674012Y48994407D01*
X64815478Y48691218D01*
X65551955Y48406263D01*
X66003506Y48416886D01*
X66009893Y48410499D01*
X65794783Y48373352D01*
X65651888Y47945028D01*
X65658877Y47846332D01*
X65543765Y47961645D01*
X65126756Y48134803D01*
X64675225Y48135197D01*
X64257914Y47962767D01*
X63938355Y47643765D01*
X63765197Y47226756D01*
X63764966Y46962000D01*
X62200000Y46962000D01*
X61908395Y46903996D01*
X61665952Y46742000D01*
X61661185Y46738815D01*
X60183264Y45260894D01*
X60018083Y45013684D01*
X59960079Y44722079D01*
X59960079Y41277921D01*
X60018083Y40986316D01*
X60183264Y40739106D01*
X64461185Y36461185D01*
X64708395Y36296004D01*
X64826859Y36272440D01*
X64500000Y36272440D01*
X64264683Y36228162D01*
X64048559Y36089090D01*
X64002031Y36020994D01*
X63859698Y36163327D01*
X63626309Y36260000D01*
X63285750Y36260000D01*
X63127000Y36101250D01*
X63127000Y35127000D01*
X63147000Y35127000D01*
X63147000Y34873000D01*
X63127000Y34873000D01*
X63127000Y33898750D01*
X63285750Y33740000D01*
X63626309Y33740000D01*
X63859698Y33836673D01*
X64000936Y33977910D01*
X64035910Y33923559D01*
X64248110Y33778569D01*
X64500000Y33727560D01*
X65201235Y33727560D01*
X65231355Y33697440D01*
X64400000Y33697440D01*
X64164683Y33653162D01*
X63998523Y33546241D01*
X63851890Y33646431D01*
X63600000Y33697440D01*
X62550000Y33697440D01*
X62314683Y33653162D01*
X62098559Y33514090D01*
X61953569Y33301890D01*
X61902560Y33050000D01*
X61902560Y31950000D01*
X61946838Y31714683D01*
X62085910Y31498559D01*
X62298110Y31353569D01*
X62313000Y31350554D01*
X62313000Y30413381D01*
X62176310Y30470000D01*
X61585750Y30470000D01*
X61427000Y30311250D01*
X61427000Y29842440D01*
X61173000Y29842440D01*
X61173000Y30311250D01*
X61014250Y30470000D01*
X60423690Y30470000D01*
X60190301Y30373327D01*
X60011673Y30194698D01*
X59915000Y29961309D01*
X59915000Y29906250D01*
X60073750Y29747500D01*
X60235952Y29747500D01*
X60098559Y29659090D01*
X59965281Y29464031D01*
X59915000Y29413750D01*
X59915000Y29358691D01*
X59928909Y29325113D01*
X59913593Y29249483D01*
X59913593Y34714250D01*
X61865000Y34714250D01*
X61865000Y34248690D01*
X61961673Y34015301D01*
X62140302Y33836673D01*
X62373691Y33740000D01*
X62714250Y33740000D01*
X62873000Y33898750D01*
X62873000Y34873000D01*
X62023750Y34873000D01*
X61865000Y34714250D01*
X59913593Y34714250D01*
X59913593Y35751310D01*
X61865000Y35751310D01*
X61865000Y35285750D01*
X62023750Y35127000D01*
X62873000Y35127000D01*
X62873000Y36101250D01*
X62714250Y36260000D01*
X62373691Y36260000D01*
X62140302Y36163327D01*
X61961673Y35984699D01*
X61865000Y35751310D01*
X59913593Y35751310D01*
X59913593Y50748045D01*
X63906263Y50748045D01*
X63924836Y49958582D01*
X64191218Y49315478D01*
X64494407Y49174012D01*
X65720395Y50400000D01*
X66079605Y50400000D01*
X67305593Y49174012D01*
X67608782Y49315478D01*
X67893737Y50051955D01*
X67886390Y50364250D01*
X68415000Y50364250D01*
X68415000Y49523690D01*
X68511673Y49290301D01*
X68690302Y49111673D01*
X68923691Y49015000D01*
X70014250Y49015000D01*
X70173000Y49173750D01*
X70173000Y50523000D01*
X70427000Y50523000D01*
X70427000Y49173750D01*
X70585750Y49015000D01*
X71676309Y49015000D01*
X71909698Y49111673D01*
X72088327Y49290301D01*
X72185000Y49523690D01*
X72185000Y50364250D01*
X72026250Y50523000D01*
X70427000Y50523000D01*
X70173000Y50523000D01*
X68573750Y50523000D01*
X68415000Y50364250D01*
X67886390Y50364250D01*
X67875164Y50841418D01*
X67608782Y51484522D01*
X67305593Y51625988D01*
X66079605Y50400000D01*
X65720395Y50400000D01*
X64494407Y51625988D01*
X64191218Y51484522D01*
X63906263Y50748045D01*
X59913593Y50748045D01*
X59913593Y51805593D01*
X64674012Y51805593D01*
X65900000Y50579605D01*
X67096705Y51776310D01*
X68415000Y51776310D01*
X68415000Y50935750D01*
X68573750Y50777000D01*
X70173000Y50777000D01*
X70173000Y52126250D01*
X70427000Y52126250D01*
X70427000Y50777000D01*
X72026250Y50777000D01*
X72185000Y50935750D01*
X72185000Y51776310D01*
X72088327Y52009699D01*
X71909698Y52188327D01*
X71676309Y52285000D01*
X70585750Y52285000D01*
X70427000Y52126250D01*
X70173000Y52126250D01*
X70014250Y52285000D01*
X68923691Y52285000D01*
X68690302Y52188327D01*
X68511673Y52009699D01*
X68415000Y51776310D01*
X67096705Y51776310D01*
X67125988Y51805593D01*
X66984522Y52108782D01*
X66248045Y52393737D01*
X65458582Y52375164D01*
X64815478Y52108782D01*
X64674012Y51805593D01*
X59913593Y51805593D01*
X59913593Y55256030D01*
X67035635Y55256030D01*
X67195418Y54937261D01*
X67986187Y54627277D01*
X68835387Y54643503D01*
X69544582Y54937261D01*
X69704365Y55256030D01*
X68370000Y56590395D01*
X67035635Y55256030D01*
X59913593Y55256030D01*
X59913593Y57153813D01*
X66227277Y57153813D01*
X66243503Y56304613D01*
X66537261Y55595418D01*
X66856030Y55435635D01*
X68190395Y56770000D01*
X68549605Y56770000D01*
X69883970Y55435635D01*
X70202739Y55595418D01*
X70512723Y56386187D01*
X70496497Y57235387D01*
X70202739Y57944582D01*
X69883970Y58104365D01*
X68549605Y56770000D01*
X68190395Y56770000D01*
X66856030Y58104365D01*
X66537261Y57944582D01*
X66227277Y57153813D01*
X59913593Y57153813D01*
X59913593Y58283970D01*
X67035635Y58283970D01*
X68370000Y56949605D01*
X69704365Y58283970D01*
X69544582Y58602739D01*
X68753813Y58912723D01*
X67904613Y58896497D01*
X67195418Y58602739D01*
X67035635Y58283970D01*
X59913593Y58283970D01*
X59913593Y60835963D01*
X60599644Y61522013D01*
X60693663Y61521931D01*
X61053212Y61670493D01*
X61328540Y61945341D01*
X61477730Y62304630D01*
X61478069Y62693663D01*
X61433984Y62800358D01*
X64314939Y62800358D01*
X64314760Y62595715D01*
G36*
X56018748Y37134142D02*
X56004605Y37120000D01*
X56018748Y37105857D01*
X55874866Y36961976D01*
X55704314Y37032796D01*
X55631253Y37105857D01*
X55645395Y37120000D01*
X55631253Y37134142D01*
X55810858Y37313747D01*
X55825000Y37299605D01*
X55839143Y37313747D01*
X56018748Y37134142D01*
X56018748Y37134142D01*
G37*
X56018748Y37134142D02*
X56004605Y37120000D01*
X56018748Y37105857D01*
X55874866Y36961976D01*
X55704314Y37032796D01*
X55631253Y37105857D01*
X55645395Y37120000D01*
X55631253Y37134142D01*
X55810858Y37313747D01*
X55825000Y37299605D01*
X55839143Y37313747D01*
X56018748Y37134142D01*
G36*
X49352827Y55289937D02*
X49295715Y55232825D01*
X49114485Y55157942D01*
X48823081Y54867046D01*
X48767289Y54732684D01*
X48564501Y54529896D01*
X48601648Y54314783D01*
X48665012Y54293644D01*
X48664821Y54075029D01*
X48822058Y53694485D01*
X49112954Y53403081D01*
X49493223Y53245180D01*
X49904971Y53244821D01*
X50037325Y53299508D01*
X50057050Y53251887D01*
X50264447Y53224052D01*
X50809099Y53768704D01*
X50998217Y53690176D01*
X51117961Y53690071D01*
X51014143Y53586252D01*
X51000000Y53600395D01*
X50444052Y53044447D01*
X50471887Y52837050D01*
X50872939Y52706728D01*
X51293334Y52739801D01*
X51528113Y52837050D01*
X51555948Y53044444D01*
X51672654Y52927738D01*
X51738000Y52993084D01*
X51738000Y49425250D01*
X51796004Y49133645D01*
X51876082Y49013800D01*
X51961185Y48886435D01*
X56050198Y44797422D01*
X56050198Y38241366D01*
X55970028Y38268112D01*
X55519625Y38236217D01*
X55251648Y38125217D01*
X55214501Y37910107D01*
X55098274Y38026334D01*
X55069743Y37997803D01*
X55040199Y38373334D01*
X54942950Y38608113D01*
X54735553Y38635948D01*
X54179605Y38080000D01*
X54193748Y38065857D01*
X54014143Y37886252D01*
X54000000Y37900395D01*
X53985858Y37886252D01*
X53806253Y38065857D01*
X53820395Y38080000D01*
X53264447Y38635948D01*
X53057050Y38608113D01*
X52926728Y38207061D01*
X52931032Y38152346D01*
X52578628Y38006736D01*
X52500112Y37928356D01*
X52422866Y38005737D01*
X52057172Y38157586D01*
X52040199Y38373334D01*
X51942950Y38608113D01*
X51735553Y38635948D01*
X51179605Y38080000D01*
X51193748Y38065857D01*
X51042563Y37914673D01*
X50141683Y38815553D01*
X50444052Y38815553D01*
X51000000Y38259605D01*
X51555948Y38815553D01*
X53444052Y38815553D01*
X54000000Y38259605D01*
X54555948Y38815553D01*
X54528113Y39022950D01*
X54127061Y39153272D01*
X53706666Y39120199D01*
X53471887Y39022950D01*
X53444052Y38815553D01*
X51555948Y38815553D01*
X51528113Y39022950D01*
X51127061Y39153272D01*
X50706666Y39120199D01*
X50471887Y39022950D01*
X50444052Y38815553D01*
X50141683Y38815553D01*
X47389000Y41568236D01*
X47389000Y55465028D01*
X48026888Y55465028D01*
X48058783Y55014625D01*
X48169783Y54746648D01*
X48384896Y54709501D01*
X48995395Y55320000D01*
X48384896Y55930499D01*
X48169783Y55893352D01*
X48026888Y55465028D01*
X47389000Y55465028D01*
X47389000Y57253764D01*
X49352827Y55289937D01*
X49352827Y55289937D01*
G37*
X49352827Y55289937D02*
X49295715Y55232825D01*
X49114485Y55157942D01*
X48823081Y54867046D01*
X48767289Y54732684D01*
X48564501Y54529896D01*
X48601648Y54314783D01*
X48665012Y54293644D01*
X48664821Y54075029D01*
X48822058Y53694485D01*
X49112954Y53403081D01*
X49493223Y53245180D01*
X49904971Y53244821D01*
X50037325Y53299508D01*
X50057050Y53251887D01*
X50264447Y53224052D01*
X50809099Y53768704D01*
X50998217Y53690176D01*
X51117961Y53690071D01*
X51014143Y53586252D01*
X51000000Y53600395D01*
X50444052Y53044447D01*
X50471887Y52837050D01*
X50872939Y52706728D01*
X51293334Y52739801D01*
X51528113Y52837050D01*
X51555948Y53044444D01*
X51672654Y52927738D01*
X51738000Y52993084D01*
X51738000Y49425250D01*
X51796004Y49133645D01*
X51876082Y49013800D01*
X51961185Y48886435D01*
X56050198Y44797422D01*
X56050198Y38241366D01*
X55970028Y38268112D01*
X55519625Y38236217D01*
X55251648Y38125217D01*
X55214501Y37910107D01*
X55098274Y38026334D01*
X55069743Y37997803D01*
X55040199Y38373334D01*
X54942950Y38608113D01*
X54735553Y38635948D01*
X54179605Y38080000D01*
X54193748Y38065857D01*
X54014143Y37886252D01*
X54000000Y37900395D01*
X53985858Y37886252D01*
X53806253Y38065857D01*
X53820395Y38080000D01*
X53264447Y38635948D01*
X53057050Y38608113D01*
X52926728Y38207061D01*
X52931032Y38152346D01*
X52578628Y38006736D01*
X52500112Y37928356D01*
X52422866Y38005737D01*
X52057172Y38157586D01*
X52040199Y38373334D01*
X51942950Y38608113D01*
X51735553Y38635948D01*
X51179605Y38080000D01*
X51193748Y38065857D01*
X51042563Y37914673D01*
X50141683Y38815553D01*
X50444052Y38815553D01*
X51000000Y38259605D01*
X51555948Y38815553D01*
X53444052Y38815553D01*
X54000000Y38259605D01*
X54555948Y38815553D01*
X54528113Y39022950D01*
X54127061Y39153272D01*
X53706666Y39120199D01*
X53471887Y39022950D01*
X53444052Y38815553D01*
X51555948Y38815553D01*
X51528113Y39022950D01*
X51127061Y39153272D01*
X50706666Y39120199D01*
X50471887Y39022950D01*
X50444052Y38815553D01*
X50141683Y38815553D01*
X47389000Y41568236D01*
X47389000Y55465028D01*
X48026888Y55465028D01*
X48058783Y55014625D01*
X48169783Y54746648D01*
X48384896Y54709501D01*
X48995395Y55320000D01*
X48384896Y55930499D01*
X48169783Y55893352D01*
X48026888Y55465028D01*
X47389000Y55465028D01*
X47389000Y57253764D01*
X49352827Y55289937D01*
G36*
X50714436Y70826539D02*
X51223298Y70615241D01*
X51390256Y70615095D01*
X51390256Y68119244D01*
X51448260Y67827639D01*
X51570410Y67644829D01*
X51613441Y67580429D01*
X56170327Y63023543D01*
X56417537Y62858362D01*
X56709142Y62800358D01*
X58565865Y62800358D01*
X58522270Y62695370D01*
X58522187Y62599817D01*
X57963880Y62041510D01*
X57798699Y61794300D01*
X57740695Y61502695D01*
X57740695Y46179648D01*
X54262000Y49658343D01*
X54262000Y50878917D01*
X54328540Y50945341D01*
X54477730Y51304630D01*
X54478069Y51693663D01*
X54329507Y52053212D01*
X54054659Y52328540D01*
X53695370Y52477730D01*
X53306337Y52478069D01*
X53262000Y52459749D01*
X53262000Y52993084D01*
X53327346Y52927738D01*
X53444052Y53044444D01*
X53471887Y52837050D01*
X53872939Y52706728D01*
X54293334Y52739801D01*
X54528113Y52837050D01*
X54555948Y53044447D01*
X54000000Y53600395D01*
X53985858Y53586252D01*
X53879032Y53693078D01*
X54085301Y53710523D01*
X54201112Y53758493D01*
X54735553Y53224052D01*
X54942950Y53251887D01*
X54958895Y53300957D01*
X55093223Y53245180D01*
X55504971Y53244821D01*
X55885515Y53402058D01*
X56176919Y53692954D01*
X56334820Y54073223D01*
X56335008Y54288545D01*
X56398352Y54314783D01*
X56435499Y54529896D01*
X56232908Y54732487D01*
X56177942Y54865515D01*
X55887046Y55156919D01*
X55704314Y55232796D01*
X55631253Y55305857D01*
X55645395Y55320000D01*
X56004605Y55320000D01*
X56615104Y54709501D01*
X56830217Y54746648D01*
X56973112Y55174972D01*
X56941217Y55625375D01*
X56830217Y55893352D01*
X56615104Y55930499D01*
X56004605Y55320000D01*
X55645395Y55320000D01*
X55631253Y55334142D01*
X55810858Y55513747D01*
X55825000Y55499605D01*
X56435499Y56110104D01*
X56398352Y56325217D01*
X55970028Y56468112D01*
X55519625Y56436217D01*
X55251648Y56325217D01*
X55214501Y56110107D01*
X55098274Y56226334D01*
X55069743Y56197803D01*
X55040199Y56573334D01*
X54942950Y56808113D01*
X54735553Y56835948D01*
X54179605Y56280000D01*
X54193748Y56265857D01*
X54014143Y56086252D01*
X54000000Y56100395D01*
X53985858Y56086252D01*
X53806253Y56265857D01*
X53820395Y56280000D01*
X53264447Y56835948D01*
X53057050Y56808113D01*
X52926728Y56407061D01*
X52931032Y56352346D01*
X52578628Y56206736D01*
X52500112Y56128356D01*
X52422866Y56205737D01*
X52057172Y56357586D01*
X52040199Y56573334D01*
X51942950Y56808113D01*
X51735553Y56835948D01*
X51179605Y56280000D01*
X51193748Y56265857D01*
X51042563Y56114673D01*
X50141683Y57015553D01*
X50444052Y57015553D01*
X51000000Y56459605D01*
X51555948Y57015553D01*
X53444052Y57015553D01*
X54000000Y56459605D01*
X54555948Y57015553D01*
X54528113Y57222950D01*
X54127061Y57353272D01*
X53706666Y57320199D01*
X53471887Y57222950D01*
X53444052Y57015553D01*
X51555948Y57015553D01*
X51528113Y57222950D01*
X51127061Y57353272D01*
X50706666Y57320199D01*
X50471887Y57222950D01*
X50444052Y57015553D01*
X50141683Y57015553D01*
X47389000Y59768236D01*
X47389000Y67131764D01*
X50128618Y69871382D01*
X50321329Y70159794D01*
X50389000Y70500000D01*
X50389000Y70930470D01*
X50500036Y71041313D01*
X50714436Y70826539D01*
X50714436Y70826539D01*
G37*
X50714436Y70826539D02*
X51223298Y70615241D01*
X51390256Y70615095D01*
X51390256Y68119244D01*
X51448260Y67827639D01*
X51570410Y67644829D01*
X51613441Y67580429D01*
X56170327Y63023543D01*
X56417537Y62858362D01*
X56709142Y62800358D01*
X58565865Y62800358D01*
X58522270Y62695370D01*
X58522187Y62599817D01*
X57963880Y62041510D01*
X57798699Y61794300D01*
X57740695Y61502695D01*
X57740695Y46179648D01*
X54262000Y49658343D01*
X54262000Y50878917D01*
X54328540Y50945341D01*
X54477730Y51304630D01*
X54478069Y51693663D01*
X54329507Y52053212D01*
X54054659Y52328540D01*
X53695370Y52477730D01*
X53306337Y52478069D01*
X53262000Y52459749D01*
X53262000Y52993084D01*
X53327346Y52927738D01*
X53444052Y53044444D01*
X53471887Y52837050D01*
X53872939Y52706728D01*
X54293334Y52739801D01*
X54528113Y52837050D01*
X54555948Y53044447D01*
X54000000Y53600395D01*
X53985858Y53586252D01*
X53879032Y53693078D01*
X54085301Y53710523D01*
X54201112Y53758493D01*
X54735553Y53224052D01*
X54942950Y53251887D01*
X54958895Y53300957D01*
X55093223Y53245180D01*
X55504971Y53244821D01*
X55885515Y53402058D01*
X56176919Y53692954D01*
X56334820Y54073223D01*
X56335008Y54288545D01*
X56398352Y54314783D01*
X56435499Y54529896D01*
X56232908Y54732487D01*
X56177942Y54865515D01*
X55887046Y55156919D01*
X55704314Y55232796D01*
X55631253Y55305857D01*
X55645395Y55320000D01*
X56004605Y55320000D01*
X56615104Y54709501D01*
X56830217Y54746648D01*
X56973112Y55174972D01*
X56941217Y55625375D01*
X56830217Y55893352D01*
X56615104Y55930499D01*
X56004605Y55320000D01*
X55645395Y55320000D01*
X55631253Y55334142D01*
X55810858Y55513747D01*
X55825000Y55499605D01*
X56435499Y56110104D01*
X56398352Y56325217D01*
X55970028Y56468112D01*
X55519625Y56436217D01*
X55251648Y56325217D01*
X55214501Y56110107D01*
X55098274Y56226334D01*
X55069743Y56197803D01*
X55040199Y56573334D01*
X54942950Y56808113D01*
X54735553Y56835948D01*
X54179605Y56280000D01*
X54193748Y56265857D01*
X54014143Y56086252D01*
X54000000Y56100395D01*
X53985858Y56086252D01*
X53806253Y56265857D01*
X53820395Y56280000D01*
X53264447Y56835948D01*
X53057050Y56808113D01*
X52926728Y56407061D01*
X52931032Y56352346D01*
X52578628Y56206736D01*
X52500112Y56128356D01*
X52422866Y56205737D01*
X52057172Y56357586D01*
X52040199Y56573334D01*
X51942950Y56808113D01*
X51735553Y56835948D01*
X51179605Y56280000D01*
X51193748Y56265857D01*
X51042563Y56114673D01*
X50141683Y57015553D01*
X50444052Y57015553D01*
X51000000Y56459605D01*
X51555948Y57015553D01*
X53444052Y57015553D01*
X54000000Y56459605D01*
X54555948Y57015553D01*
X54528113Y57222950D01*
X54127061Y57353272D01*
X53706666Y57320199D01*
X53471887Y57222950D01*
X53444052Y57015553D01*
X51555948Y57015553D01*
X51528113Y57222950D01*
X51127061Y57353272D01*
X50706666Y57320199D01*
X50471887Y57222950D01*
X50444052Y57015553D01*
X50141683Y57015553D01*
X47389000Y59768236D01*
X47389000Y67131764D01*
X50128618Y69871382D01*
X50321329Y70159794D01*
X50389000Y70500000D01*
X50389000Y70930470D01*
X50500036Y71041313D01*
X50714436Y70826539D01*
G36*
X55362941Y73379823D02*
X55154552Y73369230D01*
X54776077Y73212460D01*
X54708088Y72971517D01*
X55500000Y72179605D01*
X55514143Y72193747D01*
X55693748Y72014142D01*
X55679605Y72000000D01*
X56471517Y71208088D01*
X56712460Y71276077D01*
X56897201Y71795171D01*
X56894502Y71848262D01*
X58871382Y69871382D01*
X59159794Y69678671D01*
X59500000Y69611000D01*
X64631764Y69611000D01*
X65429713Y68813051D01*
X65354552Y68809230D01*
X64976077Y68652460D01*
X64908088Y68411517D01*
X65700000Y67619605D01*
X65714143Y67633747D01*
X65893748Y67454142D01*
X65879605Y67440000D01*
X66671517Y66648088D01*
X66912460Y66716077D01*
X67073681Y67169083D01*
X67611000Y66631764D01*
X67611000Y61219000D01*
X66769530Y61219000D01*
X66485564Y61503461D01*
X66253130Y61599976D01*
X66483515Y61695169D01*
X66873461Y62084436D01*
X67084759Y62593298D01*
X67085240Y63144285D01*
X66874831Y63653515D01*
X66643687Y63885062D01*
X66873461Y64114436D01*
X67084759Y64623298D01*
X67085240Y65174285D01*
X66874831Y65683515D01*
X66485564Y66073461D01*
X66269021Y66163377D01*
X66423923Y66227540D01*
X66491912Y66468483D01*
X65700000Y67260395D01*
X64908088Y66468483D01*
X64976077Y66227540D01*
X65142621Y66168268D01*
X64916485Y66074831D01*
X64526539Y65685564D01*
X64315241Y65176702D01*
X64315030Y64934774D01*
X57142857Y64934774D01*
X54432802Y67644829D01*
X64302799Y67644829D01*
X64330770Y67094552D01*
X64487540Y66716077D01*
X64728483Y66648088D01*
X65520395Y67440000D01*
X64728483Y68231912D01*
X64487540Y68163923D01*
X64302799Y67644829D01*
X54432802Y67644829D01*
X53418738Y68658892D01*
X53418738Y70615070D01*
X53774285Y70614760D01*
X54283515Y70825169D01*
X54487183Y71028483D01*
X54708088Y71028483D01*
X54776077Y70787540D01*
X55295171Y70602799D01*
X55845448Y70630770D01*
X56223923Y70787540D01*
X56291912Y71028483D01*
X55500000Y71820395D01*
X54708088Y71028483D01*
X54487183Y71028483D01*
X54673461Y71214436D01*
X54771901Y71451506D01*
X55320395Y72000000D01*
X54771967Y72548428D01*
X54674831Y72783515D01*
X54285564Y73173461D01*
X53776702Y73384759D01*
X53225715Y73385240D01*
X52716485Y73174831D01*
X52499964Y72958687D01*
X52285564Y73173461D01*
X51776702Y73384759D01*
X51225715Y73385240D01*
X50716485Y73174831D01*
X50499964Y72958687D01*
X50389000Y73069845D01*
X50389000Y73131764D01*
X51368236Y74111000D01*
X54631764Y74111000D01*
X55362941Y73379823D01*
X55362941Y73379823D01*
G37*
X55362941Y73379823D02*
X55154552Y73369230D01*
X54776077Y73212460D01*
X54708088Y72971517D01*
X55500000Y72179605D01*
X55514143Y72193747D01*
X55693748Y72014142D01*
X55679605Y72000000D01*
X56471517Y71208088D01*
X56712460Y71276077D01*
X56897201Y71795171D01*
X56894502Y71848262D01*
X58871382Y69871382D01*
X59159794Y69678671D01*
X59500000Y69611000D01*
X64631764Y69611000D01*
X65429713Y68813051D01*
X65354552Y68809230D01*
X64976077Y68652460D01*
X64908088Y68411517D01*
X65700000Y67619605D01*
X65714143Y67633747D01*
X65893748Y67454142D01*
X65879605Y67440000D01*
X66671517Y66648088D01*
X66912460Y66716077D01*
X67073681Y67169083D01*
X67611000Y66631764D01*
X67611000Y61219000D01*
X66769530Y61219000D01*
X66485564Y61503461D01*
X66253130Y61599976D01*
X66483515Y61695169D01*
X66873461Y62084436D01*
X67084759Y62593298D01*
X67085240Y63144285D01*
X66874831Y63653515D01*
X66643687Y63885062D01*
X66873461Y64114436D01*
X67084759Y64623298D01*
X67085240Y65174285D01*
X66874831Y65683515D01*
X66485564Y66073461D01*
X66269021Y66163377D01*
X66423923Y66227540D01*
X66491912Y66468483D01*
X65700000Y67260395D01*
X64908088Y66468483D01*
X64976077Y66227540D01*
X65142621Y66168268D01*
X64916485Y66074831D01*
X64526539Y65685564D01*
X64315241Y65176702D01*
X64315030Y64934774D01*
X57142857Y64934774D01*
X54432802Y67644829D01*
X64302799Y67644829D01*
X64330770Y67094552D01*
X64487540Y66716077D01*
X64728483Y66648088D01*
X65520395Y67440000D01*
X64728483Y68231912D01*
X64487540Y68163923D01*
X64302799Y67644829D01*
X54432802Y67644829D01*
X53418738Y68658892D01*
X53418738Y70615070D01*
X53774285Y70614760D01*
X54283515Y70825169D01*
X54487183Y71028483D01*
X54708088Y71028483D01*
X54776077Y70787540D01*
X55295171Y70602799D01*
X55845448Y70630770D01*
X56223923Y70787540D01*
X56291912Y71028483D01*
X55500000Y71820395D01*
X54708088Y71028483D01*
X54487183Y71028483D01*
X54673461Y71214436D01*
X54771901Y71451506D01*
X55320395Y72000000D01*
X54771967Y72548428D01*
X54674831Y72783515D01*
X54285564Y73173461D01*
X53776702Y73384759D01*
X53225715Y73385240D01*
X52716485Y73174831D01*
X52499964Y72958687D01*
X52285564Y73173461D01*
X51776702Y73384759D01*
X51225715Y73385240D01*
X50716485Y73174831D01*
X50499964Y72958687D01*
X50389000Y73069845D01*
X50389000Y73131764D01*
X51368236Y74111000D01*
X54631764Y74111000D01*
X55362941Y73379823D01*
G36*
X41873000Y76235330D02*
X41807381Y76235387D01*
X40985628Y75895845D01*
X40356364Y75267679D01*
X40015389Y74446519D01*
X40014613Y73557381D01*
X40354155Y72735628D01*
X40982321Y72106364D01*
X41803481Y71765389D01*
X41873000Y71765328D01*
X41873000Y8235330D01*
X41807381Y8235387D01*
X40985628Y7895845D01*
X40356364Y7267679D01*
X40015389Y6446519D01*
X40014613Y5557381D01*
X40354155Y4735628D01*
X40982321Y4106364D01*
X41803481Y3765389D01*
X41873000Y3765328D01*
X41873000Y3210000D01*
X3210000Y3210000D01*
X3210000Y5557381D01*
X3764613Y5557381D01*
X4104155Y4735628D01*
X4732321Y4106364D01*
X5553481Y3765389D01*
X6442619Y3764613D01*
X7264372Y4104155D01*
X7893636Y4732321D01*
X8234611Y5553481D01*
X8235387Y6442619D01*
X7895845Y7264372D01*
X7267679Y7893636D01*
X6446519Y8234611D01*
X5557381Y8235387D01*
X4735628Y7895845D01*
X4106364Y7267679D01*
X3765389Y6446519D01*
X3764613Y5557381D01*
X3210000Y5557381D01*
X3210000Y12650959D01*
X37608086Y12650959D01*
X37847611Y12144866D01*
X38262577Y11768959D01*
X38650961Y11608096D01*
X38873000Y11730085D01*
X38873000Y12873000D01*
X39127000Y12873000D01*
X39127000Y11730085D01*
X39349039Y11608096D01*
X39737423Y11768959D01*
X40152389Y12144866D01*
X40391914Y12650959D01*
X40270629Y12873000D01*
X39127000Y12873000D01*
X38873000Y12873000D01*
X37729371Y12873000D01*
X37608086Y12650959D01*
X3210000Y12650959D01*
X3210000Y13349041D01*
X37608086Y13349041D01*
X37729371Y13127000D01*
X38873000Y13127000D01*
X38873000Y14269915D01*
X39127000Y14269915D01*
X39127000Y13127000D01*
X40270629Y13127000D01*
X40391914Y13349041D01*
X40152389Y13855134D01*
X39737423Y14231041D01*
X39349039Y14391904D01*
X39127000Y14269915D01*
X38873000Y14269915D01*
X38650961Y14391904D01*
X38262577Y14231041D01*
X37847611Y13855134D01*
X37608086Y13349041D01*
X3210000Y13349041D01*
X3210000Y23094250D01*
X25365000Y23094250D01*
X25365000Y21753691D01*
X25461673Y21520302D01*
X25640301Y21341673D01*
X25873690Y21245000D01*
X27214250Y21245000D01*
X27373000Y21403750D01*
X27373000Y23253000D01*
X27627000Y23253000D01*
X27627000Y21403750D01*
X27785750Y21245000D01*
X29126310Y21245000D01*
X29359699Y21341673D01*
X29538327Y21520302D01*
X29635000Y21753691D01*
X29635000Y23094250D01*
X29476250Y23253000D01*
X27627000Y23253000D01*
X27373000Y23253000D01*
X25523750Y23253000D01*
X25365000Y23094250D01*
X3210000Y23094250D01*
X3210000Y25006309D01*
X25365000Y25006309D01*
X25365000Y23665750D01*
X25523750Y23507000D01*
X27373000Y23507000D01*
X27373000Y25356250D01*
X27627000Y25356250D01*
X27627000Y23507000D01*
X29476250Y23507000D01*
X29635000Y23665750D01*
X29635000Y25006309D01*
X29538327Y25239698D01*
X29359699Y25418327D01*
X29126310Y25515000D01*
X27785750Y25515000D01*
X27627000Y25356250D01*
X27373000Y25356250D01*
X27214250Y25515000D01*
X25873690Y25515000D01*
X25640301Y25418327D01*
X25461673Y25239698D01*
X25365000Y25006309D01*
X3210000Y25006309D01*
X3210000Y36077185D01*
X12364630Y36077185D01*
X12688980Y35292200D01*
X13289041Y34691091D01*
X14073459Y34365372D01*
X14922815Y34364630D01*
X15480352Y34595000D01*
X26520454Y34595000D01*
X27073459Y34365372D01*
X27922815Y34364630D01*
X28480352Y34595000D01*
X34710924Y34595000D01*
X37095000Y32210923D01*
X37095000Y26789077D01*
X30510924Y20205000D01*
X28479546Y20205000D01*
X27926541Y20434628D01*
X27077185Y20435370D01*
X26292200Y20111020D01*
X25691091Y19510959D01*
X25365372Y18726541D01*
X25364630Y17877185D01*
X25688980Y17092200D01*
X26289041Y16491091D01*
X27073459Y16165372D01*
X27922815Y16164630D01*
X28480352Y16395000D01*
X31300000Y16395000D01*
X32029012Y16540009D01*
X32647038Y16952962D01*
X40347038Y24652961D01*
X40759991Y25270987D01*
X40808528Y25515000D01*
X40905000Y26000000D01*
X40905000Y33000000D01*
X40759991Y33729012D01*
X40759991Y33729013D01*
X40347038Y34347039D01*
X38194076Y36500000D01*
X40347038Y38652961D01*
X40759991Y39270987D01*
X40826181Y39603750D01*
X40905000Y40000000D01*
X40905000Y43200000D01*
X40759991Y43929012D01*
X40347038Y44547038D01*
X29539684Y55354392D01*
X29311020Y55907800D01*
X28710959Y56508909D01*
X27926541Y56834628D01*
X27077185Y56835370D01*
X26292200Y56511020D01*
X25691091Y55910959D01*
X25365372Y55126541D01*
X25364630Y54277185D01*
X25688980Y53492200D01*
X26289041Y52891091D01*
X26846176Y52659748D01*
X37095000Y42410924D01*
X37095000Y40789077D01*
X34710924Y38405000D01*
X28479546Y38405000D01*
X27926541Y38634628D01*
X27077185Y38635370D01*
X26519648Y38405000D01*
X15479546Y38405000D01*
X14926541Y38634628D01*
X14077185Y38635370D01*
X13292200Y38311020D01*
X12691091Y37710959D01*
X12365372Y36926541D01*
X12364630Y36077185D01*
X3210000Y36077185D01*
X3210000Y41294250D01*
X12365000Y41294250D01*
X12365000Y39953691D01*
X12461673Y39720302D01*
X12640301Y39541673D01*
X12873690Y39445000D01*
X14214250Y39445000D01*
X14373000Y39603750D01*
X14373000Y41453000D01*
X14627000Y41453000D01*
X14627000Y39603750D01*
X14785750Y39445000D01*
X16126310Y39445000D01*
X16359699Y39541673D01*
X16538327Y39720302D01*
X16635000Y39953691D01*
X16635000Y41294250D01*
X25365000Y41294250D01*
X25365000Y39953691D01*
X25461673Y39720302D01*
X25640301Y39541673D01*
X25873690Y39445000D01*
X27214250Y39445000D01*
X27373000Y39603750D01*
X27373000Y41453000D01*
X27627000Y41453000D01*
X27627000Y39603750D01*
X27785750Y39445000D01*
X29126310Y39445000D01*
X29359699Y39541673D01*
X29538327Y39720302D01*
X29635000Y39953691D01*
X29635000Y41294250D01*
X29476250Y41453000D01*
X27627000Y41453000D01*
X27373000Y41453000D01*
X25523750Y41453000D01*
X25365000Y41294250D01*
X16635000Y41294250D01*
X16476250Y41453000D01*
X14627000Y41453000D01*
X14373000Y41453000D01*
X12523750Y41453000D01*
X12365000Y41294250D01*
X3210000Y41294250D01*
X3210000Y43206309D01*
X12365000Y43206309D01*
X12365000Y41865750D01*
X12523750Y41707000D01*
X14373000Y41707000D01*
X14373000Y43556250D01*
X14627000Y43556250D01*
X14627000Y41707000D01*
X16476250Y41707000D01*
X16635000Y41865750D01*
X16635000Y43206309D01*
X25365000Y43206309D01*
X25365000Y41865750D01*
X25523750Y41707000D01*
X27373000Y41707000D01*
X27373000Y43556250D01*
X27627000Y43556250D01*
X27627000Y41707000D01*
X29476250Y41707000D01*
X29635000Y41865750D01*
X29635000Y43206309D01*
X29538327Y43439698D01*
X29359699Y43618327D01*
X29126310Y43715000D01*
X27785750Y43715000D01*
X27627000Y43556250D01*
X27373000Y43556250D01*
X27214250Y43715000D01*
X25873690Y43715000D01*
X25640301Y43618327D01*
X25461673Y43439698D01*
X25365000Y43206309D01*
X16635000Y43206309D01*
X16538327Y43439698D01*
X16359699Y43618327D01*
X16126310Y43715000D01*
X14785750Y43715000D01*
X14627000Y43556250D01*
X14373000Y43556250D01*
X14214250Y43715000D01*
X12873690Y43715000D01*
X12640301Y43618327D01*
X12461673Y43439698D01*
X12365000Y43206309D01*
X3210000Y43206309D01*
X3210000Y59494250D01*
X25365000Y59494250D01*
X25365000Y58153691D01*
X25461673Y57920302D01*
X25640301Y57741673D01*
X25873690Y57645000D01*
X27214250Y57645000D01*
X27373000Y57803750D01*
X27373000Y59653000D01*
X27627000Y59653000D01*
X27627000Y57803750D01*
X27785750Y57645000D01*
X29126310Y57645000D01*
X29359699Y57741673D01*
X29538327Y57920302D01*
X29635000Y58153691D01*
X29635000Y59494250D01*
X29476250Y59653000D01*
X27627000Y59653000D01*
X27373000Y59653000D01*
X25523750Y59653000D01*
X25365000Y59494250D01*
X3210000Y59494250D01*
X3210000Y61406309D01*
X25365000Y61406309D01*
X25365000Y60065750D01*
X25523750Y59907000D01*
X27373000Y59907000D01*
X27373000Y61756250D01*
X27627000Y61756250D01*
X27627000Y59907000D01*
X29476250Y59907000D01*
X29635000Y60065750D01*
X29635000Y61406309D01*
X29538327Y61639698D01*
X29359699Y61818327D01*
X29126310Y61915000D01*
X27785750Y61915000D01*
X27627000Y61756250D01*
X27373000Y61756250D01*
X27214250Y61915000D01*
X25873690Y61915000D01*
X25640301Y61818327D01*
X25461673Y61639698D01*
X25365000Y61406309D01*
X3210000Y61406309D01*
X3210000Y66650959D01*
X37608086Y66650959D01*
X37847611Y66144866D01*
X38262577Y65768959D01*
X38650961Y65608096D01*
X38873000Y65730085D01*
X38873000Y66873000D01*
X39127000Y66873000D01*
X39127000Y65730085D01*
X39349039Y65608096D01*
X39737423Y65768959D01*
X40152389Y66144866D01*
X40391914Y66650959D01*
X40270629Y66873000D01*
X39127000Y66873000D01*
X38873000Y66873000D01*
X37729371Y66873000D01*
X37608086Y66650959D01*
X3210000Y66650959D01*
X3210000Y67349041D01*
X37608086Y67349041D01*
X37729371Y67127000D01*
X38873000Y67127000D01*
X38873000Y68269915D01*
X39127000Y68269915D01*
X39127000Y67127000D01*
X40270629Y67127000D01*
X40391914Y67349041D01*
X40152389Y67855134D01*
X39737423Y68231041D01*
X39349039Y68391904D01*
X39127000Y68269915D01*
X38873000Y68269915D01*
X38650961Y68391904D01*
X38262577Y68231041D01*
X37847611Y67855134D01*
X37608086Y67349041D01*
X3210000Y67349041D01*
X3210000Y73557381D01*
X3764613Y73557381D01*
X4104155Y72735628D01*
X4732321Y72106364D01*
X5553481Y71765389D01*
X6442619Y71764613D01*
X7264372Y72104155D01*
X7893636Y72732321D01*
X8234611Y73553481D01*
X8235387Y74442619D01*
X7895845Y75264372D01*
X7267679Y75893636D01*
X6446519Y76234611D01*
X5557381Y76235387D01*
X4735628Y75895845D01*
X4106364Y75267679D01*
X3765389Y74446519D01*
X3764613Y73557381D01*
X3210000Y73557381D01*
X3210000Y76790000D01*
X41873000Y76790000D01*
X41873000Y76235330D01*
X41873000Y76235330D01*
G37*
X41873000Y76235330D02*
X41807381Y76235387D01*
X40985628Y75895845D01*
X40356364Y75267679D01*
X40015389Y74446519D01*
X40014613Y73557381D01*
X40354155Y72735628D01*
X40982321Y72106364D01*
X41803481Y71765389D01*
X41873000Y71765328D01*
X41873000Y8235330D01*
X41807381Y8235387D01*
X40985628Y7895845D01*
X40356364Y7267679D01*
X40015389Y6446519D01*
X40014613Y5557381D01*
X40354155Y4735628D01*
X40982321Y4106364D01*
X41803481Y3765389D01*
X41873000Y3765328D01*
X41873000Y3210000D01*
X3210000Y3210000D01*
X3210000Y5557381D01*
X3764613Y5557381D01*
X4104155Y4735628D01*
X4732321Y4106364D01*
X5553481Y3765389D01*
X6442619Y3764613D01*
X7264372Y4104155D01*
X7893636Y4732321D01*
X8234611Y5553481D01*
X8235387Y6442619D01*
X7895845Y7264372D01*
X7267679Y7893636D01*
X6446519Y8234611D01*
X5557381Y8235387D01*
X4735628Y7895845D01*
X4106364Y7267679D01*
X3765389Y6446519D01*
X3764613Y5557381D01*
X3210000Y5557381D01*
X3210000Y12650959D01*
X37608086Y12650959D01*
X37847611Y12144866D01*
X38262577Y11768959D01*
X38650961Y11608096D01*
X38873000Y11730085D01*
X38873000Y12873000D01*
X39127000Y12873000D01*
X39127000Y11730085D01*
X39349039Y11608096D01*
X39737423Y11768959D01*
X40152389Y12144866D01*
X40391914Y12650959D01*
X40270629Y12873000D01*
X39127000Y12873000D01*
X38873000Y12873000D01*
X37729371Y12873000D01*
X37608086Y12650959D01*
X3210000Y12650959D01*
X3210000Y13349041D01*
X37608086Y13349041D01*
X37729371Y13127000D01*
X38873000Y13127000D01*
X38873000Y14269915D01*
X39127000Y14269915D01*
X39127000Y13127000D01*
X40270629Y13127000D01*
X40391914Y13349041D01*
X40152389Y13855134D01*
X39737423Y14231041D01*
X39349039Y14391904D01*
X39127000Y14269915D01*
X38873000Y14269915D01*
X38650961Y14391904D01*
X38262577Y14231041D01*
X37847611Y13855134D01*
X37608086Y13349041D01*
X3210000Y13349041D01*
X3210000Y23094250D01*
X25365000Y23094250D01*
X25365000Y21753691D01*
X25461673Y21520302D01*
X25640301Y21341673D01*
X25873690Y21245000D01*
X27214250Y21245000D01*
X27373000Y21403750D01*
X27373000Y23253000D01*
X27627000Y23253000D01*
X27627000Y21403750D01*
X27785750Y21245000D01*
X29126310Y21245000D01*
X29359699Y21341673D01*
X29538327Y21520302D01*
X29635000Y21753691D01*
X29635000Y23094250D01*
X29476250Y23253000D01*
X27627000Y23253000D01*
X27373000Y23253000D01*
X25523750Y23253000D01*
X25365000Y23094250D01*
X3210000Y23094250D01*
X3210000Y25006309D01*
X25365000Y25006309D01*
X25365000Y23665750D01*
X25523750Y23507000D01*
X27373000Y23507000D01*
X27373000Y25356250D01*
X27627000Y25356250D01*
X27627000Y23507000D01*
X29476250Y23507000D01*
X29635000Y23665750D01*
X29635000Y25006309D01*
X29538327Y25239698D01*
X29359699Y25418327D01*
X29126310Y25515000D01*
X27785750Y25515000D01*
X27627000Y25356250D01*
X27373000Y25356250D01*
X27214250Y25515000D01*
X25873690Y25515000D01*
X25640301Y25418327D01*
X25461673Y25239698D01*
X25365000Y25006309D01*
X3210000Y25006309D01*
X3210000Y36077185D01*
X12364630Y36077185D01*
X12688980Y35292200D01*
X13289041Y34691091D01*
X14073459Y34365372D01*
X14922815Y34364630D01*
X15480352Y34595000D01*
X26520454Y34595000D01*
X27073459Y34365372D01*
X27922815Y34364630D01*
X28480352Y34595000D01*
X34710924Y34595000D01*
X37095000Y32210923D01*
X37095000Y26789077D01*
X30510924Y20205000D01*
X28479546Y20205000D01*
X27926541Y20434628D01*
X27077185Y20435370D01*
X26292200Y20111020D01*
X25691091Y19510959D01*
X25365372Y18726541D01*
X25364630Y17877185D01*
X25688980Y17092200D01*
X26289041Y16491091D01*
X27073459Y16165372D01*
X27922815Y16164630D01*
X28480352Y16395000D01*
X31300000Y16395000D01*
X32029012Y16540009D01*
X32647038Y16952962D01*
X40347038Y24652961D01*
X40759991Y25270987D01*
X40808528Y25515000D01*
X40905000Y26000000D01*
X40905000Y33000000D01*
X40759991Y33729012D01*
X40759991Y33729013D01*
X40347038Y34347039D01*
X38194076Y36500000D01*
X40347038Y38652961D01*
X40759991Y39270987D01*
X40826181Y39603750D01*
X40905000Y40000000D01*
X40905000Y43200000D01*
X40759991Y43929012D01*
X40347038Y44547038D01*
X29539684Y55354392D01*
X29311020Y55907800D01*
X28710959Y56508909D01*
X27926541Y56834628D01*
X27077185Y56835370D01*
X26292200Y56511020D01*
X25691091Y55910959D01*
X25365372Y55126541D01*
X25364630Y54277185D01*
X25688980Y53492200D01*
X26289041Y52891091D01*
X26846176Y52659748D01*
X37095000Y42410924D01*
X37095000Y40789077D01*
X34710924Y38405000D01*
X28479546Y38405000D01*
X27926541Y38634628D01*
X27077185Y38635370D01*
X26519648Y38405000D01*
X15479546Y38405000D01*
X14926541Y38634628D01*
X14077185Y38635370D01*
X13292200Y38311020D01*
X12691091Y37710959D01*
X12365372Y36926541D01*
X12364630Y36077185D01*
X3210000Y36077185D01*
X3210000Y41294250D01*
X12365000Y41294250D01*
X12365000Y39953691D01*
X12461673Y39720302D01*
X12640301Y39541673D01*
X12873690Y39445000D01*
X14214250Y39445000D01*
X14373000Y39603750D01*
X14373000Y41453000D01*
X14627000Y41453000D01*
X14627000Y39603750D01*
X14785750Y39445000D01*
X16126310Y39445000D01*
X16359699Y39541673D01*
X16538327Y39720302D01*
X16635000Y39953691D01*
X16635000Y41294250D01*
X25365000Y41294250D01*
X25365000Y39953691D01*
X25461673Y39720302D01*
X25640301Y39541673D01*
X25873690Y39445000D01*
X27214250Y39445000D01*
X27373000Y39603750D01*
X27373000Y41453000D01*
X27627000Y41453000D01*
X27627000Y39603750D01*
X27785750Y39445000D01*
X29126310Y39445000D01*
X29359699Y39541673D01*
X29538327Y39720302D01*
X29635000Y39953691D01*
X29635000Y41294250D01*
X29476250Y41453000D01*
X27627000Y41453000D01*
X27373000Y41453000D01*
X25523750Y41453000D01*
X25365000Y41294250D01*
X16635000Y41294250D01*
X16476250Y41453000D01*
X14627000Y41453000D01*
X14373000Y41453000D01*
X12523750Y41453000D01*
X12365000Y41294250D01*
X3210000Y41294250D01*
X3210000Y43206309D01*
X12365000Y43206309D01*
X12365000Y41865750D01*
X12523750Y41707000D01*
X14373000Y41707000D01*
X14373000Y43556250D01*
X14627000Y43556250D01*
X14627000Y41707000D01*
X16476250Y41707000D01*
X16635000Y41865750D01*
X16635000Y43206309D01*
X25365000Y43206309D01*
X25365000Y41865750D01*
X25523750Y41707000D01*
X27373000Y41707000D01*
X27373000Y43556250D01*
X27627000Y43556250D01*
X27627000Y41707000D01*
X29476250Y41707000D01*
X29635000Y41865750D01*
X29635000Y43206309D01*
X29538327Y43439698D01*
X29359699Y43618327D01*
X29126310Y43715000D01*
X27785750Y43715000D01*
X27627000Y43556250D01*
X27373000Y43556250D01*
X27214250Y43715000D01*
X25873690Y43715000D01*
X25640301Y43618327D01*
X25461673Y43439698D01*
X25365000Y43206309D01*
X16635000Y43206309D01*
X16538327Y43439698D01*
X16359699Y43618327D01*
X16126310Y43715000D01*
X14785750Y43715000D01*
X14627000Y43556250D01*
X14373000Y43556250D01*
X14214250Y43715000D01*
X12873690Y43715000D01*
X12640301Y43618327D01*
X12461673Y43439698D01*
X12365000Y43206309D01*
X3210000Y43206309D01*
X3210000Y59494250D01*
X25365000Y59494250D01*
X25365000Y58153691D01*
X25461673Y57920302D01*
X25640301Y57741673D01*
X25873690Y57645000D01*
X27214250Y57645000D01*
X27373000Y57803750D01*
X27373000Y59653000D01*
X27627000Y59653000D01*
X27627000Y57803750D01*
X27785750Y57645000D01*
X29126310Y57645000D01*
X29359699Y57741673D01*
X29538327Y57920302D01*
X29635000Y58153691D01*
X29635000Y59494250D01*
X29476250Y59653000D01*
X27627000Y59653000D01*
X27373000Y59653000D01*
X25523750Y59653000D01*
X25365000Y59494250D01*
X3210000Y59494250D01*
X3210000Y61406309D01*
X25365000Y61406309D01*
X25365000Y60065750D01*
X25523750Y59907000D01*
X27373000Y59907000D01*
X27373000Y61756250D01*
X27627000Y61756250D01*
X27627000Y59907000D01*
X29476250Y59907000D01*
X29635000Y60065750D01*
X29635000Y61406309D01*
X29538327Y61639698D01*
X29359699Y61818327D01*
X29126310Y61915000D01*
X27785750Y61915000D01*
X27627000Y61756250D01*
X27373000Y61756250D01*
X27214250Y61915000D01*
X25873690Y61915000D01*
X25640301Y61818327D01*
X25461673Y61639698D01*
X25365000Y61406309D01*
X3210000Y61406309D01*
X3210000Y66650959D01*
X37608086Y66650959D01*
X37847611Y66144866D01*
X38262577Y65768959D01*
X38650961Y65608096D01*
X38873000Y65730085D01*
X38873000Y66873000D01*
X39127000Y66873000D01*
X39127000Y65730085D01*
X39349039Y65608096D01*
X39737423Y65768959D01*
X40152389Y66144866D01*
X40391914Y66650959D01*
X40270629Y66873000D01*
X39127000Y66873000D01*
X38873000Y66873000D01*
X37729371Y66873000D01*
X37608086Y66650959D01*
X3210000Y66650959D01*
X3210000Y67349041D01*
X37608086Y67349041D01*
X37729371Y67127000D01*
X38873000Y67127000D01*
X38873000Y68269915D01*
X39127000Y68269915D01*
X39127000Y67127000D01*
X40270629Y67127000D01*
X40391914Y67349041D01*
X40152389Y67855134D01*
X39737423Y68231041D01*
X39349039Y68391904D01*
X39127000Y68269915D01*
X38873000Y68269915D01*
X38650961Y68391904D01*
X38262577Y68231041D01*
X37847611Y67855134D01*
X37608086Y67349041D01*
X3210000Y67349041D01*
X3210000Y73557381D01*
X3764613Y73557381D01*
X4104155Y72735628D01*
X4732321Y72106364D01*
X5553481Y71765389D01*
X6442619Y71764613D01*
X7264372Y72104155D01*
X7893636Y72732321D01*
X8234611Y73553481D01*
X8235387Y74442619D01*
X7895845Y75264372D01*
X7267679Y75893636D01*
X6446519Y76234611D01*
X5557381Y76235387D01*
X4735628Y75895845D01*
X4106364Y75267679D01*
X3765389Y74446519D01*
X3764613Y73557381D01*
X3210000Y73557381D01*
X3210000Y76790000D01*
X41873000Y76790000D01*
X41873000Y76235330D01*
M02*
