G04 #@! TF.FileFunction,Legend,Bot*
%FSLAX46Y46*%
G04 Gerber Fmt 4.6, Leading zero omitted, Abs format (unit mm)*
G04 Created by KiCad (PCBNEW 4.0.7) date 02/15/18 17:09:35*
%MOMM*%
%LPD*%
G01*
G04 APERTURE LIST*
%ADD10C,0.100000*%
%ADD11C,0.300000*%
%ADD12C,0.150000*%
G04 APERTURE END LIST*
D10*
D11*
X199266714Y-99167143D02*
X199052428Y-99095714D01*
X198981000Y-99024286D01*
X198909571Y-98881429D01*
X198909571Y-98667143D01*
X198981000Y-98524286D01*
X199052428Y-98452857D01*
X199195286Y-98381429D01*
X199766714Y-98381429D01*
X199766714Y-99881429D01*
X199266714Y-99881429D01*
X199123857Y-99810000D01*
X199052428Y-99738571D01*
X198981000Y-99595714D01*
X198981000Y-99452857D01*
X199052428Y-99310000D01*
X199123857Y-99238571D01*
X199266714Y-99167143D01*
X199766714Y-99167143D01*
X198338143Y-98810000D02*
X197623857Y-98810000D01*
X198481000Y-98381429D02*
X197981000Y-99881429D01*
X197481000Y-98381429D01*
X197195286Y-99881429D02*
X196338143Y-99881429D01*
X196766714Y-98381429D02*
X196766714Y-99881429D01*
X195838143Y-98952857D02*
X194695286Y-98952857D01*
X195266715Y-98381429D02*
X195266715Y-99524286D01*
X185296714Y-99167143D02*
X185082428Y-99095714D01*
X185011000Y-99024286D01*
X184939571Y-98881429D01*
X184939571Y-98667143D01*
X185011000Y-98524286D01*
X185082428Y-98452857D01*
X185225286Y-98381429D01*
X185796714Y-98381429D01*
X185796714Y-99881429D01*
X185296714Y-99881429D01*
X185153857Y-99810000D01*
X185082428Y-99738571D01*
X185011000Y-99595714D01*
X185011000Y-99452857D01*
X185082428Y-99310000D01*
X185153857Y-99238571D01*
X185296714Y-99167143D01*
X185796714Y-99167143D01*
X184368143Y-98810000D02*
X183653857Y-98810000D01*
X184511000Y-98381429D02*
X184011000Y-99881429D01*
X183511000Y-98381429D01*
X183225286Y-99881429D02*
X182368143Y-99881429D01*
X182796714Y-98381429D02*
X182796714Y-99881429D01*
X181868143Y-98952857D02*
X180725286Y-98952857D01*
X217681714Y-99103643D02*
X217467428Y-99032214D01*
X217396000Y-98960786D01*
X217324571Y-98817929D01*
X217324571Y-98603643D01*
X217396000Y-98460786D01*
X217467428Y-98389357D01*
X217610286Y-98317929D01*
X218181714Y-98317929D01*
X218181714Y-99817929D01*
X217681714Y-99817929D01*
X217538857Y-99746500D01*
X217467428Y-99675071D01*
X217396000Y-99532214D01*
X217396000Y-99389357D01*
X217467428Y-99246500D01*
X217538857Y-99175071D01*
X217681714Y-99103643D01*
X218181714Y-99103643D01*
X216753143Y-98746500D02*
X216038857Y-98746500D01*
X216896000Y-98317929D02*
X216396000Y-99817929D01*
X215896000Y-98317929D01*
X215610286Y-99817929D02*
X214753143Y-99817929D01*
X215181714Y-98317929D02*
X215181714Y-99817929D01*
X214253143Y-98889357D02*
X213110286Y-98889357D01*
X231651714Y-99103643D02*
X231437428Y-99032214D01*
X231366000Y-98960786D01*
X231294571Y-98817929D01*
X231294571Y-98603643D01*
X231366000Y-98460786D01*
X231437428Y-98389357D01*
X231580286Y-98317929D01*
X232151714Y-98317929D01*
X232151714Y-99817929D01*
X231651714Y-99817929D01*
X231508857Y-99746500D01*
X231437428Y-99675071D01*
X231366000Y-99532214D01*
X231366000Y-99389357D01*
X231437428Y-99246500D01*
X231508857Y-99175071D01*
X231651714Y-99103643D01*
X232151714Y-99103643D01*
X230723143Y-98746500D02*
X230008857Y-98746500D01*
X230866000Y-98317929D02*
X230366000Y-99817929D01*
X229866000Y-98317929D01*
X229580286Y-99817929D02*
X228723143Y-99817929D01*
X229151714Y-98317929D02*
X229151714Y-99817929D01*
X228223143Y-98889357D02*
X227080286Y-98889357D01*
X227651715Y-98317929D02*
X227651715Y-99460786D01*
X193011714Y-112560571D02*
X193011714Y-111060571D01*
X192440286Y-111060571D01*
X192297428Y-111132000D01*
X192226000Y-111203429D01*
X192154571Y-111346286D01*
X192154571Y-111560571D01*
X192226000Y-111703429D01*
X192297428Y-111774857D01*
X192440286Y-111846286D01*
X193011714Y-111846286D01*
X191511714Y-112560571D02*
X191511714Y-111060571D01*
X190868857Y-112560571D02*
X190868857Y-111774857D01*
X190940286Y-111632000D01*
X191083143Y-111560571D01*
X191297428Y-111560571D01*
X191440286Y-111632000D01*
X191511714Y-111703429D01*
X189583143Y-112489143D02*
X189726000Y-112560571D01*
X190011714Y-112560571D01*
X190154571Y-112489143D01*
X190226000Y-112346286D01*
X190226000Y-111774857D01*
X190154571Y-111632000D01*
X190011714Y-111560571D01*
X189726000Y-111560571D01*
X189583143Y-111632000D01*
X189511714Y-111774857D01*
X189511714Y-111917714D01*
X190226000Y-112060571D01*
X188654571Y-112560571D02*
X188797429Y-112489143D01*
X188868857Y-112417714D01*
X188940286Y-112274857D01*
X188940286Y-111846286D01*
X188868857Y-111703429D01*
X188797429Y-111632000D01*
X188654571Y-111560571D01*
X188440286Y-111560571D01*
X188297429Y-111632000D01*
X188226000Y-111703429D01*
X188154571Y-111846286D01*
X188154571Y-112274857D01*
X188226000Y-112417714D01*
X188297429Y-112489143D01*
X188440286Y-112560571D01*
X188654571Y-112560571D01*
X187511714Y-111560571D02*
X187511714Y-112560571D01*
X187511714Y-111703429D02*
X187440286Y-111632000D01*
X187297428Y-111560571D01*
X187083143Y-111560571D01*
X186940286Y-111632000D01*
X186868857Y-111774857D01*
X186868857Y-112560571D01*
X186154571Y-112560571D02*
X186154571Y-111560571D01*
X186154571Y-111060571D02*
X186226000Y-111132000D01*
X186154571Y-111203429D01*
X186083143Y-111132000D01*
X186154571Y-111060571D01*
X186154571Y-111203429D01*
X185583142Y-112560571D02*
X184797428Y-111560571D01*
X185583142Y-111560571D02*
X184797428Y-112560571D01*
X192047428Y-114967714D02*
X192118857Y-115039143D01*
X192333143Y-115110571D01*
X192476000Y-115110571D01*
X192690285Y-115039143D01*
X192833143Y-114896286D01*
X192904571Y-114753429D01*
X192976000Y-114467714D01*
X192976000Y-114253429D01*
X192904571Y-113967714D01*
X192833143Y-113824857D01*
X192690285Y-113682000D01*
X192476000Y-113610571D01*
X192333143Y-113610571D01*
X192118857Y-113682000D01*
X192047428Y-113753429D01*
X191190285Y-115110571D02*
X191333143Y-115039143D01*
X191404571Y-114967714D01*
X191476000Y-114824857D01*
X191476000Y-114396286D01*
X191404571Y-114253429D01*
X191333143Y-114182000D01*
X191190285Y-114110571D01*
X190976000Y-114110571D01*
X190833143Y-114182000D01*
X190761714Y-114253429D01*
X190690285Y-114396286D01*
X190690285Y-114824857D01*
X190761714Y-114967714D01*
X190833143Y-115039143D01*
X190976000Y-115110571D01*
X191190285Y-115110571D01*
X190047428Y-114110571D02*
X190047428Y-115110571D01*
X190047428Y-114253429D02*
X189976000Y-114182000D01*
X189833142Y-114110571D01*
X189618857Y-114110571D01*
X189476000Y-114182000D01*
X189404571Y-114324857D01*
X189404571Y-115110571D01*
X188904571Y-114110571D02*
X188333142Y-114110571D01*
X188690285Y-113610571D02*
X188690285Y-114896286D01*
X188618857Y-115039143D01*
X188475999Y-115110571D01*
X188333142Y-115110571D01*
X187190285Y-115110571D02*
X187190285Y-114324857D01*
X187261714Y-114182000D01*
X187404571Y-114110571D01*
X187690285Y-114110571D01*
X187833142Y-114182000D01*
X187190285Y-115039143D02*
X187333142Y-115110571D01*
X187690285Y-115110571D01*
X187833142Y-115039143D01*
X187904571Y-114896286D01*
X187904571Y-114753429D01*
X187833142Y-114610571D01*
X187690285Y-114539143D01*
X187333142Y-114539143D01*
X187190285Y-114467714D01*
X185833142Y-115039143D02*
X185975999Y-115110571D01*
X186261713Y-115110571D01*
X186404571Y-115039143D01*
X186475999Y-114967714D01*
X186547428Y-114824857D01*
X186547428Y-114396286D01*
X186475999Y-114253429D01*
X186404571Y-114182000D01*
X186261713Y-114110571D01*
X185975999Y-114110571D01*
X185833142Y-114182000D01*
X185404571Y-114110571D02*
X184833142Y-114110571D01*
X185190285Y-113610571D02*
X185190285Y-114896286D01*
X185118857Y-115039143D01*
X184975999Y-115110571D01*
X184833142Y-115110571D01*
X227555714Y-112052571D02*
X227555714Y-110552571D01*
X226984286Y-110552571D01*
X226841428Y-110624000D01*
X226770000Y-110695429D01*
X226698571Y-110838286D01*
X226698571Y-111052571D01*
X226770000Y-111195429D01*
X226841428Y-111266857D01*
X226984286Y-111338286D01*
X227555714Y-111338286D01*
X226055714Y-112052571D02*
X226055714Y-110552571D01*
X225412857Y-112052571D02*
X225412857Y-111266857D01*
X225484286Y-111124000D01*
X225627143Y-111052571D01*
X225841428Y-111052571D01*
X225984286Y-111124000D01*
X226055714Y-111195429D01*
X224127143Y-111981143D02*
X224270000Y-112052571D01*
X224555714Y-112052571D01*
X224698571Y-111981143D01*
X224770000Y-111838286D01*
X224770000Y-111266857D01*
X224698571Y-111124000D01*
X224555714Y-111052571D01*
X224270000Y-111052571D01*
X224127143Y-111124000D01*
X224055714Y-111266857D01*
X224055714Y-111409714D01*
X224770000Y-111552571D01*
X223198571Y-112052571D02*
X223341429Y-111981143D01*
X223412857Y-111909714D01*
X223484286Y-111766857D01*
X223484286Y-111338286D01*
X223412857Y-111195429D01*
X223341429Y-111124000D01*
X223198571Y-111052571D01*
X222984286Y-111052571D01*
X222841429Y-111124000D01*
X222770000Y-111195429D01*
X222698571Y-111338286D01*
X222698571Y-111766857D01*
X222770000Y-111909714D01*
X222841429Y-111981143D01*
X222984286Y-112052571D01*
X223198571Y-112052571D01*
X222055714Y-111052571D02*
X222055714Y-112052571D01*
X222055714Y-111195429D02*
X221984286Y-111124000D01*
X221841428Y-111052571D01*
X221627143Y-111052571D01*
X221484286Y-111124000D01*
X221412857Y-111266857D01*
X221412857Y-112052571D01*
X220698571Y-112052571D02*
X220698571Y-111052571D01*
X220698571Y-110552571D02*
X220770000Y-110624000D01*
X220698571Y-110695429D01*
X220627143Y-110624000D01*
X220698571Y-110552571D01*
X220698571Y-110695429D01*
X220127142Y-112052571D02*
X219341428Y-111052571D01*
X220127142Y-111052571D02*
X219341428Y-112052571D01*
X226591428Y-114459714D02*
X226662857Y-114531143D01*
X226877143Y-114602571D01*
X227020000Y-114602571D01*
X227234285Y-114531143D01*
X227377143Y-114388286D01*
X227448571Y-114245429D01*
X227520000Y-113959714D01*
X227520000Y-113745429D01*
X227448571Y-113459714D01*
X227377143Y-113316857D01*
X227234285Y-113174000D01*
X227020000Y-113102571D01*
X226877143Y-113102571D01*
X226662857Y-113174000D01*
X226591428Y-113245429D01*
X225734285Y-114602571D02*
X225877143Y-114531143D01*
X225948571Y-114459714D01*
X226020000Y-114316857D01*
X226020000Y-113888286D01*
X225948571Y-113745429D01*
X225877143Y-113674000D01*
X225734285Y-113602571D01*
X225520000Y-113602571D01*
X225377143Y-113674000D01*
X225305714Y-113745429D01*
X225234285Y-113888286D01*
X225234285Y-114316857D01*
X225305714Y-114459714D01*
X225377143Y-114531143D01*
X225520000Y-114602571D01*
X225734285Y-114602571D01*
X224591428Y-113602571D02*
X224591428Y-114602571D01*
X224591428Y-113745429D02*
X224520000Y-113674000D01*
X224377142Y-113602571D01*
X224162857Y-113602571D01*
X224020000Y-113674000D01*
X223948571Y-113816857D01*
X223948571Y-114602571D01*
X223448571Y-113602571D02*
X222877142Y-113602571D01*
X223234285Y-113102571D02*
X223234285Y-114388286D01*
X223162857Y-114531143D01*
X223019999Y-114602571D01*
X222877142Y-114602571D01*
X221734285Y-114602571D02*
X221734285Y-113816857D01*
X221805714Y-113674000D01*
X221948571Y-113602571D01*
X222234285Y-113602571D01*
X222377142Y-113674000D01*
X221734285Y-114531143D02*
X221877142Y-114602571D01*
X222234285Y-114602571D01*
X222377142Y-114531143D01*
X222448571Y-114388286D01*
X222448571Y-114245429D01*
X222377142Y-114102571D01*
X222234285Y-114031143D01*
X221877142Y-114031143D01*
X221734285Y-113959714D01*
X220377142Y-114531143D02*
X220519999Y-114602571D01*
X220805713Y-114602571D01*
X220948571Y-114531143D01*
X221019999Y-114459714D01*
X221091428Y-114316857D01*
X221091428Y-113888286D01*
X221019999Y-113745429D01*
X220948571Y-113674000D01*
X220805713Y-113602571D01*
X220519999Y-113602571D01*
X220377142Y-113674000D01*
X219948571Y-113602571D02*
X219377142Y-113602571D01*
X219734285Y-113102571D02*
X219734285Y-114388286D01*
X219662857Y-114531143D01*
X219519999Y-114602571D01*
X219377142Y-114602571D01*
D12*
X208851500Y-123761500D02*
X210121500Y-123761500D01*
X208851500Y-100901500D02*
X208851500Y-123761500D01*
X239331500Y-100901500D02*
X208851500Y-100901500D01*
X239331500Y-123761500D02*
X239331500Y-100901500D01*
X210121500Y-123761500D02*
X239331500Y-123761500D01*
X174879000Y-123698000D02*
X176149000Y-123698000D01*
X174879000Y-100838000D02*
X174879000Y-123698000D01*
X205359000Y-100838000D02*
X174879000Y-100838000D01*
X205359000Y-123698000D02*
X205359000Y-100838000D01*
X176149000Y-123698000D02*
X205359000Y-123698000D01*
X169046000Y-115798500D02*
X169046000Y-122998500D01*
X169046000Y-122998500D02*
X155946000Y-122998500D01*
X155946000Y-122998500D02*
X155946000Y-115798500D01*
X168466000Y-105498500D02*
X156526000Y-105498500D01*
X169046000Y-106078500D02*
G75*
G02X168466000Y-105498500I0J580000D01*
G01*
X169046000Y-105498500D02*
X169736000Y-105498500D01*
X169046000Y-105498500D02*
X169046000Y-115798500D01*
X156526000Y-105498500D02*
G75*
G02X155946000Y-106078500I-580000J0D01*
G01*
X155946000Y-105498500D02*
X155256000Y-105498500D01*
X155946000Y-115798500D02*
X155946000Y-105498500D01*
X150694500Y-115798500D02*
X150694500Y-122998500D01*
X150694500Y-122998500D02*
X137594500Y-122998500D01*
X137594500Y-122998500D02*
X137594500Y-115798500D01*
X150114500Y-105498500D02*
X138174500Y-105498500D01*
X150694500Y-106078500D02*
G75*
G02X150114500Y-105498500I0J580000D01*
G01*
X150694500Y-105498500D02*
X151384500Y-105498500D01*
X150694500Y-105498500D02*
X150694500Y-115798500D01*
X138174500Y-105498500D02*
G75*
G02X137594500Y-106078500I-580000J0D01*
G01*
X137594500Y-105498500D02*
X136904500Y-105498500D01*
X137594500Y-115798500D02*
X137594500Y-105498500D01*
X90900000Y-115318500D02*
X91750000Y-115318500D01*
X89200000Y-118068500D02*
X89200000Y-119968500D01*
X88600000Y-118068500D02*
X88600000Y-119968500D01*
X85000000Y-118068500D02*
X85000000Y-119968500D01*
X84400000Y-118068500D02*
X84400000Y-119968500D01*
X80800000Y-118068500D02*
X80800000Y-119968500D01*
X80200000Y-118068500D02*
X80200000Y-119968500D01*
X76600000Y-118068500D02*
X76600000Y-119968500D01*
X76000000Y-118068500D02*
X76000000Y-119968500D01*
X87100000Y-115268500D02*
X86500000Y-115268500D01*
X82900000Y-115268500D02*
X82300000Y-115268500D01*
X78700000Y-115268500D02*
X78100000Y-115268500D01*
X90900000Y-116268500D02*
X91500000Y-116568500D01*
X91500000Y-116568500D02*
X91500000Y-115968500D01*
X91500000Y-115968500D02*
X90900000Y-116268500D01*
X133000500Y-115318500D02*
X133850500Y-115318500D01*
X131300500Y-118068500D02*
X131300500Y-119968500D01*
X130700500Y-118068500D02*
X130700500Y-119968500D01*
X127100500Y-118068500D02*
X127100500Y-119968500D01*
X126500500Y-118068500D02*
X126500500Y-119968500D01*
X122900500Y-118068500D02*
X122900500Y-119968500D01*
X122300500Y-118068500D02*
X122300500Y-119968500D01*
X118700500Y-118068500D02*
X118700500Y-119968500D01*
X118100500Y-118068500D02*
X118100500Y-119968500D01*
X129200500Y-115268500D02*
X128600500Y-115268500D01*
X125000500Y-115268500D02*
X124400500Y-115268500D01*
X120800500Y-115268500D02*
X120200500Y-115268500D01*
X133000500Y-116268500D02*
X133600500Y-116568500D01*
X133600500Y-116568500D02*
X133600500Y-115968500D01*
X133600500Y-115968500D02*
X133000500Y-116268500D01*
X69881500Y-115318500D02*
X70731500Y-115318500D01*
X68181500Y-118068500D02*
X68181500Y-119968500D01*
X67581500Y-118068500D02*
X67581500Y-119968500D01*
X63981500Y-118068500D02*
X63981500Y-119968500D01*
X63381500Y-118068500D02*
X63381500Y-119968500D01*
X59781500Y-118068500D02*
X59781500Y-119968500D01*
X59181500Y-118068500D02*
X59181500Y-119968500D01*
X55581500Y-118068500D02*
X55581500Y-119968500D01*
X54981500Y-118068500D02*
X54981500Y-119968500D01*
X66081500Y-115268500D02*
X65481500Y-115268500D01*
X61881500Y-115268500D02*
X61281500Y-115268500D01*
X57681500Y-115268500D02*
X57081500Y-115268500D01*
X69881500Y-116268500D02*
X70481500Y-116568500D01*
X70481500Y-116568500D02*
X70481500Y-115968500D01*
X70481500Y-115968500D02*
X69881500Y-116268500D01*
X111982000Y-115318500D02*
X112832000Y-115318500D01*
X110282000Y-118068500D02*
X110282000Y-119968500D01*
X109682000Y-118068500D02*
X109682000Y-119968500D01*
X106082000Y-118068500D02*
X106082000Y-119968500D01*
X105482000Y-118068500D02*
X105482000Y-119968500D01*
X101882000Y-118068500D02*
X101882000Y-119968500D01*
X101282000Y-118068500D02*
X101282000Y-119968500D01*
X97682000Y-118068500D02*
X97682000Y-119968500D01*
X97082000Y-118068500D02*
X97082000Y-119968500D01*
X108182000Y-115268500D02*
X107582000Y-115268500D01*
X103982000Y-115268500D02*
X103382000Y-115268500D01*
X99782000Y-115268500D02*
X99182000Y-115268500D01*
X111982000Y-116268500D02*
X112582000Y-116568500D01*
X112582000Y-116568500D02*
X112582000Y-115968500D01*
X112582000Y-115968500D02*
X111982000Y-116268500D01*
X227393405Y-106703881D02*
X227393405Y-107513405D01*
X227345786Y-107608643D01*
X227298167Y-107656262D01*
X227202929Y-107703881D01*
X227012452Y-107703881D01*
X226917214Y-107656262D01*
X226869595Y-107608643D01*
X226821976Y-107513405D01*
X226821976Y-106703881D01*
X225917214Y-107037214D02*
X225917214Y-107703881D01*
X226155310Y-106656262D02*
X226393405Y-107370548D01*
X225774357Y-107370548D01*
X193420905Y-106640381D02*
X193420905Y-107449905D01*
X193373286Y-107545143D01*
X193325667Y-107592762D01*
X193230429Y-107640381D01*
X193039952Y-107640381D01*
X192944714Y-107592762D01*
X192897095Y-107545143D01*
X192849476Y-107449905D01*
X192849476Y-106640381D01*
X191944714Y-106640381D02*
X192135191Y-106640381D01*
X192230429Y-106688000D01*
X192278048Y-106735619D01*
X192373286Y-106878476D01*
X192420905Y-107068952D01*
X192420905Y-107449905D01*
X192373286Y-107545143D01*
X192325667Y-107592762D01*
X192230429Y-107640381D01*
X192039952Y-107640381D01*
X191944714Y-107592762D01*
X191897095Y-107545143D01*
X191849476Y-107449905D01*
X191849476Y-107211810D01*
X191897095Y-107116571D01*
X191944714Y-107068952D01*
X192039952Y-107021333D01*
X192230429Y-107021333D01*
X192325667Y-107068952D01*
X192373286Y-107116571D01*
X192420905Y-107211810D01*
X172774430Y-111291667D02*
X172298239Y-111291667D01*
X172869668Y-111577381D02*
X172536335Y-110577381D01*
X172203001Y-111577381D01*
X171917287Y-111529762D02*
X171822049Y-111577381D01*
X171631573Y-111577381D01*
X171536334Y-111529762D01*
X171488715Y-111434524D01*
X171488715Y-111386905D01*
X171536334Y-111291667D01*
X171631573Y-111244048D01*
X171774430Y-111244048D01*
X171869668Y-111196429D01*
X171917287Y-111101190D01*
X171917287Y-111053571D01*
X171869668Y-110958333D01*
X171774430Y-110910714D01*
X171631573Y-110910714D01*
X171536334Y-110958333D01*
X171107763Y-111529762D02*
X171012525Y-111577381D01*
X170822049Y-111577381D01*
X170726810Y-111529762D01*
X170679191Y-111434524D01*
X170679191Y-111386905D01*
X170726810Y-111291667D01*
X170822049Y-111244048D01*
X170964906Y-111244048D01*
X171060144Y-111196429D01*
X171107763Y-111101190D01*
X171107763Y-111053571D01*
X171060144Y-110958333D01*
X170964906Y-110910714D01*
X170822049Y-110910714D01*
X170726810Y-110958333D01*
X170250620Y-111577381D02*
X170250620Y-110910714D01*
X170250620Y-111005952D02*
X170203001Y-110958333D01*
X170107763Y-110910714D01*
X169964905Y-110910714D01*
X169869667Y-110958333D01*
X169822048Y-111053571D01*
X169822048Y-111577381D01*
X169822048Y-111053571D02*
X169774429Y-110958333D01*
X169679191Y-110910714D01*
X169536334Y-110910714D01*
X169441096Y-110958333D01*
X169393477Y-111053571D01*
X169393477Y-111577381D01*
X168488715Y-111577381D02*
X168488715Y-111053571D01*
X168536334Y-110958333D01*
X168631572Y-110910714D01*
X168822049Y-110910714D01*
X168917287Y-110958333D01*
X168488715Y-111529762D02*
X168583953Y-111577381D01*
X168822049Y-111577381D01*
X168917287Y-111529762D01*
X168964906Y-111434524D01*
X168964906Y-111339286D01*
X168917287Y-111244048D01*
X168822049Y-111196429D01*
X168583953Y-111196429D01*
X168488715Y-111148810D01*
X168012525Y-110910714D02*
X168012525Y-111577381D01*
X168012525Y-111005952D02*
X167964906Y-110958333D01*
X167869668Y-110910714D01*
X167726810Y-110910714D01*
X167631572Y-110958333D01*
X167583953Y-111053571D01*
X167583953Y-111577381D01*
X167107763Y-110910714D02*
X167107763Y-111577381D01*
X167107763Y-111005952D02*
X167060144Y-110958333D01*
X166964906Y-110910714D01*
X166822048Y-110910714D01*
X166726810Y-110958333D01*
X166679191Y-111053571D01*
X166679191Y-111577381D01*
X165488715Y-111529762D02*
X165345858Y-111577381D01*
X165107762Y-111577381D01*
X165012524Y-111529762D01*
X164964905Y-111482143D01*
X164917286Y-111386905D01*
X164917286Y-111291667D01*
X164964905Y-111196429D01*
X165012524Y-111148810D01*
X165107762Y-111101190D01*
X165298239Y-111053571D01*
X165393477Y-111005952D01*
X165441096Y-110958333D01*
X165488715Y-110863095D01*
X165488715Y-110767857D01*
X165441096Y-110672619D01*
X165393477Y-110625000D01*
X165298239Y-110577381D01*
X165060143Y-110577381D01*
X164917286Y-110625000D01*
X164631572Y-110910714D02*
X164250620Y-110910714D01*
X164488715Y-110577381D02*
X164488715Y-111434524D01*
X164441096Y-111529762D01*
X164345858Y-111577381D01*
X164250620Y-111577381D01*
X163488714Y-111577381D02*
X163488714Y-111053571D01*
X163536333Y-110958333D01*
X163631571Y-110910714D01*
X163822048Y-110910714D01*
X163917286Y-110958333D01*
X163488714Y-111529762D02*
X163583952Y-111577381D01*
X163822048Y-111577381D01*
X163917286Y-111529762D01*
X163964905Y-111434524D01*
X163964905Y-111339286D01*
X163917286Y-111244048D01*
X163822048Y-111196429D01*
X163583952Y-111196429D01*
X163488714Y-111148810D01*
X162583952Y-111529762D02*
X162679190Y-111577381D01*
X162869667Y-111577381D01*
X162964905Y-111529762D01*
X163012524Y-111482143D01*
X163060143Y-111386905D01*
X163060143Y-111101190D01*
X163012524Y-111005952D01*
X162964905Y-110958333D01*
X162869667Y-110910714D01*
X162679190Y-110910714D01*
X162583952Y-110958333D01*
X162155381Y-111577381D02*
X162155381Y-110577381D01*
X162060143Y-111196429D02*
X161774428Y-111577381D01*
X161774428Y-110910714D02*
X162155381Y-111291667D01*
X160964904Y-111529762D02*
X161060142Y-111577381D01*
X161250619Y-111577381D01*
X161345857Y-111529762D01*
X161393476Y-111434524D01*
X161393476Y-111053571D01*
X161345857Y-110958333D01*
X161250619Y-110910714D01*
X161060142Y-110910714D01*
X160964904Y-110958333D01*
X160917285Y-111053571D01*
X160917285Y-111148810D01*
X161393476Y-111244048D01*
X160060142Y-111577381D02*
X160060142Y-110577381D01*
X160060142Y-111529762D02*
X160155380Y-111577381D01*
X160345857Y-111577381D01*
X160441095Y-111529762D01*
X160488714Y-111482143D01*
X160536333Y-111386905D01*
X160536333Y-111101190D01*
X160488714Y-111005952D01*
X160441095Y-110958333D01*
X160345857Y-110910714D01*
X160155380Y-110910714D01*
X160060142Y-110958333D01*
X158822047Y-110577381D02*
X158822047Y-111386905D01*
X158774428Y-111482143D01*
X158726809Y-111529762D01*
X158631571Y-111577381D01*
X158441094Y-111577381D01*
X158345856Y-111529762D01*
X158298237Y-111482143D01*
X158250618Y-111386905D01*
X158250618Y-110577381D01*
X157822047Y-111529762D02*
X157679190Y-111577381D01*
X157441094Y-111577381D01*
X157345856Y-111529762D01*
X157298237Y-111482143D01*
X157250618Y-111386905D01*
X157250618Y-111291667D01*
X157298237Y-111196429D01*
X157345856Y-111148810D01*
X157441094Y-111101190D01*
X157631571Y-111053571D01*
X157726809Y-111005952D01*
X157774428Y-110958333D01*
X157822047Y-110863095D01*
X157822047Y-110767857D01*
X157774428Y-110672619D01*
X157726809Y-110625000D01*
X157631571Y-110577381D01*
X157393475Y-110577381D01*
X157250618Y-110625000D01*
X156488713Y-111053571D02*
X156345856Y-111101190D01*
X156298237Y-111148810D01*
X156250618Y-111244048D01*
X156250618Y-111386905D01*
X156298237Y-111482143D01*
X156345856Y-111529762D01*
X156441094Y-111577381D01*
X156822047Y-111577381D01*
X156822047Y-110577381D01*
X156488713Y-110577381D01*
X156393475Y-110625000D01*
X156345856Y-110672619D01*
X156298237Y-110767857D01*
X156298237Y-110863095D01*
X156345856Y-110958333D01*
X156393475Y-111005952D01*
X156488713Y-111053571D01*
X156822047Y-111053571D01*
X155107761Y-111291667D02*
X154631570Y-111291667D01*
X155202999Y-111577381D02*
X154869666Y-110577381D01*
X154536332Y-111577381D01*
X153406930Y-110910667D02*
X152930739Y-110910667D01*
X153502168Y-111196381D02*
X153168835Y-110196381D01*
X152835501Y-111196381D01*
X152549787Y-111148762D02*
X152454549Y-111196381D01*
X152264073Y-111196381D01*
X152168834Y-111148762D01*
X152121215Y-111053524D01*
X152121215Y-111005905D01*
X152168834Y-110910667D01*
X152264073Y-110863048D01*
X152406930Y-110863048D01*
X152502168Y-110815429D01*
X152549787Y-110720190D01*
X152549787Y-110672571D01*
X152502168Y-110577333D01*
X152406930Y-110529714D01*
X152264073Y-110529714D01*
X152168834Y-110577333D01*
X151740263Y-111148762D02*
X151645025Y-111196381D01*
X151454549Y-111196381D01*
X151359310Y-111148762D01*
X151311691Y-111053524D01*
X151311691Y-111005905D01*
X151359310Y-110910667D01*
X151454549Y-110863048D01*
X151597406Y-110863048D01*
X151692644Y-110815429D01*
X151740263Y-110720190D01*
X151740263Y-110672571D01*
X151692644Y-110577333D01*
X151597406Y-110529714D01*
X151454549Y-110529714D01*
X151359310Y-110577333D01*
X150883120Y-111196381D02*
X150883120Y-110529714D01*
X150883120Y-110624952D02*
X150835501Y-110577333D01*
X150740263Y-110529714D01*
X150597405Y-110529714D01*
X150502167Y-110577333D01*
X150454548Y-110672571D01*
X150454548Y-111196381D01*
X150454548Y-110672571D02*
X150406929Y-110577333D01*
X150311691Y-110529714D01*
X150168834Y-110529714D01*
X150073596Y-110577333D01*
X150025977Y-110672571D01*
X150025977Y-111196381D01*
X149121215Y-111196381D02*
X149121215Y-110672571D01*
X149168834Y-110577333D01*
X149264072Y-110529714D01*
X149454549Y-110529714D01*
X149549787Y-110577333D01*
X149121215Y-111148762D02*
X149216453Y-111196381D01*
X149454549Y-111196381D01*
X149549787Y-111148762D01*
X149597406Y-111053524D01*
X149597406Y-110958286D01*
X149549787Y-110863048D01*
X149454549Y-110815429D01*
X149216453Y-110815429D01*
X149121215Y-110767810D01*
X148645025Y-110529714D02*
X148645025Y-111196381D01*
X148645025Y-110624952D02*
X148597406Y-110577333D01*
X148502168Y-110529714D01*
X148359310Y-110529714D01*
X148264072Y-110577333D01*
X148216453Y-110672571D01*
X148216453Y-111196381D01*
X147740263Y-110529714D02*
X147740263Y-111196381D01*
X147740263Y-110624952D02*
X147692644Y-110577333D01*
X147597406Y-110529714D01*
X147454548Y-110529714D01*
X147359310Y-110577333D01*
X147311691Y-110672571D01*
X147311691Y-111196381D01*
X146121215Y-111148762D02*
X145978358Y-111196381D01*
X145740262Y-111196381D01*
X145645024Y-111148762D01*
X145597405Y-111101143D01*
X145549786Y-111005905D01*
X145549786Y-110910667D01*
X145597405Y-110815429D01*
X145645024Y-110767810D01*
X145740262Y-110720190D01*
X145930739Y-110672571D01*
X146025977Y-110624952D01*
X146073596Y-110577333D01*
X146121215Y-110482095D01*
X146121215Y-110386857D01*
X146073596Y-110291619D01*
X146025977Y-110244000D01*
X145930739Y-110196381D01*
X145692643Y-110196381D01*
X145549786Y-110244000D01*
X145264072Y-110529714D02*
X144883120Y-110529714D01*
X145121215Y-110196381D02*
X145121215Y-111053524D01*
X145073596Y-111148762D01*
X144978358Y-111196381D01*
X144883120Y-111196381D01*
X144121214Y-111196381D02*
X144121214Y-110672571D01*
X144168833Y-110577333D01*
X144264071Y-110529714D01*
X144454548Y-110529714D01*
X144549786Y-110577333D01*
X144121214Y-111148762D02*
X144216452Y-111196381D01*
X144454548Y-111196381D01*
X144549786Y-111148762D01*
X144597405Y-111053524D01*
X144597405Y-110958286D01*
X144549786Y-110863048D01*
X144454548Y-110815429D01*
X144216452Y-110815429D01*
X144121214Y-110767810D01*
X143216452Y-111148762D02*
X143311690Y-111196381D01*
X143502167Y-111196381D01*
X143597405Y-111148762D01*
X143645024Y-111101143D01*
X143692643Y-111005905D01*
X143692643Y-110720190D01*
X143645024Y-110624952D01*
X143597405Y-110577333D01*
X143502167Y-110529714D01*
X143311690Y-110529714D01*
X143216452Y-110577333D01*
X142787881Y-111196381D02*
X142787881Y-110196381D01*
X142692643Y-110815429D02*
X142406928Y-111196381D01*
X142406928Y-110529714D02*
X142787881Y-110910667D01*
X141597404Y-111148762D02*
X141692642Y-111196381D01*
X141883119Y-111196381D01*
X141978357Y-111148762D01*
X142025976Y-111053524D01*
X142025976Y-110672571D01*
X141978357Y-110577333D01*
X141883119Y-110529714D01*
X141692642Y-110529714D01*
X141597404Y-110577333D01*
X141549785Y-110672571D01*
X141549785Y-110767810D01*
X142025976Y-110863048D01*
X140692642Y-111196381D02*
X140692642Y-110196381D01*
X140692642Y-111148762D02*
X140787880Y-111196381D01*
X140978357Y-111196381D01*
X141073595Y-111148762D01*
X141121214Y-111101143D01*
X141168833Y-111005905D01*
X141168833Y-110720190D01*
X141121214Y-110624952D01*
X141073595Y-110577333D01*
X140978357Y-110529714D01*
X140787880Y-110529714D01*
X140692642Y-110577333D01*
X139454547Y-110196381D02*
X139454547Y-111005905D01*
X139406928Y-111101143D01*
X139359309Y-111148762D01*
X139264071Y-111196381D01*
X139073594Y-111196381D01*
X138978356Y-111148762D01*
X138930737Y-111101143D01*
X138883118Y-111005905D01*
X138883118Y-110196381D01*
X138454547Y-111148762D02*
X138311690Y-111196381D01*
X138073594Y-111196381D01*
X137978356Y-111148762D01*
X137930737Y-111101143D01*
X137883118Y-111005905D01*
X137883118Y-110910667D01*
X137930737Y-110815429D01*
X137978356Y-110767810D01*
X138073594Y-110720190D01*
X138264071Y-110672571D01*
X138359309Y-110624952D01*
X138406928Y-110577333D01*
X138454547Y-110482095D01*
X138454547Y-110386857D01*
X138406928Y-110291619D01*
X138359309Y-110244000D01*
X138264071Y-110196381D01*
X138025975Y-110196381D01*
X137883118Y-110244000D01*
X137121213Y-110672571D02*
X136978356Y-110720190D01*
X136930737Y-110767810D01*
X136883118Y-110863048D01*
X136883118Y-111005905D01*
X136930737Y-111101143D01*
X136978356Y-111148762D01*
X137073594Y-111196381D01*
X137454547Y-111196381D01*
X137454547Y-110196381D01*
X137121213Y-110196381D01*
X137025975Y-110244000D01*
X136978356Y-110291619D01*
X136930737Y-110386857D01*
X136930737Y-110482095D01*
X136978356Y-110577333D01*
X137025975Y-110624952D01*
X137121213Y-110672571D01*
X137454547Y-110672571D01*
X135740261Y-110910667D02*
X135264070Y-110910667D01*
X135835499Y-111196381D02*
X135502166Y-110196381D01*
X135168832Y-111196381D01*
X90050001Y-112466452D02*
X90145239Y-112418833D01*
X90192858Y-112371214D01*
X90240477Y-112275976D01*
X90240477Y-112228357D01*
X90192858Y-112133119D01*
X90145239Y-112085500D01*
X90050001Y-112037881D01*
X89859524Y-112037881D01*
X89764286Y-112085500D01*
X89716667Y-112133119D01*
X89669048Y-112228357D01*
X89669048Y-112275976D01*
X89716667Y-112371214D01*
X89764286Y-112418833D01*
X89859524Y-112466452D01*
X90050001Y-112466452D01*
X90145239Y-112514071D01*
X90192858Y-112561690D01*
X90240477Y-112656929D01*
X90240477Y-112847405D01*
X90192858Y-112942643D01*
X90145239Y-112990262D01*
X90050001Y-113037881D01*
X89859524Y-113037881D01*
X89764286Y-112990262D01*
X89716667Y-112942643D01*
X89669048Y-112847405D01*
X89669048Y-112656929D01*
X89716667Y-112561690D01*
X89764286Y-112514071D01*
X89859524Y-112466452D01*
X89240477Y-112371214D02*
X89240477Y-113371214D01*
X89240477Y-112418833D02*
X89145239Y-112371214D01*
X88954762Y-112371214D01*
X88859524Y-112418833D01*
X88811905Y-112466452D01*
X88764286Y-112561690D01*
X88764286Y-112847405D01*
X88811905Y-112942643D01*
X88859524Y-112990262D01*
X88954762Y-113037881D01*
X89145239Y-113037881D01*
X89240477Y-112990262D01*
X88335715Y-113037881D02*
X88335715Y-112371214D01*
X88335715Y-112037881D02*
X88383334Y-112085500D01*
X88335715Y-112133119D01*
X88288096Y-112085500D01*
X88335715Y-112037881D01*
X88335715Y-112133119D01*
X87859525Y-112371214D02*
X87859525Y-113037881D01*
X87859525Y-112466452D02*
X87811906Y-112418833D01*
X87716668Y-112371214D01*
X87573810Y-112371214D01*
X87478572Y-112418833D01*
X87430953Y-112514071D01*
X87430953Y-113037881D01*
X86192858Y-113037881D02*
X86192858Y-112037881D01*
X85859524Y-112752167D01*
X85526191Y-112037881D01*
X85526191Y-113037881D01*
X84907144Y-113037881D02*
X85002382Y-112990262D01*
X85050001Y-112942643D01*
X85097620Y-112847405D01*
X85097620Y-112561690D01*
X85050001Y-112466452D01*
X85002382Y-112418833D01*
X84907144Y-112371214D01*
X84764286Y-112371214D01*
X84669048Y-112418833D01*
X84621429Y-112466452D01*
X84573810Y-112561690D01*
X84573810Y-112847405D01*
X84621429Y-112942643D01*
X84669048Y-112990262D01*
X84764286Y-113037881D01*
X84907144Y-113037881D01*
X84002382Y-113037881D02*
X84097620Y-112990262D01*
X84145239Y-112895024D01*
X84145239Y-112037881D01*
X83240476Y-112990262D02*
X83335714Y-113037881D01*
X83526191Y-113037881D01*
X83621429Y-112990262D01*
X83669048Y-112895024D01*
X83669048Y-112514071D01*
X83621429Y-112418833D01*
X83526191Y-112371214D01*
X83335714Y-112371214D01*
X83240476Y-112418833D01*
X83192857Y-112514071D01*
X83192857Y-112609310D01*
X83669048Y-112704548D01*
X82859524Y-113037881D02*
X82335714Y-112371214D01*
X82859524Y-112371214D02*
X82335714Y-113037881D01*
X81192857Y-113037881D02*
X81192857Y-112037881D01*
X80859523Y-112752167D01*
X80526190Y-112037881D01*
X80526190Y-113037881D01*
X80050000Y-113037881D02*
X80050000Y-112371214D01*
X80050000Y-112037881D02*
X80097619Y-112085500D01*
X80050000Y-112133119D01*
X80002381Y-112085500D01*
X80050000Y-112037881D01*
X80050000Y-112133119D01*
X79573810Y-112371214D02*
X79573810Y-113037881D01*
X79573810Y-112466452D02*
X79526191Y-112418833D01*
X79430953Y-112371214D01*
X79288095Y-112371214D01*
X79192857Y-112418833D01*
X79145238Y-112514071D01*
X79145238Y-113037881D01*
X78669048Y-113037881D02*
X78669048Y-112371214D01*
X78669048Y-112037881D02*
X78716667Y-112085500D01*
X78669048Y-112133119D01*
X78621429Y-112085500D01*
X78669048Y-112037881D01*
X78669048Y-112133119D01*
X78335715Y-112371214D02*
X77954763Y-112371214D01*
X78192858Y-113037881D02*
X78192858Y-112180738D01*
X78145239Y-112085500D01*
X78050001Y-112037881D01*
X77954763Y-112037881D01*
X77621429Y-113037881D02*
X77621429Y-112371214D01*
X77621429Y-112037881D02*
X77669048Y-112085500D01*
X77621429Y-112133119D01*
X77573810Y-112085500D01*
X77621429Y-112037881D01*
X77621429Y-112133119D01*
X77288096Y-112371214D02*
X76907144Y-112371214D01*
X77145239Y-112037881D02*
X77145239Y-112895024D01*
X77097620Y-112990262D01*
X77002382Y-113037881D01*
X76907144Y-113037881D01*
X75526190Y-112037881D02*
X75526190Y-112752167D01*
X75573810Y-112895024D01*
X75669048Y-112990262D01*
X75811905Y-113037881D01*
X75907143Y-113037881D01*
X75050000Y-113037881D02*
X75050000Y-112371214D01*
X75050000Y-112561690D02*
X75002381Y-112466452D01*
X74954762Y-112418833D01*
X74859524Y-112371214D01*
X74764285Y-112371214D01*
X131769501Y-112085452D02*
X131864739Y-112037833D01*
X131912358Y-111990214D01*
X131959977Y-111894976D01*
X131959977Y-111847357D01*
X131912358Y-111752119D01*
X131864739Y-111704500D01*
X131769501Y-111656881D01*
X131579024Y-111656881D01*
X131483786Y-111704500D01*
X131436167Y-111752119D01*
X131388548Y-111847357D01*
X131388548Y-111894976D01*
X131436167Y-111990214D01*
X131483786Y-112037833D01*
X131579024Y-112085452D01*
X131769501Y-112085452D01*
X131864739Y-112133071D01*
X131912358Y-112180690D01*
X131959977Y-112275929D01*
X131959977Y-112466405D01*
X131912358Y-112561643D01*
X131864739Y-112609262D01*
X131769501Y-112656881D01*
X131579024Y-112656881D01*
X131483786Y-112609262D01*
X131436167Y-112561643D01*
X131388548Y-112466405D01*
X131388548Y-112275929D01*
X131436167Y-112180690D01*
X131483786Y-112133071D01*
X131579024Y-112085452D01*
X130959977Y-111990214D02*
X130959977Y-112990214D01*
X130959977Y-112037833D02*
X130864739Y-111990214D01*
X130674262Y-111990214D01*
X130579024Y-112037833D01*
X130531405Y-112085452D01*
X130483786Y-112180690D01*
X130483786Y-112466405D01*
X130531405Y-112561643D01*
X130579024Y-112609262D01*
X130674262Y-112656881D01*
X130864739Y-112656881D01*
X130959977Y-112609262D01*
X130055215Y-112656881D02*
X130055215Y-111990214D01*
X130055215Y-111656881D02*
X130102834Y-111704500D01*
X130055215Y-111752119D01*
X130007596Y-111704500D01*
X130055215Y-111656881D01*
X130055215Y-111752119D01*
X129579025Y-111990214D02*
X129579025Y-112656881D01*
X129579025Y-112085452D02*
X129531406Y-112037833D01*
X129436168Y-111990214D01*
X129293310Y-111990214D01*
X129198072Y-112037833D01*
X129150453Y-112133071D01*
X129150453Y-112656881D01*
X127912358Y-112656881D02*
X127912358Y-111656881D01*
X127579024Y-112371167D01*
X127245691Y-111656881D01*
X127245691Y-112656881D01*
X126626644Y-112656881D02*
X126721882Y-112609262D01*
X126769501Y-112561643D01*
X126817120Y-112466405D01*
X126817120Y-112180690D01*
X126769501Y-112085452D01*
X126721882Y-112037833D01*
X126626644Y-111990214D01*
X126483786Y-111990214D01*
X126388548Y-112037833D01*
X126340929Y-112085452D01*
X126293310Y-112180690D01*
X126293310Y-112466405D01*
X126340929Y-112561643D01*
X126388548Y-112609262D01*
X126483786Y-112656881D01*
X126626644Y-112656881D01*
X125721882Y-112656881D02*
X125817120Y-112609262D01*
X125864739Y-112514024D01*
X125864739Y-111656881D01*
X124959976Y-112609262D02*
X125055214Y-112656881D01*
X125245691Y-112656881D01*
X125340929Y-112609262D01*
X125388548Y-112514024D01*
X125388548Y-112133071D01*
X125340929Y-112037833D01*
X125245691Y-111990214D01*
X125055214Y-111990214D01*
X124959976Y-112037833D01*
X124912357Y-112133071D01*
X124912357Y-112228310D01*
X125388548Y-112323548D01*
X124579024Y-112656881D02*
X124055214Y-111990214D01*
X124579024Y-111990214D02*
X124055214Y-112656881D01*
X122912357Y-112656881D02*
X122912357Y-111656881D01*
X122579023Y-112371167D01*
X122245690Y-111656881D01*
X122245690Y-112656881D01*
X121769500Y-112656881D02*
X121769500Y-111990214D01*
X121769500Y-111656881D02*
X121817119Y-111704500D01*
X121769500Y-111752119D01*
X121721881Y-111704500D01*
X121769500Y-111656881D01*
X121769500Y-111752119D01*
X121293310Y-111990214D02*
X121293310Y-112656881D01*
X121293310Y-112085452D02*
X121245691Y-112037833D01*
X121150453Y-111990214D01*
X121007595Y-111990214D01*
X120912357Y-112037833D01*
X120864738Y-112133071D01*
X120864738Y-112656881D01*
X120388548Y-112656881D02*
X120388548Y-111990214D01*
X120388548Y-111656881D02*
X120436167Y-111704500D01*
X120388548Y-111752119D01*
X120340929Y-111704500D01*
X120388548Y-111656881D01*
X120388548Y-111752119D01*
X120055215Y-111990214D02*
X119674263Y-111990214D01*
X119912358Y-112656881D02*
X119912358Y-111799738D01*
X119864739Y-111704500D01*
X119769501Y-111656881D01*
X119674263Y-111656881D01*
X119340929Y-112656881D02*
X119340929Y-111990214D01*
X119340929Y-111656881D02*
X119388548Y-111704500D01*
X119340929Y-111752119D01*
X119293310Y-111704500D01*
X119340929Y-111656881D01*
X119340929Y-111752119D01*
X119007596Y-111990214D02*
X118626644Y-111990214D01*
X118864739Y-111656881D02*
X118864739Y-112514024D01*
X118817120Y-112609262D01*
X118721882Y-112656881D01*
X118626644Y-112656881D01*
X117245690Y-111656881D02*
X117245690Y-112371167D01*
X117293310Y-112514024D01*
X117388548Y-112609262D01*
X117531405Y-112656881D01*
X117626643Y-112656881D01*
X116769500Y-112656881D02*
X116769500Y-111990214D01*
X116769500Y-112180690D02*
X116721881Y-112085452D01*
X116674262Y-112037833D01*
X116579024Y-111990214D01*
X116483785Y-111990214D01*
X69476001Y-112402952D02*
X69571239Y-112355333D01*
X69618858Y-112307714D01*
X69666477Y-112212476D01*
X69666477Y-112164857D01*
X69618858Y-112069619D01*
X69571239Y-112022000D01*
X69476001Y-111974381D01*
X69285524Y-111974381D01*
X69190286Y-112022000D01*
X69142667Y-112069619D01*
X69095048Y-112164857D01*
X69095048Y-112212476D01*
X69142667Y-112307714D01*
X69190286Y-112355333D01*
X69285524Y-112402952D01*
X69476001Y-112402952D01*
X69571239Y-112450571D01*
X69618858Y-112498190D01*
X69666477Y-112593429D01*
X69666477Y-112783905D01*
X69618858Y-112879143D01*
X69571239Y-112926762D01*
X69476001Y-112974381D01*
X69285524Y-112974381D01*
X69190286Y-112926762D01*
X69142667Y-112879143D01*
X69095048Y-112783905D01*
X69095048Y-112593429D01*
X69142667Y-112498190D01*
X69190286Y-112450571D01*
X69285524Y-112402952D01*
X68666477Y-112307714D02*
X68666477Y-113307714D01*
X68666477Y-112355333D02*
X68571239Y-112307714D01*
X68380762Y-112307714D01*
X68285524Y-112355333D01*
X68237905Y-112402952D01*
X68190286Y-112498190D01*
X68190286Y-112783905D01*
X68237905Y-112879143D01*
X68285524Y-112926762D01*
X68380762Y-112974381D01*
X68571239Y-112974381D01*
X68666477Y-112926762D01*
X67761715Y-112974381D02*
X67761715Y-112307714D01*
X67761715Y-111974381D02*
X67809334Y-112022000D01*
X67761715Y-112069619D01*
X67714096Y-112022000D01*
X67761715Y-111974381D01*
X67761715Y-112069619D01*
X67285525Y-112307714D02*
X67285525Y-112974381D01*
X67285525Y-112402952D02*
X67237906Y-112355333D01*
X67142668Y-112307714D01*
X66999810Y-112307714D01*
X66904572Y-112355333D01*
X66856953Y-112450571D01*
X66856953Y-112974381D01*
X65618858Y-112974381D02*
X65618858Y-111974381D01*
X65285524Y-112688667D01*
X64952191Y-111974381D01*
X64952191Y-112974381D01*
X64333144Y-112974381D02*
X64428382Y-112926762D01*
X64476001Y-112879143D01*
X64523620Y-112783905D01*
X64523620Y-112498190D01*
X64476001Y-112402952D01*
X64428382Y-112355333D01*
X64333144Y-112307714D01*
X64190286Y-112307714D01*
X64095048Y-112355333D01*
X64047429Y-112402952D01*
X63999810Y-112498190D01*
X63999810Y-112783905D01*
X64047429Y-112879143D01*
X64095048Y-112926762D01*
X64190286Y-112974381D01*
X64333144Y-112974381D01*
X63428382Y-112974381D02*
X63523620Y-112926762D01*
X63571239Y-112831524D01*
X63571239Y-111974381D01*
X62666476Y-112926762D02*
X62761714Y-112974381D01*
X62952191Y-112974381D01*
X63047429Y-112926762D01*
X63095048Y-112831524D01*
X63095048Y-112450571D01*
X63047429Y-112355333D01*
X62952191Y-112307714D01*
X62761714Y-112307714D01*
X62666476Y-112355333D01*
X62618857Y-112450571D01*
X62618857Y-112545810D01*
X63095048Y-112641048D01*
X62285524Y-112974381D02*
X61761714Y-112307714D01*
X62285524Y-112307714D02*
X61761714Y-112974381D01*
X60618857Y-112974381D02*
X60618857Y-111974381D01*
X60285523Y-112688667D01*
X59952190Y-111974381D01*
X59952190Y-112974381D01*
X59476000Y-112974381D02*
X59476000Y-112307714D01*
X59476000Y-111974381D02*
X59523619Y-112022000D01*
X59476000Y-112069619D01*
X59428381Y-112022000D01*
X59476000Y-111974381D01*
X59476000Y-112069619D01*
X58999810Y-112307714D02*
X58999810Y-112974381D01*
X58999810Y-112402952D02*
X58952191Y-112355333D01*
X58856953Y-112307714D01*
X58714095Y-112307714D01*
X58618857Y-112355333D01*
X58571238Y-112450571D01*
X58571238Y-112974381D01*
X58095048Y-112974381D02*
X58095048Y-112307714D01*
X58095048Y-111974381D02*
X58142667Y-112022000D01*
X58095048Y-112069619D01*
X58047429Y-112022000D01*
X58095048Y-111974381D01*
X58095048Y-112069619D01*
X57761715Y-112307714D02*
X57380763Y-112307714D01*
X57618858Y-112974381D02*
X57618858Y-112117238D01*
X57571239Y-112022000D01*
X57476001Y-111974381D01*
X57380763Y-111974381D01*
X57047429Y-112974381D02*
X57047429Y-112307714D01*
X57047429Y-111974381D02*
X57095048Y-112022000D01*
X57047429Y-112069619D01*
X56999810Y-112022000D01*
X57047429Y-111974381D01*
X57047429Y-112069619D01*
X56714096Y-112307714D02*
X56333144Y-112307714D01*
X56571239Y-111974381D02*
X56571239Y-112831524D01*
X56523620Y-112926762D01*
X56428382Y-112974381D01*
X56333144Y-112974381D01*
X54952190Y-111974381D02*
X54952190Y-112688667D01*
X54999810Y-112831524D01*
X55095048Y-112926762D01*
X55237905Y-112974381D01*
X55333143Y-112974381D01*
X54476000Y-112974381D02*
X54476000Y-112307714D01*
X54476000Y-112498190D02*
X54428381Y-112402952D01*
X54380762Y-112355333D01*
X54285524Y-112307714D01*
X54190285Y-112307714D01*
X111767001Y-112847452D02*
X111862239Y-112799833D01*
X111909858Y-112752214D01*
X111957477Y-112656976D01*
X111957477Y-112609357D01*
X111909858Y-112514119D01*
X111862239Y-112466500D01*
X111767001Y-112418881D01*
X111576524Y-112418881D01*
X111481286Y-112466500D01*
X111433667Y-112514119D01*
X111386048Y-112609357D01*
X111386048Y-112656976D01*
X111433667Y-112752214D01*
X111481286Y-112799833D01*
X111576524Y-112847452D01*
X111767001Y-112847452D01*
X111862239Y-112895071D01*
X111909858Y-112942690D01*
X111957477Y-113037929D01*
X111957477Y-113228405D01*
X111909858Y-113323643D01*
X111862239Y-113371262D01*
X111767001Y-113418881D01*
X111576524Y-113418881D01*
X111481286Y-113371262D01*
X111433667Y-113323643D01*
X111386048Y-113228405D01*
X111386048Y-113037929D01*
X111433667Y-112942690D01*
X111481286Y-112895071D01*
X111576524Y-112847452D01*
X110957477Y-112752214D02*
X110957477Y-113752214D01*
X110957477Y-112799833D02*
X110862239Y-112752214D01*
X110671762Y-112752214D01*
X110576524Y-112799833D01*
X110528905Y-112847452D01*
X110481286Y-112942690D01*
X110481286Y-113228405D01*
X110528905Y-113323643D01*
X110576524Y-113371262D01*
X110671762Y-113418881D01*
X110862239Y-113418881D01*
X110957477Y-113371262D01*
X110052715Y-113418881D02*
X110052715Y-112752214D01*
X110052715Y-112418881D02*
X110100334Y-112466500D01*
X110052715Y-112514119D01*
X110005096Y-112466500D01*
X110052715Y-112418881D01*
X110052715Y-112514119D01*
X109576525Y-112752214D02*
X109576525Y-113418881D01*
X109576525Y-112847452D02*
X109528906Y-112799833D01*
X109433668Y-112752214D01*
X109290810Y-112752214D01*
X109195572Y-112799833D01*
X109147953Y-112895071D01*
X109147953Y-113418881D01*
X107909858Y-113418881D02*
X107909858Y-112418881D01*
X107576524Y-113133167D01*
X107243191Y-112418881D01*
X107243191Y-113418881D01*
X106624144Y-113418881D02*
X106719382Y-113371262D01*
X106767001Y-113323643D01*
X106814620Y-113228405D01*
X106814620Y-112942690D01*
X106767001Y-112847452D01*
X106719382Y-112799833D01*
X106624144Y-112752214D01*
X106481286Y-112752214D01*
X106386048Y-112799833D01*
X106338429Y-112847452D01*
X106290810Y-112942690D01*
X106290810Y-113228405D01*
X106338429Y-113323643D01*
X106386048Y-113371262D01*
X106481286Y-113418881D01*
X106624144Y-113418881D01*
X105719382Y-113418881D02*
X105814620Y-113371262D01*
X105862239Y-113276024D01*
X105862239Y-112418881D01*
X104957476Y-113371262D02*
X105052714Y-113418881D01*
X105243191Y-113418881D01*
X105338429Y-113371262D01*
X105386048Y-113276024D01*
X105386048Y-112895071D01*
X105338429Y-112799833D01*
X105243191Y-112752214D01*
X105052714Y-112752214D01*
X104957476Y-112799833D01*
X104909857Y-112895071D01*
X104909857Y-112990310D01*
X105386048Y-113085548D01*
X104576524Y-113418881D02*
X104052714Y-112752214D01*
X104576524Y-112752214D02*
X104052714Y-113418881D01*
X102909857Y-113418881D02*
X102909857Y-112418881D01*
X102576523Y-113133167D01*
X102243190Y-112418881D01*
X102243190Y-113418881D01*
X101767000Y-113418881D02*
X101767000Y-112752214D01*
X101767000Y-112418881D02*
X101814619Y-112466500D01*
X101767000Y-112514119D01*
X101719381Y-112466500D01*
X101767000Y-112418881D01*
X101767000Y-112514119D01*
X101290810Y-112752214D02*
X101290810Y-113418881D01*
X101290810Y-112847452D02*
X101243191Y-112799833D01*
X101147953Y-112752214D01*
X101005095Y-112752214D01*
X100909857Y-112799833D01*
X100862238Y-112895071D01*
X100862238Y-113418881D01*
X100386048Y-113418881D02*
X100386048Y-112752214D01*
X100386048Y-112418881D02*
X100433667Y-112466500D01*
X100386048Y-112514119D01*
X100338429Y-112466500D01*
X100386048Y-112418881D01*
X100386048Y-112514119D01*
X100052715Y-112752214D02*
X99671763Y-112752214D01*
X99909858Y-113418881D02*
X99909858Y-112561738D01*
X99862239Y-112466500D01*
X99767001Y-112418881D01*
X99671763Y-112418881D01*
X99338429Y-113418881D02*
X99338429Y-112752214D01*
X99338429Y-112418881D02*
X99386048Y-112466500D01*
X99338429Y-112514119D01*
X99290810Y-112466500D01*
X99338429Y-112418881D01*
X99338429Y-112514119D01*
X99005096Y-112752214D02*
X98624144Y-112752214D01*
X98862239Y-112418881D02*
X98862239Y-113276024D01*
X98814620Y-113371262D01*
X98719382Y-113418881D01*
X98624144Y-113418881D01*
X97243190Y-112418881D02*
X97243190Y-113133167D01*
X97290810Y-113276024D01*
X97386048Y-113371262D01*
X97528905Y-113418881D01*
X97624143Y-113418881D01*
X96767000Y-113418881D02*
X96767000Y-112752214D01*
X96767000Y-112942690D02*
X96719381Y-112847452D01*
X96671762Y-112799833D01*
X96576524Y-112752214D01*
X96481285Y-112752214D01*
M02*
