G04 #@! TF.FileFunction,Copper,L1,Top,Signal*
%FSLAX46Y46*%
G04 Gerber Fmt 4.6, Leading zero omitted, Abs format (unit mm)*
G04 Created by KiCad (PCBNEW 4.0.7) date 02/15/18 17:09:35*
%MOMM*%
%LPD*%
G01*
G04 APERTURE LIST*
%ADD10C,0.100000*%
%ADD11C,4.064000*%
%ADD12C,2.800000*%
%ADD13C,1.508000*%
%ADD14C,2.600000*%
%ADD15R,3.000000X3.000000*%
%ADD16C,3.000000*%
%ADD17C,0.250000*%
G04 APERTURE END LIST*
D10*
D11*
X48895000Y-103378000D03*
X48704500Y-141414500D03*
D12*
X213931500Y-118681500D03*
X217731500Y-118681500D03*
X213931500Y-106181500D03*
X217731500Y-106181500D03*
X228931500Y-118681500D03*
X232731500Y-118681500D03*
X228931500Y-106181500D03*
X232731500Y-106181500D03*
X179959000Y-118618000D03*
X183759000Y-118618000D03*
X179959000Y-106118000D03*
X183759000Y-106118000D03*
X194959000Y-118618000D03*
X198759000Y-118618000D03*
X194959000Y-106118000D03*
X198759000Y-106118000D03*
D13*
X166016000Y-128189000D03*
X163516000Y-128189000D03*
X159016000Y-128189000D03*
X161516000Y-128189000D03*
X161516000Y-125569000D03*
X159016000Y-125569000D03*
X163516000Y-125569000D03*
X166016000Y-125569000D03*
D14*
X155946000Y-130899000D03*
X169086000Y-130899000D03*
X169086000Y-125219000D03*
X155946000Y-125219000D03*
D13*
X166016000Y-118508500D03*
X163516000Y-118508500D03*
X159016000Y-118508500D03*
X161516000Y-118508500D03*
X161516000Y-121128500D03*
X159016000Y-121128500D03*
X163516000Y-121128500D03*
X166016000Y-121128500D03*
D14*
X155946000Y-115798500D03*
X169086000Y-115798500D03*
X169086000Y-121478500D03*
X155946000Y-121478500D03*
D13*
X147664500Y-128189000D03*
X145164500Y-128189000D03*
X140664500Y-128189000D03*
X143164500Y-128189000D03*
X143164500Y-125569000D03*
X140664500Y-125569000D03*
X145164500Y-125569000D03*
X147664500Y-125569000D03*
D14*
X137594500Y-130899000D03*
X150734500Y-130899000D03*
X150734500Y-125219000D03*
X137594500Y-125219000D03*
D13*
X147664500Y-118508500D03*
X145164500Y-118508500D03*
X140664500Y-118508500D03*
X143164500Y-118508500D03*
X143164500Y-121128500D03*
X140664500Y-121128500D03*
X145164500Y-121128500D03*
X147664500Y-121128500D03*
D14*
X137594500Y-115798500D03*
X150734500Y-115798500D03*
X150734500Y-121478500D03*
X137594500Y-121478500D03*
D12*
X213933500Y-137578000D03*
X217933500Y-137578000D03*
X213933500Y-125898000D03*
X217933500Y-125898000D03*
X228933500Y-125898000D03*
X232933500Y-125898000D03*
X228933500Y-137578000D03*
X232933500Y-137578000D03*
X179992750Y-137546250D03*
X183992750Y-137546250D03*
X179992750Y-125866250D03*
X183992750Y-125866250D03*
X194992750Y-125866250D03*
X198992750Y-125866250D03*
X194992750Y-137546250D03*
X198992750Y-137546250D03*
D15*
X88900000Y-116268500D03*
D16*
X84700000Y-116268500D03*
X80500000Y-116268500D03*
X76300000Y-116268500D03*
X88900000Y-121768500D03*
X84700000Y-121768500D03*
X80500000Y-121768500D03*
X76300000Y-121768500D03*
D15*
X131000500Y-116268500D03*
D16*
X126800500Y-116268500D03*
X122600500Y-116268500D03*
X118400500Y-116268500D03*
X131000500Y-121768500D03*
X126800500Y-121768500D03*
X122600500Y-121768500D03*
X118400500Y-121768500D03*
D15*
X67881500Y-131318000D03*
D16*
X63681500Y-131318000D03*
X59481500Y-131318000D03*
X55281500Y-131318000D03*
X67881500Y-125818000D03*
X63681500Y-125818000D03*
X59481500Y-125818000D03*
X55281500Y-125818000D03*
D15*
X88900000Y-131318000D03*
D16*
X84700000Y-131318000D03*
X80500000Y-131318000D03*
X76300000Y-131318000D03*
X88900000Y-125818000D03*
X84700000Y-125818000D03*
X80500000Y-125818000D03*
X76300000Y-125818000D03*
D15*
X131000500Y-131318000D03*
D16*
X126800500Y-131318000D03*
X122600500Y-131318000D03*
X118400500Y-131318000D03*
X131000500Y-125818000D03*
X126800500Y-125818000D03*
X122600500Y-125818000D03*
X118400500Y-125818000D03*
D15*
X67881500Y-116268500D03*
D16*
X63681500Y-116268500D03*
X59481500Y-116268500D03*
X55281500Y-116268500D03*
X67881500Y-121768500D03*
X63681500Y-121768500D03*
X59481500Y-121768500D03*
X55281500Y-121768500D03*
D15*
X109982000Y-116268500D03*
D16*
X105782000Y-116268500D03*
X101582000Y-116268500D03*
X97382000Y-116268500D03*
X109982000Y-121768500D03*
X105782000Y-121768500D03*
X101582000Y-121768500D03*
X97382000Y-121768500D03*
D15*
X109982000Y-131318000D03*
D16*
X105782000Y-131318000D03*
X101582000Y-131318000D03*
X97382000Y-131318000D03*
X109982000Y-125818000D03*
X105782000Y-125818000D03*
X101582000Y-125818000D03*
X97382000Y-125818000D03*
D11*
X242760500Y-103378000D03*
X242760500Y-141414500D03*
D17*
X158097500Y-128189000D02*
X157035500Y-127127000D01*
X157035500Y-127127000D02*
X155194000Y-127127000D01*
X155194000Y-127127000D02*
X153987500Y-125920500D01*
X153987500Y-125920500D02*
X153987500Y-120586500D01*
X153987500Y-120586500D02*
X155003500Y-119570500D01*
X155003500Y-119570500D02*
X157954000Y-119570500D01*
X157954000Y-119570500D02*
X159016000Y-118508500D01*
X159016000Y-128189000D02*
X158097500Y-128189000D01*
X159911000Y-116903500D02*
X161516000Y-118508500D01*
X158496000Y-116903500D02*
X159911000Y-116903500D01*
X156845000Y-118554500D02*
X158496000Y-116903500D01*
X154622500Y-118554500D02*
X156845000Y-118554500D01*
X153225500Y-119951500D02*
X154622500Y-118554500D01*
X153225500Y-126301500D02*
X153225500Y-119951500D01*
X154940000Y-128016000D02*
X153225500Y-126301500D01*
X156337000Y-128016000D02*
X154940000Y-128016000D01*
X157988000Y-129667000D02*
X156337000Y-128016000D01*
X160274000Y-129667000D02*
X157988000Y-129667000D01*
X161516000Y-128425000D02*
X160274000Y-129667000D01*
X161516000Y-128189000D02*
X161516000Y-128425000D01*
X140664500Y-128189000D02*
X139746000Y-128189000D01*
X139602500Y-119570500D02*
X140664500Y-118508500D01*
X136652000Y-119570500D02*
X139602500Y-119570500D01*
X135636000Y-120586500D02*
X136652000Y-119570500D01*
X135636000Y-125920500D02*
X135636000Y-120586500D01*
X136842500Y-127127000D02*
X135636000Y-125920500D01*
X138684000Y-127127000D02*
X136842500Y-127127000D01*
X139746000Y-128189000D02*
X138684000Y-127127000D01*
X143164500Y-128189000D02*
X143164500Y-128425000D01*
X143164500Y-128425000D02*
X141922500Y-129667000D01*
X141922500Y-129667000D02*
X139636500Y-129667000D01*
X139636500Y-129667000D02*
X137985500Y-128016000D01*
X137985500Y-128016000D02*
X136588500Y-128016000D01*
X136588500Y-128016000D02*
X134874000Y-126301500D01*
X134874000Y-126301500D02*
X134874000Y-119951500D01*
X134874000Y-119951500D02*
X136271000Y-118554500D01*
X136271000Y-118554500D02*
X138493500Y-118554500D01*
X138493500Y-118554500D02*
X140144500Y-116903500D01*
X140144500Y-116903500D02*
X141559500Y-116903500D01*
X141559500Y-116903500D02*
X143164500Y-118508500D01*
M02*
