G04 #@! TF.FileFunction,Legend,Top*
%FSLAX46Y46*%
G04 Gerber Fmt 4.6, Leading zero omitted, Abs format (unit mm)*
G04 Created by KiCad (PCBNEW 4.0.7) date 02/15/18 17:09:35*
%MOMM*%
%LPD*%
G01*
G04 APERTURE LIST*
%ADD10C,0.100000*%
%ADD11C,0.300000*%
%ADD12C,0.120000*%
%ADD13C,0.150000*%
%ADD14C,0.010000*%
G04 APERTURE END LIST*
D10*
D11*
X195703286Y-121876357D02*
X195917572Y-121947786D01*
X195989000Y-122019214D01*
X196060429Y-122162071D01*
X196060429Y-122376357D01*
X195989000Y-122519214D01*
X195917572Y-122590643D01*
X195774714Y-122662071D01*
X195203286Y-122662071D01*
X195203286Y-121162071D01*
X195703286Y-121162071D01*
X195846143Y-121233500D01*
X195917572Y-121304929D01*
X195989000Y-121447786D01*
X195989000Y-121590643D01*
X195917572Y-121733500D01*
X195846143Y-121804929D01*
X195703286Y-121876357D01*
X195203286Y-121876357D01*
X196631857Y-122233500D02*
X197346143Y-122233500D01*
X196489000Y-122662071D02*
X196989000Y-121162071D01*
X197489000Y-122662071D01*
X197774714Y-121162071D02*
X198631857Y-121162071D01*
X198203286Y-122662071D02*
X198203286Y-121162071D01*
X199131857Y-122090643D02*
X200274714Y-122090643D01*
X199703285Y-122662071D02*
X199703285Y-121519214D01*
X180463286Y-121876357D02*
X180677572Y-121947786D01*
X180749000Y-122019214D01*
X180820429Y-122162071D01*
X180820429Y-122376357D01*
X180749000Y-122519214D01*
X180677572Y-122590643D01*
X180534714Y-122662071D01*
X179963286Y-122662071D01*
X179963286Y-121162071D01*
X180463286Y-121162071D01*
X180606143Y-121233500D01*
X180677572Y-121304929D01*
X180749000Y-121447786D01*
X180749000Y-121590643D01*
X180677572Y-121733500D01*
X180606143Y-121804929D01*
X180463286Y-121876357D01*
X179963286Y-121876357D01*
X181391857Y-122233500D02*
X182106143Y-122233500D01*
X181249000Y-122662071D02*
X181749000Y-121162071D01*
X182249000Y-122662071D01*
X182534714Y-121162071D02*
X183391857Y-121162071D01*
X182963286Y-122662071D02*
X182963286Y-121162071D01*
X183891857Y-122090643D02*
X185034714Y-122090643D01*
X229421786Y-121622357D02*
X229636072Y-121693786D01*
X229707500Y-121765214D01*
X229778929Y-121908071D01*
X229778929Y-122122357D01*
X229707500Y-122265214D01*
X229636072Y-122336643D01*
X229493214Y-122408071D01*
X228921786Y-122408071D01*
X228921786Y-120908071D01*
X229421786Y-120908071D01*
X229564643Y-120979500D01*
X229636072Y-121050929D01*
X229707500Y-121193786D01*
X229707500Y-121336643D01*
X229636072Y-121479500D01*
X229564643Y-121550929D01*
X229421786Y-121622357D01*
X228921786Y-121622357D01*
X230350357Y-121979500D02*
X231064643Y-121979500D01*
X230207500Y-122408071D02*
X230707500Y-120908071D01*
X231207500Y-122408071D01*
X231493214Y-120908071D02*
X232350357Y-120908071D01*
X231921786Y-122408071D02*
X231921786Y-120908071D01*
X232850357Y-121836643D02*
X233993214Y-121836643D01*
X233421785Y-122408071D02*
X233421785Y-121265214D01*
X214181786Y-121622357D02*
X214396072Y-121693786D01*
X214467500Y-121765214D01*
X214538929Y-121908071D01*
X214538929Y-122122357D01*
X214467500Y-122265214D01*
X214396072Y-122336643D01*
X214253214Y-122408071D01*
X213681786Y-122408071D01*
X213681786Y-120908071D01*
X214181786Y-120908071D01*
X214324643Y-120979500D01*
X214396072Y-121050929D01*
X214467500Y-121193786D01*
X214467500Y-121336643D01*
X214396072Y-121479500D01*
X214324643Y-121550929D01*
X214181786Y-121622357D01*
X213681786Y-121622357D01*
X215110357Y-121979500D02*
X215824643Y-121979500D01*
X214967500Y-122408071D02*
X215467500Y-120908071D01*
X215967500Y-122408071D01*
X216253214Y-120908071D02*
X217110357Y-120908071D01*
X216681786Y-122408071D02*
X216681786Y-120908071D01*
X217610357Y-121836643D02*
X218753214Y-121836643D01*
X187424572Y-133520571D02*
X187424572Y-132020571D01*
X187924572Y-133092000D01*
X188424572Y-132020571D01*
X188424572Y-133520571D01*
X189353144Y-133520571D02*
X189210286Y-133449143D01*
X189138858Y-133377714D01*
X189067429Y-133234857D01*
X189067429Y-132806286D01*
X189138858Y-132663429D01*
X189210286Y-132592000D01*
X189353144Y-132520571D01*
X189567429Y-132520571D01*
X189710286Y-132592000D01*
X189781715Y-132663429D01*
X189853144Y-132806286D01*
X189853144Y-133234857D01*
X189781715Y-133377714D01*
X189710286Y-133449143D01*
X189567429Y-133520571D01*
X189353144Y-133520571D01*
X190710287Y-133520571D02*
X190567429Y-133449143D01*
X190496001Y-133306286D01*
X190496001Y-132020571D01*
X191853143Y-133449143D02*
X191710286Y-133520571D01*
X191424572Y-133520571D01*
X191281715Y-133449143D01*
X191210286Y-133306286D01*
X191210286Y-132734857D01*
X191281715Y-132592000D01*
X191424572Y-132520571D01*
X191710286Y-132520571D01*
X191853143Y-132592000D01*
X191924572Y-132734857D01*
X191924572Y-132877714D01*
X191210286Y-133020571D01*
X192424572Y-133520571D02*
X193210286Y-132520571D01*
X192424572Y-132520571D02*
X193210286Y-133520571D01*
X220698572Y-133393571D02*
X220698572Y-131893571D01*
X221198572Y-132965000D01*
X221698572Y-131893571D01*
X221698572Y-133393571D01*
X222627144Y-133393571D02*
X222484286Y-133322143D01*
X222412858Y-133250714D01*
X222341429Y-133107857D01*
X222341429Y-132679286D01*
X222412858Y-132536429D01*
X222484286Y-132465000D01*
X222627144Y-132393571D01*
X222841429Y-132393571D01*
X222984286Y-132465000D01*
X223055715Y-132536429D01*
X223127144Y-132679286D01*
X223127144Y-133107857D01*
X223055715Y-133250714D01*
X222984286Y-133322143D01*
X222841429Y-133393571D01*
X222627144Y-133393571D01*
X223984287Y-133393571D02*
X223841429Y-133322143D01*
X223770001Y-133179286D01*
X223770001Y-131893571D01*
X225127143Y-133322143D02*
X224984286Y-133393571D01*
X224698572Y-133393571D01*
X224555715Y-133322143D01*
X224484286Y-133179286D01*
X224484286Y-132607857D01*
X224555715Y-132465000D01*
X224698572Y-132393571D01*
X224984286Y-132393571D01*
X225127143Y-132465000D01*
X225198572Y-132607857D01*
X225198572Y-132750714D01*
X224484286Y-132893571D01*
X225698572Y-133393571D02*
X226484286Y-132393571D01*
X225698572Y-132393571D02*
X226484286Y-133393571D01*
X136047072Y-111740071D02*
X136047072Y-110240071D01*
X136689929Y-111668643D02*
X136832786Y-111740071D01*
X137118501Y-111740071D01*
X137261358Y-111668643D01*
X137332786Y-111525786D01*
X137332786Y-111454357D01*
X137261358Y-111311500D01*
X137118501Y-111240071D01*
X136904215Y-111240071D01*
X136761358Y-111168643D01*
X136689929Y-111025786D01*
X136689929Y-110954357D01*
X136761358Y-110811500D01*
X136904215Y-110740071D01*
X137118501Y-110740071D01*
X137261358Y-110811500D01*
X138618501Y-111740071D02*
X138618501Y-110954357D01*
X138547072Y-110811500D01*
X138404215Y-110740071D01*
X138118501Y-110740071D01*
X137975644Y-110811500D01*
X138618501Y-111668643D02*
X138475644Y-111740071D01*
X138118501Y-111740071D01*
X137975644Y-111668643D01*
X137904215Y-111525786D01*
X137904215Y-111382929D01*
X137975644Y-111240071D01*
X138118501Y-111168643D01*
X138475644Y-111168643D01*
X138618501Y-111097214D01*
X139975644Y-111740071D02*
X139975644Y-110954357D01*
X139904215Y-110811500D01*
X139761358Y-110740071D01*
X139475644Y-110740071D01*
X139332787Y-110811500D01*
X139975644Y-111668643D02*
X139832787Y-111740071D01*
X139475644Y-111740071D01*
X139332787Y-111668643D01*
X139261358Y-111525786D01*
X139261358Y-111382929D01*
X139332787Y-111240071D01*
X139475644Y-111168643D01*
X139832787Y-111168643D01*
X139975644Y-111097214D01*
X141332787Y-111668643D02*
X141189930Y-111740071D01*
X140904216Y-111740071D01*
X140761358Y-111668643D01*
X140689930Y-111597214D01*
X140618501Y-111454357D01*
X140618501Y-111025786D01*
X140689930Y-110882929D01*
X140761358Y-110811500D01*
X140904216Y-110740071D01*
X141189930Y-110740071D01*
X141332787Y-110811500D01*
X143118501Y-111740071D02*
X143118501Y-110240071D01*
X143689929Y-110240071D01*
X143832787Y-110311500D01*
X143904215Y-110382929D01*
X143975644Y-110525786D01*
X143975644Y-110740071D01*
X143904215Y-110882929D01*
X143832787Y-110954357D01*
X143689929Y-111025786D01*
X143118501Y-111025786D01*
X144832787Y-111740071D02*
X144689929Y-111668643D01*
X144618501Y-111597214D01*
X144547072Y-111454357D01*
X144547072Y-111025786D01*
X144618501Y-110882929D01*
X144689929Y-110811500D01*
X144832787Y-110740071D01*
X145047072Y-110740071D01*
X145189929Y-110811500D01*
X145261358Y-110882929D01*
X145332787Y-111025786D01*
X145332787Y-111454357D01*
X145261358Y-111597214D01*
X145189929Y-111668643D01*
X145047072Y-111740071D01*
X144832787Y-111740071D01*
X145975644Y-111740071D02*
X145975644Y-110740071D01*
X145975644Y-110240071D02*
X145904215Y-110311500D01*
X145975644Y-110382929D01*
X146047072Y-110311500D01*
X145975644Y-110240071D01*
X145975644Y-110382929D01*
X146689930Y-111740071D02*
X146689930Y-110740071D01*
X146689930Y-111025786D02*
X146761358Y-110882929D01*
X146832787Y-110811500D01*
X146975644Y-110740071D01*
X147118501Y-110740071D01*
X147618501Y-111740071D02*
X147618501Y-110740071D01*
X147618501Y-110240071D02*
X147547072Y-110311500D01*
X147618501Y-110382929D01*
X147689929Y-110311500D01*
X147618501Y-110240071D01*
X147618501Y-110382929D01*
X148904215Y-111668643D02*
X148761358Y-111740071D01*
X148475644Y-111740071D01*
X148332787Y-111668643D01*
X148261358Y-111525786D01*
X148261358Y-110954357D01*
X148332787Y-110811500D01*
X148475644Y-110740071D01*
X148761358Y-110740071D01*
X148904215Y-110811500D01*
X148975644Y-110954357D01*
X148975644Y-111097214D01*
X148261358Y-111240071D01*
X149618501Y-111740071D02*
X149618501Y-110740071D01*
X149618501Y-111025786D02*
X149689929Y-110882929D01*
X149761358Y-110811500D01*
X149904215Y-110740071D01*
X150047072Y-110740071D01*
X152332786Y-111740071D02*
X152332786Y-110954357D01*
X152261357Y-110811500D01*
X152118500Y-110740071D01*
X151832786Y-110740071D01*
X151689929Y-110811500D01*
X152332786Y-111668643D02*
X152189929Y-111740071D01*
X151832786Y-111740071D01*
X151689929Y-111668643D01*
X151618500Y-111525786D01*
X151618500Y-111382929D01*
X151689929Y-111240071D01*
X151832786Y-111168643D01*
X152189929Y-111168643D01*
X152332786Y-111097214D01*
X153047072Y-110740071D02*
X153047072Y-111740071D01*
X153047072Y-110882929D02*
X153118500Y-110811500D01*
X153261358Y-110740071D01*
X153475643Y-110740071D01*
X153618500Y-110811500D01*
X153689929Y-110954357D01*
X153689929Y-111740071D01*
X155047072Y-111740071D02*
X155047072Y-110240071D01*
X155047072Y-111668643D02*
X154904215Y-111740071D01*
X154618501Y-111740071D01*
X154475643Y-111668643D01*
X154404215Y-111597214D01*
X154332786Y-111454357D01*
X154332786Y-111025786D01*
X154404215Y-110882929D01*
X154475643Y-110811500D01*
X154618501Y-110740071D01*
X154904215Y-110740071D01*
X155047072Y-110811500D01*
X157761358Y-111597214D02*
X157689929Y-111668643D01*
X157475643Y-111740071D01*
X157332786Y-111740071D01*
X157118501Y-111668643D01*
X156975643Y-111525786D01*
X156904215Y-111382929D01*
X156832786Y-111097214D01*
X156832786Y-110882929D01*
X156904215Y-110597214D01*
X156975643Y-110454357D01*
X157118501Y-110311500D01*
X157332786Y-110240071D01*
X157475643Y-110240071D01*
X157689929Y-110311500D01*
X157761358Y-110382929D01*
X158618501Y-111740071D02*
X158475643Y-111668643D01*
X158404215Y-111597214D01*
X158332786Y-111454357D01*
X158332786Y-111025786D01*
X158404215Y-110882929D01*
X158475643Y-110811500D01*
X158618501Y-110740071D01*
X158832786Y-110740071D01*
X158975643Y-110811500D01*
X159047072Y-110882929D01*
X159118501Y-111025786D01*
X159118501Y-111454357D01*
X159047072Y-111597214D01*
X158975643Y-111668643D01*
X158832786Y-111740071D01*
X158618501Y-111740071D01*
X160404215Y-111740071D02*
X160404215Y-110240071D01*
X160404215Y-111668643D02*
X160261358Y-111740071D01*
X159975644Y-111740071D01*
X159832786Y-111668643D01*
X159761358Y-111597214D01*
X159689929Y-111454357D01*
X159689929Y-111025786D01*
X159761358Y-110882929D01*
X159832786Y-110811500D01*
X159975644Y-110740071D01*
X160261358Y-110740071D01*
X160404215Y-110811500D01*
X160975644Y-110740071D02*
X161332787Y-111740071D01*
X161689929Y-110740071D02*
X161332787Y-111740071D01*
X161189929Y-112097214D01*
X161118501Y-112168643D01*
X160975644Y-112240071D01*
X163904215Y-110954357D02*
X164118501Y-111025786D01*
X164189929Y-111097214D01*
X164261358Y-111240071D01*
X164261358Y-111454357D01*
X164189929Y-111597214D01*
X164118501Y-111668643D01*
X163975643Y-111740071D01*
X163404215Y-111740071D01*
X163404215Y-110240071D01*
X163904215Y-110240071D01*
X164047072Y-110311500D01*
X164118501Y-110382929D01*
X164189929Y-110525786D01*
X164189929Y-110668643D01*
X164118501Y-110811500D01*
X164047072Y-110882929D01*
X163904215Y-110954357D01*
X163404215Y-110954357D01*
X165475643Y-111668643D02*
X165332786Y-111740071D01*
X165047072Y-111740071D01*
X164904215Y-111668643D01*
X164832786Y-111525786D01*
X164832786Y-110954357D01*
X164904215Y-110811500D01*
X165047072Y-110740071D01*
X165332786Y-110740071D01*
X165475643Y-110811500D01*
X165547072Y-110954357D01*
X165547072Y-111097214D01*
X164832786Y-111240071D01*
X166189929Y-111740071D02*
X166189929Y-110740071D01*
X166189929Y-111025786D02*
X166261357Y-110882929D01*
X166332786Y-110811500D01*
X166475643Y-110740071D01*
X166618500Y-110740071D01*
X167761357Y-110740071D02*
X167761357Y-111954357D01*
X167689928Y-112097214D01*
X167618500Y-112168643D01*
X167475643Y-112240071D01*
X167261357Y-112240071D01*
X167118500Y-112168643D01*
X167761357Y-111668643D02*
X167618500Y-111740071D01*
X167332786Y-111740071D01*
X167189928Y-111668643D01*
X167118500Y-111597214D01*
X167047071Y-111454357D01*
X167047071Y-111025786D01*
X167118500Y-110882929D01*
X167189928Y-110811500D01*
X167332786Y-110740071D01*
X167618500Y-110740071D01*
X167761357Y-110811500D01*
X169118500Y-110740071D02*
X169118500Y-111954357D01*
X169047071Y-112097214D01*
X168975643Y-112168643D01*
X168832786Y-112240071D01*
X168618500Y-112240071D01*
X168475643Y-112168643D01*
X169118500Y-111668643D02*
X168975643Y-111740071D01*
X168689929Y-111740071D01*
X168547071Y-111668643D01*
X168475643Y-111597214D01*
X168404214Y-111454357D01*
X168404214Y-111025786D01*
X168475643Y-110882929D01*
X168547071Y-110811500D01*
X168689929Y-110740071D01*
X168975643Y-110740071D01*
X169118500Y-110811500D01*
X169832786Y-111740071D02*
X169832786Y-110740071D01*
X169832786Y-111025786D02*
X169904214Y-110882929D01*
X169975643Y-110811500D01*
X170118500Y-110740071D01*
X170261357Y-110740071D01*
X171332785Y-111668643D02*
X171189928Y-111740071D01*
X170904214Y-111740071D01*
X170761357Y-111668643D01*
X170689928Y-111525786D01*
X170689928Y-110954357D01*
X170761357Y-110811500D01*
X170904214Y-110740071D01*
X171189928Y-110740071D01*
X171332785Y-110811500D01*
X171404214Y-110954357D01*
X171404214Y-111097214D01*
X170689928Y-111240071D01*
X172047071Y-110740071D02*
X172047071Y-111740071D01*
X172047071Y-110882929D02*
X172118499Y-110811500D01*
X172261357Y-110740071D01*
X172475642Y-110740071D01*
X172618499Y-110811500D01*
X172689928Y-110954357D01*
X172689928Y-111740071D01*
D12*
X51181000Y-103378000D02*
G75*
G03X51181000Y-103378000I-2286000J0D01*
G01*
X50990500Y-141414500D02*
G75*
G03X50990500Y-141414500I-2286000J0D01*
G01*
D13*
X169046000Y-130899000D02*
X169046000Y-123699000D01*
X169046000Y-123699000D02*
X155946000Y-123699000D01*
X155946000Y-123699000D02*
X155946000Y-130899000D01*
X168466000Y-141199000D02*
X156526000Y-141199000D01*
X169046000Y-140619000D02*
G75*
G03X168466000Y-141199000I0J-580000D01*
G01*
X169046000Y-141199000D02*
X169736000Y-141199000D01*
X169046000Y-141199000D02*
X169046000Y-130899000D01*
X156526000Y-141199000D02*
G75*
G03X155946000Y-140619000I-580000J0D01*
G01*
X155946000Y-141199000D02*
X155256000Y-141199000D01*
X155946000Y-130899000D02*
X155946000Y-141199000D01*
X150694500Y-130899000D02*
X150694500Y-123699000D01*
X150694500Y-123699000D02*
X137594500Y-123699000D01*
X137594500Y-123699000D02*
X137594500Y-130899000D01*
X150114500Y-141199000D02*
X138174500Y-141199000D01*
X150694500Y-140619000D02*
G75*
G03X150114500Y-141199000I0J-580000D01*
G01*
X150694500Y-141199000D02*
X151384500Y-141199000D01*
X150694500Y-141199000D02*
X150694500Y-130899000D01*
X138174500Y-141199000D02*
G75*
G03X137594500Y-140619000I-580000J0D01*
G01*
X137594500Y-141199000D02*
X136904500Y-141199000D01*
X137594500Y-130899000D02*
X137594500Y-141199000D01*
X239583500Y-144018000D02*
X239583500Y-123718000D01*
X239583500Y-123718000D02*
X207583500Y-123718000D01*
X207583500Y-144018000D02*
X207583500Y-123718000D01*
X239583500Y-144018000D02*
X207583500Y-144018000D01*
X205642750Y-143986250D02*
X205642750Y-123686250D01*
X205642750Y-123686250D02*
X173642750Y-123686250D01*
X173642750Y-143986250D02*
X173642750Y-123686250D01*
X205642750Y-143986250D02*
X173642750Y-143986250D01*
X69881500Y-132268000D02*
X70731500Y-132268000D01*
X68181500Y-129518000D02*
X68181500Y-127618000D01*
X67581500Y-129518000D02*
X67581500Y-127618000D01*
X63981500Y-129518000D02*
X63981500Y-127618000D01*
X63381500Y-129518000D02*
X63381500Y-127618000D01*
X59781500Y-129518000D02*
X59781500Y-127618000D01*
X59181500Y-129518000D02*
X59181500Y-127618000D01*
X55581500Y-129518000D02*
X55581500Y-127618000D01*
X54981500Y-129518000D02*
X54981500Y-127618000D01*
X66081500Y-132318000D02*
X65481500Y-132318000D01*
X61881500Y-132318000D02*
X61281500Y-132318000D01*
X57681500Y-132318000D02*
X57081500Y-132318000D01*
X69881500Y-131318000D02*
X70481500Y-131018000D01*
X70481500Y-131018000D02*
X70481500Y-131618000D01*
X70481500Y-131618000D02*
X69881500Y-131318000D01*
X90900000Y-132268000D02*
X91750000Y-132268000D01*
X89200000Y-129518000D02*
X89200000Y-127618000D01*
X88600000Y-129518000D02*
X88600000Y-127618000D01*
X85000000Y-129518000D02*
X85000000Y-127618000D01*
X84400000Y-129518000D02*
X84400000Y-127618000D01*
X80800000Y-129518000D02*
X80800000Y-127618000D01*
X80200000Y-129518000D02*
X80200000Y-127618000D01*
X76600000Y-129518000D02*
X76600000Y-127618000D01*
X76000000Y-129518000D02*
X76000000Y-127618000D01*
X87100000Y-132318000D02*
X86500000Y-132318000D01*
X82900000Y-132318000D02*
X82300000Y-132318000D01*
X78700000Y-132318000D02*
X78100000Y-132318000D01*
X90900000Y-131318000D02*
X91500000Y-131018000D01*
X91500000Y-131018000D02*
X91500000Y-131618000D01*
X91500000Y-131618000D02*
X90900000Y-131318000D01*
X133000500Y-132268000D02*
X133850500Y-132268000D01*
X131300500Y-129518000D02*
X131300500Y-127618000D01*
X130700500Y-129518000D02*
X130700500Y-127618000D01*
X127100500Y-129518000D02*
X127100500Y-127618000D01*
X126500500Y-129518000D02*
X126500500Y-127618000D01*
X122900500Y-129518000D02*
X122900500Y-127618000D01*
X122300500Y-129518000D02*
X122300500Y-127618000D01*
X118700500Y-129518000D02*
X118700500Y-127618000D01*
X118100500Y-129518000D02*
X118100500Y-127618000D01*
X129200500Y-132318000D02*
X128600500Y-132318000D01*
X125000500Y-132318000D02*
X124400500Y-132318000D01*
X120800500Y-132318000D02*
X120200500Y-132318000D01*
X133000500Y-131318000D02*
X133600500Y-131018000D01*
X133600500Y-131018000D02*
X133600500Y-131618000D01*
X133600500Y-131618000D02*
X133000500Y-131318000D01*
X111982000Y-132268000D02*
X112832000Y-132268000D01*
X110282000Y-129518000D02*
X110282000Y-127618000D01*
X109682000Y-129518000D02*
X109682000Y-127618000D01*
X106082000Y-129518000D02*
X106082000Y-127618000D01*
X105482000Y-129518000D02*
X105482000Y-127618000D01*
X101882000Y-129518000D02*
X101882000Y-127618000D01*
X101282000Y-129518000D02*
X101282000Y-127618000D01*
X97682000Y-129518000D02*
X97682000Y-127618000D01*
X97082000Y-129518000D02*
X97082000Y-127618000D01*
X108182000Y-132318000D02*
X107582000Y-132318000D01*
X103982000Y-132318000D02*
X103382000Y-132318000D01*
X99782000Y-132318000D02*
X99182000Y-132318000D01*
X111982000Y-131318000D02*
X112582000Y-131018000D01*
X112582000Y-131018000D02*
X112582000Y-131618000D01*
X112582000Y-131618000D02*
X111982000Y-131318000D01*
D14*
G36*
X152688361Y-97869918D02*
X152837738Y-97874198D01*
X152966697Y-97880541D01*
X153080175Y-97889496D01*
X153183109Y-97901610D01*
X153280434Y-97917430D01*
X153377088Y-97937503D01*
X153444573Y-97953767D01*
X153622838Y-98008100D01*
X153779829Y-98075876D01*
X153916083Y-98157518D01*
X154032134Y-98253452D01*
X154128519Y-98364101D01*
X154205774Y-98489890D01*
X154250361Y-98591419D01*
X154265893Y-98633898D01*
X154279278Y-98674099D01*
X154290676Y-98714224D01*
X154300244Y-98756476D01*
X154308143Y-98803054D01*
X154314531Y-98856161D01*
X154319567Y-98917997D01*
X154323411Y-98990765D01*
X154326222Y-99076665D01*
X154328158Y-99177900D01*
X154329379Y-99296669D01*
X154330044Y-99435176D01*
X154330312Y-99595621D01*
X154330348Y-99698175D01*
X154330400Y-100457000D01*
X152958800Y-100457000D01*
X152958800Y-99748490D01*
X152958799Y-99039981D01*
X152930225Y-98983315D01*
X152890436Y-98932127D01*
X152830239Y-98894129D01*
X152751191Y-98869759D01*
X152654849Y-98859451D01*
X152542771Y-98863644D01*
X152514322Y-98866780D01*
X152434894Y-98879974D01*
X152375849Y-98898632D01*
X152332365Y-98925068D01*
X152299621Y-98961594D01*
X152292050Y-98973397D01*
X152286337Y-98983702D01*
X152281552Y-98995497D01*
X152277611Y-99010986D01*
X152274433Y-99032372D01*
X152271936Y-99061857D01*
X152270039Y-99101644D01*
X152268658Y-99153936D01*
X152267713Y-99220936D01*
X152267122Y-99304846D01*
X152266802Y-99407870D01*
X152266672Y-99532211D01*
X152266650Y-99656900D01*
X152266686Y-99809291D01*
X152266956Y-99938619D01*
X152267699Y-100047217D01*
X152269154Y-100137423D01*
X152271559Y-100211571D01*
X152275155Y-100271997D01*
X152280181Y-100321037D01*
X152286876Y-100361027D01*
X152295480Y-100394302D01*
X152306230Y-100423197D01*
X152319368Y-100450049D01*
X152335132Y-100477193D01*
X152353739Y-100506929D01*
X152376239Y-100541249D01*
X152400424Y-100575081D01*
X152427767Y-100609845D01*
X152459742Y-100646959D01*
X152497821Y-100687845D01*
X152543479Y-100733922D01*
X152598187Y-100786609D01*
X152663420Y-100847328D01*
X152740651Y-100917496D01*
X152831353Y-100998534D01*
X152936998Y-101091863D01*
X153059061Y-101198901D01*
X153193750Y-101316479D01*
X153365395Y-101467852D01*
X153517700Y-101606087D01*
X153652064Y-101732711D01*
X153769885Y-101849250D01*
X153872561Y-101957232D01*
X153961491Y-102058184D01*
X154038073Y-102153633D01*
X154103706Y-102245107D01*
X154159789Y-102334131D01*
X154207719Y-102422233D01*
X154209356Y-102425500D01*
X154243927Y-102498424D01*
X154273837Y-102570705D01*
X154299366Y-102644659D01*
X154320796Y-102722600D01*
X154338407Y-102806842D01*
X154352478Y-102899702D01*
X154363291Y-103003493D01*
X154371126Y-103120531D01*
X154376263Y-103253130D01*
X154378984Y-103403606D01*
X154379567Y-103574273D01*
X154378295Y-103767445D01*
X154377768Y-103815462D01*
X154375753Y-103965539D01*
X154373349Y-104093028D01*
X154370331Y-104200744D01*
X154366476Y-104291500D01*
X154361558Y-104368108D01*
X154355353Y-104433381D01*
X154347638Y-104490132D01*
X154338187Y-104541175D01*
X154326778Y-104589322D01*
X154313184Y-104637385D01*
X154311893Y-104641650D01*
X154300905Y-104679378D01*
X154293843Y-104706724D01*
X154292437Y-104714675D01*
X154304544Y-104717227D01*
X154338722Y-104719520D01*
X154391643Y-104721460D01*
X154459978Y-104722950D01*
X154540400Y-104723895D01*
X154623355Y-104724200D01*
X154723612Y-104724104D01*
X154801252Y-104723690D01*
X154859056Y-104722767D01*
X154899809Y-104721144D01*
X154926291Y-104718630D01*
X154941286Y-104715034D01*
X154947577Y-104710166D01*
X154947944Y-104703834D01*
X154947429Y-104701975D01*
X154923548Y-104615744D01*
X154901601Y-104518118D01*
X154884297Y-104422050D01*
X154876355Y-104362250D01*
X154874203Y-104329237D01*
X154872166Y-104273387D01*
X154870278Y-104197262D01*
X154868575Y-104103426D01*
X154867090Y-103994441D01*
X154865858Y-103872869D01*
X154864914Y-103741274D01*
X154864291Y-103602217D01*
X154864025Y-103458263D01*
X154864020Y-103444675D01*
X154863800Y-102641400D01*
X156298367Y-102641400D01*
X156301808Y-103476425D01*
X156302425Y-103647190D01*
X156302930Y-103794411D01*
X156303566Y-103919940D01*
X156304580Y-104025630D01*
X156306215Y-104113335D01*
X156308716Y-104184907D01*
X156312327Y-104242199D01*
X156317295Y-104287065D01*
X156323862Y-104321356D01*
X156332274Y-104346926D01*
X156342776Y-104365629D01*
X156355612Y-104379316D01*
X156371027Y-104389841D01*
X156389266Y-104399056D01*
X156410572Y-104408816D01*
X156425900Y-104416187D01*
X156458669Y-104431547D01*
X156488106Y-104441624D01*
X156520987Y-104447515D01*
X156564089Y-104450317D01*
X156624188Y-104451129D01*
X156641800Y-104451150D01*
X156732816Y-104448517D01*
X156803920Y-104439634D01*
X156860145Y-104423021D01*
X156906528Y-104397201D01*
X156947435Y-104361381D01*
X156991050Y-104316377D01*
X156991050Y-102977950D01*
X156945534Y-102882700D01*
X156919822Y-102832737D01*
X156890052Y-102783018D01*
X156854763Y-102732045D01*
X156812491Y-102678324D01*
X156761773Y-102620357D01*
X156701146Y-102556648D01*
X156629147Y-102485702D01*
X156544313Y-102406022D01*
X156445181Y-102316112D01*
X156330288Y-102214476D01*
X156198172Y-102099618D01*
X156082721Y-102000314D01*
X155907788Y-101848659D01*
X155752653Y-101710442D01*
X155616245Y-101584620D01*
X155497493Y-101470152D01*
X155395328Y-101365993D01*
X155308679Y-101271102D01*
X155236475Y-101184436D01*
X155210900Y-101151174D01*
X155135021Y-101041769D01*
X155064119Y-100924135D01*
X155002173Y-100805585D01*
X154953159Y-100693434D01*
X154935859Y-100645430D01*
X154922681Y-100604359D01*
X154911386Y-100565138D01*
X154901831Y-100525498D01*
X154893872Y-100483168D01*
X154887368Y-100435878D01*
X154882176Y-100381356D01*
X154878153Y-100317334D01*
X154875156Y-100241539D01*
X154873044Y-100151703D01*
X154871673Y-100045554D01*
X154870901Y-99920823D01*
X154870586Y-99775238D01*
X154870584Y-99606529D01*
X154870584Y-99606100D01*
X154871018Y-98875850D01*
X154904693Y-98752357D01*
X154958950Y-98596598D01*
X155032536Y-98457089D01*
X155125885Y-98333299D01*
X155239429Y-98224701D01*
X155373604Y-98130764D01*
X155448000Y-98089419D01*
X155541213Y-98045242D01*
X155638762Y-98007065D01*
X155744812Y-97973729D01*
X155863526Y-97944075D01*
X155999067Y-97916944D01*
X156155599Y-97891177D01*
X156165550Y-97889679D01*
X156227358Y-97882976D01*
X156310043Y-97877802D01*
X156409130Y-97874128D01*
X156520143Y-97871931D01*
X156638605Y-97871183D01*
X156760042Y-97871858D01*
X156879978Y-97873931D01*
X156993938Y-97877375D01*
X157097446Y-97882164D01*
X157186025Y-97888273D01*
X157255202Y-97895675D01*
X157257750Y-97896033D01*
X157466136Y-97932870D01*
X157652329Y-97981160D01*
X157817014Y-98041321D01*
X157960877Y-98113772D01*
X158084604Y-98198935D01*
X158188880Y-98297227D01*
X158274390Y-98409069D01*
X158341821Y-98534880D01*
X158355649Y-98567849D01*
X158371315Y-98607473D01*
X158384825Y-98643470D01*
X158396352Y-98678003D01*
X158406068Y-98713236D01*
X158414143Y-98751335D01*
X158420750Y-98794463D01*
X158426060Y-98844785D01*
X158430245Y-98904465D01*
X158433477Y-98975667D01*
X158435927Y-99060555D01*
X158437767Y-99161293D01*
X158439169Y-99280047D01*
X158440305Y-99418980D01*
X158441345Y-99580256D01*
X158441786Y-99653724D01*
X158446587Y-100456999D01*
X157760093Y-100456999D01*
X157073600Y-100457000D01*
X157073600Y-99749809D01*
X157073575Y-99597786D01*
X157073451Y-99469043D01*
X157073157Y-99361458D01*
X157072617Y-99272913D01*
X157071759Y-99201285D01*
X157070509Y-99144455D01*
X157068795Y-99100302D01*
X157066543Y-99066706D01*
X157063680Y-99041546D01*
X157060133Y-99022701D01*
X157055828Y-99008052D01*
X157050693Y-98995478D01*
X157047298Y-98988288D01*
X157017198Y-98941906D01*
X156975803Y-98908243D01*
X156918637Y-98884741D01*
X156841223Y-98868840D01*
X156837370Y-98868287D01*
X156719925Y-98859299D01*
X156613102Y-98866394D01*
X156521110Y-98889188D01*
X156496139Y-98899437D01*
X156471699Y-98910367D01*
X156450994Y-98920355D01*
X156433717Y-98931479D01*
X156419558Y-98945814D01*
X156408207Y-98965437D01*
X156399357Y-98992423D01*
X156392697Y-99028849D01*
X156387918Y-99076790D01*
X156384711Y-99138324D01*
X156382767Y-99215525D01*
X156381777Y-99310471D01*
X156381432Y-99425237D01*
X156381422Y-99561899D01*
X156381450Y-99669600D01*
X156381467Y-99815175D01*
X156381580Y-99937618D01*
X156381878Y-100039199D01*
X156382453Y-100122185D01*
X156383394Y-100188845D01*
X156384793Y-100241448D01*
X156386739Y-100282263D01*
X156389323Y-100313557D01*
X156392635Y-100337599D01*
X156396767Y-100356658D01*
X156401808Y-100373003D01*
X156407848Y-100388901D01*
X156410383Y-100395193D01*
X156432506Y-100441500D01*
X156463761Y-100496660D01*
X156497739Y-100549436D01*
X156500894Y-100553943D01*
X156521158Y-100582239D01*
X156541250Y-100609044D01*
X156562546Y-100635645D01*
X156586426Y-100663332D01*
X156614269Y-100693395D01*
X156647453Y-100727123D01*
X156687357Y-100765805D01*
X156735360Y-100810730D01*
X156792840Y-100863188D01*
X156861177Y-100924467D01*
X156941748Y-100995858D01*
X157035932Y-101078650D01*
X157145109Y-101174131D01*
X157270656Y-101283591D01*
X157413953Y-101408319D01*
X157422144Y-101415445D01*
X157496831Y-101481800D01*
X157582303Y-101559992D01*
X157671690Y-101643595D01*
X157758125Y-101726184D01*
X157834738Y-101801333D01*
X157836202Y-101802795D01*
X157976931Y-101949061D01*
X158096701Y-102086502D01*
X158197140Y-102217908D01*
X158279876Y-102346070D01*
X158346540Y-102473779D01*
X158398759Y-102603826D01*
X158438163Y-102739001D01*
X158466380Y-102882096D01*
X158466474Y-102882700D01*
X158471800Y-102919645D01*
X158476248Y-102958106D01*
X158479897Y-103000679D01*
X158482822Y-103049960D01*
X158485100Y-103108544D01*
X158486808Y-103179028D01*
X158488021Y-103264005D01*
X158488816Y-103366073D01*
X158489270Y-103487827D01*
X158489458Y-103631863D01*
X158489471Y-103663750D01*
X158489325Y-103827900D01*
X158488679Y-103969079D01*
X158487369Y-104089711D01*
X158485232Y-104192223D01*
X158482105Y-104279041D01*
X158477825Y-104352589D01*
X158472228Y-104415295D01*
X158465151Y-104469583D01*
X158456431Y-104517880D01*
X158445904Y-104562611D01*
X158433408Y-104606202D01*
X158424078Y-104635300D01*
X158374204Y-104757959D01*
X158304516Y-104882596D01*
X158276683Y-104925117D01*
X158256622Y-104956500D01*
X158245105Y-104977988D01*
X158243950Y-104983537D01*
X158257235Y-104986239D01*
X158292113Y-104991889D01*
X158345019Y-104999950D01*
X158412389Y-105009885D01*
X158490655Y-105021156D01*
X158540450Y-105028209D01*
X158628659Y-105041103D01*
X158735744Y-105057525D01*
X158855584Y-105076492D01*
X158982058Y-105097017D01*
X159109045Y-105118117D01*
X159230425Y-105138806D01*
X159262704Y-105144414D01*
X159364549Y-105162105D01*
X159458800Y-105178312D01*
X159542444Y-105192529D01*
X159612470Y-105204251D01*
X159665864Y-105212973D01*
X159699615Y-105218189D01*
X159710379Y-105219500D01*
X159712761Y-105216482D01*
X159714925Y-105206689D01*
X159716879Y-105189015D01*
X159718635Y-105162350D01*
X159720201Y-105125588D01*
X159721588Y-105077620D01*
X159722806Y-105017339D01*
X159723865Y-104943637D01*
X159724775Y-104855407D01*
X159725545Y-104751540D01*
X159726186Y-104630929D01*
X159726709Y-104492466D01*
X159727122Y-104335043D01*
X159727435Y-104157553D01*
X159727660Y-103958888D01*
X159727805Y-103737939D01*
X159727882Y-103493601D01*
X159727900Y-103276717D01*
X159727899Y-101333935D01*
X159692975Y-101339555D01*
X159668123Y-101342980D01*
X159623579Y-101348571D01*
X159564892Y-101355651D01*
X159497610Y-101363544D01*
X159470929Y-101366617D01*
X159283808Y-101388059D01*
X159277519Y-101427354D01*
X159275703Y-101446488D01*
X159272533Y-101488785D01*
X159268150Y-101552054D01*
X159262695Y-101634103D01*
X159256309Y-101732739D01*
X159249133Y-101845769D01*
X159241309Y-101971003D01*
X159232977Y-102106248D01*
X159224280Y-102249311D01*
X159219789Y-102323900D01*
X159204213Y-102581873D01*
X159189923Y-102815156D01*
X159176872Y-103024423D01*
X159165012Y-103210350D01*
X159154296Y-103373610D01*
X159144676Y-103514880D01*
X159136104Y-103634833D01*
X159128533Y-103734144D01*
X159121916Y-103813489D01*
X159116206Y-103873541D01*
X159111354Y-103914975D01*
X159107313Y-103938467D01*
X159105845Y-103943150D01*
X159098920Y-103953514D01*
X159095146Y-103943182D01*
X159093636Y-103911400D01*
X159092543Y-103879102D01*
X159090169Y-103827288D01*
X159086806Y-103761791D01*
X159082750Y-103688446D01*
X159080201Y-103644700D01*
X159076995Y-103587270D01*
X159072724Y-103505005D01*
X159067412Y-103398448D01*
X159061086Y-103268140D01*
X159053770Y-103114623D01*
X159045490Y-102938439D01*
X159036271Y-102740129D01*
X159026138Y-102520237D01*
X159015118Y-102279302D01*
X159003235Y-102017869D01*
X158990515Y-101736477D01*
X158983183Y-101573667D01*
X158974858Y-101388584D01*
X158490954Y-101308106D01*
X158383123Y-101290007D01*
X158283160Y-101272911D01*
X158193839Y-101257315D01*
X158117932Y-101243718D01*
X158058210Y-101232618D01*
X158017448Y-101224512D01*
X157998417Y-101219900D01*
X157997455Y-101219434D01*
X158006598Y-101215489D01*
X158038383Y-101209091D01*
X158090209Y-101200595D01*
X158159475Y-101190353D01*
X158243577Y-101178720D01*
X158339915Y-101166049D01*
X158445886Y-101152693D01*
X158558888Y-101139005D01*
X158676321Y-101125340D01*
X158754895Y-101116516D01*
X158825813Y-101108393D01*
X158887498Y-101100801D01*
X158935702Y-101094305D01*
X158966180Y-101089471D01*
X158974904Y-101087228D01*
X158976732Y-101073830D01*
X158979848Y-101037522D01*
X158984089Y-100980756D01*
X158989287Y-100905981D01*
X158995279Y-100815647D01*
X159001897Y-100712204D01*
X159008977Y-100598101D01*
X159016353Y-100475788D01*
X159017392Y-100458283D01*
X159025841Y-100316259D01*
X159034813Y-100166574D01*
X159043999Y-100014279D01*
X159053093Y-99864428D01*
X159061787Y-99722074D01*
X159069775Y-99592268D01*
X159076750Y-99480063D01*
X159079958Y-99429025D01*
X159086258Y-99327915D01*
X159091997Y-99233153D01*
X159096977Y-99148197D01*
X159101003Y-99076505D01*
X159103877Y-99021536D01*
X159105403Y-98986747D01*
X159105600Y-98978074D01*
X159105600Y-98933000D01*
X159190569Y-98933000D01*
X159198866Y-99158425D01*
X159202788Y-99261501D01*
X159207496Y-99379365D01*
X159212858Y-99509147D01*
X159218744Y-99647980D01*
X159225023Y-99792996D01*
X159231563Y-99941325D01*
X159238235Y-100090101D01*
X159244907Y-100236454D01*
X159251450Y-100377516D01*
X159257731Y-100510420D01*
X159263620Y-100632296D01*
X159268987Y-100740278D01*
X159273700Y-100831496D01*
X159277629Y-100903082D01*
X159280644Y-100952168D01*
X159280653Y-100952300D01*
X159289750Y-101085650D01*
X159480250Y-101119245D01*
X159548926Y-101131119D01*
X159610551Y-101141334D01*
X159659937Y-101149063D01*
X159691899Y-101153479D01*
X159699325Y-101154170D01*
X159727900Y-101155500D01*
X159727900Y-98933000D01*
X159190569Y-98933000D01*
X159105600Y-98933000D01*
X158635700Y-98933000D01*
X158635700Y-97942400D01*
X162306000Y-97942400D01*
X162306000Y-98932724D01*
X161232850Y-98939350D01*
X161226452Y-105561408D01*
X161274101Y-105573879D01*
X161308931Y-105582859D01*
X161359026Y-105595608D01*
X161415007Y-105609743D01*
X161429700Y-105613433D01*
X161770391Y-105702528D01*
X162128747Y-105803077D01*
X162500522Y-105913683D01*
X162881470Y-106032948D01*
X163267347Y-106159478D01*
X163653906Y-106291874D01*
X164036903Y-106428741D01*
X164412093Y-106568681D01*
X164775230Y-106710297D01*
X164828711Y-106731724D01*
X165039054Y-106817577D01*
X165258266Y-106909433D01*
X165483047Y-107005790D01*
X165710095Y-107105148D01*
X165936112Y-107206007D01*
X166157796Y-107306868D01*
X166371846Y-107406229D01*
X166574963Y-107502591D01*
X166763846Y-107594453D01*
X166935194Y-107680316D01*
X167071794Y-107751279D01*
X167138159Y-107787237D01*
X167189903Y-107816788D01*
X167225521Y-107838905D01*
X167243512Y-107852561D01*
X167242373Y-107856729D01*
X167220601Y-107850382D01*
X167212100Y-107847165D01*
X166877975Y-107719747D01*
X166525945Y-107590115D01*
X166160845Y-107459884D01*
X165787510Y-107330669D01*
X165410776Y-107204085D01*
X165035476Y-107081746D01*
X164666446Y-106965268D01*
X164308521Y-106856264D01*
X163966535Y-106756351D01*
X163834451Y-106719059D01*
X162924890Y-106478197D01*
X162009865Y-106262089D01*
X161089792Y-106070780D01*
X160165083Y-105904314D01*
X159236152Y-105762734D01*
X158303413Y-105646084D01*
X157367280Y-105554408D01*
X156428166Y-105487749D01*
X155486484Y-105446153D01*
X154542649Y-105429661D01*
X153597074Y-105438319D01*
X152650172Y-105472171D01*
X152266650Y-105493043D01*
X151335666Y-105561226D01*
X150406584Y-105654228D01*
X149480474Y-105771865D01*
X148558405Y-105913956D01*
X147641445Y-106080316D01*
X146730665Y-106270763D01*
X145827132Y-106485114D01*
X144931917Y-106723184D01*
X144700535Y-106788980D01*
X144398346Y-106877962D01*
X144083267Y-106974288D01*
X143760608Y-107076203D01*
X143435678Y-107181952D01*
X143113786Y-107289777D01*
X142800241Y-107397924D01*
X142500354Y-107504636D01*
X142219432Y-107608157D01*
X142189200Y-107619545D01*
X142053066Y-107670682D01*
X141927632Y-107717280D01*
X141814602Y-107758735D01*
X141715683Y-107794440D01*
X141632579Y-107823791D01*
X141566995Y-107846183D01*
X141520636Y-107861011D01*
X141495207Y-107867670D01*
X141490700Y-107867426D01*
X141501843Y-107858384D01*
X141533824Y-107839660D01*
X141584466Y-107812319D01*
X141651592Y-107777428D01*
X141733027Y-107736054D01*
X141826595Y-107689265D01*
X141930119Y-107638126D01*
X142041424Y-107583704D01*
X142158333Y-107527066D01*
X142278670Y-107469280D01*
X142400259Y-107411410D01*
X142520924Y-107354526D01*
X142638490Y-107299692D01*
X142750779Y-107247976D01*
X142801020Y-107225092D01*
X143331555Y-106991179D01*
X143871917Y-106766109D01*
X144418484Y-106551162D01*
X144967634Y-106347619D01*
X145515747Y-106156760D01*
X146059200Y-105979866D01*
X146594372Y-105818217D01*
X147117642Y-105673092D01*
X147386675Y-105603873D01*
X147468155Y-105583157D01*
X147540737Y-105564050D01*
X147601007Y-105547505D01*
X147645552Y-105534474D01*
X147670957Y-105525911D01*
X147675600Y-105523257D01*
X147664490Y-105515503D01*
X147634923Y-105502196D01*
X147592546Y-105485800D01*
X147577175Y-105480294D01*
X147479571Y-105442224D01*
X147373621Y-105394557D01*
X147268596Y-105341836D01*
X147173769Y-105288608D01*
X147129500Y-105260880D01*
X146981665Y-105152701D01*
X146856497Y-105036601D01*
X146751738Y-104909555D01*
X146665130Y-104768540D01*
X146594417Y-104610532D01*
X146553481Y-104489250D01*
X146526834Y-104400350D01*
X146523198Y-101171374D01*
X146519562Y-97942399D01*
X147262681Y-97942399D01*
X148005800Y-97942400D01*
X148007785Y-98688525D01*
X148007999Y-98779917D01*
X148008219Y-98894935D01*
X148008445Y-99031808D01*
X148008673Y-99188760D01*
X148008903Y-99364019D01*
X148009132Y-99555812D01*
X148009359Y-99762364D01*
X148009582Y-99981904D01*
X148009799Y-100212657D01*
X148010009Y-100452850D01*
X148010209Y-100700710D01*
X148010398Y-100954464D01*
X148010575Y-101212338D01*
X148010737Y-101472559D01*
X148010883Y-101733354D01*
X148010960Y-101885750D01*
X148011133Y-102133614D01*
X148011405Y-102374803D01*
X148011771Y-102608077D01*
X148012224Y-102832199D01*
X148012758Y-103045931D01*
X148013369Y-103248036D01*
X148014050Y-103437276D01*
X148014795Y-103612412D01*
X148015599Y-103772207D01*
X148016455Y-103915423D01*
X148017358Y-104040822D01*
X148018303Y-104147167D01*
X148019283Y-104233219D01*
X148020293Y-104297742D01*
X148021326Y-104339496D01*
X148022378Y-104357244D01*
X148022512Y-104357716D01*
X148038868Y-104373354D01*
X148071551Y-104393926D01*
X148111412Y-104413995D01*
X148205910Y-104444935D01*
X148306128Y-104457197D01*
X148406069Y-104451199D01*
X148499734Y-104427359D01*
X148581125Y-104386096D01*
X148588794Y-104380713D01*
X148643119Y-104341360D01*
X148640678Y-102503955D01*
X148640378Y-102259239D01*
X148640109Y-102001963D01*
X148639873Y-101735351D01*
X148639670Y-101462627D01*
X148639503Y-101187016D01*
X148639371Y-100911743D01*
X148639277Y-100640031D01*
X148639221Y-100375105D01*
X148639204Y-100120191D01*
X148639228Y-99878512D01*
X148639295Y-99653292D01*
X148639404Y-99447756D01*
X148639518Y-99304475D01*
X148640800Y-97942400D01*
X150139906Y-97942400D01*
X150135845Y-101292025D01*
X150135441Y-101640265D01*
X150135090Y-101964045D01*
X150134769Y-102264304D01*
X150134457Y-102541982D01*
X150134132Y-102798018D01*
X150133771Y-103033353D01*
X150133353Y-103248924D01*
X150132855Y-103445673D01*
X150132256Y-103624539D01*
X150131534Y-103786461D01*
X150130667Y-103932378D01*
X150129633Y-104063231D01*
X150128409Y-104179959D01*
X150126974Y-104283501D01*
X150125306Y-104374798D01*
X150123382Y-104454787D01*
X150121182Y-104524411D01*
X150118682Y-104584607D01*
X150115861Y-104636315D01*
X150112698Y-104680475D01*
X150109169Y-104718026D01*
X150105253Y-104749909D01*
X150100928Y-104777062D01*
X150096172Y-104800426D01*
X150090963Y-104820939D01*
X150085279Y-104839541D01*
X150079098Y-104857172D01*
X150072399Y-104874772D01*
X150065158Y-104893279D01*
X150057354Y-104913635D01*
X150050694Y-104931874D01*
X150034068Y-104981282D01*
X150022371Y-105021190D01*
X150017157Y-105045986D01*
X150017610Y-105051143D01*
X150031428Y-105051141D01*
X150067236Y-105047839D01*
X150121894Y-105041618D01*
X150192260Y-105032861D01*
X150275193Y-105021949D01*
X150367551Y-105009265D01*
X150402602Y-105004324D01*
X150502852Y-104990297D01*
X150599522Y-104977145D01*
X150688464Y-104965402D01*
X150765533Y-104955606D01*
X150826582Y-104948291D01*
X150867466Y-104943994D01*
X150872825Y-104943546D01*
X150917462Y-104939126D01*
X150950153Y-104934035D01*
X150964605Y-104929287D01*
X150964816Y-104928741D01*
X150958256Y-104914129D01*
X150942227Y-104888123D01*
X150938744Y-104882950D01*
X150896139Y-104811869D01*
X150854432Y-104727352D01*
X150818970Y-104640969D01*
X150799773Y-104582226D01*
X150790140Y-104544058D01*
X150781770Y-104501843D01*
X150774581Y-104453657D01*
X150768489Y-104397580D01*
X150763411Y-104331688D01*
X150759265Y-104254058D01*
X150755967Y-104162767D01*
X150753434Y-104055894D01*
X150751584Y-103931516D01*
X150750333Y-103787709D01*
X150749599Y-103622551D01*
X150749298Y-103434121D01*
X150749288Y-103412925D01*
X150749000Y-102641400D01*
X152184100Y-102641400D01*
X152184100Y-103454607D01*
X152184190Y-103624759D01*
X152184485Y-103771246D01*
X152185021Y-103895803D01*
X152185831Y-104000163D01*
X152186951Y-104086062D01*
X152188417Y-104155234D01*
X152190263Y-104209413D01*
X152192524Y-104250334D01*
X152195237Y-104279731D01*
X152198435Y-104299339D01*
X152201423Y-104309275D01*
X152238464Y-104365629D01*
X152296359Y-104409124D01*
X152373696Y-104439129D01*
X152469065Y-104455010D01*
X152531646Y-104457500D01*
X152634805Y-104450466D01*
X152722878Y-104430009D01*
X152793681Y-104397092D01*
X152845024Y-104352681D01*
X152871312Y-104307735D01*
X152873544Y-104289422D01*
X152875617Y-104248289D01*
X152877486Y-104186917D01*
X152879109Y-104107886D01*
X152880443Y-104013778D01*
X152881445Y-103907171D01*
X152882070Y-103790647D01*
X152882276Y-103666786D01*
X152882272Y-103653398D01*
X152882170Y-103511201D01*
X152881962Y-103392027D01*
X152881552Y-103293497D01*
X152880844Y-103213233D01*
X152879740Y-103148859D01*
X152878144Y-103097996D01*
X152875960Y-103058266D01*
X152873092Y-103027291D01*
X152869443Y-103002694D01*
X152864916Y-102982097D01*
X152859415Y-102963123D01*
X152853551Y-102945465D01*
X152833133Y-102892027D01*
X152807904Y-102839046D01*
X152776539Y-102785117D01*
X152737712Y-102728839D01*
X152690098Y-102668807D01*
X152632371Y-102603617D01*
X152563206Y-102531868D01*
X152481276Y-102452155D01*
X152385256Y-102363075D01*
X152273821Y-102263224D01*
X152145645Y-102151200D01*
X151999402Y-102025598D01*
X151924174Y-101961582D01*
X151755114Y-101816248D01*
X151605465Y-101683502D01*
X151473653Y-101561616D01*
X151358108Y-101448863D01*
X151257255Y-101343518D01*
X151169523Y-101243852D01*
X151093340Y-101148140D01*
X151027133Y-101054653D01*
X150969330Y-100961666D01*
X150918359Y-100867452D01*
X150906911Y-100844350D01*
X150871426Y-100769855D01*
X150842684Y-100704238D01*
X150819855Y-100643359D01*
X150802110Y-100583083D01*
X150788621Y-100519271D01*
X150778559Y-100447786D01*
X150771094Y-100364489D01*
X150765399Y-100265245D01*
X150760643Y-100145914D01*
X150759348Y-100107750D01*
X150756377Y-99996667D01*
X150754101Y-99867595D01*
X150752576Y-99727935D01*
X150751859Y-99585088D01*
X150752006Y-99446457D01*
X150753074Y-99319444D01*
X150753234Y-99307650D01*
X150755468Y-99172723D01*
X150758366Y-99059865D01*
X150762433Y-98965742D01*
X150768176Y-98887023D01*
X150776102Y-98820376D01*
X150786718Y-98762470D01*
X150800531Y-98709972D01*
X150818046Y-98659551D01*
X150839771Y-98607874D01*
X150866212Y-98551611D01*
X150869113Y-98545650D01*
X150938964Y-98423666D01*
X151023190Y-98316350D01*
X151123750Y-98222165D01*
X151242601Y-98139575D01*
X151381697Y-98067042D01*
X151542997Y-98003030D01*
X151572959Y-97992820D01*
X151707930Y-97952739D01*
X151849309Y-97920849D01*
X152000314Y-97896796D01*
X152164161Y-97880224D01*
X152344066Y-97870781D01*
X152543246Y-97868110D01*
X152688361Y-97869918D01*
X152688361Y-97869918D01*
G37*
X152688361Y-97869918D02*
X152837738Y-97874198D01*
X152966697Y-97880541D01*
X153080175Y-97889496D01*
X153183109Y-97901610D01*
X153280434Y-97917430D01*
X153377088Y-97937503D01*
X153444573Y-97953767D01*
X153622838Y-98008100D01*
X153779829Y-98075876D01*
X153916083Y-98157518D01*
X154032134Y-98253452D01*
X154128519Y-98364101D01*
X154205774Y-98489890D01*
X154250361Y-98591419D01*
X154265893Y-98633898D01*
X154279278Y-98674099D01*
X154290676Y-98714224D01*
X154300244Y-98756476D01*
X154308143Y-98803054D01*
X154314531Y-98856161D01*
X154319567Y-98917997D01*
X154323411Y-98990765D01*
X154326222Y-99076665D01*
X154328158Y-99177900D01*
X154329379Y-99296669D01*
X154330044Y-99435176D01*
X154330312Y-99595621D01*
X154330348Y-99698175D01*
X154330400Y-100457000D01*
X152958800Y-100457000D01*
X152958800Y-99748490D01*
X152958799Y-99039981D01*
X152930225Y-98983315D01*
X152890436Y-98932127D01*
X152830239Y-98894129D01*
X152751191Y-98869759D01*
X152654849Y-98859451D01*
X152542771Y-98863644D01*
X152514322Y-98866780D01*
X152434894Y-98879974D01*
X152375849Y-98898632D01*
X152332365Y-98925068D01*
X152299621Y-98961594D01*
X152292050Y-98973397D01*
X152286337Y-98983702D01*
X152281552Y-98995497D01*
X152277611Y-99010986D01*
X152274433Y-99032372D01*
X152271936Y-99061857D01*
X152270039Y-99101644D01*
X152268658Y-99153936D01*
X152267713Y-99220936D01*
X152267122Y-99304846D01*
X152266802Y-99407870D01*
X152266672Y-99532211D01*
X152266650Y-99656900D01*
X152266686Y-99809291D01*
X152266956Y-99938619D01*
X152267699Y-100047217D01*
X152269154Y-100137423D01*
X152271559Y-100211571D01*
X152275155Y-100271997D01*
X152280181Y-100321037D01*
X152286876Y-100361027D01*
X152295480Y-100394302D01*
X152306230Y-100423197D01*
X152319368Y-100450049D01*
X152335132Y-100477193D01*
X152353739Y-100506929D01*
X152376239Y-100541249D01*
X152400424Y-100575081D01*
X152427767Y-100609845D01*
X152459742Y-100646959D01*
X152497821Y-100687845D01*
X152543479Y-100733922D01*
X152598187Y-100786609D01*
X152663420Y-100847328D01*
X152740651Y-100917496D01*
X152831353Y-100998534D01*
X152936998Y-101091863D01*
X153059061Y-101198901D01*
X153193750Y-101316479D01*
X153365395Y-101467852D01*
X153517700Y-101606087D01*
X153652064Y-101732711D01*
X153769885Y-101849250D01*
X153872561Y-101957232D01*
X153961491Y-102058184D01*
X154038073Y-102153633D01*
X154103706Y-102245107D01*
X154159789Y-102334131D01*
X154207719Y-102422233D01*
X154209356Y-102425500D01*
X154243927Y-102498424D01*
X154273837Y-102570705D01*
X154299366Y-102644659D01*
X154320796Y-102722600D01*
X154338407Y-102806842D01*
X154352478Y-102899702D01*
X154363291Y-103003493D01*
X154371126Y-103120531D01*
X154376263Y-103253130D01*
X154378984Y-103403606D01*
X154379567Y-103574273D01*
X154378295Y-103767445D01*
X154377768Y-103815462D01*
X154375753Y-103965539D01*
X154373349Y-104093028D01*
X154370331Y-104200744D01*
X154366476Y-104291500D01*
X154361558Y-104368108D01*
X154355353Y-104433381D01*
X154347638Y-104490132D01*
X154338187Y-104541175D01*
X154326778Y-104589322D01*
X154313184Y-104637385D01*
X154311893Y-104641650D01*
X154300905Y-104679378D01*
X154293843Y-104706724D01*
X154292437Y-104714675D01*
X154304544Y-104717227D01*
X154338722Y-104719520D01*
X154391643Y-104721460D01*
X154459978Y-104722950D01*
X154540400Y-104723895D01*
X154623355Y-104724200D01*
X154723612Y-104724104D01*
X154801252Y-104723690D01*
X154859056Y-104722767D01*
X154899809Y-104721144D01*
X154926291Y-104718630D01*
X154941286Y-104715034D01*
X154947577Y-104710166D01*
X154947944Y-104703834D01*
X154947429Y-104701975D01*
X154923548Y-104615744D01*
X154901601Y-104518118D01*
X154884297Y-104422050D01*
X154876355Y-104362250D01*
X154874203Y-104329237D01*
X154872166Y-104273387D01*
X154870278Y-104197262D01*
X154868575Y-104103426D01*
X154867090Y-103994441D01*
X154865858Y-103872869D01*
X154864914Y-103741274D01*
X154864291Y-103602217D01*
X154864025Y-103458263D01*
X154864020Y-103444675D01*
X154863800Y-102641400D01*
X156298367Y-102641400D01*
X156301808Y-103476425D01*
X156302425Y-103647190D01*
X156302930Y-103794411D01*
X156303566Y-103919940D01*
X156304580Y-104025630D01*
X156306215Y-104113335D01*
X156308716Y-104184907D01*
X156312327Y-104242199D01*
X156317295Y-104287065D01*
X156323862Y-104321356D01*
X156332274Y-104346926D01*
X156342776Y-104365629D01*
X156355612Y-104379316D01*
X156371027Y-104389841D01*
X156389266Y-104399056D01*
X156410572Y-104408816D01*
X156425900Y-104416187D01*
X156458669Y-104431547D01*
X156488106Y-104441624D01*
X156520987Y-104447515D01*
X156564089Y-104450317D01*
X156624188Y-104451129D01*
X156641800Y-104451150D01*
X156732816Y-104448517D01*
X156803920Y-104439634D01*
X156860145Y-104423021D01*
X156906528Y-104397201D01*
X156947435Y-104361381D01*
X156991050Y-104316377D01*
X156991050Y-102977950D01*
X156945534Y-102882700D01*
X156919822Y-102832737D01*
X156890052Y-102783018D01*
X156854763Y-102732045D01*
X156812491Y-102678324D01*
X156761773Y-102620357D01*
X156701146Y-102556648D01*
X156629147Y-102485702D01*
X156544313Y-102406022D01*
X156445181Y-102316112D01*
X156330288Y-102214476D01*
X156198172Y-102099618D01*
X156082721Y-102000314D01*
X155907788Y-101848659D01*
X155752653Y-101710442D01*
X155616245Y-101584620D01*
X155497493Y-101470152D01*
X155395328Y-101365993D01*
X155308679Y-101271102D01*
X155236475Y-101184436D01*
X155210900Y-101151174D01*
X155135021Y-101041769D01*
X155064119Y-100924135D01*
X155002173Y-100805585D01*
X154953159Y-100693434D01*
X154935859Y-100645430D01*
X154922681Y-100604359D01*
X154911386Y-100565138D01*
X154901831Y-100525498D01*
X154893872Y-100483168D01*
X154887368Y-100435878D01*
X154882176Y-100381356D01*
X154878153Y-100317334D01*
X154875156Y-100241539D01*
X154873044Y-100151703D01*
X154871673Y-100045554D01*
X154870901Y-99920823D01*
X154870586Y-99775238D01*
X154870584Y-99606529D01*
X154870584Y-99606100D01*
X154871018Y-98875850D01*
X154904693Y-98752357D01*
X154958950Y-98596598D01*
X155032536Y-98457089D01*
X155125885Y-98333299D01*
X155239429Y-98224701D01*
X155373604Y-98130764D01*
X155448000Y-98089419D01*
X155541213Y-98045242D01*
X155638762Y-98007065D01*
X155744812Y-97973729D01*
X155863526Y-97944075D01*
X155999067Y-97916944D01*
X156155599Y-97891177D01*
X156165550Y-97889679D01*
X156227358Y-97882976D01*
X156310043Y-97877802D01*
X156409130Y-97874128D01*
X156520143Y-97871931D01*
X156638605Y-97871183D01*
X156760042Y-97871858D01*
X156879978Y-97873931D01*
X156993938Y-97877375D01*
X157097446Y-97882164D01*
X157186025Y-97888273D01*
X157255202Y-97895675D01*
X157257750Y-97896033D01*
X157466136Y-97932870D01*
X157652329Y-97981160D01*
X157817014Y-98041321D01*
X157960877Y-98113772D01*
X158084604Y-98198935D01*
X158188880Y-98297227D01*
X158274390Y-98409069D01*
X158341821Y-98534880D01*
X158355649Y-98567849D01*
X158371315Y-98607473D01*
X158384825Y-98643470D01*
X158396352Y-98678003D01*
X158406068Y-98713236D01*
X158414143Y-98751335D01*
X158420750Y-98794463D01*
X158426060Y-98844785D01*
X158430245Y-98904465D01*
X158433477Y-98975667D01*
X158435927Y-99060555D01*
X158437767Y-99161293D01*
X158439169Y-99280047D01*
X158440305Y-99418980D01*
X158441345Y-99580256D01*
X158441786Y-99653724D01*
X158446587Y-100456999D01*
X157760093Y-100456999D01*
X157073600Y-100457000D01*
X157073600Y-99749809D01*
X157073575Y-99597786D01*
X157073451Y-99469043D01*
X157073157Y-99361458D01*
X157072617Y-99272913D01*
X157071759Y-99201285D01*
X157070509Y-99144455D01*
X157068795Y-99100302D01*
X157066543Y-99066706D01*
X157063680Y-99041546D01*
X157060133Y-99022701D01*
X157055828Y-99008052D01*
X157050693Y-98995478D01*
X157047298Y-98988288D01*
X157017198Y-98941906D01*
X156975803Y-98908243D01*
X156918637Y-98884741D01*
X156841223Y-98868840D01*
X156837370Y-98868287D01*
X156719925Y-98859299D01*
X156613102Y-98866394D01*
X156521110Y-98889188D01*
X156496139Y-98899437D01*
X156471699Y-98910367D01*
X156450994Y-98920355D01*
X156433717Y-98931479D01*
X156419558Y-98945814D01*
X156408207Y-98965437D01*
X156399357Y-98992423D01*
X156392697Y-99028849D01*
X156387918Y-99076790D01*
X156384711Y-99138324D01*
X156382767Y-99215525D01*
X156381777Y-99310471D01*
X156381432Y-99425237D01*
X156381422Y-99561899D01*
X156381450Y-99669600D01*
X156381467Y-99815175D01*
X156381580Y-99937618D01*
X156381878Y-100039199D01*
X156382453Y-100122185D01*
X156383394Y-100188845D01*
X156384793Y-100241448D01*
X156386739Y-100282263D01*
X156389323Y-100313557D01*
X156392635Y-100337599D01*
X156396767Y-100356658D01*
X156401808Y-100373003D01*
X156407848Y-100388901D01*
X156410383Y-100395193D01*
X156432506Y-100441500D01*
X156463761Y-100496660D01*
X156497739Y-100549436D01*
X156500894Y-100553943D01*
X156521158Y-100582239D01*
X156541250Y-100609044D01*
X156562546Y-100635645D01*
X156586426Y-100663332D01*
X156614269Y-100693395D01*
X156647453Y-100727123D01*
X156687357Y-100765805D01*
X156735360Y-100810730D01*
X156792840Y-100863188D01*
X156861177Y-100924467D01*
X156941748Y-100995858D01*
X157035932Y-101078650D01*
X157145109Y-101174131D01*
X157270656Y-101283591D01*
X157413953Y-101408319D01*
X157422144Y-101415445D01*
X157496831Y-101481800D01*
X157582303Y-101559992D01*
X157671690Y-101643595D01*
X157758125Y-101726184D01*
X157834738Y-101801333D01*
X157836202Y-101802795D01*
X157976931Y-101949061D01*
X158096701Y-102086502D01*
X158197140Y-102217908D01*
X158279876Y-102346070D01*
X158346540Y-102473779D01*
X158398759Y-102603826D01*
X158438163Y-102739001D01*
X158466380Y-102882096D01*
X158466474Y-102882700D01*
X158471800Y-102919645D01*
X158476248Y-102958106D01*
X158479897Y-103000679D01*
X158482822Y-103049960D01*
X158485100Y-103108544D01*
X158486808Y-103179028D01*
X158488021Y-103264005D01*
X158488816Y-103366073D01*
X158489270Y-103487827D01*
X158489458Y-103631863D01*
X158489471Y-103663750D01*
X158489325Y-103827900D01*
X158488679Y-103969079D01*
X158487369Y-104089711D01*
X158485232Y-104192223D01*
X158482105Y-104279041D01*
X158477825Y-104352589D01*
X158472228Y-104415295D01*
X158465151Y-104469583D01*
X158456431Y-104517880D01*
X158445904Y-104562611D01*
X158433408Y-104606202D01*
X158424078Y-104635300D01*
X158374204Y-104757959D01*
X158304516Y-104882596D01*
X158276683Y-104925117D01*
X158256622Y-104956500D01*
X158245105Y-104977988D01*
X158243950Y-104983537D01*
X158257235Y-104986239D01*
X158292113Y-104991889D01*
X158345019Y-104999950D01*
X158412389Y-105009885D01*
X158490655Y-105021156D01*
X158540450Y-105028209D01*
X158628659Y-105041103D01*
X158735744Y-105057525D01*
X158855584Y-105076492D01*
X158982058Y-105097017D01*
X159109045Y-105118117D01*
X159230425Y-105138806D01*
X159262704Y-105144414D01*
X159364549Y-105162105D01*
X159458800Y-105178312D01*
X159542444Y-105192529D01*
X159612470Y-105204251D01*
X159665864Y-105212973D01*
X159699615Y-105218189D01*
X159710379Y-105219500D01*
X159712761Y-105216482D01*
X159714925Y-105206689D01*
X159716879Y-105189015D01*
X159718635Y-105162350D01*
X159720201Y-105125588D01*
X159721588Y-105077620D01*
X159722806Y-105017339D01*
X159723865Y-104943637D01*
X159724775Y-104855407D01*
X159725545Y-104751540D01*
X159726186Y-104630929D01*
X159726709Y-104492466D01*
X159727122Y-104335043D01*
X159727435Y-104157553D01*
X159727660Y-103958888D01*
X159727805Y-103737939D01*
X159727882Y-103493601D01*
X159727900Y-103276717D01*
X159727899Y-101333935D01*
X159692975Y-101339555D01*
X159668123Y-101342980D01*
X159623579Y-101348571D01*
X159564892Y-101355651D01*
X159497610Y-101363544D01*
X159470929Y-101366617D01*
X159283808Y-101388059D01*
X159277519Y-101427354D01*
X159275703Y-101446488D01*
X159272533Y-101488785D01*
X159268150Y-101552054D01*
X159262695Y-101634103D01*
X159256309Y-101732739D01*
X159249133Y-101845769D01*
X159241309Y-101971003D01*
X159232977Y-102106248D01*
X159224280Y-102249311D01*
X159219789Y-102323900D01*
X159204213Y-102581873D01*
X159189923Y-102815156D01*
X159176872Y-103024423D01*
X159165012Y-103210350D01*
X159154296Y-103373610D01*
X159144676Y-103514880D01*
X159136104Y-103634833D01*
X159128533Y-103734144D01*
X159121916Y-103813489D01*
X159116206Y-103873541D01*
X159111354Y-103914975D01*
X159107313Y-103938467D01*
X159105845Y-103943150D01*
X159098920Y-103953514D01*
X159095146Y-103943182D01*
X159093636Y-103911400D01*
X159092543Y-103879102D01*
X159090169Y-103827288D01*
X159086806Y-103761791D01*
X159082750Y-103688446D01*
X159080201Y-103644700D01*
X159076995Y-103587270D01*
X159072724Y-103505005D01*
X159067412Y-103398448D01*
X159061086Y-103268140D01*
X159053770Y-103114623D01*
X159045490Y-102938439D01*
X159036271Y-102740129D01*
X159026138Y-102520237D01*
X159015118Y-102279302D01*
X159003235Y-102017869D01*
X158990515Y-101736477D01*
X158983183Y-101573667D01*
X158974858Y-101388584D01*
X158490954Y-101308106D01*
X158383123Y-101290007D01*
X158283160Y-101272911D01*
X158193839Y-101257315D01*
X158117932Y-101243718D01*
X158058210Y-101232618D01*
X158017448Y-101224512D01*
X157998417Y-101219900D01*
X157997455Y-101219434D01*
X158006598Y-101215489D01*
X158038383Y-101209091D01*
X158090209Y-101200595D01*
X158159475Y-101190353D01*
X158243577Y-101178720D01*
X158339915Y-101166049D01*
X158445886Y-101152693D01*
X158558888Y-101139005D01*
X158676321Y-101125340D01*
X158754895Y-101116516D01*
X158825813Y-101108393D01*
X158887498Y-101100801D01*
X158935702Y-101094305D01*
X158966180Y-101089471D01*
X158974904Y-101087228D01*
X158976732Y-101073830D01*
X158979848Y-101037522D01*
X158984089Y-100980756D01*
X158989287Y-100905981D01*
X158995279Y-100815647D01*
X159001897Y-100712204D01*
X159008977Y-100598101D01*
X159016353Y-100475788D01*
X159017392Y-100458283D01*
X159025841Y-100316259D01*
X159034813Y-100166574D01*
X159043999Y-100014279D01*
X159053093Y-99864428D01*
X159061787Y-99722074D01*
X159069775Y-99592268D01*
X159076750Y-99480063D01*
X159079958Y-99429025D01*
X159086258Y-99327915D01*
X159091997Y-99233153D01*
X159096977Y-99148197D01*
X159101003Y-99076505D01*
X159103877Y-99021536D01*
X159105403Y-98986747D01*
X159105600Y-98978074D01*
X159105600Y-98933000D01*
X159190569Y-98933000D01*
X159198866Y-99158425D01*
X159202788Y-99261501D01*
X159207496Y-99379365D01*
X159212858Y-99509147D01*
X159218744Y-99647980D01*
X159225023Y-99792996D01*
X159231563Y-99941325D01*
X159238235Y-100090101D01*
X159244907Y-100236454D01*
X159251450Y-100377516D01*
X159257731Y-100510420D01*
X159263620Y-100632296D01*
X159268987Y-100740278D01*
X159273700Y-100831496D01*
X159277629Y-100903082D01*
X159280644Y-100952168D01*
X159280653Y-100952300D01*
X159289750Y-101085650D01*
X159480250Y-101119245D01*
X159548926Y-101131119D01*
X159610551Y-101141334D01*
X159659937Y-101149063D01*
X159691899Y-101153479D01*
X159699325Y-101154170D01*
X159727900Y-101155500D01*
X159727900Y-98933000D01*
X159190569Y-98933000D01*
X159105600Y-98933000D01*
X158635700Y-98933000D01*
X158635700Y-97942400D01*
X162306000Y-97942400D01*
X162306000Y-98932724D01*
X161232850Y-98939350D01*
X161226452Y-105561408D01*
X161274101Y-105573879D01*
X161308931Y-105582859D01*
X161359026Y-105595608D01*
X161415007Y-105609743D01*
X161429700Y-105613433D01*
X161770391Y-105702528D01*
X162128747Y-105803077D01*
X162500522Y-105913683D01*
X162881470Y-106032948D01*
X163267347Y-106159478D01*
X163653906Y-106291874D01*
X164036903Y-106428741D01*
X164412093Y-106568681D01*
X164775230Y-106710297D01*
X164828711Y-106731724D01*
X165039054Y-106817577D01*
X165258266Y-106909433D01*
X165483047Y-107005790D01*
X165710095Y-107105148D01*
X165936112Y-107206007D01*
X166157796Y-107306868D01*
X166371846Y-107406229D01*
X166574963Y-107502591D01*
X166763846Y-107594453D01*
X166935194Y-107680316D01*
X167071794Y-107751279D01*
X167138159Y-107787237D01*
X167189903Y-107816788D01*
X167225521Y-107838905D01*
X167243512Y-107852561D01*
X167242373Y-107856729D01*
X167220601Y-107850382D01*
X167212100Y-107847165D01*
X166877975Y-107719747D01*
X166525945Y-107590115D01*
X166160845Y-107459884D01*
X165787510Y-107330669D01*
X165410776Y-107204085D01*
X165035476Y-107081746D01*
X164666446Y-106965268D01*
X164308521Y-106856264D01*
X163966535Y-106756351D01*
X163834451Y-106719059D01*
X162924890Y-106478197D01*
X162009865Y-106262089D01*
X161089792Y-106070780D01*
X160165083Y-105904314D01*
X159236152Y-105762734D01*
X158303413Y-105646084D01*
X157367280Y-105554408D01*
X156428166Y-105487749D01*
X155486484Y-105446153D01*
X154542649Y-105429661D01*
X153597074Y-105438319D01*
X152650172Y-105472171D01*
X152266650Y-105493043D01*
X151335666Y-105561226D01*
X150406584Y-105654228D01*
X149480474Y-105771865D01*
X148558405Y-105913956D01*
X147641445Y-106080316D01*
X146730665Y-106270763D01*
X145827132Y-106485114D01*
X144931917Y-106723184D01*
X144700535Y-106788980D01*
X144398346Y-106877962D01*
X144083267Y-106974288D01*
X143760608Y-107076203D01*
X143435678Y-107181952D01*
X143113786Y-107289777D01*
X142800241Y-107397924D01*
X142500354Y-107504636D01*
X142219432Y-107608157D01*
X142189200Y-107619545D01*
X142053066Y-107670682D01*
X141927632Y-107717280D01*
X141814602Y-107758735D01*
X141715683Y-107794440D01*
X141632579Y-107823791D01*
X141566995Y-107846183D01*
X141520636Y-107861011D01*
X141495207Y-107867670D01*
X141490700Y-107867426D01*
X141501843Y-107858384D01*
X141533824Y-107839660D01*
X141584466Y-107812319D01*
X141651592Y-107777428D01*
X141733027Y-107736054D01*
X141826595Y-107689265D01*
X141930119Y-107638126D01*
X142041424Y-107583704D01*
X142158333Y-107527066D01*
X142278670Y-107469280D01*
X142400259Y-107411410D01*
X142520924Y-107354526D01*
X142638490Y-107299692D01*
X142750779Y-107247976D01*
X142801020Y-107225092D01*
X143331555Y-106991179D01*
X143871917Y-106766109D01*
X144418484Y-106551162D01*
X144967634Y-106347619D01*
X145515747Y-106156760D01*
X146059200Y-105979866D01*
X146594372Y-105818217D01*
X147117642Y-105673092D01*
X147386675Y-105603873D01*
X147468155Y-105583157D01*
X147540737Y-105564050D01*
X147601007Y-105547505D01*
X147645552Y-105534474D01*
X147670957Y-105525911D01*
X147675600Y-105523257D01*
X147664490Y-105515503D01*
X147634923Y-105502196D01*
X147592546Y-105485800D01*
X147577175Y-105480294D01*
X147479571Y-105442224D01*
X147373621Y-105394557D01*
X147268596Y-105341836D01*
X147173769Y-105288608D01*
X147129500Y-105260880D01*
X146981665Y-105152701D01*
X146856497Y-105036601D01*
X146751738Y-104909555D01*
X146665130Y-104768540D01*
X146594417Y-104610532D01*
X146553481Y-104489250D01*
X146526834Y-104400350D01*
X146523198Y-101171374D01*
X146519562Y-97942399D01*
X147262681Y-97942399D01*
X148005800Y-97942400D01*
X148007785Y-98688525D01*
X148007999Y-98779917D01*
X148008219Y-98894935D01*
X148008445Y-99031808D01*
X148008673Y-99188760D01*
X148008903Y-99364019D01*
X148009132Y-99555812D01*
X148009359Y-99762364D01*
X148009582Y-99981904D01*
X148009799Y-100212657D01*
X148010009Y-100452850D01*
X148010209Y-100700710D01*
X148010398Y-100954464D01*
X148010575Y-101212338D01*
X148010737Y-101472559D01*
X148010883Y-101733354D01*
X148010960Y-101885750D01*
X148011133Y-102133614D01*
X148011405Y-102374803D01*
X148011771Y-102608077D01*
X148012224Y-102832199D01*
X148012758Y-103045931D01*
X148013369Y-103248036D01*
X148014050Y-103437276D01*
X148014795Y-103612412D01*
X148015599Y-103772207D01*
X148016455Y-103915423D01*
X148017358Y-104040822D01*
X148018303Y-104147167D01*
X148019283Y-104233219D01*
X148020293Y-104297742D01*
X148021326Y-104339496D01*
X148022378Y-104357244D01*
X148022512Y-104357716D01*
X148038868Y-104373354D01*
X148071551Y-104393926D01*
X148111412Y-104413995D01*
X148205910Y-104444935D01*
X148306128Y-104457197D01*
X148406069Y-104451199D01*
X148499734Y-104427359D01*
X148581125Y-104386096D01*
X148588794Y-104380713D01*
X148643119Y-104341360D01*
X148640678Y-102503955D01*
X148640378Y-102259239D01*
X148640109Y-102001963D01*
X148639873Y-101735351D01*
X148639670Y-101462627D01*
X148639503Y-101187016D01*
X148639371Y-100911743D01*
X148639277Y-100640031D01*
X148639221Y-100375105D01*
X148639204Y-100120191D01*
X148639228Y-99878512D01*
X148639295Y-99653292D01*
X148639404Y-99447756D01*
X148639518Y-99304475D01*
X148640800Y-97942400D01*
X150139906Y-97942400D01*
X150135845Y-101292025D01*
X150135441Y-101640265D01*
X150135090Y-101964045D01*
X150134769Y-102264304D01*
X150134457Y-102541982D01*
X150134132Y-102798018D01*
X150133771Y-103033353D01*
X150133353Y-103248924D01*
X150132855Y-103445673D01*
X150132256Y-103624539D01*
X150131534Y-103786461D01*
X150130667Y-103932378D01*
X150129633Y-104063231D01*
X150128409Y-104179959D01*
X150126974Y-104283501D01*
X150125306Y-104374798D01*
X150123382Y-104454787D01*
X150121182Y-104524411D01*
X150118682Y-104584607D01*
X150115861Y-104636315D01*
X150112698Y-104680475D01*
X150109169Y-104718026D01*
X150105253Y-104749909D01*
X150100928Y-104777062D01*
X150096172Y-104800426D01*
X150090963Y-104820939D01*
X150085279Y-104839541D01*
X150079098Y-104857172D01*
X150072399Y-104874772D01*
X150065158Y-104893279D01*
X150057354Y-104913635D01*
X150050694Y-104931874D01*
X150034068Y-104981282D01*
X150022371Y-105021190D01*
X150017157Y-105045986D01*
X150017610Y-105051143D01*
X150031428Y-105051141D01*
X150067236Y-105047839D01*
X150121894Y-105041618D01*
X150192260Y-105032861D01*
X150275193Y-105021949D01*
X150367551Y-105009265D01*
X150402602Y-105004324D01*
X150502852Y-104990297D01*
X150599522Y-104977145D01*
X150688464Y-104965402D01*
X150765533Y-104955606D01*
X150826582Y-104948291D01*
X150867466Y-104943994D01*
X150872825Y-104943546D01*
X150917462Y-104939126D01*
X150950153Y-104934035D01*
X150964605Y-104929287D01*
X150964816Y-104928741D01*
X150958256Y-104914129D01*
X150942227Y-104888123D01*
X150938744Y-104882950D01*
X150896139Y-104811869D01*
X150854432Y-104727352D01*
X150818970Y-104640969D01*
X150799773Y-104582226D01*
X150790140Y-104544058D01*
X150781770Y-104501843D01*
X150774581Y-104453657D01*
X150768489Y-104397580D01*
X150763411Y-104331688D01*
X150759265Y-104254058D01*
X150755967Y-104162767D01*
X150753434Y-104055894D01*
X150751584Y-103931516D01*
X150750333Y-103787709D01*
X150749599Y-103622551D01*
X150749298Y-103434121D01*
X150749288Y-103412925D01*
X150749000Y-102641400D01*
X152184100Y-102641400D01*
X152184100Y-103454607D01*
X152184190Y-103624759D01*
X152184485Y-103771246D01*
X152185021Y-103895803D01*
X152185831Y-104000163D01*
X152186951Y-104086062D01*
X152188417Y-104155234D01*
X152190263Y-104209413D01*
X152192524Y-104250334D01*
X152195237Y-104279731D01*
X152198435Y-104299339D01*
X152201423Y-104309275D01*
X152238464Y-104365629D01*
X152296359Y-104409124D01*
X152373696Y-104439129D01*
X152469065Y-104455010D01*
X152531646Y-104457500D01*
X152634805Y-104450466D01*
X152722878Y-104430009D01*
X152793681Y-104397092D01*
X152845024Y-104352681D01*
X152871312Y-104307735D01*
X152873544Y-104289422D01*
X152875617Y-104248289D01*
X152877486Y-104186917D01*
X152879109Y-104107886D01*
X152880443Y-104013778D01*
X152881445Y-103907171D01*
X152882070Y-103790647D01*
X152882276Y-103666786D01*
X152882272Y-103653398D01*
X152882170Y-103511201D01*
X152881962Y-103392027D01*
X152881552Y-103293497D01*
X152880844Y-103213233D01*
X152879740Y-103148859D01*
X152878144Y-103097996D01*
X152875960Y-103058266D01*
X152873092Y-103027291D01*
X152869443Y-103002694D01*
X152864916Y-102982097D01*
X152859415Y-102963123D01*
X152853551Y-102945465D01*
X152833133Y-102892027D01*
X152807904Y-102839046D01*
X152776539Y-102785117D01*
X152737712Y-102728839D01*
X152690098Y-102668807D01*
X152632371Y-102603617D01*
X152563206Y-102531868D01*
X152481276Y-102452155D01*
X152385256Y-102363075D01*
X152273821Y-102263224D01*
X152145645Y-102151200D01*
X151999402Y-102025598D01*
X151924174Y-101961582D01*
X151755114Y-101816248D01*
X151605465Y-101683502D01*
X151473653Y-101561616D01*
X151358108Y-101448863D01*
X151257255Y-101343518D01*
X151169523Y-101243852D01*
X151093340Y-101148140D01*
X151027133Y-101054653D01*
X150969330Y-100961666D01*
X150918359Y-100867452D01*
X150906911Y-100844350D01*
X150871426Y-100769855D01*
X150842684Y-100704238D01*
X150819855Y-100643359D01*
X150802110Y-100583083D01*
X150788621Y-100519271D01*
X150778559Y-100447786D01*
X150771094Y-100364489D01*
X150765399Y-100265245D01*
X150760643Y-100145914D01*
X150759348Y-100107750D01*
X150756377Y-99996667D01*
X150754101Y-99867595D01*
X150752576Y-99727935D01*
X150751859Y-99585088D01*
X150752006Y-99446457D01*
X150753074Y-99319444D01*
X150753234Y-99307650D01*
X150755468Y-99172723D01*
X150758366Y-99059865D01*
X150762433Y-98965742D01*
X150768176Y-98887023D01*
X150776102Y-98820376D01*
X150786718Y-98762470D01*
X150800531Y-98709972D01*
X150818046Y-98659551D01*
X150839771Y-98607874D01*
X150866212Y-98551611D01*
X150869113Y-98545650D01*
X150938964Y-98423666D01*
X151023190Y-98316350D01*
X151123750Y-98222165D01*
X151242601Y-98139575D01*
X151381697Y-98067042D01*
X151542997Y-98003030D01*
X151572959Y-97992820D01*
X151707930Y-97952739D01*
X151849309Y-97920849D01*
X152000314Y-97896796D01*
X152164161Y-97880224D01*
X152344066Y-97870781D01*
X152543246Y-97868110D01*
X152688361Y-97869918D01*
D12*
X245046500Y-103378000D02*
G75*
G03X245046500Y-103378000I-2286000J0D01*
G01*
X245046500Y-141414500D02*
G75*
G03X245046500Y-141414500I-2286000J0D01*
G01*
D13*
X153869570Y-133643667D02*
X154345761Y-133643667D01*
X153774332Y-133929381D02*
X154107665Y-132929381D01*
X154440999Y-133929381D01*
X154726713Y-133881762D02*
X154821951Y-133929381D01*
X155012427Y-133929381D01*
X155107666Y-133881762D01*
X155155285Y-133786524D01*
X155155285Y-133738905D01*
X155107666Y-133643667D01*
X155012427Y-133596048D01*
X154869570Y-133596048D01*
X154774332Y-133548429D01*
X154726713Y-133453190D01*
X154726713Y-133405571D01*
X154774332Y-133310333D01*
X154869570Y-133262714D01*
X155012427Y-133262714D01*
X155107666Y-133310333D01*
X155536237Y-133881762D02*
X155631475Y-133929381D01*
X155821951Y-133929381D01*
X155917190Y-133881762D01*
X155964809Y-133786524D01*
X155964809Y-133738905D01*
X155917190Y-133643667D01*
X155821951Y-133596048D01*
X155679094Y-133596048D01*
X155583856Y-133548429D01*
X155536237Y-133453190D01*
X155536237Y-133405571D01*
X155583856Y-133310333D01*
X155679094Y-133262714D01*
X155821951Y-133262714D01*
X155917190Y-133310333D01*
X156393380Y-133929381D02*
X156393380Y-133262714D01*
X156393380Y-133357952D02*
X156440999Y-133310333D01*
X156536237Y-133262714D01*
X156679095Y-133262714D01*
X156774333Y-133310333D01*
X156821952Y-133405571D01*
X156821952Y-133929381D01*
X156821952Y-133405571D02*
X156869571Y-133310333D01*
X156964809Y-133262714D01*
X157107666Y-133262714D01*
X157202904Y-133310333D01*
X157250523Y-133405571D01*
X157250523Y-133929381D01*
X158155285Y-133929381D02*
X158155285Y-133405571D01*
X158107666Y-133310333D01*
X158012428Y-133262714D01*
X157821951Y-133262714D01*
X157726713Y-133310333D01*
X158155285Y-133881762D02*
X158060047Y-133929381D01*
X157821951Y-133929381D01*
X157726713Y-133881762D01*
X157679094Y-133786524D01*
X157679094Y-133691286D01*
X157726713Y-133596048D01*
X157821951Y-133548429D01*
X158060047Y-133548429D01*
X158155285Y-133500810D01*
X158631475Y-133262714D02*
X158631475Y-133929381D01*
X158631475Y-133357952D02*
X158679094Y-133310333D01*
X158774332Y-133262714D01*
X158917190Y-133262714D01*
X159012428Y-133310333D01*
X159060047Y-133405571D01*
X159060047Y-133929381D01*
X159536237Y-133262714D02*
X159536237Y-133929381D01*
X159536237Y-133357952D02*
X159583856Y-133310333D01*
X159679094Y-133262714D01*
X159821952Y-133262714D01*
X159917190Y-133310333D01*
X159964809Y-133405571D01*
X159964809Y-133929381D01*
X161155285Y-133881762D02*
X161298142Y-133929381D01*
X161536238Y-133929381D01*
X161631476Y-133881762D01*
X161679095Y-133834143D01*
X161726714Y-133738905D01*
X161726714Y-133643667D01*
X161679095Y-133548429D01*
X161631476Y-133500810D01*
X161536238Y-133453190D01*
X161345761Y-133405571D01*
X161250523Y-133357952D01*
X161202904Y-133310333D01*
X161155285Y-133215095D01*
X161155285Y-133119857D01*
X161202904Y-133024619D01*
X161250523Y-132977000D01*
X161345761Y-132929381D01*
X161583857Y-132929381D01*
X161726714Y-132977000D01*
X162012428Y-133262714D02*
X162393380Y-133262714D01*
X162155285Y-132929381D02*
X162155285Y-133786524D01*
X162202904Y-133881762D01*
X162298142Y-133929381D01*
X162393380Y-133929381D01*
X163155286Y-133929381D02*
X163155286Y-133405571D01*
X163107667Y-133310333D01*
X163012429Y-133262714D01*
X162821952Y-133262714D01*
X162726714Y-133310333D01*
X163155286Y-133881762D02*
X163060048Y-133929381D01*
X162821952Y-133929381D01*
X162726714Y-133881762D01*
X162679095Y-133786524D01*
X162679095Y-133691286D01*
X162726714Y-133596048D01*
X162821952Y-133548429D01*
X163060048Y-133548429D01*
X163155286Y-133500810D01*
X164060048Y-133881762D02*
X163964810Y-133929381D01*
X163774333Y-133929381D01*
X163679095Y-133881762D01*
X163631476Y-133834143D01*
X163583857Y-133738905D01*
X163583857Y-133453190D01*
X163631476Y-133357952D01*
X163679095Y-133310333D01*
X163774333Y-133262714D01*
X163964810Y-133262714D01*
X164060048Y-133310333D01*
X164488619Y-133929381D02*
X164488619Y-132929381D01*
X164583857Y-133548429D02*
X164869572Y-133929381D01*
X164869572Y-133262714D02*
X164488619Y-133643667D01*
X165679096Y-133881762D02*
X165583858Y-133929381D01*
X165393381Y-133929381D01*
X165298143Y-133881762D01*
X165250524Y-133786524D01*
X165250524Y-133405571D01*
X165298143Y-133310333D01*
X165393381Y-133262714D01*
X165583858Y-133262714D01*
X165679096Y-133310333D01*
X165726715Y-133405571D01*
X165726715Y-133500810D01*
X165250524Y-133596048D01*
X166583858Y-133929381D02*
X166583858Y-132929381D01*
X166583858Y-133881762D02*
X166488620Y-133929381D01*
X166298143Y-133929381D01*
X166202905Y-133881762D01*
X166155286Y-133834143D01*
X166107667Y-133738905D01*
X166107667Y-133453190D01*
X166155286Y-133357952D01*
X166202905Y-133310333D01*
X166298143Y-133262714D01*
X166488620Y-133262714D01*
X166583858Y-133310333D01*
X167821953Y-132929381D02*
X167821953Y-133738905D01*
X167869572Y-133834143D01*
X167917191Y-133881762D01*
X168012429Y-133929381D01*
X168202906Y-133929381D01*
X168298144Y-133881762D01*
X168345763Y-133834143D01*
X168393382Y-133738905D01*
X168393382Y-132929381D01*
X168821953Y-133881762D02*
X168964810Y-133929381D01*
X169202906Y-133929381D01*
X169298144Y-133881762D01*
X169345763Y-133834143D01*
X169393382Y-133738905D01*
X169393382Y-133643667D01*
X169345763Y-133548429D01*
X169298144Y-133500810D01*
X169202906Y-133453190D01*
X169012429Y-133405571D01*
X168917191Y-133357952D01*
X168869572Y-133310333D01*
X168821953Y-133215095D01*
X168821953Y-133119857D01*
X168869572Y-133024619D01*
X168917191Y-132977000D01*
X169012429Y-132929381D01*
X169250525Y-132929381D01*
X169393382Y-132977000D01*
X170155287Y-133405571D02*
X170298144Y-133453190D01*
X170345763Y-133500810D01*
X170393382Y-133596048D01*
X170393382Y-133738905D01*
X170345763Y-133834143D01*
X170298144Y-133881762D01*
X170202906Y-133929381D01*
X169821953Y-133929381D01*
X169821953Y-132929381D01*
X170155287Y-132929381D01*
X170250525Y-132977000D01*
X170298144Y-133024619D01*
X170345763Y-133119857D01*
X170345763Y-133215095D01*
X170298144Y-133310333D01*
X170250525Y-133357952D01*
X170155287Y-133405571D01*
X169821953Y-133405571D01*
X171536239Y-133643667D02*
X172012430Y-133643667D01*
X171441001Y-133929381D02*
X171774334Y-132929381D01*
X172107668Y-133929381D01*
X135645070Y-134088167D02*
X136121261Y-134088167D01*
X135549832Y-134373881D02*
X135883165Y-133373881D01*
X136216499Y-134373881D01*
X136502213Y-134326262D02*
X136597451Y-134373881D01*
X136787927Y-134373881D01*
X136883166Y-134326262D01*
X136930785Y-134231024D01*
X136930785Y-134183405D01*
X136883166Y-134088167D01*
X136787927Y-134040548D01*
X136645070Y-134040548D01*
X136549832Y-133992929D01*
X136502213Y-133897690D01*
X136502213Y-133850071D01*
X136549832Y-133754833D01*
X136645070Y-133707214D01*
X136787927Y-133707214D01*
X136883166Y-133754833D01*
X137311737Y-134326262D02*
X137406975Y-134373881D01*
X137597451Y-134373881D01*
X137692690Y-134326262D01*
X137740309Y-134231024D01*
X137740309Y-134183405D01*
X137692690Y-134088167D01*
X137597451Y-134040548D01*
X137454594Y-134040548D01*
X137359356Y-133992929D01*
X137311737Y-133897690D01*
X137311737Y-133850071D01*
X137359356Y-133754833D01*
X137454594Y-133707214D01*
X137597451Y-133707214D01*
X137692690Y-133754833D01*
X138168880Y-134373881D02*
X138168880Y-133707214D01*
X138168880Y-133802452D02*
X138216499Y-133754833D01*
X138311737Y-133707214D01*
X138454595Y-133707214D01*
X138549833Y-133754833D01*
X138597452Y-133850071D01*
X138597452Y-134373881D01*
X138597452Y-133850071D02*
X138645071Y-133754833D01*
X138740309Y-133707214D01*
X138883166Y-133707214D01*
X138978404Y-133754833D01*
X139026023Y-133850071D01*
X139026023Y-134373881D01*
X139930785Y-134373881D02*
X139930785Y-133850071D01*
X139883166Y-133754833D01*
X139787928Y-133707214D01*
X139597451Y-133707214D01*
X139502213Y-133754833D01*
X139930785Y-134326262D02*
X139835547Y-134373881D01*
X139597451Y-134373881D01*
X139502213Y-134326262D01*
X139454594Y-134231024D01*
X139454594Y-134135786D01*
X139502213Y-134040548D01*
X139597451Y-133992929D01*
X139835547Y-133992929D01*
X139930785Y-133945310D01*
X140406975Y-133707214D02*
X140406975Y-134373881D01*
X140406975Y-133802452D02*
X140454594Y-133754833D01*
X140549832Y-133707214D01*
X140692690Y-133707214D01*
X140787928Y-133754833D01*
X140835547Y-133850071D01*
X140835547Y-134373881D01*
X141311737Y-133707214D02*
X141311737Y-134373881D01*
X141311737Y-133802452D02*
X141359356Y-133754833D01*
X141454594Y-133707214D01*
X141597452Y-133707214D01*
X141692690Y-133754833D01*
X141740309Y-133850071D01*
X141740309Y-134373881D01*
X142930785Y-134326262D02*
X143073642Y-134373881D01*
X143311738Y-134373881D01*
X143406976Y-134326262D01*
X143454595Y-134278643D01*
X143502214Y-134183405D01*
X143502214Y-134088167D01*
X143454595Y-133992929D01*
X143406976Y-133945310D01*
X143311738Y-133897690D01*
X143121261Y-133850071D01*
X143026023Y-133802452D01*
X142978404Y-133754833D01*
X142930785Y-133659595D01*
X142930785Y-133564357D01*
X142978404Y-133469119D01*
X143026023Y-133421500D01*
X143121261Y-133373881D01*
X143359357Y-133373881D01*
X143502214Y-133421500D01*
X143787928Y-133707214D02*
X144168880Y-133707214D01*
X143930785Y-133373881D02*
X143930785Y-134231024D01*
X143978404Y-134326262D01*
X144073642Y-134373881D01*
X144168880Y-134373881D01*
X144930786Y-134373881D02*
X144930786Y-133850071D01*
X144883167Y-133754833D01*
X144787929Y-133707214D01*
X144597452Y-133707214D01*
X144502214Y-133754833D01*
X144930786Y-134326262D02*
X144835548Y-134373881D01*
X144597452Y-134373881D01*
X144502214Y-134326262D01*
X144454595Y-134231024D01*
X144454595Y-134135786D01*
X144502214Y-134040548D01*
X144597452Y-133992929D01*
X144835548Y-133992929D01*
X144930786Y-133945310D01*
X145835548Y-134326262D02*
X145740310Y-134373881D01*
X145549833Y-134373881D01*
X145454595Y-134326262D01*
X145406976Y-134278643D01*
X145359357Y-134183405D01*
X145359357Y-133897690D01*
X145406976Y-133802452D01*
X145454595Y-133754833D01*
X145549833Y-133707214D01*
X145740310Y-133707214D01*
X145835548Y-133754833D01*
X146264119Y-134373881D02*
X146264119Y-133373881D01*
X146359357Y-133992929D02*
X146645072Y-134373881D01*
X146645072Y-133707214D02*
X146264119Y-134088167D01*
X147454596Y-134326262D02*
X147359358Y-134373881D01*
X147168881Y-134373881D01*
X147073643Y-134326262D01*
X147026024Y-134231024D01*
X147026024Y-133850071D01*
X147073643Y-133754833D01*
X147168881Y-133707214D01*
X147359358Y-133707214D01*
X147454596Y-133754833D01*
X147502215Y-133850071D01*
X147502215Y-133945310D01*
X147026024Y-134040548D01*
X148359358Y-134373881D02*
X148359358Y-133373881D01*
X148359358Y-134326262D02*
X148264120Y-134373881D01*
X148073643Y-134373881D01*
X147978405Y-134326262D01*
X147930786Y-134278643D01*
X147883167Y-134183405D01*
X147883167Y-133897690D01*
X147930786Y-133802452D01*
X147978405Y-133754833D01*
X148073643Y-133707214D01*
X148264120Y-133707214D01*
X148359358Y-133754833D01*
X149597453Y-133373881D02*
X149597453Y-134183405D01*
X149645072Y-134278643D01*
X149692691Y-134326262D01*
X149787929Y-134373881D01*
X149978406Y-134373881D01*
X150073644Y-134326262D01*
X150121263Y-134278643D01*
X150168882Y-134183405D01*
X150168882Y-133373881D01*
X150597453Y-134326262D02*
X150740310Y-134373881D01*
X150978406Y-134373881D01*
X151073644Y-134326262D01*
X151121263Y-134278643D01*
X151168882Y-134183405D01*
X151168882Y-134088167D01*
X151121263Y-133992929D01*
X151073644Y-133945310D01*
X150978406Y-133897690D01*
X150787929Y-133850071D01*
X150692691Y-133802452D01*
X150645072Y-133754833D01*
X150597453Y-133659595D01*
X150597453Y-133564357D01*
X150645072Y-133469119D01*
X150692691Y-133421500D01*
X150787929Y-133373881D01*
X151026025Y-133373881D01*
X151168882Y-133421500D01*
X151930787Y-133850071D02*
X152073644Y-133897690D01*
X152121263Y-133945310D01*
X152168882Y-134040548D01*
X152168882Y-134183405D01*
X152121263Y-134278643D01*
X152073644Y-134326262D01*
X151978406Y-134373881D01*
X151597453Y-134373881D01*
X151597453Y-133373881D01*
X151930787Y-133373881D01*
X152026025Y-133421500D01*
X152073644Y-133469119D01*
X152121263Y-133564357D01*
X152121263Y-133659595D01*
X152073644Y-133754833D01*
X152026025Y-133802452D01*
X151930787Y-133850071D01*
X151597453Y-133850071D01*
X153311739Y-134088167D02*
X153787930Y-134088167D01*
X153216501Y-134373881D02*
X153549834Y-133373881D01*
X153883168Y-134373881D01*
X53586999Y-134754952D02*
X53491761Y-134707333D01*
X53444142Y-134659714D01*
X53396523Y-134564476D01*
X53396523Y-134516857D01*
X53444142Y-134421619D01*
X53491761Y-134374000D01*
X53586999Y-134326381D01*
X53777476Y-134326381D01*
X53872714Y-134374000D01*
X53920333Y-134421619D01*
X53967952Y-134516857D01*
X53967952Y-134564476D01*
X53920333Y-134659714D01*
X53872714Y-134707333D01*
X53777476Y-134754952D01*
X53586999Y-134754952D01*
X53491761Y-134802571D01*
X53444142Y-134850190D01*
X53396523Y-134945429D01*
X53396523Y-135135905D01*
X53444142Y-135231143D01*
X53491761Y-135278762D01*
X53586999Y-135326381D01*
X53777476Y-135326381D01*
X53872714Y-135278762D01*
X53920333Y-135231143D01*
X53967952Y-135135905D01*
X53967952Y-134945429D01*
X53920333Y-134850190D01*
X53872714Y-134802571D01*
X53777476Y-134754952D01*
X54396523Y-134659714D02*
X54396523Y-135659714D01*
X54396523Y-134707333D02*
X54491761Y-134659714D01*
X54682238Y-134659714D01*
X54777476Y-134707333D01*
X54825095Y-134754952D01*
X54872714Y-134850190D01*
X54872714Y-135135905D01*
X54825095Y-135231143D01*
X54777476Y-135278762D01*
X54682238Y-135326381D01*
X54491761Y-135326381D01*
X54396523Y-135278762D01*
X55301285Y-135326381D02*
X55301285Y-134659714D01*
X55301285Y-134326381D02*
X55253666Y-134374000D01*
X55301285Y-134421619D01*
X55348904Y-134374000D01*
X55301285Y-134326381D01*
X55301285Y-134421619D01*
X55777475Y-134659714D02*
X55777475Y-135326381D01*
X55777475Y-134754952D02*
X55825094Y-134707333D01*
X55920332Y-134659714D01*
X56063190Y-134659714D01*
X56158428Y-134707333D01*
X56206047Y-134802571D01*
X56206047Y-135326381D01*
X57444142Y-135326381D02*
X57444142Y-134326381D01*
X57777476Y-135040667D01*
X58110809Y-134326381D01*
X58110809Y-135326381D01*
X58729856Y-135326381D02*
X58634618Y-135278762D01*
X58586999Y-135231143D01*
X58539380Y-135135905D01*
X58539380Y-134850190D01*
X58586999Y-134754952D01*
X58634618Y-134707333D01*
X58729856Y-134659714D01*
X58872714Y-134659714D01*
X58967952Y-134707333D01*
X59015571Y-134754952D01*
X59063190Y-134850190D01*
X59063190Y-135135905D01*
X59015571Y-135231143D01*
X58967952Y-135278762D01*
X58872714Y-135326381D01*
X58729856Y-135326381D01*
X59634618Y-135326381D02*
X59539380Y-135278762D01*
X59491761Y-135183524D01*
X59491761Y-134326381D01*
X60396524Y-135278762D02*
X60301286Y-135326381D01*
X60110809Y-135326381D01*
X60015571Y-135278762D01*
X59967952Y-135183524D01*
X59967952Y-134802571D01*
X60015571Y-134707333D01*
X60110809Y-134659714D01*
X60301286Y-134659714D01*
X60396524Y-134707333D01*
X60444143Y-134802571D01*
X60444143Y-134897810D01*
X59967952Y-134993048D01*
X60777476Y-135326381D02*
X61301286Y-134659714D01*
X60777476Y-134659714D02*
X61301286Y-135326381D01*
X62444143Y-135326381D02*
X62444143Y-134326381D01*
X62777477Y-135040667D01*
X63110810Y-134326381D01*
X63110810Y-135326381D01*
X63587000Y-135326381D02*
X63587000Y-134659714D01*
X63587000Y-134326381D02*
X63539381Y-134374000D01*
X63587000Y-134421619D01*
X63634619Y-134374000D01*
X63587000Y-134326381D01*
X63587000Y-134421619D01*
X64063190Y-134659714D02*
X64063190Y-135326381D01*
X64063190Y-134754952D02*
X64110809Y-134707333D01*
X64206047Y-134659714D01*
X64348905Y-134659714D01*
X64444143Y-134707333D01*
X64491762Y-134802571D01*
X64491762Y-135326381D01*
X64967952Y-135326381D02*
X64967952Y-134659714D01*
X64967952Y-134326381D02*
X64920333Y-134374000D01*
X64967952Y-134421619D01*
X65015571Y-134374000D01*
X64967952Y-134326381D01*
X64967952Y-134421619D01*
X65301285Y-134659714D02*
X65682237Y-134659714D01*
X65444142Y-135326381D02*
X65444142Y-134469238D01*
X65491761Y-134374000D01*
X65586999Y-134326381D01*
X65682237Y-134326381D01*
X66015571Y-135326381D02*
X66015571Y-134659714D01*
X66015571Y-134326381D02*
X65967952Y-134374000D01*
X66015571Y-134421619D01*
X66063190Y-134374000D01*
X66015571Y-134326381D01*
X66015571Y-134421619D01*
X66348904Y-134659714D02*
X66729856Y-134659714D01*
X66491761Y-134326381D02*
X66491761Y-135183524D01*
X66539380Y-135278762D01*
X66634618Y-135326381D01*
X66729856Y-135326381D01*
X68110810Y-134326381D02*
X68110810Y-135040667D01*
X68063190Y-135183524D01*
X67967952Y-135278762D01*
X67825095Y-135326381D01*
X67729857Y-135326381D01*
X68587000Y-135326381D02*
X68587000Y-134659714D01*
X68587000Y-134850190D02*
X68634619Y-134754952D01*
X68682238Y-134707333D01*
X68777476Y-134659714D01*
X68872715Y-134659714D01*
X75621499Y-134754952D02*
X75526261Y-134707333D01*
X75478642Y-134659714D01*
X75431023Y-134564476D01*
X75431023Y-134516857D01*
X75478642Y-134421619D01*
X75526261Y-134374000D01*
X75621499Y-134326381D01*
X75811976Y-134326381D01*
X75907214Y-134374000D01*
X75954833Y-134421619D01*
X76002452Y-134516857D01*
X76002452Y-134564476D01*
X75954833Y-134659714D01*
X75907214Y-134707333D01*
X75811976Y-134754952D01*
X75621499Y-134754952D01*
X75526261Y-134802571D01*
X75478642Y-134850190D01*
X75431023Y-134945429D01*
X75431023Y-135135905D01*
X75478642Y-135231143D01*
X75526261Y-135278762D01*
X75621499Y-135326381D01*
X75811976Y-135326381D01*
X75907214Y-135278762D01*
X75954833Y-135231143D01*
X76002452Y-135135905D01*
X76002452Y-134945429D01*
X75954833Y-134850190D01*
X75907214Y-134802571D01*
X75811976Y-134754952D01*
X76431023Y-134659714D02*
X76431023Y-135659714D01*
X76431023Y-134707333D02*
X76526261Y-134659714D01*
X76716738Y-134659714D01*
X76811976Y-134707333D01*
X76859595Y-134754952D01*
X76907214Y-134850190D01*
X76907214Y-135135905D01*
X76859595Y-135231143D01*
X76811976Y-135278762D01*
X76716738Y-135326381D01*
X76526261Y-135326381D01*
X76431023Y-135278762D01*
X77335785Y-135326381D02*
X77335785Y-134659714D01*
X77335785Y-134326381D02*
X77288166Y-134374000D01*
X77335785Y-134421619D01*
X77383404Y-134374000D01*
X77335785Y-134326381D01*
X77335785Y-134421619D01*
X77811975Y-134659714D02*
X77811975Y-135326381D01*
X77811975Y-134754952D02*
X77859594Y-134707333D01*
X77954832Y-134659714D01*
X78097690Y-134659714D01*
X78192928Y-134707333D01*
X78240547Y-134802571D01*
X78240547Y-135326381D01*
X79478642Y-135326381D02*
X79478642Y-134326381D01*
X79811976Y-135040667D01*
X80145309Y-134326381D01*
X80145309Y-135326381D01*
X80764356Y-135326381D02*
X80669118Y-135278762D01*
X80621499Y-135231143D01*
X80573880Y-135135905D01*
X80573880Y-134850190D01*
X80621499Y-134754952D01*
X80669118Y-134707333D01*
X80764356Y-134659714D01*
X80907214Y-134659714D01*
X81002452Y-134707333D01*
X81050071Y-134754952D01*
X81097690Y-134850190D01*
X81097690Y-135135905D01*
X81050071Y-135231143D01*
X81002452Y-135278762D01*
X80907214Y-135326381D01*
X80764356Y-135326381D01*
X81669118Y-135326381D02*
X81573880Y-135278762D01*
X81526261Y-135183524D01*
X81526261Y-134326381D01*
X82431024Y-135278762D02*
X82335786Y-135326381D01*
X82145309Y-135326381D01*
X82050071Y-135278762D01*
X82002452Y-135183524D01*
X82002452Y-134802571D01*
X82050071Y-134707333D01*
X82145309Y-134659714D01*
X82335786Y-134659714D01*
X82431024Y-134707333D01*
X82478643Y-134802571D01*
X82478643Y-134897810D01*
X82002452Y-134993048D01*
X82811976Y-135326381D02*
X83335786Y-134659714D01*
X82811976Y-134659714D02*
X83335786Y-135326381D01*
X84478643Y-135326381D02*
X84478643Y-134326381D01*
X84811977Y-135040667D01*
X85145310Y-134326381D01*
X85145310Y-135326381D01*
X85621500Y-135326381D02*
X85621500Y-134659714D01*
X85621500Y-134326381D02*
X85573881Y-134374000D01*
X85621500Y-134421619D01*
X85669119Y-134374000D01*
X85621500Y-134326381D01*
X85621500Y-134421619D01*
X86097690Y-134659714D02*
X86097690Y-135326381D01*
X86097690Y-134754952D02*
X86145309Y-134707333D01*
X86240547Y-134659714D01*
X86383405Y-134659714D01*
X86478643Y-134707333D01*
X86526262Y-134802571D01*
X86526262Y-135326381D01*
X87002452Y-135326381D02*
X87002452Y-134659714D01*
X87002452Y-134326381D02*
X86954833Y-134374000D01*
X87002452Y-134421619D01*
X87050071Y-134374000D01*
X87002452Y-134326381D01*
X87002452Y-134421619D01*
X87335785Y-134659714D02*
X87716737Y-134659714D01*
X87478642Y-135326381D02*
X87478642Y-134469238D01*
X87526261Y-134374000D01*
X87621499Y-134326381D01*
X87716737Y-134326381D01*
X88050071Y-135326381D02*
X88050071Y-134659714D01*
X88050071Y-134326381D02*
X88002452Y-134374000D01*
X88050071Y-134421619D01*
X88097690Y-134374000D01*
X88050071Y-134326381D01*
X88050071Y-134421619D01*
X88383404Y-134659714D02*
X88764356Y-134659714D01*
X88526261Y-134326381D02*
X88526261Y-135183524D01*
X88573880Y-135278762D01*
X88669118Y-135326381D01*
X88764356Y-135326381D01*
X90145310Y-134326381D02*
X90145310Y-135040667D01*
X90097690Y-135183524D01*
X90002452Y-135278762D01*
X89859595Y-135326381D01*
X89764357Y-135326381D01*
X90621500Y-135326381D02*
X90621500Y-134659714D01*
X90621500Y-134850190D02*
X90669119Y-134754952D01*
X90716738Y-134707333D01*
X90811976Y-134659714D01*
X90907215Y-134659714D01*
X117277499Y-135008952D02*
X117182261Y-134961333D01*
X117134642Y-134913714D01*
X117087023Y-134818476D01*
X117087023Y-134770857D01*
X117134642Y-134675619D01*
X117182261Y-134628000D01*
X117277499Y-134580381D01*
X117467976Y-134580381D01*
X117563214Y-134628000D01*
X117610833Y-134675619D01*
X117658452Y-134770857D01*
X117658452Y-134818476D01*
X117610833Y-134913714D01*
X117563214Y-134961333D01*
X117467976Y-135008952D01*
X117277499Y-135008952D01*
X117182261Y-135056571D01*
X117134642Y-135104190D01*
X117087023Y-135199429D01*
X117087023Y-135389905D01*
X117134642Y-135485143D01*
X117182261Y-135532762D01*
X117277499Y-135580381D01*
X117467976Y-135580381D01*
X117563214Y-135532762D01*
X117610833Y-135485143D01*
X117658452Y-135389905D01*
X117658452Y-135199429D01*
X117610833Y-135104190D01*
X117563214Y-135056571D01*
X117467976Y-135008952D01*
X118087023Y-134913714D02*
X118087023Y-135913714D01*
X118087023Y-134961333D02*
X118182261Y-134913714D01*
X118372738Y-134913714D01*
X118467976Y-134961333D01*
X118515595Y-135008952D01*
X118563214Y-135104190D01*
X118563214Y-135389905D01*
X118515595Y-135485143D01*
X118467976Y-135532762D01*
X118372738Y-135580381D01*
X118182261Y-135580381D01*
X118087023Y-135532762D01*
X118991785Y-135580381D02*
X118991785Y-134913714D01*
X118991785Y-134580381D02*
X118944166Y-134628000D01*
X118991785Y-134675619D01*
X119039404Y-134628000D01*
X118991785Y-134580381D01*
X118991785Y-134675619D01*
X119467975Y-134913714D02*
X119467975Y-135580381D01*
X119467975Y-135008952D02*
X119515594Y-134961333D01*
X119610832Y-134913714D01*
X119753690Y-134913714D01*
X119848928Y-134961333D01*
X119896547Y-135056571D01*
X119896547Y-135580381D01*
X121134642Y-135580381D02*
X121134642Y-134580381D01*
X121467976Y-135294667D01*
X121801309Y-134580381D01*
X121801309Y-135580381D01*
X122420356Y-135580381D02*
X122325118Y-135532762D01*
X122277499Y-135485143D01*
X122229880Y-135389905D01*
X122229880Y-135104190D01*
X122277499Y-135008952D01*
X122325118Y-134961333D01*
X122420356Y-134913714D01*
X122563214Y-134913714D01*
X122658452Y-134961333D01*
X122706071Y-135008952D01*
X122753690Y-135104190D01*
X122753690Y-135389905D01*
X122706071Y-135485143D01*
X122658452Y-135532762D01*
X122563214Y-135580381D01*
X122420356Y-135580381D01*
X123325118Y-135580381D02*
X123229880Y-135532762D01*
X123182261Y-135437524D01*
X123182261Y-134580381D01*
X124087024Y-135532762D02*
X123991786Y-135580381D01*
X123801309Y-135580381D01*
X123706071Y-135532762D01*
X123658452Y-135437524D01*
X123658452Y-135056571D01*
X123706071Y-134961333D01*
X123801309Y-134913714D01*
X123991786Y-134913714D01*
X124087024Y-134961333D01*
X124134643Y-135056571D01*
X124134643Y-135151810D01*
X123658452Y-135247048D01*
X124467976Y-135580381D02*
X124991786Y-134913714D01*
X124467976Y-134913714D02*
X124991786Y-135580381D01*
X126134643Y-135580381D02*
X126134643Y-134580381D01*
X126467977Y-135294667D01*
X126801310Y-134580381D01*
X126801310Y-135580381D01*
X127277500Y-135580381D02*
X127277500Y-134913714D01*
X127277500Y-134580381D02*
X127229881Y-134628000D01*
X127277500Y-134675619D01*
X127325119Y-134628000D01*
X127277500Y-134580381D01*
X127277500Y-134675619D01*
X127753690Y-134913714D02*
X127753690Y-135580381D01*
X127753690Y-135008952D02*
X127801309Y-134961333D01*
X127896547Y-134913714D01*
X128039405Y-134913714D01*
X128134643Y-134961333D01*
X128182262Y-135056571D01*
X128182262Y-135580381D01*
X128658452Y-135580381D02*
X128658452Y-134913714D01*
X128658452Y-134580381D02*
X128610833Y-134628000D01*
X128658452Y-134675619D01*
X128706071Y-134628000D01*
X128658452Y-134580381D01*
X128658452Y-134675619D01*
X128991785Y-134913714D02*
X129372737Y-134913714D01*
X129134642Y-135580381D02*
X129134642Y-134723238D01*
X129182261Y-134628000D01*
X129277499Y-134580381D01*
X129372737Y-134580381D01*
X129706071Y-135580381D02*
X129706071Y-134913714D01*
X129706071Y-134580381D02*
X129658452Y-134628000D01*
X129706071Y-134675619D01*
X129753690Y-134628000D01*
X129706071Y-134580381D01*
X129706071Y-134675619D01*
X130039404Y-134913714D02*
X130420356Y-134913714D01*
X130182261Y-134580381D02*
X130182261Y-135437524D01*
X130229880Y-135532762D01*
X130325118Y-135580381D01*
X130420356Y-135580381D01*
X131801310Y-134580381D02*
X131801310Y-135294667D01*
X131753690Y-135437524D01*
X131658452Y-135532762D01*
X131515595Y-135580381D01*
X131420357Y-135580381D01*
X132277500Y-135580381D02*
X132277500Y-134913714D01*
X132277500Y-135104190D02*
X132325119Y-135008952D01*
X132372738Y-134961333D01*
X132467976Y-134913714D01*
X132563215Y-134913714D01*
X96195499Y-134818452D02*
X96100261Y-134770833D01*
X96052642Y-134723214D01*
X96005023Y-134627976D01*
X96005023Y-134580357D01*
X96052642Y-134485119D01*
X96100261Y-134437500D01*
X96195499Y-134389881D01*
X96385976Y-134389881D01*
X96481214Y-134437500D01*
X96528833Y-134485119D01*
X96576452Y-134580357D01*
X96576452Y-134627976D01*
X96528833Y-134723214D01*
X96481214Y-134770833D01*
X96385976Y-134818452D01*
X96195499Y-134818452D01*
X96100261Y-134866071D01*
X96052642Y-134913690D01*
X96005023Y-135008929D01*
X96005023Y-135199405D01*
X96052642Y-135294643D01*
X96100261Y-135342262D01*
X96195499Y-135389881D01*
X96385976Y-135389881D01*
X96481214Y-135342262D01*
X96528833Y-135294643D01*
X96576452Y-135199405D01*
X96576452Y-135008929D01*
X96528833Y-134913690D01*
X96481214Y-134866071D01*
X96385976Y-134818452D01*
X97005023Y-134723214D02*
X97005023Y-135723214D01*
X97005023Y-134770833D02*
X97100261Y-134723214D01*
X97290738Y-134723214D01*
X97385976Y-134770833D01*
X97433595Y-134818452D01*
X97481214Y-134913690D01*
X97481214Y-135199405D01*
X97433595Y-135294643D01*
X97385976Y-135342262D01*
X97290738Y-135389881D01*
X97100261Y-135389881D01*
X97005023Y-135342262D01*
X97909785Y-135389881D02*
X97909785Y-134723214D01*
X97909785Y-134389881D02*
X97862166Y-134437500D01*
X97909785Y-134485119D01*
X97957404Y-134437500D01*
X97909785Y-134389881D01*
X97909785Y-134485119D01*
X98385975Y-134723214D02*
X98385975Y-135389881D01*
X98385975Y-134818452D02*
X98433594Y-134770833D01*
X98528832Y-134723214D01*
X98671690Y-134723214D01*
X98766928Y-134770833D01*
X98814547Y-134866071D01*
X98814547Y-135389881D01*
X100052642Y-135389881D02*
X100052642Y-134389881D01*
X100385976Y-135104167D01*
X100719309Y-134389881D01*
X100719309Y-135389881D01*
X101338356Y-135389881D02*
X101243118Y-135342262D01*
X101195499Y-135294643D01*
X101147880Y-135199405D01*
X101147880Y-134913690D01*
X101195499Y-134818452D01*
X101243118Y-134770833D01*
X101338356Y-134723214D01*
X101481214Y-134723214D01*
X101576452Y-134770833D01*
X101624071Y-134818452D01*
X101671690Y-134913690D01*
X101671690Y-135199405D01*
X101624071Y-135294643D01*
X101576452Y-135342262D01*
X101481214Y-135389881D01*
X101338356Y-135389881D01*
X102243118Y-135389881D02*
X102147880Y-135342262D01*
X102100261Y-135247024D01*
X102100261Y-134389881D01*
X103005024Y-135342262D02*
X102909786Y-135389881D01*
X102719309Y-135389881D01*
X102624071Y-135342262D01*
X102576452Y-135247024D01*
X102576452Y-134866071D01*
X102624071Y-134770833D01*
X102719309Y-134723214D01*
X102909786Y-134723214D01*
X103005024Y-134770833D01*
X103052643Y-134866071D01*
X103052643Y-134961310D01*
X102576452Y-135056548D01*
X103385976Y-135389881D02*
X103909786Y-134723214D01*
X103385976Y-134723214D02*
X103909786Y-135389881D01*
X105052643Y-135389881D02*
X105052643Y-134389881D01*
X105385977Y-135104167D01*
X105719310Y-134389881D01*
X105719310Y-135389881D01*
X106195500Y-135389881D02*
X106195500Y-134723214D01*
X106195500Y-134389881D02*
X106147881Y-134437500D01*
X106195500Y-134485119D01*
X106243119Y-134437500D01*
X106195500Y-134389881D01*
X106195500Y-134485119D01*
X106671690Y-134723214D02*
X106671690Y-135389881D01*
X106671690Y-134818452D02*
X106719309Y-134770833D01*
X106814547Y-134723214D01*
X106957405Y-134723214D01*
X107052643Y-134770833D01*
X107100262Y-134866071D01*
X107100262Y-135389881D01*
X107576452Y-135389881D02*
X107576452Y-134723214D01*
X107576452Y-134389881D02*
X107528833Y-134437500D01*
X107576452Y-134485119D01*
X107624071Y-134437500D01*
X107576452Y-134389881D01*
X107576452Y-134485119D01*
X107909785Y-134723214D02*
X108290737Y-134723214D01*
X108052642Y-135389881D02*
X108052642Y-134532738D01*
X108100261Y-134437500D01*
X108195499Y-134389881D01*
X108290737Y-134389881D01*
X108624071Y-135389881D02*
X108624071Y-134723214D01*
X108624071Y-134389881D02*
X108576452Y-134437500D01*
X108624071Y-134485119D01*
X108671690Y-134437500D01*
X108624071Y-134389881D01*
X108624071Y-134485119D01*
X108957404Y-134723214D02*
X109338356Y-134723214D01*
X109100261Y-134389881D02*
X109100261Y-135247024D01*
X109147880Y-135342262D01*
X109243118Y-135389881D01*
X109338356Y-135389881D01*
X110719310Y-134389881D02*
X110719310Y-135104167D01*
X110671690Y-135247024D01*
X110576452Y-135342262D01*
X110433595Y-135389881D01*
X110338357Y-135389881D01*
X111195500Y-135389881D02*
X111195500Y-134723214D01*
X111195500Y-134913690D02*
X111243119Y-134818452D01*
X111290738Y-134770833D01*
X111385976Y-134723214D01*
X111481215Y-134723214D01*
M02*
