M48
;DRILL file {KiCad 4.0.7} date 02/15/18 17:09:49
;FORMAT={2:4/ absolute / inch / suppress trailing zeros}
FMAT,2
INCH,LZ
T1C0.039
T2C0.063
T3C0.071
T4C0.091
%
G90
G05
M72
T1
X05538Y-046657
X05538Y-047688
X05538Y-049437
X05538Y-050468
X056364Y-046657
X056364Y-047688
X056364Y-049437
X056364Y-050468
X057151Y-046657
X057151Y-047688
X057151Y-049437
X057151Y-050468
X058136Y-046657
X058136Y-047688
X058136Y-049437
X058136Y-050468
X062605Y-046657
X062605Y-047688
X062605Y-049437
X062605Y-050468
X063589Y-046657
X063589Y-047688
X063589Y-049437
X063589Y-050468
X064376Y-046657
X064376Y-047688
X064376Y-049437
X064376Y-050468
X065361Y-046657
X065361Y-047688
X065361Y-049437
X065361Y-050468
T2
X07085Y-041779
X07085Y-0467
X070863Y-049554
X070863Y-054152
X072346Y-041779
X072346Y-0467
X072438Y-049554
X072438Y-054152
X076756Y-041779
X076756Y-0467
X076769Y-049554
X076769Y-054152
X078252Y-041779
X078252Y-0467
X078344Y-049554
X078344Y-054152
X084225Y-041804
X084225Y-046725
X084226Y-049566
X084226Y-054165
X085721Y-041804
X085721Y-046725
X085801Y-049566
X085801Y-054165
X090131Y-041804
X090131Y-046725
X090131Y-049566
X090131Y-054165
X091627Y-041804
X091627Y-046725
X091706Y-049566
X091706Y-054165
T3
X021764Y-045775
X021764Y-04794
X021764Y-049535
X021764Y-0517
X023418Y-045775
X023418Y-04794
X023418Y-049535
X023418Y-0517
X025071Y-045775
X025071Y-04794
X025071Y-049535
X025071Y-0517
X026725Y-045775
X026725Y-04794
X026725Y-049535
X026725Y-0517
X030039Y-045775
X030039Y-04794
X030039Y-049535
X030039Y-0517
X031693Y-045775
X031693Y-04794
X031693Y-049535
X031693Y-0517
X033346Y-045775
X033346Y-04794
X033346Y-049535
X033346Y-0517
X035Y-045775
X035Y-04794
X035Y-049535
X035Y-0517
X038339Y-045775
X038339Y-04794
X038339Y-049535
X038339Y-0517
X039993Y-045775
X039993Y-04794
X039993Y-049535
X039993Y-0517
X041646Y-045775
X041646Y-04794
X041646Y-049535
X041646Y-0517
X0433Y-045775
X0433Y-04794
X0433Y-049535
X0433Y-0517
X046614Y-045775
X046614Y-04794
X046614Y-049535
X046614Y-0517
X048268Y-045775
X048268Y-04794
X048268Y-049535
X048268Y-0517
X049921Y-045775
X049921Y-04794
X049921Y-049535
X049921Y-0517
X051575Y-045775
X051575Y-04794
X051575Y-049535
X051575Y-0517
T4
X054171Y-04559
X054171Y-047826
X054171Y-049299
X054171Y-051535
X059344Y-04559
X059344Y-047826
X059344Y-049299
X059344Y-051535
X061396Y-04559
X061396Y-047826
X061396Y-049299
X061396Y-051535
X066569Y-04559
X066569Y-047826
X066569Y-049299
X066569Y-051535
T0
M30
