G04 #@! TF.FileFunction,Copper,L2,Bot,Signal*
%FSLAX46Y46*%
G04 Gerber Fmt 4.6, Leading zero omitted, Abs format (unit mm)*
G04 Created by KiCad (PCBNEW 4.0.7) date 02/15/18 17:09:35*
%MOMM*%
%LPD*%
G01*
G04 APERTURE LIST*
%ADD10C,0.100000*%
%ADD11C,4.064000*%
%ADD12C,2.800000*%
%ADD13C,1.508000*%
%ADD14C,2.600000*%
%ADD15R,3.000000X3.000000*%
%ADD16C,3.000000*%
%ADD17C,0.250000*%
%ADD18C,0.254000*%
G04 APERTURE END LIST*
D10*
D11*
X48895000Y-103378000D03*
X48704500Y-141414500D03*
D12*
X213931500Y-118681500D03*
X217731500Y-118681500D03*
X213931500Y-106181500D03*
X217731500Y-106181500D03*
X228931500Y-118681500D03*
X232731500Y-118681500D03*
X228931500Y-106181500D03*
X232731500Y-106181500D03*
X179959000Y-118618000D03*
X183759000Y-118618000D03*
X179959000Y-106118000D03*
X183759000Y-106118000D03*
X194959000Y-118618000D03*
X198759000Y-118618000D03*
X194959000Y-106118000D03*
X198759000Y-106118000D03*
D13*
X166016000Y-128189000D03*
X163516000Y-128189000D03*
X159016000Y-128189000D03*
X161516000Y-128189000D03*
X161516000Y-125569000D03*
X159016000Y-125569000D03*
X163516000Y-125569000D03*
X166016000Y-125569000D03*
D14*
X155946000Y-130899000D03*
X169086000Y-130899000D03*
X169086000Y-125219000D03*
X155946000Y-125219000D03*
D13*
X166016000Y-118508500D03*
X163516000Y-118508500D03*
X159016000Y-118508500D03*
X161516000Y-118508500D03*
X161516000Y-121128500D03*
X159016000Y-121128500D03*
X163516000Y-121128500D03*
X166016000Y-121128500D03*
D14*
X155946000Y-115798500D03*
X169086000Y-115798500D03*
X169086000Y-121478500D03*
X155946000Y-121478500D03*
D13*
X147664500Y-128189000D03*
X145164500Y-128189000D03*
X140664500Y-128189000D03*
X143164500Y-128189000D03*
X143164500Y-125569000D03*
X140664500Y-125569000D03*
X145164500Y-125569000D03*
X147664500Y-125569000D03*
D14*
X137594500Y-130899000D03*
X150734500Y-130899000D03*
X150734500Y-125219000D03*
X137594500Y-125219000D03*
D13*
X147664500Y-118508500D03*
X145164500Y-118508500D03*
X140664500Y-118508500D03*
X143164500Y-118508500D03*
X143164500Y-121128500D03*
X140664500Y-121128500D03*
X145164500Y-121128500D03*
X147664500Y-121128500D03*
D14*
X137594500Y-115798500D03*
X150734500Y-115798500D03*
X150734500Y-121478500D03*
X137594500Y-121478500D03*
D12*
X213933500Y-137578000D03*
X217933500Y-137578000D03*
X213933500Y-125898000D03*
X217933500Y-125898000D03*
X228933500Y-125898000D03*
X232933500Y-125898000D03*
X228933500Y-137578000D03*
X232933500Y-137578000D03*
X179992750Y-137546250D03*
X183992750Y-137546250D03*
X179992750Y-125866250D03*
X183992750Y-125866250D03*
X194992750Y-125866250D03*
X198992750Y-125866250D03*
X194992750Y-137546250D03*
X198992750Y-137546250D03*
D15*
X88900000Y-116268500D03*
D16*
X84700000Y-116268500D03*
X80500000Y-116268500D03*
X76300000Y-116268500D03*
X88900000Y-121768500D03*
X84700000Y-121768500D03*
X80500000Y-121768500D03*
X76300000Y-121768500D03*
D15*
X131000500Y-116268500D03*
D16*
X126800500Y-116268500D03*
X122600500Y-116268500D03*
X118400500Y-116268500D03*
X131000500Y-121768500D03*
X126800500Y-121768500D03*
X122600500Y-121768500D03*
X118400500Y-121768500D03*
D15*
X67881500Y-131318000D03*
D16*
X63681500Y-131318000D03*
X59481500Y-131318000D03*
X55281500Y-131318000D03*
X67881500Y-125818000D03*
X63681500Y-125818000D03*
X59481500Y-125818000D03*
X55281500Y-125818000D03*
D15*
X88900000Y-131318000D03*
D16*
X84700000Y-131318000D03*
X80500000Y-131318000D03*
X76300000Y-131318000D03*
X88900000Y-125818000D03*
X84700000Y-125818000D03*
X80500000Y-125818000D03*
X76300000Y-125818000D03*
D15*
X131000500Y-131318000D03*
D16*
X126800500Y-131318000D03*
X122600500Y-131318000D03*
X118400500Y-131318000D03*
X131000500Y-125818000D03*
X126800500Y-125818000D03*
X122600500Y-125818000D03*
X118400500Y-125818000D03*
D15*
X67881500Y-116268500D03*
D16*
X63681500Y-116268500D03*
X59481500Y-116268500D03*
X55281500Y-116268500D03*
X67881500Y-121768500D03*
X63681500Y-121768500D03*
X59481500Y-121768500D03*
X55281500Y-121768500D03*
D15*
X109982000Y-116268500D03*
D16*
X105782000Y-116268500D03*
X101582000Y-116268500D03*
X97382000Y-116268500D03*
X109982000Y-121768500D03*
X105782000Y-121768500D03*
X101582000Y-121768500D03*
X97382000Y-121768500D03*
D15*
X109982000Y-131318000D03*
D16*
X105782000Y-131318000D03*
X101582000Y-131318000D03*
X97382000Y-131318000D03*
X109982000Y-125818000D03*
X105782000Y-125818000D03*
X101582000Y-125818000D03*
X97382000Y-125818000D03*
D11*
X242760500Y-103378000D03*
X242760500Y-141414500D03*
D17*
X159016000Y-121128500D02*
X159016000Y-125569000D01*
X161516000Y-121128500D02*
X161516000Y-125569000D01*
X163516000Y-125569000D02*
X163516000Y-121128500D01*
X166016000Y-121128500D02*
X166016000Y-125569000D01*
X140664500Y-121128500D02*
X140664500Y-125569000D01*
X143164500Y-121128500D02*
X143164500Y-125569000D01*
X145164500Y-125569000D02*
X145164500Y-121128500D01*
X147664500Y-121128500D02*
X147664500Y-125569000D01*
X164994000Y-117030500D02*
X163516000Y-118508500D01*
X166497000Y-117030500D02*
X164994000Y-117030500D01*
X167894000Y-118427500D02*
X166497000Y-117030500D01*
X170751500Y-118427500D02*
X167894000Y-118427500D01*
X171831000Y-119507000D02*
X170751500Y-118427500D01*
X171831000Y-126238000D02*
X171831000Y-119507000D01*
X170053000Y-128016000D02*
X171831000Y-126238000D01*
X168592500Y-128016000D02*
X170053000Y-128016000D01*
X166941500Y-129667000D02*
X168592500Y-128016000D01*
X164338000Y-129667000D02*
X166941500Y-129667000D01*
X163516000Y-128845000D02*
X164338000Y-129667000D01*
X163516000Y-128189000D02*
X163516000Y-128845000D01*
X145164500Y-128189000D02*
X145164500Y-128845000D01*
X145164500Y-128845000D02*
X145986500Y-129667000D01*
X145986500Y-129667000D02*
X148590000Y-129667000D01*
X148590000Y-129667000D02*
X150241000Y-128016000D01*
X150241000Y-128016000D02*
X151701500Y-128016000D01*
X151701500Y-128016000D02*
X153479500Y-126238000D01*
X153479500Y-126238000D02*
X153479500Y-119507000D01*
X153479500Y-119507000D02*
X152400000Y-118427500D01*
X152400000Y-118427500D02*
X149542500Y-118427500D01*
X149542500Y-118427500D02*
X148145500Y-117030500D01*
X148145500Y-117030500D02*
X146642500Y-117030500D01*
X146642500Y-117030500D02*
X145164500Y-118508500D01*
X167141500Y-119634000D02*
X166016000Y-118508500D01*
X170116500Y-119634000D02*
X167141500Y-119634000D01*
X171005500Y-120523000D02*
X170116500Y-119634000D01*
X171005500Y-125984000D02*
X171005500Y-120523000D01*
X169862500Y-127127000D02*
X171005500Y-125984000D01*
X167195500Y-127127000D02*
X169862500Y-127127000D01*
X166133500Y-128189000D02*
X167195500Y-127127000D01*
X166016000Y-128189000D02*
X166133500Y-128189000D01*
X147664500Y-128189000D02*
X147782000Y-128189000D01*
X147782000Y-128189000D02*
X148844000Y-127127000D01*
X148844000Y-127127000D02*
X151511000Y-127127000D01*
X151511000Y-127127000D02*
X152654000Y-125984000D01*
X152654000Y-125984000D02*
X152654000Y-120523000D01*
X152654000Y-120523000D02*
X151765000Y-119634000D01*
X151765000Y-119634000D02*
X148790000Y-119634000D01*
X148790000Y-119634000D02*
X147664500Y-118508500D01*
X90678000Y-131318000D02*
X91313000Y-130683000D01*
X91313000Y-130683000D02*
X91313000Y-117094000D01*
X91313000Y-117094000D02*
X90487500Y-116268500D01*
X90487500Y-116268500D02*
X88900000Y-116268500D01*
X88900000Y-131318000D02*
X90678000Y-131318000D01*
X84700000Y-133214000D02*
X85026500Y-133540500D01*
X85026500Y-133540500D02*
X91249500Y-133540500D01*
X91249500Y-133540500D02*
X92138500Y-132651500D01*
X92138500Y-132651500D02*
X92138500Y-114871500D01*
X92138500Y-114871500D02*
X91313000Y-114046000D01*
X91313000Y-114046000D02*
X85153500Y-114046000D01*
X85153500Y-114046000D02*
X84700000Y-114499500D01*
X84700000Y-114499500D02*
X84700000Y-116268500D01*
X84700000Y-131318000D02*
X84700000Y-133214000D01*
X80500000Y-131318000D02*
X80500000Y-132923500D01*
X80500000Y-132923500D02*
X79946500Y-133477000D01*
X79946500Y-133477000D02*
X74231500Y-133477000D01*
X74231500Y-133477000D02*
X73088500Y-132334000D01*
X73088500Y-132334000D02*
X73088500Y-115062000D01*
X73088500Y-115062000D02*
X74104500Y-114046000D01*
X74104500Y-114046000D02*
X80010000Y-114046000D01*
X80010000Y-114046000D02*
X80500000Y-114536000D01*
X80500000Y-114536000D02*
X80500000Y-116268500D01*
X74612500Y-116268500D02*
X76300000Y-116268500D01*
X73977500Y-116903500D02*
X74612500Y-116268500D01*
X73977500Y-130302000D02*
X73977500Y-116903500D01*
X74993500Y-131318000D02*
X73977500Y-130302000D01*
X76300000Y-131318000D02*
X74993500Y-131318000D01*
X88900000Y-121768500D02*
X88900000Y-125818000D01*
X84700000Y-121768500D02*
X84700000Y-125818000D01*
X80500000Y-121768500D02*
X80500000Y-125818000D01*
X76300000Y-121768500D02*
X76300000Y-125818000D01*
X132715000Y-131318000D02*
X133350000Y-130683000D01*
X133350000Y-130683000D02*
X133350000Y-117094000D01*
X133350000Y-117094000D02*
X132524500Y-116268500D01*
X132524500Y-116268500D02*
X130937000Y-116268500D01*
X130937000Y-131318000D02*
X132715000Y-131318000D01*
X126737000Y-133214000D02*
X127063500Y-133540500D01*
X127063500Y-133540500D02*
X133286500Y-133540500D01*
X133286500Y-133540500D02*
X134175500Y-132651500D01*
X134175500Y-132651500D02*
X134175500Y-114871500D01*
X134175500Y-114871500D02*
X133350000Y-114046000D01*
X133350000Y-114046000D02*
X127190500Y-114046000D01*
X127190500Y-114046000D02*
X126737000Y-114499500D01*
X126737000Y-114499500D02*
X126737000Y-116268500D01*
X126737000Y-131318000D02*
X126737000Y-133214000D01*
X122537000Y-131318000D02*
X122537000Y-132923500D01*
X122537000Y-132923500D02*
X121983500Y-133477000D01*
X121983500Y-133477000D02*
X116268500Y-133477000D01*
X116268500Y-133477000D02*
X115125500Y-132334000D01*
X115125500Y-132334000D02*
X115125500Y-115062000D01*
X115125500Y-115062000D02*
X116141500Y-114046000D01*
X116141500Y-114046000D02*
X122047000Y-114046000D01*
X122047000Y-114046000D02*
X122537000Y-114536000D01*
X122537000Y-114536000D02*
X122537000Y-116268500D01*
X116649500Y-116268500D02*
X118337000Y-116268500D01*
X116014500Y-116903500D02*
X116649500Y-116268500D01*
X116014500Y-130302000D02*
X116014500Y-116903500D01*
X117030500Y-131318000D02*
X116014500Y-130302000D01*
X118337000Y-131318000D02*
X117030500Y-131318000D01*
X130937000Y-121768500D02*
X130937000Y-125818000D01*
X126737000Y-121768500D02*
X126737000Y-125818000D01*
X122537000Y-121768500D02*
X122537000Y-125818000D01*
X118337000Y-121768500D02*
X118337000Y-125818000D01*
X67881500Y-131318000D02*
X69659500Y-131318000D01*
X69469000Y-116268500D02*
X67881500Y-116268500D01*
X70294500Y-117094000D02*
X69469000Y-116268500D01*
X70294500Y-130683000D02*
X70294500Y-117094000D01*
X69659500Y-131318000D02*
X70294500Y-130683000D01*
X63681500Y-131318000D02*
X63681500Y-133214000D01*
X63681500Y-114499500D02*
X63681500Y-116268500D01*
X64135000Y-114046000D02*
X63681500Y-114499500D01*
X70294500Y-114046000D02*
X64135000Y-114046000D01*
X71120000Y-114871500D02*
X70294500Y-114046000D01*
X71120000Y-132651500D02*
X71120000Y-114871500D01*
X70231000Y-133540500D02*
X71120000Y-132651500D01*
X64008000Y-133540500D02*
X70231000Y-133540500D01*
X63681500Y-133214000D02*
X64008000Y-133540500D01*
X59481500Y-114536000D02*
X59481500Y-116268500D01*
X58991500Y-114046000D02*
X59481500Y-114536000D01*
X53086000Y-114046000D02*
X58991500Y-114046000D01*
X52070000Y-115062000D02*
X53086000Y-114046000D01*
X52070000Y-132334000D02*
X52070000Y-115062000D01*
X53213000Y-133477000D02*
X52070000Y-132334000D01*
X58928000Y-133477000D02*
X53213000Y-133477000D01*
X59481500Y-132923500D02*
X58928000Y-133477000D01*
X59481500Y-131318000D02*
X59481500Y-132923500D01*
X55281500Y-131318000D02*
X53975000Y-131318000D01*
X53975000Y-131318000D02*
X52959000Y-130302000D01*
X52959000Y-130302000D02*
X52959000Y-116903500D01*
X52959000Y-116903500D02*
X53594000Y-116268500D01*
X53594000Y-116268500D02*
X55281500Y-116268500D01*
X67881500Y-121768500D02*
X67881500Y-125818000D01*
X63681500Y-121768500D02*
X63681500Y-125818000D01*
X59481500Y-121768500D02*
X59481500Y-125818000D01*
X55281500Y-121768500D02*
X55281500Y-125818000D01*
X109918500Y-131318000D02*
X111696500Y-131318000D01*
X111506000Y-116268500D02*
X109918500Y-116268500D01*
X112331500Y-117094000D02*
X111506000Y-116268500D01*
X112331500Y-130683000D02*
X112331500Y-117094000D01*
X111696500Y-131318000D02*
X112331500Y-130683000D01*
X105718500Y-131318000D02*
X105718500Y-133214000D01*
X105718500Y-114499500D02*
X105718500Y-116268500D01*
X106172000Y-114046000D02*
X105718500Y-114499500D01*
X112331500Y-114046000D02*
X106172000Y-114046000D01*
X113157000Y-114871500D02*
X112331500Y-114046000D01*
X113157000Y-132651500D02*
X113157000Y-114871500D01*
X112268000Y-133540500D02*
X113157000Y-132651500D01*
X106045000Y-133540500D02*
X112268000Y-133540500D01*
X105718500Y-133214000D02*
X106045000Y-133540500D01*
X101518500Y-114536000D02*
X101518500Y-116268500D01*
X101028500Y-114046000D02*
X101518500Y-114536000D01*
X95123000Y-114046000D02*
X101028500Y-114046000D01*
X94107000Y-115062000D02*
X95123000Y-114046000D01*
X94107000Y-132334000D02*
X94107000Y-115062000D01*
X95250000Y-133477000D02*
X94107000Y-132334000D01*
X100965000Y-133477000D02*
X95250000Y-133477000D01*
X101518500Y-132923500D02*
X100965000Y-133477000D01*
X101518500Y-131318000D02*
X101518500Y-132923500D01*
X97318500Y-131318000D02*
X96012000Y-131318000D01*
X96012000Y-131318000D02*
X94996000Y-130302000D01*
X94996000Y-130302000D02*
X94996000Y-116903500D01*
X94996000Y-116903500D02*
X95631000Y-116268500D01*
X95631000Y-116268500D02*
X97318500Y-116268500D01*
X109918500Y-121768500D02*
X109918500Y-125818000D01*
X105718500Y-121768500D02*
X105718500Y-125818000D01*
X101518500Y-121768500D02*
X101518500Y-125818000D01*
X97318500Y-121768500D02*
X97318500Y-125818000D01*
D18*
G36*
X186944208Y-140970000D02*
X177165000Y-140970000D01*
X177165000Y-102489000D01*
X187007291Y-102489000D01*
X186944208Y-140970000D01*
X186944208Y-140970000D01*
G37*
X186944208Y-140970000D02*
X177165000Y-140970000D01*
X177165000Y-102489000D01*
X187007291Y-102489000D01*
X186944208Y-140970000D01*
G36*
X201993708Y-140970000D02*
X192214500Y-140970000D01*
X192214500Y-102489000D01*
X202056791Y-102489000D01*
X201993708Y-140970000D01*
X201993708Y-140970000D01*
G37*
X201993708Y-140970000D02*
X192214500Y-140970000D01*
X192214500Y-102489000D01*
X202056791Y-102489000D01*
X201993708Y-140970000D01*
G36*
X220472208Y-140970000D02*
X210693000Y-140970000D01*
X210693000Y-102489000D01*
X220535291Y-102489000D01*
X220472208Y-140970000D01*
X220472208Y-140970000D01*
G37*
X220472208Y-140970000D02*
X210693000Y-140970000D01*
X210693000Y-102489000D01*
X220535291Y-102489000D01*
X220472208Y-140970000D01*
G36*
X235521708Y-140970000D02*
X225742500Y-140970000D01*
X225742500Y-102489000D01*
X235584791Y-102489000D01*
X235521708Y-140970000D01*
X235521708Y-140970000D01*
G37*
X235521708Y-140970000D02*
X225742500Y-140970000D01*
X225742500Y-102489000D01*
X235584791Y-102489000D01*
X235521708Y-140970000D01*
M02*
