M48
;DRILL file {KiCad 4.0.7} date 04/30/18 00:59:03
;FORMAT={3:3/ absolute / metric / suppress trailing zeros}
FMAT,2
METRIC,LZ
T1C0.400
T2C0.700
T3C1.100
T4C1.400
T5C1.500
T6C1.600
T7C1.700
T8C2.300
T9C1.100
T10C3.200
%
G90
G05
M71
T1
X076789Y-123532
T2
X139462Y-114432
X139462Y-116432
X139462Y-118432
X139462Y-120432
X139462Y-122432
X140962Y-114932
X140962Y-117432
X140962Y-119432
X140962Y-121932
X142662Y-114432
X142662Y-116432
X142662Y-118422
X142662Y-120432
X142662Y-122432
X144162Y-114932
X144162Y-117432
X144162Y-119432
X144162Y-121932
X159575Y-114972
X159575Y-117472
X159575Y-119472
X159575Y-121972
X161075Y-114472
X161075Y-116472
X161075Y-118462
X161075Y-120472
X161075Y-122472
X162775Y-114972
X162775Y-117472
X162775Y-119472
X162775Y-121972
X164274Y-114472
X164274Y-116472
X164274Y-118472
X164274Y-120472
X164274Y-122472
T3
X081189Y-138232
X081189Y-142042
X081189Y-145852
X131989Y-149662
X132009Y-134422
T4
X083889Y-116432
X088889Y-116432
X093889Y-116432
X098899Y-116422
X103899Y-116422
X108889Y-116432
X113889Y-116432
X118899Y-116422
X123899Y-116422
X128889Y-116432
T5
X062649Y-122834
X062649Y-127914
X062649Y-132994
X062649Y-138074
X062649Y-143154
X062649Y-148234
T6
X144015Y-133081
X144015Y-136881
X144015Y-148081
X144015Y-151881
X156515Y-133081
X156515Y-136881
X156515Y-148081
X156515Y-151881
T7
X081189Y-134372
X081189Y-149662
T8
X140482Y-111862
X140482Y-125002
X146152Y-111862
X146162Y-125002
X157575Y-125042
X157584Y-111902
X163255Y-111902
X163255Y-125042
T9
X131989Y-142042
T10
X0533Y-1094
X0533Y-1614
X1733Y-1094
X1733Y-1614
T0
M30
