M48
;DRILL file {KiCad 4.0.7} date 05/16/18 04:16:46
;FORMAT={3:3/ absolute / metric / suppress trailing zeros}
FMAT,2
METRIC,LZ
T1C0.400
T2C0.700
T3C0.800
T4C1.400
T5C1.500
T6C1.600
T7C2.300
T8C3.200
%
G90
G05
M71
T2
X106089Y-119535
X106089Y-122035
X106089Y-124035
X106089Y-126535
X107589Y-119035
X107589Y-121035
X107589Y-123025
X107589Y-125035
X107589Y-127035
X109289Y-119535
X109289Y-122035
X109289Y-124035
X109289Y-126535
X110789Y-119035
X110789Y-121035
X110789Y-123035
X110789Y-125035
X110789Y-127035
X11447Y-119003
X11447Y-121003
X11447Y-123003
X11447Y-125003
X11447Y-127003
X11597Y-119503
X11597Y-122003
X11597Y-124003
X11597Y-126503
X11767Y-119003
X11767Y-121003
X11767Y-122993
X11767Y-125003
X11767Y-127003
X11917Y-119503
X11917Y-122003
X11917Y-124003
X11917Y-126503
T3
X122428Y-103124
X124928Y-103124
T4
X096967Y-073787
X101957Y-073797
X106957Y-073797
X111967Y-073787
X116967Y-073787
X121957Y-073797
X126957Y-073797
X131967Y-073787
X136967Y-073787
X141967Y-073787
T5
X149987Y-083566
X149987Y-088646
X149987Y-093726
X149987Y-098806
X149987Y-103886
X149987Y-108966
T6
X099768Y-085608
X099768Y-089408
X099768Y-100608
X099768Y-104408
X112268Y-085608
X112268Y-089408
X112268Y-100608
X112268Y-104408
T7
X104089Y-129605
X104099Y-116465
X109769Y-116465
X109769Y-129605
X11549Y-116433
X11549Y-129573
X12116Y-116433
X12117Y-129573
T8
X0889Y-07112
X0889Y-12954
X15748Y-07112
X15748Y-12954
T1
X137033Y-082554G85X137033Y-083054
G05
X137033Y-085094G85X137033Y-085594
G05
X137033Y-087634G85X137033Y-088134
G05
X137033Y-090174G85X137033Y-090674
G05
X137033Y-092714G85X137033Y-093214
G05
X137033Y-095254G85X137033Y-095754
G05
X137033Y-097794G85X137033Y-098294
G05
X137033Y-100334G85X137033Y-100834
G05
X137033Y-102874G85X137033Y-103374
G05
X137033Y-105414G85X137033Y-105914
G05
X137033Y-107954G85X137033Y-108454
G05
X137033Y-110494G85X137033Y-110994
G05
T0
M30
