G04 #@! TF.FileFunction,Copper,L2,Bot,Signal*
%FSLAX46Y46*%
G04 Gerber Fmt 4.6, Leading zero omitted, Abs format (unit mm)*
G04 Created by KiCad (PCBNEW 4.0.7) date 05/16/18 04:16:24*
%MOMM*%
%LPD*%
G01*
G04 APERTURE LIST*
%ADD10C,0.100000*%
%ADD11R,1.600000X1.600000*%
%ADD12C,1.600000*%
%ADD13C,2.400000*%
%ADD14C,1.000000*%
%ADD15R,3.000000X3.000000*%
%ADD16C,3.000000*%
%ADD17C,2.800000*%
%ADD18R,1.000000X1.524000*%
%ADD19C,1.250000*%
%ADD20C,0.250000*%
%ADD21C,0.500000*%
%ADD22C,0.254000*%
G04 APERTURE END LIST*
D10*
D11*
X124928000Y-103124000D03*
D12*
X122428000Y-103124000D03*
D13*
X104089272Y-129604668D03*
X109769272Y-129604668D03*
X109769272Y-116464668D03*
X104099272Y-116464668D03*
D14*
X106089272Y-119534668D03*
X106089272Y-126534668D03*
X106089272Y-124034668D03*
X106089272Y-122034668D03*
X107589272Y-119034668D03*
X107589272Y-121034668D03*
X107589272Y-123024668D03*
X107589272Y-125034668D03*
X107589272Y-127034668D03*
X109289272Y-126534668D03*
X109289272Y-124034668D03*
X109289272Y-122034668D03*
X109289272Y-119534668D03*
X110789272Y-119034668D03*
X110789272Y-121034668D03*
X110789272Y-123034668D03*
X110789272Y-125034668D03*
X110789272Y-127034668D03*
D13*
X121170272Y-129572668D03*
X115490272Y-129572668D03*
X115490272Y-116432668D03*
X121160272Y-116432668D03*
D14*
X119170272Y-119502668D03*
X119170272Y-126502668D03*
X119170272Y-124002668D03*
X119170272Y-122002668D03*
X117670272Y-119002668D03*
X117670272Y-121002668D03*
X117670272Y-122992668D03*
X117670272Y-125002668D03*
X117670272Y-127002668D03*
X115970272Y-126502668D03*
X115970272Y-124002668D03*
X115970272Y-122002668D03*
X115970272Y-119502668D03*
X114470272Y-119002668D03*
X114470272Y-121002668D03*
X114470272Y-123002668D03*
X114470272Y-125002668D03*
X114470272Y-127002668D03*
D15*
X149987000Y-108966000D03*
D16*
X149987000Y-103886000D03*
X149987000Y-98806000D03*
X149987000Y-93726000D03*
X149987000Y-88646000D03*
X149987000Y-83566000D03*
D17*
X99768000Y-85608000D03*
X99768000Y-89408000D03*
X112268000Y-85608000D03*
X112268000Y-89408000D03*
X99768000Y-100608000D03*
X99768000Y-104408000D03*
X112268000Y-100608000D03*
X112268000Y-104408000D03*
D16*
X96967000Y-73787000D03*
X101957000Y-73797000D03*
X106957000Y-73797000D03*
X111967000Y-73787000D03*
X116967000Y-73787000D03*
X121957000Y-73797000D03*
X126957000Y-73797000D03*
X131967000Y-73787000D03*
X136967000Y-73787000D03*
X141967000Y-73787000D03*
D18*
X137033000Y-82804000D03*
X137033000Y-85344000D03*
X137033000Y-87884000D03*
X137033000Y-90424000D03*
X137033000Y-95504000D03*
X137033000Y-100584000D03*
X137033000Y-92964000D03*
X137033000Y-98044000D03*
X137033000Y-110744000D03*
X137033000Y-103124000D03*
X137033000Y-105664000D03*
X137033000Y-108204000D03*
D19*
X144018000Y-103124000D02*
X146558000Y-103124000D01*
X127474000Y-103124000D02*
X124928000Y-103124000D01*
X136283000Y-103124000D02*
X137033000Y-103124000D01*
X127474000Y-103124000D02*
X136283000Y-103124000D01*
X146558000Y-103124000D02*
X146558000Y-107696000D01*
X146558000Y-98298000D02*
X146558000Y-103124000D01*
X144018000Y-103124000D02*
X137033000Y-103124000D01*
X146558000Y-107696000D02*
X147828000Y-108966000D01*
X147828000Y-108966000D02*
X149987000Y-108966000D01*
X146558000Y-98298000D02*
X146558000Y-98609514D01*
X146558000Y-89953680D02*
X146558000Y-98298000D01*
X149987000Y-88646000D02*
X147865680Y-88646000D01*
X147865680Y-88646000D02*
X146558000Y-89953680D01*
X146558000Y-98609514D02*
X146754486Y-98806000D01*
X146754486Y-98806000D02*
X149987000Y-98806000D01*
D20*
X106089272Y-119534668D02*
X106089272Y-119192674D01*
X118243374Y-118137853D02*
X119170272Y-119064751D01*
X106089272Y-119192674D02*
X107144093Y-118137853D01*
X107144093Y-118137853D02*
X118243374Y-118137853D01*
X119170272Y-119064751D02*
X119170272Y-119502668D01*
X106089272Y-126534668D02*
X106089272Y-126895455D01*
X106089272Y-126895455D02*
X107122519Y-127928702D01*
X107122519Y-127928702D02*
X118077384Y-127928702D01*
X118077384Y-127928702D02*
X119170272Y-126835814D01*
X119170272Y-126835814D02*
X119170272Y-126502668D01*
X106089272Y-124034668D02*
X107976643Y-124034668D01*
X107976643Y-124034668D02*
X108852927Y-124910952D01*
X108852927Y-124910952D02*
X109691986Y-124910952D01*
X114744555Y-123997953D02*
X115679890Y-124933288D01*
X115679890Y-124933288D02*
X116518650Y-124933288D01*
X109691986Y-124910952D02*
X110604985Y-123997953D01*
X110604985Y-123997953D02*
X114744555Y-123997953D01*
X116518650Y-124933288D02*
X117449270Y-124002668D01*
X117449270Y-124002668D02*
X118463166Y-124002668D01*
X118463166Y-124002668D02*
X119170272Y-124002668D01*
X106089272Y-122034668D02*
X107919261Y-122034668D01*
X115565239Y-121177667D02*
X116624269Y-121177667D01*
X118463166Y-122002668D02*
X119170272Y-122002668D01*
X107919261Y-122034668D02*
X108798282Y-121155647D01*
X108798282Y-121155647D02*
X109636381Y-121155647D01*
X109636381Y-121155647D02*
X110517432Y-122036698D01*
X110517432Y-122036698D02*
X114706208Y-122036698D01*
X114706208Y-122036698D02*
X115565239Y-121177667D01*
X116624269Y-121177667D02*
X117449270Y-122002668D01*
X117449270Y-122002668D02*
X118463166Y-122002668D01*
X109289272Y-126534668D02*
X109677957Y-126145983D01*
X109677957Y-126145983D02*
X115613587Y-126145983D01*
X115613587Y-126145983D02*
X115970272Y-126502668D01*
X109289272Y-119534668D02*
X109749100Y-119994496D01*
X109749100Y-119994496D02*
X115462102Y-119994496D01*
X115462102Y-119994496D02*
X115470273Y-120002667D01*
X115470273Y-120002667D02*
X115970272Y-119502668D01*
D19*
X96967000Y-73787000D02*
X96967000Y-74221874D01*
X102247126Y-79502000D02*
X106934000Y-79502000D01*
X96967000Y-74221874D02*
X102247126Y-79502000D01*
X137033000Y-87884000D02*
X113792000Y-87884000D01*
D20*
X113792000Y-87884000D02*
X112268000Y-89408000D01*
D19*
X127000000Y-79502000D02*
X131252000Y-79502000D01*
X131252000Y-79502000D02*
X136967000Y-73787000D01*
X127000000Y-79502000D02*
X126957000Y-79459000D01*
X126957000Y-79459000D02*
X126957000Y-73797000D01*
X116840000Y-79502000D02*
X127000000Y-79502000D01*
X106680000Y-79502000D02*
X116840000Y-79502000D01*
X116840000Y-79502000D02*
X116967000Y-79375000D01*
X116967000Y-79375000D02*
X116967000Y-73787000D01*
X106680000Y-79502000D02*
X105874000Y-79502000D01*
X106934000Y-79502000D02*
X106680000Y-79502000D01*
X105874000Y-79502000D02*
X99768000Y-85608000D01*
X106934000Y-79502000D02*
X106957000Y-79479000D01*
X106957000Y-79479000D02*
X106957000Y-73797000D01*
D21*
X113284000Y-90424000D02*
X112268000Y-89408000D01*
D19*
X112532000Y-85344000D02*
X112268000Y-85608000D01*
D22*
G36*
X117475000Y-92837000D02*
X94869000Y-92837000D01*
X94869000Y-90849724D01*
X98505882Y-90849724D01*
X98653455Y-91158106D01*
X99408031Y-91451405D01*
X100217409Y-91433614D01*
X100882545Y-91158106D01*
X101030118Y-90849724D01*
X111005882Y-90849724D01*
X111153455Y-91158106D01*
X111908031Y-91451405D01*
X112717409Y-91433614D01*
X113382545Y-91158106D01*
X113530118Y-90849724D01*
X112268000Y-89587605D01*
X111005882Y-90849724D01*
X101030118Y-90849724D01*
X99768000Y-89587605D01*
X98505882Y-90849724D01*
X94869000Y-90849724D01*
X94869000Y-89048031D01*
X97724595Y-89048031D01*
X97742386Y-89857409D01*
X98017894Y-90522545D01*
X98326276Y-90670118D01*
X99588395Y-89408000D01*
X99947605Y-89408000D01*
X101209724Y-90670118D01*
X101518106Y-90522545D01*
X101811405Y-89767969D01*
X101795580Y-89048031D01*
X110224595Y-89048031D01*
X110242386Y-89857409D01*
X110517894Y-90522545D01*
X110826276Y-90670118D01*
X112088395Y-89408000D01*
X112447605Y-89408000D01*
X113709724Y-90670118D01*
X114018106Y-90522545D01*
X114311405Y-89767969D01*
X114293614Y-88958591D01*
X114018106Y-88293455D01*
X113709724Y-88145882D01*
X112447605Y-89408000D01*
X112088395Y-89408000D01*
X110826276Y-88145882D01*
X110517894Y-88293455D01*
X110224595Y-89048031D01*
X101795580Y-89048031D01*
X101793614Y-88958591D01*
X101518106Y-88293455D01*
X101209724Y-88145882D01*
X99947605Y-89408000D01*
X99588395Y-89408000D01*
X98326276Y-88145882D01*
X98017894Y-88293455D01*
X97724595Y-89048031D01*
X94869000Y-89048031D01*
X94869000Y-87049724D01*
X98505882Y-87049724D01*
X98653455Y-87358106D01*
X99026833Y-87503236D01*
X98653455Y-87657894D01*
X98505882Y-87966276D01*
X99768000Y-89228395D01*
X101030118Y-87966276D01*
X100882545Y-87657894D01*
X100509167Y-87512764D01*
X100882545Y-87358106D01*
X101030118Y-87049724D01*
X111005882Y-87049724D01*
X111153455Y-87358106D01*
X111526833Y-87503236D01*
X111153455Y-87657894D01*
X111005882Y-87966276D01*
X112268000Y-89228395D01*
X113530118Y-87966276D01*
X113382545Y-87657894D01*
X113009167Y-87512764D01*
X113382545Y-87358106D01*
X113530118Y-87049724D01*
X112268000Y-85787605D01*
X111005882Y-87049724D01*
X101030118Y-87049724D01*
X99768000Y-85787605D01*
X98505882Y-87049724D01*
X94869000Y-87049724D01*
X94869000Y-85248031D01*
X97724595Y-85248031D01*
X97742386Y-86057409D01*
X98017894Y-86722545D01*
X98326276Y-86870118D01*
X99588395Y-85608000D01*
X99947605Y-85608000D01*
X101209724Y-86870118D01*
X101518106Y-86722545D01*
X101811405Y-85967969D01*
X101795580Y-85248031D01*
X110224595Y-85248031D01*
X110242386Y-86057409D01*
X110517894Y-86722545D01*
X110826276Y-86870118D01*
X112088395Y-85608000D01*
X112447605Y-85608000D01*
X113709724Y-86870118D01*
X114018106Y-86722545D01*
X114311405Y-85967969D01*
X114293614Y-85158591D01*
X114018106Y-84493455D01*
X113709724Y-84345882D01*
X112447605Y-85608000D01*
X112088395Y-85608000D01*
X110826276Y-84345882D01*
X110517894Y-84493455D01*
X110224595Y-85248031D01*
X101795580Y-85248031D01*
X101793614Y-85158591D01*
X101518106Y-84493455D01*
X101209724Y-84345882D01*
X99947605Y-85608000D01*
X99588395Y-85608000D01*
X98326276Y-84345882D01*
X98017894Y-84493455D01*
X97724595Y-85248031D01*
X94869000Y-85248031D01*
X94869000Y-84166276D01*
X98505882Y-84166276D01*
X99768000Y-85428395D01*
X101030118Y-84166276D01*
X111005882Y-84166276D01*
X112268000Y-85428395D01*
X113530118Y-84166276D01*
X113382545Y-83857894D01*
X112627969Y-83564595D01*
X111818591Y-83582386D01*
X111153455Y-83857894D01*
X111005882Y-84166276D01*
X101030118Y-84166276D01*
X100882545Y-83857894D01*
X100127969Y-83564595D01*
X99318591Y-83582386D01*
X98653455Y-83857894D01*
X98505882Y-84166276D01*
X94869000Y-84166276D01*
X94869000Y-82677000D01*
X117475000Y-82677000D01*
X117475000Y-92837000D01*
X117475000Y-92837000D01*
G37*
X117475000Y-92837000D02*
X94869000Y-92837000D01*
X94869000Y-90849724D01*
X98505882Y-90849724D01*
X98653455Y-91158106D01*
X99408031Y-91451405D01*
X100217409Y-91433614D01*
X100882545Y-91158106D01*
X101030118Y-90849724D01*
X111005882Y-90849724D01*
X111153455Y-91158106D01*
X111908031Y-91451405D01*
X112717409Y-91433614D01*
X113382545Y-91158106D01*
X113530118Y-90849724D01*
X112268000Y-89587605D01*
X111005882Y-90849724D01*
X101030118Y-90849724D01*
X99768000Y-89587605D01*
X98505882Y-90849724D01*
X94869000Y-90849724D01*
X94869000Y-89048031D01*
X97724595Y-89048031D01*
X97742386Y-89857409D01*
X98017894Y-90522545D01*
X98326276Y-90670118D01*
X99588395Y-89408000D01*
X99947605Y-89408000D01*
X101209724Y-90670118D01*
X101518106Y-90522545D01*
X101811405Y-89767969D01*
X101795580Y-89048031D01*
X110224595Y-89048031D01*
X110242386Y-89857409D01*
X110517894Y-90522545D01*
X110826276Y-90670118D01*
X112088395Y-89408000D01*
X112447605Y-89408000D01*
X113709724Y-90670118D01*
X114018106Y-90522545D01*
X114311405Y-89767969D01*
X114293614Y-88958591D01*
X114018106Y-88293455D01*
X113709724Y-88145882D01*
X112447605Y-89408000D01*
X112088395Y-89408000D01*
X110826276Y-88145882D01*
X110517894Y-88293455D01*
X110224595Y-89048031D01*
X101795580Y-89048031D01*
X101793614Y-88958591D01*
X101518106Y-88293455D01*
X101209724Y-88145882D01*
X99947605Y-89408000D01*
X99588395Y-89408000D01*
X98326276Y-88145882D01*
X98017894Y-88293455D01*
X97724595Y-89048031D01*
X94869000Y-89048031D01*
X94869000Y-87049724D01*
X98505882Y-87049724D01*
X98653455Y-87358106D01*
X99026833Y-87503236D01*
X98653455Y-87657894D01*
X98505882Y-87966276D01*
X99768000Y-89228395D01*
X101030118Y-87966276D01*
X100882545Y-87657894D01*
X100509167Y-87512764D01*
X100882545Y-87358106D01*
X101030118Y-87049724D01*
X111005882Y-87049724D01*
X111153455Y-87358106D01*
X111526833Y-87503236D01*
X111153455Y-87657894D01*
X111005882Y-87966276D01*
X112268000Y-89228395D01*
X113530118Y-87966276D01*
X113382545Y-87657894D01*
X113009167Y-87512764D01*
X113382545Y-87358106D01*
X113530118Y-87049724D01*
X112268000Y-85787605D01*
X111005882Y-87049724D01*
X101030118Y-87049724D01*
X99768000Y-85787605D01*
X98505882Y-87049724D01*
X94869000Y-87049724D01*
X94869000Y-85248031D01*
X97724595Y-85248031D01*
X97742386Y-86057409D01*
X98017894Y-86722545D01*
X98326276Y-86870118D01*
X99588395Y-85608000D01*
X99947605Y-85608000D01*
X101209724Y-86870118D01*
X101518106Y-86722545D01*
X101811405Y-85967969D01*
X101795580Y-85248031D01*
X110224595Y-85248031D01*
X110242386Y-86057409D01*
X110517894Y-86722545D01*
X110826276Y-86870118D01*
X112088395Y-85608000D01*
X112447605Y-85608000D01*
X113709724Y-86870118D01*
X114018106Y-86722545D01*
X114311405Y-85967969D01*
X114293614Y-85158591D01*
X114018106Y-84493455D01*
X113709724Y-84345882D01*
X112447605Y-85608000D01*
X112088395Y-85608000D01*
X110826276Y-84345882D01*
X110517894Y-84493455D01*
X110224595Y-85248031D01*
X101795580Y-85248031D01*
X101793614Y-85158591D01*
X101518106Y-84493455D01*
X101209724Y-84345882D01*
X99947605Y-85608000D01*
X99588395Y-85608000D01*
X98326276Y-84345882D01*
X98017894Y-84493455D01*
X97724595Y-85248031D01*
X94869000Y-85248031D01*
X94869000Y-84166276D01*
X98505882Y-84166276D01*
X99768000Y-85428395D01*
X101030118Y-84166276D01*
X111005882Y-84166276D01*
X112268000Y-85428395D01*
X113530118Y-84166276D01*
X113382545Y-83857894D01*
X112627969Y-83564595D01*
X111818591Y-83582386D01*
X111153455Y-83857894D01*
X111005882Y-84166276D01*
X101030118Y-84166276D01*
X100882545Y-83857894D01*
X100127969Y-83564595D01*
X99318591Y-83582386D01*
X98653455Y-83857894D01*
X98505882Y-84166276D01*
X94869000Y-84166276D01*
X94869000Y-82677000D01*
X117475000Y-82677000D01*
X117475000Y-92837000D01*
G36*
X135898000Y-102235691D02*
X135898000Y-102838250D01*
X136056750Y-102997000D01*
X136906000Y-102997000D01*
X136906000Y-102977000D01*
X137160000Y-102977000D01*
X137160000Y-102997000D01*
X138009250Y-102997000D01*
X138168000Y-102838250D01*
X138168000Y-102235691D01*
X138167714Y-102235000D01*
X141097000Y-102235000D01*
X141097000Y-109347000D01*
X138050025Y-109347000D01*
X138071327Y-109325698D01*
X138168000Y-109092309D01*
X138168000Y-108489750D01*
X138009250Y-108331000D01*
X137160000Y-108331000D01*
X137160000Y-108351000D01*
X136906000Y-108351000D01*
X136906000Y-108331000D01*
X136056750Y-108331000D01*
X135898000Y-108489750D01*
X135898000Y-109092309D01*
X135994673Y-109325698D01*
X136015975Y-109347000D01*
X135001000Y-109347000D01*
X135001000Y-105949750D01*
X135898000Y-105949750D01*
X135898000Y-106552309D01*
X135994673Y-106785698D01*
X136142974Y-106934000D01*
X135994673Y-107082302D01*
X135898000Y-107315691D01*
X135898000Y-107918250D01*
X136056750Y-108077000D01*
X136906000Y-108077000D01*
X136906000Y-106965750D01*
X136874250Y-106934000D01*
X136906000Y-106902250D01*
X136906000Y-105791000D01*
X137160000Y-105791000D01*
X137160000Y-106902250D01*
X137191750Y-106934000D01*
X137160000Y-106965750D01*
X137160000Y-108077000D01*
X138009250Y-108077000D01*
X138168000Y-107918250D01*
X138168000Y-107315691D01*
X138071327Y-107082302D01*
X137923026Y-106934000D01*
X138071327Y-106785698D01*
X138168000Y-106552309D01*
X138168000Y-105949750D01*
X138009250Y-105791000D01*
X137160000Y-105791000D01*
X136906000Y-105791000D01*
X136056750Y-105791000D01*
X135898000Y-105949750D01*
X135001000Y-105949750D01*
X135001000Y-103409750D01*
X135898000Y-103409750D01*
X135898000Y-104012309D01*
X135994673Y-104245698D01*
X136142974Y-104394000D01*
X135994673Y-104542302D01*
X135898000Y-104775691D01*
X135898000Y-105378250D01*
X136056750Y-105537000D01*
X136906000Y-105537000D01*
X136906000Y-104425750D01*
X136874250Y-104394000D01*
X136906000Y-104362250D01*
X136906000Y-103251000D01*
X137160000Y-103251000D01*
X137160000Y-104362250D01*
X137191750Y-104394000D01*
X137160000Y-104425750D01*
X137160000Y-105537000D01*
X138009250Y-105537000D01*
X138168000Y-105378250D01*
X138168000Y-104775691D01*
X138071327Y-104542302D01*
X137923026Y-104394000D01*
X138071327Y-104245698D01*
X138168000Y-104012309D01*
X138168000Y-103409750D01*
X138009250Y-103251000D01*
X137160000Y-103251000D01*
X136906000Y-103251000D01*
X136056750Y-103251000D01*
X135898000Y-103409750D01*
X135001000Y-103409750D01*
X135001000Y-102235000D01*
X135898286Y-102235000D01*
X135898000Y-102235691D01*
X135898000Y-102235691D01*
G37*
X135898000Y-102235691D02*
X135898000Y-102838250D01*
X136056750Y-102997000D01*
X136906000Y-102997000D01*
X136906000Y-102977000D01*
X137160000Y-102977000D01*
X137160000Y-102997000D01*
X138009250Y-102997000D01*
X138168000Y-102838250D01*
X138168000Y-102235691D01*
X138167714Y-102235000D01*
X141097000Y-102235000D01*
X141097000Y-109347000D01*
X138050025Y-109347000D01*
X138071327Y-109325698D01*
X138168000Y-109092309D01*
X138168000Y-108489750D01*
X138009250Y-108331000D01*
X137160000Y-108331000D01*
X137160000Y-108351000D01*
X136906000Y-108351000D01*
X136906000Y-108331000D01*
X136056750Y-108331000D01*
X135898000Y-108489750D01*
X135898000Y-109092309D01*
X135994673Y-109325698D01*
X136015975Y-109347000D01*
X135001000Y-109347000D01*
X135001000Y-105949750D01*
X135898000Y-105949750D01*
X135898000Y-106552309D01*
X135994673Y-106785698D01*
X136142974Y-106934000D01*
X135994673Y-107082302D01*
X135898000Y-107315691D01*
X135898000Y-107918250D01*
X136056750Y-108077000D01*
X136906000Y-108077000D01*
X136906000Y-106965750D01*
X136874250Y-106934000D01*
X136906000Y-106902250D01*
X136906000Y-105791000D01*
X137160000Y-105791000D01*
X137160000Y-106902250D01*
X137191750Y-106934000D01*
X137160000Y-106965750D01*
X137160000Y-108077000D01*
X138009250Y-108077000D01*
X138168000Y-107918250D01*
X138168000Y-107315691D01*
X138071327Y-107082302D01*
X137923026Y-106934000D01*
X138071327Y-106785698D01*
X138168000Y-106552309D01*
X138168000Y-105949750D01*
X138009250Y-105791000D01*
X137160000Y-105791000D01*
X136906000Y-105791000D01*
X136056750Y-105791000D01*
X135898000Y-105949750D01*
X135001000Y-105949750D01*
X135001000Y-103409750D01*
X135898000Y-103409750D01*
X135898000Y-104012309D01*
X135994673Y-104245698D01*
X136142974Y-104394000D01*
X135994673Y-104542302D01*
X135898000Y-104775691D01*
X135898000Y-105378250D01*
X136056750Y-105537000D01*
X136906000Y-105537000D01*
X136906000Y-104425750D01*
X136874250Y-104394000D01*
X136906000Y-104362250D01*
X136906000Y-103251000D01*
X137160000Y-103251000D01*
X137160000Y-104362250D01*
X137191750Y-104394000D01*
X137160000Y-104425750D01*
X137160000Y-105537000D01*
X138009250Y-105537000D01*
X138168000Y-105378250D01*
X138168000Y-104775691D01*
X138071327Y-104542302D01*
X137923026Y-104394000D01*
X138071327Y-104245698D01*
X138168000Y-104012309D01*
X138168000Y-103409750D01*
X138009250Y-103251000D01*
X137160000Y-103251000D01*
X136906000Y-103251000D01*
X136056750Y-103251000D01*
X135898000Y-103409750D01*
X135001000Y-103409750D01*
X135001000Y-102235000D01*
X135898286Y-102235000D01*
X135898000Y-102235691D01*
G36*
X135994673Y-84222302D02*
X135898000Y-84455691D01*
X135898000Y-85058250D01*
X136056750Y-85217000D01*
X136906000Y-85217000D01*
X136906000Y-85197000D01*
X137160000Y-85197000D01*
X137160000Y-85217000D01*
X137180000Y-85217000D01*
X137180000Y-85471000D01*
X137160000Y-85471000D01*
X137160000Y-86582250D01*
X137191750Y-86614000D01*
X137160000Y-86645750D01*
X137160000Y-87757000D01*
X137180000Y-87757000D01*
X137180000Y-88011000D01*
X137160000Y-88011000D01*
X137160000Y-89122250D01*
X137191750Y-89154000D01*
X137160000Y-89185750D01*
X137160000Y-90297000D01*
X137180000Y-90297000D01*
X137180000Y-90551000D01*
X137160000Y-90551000D01*
X137160000Y-90571000D01*
X136906000Y-90571000D01*
X136906000Y-90551000D01*
X136056750Y-90551000D01*
X135898000Y-90709750D01*
X135898000Y-91312309D01*
X135901315Y-91320312D01*
X133223000Y-91320312D01*
X133223000Y-88169750D01*
X135898000Y-88169750D01*
X135898000Y-88772309D01*
X135994673Y-89005698D01*
X136142974Y-89154000D01*
X135994673Y-89302302D01*
X135898000Y-89535691D01*
X135898000Y-90138250D01*
X136056750Y-90297000D01*
X136906000Y-90297000D01*
X136906000Y-89185750D01*
X136874250Y-89154000D01*
X136906000Y-89122250D01*
X136906000Y-88011000D01*
X136056750Y-88011000D01*
X135898000Y-88169750D01*
X133223000Y-88169750D01*
X133223000Y-85629750D01*
X135898000Y-85629750D01*
X135898000Y-86232309D01*
X135994673Y-86465698D01*
X136142974Y-86614000D01*
X135994673Y-86762302D01*
X135898000Y-86995691D01*
X135898000Y-87598250D01*
X136056750Y-87757000D01*
X136906000Y-87757000D01*
X136906000Y-86645750D01*
X136874250Y-86614000D01*
X136906000Y-86582250D01*
X136906000Y-85471000D01*
X136056750Y-85471000D01*
X135898000Y-85629750D01*
X133223000Y-85629750D01*
X133223000Y-84208312D01*
X136008663Y-84208312D01*
X135994673Y-84222302D01*
X135994673Y-84222302D01*
G37*
X135994673Y-84222302D02*
X135898000Y-84455691D01*
X135898000Y-85058250D01*
X136056750Y-85217000D01*
X136906000Y-85217000D01*
X136906000Y-85197000D01*
X137160000Y-85197000D01*
X137160000Y-85217000D01*
X137180000Y-85217000D01*
X137180000Y-85471000D01*
X137160000Y-85471000D01*
X137160000Y-86582250D01*
X137191750Y-86614000D01*
X137160000Y-86645750D01*
X137160000Y-87757000D01*
X137180000Y-87757000D01*
X137180000Y-88011000D01*
X137160000Y-88011000D01*
X137160000Y-89122250D01*
X137191750Y-89154000D01*
X137160000Y-89185750D01*
X137160000Y-90297000D01*
X137180000Y-90297000D01*
X137180000Y-90551000D01*
X137160000Y-90551000D01*
X137160000Y-90571000D01*
X136906000Y-90571000D01*
X136906000Y-90551000D01*
X136056750Y-90551000D01*
X135898000Y-90709750D01*
X135898000Y-91312309D01*
X135901315Y-91320312D01*
X133223000Y-91320312D01*
X133223000Y-88169750D01*
X135898000Y-88169750D01*
X135898000Y-88772309D01*
X135994673Y-89005698D01*
X136142974Y-89154000D01*
X135994673Y-89302302D01*
X135898000Y-89535691D01*
X135898000Y-90138250D01*
X136056750Y-90297000D01*
X136906000Y-90297000D01*
X136906000Y-89185750D01*
X136874250Y-89154000D01*
X136906000Y-89122250D01*
X136906000Y-88011000D01*
X136056750Y-88011000D01*
X135898000Y-88169750D01*
X133223000Y-88169750D01*
X133223000Y-85629750D01*
X135898000Y-85629750D01*
X135898000Y-86232309D01*
X135994673Y-86465698D01*
X136142974Y-86614000D01*
X135994673Y-86762302D01*
X135898000Y-86995691D01*
X135898000Y-87598250D01*
X136056750Y-87757000D01*
X136906000Y-87757000D01*
X136906000Y-86645750D01*
X136874250Y-86614000D01*
X136906000Y-86582250D01*
X136906000Y-85471000D01*
X136056750Y-85471000D01*
X135898000Y-85629750D01*
X133223000Y-85629750D01*
X133223000Y-84208312D01*
X136008663Y-84208312D01*
X135994673Y-84222302D01*
M02*
