G04 #@! TF.FileFunction,Copper,L2,Bot,Signal*
%FSLAX46Y46*%
G04 Gerber Fmt 4.6, Leading zero omitted, Abs format (unit mm)*
G04 Created by KiCad (PCBNEW 4.0.4-stable) date 12/14/16 14:43:15*
%MOMM*%
%LPD*%
G01*
G04 APERTURE LIST*
%ADD10C,0.020000*%
%ADD11C,1.501140*%
%ADD12C,2.999740*%
%ADD13R,1.250000X1.000000*%
%ADD14R,1.000000X1.250000*%
%ADD15R,2.032000X2.032000*%
%ADD16O,2.032000X2.032000*%
%ADD17R,1.300000X0.700000*%
%ADD18R,0.700000X1.300000*%
%ADD19R,1.198880X1.198880*%
%ADD20R,1.060000X0.650000*%
%ADD21C,0.600000*%
%ADD22C,0.300000*%
%ADD23C,0.600000*%
G04 APERTURE END LIST*
D10*
D11*
X126301500Y-118681500D03*
X126301500Y-121221500D03*
X126301500Y-123253500D03*
X126301500Y-125793500D03*
D12*
X123634500Y-115633500D03*
X123634500Y-129349500D03*
D13*
X128932022Y-75260858D03*
X128932022Y-77260858D03*
X119635622Y-75438658D03*
X119635622Y-77438658D03*
D14*
X132064000Y-99060000D03*
X130064000Y-99060000D03*
D13*
X119396862Y-81257798D03*
X119396862Y-83257798D03*
X162115500Y-119713500D03*
X162115500Y-121713500D03*
X172085000Y-120078500D03*
X172085000Y-122078500D03*
D14*
X182896000Y-102235000D03*
X184896000Y-102235000D03*
X181753000Y-91821000D03*
X183753000Y-91821000D03*
D13*
X159258000Y-82661000D03*
X159258000Y-80661000D03*
X151130000Y-83550000D03*
X151130000Y-81550000D03*
D14*
X132191000Y-117729000D03*
X130191000Y-117729000D03*
X132000500Y-127952500D03*
X130000500Y-127952500D03*
D13*
X180530500Y-82661000D03*
X180530500Y-80661000D03*
X171640500Y-83677000D03*
X171640500Y-81677000D03*
X141668500Y-119396000D03*
X141668500Y-121396000D03*
X151955500Y-118951500D03*
X151955500Y-120951500D03*
D14*
X182515000Y-123253500D03*
X184515000Y-123253500D03*
X181626000Y-112141000D03*
X183626000Y-112141000D03*
D15*
X138747500Y-114554000D03*
D16*
X136207500Y-114554000D03*
D11*
X161798000Y-126111000D03*
X164338000Y-126111000D03*
X166370000Y-126111000D03*
X168910000Y-126111000D03*
D12*
X158750000Y-128778000D03*
X172466000Y-128778000D03*
D11*
X188722000Y-102108000D03*
X188722000Y-99568000D03*
X188722000Y-97536000D03*
X188722000Y-94996000D03*
D12*
X191389000Y-105156000D03*
X191389000Y-91440000D03*
D11*
X159322360Y-77662620D03*
X156782360Y-77662620D03*
X154750360Y-77662620D03*
X152210360Y-77662620D03*
D12*
X162370360Y-74995620D03*
X148654360Y-74995620D03*
D11*
X180135967Y-77736021D03*
X177595967Y-77736021D03*
X175563967Y-77736021D03*
X173023967Y-77736021D03*
D12*
X183183967Y-75069021D03*
X169467967Y-75069021D03*
D11*
X141478000Y-125984000D03*
X144018000Y-125984000D03*
X146050000Y-125984000D03*
X148590000Y-125984000D03*
D12*
X138430000Y-128651000D03*
X152146000Y-128651000D03*
D11*
X188722000Y-122809000D03*
X188722000Y-120269000D03*
X188722000Y-118237000D03*
X188722000Y-115697000D03*
D12*
X191389000Y-125857000D03*
X191389000Y-112141000D03*
D17*
X148082000Y-95882500D03*
X148082000Y-93982500D03*
D18*
X127188000Y-95694500D03*
X125288000Y-95694500D03*
D17*
X136144000Y-102618500D03*
X136144000Y-104518500D03*
X139255500Y-103761500D03*
X139255500Y-105661500D03*
D18*
X137030500Y-99123500D03*
X135130500Y-99123500D03*
D17*
X124090782Y-87353078D03*
X124090782Y-85453078D03*
D19*
X146781520Y-91503500D03*
X144683480Y-91503500D03*
X136144000Y-107281980D03*
X136144000Y-109380020D03*
X130014980Y-95567500D03*
X132113020Y-95567500D03*
X139255500Y-108424980D03*
X139255500Y-110523020D03*
X141000480Y-98679000D03*
X143098520Y-98679000D03*
X124070462Y-81107178D03*
X124070462Y-83205218D03*
D20*
X125592102Y-75346418D03*
X125592102Y-76296418D03*
X125592102Y-77246418D03*
X123392102Y-77246418D03*
X123392102Y-75346418D03*
D15*
X129826102Y-84579358D03*
D16*
X129826102Y-82039358D03*
D18*
X149540000Y-110109000D03*
X147640000Y-110109000D03*
X148402000Y-105537000D03*
X150302000Y-105537000D03*
X148338500Y-103251000D03*
X150238500Y-103251000D03*
X148402000Y-100774500D03*
X150302000Y-100774500D03*
D17*
X153352500Y-98486000D03*
X153352500Y-96586000D03*
X145288000Y-103888500D03*
X145288000Y-105788500D03*
D21*
X145161000Y-100330000D03*
X121666000Y-79248000D03*
X148402000Y-100774500D03*
X143827500Y-104521000D03*
X144526000Y-88900000D03*
X146812000Y-97282000D03*
X138049000Y-97218500D03*
X133413500Y-107823000D03*
X151320500Y-107823000D03*
X122682000Y-108775500D03*
X116078000Y-95186500D03*
X147955000Y-97282000D03*
X123888500Y-98171000D03*
X146875500Y-101727000D03*
X145542000Y-102552500D03*
X139763500Y-100457000D03*
X143954500Y-100457000D03*
X139573000Y-98361500D03*
X145732500Y-104838500D03*
X147637500Y-112077500D03*
X149352000Y-105918000D03*
X149288500Y-103886000D03*
X149542500Y-101981000D03*
X151003000Y-97218500D03*
X171323000Y-117729000D03*
X179895500Y-92964000D03*
X151828500Y-85153500D03*
X134493000Y-127635000D03*
X171704000Y-86169500D03*
X150749000Y-116713000D03*
X179451000Y-113411000D03*
X132080000Y-100584000D03*
X164274500Y-119761000D03*
X182880000Y-100330000D03*
X157289500Y-82550000D03*
X132397500Y-120269000D03*
X178371500Y-82677000D03*
X143827500Y-119253000D03*
X182562500Y-121031000D03*
D22*
X148402000Y-100774500D02*
X145605500Y-100774500D01*
X145605500Y-100774500D02*
X145161000Y-100330000D01*
X148402000Y-105537000D02*
X148402000Y-109621000D01*
X148890000Y-110109000D02*
X149540000Y-110109000D01*
X148402000Y-109621000D02*
X148890000Y-110109000D01*
D23*
X123392102Y-75346418D02*
X121666000Y-77072520D01*
X121666000Y-77072520D02*
X121666000Y-79248000D01*
X123392102Y-75346418D02*
X119727862Y-75346418D01*
X119727862Y-75346418D02*
X119635622Y-75438658D01*
D22*
X153352500Y-98486000D02*
X150390500Y-98486000D01*
X150390500Y-98486000D02*
X148402000Y-100474500D01*
X148402000Y-100474500D02*
X148402000Y-100774500D01*
X143827500Y-104521000D02*
X144655500Y-104521000D01*
X144655500Y-104521000D02*
X145288000Y-103888500D01*
D23*
X145288000Y-103888500D02*
X147701000Y-103888500D01*
X147701000Y-103888500D02*
X148338500Y-103251000D01*
X148402000Y-105537000D02*
X148402000Y-103314500D01*
X148402000Y-103314500D02*
X148338500Y-103251000D01*
X148402000Y-100774500D02*
X148402000Y-103187500D01*
X148402000Y-103187500D02*
X148338500Y-103251000D01*
X144526000Y-88900000D02*
X144526000Y-91346020D01*
X144526000Y-91346020D02*
X144683480Y-91503500D01*
X124460000Y-76294316D02*
X124460000Y-73469500D01*
X125592102Y-76296418D02*
X124462102Y-76296418D01*
X124462102Y-76296418D02*
X124460000Y-76294316D01*
X125592102Y-77246418D02*
X126946462Y-77246418D01*
X126946462Y-77246418D02*
X128932022Y-75260858D01*
X154558894Y-79248000D02*
X171511988Y-79248000D01*
X171511988Y-79248000D02*
X173023967Y-77736021D01*
X152210360Y-77662620D02*
X152973514Y-77662620D01*
X152973514Y-77662620D02*
X154558894Y-79248000D01*
X117221000Y-98933000D02*
X117221000Y-116713000D01*
X117221000Y-116713000D02*
X126301500Y-125793500D01*
X126809500Y-89344500D02*
X117221000Y-98933000D01*
X126809500Y-84753958D02*
X126809500Y-89344500D01*
X129826102Y-82039358D02*
X128810103Y-83055357D01*
X128810103Y-83055357D02*
X128508101Y-83055357D01*
X128508101Y-83055357D02*
X126809500Y-84753958D01*
X145858346Y-124015500D02*
X128079500Y-124015500D01*
X128079500Y-124015500D02*
X126301500Y-125793500D01*
X148590000Y-125984000D02*
X147826846Y-125984000D01*
X147826846Y-125984000D02*
X145858346Y-124015500D01*
X167259000Y-123888500D02*
X150685500Y-123888500D01*
X150685500Y-123888500D02*
X148590000Y-125984000D01*
X168159431Y-124788931D02*
X167259000Y-123888500D01*
X168910000Y-126111000D02*
X168159431Y-125360431D01*
X168159431Y-125360431D02*
X168159431Y-124788931D01*
X184594500Y-115697000D02*
X174180500Y-126111000D01*
X174180500Y-126111000D02*
X168910000Y-126111000D01*
X188722000Y-115697000D02*
X184594500Y-115697000D01*
X186880500Y-95776034D02*
X186880500Y-113855500D01*
X186880500Y-113855500D02*
X188722000Y-115697000D01*
X188722000Y-94996000D02*
X187660534Y-94996000D01*
X187660534Y-94996000D02*
X186880500Y-95776034D01*
X173023967Y-77736021D02*
X173774536Y-78486590D01*
X173774536Y-78486590D02*
X173774536Y-80048536D01*
X187971431Y-94245431D02*
X188722000Y-94996000D01*
X173774536Y-80048536D02*
X187971431Y-94245431D01*
X129826102Y-82039358D02*
X147833622Y-82039358D01*
X147833622Y-82039358D02*
X152210360Y-77662620D01*
X124070462Y-81107178D02*
X119547482Y-81107178D01*
X119547482Y-81107178D02*
X119396862Y-81257798D01*
X130873500Y-77077336D02*
X130873500Y-80991960D01*
X130873500Y-80991960D02*
X129826102Y-82039358D01*
X128932022Y-75260858D02*
X129057022Y-75260858D01*
X129057022Y-75260858D02*
X130873500Y-77077336D01*
X125592102Y-75346418D02*
X128846462Y-75346418D01*
X128846462Y-75346418D02*
X128932022Y-75260858D01*
X124070462Y-81107178D02*
X124070462Y-78768058D01*
X124070462Y-78768058D02*
X125592102Y-77246418D01*
D22*
X147955000Y-97282000D02*
X147955000Y-96009500D01*
X147955000Y-96009500D02*
X148082000Y-95882500D01*
X123888500Y-98171000D02*
X123888500Y-96444000D01*
X123888500Y-96444000D02*
X124638000Y-95694500D01*
X124638000Y-95694500D02*
X125288000Y-95694500D01*
X136144000Y-102618500D02*
X144381588Y-102618500D01*
X144381588Y-102618500D02*
X145273088Y-101727000D01*
X145273088Y-101727000D02*
X146875500Y-101727000D01*
X139255500Y-103761500D02*
X143874998Y-103761500D01*
X143874998Y-103761500D02*
X145083998Y-102552500D01*
X145083998Y-102552500D02*
X145542000Y-102552500D01*
X139763500Y-100457000D02*
X138430000Y-99123500D01*
X138430000Y-99123500D02*
X137030500Y-99123500D01*
X143098520Y-98679000D02*
X143098520Y-99601020D01*
X143098520Y-99601020D02*
X143954500Y-100457000D01*
X148082000Y-93982500D02*
X147132000Y-93982500D01*
X147132000Y-93982500D02*
X146781520Y-93632020D01*
X146781520Y-93632020D02*
X146781520Y-92402940D01*
X146781520Y-92402940D02*
X146781520Y-91503500D01*
X136144000Y-107281980D02*
X136144000Y-104518500D01*
X127188000Y-95694500D02*
X129887980Y-95694500D01*
X129887980Y-95694500D02*
X130014980Y-95567500D01*
X139255500Y-108424980D02*
X139255500Y-105661500D01*
X141000480Y-98679000D02*
X139890500Y-98679000D01*
X139890500Y-98679000D02*
X139573000Y-98361500D01*
D23*
X124070462Y-83205218D02*
X124070462Y-85432758D01*
X124070462Y-85432758D02*
X124090782Y-85453078D01*
D22*
X145288000Y-105788500D02*
X145288000Y-105283000D01*
X145288000Y-105283000D02*
X145732500Y-104838500D01*
X147640000Y-110109000D02*
X147640000Y-112075000D01*
X147640000Y-112075000D02*
X147637500Y-112077500D01*
X150302000Y-105537000D02*
X149733000Y-105537000D01*
X149733000Y-105537000D02*
X149352000Y-105918000D01*
X150238500Y-103251000D02*
X149923500Y-103251000D01*
X149923500Y-103251000D02*
X149288500Y-103886000D01*
X150302000Y-100774500D02*
X150302000Y-101221500D01*
X150302000Y-101221500D02*
X149542500Y-101981000D01*
X153352500Y-96586000D02*
X151635500Y-96586000D01*
X151635500Y-96586000D02*
X151003000Y-97218500D01*
X171323000Y-117729000D02*
X171323000Y-119316500D01*
X171323000Y-119316500D02*
X172085000Y-120078500D01*
X179895500Y-92964000D02*
X180610000Y-92964000D01*
X180610000Y-92964000D02*
X181753000Y-91821000D01*
X151828500Y-85153500D02*
X151828500Y-84248500D01*
X151828500Y-84248500D02*
X151130000Y-83550000D01*
X132000500Y-127952500D02*
X134175500Y-127952500D01*
X134175500Y-127952500D02*
X134493000Y-127635000D01*
X171640500Y-83677000D02*
X171640500Y-86106000D01*
X171640500Y-86106000D02*
X171704000Y-86169500D01*
X150749000Y-116713000D02*
X150749000Y-117745000D01*
X150749000Y-117745000D02*
X151955500Y-118951500D01*
X179451000Y-113411000D02*
X180356000Y-113411000D01*
X180356000Y-113411000D02*
X181626000Y-112141000D01*
X132064000Y-99060000D02*
X135067000Y-99060000D01*
X135067000Y-99060000D02*
X135130500Y-99123500D01*
X132080000Y-100584000D02*
X132080000Y-99076000D01*
X132080000Y-99076000D02*
X132064000Y-99060000D01*
X162115500Y-119713500D02*
X164227000Y-119713500D01*
X164227000Y-119713500D02*
X164274500Y-119761000D01*
X182880000Y-100330000D02*
X182880000Y-102219000D01*
X182880000Y-102219000D02*
X182896000Y-102235000D01*
X159258000Y-82661000D02*
X157400500Y-82661000D01*
X157400500Y-82661000D02*
X157289500Y-82550000D01*
X132397500Y-120269000D02*
X132397500Y-117935500D01*
X132397500Y-117935500D02*
X132191000Y-117729000D01*
X178371500Y-82677000D02*
X180514500Y-82677000D01*
X180514500Y-82677000D02*
X180530500Y-82661000D01*
X141668500Y-119396000D02*
X143684500Y-119396000D01*
X143684500Y-119396000D02*
X143827500Y-119253000D01*
X182515000Y-123253500D02*
X182515000Y-121078500D01*
X182515000Y-121078500D02*
X182562500Y-121031000D01*
G36*
X200330000Y-137940000D02*
X114200000Y-137940000D01*
X114200000Y-130860578D01*
X122270500Y-130860578D01*
X122426870Y-131188595D01*
X123222586Y-131510742D01*
X124081013Y-131503860D01*
X124842130Y-131188595D01*
X124998500Y-130860578D01*
X123634500Y-129496578D01*
X122270500Y-130860578D01*
X114200000Y-130860578D01*
X114200000Y-128937586D01*
X121473258Y-128937586D01*
X121480140Y-129796013D01*
X121795405Y-130557130D01*
X122123422Y-130713500D01*
X123487422Y-129349500D01*
X123781578Y-129349500D01*
X125145578Y-130713500D01*
X125473595Y-130557130D01*
X125633532Y-130162078D01*
X137066000Y-130162078D01*
X137222370Y-130490095D01*
X138018086Y-130812242D01*
X138876513Y-130805360D01*
X139637630Y-130490095D01*
X139794000Y-130162078D01*
X150782000Y-130162078D01*
X150938370Y-130490095D01*
X151734086Y-130812242D01*
X152592513Y-130805360D01*
X153353630Y-130490095D01*
X153449457Y-130289078D01*
X157386000Y-130289078D01*
X157542370Y-130617095D01*
X158338086Y-130939242D01*
X159196513Y-130932360D01*
X159957630Y-130617095D01*
X160114000Y-130289078D01*
X171102000Y-130289078D01*
X171258370Y-130617095D01*
X172054086Y-130939242D01*
X172912513Y-130932360D01*
X173673630Y-130617095D01*
X173830000Y-130289078D01*
X172466000Y-128925078D01*
X171102000Y-130289078D01*
X160114000Y-130289078D01*
X158750000Y-128925078D01*
X157386000Y-130289078D01*
X153449457Y-130289078D01*
X153510000Y-130162078D01*
X152146000Y-128798078D01*
X150782000Y-130162078D01*
X139794000Y-130162078D01*
X138430000Y-128798078D01*
X137066000Y-130162078D01*
X125633532Y-130162078D01*
X125795742Y-129761414D01*
X125788860Y-128902987D01*
X125506372Y-128221000D01*
X128842500Y-128221000D01*
X128842500Y-128708385D01*
X128942675Y-128950227D01*
X129127773Y-129135326D01*
X129369616Y-129235500D01*
X129732000Y-129235500D01*
X129896500Y-129071000D01*
X129896500Y-128056500D01*
X129007000Y-128056500D01*
X128842500Y-128221000D01*
X125506372Y-128221000D01*
X125473595Y-128141870D01*
X125145578Y-127985500D01*
X123781578Y-129349500D01*
X123487422Y-129349500D01*
X122123422Y-127985500D01*
X121795405Y-128141870D01*
X121473258Y-128937586D01*
X114200000Y-128937586D01*
X114200000Y-127838422D01*
X122270500Y-127838422D01*
X123634500Y-129202422D01*
X124998500Y-127838422D01*
X124842130Y-127510405D01*
X124067057Y-127196615D01*
X128842500Y-127196615D01*
X128842500Y-127684000D01*
X129007000Y-127848500D01*
X129896500Y-127848500D01*
X129896500Y-126834000D01*
X130104500Y-126834000D01*
X130104500Y-127848500D01*
X130124500Y-127848500D01*
X130124500Y-128056500D01*
X130104500Y-128056500D01*
X130104500Y-129071000D01*
X130269000Y-129235500D01*
X130631384Y-129235500D01*
X130873227Y-129135326D01*
X131058325Y-128950227D01*
X131069463Y-128923338D01*
X131098532Y-128968512D01*
X131282327Y-129094094D01*
X131500500Y-129138275D01*
X132500500Y-129138275D01*
X132704318Y-129099924D01*
X132891512Y-128979468D01*
X133017094Y-128795673D01*
X133046087Y-128652500D01*
X134175500Y-128652500D01*
X134443379Y-128599216D01*
X134614157Y-128485106D01*
X134661334Y-128485147D01*
X134973857Y-128356015D01*
X135090990Y-128239086D01*
X136268758Y-128239086D01*
X136275640Y-129097513D01*
X136590905Y-129858630D01*
X136918922Y-130015000D01*
X138282922Y-128651000D01*
X138577078Y-128651000D01*
X139941078Y-130015000D01*
X140269095Y-129858630D01*
X140591242Y-129062914D01*
X140584638Y-128239086D01*
X149984758Y-128239086D01*
X149991640Y-129097513D01*
X150306905Y-129858630D01*
X150634922Y-130015000D01*
X151998922Y-128651000D01*
X152293078Y-128651000D01*
X153657078Y-130015000D01*
X153985095Y-129858630D01*
X154307242Y-129062914D01*
X154301656Y-128366086D01*
X156588758Y-128366086D01*
X156595640Y-129224513D01*
X156910905Y-129985630D01*
X157238922Y-130142000D01*
X158602922Y-128778000D01*
X158897078Y-128778000D01*
X160261078Y-130142000D01*
X160589095Y-129985630D01*
X160911242Y-129189914D01*
X160904638Y-128366086D01*
X170304758Y-128366086D01*
X170311640Y-129224513D01*
X170626905Y-129985630D01*
X170954922Y-130142000D01*
X172318922Y-128778000D01*
X172613078Y-128778000D01*
X173977078Y-130142000D01*
X174305095Y-129985630D01*
X174627242Y-129189914D01*
X174620360Y-128331487D01*
X174305095Y-127570370D01*
X173977078Y-127414000D01*
X172613078Y-128778000D01*
X172318922Y-128778000D01*
X170954922Y-127414000D01*
X170626905Y-127570370D01*
X170304758Y-128366086D01*
X160904638Y-128366086D01*
X160904360Y-128331487D01*
X160589095Y-127570370D01*
X160261078Y-127414000D01*
X158897078Y-128778000D01*
X158602922Y-128778000D01*
X157238922Y-127414000D01*
X156910905Y-127570370D01*
X156588758Y-128366086D01*
X154301656Y-128366086D01*
X154300360Y-128204487D01*
X153985095Y-127443370D01*
X153657078Y-127287000D01*
X152293078Y-128651000D01*
X151998922Y-128651000D01*
X150634922Y-127287000D01*
X150306905Y-127443370D01*
X149984758Y-128239086D01*
X140584638Y-128239086D01*
X140584360Y-128204487D01*
X140269095Y-127443370D01*
X139941078Y-127287000D01*
X138577078Y-128651000D01*
X138282922Y-128651000D01*
X136918922Y-127287000D01*
X136590905Y-127443370D01*
X136268758Y-128239086D01*
X135090990Y-128239086D01*
X135213174Y-128117115D01*
X135342852Y-127804817D01*
X135343147Y-127466666D01*
X135214015Y-127154143D01*
X135199819Y-127139922D01*
X137066000Y-127139922D01*
X138430000Y-128503922D01*
X139794000Y-127139922D01*
X139705240Y-126953730D01*
X140655348Y-126953730D01*
X140720197Y-127203962D01*
X141244740Y-127401096D01*
X141804796Y-127382491D01*
X142235803Y-127203962D01*
X142300652Y-126953730D01*
X141478000Y-126131078D01*
X140655348Y-126953730D01*
X139705240Y-126953730D01*
X139637630Y-126811905D01*
X138841914Y-126489758D01*
X137983487Y-126496640D01*
X137222370Y-126811905D01*
X137066000Y-127139922D01*
X135199819Y-127139922D01*
X134975115Y-126914826D01*
X134662817Y-126785148D01*
X134324666Y-126784853D01*
X134012143Y-126913985D01*
X133772826Y-127152885D01*
X133731462Y-127252500D01*
X133047163Y-127252500D01*
X133022924Y-127123682D01*
X132902468Y-126936488D01*
X132718673Y-126810906D01*
X132500500Y-126766725D01*
X131500500Y-126766725D01*
X131296682Y-126805076D01*
X131109488Y-126925532D01*
X131070094Y-126983186D01*
X131058325Y-126954773D01*
X130873227Y-126769674D01*
X130631384Y-126669500D01*
X130269000Y-126669500D01*
X130104500Y-126834000D01*
X129896500Y-126834000D01*
X129732000Y-126669500D01*
X129369616Y-126669500D01*
X129127773Y-126769674D01*
X128942675Y-126954773D01*
X128842500Y-127196615D01*
X124067057Y-127196615D01*
X124046414Y-127188258D01*
X123187987Y-127195140D01*
X122426870Y-127510405D01*
X122270500Y-127838422D01*
X114200000Y-127838422D01*
X114200000Y-98933000D01*
X116371000Y-98933000D01*
X116371000Y-116713000D01*
X116435702Y-117038281D01*
X116619959Y-117314041D01*
X125001015Y-125695097D01*
X125000704Y-126051064D01*
X125198287Y-126529251D01*
X125563824Y-126895427D01*
X126041666Y-127093844D01*
X126559064Y-127094296D01*
X127037251Y-126896713D01*
X127403427Y-126531176D01*
X127601844Y-126053334D01*
X127602108Y-125750740D01*
X140060904Y-125750740D01*
X140079509Y-126310796D01*
X140258038Y-126741803D01*
X140508270Y-126806652D01*
X141330922Y-125984000D01*
X140508270Y-125161348D01*
X140258038Y-125226197D01*
X140060904Y-125750740D01*
X127602108Y-125750740D01*
X127602157Y-125694925D01*
X128431582Y-124865500D01*
X140693903Y-124865500D01*
X140655348Y-125014270D01*
X141478000Y-125836922D01*
X142300652Y-125014270D01*
X142262097Y-124865500D01*
X143319246Y-124865500D01*
X143282249Y-124880787D01*
X142916073Y-125246324D01*
X142811057Y-125499232D01*
X142697962Y-125226197D01*
X142447730Y-125161348D01*
X141625078Y-125984000D01*
X142447730Y-126806652D01*
X142697962Y-126741803D01*
X142805580Y-126455449D01*
X142914787Y-126719751D01*
X143280324Y-127085927D01*
X143758166Y-127284344D01*
X144275564Y-127284796D01*
X144753751Y-127087213D01*
X145034168Y-126807285D01*
X145312324Y-127085927D01*
X145790166Y-127284344D01*
X146307564Y-127284796D01*
X146785751Y-127087213D01*
X147151927Y-126721676D01*
X147213693Y-126572928D01*
X147225803Y-126585038D01*
X147225805Y-126585041D01*
X147501565Y-126769298D01*
X147544840Y-126777906D01*
X147852324Y-127085927D01*
X148330166Y-127284344D01*
X148847564Y-127284796D01*
X149198185Y-127139922D01*
X150782000Y-127139922D01*
X152146000Y-128503922D01*
X153383000Y-127266922D01*
X157386000Y-127266922D01*
X158750000Y-128630922D01*
X160114000Y-127266922D01*
X160025240Y-127080730D01*
X160975348Y-127080730D01*
X161040197Y-127330962D01*
X161564740Y-127528096D01*
X162124796Y-127509491D01*
X162555803Y-127330962D01*
X162620652Y-127080730D01*
X161798000Y-126258078D01*
X160975348Y-127080730D01*
X160025240Y-127080730D01*
X159957630Y-126938905D01*
X159161914Y-126616758D01*
X158303487Y-126623640D01*
X157542370Y-126938905D01*
X157386000Y-127266922D01*
X153383000Y-127266922D01*
X153510000Y-127139922D01*
X153353630Y-126811905D01*
X152557914Y-126489758D01*
X151699487Y-126496640D01*
X150938370Y-126811905D01*
X150782000Y-127139922D01*
X149198185Y-127139922D01*
X149325751Y-127087213D01*
X149691927Y-126721676D01*
X149890344Y-126243834D01*
X149890657Y-125885425D01*
X149898341Y-125877740D01*
X160380904Y-125877740D01*
X160399509Y-126437796D01*
X160578038Y-126868803D01*
X160828270Y-126933652D01*
X161650922Y-126111000D01*
X160828270Y-125288348D01*
X160578038Y-125353197D01*
X160380904Y-125877740D01*
X149898341Y-125877740D01*
X151037581Y-124738500D01*
X161408456Y-124738500D01*
X161040197Y-124891038D01*
X160975348Y-125141270D01*
X161798000Y-125963922D01*
X162620652Y-125141270D01*
X162555803Y-124891038D01*
X162149923Y-124738500D01*
X166906918Y-124738500D01*
X167309431Y-125141013D01*
X167309431Y-125211181D01*
X167107676Y-125009073D01*
X166629834Y-124810656D01*
X166112436Y-124810204D01*
X165634249Y-125007787D01*
X165353832Y-125287715D01*
X165075676Y-125009073D01*
X164597834Y-124810656D01*
X164080436Y-124810204D01*
X163602249Y-125007787D01*
X163236073Y-125373324D01*
X163131057Y-125626232D01*
X163017962Y-125353197D01*
X162767730Y-125288348D01*
X161945078Y-126111000D01*
X162767730Y-126933652D01*
X163017962Y-126868803D01*
X163125580Y-126582449D01*
X163234787Y-126846751D01*
X163600324Y-127212927D01*
X164078166Y-127411344D01*
X164595564Y-127411796D01*
X165073751Y-127214213D01*
X165354168Y-126934285D01*
X165632324Y-127212927D01*
X166110166Y-127411344D01*
X166627564Y-127411796D01*
X167105751Y-127214213D01*
X167471927Y-126848676D01*
X167640169Y-126443504D01*
X167806787Y-126846751D01*
X168172324Y-127212927D01*
X168650166Y-127411344D01*
X169167564Y-127411796D01*
X169645751Y-127214213D01*
X169899407Y-126961000D01*
X171247837Y-126961000D01*
X171102000Y-127266922D01*
X172466000Y-128630922D01*
X173728844Y-127368078D01*
X190025000Y-127368078D01*
X190181370Y-127696095D01*
X190977086Y-128018242D01*
X191835513Y-128011360D01*
X192596630Y-127696095D01*
X192753000Y-127368078D01*
X191389000Y-126004078D01*
X190025000Y-127368078D01*
X173728844Y-127368078D01*
X173830000Y-127266922D01*
X173684163Y-126961000D01*
X174180500Y-126961000D01*
X174505781Y-126896298D01*
X174781541Y-126712041D01*
X176048496Y-125445086D01*
X189227758Y-125445086D01*
X189234640Y-126303513D01*
X189549905Y-127064630D01*
X189877922Y-127221000D01*
X191241922Y-125857000D01*
X191536078Y-125857000D01*
X192900078Y-127221000D01*
X193228095Y-127064630D01*
X193550242Y-126268914D01*
X193543360Y-125410487D01*
X193228095Y-124649370D01*
X192900078Y-124493000D01*
X191536078Y-125857000D01*
X191241922Y-125857000D01*
X189877922Y-124493000D01*
X189549905Y-124649370D01*
X189227758Y-125445086D01*
X176048496Y-125445086D01*
X178865082Y-122628500D01*
X181454225Y-122628500D01*
X181454225Y-123878500D01*
X181492576Y-124082318D01*
X181613032Y-124269512D01*
X181796827Y-124395094D01*
X182015000Y-124439275D01*
X183015000Y-124439275D01*
X183218818Y-124400924D01*
X183406012Y-124280468D01*
X183445406Y-124222814D01*
X183457175Y-124251227D01*
X183642273Y-124436326D01*
X183884116Y-124536500D01*
X184246500Y-124536500D01*
X184411000Y-124372000D01*
X184411000Y-123357500D01*
X184619000Y-123357500D01*
X184619000Y-124372000D01*
X184783500Y-124536500D01*
X185145884Y-124536500D01*
X185387727Y-124436326D01*
X185478130Y-124345922D01*
X190025000Y-124345922D01*
X191389000Y-125709922D01*
X192753000Y-124345922D01*
X192596630Y-124017905D01*
X191800914Y-123695758D01*
X190942487Y-123702640D01*
X190181370Y-124017905D01*
X190025000Y-124345922D01*
X185478130Y-124345922D01*
X185572825Y-124251227D01*
X185673000Y-124009385D01*
X185673000Y-123778730D01*
X187899348Y-123778730D01*
X187964197Y-124028962D01*
X188488740Y-124226096D01*
X189048796Y-124207491D01*
X189479803Y-124028962D01*
X189544652Y-123778730D01*
X188722000Y-122956078D01*
X187899348Y-123778730D01*
X185673000Y-123778730D01*
X185673000Y-123522000D01*
X185508500Y-123357500D01*
X184619000Y-123357500D01*
X184411000Y-123357500D01*
X184391000Y-123357500D01*
X184391000Y-123149500D01*
X184411000Y-123149500D01*
X184411000Y-122135000D01*
X184619000Y-122135000D01*
X184619000Y-123149500D01*
X185508500Y-123149500D01*
X185673000Y-122985000D01*
X185673000Y-122575740D01*
X187304904Y-122575740D01*
X187323509Y-123135796D01*
X187502038Y-123566803D01*
X187752270Y-123631652D01*
X188574922Y-122809000D01*
X188869078Y-122809000D01*
X189691730Y-123631652D01*
X189941962Y-123566803D01*
X190139096Y-123042260D01*
X190120491Y-122482204D01*
X189941962Y-122051197D01*
X189691730Y-121986348D01*
X188869078Y-122809000D01*
X188574922Y-122809000D01*
X187752270Y-121986348D01*
X187502038Y-122051197D01*
X187304904Y-122575740D01*
X185673000Y-122575740D01*
X185673000Y-122497615D01*
X185572825Y-122255773D01*
X185387727Y-122070674D01*
X185145884Y-121970500D01*
X184783500Y-121970500D01*
X184619000Y-122135000D01*
X184411000Y-122135000D01*
X184246500Y-121970500D01*
X183884116Y-121970500D01*
X183642273Y-122070674D01*
X183457175Y-122255773D01*
X183446037Y-122282662D01*
X183416968Y-122237488D01*
X183233173Y-122111906D01*
X183215000Y-122108226D01*
X183215000Y-121580671D01*
X183282674Y-121513115D01*
X183412352Y-121200817D01*
X183412647Y-120862666D01*
X183283515Y-120550143D01*
X183044615Y-120310826D01*
X182732317Y-120181148D01*
X182394166Y-120180853D01*
X182081643Y-120309985D01*
X181842326Y-120548885D01*
X181712648Y-120861183D01*
X181712353Y-121199334D01*
X181815000Y-121447758D01*
X181815000Y-122105358D01*
X181811182Y-122106076D01*
X181623988Y-122226532D01*
X181498406Y-122410327D01*
X181454225Y-122628500D01*
X178865082Y-122628500D01*
X184946582Y-116547000D01*
X187732837Y-116547000D01*
X187984324Y-116798927D01*
X188389496Y-116967169D01*
X187986249Y-117133787D01*
X187620073Y-117499324D01*
X187421656Y-117977166D01*
X187421204Y-118494564D01*
X187618787Y-118972751D01*
X187898715Y-119253168D01*
X187620073Y-119531324D01*
X187421656Y-120009166D01*
X187421204Y-120526564D01*
X187618787Y-121004751D01*
X187984324Y-121370927D01*
X188237232Y-121475943D01*
X187964197Y-121589038D01*
X187899348Y-121839270D01*
X188722000Y-122661922D01*
X189544652Y-121839270D01*
X189479803Y-121589038D01*
X189193449Y-121481420D01*
X189457751Y-121372213D01*
X189823927Y-121006676D01*
X190022344Y-120528834D01*
X190022796Y-120011436D01*
X189825213Y-119533249D01*
X189545285Y-119252832D01*
X189823927Y-118974676D01*
X190022344Y-118496834D01*
X190022796Y-117979436D01*
X189825213Y-117501249D01*
X189459676Y-117135073D01*
X189054504Y-116966831D01*
X189457751Y-116800213D01*
X189823927Y-116434676D01*
X190022344Y-115956834D01*
X190022796Y-115439436D01*
X189825213Y-114961249D01*
X189459676Y-114595073D01*
X188981834Y-114396656D01*
X188623425Y-114396343D01*
X187879160Y-113652078D01*
X190025000Y-113652078D01*
X190181370Y-113980095D01*
X190977086Y-114302242D01*
X191835513Y-114295360D01*
X192596630Y-113980095D01*
X192753000Y-113652078D01*
X191389000Y-112288078D01*
X190025000Y-113652078D01*
X187879160Y-113652078D01*
X187730500Y-113503418D01*
X187730500Y-111729086D01*
X189227758Y-111729086D01*
X189234640Y-112587513D01*
X189549905Y-113348630D01*
X189877922Y-113505000D01*
X191241922Y-112141000D01*
X191536078Y-112141000D01*
X192900078Y-113505000D01*
X193228095Y-113348630D01*
X193550242Y-112552914D01*
X193543360Y-111694487D01*
X193228095Y-110933370D01*
X192900078Y-110777000D01*
X191536078Y-112141000D01*
X191241922Y-112141000D01*
X189877922Y-110777000D01*
X189549905Y-110933370D01*
X189227758Y-111729086D01*
X187730500Y-111729086D01*
X187730500Y-110629922D01*
X190025000Y-110629922D01*
X191389000Y-111993922D01*
X192753000Y-110629922D01*
X192596630Y-110301905D01*
X191800914Y-109979758D01*
X190942487Y-109986640D01*
X190181370Y-110301905D01*
X190025000Y-110629922D01*
X187730500Y-110629922D01*
X187730500Y-106667078D01*
X190025000Y-106667078D01*
X190181370Y-106995095D01*
X190977086Y-107317242D01*
X191835513Y-107310360D01*
X192596630Y-106995095D01*
X192753000Y-106667078D01*
X191389000Y-105303078D01*
X190025000Y-106667078D01*
X187730500Y-106667078D01*
X187730500Y-104744086D01*
X189227758Y-104744086D01*
X189234640Y-105602513D01*
X189549905Y-106363630D01*
X189877922Y-106520000D01*
X191241922Y-105156000D01*
X191536078Y-105156000D01*
X192900078Y-106520000D01*
X193228095Y-106363630D01*
X193550242Y-105567914D01*
X193543360Y-104709487D01*
X193228095Y-103948370D01*
X192900078Y-103792000D01*
X191536078Y-105156000D01*
X191241922Y-105156000D01*
X189877922Y-103792000D01*
X189549905Y-103948370D01*
X189227758Y-104744086D01*
X187730500Y-104744086D01*
X187730500Y-103644922D01*
X190025000Y-103644922D01*
X191389000Y-105008922D01*
X192753000Y-103644922D01*
X192596630Y-103316905D01*
X191800914Y-102994758D01*
X190942487Y-103001640D01*
X190181370Y-103316905D01*
X190025000Y-103644922D01*
X187730500Y-103644922D01*
X187730500Y-103143389D01*
X187782096Y-103194985D01*
X187899349Y-103077732D01*
X187964197Y-103327962D01*
X188488740Y-103525096D01*
X189048796Y-103506491D01*
X189479803Y-103327962D01*
X189544652Y-103077730D01*
X188722000Y-102255078D01*
X188707858Y-102269221D01*
X188560780Y-102122143D01*
X188574922Y-102108000D01*
X188869078Y-102108000D01*
X189691730Y-102930652D01*
X189941962Y-102865803D01*
X190139096Y-102341260D01*
X190120491Y-101781204D01*
X189941962Y-101350197D01*
X189691730Y-101285348D01*
X188869078Y-102108000D01*
X188574922Y-102108000D01*
X188560780Y-102093858D01*
X188707858Y-101946780D01*
X188722000Y-101960922D01*
X189544652Y-101138270D01*
X189479803Y-100888038D01*
X189193449Y-100780420D01*
X189457751Y-100671213D01*
X189823927Y-100305676D01*
X190022344Y-99827834D01*
X190022796Y-99310436D01*
X189825213Y-98832249D01*
X189545285Y-98551832D01*
X189823927Y-98273676D01*
X190022344Y-97795834D01*
X190022796Y-97278436D01*
X189825213Y-96800249D01*
X189459676Y-96434073D01*
X189054504Y-96265831D01*
X189457751Y-96099213D01*
X189823927Y-95733676D01*
X190022344Y-95255834D01*
X190022796Y-94738436D01*
X189825213Y-94260249D01*
X189459676Y-93894073D01*
X188981834Y-93695656D01*
X188623425Y-93695343D01*
X188572472Y-93644390D01*
X188572469Y-93644388D01*
X187879160Y-92951078D01*
X190025000Y-92951078D01*
X190181370Y-93279095D01*
X190977086Y-93601242D01*
X191835513Y-93594360D01*
X192596630Y-93279095D01*
X192753000Y-92951078D01*
X191389000Y-91587078D01*
X190025000Y-92951078D01*
X187879160Y-92951078D01*
X185956168Y-91028086D01*
X189227758Y-91028086D01*
X189234640Y-91886513D01*
X189549905Y-92647630D01*
X189877922Y-92804000D01*
X191241922Y-91440000D01*
X191536078Y-91440000D01*
X192900078Y-92804000D01*
X193228095Y-92647630D01*
X193550242Y-91851914D01*
X193543360Y-90993487D01*
X193228095Y-90232370D01*
X192900078Y-90076000D01*
X191536078Y-91440000D01*
X191241922Y-91440000D01*
X189877922Y-90076000D01*
X189549905Y-90232370D01*
X189227758Y-91028086D01*
X185956168Y-91028086D01*
X184857004Y-89928922D01*
X190025000Y-89928922D01*
X191389000Y-91292922D01*
X192753000Y-89928922D01*
X192596630Y-89600905D01*
X191800914Y-89278758D01*
X190942487Y-89285640D01*
X190181370Y-89600905D01*
X190025000Y-89928922D01*
X184857004Y-89928922D01*
X178455155Y-83527073D01*
X178539834Y-83527147D01*
X178852357Y-83398015D01*
X178873409Y-83377000D01*
X179390915Y-83377000D01*
X179503532Y-83552012D01*
X179687327Y-83677594D01*
X179905500Y-83721775D01*
X181155500Y-83721775D01*
X181359318Y-83683424D01*
X181546512Y-83562968D01*
X181672094Y-83379173D01*
X181716275Y-83161000D01*
X181716275Y-82161000D01*
X181677924Y-81957182D01*
X181557468Y-81769988D01*
X181499814Y-81730594D01*
X181528227Y-81718825D01*
X181713326Y-81533727D01*
X181813500Y-81291884D01*
X181813500Y-80929500D01*
X181649000Y-80765000D01*
X180634500Y-80765000D01*
X180634500Y-80785000D01*
X180426500Y-80785000D01*
X180426500Y-80765000D01*
X179412000Y-80765000D01*
X179247500Y-80929500D01*
X179247500Y-81291884D01*
X179347674Y-81533727D01*
X179532773Y-81718825D01*
X179559662Y-81729963D01*
X179514488Y-81759032D01*
X179388906Y-81942827D01*
X179381986Y-81977000D01*
X178873754Y-81977000D01*
X178853615Y-81956826D01*
X178541317Y-81827148D01*
X178203166Y-81826853D01*
X177890643Y-81955985D01*
X177651326Y-82194885D01*
X177521648Y-82507183D01*
X177521573Y-82593491D01*
X174958198Y-80030116D01*
X179247500Y-80030116D01*
X179247500Y-80392500D01*
X179412000Y-80557000D01*
X180426500Y-80557000D01*
X180426500Y-79667500D01*
X180634500Y-79667500D01*
X180634500Y-80557000D01*
X181649000Y-80557000D01*
X181813500Y-80392500D01*
X181813500Y-80030116D01*
X181713326Y-79788273D01*
X181528227Y-79603175D01*
X181286385Y-79503000D01*
X180799000Y-79503000D01*
X180634500Y-79667500D01*
X180426500Y-79667500D01*
X180262000Y-79503000D01*
X179774615Y-79503000D01*
X179532773Y-79603175D01*
X179347674Y-79788273D01*
X179247500Y-80030116D01*
X174958198Y-80030116D01*
X174624536Y-79696454D01*
X174624536Y-78635840D01*
X174826291Y-78837948D01*
X175304133Y-79036365D01*
X175821531Y-79036817D01*
X176299718Y-78839234D01*
X176580135Y-78559306D01*
X176858291Y-78837948D01*
X177336133Y-79036365D01*
X177853531Y-79036817D01*
X178331718Y-78839234D01*
X178465434Y-78705751D01*
X179313315Y-78705751D01*
X179378164Y-78955983D01*
X179902707Y-79153117D01*
X180462763Y-79134512D01*
X180893770Y-78955983D01*
X180958619Y-78705751D01*
X180135967Y-77883099D01*
X179313315Y-78705751D01*
X178465434Y-78705751D01*
X178697894Y-78473697D01*
X178802910Y-78220789D01*
X178916005Y-78493824D01*
X179166237Y-78558673D01*
X179988889Y-77736021D01*
X180283045Y-77736021D01*
X181105697Y-78558673D01*
X181355929Y-78493824D01*
X181553063Y-77969281D01*
X181534458Y-77409225D01*
X181355929Y-76978218D01*
X181105697Y-76913369D01*
X180283045Y-77736021D01*
X179988889Y-77736021D01*
X179166237Y-76913369D01*
X178916005Y-76978218D01*
X178808387Y-77264572D01*
X178699180Y-77000270D01*
X178465610Y-76766291D01*
X179313315Y-76766291D01*
X180135967Y-77588943D01*
X180958619Y-76766291D01*
X180910367Y-76580099D01*
X181819967Y-76580099D01*
X181976337Y-76908116D01*
X182772053Y-77230263D01*
X183630480Y-77223381D01*
X184391597Y-76908116D01*
X184547967Y-76580099D01*
X183183967Y-75216099D01*
X181819967Y-76580099D01*
X180910367Y-76580099D01*
X180893770Y-76516059D01*
X180369227Y-76318925D01*
X179809171Y-76337530D01*
X179378164Y-76516059D01*
X179313315Y-76766291D01*
X178465610Y-76766291D01*
X178333643Y-76634094D01*
X177855801Y-76435677D01*
X177338403Y-76435225D01*
X176860216Y-76632808D01*
X176579799Y-76912736D01*
X176301643Y-76634094D01*
X175823801Y-76435677D01*
X175306403Y-76435225D01*
X174828216Y-76632808D01*
X174462040Y-76998345D01*
X174293798Y-77403517D01*
X174127180Y-77000270D01*
X173761643Y-76634094D01*
X173283801Y-76435677D01*
X172766403Y-76435225D01*
X172288216Y-76632808D01*
X171922040Y-76998345D01*
X171723623Y-77476187D01*
X171723310Y-77834596D01*
X171159906Y-78398000D01*
X160550749Y-78398000D01*
X160739456Y-77895880D01*
X160720851Y-77335824D01*
X160542322Y-76904817D01*
X160292090Y-76839968D01*
X159469438Y-77662620D01*
X159483581Y-77676763D01*
X159336503Y-77823841D01*
X159322360Y-77809698D01*
X159308218Y-77823841D01*
X159161140Y-77676763D01*
X159175282Y-77662620D01*
X158352630Y-76839968D01*
X158102398Y-76904817D01*
X157994780Y-77191171D01*
X157885573Y-76926869D01*
X157652003Y-76692890D01*
X158499708Y-76692890D01*
X159322360Y-77515542D01*
X160145012Y-76692890D01*
X160096760Y-76506698D01*
X161006360Y-76506698D01*
X161162730Y-76834715D01*
X161958446Y-77156862D01*
X162816873Y-77149980D01*
X163577990Y-76834715D01*
X163699368Y-76580099D01*
X168103967Y-76580099D01*
X168260337Y-76908116D01*
X169056053Y-77230263D01*
X169914480Y-77223381D01*
X170675597Y-76908116D01*
X170831967Y-76580099D01*
X169467967Y-75216099D01*
X168103967Y-76580099D01*
X163699368Y-76580099D01*
X163734360Y-76506698D01*
X162370360Y-75142698D01*
X161006360Y-76506698D01*
X160096760Y-76506698D01*
X160080163Y-76442658D01*
X159555620Y-76245524D01*
X158995564Y-76264129D01*
X158564557Y-76442658D01*
X158499708Y-76692890D01*
X157652003Y-76692890D01*
X157520036Y-76560693D01*
X157042194Y-76362276D01*
X156524796Y-76361824D01*
X156046609Y-76559407D01*
X155766192Y-76839335D01*
X155488036Y-76560693D01*
X155010194Y-76362276D01*
X154492796Y-76361824D01*
X154014609Y-76559407D01*
X153648433Y-76924944D01*
X153586668Y-77073692D01*
X153574555Y-77061579D01*
X153298795Y-76877322D01*
X153255520Y-76868714D01*
X152948036Y-76560693D01*
X152470194Y-76362276D01*
X151952796Y-76361824D01*
X151474609Y-76559407D01*
X151108433Y-76924944D01*
X150910016Y-77402786D01*
X150909703Y-77761195D01*
X147481540Y-81189358D01*
X131684235Y-81189358D01*
X131723500Y-80991960D01*
X131723500Y-77077336D01*
X131658798Y-76752055D01*
X131494856Y-76506698D01*
X147290360Y-76506698D01*
X147446730Y-76834715D01*
X148242446Y-77156862D01*
X149100873Y-77149980D01*
X149861990Y-76834715D01*
X150018360Y-76506698D01*
X148654360Y-75142698D01*
X147290360Y-76506698D01*
X131494856Y-76506698D01*
X131474541Y-76476295D01*
X130117797Y-75119551D01*
X130117797Y-74760858D01*
X130084464Y-74583706D01*
X146493118Y-74583706D01*
X146500000Y-75442133D01*
X146815265Y-76203250D01*
X147143282Y-76359620D01*
X148507282Y-74995620D01*
X148801438Y-74995620D01*
X150165438Y-76359620D01*
X150493455Y-76203250D01*
X150815602Y-75407534D01*
X150808998Y-74583706D01*
X160209118Y-74583706D01*
X160216000Y-75442133D01*
X160531265Y-76203250D01*
X160859282Y-76359620D01*
X162223282Y-74995620D01*
X162517438Y-74995620D01*
X163881438Y-76359620D01*
X164209455Y-76203250D01*
X164531602Y-75407534D01*
X164525586Y-74657107D01*
X167306725Y-74657107D01*
X167313607Y-75515534D01*
X167628872Y-76276651D01*
X167956889Y-76433021D01*
X169320889Y-75069021D01*
X169615045Y-75069021D01*
X170979045Y-76433021D01*
X171307062Y-76276651D01*
X171629209Y-75480935D01*
X171622605Y-74657107D01*
X181022725Y-74657107D01*
X181029607Y-75515534D01*
X181344872Y-76276651D01*
X181672889Y-76433021D01*
X183036889Y-75069021D01*
X183331045Y-75069021D01*
X184695045Y-76433021D01*
X185023062Y-76276651D01*
X185345209Y-75480935D01*
X185338327Y-74622508D01*
X185023062Y-73861391D01*
X184695045Y-73705021D01*
X183331045Y-75069021D01*
X183036889Y-75069021D01*
X181672889Y-73705021D01*
X181344872Y-73861391D01*
X181022725Y-74657107D01*
X171622605Y-74657107D01*
X171622327Y-74622508D01*
X171307062Y-73861391D01*
X170979045Y-73705021D01*
X169615045Y-75069021D01*
X169320889Y-75069021D01*
X167956889Y-73705021D01*
X167628872Y-73861391D01*
X167306725Y-74657107D01*
X164525586Y-74657107D01*
X164524720Y-74549107D01*
X164209455Y-73787990D01*
X163881438Y-73631620D01*
X162517438Y-74995620D01*
X162223282Y-74995620D01*
X160859282Y-73631620D01*
X160531265Y-73787990D01*
X160209118Y-74583706D01*
X150808998Y-74583706D01*
X150808720Y-74549107D01*
X150493455Y-73787990D01*
X150165438Y-73631620D01*
X148801438Y-74995620D01*
X148507282Y-74995620D01*
X147143282Y-73631620D01*
X146815265Y-73787990D01*
X146493118Y-74583706D01*
X130084464Y-74583706D01*
X130079446Y-74557040D01*
X129958990Y-74369846D01*
X129775195Y-74244264D01*
X129557022Y-74200083D01*
X128307022Y-74200083D01*
X128103204Y-74238434D01*
X127916010Y-74358890D01*
X127822041Y-74496418D01*
X126298765Y-74496418D01*
X126122102Y-74460643D01*
X125062102Y-74460643D01*
X124858284Y-74498994D01*
X124671090Y-74619450D01*
X124545508Y-74803245D01*
X124501327Y-75021418D01*
X124501327Y-75605813D01*
X124482877Y-75650355D01*
X124482877Y-75021418D01*
X124444526Y-74817600D01*
X124324070Y-74630406D01*
X124140275Y-74504824D01*
X123922102Y-74460643D01*
X122862102Y-74460643D01*
X122671974Y-74496418D01*
X120587615Y-74496418D01*
X120478795Y-74422064D01*
X120260622Y-74377883D01*
X119010622Y-74377883D01*
X118806804Y-74416234D01*
X118619610Y-74536690D01*
X118494028Y-74720485D01*
X118449847Y-74938658D01*
X118449847Y-75938658D01*
X118488198Y-76142476D01*
X118608654Y-76329670D01*
X118666308Y-76369064D01*
X118637895Y-76380833D01*
X118452796Y-76565931D01*
X118352622Y-76807774D01*
X118352622Y-77170158D01*
X118517122Y-77334658D01*
X119531622Y-77334658D01*
X119531622Y-77314658D01*
X119739622Y-77314658D01*
X119739622Y-77334658D01*
X119759622Y-77334658D01*
X119759622Y-77542658D01*
X119739622Y-77542658D01*
X119739622Y-78432158D01*
X119904122Y-78596658D01*
X120391507Y-78596658D01*
X120633349Y-78496483D01*
X120816000Y-78313833D01*
X120816000Y-79247832D01*
X120815853Y-79416334D01*
X120944985Y-79728857D01*
X121064958Y-79849039D01*
X121064959Y-79849041D01*
X121064961Y-79849042D01*
X121183885Y-79968174D01*
X121340717Y-80033297D01*
X121340719Y-80033298D01*
X121340722Y-80033299D01*
X121496183Y-80097852D01*
X121834334Y-80098147D01*
X121991280Y-80033298D01*
X121991281Y-80033298D01*
X121991282Y-80033297D01*
X122146857Y-79969015D01*
X122267039Y-79849042D01*
X122267041Y-79849041D01*
X122267042Y-79849039D01*
X122386174Y-79730115D01*
X122451297Y-79573283D01*
X122451298Y-79573281D01*
X122451299Y-79573278D01*
X122515852Y-79417817D01*
X122516147Y-79079666D01*
X122516000Y-79079310D01*
X122516000Y-78000602D01*
X122643929Y-78088012D01*
X122862102Y-78132193D01*
X123504245Y-78132193D01*
X123469421Y-78167017D01*
X123285164Y-78442777D01*
X123220462Y-78768058D01*
X123220462Y-80015392D01*
X123080010Y-80105770D01*
X122976557Y-80257178D01*
X120263414Y-80257178D01*
X120240035Y-80241204D01*
X120021862Y-80197023D01*
X118771862Y-80197023D01*
X118568044Y-80235374D01*
X118380850Y-80355830D01*
X118255268Y-80539625D01*
X118211087Y-80757798D01*
X118211087Y-81757798D01*
X118249438Y-81961616D01*
X118369894Y-82148810D01*
X118427548Y-82188204D01*
X118399135Y-82199973D01*
X118214036Y-82385071D01*
X118113862Y-82626914D01*
X118113862Y-82989298D01*
X118278362Y-83153798D01*
X119292862Y-83153798D01*
X119292862Y-83133798D01*
X119500862Y-83133798D01*
X119500862Y-83153798D01*
X120515362Y-83153798D01*
X120679862Y-82989298D01*
X120679862Y-82626914D01*
X120579688Y-82385071D01*
X120394589Y-82199973D01*
X120367700Y-82188835D01*
X120412874Y-82159766D01*
X120538456Y-81975971D01*
X120542262Y-81957178D01*
X122978676Y-81957178D01*
X123069054Y-82097630D01*
X123154398Y-82155943D01*
X123080010Y-82203810D01*
X122954428Y-82387605D01*
X122910247Y-82605778D01*
X122910247Y-83804658D01*
X122948598Y-84008476D01*
X123069054Y-84195670D01*
X123220462Y-84299123D01*
X123220462Y-84591273D01*
X123049770Y-84701110D01*
X122924188Y-84884905D01*
X122880007Y-85103078D01*
X122880007Y-85803078D01*
X122918358Y-86006896D01*
X123038814Y-86194090D01*
X123222609Y-86319672D01*
X123348068Y-86345078D01*
X123309897Y-86345078D01*
X123068055Y-86445253D01*
X122882956Y-86630351D01*
X122782782Y-86872194D01*
X122782782Y-87084578D01*
X122947282Y-87249078D01*
X123986782Y-87249078D01*
X123986782Y-87229078D01*
X124194782Y-87229078D01*
X124194782Y-87249078D01*
X125234282Y-87249078D01*
X125398782Y-87084578D01*
X125398782Y-86872194D01*
X125298608Y-86630351D01*
X125113509Y-86445253D01*
X124871667Y-86345078D01*
X124840563Y-86345078D01*
X124944600Y-86325502D01*
X125131794Y-86205046D01*
X125257376Y-86021251D01*
X125301557Y-85803078D01*
X125301557Y-85103078D01*
X125263206Y-84899260D01*
X125142750Y-84712066D01*
X124958955Y-84586484D01*
X124920462Y-84578689D01*
X124920462Y-84297004D01*
X125060914Y-84206626D01*
X125186496Y-84022831D01*
X125230677Y-83804658D01*
X125230677Y-82605778D01*
X125192326Y-82401960D01*
X125071870Y-82214766D01*
X124986526Y-82156453D01*
X125060914Y-82108586D01*
X125186496Y-81924791D01*
X125230677Y-81706618D01*
X125230677Y-80507738D01*
X125192326Y-80303920D01*
X125071870Y-80116726D01*
X124920462Y-80013273D01*
X124920462Y-79120140D01*
X125908409Y-78132193D01*
X126122102Y-78132193D01*
X126312230Y-78096418D01*
X126946462Y-78096418D01*
X127271743Y-78031716D01*
X127547503Y-77847459D01*
X127649022Y-77745940D01*
X127649022Y-77891742D01*
X127749196Y-78133585D01*
X127934295Y-78318683D01*
X128176137Y-78418858D01*
X128663522Y-78418858D01*
X128828022Y-78254358D01*
X128828022Y-77364858D01*
X128808022Y-77364858D01*
X128808022Y-77156858D01*
X128828022Y-77156858D01*
X128828022Y-77136858D01*
X129036022Y-77136858D01*
X129036022Y-77156858D01*
X129056022Y-77156858D01*
X129056022Y-77364858D01*
X129036022Y-77364858D01*
X129036022Y-78254358D01*
X129200522Y-78418858D01*
X129687907Y-78418858D01*
X129929749Y-78318683D01*
X130023500Y-78224933D01*
X130023500Y-80506520D01*
X129856782Y-80473358D01*
X129795422Y-80473358D01*
X129196140Y-80592563D01*
X128688093Y-80932029D01*
X128348627Y-81440076D01*
X128229422Y-82039358D01*
X128271791Y-82252361D01*
X128196223Y-82267393D01*
X128182820Y-82270059D01*
X127907060Y-82454316D01*
X127907058Y-82454319D01*
X126208459Y-84152917D01*
X126024202Y-84428677D01*
X125959500Y-84753958D01*
X125959500Y-88992418D01*
X116619959Y-98331959D01*
X116435702Y-98607719D01*
X116371000Y-98933000D01*
X114200000Y-98933000D01*
X114200000Y-87621578D01*
X122782782Y-87621578D01*
X122782782Y-87833962D01*
X122882956Y-88075805D01*
X123068055Y-88260903D01*
X123309897Y-88361078D01*
X123822282Y-88361078D01*
X123986782Y-88196578D01*
X123986782Y-87457078D01*
X124194782Y-87457078D01*
X124194782Y-88196578D01*
X124359282Y-88361078D01*
X124871667Y-88361078D01*
X125113509Y-88260903D01*
X125298608Y-88075805D01*
X125398782Y-87833962D01*
X125398782Y-87621578D01*
X125234282Y-87457078D01*
X124194782Y-87457078D01*
X123986782Y-87457078D01*
X122947282Y-87457078D01*
X122782782Y-87621578D01*
X114200000Y-87621578D01*
X114200000Y-83526298D01*
X118113862Y-83526298D01*
X118113862Y-83888682D01*
X118214036Y-84130525D01*
X118399135Y-84315623D01*
X118640977Y-84415798D01*
X119128362Y-84415798D01*
X119292862Y-84251298D01*
X119292862Y-83361798D01*
X119500862Y-83361798D01*
X119500862Y-84251298D01*
X119665362Y-84415798D01*
X120152747Y-84415798D01*
X120394589Y-84315623D01*
X120579688Y-84130525D01*
X120679862Y-83888682D01*
X120679862Y-83526298D01*
X120515362Y-83361798D01*
X119500862Y-83361798D01*
X119292862Y-83361798D01*
X118278362Y-83361798D01*
X118113862Y-83526298D01*
X114200000Y-83526298D01*
X114200000Y-77707158D01*
X118352622Y-77707158D01*
X118352622Y-78069542D01*
X118452796Y-78311385D01*
X118637895Y-78496483D01*
X118879737Y-78596658D01*
X119367122Y-78596658D01*
X119531622Y-78432158D01*
X119531622Y-77542658D01*
X118517122Y-77542658D01*
X118352622Y-77707158D01*
X114200000Y-77707158D01*
X114200000Y-73484542D01*
X147290360Y-73484542D01*
X148654360Y-74848542D01*
X150018360Y-73484542D01*
X161006360Y-73484542D01*
X162370360Y-74848542D01*
X163660959Y-73557943D01*
X168103967Y-73557943D01*
X169467967Y-74921943D01*
X170831967Y-73557943D01*
X181819967Y-73557943D01*
X183183967Y-74921943D01*
X184547967Y-73557943D01*
X184391597Y-73229926D01*
X183595881Y-72907779D01*
X182737454Y-72914661D01*
X181976337Y-73229926D01*
X181819967Y-73557943D01*
X170831967Y-73557943D01*
X170675597Y-73229926D01*
X169879881Y-72907779D01*
X169021454Y-72914661D01*
X168260337Y-73229926D01*
X168103967Y-73557943D01*
X163660959Y-73557943D01*
X163734360Y-73484542D01*
X163577990Y-73156525D01*
X162782274Y-72834378D01*
X161923847Y-72841260D01*
X161162730Y-73156525D01*
X161006360Y-73484542D01*
X150018360Y-73484542D01*
X149861990Y-73156525D01*
X149066274Y-72834378D01*
X148207847Y-72841260D01*
X147446730Y-73156525D01*
X147290360Y-73484542D01*
X114200000Y-73484542D01*
X114200000Y-66860000D01*
X200330000Y-66860000D01*
X200330000Y-137940000D01*
X200330000Y-137940000D01*
G37*
X200330000Y-137940000D02*
X114200000Y-137940000D01*
X114200000Y-130860578D01*
X122270500Y-130860578D01*
X122426870Y-131188595D01*
X123222586Y-131510742D01*
X124081013Y-131503860D01*
X124842130Y-131188595D01*
X124998500Y-130860578D01*
X123634500Y-129496578D01*
X122270500Y-130860578D01*
X114200000Y-130860578D01*
X114200000Y-128937586D01*
X121473258Y-128937586D01*
X121480140Y-129796013D01*
X121795405Y-130557130D01*
X122123422Y-130713500D01*
X123487422Y-129349500D01*
X123781578Y-129349500D01*
X125145578Y-130713500D01*
X125473595Y-130557130D01*
X125633532Y-130162078D01*
X137066000Y-130162078D01*
X137222370Y-130490095D01*
X138018086Y-130812242D01*
X138876513Y-130805360D01*
X139637630Y-130490095D01*
X139794000Y-130162078D01*
X150782000Y-130162078D01*
X150938370Y-130490095D01*
X151734086Y-130812242D01*
X152592513Y-130805360D01*
X153353630Y-130490095D01*
X153449457Y-130289078D01*
X157386000Y-130289078D01*
X157542370Y-130617095D01*
X158338086Y-130939242D01*
X159196513Y-130932360D01*
X159957630Y-130617095D01*
X160114000Y-130289078D01*
X171102000Y-130289078D01*
X171258370Y-130617095D01*
X172054086Y-130939242D01*
X172912513Y-130932360D01*
X173673630Y-130617095D01*
X173830000Y-130289078D01*
X172466000Y-128925078D01*
X171102000Y-130289078D01*
X160114000Y-130289078D01*
X158750000Y-128925078D01*
X157386000Y-130289078D01*
X153449457Y-130289078D01*
X153510000Y-130162078D01*
X152146000Y-128798078D01*
X150782000Y-130162078D01*
X139794000Y-130162078D01*
X138430000Y-128798078D01*
X137066000Y-130162078D01*
X125633532Y-130162078D01*
X125795742Y-129761414D01*
X125788860Y-128902987D01*
X125506372Y-128221000D01*
X128842500Y-128221000D01*
X128842500Y-128708385D01*
X128942675Y-128950227D01*
X129127773Y-129135326D01*
X129369616Y-129235500D01*
X129732000Y-129235500D01*
X129896500Y-129071000D01*
X129896500Y-128056500D01*
X129007000Y-128056500D01*
X128842500Y-128221000D01*
X125506372Y-128221000D01*
X125473595Y-128141870D01*
X125145578Y-127985500D01*
X123781578Y-129349500D01*
X123487422Y-129349500D01*
X122123422Y-127985500D01*
X121795405Y-128141870D01*
X121473258Y-128937586D01*
X114200000Y-128937586D01*
X114200000Y-127838422D01*
X122270500Y-127838422D01*
X123634500Y-129202422D01*
X124998500Y-127838422D01*
X124842130Y-127510405D01*
X124067057Y-127196615D01*
X128842500Y-127196615D01*
X128842500Y-127684000D01*
X129007000Y-127848500D01*
X129896500Y-127848500D01*
X129896500Y-126834000D01*
X130104500Y-126834000D01*
X130104500Y-127848500D01*
X130124500Y-127848500D01*
X130124500Y-128056500D01*
X130104500Y-128056500D01*
X130104500Y-129071000D01*
X130269000Y-129235500D01*
X130631384Y-129235500D01*
X130873227Y-129135326D01*
X131058325Y-128950227D01*
X131069463Y-128923338D01*
X131098532Y-128968512D01*
X131282327Y-129094094D01*
X131500500Y-129138275D01*
X132500500Y-129138275D01*
X132704318Y-129099924D01*
X132891512Y-128979468D01*
X133017094Y-128795673D01*
X133046087Y-128652500D01*
X134175500Y-128652500D01*
X134443379Y-128599216D01*
X134614157Y-128485106D01*
X134661334Y-128485147D01*
X134973857Y-128356015D01*
X135090990Y-128239086D01*
X136268758Y-128239086D01*
X136275640Y-129097513D01*
X136590905Y-129858630D01*
X136918922Y-130015000D01*
X138282922Y-128651000D01*
X138577078Y-128651000D01*
X139941078Y-130015000D01*
X140269095Y-129858630D01*
X140591242Y-129062914D01*
X140584638Y-128239086D01*
X149984758Y-128239086D01*
X149991640Y-129097513D01*
X150306905Y-129858630D01*
X150634922Y-130015000D01*
X151998922Y-128651000D01*
X152293078Y-128651000D01*
X153657078Y-130015000D01*
X153985095Y-129858630D01*
X154307242Y-129062914D01*
X154301656Y-128366086D01*
X156588758Y-128366086D01*
X156595640Y-129224513D01*
X156910905Y-129985630D01*
X157238922Y-130142000D01*
X158602922Y-128778000D01*
X158897078Y-128778000D01*
X160261078Y-130142000D01*
X160589095Y-129985630D01*
X160911242Y-129189914D01*
X160904638Y-128366086D01*
X170304758Y-128366086D01*
X170311640Y-129224513D01*
X170626905Y-129985630D01*
X170954922Y-130142000D01*
X172318922Y-128778000D01*
X172613078Y-128778000D01*
X173977078Y-130142000D01*
X174305095Y-129985630D01*
X174627242Y-129189914D01*
X174620360Y-128331487D01*
X174305095Y-127570370D01*
X173977078Y-127414000D01*
X172613078Y-128778000D01*
X172318922Y-128778000D01*
X170954922Y-127414000D01*
X170626905Y-127570370D01*
X170304758Y-128366086D01*
X160904638Y-128366086D01*
X160904360Y-128331487D01*
X160589095Y-127570370D01*
X160261078Y-127414000D01*
X158897078Y-128778000D01*
X158602922Y-128778000D01*
X157238922Y-127414000D01*
X156910905Y-127570370D01*
X156588758Y-128366086D01*
X154301656Y-128366086D01*
X154300360Y-128204487D01*
X153985095Y-127443370D01*
X153657078Y-127287000D01*
X152293078Y-128651000D01*
X151998922Y-128651000D01*
X150634922Y-127287000D01*
X150306905Y-127443370D01*
X149984758Y-128239086D01*
X140584638Y-128239086D01*
X140584360Y-128204487D01*
X140269095Y-127443370D01*
X139941078Y-127287000D01*
X138577078Y-128651000D01*
X138282922Y-128651000D01*
X136918922Y-127287000D01*
X136590905Y-127443370D01*
X136268758Y-128239086D01*
X135090990Y-128239086D01*
X135213174Y-128117115D01*
X135342852Y-127804817D01*
X135343147Y-127466666D01*
X135214015Y-127154143D01*
X135199819Y-127139922D01*
X137066000Y-127139922D01*
X138430000Y-128503922D01*
X139794000Y-127139922D01*
X139705240Y-126953730D01*
X140655348Y-126953730D01*
X140720197Y-127203962D01*
X141244740Y-127401096D01*
X141804796Y-127382491D01*
X142235803Y-127203962D01*
X142300652Y-126953730D01*
X141478000Y-126131078D01*
X140655348Y-126953730D01*
X139705240Y-126953730D01*
X139637630Y-126811905D01*
X138841914Y-126489758D01*
X137983487Y-126496640D01*
X137222370Y-126811905D01*
X137066000Y-127139922D01*
X135199819Y-127139922D01*
X134975115Y-126914826D01*
X134662817Y-126785148D01*
X134324666Y-126784853D01*
X134012143Y-126913985D01*
X133772826Y-127152885D01*
X133731462Y-127252500D01*
X133047163Y-127252500D01*
X133022924Y-127123682D01*
X132902468Y-126936488D01*
X132718673Y-126810906D01*
X132500500Y-126766725D01*
X131500500Y-126766725D01*
X131296682Y-126805076D01*
X131109488Y-126925532D01*
X131070094Y-126983186D01*
X131058325Y-126954773D01*
X130873227Y-126769674D01*
X130631384Y-126669500D01*
X130269000Y-126669500D01*
X130104500Y-126834000D01*
X129896500Y-126834000D01*
X129732000Y-126669500D01*
X129369616Y-126669500D01*
X129127773Y-126769674D01*
X128942675Y-126954773D01*
X128842500Y-127196615D01*
X124067057Y-127196615D01*
X124046414Y-127188258D01*
X123187987Y-127195140D01*
X122426870Y-127510405D01*
X122270500Y-127838422D01*
X114200000Y-127838422D01*
X114200000Y-98933000D01*
X116371000Y-98933000D01*
X116371000Y-116713000D01*
X116435702Y-117038281D01*
X116619959Y-117314041D01*
X125001015Y-125695097D01*
X125000704Y-126051064D01*
X125198287Y-126529251D01*
X125563824Y-126895427D01*
X126041666Y-127093844D01*
X126559064Y-127094296D01*
X127037251Y-126896713D01*
X127403427Y-126531176D01*
X127601844Y-126053334D01*
X127602108Y-125750740D01*
X140060904Y-125750740D01*
X140079509Y-126310796D01*
X140258038Y-126741803D01*
X140508270Y-126806652D01*
X141330922Y-125984000D01*
X140508270Y-125161348D01*
X140258038Y-125226197D01*
X140060904Y-125750740D01*
X127602108Y-125750740D01*
X127602157Y-125694925D01*
X128431582Y-124865500D01*
X140693903Y-124865500D01*
X140655348Y-125014270D01*
X141478000Y-125836922D01*
X142300652Y-125014270D01*
X142262097Y-124865500D01*
X143319246Y-124865500D01*
X143282249Y-124880787D01*
X142916073Y-125246324D01*
X142811057Y-125499232D01*
X142697962Y-125226197D01*
X142447730Y-125161348D01*
X141625078Y-125984000D01*
X142447730Y-126806652D01*
X142697962Y-126741803D01*
X142805580Y-126455449D01*
X142914787Y-126719751D01*
X143280324Y-127085927D01*
X143758166Y-127284344D01*
X144275564Y-127284796D01*
X144753751Y-127087213D01*
X145034168Y-126807285D01*
X145312324Y-127085927D01*
X145790166Y-127284344D01*
X146307564Y-127284796D01*
X146785751Y-127087213D01*
X147151927Y-126721676D01*
X147213693Y-126572928D01*
X147225803Y-126585038D01*
X147225805Y-126585041D01*
X147501565Y-126769298D01*
X147544840Y-126777906D01*
X147852324Y-127085927D01*
X148330166Y-127284344D01*
X148847564Y-127284796D01*
X149198185Y-127139922D01*
X150782000Y-127139922D01*
X152146000Y-128503922D01*
X153383000Y-127266922D01*
X157386000Y-127266922D01*
X158750000Y-128630922D01*
X160114000Y-127266922D01*
X160025240Y-127080730D01*
X160975348Y-127080730D01*
X161040197Y-127330962D01*
X161564740Y-127528096D01*
X162124796Y-127509491D01*
X162555803Y-127330962D01*
X162620652Y-127080730D01*
X161798000Y-126258078D01*
X160975348Y-127080730D01*
X160025240Y-127080730D01*
X159957630Y-126938905D01*
X159161914Y-126616758D01*
X158303487Y-126623640D01*
X157542370Y-126938905D01*
X157386000Y-127266922D01*
X153383000Y-127266922D01*
X153510000Y-127139922D01*
X153353630Y-126811905D01*
X152557914Y-126489758D01*
X151699487Y-126496640D01*
X150938370Y-126811905D01*
X150782000Y-127139922D01*
X149198185Y-127139922D01*
X149325751Y-127087213D01*
X149691927Y-126721676D01*
X149890344Y-126243834D01*
X149890657Y-125885425D01*
X149898341Y-125877740D01*
X160380904Y-125877740D01*
X160399509Y-126437796D01*
X160578038Y-126868803D01*
X160828270Y-126933652D01*
X161650922Y-126111000D01*
X160828270Y-125288348D01*
X160578038Y-125353197D01*
X160380904Y-125877740D01*
X149898341Y-125877740D01*
X151037581Y-124738500D01*
X161408456Y-124738500D01*
X161040197Y-124891038D01*
X160975348Y-125141270D01*
X161798000Y-125963922D01*
X162620652Y-125141270D01*
X162555803Y-124891038D01*
X162149923Y-124738500D01*
X166906918Y-124738500D01*
X167309431Y-125141013D01*
X167309431Y-125211181D01*
X167107676Y-125009073D01*
X166629834Y-124810656D01*
X166112436Y-124810204D01*
X165634249Y-125007787D01*
X165353832Y-125287715D01*
X165075676Y-125009073D01*
X164597834Y-124810656D01*
X164080436Y-124810204D01*
X163602249Y-125007787D01*
X163236073Y-125373324D01*
X163131057Y-125626232D01*
X163017962Y-125353197D01*
X162767730Y-125288348D01*
X161945078Y-126111000D01*
X162767730Y-126933652D01*
X163017962Y-126868803D01*
X163125580Y-126582449D01*
X163234787Y-126846751D01*
X163600324Y-127212927D01*
X164078166Y-127411344D01*
X164595564Y-127411796D01*
X165073751Y-127214213D01*
X165354168Y-126934285D01*
X165632324Y-127212927D01*
X166110166Y-127411344D01*
X166627564Y-127411796D01*
X167105751Y-127214213D01*
X167471927Y-126848676D01*
X167640169Y-126443504D01*
X167806787Y-126846751D01*
X168172324Y-127212927D01*
X168650166Y-127411344D01*
X169167564Y-127411796D01*
X169645751Y-127214213D01*
X169899407Y-126961000D01*
X171247837Y-126961000D01*
X171102000Y-127266922D01*
X172466000Y-128630922D01*
X173728844Y-127368078D01*
X190025000Y-127368078D01*
X190181370Y-127696095D01*
X190977086Y-128018242D01*
X191835513Y-128011360D01*
X192596630Y-127696095D01*
X192753000Y-127368078D01*
X191389000Y-126004078D01*
X190025000Y-127368078D01*
X173728844Y-127368078D01*
X173830000Y-127266922D01*
X173684163Y-126961000D01*
X174180500Y-126961000D01*
X174505781Y-126896298D01*
X174781541Y-126712041D01*
X176048496Y-125445086D01*
X189227758Y-125445086D01*
X189234640Y-126303513D01*
X189549905Y-127064630D01*
X189877922Y-127221000D01*
X191241922Y-125857000D01*
X191536078Y-125857000D01*
X192900078Y-127221000D01*
X193228095Y-127064630D01*
X193550242Y-126268914D01*
X193543360Y-125410487D01*
X193228095Y-124649370D01*
X192900078Y-124493000D01*
X191536078Y-125857000D01*
X191241922Y-125857000D01*
X189877922Y-124493000D01*
X189549905Y-124649370D01*
X189227758Y-125445086D01*
X176048496Y-125445086D01*
X178865082Y-122628500D01*
X181454225Y-122628500D01*
X181454225Y-123878500D01*
X181492576Y-124082318D01*
X181613032Y-124269512D01*
X181796827Y-124395094D01*
X182015000Y-124439275D01*
X183015000Y-124439275D01*
X183218818Y-124400924D01*
X183406012Y-124280468D01*
X183445406Y-124222814D01*
X183457175Y-124251227D01*
X183642273Y-124436326D01*
X183884116Y-124536500D01*
X184246500Y-124536500D01*
X184411000Y-124372000D01*
X184411000Y-123357500D01*
X184619000Y-123357500D01*
X184619000Y-124372000D01*
X184783500Y-124536500D01*
X185145884Y-124536500D01*
X185387727Y-124436326D01*
X185478130Y-124345922D01*
X190025000Y-124345922D01*
X191389000Y-125709922D01*
X192753000Y-124345922D01*
X192596630Y-124017905D01*
X191800914Y-123695758D01*
X190942487Y-123702640D01*
X190181370Y-124017905D01*
X190025000Y-124345922D01*
X185478130Y-124345922D01*
X185572825Y-124251227D01*
X185673000Y-124009385D01*
X185673000Y-123778730D01*
X187899348Y-123778730D01*
X187964197Y-124028962D01*
X188488740Y-124226096D01*
X189048796Y-124207491D01*
X189479803Y-124028962D01*
X189544652Y-123778730D01*
X188722000Y-122956078D01*
X187899348Y-123778730D01*
X185673000Y-123778730D01*
X185673000Y-123522000D01*
X185508500Y-123357500D01*
X184619000Y-123357500D01*
X184411000Y-123357500D01*
X184391000Y-123357500D01*
X184391000Y-123149500D01*
X184411000Y-123149500D01*
X184411000Y-122135000D01*
X184619000Y-122135000D01*
X184619000Y-123149500D01*
X185508500Y-123149500D01*
X185673000Y-122985000D01*
X185673000Y-122575740D01*
X187304904Y-122575740D01*
X187323509Y-123135796D01*
X187502038Y-123566803D01*
X187752270Y-123631652D01*
X188574922Y-122809000D01*
X188869078Y-122809000D01*
X189691730Y-123631652D01*
X189941962Y-123566803D01*
X190139096Y-123042260D01*
X190120491Y-122482204D01*
X189941962Y-122051197D01*
X189691730Y-121986348D01*
X188869078Y-122809000D01*
X188574922Y-122809000D01*
X187752270Y-121986348D01*
X187502038Y-122051197D01*
X187304904Y-122575740D01*
X185673000Y-122575740D01*
X185673000Y-122497615D01*
X185572825Y-122255773D01*
X185387727Y-122070674D01*
X185145884Y-121970500D01*
X184783500Y-121970500D01*
X184619000Y-122135000D01*
X184411000Y-122135000D01*
X184246500Y-121970500D01*
X183884116Y-121970500D01*
X183642273Y-122070674D01*
X183457175Y-122255773D01*
X183446037Y-122282662D01*
X183416968Y-122237488D01*
X183233173Y-122111906D01*
X183215000Y-122108226D01*
X183215000Y-121580671D01*
X183282674Y-121513115D01*
X183412352Y-121200817D01*
X183412647Y-120862666D01*
X183283515Y-120550143D01*
X183044615Y-120310826D01*
X182732317Y-120181148D01*
X182394166Y-120180853D01*
X182081643Y-120309985D01*
X181842326Y-120548885D01*
X181712648Y-120861183D01*
X181712353Y-121199334D01*
X181815000Y-121447758D01*
X181815000Y-122105358D01*
X181811182Y-122106076D01*
X181623988Y-122226532D01*
X181498406Y-122410327D01*
X181454225Y-122628500D01*
X178865082Y-122628500D01*
X184946582Y-116547000D01*
X187732837Y-116547000D01*
X187984324Y-116798927D01*
X188389496Y-116967169D01*
X187986249Y-117133787D01*
X187620073Y-117499324D01*
X187421656Y-117977166D01*
X187421204Y-118494564D01*
X187618787Y-118972751D01*
X187898715Y-119253168D01*
X187620073Y-119531324D01*
X187421656Y-120009166D01*
X187421204Y-120526564D01*
X187618787Y-121004751D01*
X187984324Y-121370927D01*
X188237232Y-121475943D01*
X187964197Y-121589038D01*
X187899348Y-121839270D01*
X188722000Y-122661922D01*
X189544652Y-121839270D01*
X189479803Y-121589038D01*
X189193449Y-121481420D01*
X189457751Y-121372213D01*
X189823927Y-121006676D01*
X190022344Y-120528834D01*
X190022796Y-120011436D01*
X189825213Y-119533249D01*
X189545285Y-119252832D01*
X189823927Y-118974676D01*
X190022344Y-118496834D01*
X190022796Y-117979436D01*
X189825213Y-117501249D01*
X189459676Y-117135073D01*
X189054504Y-116966831D01*
X189457751Y-116800213D01*
X189823927Y-116434676D01*
X190022344Y-115956834D01*
X190022796Y-115439436D01*
X189825213Y-114961249D01*
X189459676Y-114595073D01*
X188981834Y-114396656D01*
X188623425Y-114396343D01*
X187879160Y-113652078D01*
X190025000Y-113652078D01*
X190181370Y-113980095D01*
X190977086Y-114302242D01*
X191835513Y-114295360D01*
X192596630Y-113980095D01*
X192753000Y-113652078D01*
X191389000Y-112288078D01*
X190025000Y-113652078D01*
X187879160Y-113652078D01*
X187730500Y-113503418D01*
X187730500Y-111729086D01*
X189227758Y-111729086D01*
X189234640Y-112587513D01*
X189549905Y-113348630D01*
X189877922Y-113505000D01*
X191241922Y-112141000D01*
X191536078Y-112141000D01*
X192900078Y-113505000D01*
X193228095Y-113348630D01*
X193550242Y-112552914D01*
X193543360Y-111694487D01*
X193228095Y-110933370D01*
X192900078Y-110777000D01*
X191536078Y-112141000D01*
X191241922Y-112141000D01*
X189877922Y-110777000D01*
X189549905Y-110933370D01*
X189227758Y-111729086D01*
X187730500Y-111729086D01*
X187730500Y-110629922D01*
X190025000Y-110629922D01*
X191389000Y-111993922D01*
X192753000Y-110629922D01*
X192596630Y-110301905D01*
X191800914Y-109979758D01*
X190942487Y-109986640D01*
X190181370Y-110301905D01*
X190025000Y-110629922D01*
X187730500Y-110629922D01*
X187730500Y-106667078D01*
X190025000Y-106667078D01*
X190181370Y-106995095D01*
X190977086Y-107317242D01*
X191835513Y-107310360D01*
X192596630Y-106995095D01*
X192753000Y-106667078D01*
X191389000Y-105303078D01*
X190025000Y-106667078D01*
X187730500Y-106667078D01*
X187730500Y-104744086D01*
X189227758Y-104744086D01*
X189234640Y-105602513D01*
X189549905Y-106363630D01*
X189877922Y-106520000D01*
X191241922Y-105156000D01*
X191536078Y-105156000D01*
X192900078Y-106520000D01*
X193228095Y-106363630D01*
X193550242Y-105567914D01*
X193543360Y-104709487D01*
X193228095Y-103948370D01*
X192900078Y-103792000D01*
X191536078Y-105156000D01*
X191241922Y-105156000D01*
X189877922Y-103792000D01*
X189549905Y-103948370D01*
X189227758Y-104744086D01*
X187730500Y-104744086D01*
X187730500Y-103644922D01*
X190025000Y-103644922D01*
X191389000Y-105008922D01*
X192753000Y-103644922D01*
X192596630Y-103316905D01*
X191800914Y-102994758D01*
X190942487Y-103001640D01*
X190181370Y-103316905D01*
X190025000Y-103644922D01*
X187730500Y-103644922D01*
X187730500Y-103143389D01*
X187782096Y-103194985D01*
X187899349Y-103077732D01*
X187964197Y-103327962D01*
X188488740Y-103525096D01*
X189048796Y-103506491D01*
X189479803Y-103327962D01*
X189544652Y-103077730D01*
X188722000Y-102255078D01*
X188707858Y-102269221D01*
X188560780Y-102122143D01*
X188574922Y-102108000D01*
X188869078Y-102108000D01*
X189691730Y-102930652D01*
X189941962Y-102865803D01*
X190139096Y-102341260D01*
X190120491Y-101781204D01*
X189941962Y-101350197D01*
X189691730Y-101285348D01*
X188869078Y-102108000D01*
X188574922Y-102108000D01*
X188560780Y-102093858D01*
X188707858Y-101946780D01*
X188722000Y-101960922D01*
X189544652Y-101138270D01*
X189479803Y-100888038D01*
X189193449Y-100780420D01*
X189457751Y-100671213D01*
X189823927Y-100305676D01*
X190022344Y-99827834D01*
X190022796Y-99310436D01*
X189825213Y-98832249D01*
X189545285Y-98551832D01*
X189823927Y-98273676D01*
X190022344Y-97795834D01*
X190022796Y-97278436D01*
X189825213Y-96800249D01*
X189459676Y-96434073D01*
X189054504Y-96265831D01*
X189457751Y-96099213D01*
X189823927Y-95733676D01*
X190022344Y-95255834D01*
X190022796Y-94738436D01*
X189825213Y-94260249D01*
X189459676Y-93894073D01*
X188981834Y-93695656D01*
X188623425Y-93695343D01*
X188572472Y-93644390D01*
X188572469Y-93644388D01*
X187879160Y-92951078D01*
X190025000Y-92951078D01*
X190181370Y-93279095D01*
X190977086Y-93601242D01*
X191835513Y-93594360D01*
X192596630Y-93279095D01*
X192753000Y-92951078D01*
X191389000Y-91587078D01*
X190025000Y-92951078D01*
X187879160Y-92951078D01*
X185956168Y-91028086D01*
X189227758Y-91028086D01*
X189234640Y-91886513D01*
X189549905Y-92647630D01*
X189877922Y-92804000D01*
X191241922Y-91440000D01*
X191536078Y-91440000D01*
X192900078Y-92804000D01*
X193228095Y-92647630D01*
X193550242Y-91851914D01*
X193543360Y-90993487D01*
X193228095Y-90232370D01*
X192900078Y-90076000D01*
X191536078Y-91440000D01*
X191241922Y-91440000D01*
X189877922Y-90076000D01*
X189549905Y-90232370D01*
X189227758Y-91028086D01*
X185956168Y-91028086D01*
X184857004Y-89928922D01*
X190025000Y-89928922D01*
X191389000Y-91292922D01*
X192753000Y-89928922D01*
X192596630Y-89600905D01*
X191800914Y-89278758D01*
X190942487Y-89285640D01*
X190181370Y-89600905D01*
X190025000Y-89928922D01*
X184857004Y-89928922D01*
X178455155Y-83527073D01*
X178539834Y-83527147D01*
X178852357Y-83398015D01*
X178873409Y-83377000D01*
X179390915Y-83377000D01*
X179503532Y-83552012D01*
X179687327Y-83677594D01*
X179905500Y-83721775D01*
X181155500Y-83721775D01*
X181359318Y-83683424D01*
X181546512Y-83562968D01*
X181672094Y-83379173D01*
X181716275Y-83161000D01*
X181716275Y-82161000D01*
X181677924Y-81957182D01*
X181557468Y-81769988D01*
X181499814Y-81730594D01*
X181528227Y-81718825D01*
X181713326Y-81533727D01*
X181813500Y-81291884D01*
X181813500Y-80929500D01*
X181649000Y-80765000D01*
X180634500Y-80765000D01*
X180634500Y-80785000D01*
X180426500Y-80785000D01*
X180426500Y-80765000D01*
X179412000Y-80765000D01*
X179247500Y-80929500D01*
X179247500Y-81291884D01*
X179347674Y-81533727D01*
X179532773Y-81718825D01*
X179559662Y-81729963D01*
X179514488Y-81759032D01*
X179388906Y-81942827D01*
X179381986Y-81977000D01*
X178873754Y-81977000D01*
X178853615Y-81956826D01*
X178541317Y-81827148D01*
X178203166Y-81826853D01*
X177890643Y-81955985D01*
X177651326Y-82194885D01*
X177521648Y-82507183D01*
X177521573Y-82593491D01*
X174958198Y-80030116D01*
X179247500Y-80030116D01*
X179247500Y-80392500D01*
X179412000Y-80557000D01*
X180426500Y-80557000D01*
X180426500Y-79667500D01*
X180634500Y-79667500D01*
X180634500Y-80557000D01*
X181649000Y-80557000D01*
X181813500Y-80392500D01*
X181813500Y-80030116D01*
X181713326Y-79788273D01*
X181528227Y-79603175D01*
X181286385Y-79503000D01*
X180799000Y-79503000D01*
X180634500Y-79667500D01*
X180426500Y-79667500D01*
X180262000Y-79503000D01*
X179774615Y-79503000D01*
X179532773Y-79603175D01*
X179347674Y-79788273D01*
X179247500Y-80030116D01*
X174958198Y-80030116D01*
X174624536Y-79696454D01*
X174624536Y-78635840D01*
X174826291Y-78837948D01*
X175304133Y-79036365D01*
X175821531Y-79036817D01*
X176299718Y-78839234D01*
X176580135Y-78559306D01*
X176858291Y-78837948D01*
X177336133Y-79036365D01*
X177853531Y-79036817D01*
X178331718Y-78839234D01*
X178465434Y-78705751D01*
X179313315Y-78705751D01*
X179378164Y-78955983D01*
X179902707Y-79153117D01*
X180462763Y-79134512D01*
X180893770Y-78955983D01*
X180958619Y-78705751D01*
X180135967Y-77883099D01*
X179313315Y-78705751D01*
X178465434Y-78705751D01*
X178697894Y-78473697D01*
X178802910Y-78220789D01*
X178916005Y-78493824D01*
X179166237Y-78558673D01*
X179988889Y-77736021D01*
X180283045Y-77736021D01*
X181105697Y-78558673D01*
X181355929Y-78493824D01*
X181553063Y-77969281D01*
X181534458Y-77409225D01*
X181355929Y-76978218D01*
X181105697Y-76913369D01*
X180283045Y-77736021D01*
X179988889Y-77736021D01*
X179166237Y-76913369D01*
X178916005Y-76978218D01*
X178808387Y-77264572D01*
X178699180Y-77000270D01*
X178465610Y-76766291D01*
X179313315Y-76766291D01*
X180135967Y-77588943D01*
X180958619Y-76766291D01*
X180910367Y-76580099D01*
X181819967Y-76580099D01*
X181976337Y-76908116D01*
X182772053Y-77230263D01*
X183630480Y-77223381D01*
X184391597Y-76908116D01*
X184547967Y-76580099D01*
X183183967Y-75216099D01*
X181819967Y-76580099D01*
X180910367Y-76580099D01*
X180893770Y-76516059D01*
X180369227Y-76318925D01*
X179809171Y-76337530D01*
X179378164Y-76516059D01*
X179313315Y-76766291D01*
X178465610Y-76766291D01*
X178333643Y-76634094D01*
X177855801Y-76435677D01*
X177338403Y-76435225D01*
X176860216Y-76632808D01*
X176579799Y-76912736D01*
X176301643Y-76634094D01*
X175823801Y-76435677D01*
X175306403Y-76435225D01*
X174828216Y-76632808D01*
X174462040Y-76998345D01*
X174293798Y-77403517D01*
X174127180Y-77000270D01*
X173761643Y-76634094D01*
X173283801Y-76435677D01*
X172766403Y-76435225D01*
X172288216Y-76632808D01*
X171922040Y-76998345D01*
X171723623Y-77476187D01*
X171723310Y-77834596D01*
X171159906Y-78398000D01*
X160550749Y-78398000D01*
X160739456Y-77895880D01*
X160720851Y-77335824D01*
X160542322Y-76904817D01*
X160292090Y-76839968D01*
X159469438Y-77662620D01*
X159483581Y-77676763D01*
X159336503Y-77823841D01*
X159322360Y-77809698D01*
X159308218Y-77823841D01*
X159161140Y-77676763D01*
X159175282Y-77662620D01*
X158352630Y-76839968D01*
X158102398Y-76904817D01*
X157994780Y-77191171D01*
X157885573Y-76926869D01*
X157652003Y-76692890D01*
X158499708Y-76692890D01*
X159322360Y-77515542D01*
X160145012Y-76692890D01*
X160096760Y-76506698D01*
X161006360Y-76506698D01*
X161162730Y-76834715D01*
X161958446Y-77156862D01*
X162816873Y-77149980D01*
X163577990Y-76834715D01*
X163699368Y-76580099D01*
X168103967Y-76580099D01*
X168260337Y-76908116D01*
X169056053Y-77230263D01*
X169914480Y-77223381D01*
X170675597Y-76908116D01*
X170831967Y-76580099D01*
X169467967Y-75216099D01*
X168103967Y-76580099D01*
X163699368Y-76580099D01*
X163734360Y-76506698D01*
X162370360Y-75142698D01*
X161006360Y-76506698D01*
X160096760Y-76506698D01*
X160080163Y-76442658D01*
X159555620Y-76245524D01*
X158995564Y-76264129D01*
X158564557Y-76442658D01*
X158499708Y-76692890D01*
X157652003Y-76692890D01*
X157520036Y-76560693D01*
X157042194Y-76362276D01*
X156524796Y-76361824D01*
X156046609Y-76559407D01*
X155766192Y-76839335D01*
X155488036Y-76560693D01*
X155010194Y-76362276D01*
X154492796Y-76361824D01*
X154014609Y-76559407D01*
X153648433Y-76924944D01*
X153586668Y-77073692D01*
X153574555Y-77061579D01*
X153298795Y-76877322D01*
X153255520Y-76868714D01*
X152948036Y-76560693D01*
X152470194Y-76362276D01*
X151952796Y-76361824D01*
X151474609Y-76559407D01*
X151108433Y-76924944D01*
X150910016Y-77402786D01*
X150909703Y-77761195D01*
X147481540Y-81189358D01*
X131684235Y-81189358D01*
X131723500Y-80991960D01*
X131723500Y-77077336D01*
X131658798Y-76752055D01*
X131494856Y-76506698D01*
X147290360Y-76506698D01*
X147446730Y-76834715D01*
X148242446Y-77156862D01*
X149100873Y-77149980D01*
X149861990Y-76834715D01*
X150018360Y-76506698D01*
X148654360Y-75142698D01*
X147290360Y-76506698D01*
X131494856Y-76506698D01*
X131474541Y-76476295D01*
X130117797Y-75119551D01*
X130117797Y-74760858D01*
X130084464Y-74583706D01*
X146493118Y-74583706D01*
X146500000Y-75442133D01*
X146815265Y-76203250D01*
X147143282Y-76359620D01*
X148507282Y-74995620D01*
X148801438Y-74995620D01*
X150165438Y-76359620D01*
X150493455Y-76203250D01*
X150815602Y-75407534D01*
X150808998Y-74583706D01*
X160209118Y-74583706D01*
X160216000Y-75442133D01*
X160531265Y-76203250D01*
X160859282Y-76359620D01*
X162223282Y-74995620D01*
X162517438Y-74995620D01*
X163881438Y-76359620D01*
X164209455Y-76203250D01*
X164531602Y-75407534D01*
X164525586Y-74657107D01*
X167306725Y-74657107D01*
X167313607Y-75515534D01*
X167628872Y-76276651D01*
X167956889Y-76433021D01*
X169320889Y-75069021D01*
X169615045Y-75069021D01*
X170979045Y-76433021D01*
X171307062Y-76276651D01*
X171629209Y-75480935D01*
X171622605Y-74657107D01*
X181022725Y-74657107D01*
X181029607Y-75515534D01*
X181344872Y-76276651D01*
X181672889Y-76433021D01*
X183036889Y-75069021D01*
X183331045Y-75069021D01*
X184695045Y-76433021D01*
X185023062Y-76276651D01*
X185345209Y-75480935D01*
X185338327Y-74622508D01*
X185023062Y-73861391D01*
X184695045Y-73705021D01*
X183331045Y-75069021D01*
X183036889Y-75069021D01*
X181672889Y-73705021D01*
X181344872Y-73861391D01*
X181022725Y-74657107D01*
X171622605Y-74657107D01*
X171622327Y-74622508D01*
X171307062Y-73861391D01*
X170979045Y-73705021D01*
X169615045Y-75069021D01*
X169320889Y-75069021D01*
X167956889Y-73705021D01*
X167628872Y-73861391D01*
X167306725Y-74657107D01*
X164525586Y-74657107D01*
X164524720Y-74549107D01*
X164209455Y-73787990D01*
X163881438Y-73631620D01*
X162517438Y-74995620D01*
X162223282Y-74995620D01*
X160859282Y-73631620D01*
X160531265Y-73787990D01*
X160209118Y-74583706D01*
X150808998Y-74583706D01*
X150808720Y-74549107D01*
X150493455Y-73787990D01*
X150165438Y-73631620D01*
X148801438Y-74995620D01*
X148507282Y-74995620D01*
X147143282Y-73631620D01*
X146815265Y-73787990D01*
X146493118Y-74583706D01*
X130084464Y-74583706D01*
X130079446Y-74557040D01*
X129958990Y-74369846D01*
X129775195Y-74244264D01*
X129557022Y-74200083D01*
X128307022Y-74200083D01*
X128103204Y-74238434D01*
X127916010Y-74358890D01*
X127822041Y-74496418D01*
X126298765Y-74496418D01*
X126122102Y-74460643D01*
X125062102Y-74460643D01*
X124858284Y-74498994D01*
X124671090Y-74619450D01*
X124545508Y-74803245D01*
X124501327Y-75021418D01*
X124501327Y-75605813D01*
X124482877Y-75650355D01*
X124482877Y-75021418D01*
X124444526Y-74817600D01*
X124324070Y-74630406D01*
X124140275Y-74504824D01*
X123922102Y-74460643D01*
X122862102Y-74460643D01*
X122671974Y-74496418D01*
X120587615Y-74496418D01*
X120478795Y-74422064D01*
X120260622Y-74377883D01*
X119010622Y-74377883D01*
X118806804Y-74416234D01*
X118619610Y-74536690D01*
X118494028Y-74720485D01*
X118449847Y-74938658D01*
X118449847Y-75938658D01*
X118488198Y-76142476D01*
X118608654Y-76329670D01*
X118666308Y-76369064D01*
X118637895Y-76380833D01*
X118452796Y-76565931D01*
X118352622Y-76807774D01*
X118352622Y-77170158D01*
X118517122Y-77334658D01*
X119531622Y-77334658D01*
X119531622Y-77314658D01*
X119739622Y-77314658D01*
X119739622Y-77334658D01*
X119759622Y-77334658D01*
X119759622Y-77542658D01*
X119739622Y-77542658D01*
X119739622Y-78432158D01*
X119904122Y-78596658D01*
X120391507Y-78596658D01*
X120633349Y-78496483D01*
X120816000Y-78313833D01*
X120816000Y-79247832D01*
X120815853Y-79416334D01*
X120944985Y-79728857D01*
X121064958Y-79849039D01*
X121064959Y-79849041D01*
X121064961Y-79849042D01*
X121183885Y-79968174D01*
X121340717Y-80033297D01*
X121340719Y-80033298D01*
X121340722Y-80033299D01*
X121496183Y-80097852D01*
X121834334Y-80098147D01*
X121991280Y-80033298D01*
X121991281Y-80033298D01*
X121991282Y-80033297D01*
X122146857Y-79969015D01*
X122267039Y-79849042D01*
X122267041Y-79849041D01*
X122267042Y-79849039D01*
X122386174Y-79730115D01*
X122451297Y-79573283D01*
X122451298Y-79573281D01*
X122451299Y-79573278D01*
X122515852Y-79417817D01*
X122516147Y-79079666D01*
X122516000Y-79079310D01*
X122516000Y-78000602D01*
X122643929Y-78088012D01*
X122862102Y-78132193D01*
X123504245Y-78132193D01*
X123469421Y-78167017D01*
X123285164Y-78442777D01*
X123220462Y-78768058D01*
X123220462Y-80015392D01*
X123080010Y-80105770D01*
X122976557Y-80257178D01*
X120263414Y-80257178D01*
X120240035Y-80241204D01*
X120021862Y-80197023D01*
X118771862Y-80197023D01*
X118568044Y-80235374D01*
X118380850Y-80355830D01*
X118255268Y-80539625D01*
X118211087Y-80757798D01*
X118211087Y-81757798D01*
X118249438Y-81961616D01*
X118369894Y-82148810D01*
X118427548Y-82188204D01*
X118399135Y-82199973D01*
X118214036Y-82385071D01*
X118113862Y-82626914D01*
X118113862Y-82989298D01*
X118278362Y-83153798D01*
X119292862Y-83153798D01*
X119292862Y-83133798D01*
X119500862Y-83133798D01*
X119500862Y-83153798D01*
X120515362Y-83153798D01*
X120679862Y-82989298D01*
X120679862Y-82626914D01*
X120579688Y-82385071D01*
X120394589Y-82199973D01*
X120367700Y-82188835D01*
X120412874Y-82159766D01*
X120538456Y-81975971D01*
X120542262Y-81957178D01*
X122978676Y-81957178D01*
X123069054Y-82097630D01*
X123154398Y-82155943D01*
X123080010Y-82203810D01*
X122954428Y-82387605D01*
X122910247Y-82605778D01*
X122910247Y-83804658D01*
X122948598Y-84008476D01*
X123069054Y-84195670D01*
X123220462Y-84299123D01*
X123220462Y-84591273D01*
X123049770Y-84701110D01*
X122924188Y-84884905D01*
X122880007Y-85103078D01*
X122880007Y-85803078D01*
X122918358Y-86006896D01*
X123038814Y-86194090D01*
X123222609Y-86319672D01*
X123348068Y-86345078D01*
X123309897Y-86345078D01*
X123068055Y-86445253D01*
X122882956Y-86630351D01*
X122782782Y-86872194D01*
X122782782Y-87084578D01*
X122947282Y-87249078D01*
X123986782Y-87249078D01*
X123986782Y-87229078D01*
X124194782Y-87229078D01*
X124194782Y-87249078D01*
X125234282Y-87249078D01*
X125398782Y-87084578D01*
X125398782Y-86872194D01*
X125298608Y-86630351D01*
X125113509Y-86445253D01*
X124871667Y-86345078D01*
X124840563Y-86345078D01*
X124944600Y-86325502D01*
X125131794Y-86205046D01*
X125257376Y-86021251D01*
X125301557Y-85803078D01*
X125301557Y-85103078D01*
X125263206Y-84899260D01*
X125142750Y-84712066D01*
X124958955Y-84586484D01*
X124920462Y-84578689D01*
X124920462Y-84297004D01*
X125060914Y-84206626D01*
X125186496Y-84022831D01*
X125230677Y-83804658D01*
X125230677Y-82605778D01*
X125192326Y-82401960D01*
X125071870Y-82214766D01*
X124986526Y-82156453D01*
X125060914Y-82108586D01*
X125186496Y-81924791D01*
X125230677Y-81706618D01*
X125230677Y-80507738D01*
X125192326Y-80303920D01*
X125071870Y-80116726D01*
X124920462Y-80013273D01*
X124920462Y-79120140D01*
X125908409Y-78132193D01*
X126122102Y-78132193D01*
X126312230Y-78096418D01*
X126946462Y-78096418D01*
X127271743Y-78031716D01*
X127547503Y-77847459D01*
X127649022Y-77745940D01*
X127649022Y-77891742D01*
X127749196Y-78133585D01*
X127934295Y-78318683D01*
X128176137Y-78418858D01*
X128663522Y-78418858D01*
X128828022Y-78254358D01*
X128828022Y-77364858D01*
X128808022Y-77364858D01*
X128808022Y-77156858D01*
X128828022Y-77156858D01*
X128828022Y-77136858D01*
X129036022Y-77136858D01*
X129036022Y-77156858D01*
X129056022Y-77156858D01*
X129056022Y-77364858D01*
X129036022Y-77364858D01*
X129036022Y-78254358D01*
X129200522Y-78418858D01*
X129687907Y-78418858D01*
X129929749Y-78318683D01*
X130023500Y-78224933D01*
X130023500Y-80506520D01*
X129856782Y-80473358D01*
X129795422Y-80473358D01*
X129196140Y-80592563D01*
X128688093Y-80932029D01*
X128348627Y-81440076D01*
X128229422Y-82039358D01*
X128271791Y-82252361D01*
X128196223Y-82267393D01*
X128182820Y-82270059D01*
X127907060Y-82454316D01*
X127907058Y-82454319D01*
X126208459Y-84152917D01*
X126024202Y-84428677D01*
X125959500Y-84753958D01*
X125959500Y-88992418D01*
X116619959Y-98331959D01*
X116435702Y-98607719D01*
X116371000Y-98933000D01*
X114200000Y-98933000D01*
X114200000Y-87621578D01*
X122782782Y-87621578D01*
X122782782Y-87833962D01*
X122882956Y-88075805D01*
X123068055Y-88260903D01*
X123309897Y-88361078D01*
X123822282Y-88361078D01*
X123986782Y-88196578D01*
X123986782Y-87457078D01*
X124194782Y-87457078D01*
X124194782Y-88196578D01*
X124359282Y-88361078D01*
X124871667Y-88361078D01*
X125113509Y-88260903D01*
X125298608Y-88075805D01*
X125398782Y-87833962D01*
X125398782Y-87621578D01*
X125234282Y-87457078D01*
X124194782Y-87457078D01*
X123986782Y-87457078D01*
X122947282Y-87457078D01*
X122782782Y-87621578D01*
X114200000Y-87621578D01*
X114200000Y-83526298D01*
X118113862Y-83526298D01*
X118113862Y-83888682D01*
X118214036Y-84130525D01*
X118399135Y-84315623D01*
X118640977Y-84415798D01*
X119128362Y-84415798D01*
X119292862Y-84251298D01*
X119292862Y-83361798D01*
X119500862Y-83361798D01*
X119500862Y-84251298D01*
X119665362Y-84415798D01*
X120152747Y-84415798D01*
X120394589Y-84315623D01*
X120579688Y-84130525D01*
X120679862Y-83888682D01*
X120679862Y-83526298D01*
X120515362Y-83361798D01*
X119500862Y-83361798D01*
X119292862Y-83361798D01*
X118278362Y-83361798D01*
X118113862Y-83526298D01*
X114200000Y-83526298D01*
X114200000Y-77707158D01*
X118352622Y-77707158D01*
X118352622Y-78069542D01*
X118452796Y-78311385D01*
X118637895Y-78496483D01*
X118879737Y-78596658D01*
X119367122Y-78596658D01*
X119531622Y-78432158D01*
X119531622Y-77542658D01*
X118517122Y-77542658D01*
X118352622Y-77707158D01*
X114200000Y-77707158D01*
X114200000Y-73484542D01*
X147290360Y-73484542D01*
X148654360Y-74848542D01*
X150018360Y-73484542D01*
X161006360Y-73484542D01*
X162370360Y-74848542D01*
X163660959Y-73557943D01*
X168103967Y-73557943D01*
X169467967Y-74921943D01*
X170831967Y-73557943D01*
X181819967Y-73557943D01*
X183183967Y-74921943D01*
X184547967Y-73557943D01*
X184391597Y-73229926D01*
X183595881Y-72907779D01*
X182737454Y-72914661D01*
X181976337Y-73229926D01*
X181819967Y-73557943D01*
X170831967Y-73557943D01*
X170675597Y-73229926D01*
X169879881Y-72907779D01*
X169021454Y-72914661D01*
X168260337Y-73229926D01*
X168103967Y-73557943D01*
X163660959Y-73557943D01*
X163734360Y-73484542D01*
X163577990Y-73156525D01*
X162782274Y-72834378D01*
X161923847Y-72841260D01*
X161162730Y-73156525D01*
X161006360Y-73484542D01*
X150018360Y-73484542D01*
X149861990Y-73156525D01*
X149066274Y-72834378D01*
X148207847Y-72841260D01*
X147446730Y-73156525D01*
X147290360Y-73484542D01*
X114200000Y-73484542D01*
X114200000Y-66860000D01*
X200330000Y-66860000D01*
X200330000Y-137940000D01*
G36*
X153957853Y-79849041D02*
X154233613Y-80033298D01*
X154558894Y-80098000D01*
X157975000Y-80098000D01*
X157975000Y-80392500D01*
X158139500Y-80557000D01*
X159154000Y-80557000D01*
X159154000Y-80537000D01*
X159362000Y-80537000D01*
X159362000Y-80557000D01*
X160376500Y-80557000D01*
X160541000Y-80392500D01*
X160541000Y-80098000D01*
X171511988Y-80098000D01*
X171837269Y-80033298D01*
X172113029Y-79849041D01*
X172924536Y-79037534D01*
X172924536Y-80048536D01*
X172989238Y-80373817D01*
X173173495Y-80649577D01*
X183079550Y-90555631D01*
X182880273Y-90638174D01*
X182695175Y-90823273D01*
X182684037Y-90850162D01*
X182654968Y-90804988D01*
X182471173Y-90679406D01*
X182253000Y-90635225D01*
X181253000Y-90635225D01*
X181049182Y-90673576D01*
X180861988Y-90794032D01*
X180736406Y-90977827D01*
X180692225Y-91196000D01*
X180692225Y-91891825D01*
X180351195Y-92232855D01*
X180065317Y-92114148D01*
X179727166Y-92113853D01*
X179414643Y-92242985D01*
X179175326Y-92481885D01*
X179045648Y-92794183D01*
X179045353Y-93132334D01*
X179174485Y-93444857D01*
X179413385Y-93684174D01*
X179725683Y-93813852D01*
X180063834Y-93814147D01*
X180376357Y-93685015D01*
X180397409Y-93664000D01*
X180610000Y-93664000D01*
X180877879Y-93610716D01*
X181104975Y-93458975D01*
X181557175Y-93006775D01*
X182253000Y-93006775D01*
X182456818Y-92968424D01*
X182644012Y-92847968D01*
X182683406Y-92790314D01*
X182695175Y-92818727D01*
X182880273Y-93003826D01*
X183122116Y-93104000D01*
X183484500Y-93104000D01*
X183649000Y-92939500D01*
X183649000Y-91925000D01*
X183629000Y-91925000D01*
X183629000Y-91717000D01*
X183649000Y-91717000D01*
X183649000Y-91697000D01*
X183857000Y-91697000D01*
X183857000Y-91717000D01*
X183877000Y-91717000D01*
X183877000Y-91925000D01*
X183857000Y-91925000D01*
X183857000Y-92939500D01*
X184021500Y-93104000D01*
X184383884Y-93104000D01*
X184625727Y-93003826D01*
X184810825Y-92818727D01*
X184911000Y-92576885D01*
X184911000Y-92387081D01*
X186989185Y-94465267D01*
X186279459Y-95174993D01*
X186095202Y-95450753D01*
X186030500Y-95776034D01*
X186030500Y-101422381D01*
X185953825Y-101237273D01*
X185768727Y-101052174D01*
X185526884Y-100952000D01*
X185164500Y-100952000D01*
X185000000Y-101116500D01*
X185000000Y-102131000D01*
X185020000Y-102131000D01*
X185020000Y-102339000D01*
X185000000Y-102339000D01*
X185000000Y-103353500D01*
X185164500Y-103518000D01*
X185526884Y-103518000D01*
X185768727Y-103417826D01*
X185953825Y-103232727D01*
X186030500Y-103047619D01*
X186030500Y-113855500D01*
X186095202Y-114180781D01*
X186279459Y-114456541D01*
X186669918Y-114847000D01*
X184594500Y-114847000D01*
X184269219Y-114911702D01*
X183993459Y-115095959D01*
X173828418Y-125261000D01*
X169899163Y-125261000D01*
X169647676Y-125009073D01*
X169169834Y-124810656D01*
X169009431Y-124810516D01*
X169009431Y-124788936D01*
X169009432Y-124788931D01*
X168944729Y-124463650D01*
X168760472Y-124187890D01*
X167860041Y-123287459D01*
X167584281Y-123103202D01*
X167259000Y-123038500D01*
X150685505Y-123038500D01*
X150685500Y-123038499D01*
X150360219Y-123103202D01*
X150084459Y-123287459D01*
X150084457Y-123287462D01*
X148688403Y-124683515D01*
X148332436Y-124683204D01*
X147904819Y-124859892D01*
X146459387Y-123414459D01*
X146183627Y-123230202D01*
X145858346Y-123165500D01*
X128079505Y-123165500D01*
X128079500Y-123165499D01*
X127754219Y-123230202D01*
X127602002Y-123331910D01*
X127602296Y-122995936D01*
X127404713Y-122517749D01*
X127124785Y-122237332D01*
X127403427Y-121959176D01*
X127525786Y-121664500D01*
X140385500Y-121664500D01*
X140385500Y-122026884D01*
X140485674Y-122268727D01*
X140670773Y-122453825D01*
X140912615Y-122554000D01*
X141400000Y-122554000D01*
X141564500Y-122389500D01*
X141564500Y-121500000D01*
X141772500Y-121500000D01*
X141772500Y-122389500D01*
X141937000Y-122554000D01*
X142424385Y-122554000D01*
X142666227Y-122453825D01*
X142851326Y-122268727D01*
X142951500Y-122026884D01*
X142951500Y-121664500D01*
X142787000Y-121500000D01*
X141772500Y-121500000D01*
X141564500Y-121500000D01*
X140550000Y-121500000D01*
X140385500Y-121664500D01*
X127525786Y-121664500D01*
X127601844Y-121481334D01*
X127602296Y-120963936D01*
X127404713Y-120485749D01*
X127039176Y-120119573D01*
X126786268Y-120014557D01*
X127059303Y-119901462D01*
X127124152Y-119651230D01*
X126301500Y-118828578D01*
X125478848Y-119651230D01*
X125543697Y-119901462D01*
X125830051Y-120009080D01*
X125565749Y-120118287D01*
X125199573Y-120483824D01*
X125001156Y-120961666D01*
X125000704Y-121479064D01*
X125198287Y-121957251D01*
X125478215Y-122237668D01*
X125199573Y-122515824D01*
X125001156Y-122993666D01*
X125000896Y-123290814D01*
X120158322Y-118448240D01*
X124884404Y-118448240D01*
X124903009Y-119008296D01*
X125081538Y-119439303D01*
X125331770Y-119504152D01*
X126154422Y-118681500D01*
X126448578Y-118681500D01*
X127271230Y-119504152D01*
X127521462Y-119439303D01*
X127718596Y-118914760D01*
X127699991Y-118354704D01*
X127552033Y-117997500D01*
X129033000Y-117997500D01*
X129033000Y-118484885D01*
X129133175Y-118726727D01*
X129318273Y-118911826D01*
X129560116Y-119012000D01*
X129922500Y-119012000D01*
X130087000Y-118847500D01*
X130087000Y-117833000D01*
X129197500Y-117833000D01*
X129033000Y-117997500D01*
X127552033Y-117997500D01*
X127521462Y-117923697D01*
X127271230Y-117858848D01*
X126448578Y-118681500D01*
X126154422Y-118681500D01*
X125331770Y-117858848D01*
X125081538Y-117923697D01*
X124884404Y-118448240D01*
X120158322Y-118448240D01*
X118854660Y-117144578D01*
X122270500Y-117144578D01*
X122426870Y-117472595D01*
X123222586Y-117794742D01*
X124081013Y-117787860D01*
X124264710Y-117711770D01*
X125478848Y-117711770D01*
X126301500Y-118534422D01*
X127124152Y-117711770D01*
X127059303Y-117461538D01*
X126534760Y-117264404D01*
X125974704Y-117283009D01*
X125543697Y-117461538D01*
X125478848Y-117711770D01*
X124264710Y-117711770D01*
X124842130Y-117472595D01*
X124998500Y-117144578D01*
X123634500Y-115780578D01*
X122270500Y-117144578D01*
X118854660Y-117144578D01*
X118071000Y-116360918D01*
X118071000Y-115221586D01*
X121473258Y-115221586D01*
X121480140Y-116080013D01*
X121795405Y-116841130D01*
X122123422Y-116997500D01*
X123487422Y-115633500D01*
X123781578Y-115633500D01*
X125145578Y-116997500D01*
X125196730Y-116973115D01*
X129033000Y-116973115D01*
X129033000Y-117460500D01*
X129197500Y-117625000D01*
X130087000Y-117625000D01*
X130087000Y-116610500D01*
X130295000Y-116610500D01*
X130295000Y-117625000D01*
X130315000Y-117625000D01*
X130315000Y-117833000D01*
X130295000Y-117833000D01*
X130295000Y-118847500D01*
X130459500Y-119012000D01*
X130821884Y-119012000D01*
X131063727Y-118911826D01*
X131248825Y-118726727D01*
X131259963Y-118699838D01*
X131289032Y-118745012D01*
X131472827Y-118870594D01*
X131691000Y-118914775D01*
X131697500Y-118914775D01*
X131697500Y-119766746D01*
X131677326Y-119786885D01*
X131547648Y-120099183D01*
X131547353Y-120437334D01*
X131676485Y-120749857D01*
X131915385Y-120989174D01*
X132227683Y-121118852D01*
X132565834Y-121119147D01*
X132878357Y-120990015D01*
X133103648Y-120765116D01*
X140385500Y-120765116D01*
X140385500Y-121127500D01*
X140550000Y-121292000D01*
X141564500Y-121292000D01*
X141564500Y-121272000D01*
X141772500Y-121272000D01*
X141772500Y-121292000D01*
X142787000Y-121292000D01*
X142859000Y-121220000D01*
X150672500Y-121220000D01*
X150672500Y-121582384D01*
X150772674Y-121824227D01*
X150957773Y-122009325D01*
X151199615Y-122109500D01*
X151687000Y-122109500D01*
X151851500Y-121945000D01*
X151851500Y-121055500D01*
X152059500Y-121055500D01*
X152059500Y-121945000D01*
X152224000Y-122109500D01*
X152711385Y-122109500D01*
X152953227Y-122009325D01*
X152980552Y-121982000D01*
X160832500Y-121982000D01*
X160832500Y-122344384D01*
X160932674Y-122586227D01*
X161117773Y-122771325D01*
X161359615Y-122871500D01*
X161847000Y-122871500D01*
X162011500Y-122707000D01*
X162011500Y-121817500D01*
X162219500Y-121817500D01*
X162219500Y-122707000D01*
X162384000Y-122871500D01*
X162871385Y-122871500D01*
X163113227Y-122771325D01*
X163298326Y-122586227D01*
X163397416Y-122347000D01*
X170802000Y-122347000D01*
X170802000Y-122709384D01*
X170902174Y-122951227D01*
X171087273Y-123136325D01*
X171329115Y-123236500D01*
X171816500Y-123236500D01*
X171981000Y-123072000D01*
X171981000Y-122182500D01*
X172189000Y-122182500D01*
X172189000Y-123072000D01*
X172353500Y-123236500D01*
X172840885Y-123236500D01*
X173082727Y-123136325D01*
X173267826Y-122951227D01*
X173368000Y-122709384D01*
X173368000Y-122347000D01*
X173203500Y-122182500D01*
X172189000Y-122182500D01*
X171981000Y-122182500D01*
X170966500Y-122182500D01*
X170802000Y-122347000D01*
X163397416Y-122347000D01*
X163398500Y-122344384D01*
X163398500Y-121982000D01*
X163234000Y-121817500D01*
X162219500Y-121817500D01*
X162011500Y-121817500D01*
X160997000Y-121817500D01*
X160832500Y-121982000D01*
X152980552Y-121982000D01*
X153138326Y-121824227D01*
X153238500Y-121582384D01*
X153238500Y-121220000D01*
X153101116Y-121082616D01*
X160832500Y-121082616D01*
X160832500Y-121445000D01*
X160997000Y-121609500D01*
X162011500Y-121609500D01*
X162011500Y-121589500D01*
X162219500Y-121589500D01*
X162219500Y-121609500D01*
X163234000Y-121609500D01*
X163398500Y-121445000D01*
X163398500Y-121082616D01*
X163298326Y-120840773D01*
X163113227Y-120655675D01*
X163086338Y-120644537D01*
X163131512Y-120615468D01*
X163257094Y-120431673D01*
X163260774Y-120413500D01*
X163724829Y-120413500D01*
X163792385Y-120481174D01*
X164104683Y-120610852D01*
X164442834Y-120611147D01*
X164755357Y-120482015D01*
X164994674Y-120243115D01*
X165124352Y-119930817D01*
X165124647Y-119592666D01*
X164995515Y-119280143D01*
X164756615Y-119040826D01*
X164444317Y-118911148D01*
X164106166Y-118910853D01*
X163857742Y-119013500D01*
X163263642Y-119013500D01*
X163262924Y-119009682D01*
X163142468Y-118822488D01*
X162958673Y-118696906D01*
X162740500Y-118652725D01*
X161490500Y-118652725D01*
X161286682Y-118691076D01*
X161099488Y-118811532D01*
X160973906Y-118995327D01*
X160929725Y-119213500D01*
X160929725Y-120213500D01*
X160968076Y-120417318D01*
X161088532Y-120604512D01*
X161146186Y-120643906D01*
X161117773Y-120655675D01*
X160932674Y-120840773D01*
X160832500Y-121082616D01*
X153101116Y-121082616D01*
X153074000Y-121055500D01*
X152059500Y-121055500D01*
X151851500Y-121055500D01*
X150837000Y-121055500D01*
X150672500Y-121220000D01*
X142859000Y-121220000D01*
X142951500Y-121127500D01*
X142951500Y-120765116D01*
X142851326Y-120523273D01*
X142666227Y-120338175D01*
X142639338Y-120327037D01*
X142684512Y-120297968D01*
X142810094Y-120114173D01*
X142813774Y-120096000D01*
X143641182Y-120096000D01*
X143657683Y-120102852D01*
X143995834Y-120103147D01*
X144308357Y-119974015D01*
X144547674Y-119735115D01*
X144677352Y-119422817D01*
X144677647Y-119084666D01*
X144548515Y-118772143D01*
X144309615Y-118532826D01*
X143997317Y-118403148D01*
X143659166Y-118402853D01*
X143346643Y-118531985D01*
X143182342Y-118696000D01*
X142816642Y-118696000D01*
X142815924Y-118692182D01*
X142695468Y-118504988D01*
X142511673Y-118379406D01*
X142293500Y-118335225D01*
X141043500Y-118335225D01*
X140839682Y-118373576D01*
X140652488Y-118494032D01*
X140526906Y-118677827D01*
X140482725Y-118896000D01*
X140482725Y-119896000D01*
X140521076Y-120099818D01*
X140641532Y-120287012D01*
X140699186Y-120326406D01*
X140670773Y-120338175D01*
X140485674Y-120523273D01*
X140385500Y-120765116D01*
X133103648Y-120765116D01*
X133117674Y-120751115D01*
X133247352Y-120438817D01*
X133247647Y-120100666D01*
X133118515Y-119788143D01*
X133097500Y-119767091D01*
X133097500Y-118733301D01*
X133207594Y-118572173D01*
X133251775Y-118354000D01*
X133251775Y-117104000D01*
X133213424Y-116900182D01*
X133201296Y-116881334D01*
X149898853Y-116881334D01*
X150027985Y-117193857D01*
X150049000Y-117214909D01*
X150049000Y-117745000D01*
X150102284Y-118012879D01*
X150254025Y-118239975D01*
X150769725Y-118755675D01*
X150769725Y-119451500D01*
X150808076Y-119655318D01*
X150928532Y-119842512D01*
X150986186Y-119881906D01*
X150957773Y-119893675D01*
X150772674Y-120078773D01*
X150672500Y-120320616D01*
X150672500Y-120683000D01*
X150837000Y-120847500D01*
X151851500Y-120847500D01*
X151851500Y-120827500D01*
X152059500Y-120827500D01*
X152059500Y-120847500D01*
X153074000Y-120847500D01*
X153238500Y-120683000D01*
X153238500Y-120320616D01*
X153138326Y-120078773D01*
X152953227Y-119893675D01*
X152926338Y-119882537D01*
X152971512Y-119853468D01*
X153097094Y-119669673D01*
X153141275Y-119451500D01*
X153141275Y-118451500D01*
X153102924Y-118247682D01*
X152982468Y-118060488D01*
X152798673Y-117934906D01*
X152613137Y-117897334D01*
X170472853Y-117897334D01*
X170601985Y-118209857D01*
X170623000Y-118230909D01*
X170623000Y-119316500D01*
X170676284Y-119584379D01*
X170828025Y-119811475D01*
X170899225Y-119882675D01*
X170899225Y-120578500D01*
X170937576Y-120782318D01*
X171058032Y-120969512D01*
X171115686Y-121008906D01*
X171087273Y-121020675D01*
X170902174Y-121205773D01*
X170802000Y-121447616D01*
X170802000Y-121810000D01*
X170966500Y-121974500D01*
X171981000Y-121974500D01*
X171981000Y-121954500D01*
X172189000Y-121954500D01*
X172189000Y-121974500D01*
X173203500Y-121974500D01*
X173368000Y-121810000D01*
X173368000Y-121447616D01*
X173267826Y-121205773D01*
X173082727Y-121020675D01*
X173055838Y-121009537D01*
X173101012Y-120980468D01*
X173226594Y-120796673D01*
X173270775Y-120578500D01*
X173270775Y-119578500D01*
X173232424Y-119374682D01*
X173111968Y-119187488D01*
X172928173Y-119061906D01*
X172710000Y-119017725D01*
X172023000Y-119017725D01*
X172023000Y-118231254D01*
X172043174Y-118211115D01*
X172172852Y-117898817D01*
X172173147Y-117560666D01*
X172044015Y-117248143D01*
X171805115Y-117008826D01*
X171492817Y-116879148D01*
X171154666Y-116878853D01*
X170842143Y-117007985D01*
X170602826Y-117246885D01*
X170473148Y-117559183D01*
X170472853Y-117897334D01*
X152613137Y-117897334D01*
X152580500Y-117890725D01*
X151884675Y-117890725D01*
X151449000Y-117455050D01*
X151449000Y-117215254D01*
X151469174Y-117195115D01*
X151598852Y-116882817D01*
X151599147Y-116544666D01*
X151470015Y-116232143D01*
X151231115Y-115992826D01*
X150918817Y-115863148D01*
X150580666Y-115862853D01*
X150268143Y-115991985D01*
X150028826Y-116230885D01*
X149899148Y-116543183D01*
X149898853Y-116881334D01*
X133201296Y-116881334D01*
X133092968Y-116712988D01*
X132909173Y-116587406D01*
X132691000Y-116543225D01*
X131691000Y-116543225D01*
X131487182Y-116581576D01*
X131299988Y-116702032D01*
X131260594Y-116759686D01*
X131248825Y-116731273D01*
X131063727Y-116546174D01*
X130821884Y-116446000D01*
X130459500Y-116446000D01*
X130295000Y-116610500D01*
X130087000Y-116610500D01*
X129922500Y-116446000D01*
X129560116Y-116446000D01*
X129318273Y-116546174D01*
X129133175Y-116731273D01*
X129033000Y-116973115D01*
X125196730Y-116973115D01*
X125473595Y-116841130D01*
X125795742Y-116045414D01*
X125788860Y-115186987D01*
X125677478Y-114918086D01*
X134573566Y-114918086D01*
X134837272Y-115515651D01*
X135309582Y-115966813D01*
X135843415Y-116187927D01*
X136103500Y-116059913D01*
X136103500Y-114658000D01*
X134701227Y-114658000D01*
X134573566Y-114918086D01*
X125677478Y-114918086D01*
X125473595Y-114425870D01*
X125145578Y-114269500D01*
X123781578Y-115633500D01*
X123487422Y-115633500D01*
X122123422Y-114269500D01*
X121795405Y-114425870D01*
X121473258Y-115221586D01*
X118071000Y-115221586D01*
X118071000Y-114122422D01*
X122270500Y-114122422D01*
X123634500Y-115486422D01*
X124931008Y-114189914D01*
X134573566Y-114189914D01*
X134701227Y-114450000D01*
X136103500Y-114450000D01*
X136103500Y-113048087D01*
X136311500Y-113048087D01*
X136311500Y-114450000D01*
X136331500Y-114450000D01*
X136331500Y-114658000D01*
X136311500Y-114658000D01*
X136311500Y-116059913D01*
X136571585Y-116187927D01*
X137105418Y-115966813D01*
X137246528Y-115832021D01*
X137329532Y-115961012D01*
X137513327Y-116086594D01*
X137731500Y-116130775D01*
X139763500Y-116130775D01*
X139967318Y-116092424D01*
X140154512Y-115971968D01*
X140280094Y-115788173D01*
X140324275Y-115570000D01*
X140324275Y-113579334D01*
X178600853Y-113579334D01*
X178729985Y-113891857D01*
X178968885Y-114131174D01*
X179281183Y-114260852D01*
X179619334Y-114261147D01*
X179931857Y-114132015D01*
X179952909Y-114111000D01*
X180356000Y-114111000D01*
X180623879Y-114057716D01*
X180850975Y-113905975D01*
X181430175Y-113326775D01*
X182126000Y-113326775D01*
X182329818Y-113288424D01*
X182517012Y-113167968D01*
X182556406Y-113110314D01*
X182568175Y-113138727D01*
X182753273Y-113323826D01*
X182995116Y-113424000D01*
X183357500Y-113424000D01*
X183522000Y-113259500D01*
X183522000Y-112245000D01*
X183730000Y-112245000D01*
X183730000Y-113259500D01*
X183894500Y-113424000D01*
X184256884Y-113424000D01*
X184498727Y-113323826D01*
X184683825Y-113138727D01*
X184784000Y-112896885D01*
X184784000Y-112409500D01*
X184619500Y-112245000D01*
X183730000Y-112245000D01*
X183522000Y-112245000D01*
X183502000Y-112245000D01*
X183502000Y-112037000D01*
X183522000Y-112037000D01*
X183522000Y-111022500D01*
X183730000Y-111022500D01*
X183730000Y-112037000D01*
X184619500Y-112037000D01*
X184784000Y-111872500D01*
X184784000Y-111385115D01*
X184683825Y-111143273D01*
X184498727Y-110958174D01*
X184256884Y-110858000D01*
X183894500Y-110858000D01*
X183730000Y-111022500D01*
X183522000Y-111022500D01*
X183357500Y-110858000D01*
X182995116Y-110858000D01*
X182753273Y-110958174D01*
X182568175Y-111143273D01*
X182557037Y-111170162D01*
X182527968Y-111124988D01*
X182344173Y-110999406D01*
X182126000Y-110955225D01*
X181126000Y-110955225D01*
X180922182Y-110993576D01*
X180734988Y-111114032D01*
X180609406Y-111297827D01*
X180565225Y-111516000D01*
X180565225Y-112211825D01*
X180066050Y-112711000D01*
X179953254Y-112711000D01*
X179933115Y-112690826D01*
X179620817Y-112561148D01*
X179282666Y-112560853D01*
X178970143Y-112689985D01*
X178730826Y-112928885D01*
X178601148Y-113241183D01*
X178600853Y-113579334D01*
X140324275Y-113579334D01*
X140324275Y-113538000D01*
X140285924Y-113334182D01*
X140165468Y-113146988D01*
X139981673Y-113021406D01*
X139763500Y-112977225D01*
X137731500Y-112977225D01*
X137527682Y-113015576D01*
X137340488Y-113136032D01*
X137245523Y-113275018D01*
X137105418Y-113141187D01*
X136571585Y-112920073D01*
X136311500Y-113048087D01*
X136103500Y-113048087D01*
X135843415Y-112920073D01*
X135309582Y-113141187D01*
X134837272Y-113592349D01*
X134573566Y-114189914D01*
X124931008Y-114189914D01*
X124998500Y-114122422D01*
X124842130Y-113794405D01*
X124046414Y-113472258D01*
X123187987Y-113479140D01*
X122426870Y-113794405D01*
X122270500Y-114122422D01*
X118071000Y-114122422D01*
X118071000Y-110791520D01*
X137998060Y-110791520D01*
X137998060Y-111253344D01*
X138098234Y-111495187D01*
X138283333Y-111680285D01*
X138525175Y-111780460D01*
X138987000Y-111780460D01*
X139151500Y-111615960D01*
X139151500Y-110627020D01*
X139359500Y-110627020D01*
X139359500Y-111615960D01*
X139524000Y-111780460D01*
X139985825Y-111780460D01*
X140227667Y-111680285D01*
X140412766Y-111495187D01*
X140512940Y-111253344D01*
X140512940Y-110791520D01*
X140348440Y-110627020D01*
X139359500Y-110627020D01*
X139151500Y-110627020D01*
X138162560Y-110627020D01*
X137998060Y-110791520D01*
X118071000Y-110791520D01*
X118071000Y-109648520D01*
X134886560Y-109648520D01*
X134886560Y-110110344D01*
X134986734Y-110352187D01*
X135171833Y-110537285D01*
X135413675Y-110637460D01*
X135875500Y-110637460D01*
X136040000Y-110472960D01*
X136040000Y-109484020D01*
X136248000Y-109484020D01*
X136248000Y-110472960D01*
X136412500Y-110637460D01*
X136874325Y-110637460D01*
X137116167Y-110537285D01*
X137301266Y-110352187D01*
X137401440Y-110110344D01*
X137401440Y-109792696D01*
X137998060Y-109792696D01*
X137998060Y-110254520D01*
X138162560Y-110419020D01*
X139151500Y-110419020D01*
X139151500Y-110399020D01*
X139359500Y-110399020D01*
X139359500Y-110419020D01*
X140348440Y-110419020D01*
X140512940Y-110254520D01*
X140512940Y-109792696D01*
X140412766Y-109550853D01*
X140263142Y-109401230D01*
X140371534Y-109242593D01*
X140415715Y-109024420D01*
X140415715Y-107825540D01*
X140377364Y-107621722D01*
X140256908Y-107434528D01*
X140073113Y-107308946D01*
X139955500Y-107285129D01*
X139955500Y-106562867D01*
X140109318Y-106533924D01*
X140296512Y-106413468D01*
X140422094Y-106229673D01*
X140466275Y-106011500D01*
X140466275Y-105311500D01*
X140427924Y-105107682D01*
X140307468Y-104920488D01*
X140123673Y-104794906D01*
X139905500Y-104750725D01*
X138605500Y-104750725D01*
X138401682Y-104789076D01*
X138214488Y-104909532D01*
X138088906Y-105093327D01*
X138044725Y-105311500D01*
X138044725Y-106011500D01*
X138083076Y-106215318D01*
X138203532Y-106402512D01*
X138387327Y-106528094D01*
X138555500Y-106562150D01*
X138555500Y-107283687D01*
X138452242Y-107303116D01*
X138265048Y-107423572D01*
X138139466Y-107607367D01*
X138095285Y-107825540D01*
X138095285Y-109024420D01*
X138133636Y-109228238D01*
X138246090Y-109402997D01*
X138098234Y-109550853D01*
X137998060Y-109792696D01*
X137401440Y-109792696D01*
X137401440Y-109648520D01*
X137236940Y-109484020D01*
X136248000Y-109484020D01*
X136040000Y-109484020D01*
X135051060Y-109484020D01*
X134886560Y-109648520D01*
X118071000Y-109648520D01*
X118071000Y-108649696D01*
X134886560Y-108649696D01*
X134886560Y-109111520D01*
X135051060Y-109276020D01*
X136040000Y-109276020D01*
X136040000Y-109256020D01*
X136248000Y-109256020D01*
X136248000Y-109276020D01*
X137236940Y-109276020D01*
X137401440Y-109111520D01*
X137401440Y-108649696D01*
X137301266Y-108407853D01*
X137151642Y-108258230D01*
X137260034Y-108099593D01*
X137304215Y-107881420D01*
X137304215Y-106682540D01*
X137265864Y-106478722D01*
X137145408Y-106291528D01*
X136961613Y-106165946D01*
X136844000Y-106142129D01*
X136844000Y-105419867D01*
X136997818Y-105390924D01*
X137185012Y-105270468D01*
X137310594Y-105086673D01*
X137354775Y-104868500D01*
X137354775Y-104168500D01*
X137316424Y-103964682D01*
X137195968Y-103777488D01*
X137012173Y-103651906D01*
X136794000Y-103607725D01*
X135494000Y-103607725D01*
X135290182Y-103646076D01*
X135102988Y-103766532D01*
X134977406Y-103950327D01*
X134933225Y-104168500D01*
X134933225Y-104868500D01*
X134971576Y-105072318D01*
X135092032Y-105259512D01*
X135275827Y-105385094D01*
X135444000Y-105419150D01*
X135444000Y-106140687D01*
X135340742Y-106160116D01*
X135153548Y-106280572D01*
X135027966Y-106464367D01*
X134983785Y-106682540D01*
X134983785Y-107881420D01*
X135022136Y-108085238D01*
X135134590Y-108259997D01*
X134986734Y-108407853D01*
X134886560Y-108649696D01*
X118071000Y-108649696D01*
X118071000Y-104427279D01*
X118176503Y-104682617D01*
X118457444Y-104964049D01*
X118824699Y-105116546D01*
X119222356Y-105116893D01*
X119589877Y-104965037D01*
X119871309Y-104684096D01*
X120023806Y-104316841D01*
X120024153Y-103919184D01*
X119872297Y-103551663D01*
X119591356Y-103270231D01*
X119224101Y-103117734D01*
X118826444Y-103117387D01*
X118458923Y-103269243D01*
X118177491Y-103550184D01*
X118071000Y-103806644D01*
X118071000Y-102268500D01*
X134933225Y-102268500D01*
X134933225Y-102968500D01*
X134971576Y-103172318D01*
X135092032Y-103359512D01*
X135275827Y-103485094D01*
X135494000Y-103529275D01*
X136794000Y-103529275D01*
X136997818Y-103490924D01*
X137185012Y-103370468D01*
X137220520Y-103318500D01*
X138063558Y-103318500D01*
X138044725Y-103411500D01*
X138044725Y-104111500D01*
X138083076Y-104315318D01*
X138203532Y-104502512D01*
X138387327Y-104628094D01*
X138605500Y-104672275D01*
X139905500Y-104672275D01*
X140109318Y-104633924D01*
X140296512Y-104513468D01*
X140332020Y-104461500D01*
X142977552Y-104461500D01*
X142977353Y-104689334D01*
X143106485Y-105001857D01*
X143345385Y-105241174D01*
X143657683Y-105370852D01*
X143995834Y-105371147D01*
X144099542Y-105328296D01*
X144077225Y-105438500D01*
X144077225Y-106138500D01*
X144115576Y-106342318D01*
X144236032Y-106529512D01*
X144419827Y-106655094D01*
X144638000Y-106699275D01*
X145938000Y-106699275D01*
X146141818Y-106660924D01*
X146329012Y-106540468D01*
X146454594Y-106356673D01*
X146498775Y-106138500D01*
X146498775Y-105438500D01*
X146469134Y-105280974D01*
X146582352Y-105008317D01*
X146582587Y-104738500D01*
X147521297Y-104738500D01*
X147491225Y-104887000D01*
X147491225Y-106187000D01*
X147529576Y-106390818D01*
X147650032Y-106578012D01*
X147702000Y-106613520D01*
X147702000Y-108898225D01*
X147290000Y-108898225D01*
X147086182Y-108936576D01*
X146898988Y-109057032D01*
X146773406Y-109240827D01*
X146729225Y-109459000D01*
X146729225Y-110759000D01*
X146767576Y-110962818D01*
X146888032Y-111150012D01*
X146940000Y-111185520D01*
X146940000Y-111572751D01*
X146917326Y-111595385D01*
X146787648Y-111907683D01*
X146787353Y-112245834D01*
X146916485Y-112558357D01*
X147155385Y-112797674D01*
X147467683Y-112927352D01*
X147805834Y-112927647D01*
X148118357Y-112798515D01*
X148357674Y-112559615D01*
X148487352Y-112247317D01*
X148487647Y-111909166D01*
X148358515Y-111596643D01*
X148340000Y-111578096D01*
X148340000Y-111187358D01*
X148381012Y-111160968D01*
X148506594Y-110977173D01*
X148550775Y-110759000D01*
X148550775Y-110708044D01*
X148622122Y-110755716D01*
X148629225Y-110757129D01*
X148629225Y-110759000D01*
X148667576Y-110962818D01*
X148788032Y-111150012D01*
X148971827Y-111275594D01*
X149190000Y-111319775D01*
X149890000Y-111319775D01*
X150093818Y-111281424D01*
X150281012Y-111160968D01*
X150406594Y-110977173D01*
X150450775Y-110759000D01*
X150450775Y-109459000D01*
X150412424Y-109255182D01*
X150291968Y-109067988D01*
X150108173Y-108942406D01*
X149890000Y-108898225D01*
X149190000Y-108898225D01*
X149102000Y-108914783D01*
X149102000Y-106734557D01*
X149182183Y-106767852D01*
X149520334Y-106768147D01*
X149712248Y-106688850D01*
X149733827Y-106703594D01*
X149952000Y-106747775D01*
X150652000Y-106747775D01*
X150855818Y-106709424D01*
X151043012Y-106588968D01*
X151168594Y-106405173D01*
X151212775Y-106187000D01*
X151212775Y-104887000D01*
X151174424Y-104683182D01*
X151053968Y-104495988D01*
X150872374Y-104371910D01*
X150979512Y-104302968D01*
X151105094Y-104119173D01*
X151149275Y-103901000D01*
X151149275Y-102601000D01*
X151110924Y-102397182D01*
X150990468Y-102209988D01*
X150806673Y-102084406D01*
X150588500Y-102040225D01*
X150473225Y-102040225D01*
X150528175Y-101985275D01*
X150652000Y-101985275D01*
X150855818Y-101946924D01*
X151043012Y-101826468D01*
X151168594Y-101642673D01*
X151175210Y-101610000D01*
X181835225Y-101610000D01*
X181835225Y-102860000D01*
X181873576Y-103063818D01*
X181994032Y-103251012D01*
X182177827Y-103376594D01*
X182396000Y-103420775D01*
X183396000Y-103420775D01*
X183599818Y-103382424D01*
X183787012Y-103261968D01*
X183826406Y-103204314D01*
X183838175Y-103232727D01*
X184023273Y-103417826D01*
X184265116Y-103518000D01*
X184627500Y-103518000D01*
X184792000Y-103353500D01*
X184792000Y-102339000D01*
X184772000Y-102339000D01*
X184772000Y-102131000D01*
X184792000Y-102131000D01*
X184792000Y-101116500D01*
X184627500Y-100952000D01*
X184265116Y-100952000D01*
X184023273Y-101052174D01*
X183838175Y-101237273D01*
X183827037Y-101264162D01*
X183797968Y-101218988D01*
X183614173Y-101093406D01*
X183580000Y-101086486D01*
X183580000Y-100832254D01*
X183600174Y-100812115D01*
X183729852Y-100499817D01*
X183730147Y-100161666D01*
X183601015Y-99849143D01*
X183362115Y-99609826D01*
X183049817Y-99480148D01*
X182711666Y-99479853D01*
X182399143Y-99608985D01*
X182159826Y-99847885D01*
X182030148Y-100160183D01*
X182029853Y-100498334D01*
X182158985Y-100810857D01*
X182180000Y-100831909D01*
X182180000Y-101095415D01*
X182004988Y-101208032D01*
X181879406Y-101391827D01*
X181835225Y-101610000D01*
X151175210Y-101610000D01*
X151212775Y-101424500D01*
X151212775Y-100124500D01*
X151174424Y-99920682D01*
X151053968Y-99733488D01*
X150870173Y-99607906D01*
X150652000Y-99563725D01*
X150302725Y-99563725D01*
X150680450Y-99186000D01*
X152274142Y-99186000D01*
X152300532Y-99227012D01*
X152484327Y-99352594D01*
X152702500Y-99396775D01*
X154002500Y-99396775D01*
X154206318Y-99358424D01*
X154393512Y-99237968D01*
X154519094Y-99054173D01*
X154563275Y-98836000D01*
X154563275Y-98136000D01*
X154524924Y-97932182D01*
X154404468Y-97744988D01*
X154220673Y-97619406D01*
X154002500Y-97575225D01*
X152702500Y-97575225D01*
X152498682Y-97613576D01*
X152311488Y-97734032D01*
X152275980Y-97786000D01*
X151637640Y-97786000D01*
X151723174Y-97700615D01*
X151852852Y-97388317D01*
X151852878Y-97358572D01*
X151925450Y-97286000D01*
X152274142Y-97286000D01*
X152300532Y-97327012D01*
X152484327Y-97452594D01*
X152702500Y-97496775D01*
X154002500Y-97496775D01*
X154206318Y-97458424D01*
X154393512Y-97337968D01*
X154519094Y-97154173D01*
X154563275Y-96936000D01*
X154563275Y-96236000D01*
X154524924Y-96032182D01*
X154404468Y-95844988D01*
X154220673Y-95719406D01*
X154002500Y-95675225D01*
X152702500Y-95675225D01*
X152498682Y-95713576D01*
X152311488Y-95834032D01*
X152275980Y-95886000D01*
X151635500Y-95886000D01*
X151367621Y-95939284D01*
X151140525Y-96091025D01*
X150863172Y-96368378D01*
X150834666Y-96368353D01*
X150522143Y-96497485D01*
X150282826Y-96736385D01*
X150153148Y-97048683D01*
X150152853Y-97386834D01*
X150281985Y-97699357D01*
X150372125Y-97789654D01*
X150122621Y-97839284D01*
X149895525Y-97991025D01*
X148322825Y-99563725D01*
X148052000Y-99563725D01*
X147848182Y-99602076D01*
X147660988Y-99722532D01*
X147535406Y-99906327D01*
X147501350Y-100074500D01*
X145975131Y-100074500D01*
X145882015Y-99849143D01*
X145643115Y-99609826D01*
X145330817Y-99480148D01*
X144992666Y-99479853D01*
X144680143Y-99608985D01*
X144494246Y-99794558D01*
X144436615Y-99736826D01*
X144135777Y-99611907D01*
X144214554Y-99496613D01*
X144258735Y-99278440D01*
X144258735Y-98079560D01*
X144220384Y-97875742D01*
X144099928Y-97688548D01*
X143916133Y-97562966D01*
X143697960Y-97518785D01*
X142499080Y-97518785D01*
X142295262Y-97557136D01*
X142108068Y-97677592D01*
X142049755Y-97762936D01*
X142001888Y-97688548D01*
X141818093Y-97562966D01*
X141599920Y-97518785D01*
X140401040Y-97518785D01*
X140197222Y-97557136D01*
X140059524Y-97645742D01*
X140055115Y-97641326D01*
X139742817Y-97511648D01*
X139404666Y-97511353D01*
X139092143Y-97640485D01*
X138852826Y-97879385D01*
X138723148Y-98191683D01*
X138722885Y-98493492D01*
X138697879Y-98476784D01*
X138430000Y-98423500D01*
X137931867Y-98423500D01*
X137902924Y-98269682D01*
X137782468Y-98082488D01*
X137598673Y-97956906D01*
X137380500Y-97912725D01*
X136680500Y-97912725D01*
X136476682Y-97951076D01*
X136289488Y-98071532D01*
X136163906Y-98255327D01*
X136119725Y-98473500D01*
X136119725Y-99773500D01*
X136158076Y-99977318D01*
X136278532Y-100164512D01*
X136462327Y-100290094D01*
X136680500Y-100334275D01*
X137380500Y-100334275D01*
X137584318Y-100295924D01*
X137771512Y-100175468D01*
X137897094Y-99991673D01*
X137931150Y-99823500D01*
X138140050Y-99823500D01*
X138913378Y-100596828D01*
X138913353Y-100625334D01*
X139042485Y-100937857D01*
X139281385Y-101177174D01*
X139593683Y-101306852D01*
X139931834Y-101307147D01*
X140244357Y-101178015D01*
X140483674Y-100939115D01*
X140613352Y-100626817D01*
X140613647Y-100288666D01*
X140484515Y-99976143D01*
X140334343Y-99825708D01*
X140401040Y-99839215D01*
X141599920Y-99839215D01*
X141803738Y-99800864D01*
X141990932Y-99680408D01*
X142049245Y-99595064D01*
X142097112Y-99669452D01*
X142280907Y-99795034D01*
X142443668Y-99827994D01*
X142451804Y-99868899D01*
X142603545Y-100095995D01*
X143104378Y-100596827D01*
X143104353Y-100625334D01*
X143233485Y-100937857D01*
X143472385Y-101177174D01*
X143784683Y-101306852D01*
X144122834Y-101307147D01*
X144435357Y-101178015D01*
X144621254Y-100992442D01*
X144678885Y-101050174D01*
X144907932Y-101145283D01*
X144778113Y-101232025D01*
X144778111Y-101232028D01*
X144091638Y-101918500D01*
X137222358Y-101918500D01*
X137195968Y-101877488D01*
X137012173Y-101751906D01*
X136794000Y-101707725D01*
X135494000Y-101707725D01*
X135290182Y-101746076D01*
X135102988Y-101866532D01*
X134977406Y-102050327D01*
X134933225Y-102268500D01*
X118071000Y-102268500D01*
X118071000Y-100027999D01*
X118176503Y-100283337D01*
X118457444Y-100564769D01*
X118824699Y-100717266D01*
X119222356Y-100717613D01*
X119589877Y-100565757D01*
X119871309Y-100284816D01*
X120023806Y-99917561D01*
X120024153Y-99519904D01*
X119945067Y-99328500D01*
X128906000Y-99328500D01*
X128906000Y-99815885D01*
X129006175Y-100057727D01*
X129191273Y-100242826D01*
X129433116Y-100343000D01*
X129795500Y-100343000D01*
X129960000Y-100178500D01*
X129960000Y-99164000D01*
X129070500Y-99164000D01*
X128906000Y-99328500D01*
X119945067Y-99328500D01*
X119872297Y-99152383D01*
X119591356Y-98870951D01*
X119224101Y-98718454D01*
X118826444Y-98718107D01*
X118505268Y-98850814D01*
X119016748Y-98339334D01*
X123038353Y-98339334D01*
X123167485Y-98651857D01*
X123406385Y-98891174D01*
X123718683Y-99020852D01*
X124056834Y-99021147D01*
X124369357Y-98892015D01*
X124608674Y-98653115D01*
X124738352Y-98340817D01*
X124738384Y-98304115D01*
X128906000Y-98304115D01*
X128906000Y-98791500D01*
X129070500Y-98956000D01*
X129960000Y-98956000D01*
X129960000Y-97941500D01*
X130168000Y-97941500D01*
X130168000Y-98956000D01*
X130188000Y-98956000D01*
X130188000Y-99164000D01*
X130168000Y-99164000D01*
X130168000Y-100178500D01*
X130332500Y-100343000D01*
X130694884Y-100343000D01*
X130936727Y-100242826D01*
X131121825Y-100057727D01*
X131132963Y-100030838D01*
X131162032Y-100076012D01*
X131324480Y-100187008D01*
X131230148Y-100414183D01*
X131229853Y-100752334D01*
X131358985Y-101064857D01*
X131597885Y-101304174D01*
X131910183Y-101433852D01*
X132248334Y-101434147D01*
X132560857Y-101305015D01*
X132800174Y-101066115D01*
X132929852Y-100753817D01*
X132930147Y-100415666D01*
X132828080Y-100168646D01*
X132955012Y-100086968D01*
X133080594Y-99903173D01*
X133109587Y-99760000D01*
X134219725Y-99760000D01*
X134219725Y-99773500D01*
X134258076Y-99977318D01*
X134378532Y-100164512D01*
X134562327Y-100290094D01*
X134780500Y-100334275D01*
X135480500Y-100334275D01*
X135684318Y-100295924D01*
X135871512Y-100175468D01*
X135997094Y-99991673D01*
X136041275Y-99773500D01*
X136041275Y-98473500D01*
X136002924Y-98269682D01*
X135882468Y-98082488D01*
X135698673Y-97956906D01*
X135480500Y-97912725D01*
X134780500Y-97912725D01*
X134576682Y-97951076D01*
X134389488Y-98071532D01*
X134263906Y-98255327D01*
X134242709Y-98360000D01*
X133110663Y-98360000D01*
X133086424Y-98231182D01*
X132965968Y-98043988D01*
X132782173Y-97918406D01*
X132564000Y-97874225D01*
X131564000Y-97874225D01*
X131360182Y-97912576D01*
X131172988Y-98033032D01*
X131133594Y-98090686D01*
X131121825Y-98062273D01*
X130936727Y-97877174D01*
X130694884Y-97777000D01*
X130332500Y-97777000D01*
X130168000Y-97941500D01*
X129960000Y-97941500D01*
X129795500Y-97777000D01*
X129433116Y-97777000D01*
X129191273Y-97877174D01*
X129006175Y-98062273D01*
X128906000Y-98304115D01*
X124738384Y-98304115D01*
X124738647Y-98002666D01*
X124609515Y-97690143D01*
X124588500Y-97669091D01*
X124588500Y-96771362D01*
X124719827Y-96861094D01*
X124938000Y-96905275D01*
X125638000Y-96905275D01*
X125841818Y-96866924D01*
X126029012Y-96746468D01*
X126154594Y-96562673D01*
X126198775Y-96344500D01*
X126198775Y-95044500D01*
X126277225Y-95044500D01*
X126277225Y-96344500D01*
X126315576Y-96548318D01*
X126436032Y-96735512D01*
X126619827Y-96861094D01*
X126838000Y-96905275D01*
X127538000Y-96905275D01*
X127741818Y-96866924D01*
X127929012Y-96746468D01*
X128054594Y-96562673D01*
X128088650Y-96394500D01*
X128908394Y-96394500D01*
X129013572Y-96557952D01*
X129197367Y-96683534D01*
X129415540Y-96727715D01*
X130614420Y-96727715D01*
X130818238Y-96689364D01*
X130992997Y-96576910D01*
X131140853Y-96724766D01*
X131382696Y-96824940D01*
X131844520Y-96824940D01*
X132009020Y-96660440D01*
X132009020Y-95671500D01*
X132217020Y-95671500D01*
X132217020Y-96660440D01*
X132381520Y-96824940D01*
X132843344Y-96824940D01*
X133085187Y-96724766D01*
X133270285Y-96539667D01*
X133370460Y-96297825D01*
X133370460Y-95836000D01*
X133205960Y-95671500D01*
X132217020Y-95671500D01*
X132009020Y-95671500D01*
X131989020Y-95671500D01*
X131989020Y-95532500D01*
X146871225Y-95532500D01*
X146871225Y-96232500D01*
X146909576Y-96436318D01*
X147030032Y-96623512D01*
X147213827Y-96749094D01*
X147255000Y-96757432D01*
X147255000Y-96779746D01*
X147234826Y-96799885D01*
X147105148Y-97112183D01*
X147104853Y-97450334D01*
X147233985Y-97762857D01*
X147472885Y-98002174D01*
X147785183Y-98131852D01*
X148123334Y-98132147D01*
X148435857Y-98003015D01*
X148675174Y-97764115D01*
X148804852Y-97451817D01*
X148805147Y-97113666D01*
X148676015Y-96801143D01*
X148668161Y-96793275D01*
X148732000Y-96793275D01*
X148935818Y-96754924D01*
X149123012Y-96634468D01*
X149248594Y-96450673D01*
X149292775Y-96232500D01*
X149292775Y-95532500D01*
X149254424Y-95328682D01*
X149133968Y-95141488D01*
X148950173Y-95015906D01*
X148732000Y-94971725D01*
X147432000Y-94971725D01*
X147228182Y-95010076D01*
X147040988Y-95130532D01*
X146915406Y-95314327D01*
X146871225Y-95532500D01*
X131989020Y-95532500D01*
X131989020Y-95463500D01*
X132009020Y-95463500D01*
X132009020Y-94474560D01*
X132217020Y-94474560D01*
X132217020Y-95463500D01*
X133205960Y-95463500D01*
X133370460Y-95299000D01*
X133370460Y-94837175D01*
X133270285Y-94595333D01*
X133085187Y-94410234D01*
X132843344Y-94310060D01*
X132381520Y-94310060D01*
X132217020Y-94474560D01*
X132009020Y-94474560D01*
X131844520Y-94310060D01*
X131382696Y-94310060D01*
X131140853Y-94410234D01*
X130991230Y-94559858D01*
X130832593Y-94451466D01*
X130614420Y-94407285D01*
X129415540Y-94407285D01*
X129211722Y-94445636D01*
X129024528Y-94566092D01*
X128898946Y-94749887D01*
X128854765Y-94968060D01*
X128854765Y-94994500D01*
X128089367Y-94994500D01*
X128060424Y-94840682D01*
X127939968Y-94653488D01*
X127756173Y-94527906D01*
X127538000Y-94483725D01*
X126838000Y-94483725D01*
X126634182Y-94522076D01*
X126446988Y-94642532D01*
X126321406Y-94826327D01*
X126277225Y-95044500D01*
X126198775Y-95044500D01*
X126160424Y-94840682D01*
X126039968Y-94653488D01*
X125856173Y-94527906D01*
X125638000Y-94483725D01*
X124938000Y-94483725D01*
X124734182Y-94522076D01*
X124546988Y-94642532D01*
X124421406Y-94826327D01*
X124377225Y-95044500D01*
X124377225Y-95046371D01*
X124370121Y-95047784D01*
X124143025Y-95199525D01*
X123393525Y-95949025D01*
X123241784Y-96176121D01*
X123208945Y-96341216D01*
X123188500Y-96444000D01*
X123188500Y-97668746D01*
X123168326Y-97688885D01*
X123038648Y-98001183D01*
X123038353Y-98339334D01*
X119016748Y-98339334D01*
X125584082Y-91772000D01*
X143426040Y-91772000D01*
X143426040Y-92233825D01*
X143526215Y-92475667D01*
X143711313Y-92660766D01*
X143953156Y-92760940D01*
X144414980Y-92760940D01*
X144579480Y-92596440D01*
X144579480Y-91607500D01*
X143590540Y-91607500D01*
X143426040Y-91772000D01*
X125584082Y-91772000D01*
X126582907Y-90773175D01*
X143426040Y-90773175D01*
X143426040Y-91235000D01*
X143590540Y-91399500D01*
X144579480Y-91399500D01*
X144579480Y-90410560D01*
X144787480Y-90410560D01*
X144787480Y-91399500D01*
X144807480Y-91399500D01*
X144807480Y-91607500D01*
X144787480Y-91607500D01*
X144787480Y-92596440D01*
X144951980Y-92760940D01*
X145413804Y-92760940D01*
X145655647Y-92660766D01*
X145805270Y-92511142D01*
X145963907Y-92619534D01*
X146081520Y-92643351D01*
X146081520Y-93632020D01*
X146134804Y-93899899D01*
X146286545Y-94126995D01*
X146637023Y-94477472D01*
X146637025Y-94477475D01*
X146712501Y-94527906D01*
X146864121Y-94629216D01*
X146984801Y-94653221D01*
X147030032Y-94723512D01*
X147213827Y-94849094D01*
X147432000Y-94893275D01*
X148732000Y-94893275D01*
X148935818Y-94854924D01*
X149123012Y-94734468D01*
X149248594Y-94550673D01*
X149292775Y-94332500D01*
X149292775Y-93632500D01*
X149254424Y-93428682D01*
X149133968Y-93241488D01*
X148950173Y-93115906D01*
X148732000Y-93071725D01*
X147481520Y-93071725D01*
X147481520Y-92644793D01*
X147584778Y-92625364D01*
X147771972Y-92504908D01*
X147897554Y-92321113D01*
X147941735Y-92102940D01*
X147941735Y-90904060D01*
X147903384Y-90700242D01*
X147782928Y-90513048D01*
X147599133Y-90387466D01*
X147380960Y-90343285D01*
X146182080Y-90343285D01*
X145978262Y-90381636D01*
X145803503Y-90494090D01*
X145655647Y-90346234D01*
X145413804Y-90246060D01*
X144951980Y-90246060D01*
X144787480Y-90410560D01*
X144579480Y-90410560D01*
X144414980Y-90246060D01*
X143953156Y-90246060D01*
X143711313Y-90346234D01*
X143526215Y-90531333D01*
X143426040Y-90773175D01*
X126582907Y-90773175D01*
X127410541Y-89945541D01*
X127594798Y-89669781D01*
X127659501Y-89344500D01*
X127659500Y-89344495D01*
X127659500Y-85106040D01*
X128152102Y-84613438D01*
X128152102Y-84683360D01*
X128316600Y-84683360D01*
X128152102Y-84847858D01*
X128152102Y-85726243D01*
X128252277Y-85968085D01*
X128437375Y-86153184D01*
X128679218Y-86253358D01*
X129557602Y-86253358D01*
X129722102Y-86088858D01*
X129722102Y-84683358D01*
X129930102Y-84683358D01*
X129930102Y-86088858D01*
X130094602Y-86253358D01*
X130972986Y-86253358D01*
X131214829Y-86153184D01*
X131399927Y-85968085D01*
X131500102Y-85726243D01*
X131500102Y-84847858D01*
X131335602Y-84683358D01*
X129930102Y-84683358D01*
X129722102Y-84683358D01*
X129702102Y-84683358D01*
X129702102Y-84475358D01*
X129722102Y-84475358D01*
X129722102Y-84455358D01*
X129930102Y-84455358D01*
X129930102Y-84475358D01*
X131335602Y-84475358D01*
X131500102Y-84310858D01*
X131500102Y-83432473D01*
X131399927Y-83190631D01*
X131214829Y-83005532D01*
X131092331Y-82954792D01*
X131136053Y-82889358D01*
X147833622Y-82889358D01*
X148158903Y-82824656D01*
X148434663Y-82640399D01*
X149256562Y-81818500D01*
X149847000Y-81818500D01*
X149847000Y-82180884D01*
X149947174Y-82422727D01*
X150132273Y-82607825D01*
X150159162Y-82618963D01*
X150113988Y-82648032D01*
X149988406Y-82831827D01*
X149944225Y-83050000D01*
X149944225Y-84050000D01*
X149982576Y-84253818D01*
X150103032Y-84441012D01*
X150286827Y-84566594D01*
X150505000Y-84610775D01*
X151128500Y-84610775D01*
X151128500Y-84651246D01*
X151108326Y-84671385D01*
X150978648Y-84983683D01*
X150978353Y-85321834D01*
X151107485Y-85634357D01*
X151346385Y-85873674D01*
X151658683Y-86003352D01*
X151996834Y-86003647D01*
X152309357Y-85874515D01*
X152548674Y-85635615D01*
X152678352Y-85323317D01*
X152678647Y-84985166D01*
X152549515Y-84672643D01*
X152528500Y-84651591D01*
X152528500Y-84248500D01*
X152475216Y-83980622D01*
X152323475Y-83753525D01*
X152315775Y-83745825D01*
X152315775Y-83050000D01*
X152277424Y-82846182D01*
X152195157Y-82718334D01*
X156439353Y-82718334D01*
X156568485Y-83030857D01*
X156807385Y-83270174D01*
X157119683Y-83399852D01*
X157457834Y-83400147D01*
X157552577Y-83361000D01*
X158109858Y-83361000D01*
X158110576Y-83364818D01*
X158231032Y-83552012D01*
X158414827Y-83677594D01*
X158633000Y-83721775D01*
X159883000Y-83721775D01*
X160086818Y-83683424D01*
X160274012Y-83562968D01*
X160399594Y-83379173D01*
X160443775Y-83161000D01*
X160443775Y-82161000D01*
X160405424Y-81957182D01*
X160397907Y-81945500D01*
X170357500Y-81945500D01*
X170357500Y-82307884D01*
X170457674Y-82549727D01*
X170642773Y-82734825D01*
X170669662Y-82745963D01*
X170624488Y-82775032D01*
X170498906Y-82958827D01*
X170454725Y-83177000D01*
X170454725Y-84177000D01*
X170493076Y-84380818D01*
X170613532Y-84568012D01*
X170797327Y-84693594D01*
X170940500Y-84722587D01*
X170940500Y-85791725D01*
X170854148Y-85999683D01*
X170853853Y-86337834D01*
X170982985Y-86650357D01*
X171221885Y-86889674D01*
X171534183Y-87019352D01*
X171872334Y-87019647D01*
X172184857Y-86890515D01*
X172424174Y-86651615D01*
X172553852Y-86339317D01*
X172554147Y-86001166D01*
X172425015Y-85688643D01*
X172340500Y-85603980D01*
X172340500Y-84723663D01*
X172469318Y-84699424D01*
X172656512Y-84578968D01*
X172782094Y-84395173D01*
X172826275Y-84177000D01*
X172826275Y-83177000D01*
X172787924Y-82973182D01*
X172667468Y-82785988D01*
X172609814Y-82746594D01*
X172638227Y-82734825D01*
X172823326Y-82549727D01*
X172923500Y-82307884D01*
X172923500Y-81945500D01*
X172759000Y-81781000D01*
X171744500Y-81781000D01*
X171744500Y-81801000D01*
X171536500Y-81801000D01*
X171536500Y-81781000D01*
X170522000Y-81781000D01*
X170357500Y-81945500D01*
X160397907Y-81945500D01*
X160284968Y-81769988D01*
X160227314Y-81730594D01*
X160255727Y-81718825D01*
X160440826Y-81533727D01*
X160541000Y-81291884D01*
X160541000Y-81046116D01*
X170357500Y-81046116D01*
X170357500Y-81408500D01*
X170522000Y-81573000D01*
X171536500Y-81573000D01*
X171536500Y-80683500D01*
X171744500Y-80683500D01*
X171744500Y-81573000D01*
X172759000Y-81573000D01*
X172923500Y-81408500D01*
X172923500Y-81046116D01*
X172823326Y-80804273D01*
X172638227Y-80619175D01*
X172396385Y-80519000D01*
X171909000Y-80519000D01*
X171744500Y-80683500D01*
X171536500Y-80683500D01*
X171372000Y-80519000D01*
X170884615Y-80519000D01*
X170642773Y-80619175D01*
X170457674Y-80804273D01*
X170357500Y-81046116D01*
X160541000Y-81046116D01*
X160541000Y-80929500D01*
X160376500Y-80765000D01*
X159362000Y-80765000D01*
X159362000Y-80785000D01*
X159154000Y-80785000D01*
X159154000Y-80765000D01*
X158139500Y-80765000D01*
X157975000Y-80929500D01*
X157975000Y-81291884D01*
X158075174Y-81533727D01*
X158260273Y-81718825D01*
X158287162Y-81729963D01*
X158241988Y-81759032D01*
X158116406Y-81942827D01*
X158112726Y-81961000D01*
X157902560Y-81961000D01*
X157771615Y-81829826D01*
X157459317Y-81700148D01*
X157121166Y-81699853D01*
X156808643Y-81828985D01*
X156569326Y-82067885D01*
X156439648Y-82380183D01*
X156439353Y-82718334D01*
X152195157Y-82718334D01*
X152156968Y-82658988D01*
X152099314Y-82619594D01*
X152127727Y-82607825D01*
X152312826Y-82422727D01*
X152413000Y-82180884D01*
X152413000Y-81818500D01*
X152248500Y-81654000D01*
X151234000Y-81654000D01*
X151234000Y-81674000D01*
X151026000Y-81674000D01*
X151026000Y-81654000D01*
X150011500Y-81654000D01*
X149847000Y-81818500D01*
X149256562Y-81818500D01*
X149847000Y-81228062D01*
X149847000Y-81281500D01*
X150011500Y-81446000D01*
X151026000Y-81446000D01*
X151026000Y-80556500D01*
X151234000Y-80556500D01*
X151234000Y-81446000D01*
X152248500Y-81446000D01*
X152413000Y-81281500D01*
X152413000Y-80919116D01*
X152312826Y-80677273D01*
X152127727Y-80492175D01*
X151885885Y-80392000D01*
X151398500Y-80392000D01*
X151234000Y-80556500D01*
X151026000Y-80556500D01*
X150861500Y-80392000D01*
X150683062Y-80392000D01*
X152111957Y-78963105D01*
X152467924Y-78963416D01*
X152895540Y-78786728D01*
X153957853Y-79849041D01*
X153957853Y-79849041D01*
G37*
X153957853Y-79849041D02*
X154233613Y-80033298D01*
X154558894Y-80098000D01*
X157975000Y-80098000D01*
X157975000Y-80392500D01*
X158139500Y-80557000D01*
X159154000Y-80557000D01*
X159154000Y-80537000D01*
X159362000Y-80537000D01*
X159362000Y-80557000D01*
X160376500Y-80557000D01*
X160541000Y-80392500D01*
X160541000Y-80098000D01*
X171511988Y-80098000D01*
X171837269Y-80033298D01*
X172113029Y-79849041D01*
X172924536Y-79037534D01*
X172924536Y-80048536D01*
X172989238Y-80373817D01*
X173173495Y-80649577D01*
X183079550Y-90555631D01*
X182880273Y-90638174D01*
X182695175Y-90823273D01*
X182684037Y-90850162D01*
X182654968Y-90804988D01*
X182471173Y-90679406D01*
X182253000Y-90635225D01*
X181253000Y-90635225D01*
X181049182Y-90673576D01*
X180861988Y-90794032D01*
X180736406Y-90977827D01*
X180692225Y-91196000D01*
X180692225Y-91891825D01*
X180351195Y-92232855D01*
X180065317Y-92114148D01*
X179727166Y-92113853D01*
X179414643Y-92242985D01*
X179175326Y-92481885D01*
X179045648Y-92794183D01*
X179045353Y-93132334D01*
X179174485Y-93444857D01*
X179413385Y-93684174D01*
X179725683Y-93813852D01*
X180063834Y-93814147D01*
X180376357Y-93685015D01*
X180397409Y-93664000D01*
X180610000Y-93664000D01*
X180877879Y-93610716D01*
X181104975Y-93458975D01*
X181557175Y-93006775D01*
X182253000Y-93006775D01*
X182456818Y-92968424D01*
X182644012Y-92847968D01*
X182683406Y-92790314D01*
X182695175Y-92818727D01*
X182880273Y-93003826D01*
X183122116Y-93104000D01*
X183484500Y-93104000D01*
X183649000Y-92939500D01*
X183649000Y-91925000D01*
X183629000Y-91925000D01*
X183629000Y-91717000D01*
X183649000Y-91717000D01*
X183649000Y-91697000D01*
X183857000Y-91697000D01*
X183857000Y-91717000D01*
X183877000Y-91717000D01*
X183877000Y-91925000D01*
X183857000Y-91925000D01*
X183857000Y-92939500D01*
X184021500Y-93104000D01*
X184383884Y-93104000D01*
X184625727Y-93003826D01*
X184810825Y-92818727D01*
X184911000Y-92576885D01*
X184911000Y-92387081D01*
X186989185Y-94465267D01*
X186279459Y-95174993D01*
X186095202Y-95450753D01*
X186030500Y-95776034D01*
X186030500Y-101422381D01*
X185953825Y-101237273D01*
X185768727Y-101052174D01*
X185526884Y-100952000D01*
X185164500Y-100952000D01*
X185000000Y-101116500D01*
X185000000Y-102131000D01*
X185020000Y-102131000D01*
X185020000Y-102339000D01*
X185000000Y-102339000D01*
X185000000Y-103353500D01*
X185164500Y-103518000D01*
X185526884Y-103518000D01*
X185768727Y-103417826D01*
X185953825Y-103232727D01*
X186030500Y-103047619D01*
X186030500Y-113855500D01*
X186095202Y-114180781D01*
X186279459Y-114456541D01*
X186669918Y-114847000D01*
X184594500Y-114847000D01*
X184269219Y-114911702D01*
X183993459Y-115095959D01*
X173828418Y-125261000D01*
X169899163Y-125261000D01*
X169647676Y-125009073D01*
X169169834Y-124810656D01*
X169009431Y-124810516D01*
X169009431Y-124788936D01*
X169009432Y-124788931D01*
X168944729Y-124463650D01*
X168760472Y-124187890D01*
X167860041Y-123287459D01*
X167584281Y-123103202D01*
X167259000Y-123038500D01*
X150685505Y-123038500D01*
X150685500Y-123038499D01*
X150360219Y-123103202D01*
X150084459Y-123287459D01*
X150084457Y-123287462D01*
X148688403Y-124683515D01*
X148332436Y-124683204D01*
X147904819Y-124859892D01*
X146459387Y-123414459D01*
X146183627Y-123230202D01*
X145858346Y-123165500D01*
X128079505Y-123165500D01*
X128079500Y-123165499D01*
X127754219Y-123230202D01*
X127602002Y-123331910D01*
X127602296Y-122995936D01*
X127404713Y-122517749D01*
X127124785Y-122237332D01*
X127403427Y-121959176D01*
X127525786Y-121664500D01*
X140385500Y-121664500D01*
X140385500Y-122026884D01*
X140485674Y-122268727D01*
X140670773Y-122453825D01*
X140912615Y-122554000D01*
X141400000Y-122554000D01*
X141564500Y-122389500D01*
X141564500Y-121500000D01*
X141772500Y-121500000D01*
X141772500Y-122389500D01*
X141937000Y-122554000D01*
X142424385Y-122554000D01*
X142666227Y-122453825D01*
X142851326Y-122268727D01*
X142951500Y-122026884D01*
X142951500Y-121664500D01*
X142787000Y-121500000D01*
X141772500Y-121500000D01*
X141564500Y-121500000D01*
X140550000Y-121500000D01*
X140385500Y-121664500D01*
X127525786Y-121664500D01*
X127601844Y-121481334D01*
X127602296Y-120963936D01*
X127404713Y-120485749D01*
X127039176Y-120119573D01*
X126786268Y-120014557D01*
X127059303Y-119901462D01*
X127124152Y-119651230D01*
X126301500Y-118828578D01*
X125478848Y-119651230D01*
X125543697Y-119901462D01*
X125830051Y-120009080D01*
X125565749Y-120118287D01*
X125199573Y-120483824D01*
X125001156Y-120961666D01*
X125000704Y-121479064D01*
X125198287Y-121957251D01*
X125478215Y-122237668D01*
X125199573Y-122515824D01*
X125001156Y-122993666D01*
X125000896Y-123290814D01*
X120158322Y-118448240D01*
X124884404Y-118448240D01*
X124903009Y-119008296D01*
X125081538Y-119439303D01*
X125331770Y-119504152D01*
X126154422Y-118681500D01*
X126448578Y-118681500D01*
X127271230Y-119504152D01*
X127521462Y-119439303D01*
X127718596Y-118914760D01*
X127699991Y-118354704D01*
X127552033Y-117997500D01*
X129033000Y-117997500D01*
X129033000Y-118484885D01*
X129133175Y-118726727D01*
X129318273Y-118911826D01*
X129560116Y-119012000D01*
X129922500Y-119012000D01*
X130087000Y-118847500D01*
X130087000Y-117833000D01*
X129197500Y-117833000D01*
X129033000Y-117997500D01*
X127552033Y-117997500D01*
X127521462Y-117923697D01*
X127271230Y-117858848D01*
X126448578Y-118681500D01*
X126154422Y-118681500D01*
X125331770Y-117858848D01*
X125081538Y-117923697D01*
X124884404Y-118448240D01*
X120158322Y-118448240D01*
X118854660Y-117144578D01*
X122270500Y-117144578D01*
X122426870Y-117472595D01*
X123222586Y-117794742D01*
X124081013Y-117787860D01*
X124264710Y-117711770D01*
X125478848Y-117711770D01*
X126301500Y-118534422D01*
X127124152Y-117711770D01*
X127059303Y-117461538D01*
X126534760Y-117264404D01*
X125974704Y-117283009D01*
X125543697Y-117461538D01*
X125478848Y-117711770D01*
X124264710Y-117711770D01*
X124842130Y-117472595D01*
X124998500Y-117144578D01*
X123634500Y-115780578D01*
X122270500Y-117144578D01*
X118854660Y-117144578D01*
X118071000Y-116360918D01*
X118071000Y-115221586D01*
X121473258Y-115221586D01*
X121480140Y-116080013D01*
X121795405Y-116841130D01*
X122123422Y-116997500D01*
X123487422Y-115633500D01*
X123781578Y-115633500D01*
X125145578Y-116997500D01*
X125196730Y-116973115D01*
X129033000Y-116973115D01*
X129033000Y-117460500D01*
X129197500Y-117625000D01*
X130087000Y-117625000D01*
X130087000Y-116610500D01*
X130295000Y-116610500D01*
X130295000Y-117625000D01*
X130315000Y-117625000D01*
X130315000Y-117833000D01*
X130295000Y-117833000D01*
X130295000Y-118847500D01*
X130459500Y-119012000D01*
X130821884Y-119012000D01*
X131063727Y-118911826D01*
X131248825Y-118726727D01*
X131259963Y-118699838D01*
X131289032Y-118745012D01*
X131472827Y-118870594D01*
X131691000Y-118914775D01*
X131697500Y-118914775D01*
X131697500Y-119766746D01*
X131677326Y-119786885D01*
X131547648Y-120099183D01*
X131547353Y-120437334D01*
X131676485Y-120749857D01*
X131915385Y-120989174D01*
X132227683Y-121118852D01*
X132565834Y-121119147D01*
X132878357Y-120990015D01*
X133103648Y-120765116D01*
X140385500Y-120765116D01*
X140385500Y-121127500D01*
X140550000Y-121292000D01*
X141564500Y-121292000D01*
X141564500Y-121272000D01*
X141772500Y-121272000D01*
X141772500Y-121292000D01*
X142787000Y-121292000D01*
X142859000Y-121220000D01*
X150672500Y-121220000D01*
X150672500Y-121582384D01*
X150772674Y-121824227D01*
X150957773Y-122009325D01*
X151199615Y-122109500D01*
X151687000Y-122109500D01*
X151851500Y-121945000D01*
X151851500Y-121055500D01*
X152059500Y-121055500D01*
X152059500Y-121945000D01*
X152224000Y-122109500D01*
X152711385Y-122109500D01*
X152953227Y-122009325D01*
X152980552Y-121982000D01*
X160832500Y-121982000D01*
X160832500Y-122344384D01*
X160932674Y-122586227D01*
X161117773Y-122771325D01*
X161359615Y-122871500D01*
X161847000Y-122871500D01*
X162011500Y-122707000D01*
X162011500Y-121817500D01*
X162219500Y-121817500D01*
X162219500Y-122707000D01*
X162384000Y-122871500D01*
X162871385Y-122871500D01*
X163113227Y-122771325D01*
X163298326Y-122586227D01*
X163397416Y-122347000D01*
X170802000Y-122347000D01*
X170802000Y-122709384D01*
X170902174Y-122951227D01*
X171087273Y-123136325D01*
X171329115Y-123236500D01*
X171816500Y-123236500D01*
X171981000Y-123072000D01*
X171981000Y-122182500D01*
X172189000Y-122182500D01*
X172189000Y-123072000D01*
X172353500Y-123236500D01*
X172840885Y-123236500D01*
X173082727Y-123136325D01*
X173267826Y-122951227D01*
X173368000Y-122709384D01*
X173368000Y-122347000D01*
X173203500Y-122182500D01*
X172189000Y-122182500D01*
X171981000Y-122182500D01*
X170966500Y-122182500D01*
X170802000Y-122347000D01*
X163397416Y-122347000D01*
X163398500Y-122344384D01*
X163398500Y-121982000D01*
X163234000Y-121817500D01*
X162219500Y-121817500D01*
X162011500Y-121817500D01*
X160997000Y-121817500D01*
X160832500Y-121982000D01*
X152980552Y-121982000D01*
X153138326Y-121824227D01*
X153238500Y-121582384D01*
X153238500Y-121220000D01*
X153101116Y-121082616D01*
X160832500Y-121082616D01*
X160832500Y-121445000D01*
X160997000Y-121609500D01*
X162011500Y-121609500D01*
X162011500Y-121589500D01*
X162219500Y-121589500D01*
X162219500Y-121609500D01*
X163234000Y-121609500D01*
X163398500Y-121445000D01*
X163398500Y-121082616D01*
X163298326Y-120840773D01*
X163113227Y-120655675D01*
X163086338Y-120644537D01*
X163131512Y-120615468D01*
X163257094Y-120431673D01*
X163260774Y-120413500D01*
X163724829Y-120413500D01*
X163792385Y-120481174D01*
X164104683Y-120610852D01*
X164442834Y-120611147D01*
X164755357Y-120482015D01*
X164994674Y-120243115D01*
X165124352Y-119930817D01*
X165124647Y-119592666D01*
X164995515Y-119280143D01*
X164756615Y-119040826D01*
X164444317Y-118911148D01*
X164106166Y-118910853D01*
X163857742Y-119013500D01*
X163263642Y-119013500D01*
X163262924Y-119009682D01*
X163142468Y-118822488D01*
X162958673Y-118696906D01*
X162740500Y-118652725D01*
X161490500Y-118652725D01*
X161286682Y-118691076D01*
X161099488Y-118811532D01*
X160973906Y-118995327D01*
X160929725Y-119213500D01*
X160929725Y-120213500D01*
X160968076Y-120417318D01*
X161088532Y-120604512D01*
X161146186Y-120643906D01*
X161117773Y-120655675D01*
X160932674Y-120840773D01*
X160832500Y-121082616D01*
X153101116Y-121082616D01*
X153074000Y-121055500D01*
X152059500Y-121055500D01*
X151851500Y-121055500D01*
X150837000Y-121055500D01*
X150672500Y-121220000D01*
X142859000Y-121220000D01*
X142951500Y-121127500D01*
X142951500Y-120765116D01*
X142851326Y-120523273D01*
X142666227Y-120338175D01*
X142639338Y-120327037D01*
X142684512Y-120297968D01*
X142810094Y-120114173D01*
X142813774Y-120096000D01*
X143641182Y-120096000D01*
X143657683Y-120102852D01*
X143995834Y-120103147D01*
X144308357Y-119974015D01*
X144547674Y-119735115D01*
X144677352Y-119422817D01*
X144677647Y-119084666D01*
X144548515Y-118772143D01*
X144309615Y-118532826D01*
X143997317Y-118403148D01*
X143659166Y-118402853D01*
X143346643Y-118531985D01*
X143182342Y-118696000D01*
X142816642Y-118696000D01*
X142815924Y-118692182D01*
X142695468Y-118504988D01*
X142511673Y-118379406D01*
X142293500Y-118335225D01*
X141043500Y-118335225D01*
X140839682Y-118373576D01*
X140652488Y-118494032D01*
X140526906Y-118677827D01*
X140482725Y-118896000D01*
X140482725Y-119896000D01*
X140521076Y-120099818D01*
X140641532Y-120287012D01*
X140699186Y-120326406D01*
X140670773Y-120338175D01*
X140485674Y-120523273D01*
X140385500Y-120765116D01*
X133103648Y-120765116D01*
X133117674Y-120751115D01*
X133247352Y-120438817D01*
X133247647Y-120100666D01*
X133118515Y-119788143D01*
X133097500Y-119767091D01*
X133097500Y-118733301D01*
X133207594Y-118572173D01*
X133251775Y-118354000D01*
X133251775Y-117104000D01*
X133213424Y-116900182D01*
X133201296Y-116881334D01*
X149898853Y-116881334D01*
X150027985Y-117193857D01*
X150049000Y-117214909D01*
X150049000Y-117745000D01*
X150102284Y-118012879D01*
X150254025Y-118239975D01*
X150769725Y-118755675D01*
X150769725Y-119451500D01*
X150808076Y-119655318D01*
X150928532Y-119842512D01*
X150986186Y-119881906D01*
X150957773Y-119893675D01*
X150772674Y-120078773D01*
X150672500Y-120320616D01*
X150672500Y-120683000D01*
X150837000Y-120847500D01*
X151851500Y-120847500D01*
X151851500Y-120827500D01*
X152059500Y-120827500D01*
X152059500Y-120847500D01*
X153074000Y-120847500D01*
X153238500Y-120683000D01*
X153238500Y-120320616D01*
X153138326Y-120078773D01*
X152953227Y-119893675D01*
X152926338Y-119882537D01*
X152971512Y-119853468D01*
X153097094Y-119669673D01*
X153141275Y-119451500D01*
X153141275Y-118451500D01*
X153102924Y-118247682D01*
X152982468Y-118060488D01*
X152798673Y-117934906D01*
X152613137Y-117897334D01*
X170472853Y-117897334D01*
X170601985Y-118209857D01*
X170623000Y-118230909D01*
X170623000Y-119316500D01*
X170676284Y-119584379D01*
X170828025Y-119811475D01*
X170899225Y-119882675D01*
X170899225Y-120578500D01*
X170937576Y-120782318D01*
X171058032Y-120969512D01*
X171115686Y-121008906D01*
X171087273Y-121020675D01*
X170902174Y-121205773D01*
X170802000Y-121447616D01*
X170802000Y-121810000D01*
X170966500Y-121974500D01*
X171981000Y-121974500D01*
X171981000Y-121954500D01*
X172189000Y-121954500D01*
X172189000Y-121974500D01*
X173203500Y-121974500D01*
X173368000Y-121810000D01*
X173368000Y-121447616D01*
X173267826Y-121205773D01*
X173082727Y-121020675D01*
X173055838Y-121009537D01*
X173101012Y-120980468D01*
X173226594Y-120796673D01*
X173270775Y-120578500D01*
X173270775Y-119578500D01*
X173232424Y-119374682D01*
X173111968Y-119187488D01*
X172928173Y-119061906D01*
X172710000Y-119017725D01*
X172023000Y-119017725D01*
X172023000Y-118231254D01*
X172043174Y-118211115D01*
X172172852Y-117898817D01*
X172173147Y-117560666D01*
X172044015Y-117248143D01*
X171805115Y-117008826D01*
X171492817Y-116879148D01*
X171154666Y-116878853D01*
X170842143Y-117007985D01*
X170602826Y-117246885D01*
X170473148Y-117559183D01*
X170472853Y-117897334D01*
X152613137Y-117897334D01*
X152580500Y-117890725D01*
X151884675Y-117890725D01*
X151449000Y-117455050D01*
X151449000Y-117215254D01*
X151469174Y-117195115D01*
X151598852Y-116882817D01*
X151599147Y-116544666D01*
X151470015Y-116232143D01*
X151231115Y-115992826D01*
X150918817Y-115863148D01*
X150580666Y-115862853D01*
X150268143Y-115991985D01*
X150028826Y-116230885D01*
X149899148Y-116543183D01*
X149898853Y-116881334D01*
X133201296Y-116881334D01*
X133092968Y-116712988D01*
X132909173Y-116587406D01*
X132691000Y-116543225D01*
X131691000Y-116543225D01*
X131487182Y-116581576D01*
X131299988Y-116702032D01*
X131260594Y-116759686D01*
X131248825Y-116731273D01*
X131063727Y-116546174D01*
X130821884Y-116446000D01*
X130459500Y-116446000D01*
X130295000Y-116610500D01*
X130087000Y-116610500D01*
X129922500Y-116446000D01*
X129560116Y-116446000D01*
X129318273Y-116546174D01*
X129133175Y-116731273D01*
X129033000Y-116973115D01*
X125196730Y-116973115D01*
X125473595Y-116841130D01*
X125795742Y-116045414D01*
X125788860Y-115186987D01*
X125677478Y-114918086D01*
X134573566Y-114918086D01*
X134837272Y-115515651D01*
X135309582Y-115966813D01*
X135843415Y-116187927D01*
X136103500Y-116059913D01*
X136103500Y-114658000D01*
X134701227Y-114658000D01*
X134573566Y-114918086D01*
X125677478Y-114918086D01*
X125473595Y-114425870D01*
X125145578Y-114269500D01*
X123781578Y-115633500D01*
X123487422Y-115633500D01*
X122123422Y-114269500D01*
X121795405Y-114425870D01*
X121473258Y-115221586D01*
X118071000Y-115221586D01*
X118071000Y-114122422D01*
X122270500Y-114122422D01*
X123634500Y-115486422D01*
X124931008Y-114189914D01*
X134573566Y-114189914D01*
X134701227Y-114450000D01*
X136103500Y-114450000D01*
X136103500Y-113048087D01*
X136311500Y-113048087D01*
X136311500Y-114450000D01*
X136331500Y-114450000D01*
X136331500Y-114658000D01*
X136311500Y-114658000D01*
X136311500Y-116059913D01*
X136571585Y-116187927D01*
X137105418Y-115966813D01*
X137246528Y-115832021D01*
X137329532Y-115961012D01*
X137513327Y-116086594D01*
X137731500Y-116130775D01*
X139763500Y-116130775D01*
X139967318Y-116092424D01*
X140154512Y-115971968D01*
X140280094Y-115788173D01*
X140324275Y-115570000D01*
X140324275Y-113579334D01*
X178600853Y-113579334D01*
X178729985Y-113891857D01*
X178968885Y-114131174D01*
X179281183Y-114260852D01*
X179619334Y-114261147D01*
X179931857Y-114132015D01*
X179952909Y-114111000D01*
X180356000Y-114111000D01*
X180623879Y-114057716D01*
X180850975Y-113905975D01*
X181430175Y-113326775D01*
X182126000Y-113326775D01*
X182329818Y-113288424D01*
X182517012Y-113167968D01*
X182556406Y-113110314D01*
X182568175Y-113138727D01*
X182753273Y-113323826D01*
X182995116Y-113424000D01*
X183357500Y-113424000D01*
X183522000Y-113259500D01*
X183522000Y-112245000D01*
X183730000Y-112245000D01*
X183730000Y-113259500D01*
X183894500Y-113424000D01*
X184256884Y-113424000D01*
X184498727Y-113323826D01*
X184683825Y-113138727D01*
X184784000Y-112896885D01*
X184784000Y-112409500D01*
X184619500Y-112245000D01*
X183730000Y-112245000D01*
X183522000Y-112245000D01*
X183502000Y-112245000D01*
X183502000Y-112037000D01*
X183522000Y-112037000D01*
X183522000Y-111022500D01*
X183730000Y-111022500D01*
X183730000Y-112037000D01*
X184619500Y-112037000D01*
X184784000Y-111872500D01*
X184784000Y-111385115D01*
X184683825Y-111143273D01*
X184498727Y-110958174D01*
X184256884Y-110858000D01*
X183894500Y-110858000D01*
X183730000Y-111022500D01*
X183522000Y-111022500D01*
X183357500Y-110858000D01*
X182995116Y-110858000D01*
X182753273Y-110958174D01*
X182568175Y-111143273D01*
X182557037Y-111170162D01*
X182527968Y-111124988D01*
X182344173Y-110999406D01*
X182126000Y-110955225D01*
X181126000Y-110955225D01*
X180922182Y-110993576D01*
X180734988Y-111114032D01*
X180609406Y-111297827D01*
X180565225Y-111516000D01*
X180565225Y-112211825D01*
X180066050Y-112711000D01*
X179953254Y-112711000D01*
X179933115Y-112690826D01*
X179620817Y-112561148D01*
X179282666Y-112560853D01*
X178970143Y-112689985D01*
X178730826Y-112928885D01*
X178601148Y-113241183D01*
X178600853Y-113579334D01*
X140324275Y-113579334D01*
X140324275Y-113538000D01*
X140285924Y-113334182D01*
X140165468Y-113146988D01*
X139981673Y-113021406D01*
X139763500Y-112977225D01*
X137731500Y-112977225D01*
X137527682Y-113015576D01*
X137340488Y-113136032D01*
X137245523Y-113275018D01*
X137105418Y-113141187D01*
X136571585Y-112920073D01*
X136311500Y-113048087D01*
X136103500Y-113048087D01*
X135843415Y-112920073D01*
X135309582Y-113141187D01*
X134837272Y-113592349D01*
X134573566Y-114189914D01*
X124931008Y-114189914D01*
X124998500Y-114122422D01*
X124842130Y-113794405D01*
X124046414Y-113472258D01*
X123187987Y-113479140D01*
X122426870Y-113794405D01*
X122270500Y-114122422D01*
X118071000Y-114122422D01*
X118071000Y-110791520D01*
X137998060Y-110791520D01*
X137998060Y-111253344D01*
X138098234Y-111495187D01*
X138283333Y-111680285D01*
X138525175Y-111780460D01*
X138987000Y-111780460D01*
X139151500Y-111615960D01*
X139151500Y-110627020D01*
X139359500Y-110627020D01*
X139359500Y-111615960D01*
X139524000Y-111780460D01*
X139985825Y-111780460D01*
X140227667Y-111680285D01*
X140412766Y-111495187D01*
X140512940Y-111253344D01*
X140512940Y-110791520D01*
X140348440Y-110627020D01*
X139359500Y-110627020D01*
X139151500Y-110627020D01*
X138162560Y-110627020D01*
X137998060Y-110791520D01*
X118071000Y-110791520D01*
X118071000Y-109648520D01*
X134886560Y-109648520D01*
X134886560Y-110110344D01*
X134986734Y-110352187D01*
X135171833Y-110537285D01*
X135413675Y-110637460D01*
X135875500Y-110637460D01*
X136040000Y-110472960D01*
X136040000Y-109484020D01*
X136248000Y-109484020D01*
X136248000Y-110472960D01*
X136412500Y-110637460D01*
X136874325Y-110637460D01*
X137116167Y-110537285D01*
X137301266Y-110352187D01*
X137401440Y-110110344D01*
X137401440Y-109792696D01*
X137998060Y-109792696D01*
X137998060Y-110254520D01*
X138162560Y-110419020D01*
X139151500Y-110419020D01*
X139151500Y-110399020D01*
X139359500Y-110399020D01*
X139359500Y-110419020D01*
X140348440Y-110419020D01*
X140512940Y-110254520D01*
X140512940Y-109792696D01*
X140412766Y-109550853D01*
X140263142Y-109401230D01*
X140371534Y-109242593D01*
X140415715Y-109024420D01*
X140415715Y-107825540D01*
X140377364Y-107621722D01*
X140256908Y-107434528D01*
X140073113Y-107308946D01*
X139955500Y-107285129D01*
X139955500Y-106562867D01*
X140109318Y-106533924D01*
X140296512Y-106413468D01*
X140422094Y-106229673D01*
X140466275Y-106011500D01*
X140466275Y-105311500D01*
X140427924Y-105107682D01*
X140307468Y-104920488D01*
X140123673Y-104794906D01*
X139905500Y-104750725D01*
X138605500Y-104750725D01*
X138401682Y-104789076D01*
X138214488Y-104909532D01*
X138088906Y-105093327D01*
X138044725Y-105311500D01*
X138044725Y-106011500D01*
X138083076Y-106215318D01*
X138203532Y-106402512D01*
X138387327Y-106528094D01*
X138555500Y-106562150D01*
X138555500Y-107283687D01*
X138452242Y-107303116D01*
X138265048Y-107423572D01*
X138139466Y-107607367D01*
X138095285Y-107825540D01*
X138095285Y-109024420D01*
X138133636Y-109228238D01*
X138246090Y-109402997D01*
X138098234Y-109550853D01*
X137998060Y-109792696D01*
X137401440Y-109792696D01*
X137401440Y-109648520D01*
X137236940Y-109484020D01*
X136248000Y-109484020D01*
X136040000Y-109484020D01*
X135051060Y-109484020D01*
X134886560Y-109648520D01*
X118071000Y-109648520D01*
X118071000Y-108649696D01*
X134886560Y-108649696D01*
X134886560Y-109111520D01*
X135051060Y-109276020D01*
X136040000Y-109276020D01*
X136040000Y-109256020D01*
X136248000Y-109256020D01*
X136248000Y-109276020D01*
X137236940Y-109276020D01*
X137401440Y-109111520D01*
X137401440Y-108649696D01*
X137301266Y-108407853D01*
X137151642Y-108258230D01*
X137260034Y-108099593D01*
X137304215Y-107881420D01*
X137304215Y-106682540D01*
X137265864Y-106478722D01*
X137145408Y-106291528D01*
X136961613Y-106165946D01*
X136844000Y-106142129D01*
X136844000Y-105419867D01*
X136997818Y-105390924D01*
X137185012Y-105270468D01*
X137310594Y-105086673D01*
X137354775Y-104868500D01*
X137354775Y-104168500D01*
X137316424Y-103964682D01*
X137195968Y-103777488D01*
X137012173Y-103651906D01*
X136794000Y-103607725D01*
X135494000Y-103607725D01*
X135290182Y-103646076D01*
X135102988Y-103766532D01*
X134977406Y-103950327D01*
X134933225Y-104168500D01*
X134933225Y-104868500D01*
X134971576Y-105072318D01*
X135092032Y-105259512D01*
X135275827Y-105385094D01*
X135444000Y-105419150D01*
X135444000Y-106140687D01*
X135340742Y-106160116D01*
X135153548Y-106280572D01*
X135027966Y-106464367D01*
X134983785Y-106682540D01*
X134983785Y-107881420D01*
X135022136Y-108085238D01*
X135134590Y-108259997D01*
X134986734Y-108407853D01*
X134886560Y-108649696D01*
X118071000Y-108649696D01*
X118071000Y-104427279D01*
X118176503Y-104682617D01*
X118457444Y-104964049D01*
X118824699Y-105116546D01*
X119222356Y-105116893D01*
X119589877Y-104965037D01*
X119871309Y-104684096D01*
X120023806Y-104316841D01*
X120024153Y-103919184D01*
X119872297Y-103551663D01*
X119591356Y-103270231D01*
X119224101Y-103117734D01*
X118826444Y-103117387D01*
X118458923Y-103269243D01*
X118177491Y-103550184D01*
X118071000Y-103806644D01*
X118071000Y-102268500D01*
X134933225Y-102268500D01*
X134933225Y-102968500D01*
X134971576Y-103172318D01*
X135092032Y-103359512D01*
X135275827Y-103485094D01*
X135494000Y-103529275D01*
X136794000Y-103529275D01*
X136997818Y-103490924D01*
X137185012Y-103370468D01*
X137220520Y-103318500D01*
X138063558Y-103318500D01*
X138044725Y-103411500D01*
X138044725Y-104111500D01*
X138083076Y-104315318D01*
X138203532Y-104502512D01*
X138387327Y-104628094D01*
X138605500Y-104672275D01*
X139905500Y-104672275D01*
X140109318Y-104633924D01*
X140296512Y-104513468D01*
X140332020Y-104461500D01*
X142977552Y-104461500D01*
X142977353Y-104689334D01*
X143106485Y-105001857D01*
X143345385Y-105241174D01*
X143657683Y-105370852D01*
X143995834Y-105371147D01*
X144099542Y-105328296D01*
X144077225Y-105438500D01*
X144077225Y-106138500D01*
X144115576Y-106342318D01*
X144236032Y-106529512D01*
X144419827Y-106655094D01*
X144638000Y-106699275D01*
X145938000Y-106699275D01*
X146141818Y-106660924D01*
X146329012Y-106540468D01*
X146454594Y-106356673D01*
X146498775Y-106138500D01*
X146498775Y-105438500D01*
X146469134Y-105280974D01*
X146582352Y-105008317D01*
X146582587Y-104738500D01*
X147521297Y-104738500D01*
X147491225Y-104887000D01*
X147491225Y-106187000D01*
X147529576Y-106390818D01*
X147650032Y-106578012D01*
X147702000Y-106613520D01*
X147702000Y-108898225D01*
X147290000Y-108898225D01*
X147086182Y-108936576D01*
X146898988Y-109057032D01*
X146773406Y-109240827D01*
X146729225Y-109459000D01*
X146729225Y-110759000D01*
X146767576Y-110962818D01*
X146888032Y-111150012D01*
X146940000Y-111185520D01*
X146940000Y-111572751D01*
X146917326Y-111595385D01*
X146787648Y-111907683D01*
X146787353Y-112245834D01*
X146916485Y-112558357D01*
X147155385Y-112797674D01*
X147467683Y-112927352D01*
X147805834Y-112927647D01*
X148118357Y-112798515D01*
X148357674Y-112559615D01*
X148487352Y-112247317D01*
X148487647Y-111909166D01*
X148358515Y-111596643D01*
X148340000Y-111578096D01*
X148340000Y-111187358D01*
X148381012Y-111160968D01*
X148506594Y-110977173D01*
X148550775Y-110759000D01*
X148550775Y-110708044D01*
X148622122Y-110755716D01*
X148629225Y-110757129D01*
X148629225Y-110759000D01*
X148667576Y-110962818D01*
X148788032Y-111150012D01*
X148971827Y-111275594D01*
X149190000Y-111319775D01*
X149890000Y-111319775D01*
X150093818Y-111281424D01*
X150281012Y-111160968D01*
X150406594Y-110977173D01*
X150450775Y-110759000D01*
X150450775Y-109459000D01*
X150412424Y-109255182D01*
X150291968Y-109067988D01*
X150108173Y-108942406D01*
X149890000Y-108898225D01*
X149190000Y-108898225D01*
X149102000Y-108914783D01*
X149102000Y-106734557D01*
X149182183Y-106767852D01*
X149520334Y-106768147D01*
X149712248Y-106688850D01*
X149733827Y-106703594D01*
X149952000Y-106747775D01*
X150652000Y-106747775D01*
X150855818Y-106709424D01*
X151043012Y-106588968D01*
X151168594Y-106405173D01*
X151212775Y-106187000D01*
X151212775Y-104887000D01*
X151174424Y-104683182D01*
X151053968Y-104495988D01*
X150872374Y-104371910D01*
X150979512Y-104302968D01*
X151105094Y-104119173D01*
X151149275Y-103901000D01*
X151149275Y-102601000D01*
X151110924Y-102397182D01*
X150990468Y-102209988D01*
X150806673Y-102084406D01*
X150588500Y-102040225D01*
X150473225Y-102040225D01*
X150528175Y-101985275D01*
X150652000Y-101985275D01*
X150855818Y-101946924D01*
X151043012Y-101826468D01*
X151168594Y-101642673D01*
X151175210Y-101610000D01*
X181835225Y-101610000D01*
X181835225Y-102860000D01*
X181873576Y-103063818D01*
X181994032Y-103251012D01*
X182177827Y-103376594D01*
X182396000Y-103420775D01*
X183396000Y-103420775D01*
X183599818Y-103382424D01*
X183787012Y-103261968D01*
X183826406Y-103204314D01*
X183838175Y-103232727D01*
X184023273Y-103417826D01*
X184265116Y-103518000D01*
X184627500Y-103518000D01*
X184792000Y-103353500D01*
X184792000Y-102339000D01*
X184772000Y-102339000D01*
X184772000Y-102131000D01*
X184792000Y-102131000D01*
X184792000Y-101116500D01*
X184627500Y-100952000D01*
X184265116Y-100952000D01*
X184023273Y-101052174D01*
X183838175Y-101237273D01*
X183827037Y-101264162D01*
X183797968Y-101218988D01*
X183614173Y-101093406D01*
X183580000Y-101086486D01*
X183580000Y-100832254D01*
X183600174Y-100812115D01*
X183729852Y-100499817D01*
X183730147Y-100161666D01*
X183601015Y-99849143D01*
X183362115Y-99609826D01*
X183049817Y-99480148D01*
X182711666Y-99479853D01*
X182399143Y-99608985D01*
X182159826Y-99847885D01*
X182030148Y-100160183D01*
X182029853Y-100498334D01*
X182158985Y-100810857D01*
X182180000Y-100831909D01*
X182180000Y-101095415D01*
X182004988Y-101208032D01*
X181879406Y-101391827D01*
X181835225Y-101610000D01*
X151175210Y-101610000D01*
X151212775Y-101424500D01*
X151212775Y-100124500D01*
X151174424Y-99920682D01*
X151053968Y-99733488D01*
X150870173Y-99607906D01*
X150652000Y-99563725D01*
X150302725Y-99563725D01*
X150680450Y-99186000D01*
X152274142Y-99186000D01*
X152300532Y-99227012D01*
X152484327Y-99352594D01*
X152702500Y-99396775D01*
X154002500Y-99396775D01*
X154206318Y-99358424D01*
X154393512Y-99237968D01*
X154519094Y-99054173D01*
X154563275Y-98836000D01*
X154563275Y-98136000D01*
X154524924Y-97932182D01*
X154404468Y-97744988D01*
X154220673Y-97619406D01*
X154002500Y-97575225D01*
X152702500Y-97575225D01*
X152498682Y-97613576D01*
X152311488Y-97734032D01*
X152275980Y-97786000D01*
X151637640Y-97786000D01*
X151723174Y-97700615D01*
X151852852Y-97388317D01*
X151852878Y-97358572D01*
X151925450Y-97286000D01*
X152274142Y-97286000D01*
X152300532Y-97327012D01*
X152484327Y-97452594D01*
X152702500Y-97496775D01*
X154002500Y-97496775D01*
X154206318Y-97458424D01*
X154393512Y-97337968D01*
X154519094Y-97154173D01*
X154563275Y-96936000D01*
X154563275Y-96236000D01*
X154524924Y-96032182D01*
X154404468Y-95844988D01*
X154220673Y-95719406D01*
X154002500Y-95675225D01*
X152702500Y-95675225D01*
X152498682Y-95713576D01*
X152311488Y-95834032D01*
X152275980Y-95886000D01*
X151635500Y-95886000D01*
X151367621Y-95939284D01*
X151140525Y-96091025D01*
X150863172Y-96368378D01*
X150834666Y-96368353D01*
X150522143Y-96497485D01*
X150282826Y-96736385D01*
X150153148Y-97048683D01*
X150152853Y-97386834D01*
X150281985Y-97699357D01*
X150372125Y-97789654D01*
X150122621Y-97839284D01*
X149895525Y-97991025D01*
X148322825Y-99563725D01*
X148052000Y-99563725D01*
X147848182Y-99602076D01*
X147660988Y-99722532D01*
X147535406Y-99906327D01*
X147501350Y-100074500D01*
X145975131Y-100074500D01*
X145882015Y-99849143D01*
X145643115Y-99609826D01*
X145330817Y-99480148D01*
X144992666Y-99479853D01*
X144680143Y-99608985D01*
X144494246Y-99794558D01*
X144436615Y-99736826D01*
X144135777Y-99611907D01*
X144214554Y-99496613D01*
X144258735Y-99278440D01*
X144258735Y-98079560D01*
X144220384Y-97875742D01*
X144099928Y-97688548D01*
X143916133Y-97562966D01*
X143697960Y-97518785D01*
X142499080Y-97518785D01*
X142295262Y-97557136D01*
X142108068Y-97677592D01*
X142049755Y-97762936D01*
X142001888Y-97688548D01*
X141818093Y-97562966D01*
X141599920Y-97518785D01*
X140401040Y-97518785D01*
X140197222Y-97557136D01*
X140059524Y-97645742D01*
X140055115Y-97641326D01*
X139742817Y-97511648D01*
X139404666Y-97511353D01*
X139092143Y-97640485D01*
X138852826Y-97879385D01*
X138723148Y-98191683D01*
X138722885Y-98493492D01*
X138697879Y-98476784D01*
X138430000Y-98423500D01*
X137931867Y-98423500D01*
X137902924Y-98269682D01*
X137782468Y-98082488D01*
X137598673Y-97956906D01*
X137380500Y-97912725D01*
X136680500Y-97912725D01*
X136476682Y-97951076D01*
X136289488Y-98071532D01*
X136163906Y-98255327D01*
X136119725Y-98473500D01*
X136119725Y-99773500D01*
X136158076Y-99977318D01*
X136278532Y-100164512D01*
X136462327Y-100290094D01*
X136680500Y-100334275D01*
X137380500Y-100334275D01*
X137584318Y-100295924D01*
X137771512Y-100175468D01*
X137897094Y-99991673D01*
X137931150Y-99823500D01*
X138140050Y-99823500D01*
X138913378Y-100596828D01*
X138913353Y-100625334D01*
X139042485Y-100937857D01*
X139281385Y-101177174D01*
X139593683Y-101306852D01*
X139931834Y-101307147D01*
X140244357Y-101178015D01*
X140483674Y-100939115D01*
X140613352Y-100626817D01*
X140613647Y-100288666D01*
X140484515Y-99976143D01*
X140334343Y-99825708D01*
X140401040Y-99839215D01*
X141599920Y-99839215D01*
X141803738Y-99800864D01*
X141990932Y-99680408D01*
X142049245Y-99595064D01*
X142097112Y-99669452D01*
X142280907Y-99795034D01*
X142443668Y-99827994D01*
X142451804Y-99868899D01*
X142603545Y-100095995D01*
X143104378Y-100596827D01*
X143104353Y-100625334D01*
X143233485Y-100937857D01*
X143472385Y-101177174D01*
X143784683Y-101306852D01*
X144122834Y-101307147D01*
X144435357Y-101178015D01*
X144621254Y-100992442D01*
X144678885Y-101050174D01*
X144907932Y-101145283D01*
X144778113Y-101232025D01*
X144778111Y-101232028D01*
X144091638Y-101918500D01*
X137222358Y-101918500D01*
X137195968Y-101877488D01*
X137012173Y-101751906D01*
X136794000Y-101707725D01*
X135494000Y-101707725D01*
X135290182Y-101746076D01*
X135102988Y-101866532D01*
X134977406Y-102050327D01*
X134933225Y-102268500D01*
X118071000Y-102268500D01*
X118071000Y-100027999D01*
X118176503Y-100283337D01*
X118457444Y-100564769D01*
X118824699Y-100717266D01*
X119222356Y-100717613D01*
X119589877Y-100565757D01*
X119871309Y-100284816D01*
X120023806Y-99917561D01*
X120024153Y-99519904D01*
X119945067Y-99328500D01*
X128906000Y-99328500D01*
X128906000Y-99815885D01*
X129006175Y-100057727D01*
X129191273Y-100242826D01*
X129433116Y-100343000D01*
X129795500Y-100343000D01*
X129960000Y-100178500D01*
X129960000Y-99164000D01*
X129070500Y-99164000D01*
X128906000Y-99328500D01*
X119945067Y-99328500D01*
X119872297Y-99152383D01*
X119591356Y-98870951D01*
X119224101Y-98718454D01*
X118826444Y-98718107D01*
X118505268Y-98850814D01*
X119016748Y-98339334D01*
X123038353Y-98339334D01*
X123167485Y-98651857D01*
X123406385Y-98891174D01*
X123718683Y-99020852D01*
X124056834Y-99021147D01*
X124369357Y-98892015D01*
X124608674Y-98653115D01*
X124738352Y-98340817D01*
X124738384Y-98304115D01*
X128906000Y-98304115D01*
X128906000Y-98791500D01*
X129070500Y-98956000D01*
X129960000Y-98956000D01*
X129960000Y-97941500D01*
X130168000Y-97941500D01*
X130168000Y-98956000D01*
X130188000Y-98956000D01*
X130188000Y-99164000D01*
X130168000Y-99164000D01*
X130168000Y-100178500D01*
X130332500Y-100343000D01*
X130694884Y-100343000D01*
X130936727Y-100242826D01*
X131121825Y-100057727D01*
X131132963Y-100030838D01*
X131162032Y-100076012D01*
X131324480Y-100187008D01*
X131230148Y-100414183D01*
X131229853Y-100752334D01*
X131358985Y-101064857D01*
X131597885Y-101304174D01*
X131910183Y-101433852D01*
X132248334Y-101434147D01*
X132560857Y-101305015D01*
X132800174Y-101066115D01*
X132929852Y-100753817D01*
X132930147Y-100415666D01*
X132828080Y-100168646D01*
X132955012Y-100086968D01*
X133080594Y-99903173D01*
X133109587Y-99760000D01*
X134219725Y-99760000D01*
X134219725Y-99773500D01*
X134258076Y-99977318D01*
X134378532Y-100164512D01*
X134562327Y-100290094D01*
X134780500Y-100334275D01*
X135480500Y-100334275D01*
X135684318Y-100295924D01*
X135871512Y-100175468D01*
X135997094Y-99991673D01*
X136041275Y-99773500D01*
X136041275Y-98473500D01*
X136002924Y-98269682D01*
X135882468Y-98082488D01*
X135698673Y-97956906D01*
X135480500Y-97912725D01*
X134780500Y-97912725D01*
X134576682Y-97951076D01*
X134389488Y-98071532D01*
X134263906Y-98255327D01*
X134242709Y-98360000D01*
X133110663Y-98360000D01*
X133086424Y-98231182D01*
X132965968Y-98043988D01*
X132782173Y-97918406D01*
X132564000Y-97874225D01*
X131564000Y-97874225D01*
X131360182Y-97912576D01*
X131172988Y-98033032D01*
X131133594Y-98090686D01*
X131121825Y-98062273D01*
X130936727Y-97877174D01*
X130694884Y-97777000D01*
X130332500Y-97777000D01*
X130168000Y-97941500D01*
X129960000Y-97941500D01*
X129795500Y-97777000D01*
X129433116Y-97777000D01*
X129191273Y-97877174D01*
X129006175Y-98062273D01*
X128906000Y-98304115D01*
X124738384Y-98304115D01*
X124738647Y-98002666D01*
X124609515Y-97690143D01*
X124588500Y-97669091D01*
X124588500Y-96771362D01*
X124719827Y-96861094D01*
X124938000Y-96905275D01*
X125638000Y-96905275D01*
X125841818Y-96866924D01*
X126029012Y-96746468D01*
X126154594Y-96562673D01*
X126198775Y-96344500D01*
X126198775Y-95044500D01*
X126277225Y-95044500D01*
X126277225Y-96344500D01*
X126315576Y-96548318D01*
X126436032Y-96735512D01*
X126619827Y-96861094D01*
X126838000Y-96905275D01*
X127538000Y-96905275D01*
X127741818Y-96866924D01*
X127929012Y-96746468D01*
X128054594Y-96562673D01*
X128088650Y-96394500D01*
X128908394Y-96394500D01*
X129013572Y-96557952D01*
X129197367Y-96683534D01*
X129415540Y-96727715D01*
X130614420Y-96727715D01*
X130818238Y-96689364D01*
X130992997Y-96576910D01*
X131140853Y-96724766D01*
X131382696Y-96824940D01*
X131844520Y-96824940D01*
X132009020Y-96660440D01*
X132009020Y-95671500D01*
X132217020Y-95671500D01*
X132217020Y-96660440D01*
X132381520Y-96824940D01*
X132843344Y-96824940D01*
X133085187Y-96724766D01*
X133270285Y-96539667D01*
X133370460Y-96297825D01*
X133370460Y-95836000D01*
X133205960Y-95671500D01*
X132217020Y-95671500D01*
X132009020Y-95671500D01*
X131989020Y-95671500D01*
X131989020Y-95532500D01*
X146871225Y-95532500D01*
X146871225Y-96232500D01*
X146909576Y-96436318D01*
X147030032Y-96623512D01*
X147213827Y-96749094D01*
X147255000Y-96757432D01*
X147255000Y-96779746D01*
X147234826Y-96799885D01*
X147105148Y-97112183D01*
X147104853Y-97450334D01*
X147233985Y-97762857D01*
X147472885Y-98002174D01*
X147785183Y-98131852D01*
X148123334Y-98132147D01*
X148435857Y-98003015D01*
X148675174Y-97764115D01*
X148804852Y-97451817D01*
X148805147Y-97113666D01*
X148676015Y-96801143D01*
X148668161Y-96793275D01*
X148732000Y-96793275D01*
X148935818Y-96754924D01*
X149123012Y-96634468D01*
X149248594Y-96450673D01*
X149292775Y-96232500D01*
X149292775Y-95532500D01*
X149254424Y-95328682D01*
X149133968Y-95141488D01*
X148950173Y-95015906D01*
X148732000Y-94971725D01*
X147432000Y-94971725D01*
X147228182Y-95010076D01*
X147040988Y-95130532D01*
X146915406Y-95314327D01*
X146871225Y-95532500D01*
X131989020Y-95532500D01*
X131989020Y-95463500D01*
X132009020Y-95463500D01*
X132009020Y-94474560D01*
X132217020Y-94474560D01*
X132217020Y-95463500D01*
X133205960Y-95463500D01*
X133370460Y-95299000D01*
X133370460Y-94837175D01*
X133270285Y-94595333D01*
X133085187Y-94410234D01*
X132843344Y-94310060D01*
X132381520Y-94310060D01*
X132217020Y-94474560D01*
X132009020Y-94474560D01*
X131844520Y-94310060D01*
X131382696Y-94310060D01*
X131140853Y-94410234D01*
X130991230Y-94559858D01*
X130832593Y-94451466D01*
X130614420Y-94407285D01*
X129415540Y-94407285D01*
X129211722Y-94445636D01*
X129024528Y-94566092D01*
X128898946Y-94749887D01*
X128854765Y-94968060D01*
X128854765Y-94994500D01*
X128089367Y-94994500D01*
X128060424Y-94840682D01*
X127939968Y-94653488D01*
X127756173Y-94527906D01*
X127538000Y-94483725D01*
X126838000Y-94483725D01*
X126634182Y-94522076D01*
X126446988Y-94642532D01*
X126321406Y-94826327D01*
X126277225Y-95044500D01*
X126198775Y-95044500D01*
X126160424Y-94840682D01*
X126039968Y-94653488D01*
X125856173Y-94527906D01*
X125638000Y-94483725D01*
X124938000Y-94483725D01*
X124734182Y-94522076D01*
X124546988Y-94642532D01*
X124421406Y-94826327D01*
X124377225Y-95044500D01*
X124377225Y-95046371D01*
X124370121Y-95047784D01*
X124143025Y-95199525D01*
X123393525Y-95949025D01*
X123241784Y-96176121D01*
X123208945Y-96341216D01*
X123188500Y-96444000D01*
X123188500Y-97668746D01*
X123168326Y-97688885D01*
X123038648Y-98001183D01*
X123038353Y-98339334D01*
X119016748Y-98339334D01*
X125584082Y-91772000D01*
X143426040Y-91772000D01*
X143426040Y-92233825D01*
X143526215Y-92475667D01*
X143711313Y-92660766D01*
X143953156Y-92760940D01*
X144414980Y-92760940D01*
X144579480Y-92596440D01*
X144579480Y-91607500D01*
X143590540Y-91607500D01*
X143426040Y-91772000D01*
X125584082Y-91772000D01*
X126582907Y-90773175D01*
X143426040Y-90773175D01*
X143426040Y-91235000D01*
X143590540Y-91399500D01*
X144579480Y-91399500D01*
X144579480Y-90410560D01*
X144787480Y-90410560D01*
X144787480Y-91399500D01*
X144807480Y-91399500D01*
X144807480Y-91607500D01*
X144787480Y-91607500D01*
X144787480Y-92596440D01*
X144951980Y-92760940D01*
X145413804Y-92760940D01*
X145655647Y-92660766D01*
X145805270Y-92511142D01*
X145963907Y-92619534D01*
X146081520Y-92643351D01*
X146081520Y-93632020D01*
X146134804Y-93899899D01*
X146286545Y-94126995D01*
X146637023Y-94477472D01*
X146637025Y-94477475D01*
X146712501Y-94527906D01*
X146864121Y-94629216D01*
X146984801Y-94653221D01*
X147030032Y-94723512D01*
X147213827Y-94849094D01*
X147432000Y-94893275D01*
X148732000Y-94893275D01*
X148935818Y-94854924D01*
X149123012Y-94734468D01*
X149248594Y-94550673D01*
X149292775Y-94332500D01*
X149292775Y-93632500D01*
X149254424Y-93428682D01*
X149133968Y-93241488D01*
X148950173Y-93115906D01*
X148732000Y-93071725D01*
X147481520Y-93071725D01*
X147481520Y-92644793D01*
X147584778Y-92625364D01*
X147771972Y-92504908D01*
X147897554Y-92321113D01*
X147941735Y-92102940D01*
X147941735Y-90904060D01*
X147903384Y-90700242D01*
X147782928Y-90513048D01*
X147599133Y-90387466D01*
X147380960Y-90343285D01*
X146182080Y-90343285D01*
X145978262Y-90381636D01*
X145803503Y-90494090D01*
X145655647Y-90346234D01*
X145413804Y-90246060D01*
X144951980Y-90246060D01*
X144787480Y-90410560D01*
X144579480Y-90410560D01*
X144414980Y-90246060D01*
X143953156Y-90246060D01*
X143711313Y-90346234D01*
X143526215Y-90531333D01*
X143426040Y-90773175D01*
X126582907Y-90773175D01*
X127410541Y-89945541D01*
X127594798Y-89669781D01*
X127659501Y-89344500D01*
X127659500Y-89344495D01*
X127659500Y-85106040D01*
X128152102Y-84613438D01*
X128152102Y-84683360D01*
X128316600Y-84683360D01*
X128152102Y-84847858D01*
X128152102Y-85726243D01*
X128252277Y-85968085D01*
X128437375Y-86153184D01*
X128679218Y-86253358D01*
X129557602Y-86253358D01*
X129722102Y-86088858D01*
X129722102Y-84683358D01*
X129930102Y-84683358D01*
X129930102Y-86088858D01*
X130094602Y-86253358D01*
X130972986Y-86253358D01*
X131214829Y-86153184D01*
X131399927Y-85968085D01*
X131500102Y-85726243D01*
X131500102Y-84847858D01*
X131335602Y-84683358D01*
X129930102Y-84683358D01*
X129722102Y-84683358D01*
X129702102Y-84683358D01*
X129702102Y-84475358D01*
X129722102Y-84475358D01*
X129722102Y-84455358D01*
X129930102Y-84455358D01*
X129930102Y-84475358D01*
X131335602Y-84475358D01*
X131500102Y-84310858D01*
X131500102Y-83432473D01*
X131399927Y-83190631D01*
X131214829Y-83005532D01*
X131092331Y-82954792D01*
X131136053Y-82889358D01*
X147833622Y-82889358D01*
X148158903Y-82824656D01*
X148434663Y-82640399D01*
X149256562Y-81818500D01*
X149847000Y-81818500D01*
X149847000Y-82180884D01*
X149947174Y-82422727D01*
X150132273Y-82607825D01*
X150159162Y-82618963D01*
X150113988Y-82648032D01*
X149988406Y-82831827D01*
X149944225Y-83050000D01*
X149944225Y-84050000D01*
X149982576Y-84253818D01*
X150103032Y-84441012D01*
X150286827Y-84566594D01*
X150505000Y-84610775D01*
X151128500Y-84610775D01*
X151128500Y-84651246D01*
X151108326Y-84671385D01*
X150978648Y-84983683D01*
X150978353Y-85321834D01*
X151107485Y-85634357D01*
X151346385Y-85873674D01*
X151658683Y-86003352D01*
X151996834Y-86003647D01*
X152309357Y-85874515D01*
X152548674Y-85635615D01*
X152678352Y-85323317D01*
X152678647Y-84985166D01*
X152549515Y-84672643D01*
X152528500Y-84651591D01*
X152528500Y-84248500D01*
X152475216Y-83980622D01*
X152323475Y-83753525D01*
X152315775Y-83745825D01*
X152315775Y-83050000D01*
X152277424Y-82846182D01*
X152195157Y-82718334D01*
X156439353Y-82718334D01*
X156568485Y-83030857D01*
X156807385Y-83270174D01*
X157119683Y-83399852D01*
X157457834Y-83400147D01*
X157552577Y-83361000D01*
X158109858Y-83361000D01*
X158110576Y-83364818D01*
X158231032Y-83552012D01*
X158414827Y-83677594D01*
X158633000Y-83721775D01*
X159883000Y-83721775D01*
X160086818Y-83683424D01*
X160274012Y-83562968D01*
X160399594Y-83379173D01*
X160443775Y-83161000D01*
X160443775Y-82161000D01*
X160405424Y-81957182D01*
X160397907Y-81945500D01*
X170357500Y-81945500D01*
X170357500Y-82307884D01*
X170457674Y-82549727D01*
X170642773Y-82734825D01*
X170669662Y-82745963D01*
X170624488Y-82775032D01*
X170498906Y-82958827D01*
X170454725Y-83177000D01*
X170454725Y-84177000D01*
X170493076Y-84380818D01*
X170613532Y-84568012D01*
X170797327Y-84693594D01*
X170940500Y-84722587D01*
X170940500Y-85791725D01*
X170854148Y-85999683D01*
X170853853Y-86337834D01*
X170982985Y-86650357D01*
X171221885Y-86889674D01*
X171534183Y-87019352D01*
X171872334Y-87019647D01*
X172184857Y-86890515D01*
X172424174Y-86651615D01*
X172553852Y-86339317D01*
X172554147Y-86001166D01*
X172425015Y-85688643D01*
X172340500Y-85603980D01*
X172340500Y-84723663D01*
X172469318Y-84699424D01*
X172656512Y-84578968D01*
X172782094Y-84395173D01*
X172826275Y-84177000D01*
X172826275Y-83177000D01*
X172787924Y-82973182D01*
X172667468Y-82785988D01*
X172609814Y-82746594D01*
X172638227Y-82734825D01*
X172823326Y-82549727D01*
X172923500Y-82307884D01*
X172923500Y-81945500D01*
X172759000Y-81781000D01*
X171744500Y-81781000D01*
X171744500Y-81801000D01*
X171536500Y-81801000D01*
X171536500Y-81781000D01*
X170522000Y-81781000D01*
X170357500Y-81945500D01*
X160397907Y-81945500D01*
X160284968Y-81769988D01*
X160227314Y-81730594D01*
X160255727Y-81718825D01*
X160440826Y-81533727D01*
X160541000Y-81291884D01*
X160541000Y-81046116D01*
X170357500Y-81046116D01*
X170357500Y-81408500D01*
X170522000Y-81573000D01*
X171536500Y-81573000D01*
X171536500Y-80683500D01*
X171744500Y-80683500D01*
X171744500Y-81573000D01*
X172759000Y-81573000D01*
X172923500Y-81408500D01*
X172923500Y-81046116D01*
X172823326Y-80804273D01*
X172638227Y-80619175D01*
X172396385Y-80519000D01*
X171909000Y-80519000D01*
X171744500Y-80683500D01*
X171536500Y-80683500D01*
X171372000Y-80519000D01*
X170884615Y-80519000D01*
X170642773Y-80619175D01*
X170457674Y-80804273D01*
X170357500Y-81046116D01*
X160541000Y-81046116D01*
X160541000Y-80929500D01*
X160376500Y-80765000D01*
X159362000Y-80765000D01*
X159362000Y-80785000D01*
X159154000Y-80785000D01*
X159154000Y-80765000D01*
X158139500Y-80765000D01*
X157975000Y-80929500D01*
X157975000Y-81291884D01*
X158075174Y-81533727D01*
X158260273Y-81718825D01*
X158287162Y-81729963D01*
X158241988Y-81759032D01*
X158116406Y-81942827D01*
X158112726Y-81961000D01*
X157902560Y-81961000D01*
X157771615Y-81829826D01*
X157459317Y-81700148D01*
X157121166Y-81699853D01*
X156808643Y-81828985D01*
X156569326Y-82067885D01*
X156439648Y-82380183D01*
X156439353Y-82718334D01*
X152195157Y-82718334D01*
X152156968Y-82658988D01*
X152099314Y-82619594D01*
X152127727Y-82607825D01*
X152312826Y-82422727D01*
X152413000Y-82180884D01*
X152413000Y-81818500D01*
X152248500Y-81654000D01*
X151234000Y-81654000D01*
X151234000Y-81674000D01*
X151026000Y-81674000D01*
X151026000Y-81654000D01*
X150011500Y-81654000D01*
X149847000Y-81818500D01*
X149256562Y-81818500D01*
X149847000Y-81228062D01*
X149847000Y-81281500D01*
X150011500Y-81446000D01*
X151026000Y-81446000D01*
X151026000Y-80556500D01*
X151234000Y-80556500D01*
X151234000Y-81446000D01*
X152248500Y-81446000D01*
X152413000Y-81281500D01*
X152413000Y-80919116D01*
X152312826Y-80677273D01*
X152127727Y-80492175D01*
X151885885Y-80392000D01*
X151398500Y-80392000D01*
X151234000Y-80556500D01*
X151026000Y-80556500D01*
X150861500Y-80392000D01*
X150683062Y-80392000D01*
X152111957Y-78963105D01*
X152467924Y-78963416D01*
X152895540Y-78786728D01*
X153957853Y-79849041D01*
G36*
X124404102Y-76027918D02*
X124568602Y-76192418D01*
X124865687Y-76192418D01*
X125062102Y-76232193D01*
X125716102Y-76232193D01*
X125716102Y-76360643D01*
X125062102Y-76360643D01*
X124858284Y-76398994D01*
X124856071Y-76400418D01*
X124568602Y-76400418D01*
X124404102Y-76564918D01*
X124404102Y-76654779D01*
X124324070Y-76530406D01*
X124140275Y-76404824D01*
X123922102Y-76360643D01*
X123579959Y-76360643D01*
X123708409Y-76232193D01*
X123922102Y-76232193D01*
X124125920Y-76193842D01*
X124313114Y-76073386D01*
X124404102Y-75940221D01*
X124404102Y-76027918D01*
X124404102Y-76027918D01*
G37*
X124404102Y-76027918D02*
X124568602Y-76192418D01*
X124865687Y-76192418D01*
X125062102Y-76232193D01*
X125716102Y-76232193D01*
X125716102Y-76360643D01*
X125062102Y-76360643D01*
X124858284Y-76398994D01*
X124856071Y-76400418D01*
X124568602Y-76400418D01*
X124404102Y-76564918D01*
X124404102Y-76654779D01*
X124324070Y-76530406D01*
X124140275Y-76404824D01*
X123922102Y-76360643D01*
X123579959Y-76360643D01*
X123708409Y-76232193D01*
X123922102Y-76232193D01*
X124125920Y-76193842D01*
X124313114Y-76073386D01*
X124404102Y-75940221D01*
X124404102Y-76027918D01*
M02*
