G04 #@! TF.FileFunction,Copper,L4,Bot,Signal*
%FSLAX46Y46*%
G04 Gerber Fmt 4.6, Leading zero omitted, Abs format (unit mm)*
G04 Created by KiCad (PCBNEW 4.0.2-stable) date Wed 13 Apr 2016 04:33:45 PM CST*
%MOMM*%
G01*
G04 APERTURE LIST*
%ADD10C,0.100000*%
%ADD11R,5.250000X6.230000*%
%ADD12R,5.250000X10.300000*%
%ADD13R,1.300000X0.665000*%
%ADD14C,1.157000*%
%ADD15R,0.700000X1.300000*%
%ADD16C,2.300000*%
%ADD17C,1.820000*%
%ADD18R,1.500000X0.550000*%
%ADD19R,0.550000X1.950000*%
%ADD20R,1.180000X0.580000*%
%ADD21R,0.550000X1.500000*%
%ADD22C,0.600000*%
%ADD23C,0.250000*%
%ADD24C,0.400000*%
%ADD25C,1.000000*%
%ADD26C,1.500000*%
G04 APERTURE END LIST*
D10*
D11*
X38225000Y-55727000D03*
X38225000Y-47397000D03*
D12*
X44325000Y-51562000D03*
D13*
X50375000Y-44562000D03*
X50375000Y-45562000D03*
X50375000Y-46562000D03*
X50375000Y-47562000D03*
X50375000Y-48562000D03*
X50375000Y-49562000D03*
X50375000Y-50562000D03*
X50375000Y-51562000D03*
X50375000Y-52562000D03*
X50375000Y-53562000D03*
X50375000Y-54562000D03*
X50375000Y-55562000D03*
X50375000Y-56562000D03*
X50375000Y-57562000D03*
X50375000Y-58562000D03*
X32175000Y-58562000D03*
X32175000Y-57562000D03*
X32175000Y-56562000D03*
X32175000Y-55562000D03*
X32175000Y-54562000D03*
X32175000Y-53562000D03*
X32175000Y-52562000D03*
X32175000Y-51562000D03*
X32175000Y-50562000D03*
X32175000Y-49562000D03*
X32175000Y-48562000D03*
X32175000Y-47562000D03*
X32175000Y-46562000D03*
X32175000Y-45562000D03*
X32175000Y-44562000D03*
D14*
X100076000Y-76073000D03*
X97536000Y-76073000D03*
X100076000Y-73533000D03*
X97536000Y-73533000D03*
X100076000Y-70993000D03*
X97536000Y-70993000D03*
X100076000Y-68453000D03*
X97536000Y-68453000D03*
X100076000Y-65913000D03*
X97536000Y-65913000D03*
X100076000Y-63373000D03*
X97536000Y-63373000D03*
X100076000Y-60833000D03*
X97536000Y-60833000D03*
X100076000Y-58293000D03*
X97536000Y-58293000D03*
X100076000Y-55753000D03*
X97536000Y-55753000D03*
X100076000Y-53213000D03*
X97536000Y-53213000D03*
X100076000Y-50673000D03*
X97536000Y-50673000D03*
X100076000Y-48133000D03*
X97536000Y-48133000D03*
X100076000Y-45593000D03*
X97536000Y-45593000D03*
X100076000Y-43053000D03*
X97536000Y-43053000D03*
X100076000Y-40513000D03*
X97536000Y-40513000D03*
X100076000Y-37973000D03*
X97536000Y-37973000D03*
X100076000Y-35433000D03*
X97536000Y-35433000D03*
D15*
X62042000Y-56515000D03*
X63942000Y-56515000D03*
X55946000Y-43561000D03*
X57846000Y-43561000D03*
X61915000Y-47879000D03*
X63815000Y-47879000D03*
D16*
X160655000Y-149937000D03*
X167005000Y-149937000D03*
X173355000Y-149937000D03*
X179705000Y-149937000D03*
X186055000Y-149937000D03*
X50292000Y-149783000D03*
X43942000Y-149783000D03*
X37592000Y-149783000D03*
X31242000Y-149783000D03*
X24892000Y-149783000D03*
X71882000Y-149937000D03*
X78232000Y-149937000D03*
X84582000Y-149937000D03*
X90932000Y-149937000D03*
X97282000Y-149937000D03*
X22810000Y-68834000D03*
X22810000Y-62484000D03*
X22810000Y-56134000D03*
X22810000Y-49784000D03*
X22810000Y-43434000D03*
X33147000Y-30811000D03*
X39497000Y-30811000D03*
X45847000Y-30811000D03*
X52197000Y-30811000D03*
X58547000Y-30811000D03*
D17*
X199517000Y-88690000D03*
X199517000Y-94190000D03*
X199009000Y-78188000D03*
X199009000Y-72688000D03*
D16*
X118237000Y-150318000D03*
X124587000Y-150318000D03*
X130937000Y-150318000D03*
X137287000Y-150318000D03*
X143637000Y-150318000D03*
X112903000Y-31573000D03*
X119253000Y-31573000D03*
X125603000Y-31573000D03*
X131953000Y-31573000D03*
X138303000Y-31573000D03*
D18*
X81821000Y-69469000D03*
X81821000Y-70739000D03*
X81821000Y-72009000D03*
X81821000Y-73279000D03*
X81821000Y-74549000D03*
X81821000Y-75819000D03*
X81821000Y-77089000D03*
X81821000Y-78359000D03*
X76421000Y-78359000D03*
X76421000Y-77089000D03*
X76421000Y-75819000D03*
X76421000Y-74549000D03*
X76421000Y-73279000D03*
X76421000Y-72009000D03*
X76421000Y-70739000D03*
X76421000Y-69469000D03*
X82202000Y-42291000D03*
X82202000Y-43561000D03*
X82202000Y-44831000D03*
X82202000Y-46101000D03*
X82202000Y-47371000D03*
X82202000Y-48641000D03*
X82202000Y-49911000D03*
X82202000Y-51181000D03*
X76802000Y-51181000D03*
X76802000Y-49911000D03*
X76802000Y-48641000D03*
X76802000Y-47371000D03*
X76802000Y-46101000D03*
X76802000Y-44831000D03*
X76802000Y-43561000D03*
X76802000Y-42291000D03*
X82456000Y-55499000D03*
X82456000Y-56769000D03*
X82456000Y-58039000D03*
X82456000Y-59309000D03*
X82456000Y-60579000D03*
X82456000Y-61849000D03*
X82456000Y-63119000D03*
X82456000Y-64389000D03*
X77056000Y-64389000D03*
X77056000Y-63119000D03*
X77056000Y-61849000D03*
X77056000Y-60579000D03*
X77056000Y-59309000D03*
X77056000Y-58039000D03*
X77056000Y-56769000D03*
X77056000Y-55499000D03*
D16*
X159004000Y-31192000D03*
X165354000Y-31192000D03*
X171704000Y-31192000D03*
X178054000Y-31192000D03*
X184404000Y-31192000D03*
X198832000Y-58801000D03*
X198832000Y-52451000D03*
X198832000Y-46101000D03*
X198832000Y-39751000D03*
X198832000Y-33401000D03*
D15*
X89347000Y-45085000D03*
X91247000Y-45085000D03*
X87950000Y-74168000D03*
X89850000Y-74168000D03*
X88331000Y-60325000D03*
X90231000Y-60325000D03*
X55946000Y-53721000D03*
X57846000Y-53721000D03*
D19*
X127017000Y-80900000D03*
X125747000Y-80900000D03*
X124477000Y-80900000D03*
X123207000Y-80900000D03*
X121937000Y-80900000D03*
X120667000Y-80900000D03*
X119397000Y-80900000D03*
X118127000Y-80900000D03*
X116857000Y-80900000D03*
X115587000Y-80900000D03*
X114317000Y-80900000D03*
X113047000Y-80900000D03*
X113047000Y-71500000D03*
X114317000Y-71500000D03*
X115587000Y-71500000D03*
X116857000Y-71500000D03*
X118127000Y-71500000D03*
X119397000Y-71500000D03*
X120667000Y-71500000D03*
X121937000Y-71500000D03*
X123207000Y-71500000D03*
X124477000Y-71500000D03*
X125747000Y-71500000D03*
X127017000Y-71500000D03*
D20*
X144011000Y-85471000D03*
X144011000Y-86741000D03*
X144011000Y-88011000D03*
X144011000Y-89281000D03*
X144011000Y-90551000D03*
X144011000Y-91821000D03*
X144011000Y-93091000D03*
X138691000Y-93091000D03*
X138691000Y-91821000D03*
X138691000Y-90551000D03*
X138691000Y-89281000D03*
X138691000Y-88011000D03*
X138691000Y-86741000D03*
X138691000Y-85471000D03*
D18*
X116045000Y-62738000D03*
X116045000Y-61468000D03*
X116045000Y-60198000D03*
X116045000Y-58928000D03*
X116045000Y-57658000D03*
X116045000Y-56388000D03*
X116045000Y-55118000D03*
X116045000Y-53848000D03*
X121445000Y-53848000D03*
X121445000Y-55118000D03*
X121445000Y-56388000D03*
X121445000Y-57658000D03*
X121445000Y-58928000D03*
X121445000Y-60198000D03*
X121445000Y-61468000D03*
X121445000Y-62738000D03*
X116299000Y-49657000D03*
X116299000Y-48387000D03*
X116299000Y-47117000D03*
X116299000Y-45847000D03*
X116299000Y-44577000D03*
X116299000Y-43307000D03*
X116299000Y-42037000D03*
X116299000Y-40767000D03*
X121699000Y-40767000D03*
X121699000Y-42037000D03*
X121699000Y-43307000D03*
X121699000Y-44577000D03*
X121699000Y-45847000D03*
X121699000Y-47117000D03*
X121699000Y-48387000D03*
X121699000Y-49657000D03*
X140749000Y-54864000D03*
X140749000Y-56134000D03*
X140749000Y-57404000D03*
X140749000Y-58674000D03*
X140749000Y-59944000D03*
X140749000Y-61214000D03*
X140749000Y-62484000D03*
X140749000Y-63754000D03*
X135349000Y-63754000D03*
X135349000Y-62484000D03*
X135349000Y-61214000D03*
X135349000Y-59944000D03*
X135349000Y-58674000D03*
X135349000Y-57404000D03*
X135349000Y-56134000D03*
X135349000Y-54864000D03*
X141257000Y-41910000D03*
X141257000Y-43180000D03*
X141257000Y-44450000D03*
X141257000Y-45720000D03*
X141257000Y-46990000D03*
X141257000Y-48260000D03*
X141257000Y-49530000D03*
X141257000Y-50800000D03*
X135857000Y-50800000D03*
X135857000Y-49530000D03*
X135857000Y-48260000D03*
X135857000Y-46990000D03*
X135857000Y-45720000D03*
X135857000Y-44450000D03*
X135857000Y-43180000D03*
X135857000Y-41910000D03*
D19*
X132698000Y-102869000D03*
X133968000Y-102869000D03*
X135238000Y-102869000D03*
X136508000Y-102869000D03*
X137778000Y-102869000D03*
X139048000Y-102869000D03*
X140318000Y-102869000D03*
X141588000Y-102869000D03*
X142858000Y-102869000D03*
X144128000Y-102869000D03*
X145398000Y-102869000D03*
X146668000Y-102869000D03*
X146668000Y-112269000D03*
X145398000Y-112269000D03*
X144128000Y-112269000D03*
X142858000Y-112269000D03*
X141588000Y-112269000D03*
X140318000Y-112269000D03*
X139048000Y-112269000D03*
X137778000Y-112269000D03*
X136508000Y-112269000D03*
X135238000Y-112269000D03*
X133968000Y-112269000D03*
X132698000Y-112269000D03*
D20*
X112275000Y-98679000D03*
X112275000Y-97409000D03*
X112275000Y-96139000D03*
X112275000Y-94869000D03*
X112275000Y-93599000D03*
X112275000Y-92329000D03*
X112275000Y-91059000D03*
X117595000Y-91059000D03*
X117595000Y-92329000D03*
X117595000Y-93599000D03*
X117595000Y-94869000D03*
X117595000Y-96139000D03*
X117595000Y-97409000D03*
X117595000Y-98679000D03*
D21*
X161290000Y-121760000D03*
X162560000Y-121760000D03*
X163830000Y-121760000D03*
X165100000Y-121760000D03*
X166370000Y-121760000D03*
X167640000Y-121760000D03*
X168910000Y-121760000D03*
X170180000Y-121760000D03*
X170180000Y-127160000D03*
X168910000Y-127160000D03*
X167640000Y-127160000D03*
X166370000Y-127160000D03*
X165100000Y-127160000D03*
X163830000Y-127160000D03*
X162560000Y-127160000D03*
X161290000Y-127160000D03*
X160274000Y-104615000D03*
X161544000Y-104615000D03*
X162814000Y-104615000D03*
X164084000Y-104615000D03*
X165354000Y-104615000D03*
X166624000Y-104615000D03*
X167894000Y-104615000D03*
X169164000Y-104615000D03*
X169164000Y-110015000D03*
X167894000Y-110015000D03*
X166624000Y-110015000D03*
X165354000Y-110015000D03*
X164084000Y-110015000D03*
X162814000Y-110015000D03*
X161544000Y-110015000D03*
X160274000Y-110015000D03*
X180467000Y-121760000D03*
X181737000Y-121760000D03*
X183007000Y-121760000D03*
X184277000Y-121760000D03*
X185547000Y-121760000D03*
X186817000Y-121760000D03*
X188087000Y-121760000D03*
X189357000Y-121760000D03*
X189357000Y-127160000D03*
X188087000Y-127160000D03*
X186817000Y-127160000D03*
X185547000Y-127160000D03*
X184277000Y-127160000D03*
X183007000Y-127160000D03*
X181737000Y-127160000D03*
X180467000Y-127160000D03*
X180721000Y-105123000D03*
X181991000Y-105123000D03*
X183261000Y-105123000D03*
X184531000Y-105123000D03*
X185801000Y-105123000D03*
X187071000Y-105123000D03*
X188341000Y-105123000D03*
X189611000Y-105123000D03*
X189611000Y-110523000D03*
X188341000Y-110523000D03*
X187071000Y-110523000D03*
X185801000Y-110523000D03*
X184531000Y-110523000D03*
X183261000Y-110523000D03*
X181991000Y-110523000D03*
X180721000Y-110523000D03*
D20*
X144392000Y-73025000D03*
X144392000Y-74295000D03*
X144392000Y-75565000D03*
X144392000Y-76835000D03*
X144392000Y-78105000D03*
X144392000Y-79375000D03*
X144392000Y-80645000D03*
X139072000Y-80645000D03*
X139072000Y-79375000D03*
X139072000Y-78105000D03*
X139072000Y-76835000D03*
X139072000Y-75565000D03*
X139072000Y-74295000D03*
X139072000Y-73025000D03*
D19*
X84692000Y-108584000D03*
X85962000Y-108584000D03*
X87232000Y-108584000D03*
X88502000Y-108584000D03*
X89772000Y-108584000D03*
X91042000Y-108584000D03*
X92312000Y-108584000D03*
X93582000Y-108584000D03*
X94852000Y-108584000D03*
X96122000Y-108584000D03*
X97392000Y-108584000D03*
X98662000Y-108584000D03*
X98662000Y-117984000D03*
X97392000Y-117984000D03*
X96122000Y-117984000D03*
X94852000Y-117984000D03*
X93582000Y-117984000D03*
X92312000Y-117984000D03*
X91042000Y-117984000D03*
X89772000Y-117984000D03*
X88502000Y-117984000D03*
X87232000Y-117984000D03*
X85962000Y-117984000D03*
X84692000Y-117984000D03*
D20*
X69984000Y-106299000D03*
X69984000Y-105029000D03*
X69984000Y-103759000D03*
X69984000Y-102489000D03*
X69984000Y-101219000D03*
X69984000Y-99949000D03*
X69984000Y-98679000D03*
X75304000Y-98679000D03*
X75304000Y-99949000D03*
X75304000Y-101219000D03*
X75304000Y-102489000D03*
X75304000Y-103759000D03*
X75304000Y-105029000D03*
X75304000Y-106299000D03*
D18*
X117061000Y-141732000D03*
X117061000Y-140462000D03*
X117061000Y-139192000D03*
X117061000Y-137922000D03*
X117061000Y-136652000D03*
X117061000Y-135382000D03*
X117061000Y-134112000D03*
X117061000Y-132842000D03*
X122461000Y-132842000D03*
X122461000Y-134112000D03*
X122461000Y-135382000D03*
X122461000Y-136652000D03*
X122461000Y-137922000D03*
X122461000Y-139192000D03*
X122461000Y-140462000D03*
X122461000Y-141732000D03*
X117188000Y-129667000D03*
X117188000Y-128397000D03*
X117188000Y-127127000D03*
X117188000Y-125857000D03*
X117188000Y-124587000D03*
X117188000Y-123317000D03*
X117188000Y-122047000D03*
X117188000Y-120777000D03*
X122588000Y-120777000D03*
X122588000Y-122047000D03*
X122588000Y-123317000D03*
X122588000Y-124587000D03*
X122588000Y-125857000D03*
X122588000Y-127127000D03*
X122588000Y-128397000D03*
X122588000Y-129667000D03*
X142146000Y-132588000D03*
X142146000Y-133858000D03*
X142146000Y-135128000D03*
X142146000Y-136398000D03*
X142146000Y-137668000D03*
X142146000Y-138938000D03*
X142146000Y-140208000D03*
X142146000Y-141478000D03*
X136746000Y-141478000D03*
X136746000Y-140208000D03*
X136746000Y-138938000D03*
X136746000Y-137668000D03*
X136746000Y-136398000D03*
X136746000Y-135128000D03*
X136746000Y-133858000D03*
X136746000Y-132588000D03*
X142400000Y-120523000D03*
X142400000Y-121793000D03*
X142400000Y-123063000D03*
X142400000Y-124333000D03*
X142400000Y-125603000D03*
X142400000Y-126873000D03*
X142400000Y-128143000D03*
X142400000Y-129413000D03*
X137000000Y-129413000D03*
X137000000Y-128143000D03*
X137000000Y-126873000D03*
X137000000Y-125603000D03*
X137000000Y-124333000D03*
X137000000Y-123063000D03*
X137000000Y-121793000D03*
X137000000Y-120523000D03*
D20*
X112402000Y-111125000D03*
X112402000Y-109855000D03*
X112402000Y-108585000D03*
X112402000Y-107315000D03*
X112402000Y-106045000D03*
X112402000Y-104775000D03*
X112402000Y-103505000D03*
X117722000Y-103505000D03*
X117722000Y-104775000D03*
X117722000Y-106045000D03*
X117722000Y-107315000D03*
X117722000Y-108585000D03*
X117722000Y-109855000D03*
X117722000Y-111125000D03*
D18*
X70706000Y-144272000D03*
X70706000Y-143002000D03*
X70706000Y-141732000D03*
X70706000Y-140462000D03*
X70706000Y-139192000D03*
X70706000Y-137922000D03*
X70706000Y-136652000D03*
X70706000Y-135382000D03*
X76106000Y-135382000D03*
X76106000Y-136652000D03*
X76106000Y-137922000D03*
X76106000Y-139192000D03*
X76106000Y-140462000D03*
X76106000Y-141732000D03*
X76106000Y-143002000D03*
X76106000Y-144272000D03*
X70706000Y-132715000D03*
X70706000Y-131445000D03*
X70706000Y-130175000D03*
X70706000Y-128905000D03*
X70706000Y-127635000D03*
X70706000Y-126365000D03*
X70706000Y-125095000D03*
X70706000Y-123825000D03*
X76106000Y-123825000D03*
X76106000Y-125095000D03*
X76106000Y-126365000D03*
X76106000Y-127635000D03*
X76106000Y-128905000D03*
X76106000Y-130175000D03*
X76106000Y-131445000D03*
X76106000Y-132715000D03*
X98839000Y-135890000D03*
X98839000Y-137160000D03*
X98839000Y-138430000D03*
X98839000Y-139700000D03*
X98839000Y-140970000D03*
X98839000Y-142240000D03*
X98839000Y-143510000D03*
X98839000Y-144780000D03*
X93439000Y-144780000D03*
X93439000Y-143510000D03*
X93439000Y-142240000D03*
X93439000Y-140970000D03*
X93439000Y-139700000D03*
X93439000Y-138430000D03*
X93439000Y-137160000D03*
X93439000Y-135890000D03*
X98839000Y-125095000D03*
X98839000Y-126365000D03*
X98839000Y-127635000D03*
X98839000Y-128905000D03*
X98839000Y-130175000D03*
X98839000Y-131445000D03*
X98839000Y-132715000D03*
X98839000Y-133985000D03*
X93439000Y-133985000D03*
X93439000Y-132715000D03*
X93439000Y-131445000D03*
X93439000Y-130175000D03*
X93439000Y-128905000D03*
X93439000Y-127635000D03*
X93439000Y-126365000D03*
X93439000Y-125095000D03*
D20*
X69984000Y-118872000D03*
X69984000Y-117602000D03*
X69984000Y-116332000D03*
X69984000Y-115062000D03*
X69984000Y-113792000D03*
X69984000Y-112522000D03*
X69984000Y-111252000D03*
X75304000Y-111252000D03*
X75304000Y-112522000D03*
X75304000Y-113792000D03*
X75304000Y-115062000D03*
X75304000Y-116332000D03*
X75304000Y-117602000D03*
X75304000Y-118872000D03*
D18*
X25748000Y-123444000D03*
X25748000Y-122174000D03*
X25748000Y-120904000D03*
X25748000Y-119634000D03*
X25748000Y-118364000D03*
X25748000Y-117094000D03*
X25748000Y-115824000D03*
X25748000Y-114554000D03*
X31148000Y-114554000D03*
X31148000Y-115824000D03*
X31148000Y-117094000D03*
X31148000Y-118364000D03*
X31148000Y-119634000D03*
X31148000Y-120904000D03*
X31148000Y-122174000D03*
X31148000Y-123444000D03*
X25748000Y-139954000D03*
X25748000Y-138684000D03*
X25748000Y-137414000D03*
X25748000Y-136144000D03*
X25748000Y-134874000D03*
X25748000Y-133604000D03*
X25748000Y-132334000D03*
X25748000Y-131064000D03*
X31148000Y-131064000D03*
X31148000Y-132334000D03*
X31148000Y-133604000D03*
X31148000Y-134874000D03*
X31148000Y-136144000D03*
X31148000Y-137414000D03*
X31148000Y-138684000D03*
X31148000Y-139954000D03*
X50706000Y-114300000D03*
X50706000Y-115570000D03*
X50706000Y-116840000D03*
X50706000Y-118110000D03*
X50706000Y-119380000D03*
X50706000Y-120650000D03*
X50706000Y-121920000D03*
X50706000Y-123190000D03*
X45306000Y-123190000D03*
X45306000Y-121920000D03*
X45306000Y-120650000D03*
X45306000Y-119380000D03*
X45306000Y-118110000D03*
X45306000Y-116840000D03*
X45306000Y-115570000D03*
X45306000Y-114300000D03*
X50960000Y-131064000D03*
X50960000Y-132334000D03*
X50960000Y-133604000D03*
X50960000Y-134874000D03*
X50960000Y-136144000D03*
X50960000Y-137414000D03*
X50960000Y-138684000D03*
X50960000Y-139954000D03*
X45560000Y-139954000D03*
X45560000Y-138684000D03*
X45560000Y-137414000D03*
X45560000Y-136144000D03*
X45560000Y-134874000D03*
X45560000Y-133604000D03*
X45560000Y-132334000D03*
X45560000Y-131064000D03*
D21*
X158496000Y-56609000D03*
X159766000Y-56609000D03*
X161036000Y-56609000D03*
X162306000Y-56609000D03*
X163576000Y-56609000D03*
X164846000Y-56609000D03*
X166116000Y-56609000D03*
X167386000Y-56609000D03*
X167386000Y-62009000D03*
X166116000Y-62009000D03*
X164846000Y-62009000D03*
X163576000Y-62009000D03*
X162306000Y-62009000D03*
X161036000Y-62009000D03*
X159766000Y-62009000D03*
X158496000Y-62009000D03*
X157861000Y-41877000D03*
X159131000Y-41877000D03*
X160401000Y-41877000D03*
X161671000Y-41877000D03*
X162941000Y-41877000D03*
X164211000Y-41877000D03*
X165481000Y-41877000D03*
X166751000Y-41877000D03*
X166751000Y-47277000D03*
X165481000Y-47277000D03*
X164211000Y-47277000D03*
X162941000Y-47277000D03*
X161671000Y-47277000D03*
X160401000Y-47277000D03*
X159131000Y-47277000D03*
X157861000Y-47277000D03*
X178689000Y-56482000D03*
X179959000Y-56482000D03*
X181229000Y-56482000D03*
X182499000Y-56482000D03*
X183769000Y-56482000D03*
X185039000Y-56482000D03*
X186309000Y-56482000D03*
X187579000Y-56482000D03*
X187579000Y-61882000D03*
X186309000Y-61882000D03*
X185039000Y-61882000D03*
X183769000Y-61882000D03*
X182499000Y-61882000D03*
X181229000Y-61882000D03*
X179959000Y-61882000D03*
X178689000Y-61882000D03*
X177546000Y-42131000D03*
X178816000Y-42131000D03*
X180086000Y-42131000D03*
X181356000Y-42131000D03*
X182626000Y-42131000D03*
X183896000Y-42131000D03*
X185166000Y-42131000D03*
X186436000Y-42131000D03*
X186436000Y-47531000D03*
X185166000Y-47531000D03*
X183896000Y-47531000D03*
X182626000Y-47531000D03*
X181356000Y-47531000D03*
X180086000Y-47531000D03*
X178816000Y-47531000D03*
X177546000Y-47531000D03*
D22*
X134604600Y-127458400D03*
X183607400Y-120408300D03*
X97696900Y-98551200D03*
X161268500Y-125543400D03*
X137126500Y-41715800D03*
X158922900Y-90943400D03*
X158750400Y-63338700D03*
X177559100Y-64084000D03*
X75169600Y-69645100D03*
X122357600Y-130447200D03*
X111158200Y-93765200D03*
X119337000Y-92681900D03*
X160405100Y-111773300D03*
X36777200Y-118470400D03*
X44173700Y-113038800D03*
X43679800Y-122984400D03*
X83616300Y-80561100D03*
X83616300Y-81420400D03*
X79951100Y-93689600D03*
X97581600Y-144962100D03*
X167757400Y-111956000D03*
X31906500Y-110617000D03*
X71319200Y-100368900D03*
X74388700Y-97978000D03*
X78021500Y-122732600D03*
X105826500Y-90050300D03*
X132871000Y-93479600D03*
X166506900Y-45992400D03*
X164563600Y-98292800D03*
X185915900Y-113439800D03*
X80933900Y-50103800D03*
X91150200Y-46259500D03*
X122728700Y-116584700D03*
X123860600Y-122034700D03*
X165901900Y-72553500D03*
X71419600Y-123017200D03*
X51389800Y-113038800D03*
X126755600Y-67942300D03*
X32281900Y-95885000D03*
X77801400Y-65169200D03*
X72085300Y-73116900D03*
X77536900Y-51971700D03*
X45981000Y-85849100D03*
X32305200Y-99524900D03*
X78312500Y-63593600D03*
X73507500Y-70262900D03*
X75663200Y-50552300D03*
X96438500Y-97864700D03*
X50367900Y-94948900D03*
X35461800Y-98869500D03*
X77082400Y-93183600D03*
X79172900Y-59090000D03*
X103358100Y-98394200D03*
X26890900Y-100805700D03*
X164337400Y-48530500D03*
X185221400Y-63340700D03*
X164830300Y-63327700D03*
X168574500Y-90695000D03*
X77977900Y-73305900D03*
X88882900Y-49088200D03*
X158349700Y-54449700D03*
X78064200Y-46329200D03*
X85542900Y-44089000D03*
X180254900Y-64867000D03*
X78339500Y-59239300D03*
X81838400Y-52098600D03*
X114582000Y-49244000D03*
X132882200Y-40244000D03*
X136367800Y-142717700D03*
X115255200Y-137471500D03*
X49530000Y-60960000D03*
X48260000Y-33655000D03*
X29210000Y-51435000D03*
X188595000Y-101600000D03*
X109855000Y-43180000D03*
X113665000Y-51435000D03*
X188595000Y-44450000D03*
X188595000Y-52705000D03*
X187325000Y-139065000D03*
X187960000Y-129540000D03*
X107950000Y-147320000D03*
X97155000Y-128905000D03*
X22225000Y-135255000D03*
X22860000Y-127000000D03*
X46355000Y-34925000D03*
X34290000Y-46355000D03*
X148590000Y-34290000D03*
X62230000Y-147320000D03*
X152400000Y-144780000D03*
X65827700Y-114774700D03*
X154025000Y-117354700D03*
X36335800Y-64906900D03*
X45180800Y-45895300D03*
X48159000Y-45522800D03*
X86233000Y-74407900D03*
X88821900Y-71475400D03*
X51529000Y-44224800D03*
X50333200Y-59398400D03*
X79157700Y-126731000D03*
X100455300Y-141376400D03*
X26878900Y-139316600D03*
X43981100Y-125183100D03*
X167625300Y-64671200D03*
X84675700Y-77682400D03*
X165383500Y-128909700D03*
X184092300Y-141057600D03*
X84506200Y-54446100D03*
X84497100Y-51381200D03*
X114941100Y-76146200D03*
X114689800Y-106517900D03*
X114809000Y-118088700D03*
X115111600Y-98825500D03*
X92749800Y-91035800D03*
X93462000Y-65293600D03*
X71415600Y-61309000D03*
X116143300Y-63868000D03*
X100452400Y-91313000D03*
X113531600Y-110970500D03*
X72815400Y-45998100D03*
X114819200Y-78539800D03*
X75357700Y-43455900D03*
X115882900Y-87822600D03*
X96320300Y-96755300D03*
X84207100Y-62148300D03*
X124624500Y-66099400D03*
X87755400Y-63266100D03*
X92949600Y-93280400D03*
X81340500Y-56129800D03*
X115769500Y-92583000D03*
X115128000Y-65795900D03*
X114267200Y-77899200D03*
X81090100Y-49276100D03*
X127825800Y-86358500D03*
X81581600Y-41227100D03*
X181322000Y-97679000D03*
X63856400Y-49039000D03*
X153635900Y-72183400D03*
X159589300Y-50165000D03*
X58045900Y-52362000D03*
X132678300Y-70413900D03*
X144316500Y-115320000D03*
X144321600Y-131511800D03*
X51390000Y-78888000D03*
X46370500Y-67220300D03*
X54454200Y-126840800D03*
X44568500Y-128340100D03*
X159586900Y-43224900D03*
X65933400Y-58581600D03*
X153152700Y-55956100D03*
X88348700Y-73000700D03*
X88330500Y-78436500D03*
X90782300Y-75094900D03*
X85143500Y-78360000D03*
X82593600Y-66037100D03*
X97888300Y-96393000D03*
X100404400Y-95059200D03*
X97888300Y-97663000D03*
X65946100Y-59848900D03*
X166626900Y-48670400D03*
X139476600Y-58674000D03*
X120188300Y-58829100D03*
X133303800Y-59153900D03*
X123059600Y-58202600D03*
X184121900Y-123218100D03*
X165100000Y-125872900D03*
X185254400Y-123037000D03*
X166370000Y-125893200D03*
X185801000Y-103840900D03*
X165354000Y-108762500D03*
X140892300Y-136585800D03*
X128466000Y-135783200D03*
X140867900Y-137668000D03*
X127619000Y-135708600D03*
X141112800Y-124716600D03*
X124712800Y-124716100D03*
X141129800Y-125603000D03*
X123857800Y-124535800D03*
X100094200Y-139575200D03*
X82656900Y-139799400D03*
X100103500Y-140463800D03*
X77389500Y-139617400D03*
X96961900Y-132130900D03*
X81800900Y-132692600D03*
X100094200Y-130366800D03*
X86510100Y-127980700D03*
X49424800Y-118546600D03*
X32409200Y-119683800D03*
X49447200Y-119621200D03*
X33315800Y-119680700D03*
X48124500Y-135280900D03*
X39945200Y-136581700D03*
X49697800Y-135957100D03*
X39948900Y-134799200D03*
X162963900Y-76581500D03*
X160401000Y-43299500D03*
X163640800Y-86856100D03*
X159291400Y-44272100D03*
X163640300Y-80988500D03*
X164096900Y-44456000D03*
X163622700Y-79741300D03*
X164792200Y-43680400D03*
X166602500Y-78003500D03*
X179786400Y-40582900D03*
X166965400Y-76698800D03*
X170090300Y-48034900D03*
X168573700Y-81805000D03*
X183819900Y-43413700D03*
X171539900Y-80535000D03*
X185028200Y-43385000D03*
X162140000Y-89425000D03*
X184991100Y-58663200D03*
X162264300Y-86705700D03*
X184988800Y-57748200D03*
X162005600Y-83710000D03*
X179856300Y-57780900D03*
X162140000Y-85615000D03*
X162215300Y-84562400D03*
X162665600Y-82987400D03*
X159146600Y-81805000D03*
X159308700Y-79887700D03*
X160601900Y-58019900D03*
X182255300Y-57745600D03*
X162306000Y-60754200D03*
X183601500Y-57779200D03*
X164562400Y-59947300D03*
X163618600Y-67310000D03*
X163617300Y-58341400D03*
X163614200Y-70639400D03*
X183769000Y-60630100D03*
X162941000Y-43151800D03*
X180681700Y-60651000D03*
X185656100Y-68382400D03*
X145114700Y-89583800D03*
X126341600Y-52916400D03*
X125175700Y-54081800D03*
X139791400Y-90365900D03*
X27310800Y-99330100D03*
X136615000Y-61139300D03*
X137342600Y-53519200D03*
X169197000Y-117954600D03*
X184467400Y-117676100D03*
X166311400Y-112501300D03*
X27761100Y-98529700D03*
X27761100Y-97687000D03*
X109182600Y-97015700D03*
X118686400Y-94052700D03*
X121199700Y-123242700D03*
X135740200Y-126586400D03*
X127176200Y-126406000D03*
X26876200Y-95885000D03*
X41413400Y-113157000D03*
X43728800Y-114612100D03*
X32449900Y-116867400D03*
X28425700Y-99466800D03*
X68029900Y-105966600D03*
X77364500Y-126115000D03*
X126514500Y-79442900D03*
X77723900Y-72374200D03*
X127174300Y-84916900D03*
X75156700Y-74888900D03*
X54071300Y-98874300D03*
X81025200Y-68668500D03*
X164408000Y-108763800D03*
X77726900Y-70865700D03*
X137549900Y-81824800D03*
X115857600Y-73808600D03*
X78422000Y-44093900D03*
X114073200Y-89579500D03*
X78078600Y-47417000D03*
X41263700Y-115056300D03*
X80940600Y-42597100D03*
X161778400Y-120142000D03*
X78052800Y-43147400D03*
X142827700Y-79563300D03*
X76961100Y-67849400D03*
X96431600Y-60602800D03*
X78315100Y-60453500D03*
X68884900Y-106115200D03*
X79485000Y-68916300D03*
X49085800Y-117547600D03*
X80846600Y-55491600D03*
X171403200Y-121412000D03*
X107907200Y-57420000D03*
X78339500Y-56836900D03*
X143787900Y-72229000D03*
X111458500Y-111773400D03*
X68730200Y-58515100D03*
X68653700Y-47430600D03*
X79605400Y-115458700D03*
X28706100Y-116843600D03*
X185331000Y-120467300D03*
X130030200Y-69374000D03*
X71784500Y-69669100D03*
X69261200Y-71980500D03*
X53433600Y-81575600D03*
X133850600Y-85505400D03*
X69365400Y-69690200D03*
X67624700Y-67190300D03*
X145538600Y-72370600D03*
X67728000Y-44415200D03*
X140539000Y-53904300D03*
X145611400Y-70338500D03*
X146737600Y-40919300D03*
X144968000Y-141310500D03*
X134083100Y-118239000D03*
X112496800Y-111950100D03*
X116083600Y-108867300D03*
X149027400Y-117299800D03*
X65942600Y-116404600D03*
X69754000Y-119800100D03*
X68167400Y-116200100D03*
X66106000Y-139308100D03*
X58438100Y-116781900D03*
X57637500Y-124801200D03*
X185321400Y-117032300D03*
X155908200Y-142665000D03*
X147674300Y-116673200D03*
X133842400Y-83950600D03*
X53133600Y-53160000D03*
X130043100Y-68104000D03*
X43559600Y-67223900D03*
X66760900Y-44067900D03*
X132902500Y-46529100D03*
X131674900Y-115851500D03*
X138858700Y-135122700D03*
X136834700Y-99600000D03*
X165889700Y-133937600D03*
X72575100Y-100028800D03*
X81471600Y-133542700D03*
X73996300Y-113827700D03*
X46817900Y-132333100D03*
X141838100Y-70971500D03*
X118384400Y-60192100D03*
X142789400Y-64688700D03*
X117311400Y-58037600D03*
X124270200Y-79407000D03*
X117589800Y-48973600D03*
X122973800Y-79422200D03*
X117562600Y-43676500D03*
X121760800Y-79423500D03*
X117515600Y-42568900D03*
X123554100Y-78221600D03*
X139858200Y-45862300D03*
X122440900Y-77587100D03*
X139976600Y-43044500D03*
X123363600Y-76637900D03*
X139979700Y-48472200D03*
X123972500Y-76114800D03*
X139969400Y-49927300D03*
X113184200Y-78818900D03*
X144166900Y-101387600D03*
X56472900Y-103473800D03*
X96340500Y-107096400D03*
X145863500Y-100935800D03*
X57692600Y-103457900D03*
X97308000Y-104128300D03*
X113751300Y-79499300D03*
X57598700Y-91070000D03*
X94052500Y-91998700D03*
X157822000Y-96327900D03*
X59356500Y-91281700D03*
X94079800Y-87445200D03*
X159142000Y-96230200D03*
X127652900Y-59162600D03*
X118941100Y-47199600D03*
X126563600Y-58937300D03*
X117575600Y-45752600D03*
X166766800Y-118490700D03*
X166692500Y-120469600D03*
X139103900Y-104364400D03*
X141125400Y-122662800D03*
X140484300Y-104360000D03*
X143673300Y-121711700D03*
X141723500Y-108425300D03*
X141123500Y-126645700D03*
X143015600Y-116414600D03*
X143660800Y-126781300D03*
X140333900Y-114240800D03*
X115792200Y-140017300D03*
X140487000Y-110426300D03*
X115791600Y-139192000D03*
X112876900Y-99476700D03*
X114809000Y-114058400D03*
X135727500Y-124135800D03*
X117388100Y-112966200D03*
X138266400Y-124292700D03*
X161147400Y-111273300D03*
X159162000Y-102125000D03*
X163748900Y-119116800D03*
X161762700Y-115937000D03*
X167894000Y-103332200D03*
X167373500Y-105900300D03*
X185240100Y-125897700D03*
X165974300Y-105900300D03*
X184363600Y-125888900D03*
X167204300Y-108185200D03*
X166593700Y-108726600D03*
X163375100Y-107200800D03*
X183017900Y-111773500D03*
X183328900Y-113539800D03*
X171604700Y-105265400D03*
X171549300Y-106535300D03*
X173304400Y-116694400D03*
X184531000Y-111791800D03*
X185249800Y-112505900D03*
X183878300Y-99585000D03*
X171549300Y-101325900D03*
X183054600Y-103841300D03*
X181118100Y-103174800D03*
X80458200Y-114098800D03*
X72061900Y-129676100D03*
X93623200Y-110069100D03*
X100119200Y-131346100D03*
X94918700Y-110175300D03*
X100115400Y-132290300D03*
X87435300Y-119467300D03*
X100098100Y-142160100D03*
X88283000Y-119468300D03*
X100035700Y-136466700D03*
X94182400Y-119342900D03*
X97004000Y-133024000D03*
X90839300Y-119487000D03*
X71963000Y-136693600D03*
X92104800Y-119483800D03*
X71975600Y-137898900D03*
X93171800Y-119465700D03*
X71976000Y-142922800D03*
X94207400Y-120296100D03*
X72395000Y-141209800D03*
X70859400Y-107268100D03*
X86874200Y-123197200D03*
X76459900Y-102489000D03*
X86139600Y-123950900D03*
X134102600Y-140849800D03*
X118422100Y-125135000D03*
X129565100Y-140845300D03*
X115913200Y-126056500D03*
X45773400Y-103465900D03*
X27022900Y-137095800D03*
X46923700Y-103539900D03*
X26903900Y-138098100D03*
X46900200Y-100500100D03*
X27024800Y-133604000D03*
X48174400Y-103494000D03*
X50537500Y-103447500D03*
X49728900Y-127696100D03*
X52458900Y-103493300D03*
X53581500Y-103486500D03*
X55000400Y-103925500D03*
X54331100Y-131674800D03*
X45782500Y-94067900D03*
X49501200Y-121358400D03*
X47442100Y-94091000D03*
X49414400Y-120489800D03*
X48581100Y-94073900D03*
X49787000Y-91096200D03*
X42605900Y-94878600D03*
X42299400Y-96852200D03*
X42029700Y-102254200D03*
X27001800Y-121995500D03*
X43335600Y-102509700D03*
X27003300Y-120876300D03*
X47065000Y-122163200D03*
X43618900Y-121296700D03*
X78670700Y-135967700D03*
X72874900Y-129404200D03*
X29209300Y-114906500D03*
X28093700Y-116192600D03*
X42720000Y-119570400D03*
X27000200Y-134767000D03*
X43972700Y-118462100D03*
X27009600Y-136144000D03*
X83710600Y-58999500D03*
X87326100Y-60243600D03*
X187446700Y-46387000D03*
D23*
X180467000Y-127160000D02*
X180467000Y-126084700D01*
X75304000Y-106299000D02*
X74388700Y-106299000D01*
X75304000Y-99949000D02*
X74501300Y-99949000D01*
X177546000Y-59663700D02*
X178689000Y-60806700D01*
X177546000Y-47531000D02*
X177546000Y-59663700D01*
X178689000Y-61882000D02*
X178689000Y-60806700D01*
X45560000Y-139954000D02*
X46635300Y-139954000D01*
X32676000Y-139954000D02*
X37592000Y-144870000D01*
X31148000Y-139954000D02*
X32676000Y-139954000D01*
X37592000Y-144870000D02*
X37592000Y-149783000D01*
X93677300Y-125095000D02*
X93439000Y-125095000D01*
X94964600Y-126382300D02*
X93677300Y-125095000D01*
X94964600Y-133534700D02*
X94964600Y-126382300D01*
X94514300Y-133985000D02*
X94964600Y-133534700D01*
X93439000Y-133985000D02*
X93976700Y-133985000D01*
X93976700Y-133985000D02*
X94514300Y-133985000D01*
X94514300Y-134522600D02*
X94514300Y-135890000D01*
X93976700Y-133985000D02*
X94514300Y-134522600D01*
X93439000Y-135890000D02*
X94514300Y-135890000D01*
X135857000Y-50800000D02*
X135319400Y-50800000D01*
X135349000Y-54864000D02*
X134273700Y-54864000D01*
X31148000Y-123444000D02*
X32223300Y-123444000D01*
X69984000Y-101219000D02*
X69068700Y-101219000D01*
X74388700Y-106299000D02*
X74388700Y-100061600D01*
X74388700Y-100061600D02*
X74501300Y-99949000D01*
X75304000Y-106299000D02*
X76219300Y-106299000D01*
X93439000Y-125095000D02*
X92363700Y-125095000D01*
X134273700Y-51845700D02*
X134273700Y-54864000D01*
X135319400Y-50800000D02*
X134273700Y-51845700D01*
X135857000Y-41910000D02*
X134781700Y-41910000D01*
X134327200Y-49807800D02*
X135319400Y-50800000D01*
X134327200Y-42364500D02*
X134327200Y-49807800D01*
X134781700Y-41910000D02*
X134327200Y-42364500D01*
X137000000Y-129413000D02*
X136462400Y-129413000D01*
X136462400Y-129413000D02*
X135924700Y-129413000D01*
X136746000Y-132588000D02*
X136462400Y-132588000D01*
X189117900Y-108954600D02*
X189611000Y-109447700D01*
X181214100Y-108954600D02*
X189117900Y-108954600D01*
X180721000Y-109447700D02*
X181214100Y-108954600D01*
X180721000Y-110523000D02*
X180721000Y-109447700D01*
X189611000Y-110523000D02*
X189611000Y-109447700D01*
X76106000Y-144272000D02*
X75030700Y-144272000D01*
X76106000Y-132715000D02*
X75030700Y-132715000D01*
X112275000Y-93599000D02*
X111359700Y-93599000D01*
X158496000Y-62009000D02*
X158496000Y-60933700D01*
X161290000Y-125564900D02*
X161290000Y-127160000D01*
X161268500Y-125543400D02*
X161290000Y-125564900D01*
X173201800Y-29694200D02*
X171704000Y-31192000D01*
X178660700Y-29694200D02*
X173201800Y-29694200D01*
X187095400Y-38128900D02*
X178660700Y-29694200D01*
X187095400Y-45249000D02*
X187095400Y-38128900D01*
X186436000Y-45908400D02*
X187095400Y-45249000D01*
X186436000Y-47531000D02*
X186436000Y-45908400D01*
X74540200Y-133205500D02*
X75030700Y-132715000D01*
X74540200Y-143781500D02*
X74540200Y-133205500D01*
X75030700Y-144272000D02*
X74540200Y-143781500D01*
X84692000Y-117984000D02*
X84692000Y-118863400D01*
X84692000Y-118863400D02*
X84692000Y-119284300D01*
X76227900Y-118863400D02*
X76219300Y-118872000D01*
X84692000Y-118863400D02*
X76227900Y-118863400D01*
X75304000Y-118872000D02*
X76219300Y-118872000D01*
X117595000Y-98679000D02*
X118510300Y-98679000D01*
X118637300Y-98806000D02*
X118510300Y-98679000D01*
X118637300Y-111125000D02*
X118637300Y-98806000D01*
X117722000Y-111125000D02*
X118637300Y-111125000D01*
X135857000Y-41910000D02*
X136932300Y-41910000D01*
X137126500Y-41715800D02*
X136932300Y-41910000D01*
X76802000Y-42291000D02*
X77877300Y-42291000D01*
X158496000Y-62009000D02*
X158496000Y-63084300D01*
X183607400Y-116552700D02*
X183607400Y-120408300D01*
X180721000Y-113666300D02*
X183607400Y-116552700D01*
X180721000Y-110523000D02*
X180721000Y-113666300D01*
X122588000Y-129667000D02*
X121512700Y-129667000D01*
X144011000Y-90551000D02*
X144926300Y-90551000D01*
X145318700Y-90943400D02*
X158922900Y-90943400D01*
X144926300Y-90551000D02*
X145318700Y-90943400D01*
X158750400Y-63338700D02*
X158496000Y-63084300D01*
X178685800Y-62957300D02*
X178689000Y-62957300D01*
X177559100Y-64084000D02*
X178685800Y-62957300D01*
X178689000Y-61882000D02*
X178689000Y-62957300D01*
X76421000Y-69469000D02*
X75345700Y-69469000D01*
X77593700Y-55499000D02*
X78131300Y-55499000D01*
X77593700Y-55499000D02*
X77056000Y-55499000D01*
X75345700Y-56134000D02*
X75345700Y-69469000D01*
X75980700Y-55499000D02*
X75345700Y-56134000D01*
X77056000Y-55499000D02*
X75980700Y-55499000D01*
X117595000Y-92329000D02*
X118510300Y-92329000D01*
X111193500Y-93765200D02*
X111158200Y-93765200D01*
X111359700Y-93599000D02*
X111193500Y-93765200D01*
X119337000Y-97852300D02*
X119337000Y-92681900D01*
X118510300Y-98679000D02*
X119337000Y-97852300D01*
X119715500Y-48748800D02*
X120623700Y-49657000D01*
X119715500Y-37460500D02*
X119715500Y-48748800D01*
X125603000Y-31573000D02*
X119715500Y-37460500D01*
X121699000Y-49657000D02*
X120623700Y-49657000D01*
X180467000Y-125849600D02*
X180467000Y-126084700D01*
X183607400Y-122709200D02*
X180467000Y-125849600D01*
X183607400Y-120408300D02*
X183607400Y-122709200D01*
X119337000Y-92329000D02*
X118510300Y-92329000D01*
X119337000Y-92329000D02*
X119337000Y-92681900D01*
X138691000Y-85471000D02*
X137775700Y-85471000D01*
X138156700Y-76645000D02*
X133553200Y-81248500D01*
X138156700Y-73025000D02*
X138156700Y-76645000D01*
X139072000Y-73025000D02*
X138156700Y-73025000D01*
X138691000Y-91821000D02*
X137775700Y-91821000D01*
X133553200Y-81248500D02*
X137775700Y-85471000D01*
X137775700Y-85471000D02*
X137775700Y-91821000D01*
X160405100Y-111221400D02*
X160274000Y-111090300D01*
X160405100Y-111773300D02*
X160405100Y-111221400D01*
X160274000Y-110015000D02*
X160274000Y-111090300D01*
X136462400Y-129413000D02*
X136462400Y-132588000D01*
X130937000Y-145350600D02*
X127318400Y-141732000D01*
X130937000Y-150318000D02*
X130937000Y-145350600D01*
X136462400Y-132588000D02*
X127318400Y-141732000D01*
X127318400Y-141732000D02*
X122461000Y-141732000D01*
X134604600Y-128092900D02*
X134604600Y-127458400D01*
X135924700Y-129413000D02*
X134604600Y-128092900D01*
X134604600Y-121843100D02*
X135924700Y-120523000D01*
X134604600Y-127458400D02*
X134604600Y-121843100D01*
X137000000Y-120523000D02*
X135924700Y-120523000D01*
X135924700Y-116796000D02*
X135924700Y-120523000D01*
X132698000Y-113569300D02*
X135924700Y-116796000D01*
X132698000Y-112269000D02*
X132698000Y-113569300D01*
X157724400Y-60162100D02*
X158496000Y-60933700D01*
X157724400Y-48488900D02*
X157724400Y-60162100D01*
X157861000Y-48352300D02*
X157724400Y-48488900D01*
X157861000Y-47277000D02*
X157861000Y-48352300D01*
X36777200Y-118890100D02*
X36777200Y-118470400D01*
X32223300Y-123444000D02*
X36777200Y-118890100D01*
X45306000Y-114171100D02*
X45306000Y-114300000D01*
X44173700Y-113038800D02*
X45306000Y-114171100D01*
X46635300Y-138049000D02*
X46635300Y-139954000D01*
X44413000Y-138049000D02*
X46635300Y-138049000D01*
X37592000Y-144870000D02*
X44413000Y-138049000D01*
X44484700Y-135385200D02*
X44484700Y-131064000D01*
X44606500Y-135507000D02*
X44484700Y-135385200D01*
X46435600Y-135507000D02*
X44606500Y-135507000D01*
X46635300Y-135706700D02*
X46435600Y-135507000D01*
X46635300Y-138049000D02*
X46635300Y-135706700D01*
X45560000Y-131064000D02*
X44484700Y-131064000D01*
X43339800Y-129919100D02*
X44484700Y-131064000D01*
X43339800Y-123324400D02*
X43339800Y-129919100D01*
X43679800Y-122984400D02*
X43339800Y-123324400D01*
X83732700Y-80561100D02*
X83616300Y-80561100D01*
X84241700Y-81070100D02*
X83732700Y-80561100D01*
X84241700Y-98276600D02*
X84241700Y-81070100D01*
X76219300Y-106299000D02*
X84241700Y-98276600D01*
X74130100Y-120045900D02*
X75304000Y-118872000D01*
X74130100Y-131814400D02*
X74130100Y-120045900D01*
X75030700Y-132715000D02*
X74130100Y-131814400D01*
X75345700Y-69469000D02*
X75169600Y-69645100D01*
X73896600Y-100061600D02*
X74388700Y-100061600D01*
X71870200Y-98035200D02*
X73896600Y-100061600D01*
X69286900Y-98035200D02*
X71870200Y-98035200D01*
X69068700Y-98253400D02*
X69286900Y-98035200D01*
X69068700Y-101219000D02*
X69068700Y-98253400D01*
X78092000Y-42291000D02*
X77877300Y-42291000D01*
X79047300Y-43246300D02*
X78092000Y-42291000D01*
X79047300Y-54583000D02*
X79047300Y-43246300D01*
X78131300Y-55499000D02*
X79047300Y-54583000D01*
X82846300Y-149937000D02*
X77181300Y-144272000D01*
X84582000Y-149937000D02*
X82846300Y-149937000D01*
X76106000Y-144272000D02*
X77181300Y-144272000D01*
X90502700Y-125095000D02*
X84692000Y-119284300D01*
X92363700Y-125095000D02*
X90502700Y-125095000D01*
X127017000Y-71500000D02*
X127017000Y-70199700D01*
X129686100Y-81248500D02*
X133553200Y-81248500D01*
X119337000Y-91597600D02*
X129686100Y-81248500D01*
X119337000Y-92329000D02*
X119337000Y-91597600D01*
X121445000Y-62738000D02*
X122520300Y-62738000D01*
X126508200Y-69690900D02*
X127017000Y-70199700D01*
X122978400Y-69690900D02*
X126508200Y-69690900D01*
X122606600Y-70062700D02*
X122978400Y-69690900D01*
X122606600Y-72983900D02*
X122606600Y-70062700D01*
X129686100Y-80063400D02*
X122606600Y-72983900D01*
X129686100Y-81248500D02*
X129686100Y-80063400D01*
X122978400Y-63196100D02*
X122520300Y-62738000D01*
X122978400Y-69690900D02*
X122978400Y-63196100D01*
X121863700Y-130447200D02*
X122357600Y-130447200D01*
X121512700Y-130096200D02*
X121863700Y-130447200D01*
X121512700Y-129667000D02*
X121512700Y-130096200D01*
X98839000Y-125095000D02*
X97763700Y-125095000D01*
X113047000Y-80900000D02*
X113047000Y-82200300D01*
X113047000Y-80900000D02*
X113047000Y-79599700D01*
X69984000Y-111252000D02*
X70899300Y-111252000D01*
X69984000Y-99949000D02*
X70899300Y-99949000D01*
X69984000Y-98679000D02*
X69984000Y-99949000D01*
X177546000Y-45185700D02*
X177546000Y-42131000D01*
X178816000Y-46455700D02*
X177546000Y-45185700D01*
X185166000Y-47531000D02*
X185166000Y-46568300D01*
X185166000Y-46568300D02*
X185166000Y-46455700D01*
X185166000Y-46455700D02*
X180086000Y-46455700D01*
X185166000Y-47531000D02*
X185166000Y-48606300D01*
X186436000Y-45185700D02*
X186436000Y-42131000D01*
X185166000Y-46455700D02*
X186436000Y-45185700D01*
X45843700Y-121920000D02*
X45843700Y-123190000D01*
X45306000Y-121920000D02*
X45843700Y-121920000D01*
X45843700Y-121920000D02*
X46381300Y-121920000D01*
X94514300Y-127635000D02*
X94514300Y-132715000D01*
X93439000Y-127635000D02*
X94514300Y-127635000D01*
X93976700Y-132715000D02*
X94514300Y-132715000D01*
X92363700Y-143510000D02*
X92363700Y-144780000D01*
X93439000Y-144780000D02*
X92901400Y-144780000D01*
X92901400Y-144780000D02*
X92363700Y-144780000D01*
X76106000Y-130175000D02*
X77181300Y-130175000D01*
X76106000Y-131445000D02*
X77068700Y-131445000D01*
X76106000Y-143002000D02*
X77181300Y-143002000D01*
X181991000Y-110523000D02*
X183261000Y-110523000D01*
X188341000Y-110523000D02*
X188341000Y-111598300D01*
X183119600Y-128235300D02*
X188087000Y-128235300D01*
X183007000Y-128122700D02*
X183119600Y-128235300D01*
X189357000Y-127160000D02*
X189357000Y-121760000D01*
X169164000Y-110015000D02*
X169164000Y-111090300D01*
X122774300Y-40751700D02*
X131953000Y-31573000D01*
X122774300Y-40767000D02*
X122774300Y-40751700D01*
X98662000Y-108584000D02*
X98662000Y-109884300D01*
X93377200Y-143510000D02*
X92363700Y-143510000D01*
X96122000Y-117984000D02*
X96122000Y-119284300D01*
X24672700Y-114554000D02*
X24672700Y-123444000D01*
X25323000Y-131064000D02*
X25323000Y-123444000D01*
X25323000Y-123444000D02*
X24672700Y-123444000D01*
X25748000Y-131064000D02*
X25323000Y-131064000D01*
X25323000Y-131064000D02*
X24672700Y-131064000D01*
X25748000Y-114554000D02*
X24672700Y-114554000D01*
X92901400Y-144780000D02*
X90932000Y-146749400D01*
X90932000Y-146749400D02*
X90932000Y-149937000D01*
X76106000Y-125095000D02*
X75568400Y-125095000D01*
X87184600Y-143002000D02*
X90932000Y-146749400D01*
X77181300Y-143002000D02*
X87184600Y-143002000D01*
X77181300Y-131445000D02*
X77181300Y-130175000D01*
X77068700Y-131445000D02*
X77181300Y-131445000D01*
X77181300Y-131445000D02*
X77181300Y-135382000D01*
X76106000Y-135382000D02*
X77181300Y-135382000D01*
X75030700Y-141732000D02*
X75030700Y-136652000D01*
X77181300Y-136652000D02*
X77181300Y-135382000D01*
X76106000Y-136652000D02*
X77181300Y-136652000D01*
X93439000Y-137160000D02*
X92901400Y-137160000D01*
X92363700Y-137697700D02*
X92363700Y-138430000D01*
X92901400Y-137160000D02*
X92363700Y-137697700D01*
X93439000Y-138430000D02*
X92363700Y-138430000D01*
X93976700Y-132715000D02*
X93439000Y-132715000D01*
X92363700Y-136622300D02*
X92901400Y-137160000D01*
X92363700Y-132715000D02*
X92363700Y-136622300D01*
X93439000Y-132715000D02*
X92363700Y-132715000D01*
X93377200Y-143510000D02*
X93439000Y-143510000D01*
X92363700Y-126365000D02*
X92363700Y-127635000D01*
X93439000Y-126365000D02*
X92363700Y-126365000D01*
X93439000Y-127635000D02*
X92363700Y-127635000D01*
X76106000Y-136652000D02*
X75030700Y-136652000D01*
X97763700Y-119284400D02*
X97763700Y-125095000D01*
X99122100Y-119284400D02*
X97763700Y-119284400D01*
X99262300Y-119144200D02*
X99122100Y-119284400D01*
X99262300Y-110484600D02*
X99262300Y-119144200D01*
X98662000Y-109884300D02*
X99262300Y-110484600D01*
X98839000Y-135890000D02*
X98301400Y-135890000D01*
X98301400Y-135890000D02*
X97763700Y-135890000D01*
X97763700Y-135352300D02*
X97763700Y-133985000D01*
X98301400Y-135890000D02*
X97763700Y-135352300D01*
X98839000Y-133985000D02*
X97763700Y-133985000D01*
X96122100Y-119284400D02*
X96122000Y-119284300D01*
X97763700Y-119284400D02*
X96122100Y-119284400D01*
X98662000Y-108584000D02*
X98662000Y-107283700D01*
X138202300Y-41910000D02*
X141257000Y-41910000D01*
X136932300Y-43180000D02*
X138202300Y-41910000D01*
X134781700Y-49530000D02*
X134781700Y-44450000D01*
X135857000Y-49530000D02*
X134781700Y-49530000D01*
X135857000Y-44450000D02*
X134781700Y-44450000D01*
X136394700Y-43180000D02*
X136394700Y-44450000D01*
X135857000Y-44450000D02*
X136394700Y-44450000D01*
X136394700Y-44450000D02*
X136932300Y-44450000D01*
X135857000Y-43180000D02*
X136394700Y-43180000D01*
X136394700Y-43180000D02*
X136932300Y-43180000D01*
X134811400Y-56134000D02*
X134273700Y-56134000D01*
X135349000Y-57404000D02*
X134273700Y-57404000D01*
X135326600Y-56134000D02*
X134811400Y-56134000D01*
X135326600Y-56134000D02*
X135349000Y-56134000D01*
X135349000Y-56134000D02*
X136424300Y-56134000D01*
X135857000Y-49530000D02*
X136932300Y-49530000D01*
X138075300Y-133604000D02*
X137821300Y-133858000D01*
X138075300Y-128143000D02*
X138075300Y-133604000D01*
X137283700Y-133858000D02*
X137283700Y-135128000D01*
X136746000Y-133858000D02*
X137283700Y-133858000D01*
X137283700Y-133858000D02*
X137821300Y-133858000D01*
X144128000Y-112269000D02*
X144128000Y-110968700D01*
X159766000Y-62009000D02*
X159766000Y-60933700D01*
X170180000Y-127160000D02*
X170180000Y-128235300D01*
X180086000Y-46993300D02*
X178816000Y-46993300D01*
X180086000Y-47531000D02*
X180086000Y-46993300D01*
X180086000Y-46993300D02*
X180086000Y-46455700D01*
X178816000Y-46993300D02*
X178816000Y-46455700D01*
X178816000Y-47262100D02*
X178816000Y-46993300D01*
X183007000Y-127641300D02*
X181737000Y-127641300D01*
X183007000Y-127160000D02*
X183007000Y-127641300D01*
X183007000Y-127641300D02*
X183007000Y-128122700D01*
X187579000Y-51019300D02*
X187579000Y-56482000D01*
X185166000Y-48606300D02*
X187579000Y-51019300D01*
X186309000Y-61882000D02*
X186309000Y-60806700D01*
X188087000Y-127160000D02*
X188087000Y-127697600D01*
X188087000Y-127697600D02*
X188087000Y-128235300D01*
X188624700Y-128235300D02*
X189357000Y-128235300D01*
X188087000Y-127697600D02*
X188624700Y-128235300D01*
X189357000Y-127160000D02*
X189357000Y-128235300D01*
X76106000Y-130175000D02*
X75030700Y-130175000D01*
X76106000Y-141732000D02*
X75568400Y-141732000D01*
X75568400Y-141732000D02*
X75030700Y-141732000D01*
X75030700Y-142269700D02*
X75030700Y-143002000D01*
X75568400Y-141732000D02*
X75030700Y-142269700D01*
X76106000Y-143002000D02*
X75030700Y-143002000D01*
X81821000Y-78359000D02*
X82896300Y-78359000D01*
X97581600Y-144962100D02*
X97763700Y-144780000D01*
X97763700Y-137569800D02*
X97763700Y-135890000D01*
X97954300Y-137760400D02*
X97763700Y-137569800D01*
X99669500Y-137760400D02*
X97954300Y-137760400D01*
X99914400Y-138005300D02*
X99669500Y-137760400D01*
X99914400Y-138870700D02*
X99914400Y-138005300D01*
X99754700Y-139030400D02*
X99914400Y-138870700D01*
X98016400Y-139030400D02*
X99754700Y-139030400D01*
X97763700Y-139283100D02*
X98016400Y-139030400D01*
X97763700Y-144780000D02*
X97763700Y-139283100D01*
X117595000Y-91059000D02*
X116679700Y-91059000D01*
X121699000Y-40767000D02*
X122774300Y-40767000D01*
X120173300Y-46666600D02*
X120623700Y-47117000D01*
X120173300Y-42487400D02*
X120173300Y-46666600D01*
X120623700Y-42037000D02*
X120173300Y-42487400D01*
X121699000Y-47117000D02*
X120623700Y-47117000D01*
X121699000Y-42037000D02*
X121161400Y-42037000D01*
X121161400Y-42037000D02*
X120623700Y-42037000D01*
X120623700Y-41499300D02*
X120623700Y-40767000D01*
X121161400Y-42037000D02*
X120623700Y-41499300D01*
X121699000Y-40767000D02*
X120623700Y-40767000D01*
X122588000Y-128397000D02*
X123663300Y-128397000D01*
X137022400Y-128143000D02*
X138075300Y-128143000D01*
X137000000Y-121793000D02*
X135924700Y-121793000D01*
X137000000Y-123063000D02*
X136028700Y-123063000D01*
X137022400Y-128143000D02*
X137000000Y-128143000D01*
X135924700Y-123063000D02*
X135924700Y-121793000D01*
X136028700Y-123063000D02*
X135924700Y-123063000D01*
X137000000Y-128143000D02*
X135924700Y-128143000D01*
X144011000Y-91821000D02*
X143553400Y-91821000D01*
X146668000Y-108428700D02*
X146668000Y-102869000D01*
X144128000Y-110968700D02*
X146668000Y-108428700D01*
X143882000Y-93091000D02*
X143095700Y-93091000D01*
X143882000Y-93091000D02*
X143978200Y-93091000D01*
X144011000Y-93091000D02*
X143978200Y-93091000D01*
X146668000Y-95780800D02*
X146668000Y-102869000D01*
X143978200Y-93091000D02*
X146668000Y-95780800D01*
X157861000Y-40801700D02*
X166751000Y-40801700D01*
X157861000Y-41877000D02*
X157861000Y-40801700D01*
X166751000Y-41877000D02*
X166751000Y-40801700D01*
X178054000Y-32683400D02*
X178054000Y-31192000D01*
X186426300Y-41055700D02*
X178054000Y-32683400D01*
X186436000Y-41055700D02*
X186426300Y-41055700D01*
X174869300Y-32683400D02*
X166751000Y-40801700D01*
X178054000Y-32683400D02*
X174869300Y-32683400D01*
X186436000Y-42131000D02*
X186436000Y-41055700D01*
X169164000Y-111090300D02*
X167894000Y-111090300D01*
X167894000Y-110015000D02*
X167894000Y-111090300D01*
X181737000Y-127160000D02*
X181737000Y-127400600D01*
X181737000Y-127400600D02*
X181737000Y-127641300D01*
X181142900Y-128235400D02*
X179705000Y-128235400D01*
X181737000Y-127641300D02*
X181142900Y-128235400D01*
X179705000Y-149937000D02*
X179705000Y-128235400D01*
X180467000Y-121760000D02*
X180467000Y-122835300D01*
X179705000Y-128235300D02*
X170180000Y-128235300D01*
X179705000Y-128235400D02*
X179705000Y-128235300D01*
X179705000Y-123597300D02*
X180467000Y-122835300D01*
X179705000Y-128235300D02*
X179705000Y-123597300D01*
X187579000Y-60806700D02*
X186309000Y-60806700D01*
X187579000Y-61882000D02*
X187579000Y-60806700D01*
X187579000Y-60806700D02*
X187579000Y-56482000D01*
X32223300Y-110933800D02*
X31906500Y-110617000D01*
X32223300Y-114554000D02*
X32223300Y-110933800D01*
X45306000Y-123190000D02*
X45574900Y-123190000D01*
X45574900Y-123190000D02*
X45843700Y-123190000D01*
X45828900Y-132334000D02*
X45694500Y-132334000D01*
X46635400Y-131527500D02*
X45828900Y-132334000D01*
X46635400Y-124250500D02*
X46635400Y-131527500D01*
X45574900Y-123190000D02*
X46635400Y-124250500D01*
X45694500Y-132334000D02*
X45560000Y-132334000D01*
X46635300Y-133138700D02*
X46635300Y-133604000D01*
X45830600Y-132334000D02*
X46635300Y-133138700D01*
X45694500Y-132334000D02*
X45830600Y-132334000D01*
X45560000Y-133604000D02*
X46635300Y-133604000D01*
X122461000Y-134112000D02*
X121923400Y-134112000D01*
X121923400Y-134112000D02*
X121385700Y-134112000D01*
X121385700Y-133574300D02*
X121385700Y-132842000D01*
X121923400Y-134112000D02*
X121385700Y-133574300D01*
X122461000Y-132842000D02*
X121385700Y-132842000D01*
X122588000Y-120777000D02*
X121512700Y-120777000D01*
X121445000Y-55118000D02*
X122520300Y-55118000D01*
X121445000Y-60198000D02*
X122520300Y-60198000D01*
X140749000Y-63754000D02*
X141824300Y-63754000D01*
X134273700Y-56671700D02*
X134273700Y-57404000D01*
X134811400Y-56134000D02*
X134273700Y-56671700D01*
X140749000Y-54864000D02*
X141824300Y-54864000D01*
X140749000Y-54864000D02*
X139673700Y-54864000D01*
X138691000Y-93091000D02*
X143095700Y-93091000D01*
X143095700Y-92278700D02*
X143095700Y-93091000D01*
X143553400Y-91821000D02*
X143095700Y-92278700D01*
X144392000Y-80645000D02*
X143476700Y-80645000D01*
X143095600Y-81026100D02*
X143476700Y-80645000D01*
X143095600Y-91363200D02*
X143095600Y-81026100D01*
X143553400Y-91821000D02*
X143095600Y-91363200D01*
X167894000Y-111819400D02*
X167757400Y-111956000D01*
X167894000Y-111090300D02*
X167894000Y-111819400D01*
X170180000Y-121760000D02*
X170180000Y-127160000D01*
X179959000Y-61882000D02*
X179959000Y-61385100D01*
X179959000Y-61385100D02*
X179959000Y-60806700D01*
X180732100Y-61385100D02*
X181229000Y-61882000D01*
X179959000Y-61385100D02*
X180732100Y-61385100D01*
X31148000Y-137414000D02*
X30610400Y-137414000D01*
X30610400Y-137414000D02*
X30072700Y-137414000D01*
X31148000Y-138684000D02*
X30185300Y-138684000D01*
X30185300Y-137839100D02*
X30185300Y-138684000D01*
X30610400Y-137414000D02*
X30185300Y-137839100D01*
X31242000Y-142915500D02*
X31242000Y-149783000D01*
X28915300Y-140588800D02*
X31242000Y-142915500D01*
X28915300Y-139954000D02*
X28915300Y-140588800D01*
X25748000Y-139954000D02*
X28915300Y-139954000D01*
X28915300Y-139954000D02*
X30185300Y-138684000D01*
X25725600Y-123444000D02*
X25323000Y-123444000D01*
X25725600Y-123444000D02*
X25748000Y-123444000D01*
X28802700Y-123444000D02*
X30072700Y-122174000D01*
X25748000Y-123444000D02*
X28802700Y-123444000D01*
X30610400Y-122174000D02*
X30610400Y-120904000D01*
X31148000Y-120904000D02*
X30610400Y-120904000D01*
X31148000Y-122174000D02*
X30610400Y-122174000D01*
X30610400Y-122174000D02*
X30072700Y-122174000D01*
X50706000Y-123190000D02*
X50417500Y-123190000D01*
X50417500Y-123190000D02*
X49630700Y-123190000D01*
X50960000Y-131064000D02*
X49997300Y-131064000D01*
X49884700Y-136998100D02*
X49884700Y-139954000D01*
X50138400Y-136744400D02*
X49884700Y-136998100D01*
X51915100Y-136744400D02*
X50138400Y-136744400D01*
X52035400Y-136624100D02*
X51915100Y-136744400D01*
X52035400Y-133188600D02*
X52035400Y-136624100D01*
X51781200Y-132934400D02*
X52035400Y-133188600D01*
X50001600Y-132934400D02*
X51781200Y-132934400D01*
X49884700Y-132817500D02*
X50001600Y-132934400D01*
X49884700Y-131176600D02*
X49884700Y-132817500D01*
X49997300Y-131064000D02*
X49884700Y-131176600D01*
X50960000Y-139954000D02*
X49884700Y-139954000D01*
X50417500Y-130643800D02*
X49997300Y-131064000D01*
X50417500Y-123190000D02*
X50417500Y-130643800D01*
X49264000Y-140574700D02*
X49884700Y-139954000D01*
X44637900Y-140574700D02*
X49264000Y-140574700D01*
X44484700Y-140421500D02*
X44637900Y-140574700D01*
X44484700Y-138684000D02*
X44484700Y-140421500D01*
X45560000Y-138684000D02*
X44484700Y-138684000D01*
X46969500Y-117428200D02*
X46381300Y-116840000D01*
X48227300Y-116170400D02*
X46969500Y-117428200D01*
X51677700Y-116170400D02*
X48227300Y-116170400D01*
X51781300Y-116066800D02*
X51677700Y-116170400D01*
X51781300Y-114412600D02*
X51781300Y-116066800D01*
X51668700Y-114300000D02*
X51781300Y-114412600D01*
X70706000Y-144272000D02*
X71781300Y-144272000D01*
X70706000Y-123825000D02*
X69630700Y-123825000D01*
X71319200Y-100368900D02*
X70899300Y-99949000D01*
X71781300Y-131020200D02*
X71781300Y-132715000D01*
X71536500Y-130775400D02*
X71781300Y-131020200D01*
X69821300Y-130775400D02*
X71536500Y-130775400D01*
X69630600Y-130584700D02*
X69821300Y-130775400D01*
X69630600Y-127210300D02*
X69630600Y-130584700D01*
X69875600Y-126965300D02*
X69630600Y-127210300D01*
X71590800Y-126965300D02*
X69875600Y-126965300D01*
X71781300Y-126774800D02*
X71590800Y-126965300D01*
X71781300Y-125955100D02*
X71781300Y-126774800D01*
X71590800Y-125764600D02*
X71781300Y-125955100D01*
X69855900Y-125764600D02*
X71590800Y-125764600D01*
X69630700Y-125539400D02*
X69855900Y-125764600D01*
X69630700Y-123825000D02*
X69630700Y-125539400D01*
X75304000Y-98679000D02*
X74388700Y-98679000D01*
X74388700Y-97978000D02*
X74388700Y-98679000D01*
X76106000Y-123825000D02*
X76643700Y-123825000D01*
X76643700Y-123825000D02*
X77181300Y-123825000D01*
X77181300Y-124362600D02*
X77181300Y-125095000D01*
X76643700Y-123825000D02*
X77181300Y-124362600D01*
X76106000Y-125095000D02*
X77181300Y-125095000D01*
X78097100Y-122909200D02*
X78097100Y-122808200D01*
X77181300Y-123825000D02*
X78097100Y-122909200D01*
X78097100Y-122808200D02*
X78021500Y-122732600D01*
X82896300Y-78359000D02*
X82896300Y-75819000D01*
X81821000Y-75819000D02*
X82896300Y-75819000D01*
X106835200Y-91059000D02*
X105826500Y-90050300D01*
X112275000Y-91059000D02*
X106835200Y-91059000D01*
X117061000Y-141732000D02*
X118136300Y-141732000D01*
X122461000Y-139192000D02*
X121385700Y-139192000D01*
X121385700Y-140462000D02*
X121385700Y-139192000D01*
X119406300Y-140462000D02*
X121385700Y-140462000D01*
X118136300Y-141732000D02*
X119406300Y-140462000D01*
X121385700Y-140462000D02*
X122461000Y-140462000D01*
X121699000Y-48387000D02*
X122236700Y-48387000D01*
X121699000Y-47117000D02*
X122774300Y-47117000D01*
X122588000Y-127127000D02*
X123550700Y-127127000D01*
X158496000Y-59663700D02*
X158496000Y-56609000D01*
X159766000Y-60933700D02*
X158496000Y-59663700D01*
X138691000Y-93091000D02*
X137775700Y-93091000D01*
X158496000Y-56609000D02*
X158496000Y-55533700D01*
X166751000Y-47277000D02*
X166751000Y-46236500D01*
X166506900Y-45992400D02*
X166506900Y-46201700D01*
X166716200Y-46201700D02*
X166506900Y-46201700D01*
X166751000Y-46236500D02*
X166716200Y-46201700D01*
X166506900Y-46201700D02*
X165481000Y-46201700D01*
X165481000Y-47277000D02*
X165481000Y-46201700D01*
X160274000Y-107669700D02*
X160274000Y-104615000D01*
X161544000Y-108939700D02*
X160274000Y-107669700D01*
X160274000Y-104615000D02*
X160274000Y-103539700D01*
X169164000Y-104615000D02*
X169164000Y-103539700D01*
X164563600Y-102683300D02*
X164563600Y-98292800D01*
X161130400Y-102683300D02*
X164563600Y-102683300D01*
X160274000Y-103539700D02*
X161130400Y-102683300D01*
X168307600Y-102683300D02*
X169164000Y-103539700D01*
X164563600Y-102683300D02*
X168307600Y-102683300D01*
X179959000Y-58827300D02*
X178689000Y-57557300D01*
X179959000Y-60806700D02*
X179959000Y-58827300D01*
X178689000Y-56482000D02*
X178689000Y-57557300D01*
X185915900Y-113388400D02*
X185915900Y-113439800D01*
X183652200Y-110914200D02*
X183261000Y-110523000D01*
X183652200Y-111830900D02*
X183652200Y-110914200D01*
X185209700Y-113388400D02*
X183652200Y-111830900D01*
X185915900Y-113388400D02*
X185209700Y-113388400D01*
X46969500Y-117428200D02*
X46969500Y-121413400D01*
X46887900Y-121413400D02*
X46969500Y-121413400D01*
X46381300Y-121920000D02*
X46887900Y-121413400D01*
X47854100Y-121413400D02*
X49630700Y-123190000D01*
X46969500Y-121413400D02*
X47854100Y-121413400D01*
X30072700Y-120366300D02*
X30610400Y-120904000D01*
X30072700Y-115824000D02*
X30072700Y-120366300D01*
X31148000Y-115824000D02*
X30072700Y-115824000D01*
X24887500Y-132969000D02*
X29437700Y-132969000D01*
X24672700Y-132754200D02*
X24887500Y-132969000D01*
X24672700Y-131064000D02*
X24672700Y-132754200D01*
X29437700Y-136779000D02*
X30072700Y-137414000D01*
X29437700Y-132969000D02*
X29437700Y-136779000D01*
X29437700Y-132969000D02*
X30072700Y-132334000D01*
X31148000Y-132334000D02*
X30610400Y-132334000D01*
X30610400Y-132334000D02*
X30072700Y-132334000D01*
X30072700Y-131796300D02*
X30072700Y-131064000D01*
X30610400Y-132334000D02*
X30072700Y-131796300D01*
X31148000Y-131064000D02*
X30072700Y-131064000D01*
X31148000Y-114554000D02*
X31685700Y-114554000D01*
X31685700Y-114554000D02*
X32223300Y-114554000D01*
X32223300Y-115091600D02*
X32223300Y-115824000D01*
X31685700Y-114554000D02*
X32223300Y-115091600D01*
X31148000Y-115824000D02*
X32223300Y-115824000D01*
X71243700Y-132715000D02*
X71243700Y-135382000D01*
X70706000Y-132715000D02*
X71243700Y-132715000D01*
X71243700Y-132715000D02*
X71781300Y-132715000D01*
X70706000Y-135382000D02*
X71243700Y-135382000D01*
X71243700Y-135382000D02*
X71781300Y-135382000D01*
X81821000Y-75819000D02*
X80745700Y-75819000D01*
X83569900Y-81420400D02*
X83616300Y-81420400D01*
X82896300Y-80746800D02*
X83569900Y-81420400D01*
X82896300Y-78359000D02*
X82896300Y-80746800D01*
X83616300Y-90024400D02*
X79951100Y-93689600D01*
X83616300Y-81420400D02*
X83616300Y-90024400D01*
X137387100Y-93479600D02*
X137775700Y-93091000D01*
X132871000Y-93479600D02*
X137387100Y-93479600D01*
X116045000Y-62738000D02*
X114969700Y-62738000D01*
X136746000Y-140208000D02*
X137283700Y-140208000D01*
X136746000Y-140745700D02*
X136746000Y-141478000D01*
X137283700Y-140208000D02*
X136746000Y-140745700D01*
X136746000Y-135128000D02*
X137014900Y-135128000D01*
X137014900Y-135128000D02*
X137283700Y-135128000D01*
X135924700Y-127655200D02*
X135924700Y-128143000D01*
X135070000Y-126800500D02*
X135924700Y-127655200D01*
X135070000Y-123842800D02*
X135070000Y-126800500D01*
X135849800Y-123063000D02*
X135070000Y-123842800D01*
X135924700Y-123063000D02*
X135849800Y-123063000D01*
X162814000Y-110015000D02*
X162814000Y-111090300D01*
X161544000Y-110015000D02*
X161544000Y-109587200D01*
X161544000Y-109587200D02*
X161544000Y-108939700D01*
X162386200Y-109587200D02*
X162814000Y-110015000D01*
X161544000Y-109587200D02*
X162386200Y-109587200D01*
X168910000Y-127160000D02*
X168910000Y-128235300D01*
X178816000Y-47262100D02*
X178816000Y-47531000D01*
X178816000Y-55279700D02*
X178689000Y-55406700D01*
X178816000Y-47531000D02*
X178816000Y-55279700D01*
X178689000Y-56482000D02*
X178689000Y-55406700D01*
X74580400Y-129724700D02*
X75030700Y-130175000D01*
X74580400Y-126083000D02*
X74580400Y-129724700D01*
X75568400Y-125095000D02*
X74580400Y-126083000D01*
X114524800Y-88904100D02*
X116679700Y-91059000D01*
X113190300Y-88904100D02*
X114524800Y-88904100D01*
X113190300Y-82343600D02*
X113190300Y-88904100D01*
X113047000Y-82200300D02*
X113190300Y-82343600D01*
X113190300Y-88904100D02*
X113190300Y-91059000D01*
X102440700Y-103505000D02*
X112402000Y-103505000D01*
X98662000Y-107283700D02*
X102440700Y-103505000D01*
X112732700Y-91059000D02*
X112732700Y-92329000D01*
X112275000Y-92329000D02*
X112732700Y-92329000D01*
X112732700Y-92329000D02*
X113190300Y-92329000D01*
X112275000Y-91059000D02*
X112732700Y-91059000D01*
X112732700Y-91059000D02*
X113190300Y-91059000D01*
X113640700Y-92779400D02*
X113190300Y-92329000D01*
X113640700Y-103181600D02*
X113640700Y-92779400D01*
X113317300Y-103505000D02*
X113640700Y-103181600D01*
X115587000Y-72037500D02*
X115587000Y-72800300D01*
X115587000Y-72037500D02*
X115587000Y-71500000D01*
X142724900Y-62853400D02*
X141824300Y-63754000D01*
X142724900Y-55764600D02*
X142724900Y-62853400D01*
X141824300Y-54864000D02*
X142724900Y-55764600D01*
X115587000Y-71500000D02*
X115587000Y-70199700D01*
X117188000Y-120777000D02*
X118263300Y-120777000D01*
X139255700Y-55282000D02*
X139255700Y-55370000D01*
X139673700Y-54864000D02*
X139255700Y-55282000D01*
X137821300Y-135934400D02*
X137014900Y-135128000D01*
X137821300Y-138216000D02*
X137821300Y-135934400D01*
X137699700Y-138337600D02*
X137821300Y-138216000D01*
X137821400Y-138459300D02*
X137699700Y-138337600D01*
X137821400Y-139670300D02*
X137821400Y-138459300D01*
X137283700Y-140208000D02*
X137821400Y-139670300D01*
X142146000Y-141478000D02*
X142168400Y-141478000D01*
X142168400Y-141478000D02*
X143221300Y-141478000D01*
X137287000Y-143343100D02*
X137287000Y-150318000D01*
X140303300Y-143343100D02*
X137287000Y-143343100D01*
X142168400Y-141478000D02*
X140303300Y-143343100D01*
X163830000Y-127160000D02*
X163830000Y-126084700D01*
X170180000Y-128235300D02*
X168910000Y-128235300D01*
X168910000Y-128235300D02*
X163830000Y-128235300D01*
X163830000Y-127160000D02*
X163830000Y-128235300D01*
X123689800Y-59028500D02*
X123689800Y-55452800D01*
X122520300Y-60198000D02*
X123689800Y-59028500D01*
X122855100Y-55452800D02*
X122520300Y-55118000D01*
X123689800Y-55452800D02*
X122855100Y-55452800D01*
X45306000Y-116840000D02*
X45843700Y-116840000D01*
X45843700Y-116840000D02*
X46381300Y-116840000D01*
X46381300Y-116302400D02*
X46381300Y-115570000D01*
X45843700Y-116840000D02*
X46381300Y-116302400D01*
X45306000Y-115570000D02*
X46381300Y-115570000D01*
X81126700Y-49911000D02*
X80933900Y-50103800D01*
X81664400Y-49911000D02*
X81126700Y-49911000D01*
X81126700Y-50448700D02*
X81126700Y-51181000D01*
X81664400Y-49911000D02*
X81126700Y-50448700D01*
X82202000Y-49911000D02*
X81933200Y-49911000D01*
X81933200Y-49911000D02*
X81664400Y-49911000D01*
X82202000Y-49642200D02*
X82202000Y-48641000D01*
X81933200Y-49911000D02*
X82202000Y-49642200D01*
X114969700Y-59586000D02*
X114969700Y-53848000D01*
X117016300Y-59586000D02*
X114969700Y-59586000D01*
X117141300Y-59711000D02*
X117016300Y-59586000D01*
X117141300Y-60662500D02*
X117141300Y-59711000D01*
X116970800Y-60833000D02*
X117141300Y-60662500D01*
X115096000Y-60833000D02*
X116970800Y-60833000D01*
X114969700Y-60959300D02*
X115096000Y-60833000D01*
X114969700Y-62738000D02*
X114969700Y-60959300D01*
X114012500Y-68625200D02*
X115587000Y-70199700D01*
X114012500Y-60475700D02*
X114012500Y-68625200D01*
X114902200Y-59586000D02*
X114012500Y-60475700D01*
X114969700Y-59586000D02*
X114902200Y-59586000D01*
X115223700Y-40767000D02*
X115223700Y-49657000D01*
X116299000Y-40767000D02*
X115223700Y-40767000D01*
X115761400Y-49657000D02*
X115761400Y-53848000D01*
X116299000Y-49657000D02*
X115761400Y-49657000D01*
X115761400Y-49657000D02*
X115223700Y-49657000D01*
X116045000Y-53848000D02*
X115761400Y-53848000D01*
X115761400Y-53848000D02*
X114969700Y-53848000D01*
X122455600Y-116584700D02*
X122728700Y-116584700D01*
X118263300Y-120777000D02*
X122455600Y-116584700D01*
X122588000Y-122047000D02*
X123663300Y-122047000D01*
X123848300Y-122047000D02*
X123860600Y-122034700D01*
X123663300Y-122047000D02*
X123848300Y-122047000D01*
X123550700Y-127127000D02*
X123596900Y-127127000D01*
X123663300Y-127193400D02*
X123663300Y-128397000D01*
X123596900Y-127127000D02*
X123663300Y-127193400D01*
X125354900Y-123529000D02*
X123860600Y-122034700D01*
X125354900Y-125369000D02*
X125354900Y-123529000D01*
X123596900Y-127127000D02*
X125354900Y-125369000D01*
X136663500Y-62484000D02*
X135349000Y-62484000D01*
X138603100Y-60544400D02*
X136663500Y-62484000D01*
X141633700Y-60544400D02*
X138603100Y-60544400D01*
X141824300Y-60353800D02*
X141633700Y-60544400D01*
X141824300Y-56925100D02*
X141824300Y-60353800D01*
X141668200Y-56769000D02*
X141824300Y-56925100D01*
X139857900Y-56769000D02*
X141668200Y-56769000D01*
X139255700Y-56166800D02*
X139857900Y-56769000D01*
X139255700Y-55370000D02*
X139255700Y-56166800D01*
X121445000Y-61468000D02*
X122520300Y-61468000D01*
X134273700Y-62484000D02*
X134273700Y-63754000D01*
X143221400Y-135929500D02*
X143172600Y-135880600D01*
X143221400Y-141477900D02*
X143221400Y-135929500D01*
X143221300Y-141478000D02*
X143221400Y-141477900D01*
X143221300Y-134362800D02*
X143221300Y-132588000D01*
X143093100Y-134491000D02*
X143221300Y-134362800D01*
X141235300Y-134491000D02*
X143093100Y-134491000D01*
X141070600Y-134655700D02*
X141235300Y-134491000D01*
X141070600Y-135552700D02*
X141070600Y-134655700D01*
X141315500Y-135797600D02*
X141070600Y-135552700D01*
X143089500Y-135797600D02*
X141315500Y-135797600D01*
X143172600Y-135880600D02*
X143089500Y-135797600D01*
X142400000Y-129413000D02*
X142400000Y-132588000D01*
X142146000Y-132588000D02*
X142400000Y-132588000D01*
X142400000Y-132588000D02*
X143221300Y-132588000D01*
X142400000Y-120523000D02*
X141324700Y-120523000D01*
X161290000Y-121760000D02*
X161290000Y-122835300D01*
X152734600Y-126318600D02*
X143172600Y-135880600D01*
X152734600Y-122835300D02*
X152734600Y-126318600D01*
X144128000Y-114228700D02*
X152734600Y-122835300D01*
X144128000Y-112269000D02*
X144128000Y-114228700D01*
X152734600Y-122835300D02*
X161290000Y-122835300D01*
X162560000Y-126084700D02*
X162652100Y-126084700D01*
X162652100Y-126084700D02*
X163830000Y-126084700D01*
X162652100Y-124197400D02*
X161290000Y-122835300D01*
X162652100Y-126084700D02*
X162652100Y-124197400D01*
X162560000Y-127160000D02*
X162560000Y-126084700D01*
X135349000Y-62484000D02*
X134273700Y-62484000D01*
X135349000Y-63754000D02*
X134273700Y-63754000D01*
X73088300Y-136689000D02*
X71781300Y-135382000D01*
X73088300Y-142965000D02*
X73088300Y-136689000D01*
X71781300Y-144272000D02*
X73088300Y-142965000D01*
X112514500Y-79067200D02*
X113047000Y-79599700D01*
X112514500Y-75872800D02*
X112514500Y-79067200D01*
X115587000Y-72800300D02*
X112514500Y-75872800D01*
X121445000Y-53848000D02*
X122520300Y-53848000D01*
X122774300Y-47849400D02*
X122774300Y-47117000D01*
X122236700Y-48387000D02*
X122774300Y-47849400D01*
X122918800Y-49069100D02*
X122918800Y-53449500D01*
X122236700Y-48387000D02*
X122918800Y-49069100D01*
X122918800Y-53449500D02*
X122520300Y-53848000D01*
X157861000Y-41877000D02*
X157861000Y-42952300D01*
X159131000Y-47277000D02*
X159131000Y-46201700D01*
X157774800Y-43038500D02*
X157861000Y-42952300D01*
X157774800Y-44845500D02*
X157774800Y-43038500D01*
X151820300Y-50800000D02*
X157774800Y-44845500D01*
X141257000Y-50800000D02*
X151820300Y-50800000D01*
X157774800Y-44845500D02*
X159131000Y-46201700D01*
X160401000Y-47277000D02*
X160401000Y-47814600D01*
X160401000Y-47814600D02*
X160401000Y-48352300D01*
X159863300Y-48352300D02*
X159131000Y-48352300D01*
X160401000Y-47814600D02*
X159863300Y-48352300D01*
X159131000Y-47277000D02*
X159131000Y-48352300D01*
X166116000Y-72339400D02*
X166116000Y-62009000D01*
X165901900Y-72553500D02*
X166116000Y-72339400D01*
X167386000Y-62009000D02*
X167386000Y-61471300D01*
X166116000Y-62009000D02*
X166116000Y-60933700D01*
X167386000Y-61471300D02*
X166848400Y-60933700D01*
X166848400Y-60933700D02*
X166116000Y-60933700D01*
X125474600Y-53449500D02*
X122918800Y-53449500D01*
X125862200Y-53837100D02*
X125474600Y-53449500D01*
X125862200Y-55452800D02*
X125862200Y-53837100D01*
X123689800Y-55452800D02*
X125862200Y-55452800D01*
X133592500Y-55452800D02*
X134273700Y-56134000D01*
X125862200Y-55452800D02*
X133592500Y-55452800D01*
X80295300Y-66549700D02*
X82456000Y-64389000D01*
X80295300Y-75368600D02*
X80295300Y-66549700D01*
X80745700Y-75819000D02*
X80295300Y-75368600D01*
X82202000Y-51181000D02*
X82004500Y-51181000D01*
X82004500Y-51181000D02*
X81126700Y-51181000D01*
X84339000Y-61041300D02*
X83531300Y-61849000D01*
X84339000Y-56814200D02*
X84339000Y-61041300D01*
X83843800Y-56319000D02*
X84339000Y-56814200D01*
X83843800Y-53020300D02*
X83843800Y-56319000D01*
X82004500Y-51181000D02*
X83843800Y-53020300D01*
X82456000Y-61849000D02*
X83531300Y-61849000D01*
X82456000Y-64389000D02*
X82456000Y-63119000D01*
X82456000Y-63119000D02*
X82456000Y-61849000D01*
X115985700Y-135801500D02*
X115985700Y-132842000D01*
X116201200Y-136017000D02*
X115985700Y-135801500D01*
X119480700Y-136017000D02*
X116201200Y-136017000D01*
X119480700Y-137287000D02*
X119480700Y-136017000D01*
X121385700Y-139192000D02*
X119480700Y-137287000D01*
X119480700Y-136017000D02*
X121385700Y-134112000D01*
X142163900Y-129413000D02*
X142400000Y-129413000D01*
X140470400Y-127719500D02*
X142163900Y-129413000D01*
X140470400Y-121377300D02*
X140470400Y-127719500D01*
X141324700Y-120523000D02*
X140470400Y-121377300D01*
X161036000Y-62009000D02*
X161036000Y-60933700D01*
X160401000Y-54948700D02*
X160401000Y-48352300D01*
X159816000Y-55533700D02*
X160401000Y-54948700D01*
X158496000Y-55533700D02*
X159816000Y-55533700D01*
X167386000Y-60396100D02*
X167386000Y-56609000D01*
X166848400Y-60933700D02*
X167386000Y-60396100D01*
X161826800Y-55533700D02*
X161636300Y-55724200D01*
X167386000Y-55533700D02*
X161826800Y-55533700D01*
X160860800Y-54948700D02*
X161636300Y-55724200D01*
X160401000Y-54948700D02*
X160860800Y-54948700D01*
X167386000Y-56609000D02*
X167386000Y-55533700D01*
X188341000Y-111599200D02*
X188341000Y-111598300D01*
X186551400Y-113388800D02*
X188341000Y-111599200D01*
X189357000Y-116194500D02*
X186551400Y-113388800D01*
X189357000Y-121760000D02*
X189357000Y-116194500D01*
X186550900Y-113388400D02*
X185915900Y-113388400D01*
X186551400Y-113388800D02*
X186550900Y-113388400D01*
X189611000Y-105123000D02*
X189611000Y-106085700D01*
X189611000Y-106085700D02*
X189611000Y-106198300D01*
X189611000Y-106198300D02*
X180721000Y-106198300D01*
X180721000Y-105123000D02*
X180721000Y-106198300D01*
X190211300Y-106798600D02*
X189611000Y-106198300D01*
X190211300Y-111488000D02*
X190211300Y-106798600D01*
X190101000Y-111598300D02*
X190211300Y-111488000D01*
X188341000Y-111598300D02*
X190101000Y-111598300D01*
X170180000Y-116628000D02*
X167128900Y-113576900D01*
X170180000Y-121760000D02*
X170180000Y-116628000D01*
X165300600Y-113576900D02*
X167128900Y-113576900D01*
X162814000Y-111090300D02*
X165300600Y-113576900D01*
X167757400Y-112948400D02*
X167757400Y-111956000D01*
X167128900Y-113576900D02*
X167757400Y-112948400D01*
X112402000Y-103505000D02*
X113317300Y-103505000D01*
X70706000Y-123825000D02*
X71781300Y-123825000D01*
X71781300Y-123378900D02*
X71781300Y-123825000D01*
X71419600Y-123017200D02*
X71781300Y-123378900D01*
X51389800Y-113038800D02*
X51389800Y-114300000D01*
X50706000Y-114300000D02*
X51389800Y-114300000D01*
X51389800Y-114300000D02*
X51668700Y-114300000D01*
X71484700Y-100534400D02*
X71319200Y-100368900D01*
X71484700Y-110666600D02*
X71484700Y-100534400D01*
X70899300Y-111252000D02*
X71484700Y-110666600D01*
X78377800Y-122527500D02*
X78097100Y-122808200D01*
X87195100Y-122527500D02*
X78377800Y-122527500D01*
X91032600Y-126365000D02*
X87195100Y-122527500D01*
X92363700Y-126365000D02*
X91032600Y-126365000D01*
X98816600Y-144780000D02*
X97763700Y-144780000D01*
X98816600Y-144780000D02*
X98839000Y-144780000D01*
X112937700Y-144780000D02*
X115985700Y-141732000D01*
X98839000Y-144780000D02*
X112937700Y-144780000D01*
X117061000Y-141732000D02*
X115985700Y-141732000D01*
X117061000Y-132842000D02*
X116523400Y-132842000D01*
X116523400Y-132842000D02*
X115985700Y-132842000D01*
X116112700Y-132431300D02*
X116112700Y-129667000D01*
X116523400Y-132842000D02*
X116112700Y-132431300D01*
X117188000Y-129667000D02*
X116112700Y-129667000D01*
X117188000Y-129667000D02*
X118263300Y-129667000D01*
X118433000Y-123856700D02*
X118433000Y-123917400D01*
X121512700Y-120777000D02*
X118433000Y-123856700D01*
X116321000Y-120777000D02*
X117188000Y-120777000D01*
X115620700Y-121477300D02*
X116321000Y-120777000D01*
X115620700Y-123295400D02*
X115620700Y-121477300D01*
X116242700Y-123917400D02*
X115620700Y-123295400D01*
X118433000Y-123917400D02*
X116242700Y-123917400D01*
X139940400Y-50800000D02*
X141257000Y-50800000D01*
X139138600Y-49998200D02*
X139940400Y-50800000D01*
X139138600Y-46656300D02*
X139138600Y-49998200D01*
X136932300Y-44450000D02*
X139138600Y-46656300D01*
X126755600Y-67942300D02*
X126755600Y-65703300D01*
X128704900Y-63754000D02*
X126755600Y-65703300D01*
X134273700Y-63754000D02*
X128704900Y-63754000D01*
X126755600Y-65703300D02*
X122520300Y-61468000D01*
X91247000Y-46162700D02*
X91150200Y-46259500D01*
X91247000Y-45085000D02*
X91247000Y-46162700D01*
X135834300Y-138337600D02*
X137699700Y-138337600D01*
X135220200Y-138951700D02*
X135834300Y-138337600D01*
X135220200Y-142487400D02*
X135220200Y-138951700D01*
X136075900Y-143343100D02*
X135220200Y-142487400D01*
X137287000Y-143343100D02*
X136075900Y-143343100D01*
X119109100Y-124593500D02*
X118433000Y-123917400D01*
X119109100Y-128821200D02*
X119109100Y-124593500D01*
X118263300Y-129667000D02*
X119109100Y-128821200D01*
X136678300Y-53042100D02*
X136678300Y-55370000D01*
X136932300Y-52788100D02*
X136678300Y-53042100D01*
X136932300Y-49530000D02*
X136932300Y-52788100D01*
X136424300Y-55624000D02*
X136678300Y-55370000D01*
X136424300Y-56134000D02*
X136424300Y-55624000D01*
X136678300Y-55370000D02*
X139255700Y-55370000D01*
X161636300Y-60333400D02*
X161036000Y-60933700D01*
X161636300Y-55724200D02*
X161636300Y-60333400D01*
X76421000Y-78359000D02*
X75345700Y-78359000D01*
X77056000Y-64389000D02*
X78131300Y-64389000D01*
X78131300Y-64839300D02*
X77801400Y-65169200D01*
X78131300Y-64389000D02*
X78131300Y-64839300D01*
X76802000Y-51181000D02*
X77877300Y-51181000D01*
X77877300Y-51631300D02*
X77877300Y-51181000D01*
X77536900Y-51971700D02*
X77877300Y-51631300D01*
X72085300Y-75098600D02*
X72085300Y-73116900D01*
X75345700Y-78359000D02*
X72085300Y-75098600D01*
X76421000Y-77089000D02*
X75345700Y-77089000D01*
X78131300Y-63412400D02*
X78312500Y-63593600D01*
X78131300Y-63119000D02*
X78131300Y-63412400D01*
X77056000Y-63119000D02*
X78131300Y-63119000D01*
X73507500Y-75250800D02*
X73507500Y-70262900D01*
X75345700Y-77089000D02*
X73507500Y-75250800D01*
X75726700Y-50488800D02*
X75663200Y-50552300D01*
X75726700Y-49911000D02*
X75726700Y-50488800D01*
X76802000Y-49911000D02*
X75726700Y-49911000D01*
X76421000Y-75819000D02*
X77496300Y-75819000D01*
X77496300Y-92769700D02*
X77082400Y-93183600D01*
X77496300Y-75819000D02*
X77496300Y-92769700D01*
X77056000Y-61849000D02*
X78131300Y-61849000D01*
X76802000Y-48641000D02*
X75726700Y-48641000D01*
X78618400Y-72070000D02*
X78039400Y-71491000D01*
X78618400Y-74696900D02*
X78618400Y-72070000D01*
X77496300Y-75819000D02*
X78618400Y-74696900D01*
X77467900Y-71491000D02*
X78039400Y-71491000D01*
X77350900Y-71374000D02*
X77467900Y-71491000D01*
X75561200Y-71374000D02*
X77350900Y-71374000D01*
X74525700Y-70338500D02*
X75561200Y-71374000D01*
X74525700Y-49842000D02*
X74525700Y-70338500D01*
X75726700Y-48641000D02*
X74525700Y-49842000D01*
X79172900Y-60807400D02*
X79172900Y-59090000D01*
X78131300Y-61849000D02*
X79172900Y-60807400D01*
X78383200Y-71147200D02*
X78039400Y-71491000D01*
X78383200Y-65566100D02*
X78383200Y-71147200D01*
X78947800Y-65001500D02*
X78383200Y-65566100D01*
X78947800Y-62665500D02*
X78947800Y-65001500D01*
X78131300Y-61849000D02*
X78947800Y-62665500D01*
X164211000Y-47277000D02*
X164211000Y-48352300D01*
X164337400Y-48478700D02*
X164337400Y-48530500D01*
X164211000Y-48352300D02*
X164337400Y-48478700D01*
X164846000Y-63312000D02*
X164846000Y-62009000D01*
X164830300Y-63327700D02*
X164846000Y-63312000D01*
X185039000Y-63158300D02*
X185039000Y-61882000D01*
X185221400Y-63340700D02*
X185039000Y-63158300D01*
X183896000Y-49262700D02*
X183896000Y-47531000D01*
X186909400Y-52276100D02*
X183896000Y-49262700D01*
X186909400Y-58936300D02*
X186909400Y-52276100D01*
X185039000Y-60806700D02*
X186909400Y-58936300D01*
X185039000Y-61882000D02*
X185039000Y-60806700D01*
X77523200Y-73305900D02*
X77496300Y-73279000D01*
X77977900Y-73305900D02*
X77523200Y-73305900D01*
X76421000Y-73279000D02*
X77496300Y-73279000D01*
X85192300Y-52778800D02*
X88882900Y-49088200D01*
X85192300Y-64046700D02*
X85192300Y-52778800D01*
X83219000Y-66020000D02*
X85192300Y-64046700D01*
X83219000Y-71686300D02*
X83219000Y-66020000D01*
X82896300Y-72009000D02*
X83219000Y-71686300D01*
X81821000Y-72009000D02*
X82896300Y-72009000D01*
X77877300Y-46142300D02*
X77877300Y-46101000D01*
X78064200Y-46329200D02*
X77877300Y-46142300D01*
X76802000Y-46101000D02*
X77877300Y-46101000D01*
X84800900Y-44831000D02*
X85542900Y-44089000D01*
X82202000Y-44831000D02*
X84800900Y-44831000D01*
X78201000Y-59239300D02*
X78131300Y-59309000D01*
X78339500Y-59239300D02*
X78201000Y-59239300D01*
X77056000Y-59309000D02*
X78131300Y-59309000D01*
X80221200Y-53715800D02*
X81838400Y-52098600D01*
X80221200Y-56879500D02*
X80221200Y-53715800D01*
X81380700Y-58039000D02*
X80221200Y-56879500D01*
X82456000Y-58039000D02*
X81380700Y-58039000D01*
D24*
X48942000Y-56562000D02*
X50375000Y-56562000D01*
X48895000Y-56515000D02*
X48942000Y-56562000D01*
X48895000Y-60325000D02*
X48895000Y-56515000D01*
X49530000Y-60960000D02*
X48895000Y-60325000D01*
X49102000Y-46562000D02*
X50375000Y-46562000D01*
X48895000Y-46355000D02*
X49102000Y-46562000D01*
X48895000Y-34290000D02*
X48895000Y-46355000D01*
X48260000Y-33655000D02*
X48895000Y-34290000D01*
X29337000Y-51562000D02*
X32175000Y-51562000D01*
X29210000Y-51435000D02*
X29337000Y-51562000D01*
D25*
X188595000Y-101600000D02*
X193040000Y-101600000D01*
D24*
X109855000Y-43180000D02*
X109855000Y-42545000D01*
X189865000Y-43180000D02*
X203200000Y-43180000D01*
X188595000Y-44450000D02*
X189865000Y-43180000D01*
X191135000Y-55245000D02*
X203200000Y-55245000D01*
X188595000Y-52705000D02*
X191135000Y-55245000D01*
X187325000Y-139065000D02*
X193040000Y-139065000D01*
X193040000Y-129540000D02*
X191135000Y-129540000D01*
X107950000Y-149860000D02*
X107950000Y-147320000D01*
X94615000Y-146685000D02*
X94615000Y-154940000D01*
X95885000Y-145415000D02*
X94615000Y-146685000D01*
X95885000Y-130175000D02*
X95885000Y-145415000D01*
X97155000Y-128905000D02*
X95885000Y-130175000D01*
X22225000Y-135255000D02*
X20320000Y-135255000D01*
X22860000Y-127000000D02*
X20320000Y-127000000D01*
X46355000Y-33655000D02*
X46355000Y-34925000D01*
X48260000Y-31750000D02*
X46355000Y-33655000D01*
X48260000Y-25400000D02*
X48260000Y-31750000D01*
X34083000Y-46562000D02*
X34290000Y-46355000D01*
X32175000Y-46562000D02*
X34083000Y-46562000D01*
X32112000Y-47625000D02*
X32175000Y-47562000D01*
X31115000Y-47625000D02*
X32112000Y-47625000D01*
X26670000Y-36830000D02*
X26670000Y-45720000D01*
X24130000Y-34290000D02*
X26670000Y-36830000D01*
X148590000Y-30480000D02*
X148590000Y-34290000D01*
X62230000Y-149860000D02*
X62230000Y-147320000D01*
X152400000Y-148590000D02*
X152400000Y-144780000D01*
D26*
X193040000Y-76200000D02*
X193040000Y-101600000D01*
X196552000Y-72688000D02*
X193040000Y-76200000D01*
X199009000Y-72688000D02*
X196552000Y-72688000D01*
X193040000Y-101600000D02*
X193040000Y-129540000D01*
X193040000Y-129540000D02*
X193040000Y-139065000D01*
X158750000Y-154940000D02*
X152400000Y-148590000D01*
X187960000Y-154940000D02*
X158750000Y-154940000D01*
X193040000Y-149860000D02*
X187960000Y-154940000D01*
X193040000Y-139065000D02*
X193040000Y-149860000D01*
X109220000Y-149860000D02*
X107950000Y-149860000D01*
X114300000Y-154940000D02*
X109220000Y-149860000D01*
X146050000Y-154940000D02*
X114300000Y-154940000D01*
X152400000Y-148590000D02*
X146050000Y-154940000D01*
X101600000Y-154940000D02*
X94615000Y-154940000D01*
X106680000Y-149860000D02*
X101600000Y-154940000D01*
X107950000Y-149860000D02*
X106680000Y-149860000D01*
X63500000Y-149860000D02*
X62230000Y-149860000D01*
X68580000Y-154940000D02*
X63500000Y-149860000D01*
X94615000Y-154940000D02*
X68580000Y-154940000D01*
X20320000Y-151130000D02*
X20320000Y-135255000D01*
X24130000Y-154940000D02*
X20320000Y-151130000D01*
X55880000Y-154940000D02*
X24130000Y-154940000D01*
X60960000Y-149860000D02*
X55880000Y-154940000D01*
X62230000Y-149860000D02*
X60960000Y-149860000D01*
X20320000Y-135255000D02*
X20320000Y-127000000D01*
X17780000Y-40640000D02*
X24130000Y-34290000D01*
X17780000Y-72390000D02*
X17780000Y-40640000D01*
X24130000Y-78740000D02*
X17780000Y-72390000D01*
X24130000Y-81280000D02*
X24130000Y-78740000D01*
X20320000Y-85090000D02*
X24130000Y-81280000D01*
X20320000Y-127000000D02*
X20320000Y-85090000D01*
X33020000Y-25400000D02*
X48260000Y-25400000D01*
X24130000Y-34290000D02*
X33020000Y-25400000D01*
X81280000Y-25400000D02*
X109855000Y-25400000D01*
X77470000Y-29210000D02*
X81280000Y-25400000D01*
X66040000Y-29210000D02*
X77470000Y-29210000D01*
X62230000Y-25400000D02*
X66040000Y-29210000D01*
X48260000Y-25400000D02*
X62230000Y-25400000D01*
X146050000Y-30480000D02*
X148590000Y-30480000D01*
X140970000Y-25400000D02*
X146050000Y-30480000D01*
X109855000Y-25400000D02*
X140970000Y-25400000D01*
X203200000Y-68497000D02*
X199009000Y-72688000D01*
X203200000Y-55245000D02*
X203200000Y-68497000D01*
X203200000Y-29210000D02*
X203200000Y-43180000D01*
X199390000Y-25400000D02*
X203200000Y-29210000D01*
X153670000Y-25400000D02*
X199390000Y-25400000D01*
X148590000Y-30480000D02*
X153670000Y-25400000D01*
X203200000Y-43180000D02*
X203200000Y-55245000D01*
D24*
X27512000Y-46562000D02*
X31115000Y-46562000D01*
X26670000Y-45720000D02*
X27512000Y-46562000D01*
X31115000Y-46562000D02*
X32175000Y-46562000D01*
X31115000Y-46562000D02*
X31115000Y-47625000D01*
X31417000Y-48562000D02*
X32175000Y-48562000D01*
X31115000Y-48260000D02*
X31417000Y-48562000D01*
X31115000Y-47625000D02*
X31115000Y-48260000D01*
X27257000Y-54562000D02*
X31115000Y-54562000D01*
X26670000Y-53975000D02*
X27257000Y-54562000D01*
X26670000Y-45720000D02*
X26670000Y-53975000D01*
X31115000Y-54562000D02*
X32175000Y-54562000D01*
X32175000Y-55562000D02*
X31115000Y-55562000D01*
X31115000Y-55562000D02*
X31115000Y-55245000D01*
X31162000Y-56562000D02*
X32175000Y-56562000D01*
X31115000Y-56515000D02*
X31162000Y-56562000D01*
X31115000Y-55562000D02*
X31115000Y-56515000D01*
X31115000Y-54562000D02*
X31115000Y-55245000D01*
X31115000Y-55245000D02*
X31115000Y-55562000D01*
X187960000Y-129540000D02*
X191135000Y-129540000D01*
X191135000Y-129540000D02*
X193040000Y-129540000D01*
X109855000Y-47625000D02*
X109855000Y-43180000D01*
X113665000Y-51435000D02*
X109855000Y-47625000D01*
X109855000Y-43180000D02*
X109855000Y-42545000D01*
X109855000Y-42545000D02*
X109855000Y-25400000D01*
D23*
X45180800Y-36494800D02*
X45180800Y-45895300D01*
X39497000Y-30811000D02*
X45180800Y-36494800D01*
X92350500Y-45698500D02*
X97536000Y-40513000D01*
X92350500Y-47602900D02*
X92350500Y-45698500D01*
X86697500Y-53255900D02*
X92350500Y-47602900D01*
X86697500Y-64004200D02*
X86697500Y-53255900D01*
X86233000Y-64468700D02*
X86697500Y-64004200D01*
X86233000Y-74407900D02*
X86233000Y-64468700D01*
X89006400Y-71290900D02*
X88821900Y-71475400D01*
X89006400Y-52844300D02*
X89006400Y-71290900D01*
X97536000Y-44314700D02*
X89006400Y-52844300D01*
X97536000Y-43053000D02*
X97536000Y-44314700D01*
X32175000Y-49562000D02*
X33150300Y-49562000D01*
X33446500Y-44562000D02*
X32175000Y-44562000D01*
X34923200Y-46038700D02*
X33446500Y-44562000D01*
X34923200Y-47890800D02*
X34923200Y-46038700D01*
X33252000Y-49562000D02*
X34923200Y-47890800D01*
X33600600Y-49910600D02*
X33252000Y-49562000D01*
X33600600Y-58607400D02*
X33600600Y-49910600D01*
X23374000Y-68834000D02*
X33600600Y-58607400D01*
X22810000Y-68834000D02*
X23374000Y-68834000D01*
X33252000Y-49562000D02*
X33150300Y-49562000D01*
X51350300Y-44403500D02*
X51350300Y-44562000D01*
X51529000Y-44224800D02*
X51350300Y-44403500D01*
X50375000Y-44562000D02*
X51350300Y-44562000D01*
X27277700Y-62484000D02*
X31199700Y-58562000D01*
X22810000Y-62484000D02*
X27277700Y-62484000D01*
X32175000Y-58562000D02*
X31199700Y-58562000D01*
X32617600Y-58562000D02*
X32175000Y-58562000D01*
X33150300Y-58029300D02*
X32617600Y-58562000D01*
X33150300Y-53562000D02*
X33150300Y-58029300D01*
X32175000Y-53562000D02*
X33150300Y-53562000D01*
X50375000Y-59356600D02*
X50333200Y-59398400D01*
X50375000Y-58562000D02*
X50375000Y-59356600D01*
X90046800Y-42922200D02*
X97536000Y-35433000D01*
X90046800Y-49269600D02*
X90046800Y-42922200D01*
X86208500Y-53107900D02*
X90046800Y-49269600D01*
X86208500Y-63667400D02*
X86208500Y-53107900D01*
X84675700Y-65200200D02*
X86208500Y-63667400D01*
X84675700Y-77682400D02*
X84675700Y-65200200D01*
X98535200Y-49673800D02*
X100076000Y-48133000D01*
X97249200Y-49673800D02*
X98535200Y-49673800D01*
X93462000Y-53461000D02*
X97249200Y-49673800D01*
X93462000Y-65293600D02*
X93462000Y-53461000D01*
X63815000Y-47879000D02*
X63815000Y-48854300D01*
X63856400Y-48895700D02*
X63856400Y-49039000D01*
X63815000Y-48854300D02*
X63856400Y-48895700D01*
X57846000Y-52561900D02*
X57846000Y-53721000D01*
X58045900Y-52362000D02*
X57846000Y-52561900D01*
X51447200Y-49562000D02*
X50375000Y-49562000D01*
X57170600Y-43838600D02*
X51447200Y-49562000D01*
X57170600Y-42731500D02*
X57170600Y-43838600D01*
X57316500Y-42585600D02*
X57170600Y-42731500D01*
X58337800Y-42585600D02*
X57316500Y-42585600D01*
X61915000Y-46162800D02*
X58337800Y-42585600D01*
X61915000Y-47879000D02*
X61915000Y-46162800D01*
X55270700Y-44641600D02*
X51350300Y-48562000D01*
X55270700Y-43561000D02*
X55270700Y-44641600D01*
X55946000Y-43561000D02*
X55270700Y-43561000D01*
X50375000Y-48562000D02*
X51350300Y-48562000D01*
X53303300Y-56515000D02*
X51350300Y-54562000D01*
X61366700Y-56515000D02*
X53303300Y-56515000D01*
X62042000Y-56515000D02*
X61366700Y-56515000D01*
X50375000Y-54562000D02*
X51350300Y-54562000D01*
X92836700Y-52832300D02*
X97536000Y-48133000D01*
X92836700Y-68981900D02*
X92836700Y-52832300D01*
X88817900Y-73000700D02*
X92836700Y-68981900D01*
X88348700Y-73000700D02*
X88817900Y-73000700D01*
X96607100Y-70159900D02*
X88330500Y-78436500D01*
X96607100Y-61761900D02*
X96607100Y-70159900D01*
X97536000Y-60833000D02*
X96607100Y-61761900D01*
X95747700Y-70129500D02*
X90782300Y-75094900D01*
X95747700Y-52461300D02*
X95747700Y-70129500D01*
X97536000Y-50673000D02*
X95747700Y-52461300D01*
X92386400Y-50742600D02*
X97536000Y-45593000D01*
X92386400Y-68795300D02*
X92386400Y-50742600D01*
X89081000Y-72100700D02*
X92386400Y-68795300D01*
X88364400Y-72100700D02*
X89081000Y-72100700D01*
X87023200Y-73441900D02*
X88364400Y-72100700D01*
X87023200Y-76480300D02*
X87023200Y-73441900D01*
X85143500Y-78360000D02*
X87023200Y-76480300D01*
X98686800Y-93341600D02*
X100404400Y-95059200D01*
X98686800Y-74683800D02*
X98686800Y-93341600D01*
X97536000Y-73533000D02*
X98686800Y-74683800D01*
X120270800Y-58829100D02*
X120188300Y-58829100D01*
X120369700Y-58928000D02*
X120270800Y-58829100D01*
X140749000Y-58674000D02*
X139476600Y-58674000D01*
X121445000Y-58928000D02*
X120369700Y-58928000D01*
X121445000Y-57658000D02*
X122520300Y-57658000D01*
X140749000Y-59944000D02*
X139673700Y-59944000D01*
X122520300Y-57663300D02*
X123059600Y-58202600D01*
X122520300Y-57658000D02*
X122520300Y-57663300D01*
X133493600Y-59343700D02*
X133303800Y-59153900D01*
X139073400Y-59343700D02*
X133493600Y-59343700D01*
X139673700Y-59944000D02*
X139073400Y-59343700D01*
X141257000Y-45720000D02*
X142332300Y-45720000D01*
X130158200Y-45847000D02*
X121699000Y-45847000D01*
X134960700Y-41044500D02*
X130158200Y-45847000D01*
X141887800Y-41044500D02*
X134960700Y-41044500D01*
X142332300Y-41489000D02*
X141887800Y-41044500D01*
X142332300Y-45720000D02*
X142332300Y-41489000D01*
X141257000Y-46990000D02*
X142332300Y-46990000D01*
X130107600Y-44577000D02*
X121699000Y-44577000D01*
X134135700Y-40548900D02*
X130107600Y-44577000D01*
X142067500Y-40548900D02*
X134135700Y-40548900D01*
X142787900Y-41269300D02*
X142067500Y-40548900D01*
X142787900Y-46534400D02*
X142787900Y-41269300D01*
X142332300Y-46990000D02*
X142787900Y-46534400D01*
X165100000Y-125872900D02*
X165100000Y-127160000D01*
X184121900Y-122990400D02*
X184121900Y-123218100D01*
X184277000Y-122835300D02*
X184121900Y-122990400D01*
X184277000Y-121760000D02*
X184277000Y-122835300D01*
X185547000Y-121760000D02*
X185547000Y-122835300D01*
X166370000Y-127160000D02*
X166370000Y-126084700D01*
X185456100Y-122835300D02*
X185254400Y-123037000D01*
X185547000Y-122835300D02*
X185456100Y-122835300D01*
X166370000Y-126084700D02*
X166370000Y-125893200D01*
X164084000Y-110015000D02*
X164084000Y-111090300D01*
X184531000Y-105123000D02*
X184531000Y-104047700D01*
X183032800Y-102549500D02*
X184531000Y-104047700D01*
X173433600Y-102549500D02*
X183032800Y-102549500D01*
X167882400Y-108100700D02*
X173433600Y-102549500D01*
X167882400Y-108444300D02*
X167882400Y-108100700D01*
X167293700Y-109033000D02*
X167882400Y-108444300D01*
X167293700Y-111435900D02*
X167293700Y-109033000D01*
X167130900Y-111598700D02*
X167293700Y-111435900D01*
X167130900Y-112566200D02*
X167130900Y-111598700D01*
X166570500Y-113126600D02*
X167130900Y-112566200D01*
X166052400Y-113126600D02*
X166570500Y-113126600D01*
X164084000Y-111158200D02*
X166052400Y-113126600D01*
X164084000Y-111090300D02*
X164084000Y-111158200D01*
X165354000Y-110015000D02*
X165354000Y-108939700D01*
X185801000Y-105123000D02*
X185801000Y-104047700D01*
X185801000Y-104047700D02*
X185801000Y-103840900D01*
X165354000Y-108939700D02*
X165354000Y-108762500D01*
X126327200Y-137922000D02*
X122461000Y-137922000D01*
X128466000Y-135783200D02*
X126327200Y-137922000D01*
X142146000Y-136398000D02*
X141070700Y-136398000D01*
X141070700Y-136407400D02*
X140892300Y-136585800D01*
X141070700Y-136398000D02*
X141070700Y-136407400D01*
X142146000Y-137668000D02*
X140867900Y-137668000D01*
X126675600Y-136652000D02*
X127619000Y-135708600D01*
X122461000Y-136652000D02*
X126675600Y-136652000D01*
X141324700Y-124504700D02*
X141112800Y-124716600D01*
X141324700Y-124333000D02*
X141324700Y-124504700D01*
X123663300Y-125765600D02*
X123663300Y-125857000D01*
X124712800Y-124716100D02*
X123663300Y-125765600D01*
X122588000Y-125857000D02*
X123663300Y-125857000D01*
X142400000Y-124333000D02*
X141324700Y-124333000D01*
X142400000Y-125603000D02*
X141129800Y-125603000D01*
X122588000Y-124587000D02*
X123663300Y-124587000D01*
X123714500Y-124535800D02*
X123663300Y-124587000D01*
X123857800Y-124535800D02*
X123714500Y-124535800D01*
X99969400Y-139700000D02*
X100094200Y-139575200D01*
X98839000Y-139700000D02*
X99969400Y-139700000D01*
X81994300Y-140462000D02*
X82656900Y-139799400D01*
X76106000Y-140462000D02*
X81994300Y-140462000D01*
X77181300Y-139409200D02*
X77181300Y-139192000D01*
X77389500Y-139617400D02*
X77181300Y-139409200D01*
X98839000Y-140970000D02*
X99914300Y-140970000D01*
X99914300Y-140653000D02*
X100103500Y-140463800D01*
X99914300Y-140970000D02*
X99914300Y-140653000D01*
X76106000Y-139192000D02*
X77181300Y-139192000D01*
X96961900Y-130557100D02*
X96961900Y-132130900D01*
X98614000Y-128905000D02*
X96961900Y-130557100D01*
X98839000Y-128905000D02*
X98614000Y-128905000D01*
X78013300Y-128905000D02*
X81800900Y-132692600D01*
X76106000Y-128905000D02*
X78013300Y-128905000D01*
X77527000Y-127980700D02*
X77181300Y-127635000D01*
X86510100Y-127980700D02*
X77527000Y-127980700D01*
X76106000Y-127635000D02*
X77181300Y-127635000D01*
X98839000Y-130175000D02*
X99914300Y-130175000D01*
X99914300Y-130186900D02*
X100094200Y-130366800D01*
X99914300Y-130175000D02*
X99914300Y-130186900D01*
X32273100Y-119683800D02*
X32223300Y-119634000D01*
X32409200Y-119683800D02*
X32273100Y-119683800D01*
X49630700Y-118340700D02*
X49424800Y-118546600D01*
X49630700Y-118110000D02*
X49630700Y-118340700D01*
X50706000Y-118110000D02*
X49630700Y-118110000D01*
X31148000Y-119634000D02*
X32223300Y-119634000D01*
X31148000Y-118364000D02*
X32223300Y-118364000D01*
X32223300Y-118588200D02*
X32223300Y-118364000D01*
X33315800Y-119680700D02*
X32223300Y-118588200D01*
X49630700Y-119437700D02*
X49447200Y-119621200D01*
X49630700Y-119380000D02*
X49630700Y-119437700D01*
X50706000Y-119380000D02*
X49630700Y-119380000D01*
X32661000Y-136581700D02*
X32223300Y-136144000D01*
X39945200Y-136581700D02*
X32661000Y-136581700D01*
X31148000Y-136144000D02*
X32223300Y-136144000D01*
X50960000Y-134874000D02*
X49884700Y-134874000D01*
X49477800Y-135280900D02*
X48124500Y-135280900D01*
X49884700Y-134874000D02*
X49477800Y-135280900D01*
X32298100Y-134799200D02*
X32223300Y-134874000D01*
X39948900Y-134799200D02*
X32298100Y-134799200D01*
X31148000Y-134874000D02*
X32223300Y-134874000D01*
X50960000Y-136144000D02*
X49884700Y-136144000D01*
X49884700Y-136144000D02*
X49697800Y-135957100D01*
X160401000Y-43299500D02*
X160401000Y-41877000D01*
X158954000Y-42054000D02*
X159131000Y-41877000D01*
X158954000Y-43934700D02*
X158954000Y-42054000D01*
X159291400Y-44272100D02*
X158954000Y-43934700D01*
X164096900Y-43066400D02*
X164211000Y-42952300D01*
X164096900Y-44456000D02*
X164096900Y-43066400D01*
X164211000Y-41877000D02*
X164211000Y-42952300D01*
X165481000Y-42991600D02*
X165481000Y-41877000D01*
X164792200Y-43680400D02*
X165481000Y-42991600D01*
X180086000Y-42131000D02*
X180086000Y-41055700D01*
X179786400Y-40756100D02*
X179786400Y-40582900D01*
X180086000Y-41055700D02*
X179786400Y-40756100D01*
X178816000Y-42131000D02*
X178816000Y-41055700D01*
X177069500Y-41055700D02*
X178816000Y-41055700D01*
X170090300Y-48034900D02*
X177069500Y-41055700D01*
X183819900Y-43282400D02*
X183896000Y-43206300D01*
X183819900Y-43413700D02*
X183819900Y-43282400D01*
X183896000Y-42131000D02*
X183896000Y-43206300D01*
X185166000Y-42131000D02*
X185166000Y-43206300D01*
X185028200Y-43344100D02*
X185028200Y-43385000D01*
X185166000Y-43206300D02*
X185028200Y-43344100D01*
X186309000Y-56482000D02*
X186309000Y-57557300D01*
X186097000Y-57557300D02*
X184991100Y-58663200D01*
X186309000Y-57557300D02*
X186097000Y-57557300D01*
X185039000Y-57698000D02*
X184988800Y-57748200D01*
X185039000Y-56482000D02*
X185039000Y-57698000D01*
X179959000Y-57678200D02*
X179959000Y-56482000D01*
X179856300Y-57780900D02*
X179959000Y-57678200D01*
X183099400Y-64655600D02*
X162140000Y-85615000D01*
X183099400Y-60617300D02*
X183099400Y-64655600D01*
X181229000Y-58746900D02*
X183099400Y-60617300D01*
X181229000Y-56482000D02*
X181229000Y-58746900D01*
X166116000Y-56609000D02*
X166116000Y-57684300D01*
X166116000Y-60283200D02*
X166116000Y-57684300D01*
X165515700Y-60883500D02*
X166116000Y-60283200D01*
X165515700Y-63847300D02*
X165515700Y-60883500D01*
X165276600Y-64086400D02*
X165515700Y-63847300D01*
X165276600Y-81501100D02*
X165276600Y-64086400D01*
X162215300Y-84562400D02*
X165276600Y-81501100D01*
X164846000Y-56609000D02*
X164846000Y-57684300D01*
X165200900Y-58039200D02*
X164846000Y-57684300D01*
X165200900Y-60196800D02*
X165200900Y-58039200D01*
X164825100Y-60572600D02*
X165200900Y-60196800D01*
X164703600Y-60572600D02*
X164825100Y-60572600D01*
X164205000Y-61071200D02*
X164703600Y-60572600D01*
X164205000Y-63586700D02*
X164205000Y-61071200D01*
X164265600Y-63647300D02*
X164205000Y-63586700D01*
X164265600Y-81387400D02*
X164265600Y-63647300D01*
X162665600Y-82987400D02*
X164265600Y-81387400D01*
X160366300Y-80585300D02*
X159146600Y-81805000D01*
X160366300Y-60389200D02*
X160366300Y-80585300D01*
X159766000Y-59788900D02*
X160366300Y-60389200D01*
X159766000Y-56609000D02*
X159766000Y-59788900D01*
X160937500Y-57684300D02*
X161036000Y-57684300D01*
X160601900Y-58019900D02*
X160937500Y-57684300D01*
X161036000Y-56609000D02*
X161036000Y-57684300D01*
X182443600Y-57557300D02*
X182255300Y-57745600D01*
X182499000Y-57557300D02*
X182443600Y-57557300D01*
X182499000Y-56482000D02*
X182499000Y-57557300D01*
X162306000Y-62009000D02*
X162306000Y-60933700D01*
X162306000Y-60933700D02*
X162306000Y-60754200D01*
X163576000Y-62009000D02*
X163576000Y-60933700D01*
X183769000Y-56482000D02*
X183769000Y-57557300D01*
X183601500Y-57724800D02*
X183601500Y-57779200D01*
X183769000Y-57557300D02*
X183601500Y-57724800D01*
X163576000Y-60933700D02*
X164562400Y-59947300D01*
X163576000Y-58300100D02*
X163576000Y-56609000D01*
X163617300Y-58341400D02*
X163576000Y-58300100D01*
X162975600Y-70000800D02*
X163614200Y-70639400D01*
X162975600Y-58353900D02*
X162975600Y-70000800D01*
X162306000Y-57684300D02*
X162975600Y-58353900D01*
X162306000Y-56609000D02*
X162306000Y-57684300D01*
X181356000Y-42131000D02*
X181356000Y-41055700D01*
X161671000Y-47277000D02*
X161671000Y-48352300D01*
X180257800Y-39957500D02*
X181356000Y-41055700D01*
X177117300Y-39957500D02*
X180257800Y-39957500D01*
X167779100Y-49295700D02*
X177117300Y-39957500D01*
X162614400Y-49295700D02*
X167779100Y-49295700D01*
X161671000Y-48352300D02*
X162614400Y-49295700D01*
X164844100Y-46201700D02*
X162941000Y-46201700D01*
X171547800Y-39498000D02*
X164844100Y-46201700D01*
X181068300Y-39498000D02*
X171547800Y-39498000D01*
X182626000Y-41055700D02*
X181068300Y-39498000D01*
X182626000Y-42131000D02*
X182626000Y-41055700D01*
X162941000Y-47277000D02*
X162941000Y-46201700D01*
X162941000Y-41877000D02*
X162941000Y-42952300D01*
X162941000Y-42952300D02*
X162941000Y-43151800D01*
X183769000Y-61882000D02*
X183769000Y-60630100D01*
X182499000Y-61882000D02*
X182499000Y-62957300D01*
X161671000Y-41877000D02*
X161671000Y-42952300D01*
X161070700Y-43552600D02*
X161671000Y-42952300D01*
X161070700Y-48485100D02*
X161070700Y-43552600D01*
X177304400Y-64718800D02*
X161070700Y-48485100D01*
X177887600Y-64718800D02*
X177304400Y-64718800D01*
X179649100Y-62957300D02*
X177887600Y-64718800D01*
X182499000Y-62957300D02*
X179649100Y-62957300D01*
X181356000Y-47531000D02*
X181356000Y-48606300D01*
X180628600Y-60597900D02*
X180681700Y-60651000D01*
X180628600Y-49333700D02*
X180628600Y-60597900D01*
X181356000Y-48606300D02*
X180628600Y-49333700D01*
X184399600Y-67125900D02*
X185656100Y-68382400D01*
X184399600Y-59550000D02*
X184399600Y-67125900D01*
X184312300Y-59462700D02*
X184399600Y-59550000D01*
X184312300Y-57540400D02*
X184312300Y-59462700D01*
X184369400Y-57483300D02*
X184312300Y-57540400D01*
X184369400Y-51380200D02*
X184369400Y-57483300D01*
X182626000Y-49636800D02*
X184369400Y-51380200D01*
X182626000Y-47531000D02*
X182626000Y-49636800D01*
X138691000Y-90551000D02*
X139606300Y-90551000D01*
X121445000Y-56388000D02*
X120369700Y-56388000D01*
X144926300Y-89395400D02*
X144926300Y-89281000D01*
X145114700Y-89583800D02*
X144926300Y-89395400D01*
X144011000Y-89281000D02*
X144926300Y-89281000D01*
X121699000Y-43307000D02*
X120623700Y-43307000D01*
X126341600Y-50027900D02*
X126341600Y-52916400D01*
X122795700Y-46482000D02*
X126341600Y-50027900D01*
X120848900Y-46482000D02*
X122795700Y-46482000D01*
X120623700Y-46256800D02*
X120848900Y-46482000D01*
X120623700Y-43307000D02*
X120623700Y-46256800D01*
X139606300Y-90551000D02*
X139791400Y-90365900D01*
X124771200Y-54486300D02*
X125175700Y-54081800D01*
X120579100Y-54486300D02*
X124771200Y-54486300D01*
X120369700Y-54695700D02*
X120579100Y-54486300D01*
X120369700Y-56388000D02*
X120369700Y-54695700D01*
X136499000Y-61139300D02*
X136424300Y-61214000D01*
X136615000Y-61139300D02*
X136499000Y-61139300D01*
X135349000Y-61214000D02*
X136424300Y-61214000D01*
X135857000Y-48260000D02*
X136932300Y-48260000D01*
X137382700Y-53479100D02*
X137342600Y-53519200D01*
X137382700Y-48710400D02*
X137382700Y-53479100D01*
X136932300Y-48260000D02*
X137382700Y-48710400D01*
X166624000Y-110015000D02*
X166624000Y-111090300D01*
X187071000Y-110523000D02*
X187071000Y-109447700D01*
X186817000Y-127160000D02*
X186817000Y-126084700D01*
X184467400Y-116394500D02*
X184467400Y-117676100D01*
X181390600Y-113317700D02*
X184467400Y-116394500D01*
X181390600Y-109567900D02*
X181390600Y-113317700D01*
X181510800Y-109447700D02*
X181390600Y-109567900D01*
X187071000Y-109447700D02*
X181510800Y-109447700D01*
X186147400Y-119356100D02*
X184467400Y-117676100D01*
X186147400Y-125415100D02*
X186147400Y-119356100D01*
X186817000Y-126084700D02*
X186147400Y-125415100D01*
X169578800Y-118336400D02*
X169197000Y-117954600D01*
X169578800Y-123237500D02*
X169578800Y-118336400D01*
X167640000Y-125176300D02*
X169578800Y-123237500D01*
X167640000Y-127160000D02*
X167640000Y-125176300D01*
X166624000Y-112188700D02*
X166624000Y-111090300D01*
X166311400Y-112501300D02*
X166624000Y-112188700D01*
X117595000Y-93599000D02*
X118510300Y-93599000D01*
X112275000Y-94869000D02*
X111359700Y-94869000D01*
X118510300Y-93876600D02*
X118686400Y-94052700D01*
X118510300Y-93599000D02*
X118510300Y-93876600D01*
X122588000Y-123317000D02*
X121512700Y-123317000D01*
X109213000Y-97015700D02*
X109182600Y-97015700D01*
X111359700Y-94869000D02*
X109213000Y-97015700D01*
X121274000Y-123317000D02*
X121199700Y-123242700D01*
X121512700Y-123317000D02*
X121274000Y-123317000D01*
X137537700Y-126873000D02*
X138075300Y-126873000D01*
X137537700Y-126873000D02*
X137000000Y-126873000D01*
X137000000Y-126873000D02*
X135924700Y-126873000D01*
X122461000Y-135382000D02*
X123536300Y-135382000D01*
X127176200Y-131742100D02*
X127176200Y-126406000D01*
X123536300Y-135382000D02*
X127176200Y-131742100D01*
X135924700Y-126770900D02*
X135924700Y-126873000D01*
X135740200Y-126586400D02*
X135924700Y-126770900D01*
X136517700Y-138938000D02*
X136746000Y-138938000D01*
X135670600Y-139785100D02*
X136517700Y-138938000D01*
X135670600Y-141955900D02*
X135670600Y-139785100D01*
X135793100Y-142078400D02*
X135670600Y-141955900D01*
X137630700Y-142078400D02*
X135793100Y-142078400D01*
X138280300Y-141428800D02*
X137630700Y-142078400D01*
X138280300Y-135428600D02*
X138280300Y-141428800D01*
X138233400Y-135381700D02*
X138280300Y-135428600D01*
X138233400Y-134863700D02*
X138233400Y-135381700D01*
X138559800Y-134537300D02*
X138233400Y-134863700D01*
X138559800Y-127357500D02*
X138559800Y-134537300D01*
X138075300Y-126873000D02*
X138559800Y-127357500D01*
X45306000Y-120650000D02*
X42584800Y-120650000D01*
X45560000Y-137414000D02*
X44484700Y-137414000D01*
X43298700Y-115042200D02*
X43728800Y-114612100D01*
X43298700Y-115042300D02*
X43298700Y-115042200D01*
X43298700Y-115401200D02*
X43298700Y-115042300D01*
X42090800Y-116609100D02*
X43298700Y-115401200D01*
X42090800Y-120156000D02*
X42090800Y-116609100D01*
X42584800Y-120650000D02*
X42090800Y-120156000D01*
X43298700Y-115042200D02*
X41413400Y-113157000D01*
X31148000Y-117094000D02*
X32223300Y-117094000D01*
X32449900Y-116867400D02*
X32223300Y-117094000D01*
X42052300Y-121182500D02*
X42052300Y-133604000D01*
X42584800Y-120650000D02*
X42052300Y-121182500D01*
X31148000Y-133604000D02*
X42052300Y-133604000D01*
X42052300Y-134981600D02*
X44484700Y-137414000D01*
X42052300Y-133604000D02*
X42052300Y-134981600D01*
X89255400Y-134217800D02*
X78756200Y-134217800D01*
X92028200Y-131445000D02*
X89255400Y-134217800D01*
X93439000Y-131445000D02*
X92028200Y-131445000D01*
X75030700Y-129403900D02*
X75030700Y-126365000D01*
X75166800Y-129540000D02*
X75030700Y-129403900D01*
X77208500Y-129540000D02*
X75166800Y-129540000D01*
X78756200Y-131087700D02*
X77208500Y-129540000D01*
X78756200Y-134217800D02*
X78756200Y-131087700D01*
X76106000Y-137922000D02*
X77181300Y-137922000D01*
X83697400Y-137093000D02*
X78010300Y-137093000D01*
X88844400Y-142240000D02*
X83697400Y-137093000D01*
X93439000Y-142240000D02*
X88844400Y-142240000D01*
X78010300Y-134963700D02*
X78010300Y-137093000D01*
X78756200Y-134217800D02*
X78010300Y-134963700D01*
X78010300Y-137093000D02*
X77181300Y-137922000D01*
X76106000Y-126365000D02*
X75030700Y-126365000D01*
X75304000Y-101219000D02*
X76219300Y-101219000D01*
X69984000Y-102489000D02*
X69068700Y-102489000D01*
X68580200Y-102000500D02*
X69068700Y-102489000D01*
X68580200Y-98094600D02*
X68580200Y-102000500D01*
X69091900Y-97582900D02*
X68580200Y-98094600D01*
X72318300Y-97582900D02*
X69091900Y-97582900D01*
X74049500Y-99314100D02*
X72318300Y-97582900D01*
X76067700Y-99314100D02*
X74049500Y-99314100D01*
X76219300Y-99465700D02*
X76067700Y-99314100D01*
X76219300Y-101219000D02*
X76219300Y-99465700D01*
X68029900Y-103527800D02*
X68029900Y-105966600D01*
X69068700Y-102489000D02*
X68029900Y-103527800D01*
X77181300Y-126298200D02*
X77181300Y-126365000D01*
X77364500Y-126115000D02*
X77181300Y-126298200D01*
X76106000Y-126365000D02*
X77181300Y-126365000D01*
X77496300Y-72146600D02*
X77496300Y-72009000D01*
X77723900Y-72374200D02*
X77496300Y-72146600D01*
X76421000Y-72009000D02*
X77496300Y-72009000D01*
X126671300Y-79599700D02*
X126514500Y-79442900D01*
X127017000Y-79599700D02*
X126671300Y-79599700D01*
X127017000Y-80900000D02*
X127017000Y-79599700D01*
X75345700Y-74699900D02*
X75345700Y-74549000D01*
X75156700Y-74888900D02*
X75345700Y-74699900D01*
X76421000Y-74549000D02*
X75345700Y-74549000D01*
X132698000Y-102869000D02*
X132698000Y-101568700D01*
X127174300Y-96045000D02*
X127174300Y-84916900D01*
X132698000Y-101568700D02*
X127174300Y-96045000D01*
X81821000Y-74549000D02*
X82896300Y-74549000D01*
X84692000Y-108584000D02*
X84692000Y-107283700D01*
X84692000Y-80330200D02*
X84692000Y-107283700D01*
X83392400Y-79030600D02*
X84692000Y-80330200D01*
X83392400Y-75045100D02*
X83392400Y-79030600D01*
X82896300Y-74549000D02*
X83392400Y-75045100D01*
X80745700Y-68948000D02*
X80745700Y-69469000D01*
X81025200Y-68668500D02*
X80745700Y-68948000D01*
X81821000Y-69469000D02*
X80745700Y-69469000D01*
X77623000Y-70865700D02*
X77496300Y-70739000D01*
X77726900Y-70865700D02*
X77623000Y-70865700D01*
X76421000Y-70739000D02*
X77496300Y-70739000D01*
X77877300Y-44638600D02*
X77877300Y-44831000D01*
X78422000Y-44093900D02*
X77877300Y-44638600D01*
X139606300Y-83881200D02*
X137549900Y-81824800D01*
X139606300Y-86741000D02*
X139606300Y-83881200D01*
X138691000Y-86741000D02*
X139606300Y-86741000D01*
X76802000Y-44831000D02*
X77877300Y-44831000D01*
X77923300Y-47417000D02*
X77877300Y-47371000D01*
X78078600Y-47417000D02*
X77923300Y-47417000D01*
X76802000Y-47371000D02*
X77877300Y-47371000D01*
X117595000Y-97409000D02*
X116679700Y-97409000D01*
X116679700Y-92186000D02*
X114073200Y-89579500D01*
X116679700Y-97409000D02*
X116679700Y-92186000D01*
X79729400Y-48768300D02*
X81126700Y-47371000D01*
X79729400Y-58423200D02*
X79729400Y-48768300D01*
X79806700Y-58500500D02*
X79729400Y-58423200D01*
X79806700Y-64901300D02*
X79806700Y-58500500D01*
X78833600Y-65874400D02*
X79806700Y-64901300D01*
X78833600Y-70624100D02*
X78833600Y-65874400D01*
X79068800Y-70859300D02*
X78833600Y-70624100D01*
X79068800Y-102179500D02*
X79068800Y-70859300D01*
X76219300Y-105029000D02*
X79068800Y-102179500D01*
X75304000Y-105029000D02*
X76219300Y-105029000D01*
X82202000Y-47371000D02*
X81126700Y-47371000D01*
X81126700Y-42411000D02*
X81126700Y-42291000D01*
X80940600Y-42597100D02*
X81126700Y-42411000D01*
X82202000Y-42291000D02*
X81126700Y-42291000D01*
X77877300Y-43322900D02*
X78052800Y-43147400D01*
X77877300Y-43561000D02*
X77877300Y-43322900D01*
X76802000Y-43561000D02*
X77877300Y-43561000D01*
X77056000Y-58039000D02*
X75980700Y-58039000D01*
X75980700Y-66869000D02*
X75980700Y-58039000D01*
X76961100Y-67849400D02*
X75980700Y-66869000D01*
X144011000Y-85471000D02*
X144926300Y-85471000D01*
X145307400Y-85089900D02*
X144926300Y-85471000D01*
X145307400Y-80220300D02*
X145307400Y-85089900D01*
X145116700Y-80029600D02*
X145307400Y-80220300D01*
X143294000Y-80029600D02*
X145116700Y-80029600D01*
X142827700Y-79563300D02*
X143294000Y-80029600D01*
X77056000Y-60579000D02*
X78131300Y-60579000D01*
X78256800Y-60453500D02*
X78131300Y-60579000D01*
X78315100Y-60453500D02*
X78256800Y-60453500D01*
X97105300Y-59929100D02*
X96431600Y-60602800D01*
X97918600Y-59929100D02*
X97105300Y-59929100D01*
X98623000Y-60633500D02*
X97918600Y-59929100D01*
X98623000Y-72565500D02*
X98623000Y-60633500D01*
X99137200Y-73079700D02*
X98623000Y-72565500D01*
X99137200Y-87885000D02*
X99137200Y-73079700D01*
X109931200Y-98679000D02*
X99137200Y-87885000D01*
X112275000Y-98679000D02*
X109931200Y-98679000D01*
X82456000Y-60579000D02*
X81380700Y-60579000D01*
X69984000Y-106299000D02*
X69068700Y-106299000D01*
X81380700Y-64227400D02*
X81380700Y-60579000D01*
X79485000Y-66123100D02*
X81380700Y-64227400D01*
X79485000Y-68916300D02*
X79485000Y-66123100D01*
X69068700Y-106299000D02*
X68884900Y-106115200D01*
X81373300Y-55491600D02*
X81380700Y-55499000D01*
X80846600Y-55491600D02*
X81373300Y-55491600D01*
X82456000Y-55499000D02*
X81380700Y-55499000D01*
X78199200Y-56836900D02*
X78131300Y-56769000D01*
X78339500Y-56836900D02*
X78199200Y-56836900D01*
X77056000Y-56769000D02*
X78131300Y-56769000D01*
X143476700Y-74295000D02*
X143476700Y-76835000D01*
X144392000Y-74295000D02*
X143476700Y-74295000D01*
X144392000Y-76835000D02*
X143476700Y-76835000D01*
X143476700Y-72540200D02*
X143476700Y-74295000D01*
X143787900Y-72229000D02*
X143476700Y-72540200D01*
X112402000Y-107315000D02*
X111486700Y-107315000D01*
X112402000Y-109855000D02*
X111599300Y-109855000D01*
X111486700Y-109742400D02*
X111486700Y-107315000D01*
X111599300Y-109855000D02*
X111486700Y-109742400D01*
X111458500Y-109995800D02*
X111458500Y-111773400D01*
X111599300Y-109855000D02*
X111458500Y-109995800D01*
X69984000Y-115062000D02*
X70899300Y-115062000D01*
X69984000Y-117602000D02*
X70899300Y-117602000D01*
X70899300Y-117602000D02*
X70899300Y-115062000D01*
X78593300Y-114446600D02*
X79605400Y-115458700D01*
X74261900Y-114446600D02*
X78593300Y-114446600D01*
X73646500Y-115062000D02*
X74261900Y-114446600D01*
X70899300Y-115062000D02*
X73646500Y-115062000D01*
X69240300Y-69690200D02*
X69365400Y-69690200D01*
X63266600Y-63716500D02*
X69240300Y-69690200D01*
X63266600Y-54772600D02*
X63266600Y-63716500D01*
X57846000Y-49352000D02*
X63266600Y-54772600D01*
X57846000Y-43561000D02*
X57846000Y-49352000D01*
X63942000Y-63507600D02*
X63942000Y-56515000D01*
X67624700Y-67190300D02*
X63942000Y-63507600D01*
X145307300Y-72601900D02*
X145538600Y-72370600D01*
X145307300Y-73025000D02*
X145307300Y-72601900D01*
X144392000Y-73025000D02*
X145307300Y-73025000D01*
X144392000Y-78105000D02*
X143476700Y-78105000D01*
X144721100Y-70338500D02*
X145611400Y-70338500D01*
X142969000Y-72090600D02*
X144721100Y-70338500D01*
X142969000Y-77597300D02*
X142969000Y-72090600D01*
X143476700Y-78105000D02*
X142969000Y-77597300D01*
X112402000Y-111855300D02*
X112496800Y-111950100D01*
X112402000Y-111125000D02*
X112402000Y-111855300D01*
X113317300Y-106101000D02*
X116083600Y-108867300D01*
X113317300Y-106045000D02*
X113317300Y-106101000D01*
X112402000Y-106045000D02*
X113317300Y-106045000D01*
X69496900Y-119800100D02*
X69754000Y-119800100D01*
X69068700Y-119371900D02*
X69496900Y-119800100D01*
X69068700Y-118872000D02*
X69068700Y-119371900D01*
X69984000Y-118872000D02*
X69068700Y-118872000D01*
X69984000Y-113792000D02*
X69068700Y-113792000D01*
X69068700Y-115298800D02*
X68167400Y-116200100D01*
X69068700Y-113792000D02*
X69068700Y-115298800D01*
X50375000Y-51562000D02*
X51350300Y-51562000D01*
X51535600Y-51562000D02*
X53133600Y-53160000D01*
X51350300Y-51562000D02*
X51535600Y-51562000D01*
X116045000Y-58928000D02*
X117120300Y-58928000D01*
X118384400Y-60192100D02*
X117120300Y-58928000D01*
X144392000Y-79375000D02*
X143476700Y-79375000D01*
X141838100Y-77180200D02*
X141838100Y-70971500D01*
X143476700Y-78818800D02*
X141838100Y-77180200D01*
X143476700Y-79375000D02*
X143476700Y-78818800D01*
X116045000Y-57658000D02*
X117120300Y-57658000D01*
X117120300Y-57846500D02*
X117120300Y-57658000D01*
X117311400Y-58037600D02*
X117120300Y-57846500D01*
X144392000Y-75565000D02*
X145307300Y-75565000D01*
X146272300Y-68171600D02*
X142789400Y-64688700D01*
X146272300Y-74600000D02*
X146272300Y-68171600D01*
X145307300Y-75565000D02*
X146272300Y-74600000D01*
X116299000Y-47117000D02*
X117374300Y-47117000D01*
X125747000Y-80900000D02*
X125747000Y-79599700D01*
X125747000Y-76929700D02*
X125747000Y-79599700D01*
X124306700Y-75489400D02*
X125747000Y-76929700D01*
X124190900Y-75489400D02*
X124306700Y-75489400D01*
X121336600Y-72635100D02*
X124190900Y-75489400D01*
X121336600Y-66547600D02*
X121336600Y-72635100D01*
X119848900Y-65059900D02*
X121336600Y-66547600D01*
X119848900Y-60904900D02*
X119848900Y-65059900D01*
X119929400Y-60824400D02*
X119848900Y-60904900D01*
X119929400Y-59559800D02*
X119929400Y-60824400D01*
X119476400Y-59106800D02*
X119929400Y-59559800D01*
X119476400Y-49219100D02*
X119476400Y-59106800D01*
X117374300Y-47117000D02*
X119476400Y-49219100D01*
X124462900Y-79599700D02*
X124270200Y-79407000D01*
X124477000Y-79599700D02*
X124462900Y-79599700D01*
X124477000Y-80900000D02*
X124477000Y-79599700D01*
X117374300Y-48758100D02*
X117374300Y-48387000D01*
X117589800Y-48973600D02*
X117374300Y-48758100D01*
X116299000Y-48387000D02*
X117374300Y-48387000D01*
X116299000Y-43307000D02*
X117374300Y-43307000D01*
X117374300Y-43488200D02*
X117374300Y-43307000D01*
X117562600Y-43676500D02*
X117374300Y-43488200D01*
X123207000Y-80900000D02*
X123207000Y-79599700D01*
X123151300Y-79599700D02*
X122973800Y-79422200D01*
X123207000Y-79599700D02*
X123151300Y-79599700D01*
X117374300Y-42427600D02*
X117374300Y-42037000D01*
X117515600Y-42568900D02*
X117374300Y-42427600D01*
X116299000Y-42037000D02*
X117374300Y-42037000D01*
X121937000Y-80900000D02*
X121937000Y-79599700D01*
X121937000Y-79599700D02*
X121760800Y-79423500D01*
X139858200Y-44773500D02*
X140181700Y-44450000D01*
X139858200Y-45862300D02*
X139858200Y-44773500D01*
X141257000Y-44450000D02*
X140181700Y-44450000D01*
X120667000Y-80900000D02*
X120667000Y-79599700D01*
X122045100Y-78221600D02*
X123554100Y-78221600D01*
X120667000Y-79599700D02*
X122045100Y-78221600D01*
X121409600Y-77587100D02*
X122440900Y-77587100D01*
X119397000Y-79599700D02*
X121409600Y-77587100D01*
X140046200Y-43044500D02*
X140181700Y-43180000D01*
X139976600Y-43044500D02*
X140046200Y-43044500D01*
X141257000Y-43180000D02*
X140181700Y-43180000D01*
X119397000Y-80900000D02*
X119397000Y-79599700D01*
X140181700Y-48270200D02*
X140181700Y-48260000D01*
X139979700Y-48472200D02*
X140181700Y-48270200D01*
X141257000Y-48260000D02*
X140181700Y-48260000D01*
X118127000Y-80900000D02*
X118127000Y-79599700D01*
X121088800Y-76637900D02*
X123363600Y-76637900D01*
X118127000Y-79599700D02*
X121088800Y-76637900D01*
X140181700Y-49715000D02*
X140181700Y-49530000D01*
X139969400Y-49927300D02*
X140181700Y-49715000D01*
X141257000Y-49530000D02*
X140181700Y-49530000D01*
X116857000Y-80900000D02*
X116857000Y-79599700D01*
X123844100Y-75986400D02*
X123972500Y-76114800D01*
X120470300Y-75986400D02*
X123844100Y-75986400D01*
X116857000Y-79599700D02*
X120470300Y-75986400D01*
X144128000Y-102869000D02*
X144128000Y-101568700D01*
X115587000Y-80900000D02*
X115587000Y-79599700D01*
X144128000Y-101426500D02*
X144166900Y-101387600D01*
X144128000Y-101568700D02*
X144128000Y-101426500D01*
X96153200Y-107283700D02*
X96122000Y-107283700D01*
X96340500Y-107096400D02*
X96153200Y-107283700D01*
X96122000Y-108584000D02*
X96122000Y-107283700D01*
X114974300Y-79599700D02*
X115587000Y-79599700D01*
X114193500Y-78818900D02*
X114974300Y-79599700D01*
X113184200Y-78818900D02*
X114193500Y-78818900D01*
X145398000Y-101401300D02*
X145863500Y-100935800D01*
X145398000Y-102869000D02*
X145398000Y-101401300D01*
X97392000Y-104212300D02*
X97308000Y-104128300D01*
X97392000Y-108584000D02*
X97392000Y-104212300D01*
X113851700Y-79599700D02*
X114317000Y-79599700D01*
X113751300Y-79499300D02*
X113851700Y-79599700D01*
X114317000Y-80900000D02*
X114317000Y-79599700D01*
X125747000Y-71500000D02*
X125747000Y-72800300D01*
X139673700Y-62484100D02*
X139673700Y-62484000D01*
X138829600Y-62484100D02*
X139673700Y-62484100D01*
X128006800Y-73306900D02*
X138829600Y-62484100D01*
X126253600Y-73306900D02*
X128006800Y-73306900D01*
X125747000Y-72800300D02*
X126253600Y-73306900D01*
X140749000Y-62484000D02*
X139673700Y-62484000D01*
X139375200Y-61214000D02*
X140749000Y-61214000D01*
X127788800Y-72800400D02*
X139375200Y-61214000D01*
X126594500Y-72800400D02*
X127788800Y-72800400D01*
X126384000Y-72589900D02*
X126594500Y-72800400D01*
X126384000Y-70426800D02*
X126384000Y-72589900D01*
X126156900Y-70199700D02*
X126384000Y-70426800D01*
X124477000Y-70199700D02*
X126156900Y-70199700D01*
X124477000Y-71500000D02*
X124477000Y-70199700D01*
X123207000Y-71500000D02*
X123207000Y-72800300D01*
X140749000Y-56134000D02*
X141824300Y-56134000D01*
X124164000Y-73757300D02*
X123207000Y-72800300D01*
X128450600Y-73757300D02*
X124164000Y-73757300D01*
X139090900Y-63117000D02*
X128450600Y-73757300D01*
X141654900Y-63117000D02*
X139090900Y-63117000D01*
X142274600Y-62497300D02*
X141654900Y-63117000D01*
X142274600Y-56584300D02*
X142274600Y-62497300D01*
X141824300Y-56134000D02*
X142274600Y-56584300D01*
X140749000Y-57404000D02*
X139673700Y-57404000D01*
X121937000Y-66456600D02*
X121937000Y-71500000D01*
X120369600Y-64889200D02*
X121937000Y-66456600D01*
X120369600Y-61056000D02*
X120369600Y-64889200D01*
X120558000Y-60867600D02*
X120369600Y-61056000D01*
X122738700Y-60867600D02*
X120558000Y-60867600D01*
X125602000Y-58004300D02*
X122738700Y-60867600D01*
X139073400Y-58004300D02*
X125602000Y-58004300D01*
X139673700Y-57404000D02*
X139073400Y-58004300D01*
X120667000Y-71500000D02*
X120667000Y-70199700D01*
X116045000Y-55118000D02*
X117120300Y-55118000D01*
X118869900Y-56867600D02*
X117120300Y-55118000D01*
X118869900Y-59137200D02*
X118869900Y-56867600D01*
X119479100Y-59746400D02*
X118869900Y-59137200D01*
X119479100Y-60637800D02*
X119479100Y-59746400D01*
X119398600Y-60718300D02*
X119479100Y-60637800D01*
X119398600Y-68931300D02*
X119398600Y-60718300D01*
X120667000Y-70199700D02*
X119398600Y-68931300D01*
X119397000Y-71500000D02*
X119397000Y-70199700D01*
X116045000Y-56388000D02*
X117120300Y-56388000D01*
X117944800Y-57212500D02*
X117120300Y-56388000D01*
X117944800Y-58849100D02*
X117944800Y-57212500D01*
X119028800Y-59933100D02*
X117944800Y-58849100D01*
X119028800Y-60451200D02*
X119028800Y-59933100D01*
X118947600Y-60532400D02*
X119028800Y-60451200D01*
X118947600Y-69750300D02*
X118947600Y-60532400D01*
X119397000Y-70199700D02*
X118947600Y-69750300D01*
X118127000Y-71500000D02*
X118127000Y-70199700D01*
X116045000Y-61468000D02*
X117120300Y-61468000D01*
X118127000Y-62474700D02*
X117120300Y-61468000D01*
X118127000Y-70199700D02*
X118127000Y-62474700D01*
X116857000Y-71500000D02*
X116857000Y-70199700D01*
X116045000Y-60198000D02*
X114969700Y-60198000D01*
X114465800Y-67808500D02*
X116857000Y-70199700D01*
X114465800Y-60701900D02*
X114465800Y-67808500D01*
X114969700Y-60198000D02*
X114465800Y-60701900D01*
X100869300Y-70199700D02*
X114317000Y-70199700D01*
X100076000Y-70993000D02*
X100869300Y-70199700D01*
X114317000Y-71500000D02*
X114317000Y-70199700D01*
X145398000Y-110676100D02*
X145398000Y-112269000D01*
X157822000Y-98252100D02*
X145398000Y-110676100D01*
X157822000Y-96327900D02*
X157822000Y-98252100D01*
X97392000Y-111764200D02*
X97392000Y-117984000D01*
X95501400Y-109873600D02*
X97392000Y-111764200D01*
X95501400Y-93447600D02*
X95501400Y-109873600D01*
X94052500Y-91998700D02*
X95501400Y-93447600D01*
X113047000Y-71500000D02*
X113047000Y-72800300D01*
X112596800Y-72800300D02*
X113047000Y-72800300D01*
X111979100Y-72182600D02*
X112596800Y-72800300D01*
X99974100Y-72182600D02*
X111979100Y-72182600D01*
X99137000Y-71345500D02*
X99974100Y-72182600D01*
X99137000Y-69392000D02*
X99137000Y-71345500D01*
X100076000Y-68453000D02*
X99137000Y-69392000D01*
X98662000Y-117984000D02*
X98662000Y-116683700D01*
X146668000Y-112269000D02*
X146668000Y-110968700D01*
X159142000Y-98494700D02*
X159142000Y-96230200D01*
X146668000Y-110968700D02*
X159142000Y-98494700D01*
X98061700Y-116083400D02*
X98662000Y-116683700D01*
X98061700Y-99926100D02*
X98061700Y-116083400D01*
X97068600Y-98933000D02*
X98061700Y-99926100D01*
X97068600Y-90434000D02*
X97068600Y-98933000D01*
X94079800Y-87445200D02*
X97068600Y-90434000D01*
X144011000Y-88011000D02*
X144926300Y-88011000D01*
X135857000Y-45720000D02*
X136932300Y-45720000D01*
X146742400Y-86194900D02*
X144926300Y-88011000D01*
X146742400Y-58427000D02*
X146742400Y-86194900D01*
X138548900Y-50233500D02*
X146742400Y-58427000D01*
X138548900Y-47336600D02*
X138548900Y-50233500D01*
X136932300Y-45720000D02*
X138548900Y-47336600D01*
X138098500Y-48156200D02*
X136932300Y-46990000D01*
X138098500Y-50501300D02*
X138098500Y-48156200D01*
X143191100Y-55593900D02*
X138098500Y-50501300D01*
X143191100Y-63323500D02*
X143191100Y-55593900D01*
X140638200Y-65876400D02*
X143191100Y-63323500D01*
X140638200Y-88249100D02*
X140638200Y-65876400D01*
X139606300Y-89281000D02*
X140638200Y-88249100D01*
X138691000Y-89281000D02*
X139606300Y-89281000D01*
X135857000Y-46990000D02*
X136932300Y-46990000D01*
X116299000Y-44577000D02*
X117374300Y-44577000D01*
X118941100Y-46143800D02*
X117374300Y-44577000D01*
X118941100Y-47199600D02*
X118941100Y-46143800D01*
X135349000Y-59944000D02*
X134273700Y-59944000D01*
X128434300Y-59944000D02*
X127652900Y-59162600D01*
X134273700Y-59944000D02*
X128434300Y-59944000D01*
X117468700Y-45752600D02*
X117374300Y-45847000D01*
X117575600Y-45752600D02*
X117468700Y-45752600D01*
X135349000Y-58674000D02*
X134273700Y-58674000D01*
X116299000Y-45847000D02*
X117374300Y-45847000D01*
X126987600Y-58513300D02*
X126563600Y-58937300D01*
X134113000Y-58513300D02*
X126987600Y-58513300D01*
X134273700Y-58674000D02*
X134113000Y-58513300D01*
X165100000Y-120157500D02*
X166766800Y-118490700D01*
X165100000Y-121760000D02*
X165100000Y-120157500D01*
X166370000Y-121760000D02*
X166370000Y-120684700D01*
X166585100Y-120469600D02*
X166692500Y-120469600D01*
X166370000Y-120684700D02*
X166585100Y-120469600D01*
X118263300Y-128875600D02*
X118263300Y-127127000D01*
X118141500Y-128997400D02*
X118263300Y-128875600D01*
X116245800Y-128997400D02*
X118141500Y-128997400D01*
X114719800Y-127471400D02*
X116245800Y-128997400D01*
X114719800Y-121052800D02*
X114719800Y-127471400D01*
X131603300Y-104169300D02*
X114719800Y-121052800D01*
X133968000Y-104169300D02*
X131603300Y-104169300D01*
X133968000Y-102869000D02*
X133968000Y-104169300D01*
X117188000Y-127127000D02*
X118263300Y-127127000D01*
X135238000Y-102869000D02*
X135238000Y-104169300D01*
X134564900Y-104842400D02*
X135238000Y-104169300D01*
X134564900Y-104842500D02*
X134564900Y-104842400D01*
X131593900Y-104842500D02*
X134564900Y-104842500D01*
X115170200Y-121266200D02*
X131593900Y-104842500D01*
X115170200Y-126598400D02*
X115170200Y-121266200D01*
X116968800Y-128397000D02*
X115170200Y-126598400D01*
X117188000Y-128397000D02*
X116968800Y-128397000D01*
X116959700Y-123317000D02*
X117188000Y-123317000D01*
X116112600Y-122469900D02*
X116959700Y-123317000D01*
X116112600Y-121622300D02*
X116112600Y-122469900D01*
X116322900Y-121412000D02*
X116112600Y-121622300D01*
X119265300Y-121412000D02*
X116322900Y-121412000D01*
X136508000Y-104169300D02*
X119265300Y-121412000D01*
X136508000Y-102869000D02*
X136508000Y-104169300D01*
X119305900Y-122047000D02*
X117188000Y-122047000D01*
X137183600Y-104169300D02*
X119305900Y-122047000D01*
X137778000Y-104169300D02*
X137183600Y-104169300D01*
X137778000Y-102869000D02*
X137778000Y-104169300D01*
X141324700Y-122862100D02*
X141324700Y-123063000D01*
X141125400Y-122662800D02*
X141324700Y-122862100D01*
X142400000Y-123063000D02*
X141324700Y-123063000D01*
X139048000Y-102869000D02*
X139048000Y-104169300D01*
X139103900Y-104225200D02*
X139103900Y-104364400D01*
X139048000Y-104169300D02*
X139103900Y-104225200D01*
X140484300Y-104335600D02*
X140484300Y-104360000D01*
X140318000Y-104169300D02*
X140484300Y-104335600D01*
X140318000Y-102869000D02*
X140318000Y-104169300D01*
X142400000Y-121793000D02*
X143475300Y-121793000D01*
X143556600Y-121711700D02*
X143673300Y-121711700D01*
X143475300Y-121793000D02*
X143556600Y-121711700D01*
X141324700Y-126846900D02*
X141324700Y-126873000D01*
X141123500Y-126645700D02*
X141324700Y-126846900D01*
X142400000Y-126873000D02*
X141324700Y-126873000D01*
X141588000Y-102869000D02*
X141588000Y-104169300D01*
X141723500Y-104304800D02*
X141723500Y-108425300D01*
X141588000Y-104169300D02*
X141723500Y-104304800D01*
X143660800Y-127957500D02*
X143475300Y-128143000D01*
X143660800Y-126781300D02*
X143660800Y-127957500D01*
X142858000Y-102869000D02*
X142858000Y-104169300D01*
X142400000Y-128143000D02*
X143475300Y-128143000D01*
X143458300Y-104769600D02*
X142858000Y-104169300D01*
X143458300Y-115971900D02*
X143458300Y-104769600D01*
X143015600Y-116414600D02*
X143458300Y-115971900D01*
X133968000Y-112269000D02*
X133968000Y-113569300D01*
X142146000Y-140208000D02*
X141070700Y-140208000D01*
X139484000Y-138621300D02*
X141070700Y-140208000D01*
X139484000Y-133784200D02*
X139484000Y-138621300D01*
X139010200Y-133310400D02*
X139484000Y-133784200D01*
X139010200Y-118611500D02*
X139010200Y-133310400D01*
X133968000Y-113569300D02*
X139010200Y-118611500D01*
X135238000Y-112269000D02*
X135238000Y-113569300D01*
X142146000Y-138938000D02*
X141070700Y-138938000D01*
X140002300Y-137869600D02*
X141070700Y-138938000D01*
X140002300Y-133028800D02*
X140002300Y-137869600D01*
X139460600Y-132487100D02*
X140002300Y-133028800D01*
X139460600Y-117791900D02*
X139460600Y-132487100D01*
X135238000Y-113569300D02*
X139460600Y-117791900D01*
X142146000Y-133858000D02*
X141070700Y-133858000D01*
X136508000Y-112269000D02*
X136508000Y-113569300D01*
X141070700Y-129076300D02*
X141070700Y-133858000D01*
X139931800Y-127937400D02*
X141070700Y-129076300D01*
X139931800Y-116993100D02*
X139931800Y-127937400D01*
X136508000Y-113569300D02*
X139931800Y-116993100D01*
X144970800Y-133378500D02*
X143221300Y-135128000D01*
X144970800Y-120762100D02*
X144970800Y-133378500D01*
X137778000Y-113569300D02*
X144970800Y-120762100D01*
X137778000Y-112269000D02*
X137778000Y-113569300D01*
X142146000Y-135128000D02*
X143221300Y-135128000D01*
X139048000Y-112269000D02*
X139048000Y-110968700D01*
X117061000Y-134112000D02*
X118136300Y-134112000D01*
X120166600Y-132081700D02*
X118136300Y-134112000D01*
X120166600Y-122921500D02*
X120166600Y-132081700D01*
X121710700Y-121377400D02*
X120166600Y-122921500D01*
X123479500Y-121377400D02*
X121710700Y-121377400D01*
X126622600Y-118234300D02*
X123479500Y-121377400D01*
X126622600Y-115973400D02*
X126622600Y-118234300D01*
X132077600Y-110518400D02*
X126622600Y-115973400D01*
X138597700Y-110518400D02*
X132077600Y-110518400D01*
X139048000Y-110968700D02*
X138597700Y-110518400D01*
X121568400Y-131949900D02*
X118136300Y-135382000D01*
X121792200Y-131949900D02*
X121568400Y-131949900D01*
X125194600Y-128547500D02*
X121792200Y-131949900D01*
X125194600Y-127502600D02*
X125194600Y-128547500D01*
X127351000Y-125346200D02*
X125194600Y-127502600D01*
X127351000Y-115885800D02*
X127351000Y-125346200D01*
X132268100Y-110968700D02*
X127351000Y-115885800D01*
X138187800Y-110968700D02*
X132268100Y-110968700D01*
X138447600Y-111228500D02*
X138187800Y-110968700D01*
X138447600Y-113474900D02*
X138447600Y-111228500D01*
X138542000Y-113569300D02*
X138447600Y-113474900D01*
X140318000Y-113569300D02*
X138542000Y-113569300D01*
X140318000Y-112269000D02*
X140318000Y-113569300D01*
X117061000Y-135382000D02*
X118136300Y-135382000D01*
X115985700Y-140210800D02*
X115792200Y-140017300D01*
X115985700Y-140462000D02*
X115985700Y-140210800D01*
X141588000Y-112269000D02*
X141588000Y-113569300D01*
X141005400Y-113569300D02*
X140333900Y-114240800D01*
X141588000Y-113569300D02*
X141005400Y-113569300D01*
X117061000Y-140462000D02*
X115985700Y-140462000D01*
X115791600Y-139192000D02*
X117061000Y-139192000D01*
X141029400Y-110968700D02*
X140487000Y-110426300D01*
X142858000Y-110968700D02*
X141029400Y-110968700D01*
X142858000Y-112269000D02*
X142858000Y-110968700D01*
X112275000Y-96139000D02*
X113190300Y-96139000D01*
X113190300Y-99163300D02*
X112876900Y-99476700D01*
X113190300Y-96139000D02*
X113190300Y-99163300D01*
X137000000Y-124333000D02*
X135924700Y-124333000D01*
X135924700Y-124333000D02*
X135727500Y-124135800D01*
X138266400Y-125411900D02*
X138075300Y-125603000D01*
X138266400Y-124292700D02*
X138266400Y-125411900D01*
X116779000Y-112357100D02*
X117388100Y-112966200D01*
X116779000Y-107170800D02*
X116779000Y-112357100D01*
X116638800Y-107030600D02*
X116779000Y-107170800D01*
X116638800Y-98288900D02*
X116638800Y-107030600D01*
X116903300Y-98024400D02*
X116638800Y-98288900D01*
X118319700Y-98024400D02*
X116903300Y-98024400D01*
X118510300Y-97833800D02*
X118319700Y-98024400D01*
X118510300Y-94869000D02*
X118510300Y-97833800D01*
X117595000Y-94869000D02*
X118510300Y-94869000D01*
X137000000Y-125603000D02*
X138075300Y-125603000D01*
X168910000Y-119035900D02*
X161147400Y-111273300D01*
X168910000Y-121760000D02*
X168910000Y-119035900D01*
X167640000Y-121760000D02*
X167640000Y-120684700D01*
X159162000Y-111433300D02*
X159162000Y-102125000D01*
X161951900Y-114223200D02*
X159162000Y-111433300D01*
X163426900Y-114223200D02*
X161951900Y-114223200D01*
X167640000Y-118436300D02*
X163426900Y-114223200D01*
X167640000Y-120684700D02*
X167640000Y-118436300D01*
X163830000Y-119197900D02*
X163830000Y-121760000D01*
X163748900Y-119116800D02*
X163830000Y-119197900D01*
X162560000Y-116734300D02*
X162560000Y-121760000D01*
X161762700Y-115937000D02*
X162560000Y-116734300D01*
X167894000Y-103332200D02*
X167894000Y-104615000D01*
X167163500Y-105690300D02*
X166624000Y-105690300D01*
X167373500Y-105900300D02*
X167163500Y-105690300D01*
X166624000Y-104615000D02*
X166624000Y-105690300D01*
X185547000Y-127160000D02*
X185547000Y-126084700D01*
X165764300Y-105690300D02*
X165974300Y-105900300D01*
X165354000Y-105690300D02*
X165764300Y-105690300D01*
X165354000Y-104615000D02*
X165354000Y-105690300D01*
X185427100Y-126084700D02*
X185240100Y-125897700D01*
X185547000Y-126084700D02*
X185427100Y-126084700D01*
X184363600Y-125998100D02*
X184363600Y-125888900D01*
X184277000Y-126084700D02*
X184363600Y-125998100D01*
X184277000Y-127160000D02*
X184277000Y-126084700D01*
X164084000Y-105064900D02*
X164084000Y-104615000D01*
X167204300Y-108185200D02*
X164084000Y-105064900D01*
X162814000Y-104615000D02*
X162814000Y-105690300D01*
X163557400Y-105690300D02*
X162814000Y-105690300D01*
X166593700Y-108726600D02*
X163557400Y-105690300D01*
X161544000Y-104615000D02*
X161544000Y-105690300D01*
X161864600Y-105690300D02*
X163375100Y-107200800D01*
X161544000Y-105690300D02*
X161864600Y-105690300D01*
X188087000Y-117413400D02*
X188087000Y-121760000D01*
X183017900Y-112344300D02*
X188087000Y-117413400D01*
X183017900Y-111773500D02*
X183017900Y-112344300D01*
X186817000Y-117027900D02*
X186817000Y-121760000D01*
X183328900Y-113539800D02*
X186817000Y-117027900D01*
X182621500Y-121374500D02*
X183007000Y-121760000D01*
X182621500Y-116282200D02*
X182621500Y-121374500D01*
X171604700Y-105265400D02*
X182621500Y-116282200D01*
X181737000Y-116723000D02*
X171549300Y-106535300D01*
X181737000Y-121760000D02*
X181737000Y-116723000D01*
X184531000Y-110523000D02*
X184531000Y-111598300D01*
X184531000Y-111598300D02*
X184531000Y-111791800D01*
X185801000Y-111954700D02*
X185249800Y-112505900D01*
X185801000Y-110523000D02*
X185801000Y-111954700D01*
X188341000Y-105123000D02*
X188341000Y-104047700D01*
X188341000Y-104047700D02*
X183878300Y-99585000D01*
X184349200Y-101325900D02*
X187071000Y-104047700D01*
X171549300Y-101325900D02*
X184349200Y-101325900D01*
X187071000Y-105123000D02*
X187071000Y-104047700D01*
X183261000Y-105123000D02*
X183261000Y-104047700D01*
X183261000Y-104047700D02*
X183054600Y-103841300D01*
X181991000Y-105123000D02*
X181991000Y-104047700D01*
X181118100Y-103174800D02*
X181991000Y-104047700D01*
X115985700Y-137302600D02*
X115985700Y-137922000D01*
X110796100Y-132113000D02*
X115985700Y-137302600D01*
X110796100Y-105465600D02*
X110796100Y-132113000D01*
X111486700Y-104775000D02*
X110796100Y-105465600D01*
X112402000Y-104775000D02*
X111486700Y-104775000D01*
X117061000Y-137922000D02*
X115985700Y-137922000D01*
X112402000Y-108585000D02*
X113317300Y-108585000D01*
X117061000Y-136652000D02*
X115985700Y-136652000D01*
X114183500Y-134849800D02*
X115985700Y-136652000D01*
X114183500Y-109451200D02*
X114183500Y-134849800D01*
X113317300Y-108585000D02*
X114183500Y-109451200D01*
X71781300Y-129956700D02*
X71781300Y-130175000D01*
X72061900Y-129676100D02*
X71781300Y-129956700D01*
X70706000Y-130175000D02*
X71781300Y-130175000D01*
X85962000Y-108584000D02*
X85962000Y-109884300D01*
X84672700Y-109884300D02*
X80458200Y-114098800D01*
X85962000Y-109884300D02*
X84672700Y-109884300D01*
X87232000Y-108584000D02*
X87232000Y-109884300D01*
X70706000Y-131445000D02*
X69630700Y-131445000D01*
X68730100Y-130544400D02*
X69630700Y-131445000D01*
X68730100Y-121708400D02*
X68730100Y-130544400D01*
X72543400Y-117895100D02*
X68730100Y-121708400D01*
X72543400Y-117685600D02*
X72543400Y-117895100D01*
X74512300Y-115716700D02*
X72543400Y-117685600D01*
X78979100Y-115716700D02*
X74512300Y-115716700D01*
X79346400Y-116084000D02*
X78979100Y-115716700D01*
X81032300Y-116084000D02*
X79346400Y-116084000D01*
X87232000Y-109884300D02*
X81032300Y-116084000D01*
X88502000Y-108584000D02*
X88502000Y-109884300D01*
X70706000Y-126365000D02*
X69630700Y-126365000D01*
X69180400Y-125914700D02*
X69630700Y-126365000D01*
X69180400Y-122346100D02*
X69180400Y-125914700D01*
X74579100Y-116947400D02*
X69180400Y-122346100D01*
X81438900Y-116947400D02*
X74579100Y-116947400D01*
X88502000Y-109884300D02*
X81438900Y-116947400D01*
X72730600Y-124145700D02*
X71781300Y-125095000D01*
X72730600Y-120104700D02*
X72730600Y-124145700D01*
X74617900Y-118217400D02*
X72730600Y-120104700D01*
X81438900Y-118217400D02*
X74617900Y-118217400D01*
X89772000Y-109884300D02*
X81438900Y-118217400D01*
X89772000Y-108584000D02*
X89772000Y-109884300D01*
X70706000Y-125095000D02*
X71781300Y-125095000D01*
X97763700Y-127259800D02*
X97763700Y-127635000D01*
X92388200Y-121884300D02*
X97763700Y-127259800D01*
X91961400Y-121884300D02*
X92388200Y-121884300D01*
X89171600Y-119094500D02*
X91961400Y-121884300D01*
X89171600Y-115413200D02*
X89171600Y-119094500D01*
X91042000Y-113542800D02*
X89171600Y-115413200D01*
X91042000Y-108584000D02*
X91042000Y-113542800D01*
X98839000Y-127635000D02*
X97763700Y-127635000D01*
X95477400Y-124078700D02*
X97763700Y-126365000D01*
X95477400Y-113970100D02*
X95477400Y-124078700D01*
X92312000Y-110804700D02*
X95477400Y-113970100D01*
X92312000Y-108584000D02*
X92312000Y-110804700D01*
X98839000Y-126365000D02*
X97763700Y-126365000D01*
X100013200Y-131346100D02*
X99914300Y-131445000D01*
X100119200Y-131346100D02*
X100013200Y-131346100D01*
X98839000Y-131445000D02*
X99914300Y-131445000D01*
X93623200Y-109925500D02*
X93623200Y-110069100D01*
X93582000Y-109884300D02*
X93623200Y-109925500D01*
X93582000Y-108584000D02*
X93582000Y-109884300D01*
X94918700Y-109951000D02*
X94918700Y-110175300D01*
X94852000Y-109884300D02*
X94918700Y-109951000D01*
X99914300Y-132491400D02*
X99914300Y-132715000D01*
X100115400Y-132290300D02*
X99914300Y-132491400D01*
X98839000Y-132715000D02*
X99914300Y-132715000D01*
X94852000Y-108584000D02*
X94852000Y-109884300D01*
X85962000Y-117984000D02*
X85962000Y-119284300D01*
X98839000Y-143510000D02*
X99914300Y-143510000D01*
X91103000Y-124425300D02*
X85962000Y-119284300D01*
X94273400Y-124425300D02*
X91103000Y-124425300D01*
X97272400Y-127424300D02*
X94273400Y-124425300D01*
X97272400Y-127781100D02*
X97272400Y-127424300D01*
X97726700Y-128235400D02*
X97272400Y-127781100D01*
X99655000Y-128235400D02*
X97726700Y-128235400D01*
X101101300Y-129681700D02*
X99655000Y-128235400D01*
X101101300Y-142323000D02*
X101101300Y-129681700D01*
X99914300Y-143510000D02*
X101101300Y-142323000D01*
X98839000Y-142240000D02*
X99914300Y-142240000D01*
X99994200Y-142160100D02*
X100098100Y-142160100D01*
X99914300Y-142240000D02*
X99994200Y-142160100D01*
X87252300Y-119284300D02*
X87435300Y-119467300D01*
X87232000Y-119284300D02*
X87252300Y-119284300D01*
X87232000Y-117984000D02*
X87232000Y-119284300D01*
X99914300Y-136588100D02*
X99914300Y-137160000D01*
X100035700Y-136466700D02*
X99914300Y-136588100D01*
X98839000Y-137160000D02*
X99914300Y-137160000D01*
X88467000Y-119284300D02*
X88283000Y-119468300D01*
X88502000Y-119284300D02*
X88467000Y-119284300D01*
X88502000Y-117984000D02*
X88502000Y-119284300D01*
X89772000Y-117984000D02*
X89772000Y-116683700D01*
X98839000Y-138430000D02*
X97763700Y-138430000D01*
X97004000Y-137670300D02*
X97004000Y-133024000D01*
X97763700Y-138430000D02*
X97004000Y-137670300D01*
X94182400Y-116832100D02*
X94182400Y-119342900D01*
X94034000Y-116683700D02*
X94182400Y-116832100D01*
X89772000Y-116683700D02*
X94034000Y-116683700D01*
X71822900Y-136693600D02*
X71781300Y-136652000D01*
X71963000Y-136693600D02*
X71822900Y-136693600D01*
X70706000Y-136652000D02*
X71781300Y-136652000D01*
X91042000Y-117984000D02*
X91042000Y-119284300D01*
X91042000Y-119284300D02*
X90839300Y-119487000D01*
X71804400Y-137898900D02*
X71781300Y-137922000D01*
X71975600Y-137898900D02*
X71804400Y-137898900D01*
X70706000Y-137922000D02*
X71781300Y-137922000D01*
X92312000Y-117984000D02*
X92312000Y-119284300D01*
X92304300Y-119284300D02*
X92104800Y-119483800D01*
X92312000Y-119284300D02*
X92304300Y-119284300D01*
X71860500Y-142922800D02*
X71781300Y-143002000D01*
X71976000Y-142922800D02*
X71860500Y-142922800D01*
X70706000Y-143002000D02*
X71781300Y-143002000D01*
X93582000Y-119055500D02*
X93171800Y-119465700D01*
X93582000Y-117984000D02*
X93582000Y-119055500D01*
X72303500Y-141209800D02*
X71781300Y-141732000D01*
X72395000Y-141209800D02*
X72303500Y-141209800D01*
X70706000Y-141732000D02*
X71781300Y-141732000D01*
X94852000Y-119651500D02*
X94207400Y-120296100D01*
X94852000Y-117984000D02*
X94852000Y-119651500D01*
X70899300Y-107228200D02*
X70859400Y-107268100D01*
X70899300Y-103759000D02*
X70899300Y-107228200D01*
X92363700Y-128686700D02*
X92363700Y-128905000D01*
X86874200Y-123197200D02*
X92363700Y-128686700D01*
X93439000Y-128905000D02*
X92363700Y-128905000D01*
X69984000Y-103759000D02*
X70899300Y-103759000D01*
X93439000Y-130175000D02*
X92363700Y-130175000D01*
X75304000Y-102489000D02*
X76459900Y-102489000D01*
X92363700Y-130175000D02*
X86139600Y-123950900D01*
X118263300Y-124976200D02*
X118263300Y-124587000D01*
X118422100Y-125135000D02*
X118263300Y-124976200D01*
X117188000Y-124587000D02*
X118263300Y-124587000D01*
X134102600Y-139236100D02*
X134102600Y-140849800D01*
X135670700Y-137668000D02*
X134102600Y-139236100D01*
X136746000Y-137668000D02*
X135670700Y-137668000D01*
X117188000Y-125857000D02*
X116112700Y-125857000D01*
X134012400Y-136398000D02*
X129565100Y-140845300D01*
X136746000Y-136398000D02*
X134012400Y-136398000D01*
X116112700Y-125857000D02*
X115913200Y-126056500D01*
X69984000Y-112522000D02*
X69068700Y-112522000D01*
X70706000Y-140462000D02*
X69630700Y-140462000D01*
X67542100Y-138373400D02*
X69630700Y-140462000D01*
X67542100Y-114048600D02*
X67542100Y-138373400D01*
X69068700Y-112522000D02*
X67542100Y-114048600D01*
X69984000Y-116332000D02*
X69068700Y-116332000D01*
X70706000Y-139192000D02*
X69630700Y-139192000D01*
X68279800Y-137841100D02*
X69630700Y-139192000D01*
X68279800Y-117120900D02*
X68279800Y-137841100D01*
X69068700Y-116332000D02*
X68279800Y-117120900D01*
X26823300Y-137295400D02*
X26823300Y-137414000D01*
X27022900Y-137095800D02*
X26823300Y-137295400D01*
X25748000Y-137414000D02*
X26823300Y-137414000D01*
X26823300Y-138178700D02*
X26823300Y-138684000D01*
X26903900Y-138098100D02*
X26823300Y-138178700D01*
X25748000Y-138684000D02*
X26823300Y-138684000D01*
X27024800Y-133604000D02*
X25748000Y-133604000D01*
X25748000Y-132334000D02*
X26823300Y-132334000D01*
X38335900Y-113332500D02*
X48174400Y-103494000D01*
X38335900Y-120821400D02*
X38335900Y-113332500D01*
X26823300Y-132334000D02*
X38335900Y-120821400D01*
X50960000Y-133604000D02*
X49884700Y-133604000D01*
X49421300Y-128003700D02*
X49728900Y-127696100D01*
X49421300Y-133140600D02*
X49421300Y-128003700D01*
X49884700Y-133604000D02*
X49421300Y-133140600D01*
X50960000Y-132334000D02*
X52035300Y-132334000D01*
X52714100Y-103748500D02*
X52458900Y-103493300D01*
X52714100Y-131655200D02*
X52714100Y-103748500D01*
X52035300Y-132334000D02*
X52714100Y-131655200D01*
X50960000Y-137414000D02*
X52035300Y-137414000D01*
X53581500Y-135867800D02*
X53581500Y-103486500D01*
X52035300Y-137414000D02*
X53581500Y-135867800D01*
X54331100Y-136388200D02*
X52035300Y-138684000D01*
X54331100Y-131674800D02*
X54331100Y-136388200D01*
X50960000Y-138684000D02*
X52035300Y-138684000D01*
X49630700Y-121487900D02*
X49630700Y-121920000D01*
X49501200Y-121358400D02*
X49630700Y-121487900D01*
X50706000Y-121920000D02*
X49630700Y-121920000D01*
X49470500Y-120489800D02*
X49630700Y-120650000D01*
X49414400Y-120489800D02*
X49470500Y-120489800D01*
X50706000Y-120650000D02*
X49630700Y-120650000D01*
X48897900Y-94390700D02*
X48581100Y-94073900D01*
X48897900Y-114837200D02*
X48897900Y-94390700D01*
X49630700Y-115570000D02*
X48897900Y-114837200D01*
X50706000Y-115570000D02*
X49630700Y-115570000D01*
X50706000Y-116840000D02*
X51781300Y-116840000D01*
X52242100Y-116379200D02*
X51781300Y-116840000D01*
X52242100Y-109198600D02*
X52242100Y-116379200D01*
X49711900Y-106668400D02*
X52242100Y-109198600D01*
X49711900Y-91171300D02*
X49711900Y-106668400D01*
X49787000Y-91096200D02*
X49711900Y-91171300D01*
X25748000Y-115824000D02*
X26823300Y-115824000D01*
X26823300Y-110661200D02*
X42605900Y-94878600D01*
X26823300Y-115824000D02*
X26823300Y-110661200D01*
X27305100Y-116612200D02*
X26823300Y-117094000D01*
X27305100Y-111846500D02*
X27305100Y-116612200D01*
X42299400Y-96852200D02*
X27305100Y-111846500D01*
X25748000Y-117094000D02*
X26823300Y-117094000D01*
X25748000Y-122174000D02*
X26823300Y-122174000D01*
X27001800Y-121995500D02*
X26823300Y-122174000D01*
X26975600Y-120904000D02*
X25748000Y-120904000D01*
X27003300Y-120876300D02*
X26975600Y-120904000D01*
X47444500Y-122542700D02*
X47065000Y-122163200D01*
X47444500Y-134064800D02*
X47444500Y-122542700D01*
X46635300Y-134874000D02*
X47444500Y-134064800D01*
X45560000Y-134874000D02*
X46635300Y-134874000D01*
X45560000Y-136144000D02*
X44484700Y-136144000D01*
X42889500Y-134548800D02*
X44484700Y-136144000D01*
X42889500Y-122026100D02*
X42889500Y-134548800D01*
X43618900Y-121296700D02*
X42889500Y-122026100D01*
X93439000Y-140970000D02*
X94514300Y-140970000D01*
X94514300Y-145429900D02*
X94514300Y-140970000D01*
X92882400Y-147061800D02*
X94514300Y-145429900D01*
X92882400Y-150091100D02*
X92882400Y-147061800D01*
X91505100Y-151468400D02*
X92882400Y-150091100D01*
X81908800Y-151468400D02*
X91505100Y-151468400D01*
X77448100Y-147007700D02*
X81908800Y-151468400D01*
X77028200Y-147007700D02*
X77448100Y-147007700D01*
X73679800Y-143659300D02*
X77028200Y-147007700D01*
X73679800Y-129309100D02*
X73679800Y-143659300D01*
X72005700Y-127635000D02*
X73679800Y-129309100D01*
X70706000Y-127635000D02*
X72005700Y-127635000D01*
X70706000Y-128905000D02*
X71781300Y-128905000D01*
X72375700Y-128905000D02*
X71781300Y-128905000D01*
X72874900Y-129404200D02*
X72375700Y-128905000D01*
X93439000Y-139700000D02*
X92363700Y-139700000D01*
X88631400Y-135967700D02*
X78670700Y-135967700D01*
X92363700Y-139700000D02*
X88631400Y-135967700D01*
X25748000Y-119634000D02*
X26823300Y-119634000D01*
X29331400Y-115028600D02*
X29209300Y-114906500D01*
X29331400Y-117125900D02*
X29331400Y-115028600D01*
X26823300Y-119634000D02*
X29331400Y-117125900D01*
X25748000Y-118364000D02*
X26823300Y-118364000D01*
X28037100Y-117150200D02*
X26823300Y-118364000D01*
X28037100Y-116249200D02*
X28037100Y-117150200D01*
X28093700Y-116192600D02*
X28037100Y-116249200D01*
X44040300Y-119570400D02*
X42720000Y-119570400D01*
X44230700Y-119380000D02*
X44040300Y-119570400D01*
X26930300Y-134767000D02*
X26823300Y-134874000D01*
X27000200Y-134767000D02*
X26930300Y-134767000D01*
X25748000Y-134874000D02*
X26823300Y-134874000D01*
X45306000Y-119380000D02*
X44230700Y-119380000D01*
X27009600Y-136144000D02*
X25748000Y-136144000D01*
X45306000Y-118110000D02*
X44230700Y-118110000D01*
X44230700Y-118204100D02*
X43972700Y-118462100D01*
X44230700Y-118110000D02*
X44230700Y-118204100D01*
X80745700Y-70739000D02*
X80745700Y-73279000D01*
X81821000Y-70739000D02*
X80745700Y-70739000D01*
X81798600Y-73279000D02*
X80745700Y-73279000D01*
X81798600Y-73279000D02*
X81821000Y-73279000D01*
X87950000Y-76452300D02*
X87950000Y-74168000D01*
X85403200Y-78999100D02*
X87950000Y-76452300D01*
X84870400Y-78999100D02*
X85403200Y-78999100D01*
X83842700Y-77971400D02*
X84870400Y-78999100D01*
X83842700Y-74225400D02*
X83842700Y-77971400D01*
X82896300Y-73279000D02*
X83842700Y-74225400D01*
X81821000Y-73279000D02*
X82896300Y-73279000D01*
X89347000Y-45085000D02*
X88671700Y-45085000D01*
X87655700Y-46101000D02*
X82202000Y-46101000D01*
X88671700Y-45085000D02*
X87655700Y-46101000D01*
X81126700Y-46101000D02*
X81126700Y-43561000D01*
X82202000Y-46101000D02*
X81126700Y-46101000D01*
X82202000Y-43561000D02*
X81126700Y-43561000D01*
X82456000Y-59309000D02*
X83531300Y-59309000D01*
X82456000Y-56769000D02*
X83531300Y-56769000D01*
X88331000Y-60325000D02*
X87655700Y-60325000D01*
X87407500Y-60325000D02*
X87326100Y-60243600D01*
X87655700Y-60325000D02*
X87407500Y-60325000D01*
X83531300Y-59309000D02*
X83531300Y-58999500D01*
X83531300Y-58999500D02*
X83531300Y-56769000D01*
X83531300Y-58999500D02*
X83710600Y-58999500D01*
X50375000Y-53562000D02*
X51350300Y-53562000D01*
X55206400Y-53785300D02*
X55270700Y-53721000D01*
X51573600Y-53785300D02*
X55206400Y-53785300D01*
X51350300Y-53562000D02*
X51573600Y-53785300D01*
X55946000Y-53721000D02*
X55270700Y-53721000D01*
M02*
