M48
INCH,TZ
T1C0.016
T2C0.035
T3C0.055
T4C0.070
%
G90
G05
T1
X8750Y-53250
X9000Y-50000
X10581Y-37750
X10582Y-54849
X10587Y-39687
X10592Y-54369
X10630Y-53058
X10631Y-48030
X10631Y-47589
X10634Y-53600
X10639Y-53975
X10640Y-52600
X10752Y-39106
X10930Y-38459
X10930Y-38791
X11061Y-45745
X11191Y-39160
X11302Y-46001
X11500Y-45239
X11500Y-20250
X12562Y-43550
X12709Y-37750
X12719Y-39183
X12760Y-47120
X12776Y-46011
X13116Y-47118
X13500Y-18250
X13961Y-38925
X14305Y-25554
X14479Y-46642
X15726Y-53772
X15728Y-53071
X16246Y-45298
X16304Y-44550
X16547Y-40258
X16653Y-38131
X16774Y-37354
X16819Y-47075
X17061Y-40358
X17149Y-26466
X17173Y-47755
X17197Y-48419
X17216Y-45123
X17312Y-46639
X17315Y-49285
X17391Y-44503
X17547Y-50528
X17788Y-18069
X18021Y-40735
X18025Y-37035
X18103Y-33799
X18250Y-13750
X18256Y-26465
X18432Y-52100
X18465Y-39567
X18474Y-40764
X18530Y-48096
X18678Y-37044
X18947Y-53260
X18960Y-17922
X18966Y-40746
X19000Y-13250
X19126Y-37037
X19325Y-46279
X19454Y-47437
X19459Y-46672
X19467Y-47095
X19489Y-47779
X19500Y-24000
X19566Y-53526
X19578Y-50274
X19601Y-35865
X19816Y-23385
X19830Y-37381
X19897Y-40727
X20232Y-44503
X20232Y-31058
X20287Y-17411
X20653Y-40745
X20919Y-20929
X21037Y-32116
X21095Y-40743
X21288Y-38927
X21390Y-51840
X21439Y-49937
X21654Y-40916
X22233Y-40738
X22677Y-35854
X22692Y-49134
X22714Y-40731
X22853Y-20615
X23007Y-45977
X23369Y-35938
X24500Y-58000
X25140Y-19307
X25916Y-45187
X25958Y-23064
X25962Y-45829
X25963Y-23563
X26026Y-54846
X26284Y-17350
X26624Y-26453
X26665Y-17486
X26783Y-41719
X26838Y-45748
X27029Y-18673
X27059Y-23037
X27120Y-41778
X27268Y-28339
X27309Y-27437
X27462Y-47165
X27897Y-42232
X28078Y-39515
X28116Y-24137
X28118Y-48432
X28262Y-27429
X28332Y-53816
X28337Y-54291
X28337Y-56269
X28371Y-51054
X28380Y-28786
X28502Y-55594
X28573Y-39381
X28667Y-18109
X28691Y-50947
X28940Y-27663
X29132Y-44814
X29287Y-38574
X29589Y-29484
X29594Y-27419
X29668Y-17109
X29789Y-19902
X30102Y-40350
X30300Y-26712
X30347Y-36686
X30458Y-49652
X30468Y-54967
X30526Y-20461
X30600Y-28494
X30601Y-27900
X30630Y-25657
X30700Y-28861
X30717Y-48320
X30729Y-16987
X30734Y-18240
X30740Y-18668
X30832Y-25037
X30833Y-23801
X30842Y-22377
X30842Y-23323
X30875Y-17360
X30973Y-53531
X31164Y-49894
X31170Y-23264
X31293Y-27132
X31341Y-45456
X31477Y-36886
X31676Y-44921
X31829Y-21847
X31864Y-19726
X31866Y-16771
X31900Y-27035
X31925Y-19400
X32024Y-22098
X32075Y-52576
X32119Y-16231
X32205Y-52241
X32220Y-20511
X32517Y-25999
X32542Y-55039
X32920Y-31717
X32920Y-32055
X32957Y-23228
X33152Y-24468
X33267Y-20229
X33270Y-21435
X33337Y-30584
X33521Y-30850
X33678Y-17358
X33913Y-48800
X33950Y-29294
X34059Y-50386
X34202Y-48503
X34380Y-23718
X34423Y-47034
X34549Y-24908
X34757Y-47035
X34776Y-30881
X34783Y-28740
X34969Y-28140
X34993Y-19326
X35741Y-29565
X35764Y-47042
X35886Y-18212
X36262Y-47041
X36516Y-35841
X36594Y-36725
X36682Y-47034
X36796Y-25706
X36860Y-43334
X37029Y-36220
X37039Y-34427
X37080Y-46985
X37090Y-47361
X37370Y-43376
X37921Y-38093
X37929Y-42164
X37965Y-23859
X37968Y-38529
X38174Y-52020
X38191Y-52372
X38250Y-50750
X38310Y-40995
X38418Y-57072
X38463Y-38800
X38539Y-37950
X38539Y-38450
X39384Y-53727
X39407Y-51326
X39407Y-54951
X39409Y-55969
X39411Y-55301
X39416Y-52083
X39417Y-51711
X39529Y-37425
X39548Y-35950
X39549Y-55660
X40692Y-38738
X41664Y-35453
X42483Y-22606
X42500Y-58000
X42985Y-38195
X43250Y-17000
X43763Y-36915
X43881Y-44005
X44290Y-44075
X44440Y-39164
X44561Y-31031
X44697Y-43689
X44750Y-20250
X44784Y-31299
X44911Y-35268
X44987Y-30669
X45111Y-19387
X45153Y-41936
X45200Y-44905
X45200Y-46492
X45204Y-30921
X45252Y-29979
X45320Y-38908
X45326Y-25904
X45376Y-54123
X45579Y-36450
X45587Y-54800
X45587Y-55125
X45613Y-29059
X45623Y-34576
X45635Y-49629
X45702Y-42861
X45726Y-25145
X46186Y-22849
X46216Y-44475
X46266Y-16759
X46284Y-17195
X46290Y-18013
X46295Y-19281
X46608Y-23698
X46623Y-49266
X46727Y-37029
X46827Y-18583
X46983Y-36489
X47318Y-23161
X47716Y-48521
X47937Y-31269
X48172Y-51357
X48205Y-30546
X48318Y-45899
X48415Y-31269
X48449Y-22914
X48568Y-30172
X48643Y-30796
X48763Y-49030
X48764Y-48045
X48808Y-29966
X48925Y-31263
X49065Y-26023
X49100Y-49101
X49282Y-21292
X49741Y-20833
X49809Y-31277
X49828Y-23204
X49904Y-26749
X50069Y-33432
X50069Y-49766
X50244Y-53429
X50257Y-23292
X50325Y-33999
X50577Y-53458
X51010Y-55451
X51193Y-27313
X51198Y-26813
X51841Y-45611
X52236Y-27722
X52311Y-36803
X52316Y-15844
X52324Y-18319
X52482Y-23289
X52694Y-33051
X52697Y-33664
X52789Y-46551
X52796Y-55453
X52994Y-50180
X53436Y-48872
X53441Y-49837
X53688Y-56188
X53785Y-24071
X53872Y-39213
X53987Y-16424
X54072Y-21071
X54154Y-32214
X54436Y-48934
X54669Y-53198
X54765Y-41088
X54912Y-23100
X55036Y-35577
X55062Y-18056
X55106Y-19656
X55109Y-16947
X55110Y-19084
X55250Y-44977
X55309Y-41087
X55310Y-43475
X55330Y-21222
X55460Y-54200
X55469Y-53774
X55556Y-49101
X55560Y-49861
X55561Y-48292
X55563Y-49450
X55797Y-42687
X55842Y-27942
X56216Y-25468
X56231Y-31324
X56305Y-45833
X56559Y-49914
X56564Y-47918
X56609Y-28437
X56759Y-39916
X56818Y-45402
X56820Y-51776
X57074Y-55634
X57132Y-35269
X57299Y-28492
X57327Y-27692
X57427Y-39739
X57771Y-16110
X58139Y-45934
X58500Y-13500
X58672Y-46181
X60000Y-57000
X60296Y-22030
X60487Y-28419
X60640Y-46203
X61381Y-56167
X62135Y-37924
X62342Y-21437
X62500Y-24936
X62568Y-35804
X62654Y-37886
X62656Y-32207
X62662Y-40207
X62713Y-17430
X62720Y-31452
X62829Y-17018
X62830Y-19750
X63150Y-17047
X63152Y-44005
X63229Y-22842
X63444Y-43808
X63492Y-49427
X63686Y-45644
X63692Y-47300
X63782Y-32957
X63835Y-33707
X63835Y-35207
X63864Y-33292
X63884Y-34136
X63900Y-23919
X64042Y-32672
X64150Y-16989
X64159Y-30150
X64321Y-42205
X64415Y-27811
X64416Y-22969
X64417Y-26500
X64418Y-31394
X64425Y-31885
X64426Y-34195
X64468Y-46896
X64605Y-17502
X64700Y-19106
X64728Y-42820
X64788Y-23601
X64789Y-38698
X64879Y-17197
X64894Y-24932
X65000Y-49556
X65100Y-42820
X65112Y-50752
X65311Y-52731
X65316Y-28564
X65344Y-41693
X65477Y-44292
X65500Y-49564
X65554Y-18107
X65588Y-42806
X65592Y-30710
X65601Y-19162
X65627Y-47429
X65656Y-46650
X65734Y-30196
X65828Y-42593
X65895Y-41693
X65994Y-25461
X66046Y-44077
X66100Y-40682
X66368Y-32207
X66368Y-35707
X66613Y-46439
X66965Y-18911
X67482Y-47800
X67535Y-31707
X67539Y-39892
X67539Y-41943
X67561Y-41443
X68230Y-45943
X69905Y-25230
X70782Y-15978
X70810Y-22748
X70966Y-25538
X71135Y-23878
X71306Y-40620
X71387Y-38456
X71754Y-22734
X72054Y-44005
X72069Y-40882
X72177Y-44701
X72284Y-22748
X72286Y-47405
X72350Y-23870
X72370Y-17092
X72393Y-39207
X72477Y-55534
X72489Y-48511
X72584Y-49563
X72625Y-46329
X72650Y-44013
X72830Y-22736
X72831Y-23096
X72846Y-17081
X72922Y-24937
X72929Y-49566
X72933Y-44294
X72935Y-48440
X72961Y-46076
X72965Y-47428
X73093Y-26922
X73150Y-40882
X73195Y-44661
X73750Y-54750
X73798Y-18263
X74000Y-51000
X74250Y-17500
X74250Y-20750
X74250Y-40000
T2
X38400Y-13950
X38400Y-14950
X38400Y-15950
X38400Y-16950
X38400Y-17950
X38400Y-18950
X38400Y-19950
X38400Y-20950
X38400Y-21950
X38400Y-22950
X38400Y-23950
X38400Y-24950
X38400Y-25950
X38400Y-26950
X38400Y-27950
X38400Y-28950
X38400Y-29950
X39400Y-13950
X39400Y-14950
X39400Y-15950
X39400Y-16950
X39400Y-17950
X39400Y-18950
X39400Y-19950
X39400Y-20950
X39400Y-21950
X39400Y-22950
X39400Y-23950
X39400Y-24950
X39400Y-25950
X39400Y-26950
X39400Y-27950
X39400Y-28950
X39400Y-29950
T3
X78350Y-28617
X78350Y-30783
X78550Y-34917
X78550Y-37083
T4
X8980Y-17100
X8980Y-19600
X8980Y-22100
X8980Y-24600
X8980Y-27100
X9800Y-58970
X12300Y-58970
X13050Y-12130
X14800Y-58970
X15550Y-12130
X17300Y-58970
X18050Y-12130
X19800Y-58970
X20550Y-12130
X23050Y-12130
X28300Y-59030
X30800Y-59030
X33300Y-59030
X35800Y-59030
X38300Y-59030
X44450Y-12430
X46550Y-59180
X46950Y-12430
X49050Y-59180
X49450Y-12430
X51550Y-59180
X51950Y-12430
X54050Y-59180
X54450Y-12430
X56550Y-59180
X62600Y-12280
X63250Y-59030
X65100Y-12280
X65750Y-59030
X67600Y-12280
X68250Y-59030
X70100Y-12280
X70750Y-59030
X72600Y-12280
X73250Y-59030
X78280Y-13150
X78280Y-15650
X78280Y-18150
X78280Y-20650
X78280Y-23150
T0
M30
