G04 #@! TF.GenerationSoftware,KiCad,Pcbnew,(5.0.0)*
G04 #@! TF.CreationDate,2019-02-09T12:54:46-06:00*
G04 #@! TF.ProjectId,ArmPowerBoardV3,41726D506F776572426F61726456332E,rev?*
G04 #@! TF.SameCoordinates,Original*
G04 #@! TF.FileFunction,Copper,L2,Bot,Signal*
G04 #@! TF.FilePolarity,Positive*
%FSLAX46Y46*%
G04 Gerber Fmt 4.6, Leading zero omitted, Abs format (unit mm)*
G04 Created by KiCad (PCBNEW (5.0.0)) date 02/09/19 12:54:46*
%MOMM*%
%LPD*%
G01*
G04 APERTURE LIST*
G04 #@! TA.AperFunction,ComponentPad*
%ADD10R,1.600000X1.600000*%
G04 #@! TD*
G04 #@! TA.AperFunction,ComponentPad*
%ADD11O,1.600000X1.600000*%
G04 #@! TD*
G04 #@! TA.AperFunction,ComponentPad*
%ADD12R,1.800000X1.800000*%
G04 #@! TD*
G04 #@! TA.AperFunction,ComponentPad*
%ADD13C,1.800000*%
G04 #@! TD*
G04 #@! TA.AperFunction,ComponentPad*
%ADD14R,3.000000X1.500000*%
G04 #@! TD*
G04 #@! TA.AperFunction,ComponentPad*
%ADD15O,3.000000X1.500000*%
G04 #@! TD*
G04 #@! TA.AperFunction,ComponentPad*
%ADD16R,2.600000X2.600000*%
G04 #@! TD*
G04 #@! TA.AperFunction,ComponentPad*
%ADD17C,2.600000*%
G04 #@! TD*
G04 #@! TA.AperFunction,ComponentPad*
%ADD18R,1.700000X1.700000*%
G04 #@! TD*
G04 #@! TA.AperFunction,ComponentPad*
%ADD19O,1.700000X1.700000*%
G04 #@! TD*
G04 #@! TA.AperFunction,ComponentPad*
%ADD20C,1.400000*%
G04 #@! TD*
G04 #@! TA.AperFunction,ComponentPad*
%ADD21O,1.400000X1.400000*%
G04 #@! TD*
G04 #@! TA.AperFunction,ComponentPad*
%ADD22C,1.500000*%
G04 #@! TD*
G04 #@! TA.AperFunction,ComponentPad*
%ADD23R,1.500000X1.500000*%
G04 #@! TD*
G04 #@! TA.AperFunction,ComponentPad*
%ADD24R,4.800000X4.800000*%
G04 #@! TD*
G04 #@! TA.AperFunction,ComponentPad*
%ADD25C,2.800000*%
G04 #@! TD*
G04 #@! TA.AperFunction,ComponentPad*
%ADD26C,4.800000*%
G04 #@! TD*
G04 #@! TA.AperFunction,ComponentPad*
%ADD27R,1.700000X2.500000*%
G04 #@! TD*
G04 #@! TA.AperFunction,ComponentPad*
%ADD28O,1.700000X2.500000*%
G04 #@! TD*
G04 #@! TA.AperFunction,ComponentPad*
%ADD29O,4.000000X1.800000*%
G04 #@! TD*
G04 #@! TA.AperFunction,ComponentPad*
%ADD30O,1.800000X4.000000*%
G04 #@! TD*
G04 #@! TA.AperFunction,ComponentPad*
%ADD31R,1.800000X4.400000*%
G04 #@! TD*
G04 #@! TA.AperFunction,ComponentPad*
%ADD32R,4.400000X1.800000*%
G04 #@! TD*
G04 #@! TA.AperFunction,ViaPad*
%ADD33C,0.800000*%
G04 #@! TD*
G04 #@! TA.AperFunction,Conductor*
%ADD34C,0.250000*%
G04 #@! TD*
G04 #@! TA.AperFunction,Conductor*
%ADD35C,0.254000*%
G04 #@! TD*
G04 APERTURE END LIST*
D10*
G04 #@! TO.P,J10,1*
G04 #@! TO.N,Net-(J10-Pad1)*
X129032000Y-72898000D03*
D11*
G04 #@! TO.P,J10,15*
G04 #@! TO.N,RX1*
X136652000Y-105918000D03*
G04 #@! TO.P,J10,2*
G04 #@! TO.N,Rx*
X129032000Y-75438000D03*
G04 #@! TO.P,J10,16*
G04 #@! TO.N,TX1*
X136652000Y-103378000D03*
G04 #@! TO.P,J10,3*
G04 #@! TO.N,Tx*
X129032000Y-77978000D03*
G04 #@! TO.P,J10,17*
G04 #@! TO.N,Net-(J10-Pad17)*
X136652000Y-100838000D03*
G04 #@! TO.P,J10,4*
G04 #@! TO.N,Net-(D2-Pad2)*
X129032000Y-80518000D03*
G04 #@! TO.P,J10,18*
G04 #@! TO.N,Net-(J10-Pad18)*
X136652000Y-98298000D03*
G04 #@! TO.P,J10,5*
G04 #@! TO.N,Net-(J10-Pad5)*
X129032000Y-83058000D03*
G04 #@! TO.P,J10,19*
G04 #@! TO.N,Net-(J10-Pad19)*
X136652000Y-95758000D03*
G04 #@! TO.P,J10,6*
G04 #@! TO.N,ONoff*
X129032000Y-85598000D03*
G04 #@! TO.P,J10,20*
G04 #@! TO.N,5v+*
X136652000Y-93218000D03*
G04 #@! TO.P,J10,7*
X129032000Y-88138000D03*
G04 #@! TO.P,J10,21*
X136652000Y-90678000D03*
G04 #@! TO.P,J10,8*
G04 #@! TO.N,GND*
X129032000Y-90678000D03*
G04 #@! TO.P,J10,22*
X136652000Y-88138000D03*
G04 #@! TO.P,J10,9*
G04 #@! TO.N,Net-(C2-Pad1)*
X129032000Y-93218000D03*
G04 #@! TO.P,J10,23*
G04 #@! TO.N,ISense*
X136652000Y-85598000D03*
G04 #@! TO.P,J10,10*
G04 #@! TO.N,Net-(C4-Pad1)*
X129032000Y-95758000D03*
G04 #@! TO.P,J10,24*
G04 #@! TO.N,TempSense*
X136652000Y-83058000D03*
G04 #@! TO.P,J10,11*
G04 #@! TO.N,Net-(J10-Pad11)*
X129032000Y-98298000D03*
G04 #@! TO.P,J10,25*
G04 #@! TO.N,Net-(J10-Pad25)*
X136652000Y-80518000D03*
G04 #@! TO.P,J10,12*
G04 #@! TO.N,Net-(J10-Pad12)*
X129032000Y-100838000D03*
G04 #@! TO.P,J10,26*
G04 #@! TO.N,Net-(J10-Pad26)*
X136652000Y-77978000D03*
G04 #@! TO.P,J10,13*
G04 #@! TO.N,Net-(J10-Pad13)*
X129032000Y-103378000D03*
G04 #@! TO.P,J10,27*
G04 #@! TO.N,Net-(J10-Pad27)*
X136652000Y-75438000D03*
G04 #@! TO.P,J10,14*
G04 #@! TO.N,Net-(J10-Pad14)*
X129032000Y-105918000D03*
G04 #@! TO.P,J10,28*
G04 #@! TO.N,Net-(J10-Pad28)*
X136652000Y-72898000D03*
G04 #@! TD*
D12*
G04 #@! TO.P,D2,1*
G04 #@! TO.N,Net-(D2-Pad1)*
X119084059Y-75968813D03*
D13*
G04 #@! TO.P,D2,2*
G04 #@! TO.N,Net-(D2-Pad2)*
X121624059Y-75968813D03*
G04 #@! TD*
D14*
G04 #@! TO.P,J1,1*
G04 #@! TO.N,12v-*
X25146000Y-100838000D03*
X33346000Y-100838000D03*
D15*
G04 #@! TO.P,J1,2*
G04 #@! TO.N,12v+*
X25146000Y-105918000D03*
X33346000Y-105918000D03*
G04 #@! TO.P,J1,3*
G04 #@! TO.N,12v-*
X25146000Y-110998000D03*
X33346000Y-110998000D03*
G04 #@! TO.P,J1,4*
G04 #@! TO.N,12v+*
X25146000Y-116078000D03*
X33346000Y-116078000D03*
G04 #@! TD*
D16*
G04 #@! TO.P,J4,1*
G04 #@! TO.N,GND*
X24638000Y-68072000D03*
D17*
G04 #@! TO.P,J4,2*
G04 #@! TO.N,24v*
X24638000Y-73152000D03*
G04 #@! TD*
D18*
G04 #@! TO.P,J9,1*
G04 #@! TO.N,GND*
X146812000Y-50800000D03*
D19*
G04 #@! TO.P,J9,2*
G04 #@! TO.N,N/C*
X149352000Y-50800000D03*
G04 #@! TO.P,J9,3*
X151892000Y-50800000D03*
G04 #@! TO.P,J9,4*
G04 #@! TO.N,5v+*
X154432000Y-50800000D03*
G04 #@! TO.P,J9,5*
G04 #@! TO.N,N/C*
X156972000Y-50800000D03*
G04 #@! TO.P,J9,6*
X159512000Y-50800000D03*
G04 #@! TO.P,J9,7*
X162052000Y-50800000D03*
G04 #@! TO.P,J9,8*
X164592000Y-50800000D03*
G04 #@! TO.P,J9,9*
X167132000Y-50800000D03*
G04 #@! TD*
G04 #@! TO.P,J11,9*
G04 #@! TO.N,Rx*
X146812000Y-71120000D03*
G04 #@! TO.P,J11,8*
G04 #@! TO.N,N/C*
X149352000Y-71120000D03*
G04 #@! TO.P,J11,7*
X151892000Y-71120000D03*
G04 #@! TO.P,J11,6*
X154432000Y-71120000D03*
G04 #@! TO.P,J11,5*
G04 #@! TO.N,Tx*
X156972000Y-71120000D03*
G04 #@! TO.P,J11,4*
G04 #@! TO.N,N/C*
X159512000Y-71120000D03*
G04 #@! TO.P,J11,3*
X162052000Y-71120000D03*
G04 #@! TO.P,J11,2*
X164592000Y-71120000D03*
D18*
G04 #@! TO.P,J11,1*
X167132000Y-71120000D03*
G04 #@! TD*
D20*
G04 #@! TO.P,R2,1*
G04 #@! TO.N,Net-(D2-Pad1)*
X114004059Y-75968813D03*
D21*
G04 #@! TO.P,R2,2*
G04 #@! TO.N,GND*
X114004059Y-81048813D03*
G04 #@! TD*
D22*
G04 #@! TO.P,U1,2*
G04 #@! TO.N,GND*
X93218000Y-44318000D03*
G04 #@! TO.P,U1,3*
G04 #@! TO.N,ISense*
X93218000Y-42408000D03*
D23*
G04 #@! TO.P,U1,1*
G04 #@! TO.N,5v+*
X93218000Y-46228000D03*
G04 #@! TD*
D24*
G04 #@! TO.P,U2,1*
G04 #@! TO.N,24v*
X89154000Y-77221000D03*
D25*
G04 #@! TO.P,U2,2*
G04 #@! TO.N,ONoff*
X78994000Y-77221000D03*
G04 #@! TO.P,U2,3*
G04 #@! TO.N,N/C*
X63754000Y-77221000D03*
D26*
G04 #@! TO.P,U2,4*
G04 #@! TO.N,GND*
X53594000Y-77221000D03*
G04 #@! TO.P,U2,5*
G04 #@! TO.N,12v-*
X53594000Y-125471000D03*
D25*
G04 #@! TO.P,U2,6*
G04 #@! TO.N,N/C*
X63754000Y-125471000D03*
G04 #@! TO.P,U2,7*
X71374000Y-125471000D03*
G04 #@! TO.P,U2,8*
X78994000Y-125471000D03*
D26*
G04 #@! TO.P,U2,9*
G04 #@! TO.N,12v+*
X89154000Y-125471000D03*
G04 #@! TD*
D22*
G04 #@! TO.P,Y1,1*
G04 #@! TO.N,Net-(C2-Pad1)*
X121268574Y-98795540D03*
G04 #@! TO.P,Y1,2*
G04 #@! TO.N,Net-(C4-Pad1)*
X121268574Y-103675540D03*
G04 #@! TD*
D16*
G04 #@! TO.P,BT1,1*
G04 #@! TO.N,GND*
X24892000Y-43942000D03*
D17*
G04 #@! TO.P,BT1,2*
G04 #@! TO.N,Net-(BT1-Pad2)*
X24892000Y-49022000D03*
G04 #@! TD*
D18*
G04 #@! TO.P,J8,1*
G04 #@! TO.N,5v+*
X116332000Y-62738000D03*
D19*
G04 #@! TO.P,J8,2*
X116332000Y-60198000D03*
G04 #@! TO.P,J8,3*
X118872000Y-62738000D03*
G04 #@! TO.P,J8,4*
X118872000Y-60198000D03*
G04 #@! TO.P,J8,5*
G04 #@! TO.N,Net-(J10-Pad14)*
X121412000Y-62738000D03*
G04 #@! TO.P,J8,6*
G04 #@! TO.N,Net-(J10-Pad13)*
X121412000Y-60198000D03*
G04 #@! TO.P,J8,7*
G04 #@! TO.N,Net-(J10-Pad12)*
X123952000Y-62738000D03*
G04 #@! TO.P,J8,8*
G04 #@! TO.N,Net-(J10-Pad11)*
X123952000Y-60198000D03*
G04 #@! TO.P,J8,9*
G04 #@! TO.N,Net-(J10-Pad5)*
X126492000Y-62738000D03*
G04 #@! TO.P,J8,10*
G04 #@! TO.N,Net-(J10-Pad1)*
X126492000Y-60198000D03*
G04 #@! TO.P,J8,11*
G04 #@! TO.N,Net-(J10-Pad28)*
X129032000Y-62738000D03*
G04 #@! TO.P,J8,12*
G04 #@! TO.N,Net-(J10-Pad27)*
X129032000Y-60198000D03*
G04 #@! TO.P,J8,13*
G04 #@! TO.N,Net-(J10-Pad26)*
X131572000Y-62738000D03*
G04 #@! TO.P,J8,14*
G04 #@! TO.N,Net-(J10-Pad25)*
X131572000Y-60198000D03*
G04 #@! TO.P,J8,15*
G04 #@! TO.N,Net-(J10-Pad19)*
X134112000Y-62738000D03*
G04 #@! TO.P,J8,16*
G04 #@! TO.N,Net-(J10-Pad18)*
X134112000Y-60198000D03*
G04 #@! TO.P,J8,17*
G04 #@! TO.N,Net-(J10-Pad17)*
X136652000Y-62738000D03*
G04 #@! TO.P,J8,18*
G04 #@! TO.N,GND*
X136652000Y-60198000D03*
G04 #@! TO.P,J8,19*
X139192000Y-62738000D03*
G04 #@! TO.P,J8,20*
X139192000Y-60198000D03*
G04 #@! TD*
D27*
G04 #@! TO.P,U3,1*
G04 #@! TO.N,24v*
X77724000Y-60198000D03*
D28*
G04 #@! TO.P,U3,2*
G04 #@! TO.N,GND*
X80264000Y-60198000D03*
G04 #@! TO.P,U3,3*
G04 #@! TO.N,5v+*
X82804000Y-60198000D03*
G04 #@! TD*
D29*
G04 #@! TO.P,J2,3*
G04 #@! TO.N,N/C*
X157686000Y-114326000D03*
D30*
G04 #@! TO.P,J2,2*
G04 #@! TO.N,12v-*
X160486000Y-119126000D03*
D31*
G04 #@! TO.P,J2,1*
G04 #@! TO.N,12v+*
X154686000Y-119126000D03*
G04 #@! TD*
G04 #@! TO.P,J3,1*
G04 #@! TO.N,12v+*
X154686000Y-106172000D03*
D30*
G04 #@! TO.P,J3,2*
G04 #@! TO.N,12v-*
X160486000Y-106172000D03*
D29*
G04 #@! TO.P,J3,3*
G04 #@! TO.N,N/C*
X157686000Y-101372000D03*
G04 #@! TD*
D30*
G04 #@! TO.P,J5,3*
G04 #@! TO.N,N/C*
X133630000Y-43482000D03*
D29*
G04 #@! TO.P,J5,2*
G04 #@! TO.N,GND*
X138430000Y-40682000D03*
D32*
G04 #@! TO.P,J5,1*
G04 #@! TO.N,5v+*
X138430000Y-46482000D03*
G04 #@! TD*
D30*
G04 #@! TO.P,J6,3*
G04 #@! TO.N,N/C*
X122708000Y-43482000D03*
D29*
G04 #@! TO.P,J6,2*
G04 #@! TO.N,GND*
X127508000Y-40682000D03*
D32*
G04 #@! TO.P,J6,1*
G04 #@! TO.N,5v+*
X127508000Y-46482000D03*
G04 #@! TD*
G04 #@! TO.P,J7,1*
G04 #@! TO.N,5v+*
X115824000Y-46482000D03*
D29*
G04 #@! TO.P,J7,2*
G04 #@! TO.N,GND*
X115824000Y-40682000D03*
D30*
G04 #@! TO.P,J7,3*
G04 #@! TO.N,N/C*
X111024000Y-43482000D03*
G04 #@! TD*
D33*
G04 #@! TO.N,Net-(J10-Pad14)*
X122428000Y-94742000D03*
X121427997Y-87630000D03*
G04 #@! TO.N,Net-(J10-Pad13)*
X124206000Y-94234000D03*
X122428000Y-87630000D03*
G04 #@! TO.N,Net-(J10-Pad12)*
X125476000Y-93726000D03*
X123444000Y-87630000D03*
G04 #@! TO.N,Net-(J10-Pad11)*
X126746000Y-93472000D03*
X124460000Y-87630000D03*
G04 #@! TO.N,TempSense*
X116840000Y-85090000D03*
G04 #@! TO.N,TX1*
X143510000Y-102362000D03*
G04 #@! TO.N,5v+*
X141224000Y-90424000D03*
X156210000Y-92456000D03*
G04 #@! TO.N,ONoff*
X133858000Y-85598000D03*
X78994000Y-88646000D03*
G04 #@! TO.N,GND*
X55626000Y-48514000D03*
X56642000Y-47498000D03*
X54610000Y-48514000D03*
X54610000Y-49530000D03*
X55626000Y-47498000D03*
X56642000Y-48514000D03*
X56642000Y-49530000D03*
X55626000Y-49530000D03*
X54610000Y-47498000D03*
X101346000Y-44450000D03*
X102362000Y-43434000D03*
X100330000Y-44450000D03*
X100330000Y-45466000D03*
X101346000Y-43434000D03*
X102362000Y-44450000D03*
X102362000Y-45466000D03*
X101346000Y-45466000D03*
X100330000Y-43434000D03*
X80264000Y-53086000D03*
X81280000Y-52070000D03*
X79248000Y-54102000D03*
X80264000Y-52070000D03*
X81280000Y-54102000D03*
X80264000Y-54102000D03*
X79248000Y-52070000D03*
X42672000Y-49530000D03*
X41656000Y-49530000D03*
X43688000Y-49530000D03*
X43688000Y-48514000D03*
X41656000Y-48514000D03*
X41656000Y-47498000D03*
X42672000Y-47498000D03*
X43688000Y-47498000D03*
X42672000Y-48514000D03*
X101346000Y-44450000D03*
X134366000Y-90424000D03*
X81280000Y-53086000D03*
X141224000Y-88392000D03*
X157226000Y-90170000D03*
X119634000Y-90424000D03*
X119634000Y-90932000D03*
X112268000Y-101532598D03*
X112268000Y-100838000D03*
X112268000Y-100065598D03*
X79248000Y-53086000D03*
G04 #@! TD*
D34*
G04 #@! TO.N,Net-(C2-Pad1)*
X123454460Y-98795540D02*
X129032000Y-93218000D01*
X121268574Y-98795540D02*
X123454460Y-98795540D01*
G04 #@! TO.N,Net-(C4-Pad1)*
X129032000Y-95912114D02*
X129032000Y-95758000D01*
X121268574Y-103675540D02*
X129032000Y-95912114D01*
G04 #@! TO.N,Net-(J10-Pad14)*
X122428000Y-94742000D02*
X121427997Y-93741997D01*
X121427997Y-93741997D02*
X121427997Y-87630000D01*
G04 #@! TO.N,Net-(J10-Pad13)*
X124206000Y-94234000D02*
X122428000Y-92456000D01*
X122428000Y-92456000D02*
X122428000Y-87630000D01*
G04 #@! TO.N,Net-(J10-Pad12)*
X125476000Y-93726000D02*
X125076001Y-93326001D01*
X125076001Y-93326001D02*
X123444000Y-91694000D01*
X123444000Y-91694000D02*
X123444000Y-87630000D01*
G04 #@! TO.N,Net-(J10-Pad11)*
X126746000Y-93472000D02*
X124460000Y-91186000D01*
X124460000Y-91186000D02*
X124460000Y-87630000D01*
G04 #@! TO.N,Rx*
X133350000Y-71120000D02*
X146812000Y-71120000D01*
X129032000Y-75438000D02*
X133350000Y-71120000D01*
G04 #@! TO.N,Tx*
X156122001Y-71969999D02*
X156972000Y-71120000D01*
X151239001Y-76852999D02*
X156122001Y-71969999D01*
X130157001Y-76852999D02*
X151239001Y-76852999D01*
X129032000Y-77978000D02*
X130157001Y-76852999D01*
G04 #@! TO.N,ISense*
X93218000Y-42408000D02*
X127373001Y-76563001D01*
X127373001Y-78605001D02*
X128016000Y-79248000D01*
X127373001Y-76563001D02*
X127373001Y-78605001D01*
X127884998Y-79248000D02*
X128016000Y-79248000D01*
X130302000Y-79248000D02*
X136652000Y-85598000D01*
X129540000Y-79248000D02*
X130302000Y-79248000D01*
X129540000Y-79248000D02*
X129794000Y-79248000D01*
X128016000Y-79248000D02*
X129540000Y-79248000D01*
G04 #@! TO.N,TempSense*
X137451999Y-83857999D02*
X136652000Y-83058000D01*
X137777001Y-84183001D02*
X137451999Y-83857999D01*
X137777001Y-86138001D02*
X137777001Y-84183001D01*
X137192001Y-86723001D02*
X137777001Y-86138001D01*
X118473001Y-86723001D02*
X137192001Y-86723001D01*
X116840000Y-85090000D02*
X118473001Y-86723001D01*
G04 #@! TO.N,Net-(J10-Pad1)*
X127087999Y-60285999D02*
X126238000Y-59436000D01*
X127341999Y-61047999D02*
X126492000Y-60198000D01*
X127667001Y-61373001D02*
X127341999Y-61047999D01*
X127667001Y-70483001D02*
X127667001Y-61373001D01*
X129032000Y-71848000D02*
X127667001Y-70483001D01*
X129032000Y-72898000D02*
X129032000Y-71848000D01*
G04 #@! TO.N,TX1*
X136652000Y-103378000D02*
X142494000Y-103378000D01*
X142494000Y-103378000D02*
X143510000Y-102362000D01*
G04 #@! TO.N,5v+*
X129032000Y-88138000D02*
X134112000Y-88138000D01*
X134112000Y-88138000D02*
X136652000Y-90678000D01*
X141224000Y-90424000D02*
X142240000Y-91440000D01*
X142240000Y-91440000D02*
X155194000Y-91440000D01*
X155194000Y-91440000D02*
X156210000Y-92456000D01*
G04 #@! TO.N,Net-(D2-Pad2)*
X122524058Y-76868812D02*
X121624059Y-75968813D01*
X125373247Y-79718001D02*
X122524058Y-76868812D01*
X128232001Y-79718001D02*
X125373247Y-79718001D01*
X129032000Y-80518000D02*
X128232001Y-79718001D01*
G04 #@! TO.N,ONoff*
X129032000Y-85598000D02*
X133858000Y-85598000D01*
X78994000Y-88080315D02*
X78994000Y-77221000D01*
X78994000Y-88646000D02*
X78994000Y-88080315D01*
G04 #@! TO.N,GND*
X114004059Y-82038762D02*
X114004059Y-81048813D01*
X114004059Y-85105061D02*
X114004059Y-82038762D01*
X129032000Y-90678000D02*
X134112000Y-90678000D01*
X134112000Y-90678000D02*
X134366000Y-90424000D01*
X141224000Y-88392000D02*
X143002000Y-90170000D01*
X143002000Y-90170000D02*
X157226000Y-90170000D01*
G04 #@! TD*
D35*
G04 #@! TO.N,12v-*
G36*
X44323000Y-117094000D02*
X44332667Y-117142601D01*
X44360197Y-117183803D01*
X44401399Y-117211333D01*
X44450000Y-117221000D01*
X146558000Y-117221000D01*
X146606601Y-117211333D01*
X146647803Y-117183803D01*
X146675333Y-117142601D01*
X146685000Y-117094000D01*
X146685000Y-116926000D01*
X153138560Y-116926000D01*
X153138560Y-121326000D01*
X153187843Y-121573765D01*
X153328191Y-121783809D01*
X153538235Y-121924157D01*
X153786000Y-121973440D01*
X155586000Y-121973440D01*
X155833765Y-121924157D01*
X156043809Y-121783809D01*
X156184157Y-121573765D01*
X156233440Y-121326000D01*
X156233440Y-119253000D01*
X158951000Y-119253000D01*
X158951000Y-120353000D01*
X159116446Y-120930752D01*
X159490394Y-121401212D01*
X160015914Y-121692756D01*
X160121260Y-121717036D01*
X160359000Y-121596378D01*
X160359000Y-119253000D01*
X160613000Y-119253000D01*
X160613000Y-121596378D01*
X160850740Y-121717036D01*
X160956086Y-121692756D01*
X161481606Y-121401212D01*
X161855554Y-120930752D01*
X162021000Y-120353000D01*
X162021000Y-119253000D01*
X160613000Y-119253000D01*
X160359000Y-119253000D01*
X158951000Y-119253000D01*
X156233440Y-119253000D01*
X156233440Y-117899000D01*
X158951000Y-117899000D01*
X158951000Y-118999000D01*
X160359000Y-118999000D01*
X160359000Y-116655622D01*
X160613000Y-116655622D01*
X160613000Y-118999000D01*
X162021000Y-118999000D01*
X162021000Y-117899000D01*
X161855554Y-117321248D01*
X161481606Y-116850788D01*
X160956086Y-116559244D01*
X160850740Y-116534964D01*
X160613000Y-116655622D01*
X160359000Y-116655622D01*
X160121260Y-116534964D01*
X160015914Y-116559244D01*
X159490394Y-116850788D01*
X159116446Y-117321248D01*
X158951000Y-117899000D01*
X156233440Y-117899000D01*
X156233440Y-116926000D01*
X156184157Y-116678235D01*
X156043809Y-116468191D01*
X155833765Y-116327843D01*
X155586000Y-116278560D01*
X153786000Y-116278560D01*
X153538235Y-116327843D01*
X153328191Y-116468191D01*
X153187843Y-116678235D01*
X153138560Y-116926000D01*
X146685000Y-116926000D01*
X146685000Y-114326000D01*
X155020928Y-114326000D01*
X155140062Y-114924927D01*
X155479327Y-115432673D01*
X155987073Y-115771938D01*
X156434818Y-115861000D01*
X158937182Y-115861000D01*
X159384927Y-115771938D01*
X159892673Y-115432673D01*
X160231938Y-114924927D01*
X160351072Y-114326000D01*
X160231938Y-113727073D01*
X159892673Y-113219327D01*
X159384927Y-112880062D01*
X158937182Y-112791000D01*
X156434818Y-112791000D01*
X155987073Y-112880062D01*
X155479327Y-113219327D01*
X155140062Y-113727073D01*
X155020928Y-114326000D01*
X146685000Y-114326000D01*
X146685000Y-103972000D01*
X153138560Y-103972000D01*
X153138560Y-108372000D01*
X153187843Y-108619765D01*
X153328191Y-108829809D01*
X153538235Y-108970157D01*
X153786000Y-109019440D01*
X155586000Y-109019440D01*
X155833765Y-108970157D01*
X156043809Y-108829809D01*
X156184157Y-108619765D01*
X156233440Y-108372000D01*
X156233440Y-106299000D01*
X158951000Y-106299000D01*
X158951000Y-107399000D01*
X159116446Y-107976752D01*
X159490394Y-108447212D01*
X160015914Y-108738756D01*
X160121260Y-108763036D01*
X160359000Y-108642378D01*
X160359000Y-106299000D01*
X160613000Y-106299000D01*
X160613000Y-108642378D01*
X160850740Y-108763036D01*
X160956086Y-108738756D01*
X161481606Y-108447212D01*
X161855554Y-107976752D01*
X162021000Y-107399000D01*
X162021000Y-106299000D01*
X160613000Y-106299000D01*
X160359000Y-106299000D01*
X158951000Y-106299000D01*
X156233440Y-106299000D01*
X156233440Y-104945000D01*
X158951000Y-104945000D01*
X158951000Y-106045000D01*
X160359000Y-106045000D01*
X160359000Y-103701622D01*
X160613000Y-103701622D01*
X160613000Y-106045000D01*
X162021000Y-106045000D01*
X162021000Y-104945000D01*
X161855554Y-104367248D01*
X161481606Y-103896788D01*
X160956086Y-103605244D01*
X160850740Y-103580964D01*
X160613000Y-103701622D01*
X160359000Y-103701622D01*
X160121260Y-103580964D01*
X160015914Y-103605244D01*
X159490394Y-103896788D01*
X159116446Y-104367248D01*
X158951000Y-104945000D01*
X156233440Y-104945000D01*
X156233440Y-103972000D01*
X156184157Y-103724235D01*
X156043809Y-103514191D01*
X155833765Y-103373843D01*
X155586000Y-103324560D01*
X153786000Y-103324560D01*
X153538235Y-103373843D01*
X153328191Y-103514191D01*
X153187843Y-103724235D01*
X153138560Y-103972000D01*
X146685000Y-103972000D01*
X146685000Y-102235000D01*
X155316510Y-102235000D01*
X155479327Y-102478673D01*
X155987073Y-102817938D01*
X156434818Y-102907000D01*
X158937182Y-102907000D01*
X159384927Y-102817938D01*
X159892673Y-102478673D01*
X160055490Y-102235000D01*
X165225808Y-102235000D01*
X164998268Y-126581745D01*
X164962741Y-126495974D01*
X164334026Y-125867259D01*
X163512569Y-125527000D01*
X162623431Y-125527000D01*
X161801974Y-125867259D01*
X161173259Y-126495974D01*
X160833000Y-127317431D01*
X160833000Y-128206569D01*
X161173259Y-129028026D01*
X161304233Y-129159000D01*
X28687767Y-129159000D01*
X28818741Y-129028026D01*
X29159000Y-128206569D01*
X29159000Y-127317431D01*
X28818741Y-126495974D01*
X28190026Y-125867259D01*
X27368569Y-125527000D01*
X26479431Y-125527000D01*
X25657974Y-125867259D01*
X25029259Y-126495974D01*
X24689000Y-127317431D01*
X24689000Y-128206569D01*
X25029259Y-129028026D01*
X25160233Y-129159000D01*
X21716004Y-129159000D01*
X21683230Y-124996594D01*
X43589000Y-124996594D01*
X43589000Y-125945406D01*
X43952095Y-126821994D01*
X44623006Y-127492905D01*
X45499594Y-127856000D01*
X46448406Y-127856000D01*
X46982625Y-127634719D01*
X51609886Y-127634719D01*
X51879400Y-128047010D01*
X52995713Y-128507072D01*
X54203109Y-128504919D01*
X55308600Y-128047010D01*
X55578114Y-127634719D01*
X53594000Y-125650605D01*
X51609886Y-127634719D01*
X46982625Y-127634719D01*
X47324994Y-127492905D01*
X47995905Y-126821994D01*
X48359000Y-125945406D01*
X48359000Y-124996594D01*
X48307687Y-124872713D01*
X50557928Y-124872713D01*
X50560081Y-126080109D01*
X51017990Y-127185600D01*
X51430281Y-127455114D01*
X53414395Y-125471000D01*
X53773605Y-125471000D01*
X55757719Y-127455114D01*
X56170010Y-127185600D01*
X56630072Y-126069287D01*
X56628284Y-125066213D01*
X61719000Y-125066213D01*
X61719000Y-125875787D01*
X62028810Y-126623735D01*
X62601265Y-127196190D01*
X63349213Y-127506000D01*
X64158787Y-127506000D01*
X64906735Y-127196190D01*
X65479190Y-126623735D01*
X65789000Y-125875787D01*
X65789000Y-125066213D01*
X69339000Y-125066213D01*
X69339000Y-125875787D01*
X69648810Y-126623735D01*
X70221265Y-127196190D01*
X70969213Y-127506000D01*
X71778787Y-127506000D01*
X72526735Y-127196190D01*
X73099190Y-126623735D01*
X73409000Y-125875787D01*
X73409000Y-125066213D01*
X76959000Y-125066213D01*
X76959000Y-125875787D01*
X77268810Y-126623735D01*
X77841265Y-127196190D01*
X78589213Y-127506000D01*
X79398787Y-127506000D01*
X80146735Y-127196190D01*
X80719190Y-126623735D01*
X81029000Y-125875787D01*
X81029000Y-125066213D01*
X80946609Y-124867301D01*
X86119000Y-124867301D01*
X86119000Y-126074699D01*
X86581051Y-127190189D01*
X87434811Y-128043949D01*
X88550301Y-128506000D01*
X89757699Y-128506000D01*
X90873189Y-128043949D01*
X91726949Y-127190189D01*
X92189000Y-126074699D01*
X92189000Y-124996594D01*
X94389000Y-124996594D01*
X94389000Y-125945406D01*
X94752095Y-126821994D01*
X95423006Y-127492905D01*
X96299594Y-127856000D01*
X97248406Y-127856000D01*
X98124994Y-127492905D01*
X98795905Y-126821994D01*
X99159000Y-125945406D01*
X99159000Y-124996594D01*
X98795905Y-124120006D01*
X98124994Y-123449095D01*
X97248406Y-123086000D01*
X96299594Y-123086000D01*
X95423006Y-123449095D01*
X94752095Y-124120006D01*
X94389000Y-124996594D01*
X92189000Y-124996594D01*
X92189000Y-124867301D01*
X91726949Y-123751811D01*
X90873189Y-122898051D01*
X89757699Y-122436000D01*
X88550301Y-122436000D01*
X87434811Y-122898051D01*
X86581051Y-123751811D01*
X86119000Y-124867301D01*
X80946609Y-124867301D01*
X80719190Y-124318265D01*
X80146735Y-123745810D01*
X79398787Y-123436000D01*
X78589213Y-123436000D01*
X77841265Y-123745810D01*
X77268810Y-124318265D01*
X76959000Y-125066213D01*
X73409000Y-125066213D01*
X73099190Y-124318265D01*
X72526735Y-123745810D01*
X71778787Y-123436000D01*
X70969213Y-123436000D01*
X70221265Y-123745810D01*
X69648810Y-124318265D01*
X69339000Y-125066213D01*
X65789000Y-125066213D01*
X65479190Y-124318265D01*
X64906735Y-123745810D01*
X64158787Y-123436000D01*
X63349213Y-123436000D01*
X62601265Y-123745810D01*
X62028810Y-124318265D01*
X61719000Y-125066213D01*
X56628284Y-125066213D01*
X56627919Y-124861891D01*
X56170010Y-123756400D01*
X55757719Y-123486886D01*
X53773605Y-125471000D01*
X53414395Y-125471000D01*
X51430281Y-123486886D01*
X51017990Y-123756400D01*
X50557928Y-124872713D01*
X48307687Y-124872713D01*
X47995905Y-124120006D01*
X47324994Y-123449095D01*
X46982626Y-123307281D01*
X51609886Y-123307281D01*
X53594000Y-125291395D01*
X55578114Y-123307281D01*
X55308600Y-122894990D01*
X54192287Y-122434928D01*
X52984891Y-122437081D01*
X51879400Y-122894990D01*
X51609886Y-123307281D01*
X46982626Y-123307281D01*
X46448406Y-123086000D01*
X45499594Y-123086000D01*
X44623006Y-123449095D01*
X43952095Y-124120006D01*
X43589000Y-124996594D01*
X21683230Y-124996594D01*
X21613004Y-116078000D01*
X22983867Y-116078000D01*
X23091359Y-116618400D01*
X23397471Y-117076529D01*
X23855600Y-117382641D01*
X24259593Y-117463000D01*
X26032407Y-117463000D01*
X26436400Y-117382641D01*
X26894529Y-117076529D01*
X27200641Y-116618400D01*
X27308133Y-116078000D01*
X31183867Y-116078000D01*
X31291359Y-116618400D01*
X31597471Y-117076529D01*
X32055600Y-117382641D01*
X32459593Y-117463000D01*
X34232407Y-117463000D01*
X34636400Y-117382641D01*
X35094529Y-117076529D01*
X35400641Y-116618400D01*
X35508133Y-116078000D01*
X35400641Y-115537600D01*
X35094529Y-115079471D01*
X34636400Y-114773359D01*
X34232407Y-114693000D01*
X32459593Y-114693000D01*
X32055600Y-114773359D01*
X31597471Y-115079471D01*
X31291359Y-115537600D01*
X31183867Y-116078000D01*
X27308133Y-116078000D01*
X27200641Y-115537600D01*
X26894529Y-115079471D01*
X26436400Y-114773359D01*
X26032407Y-114693000D01*
X24259593Y-114693000D01*
X23855600Y-114773359D01*
X23397471Y-115079471D01*
X23091359Y-115537600D01*
X22983867Y-116078000D01*
X21613004Y-116078000D01*
X21575691Y-111339185D01*
X23053682Y-111339185D01*
X23067827Y-111410684D01*
X23326855Y-111887540D01*
X23748651Y-112228972D01*
X24269000Y-112383000D01*
X25019000Y-112383000D01*
X25019000Y-111125000D01*
X25273000Y-111125000D01*
X25273000Y-112383000D01*
X26023000Y-112383000D01*
X26543349Y-112228972D01*
X26965145Y-111887540D01*
X27224173Y-111410684D01*
X27238318Y-111339185D01*
X31253682Y-111339185D01*
X31267827Y-111410684D01*
X31526855Y-111887540D01*
X31948651Y-112228972D01*
X32469000Y-112383000D01*
X33219000Y-112383000D01*
X33219000Y-111125000D01*
X33473000Y-111125000D01*
X33473000Y-112383000D01*
X34223000Y-112383000D01*
X34743349Y-112228972D01*
X35165145Y-111887540D01*
X35424173Y-111410684D01*
X35438318Y-111339185D01*
X35315656Y-111125000D01*
X33473000Y-111125000D01*
X33219000Y-111125000D01*
X31376344Y-111125000D01*
X31253682Y-111339185D01*
X27238318Y-111339185D01*
X27115656Y-111125000D01*
X25273000Y-111125000D01*
X25019000Y-111125000D01*
X23176344Y-111125000D01*
X23053682Y-111339185D01*
X21575691Y-111339185D01*
X21570318Y-110656815D01*
X23053682Y-110656815D01*
X23176344Y-110871000D01*
X25019000Y-110871000D01*
X25019000Y-109613000D01*
X25273000Y-109613000D01*
X25273000Y-110871000D01*
X27115656Y-110871000D01*
X27238318Y-110656815D01*
X31253682Y-110656815D01*
X31376344Y-110871000D01*
X33219000Y-110871000D01*
X33219000Y-109613000D01*
X33473000Y-109613000D01*
X33473000Y-110871000D01*
X35315656Y-110871000D01*
X35438318Y-110656815D01*
X35424173Y-110585316D01*
X35165145Y-110108460D01*
X34743349Y-109767028D01*
X34223000Y-109613000D01*
X33473000Y-109613000D01*
X33219000Y-109613000D01*
X32469000Y-109613000D01*
X31948651Y-109767028D01*
X31526855Y-110108460D01*
X31267827Y-110585316D01*
X31253682Y-110656815D01*
X27238318Y-110656815D01*
X27224173Y-110585316D01*
X26965145Y-110108460D01*
X26543349Y-109767028D01*
X26023000Y-109613000D01*
X25273000Y-109613000D01*
X25019000Y-109613000D01*
X24269000Y-109613000D01*
X23748651Y-109767028D01*
X23326855Y-110108460D01*
X23067827Y-110585316D01*
X23053682Y-110656815D01*
X21570318Y-110656815D01*
X21533004Y-105918000D01*
X22983867Y-105918000D01*
X23091359Y-106458400D01*
X23397471Y-106916529D01*
X23855600Y-107222641D01*
X24259593Y-107303000D01*
X26032407Y-107303000D01*
X26436400Y-107222641D01*
X26894529Y-106916529D01*
X27200641Y-106458400D01*
X27308133Y-105918000D01*
X31183867Y-105918000D01*
X31291359Y-106458400D01*
X31597471Y-106916529D01*
X32055600Y-107222641D01*
X32459593Y-107303000D01*
X34232407Y-107303000D01*
X34636400Y-107222641D01*
X35094529Y-106916529D01*
X35400641Y-106458400D01*
X35508133Y-105918000D01*
X35400641Y-105377600D01*
X35094529Y-104919471D01*
X34636400Y-104613359D01*
X34232407Y-104533000D01*
X32459593Y-104533000D01*
X32055600Y-104613359D01*
X31597471Y-104919471D01*
X31291359Y-105377600D01*
X31183867Y-105918000D01*
X27308133Y-105918000D01*
X27200641Y-105377600D01*
X26894529Y-104919471D01*
X26436400Y-104613359D01*
X26032407Y-104533000D01*
X24259593Y-104533000D01*
X23855600Y-104613359D01*
X23397471Y-104919471D01*
X23091359Y-105377600D01*
X22983867Y-105918000D01*
X21533004Y-105918000D01*
X21495254Y-101123750D01*
X23011000Y-101123750D01*
X23011000Y-101714309D01*
X23107673Y-101947698D01*
X23286301Y-102126327D01*
X23519690Y-102223000D01*
X24860250Y-102223000D01*
X25019000Y-102064250D01*
X25019000Y-100965000D01*
X25273000Y-100965000D01*
X25273000Y-102064250D01*
X25431750Y-102223000D01*
X26772310Y-102223000D01*
X27005699Y-102126327D01*
X27184327Y-101947698D01*
X27281000Y-101714309D01*
X27281000Y-101123750D01*
X31211000Y-101123750D01*
X31211000Y-101714309D01*
X31307673Y-101947698D01*
X31486301Y-102126327D01*
X31719690Y-102223000D01*
X33060250Y-102223000D01*
X33219000Y-102064250D01*
X33219000Y-100965000D01*
X33473000Y-100965000D01*
X33473000Y-102064250D01*
X33631750Y-102223000D01*
X34972310Y-102223000D01*
X35205699Y-102126327D01*
X35384327Y-101947698D01*
X35481000Y-101714309D01*
X35481000Y-101123750D01*
X35322250Y-100965000D01*
X33473000Y-100965000D01*
X33219000Y-100965000D01*
X31369750Y-100965000D01*
X31211000Y-101123750D01*
X27281000Y-101123750D01*
X27122250Y-100965000D01*
X25273000Y-100965000D01*
X25019000Y-100965000D01*
X23169750Y-100965000D01*
X23011000Y-101123750D01*
X21495254Y-101123750D01*
X21486104Y-99961691D01*
X23011000Y-99961691D01*
X23011000Y-100552250D01*
X23169750Y-100711000D01*
X25019000Y-100711000D01*
X25019000Y-99611750D01*
X25273000Y-99611750D01*
X25273000Y-100711000D01*
X27122250Y-100711000D01*
X27281000Y-100552250D01*
X27281000Y-99961691D01*
X31211000Y-99961691D01*
X31211000Y-100552250D01*
X31369750Y-100711000D01*
X33219000Y-100711000D01*
X33219000Y-99611750D01*
X33473000Y-99611750D01*
X33473000Y-100711000D01*
X35322250Y-100711000D01*
X35481000Y-100552250D01*
X35481000Y-99961691D01*
X35384327Y-99728302D01*
X35205699Y-99549673D01*
X34972310Y-99453000D01*
X33631750Y-99453000D01*
X33473000Y-99611750D01*
X33219000Y-99611750D01*
X33060250Y-99453000D01*
X31719690Y-99453000D01*
X31486301Y-99549673D01*
X31307673Y-99728302D01*
X31211000Y-99961691D01*
X27281000Y-99961691D01*
X27184327Y-99728302D01*
X27005699Y-99549673D01*
X26772310Y-99453000D01*
X25431750Y-99453000D01*
X25273000Y-99611750D01*
X25019000Y-99611750D01*
X24860250Y-99453000D01*
X23519690Y-99453000D01*
X23286301Y-99549673D01*
X23107673Y-99728302D01*
X23011000Y-99961691D01*
X21486104Y-99961691D01*
X21464004Y-97155000D01*
X44323000Y-97155000D01*
X44323000Y-117094000D01*
X44323000Y-117094000D01*
G37*
X44323000Y-117094000D02*
X44332667Y-117142601D01*
X44360197Y-117183803D01*
X44401399Y-117211333D01*
X44450000Y-117221000D01*
X146558000Y-117221000D01*
X146606601Y-117211333D01*
X146647803Y-117183803D01*
X146675333Y-117142601D01*
X146685000Y-117094000D01*
X146685000Y-116926000D01*
X153138560Y-116926000D01*
X153138560Y-121326000D01*
X153187843Y-121573765D01*
X153328191Y-121783809D01*
X153538235Y-121924157D01*
X153786000Y-121973440D01*
X155586000Y-121973440D01*
X155833765Y-121924157D01*
X156043809Y-121783809D01*
X156184157Y-121573765D01*
X156233440Y-121326000D01*
X156233440Y-119253000D01*
X158951000Y-119253000D01*
X158951000Y-120353000D01*
X159116446Y-120930752D01*
X159490394Y-121401212D01*
X160015914Y-121692756D01*
X160121260Y-121717036D01*
X160359000Y-121596378D01*
X160359000Y-119253000D01*
X160613000Y-119253000D01*
X160613000Y-121596378D01*
X160850740Y-121717036D01*
X160956086Y-121692756D01*
X161481606Y-121401212D01*
X161855554Y-120930752D01*
X162021000Y-120353000D01*
X162021000Y-119253000D01*
X160613000Y-119253000D01*
X160359000Y-119253000D01*
X158951000Y-119253000D01*
X156233440Y-119253000D01*
X156233440Y-117899000D01*
X158951000Y-117899000D01*
X158951000Y-118999000D01*
X160359000Y-118999000D01*
X160359000Y-116655622D01*
X160613000Y-116655622D01*
X160613000Y-118999000D01*
X162021000Y-118999000D01*
X162021000Y-117899000D01*
X161855554Y-117321248D01*
X161481606Y-116850788D01*
X160956086Y-116559244D01*
X160850740Y-116534964D01*
X160613000Y-116655622D01*
X160359000Y-116655622D01*
X160121260Y-116534964D01*
X160015914Y-116559244D01*
X159490394Y-116850788D01*
X159116446Y-117321248D01*
X158951000Y-117899000D01*
X156233440Y-117899000D01*
X156233440Y-116926000D01*
X156184157Y-116678235D01*
X156043809Y-116468191D01*
X155833765Y-116327843D01*
X155586000Y-116278560D01*
X153786000Y-116278560D01*
X153538235Y-116327843D01*
X153328191Y-116468191D01*
X153187843Y-116678235D01*
X153138560Y-116926000D01*
X146685000Y-116926000D01*
X146685000Y-114326000D01*
X155020928Y-114326000D01*
X155140062Y-114924927D01*
X155479327Y-115432673D01*
X155987073Y-115771938D01*
X156434818Y-115861000D01*
X158937182Y-115861000D01*
X159384927Y-115771938D01*
X159892673Y-115432673D01*
X160231938Y-114924927D01*
X160351072Y-114326000D01*
X160231938Y-113727073D01*
X159892673Y-113219327D01*
X159384927Y-112880062D01*
X158937182Y-112791000D01*
X156434818Y-112791000D01*
X155987073Y-112880062D01*
X155479327Y-113219327D01*
X155140062Y-113727073D01*
X155020928Y-114326000D01*
X146685000Y-114326000D01*
X146685000Y-103972000D01*
X153138560Y-103972000D01*
X153138560Y-108372000D01*
X153187843Y-108619765D01*
X153328191Y-108829809D01*
X153538235Y-108970157D01*
X153786000Y-109019440D01*
X155586000Y-109019440D01*
X155833765Y-108970157D01*
X156043809Y-108829809D01*
X156184157Y-108619765D01*
X156233440Y-108372000D01*
X156233440Y-106299000D01*
X158951000Y-106299000D01*
X158951000Y-107399000D01*
X159116446Y-107976752D01*
X159490394Y-108447212D01*
X160015914Y-108738756D01*
X160121260Y-108763036D01*
X160359000Y-108642378D01*
X160359000Y-106299000D01*
X160613000Y-106299000D01*
X160613000Y-108642378D01*
X160850740Y-108763036D01*
X160956086Y-108738756D01*
X161481606Y-108447212D01*
X161855554Y-107976752D01*
X162021000Y-107399000D01*
X162021000Y-106299000D01*
X160613000Y-106299000D01*
X160359000Y-106299000D01*
X158951000Y-106299000D01*
X156233440Y-106299000D01*
X156233440Y-104945000D01*
X158951000Y-104945000D01*
X158951000Y-106045000D01*
X160359000Y-106045000D01*
X160359000Y-103701622D01*
X160613000Y-103701622D01*
X160613000Y-106045000D01*
X162021000Y-106045000D01*
X162021000Y-104945000D01*
X161855554Y-104367248D01*
X161481606Y-103896788D01*
X160956086Y-103605244D01*
X160850740Y-103580964D01*
X160613000Y-103701622D01*
X160359000Y-103701622D01*
X160121260Y-103580964D01*
X160015914Y-103605244D01*
X159490394Y-103896788D01*
X159116446Y-104367248D01*
X158951000Y-104945000D01*
X156233440Y-104945000D01*
X156233440Y-103972000D01*
X156184157Y-103724235D01*
X156043809Y-103514191D01*
X155833765Y-103373843D01*
X155586000Y-103324560D01*
X153786000Y-103324560D01*
X153538235Y-103373843D01*
X153328191Y-103514191D01*
X153187843Y-103724235D01*
X153138560Y-103972000D01*
X146685000Y-103972000D01*
X146685000Y-102235000D01*
X155316510Y-102235000D01*
X155479327Y-102478673D01*
X155987073Y-102817938D01*
X156434818Y-102907000D01*
X158937182Y-102907000D01*
X159384927Y-102817938D01*
X159892673Y-102478673D01*
X160055490Y-102235000D01*
X165225808Y-102235000D01*
X164998268Y-126581745D01*
X164962741Y-126495974D01*
X164334026Y-125867259D01*
X163512569Y-125527000D01*
X162623431Y-125527000D01*
X161801974Y-125867259D01*
X161173259Y-126495974D01*
X160833000Y-127317431D01*
X160833000Y-128206569D01*
X161173259Y-129028026D01*
X161304233Y-129159000D01*
X28687767Y-129159000D01*
X28818741Y-129028026D01*
X29159000Y-128206569D01*
X29159000Y-127317431D01*
X28818741Y-126495974D01*
X28190026Y-125867259D01*
X27368569Y-125527000D01*
X26479431Y-125527000D01*
X25657974Y-125867259D01*
X25029259Y-126495974D01*
X24689000Y-127317431D01*
X24689000Y-128206569D01*
X25029259Y-129028026D01*
X25160233Y-129159000D01*
X21716004Y-129159000D01*
X21683230Y-124996594D01*
X43589000Y-124996594D01*
X43589000Y-125945406D01*
X43952095Y-126821994D01*
X44623006Y-127492905D01*
X45499594Y-127856000D01*
X46448406Y-127856000D01*
X46982625Y-127634719D01*
X51609886Y-127634719D01*
X51879400Y-128047010D01*
X52995713Y-128507072D01*
X54203109Y-128504919D01*
X55308600Y-128047010D01*
X55578114Y-127634719D01*
X53594000Y-125650605D01*
X51609886Y-127634719D01*
X46982625Y-127634719D01*
X47324994Y-127492905D01*
X47995905Y-126821994D01*
X48359000Y-125945406D01*
X48359000Y-124996594D01*
X48307687Y-124872713D01*
X50557928Y-124872713D01*
X50560081Y-126080109D01*
X51017990Y-127185600D01*
X51430281Y-127455114D01*
X53414395Y-125471000D01*
X53773605Y-125471000D01*
X55757719Y-127455114D01*
X56170010Y-127185600D01*
X56630072Y-126069287D01*
X56628284Y-125066213D01*
X61719000Y-125066213D01*
X61719000Y-125875787D01*
X62028810Y-126623735D01*
X62601265Y-127196190D01*
X63349213Y-127506000D01*
X64158787Y-127506000D01*
X64906735Y-127196190D01*
X65479190Y-126623735D01*
X65789000Y-125875787D01*
X65789000Y-125066213D01*
X69339000Y-125066213D01*
X69339000Y-125875787D01*
X69648810Y-126623735D01*
X70221265Y-127196190D01*
X70969213Y-127506000D01*
X71778787Y-127506000D01*
X72526735Y-127196190D01*
X73099190Y-126623735D01*
X73409000Y-125875787D01*
X73409000Y-125066213D01*
X76959000Y-125066213D01*
X76959000Y-125875787D01*
X77268810Y-126623735D01*
X77841265Y-127196190D01*
X78589213Y-127506000D01*
X79398787Y-127506000D01*
X80146735Y-127196190D01*
X80719190Y-126623735D01*
X81029000Y-125875787D01*
X81029000Y-125066213D01*
X80946609Y-124867301D01*
X86119000Y-124867301D01*
X86119000Y-126074699D01*
X86581051Y-127190189D01*
X87434811Y-128043949D01*
X88550301Y-128506000D01*
X89757699Y-128506000D01*
X90873189Y-128043949D01*
X91726949Y-127190189D01*
X92189000Y-126074699D01*
X92189000Y-124996594D01*
X94389000Y-124996594D01*
X94389000Y-125945406D01*
X94752095Y-126821994D01*
X95423006Y-127492905D01*
X96299594Y-127856000D01*
X97248406Y-127856000D01*
X98124994Y-127492905D01*
X98795905Y-126821994D01*
X99159000Y-125945406D01*
X99159000Y-124996594D01*
X98795905Y-124120006D01*
X98124994Y-123449095D01*
X97248406Y-123086000D01*
X96299594Y-123086000D01*
X95423006Y-123449095D01*
X94752095Y-124120006D01*
X94389000Y-124996594D01*
X92189000Y-124996594D01*
X92189000Y-124867301D01*
X91726949Y-123751811D01*
X90873189Y-122898051D01*
X89757699Y-122436000D01*
X88550301Y-122436000D01*
X87434811Y-122898051D01*
X86581051Y-123751811D01*
X86119000Y-124867301D01*
X80946609Y-124867301D01*
X80719190Y-124318265D01*
X80146735Y-123745810D01*
X79398787Y-123436000D01*
X78589213Y-123436000D01*
X77841265Y-123745810D01*
X77268810Y-124318265D01*
X76959000Y-125066213D01*
X73409000Y-125066213D01*
X73099190Y-124318265D01*
X72526735Y-123745810D01*
X71778787Y-123436000D01*
X70969213Y-123436000D01*
X70221265Y-123745810D01*
X69648810Y-124318265D01*
X69339000Y-125066213D01*
X65789000Y-125066213D01*
X65479190Y-124318265D01*
X64906735Y-123745810D01*
X64158787Y-123436000D01*
X63349213Y-123436000D01*
X62601265Y-123745810D01*
X62028810Y-124318265D01*
X61719000Y-125066213D01*
X56628284Y-125066213D01*
X56627919Y-124861891D01*
X56170010Y-123756400D01*
X55757719Y-123486886D01*
X53773605Y-125471000D01*
X53414395Y-125471000D01*
X51430281Y-123486886D01*
X51017990Y-123756400D01*
X50557928Y-124872713D01*
X48307687Y-124872713D01*
X47995905Y-124120006D01*
X47324994Y-123449095D01*
X46982626Y-123307281D01*
X51609886Y-123307281D01*
X53594000Y-125291395D01*
X55578114Y-123307281D01*
X55308600Y-122894990D01*
X54192287Y-122434928D01*
X52984891Y-122437081D01*
X51879400Y-122894990D01*
X51609886Y-123307281D01*
X46982626Y-123307281D01*
X46448406Y-123086000D01*
X45499594Y-123086000D01*
X44623006Y-123449095D01*
X43952095Y-124120006D01*
X43589000Y-124996594D01*
X21683230Y-124996594D01*
X21613004Y-116078000D01*
X22983867Y-116078000D01*
X23091359Y-116618400D01*
X23397471Y-117076529D01*
X23855600Y-117382641D01*
X24259593Y-117463000D01*
X26032407Y-117463000D01*
X26436400Y-117382641D01*
X26894529Y-117076529D01*
X27200641Y-116618400D01*
X27308133Y-116078000D01*
X31183867Y-116078000D01*
X31291359Y-116618400D01*
X31597471Y-117076529D01*
X32055600Y-117382641D01*
X32459593Y-117463000D01*
X34232407Y-117463000D01*
X34636400Y-117382641D01*
X35094529Y-117076529D01*
X35400641Y-116618400D01*
X35508133Y-116078000D01*
X35400641Y-115537600D01*
X35094529Y-115079471D01*
X34636400Y-114773359D01*
X34232407Y-114693000D01*
X32459593Y-114693000D01*
X32055600Y-114773359D01*
X31597471Y-115079471D01*
X31291359Y-115537600D01*
X31183867Y-116078000D01*
X27308133Y-116078000D01*
X27200641Y-115537600D01*
X26894529Y-115079471D01*
X26436400Y-114773359D01*
X26032407Y-114693000D01*
X24259593Y-114693000D01*
X23855600Y-114773359D01*
X23397471Y-115079471D01*
X23091359Y-115537600D01*
X22983867Y-116078000D01*
X21613004Y-116078000D01*
X21575691Y-111339185D01*
X23053682Y-111339185D01*
X23067827Y-111410684D01*
X23326855Y-111887540D01*
X23748651Y-112228972D01*
X24269000Y-112383000D01*
X25019000Y-112383000D01*
X25019000Y-111125000D01*
X25273000Y-111125000D01*
X25273000Y-112383000D01*
X26023000Y-112383000D01*
X26543349Y-112228972D01*
X26965145Y-111887540D01*
X27224173Y-111410684D01*
X27238318Y-111339185D01*
X31253682Y-111339185D01*
X31267827Y-111410684D01*
X31526855Y-111887540D01*
X31948651Y-112228972D01*
X32469000Y-112383000D01*
X33219000Y-112383000D01*
X33219000Y-111125000D01*
X33473000Y-111125000D01*
X33473000Y-112383000D01*
X34223000Y-112383000D01*
X34743349Y-112228972D01*
X35165145Y-111887540D01*
X35424173Y-111410684D01*
X35438318Y-111339185D01*
X35315656Y-111125000D01*
X33473000Y-111125000D01*
X33219000Y-111125000D01*
X31376344Y-111125000D01*
X31253682Y-111339185D01*
X27238318Y-111339185D01*
X27115656Y-111125000D01*
X25273000Y-111125000D01*
X25019000Y-111125000D01*
X23176344Y-111125000D01*
X23053682Y-111339185D01*
X21575691Y-111339185D01*
X21570318Y-110656815D01*
X23053682Y-110656815D01*
X23176344Y-110871000D01*
X25019000Y-110871000D01*
X25019000Y-109613000D01*
X25273000Y-109613000D01*
X25273000Y-110871000D01*
X27115656Y-110871000D01*
X27238318Y-110656815D01*
X31253682Y-110656815D01*
X31376344Y-110871000D01*
X33219000Y-110871000D01*
X33219000Y-109613000D01*
X33473000Y-109613000D01*
X33473000Y-110871000D01*
X35315656Y-110871000D01*
X35438318Y-110656815D01*
X35424173Y-110585316D01*
X35165145Y-110108460D01*
X34743349Y-109767028D01*
X34223000Y-109613000D01*
X33473000Y-109613000D01*
X33219000Y-109613000D01*
X32469000Y-109613000D01*
X31948651Y-109767028D01*
X31526855Y-110108460D01*
X31267827Y-110585316D01*
X31253682Y-110656815D01*
X27238318Y-110656815D01*
X27224173Y-110585316D01*
X26965145Y-110108460D01*
X26543349Y-109767028D01*
X26023000Y-109613000D01*
X25273000Y-109613000D01*
X25019000Y-109613000D01*
X24269000Y-109613000D01*
X23748651Y-109767028D01*
X23326855Y-110108460D01*
X23067827Y-110585316D01*
X23053682Y-110656815D01*
X21570318Y-110656815D01*
X21533004Y-105918000D01*
X22983867Y-105918000D01*
X23091359Y-106458400D01*
X23397471Y-106916529D01*
X23855600Y-107222641D01*
X24259593Y-107303000D01*
X26032407Y-107303000D01*
X26436400Y-107222641D01*
X26894529Y-106916529D01*
X27200641Y-106458400D01*
X27308133Y-105918000D01*
X31183867Y-105918000D01*
X31291359Y-106458400D01*
X31597471Y-106916529D01*
X32055600Y-107222641D01*
X32459593Y-107303000D01*
X34232407Y-107303000D01*
X34636400Y-107222641D01*
X35094529Y-106916529D01*
X35400641Y-106458400D01*
X35508133Y-105918000D01*
X35400641Y-105377600D01*
X35094529Y-104919471D01*
X34636400Y-104613359D01*
X34232407Y-104533000D01*
X32459593Y-104533000D01*
X32055600Y-104613359D01*
X31597471Y-104919471D01*
X31291359Y-105377600D01*
X31183867Y-105918000D01*
X27308133Y-105918000D01*
X27200641Y-105377600D01*
X26894529Y-104919471D01*
X26436400Y-104613359D01*
X26032407Y-104533000D01*
X24259593Y-104533000D01*
X23855600Y-104613359D01*
X23397471Y-104919471D01*
X23091359Y-105377600D01*
X22983867Y-105918000D01*
X21533004Y-105918000D01*
X21495254Y-101123750D01*
X23011000Y-101123750D01*
X23011000Y-101714309D01*
X23107673Y-101947698D01*
X23286301Y-102126327D01*
X23519690Y-102223000D01*
X24860250Y-102223000D01*
X25019000Y-102064250D01*
X25019000Y-100965000D01*
X25273000Y-100965000D01*
X25273000Y-102064250D01*
X25431750Y-102223000D01*
X26772310Y-102223000D01*
X27005699Y-102126327D01*
X27184327Y-101947698D01*
X27281000Y-101714309D01*
X27281000Y-101123750D01*
X31211000Y-101123750D01*
X31211000Y-101714309D01*
X31307673Y-101947698D01*
X31486301Y-102126327D01*
X31719690Y-102223000D01*
X33060250Y-102223000D01*
X33219000Y-102064250D01*
X33219000Y-100965000D01*
X33473000Y-100965000D01*
X33473000Y-102064250D01*
X33631750Y-102223000D01*
X34972310Y-102223000D01*
X35205699Y-102126327D01*
X35384327Y-101947698D01*
X35481000Y-101714309D01*
X35481000Y-101123750D01*
X35322250Y-100965000D01*
X33473000Y-100965000D01*
X33219000Y-100965000D01*
X31369750Y-100965000D01*
X31211000Y-101123750D01*
X27281000Y-101123750D01*
X27122250Y-100965000D01*
X25273000Y-100965000D01*
X25019000Y-100965000D01*
X23169750Y-100965000D01*
X23011000Y-101123750D01*
X21495254Y-101123750D01*
X21486104Y-99961691D01*
X23011000Y-99961691D01*
X23011000Y-100552250D01*
X23169750Y-100711000D01*
X25019000Y-100711000D01*
X25019000Y-99611750D01*
X25273000Y-99611750D01*
X25273000Y-100711000D01*
X27122250Y-100711000D01*
X27281000Y-100552250D01*
X27281000Y-99961691D01*
X31211000Y-99961691D01*
X31211000Y-100552250D01*
X31369750Y-100711000D01*
X33219000Y-100711000D01*
X33219000Y-99611750D01*
X33473000Y-99611750D01*
X33473000Y-100711000D01*
X35322250Y-100711000D01*
X35481000Y-100552250D01*
X35481000Y-99961691D01*
X35384327Y-99728302D01*
X35205699Y-99549673D01*
X34972310Y-99453000D01*
X33631750Y-99453000D01*
X33473000Y-99611750D01*
X33219000Y-99611750D01*
X33060250Y-99453000D01*
X31719690Y-99453000D01*
X31486301Y-99549673D01*
X31307673Y-99728302D01*
X31211000Y-99961691D01*
X27281000Y-99961691D01*
X27184327Y-99728302D01*
X27005699Y-99549673D01*
X26772310Y-99453000D01*
X25431750Y-99453000D01*
X25273000Y-99611750D01*
X25019000Y-99611750D01*
X24860250Y-99453000D01*
X23519690Y-99453000D01*
X23286301Y-99549673D01*
X23107673Y-99728302D01*
X23011000Y-99961691D01*
X21486104Y-99961691D01*
X21464004Y-97155000D01*
X44323000Y-97155000D01*
X44323000Y-117094000D01*
G04 #@! TO.N,GND*
G36*
X24689000Y-36004569D02*
X25029259Y-36826026D01*
X25657974Y-37454741D01*
X26479431Y-37795000D01*
X27368569Y-37795000D01*
X28190026Y-37454741D01*
X28818741Y-36826026D01*
X29159000Y-36004569D01*
X29159000Y-35179000D01*
X148969910Y-35179000D01*
X148848482Y-49386064D01*
X148772582Y-49401161D01*
X148281375Y-49729375D01*
X148266904Y-49751033D01*
X148200327Y-49590302D01*
X148021699Y-49411673D01*
X147788310Y-49315000D01*
X147097750Y-49315000D01*
X146939000Y-49473750D01*
X146939000Y-50673000D01*
X146959000Y-50673000D01*
X146959000Y-50927000D01*
X146939000Y-50927000D01*
X146939000Y-52126250D01*
X147097750Y-52285000D01*
X147788310Y-52285000D01*
X148021699Y-52188327D01*
X148200327Y-52009698D01*
X148266904Y-51848967D01*
X148281375Y-51870625D01*
X148772582Y-52198839D01*
X148824353Y-52209137D01*
X148718081Y-64643000D01*
X138049000Y-64643000D01*
X138049000Y-63666914D01*
X138425076Y-64009645D01*
X138835110Y-64179476D01*
X139065000Y-64058155D01*
X139065000Y-62865000D01*
X139319000Y-62865000D01*
X139319000Y-64058155D01*
X139548890Y-64179476D01*
X139958924Y-64009645D01*
X140387183Y-63619358D01*
X140633486Y-63094892D01*
X140512819Y-62865000D01*
X139319000Y-62865000D01*
X139065000Y-62865000D01*
X139045000Y-62865000D01*
X139045000Y-62611000D01*
X139065000Y-62611000D01*
X139065000Y-60325000D01*
X139319000Y-60325000D01*
X139319000Y-62611000D01*
X140512819Y-62611000D01*
X140633486Y-62381108D01*
X140387183Y-61856642D01*
X139960729Y-61468000D01*
X140387183Y-61079358D01*
X140633486Y-60554892D01*
X140512819Y-60325000D01*
X139319000Y-60325000D01*
X139065000Y-60325000D01*
X136779000Y-60325000D01*
X136779000Y-60345000D01*
X136525000Y-60345000D01*
X136525000Y-60325000D01*
X136505000Y-60325000D01*
X136505000Y-60071000D01*
X136525000Y-60071000D01*
X136525000Y-58877845D01*
X136779000Y-58877845D01*
X136779000Y-60071000D01*
X139065000Y-60071000D01*
X139065000Y-58877845D01*
X139319000Y-58877845D01*
X139319000Y-60071000D01*
X140512819Y-60071000D01*
X140633486Y-59841108D01*
X140387183Y-59316642D01*
X139958924Y-58926355D01*
X139548890Y-58756524D01*
X139319000Y-58877845D01*
X139065000Y-58877845D01*
X138835110Y-58756524D01*
X138425076Y-58926355D01*
X137996817Y-59316642D01*
X137922000Y-59475954D01*
X137847183Y-59316642D01*
X137418924Y-58926355D01*
X137008890Y-58756524D01*
X136779000Y-58877845D01*
X136525000Y-58877845D01*
X136295110Y-58756524D01*
X135885076Y-58926355D01*
X135456817Y-59316642D01*
X135395843Y-59446478D01*
X135182625Y-59127375D01*
X134890878Y-58932436D01*
X134746880Y-55620483D01*
X134735111Y-55572348D01*
X134705817Y-55532381D01*
X134663458Y-55506667D01*
X134621134Y-55499005D01*
X107138425Y-55253624D01*
X102970551Y-51085750D01*
X145327000Y-51085750D01*
X145327000Y-51776309D01*
X145423673Y-52009698D01*
X145602301Y-52188327D01*
X145835690Y-52285000D01*
X146526250Y-52285000D01*
X146685000Y-52126250D01*
X146685000Y-50927000D01*
X145485750Y-50927000D01*
X145327000Y-51085750D01*
X102970551Y-51085750D01*
X101708492Y-49823691D01*
X145327000Y-49823691D01*
X145327000Y-50514250D01*
X145485750Y-50673000D01*
X146685000Y-50673000D01*
X146685000Y-49473750D01*
X146526250Y-49315000D01*
X145835690Y-49315000D01*
X145602301Y-49411673D01*
X145423673Y-49590302D01*
X145327000Y-49823691D01*
X101708492Y-49823691D01*
X96617982Y-44733181D01*
X109489000Y-44733181D01*
X109578062Y-45180926D01*
X109917327Y-45688673D01*
X110425073Y-46027938D01*
X111024000Y-46147072D01*
X111622926Y-46027938D01*
X112130673Y-45688673D01*
X112201949Y-45582000D01*
X112976560Y-45582000D01*
X112976560Y-47382000D01*
X113025843Y-47629765D01*
X113166191Y-47839809D01*
X113376235Y-47980157D01*
X113624000Y-48029440D01*
X118024000Y-48029440D01*
X118271765Y-47980157D01*
X118481809Y-47839809D01*
X118622157Y-47629765D01*
X118671440Y-47382000D01*
X118671440Y-45582000D01*
X118622157Y-45334235D01*
X118481809Y-45124191D01*
X118271765Y-44983843D01*
X118024000Y-44934560D01*
X113624000Y-44934560D01*
X113376235Y-44983843D01*
X113166191Y-45124191D01*
X113025843Y-45334235D01*
X112976560Y-45582000D01*
X112201949Y-45582000D01*
X112469938Y-45180927D01*
X112559000Y-44733182D01*
X112559000Y-44733181D01*
X121173000Y-44733181D01*
X121262062Y-45180926D01*
X121601327Y-45688673D01*
X122109073Y-46027938D01*
X122708000Y-46147072D01*
X123306926Y-46027938D01*
X123814673Y-45688673D01*
X123885949Y-45582000D01*
X124660560Y-45582000D01*
X124660560Y-47382000D01*
X124709843Y-47629765D01*
X124850191Y-47839809D01*
X125060235Y-47980157D01*
X125308000Y-48029440D01*
X129708000Y-48029440D01*
X129955765Y-47980157D01*
X130165809Y-47839809D01*
X130306157Y-47629765D01*
X130355440Y-47382000D01*
X130355440Y-45582000D01*
X130306157Y-45334235D01*
X130165809Y-45124191D01*
X129955765Y-44983843D01*
X129708000Y-44934560D01*
X125308000Y-44934560D01*
X125060235Y-44983843D01*
X124850191Y-45124191D01*
X124709843Y-45334235D01*
X124660560Y-45582000D01*
X123885949Y-45582000D01*
X124153938Y-45180927D01*
X124243000Y-44733182D01*
X124243000Y-44733181D01*
X132095000Y-44733181D01*
X132184062Y-45180926D01*
X132523327Y-45688673D01*
X133031073Y-46027938D01*
X133630000Y-46147072D01*
X134228926Y-46027938D01*
X134736673Y-45688673D01*
X134807949Y-45582000D01*
X135582560Y-45582000D01*
X135582560Y-47382000D01*
X135631843Y-47629765D01*
X135772191Y-47839809D01*
X135982235Y-47980157D01*
X136230000Y-48029440D01*
X140630000Y-48029440D01*
X140877765Y-47980157D01*
X141087809Y-47839809D01*
X141228157Y-47629765D01*
X141277440Y-47382000D01*
X141277440Y-45582000D01*
X141228157Y-45334235D01*
X141087809Y-45124191D01*
X140877765Y-44983843D01*
X140630000Y-44934560D01*
X136230000Y-44934560D01*
X135982235Y-44983843D01*
X135772191Y-45124191D01*
X135631843Y-45334235D01*
X135582560Y-45582000D01*
X134807949Y-45582000D01*
X135075938Y-45180927D01*
X135165000Y-44733182D01*
X135165000Y-42230818D01*
X135075938Y-41783073D01*
X134736673Y-41275327D01*
X134394569Y-41046740D01*
X135838964Y-41046740D01*
X135863244Y-41152086D01*
X136154788Y-41677606D01*
X136625248Y-42051554D01*
X137203000Y-42217000D01*
X138303000Y-42217000D01*
X138303000Y-40809000D01*
X138557000Y-40809000D01*
X138557000Y-42217000D01*
X139657000Y-42217000D01*
X140234752Y-42051554D01*
X140705212Y-41677606D01*
X140996756Y-41152086D01*
X141021036Y-41046740D01*
X140900378Y-40809000D01*
X138557000Y-40809000D01*
X138303000Y-40809000D01*
X135959622Y-40809000D01*
X135838964Y-41046740D01*
X134394569Y-41046740D01*
X134228927Y-40936062D01*
X133630000Y-40816928D01*
X133031074Y-40936062D01*
X132523328Y-41275327D01*
X132184063Y-41783073D01*
X132095001Y-42230818D01*
X132095000Y-44733181D01*
X124243000Y-44733181D01*
X124243000Y-42230818D01*
X124153938Y-41783073D01*
X123814673Y-41275327D01*
X123472569Y-41046740D01*
X124916964Y-41046740D01*
X124941244Y-41152086D01*
X125232788Y-41677606D01*
X125703248Y-42051554D01*
X126281000Y-42217000D01*
X127381000Y-42217000D01*
X127381000Y-40809000D01*
X127635000Y-40809000D01*
X127635000Y-42217000D01*
X128735000Y-42217000D01*
X129312752Y-42051554D01*
X129783212Y-41677606D01*
X130074756Y-41152086D01*
X130099036Y-41046740D01*
X129978378Y-40809000D01*
X127635000Y-40809000D01*
X127381000Y-40809000D01*
X125037622Y-40809000D01*
X124916964Y-41046740D01*
X123472569Y-41046740D01*
X123306927Y-40936062D01*
X122708000Y-40816928D01*
X122109074Y-40936062D01*
X121601328Y-41275327D01*
X121262063Y-41783073D01*
X121173001Y-42230818D01*
X121173000Y-44733181D01*
X112559000Y-44733181D01*
X112559000Y-42230818D01*
X112469938Y-41783073D01*
X112130673Y-41275327D01*
X111788569Y-41046740D01*
X113232964Y-41046740D01*
X113257244Y-41152086D01*
X113548788Y-41677606D01*
X114019248Y-42051554D01*
X114597000Y-42217000D01*
X115697000Y-42217000D01*
X115697000Y-40809000D01*
X115951000Y-40809000D01*
X115951000Y-42217000D01*
X117051000Y-42217000D01*
X117628752Y-42051554D01*
X118099212Y-41677606D01*
X118390756Y-41152086D01*
X118415036Y-41046740D01*
X118294378Y-40809000D01*
X115951000Y-40809000D01*
X115697000Y-40809000D01*
X113353622Y-40809000D01*
X113232964Y-41046740D01*
X111788569Y-41046740D01*
X111622927Y-40936062D01*
X111024000Y-40816928D01*
X110425074Y-40936062D01*
X109917328Y-41275327D01*
X109578063Y-41783073D01*
X109489001Y-42230818D01*
X109489000Y-44733181D01*
X96617982Y-44733181D01*
X94592835Y-42708034D01*
X94603000Y-42683494D01*
X94603000Y-42132506D01*
X94392147Y-41623460D01*
X94002540Y-41233853D01*
X93493494Y-41023000D01*
X92942506Y-41023000D01*
X92433460Y-41233853D01*
X92043853Y-41623460D01*
X91833000Y-42132506D01*
X91833000Y-42683494D01*
X92043853Y-43192540D01*
X92196887Y-43345574D01*
X92131426Y-43411034D01*
X92246481Y-43526089D01*
X92005540Y-43594077D01*
X91820799Y-44113171D01*
X91848770Y-44663448D01*
X92001763Y-45032804D01*
X91869843Y-45230235D01*
X91820560Y-45478000D01*
X91820560Y-46978000D01*
X91869843Y-47225765D01*
X92010191Y-47435809D01*
X92220235Y-47576157D01*
X92468000Y-47625440D01*
X93968000Y-47625440D01*
X94215765Y-47576157D01*
X94425809Y-47435809D01*
X94566157Y-47225765D01*
X94615440Y-46978000D01*
X94615440Y-45478000D01*
X94566157Y-45230235D01*
X94433890Y-45032285D01*
X94521451Y-44786252D01*
X106045000Y-56309801D01*
X106045000Y-79248000D01*
X106054667Y-79296601D01*
X106082197Y-79337803D01*
X106123399Y-79365333D01*
X106168474Y-79374951D01*
X115189000Y-79625521D01*
X115189000Y-80491607D01*
X115070823Y-80246150D01*
X114682455Y-79899016D01*
X114337388Y-79756097D01*
X114131059Y-79879439D01*
X114131059Y-80921813D01*
X114151059Y-80921813D01*
X114151059Y-81175813D01*
X114131059Y-81175813D01*
X114131059Y-82218187D01*
X114337388Y-82341529D01*
X114682455Y-82198610D01*
X115070823Y-81851476D01*
X115189000Y-81606019D01*
X115189000Y-114427000D01*
X69723000Y-114427000D01*
X69723000Y-83566000D01*
X69713333Y-83517399D01*
X69685803Y-83476197D01*
X69644601Y-83448667D01*
X69596000Y-83439000D01*
X22225000Y-83439000D01*
X22225000Y-76746594D01*
X43589000Y-76746594D01*
X43589000Y-77695406D01*
X43952095Y-78571994D01*
X44623006Y-79242905D01*
X45499594Y-79606000D01*
X46448406Y-79606000D01*
X46982625Y-79384719D01*
X51609886Y-79384719D01*
X51879400Y-79797010D01*
X52995713Y-80257072D01*
X54203109Y-80254919D01*
X55308600Y-79797010D01*
X55578114Y-79384719D01*
X53594000Y-77400605D01*
X51609886Y-79384719D01*
X46982625Y-79384719D01*
X47324994Y-79242905D01*
X47995905Y-78571994D01*
X48359000Y-77695406D01*
X48359000Y-76746594D01*
X48307687Y-76622713D01*
X50557928Y-76622713D01*
X50560081Y-77830109D01*
X51017990Y-78935600D01*
X51430281Y-79205114D01*
X53414395Y-77221000D01*
X53773605Y-77221000D01*
X55757719Y-79205114D01*
X56170010Y-78935600D01*
X56630072Y-77819287D01*
X56628284Y-76816213D01*
X61719000Y-76816213D01*
X61719000Y-77625787D01*
X62028810Y-78373735D01*
X62601265Y-78946190D01*
X63349213Y-79256000D01*
X64158787Y-79256000D01*
X64906735Y-78946190D01*
X65479190Y-78373735D01*
X65789000Y-77625787D01*
X65789000Y-76816213D01*
X76959000Y-76816213D01*
X76959000Y-77625787D01*
X77268810Y-78373735D01*
X77841265Y-78946190D01*
X78234001Y-79108866D01*
X78234000Y-87942289D01*
X78116569Y-88059720D01*
X77959000Y-88440126D01*
X77959000Y-88851874D01*
X78116569Y-89232280D01*
X78407720Y-89523431D01*
X78788126Y-89681000D01*
X79199874Y-89681000D01*
X79580280Y-89523431D01*
X79871431Y-89232280D01*
X80029000Y-88851874D01*
X80029000Y-88440126D01*
X79871431Y-88059720D01*
X79754000Y-87942289D01*
X79754000Y-81382144D01*
X112711332Y-81382144D01*
X112937295Y-81851476D01*
X113325663Y-82198610D01*
X113670730Y-82341529D01*
X113877059Y-82218187D01*
X113877059Y-81175813D01*
X112833853Y-81175813D01*
X112711332Y-81382144D01*
X79754000Y-81382144D01*
X79754000Y-80715482D01*
X112711332Y-80715482D01*
X112833853Y-80921813D01*
X113877059Y-80921813D01*
X113877059Y-79879439D01*
X113670730Y-79756097D01*
X113325663Y-79899016D01*
X112937295Y-80246150D01*
X112711332Y-80715482D01*
X79754000Y-80715482D01*
X79754000Y-79108866D01*
X80146735Y-78946190D01*
X80719190Y-78373735D01*
X81029000Y-77625787D01*
X81029000Y-76816213D01*
X80719190Y-76068265D01*
X80146735Y-75495810D01*
X79398787Y-75186000D01*
X78589213Y-75186000D01*
X77841265Y-75495810D01*
X77268810Y-76068265D01*
X76959000Y-76816213D01*
X65789000Y-76816213D01*
X65479190Y-76068265D01*
X64906735Y-75495810D01*
X64158787Y-75186000D01*
X63349213Y-75186000D01*
X62601265Y-75495810D01*
X62028810Y-76068265D01*
X61719000Y-76816213D01*
X56628284Y-76816213D01*
X56627919Y-76611891D01*
X56170010Y-75506400D01*
X55757719Y-75236886D01*
X53773605Y-77221000D01*
X53414395Y-77221000D01*
X51430281Y-75236886D01*
X51017990Y-75506400D01*
X50557928Y-76622713D01*
X48307687Y-76622713D01*
X47995905Y-75870006D01*
X47324994Y-75199095D01*
X46982626Y-75057281D01*
X51609886Y-75057281D01*
X53594000Y-77041395D01*
X55578114Y-75057281D01*
X55423658Y-74821000D01*
X86106560Y-74821000D01*
X86106560Y-79621000D01*
X86155843Y-79868765D01*
X86296191Y-80078809D01*
X86506235Y-80219157D01*
X86754000Y-80268440D01*
X91554000Y-80268440D01*
X91801765Y-80219157D01*
X92011809Y-80078809D01*
X92152157Y-79868765D01*
X92201440Y-79621000D01*
X92201440Y-76746594D01*
X94389000Y-76746594D01*
X94389000Y-77695406D01*
X94752095Y-78571994D01*
X95423006Y-79242905D01*
X96299594Y-79606000D01*
X97248406Y-79606000D01*
X98124994Y-79242905D01*
X98795905Y-78571994D01*
X99159000Y-77695406D01*
X99159000Y-76746594D01*
X98795905Y-75870006D01*
X98124994Y-75199095D01*
X97248406Y-74836000D01*
X96299594Y-74836000D01*
X95423006Y-75199095D01*
X94752095Y-75870006D01*
X94389000Y-76746594D01*
X92201440Y-76746594D01*
X92201440Y-74821000D01*
X92152157Y-74573235D01*
X92011809Y-74363191D01*
X91801765Y-74222843D01*
X91554000Y-74173560D01*
X86754000Y-74173560D01*
X86506235Y-74222843D01*
X86296191Y-74363191D01*
X86155843Y-74573235D01*
X86106560Y-74821000D01*
X55423658Y-74821000D01*
X55308600Y-74644990D01*
X54192287Y-74184928D01*
X52984891Y-74187081D01*
X51879400Y-74644990D01*
X51609886Y-75057281D01*
X46982626Y-75057281D01*
X46448406Y-74836000D01*
X45499594Y-74836000D01*
X44623006Y-75199095D01*
X43952095Y-75870006D01*
X43589000Y-76746594D01*
X22225000Y-76746594D01*
X22225000Y-72767105D01*
X22703000Y-72767105D01*
X22703000Y-73536895D01*
X22997586Y-74248090D01*
X23541910Y-74792414D01*
X24253105Y-75087000D01*
X25022895Y-75087000D01*
X25734090Y-74792414D01*
X26278414Y-74248090D01*
X26573000Y-73536895D01*
X26573000Y-72767105D01*
X26278414Y-72055910D01*
X25734090Y-71511586D01*
X25022895Y-71217000D01*
X24253105Y-71217000D01*
X23541910Y-71511586D01*
X22997586Y-72055910D01*
X22703000Y-72767105D01*
X22225000Y-72767105D01*
X22225000Y-68357750D01*
X22703000Y-68357750D01*
X22703000Y-69498309D01*
X22799673Y-69731698D01*
X22978301Y-69910327D01*
X23211690Y-70007000D01*
X24352250Y-70007000D01*
X24511000Y-69848250D01*
X24511000Y-68199000D01*
X24765000Y-68199000D01*
X24765000Y-69848250D01*
X24923750Y-70007000D01*
X26064310Y-70007000D01*
X26297699Y-69910327D01*
X26476327Y-69731698D01*
X26573000Y-69498309D01*
X26573000Y-68357750D01*
X26414250Y-68199000D01*
X24765000Y-68199000D01*
X24511000Y-68199000D01*
X22861750Y-68199000D01*
X22703000Y-68357750D01*
X22225000Y-68357750D01*
X22225000Y-66645691D01*
X22703000Y-66645691D01*
X22703000Y-67786250D01*
X22861750Y-67945000D01*
X24511000Y-67945000D01*
X24511000Y-66295750D01*
X24765000Y-66295750D01*
X24765000Y-67945000D01*
X26414250Y-67945000D01*
X26573000Y-67786250D01*
X26573000Y-66645691D01*
X26476327Y-66412302D01*
X26297699Y-66233673D01*
X26064310Y-66137000D01*
X24923750Y-66137000D01*
X24765000Y-66295750D01*
X24511000Y-66295750D01*
X24352250Y-66137000D01*
X23211690Y-66137000D01*
X22978301Y-66233673D01*
X22799673Y-66412302D01*
X22703000Y-66645691D01*
X22225000Y-66645691D01*
X22225000Y-58948000D01*
X76226560Y-58948000D01*
X76226560Y-61448000D01*
X76275843Y-61695765D01*
X76416191Y-61905809D01*
X76626235Y-62046157D01*
X76874000Y-62095440D01*
X78574000Y-62095440D01*
X78821765Y-62046157D01*
X79031809Y-61905809D01*
X79172157Y-61695765D01*
X79191673Y-61597652D01*
X79303749Y-61737856D01*
X79813048Y-62018562D01*
X79907110Y-62039476D01*
X80137000Y-61918155D01*
X80137000Y-60325000D01*
X80117000Y-60325000D01*
X80117000Y-60071000D01*
X80137000Y-60071000D01*
X80137000Y-58477845D01*
X80391000Y-58477845D01*
X80391000Y-60071000D01*
X80411000Y-60071000D01*
X80411000Y-60325000D01*
X80391000Y-60325000D01*
X80391000Y-61918155D01*
X80620890Y-62039476D01*
X80714952Y-62018562D01*
X81224251Y-61737856D01*
X81526768Y-61359416D01*
X81733375Y-61668625D01*
X82224583Y-61996839D01*
X82804000Y-62112092D01*
X83383418Y-61996839D01*
X83874625Y-61668625D01*
X84202839Y-61177418D01*
X84289000Y-60744255D01*
X84289000Y-59651744D01*
X84202839Y-59218582D01*
X83874625Y-58727375D01*
X83383417Y-58399161D01*
X82804000Y-58283908D01*
X82224582Y-58399161D01*
X81733375Y-58727375D01*
X81526769Y-59036584D01*
X81224251Y-58658144D01*
X80714952Y-58377438D01*
X80620890Y-58356524D01*
X80391000Y-58477845D01*
X80137000Y-58477845D01*
X79907110Y-58356524D01*
X79813048Y-58377438D01*
X79303749Y-58658144D01*
X79191673Y-58798348D01*
X79172157Y-58700235D01*
X79031809Y-58490191D01*
X78821765Y-58349843D01*
X78574000Y-58300560D01*
X76874000Y-58300560D01*
X76626235Y-58349843D01*
X76416191Y-58490191D01*
X76275843Y-58700235D01*
X76226560Y-58948000D01*
X22225000Y-58948000D01*
X22225000Y-48637105D01*
X22957000Y-48637105D01*
X22957000Y-49406895D01*
X23251586Y-50118090D01*
X23795910Y-50662414D01*
X24507105Y-50957000D01*
X25276895Y-50957000D01*
X25988090Y-50662414D01*
X26532414Y-50118090D01*
X26827000Y-49406895D01*
X26827000Y-48637105D01*
X26532414Y-47925910D01*
X25988090Y-47381586D01*
X25276895Y-47087000D01*
X24507105Y-47087000D01*
X23795910Y-47381586D01*
X23251586Y-47925910D01*
X22957000Y-48637105D01*
X22225000Y-48637105D01*
X22225000Y-44227750D01*
X22957000Y-44227750D01*
X22957000Y-45368309D01*
X23053673Y-45601698D01*
X23232301Y-45780327D01*
X23465690Y-45877000D01*
X24606250Y-45877000D01*
X24765000Y-45718250D01*
X24765000Y-44069000D01*
X25019000Y-44069000D01*
X25019000Y-45718250D01*
X25177750Y-45877000D01*
X26318310Y-45877000D01*
X26551699Y-45780327D01*
X26730327Y-45601698D01*
X26827000Y-45368309D01*
X26827000Y-44227750D01*
X26668250Y-44069000D01*
X25019000Y-44069000D01*
X24765000Y-44069000D01*
X23115750Y-44069000D01*
X22957000Y-44227750D01*
X22225000Y-44227750D01*
X22225000Y-42515691D01*
X22957000Y-42515691D01*
X22957000Y-43656250D01*
X23115750Y-43815000D01*
X24765000Y-43815000D01*
X24765000Y-42165750D01*
X25019000Y-42165750D01*
X25019000Y-43815000D01*
X26668250Y-43815000D01*
X26827000Y-43656250D01*
X26827000Y-42515691D01*
X26730327Y-42282302D01*
X26551699Y-42103673D01*
X26318310Y-42007000D01*
X25177750Y-42007000D01*
X25019000Y-42165750D01*
X24765000Y-42165750D01*
X24606250Y-42007000D01*
X23465690Y-42007000D01*
X23232301Y-42103673D01*
X23053673Y-42282302D01*
X22957000Y-42515691D01*
X22225000Y-42515691D01*
X22225000Y-38818000D01*
X75976328Y-38818000D01*
X75992501Y-38899308D01*
X75992500Y-49736697D01*
X75976328Y-49818000D01*
X76040396Y-50140094D01*
X76094177Y-50220582D01*
X76222848Y-50413152D01*
X76495906Y-50595604D01*
X76818000Y-50659672D01*
X76899302Y-50643500D01*
X90736698Y-50643500D01*
X90818000Y-50659672D01*
X91140094Y-50595604D01*
X91413152Y-50413152D01*
X91595604Y-50140094D01*
X91643500Y-49899303D01*
X91643500Y-49899302D01*
X91659672Y-49818000D01*
X91643500Y-49736697D01*
X91643500Y-40317260D01*
X113232964Y-40317260D01*
X113353622Y-40555000D01*
X115697000Y-40555000D01*
X115697000Y-39147000D01*
X115951000Y-39147000D01*
X115951000Y-40555000D01*
X118294378Y-40555000D01*
X118415036Y-40317260D01*
X124916964Y-40317260D01*
X125037622Y-40555000D01*
X127381000Y-40555000D01*
X127381000Y-39147000D01*
X127635000Y-39147000D01*
X127635000Y-40555000D01*
X129978378Y-40555000D01*
X130099036Y-40317260D01*
X135838964Y-40317260D01*
X135959622Y-40555000D01*
X138303000Y-40555000D01*
X138303000Y-39147000D01*
X138557000Y-39147000D01*
X138557000Y-40555000D01*
X140900378Y-40555000D01*
X141021036Y-40317260D01*
X140996756Y-40211914D01*
X140705212Y-39686394D01*
X140234752Y-39312446D01*
X139657000Y-39147000D01*
X138557000Y-39147000D01*
X138303000Y-39147000D01*
X137203000Y-39147000D01*
X136625248Y-39312446D01*
X136154788Y-39686394D01*
X135863244Y-40211914D01*
X135838964Y-40317260D01*
X130099036Y-40317260D01*
X130074756Y-40211914D01*
X129783212Y-39686394D01*
X129312752Y-39312446D01*
X128735000Y-39147000D01*
X127635000Y-39147000D01*
X127381000Y-39147000D01*
X126281000Y-39147000D01*
X125703248Y-39312446D01*
X125232788Y-39686394D01*
X124941244Y-40211914D01*
X124916964Y-40317260D01*
X118415036Y-40317260D01*
X118390756Y-40211914D01*
X118099212Y-39686394D01*
X117628752Y-39312446D01*
X117051000Y-39147000D01*
X115951000Y-39147000D01*
X115697000Y-39147000D01*
X114597000Y-39147000D01*
X114019248Y-39312446D01*
X113548788Y-39686394D01*
X113257244Y-40211914D01*
X113232964Y-40317260D01*
X91643500Y-40317260D01*
X91643500Y-38899303D01*
X91659672Y-38818000D01*
X91595604Y-38495906D01*
X91413152Y-38222848D01*
X91140094Y-38040396D01*
X90899303Y-37992500D01*
X90899302Y-37992500D01*
X90818000Y-37976328D01*
X90736697Y-37992500D01*
X76899303Y-37992500D01*
X76818000Y-37976328D01*
X76736698Y-37992500D01*
X76736697Y-37992500D01*
X76495906Y-38040396D01*
X76222848Y-38222848D01*
X76040396Y-38495906D01*
X75976328Y-38818000D01*
X22225000Y-38818000D01*
X22225000Y-35179000D01*
X24689000Y-35179000D01*
X24689000Y-36004569D01*
X24689000Y-36004569D01*
G37*
X24689000Y-36004569D02*
X25029259Y-36826026D01*
X25657974Y-37454741D01*
X26479431Y-37795000D01*
X27368569Y-37795000D01*
X28190026Y-37454741D01*
X28818741Y-36826026D01*
X29159000Y-36004569D01*
X29159000Y-35179000D01*
X148969910Y-35179000D01*
X148848482Y-49386064D01*
X148772582Y-49401161D01*
X148281375Y-49729375D01*
X148266904Y-49751033D01*
X148200327Y-49590302D01*
X148021699Y-49411673D01*
X147788310Y-49315000D01*
X147097750Y-49315000D01*
X146939000Y-49473750D01*
X146939000Y-50673000D01*
X146959000Y-50673000D01*
X146959000Y-50927000D01*
X146939000Y-50927000D01*
X146939000Y-52126250D01*
X147097750Y-52285000D01*
X147788310Y-52285000D01*
X148021699Y-52188327D01*
X148200327Y-52009698D01*
X148266904Y-51848967D01*
X148281375Y-51870625D01*
X148772582Y-52198839D01*
X148824353Y-52209137D01*
X148718081Y-64643000D01*
X138049000Y-64643000D01*
X138049000Y-63666914D01*
X138425076Y-64009645D01*
X138835110Y-64179476D01*
X139065000Y-64058155D01*
X139065000Y-62865000D01*
X139319000Y-62865000D01*
X139319000Y-64058155D01*
X139548890Y-64179476D01*
X139958924Y-64009645D01*
X140387183Y-63619358D01*
X140633486Y-63094892D01*
X140512819Y-62865000D01*
X139319000Y-62865000D01*
X139065000Y-62865000D01*
X139045000Y-62865000D01*
X139045000Y-62611000D01*
X139065000Y-62611000D01*
X139065000Y-60325000D01*
X139319000Y-60325000D01*
X139319000Y-62611000D01*
X140512819Y-62611000D01*
X140633486Y-62381108D01*
X140387183Y-61856642D01*
X139960729Y-61468000D01*
X140387183Y-61079358D01*
X140633486Y-60554892D01*
X140512819Y-60325000D01*
X139319000Y-60325000D01*
X139065000Y-60325000D01*
X136779000Y-60325000D01*
X136779000Y-60345000D01*
X136525000Y-60345000D01*
X136525000Y-60325000D01*
X136505000Y-60325000D01*
X136505000Y-60071000D01*
X136525000Y-60071000D01*
X136525000Y-58877845D01*
X136779000Y-58877845D01*
X136779000Y-60071000D01*
X139065000Y-60071000D01*
X139065000Y-58877845D01*
X139319000Y-58877845D01*
X139319000Y-60071000D01*
X140512819Y-60071000D01*
X140633486Y-59841108D01*
X140387183Y-59316642D01*
X139958924Y-58926355D01*
X139548890Y-58756524D01*
X139319000Y-58877845D01*
X139065000Y-58877845D01*
X138835110Y-58756524D01*
X138425076Y-58926355D01*
X137996817Y-59316642D01*
X137922000Y-59475954D01*
X137847183Y-59316642D01*
X137418924Y-58926355D01*
X137008890Y-58756524D01*
X136779000Y-58877845D01*
X136525000Y-58877845D01*
X136295110Y-58756524D01*
X135885076Y-58926355D01*
X135456817Y-59316642D01*
X135395843Y-59446478D01*
X135182625Y-59127375D01*
X134890878Y-58932436D01*
X134746880Y-55620483D01*
X134735111Y-55572348D01*
X134705817Y-55532381D01*
X134663458Y-55506667D01*
X134621134Y-55499005D01*
X107138425Y-55253624D01*
X102970551Y-51085750D01*
X145327000Y-51085750D01*
X145327000Y-51776309D01*
X145423673Y-52009698D01*
X145602301Y-52188327D01*
X145835690Y-52285000D01*
X146526250Y-52285000D01*
X146685000Y-52126250D01*
X146685000Y-50927000D01*
X145485750Y-50927000D01*
X145327000Y-51085750D01*
X102970551Y-51085750D01*
X101708492Y-49823691D01*
X145327000Y-49823691D01*
X145327000Y-50514250D01*
X145485750Y-50673000D01*
X146685000Y-50673000D01*
X146685000Y-49473750D01*
X146526250Y-49315000D01*
X145835690Y-49315000D01*
X145602301Y-49411673D01*
X145423673Y-49590302D01*
X145327000Y-49823691D01*
X101708492Y-49823691D01*
X96617982Y-44733181D01*
X109489000Y-44733181D01*
X109578062Y-45180926D01*
X109917327Y-45688673D01*
X110425073Y-46027938D01*
X111024000Y-46147072D01*
X111622926Y-46027938D01*
X112130673Y-45688673D01*
X112201949Y-45582000D01*
X112976560Y-45582000D01*
X112976560Y-47382000D01*
X113025843Y-47629765D01*
X113166191Y-47839809D01*
X113376235Y-47980157D01*
X113624000Y-48029440D01*
X118024000Y-48029440D01*
X118271765Y-47980157D01*
X118481809Y-47839809D01*
X118622157Y-47629765D01*
X118671440Y-47382000D01*
X118671440Y-45582000D01*
X118622157Y-45334235D01*
X118481809Y-45124191D01*
X118271765Y-44983843D01*
X118024000Y-44934560D01*
X113624000Y-44934560D01*
X113376235Y-44983843D01*
X113166191Y-45124191D01*
X113025843Y-45334235D01*
X112976560Y-45582000D01*
X112201949Y-45582000D01*
X112469938Y-45180927D01*
X112559000Y-44733182D01*
X112559000Y-44733181D01*
X121173000Y-44733181D01*
X121262062Y-45180926D01*
X121601327Y-45688673D01*
X122109073Y-46027938D01*
X122708000Y-46147072D01*
X123306926Y-46027938D01*
X123814673Y-45688673D01*
X123885949Y-45582000D01*
X124660560Y-45582000D01*
X124660560Y-47382000D01*
X124709843Y-47629765D01*
X124850191Y-47839809D01*
X125060235Y-47980157D01*
X125308000Y-48029440D01*
X129708000Y-48029440D01*
X129955765Y-47980157D01*
X130165809Y-47839809D01*
X130306157Y-47629765D01*
X130355440Y-47382000D01*
X130355440Y-45582000D01*
X130306157Y-45334235D01*
X130165809Y-45124191D01*
X129955765Y-44983843D01*
X129708000Y-44934560D01*
X125308000Y-44934560D01*
X125060235Y-44983843D01*
X124850191Y-45124191D01*
X124709843Y-45334235D01*
X124660560Y-45582000D01*
X123885949Y-45582000D01*
X124153938Y-45180927D01*
X124243000Y-44733182D01*
X124243000Y-44733181D01*
X132095000Y-44733181D01*
X132184062Y-45180926D01*
X132523327Y-45688673D01*
X133031073Y-46027938D01*
X133630000Y-46147072D01*
X134228926Y-46027938D01*
X134736673Y-45688673D01*
X134807949Y-45582000D01*
X135582560Y-45582000D01*
X135582560Y-47382000D01*
X135631843Y-47629765D01*
X135772191Y-47839809D01*
X135982235Y-47980157D01*
X136230000Y-48029440D01*
X140630000Y-48029440D01*
X140877765Y-47980157D01*
X141087809Y-47839809D01*
X141228157Y-47629765D01*
X141277440Y-47382000D01*
X141277440Y-45582000D01*
X141228157Y-45334235D01*
X141087809Y-45124191D01*
X140877765Y-44983843D01*
X140630000Y-44934560D01*
X136230000Y-44934560D01*
X135982235Y-44983843D01*
X135772191Y-45124191D01*
X135631843Y-45334235D01*
X135582560Y-45582000D01*
X134807949Y-45582000D01*
X135075938Y-45180927D01*
X135165000Y-44733182D01*
X135165000Y-42230818D01*
X135075938Y-41783073D01*
X134736673Y-41275327D01*
X134394569Y-41046740D01*
X135838964Y-41046740D01*
X135863244Y-41152086D01*
X136154788Y-41677606D01*
X136625248Y-42051554D01*
X137203000Y-42217000D01*
X138303000Y-42217000D01*
X138303000Y-40809000D01*
X138557000Y-40809000D01*
X138557000Y-42217000D01*
X139657000Y-42217000D01*
X140234752Y-42051554D01*
X140705212Y-41677606D01*
X140996756Y-41152086D01*
X141021036Y-41046740D01*
X140900378Y-40809000D01*
X138557000Y-40809000D01*
X138303000Y-40809000D01*
X135959622Y-40809000D01*
X135838964Y-41046740D01*
X134394569Y-41046740D01*
X134228927Y-40936062D01*
X133630000Y-40816928D01*
X133031074Y-40936062D01*
X132523328Y-41275327D01*
X132184063Y-41783073D01*
X132095001Y-42230818D01*
X132095000Y-44733181D01*
X124243000Y-44733181D01*
X124243000Y-42230818D01*
X124153938Y-41783073D01*
X123814673Y-41275327D01*
X123472569Y-41046740D01*
X124916964Y-41046740D01*
X124941244Y-41152086D01*
X125232788Y-41677606D01*
X125703248Y-42051554D01*
X126281000Y-42217000D01*
X127381000Y-42217000D01*
X127381000Y-40809000D01*
X127635000Y-40809000D01*
X127635000Y-42217000D01*
X128735000Y-42217000D01*
X129312752Y-42051554D01*
X129783212Y-41677606D01*
X130074756Y-41152086D01*
X130099036Y-41046740D01*
X129978378Y-40809000D01*
X127635000Y-40809000D01*
X127381000Y-40809000D01*
X125037622Y-40809000D01*
X124916964Y-41046740D01*
X123472569Y-41046740D01*
X123306927Y-40936062D01*
X122708000Y-40816928D01*
X122109074Y-40936062D01*
X121601328Y-41275327D01*
X121262063Y-41783073D01*
X121173001Y-42230818D01*
X121173000Y-44733181D01*
X112559000Y-44733181D01*
X112559000Y-42230818D01*
X112469938Y-41783073D01*
X112130673Y-41275327D01*
X111788569Y-41046740D01*
X113232964Y-41046740D01*
X113257244Y-41152086D01*
X113548788Y-41677606D01*
X114019248Y-42051554D01*
X114597000Y-42217000D01*
X115697000Y-42217000D01*
X115697000Y-40809000D01*
X115951000Y-40809000D01*
X115951000Y-42217000D01*
X117051000Y-42217000D01*
X117628752Y-42051554D01*
X118099212Y-41677606D01*
X118390756Y-41152086D01*
X118415036Y-41046740D01*
X118294378Y-40809000D01*
X115951000Y-40809000D01*
X115697000Y-40809000D01*
X113353622Y-40809000D01*
X113232964Y-41046740D01*
X111788569Y-41046740D01*
X111622927Y-40936062D01*
X111024000Y-40816928D01*
X110425074Y-40936062D01*
X109917328Y-41275327D01*
X109578063Y-41783073D01*
X109489001Y-42230818D01*
X109489000Y-44733181D01*
X96617982Y-44733181D01*
X94592835Y-42708034D01*
X94603000Y-42683494D01*
X94603000Y-42132506D01*
X94392147Y-41623460D01*
X94002540Y-41233853D01*
X93493494Y-41023000D01*
X92942506Y-41023000D01*
X92433460Y-41233853D01*
X92043853Y-41623460D01*
X91833000Y-42132506D01*
X91833000Y-42683494D01*
X92043853Y-43192540D01*
X92196887Y-43345574D01*
X92131426Y-43411034D01*
X92246481Y-43526089D01*
X92005540Y-43594077D01*
X91820799Y-44113171D01*
X91848770Y-44663448D01*
X92001763Y-45032804D01*
X91869843Y-45230235D01*
X91820560Y-45478000D01*
X91820560Y-46978000D01*
X91869843Y-47225765D01*
X92010191Y-47435809D01*
X92220235Y-47576157D01*
X92468000Y-47625440D01*
X93968000Y-47625440D01*
X94215765Y-47576157D01*
X94425809Y-47435809D01*
X94566157Y-47225765D01*
X94615440Y-46978000D01*
X94615440Y-45478000D01*
X94566157Y-45230235D01*
X94433890Y-45032285D01*
X94521451Y-44786252D01*
X106045000Y-56309801D01*
X106045000Y-79248000D01*
X106054667Y-79296601D01*
X106082197Y-79337803D01*
X106123399Y-79365333D01*
X106168474Y-79374951D01*
X115189000Y-79625521D01*
X115189000Y-80491607D01*
X115070823Y-80246150D01*
X114682455Y-79899016D01*
X114337388Y-79756097D01*
X114131059Y-79879439D01*
X114131059Y-80921813D01*
X114151059Y-80921813D01*
X114151059Y-81175813D01*
X114131059Y-81175813D01*
X114131059Y-82218187D01*
X114337388Y-82341529D01*
X114682455Y-82198610D01*
X115070823Y-81851476D01*
X115189000Y-81606019D01*
X115189000Y-114427000D01*
X69723000Y-114427000D01*
X69723000Y-83566000D01*
X69713333Y-83517399D01*
X69685803Y-83476197D01*
X69644601Y-83448667D01*
X69596000Y-83439000D01*
X22225000Y-83439000D01*
X22225000Y-76746594D01*
X43589000Y-76746594D01*
X43589000Y-77695406D01*
X43952095Y-78571994D01*
X44623006Y-79242905D01*
X45499594Y-79606000D01*
X46448406Y-79606000D01*
X46982625Y-79384719D01*
X51609886Y-79384719D01*
X51879400Y-79797010D01*
X52995713Y-80257072D01*
X54203109Y-80254919D01*
X55308600Y-79797010D01*
X55578114Y-79384719D01*
X53594000Y-77400605D01*
X51609886Y-79384719D01*
X46982625Y-79384719D01*
X47324994Y-79242905D01*
X47995905Y-78571994D01*
X48359000Y-77695406D01*
X48359000Y-76746594D01*
X48307687Y-76622713D01*
X50557928Y-76622713D01*
X50560081Y-77830109D01*
X51017990Y-78935600D01*
X51430281Y-79205114D01*
X53414395Y-77221000D01*
X53773605Y-77221000D01*
X55757719Y-79205114D01*
X56170010Y-78935600D01*
X56630072Y-77819287D01*
X56628284Y-76816213D01*
X61719000Y-76816213D01*
X61719000Y-77625787D01*
X62028810Y-78373735D01*
X62601265Y-78946190D01*
X63349213Y-79256000D01*
X64158787Y-79256000D01*
X64906735Y-78946190D01*
X65479190Y-78373735D01*
X65789000Y-77625787D01*
X65789000Y-76816213D01*
X76959000Y-76816213D01*
X76959000Y-77625787D01*
X77268810Y-78373735D01*
X77841265Y-78946190D01*
X78234001Y-79108866D01*
X78234000Y-87942289D01*
X78116569Y-88059720D01*
X77959000Y-88440126D01*
X77959000Y-88851874D01*
X78116569Y-89232280D01*
X78407720Y-89523431D01*
X78788126Y-89681000D01*
X79199874Y-89681000D01*
X79580280Y-89523431D01*
X79871431Y-89232280D01*
X80029000Y-88851874D01*
X80029000Y-88440126D01*
X79871431Y-88059720D01*
X79754000Y-87942289D01*
X79754000Y-81382144D01*
X112711332Y-81382144D01*
X112937295Y-81851476D01*
X113325663Y-82198610D01*
X113670730Y-82341529D01*
X113877059Y-82218187D01*
X113877059Y-81175813D01*
X112833853Y-81175813D01*
X112711332Y-81382144D01*
X79754000Y-81382144D01*
X79754000Y-80715482D01*
X112711332Y-80715482D01*
X112833853Y-80921813D01*
X113877059Y-80921813D01*
X113877059Y-79879439D01*
X113670730Y-79756097D01*
X113325663Y-79899016D01*
X112937295Y-80246150D01*
X112711332Y-80715482D01*
X79754000Y-80715482D01*
X79754000Y-79108866D01*
X80146735Y-78946190D01*
X80719190Y-78373735D01*
X81029000Y-77625787D01*
X81029000Y-76816213D01*
X80719190Y-76068265D01*
X80146735Y-75495810D01*
X79398787Y-75186000D01*
X78589213Y-75186000D01*
X77841265Y-75495810D01*
X77268810Y-76068265D01*
X76959000Y-76816213D01*
X65789000Y-76816213D01*
X65479190Y-76068265D01*
X64906735Y-75495810D01*
X64158787Y-75186000D01*
X63349213Y-75186000D01*
X62601265Y-75495810D01*
X62028810Y-76068265D01*
X61719000Y-76816213D01*
X56628284Y-76816213D01*
X56627919Y-76611891D01*
X56170010Y-75506400D01*
X55757719Y-75236886D01*
X53773605Y-77221000D01*
X53414395Y-77221000D01*
X51430281Y-75236886D01*
X51017990Y-75506400D01*
X50557928Y-76622713D01*
X48307687Y-76622713D01*
X47995905Y-75870006D01*
X47324994Y-75199095D01*
X46982626Y-75057281D01*
X51609886Y-75057281D01*
X53594000Y-77041395D01*
X55578114Y-75057281D01*
X55423658Y-74821000D01*
X86106560Y-74821000D01*
X86106560Y-79621000D01*
X86155843Y-79868765D01*
X86296191Y-80078809D01*
X86506235Y-80219157D01*
X86754000Y-80268440D01*
X91554000Y-80268440D01*
X91801765Y-80219157D01*
X92011809Y-80078809D01*
X92152157Y-79868765D01*
X92201440Y-79621000D01*
X92201440Y-76746594D01*
X94389000Y-76746594D01*
X94389000Y-77695406D01*
X94752095Y-78571994D01*
X95423006Y-79242905D01*
X96299594Y-79606000D01*
X97248406Y-79606000D01*
X98124994Y-79242905D01*
X98795905Y-78571994D01*
X99159000Y-77695406D01*
X99159000Y-76746594D01*
X98795905Y-75870006D01*
X98124994Y-75199095D01*
X97248406Y-74836000D01*
X96299594Y-74836000D01*
X95423006Y-75199095D01*
X94752095Y-75870006D01*
X94389000Y-76746594D01*
X92201440Y-76746594D01*
X92201440Y-74821000D01*
X92152157Y-74573235D01*
X92011809Y-74363191D01*
X91801765Y-74222843D01*
X91554000Y-74173560D01*
X86754000Y-74173560D01*
X86506235Y-74222843D01*
X86296191Y-74363191D01*
X86155843Y-74573235D01*
X86106560Y-74821000D01*
X55423658Y-74821000D01*
X55308600Y-74644990D01*
X54192287Y-74184928D01*
X52984891Y-74187081D01*
X51879400Y-74644990D01*
X51609886Y-75057281D01*
X46982626Y-75057281D01*
X46448406Y-74836000D01*
X45499594Y-74836000D01*
X44623006Y-75199095D01*
X43952095Y-75870006D01*
X43589000Y-76746594D01*
X22225000Y-76746594D01*
X22225000Y-72767105D01*
X22703000Y-72767105D01*
X22703000Y-73536895D01*
X22997586Y-74248090D01*
X23541910Y-74792414D01*
X24253105Y-75087000D01*
X25022895Y-75087000D01*
X25734090Y-74792414D01*
X26278414Y-74248090D01*
X26573000Y-73536895D01*
X26573000Y-72767105D01*
X26278414Y-72055910D01*
X25734090Y-71511586D01*
X25022895Y-71217000D01*
X24253105Y-71217000D01*
X23541910Y-71511586D01*
X22997586Y-72055910D01*
X22703000Y-72767105D01*
X22225000Y-72767105D01*
X22225000Y-68357750D01*
X22703000Y-68357750D01*
X22703000Y-69498309D01*
X22799673Y-69731698D01*
X22978301Y-69910327D01*
X23211690Y-70007000D01*
X24352250Y-70007000D01*
X24511000Y-69848250D01*
X24511000Y-68199000D01*
X24765000Y-68199000D01*
X24765000Y-69848250D01*
X24923750Y-70007000D01*
X26064310Y-70007000D01*
X26297699Y-69910327D01*
X26476327Y-69731698D01*
X26573000Y-69498309D01*
X26573000Y-68357750D01*
X26414250Y-68199000D01*
X24765000Y-68199000D01*
X24511000Y-68199000D01*
X22861750Y-68199000D01*
X22703000Y-68357750D01*
X22225000Y-68357750D01*
X22225000Y-66645691D01*
X22703000Y-66645691D01*
X22703000Y-67786250D01*
X22861750Y-67945000D01*
X24511000Y-67945000D01*
X24511000Y-66295750D01*
X24765000Y-66295750D01*
X24765000Y-67945000D01*
X26414250Y-67945000D01*
X26573000Y-67786250D01*
X26573000Y-66645691D01*
X26476327Y-66412302D01*
X26297699Y-66233673D01*
X26064310Y-66137000D01*
X24923750Y-66137000D01*
X24765000Y-66295750D01*
X24511000Y-66295750D01*
X24352250Y-66137000D01*
X23211690Y-66137000D01*
X22978301Y-66233673D01*
X22799673Y-66412302D01*
X22703000Y-66645691D01*
X22225000Y-66645691D01*
X22225000Y-58948000D01*
X76226560Y-58948000D01*
X76226560Y-61448000D01*
X76275843Y-61695765D01*
X76416191Y-61905809D01*
X76626235Y-62046157D01*
X76874000Y-62095440D01*
X78574000Y-62095440D01*
X78821765Y-62046157D01*
X79031809Y-61905809D01*
X79172157Y-61695765D01*
X79191673Y-61597652D01*
X79303749Y-61737856D01*
X79813048Y-62018562D01*
X79907110Y-62039476D01*
X80137000Y-61918155D01*
X80137000Y-60325000D01*
X80117000Y-60325000D01*
X80117000Y-60071000D01*
X80137000Y-60071000D01*
X80137000Y-58477845D01*
X80391000Y-58477845D01*
X80391000Y-60071000D01*
X80411000Y-60071000D01*
X80411000Y-60325000D01*
X80391000Y-60325000D01*
X80391000Y-61918155D01*
X80620890Y-62039476D01*
X80714952Y-62018562D01*
X81224251Y-61737856D01*
X81526768Y-61359416D01*
X81733375Y-61668625D01*
X82224583Y-61996839D01*
X82804000Y-62112092D01*
X83383418Y-61996839D01*
X83874625Y-61668625D01*
X84202839Y-61177418D01*
X84289000Y-60744255D01*
X84289000Y-59651744D01*
X84202839Y-59218582D01*
X83874625Y-58727375D01*
X83383417Y-58399161D01*
X82804000Y-58283908D01*
X82224582Y-58399161D01*
X81733375Y-58727375D01*
X81526769Y-59036584D01*
X81224251Y-58658144D01*
X80714952Y-58377438D01*
X80620890Y-58356524D01*
X80391000Y-58477845D01*
X80137000Y-58477845D01*
X79907110Y-58356524D01*
X79813048Y-58377438D01*
X79303749Y-58658144D01*
X79191673Y-58798348D01*
X79172157Y-58700235D01*
X79031809Y-58490191D01*
X78821765Y-58349843D01*
X78574000Y-58300560D01*
X76874000Y-58300560D01*
X76626235Y-58349843D01*
X76416191Y-58490191D01*
X76275843Y-58700235D01*
X76226560Y-58948000D01*
X22225000Y-58948000D01*
X22225000Y-48637105D01*
X22957000Y-48637105D01*
X22957000Y-49406895D01*
X23251586Y-50118090D01*
X23795910Y-50662414D01*
X24507105Y-50957000D01*
X25276895Y-50957000D01*
X25988090Y-50662414D01*
X26532414Y-50118090D01*
X26827000Y-49406895D01*
X26827000Y-48637105D01*
X26532414Y-47925910D01*
X25988090Y-47381586D01*
X25276895Y-47087000D01*
X24507105Y-47087000D01*
X23795910Y-47381586D01*
X23251586Y-47925910D01*
X22957000Y-48637105D01*
X22225000Y-48637105D01*
X22225000Y-44227750D01*
X22957000Y-44227750D01*
X22957000Y-45368309D01*
X23053673Y-45601698D01*
X23232301Y-45780327D01*
X23465690Y-45877000D01*
X24606250Y-45877000D01*
X24765000Y-45718250D01*
X24765000Y-44069000D01*
X25019000Y-44069000D01*
X25019000Y-45718250D01*
X25177750Y-45877000D01*
X26318310Y-45877000D01*
X26551699Y-45780327D01*
X26730327Y-45601698D01*
X26827000Y-45368309D01*
X26827000Y-44227750D01*
X26668250Y-44069000D01*
X25019000Y-44069000D01*
X24765000Y-44069000D01*
X23115750Y-44069000D01*
X22957000Y-44227750D01*
X22225000Y-44227750D01*
X22225000Y-42515691D01*
X22957000Y-42515691D01*
X22957000Y-43656250D01*
X23115750Y-43815000D01*
X24765000Y-43815000D01*
X24765000Y-42165750D01*
X25019000Y-42165750D01*
X25019000Y-43815000D01*
X26668250Y-43815000D01*
X26827000Y-43656250D01*
X26827000Y-42515691D01*
X26730327Y-42282302D01*
X26551699Y-42103673D01*
X26318310Y-42007000D01*
X25177750Y-42007000D01*
X25019000Y-42165750D01*
X24765000Y-42165750D01*
X24606250Y-42007000D01*
X23465690Y-42007000D01*
X23232301Y-42103673D01*
X23053673Y-42282302D01*
X22957000Y-42515691D01*
X22225000Y-42515691D01*
X22225000Y-38818000D01*
X75976328Y-38818000D01*
X75992501Y-38899308D01*
X75992500Y-49736697D01*
X75976328Y-49818000D01*
X76040396Y-50140094D01*
X76094177Y-50220582D01*
X76222848Y-50413152D01*
X76495906Y-50595604D01*
X76818000Y-50659672D01*
X76899302Y-50643500D01*
X90736698Y-50643500D01*
X90818000Y-50659672D01*
X91140094Y-50595604D01*
X91413152Y-50413152D01*
X91595604Y-50140094D01*
X91643500Y-49899303D01*
X91643500Y-49899302D01*
X91659672Y-49818000D01*
X91643500Y-49736697D01*
X91643500Y-40317260D01*
X113232964Y-40317260D01*
X113353622Y-40555000D01*
X115697000Y-40555000D01*
X115697000Y-39147000D01*
X115951000Y-39147000D01*
X115951000Y-40555000D01*
X118294378Y-40555000D01*
X118415036Y-40317260D01*
X124916964Y-40317260D01*
X125037622Y-40555000D01*
X127381000Y-40555000D01*
X127381000Y-39147000D01*
X127635000Y-39147000D01*
X127635000Y-40555000D01*
X129978378Y-40555000D01*
X130099036Y-40317260D01*
X135838964Y-40317260D01*
X135959622Y-40555000D01*
X138303000Y-40555000D01*
X138303000Y-39147000D01*
X138557000Y-39147000D01*
X138557000Y-40555000D01*
X140900378Y-40555000D01*
X141021036Y-40317260D01*
X140996756Y-40211914D01*
X140705212Y-39686394D01*
X140234752Y-39312446D01*
X139657000Y-39147000D01*
X138557000Y-39147000D01*
X138303000Y-39147000D01*
X137203000Y-39147000D01*
X136625248Y-39312446D01*
X136154788Y-39686394D01*
X135863244Y-40211914D01*
X135838964Y-40317260D01*
X130099036Y-40317260D01*
X130074756Y-40211914D01*
X129783212Y-39686394D01*
X129312752Y-39312446D01*
X128735000Y-39147000D01*
X127635000Y-39147000D01*
X127381000Y-39147000D01*
X126281000Y-39147000D01*
X125703248Y-39312446D01*
X125232788Y-39686394D01*
X124941244Y-40211914D01*
X124916964Y-40317260D01*
X118415036Y-40317260D01*
X118390756Y-40211914D01*
X118099212Y-39686394D01*
X117628752Y-39312446D01*
X117051000Y-39147000D01*
X115951000Y-39147000D01*
X115697000Y-39147000D01*
X114597000Y-39147000D01*
X114019248Y-39312446D01*
X113548788Y-39686394D01*
X113257244Y-40211914D01*
X113232964Y-40317260D01*
X91643500Y-40317260D01*
X91643500Y-38899303D01*
X91659672Y-38818000D01*
X91595604Y-38495906D01*
X91413152Y-38222848D01*
X91140094Y-38040396D01*
X90899303Y-37992500D01*
X90899302Y-37992500D01*
X90818000Y-37976328D01*
X90736697Y-37992500D01*
X76899303Y-37992500D01*
X76818000Y-37976328D01*
X76736698Y-37992500D01*
X76736697Y-37992500D01*
X76495906Y-38040396D01*
X76222848Y-38222848D01*
X76040396Y-38495906D01*
X75976328Y-38818000D01*
X22225000Y-38818000D01*
X22225000Y-35179000D01*
X24689000Y-35179000D01*
X24689000Y-36004569D01*
G36*
X93411748Y-44303858D02*
X93397605Y-44318000D01*
X93411748Y-44332143D01*
X93232143Y-44511748D01*
X93218000Y-44497605D01*
X93203858Y-44511748D01*
X93024253Y-44332143D01*
X93038395Y-44318000D01*
X93024253Y-44303858D01*
X93203858Y-44124253D01*
X93218000Y-44138395D01*
X93232143Y-44124253D01*
X93411748Y-44303858D01*
X93411748Y-44303858D01*
G37*
X93411748Y-44303858D02*
X93397605Y-44318000D01*
X93411748Y-44332143D01*
X93232143Y-44511748D01*
X93218000Y-44497605D01*
X93203858Y-44511748D01*
X93024253Y-44332143D01*
X93038395Y-44318000D01*
X93024253Y-44303858D01*
X93203858Y-44124253D01*
X93218000Y-44138395D01*
X93232143Y-44124253D01*
X93411748Y-44303858D01*
G36*
X120523000Y-92329000D02*
X114681000Y-92329000D01*
X114681000Y-90043000D01*
X120523000Y-90043000D01*
X120523000Y-92329000D01*
X120523000Y-92329000D01*
G37*
X120523000Y-92329000D02*
X114681000Y-92329000D01*
X114681000Y-90043000D01*
X120523000Y-90043000D01*
X120523000Y-92329000D01*
G04 #@! TD*
M02*
