G04 #@! TF.GenerationSoftware,KiCad,Pcbnew,(5.0.0)*
G04 #@! TF.CreationDate,2019-02-09T12:54:46-06:00*
G04 #@! TF.ProjectId,ArmPowerBoardV3,41726D506F776572426F61726456332E,rev?*
G04 #@! TF.SameCoordinates,Original*
G04 #@! TF.FileFunction,Legend,Bot*
G04 #@! TF.FilePolarity,Positive*
%FSLAX46Y46*%
G04 Gerber Fmt 4.6, Leading zero omitted, Abs format (unit mm)*
G04 Created by KiCad (PCBNEW (5.0.0)) date 02/09/19 12:54:46*
%MOMM*%
%LPD*%
G01*
G04 APERTURE LIST*
%ADD10C,0.300000*%
G04 APERTURE END LIST*
D10*
X30995714Y-48597428D02*
X30924285Y-48526000D01*
X30781428Y-48454571D01*
X30424285Y-48454571D01*
X30281428Y-48526000D01*
X30210000Y-48597428D01*
X30138571Y-48740285D01*
X30138571Y-48883142D01*
X30210000Y-49097428D01*
X31067142Y-49954571D01*
X30138571Y-49954571D01*
X28852857Y-48954571D02*
X28852857Y-49954571D01*
X29210000Y-48383142D02*
X29567142Y-49454571D01*
X28638571Y-49454571D01*
X28281428Y-48454571D02*
X27781428Y-49954571D01*
X27281428Y-48454571D01*
X30479857Y-43319000D02*
X30622714Y-43247571D01*
X30837000Y-43247571D01*
X31051285Y-43319000D01*
X31194142Y-43461857D01*
X31265571Y-43604714D01*
X31337000Y-43890428D01*
X31337000Y-44104714D01*
X31265571Y-44390428D01*
X31194142Y-44533285D01*
X31051285Y-44676142D01*
X30837000Y-44747571D01*
X30694142Y-44747571D01*
X30479857Y-44676142D01*
X30408428Y-44604714D01*
X30408428Y-44104714D01*
X30694142Y-44104714D01*
X29765571Y-44747571D02*
X29765571Y-43247571D01*
X28908428Y-44747571D01*
X28908428Y-43247571D01*
X28194142Y-44747571D02*
X28194142Y-43247571D01*
X27837000Y-43247571D01*
X27622714Y-43319000D01*
X27479857Y-43461857D01*
X27408428Y-43604714D01*
X27337000Y-43890428D01*
X27337000Y-44104714D01*
X27408428Y-44390428D01*
X27479857Y-44533285D01*
X27622714Y-44676142D01*
X27837000Y-44747571D01*
X28194142Y-44747571D01*
X30225857Y-67449000D02*
X30368714Y-67377571D01*
X30583000Y-67377571D01*
X30797285Y-67449000D01*
X30940142Y-67591857D01*
X31011571Y-67734714D01*
X31083000Y-68020428D01*
X31083000Y-68234714D01*
X31011571Y-68520428D01*
X30940142Y-68663285D01*
X30797285Y-68806142D01*
X30583000Y-68877571D01*
X30440142Y-68877571D01*
X30225857Y-68806142D01*
X30154428Y-68734714D01*
X30154428Y-68234714D01*
X30440142Y-68234714D01*
X29511571Y-68877571D02*
X29511571Y-67377571D01*
X28654428Y-68877571D01*
X28654428Y-67377571D01*
X27940142Y-68877571D02*
X27940142Y-67377571D01*
X27583000Y-67377571D01*
X27368714Y-67449000D01*
X27225857Y-67591857D01*
X27154428Y-67734714D01*
X27083000Y-68020428D01*
X27083000Y-68234714D01*
X27154428Y-68520428D01*
X27225857Y-68663285D01*
X27368714Y-68806142D01*
X27583000Y-68877571D01*
X27940142Y-68877571D01*
X30741714Y-72854428D02*
X30670285Y-72783000D01*
X30527428Y-72711571D01*
X30170285Y-72711571D01*
X30027428Y-72783000D01*
X29956000Y-72854428D01*
X29884571Y-72997285D01*
X29884571Y-73140142D01*
X29956000Y-73354428D01*
X30813142Y-74211571D01*
X29884571Y-74211571D01*
X28598857Y-73211571D02*
X28598857Y-74211571D01*
X28956000Y-72640142D02*
X29313142Y-73711571D01*
X28384571Y-73711571D01*
X28027428Y-72711571D02*
X27527428Y-74211571D01*
X27027428Y-72711571D01*
X24550571Y-119804571D02*
X25407714Y-119804571D01*
X24979142Y-119804571D02*
X24979142Y-118304571D01*
X25122000Y-118518857D01*
X25264857Y-118661714D01*
X25407714Y-118733142D01*
X23979142Y-118447428D02*
X23907714Y-118376000D01*
X23764857Y-118304571D01*
X23407714Y-118304571D01*
X23264857Y-118376000D01*
X23193428Y-118447428D01*
X23122000Y-118590285D01*
X23122000Y-118733142D01*
X23193428Y-118947428D01*
X24050571Y-119804571D01*
X23122000Y-119804571D01*
X22693428Y-118304571D02*
X22193428Y-119804571D01*
X21693428Y-118304571D01*
X24550571Y-109009571D02*
X25407714Y-109009571D01*
X24979142Y-109009571D02*
X24979142Y-107509571D01*
X25122000Y-107723857D01*
X25264857Y-107866714D01*
X25407714Y-107938142D01*
X23979142Y-107652428D02*
X23907714Y-107581000D01*
X23764857Y-107509571D01*
X23407714Y-107509571D01*
X23264857Y-107581000D01*
X23193428Y-107652428D01*
X23122000Y-107795285D01*
X23122000Y-107938142D01*
X23193428Y-108152428D01*
X24050571Y-109009571D01*
X23122000Y-109009571D01*
X22693428Y-107509571D02*
X22193428Y-109009571D01*
X21693428Y-107509571D01*
X24891857Y-112661000D02*
X25034714Y-112589571D01*
X25249000Y-112589571D01*
X25463285Y-112661000D01*
X25606142Y-112803857D01*
X25677571Y-112946714D01*
X25749000Y-113232428D01*
X25749000Y-113446714D01*
X25677571Y-113732428D01*
X25606142Y-113875285D01*
X25463285Y-114018142D01*
X25249000Y-114089571D01*
X25106142Y-114089571D01*
X24891857Y-114018142D01*
X24820428Y-113946714D01*
X24820428Y-113446714D01*
X25106142Y-113446714D01*
X24177571Y-114089571D02*
X24177571Y-112589571D01*
X23320428Y-114089571D01*
X23320428Y-112589571D01*
X22606142Y-114089571D02*
X22606142Y-112589571D01*
X22249000Y-112589571D01*
X22034714Y-112661000D01*
X21891857Y-112803857D01*
X21820428Y-112946714D01*
X21749000Y-113232428D01*
X21749000Y-113446714D01*
X21820428Y-113732428D01*
X21891857Y-113875285D01*
X22034714Y-114018142D01*
X22249000Y-114089571D01*
X22606142Y-114089571D01*
X24764857Y-102374000D02*
X24907714Y-102302571D01*
X25122000Y-102302571D01*
X25336285Y-102374000D01*
X25479142Y-102516857D01*
X25550571Y-102659714D01*
X25622000Y-102945428D01*
X25622000Y-103159714D01*
X25550571Y-103445428D01*
X25479142Y-103588285D01*
X25336285Y-103731142D01*
X25122000Y-103802571D01*
X24979142Y-103802571D01*
X24764857Y-103731142D01*
X24693428Y-103659714D01*
X24693428Y-103159714D01*
X24979142Y-103159714D01*
X24050571Y-103802571D02*
X24050571Y-102302571D01*
X23193428Y-103802571D01*
X23193428Y-102302571D01*
X22479142Y-103802571D02*
X22479142Y-102302571D01*
X22122000Y-102302571D01*
X21907714Y-102374000D01*
X21764857Y-102516857D01*
X21693428Y-102659714D01*
X21622000Y-102945428D01*
X21622000Y-103159714D01*
X21693428Y-103445428D01*
X21764857Y-103588285D01*
X21907714Y-103731142D01*
X22122000Y-103802571D01*
X22479142Y-103802571D01*
X167417714Y-91126571D02*
X168132000Y-91126571D01*
X168203428Y-91840857D01*
X168132000Y-91769428D01*
X167989142Y-91698000D01*
X167632000Y-91698000D01*
X167489142Y-91769428D01*
X167417714Y-91840857D01*
X167346285Y-91983714D01*
X167346285Y-92340857D01*
X167417714Y-92483714D01*
X167489142Y-92555142D01*
X167632000Y-92626571D01*
X167989142Y-92626571D01*
X168132000Y-92555142D01*
X168203428Y-92483714D01*
X166917714Y-91126571D02*
X166417714Y-92626571D01*
X165917714Y-91126571D01*
X167512857Y-87261000D02*
X167655714Y-87189571D01*
X167870000Y-87189571D01*
X168084285Y-87261000D01*
X168227142Y-87403857D01*
X168298571Y-87546714D01*
X168370000Y-87832428D01*
X168370000Y-88046714D01*
X168298571Y-88332428D01*
X168227142Y-88475285D01*
X168084285Y-88618142D01*
X167870000Y-88689571D01*
X167727142Y-88689571D01*
X167512857Y-88618142D01*
X167441428Y-88546714D01*
X167441428Y-88046714D01*
X167727142Y-88046714D01*
X166798571Y-88689571D02*
X166798571Y-87189571D01*
X165941428Y-88689571D01*
X165941428Y-87189571D01*
X165227142Y-88689571D02*
X165227142Y-87189571D01*
X164870000Y-87189571D01*
X164655714Y-87261000D01*
X164512857Y-87403857D01*
X164441428Y-87546714D01*
X164370000Y-87832428D01*
X164370000Y-88046714D01*
X164441428Y-88332428D01*
X164512857Y-88475285D01*
X164655714Y-88618142D01*
X164870000Y-88689571D01*
X165227142Y-88689571D01*
X168274857Y-83125571D02*
X167417714Y-83125571D01*
X167846285Y-84625571D02*
X167846285Y-83125571D01*
X167060571Y-83125571D02*
X166060571Y-84625571D01*
X166060571Y-83125571D02*
X167060571Y-84625571D01*
X167382000Y-82466571D02*
X167882000Y-81752285D01*
X168239142Y-82466571D02*
X168239142Y-80966571D01*
X167667714Y-80966571D01*
X167524857Y-81038000D01*
X167453428Y-81109428D01*
X167382000Y-81252285D01*
X167382000Y-81466571D01*
X167453428Y-81609428D01*
X167524857Y-81680857D01*
X167667714Y-81752285D01*
X168239142Y-81752285D01*
X166882000Y-80966571D02*
X165882000Y-82466571D01*
X165882000Y-80966571D02*
X166882000Y-82466571D01*
M02*
