G04 #@! TF.GenerationSoftware,KiCad,Pcbnew,(5.0.0)*
G04 #@! TF.CreationDate,2019-02-09T12:54:46-06:00*
G04 #@! TF.ProjectId,ArmPowerBoardV3,41726D506F776572426F61726456332E,rev?*
G04 #@! TF.SameCoordinates,Original*
G04 #@! TF.FileFunction,Legend,Top*
G04 #@! TF.FilePolarity,Positive*
%FSLAX46Y46*%
G04 Gerber Fmt 4.6, Leading zero omitted, Abs format (unit mm)*
G04 Created by KiCad (PCBNEW (5.0.0)) date 02/09/19 12:54:46*
%MOMM*%
%LPD*%
G01*
G04 APERTURE LIST*
%ADD10C,0.300000*%
%ADD11C,0.200000*%
%ADD12C,0.120000*%
%ADD13C,0.127000*%
%ADD14C,0.400000*%
%ADD15C,0.010000*%
%ADD16C,0.150000*%
%ADD17C,0.240583*%
G04 APERTURE END LIST*
D10*
X108201428Y-124578000D02*
X108915714Y-124578000D01*
X108058571Y-125006571D02*
X108558571Y-123506571D01*
X109058571Y-125006571D01*
X109558571Y-125006571D02*
X109558571Y-124006571D01*
X109558571Y-124292285D02*
X109630000Y-124149428D01*
X109701428Y-124078000D01*
X109844285Y-124006571D01*
X109987142Y-124006571D01*
X110487142Y-125006571D02*
X110487142Y-124006571D01*
X110487142Y-124149428D02*
X110558571Y-124078000D01*
X110701428Y-124006571D01*
X110915714Y-124006571D01*
X111058571Y-124078000D01*
X111130000Y-124220857D01*
X111130000Y-125006571D01*
X111130000Y-124220857D02*
X111201428Y-124078000D01*
X111344285Y-124006571D01*
X111558571Y-124006571D01*
X111701428Y-124078000D01*
X111772857Y-124220857D01*
X111772857Y-125006571D01*
X113630000Y-125006571D02*
X113630000Y-123506571D01*
X114201428Y-123506571D01*
X114344285Y-123578000D01*
X114415714Y-123649428D01*
X114487142Y-123792285D01*
X114487142Y-124006571D01*
X114415714Y-124149428D01*
X114344285Y-124220857D01*
X114201428Y-124292285D01*
X113630000Y-124292285D01*
X115344285Y-125006571D02*
X115201428Y-124935142D01*
X115130000Y-124863714D01*
X115058571Y-124720857D01*
X115058571Y-124292285D01*
X115130000Y-124149428D01*
X115201428Y-124078000D01*
X115344285Y-124006571D01*
X115558571Y-124006571D01*
X115701428Y-124078000D01*
X115772857Y-124149428D01*
X115844285Y-124292285D01*
X115844285Y-124720857D01*
X115772857Y-124863714D01*
X115701428Y-124935142D01*
X115558571Y-125006571D01*
X115344285Y-125006571D01*
X116344285Y-124006571D02*
X116630000Y-125006571D01*
X116915714Y-124292285D01*
X117201428Y-125006571D01*
X117487142Y-124006571D01*
X118630000Y-124935142D02*
X118487142Y-125006571D01*
X118201428Y-125006571D01*
X118058571Y-124935142D01*
X117987142Y-124792285D01*
X117987142Y-124220857D01*
X118058571Y-124078000D01*
X118201428Y-124006571D01*
X118487142Y-124006571D01*
X118630000Y-124078000D01*
X118701428Y-124220857D01*
X118701428Y-124363714D01*
X117987142Y-124506571D01*
X119344285Y-125006571D02*
X119344285Y-124006571D01*
X119344285Y-124292285D02*
X119415714Y-124149428D01*
X119487142Y-124078000D01*
X119630000Y-124006571D01*
X119772857Y-124006571D01*
X120272857Y-125006571D02*
X120272857Y-123506571D01*
X120272857Y-124078000D02*
X120415714Y-124006571D01*
X120701428Y-124006571D01*
X120844285Y-124078000D01*
X120915714Y-124149428D01*
X120987142Y-124292285D01*
X120987142Y-124720857D01*
X120915714Y-124863714D01*
X120844285Y-124935142D01*
X120701428Y-125006571D01*
X120415714Y-125006571D01*
X120272857Y-124935142D01*
X121844285Y-125006571D02*
X121701428Y-124935142D01*
X121630000Y-124863714D01*
X121558571Y-124720857D01*
X121558571Y-124292285D01*
X121630000Y-124149428D01*
X121701428Y-124078000D01*
X121844285Y-124006571D01*
X122058571Y-124006571D01*
X122201428Y-124078000D01*
X122272857Y-124149428D01*
X122344285Y-124292285D01*
X122344285Y-124720857D01*
X122272857Y-124863714D01*
X122201428Y-124935142D01*
X122058571Y-125006571D01*
X121844285Y-125006571D01*
X123630000Y-125006571D02*
X123630000Y-124220857D01*
X123558571Y-124078000D01*
X123415714Y-124006571D01*
X123130000Y-124006571D01*
X122987142Y-124078000D01*
X123630000Y-124935142D02*
X123487142Y-125006571D01*
X123130000Y-125006571D01*
X122987142Y-124935142D01*
X122915714Y-124792285D01*
X122915714Y-124649428D01*
X122987142Y-124506571D01*
X123130000Y-124435142D01*
X123487142Y-124435142D01*
X123630000Y-124363714D01*
X124344285Y-125006571D02*
X124344285Y-124006571D01*
X124344285Y-124292285D02*
X124415714Y-124149428D01*
X124487142Y-124078000D01*
X124630000Y-124006571D01*
X124772857Y-124006571D01*
X125915714Y-125006571D02*
X125915714Y-123506571D01*
X125915714Y-124935142D02*
X125772857Y-125006571D01*
X125487142Y-125006571D01*
X125344285Y-124935142D01*
X125272857Y-124863714D01*
X125201428Y-124720857D01*
X125201428Y-124292285D01*
X125272857Y-124149428D01*
X125344285Y-124078000D01*
X125487142Y-124006571D01*
X125772857Y-124006571D01*
X125915714Y-124078000D01*
X127558571Y-123506571D02*
X128058571Y-125006571D01*
X128558571Y-123506571D01*
X129058571Y-124863714D02*
X129130000Y-124935142D01*
X129058571Y-125006571D01*
X128987142Y-124935142D01*
X129058571Y-124863714D01*
X129058571Y-125006571D01*
X129630000Y-123506571D02*
X130558571Y-123506571D01*
X130058571Y-124078000D01*
X130272857Y-124078000D01*
X130415714Y-124149428D01*
X130487142Y-124220857D01*
X130558571Y-124363714D01*
X130558571Y-124720857D01*
X130487142Y-124863714D01*
X130415714Y-124935142D01*
X130272857Y-125006571D01*
X129844285Y-125006571D01*
X129701428Y-124935142D01*
X129630000Y-124863714D01*
X109772857Y-127556571D02*
X109272857Y-126842285D01*
X108915714Y-127556571D02*
X108915714Y-126056571D01*
X109487142Y-126056571D01*
X109630000Y-126128000D01*
X109701428Y-126199428D01*
X109772857Y-126342285D01*
X109772857Y-126556571D01*
X109701428Y-126699428D01*
X109630000Y-126770857D01*
X109487142Y-126842285D01*
X108915714Y-126842285D01*
X110415714Y-127556571D02*
X110415714Y-126556571D01*
X110415714Y-126056571D02*
X110344285Y-126128000D01*
X110415714Y-126199428D01*
X110487142Y-126128000D01*
X110415714Y-126056571D01*
X110415714Y-126199428D01*
X111344285Y-127556571D02*
X111201428Y-127485142D01*
X111130000Y-127342285D01*
X111130000Y-126056571D01*
X112487142Y-127485142D02*
X112344285Y-127556571D01*
X112058571Y-127556571D01*
X111915714Y-127485142D01*
X111844285Y-127342285D01*
X111844285Y-126770857D01*
X111915714Y-126628000D01*
X112058571Y-126556571D01*
X112344285Y-126556571D01*
X112487142Y-126628000D01*
X112558571Y-126770857D01*
X112558571Y-126913714D01*
X111844285Y-127056571D01*
X113058571Y-126556571D02*
X113415714Y-127556571D01*
X113772857Y-126556571D02*
X113415714Y-127556571D01*
X113272857Y-127913714D01*
X113201428Y-127985142D01*
X113058571Y-128056571D01*
X115487142Y-127556571D02*
X115487142Y-126056571D01*
X116344285Y-127556571D01*
X116344285Y-126056571D01*
X117630000Y-127485142D02*
X117487142Y-127556571D01*
X117201428Y-127556571D01*
X117058571Y-127485142D01*
X116987142Y-127342285D01*
X116987142Y-126770857D01*
X117058571Y-126628000D01*
X117201428Y-126556571D01*
X117487142Y-126556571D01*
X117630000Y-126628000D01*
X117701428Y-126770857D01*
X117701428Y-126913714D01*
X116987142Y-127056571D01*
X118344285Y-127556571D02*
X118344285Y-126556571D01*
X118344285Y-126699428D02*
X118415714Y-126628000D01*
X118558571Y-126556571D01*
X118772857Y-126556571D01*
X118915714Y-126628000D01*
X118987142Y-126770857D01*
X118987142Y-127556571D01*
X118987142Y-126770857D02*
X119058571Y-126628000D01*
X119201428Y-126556571D01*
X119415714Y-126556571D01*
X119558571Y-126628000D01*
X119630000Y-126770857D01*
X119630000Y-127556571D01*
X120915714Y-127485142D02*
X120772857Y-127556571D01*
X120487142Y-127556571D01*
X120344285Y-127485142D01*
X120272857Y-127342285D01*
X120272857Y-126770857D01*
X120344285Y-126628000D01*
X120487142Y-126556571D01*
X120772857Y-126556571D01*
X120915714Y-126628000D01*
X120987142Y-126770857D01*
X120987142Y-126913714D01*
X120272857Y-127056571D01*
X121415714Y-126556571D02*
X121987142Y-126556571D01*
X121630000Y-126056571D02*
X121630000Y-127342285D01*
X121701428Y-127485142D01*
X121844285Y-127556571D01*
X121987142Y-127556571D01*
X122344285Y-126556571D02*
X123130000Y-126556571D01*
X122344285Y-127556571D01*
X123130000Y-127556571D01*
X124772857Y-126199428D02*
X124844285Y-126128000D01*
X124987142Y-126056571D01*
X125344285Y-126056571D01*
X125487142Y-126128000D01*
X125558571Y-126199428D01*
X125630000Y-126342285D01*
X125630000Y-126485142D01*
X125558571Y-126699428D01*
X124701428Y-127556571D01*
X125630000Y-127556571D01*
X126558571Y-126056571D02*
X126701428Y-126056571D01*
X126844285Y-126128000D01*
X126915714Y-126199428D01*
X126987142Y-126342285D01*
X127058571Y-126628000D01*
X127058571Y-126985142D01*
X126987142Y-127270857D01*
X126915714Y-127413714D01*
X126844285Y-127485142D01*
X126701428Y-127556571D01*
X126558571Y-127556571D01*
X126415714Y-127485142D01*
X126344285Y-127413714D01*
X126272857Y-127270857D01*
X126201428Y-126985142D01*
X126201428Y-126628000D01*
X126272857Y-126342285D01*
X126344285Y-126199428D01*
X126415714Y-126128000D01*
X126558571Y-126056571D01*
X128487142Y-127556571D02*
X127630000Y-127556571D01*
X128058571Y-127556571D02*
X128058571Y-126056571D01*
X127915714Y-126270857D01*
X127772857Y-126413714D01*
X127630000Y-126485142D01*
X129201428Y-127556571D02*
X129487142Y-127556571D01*
X129630000Y-127485142D01*
X129701428Y-127413714D01*
X129844285Y-127199428D01*
X129915714Y-126913714D01*
X129915714Y-126342285D01*
X129844285Y-126199428D01*
X129772857Y-126128000D01*
X129630000Y-126056571D01*
X129344285Y-126056571D01*
X129201428Y-126128000D01*
X129130000Y-126199428D01*
X129058571Y-126342285D01*
X129058571Y-126699428D01*
X129130000Y-126842285D01*
X129201428Y-126913714D01*
X129344285Y-126985142D01*
X129630000Y-126985142D01*
X129772857Y-126913714D01*
X129844285Y-126842285D01*
X129915714Y-126699428D01*
D11*
X133604000Y-70231000D02*
X135509000Y-70231000D01*
X130175000Y-70231000D02*
X130302000Y-70231000D01*
X132080000Y-70231000D02*
X130175000Y-70231000D01*
X133604000Y-70231000D02*
G75*
G02X132080000Y-70231000I-762000J0D01*
G01*
D10*
X134790571Y-68623428D02*
X133290571Y-68623428D01*
X133290571Y-68266285D01*
X133362000Y-68052000D01*
X133504857Y-67909142D01*
X133647714Y-67837714D01*
X133933428Y-67766285D01*
X134147714Y-67766285D01*
X134433428Y-67837714D01*
X134576285Y-67909142D01*
X134719142Y-68052000D01*
X134790571Y-68266285D01*
X134790571Y-68623428D01*
X134790571Y-66337714D02*
X134790571Y-67194857D01*
X134790571Y-66766285D02*
X133290571Y-66766285D01*
X133504857Y-66909142D01*
X133647714Y-67052000D01*
X133719142Y-67194857D01*
X133290571Y-65837714D02*
X133290571Y-64909142D01*
X133862000Y-65409142D01*
X133862000Y-65194857D01*
X133933428Y-65052000D01*
X134004857Y-64980571D01*
X134147714Y-64909142D01*
X134504857Y-64909142D01*
X134647714Y-64980571D01*
X134719142Y-65052000D01*
X134790571Y-65194857D01*
X134790571Y-65623428D01*
X134719142Y-65766285D01*
X134647714Y-65837714D01*
X134790571Y-57955428D02*
X133290571Y-57955428D01*
X133290571Y-57598285D01*
X133362000Y-57384000D01*
X133504857Y-57241142D01*
X133647714Y-57169714D01*
X133933428Y-57098285D01*
X134147714Y-57098285D01*
X134433428Y-57169714D01*
X134576285Y-57241142D01*
X134719142Y-57384000D01*
X134790571Y-57598285D01*
X134790571Y-57955428D01*
X134790571Y-55669714D02*
X134790571Y-56526857D01*
X134790571Y-56098285D02*
X133290571Y-56098285D01*
X133504857Y-56241142D01*
X133647714Y-56384000D01*
X133719142Y-56526857D01*
X133433428Y-55098285D02*
X133362000Y-55026857D01*
X133290571Y-54884000D01*
X133290571Y-54526857D01*
X133362000Y-54384000D01*
X133433428Y-54312571D01*
X133576285Y-54241142D01*
X133719142Y-54241142D01*
X133933428Y-54312571D01*
X134790571Y-55169714D01*
X134790571Y-54241142D01*
X137330571Y-68623428D02*
X135830571Y-68623428D01*
X135830571Y-68266285D01*
X135902000Y-68052000D01*
X136044857Y-67909142D01*
X136187714Y-67837714D01*
X136473428Y-67766285D01*
X136687714Y-67766285D01*
X136973428Y-67837714D01*
X137116285Y-67909142D01*
X137259142Y-68052000D01*
X137330571Y-68266285D01*
X137330571Y-68623428D01*
X137330571Y-66337714D02*
X137330571Y-67194857D01*
X137330571Y-66766285D02*
X135830571Y-66766285D01*
X136044857Y-66909142D01*
X136187714Y-67052000D01*
X136259142Y-67194857D01*
X137330571Y-64909142D02*
X137330571Y-65766285D01*
X137330571Y-65337714D02*
X135830571Y-65337714D01*
X136044857Y-65480571D01*
X136187714Y-65623428D01*
X136259142Y-65766285D01*
X131822000Y-57840428D02*
X131822000Y-57126142D01*
X132250571Y-57983285D02*
X130750571Y-57483285D01*
X132250571Y-56983285D01*
X130893428Y-56554714D02*
X130822000Y-56483285D01*
X130750571Y-56340428D01*
X130750571Y-55983285D01*
X130822000Y-55840428D01*
X130893428Y-55769000D01*
X131036285Y-55697571D01*
X131179142Y-55697571D01*
X131393428Y-55769000D01*
X132250571Y-56626142D01*
X132250571Y-55697571D01*
X131822000Y-67111428D02*
X131822000Y-66397142D01*
X132250571Y-67254285D02*
X130750571Y-66754285D01*
X132250571Y-66254285D01*
X130750571Y-65897142D02*
X130750571Y-64968571D01*
X131322000Y-65468571D01*
X131322000Y-65254285D01*
X131393428Y-65111428D01*
X131464857Y-65040000D01*
X131607714Y-64968571D01*
X131964857Y-64968571D01*
X132107714Y-65040000D01*
X132179142Y-65111428D01*
X132250571Y-65254285D01*
X132250571Y-65682857D01*
X132179142Y-65825714D01*
X132107714Y-65897142D01*
X129282000Y-57840428D02*
X129282000Y-57126142D01*
X129710571Y-57983285D02*
X128210571Y-57483285D01*
X129710571Y-56983285D01*
X128710571Y-55840428D02*
X129710571Y-55840428D01*
X128139142Y-56197571D02*
X129210571Y-56554714D01*
X129210571Y-55626142D01*
X129282000Y-67111428D02*
X129282000Y-66397142D01*
X129710571Y-67254285D02*
X128210571Y-66754285D01*
X129710571Y-66254285D01*
X128210571Y-65040000D02*
X128210571Y-65754285D01*
X128924857Y-65825714D01*
X128853428Y-65754285D01*
X128782000Y-65611428D01*
X128782000Y-65254285D01*
X128853428Y-65111428D01*
X128924857Y-65040000D01*
X129067714Y-64968571D01*
X129424857Y-64968571D01*
X129567714Y-65040000D01*
X129639142Y-65111428D01*
X129710571Y-65254285D01*
X129710571Y-65611428D01*
X129639142Y-65754285D01*
X129567714Y-65825714D01*
X122090571Y-67147142D02*
X120590571Y-67147142D01*
X120590571Y-66790000D01*
X120662000Y-66575714D01*
X120804857Y-66432857D01*
X120947714Y-66361428D01*
X121233428Y-66290000D01*
X121447714Y-66290000D01*
X121733428Y-66361428D01*
X121876285Y-66432857D01*
X122019142Y-66575714D01*
X122090571Y-66790000D01*
X122090571Y-67147142D01*
X121233428Y-65432857D02*
X121162000Y-65575714D01*
X121090571Y-65647142D01*
X120947714Y-65718571D01*
X120876285Y-65718571D01*
X120733428Y-65647142D01*
X120662000Y-65575714D01*
X120590571Y-65432857D01*
X120590571Y-65147142D01*
X120662000Y-65004285D01*
X120733428Y-64932857D01*
X120876285Y-64861428D01*
X120947714Y-64861428D01*
X121090571Y-64932857D01*
X121162000Y-65004285D01*
X121233428Y-65147142D01*
X121233428Y-65432857D01*
X121304857Y-65575714D01*
X121376285Y-65647142D01*
X121519142Y-65718571D01*
X121804857Y-65718571D01*
X121947714Y-65647142D01*
X122019142Y-65575714D01*
X122090571Y-65432857D01*
X122090571Y-65147142D01*
X122019142Y-65004285D01*
X121947714Y-64932857D01*
X121804857Y-64861428D01*
X121519142Y-64861428D01*
X121376285Y-64932857D01*
X121304857Y-65004285D01*
X121233428Y-65147142D01*
X122090571Y-58003142D02*
X120590571Y-58003142D01*
X120590571Y-57646000D01*
X120662000Y-57431714D01*
X120804857Y-57288857D01*
X120947714Y-57217428D01*
X121233428Y-57146000D01*
X121447714Y-57146000D01*
X121733428Y-57217428D01*
X121876285Y-57288857D01*
X122019142Y-57431714D01*
X122090571Y-57646000D01*
X122090571Y-58003142D01*
X120590571Y-56646000D02*
X120590571Y-55646000D01*
X122090571Y-56288857D01*
X124630571Y-67147142D02*
X123130571Y-67147142D01*
X123130571Y-66790000D01*
X123202000Y-66575714D01*
X123344857Y-66432857D01*
X123487714Y-66361428D01*
X123773428Y-66290000D01*
X123987714Y-66290000D01*
X124273428Y-66361428D01*
X124416285Y-66432857D01*
X124559142Y-66575714D01*
X124630571Y-66790000D01*
X124630571Y-67147142D01*
X123130571Y-65004285D02*
X123130571Y-65290000D01*
X123202000Y-65432857D01*
X123273428Y-65504285D01*
X123487714Y-65647142D01*
X123773428Y-65718571D01*
X124344857Y-65718571D01*
X124487714Y-65647142D01*
X124559142Y-65575714D01*
X124630571Y-65432857D01*
X124630571Y-65147142D01*
X124559142Y-65004285D01*
X124487714Y-64932857D01*
X124344857Y-64861428D01*
X123987714Y-64861428D01*
X123844857Y-64932857D01*
X123773428Y-65004285D01*
X123702000Y-65147142D01*
X123702000Y-65432857D01*
X123773428Y-65575714D01*
X123844857Y-65647142D01*
X123987714Y-65718571D01*
X124630571Y-58003142D02*
X123130571Y-58003142D01*
X123130571Y-57646000D01*
X123202000Y-57431714D01*
X123344857Y-57288857D01*
X123487714Y-57217428D01*
X123773428Y-57146000D01*
X123987714Y-57146000D01*
X124273428Y-57217428D01*
X124416285Y-57288857D01*
X124559142Y-57431714D01*
X124630571Y-57646000D01*
X124630571Y-58003142D01*
X123130571Y-55788857D02*
X123130571Y-56503142D01*
X123844857Y-56574571D01*
X123773428Y-56503142D01*
X123702000Y-56360285D01*
X123702000Y-56003142D01*
X123773428Y-55860285D01*
X123844857Y-55788857D01*
X123987714Y-55717428D01*
X124344857Y-55717428D01*
X124487714Y-55788857D01*
X124559142Y-55860285D01*
X124630571Y-56003142D01*
X124630571Y-56360285D01*
X124559142Y-56503142D01*
X124487714Y-56574571D01*
X127170571Y-67147142D02*
X125670571Y-67147142D01*
X125670571Y-66790000D01*
X125742000Y-66575714D01*
X125884857Y-66432857D01*
X126027714Y-66361428D01*
X126313428Y-66290000D01*
X126527714Y-66290000D01*
X126813428Y-66361428D01*
X126956285Y-66432857D01*
X127099142Y-66575714D01*
X127170571Y-66790000D01*
X127170571Y-67147142D01*
X125813428Y-65718571D02*
X125742000Y-65647142D01*
X125670571Y-65504285D01*
X125670571Y-65147142D01*
X125742000Y-65004285D01*
X125813428Y-64932857D01*
X125956285Y-64861428D01*
X126099142Y-64861428D01*
X126313428Y-64932857D01*
X127170571Y-65790000D01*
X127170571Y-64861428D01*
X127170571Y-57082428D02*
X126456285Y-57582428D01*
X127170571Y-57939571D02*
X125670571Y-57939571D01*
X125670571Y-57368142D01*
X125742000Y-57225285D01*
X125813428Y-57153857D01*
X125956285Y-57082428D01*
X126170571Y-57082428D01*
X126313428Y-57153857D01*
X126384857Y-57225285D01*
X126456285Y-57368142D01*
X126456285Y-57939571D01*
X127099142Y-56511000D02*
X127170571Y-56296714D01*
X127170571Y-55939571D01*
X127099142Y-55796714D01*
X127027714Y-55725285D01*
X126884857Y-55653857D01*
X126742000Y-55653857D01*
X126599142Y-55725285D01*
X126527714Y-55796714D01*
X126456285Y-55939571D01*
X126384857Y-56225285D01*
X126313428Y-56368142D01*
X126242000Y-56439571D01*
X126099142Y-56511000D01*
X125956285Y-56511000D01*
X125813428Y-56439571D01*
X125742000Y-56368142D01*
X125670571Y-56225285D01*
X125670571Y-55868142D01*
X125742000Y-55653857D01*
X125670571Y-55225285D02*
X125670571Y-54368142D01*
X127170571Y-54796714D02*
X125670571Y-54796714D01*
X118050571Y-57237285D02*
X118050571Y-57951571D01*
X118764857Y-58023000D01*
X118693428Y-57951571D01*
X118622000Y-57808714D01*
X118622000Y-57451571D01*
X118693428Y-57308714D01*
X118764857Y-57237285D01*
X118907714Y-57165857D01*
X119264857Y-57165857D01*
X119407714Y-57237285D01*
X119479142Y-57308714D01*
X119550571Y-57451571D01*
X119550571Y-57808714D01*
X119479142Y-57951571D01*
X119407714Y-58023000D01*
X118550571Y-56665857D02*
X119550571Y-56308714D01*
X118550571Y-55951571D01*
X115510571Y-57237285D02*
X115510571Y-57951571D01*
X116224857Y-58023000D01*
X116153428Y-57951571D01*
X116082000Y-57808714D01*
X116082000Y-57451571D01*
X116153428Y-57308714D01*
X116224857Y-57237285D01*
X116367714Y-57165857D01*
X116724857Y-57165857D01*
X116867714Y-57237285D01*
X116939142Y-57308714D01*
X117010571Y-57451571D01*
X117010571Y-57808714D01*
X116939142Y-57951571D01*
X116867714Y-58023000D01*
X116010571Y-56665857D02*
X117010571Y-56308714D01*
X116010571Y-55951571D01*
X115510571Y-66127285D02*
X115510571Y-66841571D01*
X116224857Y-66913000D01*
X116153428Y-66841571D01*
X116082000Y-66698714D01*
X116082000Y-66341571D01*
X116153428Y-66198714D01*
X116224857Y-66127285D01*
X116367714Y-66055857D01*
X116724857Y-66055857D01*
X116867714Y-66127285D01*
X116939142Y-66198714D01*
X117010571Y-66341571D01*
X117010571Y-66698714D01*
X116939142Y-66841571D01*
X116867714Y-66913000D01*
X116010571Y-65555857D02*
X117010571Y-65198714D01*
X116010571Y-64841571D01*
X135902000Y-57149857D02*
X135830571Y-57292714D01*
X135830571Y-57507000D01*
X135902000Y-57721285D01*
X136044857Y-57864142D01*
X136187714Y-57935571D01*
X136473428Y-58007000D01*
X136687714Y-58007000D01*
X136973428Y-57935571D01*
X137116285Y-57864142D01*
X137259142Y-57721285D01*
X137330571Y-57507000D01*
X137330571Y-57364142D01*
X137259142Y-57149857D01*
X137187714Y-57078428D01*
X136687714Y-57078428D01*
X136687714Y-57364142D01*
X137330571Y-56435571D02*
X135830571Y-56435571D01*
X137330571Y-55578428D01*
X135830571Y-55578428D01*
X137330571Y-54864142D02*
X135830571Y-54864142D01*
X135830571Y-54507000D01*
X135902000Y-54292714D01*
X136044857Y-54149857D01*
X136187714Y-54078428D01*
X136473428Y-54007000D01*
X136687714Y-54007000D01*
X136973428Y-54078428D01*
X137116285Y-54149857D01*
X137259142Y-54292714D01*
X137330571Y-54507000D01*
X137330571Y-54864142D01*
X138442000Y-57149857D02*
X138370571Y-57292714D01*
X138370571Y-57507000D01*
X138442000Y-57721285D01*
X138584857Y-57864142D01*
X138727714Y-57935571D01*
X139013428Y-58007000D01*
X139227714Y-58007000D01*
X139513428Y-57935571D01*
X139656285Y-57864142D01*
X139799142Y-57721285D01*
X139870571Y-57507000D01*
X139870571Y-57364142D01*
X139799142Y-57149857D01*
X139727714Y-57078428D01*
X139227714Y-57078428D01*
X139227714Y-57364142D01*
X139870571Y-56435571D02*
X138370571Y-56435571D01*
X139870571Y-55578428D01*
X138370571Y-55578428D01*
X139870571Y-54864142D02*
X138370571Y-54864142D01*
X138370571Y-54507000D01*
X138442000Y-54292714D01*
X138584857Y-54149857D01*
X138727714Y-54078428D01*
X139013428Y-54007000D01*
X139227714Y-54007000D01*
X139513428Y-54078428D01*
X139656285Y-54149857D01*
X139799142Y-54292714D01*
X139870571Y-54507000D01*
X139870571Y-54864142D01*
X138442000Y-67944857D02*
X138370571Y-68087714D01*
X138370571Y-68302000D01*
X138442000Y-68516285D01*
X138584857Y-68659142D01*
X138727714Y-68730571D01*
X139013428Y-68802000D01*
X139227714Y-68802000D01*
X139513428Y-68730571D01*
X139656285Y-68659142D01*
X139799142Y-68516285D01*
X139870571Y-68302000D01*
X139870571Y-68159142D01*
X139799142Y-67944857D01*
X139727714Y-67873428D01*
X139227714Y-67873428D01*
X139227714Y-68159142D01*
X139870571Y-67230571D02*
X138370571Y-67230571D01*
X139870571Y-66373428D01*
X138370571Y-66373428D01*
X139870571Y-65659142D02*
X138370571Y-65659142D01*
X138370571Y-65302000D01*
X138442000Y-65087714D01*
X138584857Y-64944857D01*
X138727714Y-64873428D01*
X139013428Y-64802000D01*
X139227714Y-64802000D01*
X139513428Y-64873428D01*
X139656285Y-64944857D01*
X139799142Y-65087714D01*
X139870571Y-65302000D01*
X139870571Y-65659142D01*
X118050571Y-66127285D02*
X118050571Y-66841571D01*
X118764857Y-66913000D01*
X118693428Y-66841571D01*
X118622000Y-66698714D01*
X118622000Y-66341571D01*
X118693428Y-66198714D01*
X118764857Y-66127285D01*
X118907714Y-66055857D01*
X119264857Y-66055857D01*
X119407714Y-66127285D01*
X119479142Y-66198714D01*
X119550571Y-66341571D01*
X119550571Y-66698714D01*
X119479142Y-66841571D01*
X119407714Y-66913000D01*
X118550571Y-65555857D02*
X119550571Y-65198714D01*
X118550571Y-64841571D01*
X153610571Y-54189285D02*
X153610571Y-54903571D01*
X154324857Y-54975000D01*
X154253428Y-54903571D01*
X154182000Y-54760714D01*
X154182000Y-54403571D01*
X154253428Y-54260714D01*
X154324857Y-54189285D01*
X154467714Y-54117857D01*
X154824857Y-54117857D01*
X154967714Y-54189285D01*
X155039142Y-54260714D01*
X155110571Y-54403571D01*
X155110571Y-54760714D01*
X155039142Y-54903571D01*
X154967714Y-54975000D01*
X154110571Y-53617857D02*
X155110571Y-53260714D01*
X154110571Y-52903571D01*
X146062000Y-56133857D02*
X145990571Y-56276714D01*
X145990571Y-56491000D01*
X146062000Y-56705285D01*
X146204857Y-56848142D01*
X146347714Y-56919571D01*
X146633428Y-56991000D01*
X146847714Y-56991000D01*
X147133428Y-56919571D01*
X147276285Y-56848142D01*
X147419142Y-56705285D01*
X147490571Y-56491000D01*
X147490571Y-56348142D01*
X147419142Y-56133857D01*
X147347714Y-56062428D01*
X146847714Y-56062428D01*
X146847714Y-56348142D01*
X147490571Y-55419571D02*
X145990571Y-55419571D01*
X147490571Y-54562428D01*
X145990571Y-54562428D01*
X147490571Y-53848142D02*
X145990571Y-53848142D01*
X145990571Y-53491000D01*
X146062000Y-53276714D01*
X146204857Y-53133857D01*
X146347714Y-53062428D01*
X146633428Y-52991000D01*
X146847714Y-52991000D01*
X147133428Y-53062428D01*
X147276285Y-53133857D01*
X147419142Y-53276714D01*
X147490571Y-53491000D01*
X147490571Y-53848142D01*
X156150571Y-75564857D02*
X156150571Y-74707714D01*
X157650571Y-75136285D02*
X156150571Y-75136285D01*
X156150571Y-74350571D02*
X157650571Y-73350571D01*
X156150571Y-73350571D02*
X157650571Y-74350571D01*
X147236571Y-74799000D02*
X146522285Y-75299000D01*
X147236571Y-75656142D02*
X145736571Y-75656142D01*
X145736571Y-75084714D01*
X145808000Y-74941857D01*
X145879428Y-74870428D01*
X146022285Y-74799000D01*
X146236571Y-74799000D01*
X146379428Y-74870428D01*
X146450857Y-74941857D01*
X146522285Y-75084714D01*
X146522285Y-75656142D01*
X145736571Y-74299000D02*
X147236571Y-73299000D01*
X145736571Y-73299000D02*
X147236571Y-74299000D01*
X21987428Y-77807428D02*
X22058857Y-77736000D01*
X22201714Y-77664571D01*
X22558857Y-77664571D01*
X22701714Y-77736000D01*
X22773142Y-77807428D01*
X22844571Y-77950285D01*
X22844571Y-78093142D01*
X22773142Y-78307428D01*
X21915999Y-79164571D01*
X22844571Y-79164571D01*
X24130285Y-78164571D02*
X24130285Y-79164571D01*
X23773142Y-77593142D02*
X23415999Y-78664571D01*
X24344571Y-78664571D01*
X24773142Y-78164571D02*
X25130285Y-79164571D01*
X25487428Y-78164571D01*
X27487428Y-77664571D02*
X27773142Y-77664571D01*
X27915999Y-77736000D01*
X28058857Y-77878857D01*
X28130285Y-78164571D01*
X28130285Y-78664571D01*
X28058857Y-78950285D01*
X27915999Y-79093142D01*
X27773142Y-79164571D01*
X27487428Y-79164571D01*
X27344571Y-79093142D01*
X27201714Y-78950285D01*
X27130285Y-78664571D01*
X27130285Y-78164571D01*
X27201714Y-77878857D01*
X27344571Y-77736000D01*
X27487428Y-77664571D01*
X28773142Y-77664571D02*
X28773142Y-78878857D01*
X28844571Y-79021714D01*
X28915999Y-79093142D01*
X29058857Y-79164571D01*
X29344571Y-79164571D01*
X29487428Y-79093142D01*
X29558857Y-79021714D01*
X29630285Y-78878857D01*
X29630285Y-77664571D01*
X30130285Y-77664571D02*
X30987428Y-77664571D01*
X30558857Y-79164571D02*
X30558857Y-77664571D01*
X23487714Y-96436571D02*
X22630571Y-96436571D01*
X23059142Y-96436571D02*
X23059142Y-94936571D01*
X22916285Y-95150857D01*
X22773428Y-95293714D01*
X22630571Y-95365142D01*
X24059142Y-95079428D02*
X24130571Y-95008000D01*
X24273428Y-94936571D01*
X24630571Y-94936571D01*
X24773428Y-95008000D01*
X24844857Y-95079428D01*
X24916285Y-95222285D01*
X24916285Y-95365142D01*
X24844857Y-95579428D01*
X23987714Y-96436571D01*
X24916285Y-96436571D01*
X25344857Y-94936571D02*
X25844857Y-96436571D01*
X26344857Y-94936571D01*
X27987714Y-96436571D02*
X27987714Y-94936571D01*
X28487714Y-96008000D01*
X28987714Y-94936571D01*
X28987714Y-96436571D01*
X29916285Y-96436571D02*
X29773428Y-96365142D01*
X29702000Y-96293714D01*
X29630571Y-96150857D01*
X29630571Y-95722285D01*
X29702000Y-95579428D01*
X29773428Y-95508000D01*
X29916285Y-95436571D01*
X30130571Y-95436571D01*
X30273428Y-95508000D01*
X30344857Y-95579428D01*
X30416285Y-95722285D01*
X30416285Y-96150857D01*
X30344857Y-96293714D01*
X30273428Y-96365142D01*
X30130571Y-96436571D01*
X29916285Y-96436571D01*
X30844857Y-95436571D02*
X31416285Y-95436571D01*
X31059142Y-94936571D02*
X31059142Y-96222285D01*
X31130571Y-96365142D01*
X31273428Y-96436571D01*
X31416285Y-96436571D01*
X32130571Y-96436571D02*
X31987714Y-96365142D01*
X31916285Y-96293714D01*
X31844857Y-96150857D01*
X31844857Y-95722285D01*
X31916285Y-95579428D01*
X31987714Y-95508000D01*
X32130571Y-95436571D01*
X32344857Y-95436571D01*
X32487714Y-95508000D01*
X32559142Y-95579428D01*
X32630571Y-95722285D01*
X32630571Y-96150857D01*
X32559142Y-96293714D01*
X32487714Y-96365142D01*
X32344857Y-96436571D01*
X32130571Y-96436571D01*
X33273428Y-96436571D02*
X33273428Y-95436571D01*
X33273428Y-95722285D02*
X33344857Y-95579428D01*
X33416285Y-95508000D01*
X33559142Y-95436571D01*
X33702000Y-95436571D01*
X34130571Y-96365142D02*
X34273428Y-96436571D01*
X34559142Y-96436571D01*
X34702000Y-96365142D01*
X34773428Y-96222285D01*
X34773428Y-96150857D01*
X34702000Y-96008000D01*
X34559142Y-95936571D01*
X34344857Y-95936571D01*
X34202000Y-95865142D01*
X34130571Y-95722285D01*
X34130571Y-95650857D01*
X34202000Y-95508000D01*
X34344857Y-95436571D01*
X34559142Y-95436571D01*
X34702000Y-95508000D01*
X22606285Y-38691428D02*
X22677714Y-38620000D01*
X22820571Y-38548571D01*
X23177714Y-38548571D01*
X23320571Y-38620000D01*
X23392000Y-38691428D01*
X23463428Y-38834285D01*
X23463428Y-38977142D01*
X23392000Y-39191428D01*
X22534857Y-40048571D01*
X23463428Y-40048571D01*
X24749142Y-39048571D02*
X24749142Y-40048571D01*
X24392000Y-38477142D02*
X24034857Y-39548571D01*
X24963428Y-39548571D01*
X25534857Y-40048571D02*
X25534857Y-38548571D01*
X26249142Y-40048571D02*
X26249142Y-38548571D01*
X27106285Y-40048571D01*
X27106285Y-38548571D01*
X122142285Y-49470571D02*
X121428000Y-49470571D01*
X121356571Y-50184857D01*
X121428000Y-50113428D01*
X121570857Y-50042000D01*
X121928000Y-50042000D01*
X122070857Y-50113428D01*
X122142285Y-50184857D01*
X122213714Y-50327714D01*
X122213714Y-50684857D01*
X122142285Y-50827714D01*
X122070857Y-50899142D01*
X121928000Y-50970571D01*
X121570857Y-50970571D01*
X121428000Y-50899142D01*
X121356571Y-50827714D01*
X122642285Y-49470571D02*
X123142285Y-50970571D01*
X123642285Y-49470571D01*
X149522571Y-116371428D02*
X149522571Y-117228571D01*
X149522571Y-116800000D02*
X148022571Y-116800000D01*
X148236857Y-116942857D01*
X148379714Y-117085714D01*
X148451142Y-117228571D01*
X148165428Y-115800000D02*
X148094000Y-115728571D01*
X148022571Y-115585714D01*
X148022571Y-115228571D01*
X148094000Y-115085714D01*
X148165428Y-115014285D01*
X148308285Y-114942857D01*
X148451142Y-114942857D01*
X148665428Y-115014285D01*
X149522571Y-115871428D01*
X149522571Y-114942857D01*
X148022571Y-113371428D02*
X149522571Y-112871428D01*
X148022571Y-112371428D01*
D12*
G04 #@! TO.C,REF\002A\002A*
X29210000Y-35560000D02*
G75*
G03X29210000Y-35560000I-2286000J0D01*
G01*
X29210000Y-127762000D02*
G75*
G03X29210000Y-127762000I-2286000J0D01*
G01*
X165354000Y-127762000D02*
G75*
G03X165354000Y-127762000I-2286000J0D01*
G01*
G04 #@! TO.C,J10*
X133842000Y-71568000D02*
G75*
G02X131842000Y-71568000I-1000000J0D01*
G01*
X131842000Y-71568000D02*
X130192000Y-71568000D01*
X130192000Y-71568000D02*
X130192000Y-107248000D01*
X130192000Y-107248000D02*
X135492000Y-107248000D01*
X135492000Y-107248000D02*
X135492000Y-71568000D01*
X135492000Y-71568000D02*
X133842000Y-71568000D01*
G04 #@! TO.C,C1*
X98246000Y-45204748D02*
X98246000Y-45727252D01*
X96826000Y-45204748D02*
X96826000Y-45727252D01*
G04 #@! TO.C,C3*
X44508000Y-49218000D02*
X47258000Y-49218000D01*
X53028000Y-49218000D02*
X50278000Y-49218000D01*
X53028000Y-41762437D02*
X53028000Y-49218000D01*
X44508000Y-41762437D02*
X44508000Y-49218000D01*
X45572437Y-40698000D02*
X47258000Y-40698000D01*
X51963563Y-40698000D02*
X50278000Y-40698000D01*
X51963563Y-40698000D02*
X53028000Y-41762437D01*
X45572437Y-40698000D02*
X44508000Y-41762437D01*
X51278000Y-39458000D02*
X51278000Y-40458000D01*
X51778000Y-39958000D02*
X50778000Y-39958000D01*
G04 #@! TO.C,D1*
X40758000Y-40612000D02*
X36458000Y-40612000D01*
X36458000Y-40612000D02*
X36458000Y-47912000D01*
X40758000Y-40612000D02*
X40758000Y-47912000D01*
G04 #@! TO.C,D2*
X117794059Y-74423813D02*
X117794059Y-77513813D01*
X122854059Y-75968813D02*
G75*
G03X122854059Y-75968813I-2500000J0D01*
G01*
X123344059Y-75969275D02*
G75*
G03X117794059Y-74423983I-2990000J462D01*
G01*
X123344059Y-75968351D02*
G75*
G02X117794059Y-77513643I-2990000J-462D01*
G01*
G04 #@! TO.C,J1*
X36646000Y-98758000D02*
X36646000Y-123738000D01*
X21446000Y-98738000D02*
X21446000Y-123738000D01*
X36646000Y-98738000D02*
X21446000Y-98738000D01*
X36646000Y-123778000D02*
X21446000Y-123778000D01*
G04 #@! TO.C,J4*
X23103244Y-68755318D02*
G75*
G02X22958000Y-68072000I1534756J683318D01*
G01*
X25321042Y-69607426D02*
G75*
G02X23954000Y-69607000I-683042J1535426D01*
G01*
X26173426Y-67388958D02*
G75*
G02X26173000Y-68756000I-1535426J-683042D01*
G01*
X23954958Y-66536574D02*
G75*
G02X25322000Y-66537000I683042J-1535426D01*
G01*
X22957747Y-68100805D02*
G75*
G02X23103000Y-67388000I1680253J28805D01*
G01*
X26318000Y-73152000D02*
G75*
G03X26318000Y-73152000I-1680000J0D01*
G01*
X21938000Y-65472000D02*
X21938000Y-75752000D01*
X28838000Y-65472000D02*
X28838000Y-75752000D01*
X21238000Y-65472000D02*
X21238000Y-75752000D01*
X28838000Y-65472000D02*
X21238000Y-65472000D01*
X28838000Y-75772000D02*
X21238000Y-75772000D01*
X25707000Y-74427000D02*
X25661000Y-74380000D01*
X23399000Y-72118000D02*
X23364000Y-72083000D01*
X25913000Y-74222000D02*
X25877000Y-74187000D01*
X23615000Y-71925000D02*
X23569000Y-71878000D01*
X21678000Y-65232000D02*
X20938000Y-65232000D01*
X20938000Y-65232000D02*
X20938000Y-65732000D01*
G04 #@! TO.C,J9*
X168462000Y-52130000D02*
X168462000Y-49470000D01*
X148082000Y-52130000D02*
X168462000Y-52130000D01*
X148082000Y-49470000D02*
X168462000Y-49470000D01*
X148082000Y-52130000D02*
X148082000Y-49470000D01*
X146812000Y-52130000D02*
X145482000Y-52130000D01*
X145482000Y-52130000D02*
X145482000Y-50800000D01*
G04 #@! TO.C,J11*
X168462000Y-69790000D02*
X168462000Y-71120000D01*
X167132000Y-69790000D02*
X168462000Y-69790000D01*
X165862000Y-69790000D02*
X165862000Y-72450000D01*
X165862000Y-72450000D02*
X145482000Y-72450000D01*
X165862000Y-69790000D02*
X145482000Y-69790000D01*
X145482000Y-69790000D02*
X145482000Y-72450000D01*
G04 #@! TO.C,J13*
X164074000Y-76767000D02*
X163224000Y-76767000D01*
X163224000Y-76767000D02*
X163224000Y-79092000D01*
X163224000Y-79092000D02*
X160834000Y-79092000D01*
X164074000Y-94937000D02*
X163224000Y-94937000D01*
X163224000Y-94937000D02*
X163224000Y-92612000D01*
X167594000Y-76767000D02*
X168444000Y-76767000D01*
X168444000Y-76767000D02*
X168444000Y-94937000D01*
X168444000Y-94937000D02*
X167594000Y-94937000D01*
G04 #@! TO.C,R2*
X114924059Y-76588813D02*
X114924059Y-80428813D01*
X113084059Y-76588813D02*
X113084059Y-80428813D01*
G04 #@! TO.C,U1*
X86038000Y-37198000D02*
X74918000Y-37198000D01*
X86038000Y-51438000D02*
X74918000Y-51438000D01*
X86038000Y-39198000D02*
X86038000Y-37198000D01*
X86038000Y-49438000D02*
X86038000Y-51438000D01*
X77198000Y-41438000D02*
X74918000Y-41438000D01*
X77198000Y-47198000D02*
X74918000Y-47198000D01*
X77198000Y-47198000D02*
X77198000Y-41438000D01*
X90438000Y-39198000D02*
X90438000Y-49438000D01*
X90438000Y-49438000D02*
X86038000Y-49438000D01*
X90438000Y-39198000D02*
X86038000Y-39198000D01*
X90438000Y-42663000D02*
X92318000Y-42663000D01*
X90438000Y-44573000D02*
X92318000Y-44573000D01*
X90438000Y-46483000D02*
X92318000Y-46483000D01*
X90438000Y-45973000D02*
X92318000Y-45973000D01*
X90438000Y-44063000D02*
X92318000Y-44063000D01*
X90438000Y-42153000D02*
X92318000Y-42153000D01*
D13*
G04 #@! TO.C,U2*
X101874000Y-130296000D02*
X40874000Y-130296000D01*
X40874000Y-130296000D02*
X40874000Y-72396000D01*
X101874000Y-72396000D02*
X101874000Y-130296000D01*
X40874000Y-72396000D02*
X101874000Y-72396000D01*
D14*
X89354000Y-70196000D02*
G75*
G03X89354000Y-70196000I-200000J0D01*
G01*
D12*
G04 #@! TO.C,U4*
X114326000Y-86492000D02*
X114326000Y-87422000D01*
X114326000Y-89652000D02*
X114326000Y-88722000D01*
X114326000Y-89652000D02*
X117486000Y-89652000D01*
X114326000Y-86492000D02*
X115786000Y-86492000D01*
G04 #@! TO.C,Y1*
X123793574Y-98110540D02*
X123793574Y-104360540D01*
X118743574Y-98110540D02*
X118743574Y-104360540D01*
X118743574Y-98110540D02*
G75*
G02X123793574Y-98110540I2525000J0D01*
G01*
X118743574Y-104360540D02*
G75*
G03X123793574Y-104360540I2525000J0D01*
G01*
G04 #@! TO.C,BT1*
X23357244Y-44625318D02*
G75*
G02X23212000Y-43942000I1534756J683318D01*
G01*
X25575042Y-45477426D02*
G75*
G02X24208000Y-45477000I-683042J1535426D01*
G01*
X26427426Y-43258958D02*
G75*
G02X26427000Y-44626000I-1535426J-683042D01*
G01*
X24208958Y-42406574D02*
G75*
G02X25576000Y-42407000I683042J-1535426D01*
G01*
X23211747Y-43970805D02*
G75*
G02X23357000Y-43258000I1680253J28805D01*
G01*
X26572000Y-49022000D02*
G75*
G03X26572000Y-49022000I-1680000J0D01*
G01*
X22192000Y-41342000D02*
X22192000Y-51622000D01*
X29092000Y-41342000D02*
X29092000Y-51622000D01*
X21492000Y-41342000D02*
X21492000Y-51622000D01*
X29092000Y-41342000D02*
X21492000Y-41342000D01*
X29092000Y-51642000D02*
X21492000Y-51642000D01*
X25961000Y-50297000D02*
X25915000Y-50250000D01*
X23653000Y-47988000D02*
X23618000Y-47953000D01*
X26167000Y-50092000D02*
X26131000Y-50057000D01*
X23869000Y-47795000D02*
X23823000Y-47748000D01*
X21932000Y-41102000D02*
X21192000Y-41102000D01*
X21192000Y-41102000D02*
X21192000Y-41602000D01*
G04 #@! TO.C,C5*
X76760000Y-56386252D02*
X76760000Y-55863748D01*
X78180000Y-56386252D02*
X78180000Y-55863748D01*
G04 #@! TO.C,C6*
X83514000Y-56386252D02*
X83514000Y-55863748D01*
X82094000Y-56386252D02*
X82094000Y-55863748D01*
G04 #@! TO.C,J8*
X140522000Y-64068000D02*
X140522000Y-58868000D01*
X117602000Y-64068000D02*
X140522000Y-64068000D01*
X115002000Y-58868000D02*
X140522000Y-58868000D01*
X117602000Y-64068000D02*
X117602000Y-61468000D01*
X117602000Y-61468000D02*
X115002000Y-61468000D01*
X115002000Y-61468000D02*
X115002000Y-58868000D01*
X116332000Y-64068000D02*
X115002000Y-64068000D01*
X115002000Y-64068000D02*
X115002000Y-62738000D01*
G04 #@! TO.C,U3*
X74394000Y-58078000D02*
X86134000Y-58078000D01*
X74394000Y-67618000D02*
X86134000Y-67618000D01*
X74394000Y-58078000D02*
X74424000Y-67598000D01*
X86134000Y-58078000D02*
X86124000Y-67598000D01*
X74004000Y-66558000D02*
X74004000Y-67868000D01*
X74004000Y-67868000D02*
X75354000Y-67868000D01*
G04 #@! TO.C,C7*
X159968000Y-90162748D02*
X159968000Y-90685252D01*
X158548000Y-90162748D02*
X158548000Y-90685252D01*
G04 #@! TO.C,C8*
X55424000Y-44696748D02*
X55424000Y-45219252D01*
X56844000Y-44696748D02*
X56844000Y-45219252D01*
G04 #@! TO.C,C9*
X125782000Y-89678252D02*
X125782000Y-89155748D01*
X127202000Y-89678252D02*
X127202000Y-89155748D01*
G04 #@! TO.C,C10*
X153722000Y-46474748D02*
X153722000Y-46997252D01*
X155142000Y-46474748D02*
X155142000Y-46997252D01*
G04 #@! TO.C,C11*
X139648000Y-89146748D02*
X139648000Y-89669252D01*
X138228000Y-89146748D02*
X138228000Y-89669252D01*
G04 #@! TO.C,C2*
X115586252Y-97998598D02*
X115063748Y-97998598D01*
X115586252Y-99418598D02*
X115063748Y-99418598D01*
G04 #@! TO.C,C4*
X115840252Y-104528598D02*
X115317748Y-104528598D01*
X115840252Y-103108598D02*
X115317748Y-103108598D01*
G04 #@! TO.C,J2*
X159886000Y-114526000D02*
X168386000Y-114526000D01*
X168386000Y-114526000D02*
X168386000Y-123726000D01*
X168386000Y-123726000D02*
X153686000Y-123726000D01*
X153686000Y-116626000D02*
X153686000Y-114526000D01*
X153686000Y-114526000D02*
X155486000Y-114526000D01*
X153386000Y-122326000D02*
X153386000Y-124026000D01*
X153386000Y-124026000D02*
X154986000Y-124026000D01*
X153686000Y-123726000D02*
X153686000Y-121626000D01*
G04 #@! TO.C,J3*
X153686000Y-110772000D02*
X153686000Y-108672000D01*
X153386000Y-111072000D02*
X154986000Y-111072000D01*
X153386000Y-109372000D02*
X153386000Y-111072000D01*
X153686000Y-101572000D02*
X155486000Y-101572000D01*
X153686000Y-103672000D02*
X153686000Y-101572000D01*
X168386000Y-110772000D02*
X153686000Y-110772000D01*
X168386000Y-101572000D02*
X168386000Y-110772000D01*
X159886000Y-101572000D02*
X168386000Y-101572000D01*
G04 #@! TO.C,J5*
X133830000Y-41282000D02*
X133830000Y-32782000D01*
X133830000Y-32782000D02*
X143030000Y-32782000D01*
X143030000Y-32782000D02*
X143030000Y-47482000D01*
X135930000Y-47482000D02*
X133830000Y-47482000D01*
X133830000Y-47482000D02*
X133830000Y-45682000D01*
X141630000Y-47782000D02*
X143330000Y-47782000D01*
X143330000Y-47782000D02*
X143330000Y-46182000D01*
X143030000Y-47482000D02*
X140930000Y-47482000D01*
G04 #@! TO.C,J6*
X122908000Y-41282000D02*
X122908000Y-32782000D01*
X122908000Y-32782000D02*
X132108000Y-32782000D01*
X132108000Y-32782000D02*
X132108000Y-47482000D01*
X125008000Y-47482000D02*
X122908000Y-47482000D01*
X122908000Y-47482000D02*
X122908000Y-45682000D01*
X130708000Y-47782000D02*
X132408000Y-47782000D01*
X132408000Y-47782000D02*
X132408000Y-46182000D01*
X132108000Y-47482000D02*
X130008000Y-47482000D01*
G04 #@! TO.C,J7*
X120424000Y-47482000D02*
X118324000Y-47482000D01*
X120724000Y-47782000D02*
X120724000Y-46182000D01*
X119024000Y-47782000D02*
X120724000Y-47782000D01*
X111224000Y-47482000D02*
X111224000Y-45682000D01*
X113324000Y-47482000D02*
X111224000Y-47482000D01*
X120424000Y-32782000D02*
X120424000Y-47482000D01*
X111224000Y-32782000D02*
X120424000Y-32782000D01*
X111224000Y-41282000D02*
X111224000Y-32782000D01*
D15*
G04 #@! TO.C,G\002A\002A\002A*
G36*
X118461861Y-111712918D02*
X118611238Y-111717198D01*
X118740197Y-111723541D01*
X118853675Y-111732496D01*
X118956609Y-111744610D01*
X119053934Y-111760430D01*
X119150588Y-111780503D01*
X119218073Y-111796767D01*
X119396338Y-111851100D01*
X119553329Y-111918876D01*
X119689583Y-112000518D01*
X119805634Y-112096452D01*
X119902019Y-112207101D01*
X119979274Y-112332890D01*
X120023861Y-112434419D01*
X120039393Y-112476898D01*
X120052778Y-112517099D01*
X120064176Y-112557224D01*
X120073744Y-112599476D01*
X120081643Y-112646054D01*
X120088031Y-112699161D01*
X120093067Y-112760997D01*
X120096911Y-112833765D01*
X120099722Y-112919665D01*
X120101658Y-113020900D01*
X120102879Y-113139669D01*
X120103544Y-113278176D01*
X120103812Y-113438621D01*
X120103848Y-113541175D01*
X120103900Y-114300000D01*
X118732300Y-114300000D01*
X118732300Y-113591490D01*
X118732299Y-112882981D01*
X118703725Y-112826315D01*
X118663936Y-112775127D01*
X118603739Y-112737129D01*
X118524691Y-112712759D01*
X118428349Y-112702451D01*
X118316271Y-112706644D01*
X118287822Y-112709780D01*
X118208394Y-112722974D01*
X118149349Y-112741632D01*
X118105865Y-112768068D01*
X118073121Y-112804594D01*
X118065550Y-112816397D01*
X118059837Y-112826702D01*
X118055052Y-112838497D01*
X118051111Y-112853986D01*
X118047933Y-112875372D01*
X118045436Y-112904857D01*
X118043539Y-112944644D01*
X118042158Y-112996936D01*
X118041213Y-113063936D01*
X118040622Y-113147846D01*
X118040302Y-113250870D01*
X118040172Y-113375211D01*
X118040150Y-113499900D01*
X118040186Y-113652291D01*
X118040456Y-113781619D01*
X118041199Y-113890217D01*
X118042654Y-113980423D01*
X118045059Y-114054571D01*
X118048655Y-114114997D01*
X118053681Y-114164037D01*
X118060376Y-114204027D01*
X118068980Y-114237302D01*
X118079730Y-114266197D01*
X118092868Y-114293049D01*
X118108632Y-114320193D01*
X118127239Y-114349929D01*
X118149739Y-114384249D01*
X118173924Y-114418081D01*
X118201267Y-114452845D01*
X118233242Y-114489959D01*
X118271321Y-114530845D01*
X118316979Y-114576922D01*
X118371687Y-114629609D01*
X118436920Y-114690328D01*
X118514151Y-114760496D01*
X118604853Y-114841534D01*
X118710498Y-114934863D01*
X118832561Y-115041901D01*
X118967250Y-115159479D01*
X119138895Y-115310852D01*
X119291200Y-115449087D01*
X119425564Y-115575711D01*
X119543385Y-115692250D01*
X119646061Y-115800232D01*
X119734991Y-115901184D01*
X119811573Y-115996633D01*
X119877206Y-116088107D01*
X119933289Y-116177131D01*
X119981219Y-116265233D01*
X119982856Y-116268500D01*
X120017427Y-116341424D01*
X120047337Y-116413705D01*
X120072866Y-116487659D01*
X120094296Y-116565600D01*
X120111907Y-116649842D01*
X120125978Y-116742702D01*
X120136791Y-116846493D01*
X120144626Y-116963531D01*
X120149763Y-117096130D01*
X120152484Y-117246606D01*
X120153067Y-117417273D01*
X120151795Y-117610445D01*
X120151268Y-117658462D01*
X120149253Y-117808539D01*
X120146849Y-117936028D01*
X120143831Y-118043744D01*
X120139976Y-118134500D01*
X120135058Y-118211108D01*
X120128853Y-118276381D01*
X120121138Y-118333132D01*
X120111687Y-118384175D01*
X120100278Y-118432322D01*
X120086684Y-118480385D01*
X120085393Y-118484650D01*
X120074405Y-118522378D01*
X120067343Y-118549724D01*
X120065937Y-118557675D01*
X120078044Y-118560227D01*
X120112222Y-118562520D01*
X120165143Y-118564460D01*
X120233478Y-118565950D01*
X120313900Y-118566895D01*
X120396855Y-118567200D01*
X120497112Y-118567104D01*
X120574752Y-118566690D01*
X120632556Y-118565767D01*
X120673309Y-118564144D01*
X120699791Y-118561630D01*
X120714786Y-118558034D01*
X120721077Y-118553166D01*
X120721444Y-118546834D01*
X120720929Y-118544975D01*
X120697048Y-118458744D01*
X120675101Y-118361118D01*
X120657797Y-118265050D01*
X120649855Y-118205250D01*
X120647703Y-118172237D01*
X120645666Y-118116387D01*
X120643778Y-118040262D01*
X120642075Y-117946426D01*
X120640590Y-117837441D01*
X120639358Y-117715869D01*
X120638414Y-117584274D01*
X120637791Y-117445217D01*
X120637525Y-117301263D01*
X120637520Y-117287675D01*
X120637300Y-116484400D01*
X122071867Y-116484400D01*
X122075308Y-117319425D01*
X122075925Y-117490190D01*
X122076430Y-117637411D01*
X122077066Y-117762940D01*
X122078080Y-117868630D01*
X122079715Y-117956335D01*
X122082216Y-118027907D01*
X122085827Y-118085199D01*
X122090795Y-118130065D01*
X122097362Y-118164356D01*
X122105774Y-118189926D01*
X122116276Y-118208629D01*
X122129112Y-118222316D01*
X122144527Y-118232841D01*
X122162766Y-118242056D01*
X122184072Y-118251816D01*
X122199400Y-118259187D01*
X122232169Y-118274547D01*
X122261606Y-118284624D01*
X122294487Y-118290515D01*
X122337589Y-118293317D01*
X122397688Y-118294129D01*
X122415300Y-118294150D01*
X122506316Y-118291517D01*
X122577420Y-118282634D01*
X122633645Y-118266021D01*
X122680028Y-118240201D01*
X122720935Y-118204381D01*
X122764550Y-118159377D01*
X122764550Y-116820950D01*
X122719034Y-116725700D01*
X122693322Y-116675737D01*
X122663552Y-116626018D01*
X122628263Y-116575045D01*
X122585991Y-116521324D01*
X122535273Y-116463357D01*
X122474646Y-116399648D01*
X122402647Y-116328702D01*
X122317813Y-116249022D01*
X122218681Y-116159112D01*
X122103788Y-116057476D01*
X121971672Y-115942618D01*
X121856221Y-115843314D01*
X121681288Y-115691659D01*
X121526153Y-115553442D01*
X121389745Y-115427620D01*
X121270993Y-115313152D01*
X121168828Y-115208993D01*
X121082179Y-115114102D01*
X121009975Y-115027436D01*
X120984400Y-114994174D01*
X120908521Y-114884769D01*
X120837619Y-114767135D01*
X120775673Y-114648585D01*
X120726659Y-114536434D01*
X120709359Y-114488430D01*
X120696181Y-114447359D01*
X120684886Y-114408138D01*
X120675331Y-114368498D01*
X120667372Y-114326168D01*
X120660868Y-114278878D01*
X120655676Y-114224356D01*
X120651653Y-114160334D01*
X120648656Y-114084539D01*
X120646544Y-113994703D01*
X120645173Y-113888554D01*
X120644401Y-113763823D01*
X120644086Y-113618238D01*
X120644084Y-113449529D01*
X120644084Y-113449100D01*
X120644518Y-112718850D01*
X120678193Y-112595357D01*
X120732450Y-112439598D01*
X120806036Y-112300089D01*
X120899385Y-112176299D01*
X121012929Y-112067701D01*
X121147104Y-111973764D01*
X121221500Y-111932419D01*
X121314713Y-111888242D01*
X121412262Y-111850065D01*
X121518312Y-111816729D01*
X121637026Y-111787075D01*
X121772567Y-111759944D01*
X121929099Y-111734177D01*
X121939050Y-111732679D01*
X122000858Y-111725976D01*
X122083543Y-111720802D01*
X122182630Y-111717128D01*
X122293643Y-111714931D01*
X122412105Y-111714183D01*
X122533542Y-111714858D01*
X122653478Y-111716931D01*
X122767438Y-111720375D01*
X122870946Y-111725164D01*
X122959525Y-111731273D01*
X123028702Y-111738675D01*
X123031250Y-111739033D01*
X123239636Y-111775870D01*
X123425829Y-111824160D01*
X123590514Y-111884321D01*
X123734377Y-111956772D01*
X123858104Y-112041935D01*
X123962380Y-112140227D01*
X124047890Y-112252069D01*
X124115321Y-112377880D01*
X124129149Y-112410849D01*
X124144815Y-112450473D01*
X124158325Y-112486470D01*
X124169852Y-112521003D01*
X124179568Y-112556236D01*
X124187643Y-112594335D01*
X124194250Y-112637463D01*
X124199560Y-112687785D01*
X124203745Y-112747465D01*
X124206977Y-112818667D01*
X124209427Y-112903555D01*
X124211267Y-113004293D01*
X124212669Y-113123047D01*
X124213805Y-113261980D01*
X124214845Y-113423256D01*
X124215286Y-113496724D01*
X124220087Y-114299999D01*
X123533593Y-114299999D01*
X122847100Y-114300000D01*
X122847100Y-113592809D01*
X122847075Y-113440786D01*
X122846951Y-113312043D01*
X122846657Y-113204458D01*
X122846117Y-113115913D01*
X122845259Y-113044285D01*
X122844009Y-112987455D01*
X122842295Y-112943302D01*
X122840043Y-112909706D01*
X122837180Y-112884546D01*
X122833633Y-112865701D01*
X122829328Y-112851052D01*
X122824193Y-112838478D01*
X122820798Y-112831288D01*
X122790698Y-112784906D01*
X122749303Y-112751243D01*
X122692137Y-112727741D01*
X122614723Y-112711840D01*
X122610870Y-112711287D01*
X122493425Y-112702299D01*
X122386602Y-112709394D01*
X122294610Y-112732188D01*
X122269639Y-112742437D01*
X122245199Y-112753367D01*
X122224494Y-112763355D01*
X122207217Y-112774479D01*
X122193058Y-112788814D01*
X122181707Y-112808437D01*
X122172857Y-112835423D01*
X122166197Y-112871849D01*
X122161418Y-112919790D01*
X122158211Y-112981324D01*
X122156267Y-113058525D01*
X122155277Y-113153471D01*
X122154932Y-113268237D01*
X122154922Y-113404899D01*
X122154950Y-113512600D01*
X122154967Y-113658175D01*
X122155080Y-113780618D01*
X122155378Y-113882199D01*
X122155953Y-113965185D01*
X122156894Y-114031845D01*
X122158293Y-114084448D01*
X122160239Y-114125263D01*
X122162823Y-114156557D01*
X122166135Y-114180599D01*
X122170267Y-114199658D01*
X122175308Y-114216003D01*
X122181348Y-114231901D01*
X122183883Y-114238193D01*
X122206006Y-114284500D01*
X122237261Y-114339660D01*
X122271239Y-114392436D01*
X122274394Y-114396943D01*
X122294658Y-114425239D01*
X122314750Y-114452044D01*
X122336046Y-114478645D01*
X122359926Y-114506332D01*
X122387769Y-114536395D01*
X122420953Y-114570123D01*
X122460857Y-114608805D01*
X122508860Y-114653730D01*
X122566340Y-114706188D01*
X122634677Y-114767467D01*
X122715248Y-114838858D01*
X122809432Y-114921650D01*
X122918609Y-115017131D01*
X123044156Y-115126591D01*
X123187453Y-115251319D01*
X123195644Y-115258445D01*
X123270331Y-115324800D01*
X123355803Y-115402992D01*
X123445190Y-115486595D01*
X123531625Y-115569184D01*
X123608238Y-115644333D01*
X123609702Y-115645795D01*
X123750431Y-115792061D01*
X123870201Y-115929502D01*
X123970640Y-116060908D01*
X124053376Y-116189070D01*
X124120040Y-116316779D01*
X124172259Y-116446826D01*
X124211663Y-116582001D01*
X124239880Y-116725096D01*
X124239974Y-116725700D01*
X124245300Y-116762645D01*
X124249748Y-116801106D01*
X124253397Y-116843679D01*
X124256322Y-116892960D01*
X124258600Y-116951544D01*
X124260308Y-117022028D01*
X124261521Y-117107005D01*
X124262316Y-117209073D01*
X124262770Y-117330827D01*
X124262958Y-117474863D01*
X124262971Y-117506750D01*
X124262825Y-117670900D01*
X124262179Y-117812079D01*
X124260869Y-117932711D01*
X124258732Y-118035223D01*
X124255605Y-118122041D01*
X124251325Y-118195589D01*
X124245728Y-118258295D01*
X124238651Y-118312583D01*
X124229931Y-118360880D01*
X124219404Y-118405611D01*
X124206908Y-118449202D01*
X124197578Y-118478300D01*
X124147704Y-118600959D01*
X124078016Y-118725596D01*
X124050183Y-118768117D01*
X124030122Y-118799500D01*
X124018605Y-118820988D01*
X124017450Y-118826537D01*
X124030735Y-118829239D01*
X124065613Y-118834889D01*
X124118519Y-118842950D01*
X124185889Y-118852885D01*
X124264155Y-118864156D01*
X124313950Y-118871209D01*
X124402159Y-118884103D01*
X124509244Y-118900525D01*
X124629084Y-118919492D01*
X124755558Y-118940017D01*
X124882545Y-118961117D01*
X125003925Y-118981806D01*
X125036204Y-118987414D01*
X125138049Y-119005105D01*
X125232300Y-119021312D01*
X125315944Y-119035529D01*
X125385970Y-119047251D01*
X125439364Y-119055973D01*
X125473115Y-119061189D01*
X125483879Y-119062500D01*
X125486261Y-119059482D01*
X125488425Y-119049689D01*
X125490379Y-119032015D01*
X125492135Y-119005350D01*
X125493701Y-118968588D01*
X125495088Y-118920620D01*
X125496306Y-118860339D01*
X125497365Y-118786637D01*
X125498275Y-118698407D01*
X125499045Y-118594540D01*
X125499686Y-118473929D01*
X125500209Y-118335466D01*
X125500622Y-118178043D01*
X125500935Y-118000553D01*
X125501160Y-117801888D01*
X125501305Y-117580939D01*
X125501382Y-117336601D01*
X125501400Y-117119717D01*
X125501399Y-115176935D01*
X125466475Y-115182555D01*
X125441623Y-115185980D01*
X125397079Y-115191571D01*
X125338392Y-115198651D01*
X125271110Y-115206544D01*
X125244429Y-115209617D01*
X125057308Y-115231059D01*
X125051019Y-115270354D01*
X125049203Y-115289488D01*
X125046033Y-115331785D01*
X125041650Y-115395054D01*
X125036195Y-115477103D01*
X125029809Y-115575739D01*
X125022633Y-115688769D01*
X125014809Y-115814003D01*
X125006477Y-115949248D01*
X124997780Y-116092311D01*
X124993289Y-116166900D01*
X124977713Y-116424873D01*
X124963423Y-116658156D01*
X124950372Y-116867423D01*
X124938512Y-117053350D01*
X124927796Y-117216610D01*
X124918176Y-117357880D01*
X124909604Y-117477833D01*
X124902033Y-117577144D01*
X124895416Y-117656489D01*
X124889706Y-117716541D01*
X124884854Y-117757975D01*
X124880813Y-117781467D01*
X124879345Y-117786150D01*
X124872420Y-117796514D01*
X124868646Y-117786182D01*
X124867136Y-117754400D01*
X124866043Y-117722102D01*
X124863669Y-117670288D01*
X124860306Y-117604791D01*
X124856250Y-117531446D01*
X124853701Y-117487700D01*
X124850495Y-117430270D01*
X124846224Y-117348005D01*
X124840912Y-117241448D01*
X124834586Y-117111140D01*
X124827270Y-116957623D01*
X124818990Y-116781439D01*
X124809771Y-116583129D01*
X124799638Y-116363237D01*
X124788618Y-116122302D01*
X124776735Y-115860869D01*
X124764015Y-115579477D01*
X124756683Y-115416667D01*
X124748358Y-115231584D01*
X124264454Y-115151106D01*
X124156623Y-115133007D01*
X124056660Y-115115911D01*
X123967339Y-115100315D01*
X123891432Y-115086718D01*
X123831710Y-115075618D01*
X123790948Y-115067512D01*
X123771917Y-115062900D01*
X123770955Y-115062434D01*
X123780098Y-115058489D01*
X123811883Y-115052091D01*
X123863709Y-115043595D01*
X123932975Y-115033353D01*
X124017077Y-115021720D01*
X124113415Y-115009049D01*
X124219386Y-114995693D01*
X124332388Y-114982005D01*
X124449821Y-114968340D01*
X124528395Y-114959516D01*
X124599313Y-114951393D01*
X124660998Y-114943801D01*
X124709202Y-114937305D01*
X124739680Y-114932471D01*
X124748404Y-114930228D01*
X124750232Y-114916830D01*
X124753348Y-114880522D01*
X124757589Y-114823756D01*
X124762787Y-114748981D01*
X124768779Y-114658647D01*
X124775397Y-114555204D01*
X124782477Y-114441101D01*
X124789853Y-114318788D01*
X124790892Y-114301283D01*
X124799341Y-114159259D01*
X124808313Y-114009574D01*
X124817499Y-113857279D01*
X124826593Y-113707428D01*
X124835287Y-113565074D01*
X124843275Y-113435268D01*
X124850250Y-113323063D01*
X124853458Y-113272025D01*
X124859758Y-113170915D01*
X124865497Y-113076153D01*
X124870477Y-112991197D01*
X124874503Y-112919505D01*
X124877377Y-112864536D01*
X124878903Y-112829747D01*
X124879100Y-112821074D01*
X124879100Y-112776000D01*
X124964069Y-112776000D01*
X124972366Y-113001425D01*
X124976288Y-113104501D01*
X124980996Y-113222365D01*
X124986358Y-113352147D01*
X124992244Y-113490980D01*
X124998523Y-113635996D01*
X125005063Y-113784325D01*
X125011735Y-113933101D01*
X125018407Y-114079454D01*
X125024950Y-114220516D01*
X125031231Y-114353420D01*
X125037120Y-114475296D01*
X125042487Y-114583278D01*
X125047200Y-114674496D01*
X125051129Y-114746082D01*
X125054144Y-114795168D01*
X125054153Y-114795300D01*
X125063250Y-114928650D01*
X125253750Y-114962245D01*
X125322426Y-114974119D01*
X125384051Y-114984334D01*
X125433437Y-114992063D01*
X125465399Y-114996479D01*
X125472825Y-114997170D01*
X125501400Y-114998500D01*
X125501400Y-112776000D01*
X124964069Y-112776000D01*
X124879100Y-112776000D01*
X124409200Y-112776000D01*
X124409200Y-111785400D01*
X128079500Y-111785400D01*
X128079500Y-112775724D01*
X127006350Y-112782350D01*
X126999952Y-119404408D01*
X127047601Y-119416879D01*
X127082431Y-119425859D01*
X127132526Y-119438608D01*
X127188507Y-119452743D01*
X127203200Y-119456433D01*
X127543891Y-119545528D01*
X127902247Y-119646077D01*
X128274022Y-119756683D01*
X128654970Y-119875948D01*
X129040847Y-120002478D01*
X129427406Y-120134874D01*
X129810403Y-120271741D01*
X130185593Y-120411681D01*
X130548730Y-120553297D01*
X130602211Y-120574724D01*
X130812554Y-120660577D01*
X131031766Y-120752433D01*
X131256547Y-120848790D01*
X131483595Y-120948148D01*
X131709612Y-121049007D01*
X131931296Y-121149868D01*
X132145346Y-121249229D01*
X132348463Y-121345591D01*
X132537346Y-121437453D01*
X132708694Y-121523316D01*
X132845294Y-121594279D01*
X132911659Y-121630237D01*
X132963403Y-121659788D01*
X132999021Y-121681905D01*
X133017012Y-121695561D01*
X133015873Y-121699729D01*
X132994101Y-121693382D01*
X132985600Y-121690165D01*
X132651475Y-121562747D01*
X132299445Y-121433115D01*
X131934345Y-121302884D01*
X131561010Y-121173669D01*
X131184276Y-121047085D01*
X130808976Y-120924746D01*
X130439946Y-120808268D01*
X130082021Y-120699264D01*
X129740035Y-120599351D01*
X129607951Y-120562059D01*
X128698390Y-120321197D01*
X127783365Y-120105089D01*
X126863292Y-119913780D01*
X125938583Y-119747314D01*
X125009652Y-119605734D01*
X124076913Y-119489084D01*
X123140780Y-119397408D01*
X122201666Y-119330749D01*
X121259984Y-119289153D01*
X120316149Y-119272661D01*
X119370574Y-119281319D01*
X118423672Y-119315171D01*
X118040150Y-119336043D01*
X117109166Y-119404226D01*
X116180084Y-119497228D01*
X115253974Y-119614865D01*
X114331905Y-119756956D01*
X113414945Y-119923316D01*
X112504165Y-120113763D01*
X111600632Y-120328114D01*
X110705417Y-120566184D01*
X110474035Y-120631980D01*
X110171846Y-120720962D01*
X109856767Y-120817288D01*
X109534108Y-120919203D01*
X109209178Y-121024952D01*
X108887286Y-121132777D01*
X108573741Y-121240924D01*
X108273854Y-121347636D01*
X107992932Y-121451157D01*
X107962700Y-121462545D01*
X107826566Y-121513682D01*
X107701132Y-121560280D01*
X107588102Y-121601735D01*
X107489183Y-121637440D01*
X107406079Y-121666791D01*
X107340495Y-121689183D01*
X107294136Y-121704011D01*
X107268707Y-121710670D01*
X107264200Y-121710426D01*
X107275343Y-121701384D01*
X107307324Y-121682660D01*
X107357966Y-121655319D01*
X107425092Y-121620428D01*
X107506527Y-121579054D01*
X107600095Y-121532265D01*
X107703619Y-121481126D01*
X107814924Y-121426704D01*
X107931833Y-121370066D01*
X108052170Y-121312280D01*
X108173759Y-121254410D01*
X108294424Y-121197526D01*
X108411990Y-121142692D01*
X108524279Y-121090976D01*
X108574520Y-121068092D01*
X109105055Y-120834179D01*
X109645417Y-120609109D01*
X110191984Y-120394162D01*
X110741134Y-120190619D01*
X111289247Y-119999760D01*
X111832700Y-119822866D01*
X112367872Y-119661217D01*
X112891142Y-119516092D01*
X113160175Y-119446873D01*
X113241655Y-119426157D01*
X113314237Y-119407050D01*
X113374507Y-119390505D01*
X113419052Y-119377474D01*
X113444457Y-119368911D01*
X113449100Y-119366257D01*
X113437990Y-119358503D01*
X113408423Y-119345196D01*
X113366046Y-119328800D01*
X113350675Y-119323294D01*
X113253071Y-119285224D01*
X113147121Y-119237557D01*
X113042096Y-119184836D01*
X112947269Y-119131608D01*
X112903000Y-119103880D01*
X112755165Y-118995701D01*
X112629997Y-118879601D01*
X112525238Y-118752555D01*
X112438630Y-118611540D01*
X112367917Y-118453532D01*
X112326981Y-118332250D01*
X112300334Y-118243350D01*
X112296698Y-115014374D01*
X112293062Y-111785399D01*
X113036181Y-111785399D01*
X113779300Y-111785400D01*
X113781285Y-112531525D01*
X113781499Y-112622917D01*
X113781719Y-112737935D01*
X113781945Y-112874808D01*
X113782173Y-113031760D01*
X113782403Y-113207019D01*
X113782632Y-113398812D01*
X113782859Y-113605364D01*
X113783082Y-113824904D01*
X113783299Y-114055657D01*
X113783509Y-114295850D01*
X113783709Y-114543710D01*
X113783898Y-114797464D01*
X113784075Y-115055338D01*
X113784237Y-115315559D01*
X113784383Y-115576354D01*
X113784460Y-115728750D01*
X113784633Y-115976614D01*
X113784905Y-116217803D01*
X113785271Y-116451077D01*
X113785724Y-116675199D01*
X113786258Y-116888931D01*
X113786869Y-117091036D01*
X113787550Y-117280276D01*
X113788295Y-117455412D01*
X113789099Y-117615207D01*
X113789955Y-117758423D01*
X113790858Y-117883822D01*
X113791803Y-117990167D01*
X113792783Y-118076219D01*
X113793793Y-118140742D01*
X113794826Y-118182496D01*
X113795878Y-118200244D01*
X113796012Y-118200716D01*
X113812368Y-118216354D01*
X113845051Y-118236926D01*
X113884912Y-118256995D01*
X113979410Y-118287935D01*
X114079628Y-118300197D01*
X114179569Y-118294199D01*
X114273234Y-118270359D01*
X114354625Y-118229096D01*
X114362294Y-118223713D01*
X114416619Y-118184360D01*
X114414178Y-116346955D01*
X114413878Y-116102239D01*
X114413609Y-115844963D01*
X114413373Y-115578351D01*
X114413170Y-115305627D01*
X114413003Y-115030016D01*
X114412871Y-114754743D01*
X114412777Y-114483031D01*
X114412721Y-114218105D01*
X114412704Y-113963191D01*
X114412728Y-113721512D01*
X114412795Y-113496292D01*
X114412904Y-113290756D01*
X114413018Y-113147475D01*
X114414300Y-111785400D01*
X115913406Y-111785400D01*
X115909345Y-115135025D01*
X115908941Y-115483265D01*
X115908590Y-115807045D01*
X115908269Y-116107304D01*
X115907957Y-116384982D01*
X115907632Y-116641018D01*
X115907271Y-116876353D01*
X115906853Y-117091924D01*
X115906355Y-117288673D01*
X115905756Y-117467539D01*
X115905034Y-117629461D01*
X115904167Y-117775378D01*
X115903133Y-117906231D01*
X115901909Y-118022959D01*
X115900474Y-118126501D01*
X115898806Y-118217798D01*
X115896882Y-118297787D01*
X115894682Y-118367411D01*
X115892182Y-118427607D01*
X115889361Y-118479315D01*
X115886198Y-118523475D01*
X115882669Y-118561026D01*
X115878753Y-118592909D01*
X115874428Y-118620062D01*
X115869672Y-118643426D01*
X115864463Y-118663939D01*
X115858779Y-118682541D01*
X115852598Y-118700172D01*
X115845899Y-118717772D01*
X115838658Y-118736279D01*
X115830854Y-118756635D01*
X115824194Y-118774874D01*
X115807568Y-118824282D01*
X115795871Y-118864190D01*
X115790657Y-118888986D01*
X115791110Y-118894143D01*
X115804928Y-118894141D01*
X115840736Y-118890839D01*
X115895394Y-118884618D01*
X115965760Y-118875861D01*
X116048693Y-118864949D01*
X116141051Y-118852265D01*
X116176102Y-118847324D01*
X116276352Y-118833297D01*
X116373022Y-118820145D01*
X116461964Y-118808402D01*
X116539033Y-118798606D01*
X116600082Y-118791291D01*
X116640966Y-118786994D01*
X116646325Y-118786546D01*
X116690962Y-118782126D01*
X116723653Y-118777035D01*
X116738105Y-118772287D01*
X116738316Y-118771741D01*
X116731756Y-118757129D01*
X116715727Y-118731123D01*
X116712244Y-118725950D01*
X116669639Y-118654869D01*
X116627932Y-118570352D01*
X116592470Y-118483969D01*
X116573273Y-118425226D01*
X116563640Y-118387058D01*
X116555270Y-118344843D01*
X116548081Y-118296657D01*
X116541989Y-118240580D01*
X116536911Y-118174688D01*
X116532765Y-118097058D01*
X116529467Y-118005767D01*
X116526934Y-117898894D01*
X116525084Y-117774516D01*
X116523833Y-117630709D01*
X116523099Y-117465551D01*
X116522798Y-117277121D01*
X116522788Y-117255925D01*
X116522500Y-116484400D01*
X117957600Y-116484400D01*
X117957600Y-117297607D01*
X117957690Y-117467759D01*
X117957985Y-117614246D01*
X117958521Y-117738803D01*
X117959331Y-117843163D01*
X117960451Y-117929062D01*
X117961917Y-117998234D01*
X117963763Y-118052413D01*
X117966024Y-118093334D01*
X117968737Y-118122731D01*
X117971935Y-118142339D01*
X117974923Y-118152275D01*
X118011964Y-118208629D01*
X118069859Y-118252124D01*
X118147196Y-118282129D01*
X118242565Y-118298010D01*
X118305146Y-118300500D01*
X118408305Y-118293466D01*
X118496378Y-118273009D01*
X118567181Y-118240092D01*
X118618524Y-118195681D01*
X118644812Y-118150735D01*
X118647044Y-118132422D01*
X118649117Y-118091289D01*
X118650986Y-118029917D01*
X118652609Y-117950886D01*
X118653943Y-117856778D01*
X118654945Y-117750171D01*
X118655570Y-117633647D01*
X118655776Y-117509786D01*
X118655772Y-117496398D01*
X118655670Y-117354201D01*
X118655462Y-117235027D01*
X118655052Y-117136497D01*
X118654344Y-117056233D01*
X118653240Y-116991859D01*
X118651644Y-116940996D01*
X118649460Y-116901266D01*
X118646592Y-116870291D01*
X118642943Y-116845694D01*
X118638416Y-116825097D01*
X118632915Y-116806123D01*
X118627051Y-116788465D01*
X118606633Y-116735027D01*
X118581404Y-116682046D01*
X118550039Y-116628117D01*
X118511212Y-116571839D01*
X118463598Y-116511807D01*
X118405871Y-116446617D01*
X118336706Y-116374868D01*
X118254776Y-116295155D01*
X118158756Y-116206075D01*
X118047321Y-116106224D01*
X117919145Y-115994200D01*
X117772902Y-115868598D01*
X117697674Y-115804582D01*
X117528614Y-115659248D01*
X117378965Y-115526502D01*
X117247153Y-115404616D01*
X117131608Y-115291863D01*
X117030755Y-115186518D01*
X116943023Y-115086852D01*
X116866840Y-114991140D01*
X116800633Y-114897653D01*
X116742830Y-114804666D01*
X116691859Y-114710452D01*
X116680411Y-114687350D01*
X116644926Y-114612855D01*
X116616184Y-114547238D01*
X116593355Y-114486359D01*
X116575610Y-114426083D01*
X116562121Y-114362271D01*
X116552059Y-114290786D01*
X116544594Y-114207489D01*
X116538899Y-114108245D01*
X116534143Y-113988914D01*
X116532848Y-113950750D01*
X116529877Y-113839667D01*
X116527601Y-113710595D01*
X116526076Y-113570935D01*
X116525359Y-113428088D01*
X116525506Y-113289457D01*
X116526574Y-113162444D01*
X116526734Y-113150650D01*
X116528968Y-113015723D01*
X116531866Y-112902865D01*
X116535933Y-112808742D01*
X116541676Y-112730023D01*
X116549602Y-112663376D01*
X116560218Y-112605470D01*
X116574031Y-112552972D01*
X116591546Y-112502551D01*
X116613271Y-112450874D01*
X116639712Y-112394611D01*
X116642613Y-112388650D01*
X116712464Y-112266666D01*
X116796690Y-112159350D01*
X116897250Y-112065165D01*
X117016101Y-111982575D01*
X117155197Y-111910042D01*
X117316497Y-111846030D01*
X117346459Y-111835820D01*
X117481430Y-111795739D01*
X117622809Y-111763849D01*
X117773814Y-111739796D01*
X117937661Y-111723224D01*
X118117566Y-111713781D01*
X118316746Y-111711110D01*
X118461861Y-111712918D01*
X118461861Y-111712918D01*
G37*
X118461861Y-111712918D02*
X118611238Y-111717198D01*
X118740197Y-111723541D01*
X118853675Y-111732496D01*
X118956609Y-111744610D01*
X119053934Y-111760430D01*
X119150588Y-111780503D01*
X119218073Y-111796767D01*
X119396338Y-111851100D01*
X119553329Y-111918876D01*
X119689583Y-112000518D01*
X119805634Y-112096452D01*
X119902019Y-112207101D01*
X119979274Y-112332890D01*
X120023861Y-112434419D01*
X120039393Y-112476898D01*
X120052778Y-112517099D01*
X120064176Y-112557224D01*
X120073744Y-112599476D01*
X120081643Y-112646054D01*
X120088031Y-112699161D01*
X120093067Y-112760997D01*
X120096911Y-112833765D01*
X120099722Y-112919665D01*
X120101658Y-113020900D01*
X120102879Y-113139669D01*
X120103544Y-113278176D01*
X120103812Y-113438621D01*
X120103848Y-113541175D01*
X120103900Y-114300000D01*
X118732300Y-114300000D01*
X118732300Y-113591490D01*
X118732299Y-112882981D01*
X118703725Y-112826315D01*
X118663936Y-112775127D01*
X118603739Y-112737129D01*
X118524691Y-112712759D01*
X118428349Y-112702451D01*
X118316271Y-112706644D01*
X118287822Y-112709780D01*
X118208394Y-112722974D01*
X118149349Y-112741632D01*
X118105865Y-112768068D01*
X118073121Y-112804594D01*
X118065550Y-112816397D01*
X118059837Y-112826702D01*
X118055052Y-112838497D01*
X118051111Y-112853986D01*
X118047933Y-112875372D01*
X118045436Y-112904857D01*
X118043539Y-112944644D01*
X118042158Y-112996936D01*
X118041213Y-113063936D01*
X118040622Y-113147846D01*
X118040302Y-113250870D01*
X118040172Y-113375211D01*
X118040150Y-113499900D01*
X118040186Y-113652291D01*
X118040456Y-113781619D01*
X118041199Y-113890217D01*
X118042654Y-113980423D01*
X118045059Y-114054571D01*
X118048655Y-114114997D01*
X118053681Y-114164037D01*
X118060376Y-114204027D01*
X118068980Y-114237302D01*
X118079730Y-114266197D01*
X118092868Y-114293049D01*
X118108632Y-114320193D01*
X118127239Y-114349929D01*
X118149739Y-114384249D01*
X118173924Y-114418081D01*
X118201267Y-114452845D01*
X118233242Y-114489959D01*
X118271321Y-114530845D01*
X118316979Y-114576922D01*
X118371687Y-114629609D01*
X118436920Y-114690328D01*
X118514151Y-114760496D01*
X118604853Y-114841534D01*
X118710498Y-114934863D01*
X118832561Y-115041901D01*
X118967250Y-115159479D01*
X119138895Y-115310852D01*
X119291200Y-115449087D01*
X119425564Y-115575711D01*
X119543385Y-115692250D01*
X119646061Y-115800232D01*
X119734991Y-115901184D01*
X119811573Y-115996633D01*
X119877206Y-116088107D01*
X119933289Y-116177131D01*
X119981219Y-116265233D01*
X119982856Y-116268500D01*
X120017427Y-116341424D01*
X120047337Y-116413705D01*
X120072866Y-116487659D01*
X120094296Y-116565600D01*
X120111907Y-116649842D01*
X120125978Y-116742702D01*
X120136791Y-116846493D01*
X120144626Y-116963531D01*
X120149763Y-117096130D01*
X120152484Y-117246606D01*
X120153067Y-117417273D01*
X120151795Y-117610445D01*
X120151268Y-117658462D01*
X120149253Y-117808539D01*
X120146849Y-117936028D01*
X120143831Y-118043744D01*
X120139976Y-118134500D01*
X120135058Y-118211108D01*
X120128853Y-118276381D01*
X120121138Y-118333132D01*
X120111687Y-118384175D01*
X120100278Y-118432322D01*
X120086684Y-118480385D01*
X120085393Y-118484650D01*
X120074405Y-118522378D01*
X120067343Y-118549724D01*
X120065937Y-118557675D01*
X120078044Y-118560227D01*
X120112222Y-118562520D01*
X120165143Y-118564460D01*
X120233478Y-118565950D01*
X120313900Y-118566895D01*
X120396855Y-118567200D01*
X120497112Y-118567104D01*
X120574752Y-118566690D01*
X120632556Y-118565767D01*
X120673309Y-118564144D01*
X120699791Y-118561630D01*
X120714786Y-118558034D01*
X120721077Y-118553166D01*
X120721444Y-118546834D01*
X120720929Y-118544975D01*
X120697048Y-118458744D01*
X120675101Y-118361118D01*
X120657797Y-118265050D01*
X120649855Y-118205250D01*
X120647703Y-118172237D01*
X120645666Y-118116387D01*
X120643778Y-118040262D01*
X120642075Y-117946426D01*
X120640590Y-117837441D01*
X120639358Y-117715869D01*
X120638414Y-117584274D01*
X120637791Y-117445217D01*
X120637525Y-117301263D01*
X120637520Y-117287675D01*
X120637300Y-116484400D01*
X122071867Y-116484400D01*
X122075308Y-117319425D01*
X122075925Y-117490190D01*
X122076430Y-117637411D01*
X122077066Y-117762940D01*
X122078080Y-117868630D01*
X122079715Y-117956335D01*
X122082216Y-118027907D01*
X122085827Y-118085199D01*
X122090795Y-118130065D01*
X122097362Y-118164356D01*
X122105774Y-118189926D01*
X122116276Y-118208629D01*
X122129112Y-118222316D01*
X122144527Y-118232841D01*
X122162766Y-118242056D01*
X122184072Y-118251816D01*
X122199400Y-118259187D01*
X122232169Y-118274547D01*
X122261606Y-118284624D01*
X122294487Y-118290515D01*
X122337589Y-118293317D01*
X122397688Y-118294129D01*
X122415300Y-118294150D01*
X122506316Y-118291517D01*
X122577420Y-118282634D01*
X122633645Y-118266021D01*
X122680028Y-118240201D01*
X122720935Y-118204381D01*
X122764550Y-118159377D01*
X122764550Y-116820950D01*
X122719034Y-116725700D01*
X122693322Y-116675737D01*
X122663552Y-116626018D01*
X122628263Y-116575045D01*
X122585991Y-116521324D01*
X122535273Y-116463357D01*
X122474646Y-116399648D01*
X122402647Y-116328702D01*
X122317813Y-116249022D01*
X122218681Y-116159112D01*
X122103788Y-116057476D01*
X121971672Y-115942618D01*
X121856221Y-115843314D01*
X121681288Y-115691659D01*
X121526153Y-115553442D01*
X121389745Y-115427620D01*
X121270993Y-115313152D01*
X121168828Y-115208993D01*
X121082179Y-115114102D01*
X121009975Y-115027436D01*
X120984400Y-114994174D01*
X120908521Y-114884769D01*
X120837619Y-114767135D01*
X120775673Y-114648585D01*
X120726659Y-114536434D01*
X120709359Y-114488430D01*
X120696181Y-114447359D01*
X120684886Y-114408138D01*
X120675331Y-114368498D01*
X120667372Y-114326168D01*
X120660868Y-114278878D01*
X120655676Y-114224356D01*
X120651653Y-114160334D01*
X120648656Y-114084539D01*
X120646544Y-113994703D01*
X120645173Y-113888554D01*
X120644401Y-113763823D01*
X120644086Y-113618238D01*
X120644084Y-113449529D01*
X120644084Y-113449100D01*
X120644518Y-112718850D01*
X120678193Y-112595357D01*
X120732450Y-112439598D01*
X120806036Y-112300089D01*
X120899385Y-112176299D01*
X121012929Y-112067701D01*
X121147104Y-111973764D01*
X121221500Y-111932419D01*
X121314713Y-111888242D01*
X121412262Y-111850065D01*
X121518312Y-111816729D01*
X121637026Y-111787075D01*
X121772567Y-111759944D01*
X121929099Y-111734177D01*
X121939050Y-111732679D01*
X122000858Y-111725976D01*
X122083543Y-111720802D01*
X122182630Y-111717128D01*
X122293643Y-111714931D01*
X122412105Y-111714183D01*
X122533542Y-111714858D01*
X122653478Y-111716931D01*
X122767438Y-111720375D01*
X122870946Y-111725164D01*
X122959525Y-111731273D01*
X123028702Y-111738675D01*
X123031250Y-111739033D01*
X123239636Y-111775870D01*
X123425829Y-111824160D01*
X123590514Y-111884321D01*
X123734377Y-111956772D01*
X123858104Y-112041935D01*
X123962380Y-112140227D01*
X124047890Y-112252069D01*
X124115321Y-112377880D01*
X124129149Y-112410849D01*
X124144815Y-112450473D01*
X124158325Y-112486470D01*
X124169852Y-112521003D01*
X124179568Y-112556236D01*
X124187643Y-112594335D01*
X124194250Y-112637463D01*
X124199560Y-112687785D01*
X124203745Y-112747465D01*
X124206977Y-112818667D01*
X124209427Y-112903555D01*
X124211267Y-113004293D01*
X124212669Y-113123047D01*
X124213805Y-113261980D01*
X124214845Y-113423256D01*
X124215286Y-113496724D01*
X124220087Y-114299999D01*
X123533593Y-114299999D01*
X122847100Y-114300000D01*
X122847100Y-113592809D01*
X122847075Y-113440786D01*
X122846951Y-113312043D01*
X122846657Y-113204458D01*
X122846117Y-113115913D01*
X122845259Y-113044285D01*
X122844009Y-112987455D01*
X122842295Y-112943302D01*
X122840043Y-112909706D01*
X122837180Y-112884546D01*
X122833633Y-112865701D01*
X122829328Y-112851052D01*
X122824193Y-112838478D01*
X122820798Y-112831288D01*
X122790698Y-112784906D01*
X122749303Y-112751243D01*
X122692137Y-112727741D01*
X122614723Y-112711840D01*
X122610870Y-112711287D01*
X122493425Y-112702299D01*
X122386602Y-112709394D01*
X122294610Y-112732188D01*
X122269639Y-112742437D01*
X122245199Y-112753367D01*
X122224494Y-112763355D01*
X122207217Y-112774479D01*
X122193058Y-112788814D01*
X122181707Y-112808437D01*
X122172857Y-112835423D01*
X122166197Y-112871849D01*
X122161418Y-112919790D01*
X122158211Y-112981324D01*
X122156267Y-113058525D01*
X122155277Y-113153471D01*
X122154932Y-113268237D01*
X122154922Y-113404899D01*
X122154950Y-113512600D01*
X122154967Y-113658175D01*
X122155080Y-113780618D01*
X122155378Y-113882199D01*
X122155953Y-113965185D01*
X122156894Y-114031845D01*
X122158293Y-114084448D01*
X122160239Y-114125263D01*
X122162823Y-114156557D01*
X122166135Y-114180599D01*
X122170267Y-114199658D01*
X122175308Y-114216003D01*
X122181348Y-114231901D01*
X122183883Y-114238193D01*
X122206006Y-114284500D01*
X122237261Y-114339660D01*
X122271239Y-114392436D01*
X122274394Y-114396943D01*
X122294658Y-114425239D01*
X122314750Y-114452044D01*
X122336046Y-114478645D01*
X122359926Y-114506332D01*
X122387769Y-114536395D01*
X122420953Y-114570123D01*
X122460857Y-114608805D01*
X122508860Y-114653730D01*
X122566340Y-114706188D01*
X122634677Y-114767467D01*
X122715248Y-114838858D01*
X122809432Y-114921650D01*
X122918609Y-115017131D01*
X123044156Y-115126591D01*
X123187453Y-115251319D01*
X123195644Y-115258445D01*
X123270331Y-115324800D01*
X123355803Y-115402992D01*
X123445190Y-115486595D01*
X123531625Y-115569184D01*
X123608238Y-115644333D01*
X123609702Y-115645795D01*
X123750431Y-115792061D01*
X123870201Y-115929502D01*
X123970640Y-116060908D01*
X124053376Y-116189070D01*
X124120040Y-116316779D01*
X124172259Y-116446826D01*
X124211663Y-116582001D01*
X124239880Y-116725096D01*
X124239974Y-116725700D01*
X124245300Y-116762645D01*
X124249748Y-116801106D01*
X124253397Y-116843679D01*
X124256322Y-116892960D01*
X124258600Y-116951544D01*
X124260308Y-117022028D01*
X124261521Y-117107005D01*
X124262316Y-117209073D01*
X124262770Y-117330827D01*
X124262958Y-117474863D01*
X124262971Y-117506750D01*
X124262825Y-117670900D01*
X124262179Y-117812079D01*
X124260869Y-117932711D01*
X124258732Y-118035223D01*
X124255605Y-118122041D01*
X124251325Y-118195589D01*
X124245728Y-118258295D01*
X124238651Y-118312583D01*
X124229931Y-118360880D01*
X124219404Y-118405611D01*
X124206908Y-118449202D01*
X124197578Y-118478300D01*
X124147704Y-118600959D01*
X124078016Y-118725596D01*
X124050183Y-118768117D01*
X124030122Y-118799500D01*
X124018605Y-118820988D01*
X124017450Y-118826537D01*
X124030735Y-118829239D01*
X124065613Y-118834889D01*
X124118519Y-118842950D01*
X124185889Y-118852885D01*
X124264155Y-118864156D01*
X124313950Y-118871209D01*
X124402159Y-118884103D01*
X124509244Y-118900525D01*
X124629084Y-118919492D01*
X124755558Y-118940017D01*
X124882545Y-118961117D01*
X125003925Y-118981806D01*
X125036204Y-118987414D01*
X125138049Y-119005105D01*
X125232300Y-119021312D01*
X125315944Y-119035529D01*
X125385970Y-119047251D01*
X125439364Y-119055973D01*
X125473115Y-119061189D01*
X125483879Y-119062500D01*
X125486261Y-119059482D01*
X125488425Y-119049689D01*
X125490379Y-119032015D01*
X125492135Y-119005350D01*
X125493701Y-118968588D01*
X125495088Y-118920620D01*
X125496306Y-118860339D01*
X125497365Y-118786637D01*
X125498275Y-118698407D01*
X125499045Y-118594540D01*
X125499686Y-118473929D01*
X125500209Y-118335466D01*
X125500622Y-118178043D01*
X125500935Y-118000553D01*
X125501160Y-117801888D01*
X125501305Y-117580939D01*
X125501382Y-117336601D01*
X125501400Y-117119717D01*
X125501399Y-115176935D01*
X125466475Y-115182555D01*
X125441623Y-115185980D01*
X125397079Y-115191571D01*
X125338392Y-115198651D01*
X125271110Y-115206544D01*
X125244429Y-115209617D01*
X125057308Y-115231059D01*
X125051019Y-115270354D01*
X125049203Y-115289488D01*
X125046033Y-115331785D01*
X125041650Y-115395054D01*
X125036195Y-115477103D01*
X125029809Y-115575739D01*
X125022633Y-115688769D01*
X125014809Y-115814003D01*
X125006477Y-115949248D01*
X124997780Y-116092311D01*
X124993289Y-116166900D01*
X124977713Y-116424873D01*
X124963423Y-116658156D01*
X124950372Y-116867423D01*
X124938512Y-117053350D01*
X124927796Y-117216610D01*
X124918176Y-117357880D01*
X124909604Y-117477833D01*
X124902033Y-117577144D01*
X124895416Y-117656489D01*
X124889706Y-117716541D01*
X124884854Y-117757975D01*
X124880813Y-117781467D01*
X124879345Y-117786150D01*
X124872420Y-117796514D01*
X124868646Y-117786182D01*
X124867136Y-117754400D01*
X124866043Y-117722102D01*
X124863669Y-117670288D01*
X124860306Y-117604791D01*
X124856250Y-117531446D01*
X124853701Y-117487700D01*
X124850495Y-117430270D01*
X124846224Y-117348005D01*
X124840912Y-117241448D01*
X124834586Y-117111140D01*
X124827270Y-116957623D01*
X124818990Y-116781439D01*
X124809771Y-116583129D01*
X124799638Y-116363237D01*
X124788618Y-116122302D01*
X124776735Y-115860869D01*
X124764015Y-115579477D01*
X124756683Y-115416667D01*
X124748358Y-115231584D01*
X124264454Y-115151106D01*
X124156623Y-115133007D01*
X124056660Y-115115911D01*
X123967339Y-115100315D01*
X123891432Y-115086718D01*
X123831710Y-115075618D01*
X123790948Y-115067512D01*
X123771917Y-115062900D01*
X123770955Y-115062434D01*
X123780098Y-115058489D01*
X123811883Y-115052091D01*
X123863709Y-115043595D01*
X123932975Y-115033353D01*
X124017077Y-115021720D01*
X124113415Y-115009049D01*
X124219386Y-114995693D01*
X124332388Y-114982005D01*
X124449821Y-114968340D01*
X124528395Y-114959516D01*
X124599313Y-114951393D01*
X124660998Y-114943801D01*
X124709202Y-114937305D01*
X124739680Y-114932471D01*
X124748404Y-114930228D01*
X124750232Y-114916830D01*
X124753348Y-114880522D01*
X124757589Y-114823756D01*
X124762787Y-114748981D01*
X124768779Y-114658647D01*
X124775397Y-114555204D01*
X124782477Y-114441101D01*
X124789853Y-114318788D01*
X124790892Y-114301283D01*
X124799341Y-114159259D01*
X124808313Y-114009574D01*
X124817499Y-113857279D01*
X124826593Y-113707428D01*
X124835287Y-113565074D01*
X124843275Y-113435268D01*
X124850250Y-113323063D01*
X124853458Y-113272025D01*
X124859758Y-113170915D01*
X124865497Y-113076153D01*
X124870477Y-112991197D01*
X124874503Y-112919505D01*
X124877377Y-112864536D01*
X124878903Y-112829747D01*
X124879100Y-112821074D01*
X124879100Y-112776000D01*
X124964069Y-112776000D01*
X124972366Y-113001425D01*
X124976288Y-113104501D01*
X124980996Y-113222365D01*
X124986358Y-113352147D01*
X124992244Y-113490980D01*
X124998523Y-113635996D01*
X125005063Y-113784325D01*
X125011735Y-113933101D01*
X125018407Y-114079454D01*
X125024950Y-114220516D01*
X125031231Y-114353420D01*
X125037120Y-114475296D01*
X125042487Y-114583278D01*
X125047200Y-114674496D01*
X125051129Y-114746082D01*
X125054144Y-114795168D01*
X125054153Y-114795300D01*
X125063250Y-114928650D01*
X125253750Y-114962245D01*
X125322426Y-114974119D01*
X125384051Y-114984334D01*
X125433437Y-114992063D01*
X125465399Y-114996479D01*
X125472825Y-114997170D01*
X125501400Y-114998500D01*
X125501400Y-112776000D01*
X124964069Y-112776000D01*
X124879100Y-112776000D01*
X124409200Y-112776000D01*
X124409200Y-111785400D01*
X128079500Y-111785400D01*
X128079500Y-112775724D01*
X127006350Y-112782350D01*
X126999952Y-119404408D01*
X127047601Y-119416879D01*
X127082431Y-119425859D01*
X127132526Y-119438608D01*
X127188507Y-119452743D01*
X127203200Y-119456433D01*
X127543891Y-119545528D01*
X127902247Y-119646077D01*
X128274022Y-119756683D01*
X128654970Y-119875948D01*
X129040847Y-120002478D01*
X129427406Y-120134874D01*
X129810403Y-120271741D01*
X130185593Y-120411681D01*
X130548730Y-120553297D01*
X130602211Y-120574724D01*
X130812554Y-120660577D01*
X131031766Y-120752433D01*
X131256547Y-120848790D01*
X131483595Y-120948148D01*
X131709612Y-121049007D01*
X131931296Y-121149868D01*
X132145346Y-121249229D01*
X132348463Y-121345591D01*
X132537346Y-121437453D01*
X132708694Y-121523316D01*
X132845294Y-121594279D01*
X132911659Y-121630237D01*
X132963403Y-121659788D01*
X132999021Y-121681905D01*
X133017012Y-121695561D01*
X133015873Y-121699729D01*
X132994101Y-121693382D01*
X132985600Y-121690165D01*
X132651475Y-121562747D01*
X132299445Y-121433115D01*
X131934345Y-121302884D01*
X131561010Y-121173669D01*
X131184276Y-121047085D01*
X130808976Y-120924746D01*
X130439946Y-120808268D01*
X130082021Y-120699264D01*
X129740035Y-120599351D01*
X129607951Y-120562059D01*
X128698390Y-120321197D01*
X127783365Y-120105089D01*
X126863292Y-119913780D01*
X125938583Y-119747314D01*
X125009652Y-119605734D01*
X124076913Y-119489084D01*
X123140780Y-119397408D01*
X122201666Y-119330749D01*
X121259984Y-119289153D01*
X120316149Y-119272661D01*
X119370574Y-119281319D01*
X118423672Y-119315171D01*
X118040150Y-119336043D01*
X117109166Y-119404226D01*
X116180084Y-119497228D01*
X115253974Y-119614865D01*
X114331905Y-119756956D01*
X113414945Y-119923316D01*
X112504165Y-120113763D01*
X111600632Y-120328114D01*
X110705417Y-120566184D01*
X110474035Y-120631980D01*
X110171846Y-120720962D01*
X109856767Y-120817288D01*
X109534108Y-120919203D01*
X109209178Y-121024952D01*
X108887286Y-121132777D01*
X108573741Y-121240924D01*
X108273854Y-121347636D01*
X107992932Y-121451157D01*
X107962700Y-121462545D01*
X107826566Y-121513682D01*
X107701132Y-121560280D01*
X107588102Y-121601735D01*
X107489183Y-121637440D01*
X107406079Y-121666791D01*
X107340495Y-121689183D01*
X107294136Y-121704011D01*
X107268707Y-121710670D01*
X107264200Y-121710426D01*
X107275343Y-121701384D01*
X107307324Y-121682660D01*
X107357966Y-121655319D01*
X107425092Y-121620428D01*
X107506527Y-121579054D01*
X107600095Y-121532265D01*
X107703619Y-121481126D01*
X107814924Y-121426704D01*
X107931833Y-121370066D01*
X108052170Y-121312280D01*
X108173759Y-121254410D01*
X108294424Y-121197526D01*
X108411990Y-121142692D01*
X108524279Y-121090976D01*
X108574520Y-121068092D01*
X109105055Y-120834179D01*
X109645417Y-120609109D01*
X110191984Y-120394162D01*
X110741134Y-120190619D01*
X111289247Y-119999760D01*
X111832700Y-119822866D01*
X112367872Y-119661217D01*
X112891142Y-119516092D01*
X113160175Y-119446873D01*
X113241655Y-119426157D01*
X113314237Y-119407050D01*
X113374507Y-119390505D01*
X113419052Y-119377474D01*
X113444457Y-119368911D01*
X113449100Y-119366257D01*
X113437990Y-119358503D01*
X113408423Y-119345196D01*
X113366046Y-119328800D01*
X113350675Y-119323294D01*
X113253071Y-119285224D01*
X113147121Y-119237557D01*
X113042096Y-119184836D01*
X112947269Y-119131608D01*
X112903000Y-119103880D01*
X112755165Y-118995701D01*
X112629997Y-118879601D01*
X112525238Y-118752555D01*
X112438630Y-118611540D01*
X112367917Y-118453532D01*
X112326981Y-118332250D01*
X112300334Y-118243350D01*
X112296698Y-115014374D01*
X112293062Y-111785399D01*
X113036181Y-111785399D01*
X113779300Y-111785400D01*
X113781285Y-112531525D01*
X113781499Y-112622917D01*
X113781719Y-112737935D01*
X113781945Y-112874808D01*
X113782173Y-113031760D01*
X113782403Y-113207019D01*
X113782632Y-113398812D01*
X113782859Y-113605364D01*
X113783082Y-113824904D01*
X113783299Y-114055657D01*
X113783509Y-114295850D01*
X113783709Y-114543710D01*
X113783898Y-114797464D01*
X113784075Y-115055338D01*
X113784237Y-115315559D01*
X113784383Y-115576354D01*
X113784460Y-115728750D01*
X113784633Y-115976614D01*
X113784905Y-116217803D01*
X113785271Y-116451077D01*
X113785724Y-116675199D01*
X113786258Y-116888931D01*
X113786869Y-117091036D01*
X113787550Y-117280276D01*
X113788295Y-117455412D01*
X113789099Y-117615207D01*
X113789955Y-117758423D01*
X113790858Y-117883822D01*
X113791803Y-117990167D01*
X113792783Y-118076219D01*
X113793793Y-118140742D01*
X113794826Y-118182496D01*
X113795878Y-118200244D01*
X113796012Y-118200716D01*
X113812368Y-118216354D01*
X113845051Y-118236926D01*
X113884912Y-118256995D01*
X113979410Y-118287935D01*
X114079628Y-118300197D01*
X114179569Y-118294199D01*
X114273234Y-118270359D01*
X114354625Y-118229096D01*
X114362294Y-118223713D01*
X114416619Y-118184360D01*
X114414178Y-116346955D01*
X114413878Y-116102239D01*
X114413609Y-115844963D01*
X114413373Y-115578351D01*
X114413170Y-115305627D01*
X114413003Y-115030016D01*
X114412871Y-114754743D01*
X114412777Y-114483031D01*
X114412721Y-114218105D01*
X114412704Y-113963191D01*
X114412728Y-113721512D01*
X114412795Y-113496292D01*
X114412904Y-113290756D01*
X114413018Y-113147475D01*
X114414300Y-111785400D01*
X115913406Y-111785400D01*
X115909345Y-115135025D01*
X115908941Y-115483265D01*
X115908590Y-115807045D01*
X115908269Y-116107304D01*
X115907957Y-116384982D01*
X115907632Y-116641018D01*
X115907271Y-116876353D01*
X115906853Y-117091924D01*
X115906355Y-117288673D01*
X115905756Y-117467539D01*
X115905034Y-117629461D01*
X115904167Y-117775378D01*
X115903133Y-117906231D01*
X115901909Y-118022959D01*
X115900474Y-118126501D01*
X115898806Y-118217798D01*
X115896882Y-118297787D01*
X115894682Y-118367411D01*
X115892182Y-118427607D01*
X115889361Y-118479315D01*
X115886198Y-118523475D01*
X115882669Y-118561026D01*
X115878753Y-118592909D01*
X115874428Y-118620062D01*
X115869672Y-118643426D01*
X115864463Y-118663939D01*
X115858779Y-118682541D01*
X115852598Y-118700172D01*
X115845899Y-118717772D01*
X115838658Y-118736279D01*
X115830854Y-118756635D01*
X115824194Y-118774874D01*
X115807568Y-118824282D01*
X115795871Y-118864190D01*
X115790657Y-118888986D01*
X115791110Y-118894143D01*
X115804928Y-118894141D01*
X115840736Y-118890839D01*
X115895394Y-118884618D01*
X115965760Y-118875861D01*
X116048693Y-118864949D01*
X116141051Y-118852265D01*
X116176102Y-118847324D01*
X116276352Y-118833297D01*
X116373022Y-118820145D01*
X116461964Y-118808402D01*
X116539033Y-118798606D01*
X116600082Y-118791291D01*
X116640966Y-118786994D01*
X116646325Y-118786546D01*
X116690962Y-118782126D01*
X116723653Y-118777035D01*
X116738105Y-118772287D01*
X116738316Y-118771741D01*
X116731756Y-118757129D01*
X116715727Y-118731123D01*
X116712244Y-118725950D01*
X116669639Y-118654869D01*
X116627932Y-118570352D01*
X116592470Y-118483969D01*
X116573273Y-118425226D01*
X116563640Y-118387058D01*
X116555270Y-118344843D01*
X116548081Y-118296657D01*
X116541989Y-118240580D01*
X116536911Y-118174688D01*
X116532765Y-118097058D01*
X116529467Y-118005767D01*
X116526934Y-117898894D01*
X116525084Y-117774516D01*
X116523833Y-117630709D01*
X116523099Y-117465551D01*
X116522798Y-117277121D01*
X116522788Y-117255925D01*
X116522500Y-116484400D01*
X117957600Y-116484400D01*
X117957600Y-117297607D01*
X117957690Y-117467759D01*
X117957985Y-117614246D01*
X117958521Y-117738803D01*
X117959331Y-117843163D01*
X117960451Y-117929062D01*
X117961917Y-117998234D01*
X117963763Y-118052413D01*
X117966024Y-118093334D01*
X117968737Y-118122731D01*
X117971935Y-118142339D01*
X117974923Y-118152275D01*
X118011964Y-118208629D01*
X118069859Y-118252124D01*
X118147196Y-118282129D01*
X118242565Y-118298010D01*
X118305146Y-118300500D01*
X118408305Y-118293466D01*
X118496378Y-118273009D01*
X118567181Y-118240092D01*
X118618524Y-118195681D01*
X118644812Y-118150735D01*
X118647044Y-118132422D01*
X118649117Y-118091289D01*
X118650986Y-118029917D01*
X118652609Y-117950886D01*
X118653943Y-117856778D01*
X118654945Y-117750171D01*
X118655570Y-117633647D01*
X118655776Y-117509786D01*
X118655772Y-117496398D01*
X118655670Y-117354201D01*
X118655462Y-117235027D01*
X118655052Y-117136497D01*
X118654344Y-117056233D01*
X118653240Y-116991859D01*
X118651644Y-116940996D01*
X118649460Y-116901266D01*
X118646592Y-116870291D01*
X118642943Y-116845694D01*
X118638416Y-116825097D01*
X118632915Y-116806123D01*
X118627051Y-116788465D01*
X118606633Y-116735027D01*
X118581404Y-116682046D01*
X118550039Y-116628117D01*
X118511212Y-116571839D01*
X118463598Y-116511807D01*
X118405871Y-116446617D01*
X118336706Y-116374868D01*
X118254776Y-116295155D01*
X118158756Y-116206075D01*
X118047321Y-116106224D01*
X117919145Y-115994200D01*
X117772902Y-115868598D01*
X117697674Y-115804582D01*
X117528614Y-115659248D01*
X117378965Y-115526502D01*
X117247153Y-115404616D01*
X117131608Y-115291863D01*
X117030755Y-115186518D01*
X116943023Y-115086852D01*
X116866840Y-114991140D01*
X116800633Y-114897653D01*
X116742830Y-114804666D01*
X116691859Y-114710452D01*
X116680411Y-114687350D01*
X116644926Y-114612855D01*
X116616184Y-114547238D01*
X116593355Y-114486359D01*
X116575610Y-114426083D01*
X116562121Y-114362271D01*
X116552059Y-114290786D01*
X116544594Y-114207489D01*
X116538899Y-114108245D01*
X116534143Y-113988914D01*
X116532848Y-113950750D01*
X116529877Y-113839667D01*
X116527601Y-113710595D01*
X116526076Y-113570935D01*
X116525359Y-113428088D01*
X116525506Y-113289457D01*
X116526574Y-113162444D01*
X116526734Y-113150650D01*
X116528968Y-113015723D01*
X116531866Y-112902865D01*
X116535933Y-112808742D01*
X116541676Y-112730023D01*
X116549602Y-112663376D01*
X116560218Y-112605470D01*
X116574031Y-112552972D01*
X116591546Y-112502551D01*
X116613271Y-112450874D01*
X116639712Y-112394611D01*
X116642613Y-112388650D01*
X116712464Y-112266666D01*
X116796690Y-112159350D01*
X116897250Y-112065165D01*
X117016101Y-111982575D01*
X117155197Y-111910042D01*
X117316497Y-111846030D01*
X117346459Y-111835820D01*
X117481430Y-111795739D01*
X117622809Y-111763849D01*
X117773814Y-111739796D01*
X117937661Y-111723224D01*
X118117566Y-111713781D01*
X118316746Y-111711110D01*
X118461861Y-111712918D01*
D12*
G04 #@! TO.C,REF\002A\002A*
X165354000Y-35560000D02*
G75*
G03X165354000Y-35560000I-2286000J0D01*
G01*
G04 #@! TO.C,J10*
D16*
X132159476Y-108926380D02*
X132159476Y-109640666D01*
X132111857Y-109783523D01*
X132016619Y-109878761D01*
X131873761Y-109926380D01*
X131778523Y-109926380D01*
X133159476Y-109926380D02*
X132588047Y-109926380D01*
X132873761Y-109926380D02*
X132873761Y-108926380D01*
X132778523Y-109069238D01*
X132683285Y-109164476D01*
X132588047Y-109212095D01*
X133778523Y-108926380D02*
X133873761Y-108926380D01*
X133969000Y-108974000D01*
X134016619Y-109021619D01*
X134064238Y-109116857D01*
X134111857Y-109307333D01*
X134111857Y-109545428D01*
X134064238Y-109735904D01*
X134016619Y-109831142D01*
X133969000Y-109878761D01*
X133873761Y-109926380D01*
X133778523Y-109926380D01*
X133683285Y-109878761D01*
X133635666Y-109831142D01*
X133588047Y-109735904D01*
X133540428Y-109545428D01*
X133540428Y-109307333D01*
X133588047Y-109116857D01*
X133635666Y-109021619D01*
X133683285Y-108974000D01*
X133778523Y-108926380D01*
G04 #@! TO.C,C1*
X99543142Y-45632666D02*
X99590761Y-45680285D01*
X99638380Y-45823142D01*
X99638380Y-45918380D01*
X99590761Y-46061238D01*
X99495523Y-46156476D01*
X99400285Y-46204095D01*
X99209809Y-46251714D01*
X99066952Y-46251714D01*
X98876476Y-46204095D01*
X98781238Y-46156476D01*
X98686000Y-46061238D01*
X98638380Y-45918380D01*
X98638380Y-45823142D01*
X98686000Y-45680285D01*
X98733619Y-45632666D01*
X99638380Y-44680285D02*
X99638380Y-45251714D01*
X99638380Y-44966000D02*
X98638380Y-44966000D01*
X98781238Y-45061238D01*
X98876476Y-45156476D01*
X98924095Y-45251714D01*
G04 #@! TO.C,C3*
X52300142Y-45124666D02*
X52347761Y-45172285D01*
X52395380Y-45315142D01*
X52395380Y-45410380D01*
X52347761Y-45553238D01*
X52252523Y-45648476D01*
X52157285Y-45696095D01*
X51966809Y-45743714D01*
X51823952Y-45743714D01*
X51633476Y-45696095D01*
X51538238Y-45648476D01*
X51443000Y-45553238D01*
X51395380Y-45410380D01*
X51395380Y-45315142D01*
X51443000Y-45172285D01*
X51490619Y-45124666D01*
X51395380Y-44791333D02*
X51395380Y-44172285D01*
X51776333Y-44505619D01*
X51776333Y-44362761D01*
X51823952Y-44267523D01*
X51871571Y-44219904D01*
X51966809Y-44172285D01*
X52204904Y-44172285D01*
X52300142Y-44219904D01*
X52347761Y-44267523D01*
X52395380Y-44362761D01*
X52395380Y-44648476D01*
X52347761Y-44743714D01*
X52300142Y-44791333D01*
G04 #@! TO.C,D1*
X37996904Y-45664380D02*
X37996904Y-44664380D01*
X38235000Y-44664380D01*
X38377857Y-44712000D01*
X38473095Y-44807238D01*
X38520714Y-44902476D01*
X38568333Y-45092952D01*
X38568333Y-45235809D01*
X38520714Y-45426285D01*
X38473095Y-45521523D01*
X38377857Y-45616761D01*
X38235000Y-45664380D01*
X37996904Y-45664380D01*
X39520714Y-45664380D02*
X38949285Y-45664380D01*
X39235000Y-45664380D02*
X39235000Y-44664380D01*
X39139761Y-44807238D01*
X39044523Y-44902476D01*
X38949285Y-44950095D01*
G04 #@! TO.C,D2*
X119615963Y-72461193D02*
X119615963Y-71461193D01*
X119854059Y-71461193D01*
X119996916Y-71508813D01*
X120092154Y-71604051D01*
X120139773Y-71699289D01*
X120187392Y-71889765D01*
X120187392Y-72032622D01*
X120139773Y-72223098D01*
X120092154Y-72318336D01*
X119996916Y-72413574D01*
X119854059Y-72461193D01*
X119615963Y-72461193D01*
X120568344Y-71556432D02*
X120615963Y-71508813D01*
X120711201Y-71461193D01*
X120949297Y-71461193D01*
X121044535Y-71508813D01*
X121092154Y-71556432D01*
X121139773Y-71651670D01*
X121139773Y-71746908D01*
X121092154Y-71889765D01*
X120520725Y-72461193D01*
X121139773Y-72461193D01*
G04 #@! TO.C,J1*
X28749666Y-121626380D02*
X28749666Y-122340666D01*
X28702047Y-122483523D01*
X28606809Y-122578761D01*
X28463952Y-122626380D01*
X28368714Y-122626380D01*
X29749666Y-122626380D02*
X29178238Y-122626380D01*
X29463952Y-122626380D02*
X29463952Y-121626380D01*
X29368714Y-121769238D01*
X29273476Y-121864476D01*
X29178238Y-121912095D01*
G04 #@! TO.C,J4*
X27519380Y-71580333D02*
X28233666Y-71580333D01*
X28376523Y-71627952D01*
X28471761Y-71723190D01*
X28519380Y-71866047D01*
X28519380Y-71961285D01*
X27852714Y-70675571D02*
X28519380Y-70675571D01*
X27471761Y-70913666D02*
X28186047Y-71151761D01*
X28186047Y-70532714D01*
G04 #@! TO.C,J9*
X143934380Y-51133333D02*
X144648666Y-51133333D01*
X144791523Y-51180952D01*
X144886761Y-51276190D01*
X144934380Y-51419047D01*
X144934380Y-51514285D01*
X144934380Y-50609523D02*
X144934380Y-50419047D01*
X144886761Y-50323809D01*
X144839142Y-50276190D01*
X144696285Y-50180952D01*
X144505809Y-50133333D01*
X144124857Y-50133333D01*
X144029619Y-50180952D01*
X143982000Y-50228571D01*
X143934380Y-50323809D01*
X143934380Y-50514285D01*
X143982000Y-50609523D01*
X144029619Y-50657142D01*
X144124857Y-50704761D01*
X144362952Y-50704761D01*
X144458190Y-50657142D01*
X144505809Y-50609523D01*
X144553428Y-50514285D01*
X144553428Y-50323809D01*
X144505809Y-50228571D01*
X144458190Y-50180952D01*
X144362952Y-50133333D01*
G04 #@! TO.C,J11*
X168914380Y-71929523D02*
X169628666Y-71929523D01*
X169771523Y-71977142D01*
X169866761Y-72072380D01*
X169914380Y-72215238D01*
X169914380Y-72310476D01*
X169914380Y-70929523D02*
X169914380Y-71500952D01*
X169914380Y-71215238D02*
X168914380Y-71215238D01*
X169057238Y-71310476D01*
X169152476Y-71405714D01*
X169200095Y-71500952D01*
X169914380Y-69977142D02*
X169914380Y-70548571D01*
X169914380Y-70262857D02*
X168914380Y-70262857D01*
X169057238Y-70358095D01*
X169152476Y-70453333D01*
X169200095Y-70548571D01*
G04 #@! TO.C,J13*
X168986380Y-86661523D02*
X169700666Y-86661523D01*
X169843523Y-86709142D01*
X169938761Y-86804380D01*
X169986380Y-86947238D01*
X169986380Y-87042476D01*
X169986380Y-85661523D02*
X169986380Y-86232952D01*
X169986380Y-85947238D02*
X168986380Y-85947238D01*
X169129238Y-86042476D01*
X169224476Y-86137714D01*
X169272095Y-86232952D01*
X168986380Y-85328190D02*
X168986380Y-84709142D01*
X169367333Y-85042476D01*
X169367333Y-84899619D01*
X169414952Y-84804380D01*
X169462571Y-84756761D01*
X169557809Y-84709142D01*
X169795904Y-84709142D01*
X169891142Y-84756761D01*
X169938761Y-84804380D01*
X169986380Y-84899619D01*
X169986380Y-85185333D01*
X169938761Y-85280571D01*
X169891142Y-85328190D01*
G04 #@! TO.C,R2*
X116376439Y-78675479D02*
X115900249Y-79008813D01*
X116376439Y-79246908D02*
X115376439Y-79246908D01*
X115376439Y-78865955D01*
X115424059Y-78770717D01*
X115471678Y-78723098D01*
X115566916Y-78675479D01*
X115709773Y-78675479D01*
X115805011Y-78723098D01*
X115852630Y-78770717D01*
X115900249Y-78865955D01*
X115900249Y-79246908D01*
X115471678Y-78294527D02*
X115424059Y-78246908D01*
X115376439Y-78151670D01*
X115376439Y-77913574D01*
X115424059Y-77818336D01*
X115471678Y-77770717D01*
X115566916Y-77723098D01*
X115662154Y-77723098D01*
X115805011Y-77770717D01*
X116376439Y-78342146D01*
X116376439Y-77723098D01*
G04 #@! TO.C,U1*
X75470380Y-45079904D02*
X76279904Y-45079904D01*
X76375142Y-45032285D01*
X76422761Y-44984666D01*
X76470380Y-44889428D01*
X76470380Y-44698952D01*
X76422761Y-44603714D01*
X76375142Y-44556095D01*
X76279904Y-44508476D01*
X75470380Y-44508476D01*
X76470380Y-43508476D02*
X76470380Y-44079904D01*
X76470380Y-43794190D02*
X75470380Y-43794190D01*
X75613238Y-43889428D01*
X75708476Y-43984666D01*
X75756095Y-44079904D01*
G04 #@! TO.C,U2*
D17*
X70686599Y-98861030D02*
X70686599Y-101173779D01*
X70822643Y-101445867D01*
X70958687Y-101581911D01*
X71230775Y-101717955D01*
X71774951Y-101717955D01*
X72047039Y-101581911D01*
X72183083Y-101445867D01*
X72319127Y-101173779D01*
X72319127Y-98861030D01*
X73543524Y-99133119D02*
X73679568Y-98997075D01*
X73951656Y-98861030D01*
X74631876Y-98861030D01*
X74903964Y-98997075D01*
X75040008Y-99133119D01*
X75176052Y-99405207D01*
X75176052Y-99677295D01*
X75040008Y-100085427D01*
X73407480Y-101717955D01*
X75176052Y-101717955D01*
G04 #@! TO.C,U4*
D16*
X114324095Y-90024380D02*
X114324095Y-90833904D01*
X114371714Y-90929142D01*
X114419333Y-90976761D01*
X114514571Y-91024380D01*
X114705047Y-91024380D01*
X114800285Y-90976761D01*
X114847904Y-90929142D01*
X114895523Y-90833904D01*
X114895523Y-90024380D01*
X115800285Y-90357714D02*
X115800285Y-91024380D01*
X115562190Y-89976761D02*
X115324095Y-90691047D01*
X115943142Y-90691047D01*
G04 #@! TO.C,Y1*
X124769764Y-101711730D02*
X125245954Y-101711730D01*
X124245954Y-102045063D02*
X124769764Y-101711730D01*
X124245954Y-101378397D01*
X125245954Y-100521254D02*
X125245954Y-101092682D01*
X125245954Y-100806968D02*
X124245954Y-100806968D01*
X124388812Y-100902206D01*
X124484050Y-100997444D01*
X124531669Y-101092682D01*
G04 #@! TO.C,BT1*
X27995571Y-47267714D02*
X28043190Y-47124857D01*
X28090809Y-47077238D01*
X28186047Y-47029619D01*
X28328904Y-47029619D01*
X28424142Y-47077238D01*
X28471761Y-47124857D01*
X28519380Y-47220095D01*
X28519380Y-47601047D01*
X27519380Y-47601047D01*
X27519380Y-47267714D01*
X27567000Y-47172476D01*
X27614619Y-47124857D01*
X27709857Y-47077238D01*
X27805095Y-47077238D01*
X27900333Y-47124857D01*
X27947952Y-47172476D01*
X27995571Y-47267714D01*
X27995571Y-47601047D01*
X27519380Y-46743904D02*
X27519380Y-46172476D01*
X28519380Y-46458190D02*
X27519380Y-46458190D01*
X28519380Y-45315333D02*
X28519380Y-45886761D01*
X28519380Y-45601047D02*
X27519380Y-45601047D01*
X27662238Y-45696285D01*
X27757476Y-45791523D01*
X27805095Y-45886761D01*
G04 #@! TO.C,C5*
X76177142Y-56291666D02*
X76224761Y-56339285D01*
X76272380Y-56482142D01*
X76272380Y-56577380D01*
X76224761Y-56720238D01*
X76129523Y-56815476D01*
X76034285Y-56863095D01*
X75843809Y-56910714D01*
X75700952Y-56910714D01*
X75510476Y-56863095D01*
X75415238Y-56815476D01*
X75320000Y-56720238D01*
X75272380Y-56577380D01*
X75272380Y-56482142D01*
X75320000Y-56339285D01*
X75367619Y-56291666D01*
X75272380Y-55386904D02*
X75272380Y-55863095D01*
X75748571Y-55910714D01*
X75700952Y-55863095D01*
X75653333Y-55767857D01*
X75653333Y-55529761D01*
X75700952Y-55434523D01*
X75748571Y-55386904D01*
X75843809Y-55339285D01*
X76081904Y-55339285D01*
X76177142Y-55386904D01*
X76224761Y-55434523D01*
X76272380Y-55529761D01*
X76272380Y-55767857D01*
X76224761Y-55863095D01*
X76177142Y-55910714D01*
G04 #@! TO.C,C6*
X81511142Y-56291666D02*
X81558761Y-56339285D01*
X81606380Y-56482142D01*
X81606380Y-56577380D01*
X81558761Y-56720238D01*
X81463523Y-56815476D01*
X81368285Y-56863095D01*
X81177809Y-56910714D01*
X81034952Y-56910714D01*
X80844476Y-56863095D01*
X80749238Y-56815476D01*
X80654000Y-56720238D01*
X80606380Y-56577380D01*
X80606380Y-56482142D01*
X80654000Y-56339285D01*
X80701619Y-56291666D01*
X80606380Y-55434523D02*
X80606380Y-55625000D01*
X80654000Y-55720238D01*
X80701619Y-55767857D01*
X80844476Y-55863095D01*
X81034952Y-55910714D01*
X81415904Y-55910714D01*
X81511142Y-55863095D01*
X81558761Y-55815476D01*
X81606380Y-55720238D01*
X81606380Y-55529761D01*
X81558761Y-55434523D01*
X81511142Y-55386904D01*
X81415904Y-55339285D01*
X81177809Y-55339285D01*
X81082571Y-55386904D01*
X81034952Y-55434523D01*
X80987333Y-55529761D01*
X80987333Y-55720238D01*
X81034952Y-55815476D01*
X81082571Y-55863095D01*
X81177809Y-55910714D01*
G04 #@! TO.C,J8*
X113454380Y-61801333D02*
X114168666Y-61801333D01*
X114311523Y-61848952D01*
X114406761Y-61944190D01*
X114454380Y-62087047D01*
X114454380Y-62182285D01*
X113882952Y-61182285D02*
X113835333Y-61277523D01*
X113787714Y-61325142D01*
X113692476Y-61372761D01*
X113644857Y-61372761D01*
X113549619Y-61325142D01*
X113502000Y-61277523D01*
X113454380Y-61182285D01*
X113454380Y-60991809D01*
X113502000Y-60896571D01*
X113549619Y-60848952D01*
X113644857Y-60801333D01*
X113692476Y-60801333D01*
X113787714Y-60848952D01*
X113835333Y-60896571D01*
X113882952Y-60991809D01*
X113882952Y-61182285D01*
X113930571Y-61277523D01*
X113978190Y-61325142D01*
X114073428Y-61372761D01*
X114263904Y-61372761D01*
X114359142Y-61325142D01*
X114406761Y-61277523D01*
X114454380Y-61182285D01*
X114454380Y-60991809D01*
X114406761Y-60896571D01*
X114359142Y-60848952D01*
X114263904Y-60801333D01*
X114073428Y-60801333D01*
X113978190Y-60848952D01*
X113930571Y-60896571D01*
X113882952Y-60991809D01*
G04 #@! TO.C,U3*
X79502095Y-61936380D02*
X79502095Y-62745904D01*
X79549714Y-62841142D01*
X79597333Y-62888761D01*
X79692571Y-62936380D01*
X79883047Y-62936380D01*
X79978285Y-62888761D01*
X80025904Y-62841142D01*
X80073523Y-62745904D01*
X80073523Y-61936380D01*
X80454476Y-61936380D02*
X81073523Y-61936380D01*
X80740190Y-62317333D01*
X80883047Y-62317333D01*
X80978285Y-62364952D01*
X81025904Y-62412571D01*
X81073523Y-62507809D01*
X81073523Y-62745904D01*
X81025904Y-62841142D01*
X80978285Y-62888761D01*
X80883047Y-62936380D01*
X80597333Y-62936380D01*
X80502095Y-62888761D01*
X80454476Y-62841142D01*
G04 #@! TO.C,C7*
X161265142Y-90590666D02*
X161312761Y-90638285D01*
X161360380Y-90781142D01*
X161360380Y-90876380D01*
X161312761Y-91019238D01*
X161217523Y-91114476D01*
X161122285Y-91162095D01*
X160931809Y-91209714D01*
X160788952Y-91209714D01*
X160598476Y-91162095D01*
X160503238Y-91114476D01*
X160408000Y-91019238D01*
X160360380Y-90876380D01*
X160360380Y-90781142D01*
X160408000Y-90638285D01*
X160455619Y-90590666D01*
X160360380Y-90257333D02*
X160360380Y-89590666D01*
X161360380Y-90019238D01*
G04 #@! TO.C,C8*
X58141142Y-45124666D02*
X58188761Y-45172285D01*
X58236380Y-45315142D01*
X58236380Y-45410380D01*
X58188761Y-45553238D01*
X58093523Y-45648476D01*
X57998285Y-45696095D01*
X57807809Y-45743714D01*
X57664952Y-45743714D01*
X57474476Y-45696095D01*
X57379238Y-45648476D01*
X57284000Y-45553238D01*
X57236380Y-45410380D01*
X57236380Y-45315142D01*
X57284000Y-45172285D01*
X57331619Y-45124666D01*
X57664952Y-44553238D02*
X57617333Y-44648476D01*
X57569714Y-44696095D01*
X57474476Y-44743714D01*
X57426857Y-44743714D01*
X57331619Y-44696095D01*
X57284000Y-44648476D01*
X57236380Y-44553238D01*
X57236380Y-44362761D01*
X57284000Y-44267523D01*
X57331619Y-44219904D01*
X57426857Y-44172285D01*
X57474476Y-44172285D01*
X57569714Y-44219904D01*
X57617333Y-44267523D01*
X57664952Y-44362761D01*
X57664952Y-44553238D01*
X57712571Y-44648476D01*
X57760190Y-44696095D01*
X57855428Y-44743714D01*
X58045904Y-44743714D01*
X58141142Y-44696095D01*
X58188761Y-44648476D01*
X58236380Y-44553238D01*
X58236380Y-44362761D01*
X58188761Y-44267523D01*
X58141142Y-44219904D01*
X58045904Y-44172285D01*
X57855428Y-44172285D01*
X57760190Y-44219904D01*
X57712571Y-44267523D01*
X57664952Y-44362761D01*
G04 #@! TO.C,C9*
X125199142Y-89583666D02*
X125246761Y-89631285D01*
X125294380Y-89774142D01*
X125294380Y-89869380D01*
X125246761Y-90012238D01*
X125151523Y-90107476D01*
X125056285Y-90155095D01*
X124865809Y-90202714D01*
X124722952Y-90202714D01*
X124532476Y-90155095D01*
X124437238Y-90107476D01*
X124342000Y-90012238D01*
X124294380Y-89869380D01*
X124294380Y-89774142D01*
X124342000Y-89631285D01*
X124389619Y-89583666D01*
X125294380Y-89107476D02*
X125294380Y-88917000D01*
X125246761Y-88821761D01*
X125199142Y-88774142D01*
X125056285Y-88678904D01*
X124865809Y-88631285D01*
X124484857Y-88631285D01*
X124389619Y-88678904D01*
X124342000Y-88726523D01*
X124294380Y-88821761D01*
X124294380Y-89012238D01*
X124342000Y-89107476D01*
X124389619Y-89155095D01*
X124484857Y-89202714D01*
X124722952Y-89202714D01*
X124818190Y-89155095D01*
X124865809Y-89107476D01*
X124913428Y-89012238D01*
X124913428Y-88821761D01*
X124865809Y-88726523D01*
X124818190Y-88678904D01*
X124722952Y-88631285D01*
G04 #@! TO.C,C10*
X156439142Y-47378857D02*
X156486761Y-47426476D01*
X156534380Y-47569333D01*
X156534380Y-47664571D01*
X156486761Y-47807428D01*
X156391523Y-47902666D01*
X156296285Y-47950285D01*
X156105809Y-47997904D01*
X155962952Y-47997904D01*
X155772476Y-47950285D01*
X155677238Y-47902666D01*
X155582000Y-47807428D01*
X155534380Y-47664571D01*
X155534380Y-47569333D01*
X155582000Y-47426476D01*
X155629619Y-47378857D01*
X156534380Y-46426476D02*
X156534380Y-46997904D01*
X156534380Y-46712190D02*
X155534380Y-46712190D01*
X155677238Y-46807428D01*
X155772476Y-46902666D01*
X155820095Y-46997904D01*
X155534380Y-45807428D02*
X155534380Y-45712190D01*
X155582000Y-45616952D01*
X155629619Y-45569333D01*
X155724857Y-45521714D01*
X155915333Y-45474095D01*
X156153428Y-45474095D01*
X156343904Y-45521714D01*
X156439142Y-45569333D01*
X156486761Y-45616952D01*
X156534380Y-45712190D01*
X156534380Y-45807428D01*
X156486761Y-45902666D01*
X156439142Y-45950285D01*
X156343904Y-45997904D01*
X156153428Y-46045523D01*
X155915333Y-46045523D01*
X155724857Y-45997904D01*
X155629619Y-45950285D01*
X155582000Y-45902666D01*
X155534380Y-45807428D01*
G04 #@! TO.C,C11*
X140945142Y-90050857D02*
X140992761Y-90098476D01*
X141040380Y-90241333D01*
X141040380Y-90336571D01*
X140992761Y-90479428D01*
X140897523Y-90574666D01*
X140802285Y-90622285D01*
X140611809Y-90669904D01*
X140468952Y-90669904D01*
X140278476Y-90622285D01*
X140183238Y-90574666D01*
X140088000Y-90479428D01*
X140040380Y-90336571D01*
X140040380Y-90241333D01*
X140088000Y-90098476D01*
X140135619Y-90050857D01*
X141040380Y-89098476D02*
X141040380Y-89669904D01*
X141040380Y-89384190D02*
X140040380Y-89384190D01*
X140183238Y-89479428D01*
X140278476Y-89574666D01*
X140326095Y-89669904D01*
X141040380Y-88146095D02*
X141040380Y-88717523D01*
X141040380Y-88431809D02*
X140040380Y-88431809D01*
X140183238Y-88527047D01*
X140278476Y-88622285D01*
X140326095Y-88717523D01*
G04 #@! TO.C,C2*
X115158333Y-100715740D02*
X115110714Y-100763359D01*
X114967857Y-100810978D01*
X114872619Y-100810978D01*
X114729761Y-100763359D01*
X114634523Y-100668121D01*
X114586904Y-100572883D01*
X114539285Y-100382407D01*
X114539285Y-100239550D01*
X114586904Y-100049074D01*
X114634523Y-99953836D01*
X114729761Y-99858598D01*
X114872619Y-99810978D01*
X114967857Y-99810978D01*
X115110714Y-99858598D01*
X115158333Y-99906217D01*
X115539285Y-99906217D02*
X115586904Y-99858598D01*
X115682142Y-99810978D01*
X115920238Y-99810978D01*
X116015476Y-99858598D01*
X116063095Y-99906217D01*
X116110714Y-100001455D01*
X116110714Y-100096693D01*
X116063095Y-100239550D01*
X115491666Y-100810978D01*
X116110714Y-100810978D01*
G04 #@! TO.C,C4*
X115412333Y-105825740D02*
X115364714Y-105873359D01*
X115221857Y-105920978D01*
X115126619Y-105920978D01*
X114983761Y-105873359D01*
X114888523Y-105778121D01*
X114840904Y-105682883D01*
X114793285Y-105492407D01*
X114793285Y-105349550D01*
X114840904Y-105159074D01*
X114888523Y-105063836D01*
X114983761Y-104968598D01*
X115126619Y-104920978D01*
X115221857Y-104920978D01*
X115364714Y-104968598D01*
X115412333Y-105016217D01*
X116269476Y-105254312D02*
X116269476Y-105920978D01*
X116031380Y-104873359D02*
X115793285Y-105587645D01*
X116412333Y-105587645D01*
G04 #@! TO.C,J2*
X151638380Y-119459333D02*
X152352666Y-119459333D01*
X152495523Y-119506952D01*
X152590761Y-119602190D01*
X152638380Y-119745047D01*
X152638380Y-119840285D01*
X151733619Y-119030761D02*
X151686000Y-118983142D01*
X151638380Y-118887904D01*
X151638380Y-118649809D01*
X151686000Y-118554571D01*
X151733619Y-118506952D01*
X151828857Y-118459333D01*
X151924095Y-118459333D01*
X152066952Y-118506952D01*
X152638380Y-119078380D01*
X152638380Y-118459333D01*
G04 #@! TO.C,J3*
X151638380Y-106505333D02*
X152352666Y-106505333D01*
X152495523Y-106552952D01*
X152590761Y-106648190D01*
X152638380Y-106791047D01*
X152638380Y-106886285D01*
X151638380Y-106124380D02*
X151638380Y-105505333D01*
X152019333Y-105838666D01*
X152019333Y-105695809D01*
X152066952Y-105600571D01*
X152114571Y-105552952D01*
X152209809Y-105505333D01*
X152447904Y-105505333D01*
X152543142Y-105552952D01*
X152590761Y-105600571D01*
X152638380Y-105695809D01*
X152638380Y-105981523D01*
X152590761Y-106076761D01*
X152543142Y-106124380D01*
G04 #@! TO.C,J5*
X138096666Y-48434380D02*
X138096666Y-49148666D01*
X138049047Y-49291523D01*
X137953809Y-49386761D01*
X137810952Y-49434380D01*
X137715714Y-49434380D01*
X139049047Y-48434380D02*
X138572857Y-48434380D01*
X138525238Y-48910571D01*
X138572857Y-48862952D01*
X138668095Y-48815333D01*
X138906190Y-48815333D01*
X139001428Y-48862952D01*
X139049047Y-48910571D01*
X139096666Y-49005809D01*
X139096666Y-49243904D01*
X139049047Y-49339142D01*
X139001428Y-49386761D01*
X138906190Y-49434380D01*
X138668095Y-49434380D01*
X138572857Y-49386761D01*
X138525238Y-49339142D01*
G04 #@! TO.C,J6*
X127174666Y-48434380D02*
X127174666Y-49148666D01*
X127127047Y-49291523D01*
X127031809Y-49386761D01*
X126888952Y-49434380D01*
X126793714Y-49434380D01*
X128079428Y-48434380D02*
X127888952Y-48434380D01*
X127793714Y-48482000D01*
X127746095Y-48529619D01*
X127650857Y-48672476D01*
X127603238Y-48862952D01*
X127603238Y-49243904D01*
X127650857Y-49339142D01*
X127698476Y-49386761D01*
X127793714Y-49434380D01*
X127984190Y-49434380D01*
X128079428Y-49386761D01*
X128127047Y-49339142D01*
X128174666Y-49243904D01*
X128174666Y-49005809D01*
X128127047Y-48910571D01*
X128079428Y-48862952D01*
X127984190Y-48815333D01*
X127793714Y-48815333D01*
X127698476Y-48862952D01*
X127650857Y-48910571D01*
X127603238Y-49005809D01*
G04 #@! TO.C,J7*
X115490666Y-48434380D02*
X115490666Y-49148666D01*
X115443047Y-49291523D01*
X115347809Y-49386761D01*
X115204952Y-49434380D01*
X115109714Y-49434380D01*
X115871619Y-48434380D02*
X116538285Y-48434380D01*
X116109714Y-49434380D01*
G04 #@! TD*
M02*
