M48
;DRILL file {KiCad (5.0.0)} date 02/09/19 12:58:52
;FORMAT={3:3/ absolute / metric / suppress trailing zeros}
FMAT,2
METRIC,LZ
T1C0.400
T2C0.700
T3C0.800
T4C0.900
T5C1.000
T6C1.200
T7C1.300
T8C1.400
T9C2.400
T10C3.200
T11C3.500
%
G90
G05
M71
T1
X041656Y-047498
X041656Y-048514
X041656Y-04953
X042672Y-047498
X042672Y-048514
X042672Y-04953
X043688Y-047498
X043688Y-048514
X043688Y-04953
X05461Y-047498
X05461Y-048514
X05461Y-04953
X055626Y-047498
X055626Y-048514
X055626Y-04953
X056642Y-047498
X056642Y-048514
X056642Y-04953
X078994Y-088646
X079248Y-05207
X079248Y-053086
X079248Y-054102
X080264Y-05207
X080264Y-053086
X080264Y-054102
X08128Y-05207
X08128Y-053086
X08128Y-054102
X10033Y-043434
X10033Y-04445
X10033Y-045466
X101346Y-043434
X101346Y-04445
X101346Y-04445
X101346Y-045466
X102362Y-043434
X102362Y-04445
X102362Y-045466
X112268Y-100066
X112268Y-100838
X112268Y-101533
X11684Y-08509
X119634Y-090424
X119634Y-090932
X121428Y-08763
X122428Y-08763
X122428Y-094742
X123444Y-08763
X124206Y-094234
X12446Y-08763
X125476Y-093726
X126746Y-093472
X133858Y-085598
X134366Y-090424
X141224Y-088392
X141224Y-090424
X14351Y-102362
X15621Y-092456
X157226Y-09017
T2
X114004Y-075969
X114004Y-081049
T3
X129032Y-072898
X129032Y-075438
X129032Y-077978
X129032Y-080518
X129032Y-083058
X129032Y-085598
X129032Y-088138
X129032Y-090678
X129032Y-093218
X129032Y-095758
X129032Y-098298
X129032Y-100838
X129032Y-103378
X129032Y-105918
X136652Y-072898
X136652Y-075438
X136652Y-077978
X136652Y-080518
X136652Y-083058
X136652Y-085598
X136652Y-088138
X136652Y-090678
X136652Y-093218
X136652Y-095758
X136652Y-098298
X136652Y-100838
X136652Y-103378
X136652Y-105918
X121269Y-098796
X121269Y-103676
X093218Y-042408
X093218Y-044318
X093218Y-046228
T4
X119084Y-075969
X121624Y-075969
T5
X146812Y-0508
X149352Y-0508
X151892Y-0508
X154432Y-0508
X156972Y-0508
X159512Y-0508
X162052Y-0508
X164592Y-0508
X167132Y-0508
X146812Y-07112
X149352Y-07112
X151892Y-07112
X154432Y-07112
X156972Y-07112
X159512Y-07112
X162052Y-07112
X164592Y-07112
X167132Y-07112
X116332Y-060198
X116332Y-062738
X118872Y-060198
X118872Y-062738
X121412Y-060198
X121412Y-062738
X123952Y-060198
X123952Y-062738
X126492Y-060198
X126492Y-062738
X129032Y-060198
X129032Y-062738
X131572Y-060198
X131572Y-062738
X134112Y-060198
X134112Y-062738
X136652Y-060198
X136652Y-062738
X139192Y-060198
X139192Y-062738
X025146Y-100838
X025146Y-105918
X025146Y-110998
X025146Y-116078
X033346Y-100838
X033346Y-105918
X033346Y-110998
X033346Y-116078
T6
X077724Y-060198
X080264Y-060198
X082804Y-060198
T7
X024638Y-068072
X024638Y-073152
X024892Y-043942
X024892Y-049022
T8
X063754Y-077221
X063754Y-125471
X071374Y-125471
X078994Y-077221
X078994Y-125471
T9
X053594Y-077221
X053594Y-125471
X089154Y-077221
X089154Y-125471
T10
X026924Y-127762
X163068Y-127762
X026924Y-03556
X163068Y-03556
T11
X045974Y-077221
X045974Y-125471
X096774Y-077221
X096774Y-125471
T3
X122708Y-042382G85X122708Y-044582
G05
X128608Y-040682G85X126408Y-040682
G05
X128808Y-046482G85X126208Y-046482
G05
X13363Y-042382G85X13363Y-044582
G05
X13953Y-040682G85X13733Y-040682
G05
X13973Y-046482G85X13713Y-046482
G05
X154686Y-107472G85X154686Y-104872
G05
X158786Y-101372G85X156586Y-101372
G05
X160486Y-107272G85X160486Y-105072
G05
X111024Y-042382G85X111024Y-044582
G05
X116924Y-040682G85X114724Y-040682
G05
X117124Y-046482G85X114524Y-046482
G05
X154686Y-120426G85X154686Y-117826
G05
X158786Y-114326G85X156586Y-114326
G05
X160486Y-120226G85X160486Y-118026
G05
T0
M30
