G04 #@! TF.GenerationSoftware,KiCad,Pcbnew,(5.0.0)*
G04 #@! TF.CreationDate,2019-02-09T12:54:46-06:00*
G04 #@! TF.ProjectId,ArmPowerBoardV3,41726D506F776572426F61726456332E,rev?*
G04 #@! TF.SameCoordinates,Original*
G04 #@! TF.FileFunction,Soldermask,Top*
G04 #@! TF.FilePolarity,Negative*
%FSLAX46Y46*%
G04 Gerber Fmt 4.6, Leading zero omitted, Abs format (unit mm)*
G04 Created by KiCad (PCBNEW (5.0.0)) date 02/09/19 12:54:46*
%MOMM*%
%LPD*%
G01*
G04 APERTURE LIST*
%ADD10C,3.600000*%
%ADD11R,2.000000X2.000000*%
%ADD12O,2.000000X2.000000*%
%ADD13C,0.100000*%
%ADD14C,1.550000*%
%ADD15R,2.900000X3.900000*%
%ADD16R,2.700000X3.900000*%
%ADD17R,2.200000X2.200000*%
%ADD18C,2.200000*%
%ADD19R,3.400000X1.900000*%
%ADD20O,3.400000X1.900000*%
%ADD21R,3.000000X3.000000*%
%ADD22C,3.000000*%
%ADD23R,2.100000X2.100000*%
%ADD24O,2.100000X2.100000*%
%ADD25R,5.900000X1.400000*%
%ADD26R,3.400000X2.000000*%
%ADD27C,1.800000*%
%ADD28O,1.800000X1.800000*%
%ADD29C,1.900000*%
%ADD30R,1.900000X1.900000*%
%ADD31R,12.400000X5.900000*%
%ADD32R,5.003200X5.003200*%
%ADD33C,3.003200*%
%ADD34C,5.003200*%
%ADD35R,2.300000X1.200000*%
%ADD36R,2.100000X2.900000*%
%ADD37O,2.100000X2.900000*%
%ADD38O,4.400000X2.200000*%
%ADD39O,2.200000X4.400000*%
%ADD40R,2.200000X4.800000*%
%ADD41R,4.800000X2.200000*%
G04 APERTURE END LIST*
D10*
G04 #@! TO.C,REF\002A\002A*
X26924000Y-35560000D03*
G04 #@! TD*
G04 #@! TO.C,REF\002A\002A*
X26924000Y-127762000D03*
G04 #@! TD*
G04 #@! TO.C,REF\002A\002A*
X163068000Y-127762000D03*
G04 #@! TD*
D11*
G04 #@! TO.C,J10*
X129032000Y-72898000D03*
D12*
X136652000Y-105918000D03*
X129032000Y-75438000D03*
X136652000Y-103378000D03*
X129032000Y-77978000D03*
X136652000Y-100838000D03*
X129032000Y-80518000D03*
X136652000Y-98298000D03*
X129032000Y-83058000D03*
X136652000Y-95758000D03*
X129032000Y-85598000D03*
X136652000Y-93218000D03*
X129032000Y-88138000D03*
X136652000Y-90678000D03*
X129032000Y-90678000D03*
X136652000Y-88138000D03*
X129032000Y-93218000D03*
X136652000Y-85598000D03*
X129032000Y-95758000D03*
X136652000Y-83058000D03*
X129032000Y-98298000D03*
X136652000Y-80518000D03*
X129032000Y-100838000D03*
X136652000Y-77978000D03*
X129032000Y-103378000D03*
X136652000Y-75438000D03*
X129032000Y-105918000D03*
X136652000Y-72898000D03*
G04 #@! TD*
D13*
G04 #@! TO.C,C1*
G36*
X98132071Y-43667623D02*
X98164781Y-43672475D01*
X98196857Y-43680509D01*
X98227991Y-43691649D01*
X98257884Y-43705787D01*
X98286247Y-43722787D01*
X98312807Y-43742485D01*
X98337308Y-43764692D01*
X98359515Y-43789193D01*
X98379213Y-43815753D01*
X98396213Y-43844116D01*
X98410351Y-43874009D01*
X98421491Y-43905143D01*
X98429525Y-43937219D01*
X98434377Y-43969929D01*
X98436000Y-44002956D01*
X98436000Y-44879044D01*
X98434377Y-44912071D01*
X98429525Y-44944781D01*
X98421491Y-44976857D01*
X98410351Y-45007991D01*
X98396213Y-45037884D01*
X98379213Y-45066247D01*
X98359515Y-45092807D01*
X98337308Y-45117308D01*
X98312807Y-45139515D01*
X98286247Y-45159213D01*
X98257884Y-45176213D01*
X98227991Y-45190351D01*
X98196857Y-45201491D01*
X98164781Y-45209525D01*
X98132071Y-45214377D01*
X98099044Y-45216000D01*
X96972956Y-45216000D01*
X96939929Y-45214377D01*
X96907219Y-45209525D01*
X96875143Y-45201491D01*
X96844009Y-45190351D01*
X96814116Y-45176213D01*
X96785753Y-45159213D01*
X96759193Y-45139515D01*
X96734692Y-45117308D01*
X96712485Y-45092807D01*
X96692787Y-45066247D01*
X96675787Y-45037884D01*
X96661649Y-45007991D01*
X96650509Y-44976857D01*
X96642475Y-44944781D01*
X96637623Y-44912071D01*
X96636000Y-44879044D01*
X96636000Y-44002956D01*
X96637623Y-43969929D01*
X96642475Y-43937219D01*
X96650509Y-43905143D01*
X96661649Y-43874009D01*
X96675787Y-43844116D01*
X96692787Y-43815753D01*
X96712485Y-43789193D01*
X96734692Y-43764692D01*
X96759193Y-43742485D01*
X96785753Y-43722787D01*
X96814116Y-43705787D01*
X96844009Y-43691649D01*
X96875143Y-43680509D01*
X96907219Y-43672475D01*
X96939929Y-43667623D01*
X96972956Y-43666000D01*
X98099044Y-43666000D01*
X98132071Y-43667623D01*
X98132071Y-43667623D01*
G37*
D14*
X97536000Y-44441000D03*
D13*
G36*
X98132071Y-45717623D02*
X98164781Y-45722475D01*
X98196857Y-45730509D01*
X98227991Y-45741649D01*
X98257884Y-45755787D01*
X98286247Y-45772787D01*
X98312807Y-45792485D01*
X98337308Y-45814692D01*
X98359515Y-45839193D01*
X98379213Y-45865753D01*
X98396213Y-45894116D01*
X98410351Y-45924009D01*
X98421491Y-45955143D01*
X98429525Y-45987219D01*
X98434377Y-46019929D01*
X98436000Y-46052956D01*
X98436000Y-46929044D01*
X98434377Y-46962071D01*
X98429525Y-46994781D01*
X98421491Y-47026857D01*
X98410351Y-47057991D01*
X98396213Y-47087884D01*
X98379213Y-47116247D01*
X98359515Y-47142807D01*
X98337308Y-47167308D01*
X98312807Y-47189515D01*
X98286247Y-47209213D01*
X98257884Y-47226213D01*
X98227991Y-47240351D01*
X98196857Y-47251491D01*
X98164781Y-47259525D01*
X98132071Y-47264377D01*
X98099044Y-47266000D01*
X96972956Y-47266000D01*
X96939929Y-47264377D01*
X96907219Y-47259525D01*
X96875143Y-47251491D01*
X96844009Y-47240351D01*
X96814116Y-47226213D01*
X96785753Y-47209213D01*
X96759193Y-47189515D01*
X96734692Y-47167308D01*
X96712485Y-47142807D01*
X96692787Y-47116247D01*
X96675787Y-47087884D01*
X96661649Y-47057991D01*
X96650509Y-47026857D01*
X96642475Y-46994781D01*
X96637623Y-46962071D01*
X96636000Y-46929044D01*
X96636000Y-46052956D01*
X96637623Y-46019929D01*
X96642475Y-45987219D01*
X96650509Y-45955143D01*
X96661649Y-45924009D01*
X96675787Y-45894116D01*
X96692787Y-45865753D01*
X96712485Y-45839193D01*
X96734692Y-45814692D01*
X96759193Y-45792485D01*
X96785753Y-45772787D01*
X96814116Y-45755787D01*
X96844009Y-45741649D01*
X96875143Y-45730509D01*
X96907219Y-45722475D01*
X96939929Y-45717623D01*
X96972956Y-45716000D01*
X98099044Y-45716000D01*
X98132071Y-45717623D01*
X98132071Y-45717623D01*
G37*
D14*
X97536000Y-46491000D03*
G04 #@! TD*
D15*
G04 #@! TO.C,C3*
X48768000Y-41708000D03*
X48768000Y-48208000D03*
G04 #@! TD*
D16*
G04 #@! TO.C,D1*
X38608000Y-42512000D03*
X38608000Y-47912000D03*
G04 #@! TD*
D17*
G04 #@! TO.C,D2*
X119084059Y-75968813D03*
D18*
X121624059Y-75968813D03*
G04 #@! TD*
D19*
G04 #@! TO.C,J1*
X25146000Y-100838000D03*
X33346000Y-100838000D03*
D20*
X25146000Y-105918000D03*
X33346000Y-105918000D03*
X25146000Y-110998000D03*
X33346000Y-110998000D03*
X25146000Y-116078000D03*
X33346000Y-116078000D03*
G04 #@! TD*
D21*
G04 #@! TO.C,J4*
X24638000Y-68072000D03*
D22*
X24638000Y-73152000D03*
G04 #@! TD*
D23*
G04 #@! TO.C,J9*
X146812000Y-50800000D03*
D24*
X149352000Y-50800000D03*
X151892000Y-50800000D03*
X154432000Y-50800000D03*
X156972000Y-50800000D03*
X159512000Y-50800000D03*
X162052000Y-50800000D03*
X164592000Y-50800000D03*
X167132000Y-50800000D03*
G04 #@! TD*
G04 #@! TO.C,J11*
X146812000Y-71120000D03*
X149352000Y-71120000D03*
X151892000Y-71120000D03*
X154432000Y-71120000D03*
X156972000Y-71120000D03*
X159512000Y-71120000D03*
X162052000Y-71120000D03*
X164592000Y-71120000D03*
D23*
X167132000Y-71120000D03*
G04 #@! TD*
D25*
G04 #@! TO.C,J13*
X163584000Y-79852000D03*
X163584000Y-81852000D03*
X163584000Y-83852000D03*
X163584000Y-85852000D03*
X163584000Y-87852000D03*
X163584000Y-89852000D03*
X163584000Y-91852000D03*
D26*
X165834000Y-77452000D03*
X165834000Y-94252000D03*
G04 #@! TD*
D27*
G04 #@! TO.C,R2*
X114004059Y-75968813D03*
D28*
X114004059Y-81048813D03*
G04 #@! TD*
D29*
G04 #@! TO.C,U1*
X93218000Y-44318000D03*
X93218000Y-42408000D03*
D30*
X93218000Y-46228000D03*
D31*
X68618000Y-39318000D03*
X68618000Y-49318000D03*
G04 #@! TD*
D32*
G04 #@! TO.C,U2*
X89154000Y-77221000D03*
D33*
X78994000Y-77221000D03*
X63754000Y-77221000D03*
D34*
X53594000Y-77221000D03*
X53594000Y-125471000D03*
D33*
X63754000Y-125471000D03*
X71374000Y-125471000D03*
X78994000Y-125471000D03*
D34*
X89154000Y-125471000D03*
G04 #@! TD*
D35*
G04 #@! TO.C,U4*
X116586000Y-89022000D03*
X116586000Y-87122000D03*
X113586000Y-88072000D03*
G04 #@! TD*
D29*
G04 #@! TO.C,Y1*
X121268574Y-98795540D03*
X121268574Y-103675540D03*
G04 #@! TD*
D21*
G04 #@! TO.C,BT1*
X24892000Y-43942000D03*
D22*
X24892000Y-49022000D03*
G04 #@! TD*
D13*
G04 #@! TO.C,C5*
G36*
X78066071Y-56376623D02*
X78098781Y-56381475D01*
X78130857Y-56389509D01*
X78161991Y-56400649D01*
X78191884Y-56414787D01*
X78220247Y-56431787D01*
X78246807Y-56451485D01*
X78271308Y-56473692D01*
X78293515Y-56498193D01*
X78313213Y-56524753D01*
X78330213Y-56553116D01*
X78344351Y-56583009D01*
X78355491Y-56614143D01*
X78363525Y-56646219D01*
X78368377Y-56678929D01*
X78370000Y-56711956D01*
X78370000Y-57588044D01*
X78368377Y-57621071D01*
X78363525Y-57653781D01*
X78355491Y-57685857D01*
X78344351Y-57716991D01*
X78330213Y-57746884D01*
X78313213Y-57775247D01*
X78293515Y-57801807D01*
X78271308Y-57826308D01*
X78246807Y-57848515D01*
X78220247Y-57868213D01*
X78191884Y-57885213D01*
X78161991Y-57899351D01*
X78130857Y-57910491D01*
X78098781Y-57918525D01*
X78066071Y-57923377D01*
X78033044Y-57925000D01*
X76906956Y-57925000D01*
X76873929Y-57923377D01*
X76841219Y-57918525D01*
X76809143Y-57910491D01*
X76778009Y-57899351D01*
X76748116Y-57885213D01*
X76719753Y-57868213D01*
X76693193Y-57848515D01*
X76668692Y-57826308D01*
X76646485Y-57801807D01*
X76626787Y-57775247D01*
X76609787Y-57746884D01*
X76595649Y-57716991D01*
X76584509Y-57685857D01*
X76576475Y-57653781D01*
X76571623Y-57621071D01*
X76570000Y-57588044D01*
X76570000Y-56711956D01*
X76571623Y-56678929D01*
X76576475Y-56646219D01*
X76584509Y-56614143D01*
X76595649Y-56583009D01*
X76609787Y-56553116D01*
X76626787Y-56524753D01*
X76646485Y-56498193D01*
X76668692Y-56473692D01*
X76693193Y-56451485D01*
X76719753Y-56431787D01*
X76748116Y-56414787D01*
X76778009Y-56400649D01*
X76809143Y-56389509D01*
X76841219Y-56381475D01*
X76873929Y-56376623D01*
X76906956Y-56375000D01*
X78033044Y-56375000D01*
X78066071Y-56376623D01*
X78066071Y-56376623D01*
G37*
D14*
X77470000Y-57150000D03*
D13*
G36*
X78066071Y-54326623D02*
X78098781Y-54331475D01*
X78130857Y-54339509D01*
X78161991Y-54350649D01*
X78191884Y-54364787D01*
X78220247Y-54381787D01*
X78246807Y-54401485D01*
X78271308Y-54423692D01*
X78293515Y-54448193D01*
X78313213Y-54474753D01*
X78330213Y-54503116D01*
X78344351Y-54533009D01*
X78355491Y-54564143D01*
X78363525Y-54596219D01*
X78368377Y-54628929D01*
X78370000Y-54661956D01*
X78370000Y-55538044D01*
X78368377Y-55571071D01*
X78363525Y-55603781D01*
X78355491Y-55635857D01*
X78344351Y-55666991D01*
X78330213Y-55696884D01*
X78313213Y-55725247D01*
X78293515Y-55751807D01*
X78271308Y-55776308D01*
X78246807Y-55798515D01*
X78220247Y-55818213D01*
X78191884Y-55835213D01*
X78161991Y-55849351D01*
X78130857Y-55860491D01*
X78098781Y-55868525D01*
X78066071Y-55873377D01*
X78033044Y-55875000D01*
X76906956Y-55875000D01*
X76873929Y-55873377D01*
X76841219Y-55868525D01*
X76809143Y-55860491D01*
X76778009Y-55849351D01*
X76748116Y-55835213D01*
X76719753Y-55818213D01*
X76693193Y-55798515D01*
X76668692Y-55776308D01*
X76646485Y-55751807D01*
X76626787Y-55725247D01*
X76609787Y-55696884D01*
X76595649Y-55666991D01*
X76584509Y-55635857D01*
X76576475Y-55603781D01*
X76571623Y-55571071D01*
X76570000Y-55538044D01*
X76570000Y-54661956D01*
X76571623Y-54628929D01*
X76576475Y-54596219D01*
X76584509Y-54564143D01*
X76595649Y-54533009D01*
X76609787Y-54503116D01*
X76626787Y-54474753D01*
X76646485Y-54448193D01*
X76668692Y-54423692D01*
X76693193Y-54401485D01*
X76719753Y-54381787D01*
X76748116Y-54364787D01*
X76778009Y-54350649D01*
X76809143Y-54339509D01*
X76841219Y-54331475D01*
X76873929Y-54326623D01*
X76906956Y-54325000D01*
X78033044Y-54325000D01*
X78066071Y-54326623D01*
X78066071Y-54326623D01*
G37*
D14*
X77470000Y-55100000D03*
G04 #@! TD*
D13*
G04 #@! TO.C,C6*
G36*
X83400071Y-54326623D02*
X83432781Y-54331475D01*
X83464857Y-54339509D01*
X83495991Y-54350649D01*
X83525884Y-54364787D01*
X83554247Y-54381787D01*
X83580807Y-54401485D01*
X83605308Y-54423692D01*
X83627515Y-54448193D01*
X83647213Y-54474753D01*
X83664213Y-54503116D01*
X83678351Y-54533009D01*
X83689491Y-54564143D01*
X83697525Y-54596219D01*
X83702377Y-54628929D01*
X83704000Y-54661956D01*
X83704000Y-55538044D01*
X83702377Y-55571071D01*
X83697525Y-55603781D01*
X83689491Y-55635857D01*
X83678351Y-55666991D01*
X83664213Y-55696884D01*
X83647213Y-55725247D01*
X83627515Y-55751807D01*
X83605308Y-55776308D01*
X83580807Y-55798515D01*
X83554247Y-55818213D01*
X83525884Y-55835213D01*
X83495991Y-55849351D01*
X83464857Y-55860491D01*
X83432781Y-55868525D01*
X83400071Y-55873377D01*
X83367044Y-55875000D01*
X82240956Y-55875000D01*
X82207929Y-55873377D01*
X82175219Y-55868525D01*
X82143143Y-55860491D01*
X82112009Y-55849351D01*
X82082116Y-55835213D01*
X82053753Y-55818213D01*
X82027193Y-55798515D01*
X82002692Y-55776308D01*
X81980485Y-55751807D01*
X81960787Y-55725247D01*
X81943787Y-55696884D01*
X81929649Y-55666991D01*
X81918509Y-55635857D01*
X81910475Y-55603781D01*
X81905623Y-55571071D01*
X81904000Y-55538044D01*
X81904000Y-54661956D01*
X81905623Y-54628929D01*
X81910475Y-54596219D01*
X81918509Y-54564143D01*
X81929649Y-54533009D01*
X81943787Y-54503116D01*
X81960787Y-54474753D01*
X81980485Y-54448193D01*
X82002692Y-54423692D01*
X82027193Y-54401485D01*
X82053753Y-54381787D01*
X82082116Y-54364787D01*
X82112009Y-54350649D01*
X82143143Y-54339509D01*
X82175219Y-54331475D01*
X82207929Y-54326623D01*
X82240956Y-54325000D01*
X83367044Y-54325000D01*
X83400071Y-54326623D01*
X83400071Y-54326623D01*
G37*
D14*
X82804000Y-55100000D03*
D13*
G36*
X83400071Y-56376623D02*
X83432781Y-56381475D01*
X83464857Y-56389509D01*
X83495991Y-56400649D01*
X83525884Y-56414787D01*
X83554247Y-56431787D01*
X83580807Y-56451485D01*
X83605308Y-56473692D01*
X83627515Y-56498193D01*
X83647213Y-56524753D01*
X83664213Y-56553116D01*
X83678351Y-56583009D01*
X83689491Y-56614143D01*
X83697525Y-56646219D01*
X83702377Y-56678929D01*
X83704000Y-56711956D01*
X83704000Y-57588044D01*
X83702377Y-57621071D01*
X83697525Y-57653781D01*
X83689491Y-57685857D01*
X83678351Y-57716991D01*
X83664213Y-57746884D01*
X83647213Y-57775247D01*
X83627515Y-57801807D01*
X83605308Y-57826308D01*
X83580807Y-57848515D01*
X83554247Y-57868213D01*
X83525884Y-57885213D01*
X83495991Y-57899351D01*
X83464857Y-57910491D01*
X83432781Y-57918525D01*
X83400071Y-57923377D01*
X83367044Y-57925000D01*
X82240956Y-57925000D01*
X82207929Y-57923377D01*
X82175219Y-57918525D01*
X82143143Y-57910491D01*
X82112009Y-57899351D01*
X82082116Y-57885213D01*
X82053753Y-57868213D01*
X82027193Y-57848515D01*
X82002692Y-57826308D01*
X81980485Y-57801807D01*
X81960787Y-57775247D01*
X81943787Y-57746884D01*
X81929649Y-57716991D01*
X81918509Y-57685857D01*
X81910475Y-57653781D01*
X81905623Y-57621071D01*
X81904000Y-57588044D01*
X81904000Y-56711956D01*
X81905623Y-56678929D01*
X81910475Y-56646219D01*
X81918509Y-56614143D01*
X81929649Y-56583009D01*
X81943787Y-56553116D01*
X81960787Y-56524753D01*
X81980485Y-56498193D01*
X82002692Y-56473692D01*
X82027193Y-56451485D01*
X82053753Y-56431787D01*
X82082116Y-56414787D01*
X82112009Y-56400649D01*
X82143143Y-56389509D01*
X82175219Y-56381475D01*
X82207929Y-56376623D01*
X82240956Y-56375000D01*
X83367044Y-56375000D01*
X83400071Y-56376623D01*
X83400071Y-56376623D01*
G37*
D14*
X82804000Y-57150000D03*
G04 #@! TD*
D23*
G04 #@! TO.C,J8*
X116332000Y-62738000D03*
D24*
X116332000Y-60198000D03*
X118872000Y-62738000D03*
X118872000Y-60198000D03*
X121412000Y-62738000D03*
X121412000Y-60198000D03*
X123952000Y-62738000D03*
X123952000Y-60198000D03*
X126492000Y-62738000D03*
X126492000Y-60198000D03*
X129032000Y-62738000D03*
X129032000Y-60198000D03*
X131572000Y-62738000D03*
X131572000Y-60198000D03*
X134112000Y-62738000D03*
X134112000Y-60198000D03*
X136652000Y-62738000D03*
X136652000Y-60198000D03*
X139192000Y-62738000D03*
X139192000Y-60198000D03*
G04 #@! TD*
D36*
G04 #@! TO.C,U3*
X77724000Y-60198000D03*
D37*
X80264000Y-60198000D03*
X82804000Y-60198000D03*
G04 #@! TD*
D13*
G04 #@! TO.C,C7*
G36*
X159854071Y-88625623D02*
X159886781Y-88630475D01*
X159918857Y-88638509D01*
X159949991Y-88649649D01*
X159979884Y-88663787D01*
X160008247Y-88680787D01*
X160034807Y-88700485D01*
X160059308Y-88722692D01*
X160081515Y-88747193D01*
X160101213Y-88773753D01*
X160118213Y-88802116D01*
X160132351Y-88832009D01*
X160143491Y-88863143D01*
X160151525Y-88895219D01*
X160156377Y-88927929D01*
X160158000Y-88960956D01*
X160158000Y-89837044D01*
X160156377Y-89870071D01*
X160151525Y-89902781D01*
X160143491Y-89934857D01*
X160132351Y-89965991D01*
X160118213Y-89995884D01*
X160101213Y-90024247D01*
X160081515Y-90050807D01*
X160059308Y-90075308D01*
X160034807Y-90097515D01*
X160008247Y-90117213D01*
X159979884Y-90134213D01*
X159949991Y-90148351D01*
X159918857Y-90159491D01*
X159886781Y-90167525D01*
X159854071Y-90172377D01*
X159821044Y-90174000D01*
X158694956Y-90174000D01*
X158661929Y-90172377D01*
X158629219Y-90167525D01*
X158597143Y-90159491D01*
X158566009Y-90148351D01*
X158536116Y-90134213D01*
X158507753Y-90117213D01*
X158481193Y-90097515D01*
X158456692Y-90075308D01*
X158434485Y-90050807D01*
X158414787Y-90024247D01*
X158397787Y-89995884D01*
X158383649Y-89965991D01*
X158372509Y-89934857D01*
X158364475Y-89902781D01*
X158359623Y-89870071D01*
X158358000Y-89837044D01*
X158358000Y-88960956D01*
X158359623Y-88927929D01*
X158364475Y-88895219D01*
X158372509Y-88863143D01*
X158383649Y-88832009D01*
X158397787Y-88802116D01*
X158414787Y-88773753D01*
X158434485Y-88747193D01*
X158456692Y-88722692D01*
X158481193Y-88700485D01*
X158507753Y-88680787D01*
X158536116Y-88663787D01*
X158566009Y-88649649D01*
X158597143Y-88638509D01*
X158629219Y-88630475D01*
X158661929Y-88625623D01*
X158694956Y-88624000D01*
X159821044Y-88624000D01*
X159854071Y-88625623D01*
X159854071Y-88625623D01*
G37*
D14*
X159258000Y-89399000D03*
D13*
G36*
X159854071Y-90675623D02*
X159886781Y-90680475D01*
X159918857Y-90688509D01*
X159949991Y-90699649D01*
X159979884Y-90713787D01*
X160008247Y-90730787D01*
X160034807Y-90750485D01*
X160059308Y-90772692D01*
X160081515Y-90797193D01*
X160101213Y-90823753D01*
X160118213Y-90852116D01*
X160132351Y-90882009D01*
X160143491Y-90913143D01*
X160151525Y-90945219D01*
X160156377Y-90977929D01*
X160158000Y-91010956D01*
X160158000Y-91887044D01*
X160156377Y-91920071D01*
X160151525Y-91952781D01*
X160143491Y-91984857D01*
X160132351Y-92015991D01*
X160118213Y-92045884D01*
X160101213Y-92074247D01*
X160081515Y-92100807D01*
X160059308Y-92125308D01*
X160034807Y-92147515D01*
X160008247Y-92167213D01*
X159979884Y-92184213D01*
X159949991Y-92198351D01*
X159918857Y-92209491D01*
X159886781Y-92217525D01*
X159854071Y-92222377D01*
X159821044Y-92224000D01*
X158694956Y-92224000D01*
X158661929Y-92222377D01*
X158629219Y-92217525D01*
X158597143Y-92209491D01*
X158566009Y-92198351D01*
X158536116Y-92184213D01*
X158507753Y-92167213D01*
X158481193Y-92147515D01*
X158456692Y-92125308D01*
X158434485Y-92100807D01*
X158414787Y-92074247D01*
X158397787Y-92045884D01*
X158383649Y-92015991D01*
X158372509Y-91984857D01*
X158364475Y-91952781D01*
X158359623Y-91920071D01*
X158358000Y-91887044D01*
X158358000Y-91010956D01*
X158359623Y-90977929D01*
X158364475Y-90945219D01*
X158372509Y-90913143D01*
X158383649Y-90882009D01*
X158397787Y-90852116D01*
X158414787Y-90823753D01*
X158434485Y-90797193D01*
X158456692Y-90772692D01*
X158481193Y-90750485D01*
X158507753Y-90730787D01*
X158536116Y-90713787D01*
X158566009Y-90699649D01*
X158597143Y-90688509D01*
X158629219Y-90680475D01*
X158661929Y-90675623D01*
X158694956Y-90674000D01*
X159821044Y-90674000D01*
X159854071Y-90675623D01*
X159854071Y-90675623D01*
G37*
D14*
X159258000Y-91449000D03*
G04 #@! TD*
D13*
G04 #@! TO.C,C8*
G36*
X56730071Y-45209623D02*
X56762781Y-45214475D01*
X56794857Y-45222509D01*
X56825991Y-45233649D01*
X56855884Y-45247787D01*
X56884247Y-45264787D01*
X56910807Y-45284485D01*
X56935308Y-45306692D01*
X56957515Y-45331193D01*
X56977213Y-45357753D01*
X56994213Y-45386116D01*
X57008351Y-45416009D01*
X57019491Y-45447143D01*
X57027525Y-45479219D01*
X57032377Y-45511929D01*
X57034000Y-45544956D01*
X57034000Y-46421044D01*
X57032377Y-46454071D01*
X57027525Y-46486781D01*
X57019491Y-46518857D01*
X57008351Y-46549991D01*
X56994213Y-46579884D01*
X56977213Y-46608247D01*
X56957515Y-46634807D01*
X56935308Y-46659308D01*
X56910807Y-46681515D01*
X56884247Y-46701213D01*
X56855884Y-46718213D01*
X56825991Y-46732351D01*
X56794857Y-46743491D01*
X56762781Y-46751525D01*
X56730071Y-46756377D01*
X56697044Y-46758000D01*
X55570956Y-46758000D01*
X55537929Y-46756377D01*
X55505219Y-46751525D01*
X55473143Y-46743491D01*
X55442009Y-46732351D01*
X55412116Y-46718213D01*
X55383753Y-46701213D01*
X55357193Y-46681515D01*
X55332692Y-46659308D01*
X55310485Y-46634807D01*
X55290787Y-46608247D01*
X55273787Y-46579884D01*
X55259649Y-46549991D01*
X55248509Y-46518857D01*
X55240475Y-46486781D01*
X55235623Y-46454071D01*
X55234000Y-46421044D01*
X55234000Y-45544956D01*
X55235623Y-45511929D01*
X55240475Y-45479219D01*
X55248509Y-45447143D01*
X55259649Y-45416009D01*
X55273787Y-45386116D01*
X55290787Y-45357753D01*
X55310485Y-45331193D01*
X55332692Y-45306692D01*
X55357193Y-45284485D01*
X55383753Y-45264787D01*
X55412116Y-45247787D01*
X55442009Y-45233649D01*
X55473143Y-45222509D01*
X55505219Y-45214475D01*
X55537929Y-45209623D01*
X55570956Y-45208000D01*
X56697044Y-45208000D01*
X56730071Y-45209623D01*
X56730071Y-45209623D01*
G37*
D14*
X56134000Y-45983000D03*
D13*
G36*
X56730071Y-43159623D02*
X56762781Y-43164475D01*
X56794857Y-43172509D01*
X56825991Y-43183649D01*
X56855884Y-43197787D01*
X56884247Y-43214787D01*
X56910807Y-43234485D01*
X56935308Y-43256692D01*
X56957515Y-43281193D01*
X56977213Y-43307753D01*
X56994213Y-43336116D01*
X57008351Y-43366009D01*
X57019491Y-43397143D01*
X57027525Y-43429219D01*
X57032377Y-43461929D01*
X57034000Y-43494956D01*
X57034000Y-44371044D01*
X57032377Y-44404071D01*
X57027525Y-44436781D01*
X57019491Y-44468857D01*
X57008351Y-44499991D01*
X56994213Y-44529884D01*
X56977213Y-44558247D01*
X56957515Y-44584807D01*
X56935308Y-44609308D01*
X56910807Y-44631515D01*
X56884247Y-44651213D01*
X56855884Y-44668213D01*
X56825991Y-44682351D01*
X56794857Y-44693491D01*
X56762781Y-44701525D01*
X56730071Y-44706377D01*
X56697044Y-44708000D01*
X55570956Y-44708000D01*
X55537929Y-44706377D01*
X55505219Y-44701525D01*
X55473143Y-44693491D01*
X55442009Y-44682351D01*
X55412116Y-44668213D01*
X55383753Y-44651213D01*
X55357193Y-44631515D01*
X55332692Y-44609308D01*
X55310485Y-44584807D01*
X55290787Y-44558247D01*
X55273787Y-44529884D01*
X55259649Y-44499991D01*
X55248509Y-44468857D01*
X55240475Y-44436781D01*
X55235623Y-44404071D01*
X55234000Y-44371044D01*
X55234000Y-43494956D01*
X55235623Y-43461929D01*
X55240475Y-43429219D01*
X55248509Y-43397143D01*
X55259649Y-43366009D01*
X55273787Y-43336116D01*
X55290787Y-43307753D01*
X55310485Y-43281193D01*
X55332692Y-43256692D01*
X55357193Y-43234485D01*
X55383753Y-43214787D01*
X55412116Y-43197787D01*
X55442009Y-43183649D01*
X55473143Y-43172509D01*
X55505219Y-43164475D01*
X55537929Y-43159623D01*
X55570956Y-43158000D01*
X56697044Y-43158000D01*
X56730071Y-43159623D01*
X56730071Y-43159623D01*
G37*
D14*
X56134000Y-43933000D03*
G04 #@! TD*
D13*
G04 #@! TO.C,C9*
G36*
X127088071Y-89668623D02*
X127120781Y-89673475D01*
X127152857Y-89681509D01*
X127183991Y-89692649D01*
X127213884Y-89706787D01*
X127242247Y-89723787D01*
X127268807Y-89743485D01*
X127293308Y-89765692D01*
X127315515Y-89790193D01*
X127335213Y-89816753D01*
X127352213Y-89845116D01*
X127366351Y-89875009D01*
X127377491Y-89906143D01*
X127385525Y-89938219D01*
X127390377Y-89970929D01*
X127392000Y-90003956D01*
X127392000Y-90880044D01*
X127390377Y-90913071D01*
X127385525Y-90945781D01*
X127377491Y-90977857D01*
X127366351Y-91008991D01*
X127352213Y-91038884D01*
X127335213Y-91067247D01*
X127315515Y-91093807D01*
X127293308Y-91118308D01*
X127268807Y-91140515D01*
X127242247Y-91160213D01*
X127213884Y-91177213D01*
X127183991Y-91191351D01*
X127152857Y-91202491D01*
X127120781Y-91210525D01*
X127088071Y-91215377D01*
X127055044Y-91217000D01*
X125928956Y-91217000D01*
X125895929Y-91215377D01*
X125863219Y-91210525D01*
X125831143Y-91202491D01*
X125800009Y-91191351D01*
X125770116Y-91177213D01*
X125741753Y-91160213D01*
X125715193Y-91140515D01*
X125690692Y-91118308D01*
X125668485Y-91093807D01*
X125648787Y-91067247D01*
X125631787Y-91038884D01*
X125617649Y-91008991D01*
X125606509Y-90977857D01*
X125598475Y-90945781D01*
X125593623Y-90913071D01*
X125592000Y-90880044D01*
X125592000Y-90003956D01*
X125593623Y-89970929D01*
X125598475Y-89938219D01*
X125606509Y-89906143D01*
X125617649Y-89875009D01*
X125631787Y-89845116D01*
X125648787Y-89816753D01*
X125668485Y-89790193D01*
X125690692Y-89765692D01*
X125715193Y-89743485D01*
X125741753Y-89723787D01*
X125770116Y-89706787D01*
X125800009Y-89692649D01*
X125831143Y-89681509D01*
X125863219Y-89673475D01*
X125895929Y-89668623D01*
X125928956Y-89667000D01*
X127055044Y-89667000D01*
X127088071Y-89668623D01*
X127088071Y-89668623D01*
G37*
D14*
X126492000Y-90442000D03*
D13*
G36*
X127088071Y-87618623D02*
X127120781Y-87623475D01*
X127152857Y-87631509D01*
X127183991Y-87642649D01*
X127213884Y-87656787D01*
X127242247Y-87673787D01*
X127268807Y-87693485D01*
X127293308Y-87715692D01*
X127315515Y-87740193D01*
X127335213Y-87766753D01*
X127352213Y-87795116D01*
X127366351Y-87825009D01*
X127377491Y-87856143D01*
X127385525Y-87888219D01*
X127390377Y-87920929D01*
X127392000Y-87953956D01*
X127392000Y-88830044D01*
X127390377Y-88863071D01*
X127385525Y-88895781D01*
X127377491Y-88927857D01*
X127366351Y-88958991D01*
X127352213Y-88988884D01*
X127335213Y-89017247D01*
X127315515Y-89043807D01*
X127293308Y-89068308D01*
X127268807Y-89090515D01*
X127242247Y-89110213D01*
X127213884Y-89127213D01*
X127183991Y-89141351D01*
X127152857Y-89152491D01*
X127120781Y-89160525D01*
X127088071Y-89165377D01*
X127055044Y-89167000D01*
X125928956Y-89167000D01*
X125895929Y-89165377D01*
X125863219Y-89160525D01*
X125831143Y-89152491D01*
X125800009Y-89141351D01*
X125770116Y-89127213D01*
X125741753Y-89110213D01*
X125715193Y-89090515D01*
X125690692Y-89068308D01*
X125668485Y-89043807D01*
X125648787Y-89017247D01*
X125631787Y-88988884D01*
X125617649Y-88958991D01*
X125606509Y-88927857D01*
X125598475Y-88895781D01*
X125593623Y-88863071D01*
X125592000Y-88830044D01*
X125592000Y-87953956D01*
X125593623Y-87920929D01*
X125598475Y-87888219D01*
X125606509Y-87856143D01*
X125617649Y-87825009D01*
X125631787Y-87795116D01*
X125648787Y-87766753D01*
X125668485Y-87740193D01*
X125690692Y-87715692D01*
X125715193Y-87693485D01*
X125741753Y-87673787D01*
X125770116Y-87656787D01*
X125800009Y-87642649D01*
X125831143Y-87631509D01*
X125863219Y-87623475D01*
X125895929Y-87618623D01*
X125928956Y-87617000D01*
X127055044Y-87617000D01*
X127088071Y-87618623D01*
X127088071Y-87618623D01*
G37*
D14*
X126492000Y-88392000D03*
G04 #@! TD*
D13*
G04 #@! TO.C,C10*
G36*
X155028071Y-46987623D02*
X155060781Y-46992475D01*
X155092857Y-47000509D01*
X155123991Y-47011649D01*
X155153884Y-47025787D01*
X155182247Y-47042787D01*
X155208807Y-47062485D01*
X155233308Y-47084692D01*
X155255515Y-47109193D01*
X155275213Y-47135753D01*
X155292213Y-47164116D01*
X155306351Y-47194009D01*
X155317491Y-47225143D01*
X155325525Y-47257219D01*
X155330377Y-47289929D01*
X155332000Y-47322956D01*
X155332000Y-48199044D01*
X155330377Y-48232071D01*
X155325525Y-48264781D01*
X155317491Y-48296857D01*
X155306351Y-48327991D01*
X155292213Y-48357884D01*
X155275213Y-48386247D01*
X155255515Y-48412807D01*
X155233308Y-48437308D01*
X155208807Y-48459515D01*
X155182247Y-48479213D01*
X155153884Y-48496213D01*
X155123991Y-48510351D01*
X155092857Y-48521491D01*
X155060781Y-48529525D01*
X155028071Y-48534377D01*
X154995044Y-48536000D01*
X153868956Y-48536000D01*
X153835929Y-48534377D01*
X153803219Y-48529525D01*
X153771143Y-48521491D01*
X153740009Y-48510351D01*
X153710116Y-48496213D01*
X153681753Y-48479213D01*
X153655193Y-48459515D01*
X153630692Y-48437308D01*
X153608485Y-48412807D01*
X153588787Y-48386247D01*
X153571787Y-48357884D01*
X153557649Y-48327991D01*
X153546509Y-48296857D01*
X153538475Y-48264781D01*
X153533623Y-48232071D01*
X153532000Y-48199044D01*
X153532000Y-47322956D01*
X153533623Y-47289929D01*
X153538475Y-47257219D01*
X153546509Y-47225143D01*
X153557649Y-47194009D01*
X153571787Y-47164116D01*
X153588787Y-47135753D01*
X153608485Y-47109193D01*
X153630692Y-47084692D01*
X153655193Y-47062485D01*
X153681753Y-47042787D01*
X153710116Y-47025787D01*
X153740009Y-47011649D01*
X153771143Y-47000509D01*
X153803219Y-46992475D01*
X153835929Y-46987623D01*
X153868956Y-46986000D01*
X154995044Y-46986000D01*
X155028071Y-46987623D01*
X155028071Y-46987623D01*
G37*
D14*
X154432000Y-47761000D03*
D13*
G36*
X155028071Y-44937623D02*
X155060781Y-44942475D01*
X155092857Y-44950509D01*
X155123991Y-44961649D01*
X155153884Y-44975787D01*
X155182247Y-44992787D01*
X155208807Y-45012485D01*
X155233308Y-45034692D01*
X155255515Y-45059193D01*
X155275213Y-45085753D01*
X155292213Y-45114116D01*
X155306351Y-45144009D01*
X155317491Y-45175143D01*
X155325525Y-45207219D01*
X155330377Y-45239929D01*
X155332000Y-45272956D01*
X155332000Y-46149044D01*
X155330377Y-46182071D01*
X155325525Y-46214781D01*
X155317491Y-46246857D01*
X155306351Y-46277991D01*
X155292213Y-46307884D01*
X155275213Y-46336247D01*
X155255515Y-46362807D01*
X155233308Y-46387308D01*
X155208807Y-46409515D01*
X155182247Y-46429213D01*
X155153884Y-46446213D01*
X155123991Y-46460351D01*
X155092857Y-46471491D01*
X155060781Y-46479525D01*
X155028071Y-46484377D01*
X154995044Y-46486000D01*
X153868956Y-46486000D01*
X153835929Y-46484377D01*
X153803219Y-46479525D01*
X153771143Y-46471491D01*
X153740009Y-46460351D01*
X153710116Y-46446213D01*
X153681753Y-46429213D01*
X153655193Y-46409515D01*
X153630692Y-46387308D01*
X153608485Y-46362807D01*
X153588787Y-46336247D01*
X153571787Y-46307884D01*
X153557649Y-46277991D01*
X153546509Y-46246857D01*
X153538475Y-46214781D01*
X153533623Y-46182071D01*
X153532000Y-46149044D01*
X153532000Y-45272956D01*
X153533623Y-45239929D01*
X153538475Y-45207219D01*
X153546509Y-45175143D01*
X153557649Y-45144009D01*
X153571787Y-45114116D01*
X153588787Y-45085753D01*
X153608485Y-45059193D01*
X153630692Y-45034692D01*
X153655193Y-45012485D01*
X153681753Y-44992787D01*
X153710116Y-44975787D01*
X153740009Y-44961649D01*
X153771143Y-44950509D01*
X153803219Y-44942475D01*
X153835929Y-44937623D01*
X153868956Y-44936000D01*
X154995044Y-44936000D01*
X155028071Y-44937623D01*
X155028071Y-44937623D01*
G37*
D14*
X154432000Y-45711000D03*
G04 #@! TD*
D13*
G04 #@! TO.C,C11*
G36*
X139534071Y-87609623D02*
X139566781Y-87614475D01*
X139598857Y-87622509D01*
X139629991Y-87633649D01*
X139659884Y-87647787D01*
X139688247Y-87664787D01*
X139714807Y-87684485D01*
X139739308Y-87706692D01*
X139761515Y-87731193D01*
X139781213Y-87757753D01*
X139798213Y-87786116D01*
X139812351Y-87816009D01*
X139823491Y-87847143D01*
X139831525Y-87879219D01*
X139836377Y-87911929D01*
X139838000Y-87944956D01*
X139838000Y-88821044D01*
X139836377Y-88854071D01*
X139831525Y-88886781D01*
X139823491Y-88918857D01*
X139812351Y-88949991D01*
X139798213Y-88979884D01*
X139781213Y-89008247D01*
X139761515Y-89034807D01*
X139739308Y-89059308D01*
X139714807Y-89081515D01*
X139688247Y-89101213D01*
X139659884Y-89118213D01*
X139629991Y-89132351D01*
X139598857Y-89143491D01*
X139566781Y-89151525D01*
X139534071Y-89156377D01*
X139501044Y-89158000D01*
X138374956Y-89158000D01*
X138341929Y-89156377D01*
X138309219Y-89151525D01*
X138277143Y-89143491D01*
X138246009Y-89132351D01*
X138216116Y-89118213D01*
X138187753Y-89101213D01*
X138161193Y-89081515D01*
X138136692Y-89059308D01*
X138114485Y-89034807D01*
X138094787Y-89008247D01*
X138077787Y-88979884D01*
X138063649Y-88949991D01*
X138052509Y-88918857D01*
X138044475Y-88886781D01*
X138039623Y-88854071D01*
X138038000Y-88821044D01*
X138038000Y-87944956D01*
X138039623Y-87911929D01*
X138044475Y-87879219D01*
X138052509Y-87847143D01*
X138063649Y-87816009D01*
X138077787Y-87786116D01*
X138094787Y-87757753D01*
X138114485Y-87731193D01*
X138136692Y-87706692D01*
X138161193Y-87684485D01*
X138187753Y-87664787D01*
X138216116Y-87647787D01*
X138246009Y-87633649D01*
X138277143Y-87622509D01*
X138309219Y-87614475D01*
X138341929Y-87609623D01*
X138374956Y-87608000D01*
X139501044Y-87608000D01*
X139534071Y-87609623D01*
X139534071Y-87609623D01*
G37*
D14*
X138938000Y-88383000D03*
D13*
G36*
X139534071Y-89659623D02*
X139566781Y-89664475D01*
X139598857Y-89672509D01*
X139629991Y-89683649D01*
X139659884Y-89697787D01*
X139688247Y-89714787D01*
X139714807Y-89734485D01*
X139739308Y-89756692D01*
X139761515Y-89781193D01*
X139781213Y-89807753D01*
X139798213Y-89836116D01*
X139812351Y-89866009D01*
X139823491Y-89897143D01*
X139831525Y-89929219D01*
X139836377Y-89961929D01*
X139838000Y-89994956D01*
X139838000Y-90871044D01*
X139836377Y-90904071D01*
X139831525Y-90936781D01*
X139823491Y-90968857D01*
X139812351Y-90999991D01*
X139798213Y-91029884D01*
X139781213Y-91058247D01*
X139761515Y-91084807D01*
X139739308Y-91109308D01*
X139714807Y-91131515D01*
X139688247Y-91151213D01*
X139659884Y-91168213D01*
X139629991Y-91182351D01*
X139598857Y-91193491D01*
X139566781Y-91201525D01*
X139534071Y-91206377D01*
X139501044Y-91208000D01*
X138374956Y-91208000D01*
X138341929Y-91206377D01*
X138309219Y-91201525D01*
X138277143Y-91193491D01*
X138246009Y-91182351D01*
X138216116Y-91168213D01*
X138187753Y-91151213D01*
X138161193Y-91131515D01*
X138136692Y-91109308D01*
X138114485Y-91084807D01*
X138094787Y-91058247D01*
X138077787Y-91029884D01*
X138063649Y-90999991D01*
X138052509Y-90968857D01*
X138044475Y-90936781D01*
X138039623Y-90904071D01*
X138038000Y-90871044D01*
X138038000Y-89994956D01*
X138039623Y-89961929D01*
X138044475Y-89929219D01*
X138052509Y-89897143D01*
X138063649Y-89866009D01*
X138077787Y-89836116D01*
X138094787Y-89807753D01*
X138114485Y-89781193D01*
X138136692Y-89756692D01*
X138161193Y-89734485D01*
X138187753Y-89714787D01*
X138216116Y-89697787D01*
X138246009Y-89683649D01*
X138277143Y-89672509D01*
X138309219Y-89664475D01*
X138341929Y-89659623D01*
X138374956Y-89658000D01*
X139501044Y-89658000D01*
X139534071Y-89659623D01*
X139534071Y-89659623D01*
G37*
D14*
X138938000Y-90433000D03*
G04 #@! TD*
D13*
G04 #@! TO.C,C2*
G36*
X114771071Y-97810221D02*
X114803781Y-97815073D01*
X114835857Y-97823107D01*
X114866991Y-97834247D01*
X114896884Y-97848385D01*
X114925247Y-97865385D01*
X114951807Y-97885083D01*
X114976308Y-97907290D01*
X114998515Y-97931791D01*
X115018213Y-97958351D01*
X115035213Y-97986714D01*
X115049351Y-98016607D01*
X115060491Y-98047741D01*
X115068525Y-98079817D01*
X115073377Y-98112527D01*
X115075000Y-98145554D01*
X115075000Y-99271642D01*
X115073377Y-99304669D01*
X115068525Y-99337379D01*
X115060491Y-99369455D01*
X115049351Y-99400589D01*
X115035213Y-99430482D01*
X115018213Y-99458845D01*
X114998515Y-99485405D01*
X114976308Y-99509906D01*
X114951807Y-99532113D01*
X114925247Y-99551811D01*
X114896884Y-99568811D01*
X114866991Y-99582949D01*
X114835857Y-99594089D01*
X114803781Y-99602123D01*
X114771071Y-99606975D01*
X114738044Y-99608598D01*
X113861956Y-99608598D01*
X113828929Y-99606975D01*
X113796219Y-99602123D01*
X113764143Y-99594089D01*
X113733009Y-99582949D01*
X113703116Y-99568811D01*
X113674753Y-99551811D01*
X113648193Y-99532113D01*
X113623692Y-99509906D01*
X113601485Y-99485405D01*
X113581787Y-99458845D01*
X113564787Y-99430482D01*
X113550649Y-99400589D01*
X113539509Y-99369455D01*
X113531475Y-99337379D01*
X113526623Y-99304669D01*
X113525000Y-99271642D01*
X113525000Y-98145554D01*
X113526623Y-98112527D01*
X113531475Y-98079817D01*
X113539509Y-98047741D01*
X113550649Y-98016607D01*
X113564787Y-97986714D01*
X113581787Y-97958351D01*
X113601485Y-97931791D01*
X113623692Y-97907290D01*
X113648193Y-97885083D01*
X113674753Y-97865385D01*
X113703116Y-97848385D01*
X113733009Y-97834247D01*
X113764143Y-97823107D01*
X113796219Y-97815073D01*
X113828929Y-97810221D01*
X113861956Y-97808598D01*
X114738044Y-97808598D01*
X114771071Y-97810221D01*
X114771071Y-97810221D01*
G37*
D14*
X114300000Y-98708598D03*
D13*
G36*
X116821071Y-97810221D02*
X116853781Y-97815073D01*
X116885857Y-97823107D01*
X116916991Y-97834247D01*
X116946884Y-97848385D01*
X116975247Y-97865385D01*
X117001807Y-97885083D01*
X117026308Y-97907290D01*
X117048515Y-97931791D01*
X117068213Y-97958351D01*
X117085213Y-97986714D01*
X117099351Y-98016607D01*
X117110491Y-98047741D01*
X117118525Y-98079817D01*
X117123377Y-98112527D01*
X117125000Y-98145554D01*
X117125000Y-99271642D01*
X117123377Y-99304669D01*
X117118525Y-99337379D01*
X117110491Y-99369455D01*
X117099351Y-99400589D01*
X117085213Y-99430482D01*
X117068213Y-99458845D01*
X117048515Y-99485405D01*
X117026308Y-99509906D01*
X117001807Y-99532113D01*
X116975247Y-99551811D01*
X116946884Y-99568811D01*
X116916991Y-99582949D01*
X116885857Y-99594089D01*
X116853781Y-99602123D01*
X116821071Y-99606975D01*
X116788044Y-99608598D01*
X115911956Y-99608598D01*
X115878929Y-99606975D01*
X115846219Y-99602123D01*
X115814143Y-99594089D01*
X115783009Y-99582949D01*
X115753116Y-99568811D01*
X115724753Y-99551811D01*
X115698193Y-99532113D01*
X115673692Y-99509906D01*
X115651485Y-99485405D01*
X115631787Y-99458845D01*
X115614787Y-99430482D01*
X115600649Y-99400589D01*
X115589509Y-99369455D01*
X115581475Y-99337379D01*
X115576623Y-99304669D01*
X115575000Y-99271642D01*
X115575000Y-98145554D01*
X115576623Y-98112527D01*
X115581475Y-98079817D01*
X115589509Y-98047741D01*
X115600649Y-98016607D01*
X115614787Y-97986714D01*
X115631787Y-97958351D01*
X115651485Y-97931791D01*
X115673692Y-97907290D01*
X115698193Y-97885083D01*
X115724753Y-97865385D01*
X115753116Y-97848385D01*
X115783009Y-97834247D01*
X115814143Y-97823107D01*
X115846219Y-97815073D01*
X115878929Y-97810221D01*
X115911956Y-97808598D01*
X116788044Y-97808598D01*
X116821071Y-97810221D01*
X116821071Y-97810221D01*
G37*
D14*
X116350000Y-98708598D03*
G04 #@! TD*
D13*
G04 #@! TO.C,C4*
G36*
X117075071Y-102920221D02*
X117107781Y-102925073D01*
X117139857Y-102933107D01*
X117170991Y-102944247D01*
X117200884Y-102958385D01*
X117229247Y-102975385D01*
X117255807Y-102995083D01*
X117280308Y-103017290D01*
X117302515Y-103041791D01*
X117322213Y-103068351D01*
X117339213Y-103096714D01*
X117353351Y-103126607D01*
X117364491Y-103157741D01*
X117372525Y-103189817D01*
X117377377Y-103222527D01*
X117379000Y-103255554D01*
X117379000Y-104381642D01*
X117377377Y-104414669D01*
X117372525Y-104447379D01*
X117364491Y-104479455D01*
X117353351Y-104510589D01*
X117339213Y-104540482D01*
X117322213Y-104568845D01*
X117302515Y-104595405D01*
X117280308Y-104619906D01*
X117255807Y-104642113D01*
X117229247Y-104661811D01*
X117200884Y-104678811D01*
X117170991Y-104692949D01*
X117139857Y-104704089D01*
X117107781Y-104712123D01*
X117075071Y-104716975D01*
X117042044Y-104718598D01*
X116165956Y-104718598D01*
X116132929Y-104716975D01*
X116100219Y-104712123D01*
X116068143Y-104704089D01*
X116037009Y-104692949D01*
X116007116Y-104678811D01*
X115978753Y-104661811D01*
X115952193Y-104642113D01*
X115927692Y-104619906D01*
X115905485Y-104595405D01*
X115885787Y-104568845D01*
X115868787Y-104540482D01*
X115854649Y-104510589D01*
X115843509Y-104479455D01*
X115835475Y-104447379D01*
X115830623Y-104414669D01*
X115829000Y-104381642D01*
X115829000Y-103255554D01*
X115830623Y-103222527D01*
X115835475Y-103189817D01*
X115843509Y-103157741D01*
X115854649Y-103126607D01*
X115868787Y-103096714D01*
X115885787Y-103068351D01*
X115905485Y-103041791D01*
X115927692Y-103017290D01*
X115952193Y-102995083D01*
X115978753Y-102975385D01*
X116007116Y-102958385D01*
X116037009Y-102944247D01*
X116068143Y-102933107D01*
X116100219Y-102925073D01*
X116132929Y-102920221D01*
X116165956Y-102918598D01*
X117042044Y-102918598D01*
X117075071Y-102920221D01*
X117075071Y-102920221D01*
G37*
D14*
X116604000Y-103818598D03*
D13*
G36*
X115025071Y-102920221D02*
X115057781Y-102925073D01*
X115089857Y-102933107D01*
X115120991Y-102944247D01*
X115150884Y-102958385D01*
X115179247Y-102975385D01*
X115205807Y-102995083D01*
X115230308Y-103017290D01*
X115252515Y-103041791D01*
X115272213Y-103068351D01*
X115289213Y-103096714D01*
X115303351Y-103126607D01*
X115314491Y-103157741D01*
X115322525Y-103189817D01*
X115327377Y-103222527D01*
X115329000Y-103255554D01*
X115329000Y-104381642D01*
X115327377Y-104414669D01*
X115322525Y-104447379D01*
X115314491Y-104479455D01*
X115303351Y-104510589D01*
X115289213Y-104540482D01*
X115272213Y-104568845D01*
X115252515Y-104595405D01*
X115230308Y-104619906D01*
X115205807Y-104642113D01*
X115179247Y-104661811D01*
X115150884Y-104678811D01*
X115120991Y-104692949D01*
X115089857Y-104704089D01*
X115057781Y-104712123D01*
X115025071Y-104716975D01*
X114992044Y-104718598D01*
X114115956Y-104718598D01*
X114082929Y-104716975D01*
X114050219Y-104712123D01*
X114018143Y-104704089D01*
X113987009Y-104692949D01*
X113957116Y-104678811D01*
X113928753Y-104661811D01*
X113902193Y-104642113D01*
X113877692Y-104619906D01*
X113855485Y-104595405D01*
X113835787Y-104568845D01*
X113818787Y-104540482D01*
X113804649Y-104510589D01*
X113793509Y-104479455D01*
X113785475Y-104447379D01*
X113780623Y-104414669D01*
X113779000Y-104381642D01*
X113779000Y-103255554D01*
X113780623Y-103222527D01*
X113785475Y-103189817D01*
X113793509Y-103157741D01*
X113804649Y-103126607D01*
X113818787Y-103096714D01*
X113835787Y-103068351D01*
X113855485Y-103041791D01*
X113877692Y-103017290D01*
X113902193Y-102995083D01*
X113928753Y-102975385D01*
X113957116Y-102958385D01*
X113987009Y-102944247D01*
X114018143Y-102933107D01*
X114050219Y-102925073D01*
X114082929Y-102920221D01*
X114115956Y-102918598D01*
X114992044Y-102918598D01*
X115025071Y-102920221D01*
X115025071Y-102920221D01*
G37*
D14*
X114554000Y-103818598D03*
G04 #@! TD*
D38*
G04 #@! TO.C,J2*
X157686000Y-114326000D03*
D39*
X160486000Y-119126000D03*
D40*
X154686000Y-119126000D03*
G04 #@! TD*
G04 #@! TO.C,J3*
X154686000Y-106172000D03*
D39*
X160486000Y-106172000D03*
D38*
X157686000Y-101372000D03*
G04 #@! TD*
D39*
G04 #@! TO.C,J5*
X133630000Y-43482000D03*
D38*
X138430000Y-40682000D03*
D41*
X138430000Y-46482000D03*
G04 #@! TD*
D39*
G04 #@! TO.C,J6*
X122708000Y-43482000D03*
D38*
X127508000Y-40682000D03*
D41*
X127508000Y-46482000D03*
G04 #@! TD*
G04 #@! TO.C,J7*
X115824000Y-46482000D03*
D38*
X115824000Y-40682000D03*
D39*
X111024000Y-43482000D03*
G04 #@! TD*
D10*
G04 #@! TO.C,REF\002A\002A*
X163068000Y-35560000D03*
G04 #@! TD*
M02*
