G04 #@! TF.FileFunction,Legend,Bot*
%FSLAX46Y46*%
G04 Gerber Fmt 4.6, Leading zero omitted, Abs format (unit mm)*
G04 Created by KiCad (PCBNEW 4.0.4-stable) date 05/10/17 13:17:29*
%MOMM*%
%LPD*%
G01*
G04 APERTURE LIST*
%ADD10C,0.150000*%
%ADD11C,0.250000*%
%ADD12C,0.200000*%
%ADD13C,0.127000*%
%ADD14C,0.381000*%
%ADD15C,0.203200*%
%ADD16C,0.125000*%
%ADD17C,0.119380*%
%ADD18R,1.300000X0.700000*%
%ADD19R,0.299720X1.501140*%
%ADD20R,7.000240X3.599180*%
%ADD21R,1.524000X2.032000*%
%ADD22R,1.250000X1.000000*%
%ADD23R,1.000000X1.250000*%
%ADD24R,1.950720X2.499360*%
%ADD25R,2.032000X1.524000*%
%ADD26R,1.849120X5.499100*%
%ADD27R,10.800080X8.150860*%
%ADD28R,0.899160X3.200400*%
%ADD29R,0.700000X1.300000*%
%ADD30R,2.438400X5.588000*%
%ADD31R,2.438400X0.889000*%
%ADD32R,3.657600X2.032000*%
%ADD33R,1.016000X2.032000*%
%ADD34R,0.599440X1.399540*%
%ADD35R,0.750000X0.800000*%
%ADD36R,1.650000X5.500000*%
%ADD37R,6.360000X5.500000*%
G04 APERTURE END LIST*
D10*
X136114286Y-131452381D02*
X136185714Y-131404762D01*
X136221429Y-131357143D01*
X136257143Y-131261905D01*
X136257143Y-130976190D01*
X136221429Y-130880952D01*
X136185714Y-130833333D01*
X136114286Y-130785714D01*
X136007143Y-130785714D01*
X135935714Y-130833333D01*
X135900000Y-130880952D01*
X135864286Y-130976190D01*
X135864286Y-131261905D01*
X135900000Y-131357143D01*
X135935714Y-131404762D01*
X136007143Y-131452381D01*
X136114286Y-131452381D01*
X135542858Y-131357143D02*
X135507143Y-131404762D01*
X135542858Y-131452381D01*
X135578572Y-131404762D01*
X135542858Y-131357143D01*
X135542858Y-131452381D01*
X135221429Y-131404762D02*
X135150000Y-131452381D01*
X135007143Y-131452381D01*
X134935715Y-131404762D01*
X134900000Y-131309524D01*
X134900000Y-131261905D01*
X134935715Y-131166667D01*
X135007143Y-131119048D01*
X135114286Y-131119048D01*
X135185715Y-131071429D01*
X135221429Y-130976190D01*
X135221429Y-130928571D01*
X135185715Y-130833333D01*
X135114286Y-130785714D01*
X135007143Y-130785714D01*
X134935715Y-130833333D01*
X134578572Y-131357143D02*
X134542857Y-131404762D01*
X134578572Y-131452381D01*
X134614286Y-131404762D01*
X134578572Y-131357143D01*
X134578572Y-131452381D01*
D11*
X137600000Y-110794762D02*
X137600000Y-109270952D01*
X137980952Y-109651905D02*
X137600000Y-109270952D01*
X137219047Y-109651905D01*
X65659000Y-110886762D02*
X65659000Y-109362952D01*
X66039952Y-109743905D02*
X65659000Y-109362952D01*
X65278047Y-109743905D01*
D12*
X100257072Y-102424881D02*
X99742786Y-102424881D01*
X99999929Y-103424881D02*
X99999929Y-102424881D01*
X98071358Y-103424881D02*
X98071358Y-102424881D01*
X98071358Y-102901071D02*
X97557073Y-102901071D01*
X97557073Y-103424881D02*
X97557073Y-102424881D01*
X97214216Y-102424881D02*
X96657073Y-102424881D01*
X96957073Y-102805833D01*
X96828501Y-102805833D01*
X96742787Y-102853452D01*
X96699930Y-102901071D01*
X96657073Y-102996310D01*
X96657073Y-103234405D01*
X96699930Y-103329643D01*
X96742787Y-103377262D01*
X96828501Y-103424881D01*
X97085644Y-103424881D01*
X97171358Y-103377262D01*
X97214216Y-103329643D01*
X95585644Y-103424881D02*
X95585644Y-102424881D01*
X95585644Y-102901071D02*
X95071359Y-102901071D01*
X95071359Y-103424881D02*
X95071359Y-102424881D01*
X94685644Y-102520119D02*
X94642787Y-102472500D01*
X94557073Y-102424881D01*
X94342787Y-102424881D01*
X94257073Y-102472500D01*
X94214216Y-102520119D01*
X94171359Y-102615357D01*
X94171359Y-102710595D01*
X94214216Y-102853452D01*
X94728502Y-103424881D01*
X94171359Y-103424881D01*
X93099930Y-103424881D02*
X93099930Y-102424881D01*
X93099930Y-102901071D02*
X92585645Y-102901071D01*
X92585645Y-103424881D02*
X92585645Y-102424881D01*
X91685645Y-103424881D02*
X92199930Y-103424881D01*
X91942788Y-103424881D02*
X91942788Y-102424881D01*
X92028502Y-102567738D01*
X92114216Y-102662976D01*
X92199930Y-102710595D01*
X90742788Y-102424881D02*
X90442788Y-103424881D01*
X90142788Y-102424881D01*
X89842787Y-103424881D02*
X89842787Y-102424881D01*
X89842787Y-102901071D02*
X89328502Y-102901071D01*
X89328502Y-103424881D02*
X89328502Y-102424881D01*
X88942787Y-103139167D02*
X88514216Y-103139167D01*
X89028502Y-103424881D02*
X88728502Y-102424881D01*
X88428502Y-103424881D01*
X87699930Y-103424881D02*
X88128501Y-103424881D01*
X88128501Y-102424881D01*
X86971359Y-103424881D02*
X87399930Y-103424881D01*
X87399930Y-102424881D01*
X85471360Y-103329643D02*
X85514217Y-103377262D01*
X85642788Y-103424881D01*
X85728502Y-103424881D01*
X85857074Y-103377262D01*
X85942788Y-103282024D01*
X85985645Y-103186786D01*
X86028502Y-102996310D01*
X86028502Y-102853452D01*
X85985645Y-102662976D01*
X85942788Y-102567738D01*
X85857074Y-102472500D01*
X85728502Y-102424881D01*
X85642788Y-102424881D01*
X85514217Y-102472500D01*
X85471360Y-102520119D01*
X85128502Y-103139167D02*
X84699931Y-103139167D01*
X85214217Y-103424881D02*
X84914217Y-102424881D01*
X84614217Y-103424881D01*
X84314216Y-103424881D02*
X84314216Y-102424881D01*
X83799931Y-103424881D01*
X83799931Y-102424881D01*
X82942788Y-103424881D02*
X83371359Y-103424881D01*
X83371359Y-102424881D01*
X80757075Y-103329643D02*
X80799932Y-103377262D01*
X80928503Y-103424881D01*
X81014217Y-103424881D01*
X81142789Y-103377262D01*
X81228503Y-103282024D01*
X81271360Y-103186786D01*
X81314217Y-102996310D01*
X81314217Y-102853452D01*
X81271360Y-102662976D01*
X81228503Y-102567738D01*
X81142789Y-102472500D01*
X81014217Y-102424881D01*
X80928503Y-102424881D01*
X80799932Y-102472500D01*
X80757075Y-102520119D01*
X80414217Y-103139167D02*
X79985646Y-103139167D01*
X80499932Y-103424881D02*
X80199932Y-102424881D01*
X79899932Y-103424881D01*
X79599931Y-103424881D02*
X79599931Y-102424881D01*
X79085646Y-103424881D01*
X79085646Y-102424881D01*
X78657074Y-103424881D02*
X78657074Y-102424881D01*
X78657074Y-102901071D02*
X78142789Y-102901071D01*
X78142789Y-103424881D02*
X78142789Y-102424881D01*
X76599932Y-102424881D02*
X77028503Y-102424881D01*
X77071360Y-102901071D01*
X77028503Y-102853452D01*
X76942789Y-102805833D01*
X76728503Y-102805833D01*
X76642789Y-102853452D01*
X76599932Y-102901071D01*
X76557075Y-102996310D01*
X76557075Y-103234405D01*
X76599932Y-103329643D01*
X76642789Y-103377262D01*
X76728503Y-103424881D01*
X76942789Y-103424881D01*
X77028503Y-103377262D01*
X77071360Y-103329643D01*
X76299932Y-102424881D02*
X75999932Y-103424881D01*
X75699932Y-102424881D01*
X72914218Y-102424881D02*
X73342789Y-102424881D01*
X73385646Y-102901071D01*
X73342789Y-102853452D01*
X73257075Y-102805833D01*
X73042789Y-102805833D01*
X72957075Y-102853452D01*
X72914218Y-102901071D01*
X72871361Y-102996310D01*
X72871361Y-103234405D01*
X72914218Y-103329643D01*
X72957075Y-103377262D01*
X73042789Y-103424881D01*
X73257075Y-103424881D01*
X73342789Y-103377262D01*
X73385646Y-103329643D01*
X72614218Y-102424881D02*
X72314218Y-103424881D01*
X72014218Y-102424881D01*
X100299929Y-105029643D02*
X100342786Y-105077262D01*
X100471357Y-105124881D01*
X100557071Y-105124881D01*
X100685643Y-105077262D01*
X100771357Y-104982024D01*
X100814214Y-104886786D01*
X100857071Y-104696310D01*
X100857071Y-104553452D01*
X100814214Y-104362976D01*
X100771357Y-104267738D01*
X100685643Y-104172500D01*
X100557071Y-104124881D01*
X100471357Y-104124881D01*
X100342786Y-104172500D01*
X100299929Y-104220119D01*
X99957071Y-105077262D02*
X99828500Y-105124881D01*
X99614214Y-105124881D01*
X99528500Y-105077262D01*
X99485643Y-105029643D01*
X99442786Y-104934405D01*
X99442786Y-104839167D01*
X99485643Y-104743929D01*
X99528500Y-104696310D01*
X99614214Y-104648690D01*
X99785643Y-104601071D01*
X99871357Y-104553452D01*
X99914214Y-104505833D01*
X99957071Y-104410595D01*
X99957071Y-104315357D01*
X99914214Y-104220119D01*
X99871357Y-104172500D01*
X99785643Y-104124881D01*
X99571357Y-104124881D01*
X99442786Y-104172500D01*
X98414214Y-105077262D02*
X98285643Y-105124881D01*
X98071357Y-105124881D01*
X97985643Y-105077262D01*
X97942786Y-105029643D01*
X97899929Y-104934405D01*
X97899929Y-104839167D01*
X97942786Y-104743929D01*
X97985643Y-104696310D01*
X98071357Y-104648690D01*
X98242786Y-104601071D01*
X98328500Y-104553452D01*
X98371357Y-104505833D01*
X98414214Y-104410595D01*
X98414214Y-104315357D01*
X98371357Y-104220119D01*
X98328500Y-104172500D01*
X98242786Y-104124881D01*
X98028500Y-104124881D01*
X97899929Y-104172500D01*
X96999929Y-105029643D02*
X97042786Y-105077262D01*
X97171357Y-105124881D01*
X97257071Y-105124881D01*
X97385643Y-105077262D01*
X97471357Y-104982024D01*
X97514214Y-104886786D01*
X97557071Y-104696310D01*
X97557071Y-104553452D01*
X97514214Y-104362976D01*
X97471357Y-104267738D01*
X97385643Y-104172500D01*
X97257071Y-104124881D01*
X97171357Y-104124881D01*
X97042786Y-104172500D01*
X96999929Y-104220119D01*
X96614214Y-105124881D02*
X96614214Y-104124881D01*
X96099929Y-105124881D02*
X96485643Y-104553452D01*
X96099929Y-104124881D02*
X96614214Y-104696310D01*
X95028500Y-105124881D02*
X95028500Y-104124881D01*
X94728500Y-104839167D01*
X94428500Y-104124881D01*
X94428500Y-105124881D01*
X93999929Y-105124881D02*
X93999929Y-104124881D01*
X92885644Y-105124881D02*
X92885644Y-104124881D01*
X92585644Y-104839167D01*
X92285644Y-104124881D01*
X92285644Y-105124881D01*
X91685645Y-104124881D02*
X91514216Y-104124881D01*
X91428502Y-104172500D01*
X91342788Y-104267738D01*
X91299930Y-104458214D01*
X91299930Y-104791548D01*
X91342788Y-104982024D01*
X91428502Y-105077262D01*
X91514216Y-105124881D01*
X91685645Y-105124881D01*
X91771359Y-105077262D01*
X91857073Y-104982024D01*
X91899930Y-104791548D01*
X91899930Y-104458214D01*
X91857073Y-104267738D01*
X91771359Y-104172500D01*
X91685645Y-104124881D01*
X90357074Y-104124881D02*
X90057074Y-105124881D01*
X89757074Y-104124881D01*
X89499930Y-105077262D02*
X89371359Y-105124881D01*
X89157073Y-105124881D01*
X89071359Y-105077262D01*
X89028502Y-105029643D01*
X88985645Y-104934405D01*
X88985645Y-104839167D01*
X89028502Y-104743929D01*
X89071359Y-104696310D01*
X89157073Y-104648690D01*
X89328502Y-104601071D01*
X89414216Y-104553452D01*
X89457073Y-104505833D01*
X89499930Y-104410595D01*
X89499930Y-104315357D01*
X89457073Y-104220119D01*
X89414216Y-104172500D01*
X89328502Y-104124881D01*
X89114216Y-104124881D01*
X88985645Y-104172500D01*
X88599930Y-105124881D02*
X88599930Y-104124881D01*
X88257073Y-104124881D01*
X88171359Y-104172500D01*
X88128502Y-104220119D01*
X88085645Y-104315357D01*
X88085645Y-104458214D01*
X88128502Y-104553452D01*
X88171359Y-104601071D01*
X88257073Y-104648690D01*
X88599930Y-104648690D01*
X87699930Y-105124881D02*
X87699930Y-104124881D01*
X85899931Y-104124881D02*
X85899931Y-104934405D01*
X85857074Y-105029643D01*
X85814217Y-105077262D01*
X85728503Y-105124881D01*
X85557074Y-105124881D01*
X85471360Y-105077262D01*
X85428503Y-105029643D01*
X85385646Y-104934405D01*
X85385646Y-104124881D01*
X84999931Y-105077262D02*
X84871360Y-105124881D01*
X84657074Y-105124881D01*
X84571360Y-105077262D01*
X84528503Y-105029643D01*
X84485646Y-104934405D01*
X84485646Y-104839167D01*
X84528503Y-104743929D01*
X84571360Y-104696310D01*
X84657074Y-104648690D01*
X84828503Y-104601071D01*
X84914217Y-104553452D01*
X84957074Y-104505833D01*
X84999931Y-104410595D01*
X84999931Y-104315357D01*
X84957074Y-104220119D01*
X84914217Y-104172500D01*
X84828503Y-104124881D01*
X84614217Y-104124881D01*
X84485646Y-104172500D01*
X83799931Y-104601071D02*
X83671360Y-104648690D01*
X83628503Y-104696310D01*
X83585646Y-104791548D01*
X83585646Y-104934405D01*
X83628503Y-105029643D01*
X83671360Y-105077262D01*
X83757074Y-105124881D01*
X84099931Y-105124881D01*
X84099931Y-104124881D01*
X83799931Y-104124881D01*
X83714217Y-104172500D01*
X83671360Y-104220119D01*
X83628503Y-104315357D01*
X83628503Y-104410595D01*
X83671360Y-104505833D01*
X83714217Y-104553452D01*
X83799931Y-104601071D01*
X84099931Y-104601071D01*
X83199931Y-104743929D02*
X82514217Y-104743929D01*
X81399931Y-104124881D02*
X81399931Y-104934405D01*
X81357074Y-105029643D01*
X81314217Y-105077262D01*
X81228503Y-105124881D01*
X81057074Y-105124881D01*
X80971360Y-105077262D01*
X80928503Y-105029643D01*
X80885646Y-104934405D01*
X80885646Y-104124881D01*
X80499931Y-105077262D02*
X80371360Y-105124881D01*
X80157074Y-105124881D01*
X80071360Y-105077262D01*
X80028503Y-105029643D01*
X79985646Y-104934405D01*
X79985646Y-104839167D01*
X80028503Y-104743929D01*
X80071360Y-104696310D01*
X80157074Y-104648690D01*
X80328503Y-104601071D01*
X80414217Y-104553452D01*
X80457074Y-104505833D01*
X80499931Y-104410595D01*
X80499931Y-104315357D01*
X80457074Y-104220119D01*
X80414217Y-104172500D01*
X80328503Y-104124881D01*
X80114217Y-104124881D01*
X79985646Y-104172500D01*
X79299931Y-104601071D02*
X79171360Y-104648690D01*
X79128503Y-104696310D01*
X79085646Y-104791548D01*
X79085646Y-104934405D01*
X79128503Y-105029643D01*
X79171360Y-105077262D01*
X79257074Y-105124881D01*
X79599931Y-105124881D01*
X79599931Y-104124881D01*
X79299931Y-104124881D01*
X79214217Y-104172500D01*
X79171360Y-104220119D01*
X79128503Y-104315357D01*
X79128503Y-104410595D01*
X79171360Y-104505833D01*
X79214217Y-104553452D01*
X79299931Y-104601071D01*
X79599931Y-104601071D01*
X78699931Y-104743929D02*
X78014217Y-104743929D01*
X78357074Y-105124881D02*
X78357074Y-104362976D01*
X76428503Y-104172500D02*
X76514217Y-104124881D01*
X76642788Y-104124881D01*
X76771360Y-104172500D01*
X76857074Y-104267738D01*
X76899931Y-104362976D01*
X76942788Y-104553452D01*
X76942788Y-104696310D01*
X76899931Y-104886786D01*
X76857074Y-104982024D01*
X76771360Y-105077262D01*
X76642788Y-105124881D01*
X76557074Y-105124881D01*
X76428503Y-105077262D01*
X76385646Y-105029643D01*
X76385646Y-104696310D01*
X76557074Y-104696310D01*
X75999931Y-105124881D02*
X75999931Y-104124881D01*
X75485646Y-105124881D01*
X75485646Y-104124881D01*
X75057074Y-105124881D02*
X75057074Y-104124881D01*
X74842789Y-104124881D01*
X74714217Y-104172500D01*
X74628503Y-104267738D01*
X74585646Y-104362976D01*
X74542789Y-104553452D01*
X74542789Y-104696310D01*
X74585646Y-104886786D01*
X74628503Y-104982024D01*
X74714217Y-105077262D01*
X74842789Y-105124881D01*
X75057074Y-105124881D01*
X72999932Y-104172500D02*
X73085646Y-104124881D01*
X73214217Y-104124881D01*
X73342789Y-104172500D01*
X73428503Y-104267738D01*
X73471360Y-104362976D01*
X73514217Y-104553452D01*
X73514217Y-104696310D01*
X73471360Y-104886786D01*
X73428503Y-104982024D01*
X73342789Y-105077262D01*
X73214217Y-105124881D01*
X73128503Y-105124881D01*
X72999932Y-105077262D01*
X72957075Y-105029643D01*
X72957075Y-104696310D01*
X73128503Y-104696310D01*
X72571360Y-105124881D02*
X72571360Y-104124881D01*
X72057075Y-105124881D01*
X72057075Y-104124881D01*
X71628503Y-105124881D02*
X71628503Y-104124881D01*
X71414218Y-104124881D01*
X71285646Y-104172500D01*
X71199932Y-104267738D01*
X71157075Y-104362976D01*
X71114218Y-104553452D01*
X71114218Y-104696310D01*
X71157075Y-104886786D01*
X71199932Y-104982024D01*
X71285646Y-105077262D01*
X71414218Y-105124881D01*
X71628503Y-105124881D01*
X69914218Y-104124881D02*
X69914218Y-104362976D01*
X70128504Y-104267738D02*
X69914218Y-104362976D01*
X69699932Y-104267738D01*
X70042789Y-104553452D02*
X69914218Y-104362976D01*
X69785646Y-104553452D01*
X69228504Y-104124881D02*
X69228504Y-104362976D01*
X69442790Y-104267738D02*
X69228504Y-104362976D01*
X69014218Y-104267738D01*
X69357075Y-104553452D02*
X69228504Y-104362976D01*
X69099932Y-104553452D01*
D11*
X106179714Y-142946381D02*
X106179714Y-141946381D01*
X105798761Y-141946381D01*
X105703523Y-141994000D01*
X105655904Y-142041619D01*
X105608285Y-142136857D01*
X105608285Y-142279714D01*
X105655904Y-142374952D01*
X105703523Y-142422571D01*
X105798761Y-142470190D01*
X106179714Y-142470190D01*
X104655904Y-141994000D02*
X104751142Y-141946381D01*
X104893999Y-141946381D01*
X105036857Y-141994000D01*
X105132095Y-142089238D01*
X105179714Y-142184476D01*
X105227333Y-142374952D01*
X105227333Y-142517810D01*
X105179714Y-142708286D01*
X105132095Y-142803524D01*
X105036857Y-142898762D01*
X104893999Y-142946381D01*
X104798761Y-142946381D01*
X104655904Y-142898762D01*
X104608285Y-142851143D01*
X104608285Y-142517810D01*
X104798761Y-142517810D01*
X104179714Y-142946381D02*
X104179714Y-141946381D01*
X103608285Y-142946381D01*
X103608285Y-141946381D01*
X103132095Y-142946381D02*
X103132095Y-141946381D01*
X102894000Y-141946381D01*
X102751142Y-141994000D01*
X102655904Y-142089238D01*
X102608285Y-142184476D01*
X102560666Y-142374952D01*
X102560666Y-142517810D01*
X102608285Y-142708286D01*
X102655904Y-142803524D01*
X102751142Y-142898762D01*
X102894000Y-142946381D01*
X103132095Y-142946381D01*
X98670857Y-142009881D02*
X98337524Y-143009881D01*
X98004190Y-142009881D01*
X97337523Y-142486071D02*
X97194666Y-142533690D01*
X97147047Y-142581310D01*
X97099428Y-142676548D01*
X97099428Y-142819405D01*
X97147047Y-142914643D01*
X97194666Y-142962262D01*
X97289904Y-143009881D01*
X97670857Y-143009881D01*
X97670857Y-142009881D01*
X97337523Y-142009881D01*
X97242285Y-142057500D01*
X97194666Y-142105119D01*
X97147047Y-142200357D01*
X97147047Y-142295595D01*
X97194666Y-142390833D01*
X97242285Y-142438452D01*
X97337523Y-142486071D01*
X97670857Y-142486071D01*
X96718476Y-142724167D02*
X96242285Y-142724167D01*
X96813714Y-143009881D02*
X96480381Y-142009881D01*
X96147047Y-143009881D01*
X95956571Y-142009881D02*
X95385142Y-142009881D01*
X95670857Y-143009881D02*
X95670857Y-142009881D01*
X89090500Y-142216190D02*
X89090500Y-142692381D01*
X89423833Y-141692381D02*
X89090500Y-142216190D01*
X88757166Y-141692381D01*
X81867333Y-141755881D02*
X81200666Y-142755881D01*
X81200666Y-141755881D02*
X81867333Y-142755881D01*
X74342571Y-141692381D02*
X74104476Y-142692381D01*
X73913999Y-141978095D01*
X73723523Y-142692381D01*
X73485428Y-141692381D01*
D10*
X119380000Y-126809500D02*
X119570500Y-128079500D01*
X117030500Y-124904500D02*
X116649500Y-126047500D01*
X108586300Y-106918200D02*
X108586300Y-108118200D01*
X110336300Y-108118200D02*
X110336300Y-106918200D01*
X110313500Y-106918200D02*
X110313500Y-108118200D01*
X112063500Y-108118200D02*
X112063500Y-106918200D01*
D13*
X128198880Y-112930940D02*
X113200180Y-112930940D01*
X113200180Y-106931460D02*
X128198880Y-106931460D01*
X113200180Y-106931460D02*
X113200180Y-112930940D01*
X128198880Y-112930940D02*
X128198880Y-106931460D01*
X128089858Y-112288320D02*
G75*
G03X128089858Y-112288320I-406598J0D01*
G01*
X106603800Y-127177800D02*
X106603800Y-129463800D01*
X106603800Y-129463800D02*
X104952800Y-129463800D01*
X103174800Y-127177800D02*
X101523800Y-127177800D01*
X101523800Y-127177800D02*
X101523800Y-129463800D01*
X101523800Y-129463800D02*
X103174800Y-129463800D01*
X104952800Y-127177800D02*
X106603800Y-127177800D01*
D10*
X124473600Y-124020200D02*
X124473600Y-123020200D01*
X126173600Y-123020200D02*
X126173600Y-124020200D01*
X125513200Y-127795400D02*
X125513200Y-128795400D01*
X123813200Y-128795400D02*
X123813200Y-127795400D01*
X128633600Y-125134000D02*
X129633600Y-125134000D01*
X129633600Y-126834000D02*
X128633600Y-126834000D01*
X122998600Y-127770000D02*
X122998600Y-128770000D01*
X121298600Y-128770000D02*
X121298600Y-127770000D01*
X115685200Y-128592200D02*
X115685200Y-127592200D01*
X117385200Y-127592200D02*
X117385200Y-128592200D01*
D13*
X113626900Y-126949200D02*
X113626900Y-124155200D01*
X114198400Y-126949200D02*
X110642400Y-126949200D01*
X110642400Y-126949200D02*
X110642400Y-124155200D01*
X110642400Y-124155200D02*
X114198400Y-124155200D01*
X114198400Y-124155200D02*
X114198400Y-126949200D01*
D10*
X133389000Y-125518800D02*
X133389000Y-124518800D01*
X135089000Y-124518800D02*
X135089000Y-125518800D01*
D13*
X106603800Y-130200400D02*
X106603800Y-132486400D01*
X106603800Y-132486400D02*
X104952800Y-132486400D01*
X103174800Y-130200400D02*
X101523800Y-130200400D01*
X101523800Y-130200400D02*
X101523800Y-132486400D01*
X101523800Y-132486400D02*
X103174800Y-132486400D01*
X104952800Y-130200400D02*
X106603800Y-130200400D01*
X109740700Y-113677700D02*
X112026700Y-113677700D01*
X112026700Y-113677700D02*
X112026700Y-115328700D01*
X109740700Y-117106700D02*
X109740700Y-118757700D01*
X109740700Y-118757700D02*
X112026700Y-118757700D01*
X112026700Y-118757700D02*
X112026700Y-117106700D01*
X109740700Y-115328700D02*
X109740700Y-113677700D01*
X107327700Y-113677700D02*
X109613700Y-113677700D01*
X109613700Y-113677700D02*
X109613700Y-115328700D01*
X107327700Y-117106700D02*
X107327700Y-118757700D01*
X107327700Y-118757700D02*
X109613700Y-118757700D01*
X109613700Y-118757700D02*
X109613700Y-117106700D01*
X107327700Y-115328700D02*
X107327700Y-113677700D01*
X104838500Y-113677700D02*
X107124500Y-113677700D01*
X107124500Y-113677700D02*
X107124500Y-115328700D01*
X104838500Y-117106700D02*
X104838500Y-118757700D01*
X104838500Y-118757700D02*
X107124500Y-118757700D01*
X107124500Y-118757700D02*
X107124500Y-117106700D01*
X104838500Y-115328700D02*
X104838500Y-113677700D01*
X106273600Y-138150600D02*
X106273600Y-133070600D01*
X101955600Y-138150600D02*
X101955600Y-133070600D01*
X101320600Y-138150600D02*
X106908600Y-138150600D01*
X106908600Y-138150600D02*
X106908600Y-133070600D01*
X106908600Y-133070600D02*
X101320600Y-133070600D01*
X101320600Y-133070600D02*
X101320600Y-138150600D01*
D10*
X120458600Y-129487800D02*
X120458600Y-130487800D01*
X118758600Y-130487800D02*
X118758600Y-129487800D01*
D14*
X75699380Y-127800620D02*
X65300620Y-127800620D01*
X65300620Y-127800620D02*
X65300620Y-135598420D01*
X65300620Y-135598420D02*
X67700920Y-136898900D01*
X67700920Y-136898900D02*
X73299080Y-136898900D01*
X73299080Y-136898900D02*
X75699380Y-135598420D01*
X75699380Y-135598420D02*
X75699380Y-127800620D01*
X86949380Y-127800620D02*
X76550620Y-127800620D01*
X76550620Y-127800620D02*
X76550620Y-135598420D01*
X76550620Y-135598420D02*
X78950920Y-136898900D01*
X78950920Y-136898900D02*
X84549080Y-136898900D01*
X84549080Y-136898900D02*
X86949380Y-135598420D01*
X86949380Y-135598420D02*
X86949380Y-127800620D01*
X98199380Y-127800620D02*
X87800620Y-127800620D01*
X87800620Y-127800620D02*
X87800620Y-135598420D01*
X87800620Y-135598420D02*
X90200920Y-136898900D01*
X90200920Y-136898900D02*
X95799080Y-136898900D01*
X95799080Y-136898900D02*
X98199380Y-135598420D01*
X98199380Y-135598420D02*
X98199380Y-127800620D01*
D10*
X99505800Y-122132800D02*
X99505800Y-123332800D01*
X101255800Y-123332800D02*
X101255800Y-122132800D01*
X131281200Y-140293800D02*
X131281200Y-141493800D01*
X133031200Y-141493800D02*
X133031200Y-140293800D01*
X123686600Y-140283600D02*
X123686600Y-141483600D01*
X125436600Y-141483600D02*
X125436600Y-140283600D01*
X126226600Y-140268400D02*
X126226600Y-141468400D01*
X127976600Y-141468400D02*
X127976600Y-140268400D01*
X128766600Y-140283600D02*
X128766600Y-141483600D01*
X130516600Y-141483600D02*
X130516600Y-140283600D01*
X131384600Y-137428000D02*
X130184600Y-137428000D01*
X130184600Y-139178000D02*
X131384600Y-139178000D01*
X131410000Y-135777000D02*
X130210000Y-135777000D01*
X130210000Y-137527000D02*
X131410000Y-137527000D01*
X131435400Y-133999000D02*
X130235400Y-133999000D01*
X130235400Y-135749000D02*
X131435400Y-135749000D01*
X135418800Y-117414600D02*
X135418800Y-116214600D01*
X133668800Y-116214600D02*
X133668800Y-117414600D01*
X133666200Y-117414600D02*
X133666200Y-116214600D01*
X131916200Y-116214600D02*
X131916200Y-117414600D01*
X104837200Y-108130900D02*
X104837200Y-106930900D01*
X103087200Y-106930900D02*
X103087200Y-108130900D01*
X131913600Y-117389200D02*
X131913600Y-116189200D01*
X130163600Y-116189200D02*
X130163600Y-117389200D01*
X106653300Y-108130900D02*
X106653300Y-106930900D01*
X104903300Y-106930900D02*
X104903300Y-108130900D01*
X108520200Y-108130900D02*
X108520200Y-106930900D01*
X106770200Y-106930900D02*
X106770200Y-108130900D01*
D14*
X79929000Y-111103000D02*
X79929000Y-117707000D01*
X79929000Y-117707000D02*
X73071000Y-117707000D01*
X73071000Y-117707000D02*
X73071000Y-111103000D01*
X73071000Y-111103000D02*
X79929000Y-111103000D01*
X90929000Y-111103000D02*
X90929000Y-117707000D01*
X90929000Y-117707000D02*
X84071000Y-117707000D01*
X84071000Y-117707000D02*
X84071000Y-111103000D01*
X84071000Y-111103000D02*
X90929000Y-111103000D01*
D15*
X115798600Y-135026400D02*
X115798600Y-138074400D01*
X115798600Y-138074400D02*
X108686600Y-138074400D01*
X108686600Y-138074400D02*
X108686600Y-135026400D01*
X115798600Y-131978400D02*
X115798600Y-131216400D01*
X115798600Y-131216400D02*
X114274600Y-128930400D01*
X114274600Y-128930400D02*
X110210600Y-128930400D01*
X110210600Y-128930400D02*
X108686600Y-131216400D01*
X108686600Y-131216400D02*
X108686600Y-131978400D01*
D13*
X115900200Y-133527800D02*
X115900200Y-133400800D01*
X115900200Y-133400800D02*
X121234200Y-133400800D01*
X121234200Y-137210800D02*
X115900200Y-137210800D01*
X115900200Y-137210800D02*
X115900200Y-133527800D01*
X115900200Y-135813800D02*
X116408200Y-135813800D01*
X116408200Y-135813800D02*
X116408200Y-134797800D01*
X116408200Y-134797800D02*
X115900200Y-134797800D01*
X121234200Y-137210800D02*
X121234200Y-133400800D01*
D10*
X113750800Y-141219400D02*
X113750800Y-141919400D01*
X114950800Y-141919400D02*
X114950800Y-141219400D01*
X116295600Y-141168600D02*
X116295600Y-141868600D01*
X117495600Y-141868600D02*
X117495600Y-141168600D01*
X109989881Y-103497143D02*
X109513690Y-103163809D01*
X109989881Y-102925714D02*
X108989881Y-102925714D01*
X108989881Y-103306667D01*
X109037500Y-103401905D01*
X109085119Y-103449524D01*
X109180357Y-103497143D01*
X109323214Y-103497143D01*
X109418452Y-103449524D01*
X109466071Y-103401905D01*
X109513690Y-103306667D01*
X109513690Y-102925714D01*
X109323214Y-104354286D02*
X109989881Y-104354286D01*
X108942262Y-104116190D02*
X109656548Y-103878095D01*
X109656548Y-104497143D01*
X109418452Y-105020952D02*
X109370833Y-104925714D01*
X109323214Y-104878095D01*
X109227976Y-104830476D01*
X109180357Y-104830476D01*
X109085119Y-104878095D01*
X109037500Y-104925714D01*
X108989881Y-105020952D01*
X108989881Y-105211429D01*
X109037500Y-105306667D01*
X109085119Y-105354286D01*
X109180357Y-105401905D01*
X109227976Y-105401905D01*
X109323214Y-105354286D01*
X109370833Y-105306667D01*
X109418452Y-105211429D01*
X109418452Y-105020952D01*
X109466071Y-104925714D01*
X109513690Y-104878095D01*
X109608929Y-104830476D01*
X109799405Y-104830476D01*
X109894643Y-104878095D01*
X109942262Y-104925714D01*
X109989881Y-105020952D01*
X109989881Y-105211429D01*
X109942262Y-105306667D01*
X109894643Y-105354286D01*
X109799405Y-105401905D01*
X109608929Y-105401905D01*
X109513690Y-105354286D01*
X109466071Y-105306667D01*
X109418452Y-105211429D01*
X111640881Y-103497143D02*
X111164690Y-103163809D01*
X111640881Y-102925714D02*
X110640881Y-102925714D01*
X110640881Y-103306667D01*
X110688500Y-103401905D01*
X110736119Y-103449524D01*
X110831357Y-103497143D01*
X110974214Y-103497143D01*
X111069452Y-103449524D01*
X111117071Y-103401905D01*
X111164690Y-103306667D01*
X111164690Y-102925714D01*
X110640881Y-104401905D02*
X110640881Y-103925714D01*
X111117071Y-103878095D01*
X111069452Y-103925714D01*
X111021833Y-104020952D01*
X111021833Y-104259048D01*
X111069452Y-104354286D01*
X111117071Y-104401905D01*
X111212310Y-104449524D01*
X111450405Y-104449524D01*
X111545643Y-104401905D01*
X111593262Y-104354286D01*
X111640881Y-104259048D01*
X111640881Y-104020952D01*
X111593262Y-103925714D01*
X111545643Y-103878095D01*
X111640881Y-105401905D02*
X111640881Y-104830476D01*
X111640881Y-105116190D02*
X110640881Y-105116190D01*
X110783738Y-105020952D01*
X110878976Y-104925714D01*
X110926595Y-104830476D01*
D13*
X100203000Y-128605643D02*
X100239286Y-128641929D01*
X100348143Y-128678214D01*
X100420714Y-128678214D01*
X100529571Y-128641929D01*
X100602143Y-128569357D01*
X100638428Y-128496786D01*
X100674714Y-128351643D01*
X100674714Y-128242786D01*
X100638428Y-128097643D01*
X100602143Y-128025071D01*
X100529571Y-127952500D01*
X100420714Y-127916214D01*
X100348143Y-127916214D01*
X100239286Y-127952500D01*
X100203000Y-127988786D01*
X99767571Y-128242786D02*
X99840143Y-128206500D01*
X99876428Y-128170214D01*
X99912714Y-128097643D01*
X99912714Y-128061357D01*
X99876428Y-127988786D01*
X99840143Y-127952500D01*
X99767571Y-127916214D01*
X99622428Y-127916214D01*
X99549857Y-127952500D01*
X99513571Y-127988786D01*
X99477286Y-128061357D01*
X99477286Y-128097643D01*
X99513571Y-128170214D01*
X99549857Y-128206500D01*
X99622428Y-128242786D01*
X99767571Y-128242786D01*
X99840143Y-128279071D01*
X99876428Y-128315357D01*
X99912714Y-128387929D01*
X99912714Y-128533071D01*
X99876428Y-128605643D01*
X99840143Y-128641929D01*
X99767571Y-128678214D01*
X99622428Y-128678214D01*
X99549857Y-128641929D01*
X99513571Y-128605643D01*
X99477286Y-128533071D01*
X99477286Y-128387929D01*
X99513571Y-128315357D01*
X99549857Y-128279071D01*
X99622428Y-128242786D01*
D10*
X125991857Y-121388143D02*
X126039476Y-121435762D01*
X126182333Y-121483381D01*
X126277571Y-121483381D01*
X126420429Y-121435762D01*
X126515667Y-121340524D01*
X126563286Y-121245286D01*
X126610905Y-121054810D01*
X126610905Y-120911952D01*
X126563286Y-120721476D01*
X126515667Y-120626238D01*
X126420429Y-120531000D01*
X126277571Y-120483381D01*
X126182333Y-120483381D01*
X126039476Y-120531000D01*
X125991857Y-120578619D01*
X125039476Y-121483381D02*
X125610905Y-121483381D01*
X125325191Y-121483381D02*
X125325191Y-120483381D01*
X125420429Y-120626238D01*
X125515667Y-120721476D01*
X125610905Y-120769095D01*
X124420429Y-120483381D02*
X124325190Y-120483381D01*
X124229952Y-120531000D01*
X124182333Y-120578619D01*
X124134714Y-120673857D01*
X124087095Y-120864333D01*
X124087095Y-121102429D01*
X124134714Y-121292905D01*
X124182333Y-121388143D01*
X124229952Y-121435762D01*
X124325190Y-121483381D01*
X124420429Y-121483381D01*
X124515667Y-121435762D01*
X124563286Y-121388143D01*
X124610905Y-121292905D01*
X124658524Y-121102429D01*
X124658524Y-120864333D01*
X124610905Y-120673857D01*
X124563286Y-120578619D01*
X124515667Y-120531000D01*
X124420429Y-120483381D01*
X126499857Y-131294143D02*
X126547476Y-131341762D01*
X126690333Y-131389381D01*
X126785571Y-131389381D01*
X126928429Y-131341762D01*
X127023667Y-131246524D01*
X127071286Y-131151286D01*
X127118905Y-130960810D01*
X127118905Y-130817952D01*
X127071286Y-130627476D01*
X127023667Y-130532238D01*
X126928429Y-130437000D01*
X126785571Y-130389381D01*
X126690333Y-130389381D01*
X126547476Y-130437000D01*
X126499857Y-130484619D01*
X125547476Y-131389381D02*
X126118905Y-131389381D01*
X125833191Y-131389381D02*
X125833191Y-130389381D01*
X125928429Y-130532238D01*
X126023667Y-130627476D01*
X126118905Y-130675095D01*
X124595095Y-131389381D02*
X125166524Y-131389381D01*
X124880810Y-131389381D02*
X124880810Y-130389381D01*
X124976048Y-130532238D01*
X125071286Y-130627476D01*
X125166524Y-130675095D01*
X129801857Y-124626643D02*
X129849476Y-124674262D01*
X129992333Y-124721881D01*
X130087571Y-124721881D01*
X130230429Y-124674262D01*
X130325667Y-124579024D01*
X130373286Y-124483786D01*
X130420905Y-124293310D01*
X130420905Y-124150452D01*
X130373286Y-123959976D01*
X130325667Y-123864738D01*
X130230429Y-123769500D01*
X130087571Y-123721881D01*
X129992333Y-123721881D01*
X129849476Y-123769500D01*
X129801857Y-123817119D01*
X128849476Y-124721881D02*
X129420905Y-124721881D01*
X129135191Y-124721881D02*
X129135191Y-123721881D01*
X129230429Y-123864738D01*
X129325667Y-123959976D01*
X129420905Y-124007595D01*
X128468524Y-123817119D02*
X128420905Y-123769500D01*
X128325667Y-123721881D01*
X128087571Y-123721881D01*
X127992333Y-123769500D01*
X127944714Y-123817119D01*
X127897095Y-123912357D01*
X127897095Y-124007595D01*
X127944714Y-124150452D01*
X128516143Y-124721881D01*
X127897095Y-124721881D01*
X123324857Y-131294143D02*
X123372476Y-131341762D01*
X123515333Y-131389381D01*
X123610571Y-131389381D01*
X123753429Y-131341762D01*
X123848667Y-131246524D01*
X123896286Y-131151286D01*
X123943905Y-130960810D01*
X123943905Y-130817952D01*
X123896286Y-130627476D01*
X123848667Y-130532238D01*
X123753429Y-130437000D01*
X123610571Y-130389381D01*
X123515333Y-130389381D01*
X123372476Y-130437000D01*
X123324857Y-130484619D01*
X122372476Y-131389381D02*
X122943905Y-131389381D01*
X122658191Y-131389381D02*
X122658191Y-130389381D01*
X122753429Y-130532238D01*
X122848667Y-130627476D01*
X122943905Y-130675095D01*
X122039143Y-130389381D02*
X121420095Y-130389381D01*
X121753429Y-130770333D01*
X121610571Y-130770333D01*
X121515333Y-130817952D01*
X121467714Y-130865571D01*
X121420095Y-130960810D01*
X121420095Y-131198905D01*
X121467714Y-131294143D01*
X121515333Y-131341762D01*
X121610571Y-131389381D01*
X121896286Y-131389381D01*
X121991524Y-131341762D01*
X122039143Y-131294143D01*
X117800357Y-124372643D02*
X117847976Y-124420262D01*
X117990833Y-124467881D01*
X118086071Y-124467881D01*
X118228929Y-124420262D01*
X118324167Y-124325024D01*
X118371786Y-124229786D01*
X118419405Y-124039310D01*
X118419405Y-123896452D01*
X118371786Y-123705976D01*
X118324167Y-123610738D01*
X118228929Y-123515500D01*
X118086071Y-123467881D01*
X117990833Y-123467881D01*
X117847976Y-123515500D01*
X117800357Y-123563119D01*
X117419405Y-123563119D02*
X117371786Y-123515500D01*
X117276548Y-123467881D01*
X117038452Y-123467881D01*
X116943214Y-123515500D01*
X116895595Y-123563119D01*
X116847976Y-123658357D01*
X116847976Y-123753595D01*
X116895595Y-123896452D01*
X117467024Y-124467881D01*
X116847976Y-124467881D01*
X115990833Y-123801214D02*
X115990833Y-124467881D01*
X116228929Y-123420262D02*
X116467024Y-124134548D01*
X115847976Y-124134548D01*
X113037857Y-123166143D02*
X113085476Y-123213762D01*
X113228333Y-123261381D01*
X113323571Y-123261381D01*
X113466429Y-123213762D01*
X113561667Y-123118524D01*
X113609286Y-123023286D01*
X113656905Y-122832810D01*
X113656905Y-122689952D01*
X113609286Y-122499476D01*
X113561667Y-122404238D01*
X113466429Y-122309000D01*
X113323571Y-122261381D01*
X113228333Y-122261381D01*
X113085476Y-122309000D01*
X113037857Y-122356619D01*
X112656905Y-122356619D02*
X112609286Y-122309000D01*
X112514048Y-122261381D01*
X112275952Y-122261381D01*
X112180714Y-122309000D01*
X112133095Y-122356619D01*
X112085476Y-122451857D01*
X112085476Y-122547095D01*
X112133095Y-122689952D01*
X112704524Y-123261381D01*
X112085476Y-123261381D01*
X111180714Y-122261381D02*
X111656905Y-122261381D01*
X111704524Y-122737571D01*
X111656905Y-122689952D01*
X111561667Y-122642333D01*
X111323571Y-122642333D01*
X111228333Y-122689952D01*
X111180714Y-122737571D01*
X111133095Y-122832810D01*
X111133095Y-123070905D01*
X111180714Y-123166143D01*
X111228333Y-123213762D01*
X111323571Y-123261381D01*
X111561667Y-123261381D01*
X111656905Y-123213762D01*
X111704524Y-123166143D01*
X134881857Y-122912143D02*
X134929476Y-122959762D01*
X135072333Y-123007381D01*
X135167571Y-123007381D01*
X135310429Y-122959762D01*
X135405667Y-122864524D01*
X135453286Y-122769286D01*
X135500905Y-122578810D01*
X135500905Y-122435952D01*
X135453286Y-122245476D01*
X135405667Y-122150238D01*
X135310429Y-122055000D01*
X135167571Y-122007381D01*
X135072333Y-122007381D01*
X134929476Y-122055000D01*
X134881857Y-122102619D01*
X134548524Y-122007381D02*
X133929476Y-122007381D01*
X134262810Y-122388333D01*
X134119952Y-122388333D01*
X134024714Y-122435952D01*
X133977095Y-122483571D01*
X133929476Y-122578810D01*
X133929476Y-122816905D01*
X133977095Y-122912143D01*
X134024714Y-122959762D01*
X134119952Y-123007381D01*
X134405667Y-123007381D01*
X134500905Y-122959762D01*
X134548524Y-122912143D01*
X133548524Y-122102619D02*
X133500905Y-122055000D01*
X133405667Y-122007381D01*
X133167571Y-122007381D01*
X133072333Y-122055000D01*
X133024714Y-122102619D01*
X132977095Y-122197857D01*
X132977095Y-122293095D01*
X133024714Y-122435952D01*
X133596143Y-123007381D01*
X132977095Y-123007381D01*
D16*
X100558143Y-131585857D02*
X100593857Y-131621571D01*
X100701000Y-131657286D01*
X100772429Y-131657286D01*
X100879572Y-131621571D01*
X100951000Y-131550143D01*
X100986715Y-131478714D01*
X101022429Y-131335857D01*
X101022429Y-131228714D01*
X100986715Y-131085857D01*
X100951000Y-131014429D01*
X100879572Y-130943000D01*
X100772429Y-130907286D01*
X100701000Y-130907286D01*
X100593857Y-130943000D01*
X100558143Y-130978714D01*
X99915286Y-131157286D02*
X99915286Y-131657286D01*
X100093857Y-130871571D02*
X100272429Y-131407286D01*
X99808143Y-131407286D01*
X99379571Y-130907286D02*
X99308143Y-130907286D01*
X99236714Y-130943000D01*
X99201000Y-130978714D01*
X99165286Y-131050143D01*
X99129571Y-131193000D01*
X99129571Y-131371571D01*
X99165286Y-131514429D01*
X99201000Y-131585857D01*
X99236714Y-131621571D01*
X99308143Y-131657286D01*
X99379571Y-131657286D01*
X99451000Y-131621571D01*
X99486714Y-131585857D01*
X99522429Y-131514429D01*
X99558143Y-131371571D01*
X99558143Y-131193000D01*
X99522429Y-131050143D01*
X99486714Y-130978714D01*
X99451000Y-130943000D01*
X99379571Y-130907286D01*
D10*
X111228143Y-111180643D02*
X111275762Y-111133024D01*
X111323381Y-110990167D01*
X111323381Y-110894929D01*
X111275762Y-110752071D01*
X111180524Y-110656833D01*
X111085286Y-110609214D01*
X110894810Y-110561595D01*
X110751952Y-110561595D01*
X110561476Y-110609214D01*
X110466238Y-110656833D01*
X110371000Y-110752071D01*
X110323381Y-110894929D01*
X110323381Y-110990167D01*
X110371000Y-111133024D01*
X110418619Y-111180643D01*
X110656714Y-112037786D02*
X111323381Y-112037786D01*
X110275762Y-111799690D02*
X110990048Y-111561595D01*
X110990048Y-112180643D01*
X110323381Y-112466357D02*
X110323381Y-113085405D01*
X110704333Y-112752071D01*
X110704333Y-112894929D01*
X110751952Y-112990167D01*
X110799571Y-113037786D01*
X110894810Y-113085405D01*
X111132905Y-113085405D01*
X111228143Y-113037786D01*
X111275762Y-112990167D01*
X111323381Y-112894929D01*
X111323381Y-112609214D01*
X111275762Y-112513976D01*
X111228143Y-112466357D01*
X108878643Y-111244143D02*
X108926262Y-111196524D01*
X108973881Y-111053667D01*
X108973881Y-110958429D01*
X108926262Y-110815571D01*
X108831024Y-110720333D01*
X108735786Y-110672714D01*
X108545310Y-110625095D01*
X108402452Y-110625095D01*
X108211976Y-110672714D01*
X108116738Y-110720333D01*
X108021500Y-110815571D01*
X107973881Y-110958429D01*
X107973881Y-111053667D01*
X108021500Y-111196524D01*
X108069119Y-111244143D01*
X108307214Y-112101286D02*
X108973881Y-112101286D01*
X107926262Y-111863190D02*
X108640548Y-111625095D01*
X108640548Y-112244143D01*
X108307214Y-113053667D02*
X108973881Y-113053667D01*
X107926262Y-112815571D02*
X108640548Y-112577476D01*
X108640548Y-113196524D01*
X106402143Y-111244143D02*
X106449762Y-111196524D01*
X106497381Y-111053667D01*
X106497381Y-110958429D01*
X106449762Y-110815571D01*
X106354524Y-110720333D01*
X106259286Y-110672714D01*
X106068810Y-110625095D01*
X105925952Y-110625095D01*
X105735476Y-110672714D01*
X105640238Y-110720333D01*
X105545000Y-110815571D01*
X105497381Y-110958429D01*
X105497381Y-111053667D01*
X105545000Y-111196524D01*
X105592619Y-111244143D01*
X105830714Y-112101286D02*
X106497381Y-112101286D01*
X105449762Y-111863190D02*
X106164048Y-111625095D01*
X106164048Y-112244143D01*
X106497381Y-112672714D02*
X106497381Y-112863190D01*
X106449762Y-112958429D01*
X106402143Y-113006048D01*
X106259286Y-113101286D01*
X106068810Y-113148905D01*
X105687857Y-113148905D01*
X105592619Y-113101286D01*
X105545000Y-113053667D01*
X105497381Y-112958429D01*
X105497381Y-112767952D01*
X105545000Y-112672714D01*
X105592619Y-112625095D01*
X105687857Y-112577476D01*
X105925952Y-112577476D01*
X106021190Y-112625095D01*
X106068810Y-112672714D01*
X106116429Y-112767952D01*
X106116429Y-112958429D01*
X106068810Y-113053667D01*
X106021190Y-113101286D01*
X105925952Y-113148905D01*
D17*
X104596743Y-135903857D02*
X104632457Y-135939571D01*
X104739600Y-135975286D01*
X104811029Y-135975286D01*
X104918172Y-135939571D01*
X104989600Y-135868143D01*
X105025315Y-135796714D01*
X105061029Y-135653857D01*
X105061029Y-135546714D01*
X105025315Y-135403857D01*
X104989600Y-135332429D01*
X104918172Y-135261000D01*
X104811029Y-135225286D01*
X104739600Y-135225286D01*
X104632457Y-135261000D01*
X104596743Y-135296714D01*
X103918172Y-135225286D02*
X104275315Y-135225286D01*
X104311029Y-135582429D01*
X104275315Y-135546714D01*
X104203886Y-135511000D01*
X104025315Y-135511000D01*
X103953886Y-135546714D01*
X103918172Y-135582429D01*
X103882457Y-135653857D01*
X103882457Y-135832429D01*
X103918172Y-135903857D01*
X103953886Y-135939571D01*
X104025315Y-135975286D01*
X104203886Y-135975286D01*
X104275315Y-135939571D01*
X104311029Y-135903857D01*
X103168171Y-135975286D02*
X103596743Y-135975286D01*
X103382457Y-135975286D02*
X103382457Y-135225286D01*
X103453886Y-135332429D01*
X103525314Y-135403857D01*
X103596743Y-135439571D01*
D10*
X120689547Y-126150643D02*
X120737166Y-126198262D01*
X120880023Y-126245881D01*
X120975261Y-126245881D01*
X121118119Y-126198262D01*
X121213357Y-126103024D01*
X121260976Y-126007786D01*
X121308595Y-125817310D01*
X121308595Y-125674452D01*
X121260976Y-125483976D01*
X121213357Y-125388738D01*
X121118119Y-125293500D01*
X120975261Y-125245881D01*
X120880023Y-125245881D01*
X120737166Y-125293500D01*
X120689547Y-125341119D01*
X119832404Y-125579214D02*
X119832404Y-126245881D01*
X120070500Y-125198262D02*
X120308595Y-125912548D01*
X119689547Y-125912548D01*
X119118119Y-125245881D02*
X119022880Y-125245881D01*
X118927642Y-125293500D01*
X118880023Y-125341119D01*
X118832404Y-125436357D01*
X118784785Y-125626833D01*
X118784785Y-125864929D01*
X118832404Y-126055405D01*
X118880023Y-126150643D01*
X118927642Y-126198262D01*
X119022880Y-126245881D01*
X119118119Y-126245881D01*
X119213357Y-126198262D01*
X119260976Y-126150643D01*
X119308595Y-126055405D01*
X119356214Y-125864929D01*
X119356214Y-125626833D01*
X119308595Y-125436357D01*
X119260976Y-125341119D01*
X119213357Y-125293500D01*
X119118119Y-125245881D01*
X117832404Y-126245881D02*
X118403833Y-126245881D01*
X118118119Y-126245881D02*
X118118119Y-125245881D01*
X118213357Y-125388738D01*
X118308595Y-125483976D01*
X118403833Y-125531595D01*
X136696298Y-136204138D02*
X136696298Y-135454138D01*
X136517726Y-135454138D01*
X136410583Y-135489852D01*
X136339155Y-135561281D01*
X136303440Y-135632709D01*
X136267726Y-135775566D01*
X136267726Y-135882709D01*
X136303440Y-136025566D01*
X136339155Y-136096995D01*
X136410583Y-136168423D01*
X136517726Y-136204138D01*
X136696298Y-136204138D01*
X135553440Y-136204138D02*
X135982012Y-136204138D01*
X135767726Y-136204138D02*
X135767726Y-135454138D01*
X135839155Y-135561281D01*
X135910583Y-135632709D01*
X135982012Y-135668423D01*
X136632798Y-133727638D02*
X136632798Y-132977638D01*
X136454226Y-132977638D01*
X136347083Y-133013352D01*
X136275655Y-133084781D01*
X136239940Y-133156209D01*
X136204226Y-133299066D01*
X136204226Y-133406209D01*
X136239940Y-133549066D01*
X136275655Y-133620495D01*
X136347083Y-133691923D01*
X136454226Y-133727638D01*
X136632798Y-133727638D01*
X135918512Y-133049066D02*
X135882798Y-133013352D01*
X135811369Y-132977638D01*
X135632798Y-132977638D01*
X135561369Y-133013352D01*
X135525655Y-133049066D01*
X135489940Y-133120495D01*
X135489940Y-133191923D01*
X135525655Y-133299066D01*
X135954226Y-133727638D01*
X135489940Y-133727638D01*
X136696298Y-138934638D02*
X136696298Y-138184638D01*
X136517726Y-138184638D01*
X136410583Y-138220352D01*
X136339155Y-138291781D01*
X136303440Y-138363209D01*
X136267726Y-138506066D01*
X136267726Y-138613209D01*
X136303440Y-138756066D01*
X136339155Y-138827495D01*
X136410583Y-138898923D01*
X136517726Y-138934638D01*
X136696298Y-138934638D01*
X136017726Y-138184638D02*
X135553440Y-138184638D01*
X135803440Y-138470352D01*
X135696298Y-138470352D01*
X135624869Y-138506066D01*
X135589155Y-138541781D01*
X135553440Y-138613209D01*
X135553440Y-138791781D01*
X135589155Y-138863209D01*
X135624869Y-138898923D01*
X135696298Y-138934638D01*
X135910583Y-138934638D01*
X135982012Y-138898923D01*
X136017726Y-138863209D01*
X100560166Y-120848381D02*
X100893500Y-120372190D01*
X101131595Y-120848381D02*
X101131595Y-119848381D01*
X100750642Y-119848381D01*
X100655404Y-119896000D01*
X100607785Y-119943619D01*
X100560166Y-120038857D01*
X100560166Y-120181714D01*
X100607785Y-120276952D01*
X100655404Y-120324571D01*
X100750642Y-120372190D01*
X101131595Y-120372190D01*
X99607785Y-120848381D02*
X100179214Y-120848381D01*
X99893500Y-120848381D02*
X99893500Y-119848381D01*
X99988738Y-119991238D01*
X100083976Y-120086476D01*
X100179214Y-120134095D01*
X133770666Y-138945881D02*
X134104000Y-138469690D01*
X134342095Y-138945881D02*
X134342095Y-137945881D01*
X133961142Y-137945881D01*
X133865904Y-137993500D01*
X133818285Y-138041119D01*
X133770666Y-138136357D01*
X133770666Y-138279214D01*
X133818285Y-138374452D01*
X133865904Y-138422071D01*
X133961142Y-138469690D01*
X134342095Y-138469690D01*
X133437333Y-137945881D02*
X132770666Y-137945881D01*
X133199238Y-138945881D01*
X123166166Y-139009381D02*
X123499500Y-138533190D01*
X123737595Y-139009381D02*
X123737595Y-138009381D01*
X123356642Y-138009381D01*
X123261404Y-138057000D01*
X123213785Y-138104619D01*
X123166166Y-138199857D01*
X123166166Y-138342714D01*
X123213785Y-138437952D01*
X123261404Y-138485571D01*
X123356642Y-138533190D01*
X123737595Y-138533190D01*
X122594738Y-138437952D02*
X122689976Y-138390333D01*
X122737595Y-138342714D01*
X122785214Y-138247476D01*
X122785214Y-138199857D01*
X122737595Y-138104619D01*
X122689976Y-138057000D01*
X122594738Y-138009381D01*
X122404261Y-138009381D01*
X122309023Y-138057000D01*
X122261404Y-138104619D01*
X122213785Y-138199857D01*
X122213785Y-138247476D01*
X122261404Y-138342714D01*
X122309023Y-138390333D01*
X122404261Y-138437952D01*
X122594738Y-138437952D01*
X122689976Y-138485571D01*
X122737595Y-138533190D01*
X122785214Y-138628429D01*
X122785214Y-138818905D01*
X122737595Y-138914143D01*
X122689976Y-138961762D01*
X122594738Y-139009381D01*
X122404261Y-139009381D01*
X122309023Y-138961762D01*
X122261404Y-138914143D01*
X122213785Y-138818905D01*
X122213785Y-138628429D01*
X122261404Y-138533190D01*
X122309023Y-138485571D01*
X122404261Y-138437952D01*
X125325166Y-138945881D02*
X125658500Y-138469690D01*
X125896595Y-138945881D02*
X125896595Y-137945881D01*
X125515642Y-137945881D01*
X125420404Y-137993500D01*
X125372785Y-138041119D01*
X125325166Y-138136357D01*
X125325166Y-138279214D01*
X125372785Y-138374452D01*
X125420404Y-138422071D01*
X125515642Y-138469690D01*
X125896595Y-138469690D01*
X124848976Y-138945881D02*
X124658500Y-138945881D01*
X124563261Y-138898262D01*
X124515642Y-138850643D01*
X124420404Y-138707786D01*
X124372785Y-138517310D01*
X124372785Y-138136357D01*
X124420404Y-138041119D01*
X124468023Y-137993500D01*
X124563261Y-137945881D01*
X124753738Y-137945881D01*
X124848976Y-137993500D01*
X124896595Y-138041119D01*
X124944214Y-138136357D01*
X124944214Y-138374452D01*
X124896595Y-138469690D01*
X124848976Y-138517310D01*
X124753738Y-138564929D01*
X124563261Y-138564929D01*
X124468023Y-138517310D01*
X124420404Y-138469690D01*
X124372785Y-138374452D01*
X128468357Y-138945881D02*
X128801691Y-138469690D01*
X129039786Y-138945881D02*
X129039786Y-137945881D01*
X128658833Y-137945881D01*
X128563595Y-137993500D01*
X128515976Y-138041119D01*
X128468357Y-138136357D01*
X128468357Y-138279214D01*
X128515976Y-138374452D01*
X128563595Y-138422071D01*
X128658833Y-138469690D01*
X129039786Y-138469690D01*
X127515976Y-138945881D02*
X128087405Y-138945881D01*
X127801691Y-138945881D02*
X127801691Y-137945881D01*
X127896929Y-138088738D01*
X127992167Y-138183976D01*
X128087405Y-138231595D01*
X126896929Y-137945881D02*
X126801690Y-137945881D01*
X126706452Y-137993500D01*
X126658833Y-138041119D01*
X126611214Y-138136357D01*
X126563595Y-138326833D01*
X126563595Y-138564929D01*
X126611214Y-138755405D01*
X126658833Y-138850643D01*
X126706452Y-138898262D01*
X126801690Y-138945881D01*
X126896929Y-138945881D01*
X126992167Y-138898262D01*
X127039786Y-138850643D01*
X127087405Y-138755405D01*
X127135024Y-138564929D01*
X127135024Y-138326833D01*
X127087405Y-138136357D01*
X127039786Y-138041119D01*
X126992167Y-137993500D01*
X126896929Y-137945881D01*
X128468357Y-137231381D02*
X128801691Y-136755190D01*
X129039786Y-137231381D02*
X129039786Y-136231381D01*
X128658833Y-136231381D01*
X128563595Y-136279000D01*
X128515976Y-136326619D01*
X128468357Y-136421857D01*
X128468357Y-136564714D01*
X128515976Y-136659952D01*
X128563595Y-136707571D01*
X128658833Y-136755190D01*
X129039786Y-136755190D01*
X127515976Y-137231381D02*
X128087405Y-137231381D01*
X127801691Y-137231381D02*
X127801691Y-136231381D01*
X127896929Y-136374238D01*
X127992167Y-136469476D01*
X128087405Y-136517095D01*
X126563595Y-137231381D02*
X127135024Y-137231381D01*
X126849310Y-137231381D02*
X126849310Y-136231381D01*
X126944548Y-136374238D01*
X127039786Y-136469476D01*
X127135024Y-136517095D01*
X128468357Y-135834381D02*
X128801691Y-135358190D01*
X129039786Y-135834381D02*
X129039786Y-134834381D01*
X128658833Y-134834381D01*
X128563595Y-134882000D01*
X128515976Y-134929619D01*
X128468357Y-135024857D01*
X128468357Y-135167714D01*
X128515976Y-135262952D01*
X128563595Y-135310571D01*
X128658833Y-135358190D01*
X129039786Y-135358190D01*
X127515976Y-135834381D02*
X128087405Y-135834381D01*
X127801691Y-135834381D02*
X127801691Y-134834381D01*
X127896929Y-134977238D01*
X127992167Y-135072476D01*
X128087405Y-135120095D01*
X127135024Y-134929619D02*
X127087405Y-134882000D01*
X126992167Y-134834381D01*
X126754071Y-134834381D01*
X126658833Y-134882000D01*
X126611214Y-134929619D01*
X126563595Y-135024857D01*
X126563595Y-135120095D01*
X126611214Y-135262952D01*
X127182643Y-135834381D01*
X126563595Y-135834381D01*
X128468357Y-134437381D02*
X128801691Y-133961190D01*
X129039786Y-134437381D02*
X129039786Y-133437381D01*
X128658833Y-133437381D01*
X128563595Y-133485000D01*
X128515976Y-133532619D01*
X128468357Y-133627857D01*
X128468357Y-133770714D01*
X128515976Y-133865952D01*
X128563595Y-133913571D01*
X128658833Y-133961190D01*
X129039786Y-133961190D01*
X127515976Y-134437381D02*
X128087405Y-134437381D01*
X127801691Y-134437381D02*
X127801691Y-133437381D01*
X127896929Y-133580238D01*
X127992167Y-133675476D01*
X128087405Y-133723095D01*
X127182643Y-133437381D02*
X126563595Y-133437381D01*
X126896929Y-133818333D01*
X126754071Y-133818333D01*
X126658833Y-133865952D01*
X126611214Y-133913571D01*
X126563595Y-134008810D01*
X126563595Y-134246905D01*
X126611214Y-134342143D01*
X126658833Y-134389762D01*
X126754071Y-134437381D01*
X127039786Y-134437381D01*
X127135024Y-134389762D01*
X127182643Y-134342143D01*
X136688369Y-137537638D02*
X136938369Y-137180495D01*
X137116941Y-137537638D02*
X137116941Y-136787638D01*
X136831226Y-136787638D01*
X136759798Y-136823352D01*
X136724083Y-136859066D01*
X136688369Y-136930495D01*
X136688369Y-137037638D01*
X136724083Y-137109066D01*
X136759798Y-137144781D01*
X136831226Y-137180495D01*
X137116941Y-137180495D01*
X136402655Y-136859066D02*
X136366941Y-136823352D01*
X136295512Y-136787638D01*
X136116941Y-136787638D01*
X136045512Y-136823352D01*
X136009798Y-136859066D01*
X135974083Y-136930495D01*
X135974083Y-137001923D01*
X136009798Y-137109066D01*
X136438369Y-137537638D01*
X135974083Y-137537638D01*
X135688369Y-136859066D02*
X135652655Y-136823352D01*
X135581226Y-136787638D01*
X135402655Y-136787638D01*
X135331226Y-136823352D01*
X135295512Y-136859066D01*
X135259797Y-136930495D01*
X135259797Y-137001923D01*
X135295512Y-137109066D01*
X135724083Y-137537638D01*
X135259797Y-137537638D01*
X135199357Y-119578381D02*
X135532691Y-119102190D01*
X135770786Y-119578381D02*
X135770786Y-118578381D01*
X135389833Y-118578381D01*
X135294595Y-118626000D01*
X135246976Y-118673619D01*
X135199357Y-118768857D01*
X135199357Y-118911714D01*
X135246976Y-119006952D01*
X135294595Y-119054571D01*
X135389833Y-119102190D01*
X135770786Y-119102190D01*
X134818405Y-118673619D02*
X134770786Y-118626000D01*
X134675548Y-118578381D01*
X134437452Y-118578381D01*
X134342214Y-118626000D01*
X134294595Y-118673619D01*
X134246976Y-118768857D01*
X134246976Y-118864095D01*
X134294595Y-119006952D01*
X134866024Y-119578381D01*
X134246976Y-119578381D01*
X133913643Y-118578381D02*
X133294595Y-118578381D01*
X133627929Y-118959333D01*
X133485071Y-118959333D01*
X133389833Y-119006952D01*
X133342214Y-119054571D01*
X133294595Y-119149810D01*
X133294595Y-119387905D01*
X133342214Y-119483143D01*
X133389833Y-119530762D01*
X133485071Y-119578381D01*
X133770786Y-119578381D01*
X133866024Y-119530762D01*
X133913643Y-119483143D01*
X133421357Y-114942881D02*
X133754691Y-114466690D01*
X133992786Y-114942881D02*
X133992786Y-113942881D01*
X133611833Y-113942881D01*
X133516595Y-113990500D01*
X133468976Y-114038119D01*
X133421357Y-114133357D01*
X133421357Y-114276214D01*
X133468976Y-114371452D01*
X133516595Y-114419071D01*
X133611833Y-114466690D01*
X133992786Y-114466690D01*
X133040405Y-114038119D02*
X132992786Y-113990500D01*
X132897548Y-113942881D01*
X132659452Y-113942881D01*
X132564214Y-113990500D01*
X132516595Y-114038119D01*
X132468976Y-114133357D01*
X132468976Y-114228595D01*
X132516595Y-114371452D01*
X133088024Y-114942881D01*
X132468976Y-114942881D01*
X131611833Y-113942881D02*
X131802310Y-113942881D01*
X131897548Y-113990500D01*
X131945167Y-114038119D01*
X132040405Y-114180976D01*
X132088024Y-114371452D01*
X132088024Y-114752405D01*
X132040405Y-114847643D01*
X131992786Y-114895262D01*
X131897548Y-114942881D01*
X131707071Y-114942881D01*
X131611833Y-114895262D01*
X131564214Y-114847643D01*
X131516595Y-114752405D01*
X131516595Y-114514310D01*
X131564214Y-114419071D01*
X131611833Y-114371452D01*
X131707071Y-114323833D01*
X131897548Y-114323833D01*
X131992786Y-114371452D01*
X132040405Y-114419071D01*
X132088024Y-114514310D01*
X104414581Y-103497143D02*
X103938390Y-103163809D01*
X104414581Y-102925714D02*
X103414581Y-102925714D01*
X103414581Y-103306667D01*
X103462200Y-103401905D01*
X103509819Y-103449524D01*
X103605057Y-103497143D01*
X103747914Y-103497143D01*
X103843152Y-103449524D01*
X103890771Y-103401905D01*
X103938390Y-103306667D01*
X103938390Y-102925714D01*
X103414581Y-103830476D02*
X103414581Y-104449524D01*
X103795533Y-104116190D01*
X103795533Y-104259048D01*
X103843152Y-104354286D01*
X103890771Y-104401905D01*
X103986010Y-104449524D01*
X104224105Y-104449524D01*
X104319343Y-104401905D01*
X104366962Y-104354286D01*
X104414581Y-104259048D01*
X104414581Y-103973333D01*
X104366962Y-103878095D01*
X104319343Y-103830476D01*
X103414581Y-105068571D02*
X103414581Y-105163810D01*
X103462200Y-105259048D01*
X103509819Y-105306667D01*
X103605057Y-105354286D01*
X103795533Y-105401905D01*
X104033629Y-105401905D01*
X104224105Y-105354286D01*
X104319343Y-105306667D01*
X104366962Y-105259048D01*
X104414581Y-105163810D01*
X104414581Y-105068571D01*
X104366962Y-104973333D01*
X104319343Y-104925714D01*
X104224105Y-104878095D01*
X104033629Y-104830476D01*
X103795533Y-104830476D01*
X103605057Y-104878095D01*
X103509819Y-104925714D01*
X103462200Y-104973333D01*
X103414581Y-105068571D01*
X131706857Y-119578381D02*
X132040191Y-119102190D01*
X132278286Y-119578381D02*
X132278286Y-118578381D01*
X131897333Y-118578381D01*
X131802095Y-118626000D01*
X131754476Y-118673619D01*
X131706857Y-118768857D01*
X131706857Y-118911714D01*
X131754476Y-119006952D01*
X131802095Y-119054571D01*
X131897333Y-119102190D01*
X132278286Y-119102190D01*
X131373524Y-118578381D02*
X130754476Y-118578381D01*
X131087810Y-118959333D01*
X130944952Y-118959333D01*
X130849714Y-119006952D01*
X130802095Y-119054571D01*
X130754476Y-119149810D01*
X130754476Y-119387905D01*
X130802095Y-119483143D01*
X130849714Y-119530762D01*
X130944952Y-119578381D01*
X131230667Y-119578381D01*
X131325905Y-119530762D01*
X131373524Y-119483143D01*
X130373524Y-118673619D02*
X130325905Y-118626000D01*
X130230667Y-118578381D01*
X129992571Y-118578381D01*
X129897333Y-118626000D01*
X129849714Y-118673619D01*
X129802095Y-118768857D01*
X129802095Y-118864095D01*
X129849714Y-119006952D01*
X130421143Y-119578381D01*
X129802095Y-119578381D01*
X106230681Y-103497143D02*
X105754490Y-103163809D01*
X106230681Y-102925714D02*
X105230681Y-102925714D01*
X105230681Y-103306667D01*
X105278300Y-103401905D01*
X105325919Y-103449524D01*
X105421157Y-103497143D01*
X105564014Y-103497143D01*
X105659252Y-103449524D01*
X105706871Y-103401905D01*
X105754490Y-103306667D01*
X105754490Y-102925714D01*
X105230681Y-103830476D02*
X105230681Y-104449524D01*
X105611633Y-104116190D01*
X105611633Y-104259048D01*
X105659252Y-104354286D01*
X105706871Y-104401905D01*
X105802110Y-104449524D01*
X106040205Y-104449524D01*
X106135443Y-104401905D01*
X106183062Y-104354286D01*
X106230681Y-104259048D01*
X106230681Y-103973333D01*
X106183062Y-103878095D01*
X106135443Y-103830476D01*
X105230681Y-105306667D02*
X105230681Y-105116190D01*
X105278300Y-105020952D01*
X105325919Y-104973333D01*
X105468776Y-104878095D01*
X105659252Y-104830476D01*
X106040205Y-104830476D01*
X106135443Y-104878095D01*
X106183062Y-104925714D01*
X106230681Y-105020952D01*
X106230681Y-105211429D01*
X106183062Y-105306667D01*
X106135443Y-105354286D01*
X106040205Y-105401905D01*
X105802110Y-105401905D01*
X105706871Y-105354286D01*
X105659252Y-105306667D01*
X105611633Y-105211429D01*
X105611633Y-105020952D01*
X105659252Y-104925714D01*
X105706871Y-104878095D01*
X105802110Y-104830476D01*
X136688369Y-134997638D02*
X136938369Y-134640495D01*
X137116941Y-134997638D02*
X137116941Y-134247638D01*
X136831226Y-134247638D01*
X136759798Y-134283352D01*
X136724083Y-134319066D01*
X136688369Y-134390495D01*
X136688369Y-134497638D01*
X136724083Y-134569066D01*
X136759798Y-134604781D01*
X136831226Y-134640495D01*
X137116941Y-134640495D01*
X136438369Y-134247638D02*
X135974083Y-134247638D01*
X136224083Y-134533352D01*
X136116941Y-134533352D01*
X136045512Y-134569066D01*
X136009798Y-134604781D01*
X135974083Y-134676209D01*
X135974083Y-134854781D01*
X136009798Y-134926209D01*
X136045512Y-134961923D01*
X136116941Y-134997638D01*
X136331226Y-134997638D01*
X136402655Y-134961923D01*
X136438369Y-134926209D01*
X135724083Y-134247638D02*
X135224083Y-134247638D01*
X135545512Y-134997638D01*
X136688369Y-132584638D02*
X136938369Y-132227495D01*
X137116941Y-132584638D02*
X137116941Y-131834638D01*
X136831226Y-131834638D01*
X136759798Y-131870352D01*
X136724083Y-131906066D01*
X136688369Y-131977495D01*
X136688369Y-132084638D01*
X136724083Y-132156066D01*
X136759798Y-132191781D01*
X136831226Y-132227495D01*
X137116941Y-132227495D01*
X136438369Y-131834638D02*
X135974083Y-131834638D01*
X136224083Y-132120352D01*
X136116941Y-132120352D01*
X136045512Y-132156066D01*
X136009798Y-132191781D01*
X135974083Y-132263209D01*
X135974083Y-132441781D01*
X136009798Y-132513209D01*
X136045512Y-132548923D01*
X136116941Y-132584638D01*
X136331226Y-132584638D01*
X136402655Y-132548923D01*
X136438369Y-132513209D01*
X135545512Y-132156066D02*
X135616940Y-132120352D01*
X135652655Y-132084638D01*
X135688369Y-132013209D01*
X135688369Y-131977495D01*
X135652655Y-131906066D01*
X135616940Y-131870352D01*
X135545512Y-131834638D01*
X135402655Y-131834638D01*
X135331226Y-131870352D01*
X135295512Y-131906066D01*
X135259797Y-131977495D01*
X135259797Y-132013209D01*
X135295512Y-132084638D01*
X135331226Y-132120352D01*
X135402655Y-132156066D01*
X135545512Y-132156066D01*
X135616940Y-132191781D01*
X135652655Y-132227495D01*
X135688369Y-132298923D01*
X135688369Y-132441781D01*
X135652655Y-132513209D01*
X135616940Y-132548923D01*
X135545512Y-132584638D01*
X135402655Y-132584638D01*
X135331226Y-132548923D01*
X135295512Y-132513209D01*
X135259797Y-132441781D01*
X135259797Y-132298923D01*
X135295512Y-132227495D01*
X135331226Y-132191781D01*
X135402655Y-132156066D01*
X108097581Y-103497143D02*
X107621390Y-103163809D01*
X108097581Y-102925714D02*
X107097581Y-102925714D01*
X107097581Y-103306667D01*
X107145200Y-103401905D01*
X107192819Y-103449524D01*
X107288057Y-103497143D01*
X107430914Y-103497143D01*
X107526152Y-103449524D01*
X107573771Y-103401905D01*
X107621390Y-103306667D01*
X107621390Y-102925714D01*
X107430914Y-104354286D02*
X108097581Y-104354286D01*
X107049962Y-104116190D02*
X107764248Y-103878095D01*
X107764248Y-104497143D01*
X107097581Y-105306667D02*
X107097581Y-105116190D01*
X107145200Y-105020952D01*
X107192819Y-104973333D01*
X107335676Y-104878095D01*
X107526152Y-104830476D01*
X107907105Y-104830476D01*
X108002343Y-104878095D01*
X108049962Y-104925714D01*
X108097581Y-105020952D01*
X108097581Y-105211429D01*
X108049962Y-105306667D01*
X108002343Y-105354286D01*
X107907105Y-105401905D01*
X107669010Y-105401905D01*
X107573771Y-105354286D01*
X107526152Y-105306667D01*
X107478533Y-105211429D01*
X107478533Y-105020952D01*
X107526152Y-104925714D01*
X107573771Y-104878095D01*
X107669010Y-104830476D01*
D12*
X69764571Y-115246476D02*
X70181238Y-114651238D01*
X70478857Y-115246476D02*
X70478857Y-113996476D01*
X70002666Y-113996476D01*
X69883619Y-114056000D01*
X69824095Y-114115524D01*
X69764571Y-114234571D01*
X69764571Y-114413143D01*
X69824095Y-114532190D01*
X69883619Y-114591714D01*
X70002666Y-114651238D01*
X70478857Y-114651238D01*
X68633619Y-113996476D02*
X69228857Y-113996476D01*
X69288381Y-114591714D01*
X69228857Y-114532190D01*
X69109809Y-114472667D01*
X68812190Y-114472667D01*
X68693143Y-114532190D01*
X68633619Y-114591714D01*
X68574095Y-114710762D01*
X68574095Y-115008381D01*
X68633619Y-115127429D01*
X68693143Y-115186952D01*
X68812190Y-115246476D01*
X69109809Y-115246476D01*
X69228857Y-115186952D01*
X69288381Y-115127429D01*
X68157429Y-113996476D02*
X67383619Y-113996476D01*
X67800286Y-114472667D01*
X67621714Y-114472667D01*
X67502667Y-114532190D01*
X67443143Y-114591714D01*
X67383619Y-114710762D01*
X67383619Y-115008381D01*
X67443143Y-115127429D01*
X67502667Y-115186952D01*
X67621714Y-115246476D01*
X67978857Y-115246476D01*
X68097905Y-115186952D01*
X68157429Y-115127429D01*
X95799571Y-115182976D02*
X96216238Y-114587738D01*
X96513857Y-115182976D02*
X96513857Y-113932976D01*
X96037666Y-113932976D01*
X95918619Y-113992500D01*
X95859095Y-114052024D01*
X95799571Y-114171071D01*
X95799571Y-114349643D01*
X95859095Y-114468690D01*
X95918619Y-114528214D01*
X96037666Y-114587738D01*
X96513857Y-114587738D01*
X94668619Y-113932976D02*
X95263857Y-113932976D01*
X95323381Y-114528214D01*
X95263857Y-114468690D01*
X95144809Y-114409167D01*
X94847190Y-114409167D01*
X94728143Y-114468690D01*
X94668619Y-114528214D01*
X94609095Y-114647262D01*
X94609095Y-114944881D01*
X94668619Y-115063929D01*
X94728143Y-115123452D01*
X94847190Y-115182976D01*
X95144809Y-115182976D01*
X95263857Y-115123452D01*
X95323381Y-115063929D01*
X93537667Y-114349643D02*
X93537667Y-115182976D01*
X93835286Y-113873452D02*
X94132905Y-114766310D01*
X93359095Y-114766310D01*
D10*
X114184929Y-139289286D02*
X114542072Y-139289286D01*
X114577786Y-139646429D01*
X114542072Y-139610714D01*
X114470643Y-139575000D01*
X114292072Y-139575000D01*
X114220643Y-139610714D01*
X114184929Y-139646429D01*
X114149214Y-139717857D01*
X114149214Y-139896429D01*
X114184929Y-139967857D01*
X114220643Y-140003571D01*
X114292072Y-140039286D01*
X114470643Y-140039286D01*
X114542072Y-140003571D01*
X114577786Y-139967857D01*
X116760643Y-139289286D02*
X116903500Y-139289286D01*
X116974929Y-139325000D01*
X117010643Y-139360714D01*
X117082072Y-139467857D01*
X117117786Y-139610714D01*
X117117786Y-139896429D01*
X117082072Y-139967857D01*
X117046357Y-140003571D01*
X116974929Y-140039286D01*
X116832072Y-140039286D01*
X116760643Y-140003571D01*
X116724929Y-139967857D01*
X116689214Y-139896429D01*
X116689214Y-139717857D01*
X116724929Y-139646429D01*
X116760643Y-139610714D01*
X116832072Y-139575000D01*
X116974929Y-139575000D01*
X117046357Y-139610714D01*
X117082072Y-139646429D01*
X117117786Y-139717857D01*
%LPC*%
D18*
X109461300Y-108468200D03*
X109461300Y-106568200D03*
X111188500Y-108468200D03*
X111188500Y-106568200D03*
D19*
X118498620Y-105930700D03*
X118999000Y-105930700D03*
X119499380Y-105930700D03*
X119999760Y-105930700D03*
X120500140Y-105930700D03*
X120997980Y-105930700D03*
X121498360Y-105930700D03*
X121998740Y-105930700D03*
X122499120Y-105930700D03*
X122999500Y-105930700D03*
X123499880Y-105930700D03*
X114000280Y-105930700D03*
X114498120Y-105930700D03*
X114998500Y-105930700D03*
X119499380Y-113931700D03*
X115999260Y-105930700D03*
X116499640Y-105930700D03*
X117000020Y-105930700D03*
X117497860Y-105930700D03*
X117998240Y-105930700D03*
X121998740Y-113931700D03*
X121498360Y-113931700D03*
X120997980Y-113931700D03*
X120500140Y-113931700D03*
X119999760Y-113931700D03*
X115498880Y-105930700D03*
X118999000Y-113931700D03*
X118498620Y-113931700D03*
X117998240Y-113931700D03*
X117497860Y-113931700D03*
X117000020Y-113931700D03*
X116499640Y-113931700D03*
X115999260Y-113931700D03*
X127497840Y-113931700D03*
X127000000Y-113931700D03*
X126499620Y-113931700D03*
X125999240Y-113931700D03*
X125498860Y-113931700D03*
X124998480Y-113931700D03*
X124498100Y-113931700D03*
X124000260Y-113931700D03*
X123499880Y-113931700D03*
X122999500Y-113931700D03*
X122499120Y-113931700D03*
X115498880Y-113931700D03*
X114998500Y-113931700D03*
X114498120Y-113931700D03*
X114000280Y-113931700D03*
X124000260Y-105930700D03*
X124498100Y-105930700D03*
X124998480Y-105930700D03*
X125498860Y-105930700D03*
X125999240Y-105930700D03*
X126499620Y-105930700D03*
X127000000Y-105930700D03*
X127497840Y-105930700D03*
D20*
X120802400Y-109931200D03*
D21*
X105714800Y-128320800D03*
X102412800Y-128320800D03*
D22*
X125323600Y-122520200D03*
X125323600Y-124520200D03*
X124663200Y-129295400D03*
X124663200Y-127295400D03*
D23*
X130133600Y-125984000D03*
X128133600Y-125984000D03*
D22*
X122148600Y-129270000D03*
X122148600Y-127270000D03*
X116535200Y-127092200D03*
X116535200Y-129092200D03*
D24*
X113944400Y-125552200D03*
X110896400Y-125552200D03*
D22*
X134239000Y-124018800D03*
X134239000Y-126018800D03*
D21*
X105714800Y-131343400D03*
X102412800Y-131343400D03*
D25*
X110883700Y-114566700D03*
X110883700Y-117868700D03*
X108470700Y-114566700D03*
X108470700Y-117868700D03*
X105981500Y-114566700D03*
X105981500Y-117868700D03*
D26*
X106690160Y-135610600D03*
X101539040Y-135610600D03*
D22*
X119608600Y-130987800D03*
X119608600Y-128987800D03*
D27*
X70500000Y-133000000D03*
D28*
X66690000Y-122398040D03*
X67960000Y-122398040D03*
X69230000Y-122398040D03*
X71770000Y-122398040D03*
X73040000Y-122398040D03*
X74310000Y-122398040D03*
D27*
X81750000Y-133000000D03*
D28*
X77940000Y-122398040D03*
X79210000Y-122398040D03*
X80480000Y-122398040D03*
X83020000Y-122398040D03*
X84290000Y-122398040D03*
X85560000Y-122398040D03*
D27*
X93000000Y-133000000D03*
D28*
X89190000Y-122398040D03*
X90460000Y-122398040D03*
X91730000Y-122398040D03*
X94270000Y-122398040D03*
X95540000Y-122398040D03*
X96810000Y-122398040D03*
D18*
X100380800Y-123682800D03*
X100380800Y-121782800D03*
X132156200Y-141843800D03*
X132156200Y-139943800D03*
X124561600Y-141833600D03*
X124561600Y-139933600D03*
X127101600Y-141818400D03*
X127101600Y-139918400D03*
X129641600Y-141833600D03*
X129641600Y-139933600D03*
D29*
X129834600Y-138303000D03*
X131734600Y-138303000D03*
X129860000Y-136652000D03*
X131760000Y-136652000D03*
X129885400Y-134874000D03*
X131785400Y-134874000D03*
D18*
X134543800Y-115864600D03*
X134543800Y-117764600D03*
X132791200Y-115864600D03*
X132791200Y-117764600D03*
X103962200Y-106580900D03*
X103962200Y-108480900D03*
X131038600Y-115839200D03*
X131038600Y-117739200D03*
X105778300Y-106580900D03*
X105778300Y-108480900D03*
X107645200Y-106580900D03*
X107645200Y-108480900D03*
D30*
X79738500Y-115548000D03*
X73261500Y-115548000D03*
D31*
X79738500Y-111420500D03*
X73261500Y-111420500D03*
D30*
X90738500Y-115548000D03*
X84261500Y-115548000D03*
D31*
X90738500Y-111420500D03*
X84261500Y-111420500D03*
D32*
X112242600Y-130200400D03*
D33*
X112242600Y-136804400D03*
X109956600Y-136804400D03*
X114528600Y-136804400D03*
D34*
X116662200Y-137972800D03*
X116662200Y-132638800D03*
X117932200Y-137972800D03*
X119202200Y-137972800D03*
X120472200Y-137972800D03*
X117932200Y-132638800D03*
X119202200Y-132638800D03*
X120472200Y-132638800D03*
D35*
X114350800Y-140819400D03*
X114350800Y-142319400D03*
D10*
G36*
X114725800Y-142153200D02*
X113975800Y-142703200D01*
X113975800Y-141553200D01*
X114725800Y-142103200D01*
X114725800Y-142153200D01*
X114725800Y-142153200D01*
G37*
G36*
X113975800Y-142103200D02*
X114725800Y-141553200D01*
X114725800Y-142703200D01*
X113975800Y-142153200D01*
X113975800Y-142103200D01*
X113975800Y-142103200D01*
G37*
G36*
X114726760Y-141261400D02*
X114350760Y-141561400D01*
X114350760Y-140561400D01*
X114726760Y-140861400D01*
X114726760Y-141261400D01*
X114726760Y-141261400D01*
G37*
G36*
X113974840Y-140861400D02*
X114350840Y-140561400D01*
X114350840Y-141561400D01*
X113974840Y-141261400D01*
X113974840Y-140861400D01*
X113974840Y-140861400D01*
G37*
D35*
X116895600Y-140768600D03*
X116895600Y-142268600D03*
D10*
G36*
X117270600Y-142102400D02*
X116520600Y-142652400D01*
X116520600Y-141502400D01*
X117270600Y-142052400D01*
X117270600Y-142102400D01*
X117270600Y-142102400D01*
G37*
G36*
X116520600Y-142052400D02*
X117270600Y-141502400D01*
X117270600Y-142652400D01*
X116520600Y-142102400D01*
X116520600Y-142052400D01*
X116520600Y-142052400D01*
G37*
G36*
X117271560Y-141210600D02*
X116895560Y-141510600D01*
X116895560Y-140510600D01*
X117271560Y-140810600D01*
X117271560Y-141210600D01*
X117271560Y-141210600D01*
G37*
G36*
X116519640Y-140810600D02*
X116895640Y-140510600D01*
X116895640Y-141510600D01*
X116519640Y-141210600D01*
X116519640Y-140810600D01*
X116519640Y-140810600D01*
G37*
D36*
X111800000Y-146304000D03*
X114350000Y-146304000D03*
X109250000Y-146304000D03*
X116900000Y-146304000D03*
X119450000Y-146304000D03*
X127100000Y-146304000D03*
X129625000Y-146304000D03*
X122000000Y-146304000D03*
X124550000Y-146304000D03*
X132150000Y-146304000D03*
D37*
X104337500Y-146304000D03*
X81550000Y-146304000D03*
X89150000Y-146304000D03*
X73925000Y-146304000D03*
X96750000Y-146304000D03*
M02*
