G04 #@! TF.FileFunction,Copper,L3,Inr,Signal*
%FSLAX46Y46*%
G04 Gerber Fmt 4.6, Leading zero omitted, Abs format (unit mm)*
G04 Created by KiCad (PCBNEW 4.0.4-stable) date 05/10/17 13:17:29*
%MOMM*%
%LPD*%
G01*
G04 APERTURE LIST*
%ADD10C,0.150000*%
%ADD11C,0.508000*%
%ADD12C,0.800000*%
%ADD13C,0.254000*%
%ADD14C,0.406400*%
G04 APERTURE END LIST*
D10*
D11*
X96750000Y-133000000D03*
X95500000Y-133000000D03*
X94250000Y-133000000D03*
X93000000Y-133000000D03*
X91750000Y-133000000D03*
X90500000Y-133000000D03*
X90500000Y-134250000D03*
X91750000Y-134250000D03*
X93000000Y-134250000D03*
X94250000Y-134250000D03*
X95500000Y-134250000D03*
X96750000Y-134250000D03*
X96750000Y-135500000D03*
X95500000Y-135500000D03*
X94250000Y-135500000D03*
X93000000Y-135500000D03*
X91750000Y-135500000D03*
X90500000Y-135500000D03*
X109500000Y-121750000D03*
X110500000Y-119250000D03*
X110250000Y-120750000D03*
X110750000Y-122000000D03*
X111750000Y-120750000D03*
X110750000Y-123500000D03*
X113000000Y-119250000D03*
X122250000Y-102000000D03*
X123500000Y-102000000D03*
X124750000Y-102000000D03*
X126000000Y-102000000D03*
X127250000Y-102000000D03*
X128500000Y-102000000D03*
X138300000Y-114400000D03*
X138300000Y-113000000D03*
X138300000Y-111500000D03*
X138300000Y-109900000D03*
X137200000Y-109900000D03*
X136000000Y-109900000D03*
X134200000Y-105700000D03*
X135400000Y-104800000D03*
X136600000Y-104000000D03*
X137900000Y-103200000D03*
X133600000Y-102000000D03*
X135100000Y-102000000D03*
X136500000Y-102000000D03*
X137900000Y-102000000D03*
X66000000Y-114500000D03*
X66000000Y-113000000D03*
X66000000Y-111500000D03*
X66000000Y-110000000D03*
X70000000Y-102250000D03*
X68000000Y-102250000D03*
X66250000Y-102500000D03*
X67500000Y-103500000D03*
X68750000Y-104500000D03*
X70000000Y-105750000D03*
X70000000Y-107750000D03*
X69250000Y-109750000D03*
X67500000Y-110000000D03*
X87000000Y-145250000D03*
X88500000Y-145250000D03*
X90000000Y-145250000D03*
X91500000Y-145250000D03*
X91500000Y-144000000D03*
X90000000Y-144000000D03*
X88500000Y-144000000D03*
X87000000Y-144000000D03*
X92000000Y-141250000D03*
X90500000Y-141500000D03*
X89000000Y-141500000D03*
X88500000Y-143000000D03*
X90000000Y-143000000D03*
X91500000Y-143000000D03*
X92500000Y-142250000D03*
X93750000Y-141250000D03*
X95500000Y-140000000D03*
X94250000Y-140000000D03*
X93000000Y-140000000D03*
X91750000Y-140000000D03*
X90500000Y-140000000D03*
X89250000Y-140000000D03*
X87500000Y-141500000D03*
X87000000Y-143000000D03*
X76000000Y-145250000D03*
X74500000Y-145250000D03*
X73250000Y-145250000D03*
X71750000Y-145250000D03*
X71750000Y-144000000D03*
X73250000Y-144000000D03*
X74500000Y-144000000D03*
X76000000Y-144000000D03*
X71750000Y-141500000D03*
X74000000Y-141500000D03*
X69500000Y-141250000D03*
X70250000Y-142250000D03*
X71000000Y-143000000D03*
X72500000Y-143000000D03*
X73750000Y-143000000D03*
X75000000Y-143000000D03*
X76250000Y-143000000D03*
X76000000Y-141500000D03*
X75000000Y-140250000D03*
X73500000Y-140250000D03*
X72250000Y-140250000D03*
X71000000Y-140250000D03*
X69750000Y-140250000D03*
X68500000Y-140250000D03*
X66750000Y-134250000D03*
X66750000Y-133000000D03*
X68000000Y-133000000D03*
X68000000Y-134250000D03*
X68000000Y-135500000D03*
X69250000Y-135500000D03*
X69250000Y-134250000D03*
X69250000Y-133000000D03*
X70500000Y-133000000D03*
X70500000Y-134250000D03*
X70500000Y-135500000D03*
X71750000Y-135500000D03*
X71750000Y-134250000D03*
X71750000Y-133000000D03*
X73000000Y-133000000D03*
X73000000Y-134250000D03*
X73000000Y-135500000D03*
X74250000Y-135500000D03*
X74250000Y-134250000D03*
X74250000Y-133000000D03*
X79000000Y-145250000D03*
X80500000Y-145250000D03*
X83750000Y-145250000D03*
X82250000Y-145250000D03*
X79000000Y-144000000D03*
X80500000Y-144000000D03*
X82250000Y-144000000D03*
X83750000Y-144000000D03*
X83000000Y-141500000D03*
X80500000Y-141500000D03*
X78000000Y-140000000D03*
X78500000Y-141500000D03*
X79250000Y-143000000D03*
X80500000Y-143000000D03*
X81750000Y-143000000D03*
X83000000Y-143000000D03*
X84250000Y-143000000D03*
X85000000Y-141500000D03*
X85500000Y-140006709D03*
X84290000Y-140006709D03*
X83000000Y-140000000D03*
X81750000Y-140000000D03*
X80500000Y-140000000D03*
X79250000Y-140000000D03*
X79250000Y-135500000D03*
X79250000Y-134250000D03*
X79250000Y-133000000D03*
X80500000Y-133000000D03*
X80500000Y-134250000D03*
X80500000Y-135500000D03*
X81750000Y-135500000D03*
X81750000Y-134250000D03*
X81750000Y-133000000D03*
X83000000Y-133000000D03*
X83000000Y-134250000D03*
X83000000Y-135500000D03*
X84250000Y-133000000D03*
X84250000Y-134250000D03*
X84250000Y-135500000D03*
X85500000Y-135500000D03*
X85500000Y-134250000D03*
X85500000Y-133000000D03*
X96250000Y-112000000D03*
X95500000Y-111250000D03*
X94500000Y-110750000D03*
X80750000Y-108500000D03*
X82250000Y-108500000D03*
X81000000Y-109750000D03*
X79750000Y-109750000D03*
X90000000Y-109750000D03*
X93500000Y-111250000D03*
X94500000Y-112000000D03*
X95500000Y-112750000D03*
X71250000Y-114000000D03*
X71250000Y-115500000D03*
X69500000Y-115500000D03*
X69000000Y-117500000D03*
X71250000Y-117500000D03*
X73750000Y-113250000D03*
X72750000Y-113250000D03*
X72750000Y-114750000D03*
X73750000Y-114750000D03*
X73750000Y-116250000D03*
X72750000Y-116250000D03*
X72750000Y-117500000D03*
X73750000Y-117500000D03*
X74250000Y-120000000D03*
X73000000Y-120000000D03*
X71750000Y-120000000D03*
X70500000Y-120000000D03*
X69250000Y-120000000D03*
X68000000Y-120000000D03*
X91250000Y-117750000D03*
X91250000Y-116250000D03*
X91250000Y-114750000D03*
X91250000Y-113250000D03*
X90250000Y-113250000D03*
X90250000Y-114750000D03*
X90250000Y-116250000D03*
X90250000Y-117750000D03*
X90500000Y-120000000D03*
X91750000Y-120000000D03*
X93000000Y-120000000D03*
X94250000Y-120000000D03*
X95500000Y-120000000D03*
X96500000Y-120000000D03*
X77750000Y-113250000D03*
X77750000Y-114750000D03*
X77750000Y-116250000D03*
X77750000Y-117750000D03*
X77750000Y-119000000D03*
X82000000Y-113250000D03*
X82000000Y-114750000D03*
X82000000Y-116250000D03*
X82000000Y-117750000D03*
X83750000Y-117750000D03*
X84750000Y-117750000D03*
X84750000Y-116250000D03*
X83750000Y-116250000D03*
X83750000Y-114750000D03*
X84750000Y-114750000D03*
X84750000Y-113250000D03*
X83750000Y-113250000D03*
X79250000Y-113250000D03*
X80250000Y-113250000D03*
X80250000Y-114750000D03*
X79250000Y-114750000D03*
X79250000Y-116250000D03*
X80250000Y-116250000D03*
X80250000Y-117750000D03*
X79250000Y-117750000D03*
X81750000Y-119000000D03*
X81750000Y-120000000D03*
X85250000Y-119000000D03*
X84250000Y-119000000D03*
X83000000Y-119000000D03*
X80500000Y-119000000D03*
X79250000Y-119000000D03*
X79250000Y-120000000D03*
X80500000Y-120000000D03*
X83000000Y-120000000D03*
X84250000Y-120000000D03*
X85250000Y-120000000D03*
X100250000Y-118750000D03*
X101000000Y-117750000D03*
X99250000Y-118250000D03*
X98250000Y-117250000D03*
X99750000Y-117000000D03*
X98250000Y-116250000D03*
X98500000Y-115250000D03*
X99750000Y-116000000D03*
X101000000Y-116250000D03*
X102250000Y-116250000D03*
X102500000Y-117750000D03*
X101250000Y-119000000D03*
X99750000Y-120000000D03*
X106500000Y-127500000D03*
X107750000Y-125000000D03*
X106000000Y-141750000D03*
X104250000Y-141750000D03*
X107750000Y-141750000D03*
X108500000Y-140250000D03*
X108500000Y-138500000D03*
X108500000Y-136750000D03*
X108500000Y-135000000D03*
X108500000Y-133250000D03*
X108500000Y-131250000D03*
X108500000Y-129750000D03*
X107500000Y-128750000D03*
X108500000Y-126000000D03*
X108500000Y-124250000D03*
X109250000Y-123500000D03*
X108500000Y-122500000D03*
X107588817Y-123314800D03*
X106750000Y-124250000D03*
X105250000Y-126250000D03*
X105000000Y-127500000D03*
X105000000Y-129750000D03*
X105000000Y-131250000D03*
X105000000Y-133250000D03*
X105000000Y-135000000D03*
X105000000Y-136750000D03*
X104500000Y-139000000D03*
X103500000Y-140500000D03*
X102500000Y-141750000D03*
X105750000Y-145250000D03*
X104500000Y-145250000D03*
X103250000Y-145250000D03*
X102000000Y-145250000D03*
X102000000Y-144000000D03*
X103250000Y-144000000D03*
X104500000Y-144000000D03*
X105750000Y-144000000D03*
X107000000Y-143000000D03*
X105750000Y-143000000D03*
X104500000Y-143000000D03*
X103250000Y-143000000D03*
X102000000Y-143000000D03*
X93750000Y-126250000D03*
X91250000Y-126250000D03*
X84500000Y-126500000D03*
X82000000Y-126500000D03*
X79500000Y-126500000D03*
X72250000Y-126500000D03*
X69750000Y-126500000D03*
X67000000Y-126500000D03*
X75000000Y-126250000D03*
X86250000Y-126500000D03*
X77250000Y-126500000D03*
X88750000Y-126250000D03*
X93750000Y-127750000D03*
X92500000Y-127750000D03*
X91250000Y-127750000D03*
X90000000Y-127750000D03*
X88750000Y-127750000D03*
X87500000Y-127750000D03*
X86000000Y-127750000D03*
X84500000Y-127750000D03*
X83250000Y-127750000D03*
X82000000Y-127750000D03*
X80750000Y-127750000D03*
X79500000Y-127750000D03*
X78000000Y-127750000D03*
X76500000Y-127750000D03*
X75000000Y-127750000D03*
X73500000Y-127750000D03*
X72250000Y-127750000D03*
X71000000Y-127750000D03*
X69750000Y-127750000D03*
X68500000Y-127750000D03*
X67000000Y-128750000D03*
X65500000Y-130750000D03*
X65500000Y-129500000D03*
X65500000Y-128000000D03*
X65500000Y-126500000D03*
X65500000Y-125000000D03*
X67000000Y-125000000D03*
X68500000Y-125000000D03*
X69750000Y-125000000D03*
X71000000Y-125000000D03*
X72250000Y-125000000D03*
X73500000Y-125000000D03*
X75000000Y-125000000D03*
X76500000Y-125000000D03*
X78000000Y-125000000D03*
X79500000Y-125000000D03*
X80750000Y-125000000D03*
X82000000Y-125000000D03*
X83250000Y-125000000D03*
X84500000Y-125000000D03*
X86000000Y-125000000D03*
X87500000Y-125000000D03*
X88750000Y-125000000D03*
X90000000Y-125000000D03*
X91250000Y-125000000D03*
X92500000Y-125000000D03*
X93750000Y-125000000D03*
X95000000Y-125000000D03*
X96250000Y-125000000D03*
X98750000Y-123750000D03*
X98500000Y-124750000D03*
X95500000Y-127750000D03*
X96250000Y-127000000D03*
X97000000Y-126250000D03*
X97750000Y-125500000D03*
X94750000Y-145250000D03*
X96000000Y-145250000D03*
X97250000Y-145250000D03*
X98500000Y-145250000D03*
X98500000Y-144000000D03*
X97250000Y-144000000D03*
X96000000Y-144000000D03*
X94750000Y-144000000D03*
X102250000Y-130000000D03*
X101000000Y-131000000D03*
X102500000Y-128500000D03*
X98750000Y-142000000D03*
X97500000Y-142000000D03*
X96000000Y-143000000D03*
X97250000Y-143000000D03*
X98500000Y-143000000D03*
X99750000Y-143000000D03*
X100500000Y-142000000D03*
X101250000Y-141000000D03*
X102000000Y-139750000D03*
X103000000Y-138500000D03*
X103500000Y-136750000D03*
X103500000Y-135000000D03*
X103500000Y-133250000D03*
X103500000Y-131250000D03*
X103500000Y-129750000D03*
X103500000Y-127500000D03*
X101000000Y-129750000D03*
X99750000Y-131250000D03*
X99750000Y-133250000D03*
X99750000Y-135000000D03*
X99750000Y-136750000D03*
X99750000Y-138500000D03*
X98250000Y-139750000D03*
X97000000Y-141000000D03*
X96000000Y-142000000D03*
X94750000Y-143002000D03*
X118897400Y-142073394D03*
D12*
X110134400Y-134975600D03*
D11*
X115478615Y-138079955D03*
X110921800Y-138658600D03*
X127025400Y-109474000D03*
X118324500Y-125056334D03*
X121250542Y-126224665D03*
X132781051Y-126415800D03*
X126250700Y-115176300D03*
X121414530Y-115544600D03*
X116382800Y-112445800D03*
X122692600Y-112448552D03*
X121361200Y-112674400D03*
X119938800Y-112674400D03*
X114792778Y-112727344D03*
X125442796Y-107138486D03*
X121576202Y-107346935D03*
X118591595Y-107440284D03*
X116205438Y-104037264D03*
X115489658Y-104190811D03*
X111671722Y-104823863D03*
X114075263Y-107595681D03*
X113368335Y-107514902D03*
X103962200Y-116128800D03*
X65582800Y-138201400D03*
X103925697Y-109366441D03*
X66662300Y-118795800D03*
X107050264Y-111489886D03*
X76307600Y-138324822D03*
X105778300Y-109651800D03*
X76530200Y-120230900D03*
X107780073Y-112955263D03*
X87286062Y-138269806D03*
X87477656Y-108130859D03*
X107459056Y-109849905D03*
X124988881Y-112723758D03*
X124273857Y-104720637D03*
X117297188Y-131628166D03*
X122239397Y-130684411D03*
X118740555Y-135578850D03*
X127934892Y-124960867D03*
X112234216Y-134809986D03*
X124256800Y-116128810D03*
X117172076Y-133744609D03*
X138468100Y-138391900D03*
X118396851Y-117023261D03*
X109543782Y-128716004D03*
X100777259Y-122926682D03*
X122527647Y-142518553D03*
X124304193Y-134803829D03*
X126949200Y-127660400D03*
X128447800Y-127660400D03*
X127279400Y-124307600D03*
X123037600Y-124307600D03*
X129743209Y-133680200D03*
X109918500Y-115912900D03*
X115735100Y-117094000D03*
X122901298Y-125558114D03*
X120142010Y-119164450D03*
X121651082Y-104150338D03*
X118884700Y-102577900D03*
X107696000Y-104914700D03*
X88798400Y-111480600D03*
X134518400Y-118541800D03*
X131953000Y-118491000D03*
X123494117Y-104657498D03*
X122440700Y-103873300D03*
X131064000Y-118465600D03*
X120352008Y-104185258D03*
X119183596Y-104306742D03*
X117880438Y-107432011D03*
X117665500Y-103597510D03*
X99604857Y-109469708D03*
X98805789Y-107302366D03*
X122905309Y-119205680D03*
X123469583Y-119710775D03*
X120022466Y-116886264D03*
X120243600Y-122123200D03*
X122402600Y-116154200D03*
X116913650Y-115239800D03*
X118668800Y-122555000D03*
X118321022Y-115489588D03*
X117398800Y-120065800D03*
X118262400Y-123621800D03*
X118620967Y-124413381D03*
X118844945Y-112622147D03*
X114837761Y-116211621D03*
X120289706Y-115221708D03*
X123012200Y-131140200D03*
X125247400Y-116128810D03*
X124917190Y-131208779D03*
X118516609Y-126125834D03*
X117779361Y-115975876D03*
X115341400Y-118338600D03*
X120957993Y-126878979D03*
X119437581Y-116326779D03*
X118383887Y-128067204D03*
X119489433Y-115358496D03*
X123015108Y-140981923D03*
X122555000Y-138150600D03*
X130803174Y-139909047D03*
X127078250Y-138803340D03*
X125346634Y-138947226D03*
X137700000Y-135400000D03*
X126132514Y-119155007D03*
X137700000Y-133500000D03*
X125399810Y-119426636D03*
X128244600Y-133553200D03*
X127939800Y-131089400D03*
X129108200Y-118033800D03*
X99872800Y-122631200D03*
X132689600Y-125501400D03*
X131057520Y-141860018D03*
X125528198Y-107844552D03*
X119760006Y-107385017D03*
X120977612Y-104527448D03*
X117143036Y-107434657D03*
X116255800Y-107619800D03*
X130073400Y-131648200D03*
X127381000Y-133858000D03*
X125806200Y-134772400D03*
X125907800Y-130911600D03*
X121562016Y-133420271D03*
X113323204Y-140680835D03*
X121716484Y-123774155D03*
X122806318Y-122658954D03*
X127695742Y-122687226D03*
X128962499Y-134652099D03*
X118007881Y-138862319D03*
X121440241Y-125412448D03*
X118019013Y-142073394D03*
X122410327Y-140452610D03*
X126548072Y-122217148D03*
X123520200Y-122199400D03*
X123317000Y-134670800D03*
X118948200Y-139319000D03*
X125882490Y-118489192D03*
X121183400Y-134874000D03*
X127254000Y-122123200D03*
X130378200Y-132918200D03*
X127508000Y-108051600D03*
X123219538Y-116128810D03*
X113858815Y-112771966D03*
X125399810Y-117753082D03*
X124635102Y-112044528D03*
D12*
X110286800Y-127863600D03*
D11*
X131902200Y-131064000D03*
X113512600Y-136855200D03*
X120570736Y-141969357D03*
X129819400Y-124899430D03*
X123317000Y-128977671D03*
X127279400Y-128977671D03*
X128701800Y-123545600D03*
D12*
X112090200Y-139623800D03*
X111302800Y-140411200D03*
D11*
X128933432Y-137998189D03*
X131313295Y-142755486D03*
X125730000Y-138226800D03*
X126233295Y-142755486D03*
X124259136Y-138087845D03*
X123698000Y-142773400D03*
X127838200Y-138328400D03*
X128761165Y-142772992D03*
D13*
X121414530Y-115544600D02*
X125882400Y-115544600D01*
X125882400Y-115544600D02*
X126250700Y-115176300D01*
X117719910Y-113423700D02*
X121717452Y-113423700D01*
X121717452Y-113423700D02*
X122692600Y-112448552D01*
X116382800Y-112445800D02*
X116742010Y-112445800D01*
X116742010Y-112445800D02*
X117719910Y-113423700D01*
D14*
X65582800Y-138201400D02*
X65582800Y-131696247D01*
X68453837Y-128825210D02*
X95847276Y-128825210D01*
X65582800Y-131696247D02*
X68453837Y-128825210D01*
X95847276Y-128825210D02*
X103962200Y-120710286D01*
X103962200Y-120710286D02*
X103962200Y-116488010D01*
X103962200Y-116488010D02*
X103962200Y-116128800D01*
X104673400Y-113866750D02*
X106796265Y-111743885D01*
X104673400Y-120884189D02*
X104673400Y-113866750D01*
X106796265Y-111743885D02*
X107050264Y-111489886D01*
X96068991Y-129488598D02*
X104673400Y-120884189D01*
X78702502Y-129488598D02*
X96068991Y-129488598D01*
X76307600Y-138324822D02*
X76307600Y-131883500D01*
X76307600Y-131883500D02*
X78702502Y-129488598D01*
X106539948Y-120787847D02*
X106539948Y-114267230D01*
X107780073Y-113027105D02*
X107780073Y-112955263D01*
X106539948Y-114267230D02*
X107780073Y-113027105D01*
X87286062Y-132157238D02*
X88275072Y-131168228D01*
X96159567Y-131168228D02*
X106539948Y-120787847D01*
X87286062Y-138269806D02*
X87286062Y-132157238D01*
X88275072Y-131168228D02*
X96159567Y-131168228D01*
D13*
X111099600Y-117094000D02*
X109918500Y-115912900D01*
X115735100Y-117094000D02*
X111099600Y-117094000D01*
D14*
X88798400Y-111480600D02*
X88798400Y-107175300D01*
X88798400Y-107175300D02*
X90240302Y-105733398D01*
X90240302Y-105733398D02*
X106877302Y-105733398D01*
X106877302Y-105733398D02*
X107696000Y-104914700D01*
D13*
X120276465Y-117140263D02*
X120022466Y-116886264D01*
X121132600Y-117996398D02*
X120276465Y-117140263D01*
X120243600Y-122123200D02*
X121132600Y-121234200D01*
X121132600Y-121234200D02*
X121132600Y-117996398D01*
X118981053Y-116719997D02*
X118623487Y-116362431D01*
X118981053Y-122242747D02*
X118981053Y-116719997D01*
X116913650Y-115599010D02*
X116913650Y-115239800D01*
X118623487Y-116362431D02*
X118232987Y-116362431D01*
X116913650Y-116051068D02*
X116913650Y-115599010D01*
X118009417Y-116586001D02*
X117448583Y-116586001D01*
X117448583Y-116586001D02*
X116913650Y-116051068D01*
X118668800Y-122555000D02*
X118981053Y-122242747D01*
X118232987Y-116362431D02*
X118009417Y-116586001D01*
X124282200Y-129870200D02*
X124282200Y-119239601D01*
X124282200Y-119239601D02*
X120543705Y-115501106D01*
X123012200Y-131140200D02*
X124282200Y-129870200D01*
X120543705Y-115475707D02*
X120289706Y-115221708D01*
X120543705Y-115501106D02*
X120543705Y-115475707D01*
X124815600Y-130747979D02*
X124815600Y-116560610D01*
X124917190Y-130849569D02*
X124815600Y-130747979D01*
X124917190Y-131208779D02*
X124917190Y-130849569D01*
X124815600Y-116560610D02*
X124993401Y-116382809D01*
X124993401Y-116382809D02*
X125247400Y-116128810D01*
X115341400Y-118338600D02*
X115341400Y-122950625D01*
X115341400Y-122950625D02*
X118262610Y-125871835D01*
X118262610Y-125871835D02*
X118516609Y-126125834D01*
X120703994Y-126624980D02*
X120957993Y-126878979D01*
X119438264Y-125359250D02*
X120703994Y-126624980D01*
X119438264Y-116686672D02*
X119438264Y-125359250D01*
X119437581Y-116685989D02*
X119438264Y-116686672D01*
X119437581Y-116326779D02*
X119437581Y-116685989D01*
X118743097Y-128067204D02*
X118383887Y-128067204D01*
X120979796Y-128067204D02*
X118743097Y-128067204D01*
X120878600Y-123986189D02*
X122024442Y-125132031D01*
X122024442Y-125132031D02*
X122024442Y-127022558D01*
X120878600Y-122134792D02*
X120878600Y-123986189D01*
X121589809Y-121423583D02*
X120878600Y-122134792D01*
X121589810Y-117458873D02*
X121589809Y-121423583D01*
X119489433Y-115358496D02*
X121589810Y-117458873D01*
X122024442Y-127022558D02*
X120979796Y-128067204D01*
D14*
X75806300Y-139750800D02*
X76165510Y-139750800D01*
X76165510Y-139750800D02*
X77216000Y-138700310D01*
X77216000Y-138700310D02*
X77216000Y-132118100D01*
X77216000Y-132118100D02*
X78955900Y-130378200D01*
X78955900Y-130378200D02*
X96064492Y-130378200D01*
X96064492Y-130378200D02*
X105663301Y-120779391D01*
X112378474Y-105725991D02*
X122563631Y-105725991D01*
X122563631Y-105725991D02*
X124682192Y-107844552D01*
X105663301Y-120779391D02*
X105663301Y-114094639D01*
X105663301Y-114094639D02*
X111604639Y-108153301D01*
X111604639Y-108153301D02*
X111604639Y-106499826D01*
X111604639Y-106499826D02*
X112378474Y-105725991D01*
X124682192Y-107844552D02*
X125168988Y-107844552D01*
X125168988Y-107844552D02*
X125528198Y-107844552D01*
X119029600Y-106654611D02*
X119506007Y-107131018D01*
X88000535Y-132714825D02*
X88865895Y-131849465D01*
X107594400Y-114074898D02*
X112707934Y-108961364D01*
X107594400Y-120699766D02*
X107594400Y-114074898D01*
X87389090Y-139864710D02*
X88000535Y-139253265D01*
X113275951Y-106654611D02*
X119029600Y-106654611D01*
X112707934Y-108961364D02*
X112707934Y-107222628D01*
X96444701Y-131849465D02*
X107594400Y-120699766D01*
X88865895Y-131849465D02*
X96444701Y-131849465D01*
X85420200Y-139864710D02*
X87389090Y-139864710D01*
X88000535Y-139253265D02*
X88000535Y-132714825D01*
X119506007Y-107131018D02*
X119760006Y-107385017D01*
X112707934Y-107222628D02*
X113275951Y-106654611D01*
X95402400Y-140160180D02*
X96656162Y-140160180D01*
X96656162Y-140160180D02*
X98685282Y-138131060D01*
X98685282Y-138131060D02*
X98685282Y-130471004D01*
X98685282Y-130471004D02*
X108407200Y-120749086D01*
X108407200Y-120749086D02*
X108407200Y-115010275D01*
X108407200Y-115010275D02*
X114735664Y-108681811D01*
X114735664Y-108681811D02*
X114735664Y-107866403D01*
X114735664Y-107866403D02*
X114982267Y-107619800D01*
X114982267Y-107619800D02*
X116255800Y-107619800D01*
D13*
X113323204Y-140744216D02*
X113323204Y-140680835D01*
X114022459Y-140680835D02*
X113682414Y-140680835D01*
X113538000Y-140959012D02*
X113323204Y-140744216D01*
X117873494Y-136829800D02*
X114022459Y-140680835D01*
X126784798Y-136829800D02*
X117873494Y-136829800D01*
X128962499Y-134652099D02*
X126784798Y-136829800D01*
X113682414Y-140680835D02*
X113323204Y-140680835D01*
G36*
X103873000Y-137860473D02*
X100860518Y-142231302D01*
X99933387Y-143573000D01*
X93627000Y-143573000D01*
X93627000Y-143356863D01*
X96268501Y-140998380D01*
X96656162Y-140998380D01*
X96976928Y-140934576D01*
X97248859Y-140752877D01*
X99277979Y-138723757D01*
X99459678Y-138451826D01*
X99523482Y-138131060D01*
X99523482Y-130818198D01*
X103873000Y-126468680D01*
X103873000Y-137860473D01*
X103873000Y-137860473D01*
G37*
X103873000Y-137860473D02*
X100860518Y-142231302D01*
X99933387Y-143573000D01*
X93627000Y-143573000D01*
X93627000Y-143356863D01*
X96268501Y-140998380D01*
X96656162Y-140998380D01*
X96976928Y-140934576D01*
X97248859Y-140752877D01*
X99277979Y-138723757D01*
X99459678Y-138451826D01*
X99523482Y-138131060D01*
X99523482Y-130818198D01*
X103873000Y-126468680D01*
X103873000Y-137860473D01*
G36*
X99118703Y-123134120D02*
X99368564Y-123384418D01*
X99695191Y-123520046D01*
X99966809Y-123520283D01*
X95500082Y-127987010D01*
X68453837Y-127987010D01*
X68133072Y-128050814D01*
X68133070Y-128050815D01*
X68133071Y-128050815D01*
X67861140Y-128232513D01*
X65127000Y-130966653D01*
X65127000Y-123243315D01*
X66103574Y-124382651D01*
X66143327Y-124413654D01*
X66200407Y-124426999D01*
X97400407Y-124326999D01*
X97449785Y-124316835D01*
X97500663Y-124277433D01*
X98462535Y-123027000D01*
X99074442Y-123027000D01*
X99118703Y-123134120D01*
X99118703Y-123134120D01*
G37*
X99118703Y-123134120D02*
X99368564Y-123384418D01*
X99695191Y-123520046D01*
X99966809Y-123520283D01*
X95500082Y-127987010D01*
X68453837Y-127987010D01*
X68133072Y-128050814D01*
X68133070Y-128050815D01*
X68133071Y-128050815D01*
X67861140Y-128232513D01*
X65127000Y-130966653D01*
X65127000Y-123243315D01*
X66103574Y-124382651D01*
X66143327Y-124413654D01*
X66200407Y-124426999D01*
X97400407Y-124326999D01*
X97449785Y-124316835D01*
X97500663Y-124277433D01*
X98462535Y-123027000D01*
X99074442Y-123027000D01*
X99118703Y-123134120D01*
G36*
X132989197Y-101568805D02*
X132799278Y-101575223D01*
X132697674Y-101913980D01*
X132733441Y-102265833D01*
X132799278Y-102424777D01*
X132989200Y-102431195D01*
X133420395Y-102000000D01*
X133406253Y-101985858D01*
X133585858Y-101806253D01*
X133600000Y-101820395D01*
X133614143Y-101806253D01*
X133793748Y-101985858D01*
X133779605Y-102000000D01*
X134210800Y-102431195D01*
X134350000Y-102426491D01*
X134489200Y-102431195D01*
X134920395Y-102000000D01*
X134906253Y-101985858D01*
X135085858Y-101806253D01*
X135100000Y-101820395D01*
X135114143Y-101806253D01*
X135293748Y-101985858D01*
X135279605Y-102000000D01*
X135695669Y-102416064D01*
X135699278Y-102424777D01*
X135704561Y-102424956D01*
X135710800Y-102431195D01*
X135800000Y-102428181D01*
X135889200Y-102431195D01*
X135895439Y-102424956D01*
X135900722Y-102424777D01*
X135902909Y-102417486D01*
X136320395Y-102000000D01*
X136306253Y-101985858D01*
X136485858Y-101806253D01*
X136500000Y-101820395D01*
X136514143Y-101806253D01*
X136693748Y-101985858D01*
X136679605Y-102000000D01*
X137095669Y-102416064D01*
X137099278Y-102424777D01*
X137104561Y-102424956D01*
X137110800Y-102431195D01*
X137200000Y-102428181D01*
X137289200Y-102431195D01*
X137295439Y-102424956D01*
X137300722Y-102424777D01*
X137302909Y-102417486D01*
X137720395Y-102000000D01*
X137706253Y-101985858D01*
X137885858Y-101806253D01*
X137900000Y-101820395D01*
X137914143Y-101806253D01*
X138093748Y-101985858D01*
X138079605Y-102000000D01*
X138510800Y-102431195D01*
X138700722Y-102424777D01*
X138714000Y-102380507D01*
X138714000Y-102807279D01*
X138700722Y-102775223D01*
X138510800Y-102768805D01*
X138079605Y-103200000D01*
X138093748Y-103214143D01*
X137974897Y-103332993D01*
X137900701Y-103380306D01*
X137900000Y-103379605D01*
X137896829Y-103382776D01*
X137883430Y-103391320D01*
X137706253Y-103214143D01*
X137720395Y-103200000D01*
X137289200Y-102768805D01*
X137099278Y-102775223D01*
X136997674Y-103113980D01*
X137005765Y-103193576D01*
X136686020Y-103097674D01*
X136334167Y-103133441D01*
X136175223Y-103199278D01*
X136168805Y-103389200D01*
X136600000Y-103820395D01*
X136614143Y-103806253D01*
X136793748Y-103985858D01*
X136779605Y-104000000D01*
X136793748Y-104014143D01*
X136614143Y-104193748D01*
X136600000Y-104179605D01*
X136585858Y-104193748D01*
X136406253Y-104014143D01*
X136420395Y-104000000D01*
X135989200Y-103568805D01*
X135799278Y-103575223D01*
X135697674Y-103913980D01*
X135702620Y-103962639D01*
X135486020Y-103897674D01*
X135134167Y-103933441D01*
X134975223Y-103999278D01*
X134968805Y-104189200D01*
X135400000Y-104620395D01*
X135414143Y-104606253D01*
X135593748Y-104785858D01*
X135579605Y-104800000D01*
X135593748Y-104814143D01*
X135490897Y-104916993D01*
X135379890Y-104987780D01*
X135206253Y-104814143D01*
X135220395Y-104800000D01*
X134789200Y-104368805D01*
X134599278Y-104375223D01*
X134497674Y-104713980D01*
X134513105Y-104865784D01*
X134286020Y-104797674D01*
X133934167Y-104833441D01*
X133775223Y-104899278D01*
X133768805Y-105089200D01*
X134200000Y-105520395D01*
X134214143Y-105506253D01*
X134393748Y-105685858D01*
X134379605Y-105700000D01*
X134393748Y-105714143D01*
X134214143Y-105893748D01*
X134200000Y-105879605D01*
X133768805Y-106310800D01*
X133775223Y-106500722D01*
X134113980Y-106602326D01*
X134332500Y-106580113D01*
X134332500Y-108521500D01*
X134386546Y-108793205D01*
X134540454Y-109023546D01*
X134770795Y-109177454D01*
X135042500Y-109231500D01*
X135570755Y-109231500D01*
X135568805Y-109289200D01*
X136000000Y-109720395D01*
X136431195Y-109289200D01*
X136429245Y-109231500D01*
X136770755Y-109231500D01*
X136768805Y-109289200D01*
X137200000Y-109720395D01*
X137631195Y-109289200D01*
X137629245Y-109231500D01*
X137870755Y-109231500D01*
X137868805Y-109289200D01*
X138300000Y-109720395D01*
X138314143Y-109706253D01*
X138493748Y-109885858D01*
X138479605Y-109900000D01*
X138493748Y-109914143D01*
X138314143Y-110093748D01*
X138300000Y-110079605D01*
X137868805Y-110510800D01*
X137875199Y-110700000D01*
X137868805Y-110889200D01*
X138300000Y-111320395D01*
X138314143Y-111306253D01*
X138493748Y-111485858D01*
X138479605Y-111500000D01*
X138493748Y-111514143D01*
X138314143Y-111693748D01*
X138300000Y-111679605D01*
X137868805Y-112110800D01*
X137873509Y-112250000D01*
X137868805Y-112389200D01*
X138300000Y-112820395D01*
X138314143Y-112806253D01*
X138493748Y-112985858D01*
X138479605Y-113000000D01*
X138493748Y-113014143D01*
X138314143Y-113193748D01*
X138300000Y-113179605D01*
X137883936Y-113595669D01*
X137875223Y-113599278D01*
X137875044Y-113604561D01*
X137868805Y-113610800D01*
X137871819Y-113700000D01*
X137868805Y-113789200D01*
X137875044Y-113795439D01*
X137875223Y-113800722D01*
X137882514Y-113802909D01*
X138300000Y-114220395D01*
X138314143Y-114206253D01*
X138493748Y-114385858D01*
X138479605Y-114400000D01*
X138493748Y-114414143D01*
X138314143Y-114593748D01*
X138300000Y-114579605D01*
X137868805Y-115010800D01*
X137875223Y-115200722D01*
X138213980Y-115302326D01*
X138565833Y-115266559D01*
X138713806Y-115205266D01*
X138713160Y-137531062D01*
X138645709Y-137503054D01*
X138292043Y-137502746D01*
X137965180Y-137637803D01*
X137714882Y-137887664D01*
X137579254Y-138214291D01*
X137578946Y-138567957D01*
X137714003Y-138894820D01*
X137807212Y-138988192D01*
X134675358Y-142590797D01*
X134404007Y-142590797D01*
X134400000Y-142590000D01*
X134244154Y-142621000D01*
X132202413Y-142621000D01*
X132202449Y-142579429D01*
X132067392Y-142252566D01*
X131918888Y-142103802D01*
X131946366Y-142037627D01*
X131946674Y-141683961D01*
X131811617Y-141357098D01*
X131561756Y-141106800D01*
X131235129Y-140971172D01*
X130881463Y-140970864D01*
X130554600Y-141105921D01*
X130304302Y-141355782D01*
X130168674Y-141682409D01*
X130168366Y-142036075D01*
X130303423Y-142362938D01*
X130451927Y-142511702D01*
X130424449Y-142577877D01*
X130424411Y-142621000D01*
X129650298Y-142621000D01*
X129650319Y-142596935D01*
X129515262Y-142270072D01*
X129265401Y-142019774D01*
X128938774Y-141884146D01*
X128585108Y-141883838D01*
X128258245Y-142018895D01*
X128007947Y-142268756D01*
X127872319Y-142595383D01*
X127872297Y-142621000D01*
X127122413Y-142621000D01*
X127122449Y-142579429D01*
X126987392Y-142252566D01*
X126737531Y-142002268D01*
X126410904Y-141866640D01*
X126057238Y-141866332D01*
X125730375Y-142001389D01*
X125480077Y-142251250D01*
X125344449Y-142577877D01*
X125344411Y-142621000D01*
X124587133Y-142621000D01*
X124587154Y-142597343D01*
X124452097Y-142270480D01*
X124202236Y-142020182D01*
X123875609Y-141884554D01*
X123521943Y-141884246D01*
X123259030Y-141992879D01*
X123137394Y-141871030D01*
X123191165Y-141871077D01*
X123518028Y-141736020D01*
X123768326Y-141486159D01*
X123903954Y-141159532D01*
X123904262Y-140805866D01*
X123769205Y-140479003D01*
X123519344Y-140228705D01*
X123230081Y-140108592D01*
X123220376Y-140085104D01*
X129914020Y-140085104D01*
X130049077Y-140411967D01*
X130298938Y-140662265D01*
X130625565Y-140797893D01*
X130979231Y-140798201D01*
X131306094Y-140663144D01*
X131556392Y-140413283D01*
X131692020Y-140086656D01*
X131692328Y-139732990D01*
X131557271Y-139406127D01*
X131307410Y-139155829D01*
X130980783Y-139020201D01*
X130627117Y-139019893D01*
X130300254Y-139154950D01*
X130049956Y-139404811D01*
X129914328Y-139731438D01*
X129914020Y-140085104D01*
X123220376Y-140085104D01*
X123164424Y-139949690D01*
X122914563Y-139699392D01*
X122587936Y-139563764D01*
X122234270Y-139563456D01*
X121907407Y-139698513D01*
X121657109Y-139948374D01*
X121521481Y-140275001D01*
X121521173Y-140628667D01*
X121656230Y-140955530D01*
X121906091Y-141205828D01*
X122195354Y-141325941D01*
X122261011Y-141484843D01*
X122405361Y-141629446D01*
X122351590Y-141629399D01*
X122024727Y-141764456D01*
X121774429Y-142014317D01*
X121638801Y-142340944D01*
X121638557Y-142621000D01*
X119607172Y-142621000D01*
X119650618Y-142577630D01*
X119786246Y-142251003D01*
X119786554Y-141897337D01*
X119651497Y-141570474D01*
X119401636Y-141320176D01*
X119075009Y-141184548D01*
X118721343Y-141184240D01*
X118457963Y-141293067D01*
X118196622Y-141184548D01*
X117842956Y-141184240D01*
X117516093Y-141319297D01*
X117265795Y-141569158D01*
X117130167Y-141895785D01*
X117129859Y-142249451D01*
X117264916Y-142576314D01*
X117309524Y-142621000D01*
X109601000Y-142621000D01*
X109601000Y-140856892D01*
X112434050Y-140856892D01*
X112569107Y-141183755D01*
X112818968Y-141434053D01*
X113042904Y-141527040D01*
X113246395Y-141663008D01*
X113538000Y-141721011D01*
X113829604Y-141663008D01*
X114076815Y-141497827D01*
X114127524Y-141421936D01*
X114314064Y-141384831D01*
X114561274Y-141219650D01*
X117135240Y-138645684D01*
X117119035Y-138684710D01*
X117118727Y-139038376D01*
X117253784Y-139365239D01*
X117503645Y-139615537D01*
X117830272Y-139751165D01*
X118164988Y-139751456D01*
X118194103Y-139821920D01*
X118443964Y-140072218D01*
X118770591Y-140207846D01*
X119124257Y-140208154D01*
X119451120Y-140073097D01*
X119701418Y-139823236D01*
X119837046Y-139496609D01*
X119837354Y-139142943D01*
X119702297Y-138816080D01*
X119452436Y-138565782D01*
X119125809Y-138430154D01*
X118791093Y-138429863D01*
X118761978Y-138359399D01*
X118512117Y-138109101D01*
X118185490Y-137973473D01*
X117831824Y-137973165D01*
X117790814Y-137990110D01*
X118189124Y-137591800D01*
X121856441Y-137591800D01*
X121801782Y-137646364D01*
X121666154Y-137972991D01*
X121665846Y-138326657D01*
X121800903Y-138653520D01*
X122050764Y-138903818D01*
X122377391Y-139039446D01*
X122731057Y-139039754D01*
X123057920Y-138904697D01*
X123308218Y-138654836D01*
X123420141Y-138385296D01*
X123505039Y-138590765D01*
X123754900Y-138841063D01*
X124081527Y-138976691D01*
X124435193Y-138976999D01*
X124457615Y-138967734D01*
X124457480Y-139123283D01*
X124592537Y-139450146D01*
X124842398Y-139700444D01*
X125169025Y-139836072D01*
X125522691Y-139836380D01*
X125849554Y-139701323D01*
X126099852Y-139451462D01*
X126235480Y-139124835D01*
X126235509Y-139091725D01*
X126324153Y-139306260D01*
X126574014Y-139556558D01*
X126900641Y-139692186D01*
X127254307Y-139692494D01*
X127581170Y-139557437D01*
X127831468Y-139307576D01*
X127868901Y-139217427D01*
X128014257Y-139217554D01*
X128341120Y-139082497D01*
X128591418Y-138832636D01*
X128596330Y-138820807D01*
X128755823Y-138887035D01*
X129109489Y-138887343D01*
X129436352Y-138752286D01*
X129686650Y-138502425D01*
X129822278Y-138175798D01*
X129822586Y-137822132D01*
X129687529Y-137495269D01*
X129437668Y-137244971D01*
X129111041Y-137109343D01*
X128757375Y-137109035D01*
X128430512Y-137244092D01*
X128180214Y-137493953D01*
X128175302Y-137505782D01*
X128015809Y-137439554D01*
X127662143Y-137439246D01*
X127335280Y-137574303D01*
X127084982Y-137824164D01*
X127047549Y-137914313D01*
X126902193Y-137914186D01*
X126612234Y-138033995D01*
X126484097Y-137723880D01*
X126352248Y-137591800D01*
X126784798Y-137591800D01*
X127076403Y-137533796D01*
X127323613Y-137368615D01*
X129116171Y-135576057D01*
X136810846Y-135576057D01*
X136945903Y-135902920D01*
X137195764Y-136153218D01*
X137522391Y-136288846D01*
X137876057Y-136289154D01*
X138202920Y-136154097D01*
X138453218Y-135904236D01*
X138588846Y-135577609D01*
X138589154Y-135223943D01*
X138454097Y-134897080D01*
X138204236Y-134646782D01*
X137877609Y-134511154D01*
X137523943Y-134510846D01*
X137197080Y-134645903D01*
X136946782Y-134895764D01*
X136811154Y-135222391D01*
X136810846Y-135576057D01*
X129116171Y-135576057D01*
X129159721Y-135532508D01*
X129465419Y-135406196D01*
X129715717Y-135156335D01*
X129851345Y-134829708D01*
X129851572Y-134569295D01*
X129919266Y-134569354D01*
X130246129Y-134434297D01*
X130496427Y-134184436D01*
X130632055Y-133857809D01*
X130632127Y-133775179D01*
X130872020Y-133676057D01*
X136810846Y-133676057D01*
X136945903Y-134002920D01*
X137195764Y-134253218D01*
X137522391Y-134388846D01*
X137876057Y-134389154D01*
X138202920Y-134254097D01*
X138453218Y-134004236D01*
X138588846Y-133677609D01*
X138589154Y-133323943D01*
X138454097Y-132997080D01*
X138204236Y-132746782D01*
X137877609Y-132611154D01*
X137523943Y-132610846D01*
X137197080Y-132745903D01*
X136946782Y-132995764D01*
X136811154Y-133322391D01*
X136810846Y-133676057D01*
X130872020Y-133676057D01*
X130881120Y-133672297D01*
X131131418Y-133422436D01*
X131267046Y-133095809D01*
X131267354Y-132742143D01*
X131132297Y-132415280D01*
X130882436Y-132164982D01*
X130830383Y-132143368D01*
X130962246Y-131825809D01*
X130962554Y-131472143D01*
X130827497Y-131145280D01*
X130577636Y-130894982D01*
X130251009Y-130759354D01*
X129897343Y-130759046D01*
X129570480Y-130894103D01*
X129320182Y-131143964D01*
X129184554Y-131470591D01*
X129184246Y-131824257D01*
X129319303Y-132151120D01*
X129569164Y-132401418D01*
X129621217Y-132423032D01*
X129489354Y-132740591D01*
X129489282Y-132823221D01*
X129240289Y-132926103D01*
X129032921Y-133133109D01*
X128998697Y-133050280D01*
X128748836Y-132799982D01*
X128422209Y-132664354D01*
X128068543Y-132664046D01*
X127741680Y-132799103D01*
X127567594Y-132972885D01*
X127558609Y-132969154D01*
X127204943Y-132968846D01*
X126878080Y-133103903D01*
X126627782Y-133353764D01*
X126492154Y-133680391D01*
X126491846Y-134034057D01*
X126626903Y-134360920D01*
X126876764Y-134611218D01*
X127203391Y-134746846D01*
X127557057Y-134747154D01*
X127883920Y-134612097D01*
X128058006Y-134438315D01*
X128066991Y-134442046D01*
X128087118Y-134442064D01*
X128081589Y-134455378D01*
X126469168Y-136067800D01*
X119500120Y-136067800D01*
X119629401Y-135756459D01*
X119629709Y-135402793D01*
X119494652Y-135075930D01*
X119468825Y-135050057D01*
X120294246Y-135050057D01*
X120429303Y-135376920D01*
X120679164Y-135627218D01*
X121005791Y-135762846D01*
X121359457Y-135763154D01*
X121686320Y-135628097D01*
X121936618Y-135378236D01*
X122072246Y-135051609D01*
X122072424Y-134846857D01*
X122427846Y-134846857D01*
X122562903Y-135173720D01*
X122812764Y-135424018D01*
X123139391Y-135559646D01*
X123493057Y-135559954D01*
X123712390Y-135469327D01*
X123799957Y-135557047D01*
X124126584Y-135692675D01*
X124480250Y-135692983D01*
X124807113Y-135557926D01*
X125057411Y-135308065D01*
X125065454Y-135288695D01*
X125301964Y-135525618D01*
X125628591Y-135661246D01*
X125982257Y-135661554D01*
X126309120Y-135526497D01*
X126559418Y-135276636D01*
X126695046Y-134950009D01*
X126695354Y-134596343D01*
X126560297Y-134269480D01*
X126310436Y-134019182D01*
X125983809Y-133883554D01*
X125630143Y-133883246D01*
X125303280Y-134018303D01*
X125052982Y-134268164D01*
X125044939Y-134287534D01*
X124808429Y-134050611D01*
X124481802Y-133914983D01*
X124128136Y-133914675D01*
X123908803Y-134005302D01*
X123821236Y-133917582D01*
X123494609Y-133781954D01*
X123140943Y-133781646D01*
X122814080Y-133916703D01*
X122563782Y-134166564D01*
X122428154Y-134493191D01*
X122427846Y-134846857D01*
X122072424Y-134846857D01*
X122072554Y-134697943D01*
X121937497Y-134371080D01*
X121835687Y-134269092D01*
X122064936Y-134174368D01*
X122315234Y-133924507D01*
X122450862Y-133597880D01*
X122451170Y-133244214D01*
X122316113Y-132917351D01*
X122066252Y-132667053D01*
X121739625Y-132531425D01*
X121385959Y-132531117D01*
X121059096Y-132666174D01*
X120808798Y-132916035D01*
X120673170Y-133242662D01*
X120672862Y-133596328D01*
X120807919Y-133923191D01*
X120909729Y-134025179D01*
X120680480Y-134119903D01*
X120430182Y-134369764D01*
X120294554Y-134696391D01*
X120294246Y-135050057D01*
X119468825Y-135050057D01*
X119244791Y-134825632D01*
X118918164Y-134690004D01*
X118564498Y-134689696D01*
X118237635Y-134824753D01*
X117987337Y-135074614D01*
X117851709Y-135401241D01*
X117851401Y-135754907D01*
X117980686Y-136067800D01*
X117873494Y-136067800D01*
X117581889Y-136125804D01*
X117337880Y-136288846D01*
X117334679Y-136290985D01*
X116140751Y-137484913D01*
X115982851Y-137326737D01*
X115656224Y-137191109D01*
X115302558Y-137190801D01*
X114975695Y-137325858D01*
X114725397Y-137575719D01*
X114589769Y-137902346D01*
X114589461Y-138256012D01*
X114724518Y-138582875D01*
X114883514Y-138742150D01*
X113736012Y-139889652D01*
X113500813Y-139791989D01*
X113147147Y-139791681D01*
X112820284Y-139926738D01*
X112569986Y-140176599D01*
X112434358Y-140503226D01*
X112434050Y-140856892D01*
X109601000Y-140856892D01*
X109601000Y-138834657D01*
X110032646Y-138834657D01*
X110167703Y-139161520D01*
X110417564Y-139411818D01*
X110744191Y-139547446D01*
X111097857Y-139547754D01*
X111424720Y-139412697D01*
X111675018Y-139162836D01*
X111810646Y-138836209D01*
X111810954Y-138482543D01*
X111675897Y-138155680D01*
X111426036Y-137905382D01*
X111099409Y-137769754D01*
X110745743Y-137769446D01*
X110418880Y-137904503D01*
X110168582Y-138154364D01*
X110032954Y-138480991D01*
X110032646Y-138834657D01*
X109601000Y-138834657D01*
X109601000Y-135874795D01*
X109927623Y-136010420D01*
X110339371Y-136010779D01*
X110719915Y-135853542D01*
X111011319Y-135562646D01*
X111169220Y-135182377D01*
X111169391Y-134986043D01*
X111345062Y-134986043D01*
X111480119Y-135312906D01*
X111729980Y-135563204D01*
X112056607Y-135698832D01*
X112410273Y-135699140D01*
X112737136Y-135564083D01*
X112987434Y-135314222D01*
X113123062Y-134987595D01*
X113123370Y-134633929D01*
X112988313Y-134307066D01*
X112738452Y-134056768D01*
X112411825Y-133921140D01*
X112058159Y-133920832D01*
X111731296Y-134055889D01*
X111480998Y-134305750D01*
X111345370Y-134632377D01*
X111345062Y-134986043D01*
X111169391Y-134986043D01*
X111169579Y-134770629D01*
X111012342Y-134390085D01*
X110721446Y-134098681D01*
X110341177Y-133940780D01*
X109929429Y-133940421D01*
X109601000Y-134076125D01*
X109601000Y-133920666D01*
X116282922Y-133920666D01*
X116417979Y-134247529D01*
X116667840Y-134497827D01*
X116994467Y-134633455D01*
X117348133Y-134633763D01*
X117674996Y-134498706D01*
X117925294Y-134248845D01*
X118060922Y-133922218D01*
X118061230Y-133568552D01*
X117926173Y-133241689D01*
X117676312Y-132991391D01*
X117349685Y-132855763D01*
X116996019Y-132855455D01*
X116669156Y-132990512D01*
X116418858Y-133240373D01*
X116283230Y-133567000D01*
X116282922Y-133920666D01*
X109601000Y-133920666D01*
X109601000Y-131804223D01*
X116408034Y-131804223D01*
X116543091Y-132131086D01*
X116792952Y-132381384D01*
X117119579Y-132517012D01*
X117473245Y-132517320D01*
X117800108Y-132382263D01*
X118050406Y-132132402D01*
X118186034Y-131805775D01*
X118186342Y-131452109D01*
X118051285Y-131125246D01*
X117801424Y-130874948D01*
X117474797Y-130739320D01*
X117121131Y-130739012D01*
X116794268Y-130874069D01*
X116543970Y-131123930D01*
X116408342Y-131450557D01*
X116408034Y-131804223D01*
X109601000Y-131804223D01*
X109601000Y-129605055D01*
X109719839Y-129605158D01*
X110046702Y-129470101D01*
X110297000Y-129220240D01*
X110432628Y-128893613D01*
X110432936Y-128539947D01*
X110297879Y-128213084D01*
X110048018Y-127962786D01*
X109721391Y-127827158D01*
X109601000Y-127827053D01*
X109601000Y-124587000D01*
X114363500Y-124587000D01*
X114412910Y-124576994D01*
X114454535Y-124548553D01*
X114481815Y-124506159D01*
X114490500Y-124460000D01*
X114490500Y-118607239D01*
X114579400Y-118822393D01*
X114579400Y-122950625D01*
X114637404Y-123242230D01*
X114774477Y-123447374D01*
X114802585Y-123489440D01*
X117636200Y-126323056D01*
X117762512Y-126628754D01*
X118012373Y-126879052D01*
X118339000Y-127014680D01*
X118692666Y-127014988D01*
X119019529Y-126879931D01*
X119269827Y-126630070D01*
X119375930Y-126374546D01*
X120077584Y-127076201D01*
X120172206Y-127305204D01*
X118866974Y-127305204D01*
X118561496Y-127178358D01*
X118207830Y-127178050D01*
X117880967Y-127313107D01*
X117630669Y-127562968D01*
X117495041Y-127889595D01*
X117494733Y-128243261D01*
X117629790Y-128570124D01*
X117879651Y-128820422D01*
X118206278Y-128956050D01*
X118559944Y-128956358D01*
X118867680Y-128829204D01*
X120979796Y-128829204D01*
X121271401Y-128771200D01*
X121518611Y-128606019D01*
X122563258Y-127561373D01*
X122728439Y-127314162D01*
X122786442Y-127022558D01*
X122786442Y-126447015D01*
X123077355Y-126447268D01*
X123404218Y-126312211D01*
X123520200Y-126196431D01*
X123520200Y-129554569D01*
X122943430Y-130131340D01*
X122743633Y-129931193D01*
X122417006Y-129795565D01*
X122063340Y-129795257D01*
X121736477Y-129930314D01*
X121486179Y-130180175D01*
X121350551Y-130506802D01*
X121350243Y-130860468D01*
X121485300Y-131187331D01*
X121735161Y-131437629D01*
X122061788Y-131573257D01*
X122229296Y-131573403D01*
X122258103Y-131643120D01*
X122507964Y-131893418D01*
X122834591Y-132029046D01*
X123188257Y-132029354D01*
X123515120Y-131894297D01*
X123765418Y-131644436D01*
X123893110Y-131336920D01*
X124028195Y-131201835D01*
X124028036Y-131384836D01*
X124163093Y-131711699D01*
X124412954Y-131961997D01*
X124739581Y-132097625D01*
X125093247Y-132097933D01*
X125420110Y-131962876D01*
X125626116Y-131757230D01*
X125730191Y-131800446D01*
X126083857Y-131800754D01*
X126410720Y-131665697D01*
X126661018Y-131415836D01*
X126723461Y-131265457D01*
X127050646Y-131265457D01*
X127185703Y-131592320D01*
X127435564Y-131842618D01*
X127762191Y-131978246D01*
X128115857Y-131978554D01*
X128442720Y-131843497D01*
X128693018Y-131593636D01*
X128828646Y-131267009D01*
X128828954Y-130913343D01*
X128693897Y-130586480D01*
X128444036Y-130336182D01*
X128117409Y-130200554D01*
X127763743Y-130200246D01*
X127436880Y-130335303D01*
X127186582Y-130585164D01*
X127050954Y-130911791D01*
X127050646Y-131265457D01*
X126723461Y-131265457D01*
X126796646Y-131089209D01*
X126796954Y-130735543D01*
X126661897Y-130408680D01*
X126412036Y-130158382D01*
X126085409Y-130022754D01*
X125731743Y-130022446D01*
X125577600Y-130086137D01*
X125577600Y-127836457D01*
X126060046Y-127836457D01*
X126195103Y-128163320D01*
X126444964Y-128413618D01*
X126771591Y-128549246D01*
X127125257Y-128549554D01*
X127452120Y-128414497D01*
X127698711Y-128168337D01*
X127943564Y-128413618D01*
X128270191Y-128549246D01*
X128623857Y-128549554D01*
X128950720Y-128414497D01*
X129201018Y-128164636D01*
X129336646Y-127838009D01*
X129336954Y-127484343D01*
X129201897Y-127157480D01*
X128952036Y-126907182D01*
X128625409Y-126771554D01*
X128271743Y-126771246D01*
X127944880Y-126906303D01*
X127698289Y-127152463D01*
X127453436Y-126907182D01*
X127126809Y-126771554D01*
X126773143Y-126771246D01*
X126446280Y-126906303D01*
X126195982Y-127156164D01*
X126060354Y-127482791D01*
X126060046Y-127836457D01*
X125577600Y-127836457D01*
X125577600Y-122393205D01*
X125658918Y-122393205D01*
X125793975Y-122720068D01*
X126043836Y-122970366D01*
X126370463Y-123105994D01*
X126724129Y-123106302D01*
X126880333Y-123041760D01*
X126941645Y-123190146D01*
X127169604Y-123418504D01*
X127103343Y-123418446D01*
X126776480Y-123553503D01*
X126526182Y-123803364D01*
X126390554Y-124129991D01*
X126390246Y-124483657D01*
X126525303Y-124810520D01*
X126775164Y-125060818D01*
X127063817Y-125180678D01*
X127180795Y-125463787D01*
X127430656Y-125714085D01*
X127757283Y-125849713D01*
X128110949Y-125850021D01*
X128437812Y-125714964D01*
X128475384Y-125677457D01*
X131800446Y-125677457D01*
X131935503Y-126004320D01*
X131973508Y-126042392D01*
X131892205Y-126238191D01*
X131891897Y-126591857D01*
X132026954Y-126918720D01*
X132276815Y-127169018D01*
X132603442Y-127304646D01*
X132957108Y-127304954D01*
X133283971Y-127169897D01*
X133534269Y-126920036D01*
X133669897Y-126593409D01*
X133670205Y-126239743D01*
X133535148Y-125912880D01*
X133497143Y-125874808D01*
X133578446Y-125679009D01*
X133578754Y-125325343D01*
X133443697Y-124998480D01*
X133193836Y-124748182D01*
X132867209Y-124612554D01*
X132513543Y-124612246D01*
X132186680Y-124747303D01*
X131936382Y-124997164D01*
X131800754Y-125323791D01*
X131800446Y-125677457D01*
X128475384Y-125677457D01*
X128688110Y-125465103D01*
X128823738Y-125138476D01*
X128824046Y-124784810D01*
X128688989Y-124457947D01*
X128439128Y-124207649D01*
X128150475Y-124087789D01*
X128033497Y-123804680D01*
X127805538Y-123576322D01*
X127871799Y-123576380D01*
X128198662Y-123441323D01*
X128448960Y-123191462D01*
X128584588Y-122864835D01*
X128584896Y-122511169D01*
X128449839Y-122184306D01*
X128199978Y-121934008D01*
X128124834Y-121902805D01*
X128008097Y-121620280D01*
X127758236Y-121369982D01*
X127431609Y-121234354D01*
X127077943Y-121234046D01*
X126787600Y-121354013D01*
X126725681Y-121328302D01*
X126372015Y-121327994D01*
X126045152Y-121463051D01*
X125794854Y-121712912D01*
X125659226Y-122039539D01*
X125658918Y-122393205D01*
X125577600Y-122393205D01*
X125577600Y-120315074D01*
X125902730Y-120180733D01*
X126039775Y-120043927D01*
X126308571Y-120044161D01*
X126635434Y-119909104D01*
X126885732Y-119659243D01*
X127021360Y-119332616D01*
X127021668Y-118978950D01*
X126886611Y-118652087D01*
X126771449Y-118536724D01*
X126771644Y-118313135D01*
X126728971Y-118209857D01*
X128219046Y-118209857D01*
X128354103Y-118536720D01*
X128603964Y-118787018D01*
X128930591Y-118922646D01*
X129284257Y-118922954D01*
X129611120Y-118787897D01*
X129757615Y-118641657D01*
X130174846Y-118641657D01*
X130309903Y-118968520D01*
X130559764Y-119218818D01*
X130886391Y-119354446D01*
X131240057Y-119354754D01*
X131478097Y-119256398D01*
X131775391Y-119379846D01*
X132129057Y-119380154D01*
X132455920Y-119245097D01*
X132706218Y-118995236D01*
X132821396Y-118717857D01*
X133629246Y-118717857D01*
X133764303Y-119044720D01*
X134014164Y-119295018D01*
X134340791Y-119430646D01*
X134694457Y-119430954D01*
X135021320Y-119295897D01*
X135271618Y-119046036D01*
X135407246Y-118719409D01*
X135407554Y-118365743D01*
X135272497Y-118038880D01*
X135022636Y-117788582D01*
X134696009Y-117652954D01*
X134342343Y-117652646D01*
X134015480Y-117787703D01*
X133765182Y-118037564D01*
X133629554Y-118364191D01*
X133629246Y-118717857D01*
X132821396Y-118717857D01*
X132841846Y-118668609D01*
X132842154Y-118314943D01*
X132707097Y-117988080D01*
X132457236Y-117737782D01*
X132130609Y-117602154D01*
X131776943Y-117601846D01*
X131538903Y-117700202D01*
X131241609Y-117576754D01*
X130887943Y-117576446D01*
X130561080Y-117711503D01*
X130310782Y-117961364D01*
X130175154Y-118287991D01*
X130174846Y-118641657D01*
X129757615Y-118641657D01*
X129861418Y-118538036D01*
X129997046Y-118211409D01*
X129997354Y-117857743D01*
X129862297Y-117530880D01*
X129612436Y-117280582D01*
X129285809Y-117144954D01*
X128932143Y-117144646D01*
X128605280Y-117279703D01*
X128354982Y-117529564D01*
X128219354Y-117856191D01*
X128219046Y-118209857D01*
X126728971Y-118209857D01*
X126636587Y-117986272D01*
X126386726Y-117735974D01*
X126060099Y-117600346D01*
X125706433Y-117600038D01*
X125577600Y-117653271D01*
X125577600Y-116954273D01*
X125750320Y-116882907D01*
X126000618Y-116633046D01*
X126136246Y-116306419D01*
X126136290Y-116256098D01*
X126174005Y-116248596D01*
X126421215Y-116083415D01*
X126447921Y-116056709D01*
X126753620Y-115930397D01*
X126987425Y-115697000D01*
X129032000Y-115697000D01*
X129081410Y-115686994D01*
X129123035Y-115658553D01*
X129156276Y-115596163D01*
X129426209Y-114313980D01*
X137397674Y-114313980D01*
X137433441Y-114665833D01*
X137499278Y-114824777D01*
X137689200Y-114831195D01*
X138120395Y-114400000D01*
X137689200Y-113968805D01*
X137499278Y-113975223D01*
X137397674Y-114313980D01*
X129426209Y-114313980D01*
X129720945Y-112913980D01*
X137397674Y-112913980D01*
X137433441Y-113265833D01*
X137499278Y-113424777D01*
X137689200Y-113431195D01*
X138120395Y-113000000D01*
X137689200Y-112568805D01*
X137499278Y-112575223D01*
X137397674Y-112913980D01*
X129720945Y-112913980D01*
X130036735Y-111413980D01*
X137397674Y-111413980D01*
X137433441Y-111765833D01*
X137499278Y-111924777D01*
X137689200Y-111931195D01*
X138120395Y-111500000D01*
X137689200Y-111068805D01*
X137499278Y-111075223D01*
X137397674Y-111413980D01*
X130036735Y-111413980D01*
X130172276Y-110770163D01*
X130174954Y-110747431D01*
X130181349Y-110510800D01*
X135568805Y-110510800D01*
X135575223Y-110700722D01*
X135913980Y-110802326D01*
X136265833Y-110766559D01*
X136424777Y-110700722D01*
X136431195Y-110510800D01*
X136768805Y-110510800D01*
X136775223Y-110700722D01*
X137113980Y-110802326D01*
X137465833Y-110766559D01*
X137624777Y-110700722D01*
X137631195Y-110510800D01*
X137200000Y-110079605D01*
X136768805Y-110510800D01*
X136431195Y-110510800D01*
X136000000Y-110079605D01*
X135568805Y-110510800D01*
X130181349Y-110510800D01*
X130200182Y-109813980D01*
X135097674Y-109813980D01*
X135133441Y-110165833D01*
X135199278Y-110324777D01*
X135389200Y-110331195D01*
X135820395Y-109900000D01*
X136179605Y-109900000D01*
X136320768Y-110041163D01*
X136333441Y-110165833D01*
X136399278Y-110324777D01*
X136589200Y-110331195D01*
X136600000Y-110320395D01*
X136610800Y-110331195D01*
X136800722Y-110324777D01*
X136888595Y-110031800D01*
X137020395Y-109900000D01*
X137379605Y-109900000D01*
X137409452Y-109929847D01*
X137433441Y-110165833D01*
X137499278Y-110324777D01*
X137689200Y-110331195D01*
X137750000Y-110270395D01*
X137810800Y-110331195D01*
X138000722Y-110324777D01*
X138102326Y-109986020D01*
X138096056Y-109924339D01*
X138120395Y-109900000D01*
X138090548Y-109870153D01*
X138066559Y-109634167D01*
X138000722Y-109475223D01*
X137810800Y-109468805D01*
X137750000Y-109529605D01*
X137689200Y-109468805D01*
X137499278Y-109475223D01*
X137397674Y-109813980D01*
X137403944Y-109875661D01*
X137379605Y-109900000D01*
X137020395Y-109900000D01*
X136879232Y-109758837D01*
X136866559Y-109634167D01*
X136800722Y-109475223D01*
X136610800Y-109468805D01*
X136600000Y-109479605D01*
X136589200Y-109468805D01*
X136399278Y-109475223D01*
X136311405Y-109768200D01*
X136179605Y-109900000D01*
X135820395Y-109900000D01*
X135389200Y-109468805D01*
X135199278Y-109475223D01*
X135097674Y-109813980D01*
X130200182Y-109813980D01*
X130313695Y-105613980D01*
X133297674Y-105613980D01*
X133333441Y-105965833D01*
X133399278Y-106124777D01*
X133589200Y-106131195D01*
X134020395Y-105700000D01*
X133589200Y-105268805D01*
X133399278Y-105275223D01*
X133297674Y-105613980D01*
X130313695Y-105613980D01*
X130394862Y-102610800D01*
X133168805Y-102610800D01*
X133175223Y-102800722D01*
X133513980Y-102902326D01*
X133865833Y-102866559D01*
X134024777Y-102800722D01*
X134031195Y-102610800D01*
X134668805Y-102610800D01*
X134675223Y-102800722D01*
X135013980Y-102902326D01*
X135365833Y-102866559D01*
X135524777Y-102800722D01*
X135531195Y-102610800D01*
X136068805Y-102610800D01*
X136075223Y-102800722D01*
X136413980Y-102902326D01*
X136765833Y-102866559D01*
X136924777Y-102800722D01*
X136931195Y-102610800D01*
X136909595Y-102589200D01*
X137468805Y-102589200D01*
X137479605Y-102600000D01*
X137468805Y-102610800D01*
X137475223Y-102800722D01*
X137768200Y-102888595D01*
X137900000Y-103020395D01*
X138041163Y-102879232D01*
X138165833Y-102866559D01*
X138324777Y-102800722D01*
X138331195Y-102610800D01*
X138320395Y-102600000D01*
X138331195Y-102589200D01*
X138324777Y-102399278D01*
X138031800Y-102311405D01*
X137900000Y-102179605D01*
X137758837Y-102320768D01*
X137634167Y-102333441D01*
X137475223Y-102399278D01*
X137468805Y-102589200D01*
X136909595Y-102589200D01*
X136500000Y-102179605D01*
X136068805Y-102610800D01*
X135531195Y-102610800D01*
X135100000Y-102179605D01*
X134668805Y-102610800D01*
X134031195Y-102610800D01*
X133600000Y-102179605D01*
X133168805Y-102610800D01*
X130394862Y-102610800D01*
X130423587Y-101548000D01*
X132968392Y-101548000D01*
X132989197Y-101568805D01*
X132989197Y-101568805D01*
G37*
X132989197Y-101568805D02*
X132799278Y-101575223D01*
X132697674Y-101913980D01*
X132733441Y-102265833D01*
X132799278Y-102424777D01*
X132989200Y-102431195D01*
X133420395Y-102000000D01*
X133406253Y-101985858D01*
X133585858Y-101806253D01*
X133600000Y-101820395D01*
X133614143Y-101806253D01*
X133793748Y-101985858D01*
X133779605Y-102000000D01*
X134210800Y-102431195D01*
X134350000Y-102426491D01*
X134489200Y-102431195D01*
X134920395Y-102000000D01*
X134906253Y-101985858D01*
X135085858Y-101806253D01*
X135100000Y-101820395D01*
X135114143Y-101806253D01*
X135293748Y-101985858D01*
X135279605Y-102000000D01*
X135695669Y-102416064D01*
X135699278Y-102424777D01*
X135704561Y-102424956D01*
X135710800Y-102431195D01*
X135800000Y-102428181D01*
X135889200Y-102431195D01*
X135895439Y-102424956D01*
X135900722Y-102424777D01*
X135902909Y-102417486D01*
X136320395Y-102000000D01*
X136306253Y-101985858D01*
X136485858Y-101806253D01*
X136500000Y-101820395D01*
X136514143Y-101806253D01*
X136693748Y-101985858D01*
X136679605Y-102000000D01*
X137095669Y-102416064D01*
X137099278Y-102424777D01*
X137104561Y-102424956D01*
X137110800Y-102431195D01*
X137200000Y-102428181D01*
X137289200Y-102431195D01*
X137295439Y-102424956D01*
X137300722Y-102424777D01*
X137302909Y-102417486D01*
X137720395Y-102000000D01*
X137706253Y-101985858D01*
X137885858Y-101806253D01*
X137900000Y-101820395D01*
X137914143Y-101806253D01*
X138093748Y-101985858D01*
X138079605Y-102000000D01*
X138510800Y-102431195D01*
X138700722Y-102424777D01*
X138714000Y-102380507D01*
X138714000Y-102807279D01*
X138700722Y-102775223D01*
X138510800Y-102768805D01*
X138079605Y-103200000D01*
X138093748Y-103214143D01*
X137974897Y-103332993D01*
X137900701Y-103380306D01*
X137900000Y-103379605D01*
X137896829Y-103382776D01*
X137883430Y-103391320D01*
X137706253Y-103214143D01*
X137720395Y-103200000D01*
X137289200Y-102768805D01*
X137099278Y-102775223D01*
X136997674Y-103113980D01*
X137005765Y-103193576D01*
X136686020Y-103097674D01*
X136334167Y-103133441D01*
X136175223Y-103199278D01*
X136168805Y-103389200D01*
X136600000Y-103820395D01*
X136614143Y-103806253D01*
X136793748Y-103985858D01*
X136779605Y-104000000D01*
X136793748Y-104014143D01*
X136614143Y-104193748D01*
X136600000Y-104179605D01*
X136585858Y-104193748D01*
X136406253Y-104014143D01*
X136420395Y-104000000D01*
X135989200Y-103568805D01*
X135799278Y-103575223D01*
X135697674Y-103913980D01*
X135702620Y-103962639D01*
X135486020Y-103897674D01*
X135134167Y-103933441D01*
X134975223Y-103999278D01*
X134968805Y-104189200D01*
X135400000Y-104620395D01*
X135414143Y-104606253D01*
X135593748Y-104785858D01*
X135579605Y-104800000D01*
X135593748Y-104814143D01*
X135490897Y-104916993D01*
X135379890Y-104987780D01*
X135206253Y-104814143D01*
X135220395Y-104800000D01*
X134789200Y-104368805D01*
X134599278Y-104375223D01*
X134497674Y-104713980D01*
X134513105Y-104865784D01*
X134286020Y-104797674D01*
X133934167Y-104833441D01*
X133775223Y-104899278D01*
X133768805Y-105089200D01*
X134200000Y-105520395D01*
X134214143Y-105506253D01*
X134393748Y-105685858D01*
X134379605Y-105700000D01*
X134393748Y-105714143D01*
X134214143Y-105893748D01*
X134200000Y-105879605D01*
X133768805Y-106310800D01*
X133775223Y-106500722D01*
X134113980Y-106602326D01*
X134332500Y-106580113D01*
X134332500Y-108521500D01*
X134386546Y-108793205D01*
X134540454Y-109023546D01*
X134770795Y-109177454D01*
X135042500Y-109231500D01*
X135570755Y-109231500D01*
X135568805Y-109289200D01*
X136000000Y-109720395D01*
X136431195Y-109289200D01*
X136429245Y-109231500D01*
X136770755Y-109231500D01*
X136768805Y-109289200D01*
X137200000Y-109720395D01*
X137631195Y-109289200D01*
X137629245Y-109231500D01*
X137870755Y-109231500D01*
X137868805Y-109289200D01*
X138300000Y-109720395D01*
X138314143Y-109706253D01*
X138493748Y-109885858D01*
X138479605Y-109900000D01*
X138493748Y-109914143D01*
X138314143Y-110093748D01*
X138300000Y-110079605D01*
X137868805Y-110510800D01*
X137875199Y-110700000D01*
X137868805Y-110889200D01*
X138300000Y-111320395D01*
X138314143Y-111306253D01*
X138493748Y-111485858D01*
X138479605Y-111500000D01*
X138493748Y-111514143D01*
X138314143Y-111693748D01*
X138300000Y-111679605D01*
X137868805Y-112110800D01*
X137873509Y-112250000D01*
X137868805Y-112389200D01*
X138300000Y-112820395D01*
X138314143Y-112806253D01*
X138493748Y-112985858D01*
X138479605Y-113000000D01*
X138493748Y-113014143D01*
X138314143Y-113193748D01*
X138300000Y-113179605D01*
X137883936Y-113595669D01*
X137875223Y-113599278D01*
X137875044Y-113604561D01*
X137868805Y-113610800D01*
X137871819Y-113700000D01*
X137868805Y-113789200D01*
X137875044Y-113795439D01*
X137875223Y-113800722D01*
X137882514Y-113802909D01*
X138300000Y-114220395D01*
X138314143Y-114206253D01*
X138493748Y-114385858D01*
X138479605Y-114400000D01*
X138493748Y-114414143D01*
X138314143Y-114593748D01*
X138300000Y-114579605D01*
X137868805Y-115010800D01*
X137875223Y-115200722D01*
X138213980Y-115302326D01*
X138565833Y-115266559D01*
X138713806Y-115205266D01*
X138713160Y-137531062D01*
X138645709Y-137503054D01*
X138292043Y-137502746D01*
X137965180Y-137637803D01*
X137714882Y-137887664D01*
X137579254Y-138214291D01*
X137578946Y-138567957D01*
X137714003Y-138894820D01*
X137807212Y-138988192D01*
X134675358Y-142590797D01*
X134404007Y-142590797D01*
X134400000Y-142590000D01*
X134244154Y-142621000D01*
X132202413Y-142621000D01*
X132202449Y-142579429D01*
X132067392Y-142252566D01*
X131918888Y-142103802D01*
X131946366Y-142037627D01*
X131946674Y-141683961D01*
X131811617Y-141357098D01*
X131561756Y-141106800D01*
X131235129Y-140971172D01*
X130881463Y-140970864D01*
X130554600Y-141105921D01*
X130304302Y-141355782D01*
X130168674Y-141682409D01*
X130168366Y-142036075D01*
X130303423Y-142362938D01*
X130451927Y-142511702D01*
X130424449Y-142577877D01*
X130424411Y-142621000D01*
X129650298Y-142621000D01*
X129650319Y-142596935D01*
X129515262Y-142270072D01*
X129265401Y-142019774D01*
X128938774Y-141884146D01*
X128585108Y-141883838D01*
X128258245Y-142018895D01*
X128007947Y-142268756D01*
X127872319Y-142595383D01*
X127872297Y-142621000D01*
X127122413Y-142621000D01*
X127122449Y-142579429D01*
X126987392Y-142252566D01*
X126737531Y-142002268D01*
X126410904Y-141866640D01*
X126057238Y-141866332D01*
X125730375Y-142001389D01*
X125480077Y-142251250D01*
X125344449Y-142577877D01*
X125344411Y-142621000D01*
X124587133Y-142621000D01*
X124587154Y-142597343D01*
X124452097Y-142270480D01*
X124202236Y-142020182D01*
X123875609Y-141884554D01*
X123521943Y-141884246D01*
X123259030Y-141992879D01*
X123137394Y-141871030D01*
X123191165Y-141871077D01*
X123518028Y-141736020D01*
X123768326Y-141486159D01*
X123903954Y-141159532D01*
X123904262Y-140805866D01*
X123769205Y-140479003D01*
X123519344Y-140228705D01*
X123230081Y-140108592D01*
X123220376Y-140085104D01*
X129914020Y-140085104D01*
X130049077Y-140411967D01*
X130298938Y-140662265D01*
X130625565Y-140797893D01*
X130979231Y-140798201D01*
X131306094Y-140663144D01*
X131556392Y-140413283D01*
X131692020Y-140086656D01*
X131692328Y-139732990D01*
X131557271Y-139406127D01*
X131307410Y-139155829D01*
X130980783Y-139020201D01*
X130627117Y-139019893D01*
X130300254Y-139154950D01*
X130049956Y-139404811D01*
X129914328Y-139731438D01*
X129914020Y-140085104D01*
X123220376Y-140085104D01*
X123164424Y-139949690D01*
X122914563Y-139699392D01*
X122587936Y-139563764D01*
X122234270Y-139563456D01*
X121907407Y-139698513D01*
X121657109Y-139948374D01*
X121521481Y-140275001D01*
X121521173Y-140628667D01*
X121656230Y-140955530D01*
X121906091Y-141205828D01*
X122195354Y-141325941D01*
X122261011Y-141484843D01*
X122405361Y-141629446D01*
X122351590Y-141629399D01*
X122024727Y-141764456D01*
X121774429Y-142014317D01*
X121638801Y-142340944D01*
X121638557Y-142621000D01*
X119607172Y-142621000D01*
X119650618Y-142577630D01*
X119786246Y-142251003D01*
X119786554Y-141897337D01*
X119651497Y-141570474D01*
X119401636Y-141320176D01*
X119075009Y-141184548D01*
X118721343Y-141184240D01*
X118457963Y-141293067D01*
X118196622Y-141184548D01*
X117842956Y-141184240D01*
X117516093Y-141319297D01*
X117265795Y-141569158D01*
X117130167Y-141895785D01*
X117129859Y-142249451D01*
X117264916Y-142576314D01*
X117309524Y-142621000D01*
X109601000Y-142621000D01*
X109601000Y-140856892D01*
X112434050Y-140856892D01*
X112569107Y-141183755D01*
X112818968Y-141434053D01*
X113042904Y-141527040D01*
X113246395Y-141663008D01*
X113538000Y-141721011D01*
X113829604Y-141663008D01*
X114076815Y-141497827D01*
X114127524Y-141421936D01*
X114314064Y-141384831D01*
X114561274Y-141219650D01*
X117135240Y-138645684D01*
X117119035Y-138684710D01*
X117118727Y-139038376D01*
X117253784Y-139365239D01*
X117503645Y-139615537D01*
X117830272Y-139751165D01*
X118164988Y-139751456D01*
X118194103Y-139821920D01*
X118443964Y-140072218D01*
X118770591Y-140207846D01*
X119124257Y-140208154D01*
X119451120Y-140073097D01*
X119701418Y-139823236D01*
X119837046Y-139496609D01*
X119837354Y-139142943D01*
X119702297Y-138816080D01*
X119452436Y-138565782D01*
X119125809Y-138430154D01*
X118791093Y-138429863D01*
X118761978Y-138359399D01*
X118512117Y-138109101D01*
X118185490Y-137973473D01*
X117831824Y-137973165D01*
X117790814Y-137990110D01*
X118189124Y-137591800D01*
X121856441Y-137591800D01*
X121801782Y-137646364D01*
X121666154Y-137972991D01*
X121665846Y-138326657D01*
X121800903Y-138653520D01*
X122050764Y-138903818D01*
X122377391Y-139039446D01*
X122731057Y-139039754D01*
X123057920Y-138904697D01*
X123308218Y-138654836D01*
X123420141Y-138385296D01*
X123505039Y-138590765D01*
X123754900Y-138841063D01*
X124081527Y-138976691D01*
X124435193Y-138976999D01*
X124457615Y-138967734D01*
X124457480Y-139123283D01*
X124592537Y-139450146D01*
X124842398Y-139700444D01*
X125169025Y-139836072D01*
X125522691Y-139836380D01*
X125849554Y-139701323D01*
X126099852Y-139451462D01*
X126235480Y-139124835D01*
X126235509Y-139091725D01*
X126324153Y-139306260D01*
X126574014Y-139556558D01*
X126900641Y-139692186D01*
X127254307Y-139692494D01*
X127581170Y-139557437D01*
X127831468Y-139307576D01*
X127868901Y-139217427D01*
X128014257Y-139217554D01*
X128341120Y-139082497D01*
X128591418Y-138832636D01*
X128596330Y-138820807D01*
X128755823Y-138887035D01*
X129109489Y-138887343D01*
X129436352Y-138752286D01*
X129686650Y-138502425D01*
X129822278Y-138175798D01*
X129822586Y-137822132D01*
X129687529Y-137495269D01*
X129437668Y-137244971D01*
X129111041Y-137109343D01*
X128757375Y-137109035D01*
X128430512Y-137244092D01*
X128180214Y-137493953D01*
X128175302Y-137505782D01*
X128015809Y-137439554D01*
X127662143Y-137439246D01*
X127335280Y-137574303D01*
X127084982Y-137824164D01*
X127047549Y-137914313D01*
X126902193Y-137914186D01*
X126612234Y-138033995D01*
X126484097Y-137723880D01*
X126352248Y-137591800D01*
X126784798Y-137591800D01*
X127076403Y-137533796D01*
X127323613Y-137368615D01*
X129116171Y-135576057D01*
X136810846Y-135576057D01*
X136945903Y-135902920D01*
X137195764Y-136153218D01*
X137522391Y-136288846D01*
X137876057Y-136289154D01*
X138202920Y-136154097D01*
X138453218Y-135904236D01*
X138588846Y-135577609D01*
X138589154Y-135223943D01*
X138454097Y-134897080D01*
X138204236Y-134646782D01*
X137877609Y-134511154D01*
X137523943Y-134510846D01*
X137197080Y-134645903D01*
X136946782Y-134895764D01*
X136811154Y-135222391D01*
X136810846Y-135576057D01*
X129116171Y-135576057D01*
X129159721Y-135532508D01*
X129465419Y-135406196D01*
X129715717Y-135156335D01*
X129851345Y-134829708D01*
X129851572Y-134569295D01*
X129919266Y-134569354D01*
X130246129Y-134434297D01*
X130496427Y-134184436D01*
X130632055Y-133857809D01*
X130632127Y-133775179D01*
X130872020Y-133676057D01*
X136810846Y-133676057D01*
X136945903Y-134002920D01*
X137195764Y-134253218D01*
X137522391Y-134388846D01*
X137876057Y-134389154D01*
X138202920Y-134254097D01*
X138453218Y-134004236D01*
X138588846Y-133677609D01*
X138589154Y-133323943D01*
X138454097Y-132997080D01*
X138204236Y-132746782D01*
X137877609Y-132611154D01*
X137523943Y-132610846D01*
X137197080Y-132745903D01*
X136946782Y-132995764D01*
X136811154Y-133322391D01*
X136810846Y-133676057D01*
X130872020Y-133676057D01*
X130881120Y-133672297D01*
X131131418Y-133422436D01*
X131267046Y-133095809D01*
X131267354Y-132742143D01*
X131132297Y-132415280D01*
X130882436Y-132164982D01*
X130830383Y-132143368D01*
X130962246Y-131825809D01*
X130962554Y-131472143D01*
X130827497Y-131145280D01*
X130577636Y-130894982D01*
X130251009Y-130759354D01*
X129897343Y-130759046D01*
X129570480Y-130894103D01*
X129320182Y-131143964D01*
X129184554Y-131470591D01*
X129184246Y-131824257D01*
X129319303Y-132151120D01*
X129569164Y-132401418D01*
X129621217Y-132423032D01*
X129489354Y-132740591D01*
X129489282Y-132823221D01*
X129240289Y-132926103D01*
X129032921Y-133133109D01*
X128998697Y-133050280D01*
X128748836Y-132799982D01*
X128422209Y-132664354D01*
X128068543Y-132664046D01*
X127741680Y-132799103D01*
X127567594Y-132972885D01*
X127558609Y-132969154D01*
X127204943Y-132968846D01*
X126878080Y-133103903D01*
X126627782Y-133353764D01*
X126492154Y-133680391D01*
X126491846Y-134034057D01*
X126626903Y-134360920D01*
X126876764Y-134611218D01*
X127203391Y-134746846D01*
X127557057Y-134747154D01*
X127883920Y-134612097D01*
X128058006Y-134438315D01*
X128066991Y-134442046D01*
X128087118Y-134442064D01*
X128081589Y-134455378D01*
X126469168Y-136067800D01*
X119500120Y-136067800D01*
X119629401Y-135756459D01*
X119629709Y-135402793D01*
X119494652Y-135075930D01*
X119468825Y-135050057D01*
X120294246Y-135050057D01*
X120429303Y-135376920D01*
X120679164Y-135627218D01*
X121005791Y-135762846D01*
X121359457Y-135763154D01*
X121686320Y-135628097D01*
X121936618Y-135378236D01*
X122072246Y-135051609D01*
X122072424Y-134846857D01*
X122427846Y-134846857D01*
X122562903Y-135173720D01*
X122812764Y-135424018D01*
X123139391Y-135559646D01*
X123493057Y-135559954D01*
X123712390Y-135469327D01*
X123799957Y-135557047D01*
X124126584Y-135692675D01*
X124480250Y-135692983D01*
X124807113Y-135557926D01*
X125057411Y-135308065D01*
X125065454Y-135288695D01*
X125301964Y-135525618D01*
X125628591Y-135661246D01*
X125982257Y-135661554D01*
X126309120Y-135526497D01*
X126559418Y-135276636D01*
X126695046Y-134950009D01*
X126695354Y-134596343D01*
X126560297Y-134269480D01*
X126310436Y-134019182D01*
X125983809Y-133883554D01*
X125630143Y-133883246D01*
X125303280Y-134018303D01*
X125052982Y-134268164D01*
X125044939Y-134287534D01*
X124808429Y-134050611D01*
X124481802Y-133914983D01*
X124128136Y-133914675D01*
X123908803Y-134005302D01*
X123821236Y-133917582D01*
X123494609Y-133781954D01*
X123140943Y-133781646D01*
X122814080Y-133916703D01*
X122563782Y-134166564D01*
X122428154Y-134493191D01*
X122427846Y-134846857D01*
X122072424Y-134846857D01*
X122072554Y-134697943D01*
X121937497Y-134371080D01*
X121835687Y-134269092D01*
X122064936Y-134174368D01*
X122315234Y-133924507D01*
X122450862Y-133597880D01*
X122451170Y-133244214D01*
X122316113Y-132917351D01*
X122066252Y-132667053D01*
X121739625Y-132531425D01*
X121385959Y-132531117D01*
X121059096Y-132666174D01*
X120808798Y-132916035D01*
X120673170Y-133242662D01*
X120672862Y-133596328D01*
X120807919Y-133923191D01*
X120909729Y-134025179D01*
X120680480Y-134119903D01*
X120430182Y-134369764D01*
X120294554Y-134696391D01*
X120294246Y-135050057D01*
X119468825Y-135050057D01*
X119244791Y-134825632D01*
X118918164Y-134690004D01*
X118564498Y-134689696D01*
X118237635Y-134824753D01*
X117987337Y-135074614D01*
X117851709Y-135401241D01*
X117851401Y-135754907D01*
X117980686Y-136067800D01*
X117873494Y-136067800D01*
X117581889Y-136125804D01*
X117337880Y-136288846D01*
X117334679Y-136290985D01*
X116140751Y-137484913D01*
X115982851Y-137326737D01*
X115656224Y-137191109D01*
X115302558Y-137190801D01*
X114975695Y-137325858D01*
X114725397Y-137575719D01*
X114589769Y-137902346D01*
X114589461Y-138256012D01*
X114724518Y-138582875D01*
X114883514Y-138742150D01*
X113736012Y-139889652D01*
X113500813Y-139791989D01*
X113147147Y-139791681D01*
X112820284Y-139926738D01*
X112569986Y-140176599D01*
X112434358Y-140503226D01*
X112434050Y-140856892D01*
X109601000Y-140856892D01*
X109601000Y-138834657D01*
X110032646Y-138834657D01*
X110167703Y-139161520D01*
X110417564Y-139411818D01*
X110744191Y-139547446D01*
X111097857Y-139547754D01*
X111424720Y-139412697D01*
X111675018Y-139162836D01*
X111810646Y-138836209D01*
X111810954Y-138482543D01*
X111675897Y-138155680D01*
X111426036Y-137905382D01*
X111099409Y-137769754D01*
X110745743Y-137769446D01*
X110418880Y-137904503D01*
X110168582Y-138154364D01*
X110032954Y-138480991D01*
X110032646Y-138834657D01*
X109601000Y-138834657D01*
X109601000Y-135874795D01*
X109927623Y-136010420D01*
X110339371Y-136010779D01*
X110719915Y-135853542D01*
X111011319Y-135562646D01*
X111169220Y-135182377D01*
X111169391Y-134986043D01*
X111345062Y-134986043D01*
X111480119Y-135312906D01*
X111729980Y-135563204D01*
X112056607Y-135698832D01*
X112410273Y-135699140D01*
X112737136Y-135564083D01*
X112987434Y-135314222D01*
X113123062Y-134987595D01*
X113123370Y-134633929D01*
X112988313Y-134307066D01*
X112738452Y-134056768D01*
X112411825Y-133921140D01*
X112058159Y-133920832D01*
X111731296Y-134055889D01*
X111480998Y-134305750D01*
X111345370Y-134632377D01*
X111345062Y-134986043D01*
X111169391Y-134986043D01*
X111169579Y-134770629D01*
X111012342Y-134390085D01*
X110721446Y-134098681D01*
X110341177Y-133940780D01*
X109929429Y-133940421D01*
X109601000Y-134076125D01*
X109601000Y-133920666D01*
X116282922Y-133920666D01*
X116417979Y-134247529D01*
X116667840Y-134497827D01*
X116994467Y-134633455D01*
X117348133Y-134633763D01*
X117674996Y-134498706D01*
X117925294Y-134248845D01*
X118060922Y-133922218D01*
X118061230Y-133568552D01*
X117926173Y-133241689D01*
X117676312Y-132991391D01*
X117349685Y-132855763D01*
X116996019Y-132855455D01*
X116669156Y-132990512D01*
X116418858Y-133240373D01*
X116283230Y-133567000D01*
X116282922Y-133920666D01*
X109601000Y-133920666D01*
X109601000Y-131804223D01*
X116408034Y-131804223D01*
X116543091Y-132131086D01*
X116792952Y-132381384D01*
X117119579Y-132517012D01*
X117473245Y-132517320D01*
X117800108Y-132382263D01*
X118050406Y-132132402D01*
X118186034Y-131805775D01*
X118186342Y-131452109D01*
X118051285Y-131125246D01*
X117801424Y-130874948D01*
X117474797Y-130739320D01*
X117121131Y-130739012D01*
X116794268Y-130874069D01*
X116543970Y-131123930D01*
X116408342Y-131450557D01*
X116408034Y-131804223D01*
X109601000Y-131804223D01*
X109601000Y-129605055D01*
X109719839Y-129605158D01*
X110046702Y-129470101D01*
X110297000Y-129220240D01*
X110432628Y-128893613D01*
X110432936Y-128539947D01*
X110297879Y-128213084D01*
X110048018Y-127962786D01*
X109721391Y-127827158D01*
X109601000Y-127827053D01*
X109601000Y-124587000D01*
X114363500Y-124587000D01*
X114412910Y-124576994D01*
X114454535Y-124548553D01*
X114481815Y-124506159D01*
X114490500Y-124460000D01*
X114490500Y-118607239D01*
X114579400Y-118822393D01*
X114579400Y-122950625D01*
X114637404Y-123242230D01*
X114774477Y-123447374D01*
X114802585Y-123489440D01*
X117636200Y-126323056D01*
X117762512Y-126628754D01*
X118012373Y-126879052D01*
X118339000Y-127014680D01*
X118692666Y-127014988D01*
X119019529Y-126879931D01*
X119269827Y-126630070D01*
X119375930Y-126374546D01*
X120077584Y-127076201D01*
X120172206Y-127305204D01*
X118866974Y-127305204D01*
X118561496Y-127178358D01*
X118207830Y-127178050D01*
X117880967Y-127313107D01*
X117630669Y-127562968D01*
X117495041Y-127889595D01*
X117494733Y-128243261D01*
X117629790Y-128570124D01*
X117879651Y-128820422D01*
X118206278Y-128956050D01*
X118559944Y-128956358D01*
X118867680Y-128829204D01*
X120979796Y-128829204D01*
X121271401Y-128771200D01*
X121518611Y-128606019D01*
X122563258Y-127561373D01*
X122728439Y-127314162D01*
X122786442Y-127022558D01*
X122786442Y-126447015D01*
X123077355Y-126447268D01*
X123404218Y-126312211D01*
X123520200Y-126196431D01*
X123520200Y-129554569D01*
X122943430Y-130131340D01*
X122743633Y-129931193D01*
X122417006Y-129795565D01*
X122063340Y-129795257D01*
X121736477Y-129930314D01*
X121486179Y-130180175D01*
X121350551Y-130506802D01*
X121350243Y-130860468D01*
X121485300Y-131187331D01*
X121735161Y-131437629D01*
X122061788Y-131573257D01*
X122229296Y-131573403D01*
X122258103Y-131643120D01*
X122507964Y-131893418D01*
X122834591Y-132029046D01*
X123188257Y-132029354D01*
X123515120Y-131894297D01*
X123765418Y-131644436D01*
X123893110Y-131336920D01*
X124028195Y-131201835D01*
X124028036Y-131384836D01*
X124163093Y-131711699D01*
X124412954Y-131961997D01*
X124739581Y-132097625D01*
X125093247Y-132097933D01*
X125420110Y-131962876D01*
X125626116Y-131757230D01*
X125730191Y-131800446D01*
X126083857Y-131800754D01*
X126410720Y-131665697D01*
X126661018Y-131415836D01*
X126723461Y-131265457D01*
X127050646Y-131265457D01*
X127185703Y-131592320D01*
X127435564Y-131842618D01*
X127762191Y-131978246D01*
X128115857Y-131978554D01*
X128442720Y-131843497D01*
X128693018Y-131593636D01*
X128828646Y-131267009D01*
X128828954Y-130913343D01*
X128693897Y-130586480D01*
X128444036Y-130336182D01*
X128117409Y-130200554D01*
X127763743Y-130200246D01*
X127436880Y-130335303D01*
X127186582Y-130585164D01*
X127050954Y-130911791D01*
X127050646Y-131265457D01*
X126723461Y-131265457D01*
X126796646Y-131089209D01*
X126796954Y-130735543D01*
X126661897Y-130408680D01*
X126412036Y-130158382D01*
X126085409Y-130022754D01*
X125731743Y-130022446D01*
X125577600Y-130086137D01*
X125577600Y-127836457D01*
X126060046Y-127836457D01*
X126195103Y-128163320D01*
X126444964Y-128413618D01*
X126771591Y-128549246D01*
X127125257Y-128549554D01*
X127452120Y-128414497D01*
X127698711Y-128168337D01*
X127943564Y-128413618D01*
X128270191Y-128549246D01*
X128623857Y-128549554D01*
X128950720Y-128414497D01*
X129201018Y-128164636D01*
X129336646Y-127838009D01*
X129336954Y-127484343D01*
X129201897Y-127157480D01*
X128952036Y-126907182D01*
X128625409Y-126771554D01*
X128271743Y-126771246D01*
X127944880Y-126906303D01*
X127698289Y-127152463D01*
X127453436Y-126907182D01*
X127126809Y-126771554D01*
X126773143Y-126771246D01*
X126446280Y-126906303D01*
X126195982Y-127156164D01*
X126060354Y-127482791D01*
X126060046Y-127836457D01*
X125577600Y-127836457D01*
X125577600Y-122393205D01*
X125658918Y-122393205D01*
X125793975Y-122720068D01*
X126043836Y-122970366D01*
X126370463Y-123105994D01*
X126724129Y-123106302D01*
X126880333Y-123041760D01*
X126941645Y-123190146D01*
X127169604Y-123418504D01*
X127103343Y-123418446D01*
X126776480Y-123553503D01*
X126526182Y-123803364D01*
X126390554Y-124129991D01*
X126390246Y-124483657D01*
X126525303Y-124810520D01*
X126775164Y-125060818D01*
X127063817Y-125180678D01*
X127180795Y-125463787D01*
X127430656Y-125714085D01*
X127757283Y-125849713D01*
X128110949Y-125850021D01*
X128437812Y-125714964D01*
X128475384Y-125677457D01*
X131800446Y-125677457D01*
X131935503Y-126004320D01*
X131973508Y-126042392D01*
X131892205Y-126238191D01*
X131891897Y-126591857D01*
X132026954Y-126918720D01*
X132276815Y-127169018D01*
X132603442Y-127304646D01*
X132957108Y-127304954D01*
X133283971Y-127169897D01*
X133534269Y-126920036D01*
X133669897Y-126593409D01*
X133670205Y-126239743D01*
X133535148Y-125912880D01*
X133497143Y-125874808D01*
X133578446Y-125679009D01*
X133578754Y-125325343D01*
X133443697Y-124998480D01*
X133193836Y-124748182D01*
X132867209Y-124612554D01*
X132513543Y-124612246D01*
X132186680Y-124747303D01*
X131936382Y-124997164D01*
X131800754Y-125323791D01*
X131800446Y-125677457D01*
X128475384Y-125677457D01*
X128688110Y-125465103D01*
X128823738Y-125138476D01*
X128824046Y-124784810D01*
X128688989Y-124457947D01*
X128439128Y-124207649D01*
X128150475Y-124087789D01*
X128033497Y-123804680D01*
X127805538Y-123576322D01*
X127871799Y-123576380D01*
X128198662Y-123441323D01*
X128448960Y-123191462D01*
X128584588Y-122864835D01*
X128584896Y-122511169D01*
X128449839Y-122184306D01*
X128199978Y-121934008D01*
X128124834Y-121902805D01*
X128008097Y-121620280D01*
X127758236Y-121369982D01*
X127431609Y-121234354D01*
X127077943Y-121234046D01*
X126787600Y-121354013D01*
X126725681Y-121328302D01*
X126372015Y-121327994D01*
X126045152Y-121463051D01*
X125794854Y-121712912D01*
X125659226Y-122039539D01*
X125658918Y-122393205D01*
X125577600Y-122393205D01*
X125577600Y-120315074D01*
X125902730Y-120180733D01*
X126039775Y-120043927D01*
X126308571Y-120044161D01*
X126635434Y-119909104D01*
X126885732Y-119659243D01*
X127021360Y-119332616D01*
X127021668Y-118978950D01*
X126886611Y-118652087D01*
X126771449Y-118536724D01*
X126771644Y-118313135D01*
X126728971Y-118209857D01*
X128219046Y-118209857D01*
X128354103Y-118536720D01*
X128603964Y-118787018D01*
X128930591Y-118922646D01*
X129284257Y-118922954D01*
X129611120Y-118787897D01*
X129757615Y-118641657D01*
X130174846Y-118641657D01*
X130309903Y-118968520D01*
X130559764Y-119218818D01*
X130886391Y-119354446D01*
X131240057Y-119354754D01*
X131478097Y-119256398D01*
X131775391Y-119379846D01*
X132129057Y-119380154D01*
X132455920Y-119245097D01*
X132706218Y-118995236D01*
X132821396Y-118717857D01*
X133629246Y-118717857D01*
X133764303Y-119044720D01*
X134014164Y-119295018D01*
X134340791Y-119430646D01*
X134694457Y-119430954D01*
X135021320Y-119295897D01*
X135271618Y-119046036D01*
X135407246Y-118719409D01*
X135407554Y-118365743D01*
X135272497Y-118038880D01*
X135022636Y-117788582D01*
X134696009Y-117652954D01*
X134342343Y-117652646D01*
X134015480Y-117787703D01*
X133765182Y-118037564D01*
X133629554Y-118364191D01*
X133629246Y-118717857D01*
X132821396Y-118717857D01*
X132841846Y-118668609D01*
X132842154Y-118314943D01*
X132707097Y-117988080D01*
X132457236Y-117737782D01*
X132130609Y-117602154D01*
X131776943Y-117601846D01*
X131538903Y-117700202D01*
X131241609Y-117576754D01*
X130887943Y-117576446D01*
X130561080Y-117711503D01*
X130310782Y-117961364D01*
X130175154Y-118287991D01*
X130174846Y-118641657D01*
X129757615Y-118641657D01*
X129861418Y-118538036D01*
X129997046Y-118211409D01*
X129997354Y-117857743D01*
X129862297Y-117530880D01*
X129612436Y-117280582D01*
X129285809Y-117144954D01*
X128932143Y-117144646D01*
X128605280Y-117279703D01*
X128354982Y-117529564D01*
X128219354Y-117856191D01*
X128219046Y-118209857D01*
X126728971Y-118209857D01*
X126636587Y-117986272D01*
X126386726Y-117735974D01*
X126060099Y-117600346D01*
X125706433Y-117600038D01*
X125577600Y-117653271D01*
X125577600Y-116954273D01*
X125750320Y-116882907D01*
X126000618Y-116633046D01*
X126136246Y-116306419D01*
X126136290Y-116256098D01*
X126174005Y-116248596D01*
X126421215Y-116083415D01*
X126447921Y-116056709D01*
X126753620Y-115930397D01*
X126987425Y-115697000D01*
X129032000Y-115697000D01*
X129081410Y-115686994D01*
X129123035Y-115658553D01*
X129156276Y-115596163D01*
X129426209Y-114313980D01*
X137397674Y-114313980D01*
X137433441Y-114665833D01*
X137499278Y-114824777D01*
X137689200Y-114831195D01*
X138120395Y-114400000D01*
X137689200Y-113968805D01*
X137499278Y-113975223D01*
X137397674Y-114313980D01*
X129426209Y-114313980D01*
X129720945Y-112913980D01*
X137397674Y-112913980D01*
X137433441Y-113265833D01*
X137499278Y-113424777D01*
X137689200Y-113431195D01*
X138120395Y-113000000D01*
X137689200Y-112568805D01*
X137499278Y-112575223D01*
X137397674Y-112913980D01*
X129720945Y-112913980D01*
X130036735Y-111413980D01*
X137397674Y-111413980D01*
X137433441Y-111765833D01*
X137499278Y-111924777D01*
X137689200Y-111931195D01*
X138120395Y-111500000D01*
X137689200Y-111068805D01*
X137499278Y-111075223D01*
X137397674Y-111413980D01*
X130036735Y-111413980D01*
X130172276Y-110770163D01*
X130174954Y-110747431D01*
X130181349Y-110510800D01*
X135568805Y-110510800D01*
X135575223Y-110700722D01*
X135913980Y-110802326D01*
X136265833Y-110766559D01*
X136424777Y-110700722D01*
X136431195Y-110510800D01*
X136768805Y-110510800D01*
X136775223Y-110700722D01*
X137113980Y-110802326D01*
X137465833Y-110766559D01*
X137624777Y-110700722D01*
X137631195Y-110510800D01*
X137200000Y-110079605D01*
X136768805Y-110510800D01*
X136431195Y-110510800D01*
X136000000Y-110079605D01*
X135568805Y-110510800D01*
X130181349Y-110510800D01*
X130200182Y-109813980D01*
X135097674Y-109813980D01*
X135133441Y-110165833D01*
X135199278Y-110324777D01*
X135389200Y-110331195D01*
X135820395Y-109900000D01*
X136179605Y-109900000D01*
X136320768Y-110041163D01*
X136333441Y-110165833D01*
X136399278Y-110324777D01*
X136589200Y-110331195D01*
X136600000Y-110320395D01*
X136610800Y-110331195D01*
X136800722Y-110324777D01*
X136888595Y-110031800D01*
X137020395Y-109900000D01*
X137379605Y-109900000D01*
X137409452Y-109929847D01*
X137433441Y-110165833D01*
X137499278Y-110324777D01*
X137689200Y-110331195D01*
X137750000Y-110270395D01*
X137810800Y-110331195D01*
X138000722Y-110324777D01*
X138102326Y-109986020D01*
X138096056Y-109924339D01*
X138120395Y-109900000D01*
X138090548Y-109870153D01*
X138066559Y-109634167D01*
X138000722Y-109475223D01*
X137810800Y-109468805D01*
X137750000Y-109529605D01*
X137689200Y-109468805D01*
X137499278Y-109475223D01*
X137397674Y-109813980D01*
X137403944Y-109875661D01*
X137379605Y-109900000D01*
X137020395Y-109900000D01*
X136879232Y-109758837D01*
X136866559Y-109634167D01*
X136800722Y-109475223D01*
X136610800Y-109468805D01*
X136600000Y-109479605D01*
X136589200Y-109468805D01*
X136399278Y-109475223D01*
X136311405Y-109768200D01*
X136179605Y-109900000D01*
X135820395Y-109900000D01*
X135389200Y-109468805D01*
X135199278Y-109475223D01*
X135097674Y-109813980D01*
X130200182Y-109813980D01*
X130313695Y-105613980D01*
X133297674Y-105613980D01*
X133333441Y-105965833D01*
X133399278Y-106124777D01*
X133589200Y-106131195D01*
X134020395Y-105700000D01*
X133589200Y-105268805D01*
X133399278Y-105275223D01*
X133297674Y-105613980D01*
X130313695Y-105613980D01*
X130394862Y-102610800D01*
X133168805Y-102610800D01*
X133175223Y-102800722D01*
X133513980Y-102902326D01*
X133865833Y-102866559D01*
X134024777Y-102800722D01*
X134031195Y-102610800D01*
X134668805Y-102610800D01*
X134675223Y-102800722D01*
X135013980Y-102902326D01*
X135365833Y-102866559D01*
X135524777Y-102800722D01*
X135531195Y-102610800D01*
X136068805Y-102610800D01*
X136075223Y-102800722D01*
X136413980Y-102902326D01*
X136765833Y-102866559D01*
X136924777Y-102800722D01*
X136931195Y-102610800D01*
X136909595Y-102589200D01*
X137468805Y-102589200D01*
X137479605Y-102600000D01*
X137468805Y-102610800D01*
X137475223Y-102800722D01*
X137768200Y-102888595D01*
X137900000Y-103020395D01*
X138041163Y-102879232D01*
X138165833Y-102866559D01*
X138324777Y-102800722D01*
X138331195Y-102610800D01*
X138320395Y-102600000D01*
X138331195Y-102589200D01*
X138324777Y-102399278D01*
X138031800Y-102311405D01*
X137900000Y-102179605D01*
X137758837Y-102320768D01*
X137634167Y-102333441D01*
X137475223Y-102399278D01*
X137468805Y-102589200D01*
X136909595Y-102589200D01*
X136500000Y-102179605D01*
X136068805Y-102610800D01*
X135531195Y-102610800D01*
X135100000Y-102179605D01*
X134668805Y-102610800D01*
X134031195Y-102610800D01*
X133600000Y-102179605D01*
X133168805Y-102610800D01*
X130394862Y-102610800D01*
X130423587Y-101548000D01*
X132968392Y-101548000D01*
X132989197Y-101568805D01*
G36*
X109414264Y-116666118D02*
X109721780Y-116793810D01*
X110560785Y-117632816D01*
X110679865Y-117712382D01*
X110807995Y-117797996D01*
X111099600Y-117856000D01*
X113792000Y-117856000D01*
X113792000Y-123888500D01*
X109029500Y-123888500D01*
X108980090Y-123898506D01*
X108938465Y-123926947D01*
X108911185Y-123969341D01*
X108902500Y-124015500D01*
X108902500Y-128100027D01*
X108790564Y-128211768D01*
X108654936Y-128538395D01*
X108654628Y-128892061D01*
X108789685Y-129218924D01*
X108902500Y-129331936D01*
X108902500Y-141306752D01*
X107469496Y-143113583D01*
X107446632Y-143158513D01*
X107442000Y-143192500D01*
X107442000Y-143448965D01*
X101275812Y-143569871D01*
X101840845Y-142044282D01*
X104562916Y-137992827D01*
X104584500Y-137922000D01*
X104584500Y-126238000D01*
X104574494Y-126188590D01*
X104558288Y-126160729D01*
X104394538Y-125947142D01*
X108999897Y-121341783D01*
X109181596Y-121069852D01*
X109245400Y-120749086D01*
X109245400Y-116496959D01*
X109414264Y-116666118D01*
X109414264Y-116666118D01*
G37*
X109414264Y-116666118D02*
X109721780Y-116793810D01*
X110560785Y-117632816D01*
X110679865Y-117712382D01*
X110807995Y-117797996D01*
X111099600Y-117856000D01*
X113792000Y-117856000D01*
X113792000Y-123888500D01*
X109029500Y-123888500D01*
X108980090Y-123898506D01*
X108938465Y-123926947D01*
X108911185Y-123969341D01*
X108902500Y-124015500D01*
X108902500Y-128100027D01*
X108790564Y-128211768D01*
X108654936Y-128538395D01*
X108654628Y-128892061D01*
X108789685Y-129218924D01*
X108902500Y-129331936D01*
X108902500Y-141306752D01*
X107469496Y-143113583D01*
X107446632Y-143158513D01*
X107442000Y-143192500D01*
X107442000Y-143448965D01*
X101275812Y-143569871D01*
X101840845Y-142044282D01*
X104562916Y-137992827D01*
X104584500Y-137922000D01*
X104584500Y-126238000D01*
X104574494Y-126188590D01*
X104558288Y-126160729D01*
X104394538Y-125947142D01*
X108999897Y-121341783D01*
X109181596Y-121069852D01*
X109245400Y-120749086D01*
X109245400Y-116496959D01*
X109414264Y-116666118D01*
G36*
X129603592Y-110729932D02*
X128675643Y-114998500D01*
X127139134Y-114998500D01*
X127004797Y-114673380D01*
X126754936Y-114423082D01*
X126428309Y-114287454D01*
X126074643Y-114287146D01*
X125747780Y-114422203D01*
X125497482Y-114672064D01*
X125451583Y-114782600D01*
X121897617Y-114782600D01*
X121592139Y-114655754D01*
X121238473Y-114655446D01*
X121049836Y-114733389D01*
X121043803Y-114718788D01*
X120793942Y-114468490D01*
X120467315Y-114332862D01*
X120113649Y-114332554D01*
X119786786Y-114467611D01*
X119750167Y-114504166D01*
X119667042Y-114469650D01*
X119313376Y-114469342D01*
X118986513Y-114604399D01*
X118839759Y-114750897D01*
X118825258Y-114736370D01*
X118498631Y-114600742D01*
X118144965Y-114600434D01*
X117818102Y-114735491D01*
X117711247Y-114842159D01*
X117667747Y-114736880D01*
X117417886Y-114486582D01*
X117091259Y-114350954D01*
X116737593Y-114350646D01*
X116410730Y-114485703D01*
X116160432Y-114735564D01*
X116051251Y-114998500D01*
X113919000Y-114998500D01*
X113869590Y-115008506D01*
X113827965Y-115036947D01*
X113800685Y-115079341D01*
X113792000Y-115125500D01*
X113792000Y-116332000D01*
X111415231Y-116332000D01*
X110798909Y-115715679D01*
X110672597Y-115409980D01*
X110422736Y-115159682D01*
X110096109Y-115024054D01*
X109742443Y-115023746D01*
X109464124Y-115138745D01*
X111654846Y-112948023D01*
X112969661Y-112948023D01*
X113104718Y-113274886D01*
X113354579Y-113525184D01*
X113681206Y-113660812D01*
X114034872Y-113661120D01*
X114361735Y-113526063D01*
X114372424Y-113515393D01*
X114615169Y-113616190D01*
X114968835Y-113616498D01*
X115295698Y-113481441D01*
X115545996Y-113231580D01*
X115653243Y-112973303D01*
X115878564Y-113199018D01*
X116205191Y-113334646D01*
X116553529Y-113334949D01*
X117181094Y-113962515D01*
X117349287Y-114074898D01*
X117428305Y-114127696D01*
X117719910Y-114185700D01*
X121717452Y-114185700D01*
X122009057Y-114127696D01*
X122256267Y-113962515D01*
X122889822Y-113328961D01*
X123195520Y-113202649D01*
X123445818Y-112952788D01*
X123581446Y-112626161D01*
X123581754Y-112272495D01*
X123560306Y-112220585D01*
X123745948Y-112220585D01*
X123881005Y-112547448D01*
X124099843Y-112766669D01*
X124099727Y-112899815D01*
X124234784Y-113226678D01*
X124484645Y-113476976D01*
X124811272Y-113612604D01*
X125164938Y-113612912D01*
X125491801Y-113477855D01*
X125742099Y-113227994D01*
X125877727Y-112901367D01*
X125878035Y-112547701D01*
X125742978Y-112220838D01*
X125524140Y-112001617D01*
X125524256Y-111868471D01*
X125389199Y-111541608D01*
X125139338Y-111291310D01*
X124812711Y-111155682D01*
X124459045Y-111155374D01*
X124132182Y-111290431D01*
X123881884Y-111540292D01*
X123746256Y-111866919D01*
X123745948Y-112220585D01*
X123560306Y-112220585D01*
X123446697Y-111945632D01*
X123196836Y-111695334D01*
X122870209Y-111559706D01*
X122516543Y-111559398D01*
X122189680Y-111694455D01*
X121939382Y-111944316D01*
X121924443Y-111980292D01*
X121865436Y-111921182D01*
X121538809Y-111785554D01*
X121185143Y-111785246D01*
X120858280Y-111920303D01*
X120649856Y-112128363D01*
X120443036Y-111921182D01*
X120116409Y-111785554D01*
X119762743Y-111785246D01*
X119435880Y-111920303D01*
X119418142Y-111938010D01*
X119349181Y-111868929D01*
X119022554Y-111733301D01*
X118668888Y-111732993D01*
X118342025Y-111868050D01*
X118091727Y-112117911D01*
X117956099Y-112444538D01*
X117955979Y-112582138D01*
X117280825Y-111906985D01*
X117033615Y-111741804D01*
X116912029Y-111717619D01*
X116887036Y-111692582D01*
X116560409Y-111556954D01*
X116206743Y-111556646D01*
X115879880Y-111691703D01*
X115629582Y-111941564D01*
X115522335Y-112199841D01*
X115297014Y-111974126D01*
X114970387Y-111838498D01*
X114616721Y-111838190D01*
X114289858Y-111973247D01*
X114279169Y-111983917D01*
X114036424Y-111883120D01*
X113682758Y-111882812D01*
X113355895Y-112017869D01*
X113105597Y-112267730D01*
X112969969Y-112594357D01*
X112969661Y-112948023D01*
X111654846Y-112948023D01*
X115328361Y-109274508D01*
X115510060Y-109002576D01*
X115573864Y-108681811D01*
X115573864Y-108458000D01*
X115956222Y-108458000D01*
X116078191Y-108508646D01*
X116431857Y-108508954D01*
X116758720Y-108373897D01*
X116855096Y-108277689D01*
X116965427Y-108323503D01*
X117319093Y-108323811D01*
X117515001Y-108242864D01*
X117702829Y-108320857D01*
X118056495Y-108321165D01*
X118226068Y-108251099D01*
X118413986Y-108329130D01*
X118767652Y-108329438D01*
X119094515Y-108194381D01*
X119203356Y-108085730D01*
X119255770Y-108138235D01*
X119582397Y-108273863D01*
X119936063Y-108274171D01*
X120262926Y-108139114D01*
X120513224Y-107889253D01*
X120648852Y-107562626D01*
X120649160Y-107208960D01*
X120514103Y-106882097D01*
X120264242Y-106631799D01*
X120141012Y-106580629D01*
X120124574Y-106564191D01*
X121142613Y-106564191D01*
X121073282Y-106592838D01*
X120822984Y-106842699D01*
X120687356Y-107169326D01*
X120687048Y-107522992D01*
X120822105Y-107849855D01*
X121071966Y-108100153D01*
X121398593Y-108235781D01*
X121752259Y-108236089D01*
X122079122Y-108101032D01*
X122329420Y-107851171D01*
X122465048Y-107524544D01*
X122465356Y-107170878D01*
X122330299Y-106844015D01*
X122080438Y-106593717D01*
X122009332Y-106564191D01*
X122216437Y-106564191D01*
X124089495Y-108437249D01*
X124361427Y-108618948D01*
X124682192Y-108682752D01*
X125228620Y-108682752D01*
X125350589Y-108733398D01*
X125704255Y-108733706D01*
X126031118Y-108598649D01*
X126281416Y-108348788D01*
X126331714Y-108227657D01*
X126618846Y-108227657D01*
X126753903Y-108554520D01*
X127003764Y-108804818D01*
X127330391Y-108940446D01*
X127684057Y-108940754D01*
X128010920Y-108805697D01*
X128261218Y-108555836D01*
X128396846Y-108229209D01*
X128397154Y-107875543D01*
X128262097Y-107548680D01*
X128012236Y-107298382D01*
X127685609Y-107162754D01*
X127331943Y-107162446D01*
X127005080Y-107297503D01*
X126754782Y-107547364D01*
X126619154Y-107873991D01*
X126618846Y-108227657D01*
X126331714Y-108227657D01*
X126417044Y-108022161D01*
X126417352Y-107668495D01*
X126301619Y-107388399D01*
X126331642Y-107316095D01*
X126331950Y-106962429D01*
X126196893Y-106635566D01*
X125947032Y-106385268D01*
X125620405Y-106249640D01*
X125266739Y-106249332D01*
X124939876Y-106384389D01*
X124689578Y-106634250D01*
X124680103Y-106657069D01*
X123569598Y-105546564D01*
X123670174Y-105546652D01*
X123807894Y-105489747D01*
X124096248Y-105609483D01*
X124449914Y-105609791D01*
X124776777Y-105474734D01*
X125027075Y-105224873D01*
X125162703Y-104898246D01*
X125163011Y-104544580D01*
X125027954Y-104217717D01*
X124778093Y-103967419D01*
X124451466Y-103831791D01*
X124097800Y-103831483D01*
X123960080Y-103888388D01*
X123671726Y-103768652D01*
X123329792Y-103768354D01*
X123329854Y-103697243D01*
X123194797Y-103370380D01*
X122944936Y-103120082D01*
X122618309Y-102984454D01*
X122264643Y-102984146D01*
X121937780Y-103119203D01*
X121795271Y-103261463D01*
X121475025Y-103261184D01*
X121148162Y-103396241D01*
X120984048Y-103560068D01*
X120856244Y-103432040D01*
X120529617Y-103296412D01*
X120175951Y-103296104D01*
X119849088Y-103431161D01*
X119707138Y-103572863D01*
X119687832Y-103553524D01*
X119361205Y-103417896D01*
X119180110Y-103417738D01*
X119387620Y-103331997D01*
X119637918Y-103082136D01*
X119773546Y-102755509D01*
X119773854Y-102401843D01*
X119638797Y-102074980D01*
X119388936Y-101824682D01*
X119062309Y-101689054D01*
X118708643Y-101688746D01*
X118381780Y-101823803D01*
X118131482Y-102073664D01*
X117995854Y-102400291D01*
X117995546Y-102753957D01*
X118004526Y-102775691D01*
X117843109Y-102708664D01*
X117489443Y-102708356D01*
X117162580Y-102843413D01*
X116912282Y-103093274D01*
X116796818Y-103371342D01*
X116709674Y-103284046D01*
X116383047Y-103148418D01*
X116029381Y-103148110D01*
X115702518Y-103283167D01*
X115678863Y-103306780D01*
X115667267Y-103301965D01*
X115313601Y-103301657D01*
X114986738Y-103436714D01*
X114736440Y-103686575D01*
X114600812Y-104013202D01*
X114600504Y-104366868D01*
X114735561Y-104693731D01*
X114929282Y-104887791D01*
X112560667Y-104887791D01*
X112560876Y-104647806D01*
X112425819Y-104320943D01*
X112175958Y-104070645D01*
X111849331Y-103935017D01*
X111495665Y-103934709D01*
X111168802Y-104069766D01*
X110918504Y-104319627D01*
X110782876Y-104646254D01*
X110782568Y-104999920D01*
X110917625Y-105326783D01*
X111167486Y-105577081D01*
X111290790Y-105628281D01*
X111011942Y-105907129D01*
X110830243Y-106179060D01*
X110800996Y-106326095D01*
X110766439Y-106499826D01*
X110766439Y-107806107D01*
X107695066Y-110877480D01*
X107556819Y-110738991D01*
X107635113Y-110739059D01*
X107961976Y-110604002D01*
X108212274Y-110354141D01*
X108347902Y-110027514D01*
X108348210Y-109673848D01*
X108213153Y-109346985D01*
X107963292Y-109096687D01*
X107636665Y-108961059D01*
X107282999Y-108960751D01*
X106956136Y-109095808D01*
X106705838Y-109345669D01*
X106659659Y-109456879D01*
X106532397Y-109148880D01*
X106282536Y-108898582D01*
X105955909Y-108762954D01*
X105602243Y-108762646D01*
X105275380Y-108897703D01*
X105025082Y-109147564D01*
X104889454Y-109474191D01*
X104889146Y-109827857D01*
X105024203Y-110154720D01*
X105274064Y-110405018D01*
X105600691Y-110540646D01*
X105954357Y-110540954D01*
X106281220Y-110405897D01*
X106531518Y-110156036D01*
X106577697Y-110044826D01*
X106704959Y-110352825D01*
X106952501Y-110600800D01*
X106874207Y-110600732D01*
X106547344Y-110735789D01*
X106297046Y-110985650D01*
X106245876Y-111108880D01*
X104080703Y-113274053D01*
X103899004Y-113545984D01*
X103876102Y-113661120D01*
X103835200Y-113866750D01*
X103835200Y-115239689D01*
X103786143Y-115239646D01*
X103459280Y-115374703D01*
X103208982Y-115624564D01*
X103073354Y-115951191D01*
X103073046Y-116304857D01*
X103124000Y-116428175D01*
X103124000Y-120363092D01*
X101297547Y-122189545D01*
X101281495Y-122173464D01*
X100954868Y-122037836D01*
X100601202Y-122037528D01*
X100555255Y-122056513D01*
X100377036Y-121877982D01*
X100050409Y-121742354D01*
X99696743Y-121742046D01*
X99369880Y-121877103D01*
X99119582Y-122126964D01*
X99047316Y-122301000D01*
X98026768Y-122301000D01*
X97661662Y-119806111D01*
X97644607Y-119758670D01*
X97610438Y-119721602D01*
X97564541Y-119700749D01*
X97536000Y-119697500D01*
X97336909Y-119697500D01*
X97254097Y-119497080D01*
X97004236Y-119246782D01*
X96677609Y-119111154D01*
X96323943Y-119110846D01*
X95999606Y-119244859D01*
X95677609Y-119111154D01*
X95323943Y-119110846D01*
X94997080Y-119245903D01*
X94875006Y-119367764D01*
X94754236Y-119246782D01*
X94427609Y-119111154D01*
X94073943Y-119110846D01*
X93747080Y-119245903D01*
X93625006Y-119367764D01*
X93504236Y-119246782D01*
X93177609Y-119111154D01*
X92823943Y-119110846D01*
X92497080Y-119245903D01*
X92375006Y-119367764D01*
X92254236Y-119246782D01*
X91927609Y-119111154D01*
X91573943Y-119110846D01*
X91247080Y-119245903D01*
X91125006Y-119367764D01*
X91004236Y-119246782D01*
X90677609Y-119111154D01*
X90323943Y-119110846D01*
X89997080Y-119245903D01*
X89746782Y-119495764D01*
X89663014Y-119697500D01*
X86868000Y-119697500D01*
X86818590Y-119707506D01*
X86776965Y-119735947D01*
X86749685Y-119778341D01*
X86741000Y-119824500D01*
X86741000Y-122364500D01*
X76708000Y-122364500D01*
X76708000Y-121119334D01*
X77033120Y-120984997D01*
X77283418Y-120735136D01*
X77419046Y-120408509D01*
X77419354Y-120054843D01*
X77284297Y-119727980D01*
X77034436Y-119477682D01*
X76708000Y-119342133D01*
X76708000Y-113426057D01*
X89360846Y-113426057D01*
X89495903Y-113752920D01*
X89742763Y-114000212D01*
X89496782Y-114245764D01*
X89361154Y-114572391D01*
X89360846Y-114926057D01*
X89495903Y-115252920D01*
X89742763Y-115500212D01*
X89496782Y-115745764D01*
X89361154Y-116072391D01*
X89360846Y-116426057D01*
X89495903Y-116752920D01*
X89742763Y-117000212D01*
X89496782Y-117245764D01*
X89361154Y-117572391D01*
X89360846Y-117926057D01*
X89495903Y-118252920D01*
X89745764Y-118503218D01*
X90072391Y-118638846D01*
X90426057Y-118639154D01*
X90750394Y-118505141D01*
X91072391Y-118638846D01*
X91426057Y-118639154D01*
X91752920Y-118504097D01*
X92003218Y-118254236D01*
X92138846Y-117927609D01*
X92139154Y-117573943D01*
X92004097Y-117247080D01*
X91757237Y-116999788D01*
X92003218Y-116754236D01*
X92138846Y-116427609D01*
X92139154Y-116073943D01*
X92004097Y-115747080D01*
X91757237Y-115499788D01*
X92003218Y-115254236D01*
X92138846Y-114927609D01*
X92139154Y-114573943D01*
X92004097Y-114247080D01*
X91757237Y-113999788D01*
X92003218Y-113754236D01*
X92138846Y-113427609D01*
X92139154Y-113073943D01*
X92004097Y-112747080D01*
X91754236Y-112496782D01*
X91427609Y-112361154D01*
X91073943Y-112360846D01*
X90749606Y-112494859D01*
X90427609Y-112361154D01*
X90073943Y-112360846D01*
X89747080Y-112495903D01*
X89496782Y-112745764D01*
X89361154Y-113072391D01*
X89360846Y-113426057D01*
X76708000Y-113426057D01*
X76708000Y-110807500D01*
X76697994Y-110758090D01*
X76669553Y-110716465D01*
X76627159Y-110689185D01*
X76582607Y-110680510D01*
X71566107Y-110617010D01*
X71516575Y-110626390D01*
X71481978Y-110647465D01*
X67544978Y-114012965D01*
X67506216Y-114071828D01*
X66289900Y-117987773D01*
X66159380Y-118041703D01*
X65909082Y-118291564D01*
X65773454Y-118618191D01*
X65773146Y-118971857D01*
X65893651Y-119263501D01*
X65151000Y-121654475D01*
X65151000Y-109104500D01*
X68643500Y-109104500D01*
X68915205Y-109050454D01*
X69145546Y-108896546D01*
X69299454Y-108666205D01*
X69353500Y-108394500D01*
X69353500Y-108306916D01*
X86588502Y-108306916D01*
X86723559Y-108633779D01*
X86973420Y-108884077D01*
X87300047Y-109019705D01*
X87653713Y-109020013D01*
X87960200Y-108893375D01*
X87960200Y-111181022D01*
X87909554Y-111302991D01*
X87909246Y-111656657D01*
X88044303Y-111983520D01*
X88294164Y-112233818D01*
X88620791Y-112369446D01*
X88974457Y-112369754D01*
X89301320Y-112234697D01*
X89551618Y-111984836D01*
X89687246Y-111658209D01*
X89687554Y-111304543D01*
X89636600Y-111181225D01*
X89636600Y-109645765D01*
X98715703Y-109645765D01*
X98850760Y-109972628D01*
X99100621Y-110222926D01*
X99427248Y-110358554D01*
X99780914Y-110358862D01*
X100107777Y-110223805D01*
X100358075Y-109973944D01*
X100493703Y-109647317D01*
X100493794Y-109542498D01*
X103036543Y-109542498D01*
X103171600Y-109869361D01*
X103421461Y-110119659D01*
X103748088Y-110255287D01*
X104101754Y-110255595D01*
X104428617Y-110120538D01*
X104678915Y-109870677D01*
X104814543Y-109544050D01*
X104814851Y-109190384D01*
X104679794Y-108863521D01*
X104429933Y-108613223D01*
X104103306Y-108477595D01*
X103749640Y-108477287D01*
X103422777Y-108612344D01*
X103172479Y-108862205D01*
X103036851Y-109188832D01*
X103036543Y-109542498D01*
X100493794Y-109542498D01*
X100494011Y-109293651D01*
X100358954Y-108966788D01*
X100109093Y-108716490D01*
X99782466Y-108580862D01*
X99428800Y-108580554D01*
X99101937Y-108715611D01*
X98851639Y-108965472D01*
X98716011Y-109292099D01*
X98715703Y-109645765D01*
X89636600Y-109645765D01*
X89636600Y-107522494D01*
X90587496Y-106571598D01*
X98279499Y-106571598D01*
X98052571Y-106798130D01*
X97916943Y-107124757D01*
X97916635Y-107478423D01*
X98051692Y-107805286D01*
X98301553Y-108055584D01*
X98628180Y-108191212D01*
X98981846Y-108191520D01*
X99308709Y-108056463D01*
X99559007Y-107806602D01*
X99694635Y-107479975D01*
X99694943Y-107126309D01*
X99559886Y-106799446D01*
X99332436Y-106571598D01*
X106877302Y-106571598D01*
X107198068Y-106507794D01*
X107469999Y-106326095D01*
X108076865Y-105719229D01*
X108198920Y-105668797D01*
X108449218Y-105418936D01*
X108584846Y-105092309D01*
X108585154Y-104738643D01*
X108450097Y-104411780D01*
X108200236Y-104161482D01*
X107873609Y-104025854D01*
X107519943Y-104025546D01*
X107193080Y-104160603D01*
X106942782Y-104410464D01*
X106891612Y-104533694D01*
X106530108Y-104895198D01*
X90240302Y-104895198D01*
X89919536Y-104959002D01*
X89647605Y-105140701D01*
X88205703Y-106582603D01*
X88024004Y-106854534D01*
X87999967Y-106975376D01*
X87960200Y-107175300D01*
X87960200Y-107368634D01*
X87655265Y-107242013D01*
X87301599Y-107241705D01*
X86974736Y-107376762D01*
X86724438Y-107626623D01*
X86588810Y-107953250D01*
X86588502Y-108306916D01*
X69353500Y-108306916D01*
X69353500Y-105918000D01*
X69338392Y-105842050D01*
X69336737Y-105764629D01*
X69311628Y-105707498D01*
X69299454Y-105646295D01*
X69256431Y-105581906D01*
X69225274Y-105511014D01*
X69180218Y-105467844D01*
X69145546Y-105415954D01*
X69081157Y-105372931D01*
X69025243Y-105319358D01*
X65151000Y-102848826D01*
X65151000Y-101548000D01*
X129665633Y-101548000D01*
X129603592Y-110729932D01*
X129603592Y-110729932D01*
G37*
X129603592Y-110729932D02*
X128675643Y-114998500D01*
X127139134Y-114998500D01*
X127004797Y-114673380D01*
X126754936Y-114423082D01*
X126428309Y-114287454D01*
X126074643Y-114287146D01*
X125747780Y-114422203D01*
X125497482Y-114672064D01*
X125451583Y-114782600D01*
X121897617Y-114782600D01*
X121592139Y-114655754D01*
X121238473Y-114655446D01*
X121049836Y-114733389D01*
X121043803Y-114718788D01*
X120793942Y-114468490D01*
X120467315Y-114332862D01*
X120113649Y-114332554D01*
X119786786Y-114467611D01*
X119750167Y-114504166D01*
X119667042Y-114469650D01*
X119313376Y-114469342D01*
X118986513Y-114604399D01*
X118839759Y-114750897D01*
X118825258Y-114736370D01*
X118498631Y-114600742D01*
X118144965Y-114600434D01*
X117818102Y-114735491D01*
X117711247Y-114842159D01*
X117667747Y-114736880D01*
X117417886Y-114486582D01*
X117091259Y-114350954D01*
X116737593Y-114350646D01*
X116410730Y-114485703D01*
X116160432Y-114735564D01*
X116051251Y-114998500D01*
X113919000Y-114998500D01*
X113869590Y-115008506D01*
X113827965Y-115036947D01*
X113800685Y-115079341D01*
X113792000Y-115125500D01*
X113792000Y-116332000D01*
X111415231Y-116332000D01*
X110798909Y-115715679D01*
X110672597Y-115409980D01*
X110422736Y-115159682D01*
X110096109Y-115024054D01*
X109742443Y-115023746D01*
X109464124Y-115138745D01*
X111654846Y-112948023D01*
X112969661Y-112948023D01*
X113104718Y-113274886D01*
X113354579Y-113525184D01*
X113681206Y-113660812D01*
X114034872Y-113661120D01*
X114361735Y-113526063D01*
X114372424Y-113515393D01*
X114615169Y-113616190D01*
X114968835Y-113616498D01*
X115295698Y-113481441D01*
X115545996Y-113231580D01*
X115653243Y-112973303D01*
X115878564Y-113199018D01*
X116205191Y-113334646D01*
X116553529Y-113334949D01*
X117181094Y-113962515D01*
X117349287Y-114074898D01*
X117428305Y-114127696D01*
X117719910Y-114185700D01*
X121717452Y-114185700D01*
X122009057Y-114127696D01*
X122256267Y-113962515D01*
X122889822Y-113328961D01*
X123195520Y-113202649D01*
X123445818Y-112952788D01*
X123581446Y-112626161D01*
X123581754Y-112272495D01*
X123560306Y-112220585D01*
X123745948Y-112220585D01*
X123881005Y-112547448D01*
X124099843Y-112766669D01*
X124099727Y-112899815D01*
X124234784Y-113226678D01*
X124484645Y-113476976D01*
X124811272Y-113612604D01*
X125164938Y-113612912D01*
X125491801Y-113477855D01*
X125742099Y-113227994D01*
X125877727Y-112901367D01*
X125878035Y-112547701D01*
X125742978Y-112220838D01*
X125524140Y-112001617D01*
X125524256Y-111868471D01*
X125389199Y-111541608D01*
X125139338Y-111291310D01*
X124812711Y-111155682D01*
X124459045Y-111155374D01*
X124132182Y-111290431D01*
X123881884Y-111540292D01*
X123746256Y-111866919D01*
X123745948Y-112220585D01*
X123560306Y-112220585D01*
X123446697Y-111945632D01*
X123196836Y-111695334D01*
X122870209Y-111559706D01*
X122516543Y-111559398D01*
X122189680Y-111694455D01*
X121939382Y-111944316D01*
X121924443Y-111980292D01*
X121865436Y-111921182D01*
X121538809Y-111785554D01*
X121185143Y-111785246D01*
X120858280Y-111920303D01*
X120649856Y-112128363D01*
X120443036Y-111921182D01*
X120116409Y-111785554D01*
X119762743Y-111785246D01*
X119435880Y-111920303D01*
X119418142Y-111938010D01*
X119349181Y-111868929D01*
X119022554Y-111733301D01*
X118668888Y-111732993D01*
X118342025Y-111868050D01*
X118091727Y-112117911D01*
X117956099Y-112444538D01*
X117955979Y-112582138D01*
X117280825Y-111906985D01*
X117033615Y-111741804D01*
X116912029Y-111717619D01*
X116887036Y-111692582D01*
X116560409Y-111556954D01*
X116206743Y-111556646D01*
X115879880Y-111691703D01*
X115629582Y-111941564D01*
X115522335Y-112199841D01*
X115297014Y-111974126D01*
X114970387Y-111838498D01*
X114616721Y-111838190D01*
X114289858Y-111973247D01*
X114279169Y-111983917D01*
X114036424Y-111883120D01*
X113682758Y-111882812D01*
X113355895Y-112017869D01*
X113105597Y-112267730D01*
X112969969Y-112594357D01*
X112969661Y-112948023D01*
X111654846Y-112948023D01*
X115328361Y-109274508D01*
X115510060Y-109002576D01*
X115573864Y-108681811D01*
X115573864Y-108458000D01*
X115956222Y-108458000D01*
X116078191Y-108508646D01*
X116431857Y-108508954D01*
X116758720Y-108373897D01*
X116855096Y-108277689D01*
X116965427Y-108323503D01*
X117319093Y-108323811D01*
X117515001Y-108242864D01*
X117702829Y-108320857D01*
X118056495Y-108321165D01*
X118226068Y-108251099D01*
X118413986Y-108329130D01*
X118767652Y-108329438D01*
X119094515Y-108194381D01*
X119203356Y-108085730D01*
X119255770Y-108138235D01*
X119582397Y-108273863D01*
X119936063Y-108274171D01*
X120262926Y-108139114D01*
X120513224Y-107889253D01*
X120648852Y-107562626D01*
X120649160Y-107208960D01*
X120514103Y-106882097D01*
X120264242Y-106631799D01*
X120141012Y-106580629D01*
X120124574Y-106564191D01*
X121142613Y-106564191D01*
X121073282Y-106592838D01*
X120822984Y-106842699D01*
X120687356Y-107169326D01*
X120687048Y-107522992D01*
X120822105Y-107849855D01*
X121071966Y-108100153D01*
X121398593Y-108235781D01*
X121752259Y-108236089D01*
X122079122Y-108101032D01*
X122329420Y-107851171D01*
X122465048Y-107524544D01*
X122465356Y-107170878D01*
X122330299Y-106844015D01*
X122080438Y-106593717D01*
X122009332Y-106564191D01*
X122216437Y-106564191D01*
X124089495Y-108437249D01*
X124361427Y-108618948D01*
X124682192Y-108682752D01*
X125228620Y-108682752D01*
X125350589Y-108733398D01*
X125704255Y-108733706D01*
X126031118Y-108598649D01*
X126281416Y-108348788D01*
X126331714Y-108227657D01*
X126618846Y-108227657D01*
X126753903Y-108554520D01*
X127003764Y-108804818D01*
X127330391Y-108940446D01*
X127684057Y-108940754D01*
X128010920Y-108805697D01*
X128261218Y-108555836D01*
X128396846Y-108229209D01*
X128397154Y-107875543D01*
X128262097Y-107548680D01*
X128012236Y-107298382D01*
X127685609Y-107162754D01*
X127331943Y-107162446D01*
X127005080Y-107297503D01*
X126754782Y-107547364D01*
X126619154Y-107873991D01*
X126618846Y-108227657D01*
X126331714Y-108227657D01*
X126417044Y-108022161D01*
X126417352Y-107668495D01*
X126301619Y-107388399D01*
X126331642Y-107316095D01*
X126331950Y-106962429D01*
X126196893Y-106635566D01*
X125947032Y-106385268D01*
X125620405Y-106249640D01*
X125266739Y-106249332D01*
X124939876Y-106384389D01*
X124689578Y-106634250D01*
X124680103Y-106657069D01*
X123569598Y-105546564D01*
X123670174Y-105546652D01*
X123807894Y-105489747D01*
X124096248Y-105609483D01*
X124449914Y-105609791D01*
X124776777Y-105474734D01*
X125027075Y-105224873D01*
X125162703Y-104898246D01*
X125163011Y-104544580D01*
X125027954Y-104217717D01*
X124778093Y-103967419D01*
X124451466Y-103831791D01*
X124097800Y-103831483D01*
X123960080Y-103888388D01*
X123671726Y-103768652D01*
X123329792Y-103768354D01*
X123329854Y-103697243D01*
X123194797Y-103370380D01*
X122944936Y-103120082D01*
X122618309Y-102984454D01*
X122264643Y-102984146D01*
X121937780Y-103119203D01*
X121795271Y-103261463D01*
X121475025Y-103261184D01*
X121148162Y-103396241D01*
X120984048Y-103560068D01*
X120856244Y-103432040D01*
X120529617Y-103296412D01*
X120175951Y-103296104D01*
X119849088Y-103431161D01*
X119707138Y-103572863D01*
X119687832Y-103553524D01*
X119361205Y-103417896D01*
X119180110Y-103417738D01*
X119387620Y-103331997D01*
X119637918Y-103082136D01*
X119773546Y-102755509D01*
X119773854Y-102401843D01*
X119638797Y-102074980D01*
X119388936Y-101824682D01*
X119062309Y-101689054D01*
X118708643Y-101688746D01*
X118381780Y-101823803D01*
X118131482Y-102073664D01*
X117995854Y-102400291D01*
X117995546Y-102753957D01*
X118004526Y-102775691D01*
X117843109Y-102708664D01*
X117489443Y-102708356D01*
X117162580Y-102843413D01*
X116912282Y-103093274D01*
X116796818Y-103371342D01*
X116709674Y-103284046D01*
X116383047Y-103148418D01*
X116029381Y-103148110D01*
X115702518Y-103283167D01*
X115678863Y-103306780D01*
X115667267Y-103301965D01*
X115313601Y-103301657D01*
X114986738Y-103436714D01*
X114736440Y-103686575D01*
X114600812Y-104013202D01*
X114600504Y-104366868D01*
X114735561Y-104693731D01*
X114929282Y-104887791D01*
X112560667Y-104887791D01*
X112560876Y-104647806D01*
X112425819Y-104320943D01*
X112175958Y-104070645D01*
X111849331Y-103935017D01*
X111495665Y-103934709D01*
X111168802Y-104069766D01*
X110918504Y-104319627D01*
X110782876Y-104646254D01*
X110782568Y-104999920D01*
X110917625Y-105326783D01*
X111167486Y-105577081D01*
X111290790Y-105628281D01*
X111011942Y-105907129D01*
X110830243Y-106179060D01*
X110800996Y-106326095D01*
X110766439Y-106499826D01*
X110766439Y-107806107D01*
X107695066Y-110877480D01*
X107556819Y-110738991D01*
X107635113Y-110739059D01*
X107961976Y-110604002D01*
X108212274Y-110354141D01*
X108347902Y-110027514D01*
X108348210Y-109673848D01*
X108213153Y-109346985D01*
X107963292Y-109096687D01*
X107636665Y-108961059D01*
X107282999Y-108960751D01*
X106956136Y-109095808D01*
X106705838Y-109345669D01*
X106659659Y-109456879D01*
X106532397Y-109148880D01*
X106282536Y-108898582D01*
X105955909Y-108762954D01*
X105602243Y-108762646D01*
X105275380Y-108897703D01*
X105025082Y-109147564D01*
X104889454Y-109474191D01*
X104889146Y-109827857D01*
X105024203Y-110154720D01*
X105274064Y-110405018D01*
X105600691Y-110540646D01*
X105954357Y-110540954D01*
X106281220Y-110405897D01*
X106531518Y-110156036D01*
X106577697Y-110044826D01*
X106704959Y-110352825D01*
X106952501Y-110600800D01*
X106874207Y-110600732D01*
X106547344Y-110735789D01*
X106297046Y-110985650D01*
X106245876Y-111108880D01*
X104080703Y-113274053D01*
X103899004Y-113545984D01*
X103876102Y-113661120D01*
X103835200Y-113866750D01*
X103835200Y-115239689D01*
X103786143Y-115239646D01*
X103459280Y-115374703D01*
X103208982Y-115624564D01*
X103073354Y-115951191D01*
X103073046Y-116304857D01*
X103124000Y-116428175D01*
X103124000Y-120363092D01*
X101297547Y-122189545D01*
X101281495Y-122173464D01*
X100954868Y-122037836D01*
X100601202Y-122037528D01*
X100555255Y-122056513D01*
X100377036Y-121877982D01*
X100050409Y-121742354D01*
X99696743Y-121742046D01*
X99369880Y-121877103D01*
X99119582Y-122126964D01*
X99047316Y-122301000D01*
X98026768Y-122301000D01*
X97661662Y-119806111D01*
X97644607Y-119758670D01*
X97610438Y-119721602D01*
X97564541Y-119700749D01*
X97536000Y-119697500D01*
X97336909Y-119697500D01*
X97254097Y-119497080D01*
X97004236Y-119246782D01*
X96677609Y-119111154D01*
X96323943Y-119110846D01*
X95999606Y-119244859D01*
X95677609Y-119111154D01*
X95323943Y-119110846D01*
X94997080Y-119245903D01*
X94875006Y-119367764D01*
X94754236Y-119246782D01*
X94427609Y-119111154D01*
X94073943Y-119110846D01*
X93747080Y-119245903D01*
X93625006Y-119367764D01*
X93504236Y-119246782D01*
X93177609Y-119111154D01*
X92823943Y-119110846D01*
X92497080Y-119245903D01*
X92375006Y-119367764D01*
X92254236Y-119246782D01*
X91927609Y-119111154D01*
X91573943Y-119110846D01*
X91247080Y-119245903D01*
X91125006Y-119367764D01*
X91004236Y-119246782D01*
X90677609Y-119111154D01*
X90323943Y-119110846D01*
X89997080Y-119245903D01*
X89746782Y-119495764D01*
X89663014Y-119697500D01*
X86868000Y-119697500D01*
X86818590Y-119707506D01*
X86776965Y-119735947D01*
X86749685Y-119778341D01*
X86741000Y-119824500D01*
X86741000Y-122364500D01*
X76708000Y-122364500D01*
X76708000Y-121119334D01*
X77033120Y-120984997D01*
X77283418Y-120735136D01*
X77419046Y-120408509D01*
X77419354Y-120054843D01*
X77284297Y-119727980D01*
X77034436Y-119477682D01*
X76708000Y-119342133D01*
X76708000Y-113426057D01*
X89360846Y-113426057D01*
X89495903Y-113752920D01*
X89742763Y-114000212D01*
X89496782Y-114245764D01*
X89361154Y-114572391D01*
X89360846Y-114926057D01*
X89495903Y-115252920D01*
X89742763Y-115500212D01*
X89496782Y-115745764D01*
X89361154Y-116072391D01*
X89360846Y-116426057D01*
X89495903Y-116752920D01*
X89742763Y-117000212D01*
X89496782Y-117245764D01*
X89361154Y-117572391D01*
X89360846Y-117926057D01*
X89495903Y-118252920D01*
X89745764Y-118503218D01*
X90072391Y-118638846D01*
X90426057Y-118639154D01*
X90750394Y-118505141D01*
X91072391Y-118638846D01*
X91426057Y-118639154D01*
X91752920Y-118504097D01*
X92003218Y-118254236D01*
X92138846Y-117927609D01*
X92139154Y-117573943D01*
X92004097Y-117247080D01*
X91757237Y-116999788D01*
X92003218Y-116754236D01*
X92138846Y-116427609D01*
X92139154Y-116073943D01*
X92004097Y-115747080D01*
X91757237Y-115499788D01*
X92003218Y-115254236D01*
X92138846Y-114927609D01*
X92139154Y-114573943D01*
X92004097Y-114247080D01*
X91757237Y-113999788D01*
X92003218Y-113754236D01*
X92138846Y-113427609D01*
X92139154Y-113073943D01*
X92004097Y-112747080D01*
X91754236Y-112496782D01*
X91427609Y-112361154D01*
X91073943Y-112360846D01*
X90749606Y-112494859D01*
X90427609Y-112361154D01*
X90073943Y-112360846D01*
X89747080Y-112495903D01*
X89496782Y-112745764D01*
X89361154Y-113072391D01*
X89360846Y-113426057D01*
X76708000Y-113426057D01*
X76708000Y-110807500D01*
X76697994Y-110758090D01*
X76669553Y-110716465D01*
X76627159Y-110689185D01*
X76582607Y-110680510D01*
X71566107Y-110617010D01*
X71516575Y-110626390D01*
X71481978Y-110647465D01*
X67544978Y-114012965D01*
X67506216Y-114071828D01*
X66289900Y-117987773D01*
X66159380Y-118041703D01*
X65909082Y-118291564D01*
X65773454Y-118618191D01*
X65773146Y-118971857D01*
X65893651Y-119263501D01*
X65151000Y-121654475D01*
X65151000Y-109104500D01*
X68643500Y-109104500D01*
X68915205Y-109050454D01*
X69145546Y-108896546D01*
X69299454Y-108666205D01*
X69353500Y-108394500D01*
X69353500Y-108306916D01*
X86588502Y-108306916D01*
X86723559Y-108633779D01*
X86973420Y-108884077D01*
X87300047Y-109019705D01*
X87653713Y-109020013D01*
X87960200Y-108893375D01*
X87960200Y-111181022D01*
X87909554Y-111302991D01*
X87909246Y-111656657D01*
X88044303Y-111983520D01*
X88294164Y-112233818D01*
X88620791Y-112369446D01*
X88974457Y-112369754D01*
X89301320Y-112234697D01*
X89551618Y-111984836D01*
X89687246Y-111658209D01*
X89687554Y-111304543D01*
X89636600Y-111181225D01*
X89636600Y-109645765D01*
X98715703Y-109645765D01*
X98850760Y-109972628D01*
X99100621Y-110222926D01*
X99427248Y-110358554D01*
X99780914Y-110358862D01*
X100107777Y-110223805D01*
X100358075Y-109973944D01*
X100493703Y-109647317D01*
X100493794Y-109542498D01*
X103036543Y-109542498D01*
X103171600Y-109869361D01*
X103421461Y-110119659D01*
X103748088Y-110255287D01*
X104101754Y-110255595D01*
X104428617Y-110120538D01*
X104678915Y-109870677D01*
X104814543Y-109544050D01*
X104814851Y-109190384D01*
X104679794Y-108863521D01*
X104429933Y-108613223D01*
X104103306Y-108477595D01*
X103749640Y-108477287D01*
X103422777Y-108612344D01*
X103172479Y-108862205D01*
X103036851Y-109188832D01*
X103036543Y-109542498D01*
X100493794Y-109542498D01*
X100494011Y-109293651D01*
X100358954Y-108966788D01*
X100109093Y-108716490D01*
X99782466Y-108580862D01*
X99428800Y-108580554D01*
X99101937Y-108715611D01*
X98851639Y-108965472D01*
X98716011Y-109292099D01*
X98715703Y-109645765D01*
X89636600Y-109645765D01*
X89636600Y-107522494D01*
X90587496Y-106571598D01*
X98279499Y-106571598D01*
X98052571Y-106798130D01*
X97916943Y-107124757D01*
X97916635Y-107478423D01*
X98051692Y-107805286D01*
X98301553Y-108055584D01*
X98628180Y-108191212D01*
X98981846Y-108191520D01*
X99308709Y-108056463D01*
X99559007Y-107806602D01*
X99694635Y-107479975D01*
X99694943Y-107126309D01*
X99559886Y-106799446D01*
X99332436Y-106571598D01*
X106877302Y-106571598D01*
X107198068Y-106507794D01*
X107469999Y-106326095D01*
X108076865Y-105719229D01*
X108198920Y-105668797D01*
X108449218Y-105418936D01*
X108584846Y-105092309D01*
X108585154Y-104738643D01*
X108450097Y-104411780D01*
X108200236Y-104161482D01*
X107873609Y-104025854D01*
X107519943Y-104025546D01*
X107193080Y-104160603D01*
X106942782Y-104410464D01*
X106891612Y-104533694D01*
X106530108Y-104895198D01*
X90240302Y-104895198D01*
X89919536Y-104959002D01*
X89647605Y-105140701D01*
X88205703Y-106582603D01*
X88024004Y-106854534D01*
X87999967Y-106975376D01*
X87960200Y-107175300D01*
X87960200Y-107368634D01*
X87655265Y-107242013D01*
X87301599Y-107241705D01*
X86974736Y-107376762D01*
X86724438Y-107626623D01*
X86588810Y-107953250D01*
X86588502Y-108306916D01*
X69353500Y-108306916D01*
X69353500Y-105918000D01*
X69338392Y-105842050D01*
X69336737Y-105764629D01*
X69311628Y-105707498D01*
X69299454Y-105646295D01*
X69256431Y-105581906D01*
X69225274Y-105511014D01*
X69180218Y-105467844D01*
X69145546Y-105415954D01*
X69081157Y-105372931D01*
X69025243Y-105319358D01*
X65151000Y-102848826D01*
X65151000Y-101548000D01*
X129665633Y-101548000D01*
X129603592Y-110729932D01*
G36*
X86447862Y-137970228D02*
X86397216Y-138092197D01*
X86396908Y-138445863D01*
X86477283Y-138640386D01*
X84681320Y-143354789D01*
X84673528Y-143388426D01*
X84656592Y-143573491D01*
X78394220Y-143573007D01*
X77262703Y-139839001D01*
X77808697Y-139293007D01*
X77990396Y-139021076D01*
X78054200Y-138700310D01*
X78054200Y-132465294D01*
X78142494Y-132377000D01*
X86447862Y-132377000D01*
X86447862Y-137970228D01*
X86447862Y-137970228D01*
G37*
X86447862Y-137970228D02*
X86397216Y-138092197D01*
X86396908Y-138445863D01*
X86477283Y-138640386D01*
X84681320Y-143354789D01*
X84673528Y-143388426D01*
X84656592Y-143573491D01*
X78394220Y-143573007D01*
X77262703Y-139839001D01*
X77808697Y-139293007D01*
X77990396Y-139021076D01*
X78054200Y-138700310D01*
X78054200Y-132465294D01*
X78142494Y-132377000D01*
X86447862Y-132377000D01*
X86447862Y-137970228D01*
G36*
X75469400Y-138025244D02*
X75418754Y-138147213D01*
X75418446Y-138500879D01*
X75553503Y-138827742D01*
X75803364Y-139078040D01*
X76129991Y-139213668D01*
X76179749Y-139213711D01*
X76973000Y-143312177D01*
X76973000Y-143573000D01*
X70758798Y-143573000D01*
X66432258Y-138473864D01*
X66471646Y-138379009D01*
X66471954Y-138025343D01*
X66421000Y-137902025D01*
X66421000Y-132427000D01*
X75469400Y-132427000D01*
X75469400Y-138025244D01*
X75469400Y-138025244D01*
G37*
X75469400Y-138025244D02*
X75418754Y-138147213D01*
X75418446Y-138500879D01*
X75553503Y-138827742D01*
X75803364Y-139078040D01*
X76129991Y-139213668D01*
X76179749Y-139213711D01*
X76973000Y-143312177D01*
X76973000Y-143573000D01*
X70758798Y-143573000D01*
X66432258Y-138473864D01*
X66471646Y-138379009D01*
X66471954Y-138025343D01*
X66421000Y-137902025D01*
X66421000Y-132427000D01*
X75469400Y-132427000D01*
X75469400Y-138025244D01*
G36*
X98273000Y-138141271D02*
X92317749Y-143203234D01*
X92286581Y-143242858D01*
X92276792Y-143269198D01*
X92200842Y-143573000D01*
X86100124Y-143573000D01*
X87457123Y-140689377D01*
X87709856Y-140639106D01*
X87981787Y-140457407D01*
X88593232Y-139845962D01*
X88774931Y-139574030D01*
X88838735Y-139253265D01*
X88838735Y-133062019D01*
X89213089Y-132687665D01*
X96444701Y-132687665D01*
X96765467Y-132623861D01*
X97037398Y-132442162D01*
X97052560Y-132427000D01*
X98273000Y-132427000D01*
X98273000Y-138141271D01*
X98273000Y-138141271D01*
G37*
X98273000Y-138141271D02*
X92317749Y-143203234D01*
X92286581Y-143242858D01*
X92276792Y-143269198D01*
X92200842Y-143573000D01*
X86100124Y-143573000D01*
X87457123Y-140689377D01*
X87709856Y-140639106D01*
X87981787Y-140457407D01*
X88593232Y-139845962D01*
X88774931Y-139574030D01*
X88838735Y-139253265D01*
X88838735Y-133062019D01*
X89213089Y-132687665D01*
X96444701Y-132687665D01*
X96765467Y-132623861D01*
X97037398Y-132442162D01*
X97052560Y-132427000D01*
X98273000Y-132427000D01*
X98273000Y-138141271D01*
M02*
