G04 #@! TF.FileFunction,Legend,Bot*
%FSLAX46Y46*%
G04 Gerber Fmt 4.6, Leading zero omitted, Abs format (unit mm)*
G04 Created by KiCad (PCBNEW 4.0.2-stable) date Mon 18 Apr 2016 07:01:49 PM CST*
%MOMM*%
G01*
G04 APERTURE LIST*
%ADD10C,0.100000*%
%ADD11C,0.150000*%
G04 APERTURE END LIST*
D10*
D11*
X63592000Y-55640000D02*
X62392000Y-55640000D01*
X62392000Y-57390000D02*
X63592000Y-57390000D01*
X57496000Y-42686000D02*
X56296000Y-42686000D01*
X56296000Y-44436000D02*
X57496000Y-44436000D01*
X63465000Y-47004000D02*
X62265000Y-47004000D01*
X62265000Y-48754000D02*
X63465000Y-48754000D01*
X79571000Y-69664000D02*
X79771000Y-69664000D01*
X79771000Y-69664000D02*
X79771000Y-69014000D01*
X78421000Y-69014000D02*
X78421000Y-69664000D01*
X78421000Y-69664000D02*
X79571000Y-69664000D01*
X77221000Y-69014000D02*
X77221000Y-78814000D01*
X77221000Y-78814000D02*
X81021000Y-78814000D01*
X81021000Y-78814000D02*
X81021000Y-69014000D01*
X81021000Y-69014000D02*
X77221000Y-69014000D01*
X79952000Y-42486000D02*
X80152000Y-42486000D01*
X80152000Y-42486000D02*
X80152000Y-41836000D01*
X78802000Y-41836000D02*
X78802000Y-42486000D01*
X78802000Y-42486000D02*
X79952000Y-42486000D01*
X77602000Y-41836000D02*
X77602000Y-51636000D01*
X77602000Y-51636000D02*
X81402000Y-51636000D01*
X81402000Y-51636000D02*
X81402000Y-41836000D01*
X81402000Y-41836000D02*
X77602000Y-41836000D01*
X80206000Y-55694000D02*
X80406000Y-55694000D01*
X80406000Y-55694000D02*
X80406000Y-55044000D01*
X79056000Y-55044000D02*
X79056000Y-55694000D01*
X79056000Y-55694000D02*
X80206000Y-55694000D01*
X77856000Y-55044000D02*
X77856000Y-64844000D01*
X77856000Y-64844000D02*
X81656000Y-64844000D01*
X81656000Y-64844000D02*
X81656000Y-55044000D01*
X81656000Y-55044000D02*
X77856000Y-55044000D01*
X90897000Y-44210000D02*
X89697000Y-44210000D01*
X89697000Y-45960000D02*
X90897000Y-45960000D01*
X89500000Y-73293000D02*
X88300000Y-73293000D01*
X88300000Y-75043000D02*
X89500000Y-75043000D01*
X89881000Y-59450000D02*
X88681000Y-59450000D01*
X88681000Y-61200000D02*
X89881000Y-61200000D01*
X57496000Y-52846000D02*
X56296000Y-52846000D01*
X56296000Y-54596000D02*
X57496000Y-54596000D01*
X127842000Y-75600000D02*
X127342000Y-75600000D01*
X127342000Y-75600000D02*
X127342000Y-76600000D01*
X127342000Y-76600000D02*
X127842000Y-76600000D01*
X127842000Y-72500000D02*
X112442000Y-72500000D01*
X112442000Y-72500000D02*
X112442000Y-79900000D01*
X112442000Y-79900000D02*
X127842000Y-79900000D01*
X127842000Y-79900000D02*
X127842000Y-72500000D01*
X141726000Y-84931000D02*
X141726000Y-85156000D01*
X141726000Y-85156000D02*
X141126000Y-85131000D01*
X141126000Y-85131000D02*
X141126000Y-84931000D01*
X141126000Y-84931000D02*
X141126000Y-84956000D01*
X143351000Y-84906000D02*
X139351000Y-84906000D01*
X139351000Y-84906000D02*
X139351000Y-93656000D01*
X139351000Y-93656000D02*
X143351000Y-93656000D01*
X143351000Y-93656000D02*
X143351000Y-84906000D01*
X118295000Y-62543000D02*
X118095000Y-62543000D01*
X118095000Y-62543000D02*
X118095000Y-63193000D01*
X119445000Y-63193000D02*
X119445000Y-62543000D01*
X119445000Y-62543000D02*
X118295000Y-62543000D01*
X120645000Y-63193000D02*
X120645000Y-53393000D01*
X120645000Y-53393000D02*
X116845000Y-53393000D01*
X116845000Y-53393000D02*
X116845000Y-63193000D01*
X116845000Y-63193000D02*
X120645000Y-63193000D01*
X118549000Y-49462000D02*
X118349000Y-49462000D01*
X118349000Y-49462000D02*
X118349000Y-50112000D01*
X119699000Y-50112000D02*
X119699000Y-49462000D01*
X119699000Y-49462000D02*
X118549000Y-49462000D01*
X120899000Y-50112000D02*
X120899000Y-40312000D01*
X120899000Y-40312000D02*
X117099000Y-40312000D01*
X117099000Y-40312000D02*
X117099000Y-50112000D01*
X117099000Y-50112000D02*
X120899000Y-50112000D01*
X138499000Y-55059000D02*
X138699000Y-55059000D01*
X138699000Y-55059000D02*
X138699000Y-54409000D01*
X137349000Y-54409000D02*
X137349000Y-55059000D01*
X137349000Y-55059000D02*
X138499000Y-55059000D01*
X136149000Y-54409000D02*
X136149000Y-64209000D01*
X136149000Y-64209000D02*
X139949000Y-64209000D01*
X139949000Y-64209000D02*
X139949000Y-54409000D01*
X139949000Y-54409000D02*
X136149000Y-54409000D01*
X139007000Y-42105000D02*
X139207000Y-42105000D01*
X139207000Y-42105000D02*
X139207000Y-41455000D01*
X137857000Y-41455000D02*
X137857000Y-42105000D01*
X137857000Y-42105000D02*
X139007000Y-42105000D01*
X136657000Y-41455000D02*
X136657000Y-51255000D01*
X136657000Y-51255000D02*
X140457000Y-51255000D01*
X140457000Y-51255000D02*
X140457000Y-41455000D01*
X140457000Y-41455000D02*
X136657000Y-41455000D01*
X131873000Y-108169000D02*
X132373000Y-108169000D01*
X132373000Y-108169000D02*
X132373000Y-107169000D01*
X132373000Y-107169000D02*
X131873000Y-107169000D01*
X131873000Y-111269000D02*
X147273000Y-111269000D01*
X147273000Y-111269000D02*
X147273000Y-103869000D01*
X147273000Y-103869000D02*
X131873000Y-103869000D01*
X131873000Y-103869000D02*
X131873000Y-111269000D01*
X114560000Y-99219000D02*
X114560000Y-98994000D01*
X114560000Y-98994000D02*
X115160000Y-99019000D01*
X115160000Y-99019000D02*
X115160000Y-99219000D01*
X115160000Y-99219000D02*
X115160000Y-99194000D01*
X112935000Y-99244000D02*
X116935000Y-99244000D01*
X116935000Y-99244000D02*
X116935000Y-90494000D01*
X116935000Y-90494000D02*
X112935000Y-90494000D01*
X112935000Y-90494000D02*
X112935000Y-99244000D01*
X161485000Y-124010000D02*
X161485000Y-123810000D01*
X161485000Y-123810000D02*
X160835000Y-123810000D01*
X160835000Y-125160000D02*
X161485000Y-125160000D01*
X161485000Y-125160000D02*
X161485000Y-124010000D01*
X160835000Y-126360000D02*
X170635000Y-126360000D01*
X170635000Y-126360000D02*
X170635000Y-122560000D01*
X170635000Y-122560000D02*
X160835000Y-122560000D01*
X160835000Y-122560000D02*
X160835000Y-126360000D01*
X160469000Y-106865000D02*
X160469000Y-106665000D01*
X160469000Y-106665000D02*
X159819000Y-106665000D01*
X159819000Y-108015000D02*
X160469000Y-108015000D01*
X160469000Y-108015000D02*
X160469000Y-106865000D01*
X159819000Y-109215000D02*
X169619000Y-109215000D01*
X169619000Y-109215000D02*
X169619000Y-105415000D01*
X169619000Y-105415000D02*
X159819000Y-105415000D01*
X159819000Y-105415000D02*
X159819000Y-109215000D01*
X180662000Y-124010000D02*
X180662000Y-123810000D01*
X180662000Y-123810000D02*
X180012000Y-123810000D01*
X180012000Y-125160000D02*
X180662000Y-125160000D01*
X180662000Y-125160000D02*
X180662000Y-124010000D01*
X180012000Y-126360000D02*
X189812000Y-126360000D01*
X189812000Y-126360000D02*
X189812000Y-122560000D01*
X189812000Y-122560000D02*
X180012000Y-122560000D01*
X180012000Y-122560000D02*
X180012000Y-126360000D01*
X180916000Y-107373000D02*
X180916000Y-107173000D01*
X180916000Y-107173000D02*
X180266000Y-107173000D01*
X180266000Y-108523000D02*
X180916000Y-108523000D01*
X180916000Y-108523000D02*
X180916000Y-107373000D01*
X180266000Y-109723000D02*
X190066000Y-109723000D01*
X190066000Y-109723000D02*
X190066000Y-105923000D01*
X190066000Y-105923000D02*
X180266000Y-105923000D01*
X180266000Y-105923000D02*
X180266000Y-109723000D01*
X142107000Y-72485000D02*
X142107000Y-72710000D01*
X142107000Y-72710000D02*
X141507000Y-72685000D01*
X141507000Y-72685000D02*
X141507000Y-72485000D01*
X141507000Y-72485000D02*
X141507000Y-72510000D01*
X143732000Y-72460000D02*
X139732000Y-72460000D01*
X139732000Y-72460000D02*
X139732000Y-81210000D01*
X139732000Y-81210000D02*
X143732000Y-81210000D01*
X143732000Y-81210000D02*
X143732000Y-72460000D01*
X83867000Y-113884000D02*
X84367000Y-113884000D01*
X84367000Y-113884000D02*
X84367000Y-112884000D01*
X84367000Y-112884000D02*
X83867000Y-112884000D01*
X83867000Y-116984000D02*
X99267000Y-116984000D01*
X99267000Y-116984000D02*
X99267000Y-109584000D01*
X99267000Y-109584000D02*
X83867000Y-109584000D01*
X83867000Y-109584000D02*
X83867000Y-116984000D01*
X72269000Y-106839000D02*
X72269000Y-106614000D01*
X72269000Y-106614000D02*
X72869000Y-106639000D01*
X72869000Y-106639000D02*
X72869000Y-106839000D01*
X72869000Y-106839000D02*
X72869000Y-106814000D01*
X70644000Y-106864000D02*
X74644000Y-106864000D01*
X74644000Y-106864000D02*
X74644000Y-98114000D01*
X74644000Y-98114000D02*
X70644000Y-98114000D01*
X70644000Y-98114000D02*
X70644000Y-106864000D01*
X119311000Y-141537000D02*
X119111000Y-141537000D01*
X119111000Y-141537000D02*
X119111000Y-142187000D01*
X120461000Y-142187000D02*
X120461000Y-141537000D01*
X120461000Y-141537000D02*
X119311000Y-141537000D01*
X121661000Y-142187000D02*
X121661000Y-132387000D01*
X121661000Y-132387000D02*
X117861000Y-132387000D01*
X117861000Y-132387000D02*
X117861000Y-142187000D01*
X117861000Y-142187000D02*
X121661000Y-142187000D01*
X119438000Y-129472000D02*
X119238000Y-129472000D01*
X119238000Y-129472000D02*
X119238000Y-130122000D01*
X120588000Y-130122000D02*
X120588000Y-129472000D01*
X120588000Y-129472000D02*
X119438000Y-129472000D01*
X121788000Y-130122000D02*
X121788000Y-120322000D01*
X121788000Y-120322000D02*
X117988000Y-120322000D01*
X117988000Y-120322000D02*
X117988000Y-130122000D01*
X117988000Y-130122000D02*
X121788000Y-130122000D01*
X139896000Y-132783000D02*
X140096000Y-132783000D01*
X140096000Y-132783000D02*
X140096000Y-132133000D01*
X138746000Y-132133000D02*
X138746000Y-132783000D01*
X138746000Y-132783000D02*
X139896000Y-132783000D01*
X137546000Y-132133000D02*
X137546000Y-141933000D01*
X137546000Y-141933000D02*
X141346000Y-141933000D01*
X141346000Y-141933000D02*
X141346000Y-132133000D01*
X141346000Y-132133000D02*
X137546000Y-132133000D01*
X140150000Y-120718000D02*
X140350000Y-120718000D01*
X140350000Y-120718000D02*
X140350000Y-120068000D01*
X139000000Y-120068000D02*
X139000000Y-120718000D01*
X139000000Y-120718000D02*
X140150000Y-120718000D01*
X137800000Y-120068000D02*
X137800000Y-129868000D01*
X137800000Y-129868000D02*
X141600000Y-129868000D01*
X141600000Y-129868000D02*
X141600000Y-120068000D01*
X141600000Y-120068000D02*
X137800000Y-120068000D01*
X114687000Y-111665000D02*
X114687000Y-111440000D01*
X114687000Y-111440000D02*
X115287000Y-111465000D01*
X115287000Y-111465000D02*
X115287000Y-111665000D01*
X115287000Y-111665000D02*
X115287000Y-111640000D01*
X113062000Y-111690000D02*
X117062000Y-111690000D01*
X117062000Y-111690000D02*
X117062000Y-102940000D01*
X117062000Y-102940000D02*
X113062000Y-102940000D01*
X113062000Y-102940000D02*
X113062000Y-111690000D01*
X72956000Y-144077000D02*
X72756000Y-144077000D01*
X72756000Y-144077000D02*
X72756000Y-144727000D01*
X74106000Y-144727000D02*
X74106000Y-144077000D01*
X74106000Y-144077000D02*
X72956000Y-144077000D01*
X75306000Y-144727000D02*
X75306000Y-134927000D01*
X75306000Y-134927000D02*
X71506000Y-134927000D01*
X71506000Y-134927000D02*
X71506000Y-144727000D01*
X71506000Y-144727000D02*
X75306000Y-144727000D01*
X72956000Y-132520000D02*
X72756000Y-132520000D01*
X72756000Y-132520000D02*
X72756000Y-133170000D01*
X74106000Y-133170000D02*
X74106000Y-132520000D01*
X74106000Y-132520000D02*
X72956000Y-132520000D01*
X75306000Y-133170000D02*
X75306000Y-123370000D01*
X75306000Y-123370000D02*
X71506000Y-123370000D01*
X71506000Y-123370000D02*
X71506000Y-133170000D01*
X71506000Y-133170000D02*
X75306000Y-133170000D01*
X96589000Y-136085000D02*
X96789000Y-136085000D01*
X96789000Y-136085000D02*
X96789000Y-135435000D01*
X95439000Y-135435000D02*
X95439000Y-136085000D01*
X95439000Y-136085000D02*
X96589000Y-136085000D01*
X94239000Y-135435000D02*
X94239000Y-145235000D01*
X94239000Y-145235000D02*
X98039000Y-145235000D01*
X98039000Y-145235000D02*
X98039000Y-135435000D01*
X98039000Y-135435000D02*
X94239000Y-135435000D01*
X96589000Y-125290000D02*
X96789000Y-125290000D01*
X96789000Y-125290000D02*
X96789000Y-124640000D01*
X95439000Y-124640000D02*
X95439000Y-125290000D01*
X95439000Y-125290000D02*
X96589000Y-125290000D01*
X94239000Y-124640000D02*
X94239000Y-134440000D01*
X94239000Y-134440000D02*
X98039000Y-134440000D01*
X98039000Y-134440000D02*
X98039000Y-124640000D01*
X98039000Y-124640000D02*
X94239000Y-124640000D01*
X72269000Y-119412000D02*
X72269000Y-119187000D01*
X72269000Y-119187000D02*
X72869000Y-119212000D01*
X72869000Y-119212000D02*
X72869000Y-119412000D01*
X72869000Y-119412000D02*
X72869000Y-119387000D01*
X70644000Y-119437000D02*
X74644000Y-119437000D01*
X74644000Y-119437000D02*
X74644000Y-110687000D01*
X74644000Y-110687000D02*
X70644000Y-110687000D01*
X70644000Y-110687000D02*
X70644000Y-119437000D01*
X27998000Y-123249000D02*
X27798000Y-123249000D01*
X27798000Y-123249000D02*
X27798000Y-123899000D01*
X29148000Y-123899000D02*
X29148000Y-123249000D01*
X29148000Y-123249000D02*
X27998000Y-123249000D01*
X30348000Y-123899000D02*
X30348000Y-114099000D01*
X30348000Y-114099000D02*
X26548000Y-114099000D01*
X26548000Y-114099000D02*
X26548000Y-123899000D01*
X26548000Y-123899000D02*
X30348000Y-123899000D01*
X27998000Y-139759000D02*
X27798000Y-139759000D01*
X27798000Y-139759000D02*
X27798000Y-140409000D01*
X29148000Y-140409000D02*
X29148000Y-139759000D01*
X29148000Y-139759000D02*
X27998000Y-139759000D01*
X30348000Y-140409000D02*
X30348000Y-130609000D01*
X30348000Y-130609000D02*
X26548000Y-130609000D01*
X26548000Y-130609000D02*
X26548000Y-140409000D01*
X26548000Y-140409000D02*
X30348000Y-140409000D01*
X48456000Y-114495000D02*
X48656000Y-114495000D01*
X48656000Y-114495000D02*
X48656000Y-113845000D01*
X47306000Y-113845000D02*
X47306000Y-114495000D01*
X47306000Y-114495000D02*
X48456000Y-114495000D01*
X46106000Y-113845000D02*
X46106000Y-123645000D01*
X46106000Y-123645000D02*
X49906000Y-123645000D01*
X49906000Y-123645000D02*
X49906000Y-113845000D01*
X49906000Y-113845000D02*
X46106000Y-113845000D01*
X48710000Y-131259000D02*
X48910000Y-131259000D01*
X48910000Y-131259000D02*
X48910000Y-130609000D01*
X47560000Y-130609000D02*
X47560000Y-131259000D01*
X47560000Y-131259000D02*
X48710000Y-131259000D01*
X46360000Y-130609000D02*
X46360000Y-140409000D01*
X46360000Y-140409000D02*
X50160000Y-140409000D01*
X50160000Y-140409000D02*
X50160000Y-130609000D01*
X50160000Y-130609000D02*
X46360000Y-130609000D01*
X158691000Y-58859000D02*
X158691000Y-58659000D01*
X158691000Y-58659000D02*
X158041000Y-58659000D01*
X158041000Y-60009000D02*
X158691000Y-60009000D01*
X158691000Y-60009000D02*
X158691000Y-58859000D01*
X158041000Y-61209000D02*
X167841000Y-61209000D01*
X167841000Y-61209000D02*
X167841000Y-57409000D01*
X167841000Y-57409000D02*
X158041000Y-57409000D01*
X158041000Y-57409000D02*
X158041000Y-61209000D01*
X158056000Y-44127000D02*
X158056000Y-43927000D01*
X158056000Y-43927000D02*
X157406000Y-43927000D01*
X157406000Y-45277000D02*
X158056000Y-45277000D01*
X158056000Y-45277000D02*
X158056000Y-44127000D01*
X157406000Y-46477000D02*
X167206000Y-46477000D01*
X167206000Y-46477000D02*
X167206000Y-42677000D01*
X167206000Y-42677000D02*
X157406000Y-42677000D01*
X157406000Y-42677000D02*
X157406000Y-46477000D01*
X178884000Y-58732000D02*
X178884000Y-58532000D01*
X178884000Y-58532000D02*
X178234000Y-58532000D01*
X178234000Y-59882000D02*
X178884000Y-59882000D01*
X178884000Y-59882000D02*
X178884000Y-58732000D01*
X178234000Y-61082000D02*
X188034000Y-61082000D01*
X188034000Y-61082000D02*
X188034000Y-57282000D01*
X188034000Y-57282000D02*
X178234000Y-57282000D01*
X178234000Y-57282000D02*
X178234000Y-61082000D01*
X177741000Y-44381000D02*
X177741000Y-44181000D01*
X177741000Y-44181000D02*
X177091000Y-44181000D01*
X177091000Y-45531000D02*
X177741000Y-45531000D01*
X177741000Y-45531000D02*
X177741000Y-44381000D01*
X177091000Y-46731000D02*
X186891000Y-46731000D01*
X186891000Y-46731000D02*
X186891000Y-42931000D01*
X186891000Y-42931000D02*
X177091000Y-42931000D01*
X177091000Y-42931000D02*
X177091000Y-46731000D01*
X55177381Y-49604857D02*
X56177381Y-49938190D01*
X55177381Y-50271524D01*
X56177381Y-50604857D02*
X55177381Y-50604857D01*
X56177381Y-51176286D01*
X55177381Y-51176286D01*
X56177381Y-51652476D02*
X55177381Y-51652476D01*
X55653571Y-51652476D02*
X55653571Y-52223905D01*
X56177381Y-52223905D02*
X55177381Y-52223905D01*
X55272619Y-52652476D02*
X55225000Y-52700095D01*
X55177381Y-52795333D01*
X55177381Y-53033429D01*
X55225000Y-53128667D01*
X55272619Y-53176286D01*
X55367857Y-53223905D01*
X55463095Y-53223905D01*
X55605952Y-53176286D01*
X56177381Y-52604857D01*
X56177381Y-53223905D01*
X63634857Y-59067381D02*
X63968191Y-58591190D01*
X64206286Y-59067381D02*
X64206286Y-58067381D01*
X63825333Y-58067381D01*
X63730095Y-58115000D01*
X63682476Y-58162619D01*
X63634857Y-58257857D01*
X63634857Y-58400714D01*
X63682476Y-58495952D01*
X63730095Y-58543571D01*
X63825333Y-58591190D01*
X64206286Y-58591190D01*
X63253905Y-58162619D02*
X63206286Y-58115000D01*
X63111048Y-58067381D01*
X62872952Y-58067381D01*
X62777714Y-58115000D01*
X62730095Y-58162619D01*
X62682476Y-58257857D01*
X62682476Y-58353095D01*
X62730095Y-58495952D01*
X63301524Y-59067381D01*
X62682476Y-59067381D01*
X62301524Y-58162619D02*
X62253905Y-58115000D01*
X62158667Y-58067381D01*
X61920571Y-58067381D01*
X61825333Y-58115000D01*
X61777714Y-58162619D01*
X61730095Y-58257857D01*
X61730095Y-58353095D01*
X61777714Y-58495952D01*
X62349143Y-59067381D01*
X61730095Y-59067381D01*
X57538857Y-46113381D02*
X57872191Y-45637190D01*
X58110286Y-46113381D02*
X58110286Y-45113381D01*
X57729333Y-45113381D01*
X57634095Y-45161000D01*
X57586476Y-45208619D01*
X57538857Y-45303857D01*
X57538857Y-45446714D01*
X57586476Y-45541952D01*
X57634095Y-45589571D01*
X57729333Y-45637190D01*
X58110286Y-45637190D01*
X57157905Y-45208619D02*
X57110286Y-45161000D01*
X57015048Y-45113381D01*
X56776952Y-45113381D01*
X56681714Y-45161000D01*
X56634095Y-45208619D01*
X56586476Y-45303857D01*
X56586476Y-45399095D01*
X56634095Y-45541952D01*
X57205524Y-46113381D01*
X56586476Y-46113381D01*
X55634095Y-46113381D02*
X56205524Y-46113381D01*
X55919810Y-46113381D02*
X55919810Y-45113381D01*
X56015048Y-45256238D01*
X56110286Y-45351476D01*
X56205524Y-45399095D01*
X63507857Y-50431381D02*
X63841191Y-49955190D01*
X64079286Y-50431381D02*
X64079286Y-49431381D01*
X63698333Y-49431381D01*
X63603095Y-49479000D01*
X63555476Y-49526619D01*
X63507857Y-49621857D01*
X63507857Y-49764714D01*
X63555476Y-49859952D01*
X63603095Y-49907571D01*
X63698333Y-49955190D01*
X64079286Y-49955190D01*
X63126905Y-49526619D02*
X63079286Y-49479000D01*
X62984048Y-49431381D01*
X62745952Y-49431381D01*
X62650714Y-49479000D01*
X62603095Y-49526619D01*
X62555476Y-49621857D01*
X62555476Y-49717095D01*
X62603095Y-49859952D01*
X63174524Y-50431381D01*
X62555476Y-50431381D01*
X61936429Y-49431381D02*
X61841190Y-49431381D01*
X61745952Y-49479000D01*
X61698333Y-49526619D01*
X61650714Y-49621857D01*
X61603095Y-49812333D01*
X61603095Y-50050429D01*
X61650714Y-50240905D01*
X61698333Y-50336143D01*
X61745952Y-50383762D01*
X61841190Y-50431381D01*
X61936429Y-50431381D01*
X62031667Y-50383762D01*
X62079286Y-50336143D01*
X62126905Y-50240905D01*
X62174524Y-50050429D01*
X62174524Y-49812333D01*
X62126905Y-49621857D01*
X62079286Y-49526619D01*
X62031667Y-49479000D01*
X61936429Y-49431381D01*
X80573381Y-72054476D02*
X79573381Y-72054476D01*
X80287667Y-72387810D01*
X79573381Y-72721143D01*
X80573381Y-72721143D01*
X79573381Y-73197333D02*
X80382905Y-73197333D01*
X80478143Y-73244952D01*
X80525762Y-73292571D01*
X80573381Y-73387809D01*
X80573381Y-73578286D01*
X80525762Y-73673524D01*
X80478143Y-73721143D01*
X80382905Y-73768762D01*
X79573381Y-73768762D01*
X79573381Y-74149714D02*
X80573381Y-74816381D01*
X79573381Y-74816381D02*
X80573381Y-74149714D01*
X80573381Y-75721143D02*
X80573381Y-75149714D01*
X80573381Y-75435428D02*
X79573381Y-75435428D01*
X79716238Y-75340190D01*
X79811476Y-75244952D01*
X79859095Y-75149714D01*
X80954381Y-44876476D02*
X79954381Y-44876476D01*
X80668667Y-45209810D01*
X79954381Y-45543143D01*
X80954381Y-45543143D01*
X79954381Y-46019333D02*
X80763905Y-46019333D01*
X80859143Y-46066952D01*
X80906762Y-46114571D01*
X80954381Y-46209809D01*
X80954381Y-46400286D01*
X80906762Y-46495524D01*
X80859143Y-46543143D01*
X80763905Y-46590762D01*
X79954381Y-46590762D01*
X79954381Y-46971714D02*
X80954381Y-47638381D01*
X79954381Y-47638381D02*
X80954381Y-46971714D01*
X80049619Y-47971714D02*
X80002000Y-48019333D01*
X79954381Y-48114571D01*
X79954381Y-48352667D01*
X80002000Y-48447905D01*
X80049619Y-48495524D01*
X80144857Y-48543143D01*
X80240095Y-48543143D01*
X80382952Y-48495524D01*
X80954381Y-47924095D01*
X80954381Y-48543143D01*
X81208381Y-58084476D02*
X80208381Y-58084476D01*
X80922667Y-58417810D01*
X80208381Y-58751143D01*
X81208381Y-58751143D01*
X80208381Y-59227333D02*
X81017905Y-59227333D01*
X81113143Y-59274952D01*
X81160762Y-59322571D01*
X81208381Y-59417809D01*
X81208381Y-59608286D01*
X81160762Y-59703524D01*
X81113143Y-59751143D01*
X81017905Y-59798762D01*
X80208381Y-59798762D01*
X80208381Y-60179714D02*
X81208381Y-60846381D01*
X80208381Y-60846381D02*
X81208381Y-60179714D01*
X80208381Y-61132095D02*
X80208381Y-61751143D01*
X80589333Y-61417809D01*
X80589333Y-61560667D01*
X80636952Y-61655905D01*
X80684571Y-61703524D01*
X80779810Y-61751143D01*
X81017905Y-61751143D01*
X81113143Y-61703524D01*
X81160762Y-61655905D01*
X81208381Y-61560667D01*
X81208381Y-61274952D01*
X81160762Y-61179714D01*
X81113143Y-61132095D01*
X90939857Y-47637381D02*
X91273191Y-47161190D01*
X91511286Y-47637381D02*
X91511286Y-46637381D01*
X91130333Y-46637381D01*
X91035095Y-46685000D01*
X90987476Y-46732619D01*
X90939857Y-46827857D01*
X90939857Y-46970714D01*
X90987476Y-47065952D01*
X91035095Y-47113571D01*
X91130333Y-47161190D01*
X91511286Y-47161190D01*
X90082714Y-46970714D02*
X90082714Y-47637381D01*
X90320810Y-46589762D02*
X90558905Y-47304048D01*
X89939857Y-47304048D01*
X89035095Y-47637381D02*
X89606524Y-47637381D01*
X89320810Y-47637381D02*
X89320810Y-46637381D01*
X89416048Y-46780238D01*
X89511286Y-46875476D01*
X89606524Y-46923095D01*
X89542857Y-76720381D02*
X89876191Y-76244190D01*
X90114286Y-76720381D02*
X90114286Y-75720381D01*
X89733333Y-75720381D01*
X89638095Y-75768000D01*
X89590476Y-75815619D01*
X89542857Y-75910857D01*
X89542857Y-76053714D01*
X89590476Y-76148952D01*
X89638095Y-76196571D01*
X89733333Y-76244190D01*
X90114286Y-76244190D01*
X88685714Y-76053714D02*
X88685714Y-76720381D01*
X88923810Y-75672762D02*
X89161905Y-76387048D01*
X88542857Y-76387048D01*
X88209524Y-75815619D02*
X88161905Y-75768000D01*
X88066667Y-75720381D01*
X87828571Y-75720381D01*
X87733333Y-75768000D01*
X87685714Y-75815619D01*
X87638095Y-75910857D01*
X87638095Y-76006095D01*
X87685714Y-76148952D01*
X88257143Y-76720381D01*
X87638095Y-76720381D01*
X89923857Y-62877381D02*
X90257191Y-62401190D01*
X90495286Y-62877381D02*
X90495286Y-61877381D01*
X90114333Y-61877381D01*
X90019095Y-61925000D01*
X89971476Y-61972619D01*
X89923857Y-62067857D01*
X89923857Y-62210714D01*
X89971476Y-62305952D01*
X90019095Y-62353571D01*
X90114333Y-62401190D01*
X90495286Y-62401190D01*
X89066714Y-62210714D02*
X89066714Y-62877381D01*
X89304810Y-61829762D02*
X89542905Y-62544048D01*
X88923857Y-62544048D01*
X88638143Y-61877381D02*
X88019095Y-61877381D01*
X88352429Y-62258333D01*
X88209571Y-62258333D01*
X88114333Y-62305952D01*
X88066714Y-62353571D01*
X88019095Y-62448810D01*
X88019095Y-62686905D01*
X88066714Y-62782143D01*
X88114333Y-62829762D01*
X88209571Y-62877381D01*
X88495286Y-62877381D01*
X88590524Y-62829762D01*
X88638143Y-62782143D01*
X57538857Y-56273381D02*
X57872191Y-55797190D01*
X58110286Y-56273381D02*
X58110286Y-55273381D01*
X57729333Y-55273381D01*
X57634095Y-55321000D01*
X57586476Y-55368619D01*
X57538857Y-55463857D01*
X57538857Y-55606714D01*
X57586476Y-55701952D01*
X57634095Y-55749571D01*
X57729333Y-55797190D01*
X58110286Y-55797190D01*
X56681714Y-55606714D02*
X56681714Y-56273381D01*
X56919810Y-55225762D02*
X57157905Y-55940048D01*
X56538857Y-55940048D01*
X56253143Y-55273381D02*
X55586476Y-55273381D01*
X56015048Y-56273381D01*
X121330095Y-77377381D02*
X121330095Y-78186905D01*
X121282476Y-78282143D01*
X121234857Y-78329762D01*
X121139619Y-78377381D01*
X120949142Y-78377381D01*
X120853904Y-78329762D01*
X120806285Y-78282143D01*
X120758666Y-78186905D01*
X120758666Y-77377381D01*
X119758666Y-78377381D02*
X120330095Y-78377381D01*
X120044381Y-78377381D02*
X120044381Y-77377381D01*
X120139619Y-77520238D01*
X120234857Y-77615476D01*
X120330095Y-77663095D01*
X118853904Y-77377381D02*
X119330095Y-77377381D01*
X119377714Y-77853571D01*
X119330095Y-77805952D01*
X119234857Y-77758333D01*
X118996761Y-77758333D01*
X118901523Y-77805952D01*
X118853904Y-77853571D01*
X118806285Y-77948810D01*
X118806285Y-78186905D01*
X118853904Y-78282143D01*
X118901523Y-78329762D01*
X118996761Y-78377381D01*
X119234857Y-78377381D01*
X119330095Y-78329762D01*
X119377714Y-78282143D01*
X139928381Y-88092905D02*
X140737905Y-88092905D01*
X140833143Y-88140524D01*
X140880762Y-88188143D01*
X140928381Y-88283381D01*
X140928381Y-88473858D01*
X140880762Y-88569096D01*
X140833143Y-88616715D01*
X140737905Y-88664334D01*
X139928381Y-88664334D01*
X140928381Y-89664334D02*
X140928381Y-89092905D01*
X140928381Y-89378619D02*
X139928381Y-89378619D01*
X140071238Y-89283381D01*
X140166476Y-89188143D01*
X140214095Y-89092905D01*
X139928381Y-90521477D02*
X139928381Y-90331000D01*
X139976000Y-90235762D01*
X140023619Y-90188143D01*
X140166476Y-90092905D01*
X140356952Y-90045286D01*
X140737905Y-90045286D01*
X140833143Y-90092905D01*
X140880762Y-90140524D01*
X140928381Y-90235762D01*
X140928381Y-90426239D01*
X140880762Y-90521477D01*
X140833143Y-90569096D01*
X140737905Y-90616715D01*
X140499810Y-90616715D01*
X140404571Y-90569096D01*
X140356952Y-90521477D01*
X140309333Y-90426239D01*
X140309333Y-90235762D01*
X140356952Y-90140524D01*
X140404571Y-90092905D01*
X140499810Y-90045286D01*
X117197381Y-57104905D02*
X118006905Y-57104905D01*
X118102143Y-57152524D01*
X118149762Y-57200143D01*
X118197381Y-57295381D01*
X118197381Y-57485858D01*
X118149762Y-57581096D01*
X118102143Y-57628715D01*
X118006905Y-57676334D01*
X117197381Y-57676334D01*
X118197381Y-58676334D02*
X118197381Y-58104905D01*
X118197381Y-58390619D02*
X117197381Y-58390619D01*
X117340238Y-58295381D01*
X117435476Y-58200143D01*
X117483095Y-58104905D01*
X117197381Y-59009667D02*
X117197381Y-59676334D01*
X118197381Y-59247762D01*
X117451381Y-44023905D02*
X118260905Y-44023905D01*
X118356143Y-44071524D01*
X118403762Y-44119143D01*
X118451381Y-44214381D01*
X118451381Y-44404858D01*
X118403762Y-44500096D01*
X118356143Y-44547715D01*
X118260905Y-44595334D01*
X117451381Y-44595334D01*
X118451381Y-45595334D02*
X118451381Y-45023905D01*
X118451381Y-45309619D02*
X117451381Y-45309619D01*
X117594238Y-45214381D01*
X117689476Y-45119143D01*
X117737095Y-45023905D01*
X117879952Y-46166762D02*
X117832333Y-46071524D01*
X117784714Y-46023905D01*
X117689476Y-45976286D01*
X117641857Y-45976286D01*
X117546619Y-46023905D01*
X117499000Y-46071524D01*
X117451381Y-46166762D01*
X117451381Y-46357239D01*
X117499000Y-46452477D01*
X117546619Y-46500096D01*
X117641857Y-46547715D01*
X117689476Y-46547715D01*
X117784714Y-46500096D01*
X117832333Y-46452477D01*
X117879952Y-46357239D01*
X117879952Y-46166762D01*
X117927571Y-46071524D01*
X117975190Y-46023905D01*
X118070429Y-45976286D01*
X118260905Y-45976286D01*
X118356143Y-46023905D01*
X118403762Y-46071524D01*
X118451381Y-46166762D01*
X118451381Y-46357239D01*
X118403762Y-46452477D01*
X118356143Y-46500096D01*
X118260905Y-46547715D01*
X118070429Y-46547715D01*
X117975190Y-46500096D01*
X117927571Y-46452477D01*
X117879952Y-46357239D01*
X138501381Y-58020905D02*
X139310905Y-58020905D01*
X139406143Y-58068524D01*
X139453762Y-58116143D01*
X139501381Y-58211381D01*
X139501381Y-58401858D01*
X139453762Y-58497096D01*
X139406143Y-58544715D01*
X139310905Y-58592334D01*
X138501381Y-58592334D01*
X139501381Y-59592334D02*
X139501381Y-59020905D01*
X139501381Y-59306619D02*
X138501381Y-59306619D01*
X138644238Y-59211381D01*
X138739476Y-59116143D01*
X138787095Y-59020905D01*
X139501381Y-60068524D02*
X139501381Y-60259000D01*
X139453762Y-60354239D01*
X139406143Y-60401858D01*
X139263286Y-60497096D01*
X139072810Y-60544715D01*
X138691857Y-60544715D01*
X138596619Y-60497096D01*
X138549000Y-60449477D01*
X138501381Y-60354239D01*
X138501381Y-60163762D01*
X138549000Y-60068524D01*
X138596619Y-60020905D01*
X138691857Y-59973286D01*
X138929952Y-59973286D01*
X139025190Y-60020905D01*
X139072810Y-60068524D01*
X139120429Y-60163762D01*
X139120429Y-60354239D01*
X139072810Y-60449477D01*
X139025190Y-60497096D01*
X138929952Y-60544715D01*
X139009381Y-45066905D02*
X139818905Y-45066905D01*
X139914143Y-45114524D01*
X139961762Y-45162143D01*
X140009381Y-45257381D01*
X140009381Y-45447858D01*
X139961762Y-45543096D01*
X139914143Y-45590715D01*
X139818905Y-45638334D01*
X139009381Y-45638334D01*
X139104619Y-46066905D02*
X139057000Y-46114524D01*
X139009381Y-46209762D01*
X139009381Y-46447858D01*
X139057000Y-46543096D01*
X139104619Y-46590715D01*
X139199857Y-46638334D01*
X139295095Y-46638334D01*
X139437952Y-46590715D01*
X140009381Y-46019286D01*
X140009381Y-46638334D01*
X139009381Y-47257381D02*
X139009381Y-47352620D01*
X139057000Y-47447858D01*
X139104619Y-47495477D01*
X139199857Y-47543096D01*
X139390333Y-47590715D01*
X139628429Y-47590715D01*
X139818905Y-47543096D01*
X139914143Y-47495477D01*
X139961762Y-47447858D01*
X140009381Y-47352620D01*
X140009381Y-47257381D01*
X139961762Y-47162143D01*
X139914143Y-47114524D01*
X139818905Y-47066905D01*
X139628429Y-47019286D01*
X139390333Y-47019286D01*
X139199857Y-47066905D01*
X139104619Y-47114524D01*
X139057000Y-47162143D01*
X139009381Y-47257381D01*
X140861095Y-105296381D02*
X140861095Y-106105905D01*
X140813476Y-106201143D01*
X140765857Y-106248762D01*
X140670619Y-106296381D01*
X140480142Y-106296381D01*
X140384904Y-106248762D01*
X140337285Y-106201143D01*
X140289666Y-106105905D01*
X140289666Y-105296381D01*
X139861095Y-105391619D02*
X139813476Y-105344000D01*
X139718238Y-105296381D01*
X139480142Y-105296381D01*
X139384904Y-105344000D01*
X139337285Y-105391619D01*
X139289666Y-105486857D01*
X139289666Y-105582095D01*
X139337285Y-105724952D01*
X139908714Y-106296381D01*
X139289666Y-106296381D01*
X138908714Y-105391619D02*
X138861095Y-105344000D01*
X138765857Y-105296381D01*
X138527761Y-105296381D01*
X138432523Y-105344000D01*
X138384904Y-105391619D01*
X138337285Y-105486857D01*
X138337285Y-105582095D01*
X138384904Y-105724952D01*
X138956333Y-106296381D01*
X138337285Y-106296381D01*
X115262381Y-93580905D02*
X116071905Y-93580905D01*
X116167143Y-93628524D01*
X116214762Y-93676143D01*
X116262381Y-93771381D01*
X116262381Y-93961858D01*
X116214762Y-94057096D01*
X116167143Y-94104715D01*
X116071905Y-94152334D01*
X115262381Y-94152334D01*
X115357619Y-94580905D02*
X115310000Y-94628524D01*
X115262381Y-94723762D01*
X115262381Y-94961858D01*
X115310000Y-95057096D01*
X115357619Y-95104715D01*
X115452857Y-95152334D01*
X115548095Y-95152334D01*
X115690952Y-95104715D01*
X116262381Y-94533286D01*
X116262381Y-95152334D01*
X115262381Y-95485667D02*
X115262381Y-96104715D01*
X115643333Y-95771381D01*
X115643333Y-95914239D01*
X115690952Y-96009477D01*
X115738571Y-96057096D01*
X115833810Y-96104715D01*
X116071905Y-96104715D01*
X116167143Y-96057096D01*
X116214762Y-96009477D01*
X116262381Y-95914239D01*
X116262381Y-95628524D01*
X116214762Y-95533286D01*
X116167143Y-95485667D01*
X166923095Y-122912381D02*
X166923095Y-123721905D01*
X166875476Y-123817143D01*
X166827857Y-123864762D01*
X166732619Y-123912381D01*
X166542142Y-123912381D01*
X166446904Y-123864762D01*
X166399285Y-123817143D01*
X166351666Y-123721905D01*
X166351666Y-122912381D01*
X165923095Y-123007619D02*
X165875476Y-122960000D01*
X165780238Y-122912381D01*
X165542142Y-122912381D01*
X165446904Y-122960000D01*
X165399285Y-123007619D01*
X165351666Y-123102857D01*
X165351666Y-123198095D01*
X165399285Y-123340952D01*
X165970714Y-123912381D01*
X165351666Y-123912381D01*
X164494523Y-123245714D02*
X164494523Y-123912381D01*
X164732619Y-122864762D02*
X164970714Y-123579048D01*
X164351666Y-123579048D01*
X165907095Y-105767381D02*
X165907095Y-106576905D01*
X165859476Y-106672143D01*
X165811857Y-106719762D01*
X165716619Y-106767381D01*
X165526142Y-106767381D01*
X165430904Y-106719762D01*
X165383285Y-106672143D01*
X165335666Y-106576905D01*
X165335666Y-105767381D01*
X164907095Y-105862619D02*
X164859476Y-105815000D01*
X164764238Y-105767381D01*
X164526142Y-105767381D01*
X164430904Y-105815000D01*
X164383285Y-105862619D01*
X164335666Y-105957857D01*
X164335666Y-106053095D01*
X164383285Y-106195952D01*
X164954714Y-106767381D01*
X164335666Y-106767381D01*
X163430904Y-105767381D02*
X163907095Y-105767381D01*
X163954714Y-106243571D01*
X163907095Y-106195952D01*
X163811857Y-106148333D01*
X163573761Y-106148333D01*
X163478523Y-106195952D01*
X163430904Y-106243571D01*
X163383285Y-106338810D01*
X163383285Y-106576905D01*
X163430904Y-106672143D01*
X163478523Y-106719762D01*
X163573761Y-106767381D01*
X163811857Y-106767381D01*
X163907095Y-106719762D01*
X163954714Y-106672143D01*
X186100095Y-122912381D02*
X186100095Y-123721905D01*
X186052476Y-123817143D01*
X186004857Y-123864762D01*
X185909619Y-123912381D01*
X185719142Y-123912381D01*
X185623904Y-123864762D01*
X185576285Y-123817143D01*
X185528666Y-123721905D01*
X185528666Y-122912381D01*
X185100095Y-123007619D02*
X185052476Y-122960000D01*
X184957238Y-122912381D01*
X184719142Y-122912381D01*
X184623904Y-122960000D01*
X184576285Y-123007619D01*
X184528666Y-123102857D01*
X184528666Y-123198095D01*
X184576285Y-123340952D01*
X185147714Y-123912381D01*
X184528666Y-123912381D01*
X183671523Y-122912381D02*
X183862000Y-122912381D01*
X183957238Y-122960000D01*
X184004857Y-123007619D01*
X184100095Y-123150476D01*
X184147714Y-123340952D01*
X184147714Y-123721905D01*
X184100095Y-123817143D01*
X184052476Y-123864762D01*
X183957238Y-123912381D01*
X183766761Y-123912381D01*
X183671523Y-123864762D01*
X183623904Y-123817143D01*
X183576285Y-123721905D01*
X183576285Y-123483810D01*
X183623904Y-123388571D01*
X183671523Y-123340952D01*
X183766761Y-123293333D01*
X183957238Y-123293333D01*
X184052476Y-123340952D01*
X184100095Y-123388571D01*
X184147714Y-123483810D01*
X186354095Y-106275381D02*
X186354095Y-107084905D01*
X186306476Y-107180143D01*
X186258857Y-107227762D01*
X186163619Y-107275381D01*
X185973142Y-107275381D01*
X185877904Y-107227762D01*
X185830285Y-107180143D01*
X185782666Y-107084905D01*
X185782666Y-106275381D01*
X185354095Y-106370619D02*
X185306476Y-106323000D01*
X185211238Y-106275381D01*
X184973142Y-106275381D01*
X184877904Y-106323000D01*
X184830285Y-106370619D01*
X184782666Y-106465857D01*
X184782666Y-106561095D01*
X184830285Y-106703952D01*
X185401714Y-107275381D01*
X184782666Y-107275381D01*
X184449333Y-106275381D02*
X183782666Y-106275381D01*
X184211238Y-107275381D01*
X140309381Y-75646905D02*
X141118905Y-75646905D01*
X141214143Y-75694524D01*
X141261762Y-75742143D01*
X141309381Y-75837381D01*
X141309381Y-76027858D01*
X141261762Y-76123096D01*
X141214143Y-76170715D01*
X141118905Y-76218334D01*
X140309381Y-76218334D01*
X140404619Y-76646905D02*
X140357000Y-76694524D01*
X140309381Y-76789762D01*
X140309381Y-77027858D01*
X140357000Y-77123096D01*
X140404619Y-77170715D01*
X140499857Y-77218334D01*
X140595095Y-77218334D01*
X140737952Y-77170715D01*
X141309381Y-76599286D01*
X141309381Y-77218334D01*
X140737952Y-77789762D02*
X140690333Y-77694524D01*
X140642714Y-77646905D01*
X140547476Y-77599286D01*
X140499857Y-77599286D01*
X140404619Y-77646905D01*
X140357000Y-77694524D01*
X140309381Y-77789762D01*
X140309381Y-77980239D01*
X140357000Y-78075477D01*
X140404619Y-78123096D01*
X140499857Y-78170715D01*
X140547476Y-78170715D01*
X140642714Y-78123096D01*
X140690333Y-78075477D01*
X140737952Y-77980239D01*
X140737952Y-77789762D01*
X140785571Y-77694524D01*
X140833190Y-77646905D01*
X140928429Y-77599286D01*
X141118905Y-77599286D01*
X141214143Y-77646905D01*
X141261762Y-77694524D01*
X141309381Y-77789762D01*
X141309381Y-77980239D01*
X141261762Y-78075477D01*
X141214143Y-78123096D01*
X141118905Y-78170715D01*
X140928429Y-78170715D01*
X140833190Y-78123096D01*
X140785571Y-78075477D01*
X140737952Y-77980239D01*
X92855095Y-111011381D02*
X92855095Y-111820905D01*
X92807476Y-111916143D01*
X92759857Y-111963762D01*
X92664619Y-112011381D01*
X92474142Y-112011381D01*
X92378904Y-111963762D01*
X92331285Y-111916143D01*
X92283666Y-111820905D01*
X92283666Y-111011381D01*
X91855095Y-111106619D02*
X91807476Y-111059000D01*
X91712238Y-111011381D01*
X91474142Y-111011381D01*
X91378904Y-111059000D01*
X91331285Y-111106619D01*
X91283666Y-111201857D01*
X91283666Y-111297095D01*
X91331285Y-111439952D01*
X91902714Y-112011381D01*
X91283666Y-112011381D01*
X90807476Y-112011381D02*
X90617000Y-112011381D01*
X90521761Y-111963762D01*
X90474142Y-111916143D01*
X90378904Y-111773286D01*
X90331285Y-111582810D01*
X90331285Y-111201857D01*
X90378904Y-111106619D01*
X90426523Y-111059000D01*
X90521761Y-111011381D01*
X90712238Y-111011381D01*
X90807476Y-111059000D01*
X90855095Y-111106619D01*
X90902714Y-111201857D01*
X90902714Y-111439952D01*
X90855095Y-111535190D01*
X90807476Y-111582810D01*
X90712238Y-111630429D01*
X90521761Y-111630429D01*
X90426523Y-111582810D01*
X90378904Y-111535190D01*
X90331285Y-111439952D01*
X72971381Y-101200905D02*
X73780905Y-101200905D01*
X73876143Y-101248524D01*
X73923762Y-101296143D01*
X73971381Y-101391381D01*
X73971381Y-101581858D01*
X73923762Y-101677096D01*
X73876143Y-101724715D01*
X73780905Y-101772334D01*
X72971381Y-101772334D01*
X72971381Y-102153286D02*
X72971381Y-102772334D01*
X73352333Y-102439000D01*
X73352333Y-102581858D01*
X73399952Y-102677096D01*
X73447571Y-102724715D01*
X73542810Y-102772334D01*
X73780905Y-102772334D01*
X73876143Y-102724715D01*
X73923762Y-102677096D01*
X73971381Y-102581858D01*
X73971381Y-102296143D01*
X73923762Y-102200905D01*
X73876143Y-102153286D01*
X72971381Y-103391381D02*
X72971381Y-103486620D01*
X73019000Y-103581858D01*
X73066619Y-103629477D01*
X73161857Y-103677096D01*
X73352333Y-103724715D01*
X73590429Y-103724715D01*
X73780905Y-103677096D01*
X73876143Y-103629477D01*
X73923762Y-103581858D01*
X73971381Y-103486620D01*
X73971381Y-103391381D01*
X73923762Y-103296143D01*
X73876143Y-103248524D01*
X73780905Y-103200905D01*
X73590429Y-103153286D01*
X73352333Y-103153286D01*
X73161857Y-103200905D01*
X73066619Y-103248524D01*
X73019000Y-103296143D01*
X72971381Y-103391381D01*
X118213381Y-136098905D02*
X119022905Y-136098905D01*
X119118143Y-136146524D01*
X119165762Y-136194143D01*
X119213381Y-136289381D01*
X119213381Y-136479858D01*
X119165762Y-136575096D01*
X119118143Y-136622715D01*
X119022905Y-136670334D01*
X118213381Y-136670334D01*
X118213381Y-137051286D02*
X118213381Y-137670334D01*
X118594333Y-137337000D01*
X118594333Y-137479858D01*
X118641952Y-137575096D01*
X118689571Y-137622715D01*
X118784810Y-137670334D01*
X119022905Y-137670334D01*
X119118143Y-137622715D01*
X119165762Y-137575096D01*
X119213381Y-137479858D01*
X119213381Y-137194143D01*
X119165762Y-137098905D01*
X119118143Y-137051286D01*
X119213381Y-138622715D02*
X119213381Y-138051286D01*
X119213381Y-138337000D02*
X118213381Y-138337000D01*
X118356238Y-138241762D01*
X118451476Y-138146524D01*
X118499095Y-138051286D01*
X118340381Y-124033905D02*
X119149905Y-124033905D01*
X119245143Y-124081524D01*
X119292762Y-124129143D01*
X119340381Y-124224381D01*
X119340381Y-124414858D01*
X119292762Y-124510096D01*
X119245143Y-124557715D01*
X119149905Y-124605334D01*
X118340381Y-124605334D01*
X118340381Y-124986286D02*
X118340381Y-125605334D01*
X118721333Y-125272000D01*
X118721333Y-125414858D01*
X118768952Y-125510096D01*
X118816571Y-125557715D01*
X118911810Y-125605334D01*
X119149905Y-125605334D01*
X119245143Y-125557715D01*
X119292762Y-125510096D01*
X119340381Y-125414858D01*
X119340381Y-125129143D01*
X119292762Y-125033905D01*
X119245143Y-124986286D01*
X118435619Y-125986286D02*
X118388000Y-126033905D01*
X118340381Y-126129143D01*
X118340381Y-126367239D01*
X118388000Y-126462477D01*
X118435619Y-126510096D01*
X118530857Y-126557715D01*
X118626095Y-126557715D01*
X118768952Y-126510096D01*
X119340381Y-125938667D01*
X119340381Y-126557715D01*
X139898381Y-135744905D02*
X140707905Y-135744905D01*
X140803143Y-135792524D01*
X140850762Y-135840143D01*
X140898381Y-135935381D01*
X140898381Y-136125858D01*
X140850762Y-136221096D01*
X140803143Y-136268715D01*
X140707905Y-136316334D01*
X139898381Y-136316334D01*
X139898381Y-136697286D02*
X139898381Y-137316334D01*
X140279333Y-136983000D01*
X140279333Y-137125858D01*
X140326952Y-137221096D01*
X140374571Y-137268715D01*
X140469810Y-137316334D01*
X140707905Y-137316334D01*
X140803143Y-137268715D01*
X140850762Y-137221096D01*
X140898381Y-137125858D01*
X140898381Y-136840143D01*
X140850762Y-136744905D01*
X140803143Y-136697286D01*
X139898381Y-137649667D02*
X139898381Y-138268715D01*
X140279333Y-137935381D01*
X140279333Y-138078239D01*
X140326952Y-138173477D01*
X140374571Y-138221096D01*
X140469810Y-138268715D01*
X140707905Y-138268715D01*
X140803143Y-138221096D01*
X140850762Y-138173477D01*
X140898381Y-138078239D01*
X140898381Y-137792524D01*
X140850762Y-137697286D01*
X140803143Y-137649667D01*
X140152381Y-123679905D02*
X140961905Y-123679905D01*
X141057143Y-123727524D01*
X141104762Y-123775143D01*
X141152381Y-123870381D01*
X141152381Y-124060858D01*
X141104762Y-124156096D01*
X141057143Y-124203715D01*
X140961905Y-124251334D01*
X140152381Y-124251334D01*
X140152381Y-124632286D02*
X140152381Y-125251334D01*
X140533333Y-124918000D01*
X140533333Y-125060858D01*
X140580952Y-125156096D01*
X140628571Y-125203715D01*
X140723810Y-125251334D01*
X140961905Y-125251334D01*
X141057143Y-125203715D01*
X141104762Y-125156096D01*
X141152381Y-125060858D01*
X141152381Y-124775143D01*
X141104762Y-124679905D01*
X141057143Y-124632286D01*
X140485714Y-126108477D02*
X141152381Y-126108477D01*
X140104762Y-125870381D02*
X140819048Y-125632286D01*
X140819048Y-126251334D01*
X115389381Y-106026905D02*
X116198905Y-106026905D01*
X116294143Y-106074524D01*
X116341762Y-106122143D01*
X116389381Y-106217381D01*
X116389381Y-106407858D01*
X116341762Y-106503096D01*
X116294143Y-106550715D01*
X116198905Y-106598334D01*
X115389381Y-106598334D01*
X115389381Y-106979286D02*
X115389381Y-107598334D01*
X115770333Y-107265000D01*
X115770333Y-107407858D01*
X115817952Y-107503096D01*
X115865571Y-107550715D01*
X115960810Y-107598334D01*
X116198905Y-107598334D01*
X116294143Y-107550715D01*
X116341762Y-107503096D01*
X116389381Y-107407858D01*
X116389381Y-107122143D01*
X116341762Y-107026905D01*
X116294143Y-106979286D01*
X115389381Y-108503096D02*
X115389381Y-108026905D01*
X115865571Y-107979286D01*
X115817952Y-108026905D01*
X115770333Y-108122143D01*
X115770333Y-108360239D01*
X115817952Y-108455477D01*
X115865571Y-108503096D01*
X115960810Y-108550715D01*
X116198905Y-108550715D01*
X116294143Y-108503096D01*
X116341762Y-108455477D01*
X116389381Y-108360239D01*
X116389381Y-108122143D01*
X116341762Y-108026905D01*
X116294143Y-107979286D01*
X71858381Y-138638905D02*
X72667905Y-138638905D01*
X72763143Y-138686524D01*
X72810762Y-138734143D01*
X72858381Y-138829381D01*
X72858381Y-139019858D01*
X72810762Y-139115096D01*
X72763143Y-139162715D01*
X72667905Y-139210334D01*
X71858381Y-139210334D01*
X71858381Y-139591286D02*
X71858381Y-140210334D01*
X72239333Y-139877000D01*
X72239333Y-140019858D01*
X72286952Y-140115096D01*
X72334571Y-140162715D01*
X72429810Y-140210334D01*
X72667905Y-140210334D01*
X72763143Y-140162715D01*
X72810762Y-140115096D01*
X72858381Y-140019858D01*
X72858381Y-139734143D01*
X72810762Y-139638905D01*
X72763143Y-139591286D01*
X72286952Y-140781762D02*
X72239333Y-140686524D01*
X72191714Y-140638905D01*
X72096476Y-140591286D01*
X72048857Y-140591286D01*
X71953619Y-140638905D01*
X71906000Y-140686524D01*
X71858381Y-140781762D01*
X71858381Y-140972239D01*
X71906000Y-141067477D01*
X71953619Y-141115096D01*
X72048857Y-141162715D01*
X72096476Y-141162715D01*
X72191714Y-141115096D01*
X72239333Y-141067477D01*
X72286952Y-140972239D01*
X72286952Y-140781762D01*
X72334571Y-140686524D01*
X72382190Y-140638905D01*
X72477429Y-140591286D01*
X72667905Y-140591286D01*
X72763143Y-140638905D01*
X72810762Y-140686524D01*
X72858381Y-140781762D01*
X72858381Y-140972239D01*
X72810762Y-141067477D01*
X72763143Y-141115096D01*
X72667905Y-141162715D01*
X72477429Y-141162715D01*
X72382190Y-141115096D01*
X72334571Y-141067477D01*
X72286952Y-140972239D01*
X71858381Y-127081905D02*
X72667905Y-127081905D01*
X72763143Y-127129524D01*
X72810762Y-127177143D01*
X72858381Y-127272381D01*
X72858381Y-127462858D01*
X72810762Y-127558096D01*
X72763143Y-127605715D01*
X72667905Y-127653334D01*
X71858381Y-127653334D01*
X71858381Y-128034286D02*
X71858381Y-128653334D01*
X72239333Y-128320000D01*
X72239333Y-128462858D01*
X72286952Y-128558096D01*
X72334571Y-128605715D01*
X72429810Y-128653334D01*
X72667905Y-128653334D01*
X72763143Y-128605715D01*
X72810762Y-128558096D01*
X72858381Y-128462858D01*
X72858381Y-128177143D01*
X72810762Y-128081905D01*
X72763143Y-128034286D01*
X72858381Y-129129524D02*
X72858381Y-129320000D01*
X72810762Y-129415239D01*
X72763143Y-129462858D01*
X72620286Y-129558096D01*
X72429810Y-129605715D01*
X72048857Y-129605715D01*
X71953619Y-129558096D01*
X71906000Y-129510477D01*
X71858381Y-129415239D01*
X71858381Y-129224762D01*
X71906000Y-129129524D01*
X71953619Y-129081905D01*
X72048857Y-129034286D01*
X72286952Y-129034286D01*
X72382190Y-129081905D01*
X72429810Y-129129524D01*
X72477429Y-129224762D01*
X72477429Y-129415239D01*
X72429810Y-129510477D01*
X72382190Y-129558096D01*
X72286952Y-129605715D01*
X96591381Y-139046905D02*
X97400905Y-139046905D01*
X97496143Y-139094524D01*
X97543762Y-139142143D01*
X97591381Y-139237381D01*
X97591381Y-139427858D01*
X97543762Y-139523096D01*
X97496143Y-139570715D01*
X97400905Y-139618334D01*
X96591381Y-139618334D01*
X96924714Y-140523096D02*
X97591381Y-140523096D01*
X96543762Y-140285000D02*
X97258048Y-140046905D01*
X97258048Y-140665953D01*
X96591381Y-141237381D02*
X96591381Y-141332620D01*
X96639000Y-141427858D01*
X96686619Y-141475477D01*
X96781857Y-141523096D01*
X96972333Y-141570715D01*
X97210429Y-141570715D01*
X97400905Y-141523096D01*
X97496143Y-141475477D01*
X97543762Y-141427858D01*
X97591381Y-141332620D01*
X97591381Y-141237381D01*
X97543762Y-141142143D01*
X97496143Y-141094524D01*
X97400905Y-141046905D01*
X97210429Y-140999286D01*
X96972333Y-140999286D01*
X96781857Y-141046905D01*
X96686619Y-141094524D01*
X96639000Y-141142143D01*
X96591381Y-141237381D01*
X96591381Y-128251905D02*
X97400905Y-128251905D01*
X97496143Y-128299524D01*
X97543762Y-128347143D01*
X97591381Y-128442381D01*
X97591381Y-128632858D01*
X97543762Y-128728096D01*
X97496143Y-128775715D01*
X97400905Y-128823334D01*
X96591381Y-128823334D01*
X96924714Y-129728096D02*
X97591381Y-129728096D01*
X96543762Y-129490000D02*
X97258048Y-129251905D01*
X97258048Y-129870953D01*
X97591381Y-130775715D02*
X97591381Y-130204286D01*
X97591381Y-130490000D02*
X96591381Y-130490000D01*
X96734238Y-130394762D01*
X96829476Y-130299524D01*
X96877095Y-130204286D01*
X72971381Y-113773905D02*
X73780905Y-113773905D01*
X73876143Y-113821524D01*
X73923762Y-113869143D01*
X73971381Y-113964381D01*
X73971381Y-114154858D01*
X73923762Y-114250096D01*
X73876143Y-114297715D01*
X73780905Y-114345334D01*
X72971381Y-114345334D01*
X73304714Y-115250096D02*
X73971381Y-115250096D01*
X72923762Y-115012000D02*
X73638048Y-114773905D01*
X73638048Y-115392953D01*
X73066619Y-115726286D02*
X73019000Y-115773905D01*
X72971381Y-115869143D01*
X72971381Y-116107239D01*
X73019000Y-116202477D01*
X73066619Y-116250096D01*
X73161857Y-116297715D01*
X73257095Y-116297715D01*
X73399952Y-116250096D01*
X73971381Y-115678667D01*
X73971381Y-116297715D01*
X26900381Y-117810905D02*
X27709905Y-117810905D01*
X27805143Y-117858524D01*
X27852762Y-117906143D01*
X27900381Y-118001381D01*
X27900381Y-118191858D01*
X27852762Y-118287096D01*
X27805143Y-118334715D01*
X27709905Y-118382334D01*
X26900381Y-118382334D01*
X27233714Y-119287096D02*
X27900381Y-119287096D01*
X26852762Y-119049000D02*
X27567048Y-118810905D01*
X27567048Y-119429953D01*
X26900381Y-120287096D02*
X26900381Y-119810905D01*
X27376571Y-119763286D01*
X27328952Y-119810905D01*
X27281333Y-119906143D01*
X27281333Y-120144239D01*
X27328952Y-120239477D01*
X27376571Y-120287096D01*
X27471810Y-120334715D01*
X27709905Y-120334715D01*
X27805143Y-120287096D01*
X27852762Y-120239477D01*
X27900381Y-120144239D01*
X27900381Y-119906143D01*
X27852762Y-119810905D01*
X27805143Y-119763286D01*
X26900381Y-134320905D02*
X27709905Y-134320905D01*
X27805143Y-134368524D01*
X27852762Y-134416143D01*
X27900381Y-134511381D01*
X27900381Y-134701858D01*
X27852762Y-134797096D01*
X27805143Y-134844715D01*
X27709905Y-134892334D01*
X26900381Y-134892334D01*
X27233714Y-135797096D02*
X27900381Y-135797096D01*
X26852762Y-135559000D02*
X27567048Y-135320905D01*
X27567048Y-135939953D01*
X26900381Y-136749477D02*
X26900381Y-136559000D01*
X26948000Y-136463762D01*
X26995619Y-136416143D01*
X27138476Y-136320905D01*
X27328952Y-136273286D01*
X27709905Y-136273286D01*
X27805143Y-136320905D01*
X27852762Y-136368524D01*
X27900381Y-136463762D01*
X27900381Y-136654239D01*
X27852762Y-136749477D01*
X27805143Y-136797096D01*
X27709905Y-136844715D01*
X27471810Y-136844715D01*
X27376571Y-136797096D01*
X27328952Y-136749477D01*
X27281333Y-136654239D01*
X27281333Y-136463762D01*
X27328952Y-136368524D01*
X27376571Y-136320905D01*
X27471810Y-136273286D01*
X48458381Y-117456905D02*
X49267905Y-117456905D01*
X49363143Y-117504524D01*
X49410762Y-117552143D01*
X49458381Y-117647381D01*
X49458381Y-117837858D01*
X49410762Y-117933096D01*
X49363143Y-117980715D01*
X49267905Y-118028334D01*
X48458381Y-118028334D01*
X48791714Y-118933096D02*
X49458381Y-118933096D01*
X48410762Y-118695000D02*
X49125048Y-118456905D01*
X49125048Y-119075953D01*
X48458381Y-119361667D02*
X48458381Y-120028334D01*
X49458381Y-119599762D01*
X48712381Y-134220905D02*
X49521905Y-134220905D01*
X49617143Y-134268524D01*
X49664762Y-134316143D01*
X49712381Y-134411381D01*
X49712381Y-134601858D01*
X49664762Y-134697096D01*
X49617143Y-134744715D01*
X49521905Y-134792334D01*
X48712381Y-134792334D01*
X49045714Y-135697096D02*
X49712381Y-135697096D01*
X48664762Y-135459000D02*
X49379048Y-135220905D01*
X49379048Y-135839953D01*
X49140952Y-136363762D02*
X49093333Y-136268524D01*
X49045714Y-136220905D01*
X48950476Y-136173286D01*
X48902857Y-136173286D01*
X48807619Y-136220905D01*
X48760000Y-136268524D01*
X48712381Y-136363762D01*
X48712381Y-136554239D01*
X48760000Y-136649477D01*
X48807619Y-136697096D01*
X48902857Y-136744715D01*
X48950476Y-136744715D01*
X49045714Y-136697096D01*
X49093333Y-136649477D01*
X49140952Y-136554239D01*
X49140952Y-136363762D01*
X49188571Y-136268524D01*
X49236190Y-136220905D01*
X49331429Y-136173286D01*
X49521905Y-136173286D01*
X49617143Y-136220905D01*
X49664762Y-136268524D01*
X49712381Y-136363762D01*
X49712381Y-136554239D01*
X49664762Y-136649477D01*
X49617143Y-136697096D01*
X49521905Y-136744715D01*
X49331429Y-136744715D01*
X49236190Y-136697096D01*
X49188571Y-136649477D01*
X49140952Y-136554239D01*
X164129095Y-57761381D02*
X164129095Y-58570905D01*
X164081476Y-58666143D01*
X164033857Y-58713762D01*
X163938619Y-58761381D01*
X163748142Y-58761381D01*
X163652904Y-58713762D01*
X163605285Y-58666143D01*
X163557666Y-58570905D01*
X163557666Y-57761381D01*
X162605285Y-57761381D02*
X163081476Y-57761381D01*
X163129095Y-58237571D01*
X163081476Y-58189952D01*
X162986238Y-58142333D01*
X162748142Y-58142333D01*
X162652904Y-58189952D01*
X162605285Y-58237571D01*
X162557666Y-58332810D01*
X162557666Y-58570905D01*
X162605285Y-58666143D01*
X162652904Y-58713762D01*
X162748142Y-58761381D01*
X162986238Y-58761381D01*
X163081476Y-58713762D01*
X163129095Y-58666143D01*
X162176714Y-57856619D02*
X162129095Y-57809000D01*
X162033857Y-57761381D01*
X161795761Y-57761381D01*
X161700523Y-57809000D01*
X161652904Y-57856619D01*
X161605285Y-57951857D01*
X161605285Y-58047095D01*
X161652904Y-58189952D01*
X162224333Y-58761381D01*
X161605285Y-58761381D01*
X163494095Y-43029381D02*
X163494095Y-43838905D01*
X163446476Y-43934143D01*
X163398857Y-43981762D01*
X163303619Y-44029381D01*
X163113142Y-44029381D01*
X163017904Y-43981762D01*
X162970285Y-43934143D01*
X162922666Y-43838905D01*
X162922666Y-43029381D01*
X161970285Y-43029381D02*
X162446476Y-43029381D01*
X162494095Y-43505571D01*
X162446476Y-43457952D01*
X162351238Y-43410333D01*
X162113142Y-43410333D01*
X162017904Y-43457952D01*
X161970285Y-43505571D01*
X161922666Y-43600810D01*
X161922666Y-43838905D01*
X161970285Y-43934143D01*
X162017904Y-43981762D01*
X162113142Y-44029381D01*
X162351238Y-44029381D01*
X162446476Y-43981762D01*
X162494095Y-43934143D01*
X161589333Y-43029381D02*
X160970285Y-43029381D01*
X161303619Y-43410333D01*
X161160761Y-43410333D01*
X161065523Y-43457952D01*
X161017904Y-43505571D01*
X160970285Y-43600810D01*
X160970285Y-43838905D01*
X161017904Y-43934143D01*
X161065523Y-43981762D01*
X161160761Y-44029381D01*
X161446476Y-44029381D01*
X161541714Y-43981762D01*
X161589333Y-43934143D01*
X184322095Y-57634381D02*
X184322095Y-58443905D01*
X184274476Y-58539143D01*
X184226857Y-58586762D01*
X184131619Y-58634381D01*
X183941142Y-58634381D01*
X183845904Y-58586762D01*
X183798285Y-58539143D01*
X183750666Y-58443905D01*
X183750666Y-57634381D01*
X182798285Y-57634381D02*
X183274476Y-57634381D01*
X183322095Y-58110571D01*
X183274476Y-58062952D01*
X183179238Y-58015333D01*
X182941142Y-58015333D01*
X182845904Y-58062952D01*
X182798285Y-58110571D01*
X182750666Y-58205810D01*
X182750666Y-58443905D01*
X182798285Y-58539143D01*
X182845904Y-58586762D01*
X182941142Y-58634381D01*
X183179238Y-58634381D01*
X183274476Y-58586762D01*
X183322095Y-58539143D01*
X181893523Y-57967714D02*
X181893523Y-58634381D01*
X182131619Y-57586762D02*
X182369714Y-58301048D01*
X181750666Y-58301048D01*
X183179095Y-43283381D02*
X183179095Y-44092905D01*
X183131476Y-44188143D01*
X183083857Y-44235762D01*
X182988619Y-44283381D01*
X182798142Y-44283381D01*
X182702904Y-44235762D01*
X182655285Y-44188143D01*
X182607666Y-44092905D01*
X182607666Y-43283381D01*
X181655285Y-43283381D02*
X182131476Y-43283381D01*
X182179095Y-43759571D01*
X182131476Y-43711952D01*
X182036238Y-43664333D01*
X181798142Y-43664333D01*
X181702904Y-43711952D01*
X181655285Y-43759571D01*
X181607666Y-43854810D01*
X181607666Y-44092905D01*
X181655285Y-44188143D01*
X181702904Y-44235762D01*
X181798142Y-44283381D01*
X182036238Y-44283381D01*
X182131476Y-44235762D01*
X182179095Y-44188143D01*
X180702904Y-43283381D02*
X181179095Y-43283381D01*
X181226714Y-43759571D01*
X181179095Y-43711952D01*
X181083857Y-43664333D01*
X180845761Y-43664333D01*
X180750523Y-43711952D01*
X180702904Y-43759571D01*
X180655285Y-43854810D01*
X180655285Y-44092905D01*
X180702904Y-44188143D01*
X180750523Y-44235762D01*
X180845761Y-44283381D01*
X181083857Y-44283381D01*
X181179095Y-44235762D01*
X181226714Y-44188143D01*
M02*
