G04 #@! TF.FileFunction,Soldermask,Bot*
%FSLAX46Y46*%
G04 Gerber Fmt 4.6, Leading zero omitted, Abs format (unit mm)*
G04 Created by KiCad (PCBNEW 4.0.2-stable) date Mon 18 Apr 2016 07:01:49 PM CST*
%MOMM*%
G01*
G04 APERTURE LIST*
%ADD10C,0.100000*%
%ADD11R,5.650000X6.630000*%
%ADD12R,5.650000X10.700000*%
%ADD13R,1.700000X1.065000*%
%ADD14C,1.557000*%
%ADD15R,1.100000X1.700000*%
%ADD16C,2.700000*%
%ADD17C,2.220000*%
%ADD18R,1.900000X0.950000*%
%ADD19R,0.950000X2.350000*%
%ADD20R,1.580000X0.980000*%
%ADD21R,0.950000X1.900000*%
%ADD22C,4.464000*%
G04 APERTURE END LIST*
D10*
D11*
X38225000Y-55727000D03*
X38225000Y-47397000D03*
D12*
X44325000Y-51562000D03*
D13*
X50375000Y-44562000D03*
X50375000Y-45562000D03*
X50375000Y-46562000D03*
X50375000Y-47562000D03*
X50375000Y-48562000D03*
X50375000Y-49562000D03*
X50375000Y-50562000D03*
X50375000Y-51562000D03*
X50375000Y-52562000D03*
X50375000Y-53562000D03*
X50375000Y-54562000D03*
X50375000Y-55562000D03*
X50375000Y-56562000D03*
X50375000Y-57562000D03*
X50375000Y-58562000D03*
X32175000Y-58562000D03*
X32175000Y-57562000D03*
X32175000Y-56562000D03*
X32175000Y-55562000D03*
X32175000Y-54562000D03*
X32175000Y-53562000D03*
X32175000Y-52562000D03*
X32175000Y-51562000D03*
X32175000Y-50562000D03*
X32175000Y-49562000D03*
X32175000Y-48562000D03*
X32175000Y-47562000D03*
X32175000Y-46562000D03*
X32175000Y-45562000D03*
X32175000Y-44562000D03*
D14*
X100076000Y-76073000D03*
X97536000Y-76073000D03*
X100076000Y-73533000D03*
X97536000Y-73533000D03*
X100076000Y-70993000D03*
X97536000Y-70993000D03*
X100076000Y-68453000D03*
X97536000Y-68453000D03*
X100076000Y-65913000D03*
X97536000Y-65913000D03*
X100076000Y-63373000D03*
X97536000Y-63373000D03*
X100076000Y-60833000D03*
X97536000Y-60833000D03*
X100076000Y-58293000D03*
X97536000Y-58293000D03*
X100076000Y-55753000D03*
X97536000Y-55753000D03*
X100076000Y-53213000D03*
X97536000Y-53213000D03*
X100076000Y-50673000D03*
X97536000Y-50673000D03*
X100076000Y-48133000D03*
X97536000Y-48133000D03*
X100076000Y-45593000D03*
X97536000Y-45593000D03*
X100076000Y-43053000D03*
X97536000Y-43053000D03*
X100076000Y-40513000D03*
X97536000Y-40513000D03*
X100076000Y-37973000D03*
X97536000Y-37973000D03*
X100076000Y-35433000D03*
X97536000Y-35433000D03*
D15*
X62042000Y-56515000D03*
X63942000Y-56515000D03*
X55946000Y-43561000D03*
X57846000Y-43561000D03*
X61915000Y-47879000D03*
X63815000Y-47879000D03*
D16*
X160655000Y-149937000D03*
X167005000Y-149937000D03*
X173355000Y-149937000D03*
X179705000Y-149937000D03*
X186055000Y-149937000D03*
X50292000Y-149783000D03*
X43942000Y-149783000D03*
X37592000Y-149783000D03*
X31242000Y-149783000D03*
X24892000Y-149783000D03*
X71882000Y-149937000D03*
X78232000Y-149937000D03*
X84582000Y-149937000D03*
X90932000Y-149937000D03*
X97282000Y-149937000D03*
X22810000Y-68834000D03*
X22810000Y-62484000D03*
X22810000Y-56134000D03*
X22810000Y-49784000D03*
X22810000Y-43434000D03*
X33147000Y-30811000D03*
X39497000Y-30811000D03*
X45847000Y-30811000D03*
X52197000Y-30811000D03*
X58547000Y-30811000D03*
D17*
X199517000Y-88690000D03*
X199517000Y-94190000D03*
X199009000Y-78188000D03*
X199009000Y-72688000D03*
D16*
X118237000Y-150318000D03*
X124587000Y-150318000D03*
X130937000Y-150318000D03*
X137287000Y-150318000D03*
X143637000Y-150318000D03*
X112903000Y-31573000D03*
X119253000Y-31573000D03*
X125603000Y-31573000D03*
X131953000Y-31573000D03*
X138303000Y-31573000D03*
D18*
X81821000Y-69469000D03*
X81821000Y-70739000D03*
X81821000Y-72009000D03*
X81821000Y-73279000D03*
X81821000Y-74549000D03*
X81821000Y-75819000D03*
X81821000Y-77089000D03*
X81821000Y-78359000D03*
X76421000Y-78359000D03*
X76421000Y-77089000D03*
X76421000Y-75819000D03*
X76421000Y-74549000D03*
X76421000Y-73279000D03*
X76421000Y-72009000D03*
X76421000Y-70739000D03*
X76421000Y-69469000D03*
X82202000Y-42291000D03*
X82202000Y-43561000D03*
X82202000Y-44831000D03*
X82202000Y-46101000D03*
X82202000Y-47371000D03*
X82202000Y-48641000D03*
X82202000Y-49911000D03*
X82202000Y-51181000D03*
X76802000Y-51181000D03*
X76802000Y-49911000D03*
X76802000Y-48641000D03*
X76802000Y-47371000D03*
X76802000Y-46101000D03*
X76802000Y-44831000D03*
X76802000Y-43561000D03*
X76802000Y-42291000D03*
X82456000Y-55499000D03*
X82456000Y-56769000D03*
X82456000Y-58039000D03*
X82456000Y-59309000D03*
X82456000Y-60579000D03*
X82456000Y-61849000D03*
X82456000Y-63119000D03*
X82456000Y-64389000D03*
X77056000Y-64389000D03*
X77056000Y-63119000D03*
X77056000Y-61849000D03*
X77056000Y-60579000D03*
X77056000Y-59309000D03*
X77056000Y-58039000D03*
X77056000Y-56769000D03*
X77056000Y-55499000D03*
D16*
X159004000Y-31192000D03*
X165354000Y-31192000D03*
X171704000Y-31192000D03*
X178054000Y-31192000D03*
X184404000Y-31192000D03*
X198832000Y-58801000D03*
X198832000Y-52451000D03*
X198832000Y-46101000D03*
X198832000Y-39751000D03*
X198832000Y-33401000D03*
D15*
X89347000Y-45085000D03*
X91247000Y-45085000D03*
X87950000Y-74168000D03*
X89850000Y-74168000D03*
X88331000Y-60325000D03*
X90231000Y-60325000D03*
X55946000Y-53721000D03*
X57846000Y-53721000D03*
D19*
X127017000Y-80900000D03*
X125747000Y-80900000D03*
X124477000Y-80900000D03*
X123207000Y-80900000D03*
X121937000Y-80900000D03*
X120667000Y-80900000D03*
X119397000Y-80900000D03*
X118127000Y-80900000D03*
X116857000Y-80900000D03*
X115587000Y-80900000D03*
X114317000Y-80900000D03*
X113047000Y-80900000D03*
X113047000Y-71500000D03*
X114317000Y-71500000D03*
X115587000Y-71500000D03*
X116857000Y-71500000D03*
X118127000Y-71500000D03*
X119397000Y-71500000D03*
X120667000Y-71500000D03*
X121937000Y-71500000D03*
X123207000Y-71500000D03*
X124477000Y-71500000D03*
X125747000Y-71500000D03*
X127017000Y-71500000D03*
D20*
X144011000Y-85471000D03*
X144011000Y-86741000D03*
X144011000Y-88011000D03*
X144011000Y-89281000D03*
X144011000Y-90551000D03*
X144011000Y-91821000D03*
X144011000Y-93091000D03*
X138691000Y-93091000D03*
X138691000Y-91821000D03*
X138691000Y-90551000D03*
X138691000Y-89281000D03*
X138691000Y-88011000D03*
X138691000Y-86741000D03*
X138691000Y-85471000D03*
D18*
X116045000Y-62738000D03*
X116045000Y-61468000D03*
X116045000Y-60198000D03*
X116045000Y-58928000D03*
X116045000Y-57658000D03*
X116045000Y-56388000D03*
X116045000Y-55118000D03*
X116045000Y-53848000D03*
X121445000Y-53848000D03*
X121445000Y-55118000D03*
X121445000Y-56388000D03*
X121445000Y-57658000D03*
X121445000Y-58928000D03*
X121445000Y-60198000D03*
X121445000Y-61468000D03*
X121445000Y-62738000D03*
X116299000Y-49657000D03*
X116299000Y-48387000D03*
X116299000Y-47117000D03*
X116299000Y-45847000D03*
X116299000Y-44577000D03*
X116299000Y-43307000D03*
X116299000Y-42037000D03*
X116299000Y-40767000D03*
X121699000Y-40767000D03*
X121699000Y-42037000D03*
X121699000Y-43307000D03*
X121699000Y-44577000D03*
X121699000Y-45847000D03*
X121699000Y-47117000D03*
X121699000Y-48387000D03*
X121699000Y-49657000D03*
X140749000Y-54864000D03*
X140749000Y-56134000D03*
X140749000Y-57404000D03*
X140749000Y-58674000D03*
X140749000Y-59944000D03*
X140749000Y-61214000D03*
X140749000Y-62484000D03*
X140749000Y-63754000D03*
X135349000Y-63754000D03*
X135349000Y-62484000D03*
X135349000Y-61214000D03*
X135349000Y-59944000D03*
X135349000Y-58674000D03*
X135349000Y-57404000D03*
X135349000Y-56134000D03*
X135349000Y-54864000D03*
X141257000Y-41910000D03*
X141257000Y-43180000D03*
X141257000Y-44450000D03*
X141257000Y-45720000D03*
X141257000Y-46990000D03*
X141257000Y-48260000D03*
X141257000Y-49530000D03*
X141257000Y-50800000D03*
X135857000Y-50800000D03*
X135857000Y-49530000D03*
X135857000Y-48260000D03*
X135857000Y-46990000D03*
X135857000Y-45720000D03*
X135857000Y-44450000D03*
X135857000Y-43180000D03*
X135857000Y-41910000D03*
D19*
X132698000Y-102869000D03*
X133968000Y-102869000D03*
X135238000Y-102869000D03*
X136508000Y-102869000D03*
X137778000Y-102869000D03*
X139048000Y-102869000D03*
X140318000Y-102869000D03*
X141588000Y-102869000D03*
X142858000Y-102869000D03*
X144128000Y-102869000D03*
X145398000Y-102869000D03*
X146668000Y-102869000D03*
X146668000Y-112269000D03*
X145398000Y-112269000D03*
X144128000Y-112269000D03*
X142858000Y-112269000D03*
X141588000Y-112269000D03*
X140318000Y-112269000D03*
X139048000Y-112269000D03*
X137778000Y-112269000D03*
X136508000Y-112269000D03*
X135238000Y-112269000D03*
X133968000Y-112269000D03*
X132698000Y-112269000D03*
D20*
X112275000Y-98679000D03*
X112275000Y-97409000D03*
X112275000Y-96139000D03*
X112275000Y-94869000D03*
X112275000Y-93599000D03*
X112275000Y-92329000D03*
X112275000Y-91059000D03*
X117595000Y-91059000D03*
X117595000Y-92329000D03*
X117595000Y-93599000D03*
X117595000Y-94869000D03*
X117595000Y-96139000D03*
X117595000Y-97409000D03*
X117595000Y-98679000D03*
D21*
X161290000Y-121760000D03*
X162560000Y-121760000D03*
X163830000Y-121760000D03*
X165100000Y-121760000D03*
X166370000Y-121760000D03*
X167640000Y-121760000D03*
X168910000Y-121760000D03*
X170180000Y-121760000D03*
X170180000Y-127160000D03*
X168910000Y-127160000D03*
X167640000Y-127160000D03*
X166370000Y-127160000D03*
X165100000Y-127160000D03*
X163830000Y-127160000D03*
X162560000Y-127160000D03*
X161290000Y-127160000D03*
X160274000Y-104615000D03*
X161544000Y-104615000D03*
X162814000Y-104615000D03*
X164084000Y-104615000D03*
X165354000Y-104615000D03*
X166624000Y-104615000D03*
X167894000Y-104615000D03*
X169164000Y-104615000D03*
X169164000Y-110015000D03*
X167894000Y-110015000D03*
X166624000Y-110015000D03*
X165354000Y-110015000D03*
X164084000Y-110015000D03*
X162814000Y-110015000D03*
X161544000Y-110015000D03*
X160274000Y-110015000D03*
X180467000Y-121760000D03*
X181737000Y-121760000D03*
X183007000Y-121760000D03*
X184277000Y-121760000D03*
X185547000Y-121760000D03*
X186817000Y-121760000D03*
X188087000Y-121760000D03*
X189357000Y-121760000D03*
X189357000Y-127160000D03*
X188087000Y-127160000D03*
X186817000Y-127160000D03*
X185547000Y-127160000D03*
X184277000Y-127160000D03*
X183007000Y-127160000D03*
X181737000Y-127160000D03*
X180467000Y-127160000D03*
X180721000Y-105123000D03*
X181991000Y-105123000D03*
X183261000Y-105123000D03*
X184531000Y-105123000D03*
X185801000Y-105123000D03*
X187071000Y-105123000D03*
X188341000Y-105123000D03*
X189611000Y-105123000D03*
X189611000Y-110523000D03*
X188341000Y-110523000D03*
X187071000Y-110523000D03*
X185801000Y-110523000D03*
X184531000Y-110523000D03*
X183261000Y-110523000D03*
X181991000Y-110523000D03*
X180721000Y-110523000D03*
D20*
X144392000Y-73025000D03*
X144392000Y-74295000D03*
X144392000Y-75565000D03*
X144392000Y-76835000D03*
X144392000Y-78105000D03*
X144392000Y-79375000D03*
X144392000Y-80645000D03*
X139072000Y-80645000D03*
X139072000Y-79375000D03*
X139072000Y-78105000D03*
X139072000Y-76835000D03*
X139072000Y-75565000D03*
X139072000Y-74295000D03*
X139072000Y-73025000D03*
D19*
X84692000Y-108584000D03*
X85962000Y-108584000D03*
X87232000Y-108584000D03*
X88502000Y-108584000D03*
X89772000Y-108584000D03*
X91042000Y-108584000D03*
X92312000Y-108584000D03*
X93582000Y-108584000D03*
X94852000Y-108584000D03*
X96122000Y-108584000D03*
X97392000Y-108584000D03*
X98662000Y-108584000D03*
X98662000Y-117984000D03*
X97392000Y-117984000D03*
X96122000Y-117984000D03*
X94852000Y-117984000D03*
X93582000Y-117984000D03*
X92312000Y-117984000D03*
X91042000Y-117984000D03*
X89772000Y-117984000D03*
X88502000Y-117984000D03*
X87232000Y-117984000D03*
X85962000Y-117984000D03*
X84692000Y-117984000D03*
D20*
X69984000Y-106299000D03*
X69984000Y-105029000D03*
X69984000Y-103759000D03*
X69984000Y-102489000D03*
X69984000Y-101219000D03*
X69984000Y-99949000D03*
X69984000Y-98679000D03*
X75304000Y-98679000D03*
X75304000Y-99949000D03*
X75304000Y-101219000D03*
X75304000Y-102489000D03*
X75304000Y-103759000D03*
X75304000Y-105029000D03*
X75304000Y-106299000D03*
D18*
X117061000Y-141732000D03*
X117061000Y-140462000D03*
X117061000Y-139192000D03*
X117061000Y-137922000D03*
X117061000Y-136652000D03*
X117061000Y-135382000D03*
X117061000Y-134112000D03*
X117061000Y-132842000D03*
X122461000Y-132842000D03*
X122461000Y-134112000D03*
X122461000Y-135382000D03*
X122461000Y-136652000D03*
X122461000Y-137922000D03*
X122461000Y-139192000D03*
X122461000Y-140462000D03*
X122461000Y-141732000D03*
X117188000Y-129667000D03*
X117188000Y-128397000D03*
X117188000Y-127127000D03*
X117188000Y-125857000D03*
X117188000Y-124587000D03*
X117188000Y-123317000D03*
X117188000Y-122047000D03*
X117188000Y-120777000D03*
X122588000Y-120777000D03*
X122588000Y-122047000D03*
X122588000Y-123317000D03*
X122588000Y-124587000D03*
X122588000Y-125857000D03*
X122588000Y-127127000D03*
X122588000Y-128397000D03*
X122588000Y-129667000D03*
X142146000Y-132588000D03*
X142146000Y-133858000D03*
X142146000Y-135128000D03*
X142146000Y-136398000D03*
X142146000Y-137668000D03*
X142146000Y-138938000D03*
X142146000Y-140208000D03*
X142146000Y-141478000D03*
X136746000Y-141478000D03*
X136746000Y-140208000D03*
X136746000Y-138938000D03*
X136746000Y-137668000D03*
X136746000Y-136398000D03*
X136746000Y-135128000D03*
X136746000Y-133858000D03*
X136746000Y-132588000D03*
X142400000Y-120523000D03*
X142400000Y-121793000D03*
X142400000Y-123063000D03*
X142400000Y-124333000D03*
X142400000Y-125603000D03*
X142400000Y-126873000D03*
X142400000Y-128143000D03*
X142400000Y-129413000D03*
X137000000Y-129413000D03*
X137000000Y-128143000D03*
X137000000Y-126873000D03*
X137000000Y-125603000D03*
X137000000Y-124333000D03*
X137000000Y-123063000D03*
X137000000Y-121793000D03*
X137000000Y-120523000D03*
D20*
X112402000Y-111125000D03*
X112402000Y-109855000D03*
X112402000Y-108585000D03*
X112402000Y-107315000D03*
X112402000Y-106045000D03*
X112402000Y-104775000D03*
X112402000Y-103505000D03*
X117722000Y-103505000D03*
X117722000Y-104775000D03*
X117722000Y-106045000D03*
X117722000Y-107315000D03*
X117722000Y-108585000D03*
X117722000Y-109855000D03*
X117722000Y-111125000D03*
D18*
X70706000Y-144272000D03*
X70706000Y-143002000D03*
X70706000Y-141732000D03*
X70706000Y-140462000D03*
X70706000Y-139192000D03*
X70706000Y-137922000D03*
X70706000Y-136652000D03*
X70706000Y-135382000D03*
X76106000Y-135382000D03*
X76106000Y-136652000D03*
X76106000Y-137922000D03*
X76106000Y-139192000D03*
X76106000Y-140462000D03*
X76106000Y-141732000D03*
X76106000Y-143002000D03*
X76106000Y-144272000D03*
X70706000Y-132715000D03*
X70706000Y-131445000D03*
X70706000Y-130175000D03*
X70706000Y-128905000D03*
X70706000Y-127635000D03*
X70706000Y-126365000D03*
X70706000Y-125095000D03*
X70706000Y-123825000D03*
X76106000Y-123825000D03*
X76106000Y-125095000D03*
X76106000Y-126365000D03*
X76106000Y-127635000D03*
X76106000Y-128905000D03*
X76106000Y-130175000D03*
X76106000Y-131445000D03*
X76106000Y-132715000D03*
X98839000Y-135890000D03*
X98839000Y-137160000D03*
X98839000Y-138430000D03*
X98839000Y-139700000D03*
X98839000Y-140970000D03*
X98839000Y-142240000D03*
X98839000Y-143510000D03*
X98839000Y-144780000D03*
X93439000Y-144780000D03*
X93439000Y-143510000D03*
X93439000Y-142240000D03*
X93439000Y-140970000D03*
X93439000Y-139700000D03*
X93439000Y-138430000D03*
X93439000Y-137160000D03*
X93439000Y-135890000D03*
X98839000Y-125095000D03*
X98839000Y-126365000D03*
X98839000Y-127635000D03*
X98839000Y-128905000D03*
X98839000Y-130175000D03*
X98839000Y-131445000D03*
X98839000Y-132715000D03*
X98839000Y-133985000D03*
X93439000Y-133985000D03*
X93439000Y-132715000D03*
X93439000Y-131445000D03*
X93439000Y-130175000D03*
X93439000Y-128905000D03*
X93439000Y-127635000D03*
X93439000Y-126365000D03*
X93439000Y-125095000D03*
D20*
X69984000Y-118872000D03*
X69984000Y-117602000D03*
X69984000Y-116332000D03*
X69984000Y-115062000D03*
X69984000Y-113792000D03*
X69984000Y-112522000D03*
X69984000Y-111252000D03*
X75304000Y-111252000D03*
X75304000Y-112522000D03*
X75304000Y-113792000D03*
X75304000Y-115062000D03*
X75304000Y-116332000D03*
X75304000Y-117602000D03*
X75304000Y-118872000D03*
D18*
X25748000Y-123444000D03*
X25748000Y-122174000D03*
X25748000Y-120904000D03*
X25748000Y-119634000D03*
X25748000Y-118364000D03*
X25748000Y-117094000D03*
X25748000Y-115824000D03*
X25748000Y-114554000D03*
X31148000Y-114554000D03*
X31148000Y-115824000D03*
X31148000Y-117094000D03*
X31148000Y-118364000D03*
X31148000Y-119634000D03*
X31148000Y-120904000D03*
X31148000Y-122174000D03*
X31148000Y-123444000D03*
X25748000Y-139954000D03*
X25748000Y-138684000D03*
X25748000Y-137414000D03*
X25748000Y-136144000D03*
X25748000Y-134874000D03*
X25748000Y-133604000D03*
X25748000Y-132334000D03*
X25748000Y-131064000D03*
X31148000Y-131064000D03*
X31148000Y-132334000D03*
X31148000Y-133604000D03*
X31148000Y-134874000D03*
X31148000Y-136144000D03*
X31148000Y-137414000D03*
X31148000Y-138684000D03*
X31148000Y-139954000D03*
X50706000Y-114300000D03*
X50706000Y-115570000D03*
X50706000Y-116840000D03*
X50706000Y-118110000D03*
X50706000Y-119380000D03*
X50706000Y-120650000D03*
X50706000Y-121920000D03*
X50706000Y-123190000D03*
X45306000Y-123190000D03*
X45306000Y-121920000D03*
X45306000Y-120650000D03*
X45306000Y-119380000D03*
X45306000Y-118110000D03*
X45306000Y-116840000D03*
X45306000Y-115570000D03*
X45306000Y-114300000D03*
X50960000Y-131064000D03*
X50960000Y-132334000D03*
X50960000Y-133604000D03*
X50960000Y-134874000D03*
X50960000Y-136144000D03*
X50960000Y-137414000D03*
X50960000Y-138684000D03*
X50960000Y-139954000D03*
X45560000Y-139954000D03*
X45560000Y-138684000D03*
X45560000Y-137414000D03*
X45560000Y-136144000D03*
X45560000Y-134874000D03*
X45560000Y-133604000D03*
X45560000Y-132334000D03*
X45560000Y-131064000D03*
D21*
X158496000Y-56609000D03*
X159766000Y-56609000D03*
X161036000Y-56609000D03*
X162306000Y-56609000D03*
X163576000Y-56609000D03*
X164846000Y-56609000D03*
X166116000Y-56609000D03*
X167386000Y-56609000D03*
X167386000Y-62009000D03*
X166116000Y-62009000D03*
X164846000Y-62009000D03*
X163576000Y-62009000D03*
X162306000Y-62009000D03*
X161036000Y-62009000D03*
X159766000Y-62009000D03*
X158496000Y-62009000D03*
X157861000Y-41877000D03*
X159131000Y-41877000D03*
X160401000Y-41877000D03*
X161671000Y-41877000D03*
X162941000Y-41877000D03*
X164211000Y-41877000D03*
X165481000Y-41877000D03*
X166751000Y-41877000D03*
X166751000Y-47277000D03*
X165481000Y-47277000D03*
X164211000Y-47277000D03*
X162941000Y-47277000D03*
X161671000Y-47277000D03*
X160401000Y-47277000D03*
X159131000Y-47277000D03*
X157861000Y-47277000D03*
X178689000Y-56482000D03*
X179959000Y-56482000D03*
X181229000Y-56482000D03*
X182499000Y-56482000D03*
X183769000Y-56482000D03*
X185039000Y-56482000D03*
X186309000Y-56482000D03*
X187579000Y-56482000D03*
X187579000Y-61882000D03*
X186309000Y-61882000D03*
X185039000Y-61882000D03*
X183769000Y-61882000D03*
X182499000Y-61882000D03*
X181229000Y-61882000D03*
X179959000Y-61882000D03*
X178689000Y-61882000D03*
X177546000Y-42131000D03*
X178816000Y-42131000D03*
X180086000Y-42131000D03*
X181356000Y-42131000D03*
X182626000Y-42131000D03*
X183896000Y-42131000D03*
X185166000Y-42131000D03*
X186436000Y-42131000D03*
X186436000Y-47531000D03*
X185166000Y-47531000D03*
X183896000Y-47531000D03*
X182626000Y-47531000D03*
X181356000Y-47531000D03*
X180086000Y-47531000D03*
X178816000Y-47531000D03*
X177546000Y-47531000D03*
D22*
X19431000Y-29591000D03*
X199644000Y-155702000D03*
X18669000Y-155702000D03*
M02*
