G04 #@! TF.FileFunction,Legend,Bot*
%FSLAX46Y46*%
G04 Gerber Fmt 4.6, Leading zero omitted, Abs format (unit mm)*
G04 Created by KiCad (PCBNEW 4.0.6) date Tue Sep  5 19:33:10 2017*
%MOMM*%
%LPD*%
G01*
G04 APERTURE LIST*
%ADD10C,0.150000*%
%ADD11C,0.300000*%
G04 APERTURE END LIST*
D10*
X158855714Y-93628571D02*
X158712857Y-93676190D01*
X158665238Y-93723810D01*
X158617619Y-93819048D01*
X158617619Y-93961905D01*
X158665238Y-94057143D01*
X158712857Y-94104762D01*
X158808095Y-94152381D01*
X159189048Y-94152381D01*
X159189048Y-93152381D01*
X158855714Y-93152381D01*
X158760476Y-93200000D01*
X158712857Y-93247619D01*
X158665238Y-93342857D01*
X158665238Y-93438095D01*
X158712857Y-93533333D01*
X158760476Y-93580952D01*
X158855714Y-93628571D01*
X159189048Y-93628571D01*
X158331905Y-93152381D02*
X157760476Y-93152381D01*
X158046191Y-94152381D02*
X158046191Y-93152381D01*
X156903333Y-94152381D02*
X157474762Y-94152381D01*
X157189048Y-94152381D02*
X157189048Y-93152381D01*
X157284286Y-93295238D01*
X157379524Y-93390476D01*
X157474762Y-93438095D01*
D11*
X158831905Y-83342857D02*
X157308095Y-83342857D01*
X146501905Y-83342857D02*
X144978095Y-83342857D01*
X145740000Y-84104762D02*
X145740000Y-82580952D01*
X171161905Y-83342857D02*
X169638095Y-83342857D01*
X170400000Y-84104762D02*
X170400000Y-82580952D01*
M02*
