M48
;DRILL file {KiCad 4.0.6} date Fri Sep  1 16:11:06 2017
;FORMAT={2:4/ absolute / inch / suppress leading zeros}
FMAT,2
INCH,TZ
T1C0.016
T2C0.020
T3C0.026
T4C0.039
%
G90
G05
M72
T1
X55945Y-37677
X56142Y-32323
X57205Y-33071
X57480Y-36457
X58268Y-35945
X58504Y-34764
X58661Y-31378
X58780Y-36378
X58898Y-32126
X59499Y-31265
X59545Y-34510
X59992Y-37785
X61102Y-38228
X61392Y-31524
X62232Y-34724
X62402Y-32126
X62441Y-31309
X64764Y-36654
X65000Y-31890
X67008Y-36378
X67087Y-34724
T3
X66165Y-37335
X66165Y-37835
X66665Y-37335
X66665Y-37835
X67165Y-37335
X67165Y-37835
X67665Y-37335
X67665Y-37835
X68165Y-37335
X68165Y-37835
T4
X69921Y-31827
X69921Y-32827
X69921Y-33827
X69921Y-34827
X69921Y-35827
X69921Y-36827
T2
X55807Y-33505G85X55531Y-33505
G05
X55807Y-36103G85X55531Y-36103
G05
T0
M30
