G04 #@! TF.FileFunction,Copper,L2,Bot,Signal*
%FSLAX46Y46*%
G04 Gerber Fmt 4.6, Leading zero omitted, Abs format (unit mm)*
G04 Created by KiCad (PCBNEW 4.0.7) date 03/10/18 19:58:14*
%MOMM*%
%LPD*%
G01*
G04 APERTURE LIST*
%ADD10C,0.100000*%
%ADD11R,3.000000X3.000000*%
%ADD12C,3.000000*%
%ADD13C,1.250000*%
G04 APERTURE END LIST*
D10*
D11*
X112891000Y-66920000D03*
D12*
X112891000Y-71120000D03*
X112891000Y-75320000D03*
X112891000Y-79520000D03*
X107391000Y-66920000D03*
X107391000Y-71120000D03*
X107391000Y-75320000D03*
X107391000Y-79520000D03*
D11*
X130981000Y-89780000D03*
D12*
X130981000Y-93980000D03*
X130981000Y-98180000D03*
X130981000Y-102380000D03*
X136481000Y-89780000D03*
X136481000Y-93980000D03*
X136481000Y-98180000D03*
X136481000Y-102380000D03*
D11*
X130981000Y-66920000D03*
D12*
X130981000Y-71120000D03*
X130981000Y-75320000D03*
X130981000Y-79520000D03*
X136481000Y-66920000D03*
X136481000Y-71120000D03*
X136481000Y-75320000D03*
X136481000Y-79520000D03*
D11*
X112841000Y-89780000D03*
D12*
X112841000Y-93980000D03*
X112841000Y-98180000D03*
X112841000Y-102380000D03*
X107341000Y-89780000D03*
X107341000Y-93980000D03*
X107341000Y-98180000D03*
X107341000Y-102380000D03*
D13*
X107391000Y-74849092D02*
X104649126Y-77590966D01*
X136251277Y-83868486D02*
X139286512Y-80833251D01*
X104649126Y-77590966D02*
X104649126Y-80833250D01*
X139286512Y-80833251D02*
X139286512Y-77654604D01*
X104649126Y-80833250D02*
X107684362Y-83868486D01*
X107684362Y-83868486D02*
X136251277Y-83868486D01*
X137980999Y-76349091D02*
X136481000Y-74849092D01*
X139286512Y-77654604D02*
X137980999Y-76349091D01*
X107341000Y-98180000D02*
X104760901Y-100760099D01*
X104760901Y-100760099D02*
X104760901Y-103845443D01*
X104760901Y-103845443D02*
X108062886Y-107147428D01*
X108062886Y-107147428D02*
X136151586Y-107147428D01*
X136151586Y-107147428D02*
X139323961Y-103975053D01*
X139323961Y-103975053D02*
X139323961Y-101022961D01*
X139323961Y-101022961D02*
X137980999Y-99679999D01*
X137980999Y-99679999D02*
X136481000Y-98180000D01*
M02*
