G04 #@! TF.FileFunction,Soldermask,Bot*
%FSLAX46Y46*%
G04 Gerber Fmt 4.6, Leading zero omitted, Abs format (unit mm)*
G04 Created by KiCad (PCBNEW 4.0.4-stable) date 05/10/17 13:02:38*
%MOMM*%
%LPD*%
G01*
G04 APERTURE LIST*
%ADD10C,0.100000*%
%ADD11C,1.924000*%
%ADD12R,2.800000X2.800000*%
%ADD13C,2.800000*%
%ADD14C,1.299160*%
%ADD15C,2.900000*%
%ADD16R,2.940000X2.940000*%
%ADD17C,2.940000*%
%ADD18C,1.908000*%
%ADD19C,3.702000*%
%ADD20R,2.000000X2.000000*%
%ADD21C,2.000000*%
%ADD22R,2.100000X2.100000*%
%ADD23O,2.100000X2.100000*%
%ADD24C,3.400000*%
%ADD25R,3.400000X3.400000*%
G04 APERTURE END LIST*
D10*
D11*
X44680000Y-91350000D03*
X47220000Y-91350000D03*
X49760000Y-91350000D03*
X52300000Y-91350000D03*
X54840000Y-91350000D03*
X57380000Y-91350000D03*
X59920000Y-91350000D03*
X62460000Y-91350000D03*
X65000000Y-91350000D03*
X67540000Y-91350000D03*
X70080000Y-91350000D03*
X72620000Y-91350000D03*
X75160000Y-91350000D03*
X77700000Y-91350000D03*
X80240000Y-91350000D03*
X82780000Y-91350000D03*
X85320000Y-91350000D03*
X87860000Y-91350000D03*
X90400000Y-91350000D03*
X92940000Y-91350000D03*
X95480000Y-91350000D03*
X98020000Y-91350000D03*
X100560000Y-91350000D03*
X103100000Y-91350000D03*
X105640000Y-86500000D03*
X103036500Y-86500000D03*
X100560000Y-86563500D03*
X98020000Y-86563500D03*
X95543500Y-86563500D03*
X92940000Y-86563500D03*
X90400000Y-86500000D03*
X87923500Y-86500000D03*
X85320000Y-86500000D03*
X82780000Y-86500000D03*
X80240000Y-86500000D03*
X77700000Y-86500000D03*
X75160000Y-86500000D03*
X72620000Y-86500000D03*
X70080000Y-86500000D03*
X67476500Y-86563500D03*
X65000000Y-86500000D03*
X62460000Y-86436500D03*
X59920000Y-86500000D03*
X57380000Y-86500000D03*
X54840000Y-86500000D03*
X52300000Y-86500000D03*
X49823500Y-86500000D03*
X47156500Y-86563500D03*
X44616500Y-86500000D03*
X44680000Y-91350000D03*
X105640000Y-91350000D03*
X44840000Y-61250000D03*
X47380000Y-61250000D03*
X49920000Y-61250000D03*
X52460000Y-61250000D03*
X55000000Y-61250000D03*
X57540000Y-61250000D03*
X60080000Y-61250000D03*
X62620000Y-61250000D03*
X65160000Y-61250000D03*
X67700000Y-61250000D03*
X70240000Y-61250000D03*
X72780000Y-61250000D03*
X75320000Y-61250000D03*
X77860000Y-61250000D03*
X80400000Y-61250000D03*
X82940000Y-61250000D03*
X85480000Y-61250000D03*
X88020000Y-61250000D03*
X90560000Y-61250000D03*
X93100000Y-61250000D03*
X95640000Y-61250000D03*
X98180000Y-61250000D03*
X100720000Y-61250000D03*
X103260000Y-61250000D03*
X105800000Y-56400000D03*
X103196500Y-56400000D03*
X100720000Y-56463500D03*
X98180000Y-56463500D03*
X95703500Y-56463500D03*
X93100000Y-56463500D03*
X90560000Y-56400000D03*
X88083500Y-56400000D03*
X85480000Y-56400000D03*
X82940000Y-56400000D03*
X80400000Y-56400000D03*
X77860000Y-56400000D03*
X75320000Y-56400000D03*
X72780000Y-56400000D03*
X70240000Y-56400000D03*
X67636500Y-56463500D03*
X65160000Y-56400000D03*
X62620000Y-56336500D03*
X60080000Y-56400000D03*
X57540000Y-56400000D03*
X55000000Y-56400000D03*
X52460000Y-56400000D03*
X49983500Y-56400000D03*
X47316500Y-56463500D03*
X44776500Y-56400000D03*
X44840000Y-61250000D03*
X105800000Y-61250000D03*
X44800000Y-28850000D03*
X47340000Y-28850000D03*
X49880000Y-28850000D03*
X52420000Y-28850000D03*
X54960000Y-28850000D03*
X57500000Y-28850000D03*
X60040000Y-28850000D03*
X62580000Y-28850000D03*
X65120000Y-28850000D03*
X67660000Y-28850000D03*
X70200000Y-28850000D03*
X72740000Y-28850000D03*
X75280000Y-28850000D03*
X77820000Y-28850000D03*
X80360000Y-28850000D03*
X82900000Y-28850000D03*
X85440000Y-28850000D03*
X87980000Y-28850000D03*
X90520000Y-28850000D03*
X93060000Y-28850000D03*
X95600000Y-28850000D03*
X98140000Y-28850000D03*
X100680000Y-28850000D03*
X103220000Y-28850000D03*
X105760000Y-24000000D03*
X103156500Y-24000000D03*
X100680000Y-24063500D03*
X98140000Y-24063500D03*
X95663500Y-24063500D03*
X93060000Y-24063500D03*
X90520000Y-24000000D03*
X88043500Y-24000000D03*
X85440000Y-24000000D03*
X82900000Y-24000000D03*
X80360000Y-24000000D03*
X77820000Y-24000000D03*
X75280000Y-24000000D03*
X72740000Y-24000000D03*
X70200000Y-24000000D03*
X67596500Y-24063500D03*
X65120000Y-24000000D03*
X62580000Y-23936500D03*
X60040000Y-24000000D03*
X57500000Y-24000000D03*
X54960000Y-24000000D03*
X52420000Y-24000000D03*
X49943500Y-24000000D03*
X47276500Y-24063500D03*
X44736500Y-24000000D03*
X44800000Y-28850000D03*
X105760000Y-28850000D03*
D12*
X67000000Y-104600000D03*
D13*
X74500000Y-104600000D03*
D12*
X67140000Y-42410000D03*
D13*
X74640000Y-42410000D03*
D12*
X67000000Y-72600000D03*
D13*
X74500000Y-72600000D03*
D14*
X90300360Y-139149100D03*
X94699640Y-139149100D03*
D15*
X49000000Y-137500000D03*
X52500000Y-137500000D03*
X56000000Y-137500000D03*
X59500000Y-137500000D03*
D16*
X37500000Y-132460000D03*
D17*
X37500000Y-137540000D03*
D18*
X71499900Y-134629900D03*
X74000000Y-134629900D03*
X76000000Y-134629900D03*
X78500100Y-134629900D03*
D19*
X68429900Y-137339900D03*
X81570100Y-137339900D03*
D20*
X66200000Y-125000000D03*
D21*
X70000000Y-125000000D03*
D22*
X35040000Y-44640000D03*
D23*
X32500000Y-44640000D03*
X35040000Y-42100000D03*
X32500000Y-42100000D03*
X35040000Y-39560000D03*
X32500000Y-39560000D03*
D22*
X35040000Y-76180000D03*
D23*
X32500000Y-76180000D03*
X35040000Y-73640000D03*
X32500000Y-73640000D03*
X35040000Y-71100000D03*
X32500000Y-71100000D03*
D22*
X35040000Y-107580000D03*
D23*
X32500000Y-107580000D03*
X35040000Y-105040000D03*
X32500000Y-105040000D03*
X35040000Y-102500000D03*
X32500000Y-102500000D03*
D24*
X36500000Y-115930000D03*
X49000000Y-123430000D03*
D25*
X32500000Y-32131000D03*
D24*
X32500000Y-27931000D03*
X32500000Y-23731000D03*
X32500000Y-19531000D03*
X38000000Y-32131000D03*
X38000000Y-27931000D03*
X38000000Y-23731000D03*
X38000000Y-19531000D03*
D25*
X32500000Y-63800000D03*
D24*
X32500000Y-59600000D03*
X32500000Y-55400000D03*
X32500000Y-51200000D03*
X38000000Y-63800000D03*
X38000000Y-59600000D03*
X38000000Y-55400000D03*
X38000000Y-51200000D03*
D25*
X32500000Y-95100000D03*
D24*
X32500000Y-90900000D03*
X32500000Y-86700000D03*
X32500000Y-82500000D03*
X38000000Y-95100000D03*
X38000000Y-90900000D03*
X38000000Y-86700000D03*
X38000000Y-82500000D03*
D22*
X30060000Y-35980000D03*
D23*
X32600000Y-35980000D03*
D22*
X30250000Y-68100000D03*
D23*
X30250000Y-70640000D03*
D22*
X29700000Y-101330000D03*
D23*
X29700000Y-98790000D03*
M02*
