G04 #@! TF.FileFunction,Legend,Bot*
%FSLAX46Y46*%
G04 Gerber Fmt 4.6, Leading zero omitted, Abs format (unit mm)*
G04 Created by KiCad (PCBNEW 4.0.4-stable) date 05/10/17 14:11:39*
%MOMM*%
%LPD*%
G01*
G04 APERTURE LIST*
%ADD10C,0.100000*%
%ADD11C,0.190500*%
%ADD12C,0.120000*%
%ADD13C,0.010000*%
%ADD14C,0.150000*%
G04 APERTURE END LIST*
D10*
D11*
X74060000Y-118377000D02*
X73697143Y-118377000D01*
X74132572Y-118594714D02*
X73878572Y-117832714D01*
X73624572Y-118594714D01*
X73044000Y-118086714D02*
X73044000Y-118594714D01*
X73370571Y-118086714D02*
X73370571Y-118485857D01*
X73334286Y-118558429D01*
X73261714Y-118594714D01*
X73152857Y-118594714D01*
X73080286Y-118558429D01*
X73044000Y-118522143D01*
X72717428Y-118558429D02*
X72644857Y-118594714D01*
X72499714Y-118594714D01*
X72427142Y-118558429D01*
X72390857Y-118485857D01*
X72390857Y-118449571D01*
X72427142Y-118377000D01*
X72499714Y-118340714D01*
X72608571Y-118340714D01*
X72681142Y-118304429D01*
X72717428Y-118231857D01*
X72717428Y-118195571D01*
X72681142Y-118123000D01*
X72608571Y-118086714D01*
X72499714Y-118086714D01*
X72427142Y-118123000D01*
X72173143Y-118086714D02*
X71882857Y-118086714D01*
X72064285Y-117832714D02*
X72064285Y-118485857D01*
X72028000Y-118558429D01*
X71955428Y-118594714D01*
X71882857Y-118594714D01*
X71628856Y-118594714D02*
X71628856Y-118086714D01*
X71628856Y-117832714D02*
X71665142Y-117869000D01*
X71628856Y-117905286D01*
X71592571Y-117869000D01*
X71628856Y-117832714D01*
X71628856Y-117905286D01*
X71265999Y-118086714D02*
X71265999Y-118594714D01*
X71265999Y-118159286D02*
X71229714Y-118123000D01*
X71157142Y-118086714D01*
X71048285Y-118086714D01*
X70975714Y-118123000D01*
X70939428Y-118195571D01*
X70939428Y-118594714D01*
X70032285Y-118558429D02*
X69923428Y-118594714D01*
X69741999Y-118594714D01*
X69669428Y-118558429D01*
X69633142Y-118522143D01*
X69596857Y-118449571D01*
X69596857Y-118377000D01*
X69633142Y-118304429D01*
X69669428Y-118268143D01*
X69741999Y-118231857D01*
X69887142Y-118195571D01*
X69959714Y-118159286D01*
X69995999Y-118123000D01*
X70032285Y-118050429D01*
X70032285Y-117977857D01*
X69995999Y-117905286D01*
X69959714Y-117869000D01*
X69887142Y-117832714D01*
X69705714Y-117832714D01*
X69596857Y-117869000D01*
X69270285Y-118594714D02*
X69270285Y-117832714D01*
X68943714Y-118594714D02*
X68943714Y-118195571D01*
X68980000Y-118123000D01*
X69052571Y-118086714D01*
X69161428Y-118086714D01*
X69234000Y-118123000D01*
X69270285Y-118159286D01*
X68580856Y-118594714D02*
X68580856Y-118086714D01*
X68580856Y-117832714D02*
X68617142Y-117869000D01*
X68580856Y-117905286D01*
X68544571Y-117869000D01*
X68580856Y-117832714D01*
X68580856Y-117905286D01*
X68217999Y-118594714D02*
X68217999Y-118086714D01*
X68217999Y-118231857D02*
X68181714Y-118159286D01*
X68145428Y-118123000D01*
X68072857Y-118086714D01*
X68000285Y-118086714D01*
X67637428Y-118594714D02*
X67710000Y-118558429D01*
X67746285Y-118485857D01*
X67746285Y-117832714D01*
X67056857Y-118558429D02*
X67129428Y-118594714D01*
X67274571Y-118594714D01*
X67347142Y-118558429D01*
X67383428Y-118485857D01*
X67383428Y-118195571D01*
X67347142Y-118123000D01*
X67274571Y-118086714D01*
X67129428Y-118086714D01*
X67056857Y-118123000D01*
X67020571Y-118195571D01*
X67020571Y-118268143D01*
X67383428Y-118340714D01*
X66766571Y-118086714D02*
X66585142Y-118594714D01*
X66403714Y-118086714D02*
X66585142Y-118594714D01*
X66657714Y-118776143D01*
X66693999Y-118812429D01*
X66766571Y-118848714D01*
D12*
X77540000Y-93540000D02*
X77540000Y-83380000D01*
X78810000Y-93540000D02*
X71190000Y-93540000D01*
X71190000Y-93540000D02*
X71190000Y-83380000D01*
X71190000Y-83380000D02*
X78810000Y-83380000D01*
X78810000Y-83380000D02*
X78810000Y-93540000D01*
X77540000Y-75340000D02*
X77540000Y-65180000D01*
X78810000Y-75340000D02*
X71190000Y-75340000D01*
X71190000Y-75340000D02*
X71190000Y-65180000D01*
X71190000Y-65180000D02*
X78810000Y-65180000D01*
X78810000Y-65180000D02*
X78810000Y-75340000D01*
X77540000Y-111740000D02*
X77540000Y-101580000D01*
X78810000Y-111740000D02*
X71190000Y-111740000D01*
X71190000Y-111740000D02*
X71190000Y-101580000D01*
X71190000Y-101580000D02*
X78810000Y-101580000D01*
X78810000Y-101580000D02*
X78810000Y-111740000D01*
D13*
G36*
X72974019Y-119457260D02*
X72908358Y-119498724D01*
X72851688Y-119574857D01*
X72807873Y-119683129D01*
X72805230Y-119692413D01*
X72773336Y-119806703D01*
X72749511Y-119886881D01*
X72730460Y-119939611D01*
X72712888Y-119971560D01*
X72693500Y-119989396D01*
X72669001Y-119999783D01*
X72650654Y-120005163D01*
X72617327Y-120012815D01*
X72589276Y-120010494D01*
X72558463Y-119993273D01*
X72516847Y-119956224D01*
X72456393Y-119894419D01*
X72437195Y-119874314D01*
X72334549Y-119774922D01*
X72248582Y-119711256D01*
X72175545Y-119681962D01*
X72111691Y-119685686D01*
X72053272Y-119721074D01*
X72042121Y-119731621D01*
X72009226Y-119776762D01*
X71992907Y-119834364D01*
X71993068Y-119911346D01*
X72009611Y-120014628D01*
X72036541Y-120128496D01*
X72084020Y-120312743D01*
X72035656Y-120364224D01*
X71987291Y-120415706D01*
X71803669Y-120365186D01*
X71710197Y-120341964D01*
X71622128Y-120324372D01*
X71554559Y-120315299D01*
X71539561Y-120314667D01*
X71455290Y-120332411D01*
X71393842Y-120379751D01*
X71360673Y-120447850D01*
X71361234Y-120527870D01*
X71378698Y-120575350D01*
X71403415Y-120610207D01*
X71450316Y-120665569D01*
X71511413Y-120732241D01*
X71547600Y-120769813D01*
X71614480Y-120839275D01*
X71655856Y-120887300D01*
X71676608Y-120921924D01*
X71681620Y-120951182D01*
X71676209Y-120981480D01*
X71663326Y-121012374D01*
X71638669Y-121038288D01*
X71595991Y-121062141D01*
X71529046Y-121086858D01*
X71431586Y-121115361D01*
X71335947Y-121140660D01*
X71250290Y-121175934D01*
X71179970Y-121229223D01*
X71134477Y-121291616D01*
X71122333Y-121341250D01*
X71142456Y-121408051D01*
X71198668Y-121470311D01*
X71284732Y-121522654D01*
X71367912Y-121552954D01*
X71482344Y-121585299D01*
X71562554Y-121609929D01*
X71615213Y-121630079D01*
X71646992Y-121648979D01*
X71664563Y-121669861D01*
X71674598Y-121695957D01*
X71676365Y-121702374D01*
X71681713Y-121734658D01*
X71675077Y-121764882D01*
X71651445Y-121801567D01*
X71605803Y-121853228D01*
X71558839Y-121902078D01*
X71463088Y-122004826D01*
X71398346Y-122086899D01*
X71362429Y-122153898D01*
X71353155Y-122211425D01*
X71368341Y-122265079D01*
X71399036Y-122312062D01*
X71439904Y-122347469D01*
X71496941Y-122365475D01*
X71575980Y-122366212D01*
X71682857Y-122349812D01*
X71804847Y-122321238D01*
X71989943Y-122273536D01*
X72037204Y-122320796D01*
X72084464Y-122368057D01*
X72036762Y-122553153D01*
X72005360Y-122689419D01*
X71990979Y-122792701D01*
X71993751Y-122868835D01*
X72013807Y-122923656D01*
X72045938Y-122958964D01*
X72100525Y-122993241D01*
X72154192Y-123005064D01*
X72212570Y-122992251D01*
X72281290Y-122952619D01*
X72365985Y-122883989D01*
X72455833Y-122800166D01*
X72524299Y-122735887D01*
X72572248Y-122697360D01*
X72608089Y-122679430D01*
X72640228Y-122676938D01*
X72653353Y-122678993D01*
X72685035Y-122688209D01*
X72709554Y-122706016D01*
X72730538Y-122739438D01*
X72751613Y-122795503D01*
X72776407Y-122881236D01*
X72796001Y-122955299D01*
X72824343Y-123052536D01*
X72852106Y-123118542D01*
X72884392Y-123164035D01*
X72904300Y-123182840D01*
X72978817Y-123226830D01*
X73049565Y-123228855D01*
X73118898Y-123188841D01*
X73133078Y-123175512D01*
X73177132Y-123115374D01*
X73211655Y-123040902D01*
X73217340Y-123022053D01*
X73250535Y-122897937D01*
X73277779Y-122808968D01*
X73301993Y-122748897D01*
X73326099Y-122711478D01*
X73353020Y-122690465D01*
X73376520Y-122681791D01*
X73408151Y-122676335D01*
X73437479Y-122681960D01*
X73472540Y-122703548D01*
X73521369Y-122745981D01*
X73588187Y-122810400D01*
X73657147Y-122875853D01*
X73719774Y-122931433D01*
X73766875Y-122969153D01*
X73782650Y-122979302D01*
X73865508Y-123001494D01*
X73941474Y-122986851D01*
X74001711Y-122940827D01*
X74037381Y-122868875D01*
X74043333Y-122818439D01*
X74037643Y-122760759D01*
X74022497Y-122677683D01*
X74000784Y-122584308D01*
X73992814Y-122554331D01*
X73942294Y-122370709D01*
X73993776Y-122322344D01*
X74045257Y-122273980D01*
X74229504Y-122321459D01*
X74360635Y-122351876D01*
X74459576Y-122365994D01*
X74533244Y-122363715D01*
X74588559Y-122344941D01*
X74626379Y-122315879D01*
X74667823Y-122258086D01*
X74677869Y-122195594D01*
X74655162Y-122124656D01*
X74598349Y-122041522D01*
X74506077Y-121942446D01*
X74483686Y-121920805D01*
X74414851Y-121854322D01*
X74372017Y-121808709D01*
X74350254Y-121775927D01*
X74344635Y-121747937D01*
X74350234Y-121716701D01*
X74352837Y-121707346D01*
X74361956Y-121678245D01*
X74374557Y-121656214D01*
X74397308Y-121637959D01*
X74436874Y-121620185D01*
X74499922Y-121599597D01*
X74593118Y-121572899D01*
X74665587Y-121552770D01*
X74776153Y-121510067D01*
X74854768Y-121454222D01*
X74898902Y-121389097D01*
X74906028Y-121318557D01*
X74889650Y-121282123D01*
X73574895Y-121282123D01*
X73574506Y-121379053D01*
X73566442Y-121473552D01*
X73550309Y-121543856D01*
X73521137Y-121607991D01*
X73502834Y-121638990D01*
X73410405Y-121751732D01*
X73292825Y-121838452D01*
X73159304Y-121894476D01*
X73019052Y-121915131D01*
X72963833Y-121912518D01*
X72890260Y-121896654D01*
X72804195Y-121866875D01*
X72753076Y-121843849D01*
X72633021Y-121761283D01*
X72539102Y-121652439D01*
X72475311Y-121525224D01*
X72445637Y-121387546D01*
X72453461Y-121250313D01*
X72503188Y-121094135D01*
X72582498Y-120967391D01*
X72689187Y-120871904D01*
X72821048Y-120809500D01*
X72975874Y-120782001D01*
X73021362Y-120780798D01*
X73163817Y-120794408D01*
X73283129Y-120837340D01*
X73390583Y-120914281D01*
X73426486Y-120949089D01*
X73506705Y-121049400D01*
X73554915Y-121156750D01*
X73574895Y-121282123D01*
X74889650Y-121282123D01*
X74873618Y-121246463D01*
X74869551Y-121241136D01*
X74840475Y-121209722D01*
X74803508Y-121183809D01*
X74750708Y-121159955D01*
X74674132Y-121134714D01*
X74565837Y-121104642D01*
X74537765Y-121097245D01*
X74453253Y-121074127D01*
X74401070Y-121055544D01*
X74372361Y-121036222D01*
X74358275Y-121010887D01*
X74352383Y-120986793D01*
X74349019Y-120954033D01*
X74356740Y-120922975D01*
X74380502Y-120885612D01*
X74425259Y-120833936D01*
X74487111Y-120769062D01*
X74583084Y-120663063D01*
X74645226Y-120576054D01*
X74675037Y-120503701D01*
X74674017Y-120441671D01*
X74643664Y-120385632D01*
X74626379Y-120366621D01*
X74580530Y-120333458D01*
X74522017Y-120317532D01*
X74444010Y-120318816D01*
X74339678Y-120337282D01*
X74230596Y-120364976D01*
X74047739Y-120415285D01*
X73942715Y-120310261D01*
X73993024Y-120127404D01*
X74016198Y-120034071D01*
X74033731Y-119946113D01*
X74042729Y-119878690D01*
X74043333Y-119864062D01*
X74025791Y-119780252D01*
X73979251Y-119719186D01*
X73912841Y-119685816D01*
X73835688Y-119685095D01*
X73767585Y-119714445D01*
X73728847Y-119744855D01*
X73670549Y-119796048D01*
X73603024Y-119858836D01*
X73576781Y-119884130D01*
X73509273Y-119948337D01*
X73462366Y-119987146D01*
X73427367Y-120005722D01*
X73395586Y-120009233D01*
X73372102Y-120005796D01*
X73339040Y-119996692D01*
X73315894Y-119979393D01*
X73297347Y-119945037D01*
X73278083Y-119884763D01*
X73260755Y-119820235D01*
X73229201Y-119704116D01*
X73203215Y-119621417D01*
X73179354Y-119564195D01*
X73154172Y-119524506D01*
X73124225Y-119494409D01*
X73116864Y-119488449D01*
X73044809Y-119452992D01*
X72974019Y-119457260D01*
X72974019Y-119457260D01*
G37*
X72974019Y-119457260D02*
X72908358Y-119498724D01*
X72851688Y-119574857D01*
X72807873Y-119683129D01*
X72805230Y-119692413D01*
X72773336Y-119806703D01*
X72749511Y-119886881D01*
X72730460Y-119939611D01*
X72712888Y-119971560D01*
X72693500Y-119989396D01*
X72669001Y-119999783D01*
X72650654Y-120005163D01*
X72617327Y-120012815D01*
X72589276Y-120010494D01*
X72558463Y-119993273D01*
X72516847Y-119956224D01*
X72456393Y-119894419D01*
X72437195Y-119874314D01*
X72334549Y-119774922D01*
X72248582Y-119711256D01*
X72175545Y-119681962D01*
X72111691Y-119685686D01*
X72053272Y-119721074D01*
X72042121Y-119731621D01*
X72009226Y-119776762D01*
X71992907Y-119834364D01*
X71993068Y-119911346D01*
X72009611Y-120014628D01*
X72036541Y-120128496D01*
X72084020Y-120312743D01*
X72035656Y-120364224D01*
X71987291Y-120415706D01*
X71803669Y-120365186D01*
X71710197Y-120341964D01*
X71622128Y-120324372D01*
X71554559Y-120315299D01*
X71539561Y-120314667D01*
X71455290Y-120332411D01*
X71393842Y-120379751D01*
X71360673Y-120447850D01*
X71361234Y-120527870D01*
X71378698Y-120575350D01*
X71403415Y-120610207D01*
X71450316Y-120665569D01*
X71511413Y-120732241D01*
X71547600Y-120769813D01*
X71614480Y-120839275D01*
X71655856Y-120887300D01*
X71676608Y-120921924D01*
X71681620Y-120951182D01*
X71676209Y-120981480D01*
X71663326Y-121012374D01*
X71638669Y-121038288D01*
X71595991Y-121062141D01*
X71529046Y-121086858D01*
X71431586Y-121115361D01*
X71335947Y-121140660D01*
X71250290Y-121175934D01*
X71179970Y-121229223D01*
X71134477Y-121291616D01*
X71122333Y-121341250D01*
X71142456Y-121408051D01*
X71198668Y-121470311D01*
X71284732Y-121522654D01*
X71367912Y-121552954D01*
X71482344Y-121585299D01*
X71562554Y-121609929D01*
X71615213Y-121630079D01*
X71646992Y-121648979D01*
X71664563Y-121669861D01*
X71674598Y-121695957D01*
X71676365Y-121702374D01*
X71681713Y-121734658D01*
X71675077Y-121764882D01*
X71651445Y-121801567D01*
X71605803Y-121853228D01*
X71558839Y-121902078D01*
X71463088Y-122004826D01*
X71398346Y-122086899D01*
X71362429Y-122153898D01*
X71353155Y-122211425D01*
X71368341Y-122265079D01*
X71399036Y-122312062D01*
X71439904Y-122347469D01*
X71496941Y-122365475D01*
X71575980Y-122366212D01*
X71682857Y-122349812D01*
X71804847Y-122321238D01*
X71989943Y-122273536D01*
X72037204Y-122320796D01*
X72084464Y-122368057D01*
X72036762Y-122553153D01*
X72005360Y-122689419D01*
X71990979Y-122792701D01*
X71993751Y-122868835D01*
X72013807Y-122923656D01*
X72045938Y-122958964D01*
X72100525Y-122993241D01*
X72154192Y-123005064D01*
X72212570Y-122992251D01*
X72281290Y-122952619D01*
X72365985Y-122883989D01*
X72455833Y-122800166D01*
X72524299Y-122735887D01*
X72572248Y-122697360D01*
X72608089Y-122679430D01*
X72640228Y-122676938D01*
X72653353Y-122678993D01*
X72685035Y-122688209D01*
X72709554Y-122706016D01*
X72730538Y-122739438D01*
X72751613Y-122795503D01*
X72776407Y-122881236D01*
X72796001Y-122955299D01*
X72824343Y-123052536D01*
X72852106Y-123118542D01*
X72884392Y-123164035D01*
X72904300Y-123182840D01*
X72978817Y-123226830D01*
X73049565Y-123228855D01*
X73118898Y-123188841D01*
X73133078Y-123175512D01*
X73177132Y-123115374D01*
X73211655Y-123040902D01*
X73217340Y-123022053D01*
X73250535Y-122897937D01*
X73277779Y-122808968D01*
X73301993Y-122748897D01*
X73326099Y-122711478D01*
X73353020Y-122690465D01*
X73376520Y-122681791D01*
X73408151Y-122676335D01*
X73437479Y-122681960D01*
X73472540Y-122703548D01*
X73521369Y-122745981D01*
X73588187Y-122810400D01*
X73657147Y-122875853D01*
X73719774Y-122931433D01*
X73766875Y-122969153D01*
X73782650Y-122979302D01*
X73865508Y-123001494D01*
X73941474Y-122986851D01*
X74001711Y-122940827D01*
X74037381Y-122868875D01*
X74043333Y-122818439D01*
X74037643Y-122760759D01*
X74022497Y-122677683D01*
X74000784Y-122584308D01*
X73992814Y-122554331D01*
X73942294Y-122370709D01*
X73993776Y-122322344D01*
X74045257Y-122273980D01*
X74229504Y-122321459D01*
X74360635Y-122351876D01*
X74459576Y-122365994D01*
X74533244Y-122363715D01*
X74588559Y-122344941D01*
X74626379Y-122315879D01*
X74667823Y-122258086D01*
X74677869Y-122195594D01*
X74655162Y-122124656D01*
X74598349Y-122041522D01*
X74506077Y-121942446D01*
X74483686Y-121920805D01*
X74414851Y-121854322D01*
X74372017Y-121808709D01*
X74350254Y-121775927D01*
X74344635Y-121747937D01*
X74350234Y-121716701D01*
X74352837Y-121707346D01*
X74361956Y-121678245D01*
X74374557Y-121656214D01*
X74397308Y-121637959D01*
X74436874Y-121620185D01*
X74499922Y-121599597D01*
X74593118Y-121572899D01*
X74665587Y-121552770D01*
X74776153Y-121510067D01*
X74854768Y-121454222D01*
X74898902Y-121389097D01*
X74906028Y-121318557D01*
X74889650Y-121282123D01*
X73574895Y-121282123D01*
X73574506Y-121379053D01*
X73566442Y-121473552D01*
X73550309Y-121543856D01*
X73521137Y-121607991D01*
X73502834Y-121638990D01*
X73410405Y-121751732D01*
X73292825Y-121838452D01*
X73159304Y-121894476D01*
X73019052Y-121915131D01*
X72963833Y-121912518D01*
X72890260Y-121896654D01*
X72804195Y-121866875D01*
X72753076Y-121843849D01*
X72633021Y-121761283D01*
X72539102Y-121652439D01*
X72475311Y-121525224D01*
X72445637Y-121387546D01*
X72453461Y-121250313D01*
X72503188Y-121094135D01*
X72582498Y-120967391D01*
X72689187Y-120871904D01*
X72821048Y-120809500D01*
X72975874Y-120782001D01*
X73021362Y-120780798D01*
X73163817Y-120794408D01*
X73283129Y-120837340D01*
X73390583Y-120914281D01*
X73426486Y-120949089D01*
X73506705Y-121049400D01*
X73554915Y-121156750D01*
X73574895Y-121282123D01*
X74889650Y-121282123D01*
X74873618Y-121246463D01*
X74869551Y-121241136D01*
X74840475Y-121209722D01*
X74803508Y-121183809D01*
X74750708Y-121159955D01*
X74674132Y-121134714D01*
X74565837Y-121104642D01*
X74537765Y-121097245D01*
X74453253Y-121074127D01*
X74401070Y-121055544D01*
X74372361Y-121036222D01*
X74358275Y-121010887D01*
X74352383Y-120986793D01*
X74349019Y-120954033D01*
X74356740Y-120922975D01*
X74380502Y-120885612D01*
X74425259Y-120833936D01*
X74487111Y-120769062D01*
X74583084Y-120663063D01*
X74645226Y-120576054D01*
X74675037Y-120503701D01*
X74674017Y-120441671D01*
X74643664Y-120385632D01*
X74626379Y-120366621D01*
X74580530Y-120333458D01*
X74522017Y-120317532D01*
X74444010Y-120318816D01*
X74339678Y-120337282D01*
X74230596Y-120364976D01*
X74047739Y-120415285D01*
X73942715Y-120310261D01*
X73993024Y-120127404D01*
X74016198Y-120034071D01*
X74033731Y-119946113D01*
X74042729Y-119878690D01*
X74043333Y-119864062D01*
X74025791Y-119780252D01*
X73979251Y-119719186D01*
X73912841Y-119685816D01*
X73835688Y-119685095D01*
X73767585Y-119714445D01*
X73728847Y-119744855D01*
X73670549Y-119796048D01*
X73603024Y-119858836D01*
X73576781Y-119884130D01*
X73509273Y-119948337D01*
X73462366Y-119987146D01*
X73427367Y-120005722D01*
X73395586Y-120009233D01*
X73372102Y-120005796D01*
X73339040Y-119996692D01*
X73315894Y-119979393D01*
X73297347Y-119945037D01*
X73278083Y-119884763D01*
X73260755Y-119820235D01*
X73229201Y-119704116D01*
X73203215Y-119621417D01*
X73179354Y-119564195D01*
X73154172Y-119524506D01*
X73124225Y-119494409D01*
X73116864Y-119488449D01*
X73044809Y-119452992D01*
X72974019Y-119457260D01*
G36*
X69548451Y-119652561D02*
X69443289Y-119667363D01*
X69415086Y-119674663D01*
X69274330Y-119735095D01*
X69153304Y-119825729D01*
X69051116Y-119948189D01*
X68966873Y-120104095D01*
X68899681Y-120295071D01*
X68848647Y-120522737D01*
X68815468Y-120763415D01*
X68807451Y-120868516D01*
X68801425Y-121006519D01*
X68797387Y-121168190D01*
X68795334Y-121344293D01*
X68795262Y-121525594D01*
X68797167Y-121702858D01*
X68801046Y-121866849D01*
X68806897Y-122008333D01*
X68814714Y-122118075D01*
X68815982Y-122130543D01*
X68855809Y-122395088D01*
X68914667Y-122622132D01*
X68992515Y-122811591D01*
X69089309Y-122963384D01*
X69205004Y-123077428D01*
X69339558Y-123153640D01*
X69360331Y-123161439D01*
X69469432Y-123188244D01*
X69601766Y-123203381D01*
X69740089Y-123206236D01*
X69867156Y-123196192D01*
X69937000Y-123182053D01*
X70093444Y-123117176D01*
X70230143Y-123016624D01*
X70344005Y-122883643D01*
X70431941Y-122721477D01*
X70466614Y-122625984D01*
X70516644Y-122429134D01*
X70555660Y-122203188D01*
X70583728Y-121955420D01*
X70600916Y-121693105D01*
X70607288Y-121423518D01*
X70606356Y-121366090D01*
X70096118Y-121366090D01*
X70095612Y-121550540D01*
X70093631Y-121729677D01*
X70090178Y-121896699D01*
X70085251Y-122044803D01*
X70078852Y-122167185D01*
X70070983Y-122257043D01*
X70067978Y-122278936D01*
X70037930Y-122436254D01*
X70001946Y-122557052D01*
X69957099Y-122647035D01*
X69900463Y-122711908D01*
X69829111Y-122757378D01*
X69820583Y-122761287D01*
X69731655Y-122785782D01*
X69639892Y-122786981D01*
X69570483Y-122767414D01*
X69500840Y-122720540D01*
X69442214Y-122655342D01*
X69393907Y-122568772D01*
X69355221Y-122457780D01*
X69325461Y-122319316D01*
X69303929Y-122150331D01*
X69289928Y-121947775D01*
X69282760Y-121708600D01*
X69281451Y-121503049D01*
X69284947Y-121201433D01*
X69294591Y-120940347D01*
X69310554Y-120718410D01*
X69333005Y-120534243D01*
X69362114Y-120386467D01*
X69398052Y-120273701D01*
X69440988Y-120194566D01*
X69443033Y-120191845D01*
X69527598Y-120114006D01*
X69631959Y-120071319D01*
X69738636Y-120066204D01*
X69837048Y-120092446D01*
X69917163Y-120148617D01*
X69980947Y-120237479D01*
X70030369Y-120361792D01*
X70067394Y-120524317D01*
X70068160Y-120528788D01*
X70076513Y-120602253D01*
X70083388Y-120711223D01*
X70088785Y-120848894D01*
X70092706Y-121008464D01*
X70095150Y-121183131D01*
X70096118Y-121366090D01*
X70606356Y-121366090D01*
X70602911Y-121153933D01*
X70587851Y-120891625D01*
X70562175Y-120643870D01*
X70525947Y-120417942D01*
X70479235Y-120221116D01*
X70443794Y-120113584D01*
X70382288Y-119995446D01*
X70293160Y-119881881D01*
X70186939Y-119783490D01*
X70074155Y-119710875D01*
X70021666Y-119688593D01*
X69926094Y-119666002D01*
X69805162Y-119652232D01*
X69674178Y-119647635D01*
X69548451Y-119652561D01*
X69548451Y-119652561D01*
G37*
X69548451Y-119652561D02*
X69443289Y-119667363D01*
X69415086Y-119674663D01*
X69274330Y-119735095D01*
X69153304Y-119825729D01*
X69051116Y-119948189D01*
X68966873Y-120104095D01*
X68899681Y-120295071D01*
X68848647Y-120522737D01*
X68815468Y-120763415D01*
X68807451Y-120868516D01*
X68801425Y-121006519D01*
X68797387Y-121168190D01*
X68795334Y-121344293D01*
X68795262Y-121525594D01*
X68797167Y-121702858D01*
X68801046Y-121866849D01*
X68806897Y-122008333D01*
X68814714Y-122118075D01*
X68815982Y-122130543D01*
X68855809Y-122395088D01*
X68914667Y-122622132D01*
X68992515Y-122811591D01*
X69089309Y-122963384D01*
X69205004Y-123077428D01*
X69339558Y-123153640D01*
X69360331Y-123161439D01*
X69469432Y-123188244D01*
X69601766Y-123203381D01*
X69740089Y-123206236D01*
X69867156Y-123196192D01*
X69937000Y-123182053D01*
X70093444Y-123117176D01*
X70230143Y-123016624D01*
X70344005Y-122883643D01*
X70431941Y-122721477D01*
X70466614Y-122625984D01*
X70516644Y-122429134D01*
X70555660Y-122203188D01*
X70583728Y-121955420D01*
X70600916Y-121693105D01*
X70607288Y-121423518D01*
X70606356Y-121366090D01*
X70096118Y-121366090D01*
X70095612Y-121550540D01*
X70093631Y-121729677D01*
X70090178Y-121896699D01*
X70085251Y-122044803D01*
X70078852Y-122167185D01*
X70070983Y-122257043D01*
X70067978Y-122278936D01*
X70037930Y-122436254D01*
X70001946Y-122557052D01*
X69957099Y-122647035D01*
X69900463Y-122711908D01*
X69829111Y-122757378D01*
X69820583Y-122761287D01*
X69731655Y-122785782D01*
X69639892Y-122786981D01*
X69570483Y-122767414D01*
X69500840Y-122720540D01*
X69442214Y-122655342D01*
X69393907Y-122568772D01*
X69355221Y-122457780D01*
X69325461Y-122319316D01*
X69303929Y-122150331D01*
X69289928Y-121947775D01*
X69282760Y-121708600D01*
X69281451Y-121503049D01*
X69284947Y-121201433D01*
X69294591Y-120940347D01*
X69310554Y-120718410D01*
X69333005Y-120534243D01*
X69362114Y-120386467D01*
X69398052Y-120273701D01*
X69440988Y-120194566D01*
X69443033Y-120191845D01*
X69527598Y-120114006D01*
X69631959Y-120071319D01*
X69738636Y-120066204D01*
X69837048Y-120092446D01*
X69917163Y-120148617D01*
X69980947Y-120237479D01*
X70030369Y-120361792D01*
X70067394Y-120524317D01*
X70068160Y-120528788D01*
X70076513Y-120602253D01*
X70083388Y-120711223D01*
X70088785Y-120848894D01*
X70092706Y-121008464D01*
X70095150Y-121183131D01*
X70096118Y-121366090D01*
X70606356Y-121366090D01*
X70602911Y-121153933D01*
X70587851Y-120891625D01*
X70562175Y-120643870D01*
X70525947Y-120417942D01*
X70479235Y-120221116D01*
X70443794Y-120113584D01*
X70382288Y-119995446D01*
X70293160Y-119881881D01*
X70186939Y-119783490D01*
X70074155Y-119710875D01*
X70021666Y-119688593D01*
X69926094Y-119666002D01*
X69805162Y-119652232D01*
X69674178Y-119647635D01*
X69548451Y-119652561D01*
G36*
X67584996Y-119642023D02*
X67569038Y-119643093D01*
X67458677Y-119656239D01*
X67349999Y-119678356D01*
X67255069Y-119706274D01*
X67185951Y-119736826D01*
X67169458Y-119748062D01*
X67155464Y-119779528D01*
X67146771Y-119848238D01*
X67143143Y-119956338D01*
X67143000Y-119989013D01*
X67143000Y-120208509D01*
X67268460Y-120142745D01*
X67415043Y-120083348D01*
X67550387Y-120064749D01*
X67674559Y-120086951D01*
X67787626Y-120149955D01*
X67802716Y-120162152D01*
X67882193Y-120256256D01*
X67930674Y-120377337D01*
X67946868Y-120517883D01*
X67944314Y-120600195D01*
X67933888Y-120673759D01*
X67912399Y-120743947D01*
X67876655Y-120816126D01*
X67823467Y-120895665D01*
X67749642Y-120987935D01*
X67651990Y-121098302D01*
X67527320Y-121232138D01*
X67513988Y-121246233D01*
X67421186Y-121346517D01*
X67332158Y-121446813D01*
X67253820Y-121539029D01*
X67193090Y-121615075D01*
X67163602Y-121656104D01*
X67065056Y-121843944D01*
X67003897Y-122046988D01*
X66980679Y-122259574D01*
X66995956Y-122476037D01*
X67050282Y-122690715D01*
X67059824Y-122717084D01*
X67097711Y-122799841D01*
X67150389Y-122877696D01*
X67226958Y-122963605D01*
X67247790Y-122984749D01*
X67322338Y-123056303D01*
X67382719Y-123104296D01*
X67442235Y-123137382D01*
X67514185Y-123164216D01*
X67532414Y-123169958D01*
X67696569Y-123204137D01*
X67867635Y-123210822D01*
X68019068Y-123190927D01*
X68087064Y-123168868D01*
X68166723Y-123134680D01*
X68204276Y-123115605D01*
X68307166Y-123059606D01*
X68307166Y-122830136D01*
X68306220Y-122737306D01*
X68303657Y-122662489D01*
X68299889Y-122614291D01*
X68296163Y-122600667D01*
X68273185Y-122610987D01*
X68228008Y-122637032D01*
X68204699Y-122651458D01*
X68058665Y-122725404D01*
X67916412Y-122761844D01*
X67782179Y-122760147D01*
X67680293Y-122729506D01*
X67580287Y-122662537D01*
X67507186Y-122568588D01*
X67461443Y-122453731D01*
X67443510Y-122324035D01*
X67453839Y-122185572D01*
X67492883Y-122044413D01*
X67561095Y-121906628D01*
X67613384Y-121831692D01*
X67650849Y-121787195D01*
X67711318Y-121719259D01*
X67788394Y-121634903D01*
X67875678Y-121541144D01*
X67947205Y-121465502D01*
X68087797Y-121313291D01*
X68198479Y-121180964D01*
X68282315Y-121061852D01*
X68342368Y-120949290D01*
X68381700Y-120836608D01*
X68403373Y-120717140D01*
X68410450Y-120584218D01*
X68407632Y-120463098D01*
X68393886Y-120300057D01*
X68366910Y-120167924D01*
X68322603Y-120056272D01*
X68256863Y-119954669D01*
X68168905Y-119856022D01*
X68097426Y-119787440D01*
X68037996Y-119741812D01*
X67975452Y-119709663D01*
X67894633Y-119681517D01*
X67884937Y-119678550D01*
X67780827Y-119651384D01*
X67689243Y-119640150D01*
X67584996Y-119642023D01*
X67584996Y-119642023D01*
G37*
X67584996Y-119642023D02*
X67569038Y-119643093D01*
X67458677Y-119656239D01*
X67349999Y-119678356D01*
X67255069Y-119706274D01*
X67185951Y-119736826D01*
X67169458Y-119748062D01*
X67155464Y-119779528D01*
X67146771Y-119848238D01*
X67143143Y-119956338D01*
X67143000Y-119989013D01*
X67143000Y-120208509D01*
X67268460Y-120142745D01*
X67415043Y-120083348D01*
X67550387Y-120064749D01*
X67674559Y-120086951D01*
X67787626Y-120149955D01*
X67802716Y-120162152D01*
X67882193Y-120256256D01*
X67930674Y-120377337D01*
X67946868Y-120517883D01*
X67944314Y-120600195D01*
X67933888Y-120673759D01*
X67912399Y-120743947D01*
X67876655Y-120816126D01*
X67823467Y-120895665D01*
X67749642Y-120987935D01*
X67651990Y-121098302D01*
X67527320Y-121232138D01*
X67513988Y-121246233D01*
X67421186Y-121346517D01*
X67332158Y-121446813D01*
X67253820Y-121539029D01*
X67193090Y-121615075D01*
X67163602Y-121656104D01*
X67065056Y-121843944D01*
X67003897Y-122046988D01*
X66980679Y-122259574D01*
X66995956Y-122476037D01*
X67050282Y-122690715D01*
X67059824Y-122717084D01*
X67097711Y-122799841D01*
X67150389Y-122877696D01*
X67226958Y-122963605D01*
X67247790Y-122984749D01*
X67322338Y-123056303D01*
X67382719Y-123104296D01*
X67442235Y-123137382D01*
X67514185Y-123164216D01*
X67532414Y-123169958D01*
X67696569Y-123204137D01*
X67867635Y-123210822D01*
X68019068Y-123190927D01*
X68087064Y-123168868D01*
X68166723Y-123134680D01*
X68204276Y-123115605D01*
X68307166Y-123059606D01*
X68307166Y-122830136D01*
X68306220Y-122737306D01*
X68303657Y-122662489D01*
X68299889Y-122614291D01*
X68296163Y-122600667D01*
X68273185Y-122610987D01*
X68228008Y-122637032D01*
X68204699Y-122651458D01*
X68058665Y-122725404D01*
X67916412Y-122761844D01*
X67782179Y-122760147D01*
X67680293Y-122729506D01*
X67580287Y-122662537D01*
X67507186Y-122568588D01*
X67461443Y-122453731D01*
X67443510Y-122324035D01*
X67453839Y-122185572D01*
X67492883Y-122044413D01*
X67561095Y-121906628D01*
X67613384Y-121831692D01*
X67650849Y-121787195D01*
X67711318Y-121719259D01*
X67788394Y-121634903D01*
X67875678Y-121541144D01*
X67947205Y-121465502D01*
X68087797Y-121313291D01*
X68198479Y-121180964D01*
X68282315Y-121061852D01*
X68342368Y-120949290D01*
X68381700Y-120836608D01*
X68403373Y-120717140D01*
X68410450Y-120584218D01*
X68407632Y-120463098D01*
X68393886Y-120300057D01*
X68366910Y-120167924D01*
X68322603Y-120056272D01*
X68256863Y-119954669D01*
X68168905Y-119856022D01*
X68097426Y-119787440D01*
X68037996Y-119741812D01*
X67975452Y-119709663D01*
X67894633Y-119681517D01*
X67884937Y-119678550D01*
X67780827Y-119651384D01*
X67689243Y-119640150D01*
X67584996Y-119642023D01*
G36*
X61050732Y-120816702D02*
X60942478Y-120884981D01*
X60866334Y-120965545D01*
X60793000Y-121061588D01*
X60793000Y-120822667D01*
X60348500Y-120822667D01*
X60348500Y-123172167D01*
X60793000Y-123172167D01*
X60793643Y-123029292D01*
X60795172Y-122955814D01*
X60799703Y-122919605D01*
X60808416Y-122915642D01*
X60817307Y-122928750D01*
X60902002Y-123057692D01*
X60995408Y-123146808D01*
X61100493Y-123198211D01*
X61217724Y-123214035D01*
X61300277Y-123204038D01*
X61383127Y-123180002D01*
X61396250Y-123174371D01*
X61494451Y-123113322D01*
X61576522Y-123027217D01*
X61643203Y-122913673D01*
X61695237Y-122770307D01*
X61733367Y-122594739D01*
X61758333Y-122384584D01*
X61770879Y-122137461D01*
X61772746Y-121965667D01*
X61771142Y-121837372D01*
X61318536Y-121837372D01*
X61318142Y-121974944D01*
X61315605Y-122117558D01*
X61311115Y-122256957D01*
X61304860Y-122384883D01*
X61297033Y-122493075D01*
X61287821Y-122573277D01*
X61280278Y-122609582D01*
X61235444Y-122703873D01*
X61171695Y-122770718D01*
X61096248Y-122806746D01*
X61016316Y-122808591D01*
X60939114Y-122772881D01*
X60935894Y-122770396D01*
X60893087Y-122722874D01*
X60855187Y-122658851D01*
X60849256Y-122645174D01*
X60818513Y-122539163D01*
X60795749Y-122401011D01*
X60780973Y-122240157D01*
X60774196Y-122066037D01*
X60775427Y-121888087D01*
X60784678Y-121715745D01*
X60801957Y-121558447D01*
X60827276Y-121425630D01*
X60847880Y-121357353D01*
X60898702Y-121262850D01*
X60965919Y-121204895D01*
X61045875Y-121185225D01*
X61134913Y-121205577D01*
X61151030Y-121213318D01*
X61213197Y-121267872D01*
X61261777Y-121360690D01*
X61297219Y-121492719D01*
X61304953Y-121537499D01*
X61312131Y-121610391D01*
X61316595Y-121713102D01*
X61318536Y-121837372D01*
X61771142Y-121837372D01*
X61770259Y-121766792D01*
X61762789Y-121601775D01*
X61749254Y-121462322D01*
X61728572Y-121340138D01*
X61699659Y-121226928D01*
X61661758Y-121115257D01*
X61594969Y-120986920D01*
X61506036Y-120888484D01*
X61401053Y-120821098D01*
X61286112Y-120785907D01*
X61167307Y-120784060D01*
X61050732Y-120816702D01*
X61050732Y-120816702D01*
G37*
X61050732Y-120816702D02*
X60942478Y-120884981D01*
X60866334Y-120965545D01*
X60793000Y-121061588D01*
X60793000Y-120822667D01*
X60348500Y-120822667D01*
X60348500Y-123172167D01*
X60793000Y-123172167D01*
X60793643Y-123029292D01*
X60795172Y-122955814D01*
X60799703Y-122919605D01*
X60808416Y-122915642D01*
X60817307Y-122928750D01*
X60902002Y-123057692D01*
X60995408Y-123146808D01*
X61100493Y-123198211D01*
X61217724Y-123214035D01*
X61300277Y-123204038D01*
X61383127Y-123180002D01*
X61396250Y-123174371D01*
X61494451Y-123113322D01*
X61576522Y-123027217D01*
X61643203Y-122913673D01*
X61695237Y-122770307D01*
X61733367Y-122594739D01*
X61758333Y-122384584D01*
X61770879Y-122137461D01*
X61772746Y-121965667D01*
X61771142Y-121837372D01*
X61318536Y-121837372D01*
X61318142Y-121974944D01*
X61315605Y-122117558D01*
X61311115Y-122256957D01*
X61304860Y-122384883D01*
X61297033Y-122493075D01*
X61287821Y-122573277D01*
X61280278Y-122609582D01*
X61235444Y-122703873D01*
X61171695Y-122770718D01*
X61096248Y-122806746D01*
X61016316Y-122808591D01*
X60939114Y-122772881D01*
X60935894Y-122770396D01*
X60893087Y-122722874D01*
X60855187Y-122658851D01*
X60849256Y-122645174D01*
X60818513Y-122539163D01*
X60795749Y-122401011D01*
X60780973Y-122240157D01*
X60774196Y-122066037D01*
X60775427Y-121888087D01*
X60784678Y-121715745D01*
X60801957Y-121558447D01*
X60827276Y-121425630D01*
X60847880Y-121357353D01*
X60898702Y-121262850D01*
X60965919Y-121204895D01*
X61045875Y-121185225D01*
X61134913Y-121205577D01*
X61151030Y-121213318D01*
X61213197Y-121267872D01*
X61261777Y-121360690D01*
X61297219Y-121492719D01*
X61304953Y-121537499D01*
X61312131Y-121610391D01*
X61316595Y-121713102D01*
X61318536Y-121837372D01*
X61771142Y-121837372D01*
X61770259Y-121766792D01*
X61762789Y-121601775D01*
X61749254Y-121462322D01*
X61728572Y-121340138D01*
X61699659Y-121226928D01*
X61661758Y-121115257D01*
X61594969Y-120986920D01*
X61506036Y-120888484D01*
X61401053Y-120821098D01*
X61286112Y-120785907D01*
X61167307Y-120784060D01*
X61050732Y-120816702D01*
G36*
X66127000Y-121034334D02*
X65428500Y-121034334D01*
X65428500Y-119679667D01*
X64962833Y-119679667D01*
X64962833Y-123172167D01*
X65428500Y-123172167D01*
X65428500Y-121436500D01*
X66127000Y-121436500D01*
X66127000Y-123172167D01*
X66592666Y-123172167D01*
X66592666Y-119679667D01*
X66127000Y-119679667D01*
X66127000Y-121034334D01*
X66127000Y-121034334D01*
G37*
X66127000Y-121034334D02*
X65428500Y-121034334D01*
X65428500Y-119679667D01*
X64962833Y-119679667D01*
X64962833Y-123172167D01*
X65428500Y-123172167D01*
X65428500Y-121436500D01*
X66127000Y-121436500D01*
X66127000Y-123172167D01*
X66592666Y-123172167D01*
X66592666Y-119679667D01*
X66127000Y-119679667D01*
X66127000Y-121034334D01*
G36*
X62854407Y-119683919D02*
X62668013Y-119698060D01*
X62514185Y-119724165D01*
X62388403Y-119764311D01*
X62286146Y-119820574D01*
X62202893Y-119895029D01*
X62134126Y-119989752D01*
X62075323Y-120106820D01*
X62058456Y-120147860D01*
X62038101Y-120208763D01*
X62023610Y-120277672D01*
X62013652Y-120364430D01*
X62006895Y-120478876D01*
X62004366Y-120547500D01*
X62002225Y-120723920D01*
X62009296Y-120868609D01*
X62026978Y-120991442D01*
X62056671Y-121102295D01*
X62097729Y-121206510D01*
X62174289Y-121338321D01*
X62274987Y-121442876D01*
X62402976Y-121521994D01*
X62561410Y-121577492D01*
X62753440Y-121611186D01*
X62809125Y-121616588D01*
X62994333Y-121632007D01*
X62994333Y-123172167D01*
X63460000Y-123172167D01*
X63460000Y-121224834D01*
X62994333Y-121224834D01*
X62929623Y-121224834D01*
X62868051Y-121219494D01*
X62792420Y-121206140D01*
X62768457Y-121200546D01*
X62666157Y-121159949D01*
X62588501Y-121094084D01*
X62533835Y-120999837D01*
X62500507Y-120874091D01*
X62486863Y-120713732D01*
X62486333Y-120668969D01*
X62498936Y-120486542D01*
X62536782Y-120338064D01*
X62599929Y-120223459D01*
X62688433Y-120142651D01*
X62802353Y-120095563D01*
X62925541Y-120081952D01*
X62994333Y-120081834D01*
X62994333Y-121224834D01*
X63460000Y-121224834D01*
X63460000Y-119679667D01*
X63077887Y-119679667D01*
X62854407Y-119683919D01*
X62854407Y-119683919D01*
G37*
X62854407Y-119683919D02*
X62668013Y-119698060D01*
X62514185Y-119724165D01*
X62388403Y-119764311D01*
X62286146Y-119820574D01*
X62202893Y-119895029D01*
X62134126Y-119989752D01*
X62075323Y-120106820D01*
X62058456Y-120147860D01*
X62038101Y-120208763D01*
X62023610Y-120277672D01*
X62013652Y-120364430D01*
X62006895Y-120478876D01*
X62004366Y-120547500D01*
X62002225Y-120723920D01*
X62009296Y-120868609D01*
X62026978Y-120991442D01*
X62056671Y-121102295D01*
X62097729Y-121206510D01*
X62174289Y-121338321D01*
X62274987Y-121442876D01*
X62402976Y-121521994D01*
X62561410Y-121577492D01*
X62753440Y-121611186D01*
X62809125Y-121616588D01*
X62994333Y-121632007D01*
X62994333Y-123172167D01*
X63460000Y-123172167D01*
X63460000Y-121224834D01*
X62994333Y-121224834D01*
X62929623Y-121224834D01*
X62868051Y-121219494D01*
X62792420Y-121206140D01*
X62768457Y-121200546D01*
X62666157Y-121159949D01*
X62588501Y-121094084D01*
X62533835Y-120999837D01*
X62500507Y-120874091D01*
X62486863Y-120713732D01*
X62486333Y-120668969D01*
X62498936Y-120486542D01*
X62536782Y-120338064D01*
X62599929Y-120223459D01*
X62688433Y-120142651D01*
X62802353Y-120095563D01*
X62925541Y-120081952D01*
X62994333Y-120081834D01*
X62994333Y-121224834D01*
X63460000Y-121224834D01*
X63460000Y-119679667D01*
X63077887Y-119679667D01*
X62854407Y-119683919D01*
G36*
X58948599Y-120793242D02*
X58935278Y-120830692D01*
X58930776Y-120898549D01*
X58930333Y-121002584D01*
X58930333Y-121224834D01*
X59009708Y-121224952D01*
X59148601Y-121241565D01*
X59262023Y-121289781D01*
X59347536Y-121367839D01*
X59402701Y-121473976D01*
X59414356Y-121517281D01*
X59421585Y-121574587D01*
X59427592Y-121672239D01*
X59432323Y-121808264D01*
X59435725Y-121980691D01*
X59437743Y-122187549D01*
X59438333Y-122400625D01*
X59438333Y-123172167D01*
X59882833Y-123172167D01*
X59882833Y-120822667D01*
X59438333Y-120822667D01*
X59438333Y-121104185D01*
X59376280Y-121018524D01*
X59274521Y-120906384D01*
X59159190Y-120829893D01*
X59089083Y-120803697D01*
X59020740Y-120785709D01*
X58975499Y-120780236D01*
X58948599Y-120793242D01*
X58948599Y-120793242D01*
G37*
X58948599Y-120793242D02*
X58935278Y-120830692D01*
X58930776Y-120898549D01*
X58930333Y-121002584D01*
X58930333Y-121224834D01*
X59009708Y-121224952D01*
X59148601Y-121241565D01*
X59262023Y-121289781D01*
X59347536Y-121367839D01*
X59402701Y-121473976D01*
X59414356Y-121517281D01*
X59421585Y-121574587D01*
X59427592Y-121672239D01*
X59432323Y-121808264D01*
X59435725Y-121980691D01*
X59437743Y-122187549D01*
X59438333Y-122400625D01*
X59438333Y-123172167D01*
X59882833Y-123172167D01*
X59882833Y-120822667D01*
X59438333Y-120822667D01*
X59438333Y-121104185D01*
X59376280Y-121018524D01*
X59274521Y-120906384D01*
X59159190Y-120829893D01*
X59089083Y-120803697D01*
X59020740Y-120785709D01*
X58975499Y-120780236D01*
X58948599Y-120793242D01*
G36*
X58184375Y-120580813D02*
X58178916Y-121841793D01*
X57914333Y-121340176D01*
X57843315Y-121206758D01*
X57777825Y-121086046D01*
X57720665Y-120983018D01*
X57674637Y-120902655D01*
X57642541Y-120849936D01*
X57627223Y-120829857D01*
X57597795Y-120826810D01*
X57535946Y-120825404D01*
X57451557Y-120825746D01*
X57379795Y-120827203D01*
X57154894Y-120833250D01*
X57451259Y-121351166D01*
X57747625Y-121869083D01*
X57653623Y-122049666D01*
X57611363Y-122131030D01*
X57555407Y-122239026D01*
X57491446Y-122362655D01*
X57425172Y-122490915D01*
X57384913Y-122568917D01*
X57322478Y-122689493D01*
X57260935Y-122807541D01*
X57205253Y-122913583D01*
X57160402Y-122998147D01*
X57137900Y-123039875D01*
X57065595Y-123172167D01*
X57577784Y-123172167D01*
X57883642Y-122553282D01*
X58189500Y-121934398D01*
X58189500Y-123172167D01*
X58634000Y-123172167D01*
X58634000Y-119319834D01*
X58189833Y-119319834D01*
X58184375Y-120580813D01*
X58184375Y-120580813D01*
G37*
X58184375Y-120580813D02*
X58178916Y-121841793D01*
X57914333Y-121340176D01*
X57843315Y-121206758D01*
X57777825Y-121086046D01*
X57720665Y-120983018D01*
X57674637Y-120902655D01*
X57642541Y-120849936D01*
X57627223Y-120829857D01*
X57597795Y-120826810D01*
X57535946Y-120825404D01*
X57451557Y-120825746D01*
X57379795Y-120827203D01*
X57154894Y-120833250D01*
X57451259Y-121351166D01*
X57747625Y-121869083D01*
X57653623Y-122049666D01*
X57611363Y-122131030D01*
X57555407Y-122239026D01*
X57491446Y-122362655D01*
X57425172Y-122490915D01*
X57384913Y-122568917D01*
X57322478Y-122689493D01*
X57260935Y-122807541D01*
X57205253Y-122913583D01*
X57160402Y-122998147D01*
X57137900Y-123039875D01*
X57065595Y-123172167D01*
X57577784Y-123172167D01*
X57883642Y-122553282D01*
X58189500Y-121934398D01*
X58189500Y-123172167D01*
X58634000Y-123172167D01*
X58634000Y-119319834D01*
X58189833Y-119319834D01*
X58184375Y-120580813D01*
D14*
X70202381Y-85011905D02*
X69202381Y-85011905D01*
X69202381Y-85392858D01*
X69250000Y-85488096D01*
X69297619Y-85535715D01*
X69392857Y-85583334D01*
X69535714Y-85583334D01*
X69630952Y-85535715D01*
X69678571Y-85488096D01*
X69726190Y-85392858D01*
X69726190Y-85011905D01*
X70202381Y-86059524D02*
X70202381Y-86250000D01*
X70154762Y-86345239D01*
X70107143Y-86392858D01*
X69964286Y-86488096D01*
X69773810Y-86535715D01*
X69392857Y-86535715D01*
X69297619Y-86488096D01*
X69250000Y-86440477D01*
X69202381Y-86345239D01*
X69202381Y-86154762D01*
X69250000Y-86059524D01*
X69297619Y-86011905D01*
X69392857Y-85964286D01*
X69630952Y-85964286D01*
X69726190Y-86011905D01*
X69773810Y-86059524D01*
X69821429Y-86154762D01*
X69821429Y-86345239D01*
X69773810Y-86440477D01*
X69726190Y-86488096D01*
X69630952Y-86535715D01*
X70372381Y-66535714D02*
X69372381Y-66535714D01*
X69372381Y-66916667D01*
X69420000Y-67011905D01*
X69467619Y-67059524D01*
X69562857Y-67107143D01*
X69705714Y-67107143D01*
X69800952Y-67059524D01*
X69848571Y-67011905D01*
X69896190Y-66916667D01*
X69896190Y-66535714D01*
X70372381Y-68059524D02*
X70372381Y-67488095D01*
X70372381Y-67773809D02*
X69372381Y-67773809D01*
X69515238Y-67678571D01*
X69610476Y-67583333D01*
X69658095Y-67488095D01*
X69372381Y-68678571D02*
X69372381Y-68773810D01*
X69420000Y-68869048D01*
X69467619Y-68916667D01*
X69562857Y-68964286D01*
X69753333Y-69011905D01*
X69991429Y-69011905D01*
X70181905Y-68964286D01*
X70277143Y-68916667D01*
X70324762Y-68869048D01*
X70372381Y-68773810D01*
X70372381Y-68678571D01*
X70324762Y-68583333D01*
X70277143Y-68535714D01*
X70181905Y-68488095D01*
X69991429Y-68440476D01*
X69753333Y-68440476D01*
X69562857Y-68488095D01*
X69467619Y-68535714D01*
X69420000Y-68583333D01*
X69372381Y-68678571D01*
X70202381Y-102785714D02*
X69202381Y-102785714D01*
X69202381Y-103166667D01*
X69250000Y-103261905D01*
X69297619Y-103309524D01*
X69392857Y-103357143D01*
X69535714Y-103357143D01*
X69630952Y-103309524D01*
X69678571Y-103261905D01*
X69726190Y-103166667D01*
X69726190Y-102785714D01*
X70202381Y-104309524D02*
X70202381Y-103738095D01*
X70202381Y-104023809D02*
X69202381Y-104023809D01*
X69345238Y-103928571D01*
X69440476Y-103833333D01*
X69488095Y-103738095D01*
X70202381Y-105261905D02*
X70202381Y-104690476D01*
X70202381Y-104976190D02*
X69202381Y-104976190D01*
X69345238Y-104880952D01*
X69440476Y-104785714D01*
X69488095Y-104690476D01*
X100833095Y-106202381D02*
X100833095Y-105202381D01*
X100452142Y-105202381D01*
X100356904Y-105250000D01*
X100309285Y-105297619D01*
X100261666Y-105392857D01*
X100261666Y-105535714D01*
X100309285Y-105630952D01*
X100356904Y-105678571D01*
X100452142Y-105726190D01*
X100833095Y-105726190D01*
X99309285Y-106202381D02*
X99880714Y-106202381D01*
X99595000Y-106202381D02*
X99595000Y-105202381D01*
X99690238Y-105345238D01*
X99785476Y-105440476D01*
X99880714Y-105488095D01*
X100833095Y-87952381D02*
X100833095Y-86952381D01*
X100452142Y-86952381D01*
X100356904Y-87000000D01*
X100309285Y-87047619D01*
X100261666Y-87142857D01*
X100261666Y-87285714D01*
X100309285Y-87380952D01*
X100356904Y-87428571D01*
X100452142Y-87476190D01*
X100833095Y-87476190D01*
X99880714Y-87047619D02*
X99833095Y-87000000D01*
X99737857Y-86952381D01*
X99499761Y-86952381D01*
X99404523Y-87000000D01*
X99356904Y-87047619D01*
X99309285Y-87142857D01*
X99309285Y-87238095D01*
X99356904Y-87380952D01*
X99928333Y-87952381D01*
X99309285Y-87952381D01*
X100833095Y-69702381D02*
X100833095Y-68702381D01*
X100452142Y-68702381D01*
X100356904Y-68750000D01*
X100309285Y-68797619D01*
X100261666Y-68892857D01*
X100261666Y-69035714D01*
X100309285Y-69130952D01*
X100356904Y-69178571D01*
X100452142Y-69226190D01*
X100833095Y-69226190D01*
X99928333Y-68702381D02*
X99309285Y-68702381D01*
X99642619Y-69083333D01*
X99499761Y-69083333D01*
X99404523Y-69130952D01*
X99356904Y-69178571D01*
X99309285Y-69273810D01*
X99309285Y-69511905D01*
X99356904Y-69607143D01*
X99404523Y-69654762D01*
X99499761Y-69702381D01*
X99785476Y-69702381D01*
X99880714Y-69654762D01*
X99928333Y-69607143D01*
X100738095Y-52952381D02*
X100738095Y-51952381D01*
X100357142Y-51952381D01*
X100261904Y-52000000D01*
X100214285Y-52047619D01*
X100166666Y-52142857D01*
X100166666Y-52285714D01*
X100214285Y-52380952D01*
X100261904Y-52428571D01*
X100357142Y-52476190D01*
X100738095Y-52476190D01*
X99261904Y-51952381D02*
X99738095Y-51952381D01*
X99785714Y-52428571D01*
X99738095Y-52380952D01*
X99642857Y-52333333D01*
X99404761Y-52333333D01*
X99309523Y-52380952D01*
X99261904Y-52428571D01*
X99214285Y-52523810D01*
X99214285Y-52761905D01*
X99261904Y-52857143D01*
X99309523Y-52904762D01*
X99404761Y-52952381D01*
X99642857Y-52952381D01*
X99738095Y-52904762D01*
X99785714Y-52857143D01*
M02*
