G04 #@! TF.FileFunction,Soldermask,Top*
%FSLAX46Y46*%
G04 Gerber Fmt 4.6, Leading zero omitted, Abs format (unit mm)*
G04 Created by KiCad (PCBNEW 4.0.4-stable) date 05/10/17 14:11:39*
%MOMM*%
%LPD*%
G01*
G04 APERTURE LIST*
%ADD10C,0.100000*%
%ADD11R,1.600000X1.600000*%
%ADD12R,1.650000X1.400000*%
%ADD13R,1.400000X1.650000*%
%ADD14R,1.900000X0.750000*%
%ADD15R,3.400000X3.400000*%
%ADD16C,3.400000*%
%ADD17R,1.700000X1.100000*%
%ADD18R,1.100000X1.700000*%
%ADD19C,1.150000*%
%ADD20C,1.200000*%
%ADD21C,1.250000*%
%ADD22C,1.400000*%
%ADD23C,1.900000*%
%ADD24C,3.100000*%
%ADD25R,2.700000X0.900000*%
%ADD26R,2.900000X2.400000*%
%ADD27C,1.300000*%
%ADD28C,2.000000*%
%ADD29O,2.000000X2.000000*%
%ADD30R,1.450000X1.500000*%
%ADD31C,3.600000*%
G04 APERTURE END LIST*
D10*
D11*
X123600000Y-99000000D03*
X121400000Y-99000000D03*
D12*
X106500000Y-108000000D03*
X106500000Y-110000000D03*
D13*
X119000000Y-112000000D03*
X117000000Y-112000000D03*
X121000000Y-112000000D03*
X123000000Y-112000000D03*
X112500000Y-92500000D03*
X110500000Y-92500000D03*
D12*
X112500000Y-108000000D03*
X112500000Y-110000000D03*
X110500000Y-108000000D03*
X110500000Y-110000000D03*
D14*
X114200000Y-102320000D03*
X108800000Y-102320000D03*
X114200000Y-101700000D03*
X108800000Y-101680000D03*
X108800000Y-102960000D03*
X114200000Y-102960000D03*
X114200000Y-103600000D03*
X108800000Y-103600000D03*
X108800000Y-101040000D03*
X108800000Y-100400000D03*
X114200000Y-101040000D03*
X114200000Y-100400000D03*
X114200000Y-104240000D03*
X114200000Y-99760000D03*
X108800000Y-99760000D03*
X108800000Y-104240000D03*
X114200000Y-104880000D03*
X108800000Y-104880000D03*
X108800000Y-99120000D03*
X114200000Y-99120000D03*
X114200000Y-98480000D03*
X108800000Y-98480000D03*
X108800000Y-105520000D03*
X114200000Y-105520000D03*
X114200000Y-106160000D03*
X108800000Y-106160000D03*
X108800000Y-97840000D03*
X114200000Y-97840000D03*
D15*
X62000000Y-85920000D03*
D16*
X62000000Y-91000000D03*
D15*
X75000000Y-85920000D03*
D16*
X75000000Y-91000000D03*
D15*
X75000000Y-67720000D03*
D16*
X75000000Y-72800000D03*
D15*
X75000000Y-104120000D03*
D16*
X75000000Y-109200000D03*
D11*
X121400000Y-97000000D03*
X123600000Y-97000000D03*
X123600000Y-95000000D03*
X121400000Y-95000000D03*
X121400000Y-93000000D03*
X123600000Y-93000000D03*
X123600000Y-91000000D03*
X121400000Y-91000000D03*
D17*
X116000000Y-108050000D03*
X116000000Y-109950000D03*
X118500000Y-110000000D03*
X118500000Y-108100000D03*
D18*
X121550000Y-105000000D03*
X123450000Y-105000000D03*
X115000000Y-93000000D03*
X116900000Y-93000000D03*
X121550000Y-102000000D03*
X123450000Y-102000000D03*
D17*
X108500000Y-109950000D03*
X108500000Y-108050000D03*
D19*
X100000000Y-109200000D03*
X99350000Y-108550000D03*
X98700000Y-109200000D03*
X100650000Y-108550000D03*
X101300000Y-109200000D03*
D20*
X102800000Y-109620000D03*
X97200000Y-109620000D03*
D21*
X98500000Y-107620000D03*
X101500000Y-107620000D03*
X101500000Y-110120000D03*
X98500000Y-110120000D03*
D22*
X96675000Y-108580000D03*
X103325000Y-108580000D03*
D19*
X100000000Y-91000000D03*
X99350000Y-90350000D03*
X98700000Y-91000000D03*
X100650000Y-90350000D03*
X101300000Y-91000000D03*
D20*
X102800000Y-91420000D03*
X97200000Y-91420000D03*
D21*
X98500000Y-89420000D03*
X101500000Y-89420000D03*
X101500000Y-91920000D03*
X98500000Y-91920000D03*
D22*
X96675000Y-90380000D03*
X103325000Y-90380000D03*
D19*
X100000000Y-72800000D03*
X99350000Y-72150000D03*
X98700000Y-72800000D03*
X100650000Y-72150000D03*
X101300000Y-72800000D03*
D20*
X102800000Y-73220000D03*
X97200000Y-73220000D03*
D21*
X98500000Y-71220000D03*
X101500000Y-71220000D03*
X101500000Y-73720000D03*
X98500000Y-73720000D03*
D22*
X96675000Y-72180000D03*
X103325000Y-72180000D03*
D23*
X99000000Y-55500000D03*
X101000000Y-55500000D03*
X103000000Y-55500000D03*
X97000000Y-55500000D03*
D16*
X93430000Y-52790000D03*
X106570000Y-52790000D03*
D22*
X114300000Y-81300000D03*
X114300000Y-79700000D03*
X114300000Y-82900000D03*
X112400000Y-82100000D03*
X112400000Y-80500000D03*
D24*
X113400000Y-77100000D03*
X113400000Y-85500000D03*
D23*
X113200000Y-60060000D03*
X113200000Y-62600000D03*
X113200000Y-64630000D03*
X113200000Y-67170000D03*
D16*
X115870000Y-57010000D03*
X115870000Y-70730000D03*
D25*
X117700000Y-82900000D03*
X117700000Y-82100000D03*
X117700000Y-81300000D03*
X117700000Y-80500000D03*
X117700000Y-79700000D03*
D26*
X117800000Y-85750000D03*
X123300000Y-85750000D03*
X117800000Y-76850000D03*
X123300000Y-76850000D03*
D27*
X120300000Y-83500000D03*
X120300000Y-79100000D03*
D28*
X86500000Y-85500000D03*
D29*
X86500000Y-60500000D03*
D28*
X86500000Y-94500000D03*
D29*
X86500000Y-114500000D03*
D30*
X112425000Y-95000000D03*
X110575000Y-95000000D03*
D31*
X53500000Y-53500000D03*
X121500000Y-53500000D03*
X121500000Y-121500000D03*
X53500000Y-121500000D03*
M02*
